<svg width="247" height="72" viewBox="0 0 247 72" fill="none" xmlns="http://www.w3.org/2000/svg">
<g clip-path="url(#clip0_321_1785)">
<path fill-rule="evenodd" clip-rule="evenodd" d="M21.6975 60.4187C16.3664 60.4187 12.0456 56.0978 12.0456 50.7668V25.3243H9.65191C4.32084 25.3243 0 21.0035 0 15.6724V10.2288C0 4.90092 4.32084 0.580078 9.65191 0.580078H39.7659C45.0969 0.580078 49.4178 4.90091 49.4178 10.232V12.864C51.9044 12.0288 54.595 11.5801 57.4289 11.5801C62.3092 11.5801 66.7719 12.9107 70.5014 15.2546C72.2642 13.3527 74.784 12.1624 77.5821 12.1624H83.6628C84.6988 12.1624 85.6993 12.3264 86.6356 12.6289C88.7011 11.9404 90.9275 11.5833 93.2761 11.5833C99.8265 11.5833 105.714 14.3727 109.855 19.4431C113.49 23.8926 115.495 29.8768 115.495 36.2921C115.495 50.3646 105.962 60.9785 93.3147 61.001V62.3523C93.3147 67.6833 88.9939 72.0042 83.6628 72.0042H77.5821V72.001C72.251 72.001 67.9302 67.6801 67.9302 62.3491V58.7294C64.7854 60.1918 61.236 60.9978 57.4289 60.9978C48.9252 60.9978 41.7112 56.9577 37.4301 50.5571V50.77C37.4301 56.1011 33.1093 60.4219 27.7782 60.4219H21.6975V60.4187Z" fill="white"/>
<path fill-rule="evenodd" clip-rule="evenodd" d="M140.995 60.4187C135.808 60.4187 131.552 56.3231 131.349 51.14C131.028 42.8265 133.962 37.0353 138.064 32.6469C134.66 31.241 132.253 27.9561 132.102 24.1018C131.848 17.6575 134.049 11.6733 138.299 7.25599C142.732 2.6456 149.183 0.000976562 155.994 0.000976562C168.753 0.000976562 178.492 8.79474 179.212 20.6838C179.348 20.6782 179.484 20.6753 179.622 20.6753H196.995C198.253 20.6753 199.456 20.9161 200.558 21.3542L202.516 8.75198C203.246 4.0515 207.294 0.583252 212.052 0.583252H235.564C240.895 0.583252 245.216 4.90409 245.216 10.2352V15.6788C245.216 18.7739 243.759 21.5279 241.497 23.2942C244.737 27.2032 246.664 32.264 246.664 37.8589C246.664 51.0531 236.192 61.0042 222.303 61.0042V60.9977C216.074 60.9977 210.212 58.855 205.801 54.9685C202.799 52.3219 200.541 48.9478 199.196 45.1706C198.489 45.3356 197.752 45.4228 196.995 45.4228H179.66V50.77C179.66 56.1011 175.339 60.4219 170.008 60.4219H140.995V60.4187Z" fill="white"/>
<path d="M39.7663 15.6756H27.7786V50.7699H21.6979V15.6756H9.65234V10.2319H39.7663V15.6756Z" fill="black"/>
<path d="M83.6627 45.1526V62.3523H77.582V21.8175H83.6627V27.4349C85.4001 23.7865 88.5273 21.2384 93.276 21.2384C100.805 21.2384 105.843 27.7245 105.843 36.2954C105.843 44.8663 100.805 51.3523 93.276 51.3523C88.5273 51.3523 85.4001 48.8042 83.6627 45.1558V45.1526ZM91.7124 45.8475C96.8665 45.8475 99.7621 41.4463 99.7621 36.2922C99.7621 31.138 96.8665 26.6789 91.7124 26.6789C86.5583 26.6789 83.6627 31.0801 83.6627 36.2922C83.6627 41.5042 86.5004 45.8475 91.7124 45.8475Z" fill="black"/>
<path d="M155.994 9.65283C163.696 9.65283 169.603 14.6332 169.603 22.1038C169.603 28.4161 165.028 31.8908 160.048 35.018L154.951 38.319C151.419 40.5775 149.276 42.7203 148.118 45.2684H170.008V50.77H140.995C140.705 43.2994 144.18 38.956 151.303 34.2652L157.557 30.1535C160.743 28.0108 163.522 25.8101 163.522 22.1617C163.522 17.9342 160.395 15.0965 155.994 15.0965C151.187 15.0965 147.597 18.5133 147.539 24.1886L141.748 23.7253C141.4 14.8649 148.292 9.65283 155.994 9.65283Z" fill="black"/>
<path d="M179.622 30.3271H196.996V35.7708H179.622V30.3271Z" fill="black"/>
<path d="M212.052 10.2319H235.564V15.6756H216.975L215.064 28.1845C217.264 26.3313 220.218 24.8835 224.098 24.8835C230.816 24.8835 237.012 29.8639 237.012 37.8557C237.012 45.8475 230.873 51.3491 222.303 51.3491C213.732 51.3491 208.404 45.9054 207.535 38.7244L213.384 37.8557C213.848 42.4886 217.264 45.8475 222.187 45.8475C227.515 45.8475 230.931 42.3149 230.931 37.682C230.931 33.049 226.993 29.9218 222.65 29.9218C218.596 29.9218 215.759 32.2962 214.427 34.3231L208.462 33.3386L212.052 10.2319Z" fill="black"/>
<path d="M42.8931 36.2922C42.8931 28.0109 48.4526 21.2352 57.4288 21.2352C66.4051 21.2352 72.0225 28.0109 72.0225 36.2922C72.0225 44.5735 66.4051 51.3492 57.4288 51.3492C48.4526 51.3492 42.8931 44.5735 42.8931 36.2922ZM57.4288 45.8476C62.8725 45.8476 65.9418 41.4463 65.9418 36.2922C65.9418 31.1381 62.8725 26.6789 57.4288 26.6789C51.9852 26.6789 48.9738 31.0802 48.9738 36.2922C48.9738 41.5042 52.0431 45.8476 57.4288 45.8476Z" fill="black"/>
</g>
<defs>
<clipPath id="clip0_321_1785">
<rect width="246.661" height="72" fill="white" transform="translate(0 0.000976562)"/>
</clipPath>
</defs>
</svg>
