<svg width="394" height="72" viewBox="0 0 394 72" fill="none" xmlns="http://www.w3.org/2000/svg">
<g clip-path="url(#clip0_321_1838)">
<path d="M24.8796 71.3406C18.7666 71.3406 13.8121 66.3861 13.8121 60.2732V31.0995H11.0674C4.95451 31.0995 0 26.1449 0 20.032V13.79C0 7.67711 4.95451 2.7226 11.0674 2.7226H45.5978C51.7107 2.7226 56.6652 7.67711 56.6652 13.79V20.032C56.6652 26.1449 51.7107 31.0995 45.5978 31.0995H42.9194V60.2732C42.9194 66.3861 37.9649 71.3406 31.852 71.3406H24.8796Z" fill="white"/>
<path d="M74.683 71.3406C71.5878 71.3406 68.7915 70.0715 66.7809 68.0204C64.774 70.0678 61.9739 71.3406 58.8788 71.3406H51.9063C45.7934 71.3406 40.8389 66.3861 40.8389 60.2732V13.79C40.8389 7.67711 45.7934 2.7226 51.9063 2.7226H58.8788C64.9917 2.7226 69.9462 7.67711 69.9462 13.79V15.3395H69.9683C76.487 15.3395 82.3749 17.8628 86.5547 22.4447C90.5906 26.868 92.7229 32.8075 92.7229 39.6214V60.2732C92.7229 66.3861 87.7684 71.3406 81.6555 71.3406H74.683Z" fill="white"/>
<path d="M103.901 72.0009C96.0357 72.0009 88.8345 68.9537 83.6254 63.4237C78.6857 58.1814 75.9668 51.1647 75.9668 43.6683C75.9668 36.172 78.6894 29.1147 83.6365 23.8761C88.8382 18.3682 96.032 15.3358 103.901 15.3358C111.77 15.3358 118.632 18.2871 123.553 23.6511C128.869 29.443 131.374 37.596 130.599 46.6049C130.54 47.3021 130.415 47.9809 130.234 48.6339C130.378 49.8882 130.311 51.172 130.016 52.43C127.275 64.1357 116.783 71.9972 103.901 71.9972V72.0009Z" fill="white"/>
<path d="M87.0342 43.672C87.0342 34.1762 93.8074 26.4069 103.901 26.4069C113.994 26.4069 120.568 34.0434 119.572 45.6642H94.1395C94.7371 51.0429 98.0573 55.2264 103.967 55.2264C108.416 55.2264 111.537 52.8358 112.799 49.25L119.24 49.9141C117.779 56.1561 112.135 60.9372 103.901 60.9372C93.8074 60.9372 87.0342 53.1015 87.0342 43.672ZM112.733 40.4182C112.002 35.6371 109.213 32.0512 103.768 32.0512C98.3229 32.0512 95.2019 35.6371 94.2723 40.4182H112.733Z" fill="black"/>
<path d="M184.317 71.3406C182.173 71.3406 180.152 70.7245 178.44 69.651C176.728 70.7245 174.707 71.3406 172.563 71.3406H165.657C160.201 71.3406 155.56 67.3674 154.723 61.9775L147.485 15.4944C146.986 12.2996 147.912 9.04947 150.015 6.5925C152.118 4.13554 155.187 2.7226 158.423 2.7226H165.196C167.114 2.7226 168.926 3.21325 170.508 4.0802C172.091 3.21325 173.906 2.7226 175.821 2.7226H181.067C182.967 2.7226 184.767 3.20587 186.346 4.06175C187.921 3.20587 189.721 2.7226 191.625 2.7226H198.465C201.696 2.7226 204.769 4.13554 206.872 6.5925C208.975 9.04947 209.897 12.2996 209.403 15.4944L202.165 61.9775C201.328 67.3674 196.683 71.3406 191.23 71.3406H184.324H184.317Z" fill="white"/>
<path d="M202.18 71.3406C196.067 71.3406 191.112 66.386 191.112 60.2731V53.9647C191.112 49.0877 194.267 44.9485 198.646 43.4728C194.72 41.7721 191.976 37.8616 191.976 33.3129V27.0709C191.976 21.4634 196.144 16.8335 201.553 16.1031C201.545 15.8854 201.538 15.6678 201.538 15.4501C201.538 6.93189 208.47 0 216.988 0C225.506 0 232.438 6.93189 232.438 15.4501C232.438 18.0768 231.781 20.5522 230.619 22.7177C231.191 24.0532 231.508 25.5251 231.508 27.0709V42.8973H231.73C237.843 42.8973 242.797 47.8518 242.797 53.9647V60.2731C242.797 66.386 237.843 71.3406 231.73 71.3406H202.18Z" fill="white"/>
<path d="M261.28 71.3405C258.351 71.3405 255.691 70.2043 253.71 68.3486C251.729 70.2043 249.069 71.3405 246.14 71.3405H239.167C233.054 71.3405 228.1 66.386 228.1 60.2731V27.0709C228.1 20.958 233.054 16.0035 239.167 16.0035H246.14C247.291 16.0035 248.401 16.1805 249.441 16.5052C251.754 15.7415 254.237 15.3394 256.827 15.3394C270.067 15.3394 279.316 25.3259 279.316 39.6213V60.2731C279.316 66.386 274.361 71.3405 268.249 71.3405H261.276H261.28Z" fill="white"/>
<path d="M298.798 71.3405C295.869 71.3405 293.209 70.2043 291.228 68.3486C289.247 70.2043 286.587 71.3405 283.658 71.3405H276.686C270.573 71.3405 265.618 66.386 265.618 60.2731V27.0709C265.618 20.958 270.573 16.0035 276.686 16.0035H283.658C284.809 16.0035 285.919 16.1805 286.96 16.5052C289.273 15.7415 291.756 15.3394 294.345 15.3394C307.586 15.3394 316.834 25.3259 316.834 39.6213V60.2731C316.834 66.386 311.88 71.3405 305.767 71.3405H298.795H298.798Z" fill="white"/>
<path d="M329.012 72.0009C321.147 72.0009 313.946 68.9537 308.737 63.4237C303.797 58.1814 301.078 51.1647 301.078 43.6683C301.078 36.172 303.801 29.1147 308.748 23.8761C313.95 18.3682 321.147 15.3358 329.012 15.3358C336.878 15.3358 343.743 18.2871 348.664 23.6511C353.98 29.443 356.482 37.596 355.711 46.6049C355.652 47.3021 355.526 47.9809 355.345 48.6339C355.493 49.8882 355.423 51.1757 355.128 52.43C352.387 64.1357 341.895 71.9972 329.012 71.9972V72.0009Z" fill="white"/>
<path d="M350.594 71.3406C344.481 71.3406 339.526 66.3861 339.526 60.2732V53.9647C339.526 49.1024 342.662 44.9706 347.023 43.4876C343.083 41.7943 340.323 37.8764 340.323 33.3166V27.0746C340.323 20.9617 345.278 16.0072 351.391 16.0072H366.531C367.756 16.0072 368.936 16.2064 370.036 16.5753C372.43 15.7674 375.02 15.3431 377.753 15.3431C383.482 15.3431 387.024 16.9553 388.625 17.9145C391.96 19.914 394 23.5183 394 27.4066V33.9807C394 37.8764 391.953 41.4844 388.607 43.4802C387.256 44.2881 385.773 44.7825 384.261 44.9669C387.061 46.9738 388.887 50.2571 388.887 53.9684V60.2768C388.887 66.3898 383.933 71.3443 377.82 71.3443H350.594V71.3406Z" fill="white"/>
<path d="M350.594 53.9647H359.558V33.3129H351.391V27.0709H366.531V34.2426C368.324 29.5279 372.042 26.4069 377.753 26.4069C380.941 26.4069 382.601 27.2037 382.933 27.4029V33.977C382.069 33.5121 380.21 32.6489 376.956 32.6489C370.98 32.6489 366.531 36.6996 366.531 43.8712V53.9647H377.82V60.2732H350.594V53.9647Z" fill="black"/>
<path d="M58.8787 33.4457C60.8045 29.2622 64.3239 26.4068 69.9683 26.4068C76.8079 26.4068 81.6555 31.3208 81.6555 39.6213V60.2731H74.683V41.3478C74.683 36.0355 72.0932 32.6489 67.3121 32.6489C61.5349 32.6489 58.8787 37.098 58.8787 42.5431V60.2731H51.9062V13.79H58.8787V33.4457Z" fill="black"/>
<path d="M45.5977 20.032H31.852V60.2731H24.8795V20.032H11.0674V13.79H45.5977V20.032Z" fill="black"/>
<path d="M312.146 43.672C312.146 34.1762 318.919 26.4069 329.012 26.4069C339.106 26.4069 345.68 34.0434 344.684 45.6642H319.251C319.848 51.0429 323.169 55.2264 329.079 55.2264C333.528 55.2264 336.649 52.8358 337.91 49.25L344.352 49.9141C342.891 56.1561 337.246 60.9372 329.012 60.9372C318.919 60.9372 312.146 53.1015 312.146 43.672ZM337.844 40.4182C337.114 35.6371 334.325 32.0512 328.879 32.0512C323.434 32.0512 320.313 35.6371 319.384 40.4182H337.844Z" fill="black"/>
<path d="M283.658 33.2465C285.584 29.1294 289.236 26.4069 294.349 26.4069C300.99 26.4069 305.771 30.9888 305.771 39.6214V60.2732H298.798V41.3479C298.798 35.7035 296.275 32.6489 291.693 32.6489C287.111 32.6489 283.658 36.4339 283.658 41.8791V60.2732H276.686V27.0709H283.658V33.2465Z" fill="black"/>
<path d="M246.139 33.2465C248.065 29.1294 251.717 26.4069 256.831 26.4069C263.471 26.4069 268.252 30.9888 268.252 39.6214V60.2732H261.28V41.3479C261.28 35.7035 258.756 32.6489 254.174 32.6489C249.592 32.6489 246.139 36.4339 246.139 41.8791V60.2732H239.167V27.0709H246.139V33.2465Z" fill="black"/>
<path d="M220.441 53.9647H231.73V60.2732H202.18V53.9647H213.468V33.313H203.043V27.0709H220.441V53.9647ZM216.988 11.0674C219.378 11.0674 221.371 13.0596 221.371 15.4501C221.371 17.8407 219.378 19.8328 216.988 19.8328C214.597 19.8328 212.605 17.9071 212.605 15.4501C212.605 12.9932 214.531 11.0674 216.988 11.0674Z" fill="black"/>
<path d="M158.419 13.79H165.192L169.708 51.7069L175.817 13.79H181.063L187.172 51.5077L191.621 13.79H198.461L191.223 60.2731H184.317L178.473 23.8835L172.563 60.2731H165.657L158.419 13.79Z" fill="black"/>
</g>
<defs>
<clipPath id="clip0_321_1838">
<rect width="394" height="72.0009" fill="white"/>
</clipPath>
</defs>
</svg>
