<svg fill="none" height="163" viewBox="0 0 163 163" width="163" xmlns="http://www.w3.org/2000/svg" xmlns:xlink="http://www.w3.org/1999/xlink"><clipPath id="a"><rect height="163" rx="81.5" width="163"/></clipPath><clipPath id="b"><path d="m-12 20h187v202h-187z"/></clipPath><g clip-path="url(#a)"><circle cx="81.5" cy="81.5" fill="#ffdeb5" r="81.5"/><g clip-path="url(#b)"><path d="m59.6092 99.8161 1.9041 23.5749s5.7279 5.992 8.0906 7.822c2.5181 1.953 8.6423 5.597 11.8133 5.969 1.5699.186 6.2408-1.109 6.2408-1.109l4.1502-1.697 7.9818-4.396s3.676-3.488 4.446-5.427c.248-.635.8-4.031.8-4.031 19.36 4.822 36.186 13.481 51.769 25.908 2.79 2.225 5.533 4.597 7.469 7.59 2.766 4.256 3.691 9.403 4.538 14.403 1.85 10.869 3.622 21.753 5.309 32.653.893 5.752 1.523 12.357-2.371 16.69l-2.409.876c-8.394-2.728-33.668-.876-57.24-.806-39.7148.124-46.5074-1.473-86.0742 1.845-10.9429.915-22.32097 3.675-32.6343-.085-.86269-.318-1.91189-.644-2.61914-.07-.70724.574.22539 2.109.8316 1.427l-.83937-3.21c-3.24089-2.264-2.75129-7.109-1.86529-10.954 4.30567-18.714 9.62166-37.195 15.91691-55.335.95594-2.752 1.97406-5.566 3.89373-7.752 1.84196-2.101 4.36006-3.458 6.82376-4.768 15.2873-8.109 29.7353-15.458 45.3025-23.001l-1.6088-18.0317c.2953 7.2247 1.6865 16.3577 1.9818 23.5747.0233.643.0544 1.31.3031 1.907.3653.884 1.1347 1.512 1.8653 2.132 5.5724 4.744 10.7174 11.357 18.0386 11.659 3.6139.155 7.0802-1.341 10.391-2.806 5.386-2.38 11.3938-5.466 12.8708-11.156.598-2.318.326-4.76.054-7.139-.746-6.435-1.485-12.877-2.231-19.3113-14.23 2.7521-28.9111 3.1319-43.2659 1.1319" fill="#fff2e3"/><path d="m59.4158 99.8166c.5907 7.3104 1.1814 14.6204 1.772 21.9314.0467.62-.0466 1.411.3187 1.914.5129.714 1.2979 1.342 1.9119 1.962 1.0181 1.039 2.0518 2.062 3.0932 3.07 1.873 1.798 3.7927 3.372 6.0155 4.744 2.5491 1.574 5.4481 3.326 8.4402 3.876 1.1037.202 2.2461-.023 3.3342-.24s2.2305-.442 3.3031-.775c1.4222-.45 2.8989-1.086 4.2512-1.729 1.4844-.698 2.8989-1.589 4.3367-2.38 1.2358-.682 2.7046-1.271 3.8165-2.147.847-.667 1.593-1.597 2.292-2.404.785-.899 1.702-1.899 2.122-3.039.389-1.038.497-2.224.676-3.317.023-.14.008-.45.093-.566.016-.024 0-.117.024-.132-.202.132.769.411.497.31.995.372 2.106.55 3.132.837 8.184 2.295 16.135 5.38 23.705 9.225 7.492 3.799 14.595 8.334 21.279 13.412 3.583 2.721 7.36 5.535 9.94 9.271 2.503 3.613 3.583 7.939 4.376 12.202 1.787 9.621 3.256 19.303 4.78 28.97.691 4.38 1.639 8.823 1.655 13.272 0 1.923-.179 3.869-.793 5.698-.458 1.388-1.267 3.489-2.728 4.024-.474.17-.987.441-1.476.542-.42.086-.7-.046-1.135-.155-1.026-.263-2.075-.434-3.124-.573-2.899-.388-5.837-.52-8.767-.59-8.106-.201-16.228.07-24.334.272-16.733.411-33.4502.349-50.1831.155-12.4584-.148-24.8857-.055-37.3285.674-8.7279.512-17.4713 1.132-26.1525 2.171-4.5466.542-9.11647 1.093-13.7019 1.023-2.28494-.031-4.577652-.217-6.83151-.651-1.03366-.202-2.06733-.45-3.07767-.752-.91709-.279-1.83418-.729-2.78235-.861-.83937-.116-1.98961.187-1.84194 1.241.10103.713.77719 1.333 1.41449.806.0544-.046.06994-.132.0544-.194l-.71502-2.744c-.0544-.217-.08549-.411-.20984-.581-.25647-.334-.72279-.59-1.00256-.931-.3886-.473-.6839-1.015-.9016-1.589-1.4222-3.775.1322-8.264 1.0104-11.977 2.32379-9.76 4.91961-19.451 7.77968-29.063 1.430028-4.807 2.930007-9.598 4.49993-14.357.76165-2.318 1.53884-4.621 2.33158-6.931.7461-2.163 1.45334-4.372 2.55696-6.396 2.30048-4.217 6.52845-6.194 10.60085-8.349 4.3523-2.302 8.7124-4.581 13.0879-6.837 9.9714-5.14 20.0049-10.156 30.1007-15.047.0544-.031.101-.109.101-.171-.5363-6.008-1.0725-12.023-1.6088-18.0315-.0233-.248-.4119-.2558-.3964 0 .3187 7.4185 1.4922 14.7685 1.9119 22.1795.0855 1.519-.0388 3.077.9715 4.325 1.0104 1.249 2.4015 2.179 3.5518 3.249 2.3471 2.17 4.6243 4.442 7.2201 6.325 2.3937 1.729 5.0984 3.078 8.075 3.357 3.645.341 7.1268-1.031 10.3988-2.465 5.1373-2.24 11.4017-5.031 13.4297-10.721 1.415-3.977.264-8.621-.202-12.675-.567-4.9-1.135-9.807-1.694-14.7063-.016-.1318-.117-.2171-.257-.1938-14.2145 2.721-28.8257 3.1086-43.1648 1.1318-.2487-.031-.3575.3489-.1088.3876 14.4169 1.9847 29.0824 1.6047 43.3746-1.1318l-.256-.1938c.458 3.9533.909 7.8993 1.368 11.8533.458 3.954 1.166 7.644 1.166 11.45 0 6.814-5.5418 10.582-11.122 13.217-3.2409 1.535-6.6839 3.21-10.2978 3.621-3.2331.364-6.3108-.589-9.0387-2.279-2.627-1.628-4.8964-3.768-7.1424-5.877-1.0959-1.031-2.1995-2.062-3.3342-3.054-.6373-.55-1.3912-1.085-1.8652-1.798-.6218-.931-.5985-2.039-.6451-3.117-.3808-7.651-1.6243-15.233-1.9508-22.8845h-.3963c.3186 3.5505.6295 7.1085.9481 10.6595.1788 2.031.3653 4.07.5441 6.101.0233.225.2331 1.031.1088 1.24 0-.008-.5985.202-.684.241-.5362.217-1.0492.511-1.5621.759-1.1658.566-2.3316 1.132-3.4896 1.706-8.7667 4.294-17.479 8.69-26.1447 13.171-4.3212 2.24-8.6346 4.496-12.9325 6.775-3.5362 1.876-6.92474 3.814-8.9299 7.411-.9948 1.783-1.66319 3.714-2.33157 5.636-.80051 2.303-1.5777 4.613-2.34712 6.923-1.554383 4.69-3.046589 9.411-4.46885 14.14-2.80566 9.334-5.35485 18.737-7.64756 28.21-.9171 3.799-2.3083 7.869-2.0129 11.83.1088 1.419.4663 2.845 1.3367 3.993.3187.418.93267.76 1.18137 1.163.22539.356.26425 1.023.37305 1.434.10881.411.3886 1.015.38083 1.449-.00777.264.00777.349-.33419.047-.40414-.357-.06218-1.101.33419-1.341.32642-.194 1.05698.031 1.39894.132 2.13728.589 4.14243 1.325 6.349656 1.666 4.437764.69 8.945474.52 13.398754.109 4.5932-.426 9.1553-1.109 13.7485-1.496 4.5932-.388 9.1009-.737 13.6631-1.039 6.9558-.465 13.9117-.814 20.8753-.969 13.1268-.287 26.2691.101 39.3961.163 9.334.046 18.668-.016 28.002-.233 8.526-.201 17.052-.504 25.577-.419 3.249.031 6.513.117 9.754.427 1.267.124 2.534.279 3.785.527.699.14 1.593.574 2.285.442.645-.124 1.787-.473 2.316-.868 1.212-.9 1.974-2.938 2.394-4.334 1.08-3.566.754-7.411.248-11.047-1.36-9.822-3.077-19.605-4.725-29.381-.746-4.457-1.321-9.031-2.689-13.357-1.275-4.054-3.459-7.481-6.544-10.396-3.093-2.922-6.591-5.48-10.041-7.953-3.443-2.466-6.987-4.776-10.64-6.923-7.205-4.225-14.806-7.776-22.678-10.551-3.987-1.403-8.037-2.612-12.132-3.636-.094-.023-.226.031-.249.14-.202 1.256-.342 2.597-.731 3.814-.52 1.643-2.036 3.062-3.202 4.287-.575.605-1.0256 1.132-1.6784 1.488-1.1814.651-2.3549 1.295-3.5363 1.946-4.1346 2.279-8.1216 4.326-12.9324 4.923-1.8886.232-4.158-.233-5.8523-1.008-2.0751-.946-3.0466-1.488-4.974-3-2.7668-2.163-5.4559-4.76-7.9118-7.241-.5285-.535-1.057-1.077-1.5855-1.612-.2331-.241-.5984-.504-.7616-.791.0855.147.0466.093.0233-.093-.0389-.295-.0466-.589-.0699-.884-.1943-2.372-.3809-4.744-.5752-7.116-.4119-5.117-.8238-10.241-1.2357-15.3574-.0233-.2558-.4197-.2558-.3964 0z" fill="#190602"/><path d="m104.23 124.833c.248-.635.8-4.031.8-4.031 19.36 4.822 36.186 13.481 51.769 25.908 2.79 2.225 5.533 4.597 7.469 7.59 2.766 4.256 3.691 9.403 4.538 14.403 1.85 10.869 3.622 21.753 5.309 32.653.893 5.752 1.523 12.357-2.371 16.69l-2.409.876c-8.394-2.729-33.668-.876-57.24-.806-39.7146.124-46.5073-1.473-86.0741 1.845-10.9429.915-22.32093 3.675-32.63426-.085-.86269-.318-1.91189-.644-2.61914-.07-.71501.574.22539 2.109.8316 1.426l-.83937-3.209c-3.24093-2.264-2.75123-7.109-1.86523-10.954 4.30561-18.714 9.6216-37.195 15.91685-55.335.95594-2.752 1.97407-5.566 3.89373-7.753 1.84192-2.1 4.36002-3.457 6.82372-4.767 15.2874-8.109 29.7354-15.458 45.3025-23.001 0 0-.1477 1.201.3808 5.543.0777.643.0544 1.31.3031 1.907.3653.884 1.1347 1.511 1.8653 2.132 5.5724 4.744 10.7174 11.357 18.0386 11.659 3.6139.155 7.0802-1.341 10.3911-2.806 5.3859-2.38 11.3938-5.466 12.8698-11.156" fill="#c59d7b"/><path d="m104.424 124.888c.241-.683.342-1.427.474-2.132.047-.256.109-1.737.327-1.876-.21.131.862.403.87.403.373.093.738.194 1.112.294.676.179 1.344.365 2.02.558 1.454.411 2.899.853 4.337 1.311 5.534 1.775 10.943 3.914 16.189 6.418 10.438 4.985 20.541 11.35 29.277 18.947 2.292 1.992 4.391 4.217 5.852 6.899 1.461 2.683 2.293 5.598 2.914 8.543 1.345 6.38 2.254 12.877 3.303 19.303 1.05 6.427 2.254 13.202 3.125 19.831.349 2.682.567 5.442.178 8.132-.186 1.271-.505 2.535-1.041 3.705-.42.931-1.057 2.279-1.958 2.752-.513.264-1.361.628-1.928.706-.505.062-1.181-.256-1.702-.365-1.562-.333-3.155-.527-4.741-.666-4.577-.403-9.194-.419-13.787-.396-12.109.07-24.21.613-36.318.667-18.7851.085-37.6009-.674-56.3778-.062-10.7175.349-21.4583 1.008-32.1291 2.054-6.1787.605-12.334 1.659-18.55934 1.69-3.14762.016-6.303021-.248-9.37293-.992-1.33677-.325-2.61136-.907-3.94813-1.209-.66061-.148-1.65542-.217-2.0751.457-.4974.791.39637 2.256 1.28237 1.52.0544-.047.06994-.132.0544-.194l-.71502-2.745c-.0544-.217-.08549-.41-.20984-.581-.25647-.333-.72279-.589-1.00261-.93-.3886-.473-.6839-1.016-.9015-1.589-1.4223-3.776.1321-8.264 1.0103-11.978 2.32384-9.76 4.91966-19.45 7.77973-29.063 1.43003-4.806 2.930009-9.597 4.49994-14.357.76164-2.318 1.53883-4.62 2.33157-6.93.7461-2.163 1.45335-4.373 2.55696-6.396 2.30048-4.217 6.5284-6.194 10.6009-8.349 4.3523-2.303 8.7123-4.582 13.0879-6.838 9.9714-5.139 20.0049-10.155 30.1006-15.047.0622-.031.0933-.108.101-.17 0-.047 0-.085.0078-.085-.4974-.318-.3109.325-.2953.519.171 1.829.1476 3.674.2875 5.504.0778 1.047.3031 1.892 1.0182 2.69.7927.892 1.7953 1.612 2.6735 2.411 1.7487 1.589 3.4274 3.248 5.2072 4.799 3.1709 2.759 6.8237 5.294 11.1527 5.589 2.7512.186 5.4403-.597 7.974-1.605 2.1761-.868 4.3367-1.829 6.4196-2.899 4.0647-2.093 8.1135-4.969 9.3805-9.59.07-.248-.318-.356-.388-.108-1.104 4.023-4.415 6.698-7.9278 8.667-1.6865.946-3.4507 1.752-5.2149 2.535-2.3161 1.015-4.6787 2.023-7.1891 2.434-4.6631.768-8.8211-1.202-12.3884-4.039-1.5777-1.256-3.0544-2.636-4.5232-4.016-1.4689-1.379-3.0777-2.666-4.5233-4.085-1.772-1.744-1.3368-4.62-1.4689-6.93-.0233-.442.1088-1.566-.1632-1.97-.1943-.286-.2021-.131-.4197-.031-.0311.016 0 .14-.0233.163v.024c-.1554.124.0233-.194-.2953.023-.5752.395-1.3213.643-1.9586.946-9.3029 4.527-18.5593 9.163-27.7535 13.907-4.632 2.388-9.2485 4.806-13.8573 7.241-3.8393 2.031-7.69417 3.992-9.89362 7.922-1.02589 1.845-1.71759 3.853-2.40152 5.838-.87045 2.504-1.71759 5.016-2.54142 7.535-1.639869 4.969-3.20202 9.962-4.69423 14.977-2.97664 10.032-5.66573 20.141-8.05171 30.327-.8005 3.403-1.943 7.403-.5052 10.799.2643.62.6218 1.194 1.0726 1.69.45073.496.78492.574.9559 1.209.14767.558.28756 1.117.43523 1.675.0544.201.1943.527.1943.736 0 .031.06217.171.04663.186-.1399.186-.60621-.426-.62953-.558-.42745-1.884 3.16317-.38 3.70721-.209 1.1347.356 2.28494.651 3.4585.876 2.28494.442 4.60874.636 6.93254.667 4.9274.069 9.83152-.566 14.71222-1.148 9.202-1.093 18.4894-1.698 27.7457-2.194 13.4299-.721 26.852-.62 40.2974-.465 8.9843.109 17.9685.186 26.9605.109 9.762-.078 19.523-.427 29.285-.597 7.298-.124 14.813-.427 22.057.666 1.08.163 2.16.574 3.225.698.715.085 1.834-.442 2.487-.767 1.104-.558 1.842-2.287 2.285-3.38.707-1.76 1.002-3.652 1.065-5.535.163-4.458-.793-8.931-1.477-13.319-.832-5.302-1.687-10.597-2.565-15.892-.839-5.101-1.601-10.225-2.611-15.287-.863-4.318-2.161-8.605-4.904-12.125-2.775-3.566-6.544-6.326-10.135-9.023-3.645-2.737-7.422-5.318-11.316-7.698-7.601-4.644-15.66-8.535-24.046-11.543-4.212-1.512-8.495-2.799-12.839-3.884-.093-.023-.226.031-.249.139-.218 1.326-.35 2.76-.8 4.031-.086.241.303.349.388.109z" fill="#291510"/><path d="m59.8828 65.9474c.4508-1.2947.5207-2.4963 1.158-3.1397 2.4171-2.4497 8.6502-1.2016 11.4947-.3954-2.8134 1.0698-9.0154 2.1474-12.6527 3.5351z" fill="#fff2e3"/><path d="m118.84 46.0625c-.124 13.6362-3.505 23.28-4.538 21.2877-.42.7442-1.85 1.4496-2.146.3178.599 2.3567 1.267 4.6979 1.741 7.0778.14.69-.077 1.6822-.536 2.1629-.295.3101-1.306-.0543-2.479-.1628v3.0776c-1.08.6202-1.803 1.845-.435 3.0621-.319 1.3412-.754 2.3955-.793 3.4653-.07 2.0001.21 4.0234.093 6.0157-.046.752-.785 1.4575-1.204 2.1862-.241-.0078-.49-.0233-.731-.031.334.4186.668.8294.746.9225-.661 1.8993-1.298 3.721-1.943 5.5427-.039.116-.194.186-.303.279-.622.535-1.896 2.597-2.106 3.473-.148-.349-.28-.651-.404-.946-.164-.038-.335-.085-.498-.124-.342 1.326-.684 2.659-1.026 3.993-2.261-.458-4.7638 3.969-3.8623 6.698-1.1502.775-2.2227 1.488-3.5751 2.403-1.2279-.985-2.7201-.706-4.0025.969-.2021.264-.7383.643-.816.581-1.772-1.356-2.9611.551-4.4378.745-3.101.41-6.1942 1.17-9.3263.085-.7772-.271-1.6476-.496-2.4481-.427-2.8135.233-4.3679-1.302-5.6813-4.015-.2954.558-.513.977-.7306 1.395-.1399-.023-.2875-.054-.4274-.077-.0778-.535-.1555-1.07-.2565-1.752-.4819.201-.9637.403-1.0026.418-.7772-.535-1.3523-.868-1.8419-1.287-.241-.201-.3653-.558-.4974-.868-.6995-1.698-1.2979-3.45-2.1218-5.093-.272-.543-1.088-.837-1.6709-1.209-2.0596-1.318-1.2435-3.535-1.7487-5.357-.8782-3.1863-.3886-7.109-4.4145-8.7292-.1787-.0698-.3264-.2791-.443-.4496-1.1813-1.814-2.4636-3.1784-4.3211-1.3256-.684-3.7599-1.5855-7.5042-1.9974-11.3028-.4352-4.0002-.6995-8.0623-.4896-12.0625.3341-6.3801.7927-12.7834 1.7953-19.0782 1.8497-11.6284 7.7796-20.4892 18.9712-25.2026 2.3938-1.0077 4.9663-1.6822 7.5232-2.2016 1.5777-.3256 1.671-.4341 2.8912-.4729m-1.6632.2016c1.43-.3799 1.7797-.2636 3.4973-.2016 7.2901.2714 13.3289 3.0467 18.606 8.3027 2.0285 2.0233 4.3448 3.8683 6.8078 5.349 4.174 2.504 7.345 5.6591 9.187 10.2562m-48.4192 23.0242c-.6062.7054-.9793 1.5582-1.5544 1.721-2.6191.7364-4.0181 2.6357-4.9196 4.9381-1.9741 5.039-2.0363 10.326-1.1658 15.5278.4197 2.5039 1.6787 4.9691 2.9999 7.1863 1.1192 1.876 2.8213 3.4265 4.3912 4.9997 1.0336 1.039 2.2383 1.946 3.4818 2.737.5829.364 1.6943.047 2.1295.473 1.3756 1.357 2.7357 2.186 4.6398 1.124-.4197-1.155-.8316-2.31-1.2901-3.589.6062-.194 1.057-.403 1.5233-.473 2.2305-.341 4.4611-.806 6.6994-.899 1.5544-.062 3.202.209 4.6476.759.4507.171.5518 1.729.4974 2.636-.0389.659-.6062 1.279-.8782 1.791 1.4844.395 2.7978 1.163 3.917.938 1.4922-.295 3.0699-.93 3.6994-2.799.2876-.86 1.1736-2 1.9586-2.147 3.0077-.566 4.2274-1.713 4.5624-4.8763.039-.3333.38-.7829.699-.9302 3.614-1.6358 4.834-4.8995 5.51-8.3647.731-3.7521.964-7.6049 1.71-11.3493.948-4.7443.513-9.1786-1.204-13.7524-1.462-3.8839-1.982-8.1166-2.954-12.1943-.816-3.4342-1.632-6.8607-2.588-10.2562-.132-.4807-1.057-.7365-1.469-1.0078-.318-.845-.4504-1.9226-1.0333-2.597-2.0907-2.4187-4.7798-3.8994-7.873-4.8374-5.6579-1.7055-11.176-1.2714-16.7484.3876-3.8005 1.1318-6.715 3.3722-8.0595 7.0003-2.0674 5.5738-3.7228 11.3105-5.5025 16.9851-.3731 1.1861-.171 2.2792 1.4611 1.9846 3.4973-.6279 6.8626-.2093 10.3055.6279 4.2435 1.0388 5.3393 4.3878 3.886 7.7988-.8394 0-1.5544-.1241-2.2072.031-.9948.2403-.7617.2171-1.5233.4961-.3031-.9457-1.0026-2.7985-1.158-3.2869-.3265.3023-1.3601 2.3799-1.6011 2.7365-1.1968 1.8218-3.3574 1.9613-4.9895.4652zm-5.4714-1.0543c3.5828-2.7598 10.3444-2.0544 12.0775-3.5351-2.8445-.8139-8.5102-2.0543-10.9273.3954-.6373.6434-.7073 1.845-1.158 3.1397z" fill="#291510"/><path d="m64.2347 63.3037c1.6398 1.4962 1.1191.969 2.3082-.8527 0 0 3.9792.5504 4.4533-.2094.0622-.093 2.1218.2481 2.2306.2481.8912 0 1.601.1292 2.1295.3876.7305.3566 1.1424 1.6513 1.0414 2.6668-.101 1.031-.4041 1.031.4275 1.031 1.4533-3.4109.3575-6.7677-3.886-7.7987-3.4352-.8372-6.8004-1.2559-10.3056-.6279-1.6398.2946-1.8341-.7985-1.4611-1.9846 1.7798-5.6824 3.4352-11.4113 5.5025-16.9852 1.3446-3.628 4.2591-5.8606 8.0595-7.0002 5.5647-1.659 11.0905-2.1009 16.7485-.3876 3.0932.938 5.7823 2.4187 7.8729 4.8374.5829.6744.7151 1.752 1.0341 2.597.412.2635 1.336.5271 1.468 1.0077.956 3.3955 1.772 6.8298 2.589 10.2563.971 4.0699 1.492 8.3026 2.953 12.1942 1.717 4.5738 2.153 9.0081 1.205 13.7525-.747 3.7443-.98 7.5972-1.71 11.3493-.676 3.4652-1.897 6.7289-5.511 8.3646-.318.1396-.66.5892-.699.9303-.334 3.1628-1.5545 4.3098-4.5622 4.8758-.7772.148-1.6709 1.279-1.9585 2.148-.6295 1.876-2.2072 2.504-3.6994 2.798-1.1192.225-2.4326-.542-3.9171-.938.272-.511.8394-1.139.8783-1.791.0544-.907-.0389-2.465-.4974-2.635-1.4456-.551-3.0933-.822-4.6477-.76-2.246.093-4.4688.558-6.6993.899-.4664.07-.9171.279-1.5233.473.4585 1.279.8782 2.434 1.2901 3.589-1.9041 1.062-3.2642.233-4.6398-1.124-.4353-.434-1.5466-.108-2.1295-.473-1.2435-.782-2.4482-1.697-3.4819-2.736-1.5699-1.5738-3.2719-3.1242-4.3911-5.0003-1.329-2.2171-2.5803-4.6823-2.9999-7.1863-.8705-5.2017-.7617-10.2562.5285-15.5044.5751-2.3412.272-6.0468 2.6968-7.2794.8627-.4419 2.6891-2.4032 3.2953-3.1009zm-2.4326 31.3966c.1709.3178.3497.6356.5207.9535 1.1891-.3644 2.7046-.3954 3.4896-1.1629 1.6554-1.6279 3.4118-1.093 5.0983-.6822 3.1243.7675 6.1787 1.8296 9.2875 2.6823 1.9352.5272 3.8082.3799 5.4092-1.0465.2021-.1783.4897-.2714.7539-.3566 1.4922-.4729 3.0155-.8528 4.4766-1.4109 1.7487-.6667 3.3497-1.9381 5.3937-.6822.2876.1783 1.6554-.597 1.6321-.8683-.1321-2.0001-.4119-4.0079-.8393-5.9615-.0778-.3643-1.0881-.8294-1.601-.7519-2.5803.3643-4.4611-1.1086-6.2642-2.4575-1.6477-1.2326-3.1787-1.6435-4.6787-.1783-1.8653 1.8218-3.544 1.9691-5.6346.3876-1.3135-1-2.8679-1.1861-4.3368-.0155-1.5932 1.2714-3.1942 2.5428-4.8496 3.7288-.443.3179.4818 4.132-.1632 4.318.0699-1.9535-3.0156-3.566-3.0933.5039-.0155.6512-2.2461.8993-2.7124 1.4342-.5362.6124-1.2668 1.0543-1.9196 1.5737zm23.0515-33.1719c1.1735-.2945 2.246-.5194 3.2952-.8372 2.899-.8682 5.7435-1.9923 8.7046-2.566 1.7409-.3333 3.6526.1861 5.5806.3334.233-1.4962-.731-1.9924-1.936-2.4808-3.9399-1.5969-7.8259-.7209-11.6652.2559-2.3316.5891-4.0492 1.9768-3.9715 5.2947zm12.4972 1.3644c.0699-.155 2.8442 1.628 2.9142 1.473-.256-.2946.039-.0466-.256-.2946-2.3396-1.9303-4.2748-1.1163-7.1426-1.5117-2.6736-.3721-1.8419-.7675-1.2513 2.0466 3.0932-.3489.7461 1.8683 3.3886-.2403 1.259.279 1.1502-1.7365 2.3471-1.473zm-28.5851 6.8143c.0855.2248.1632.4573.2487.6821 1.6787.5117 2.2538-.9922 3.272-1.6744-.1088-.2093-.2176-.4187-.3265-.628-1.0647.5427-2.1295 1.0853-3.1942 1.6203zm25.3364 11.3802c.2021-.2403.4042-.4806.6062-.7209-1.0569-.907-2.1217-1.8063-3.1787-2.7133-.171.2016-.3419.3954-.5129.5969 1.0259.9458 2.0518 1.8916 3.0854 2.8373z" fill="#fff2e3"/><path d="m61.8105 94.701c.6451-.5194 1.3834-.9535 1.9197-1.5737.4586-.5349.7383-1.3102.9793-1.9148 1.5077-3.8296 2.3393-3.5661 3.2409-3.8141.6528-.1861 1.3056-.2093 1.7486-.5349 1.6555-1.1861 3.2565-2.4575 4.8497-3.7289 1.4689-1.1705 3.0233-.9845 4.3367.0155 2.0829 1.5815 3.7694 1.4342 5.6347-.3876 1.5-1.4651 3.031-1.0543 4.6787.1783 1.8031 1.3412 3.6761 2.8141 6.2641 2.4575.513-.0698 1.5156.3876 1.601.752.4275 1.9613.7073 3.9614.8394 5.9614.0156.2791-1.3523 1.0466-1.6321.8683-2.0518-1.2559-3.645.0155-5.3937.6822-1.4611.5581-2.9844.938-4.4766 1.4109-.2643.0853-.5596.1783-.7539.3566-1.601 1.4264-3.474 1.5814-5.4092 1.0465-3.1088-.8527-6.1632-1.9148-9.2875-2.6822-1.6943-.4187-3.4429-.9536-5.0984.6822-.7849.7752-2.3082.7984-3.4895 1.1628-.171-.3178-.3498-.6357-.5208-.9535zm29.953-2.659c-.6451-.4264-.8238-.6357-.9793-.628-4.4222.3101-8.8444.628-13.2588 1.0156-.3109.031-.5674.6357-.8472.9768.3498.279.6917.8062 1.0415.8062 3.0854.0077 6.1942.124 9.2485-.2093 1.5389-.1628 2.9767-1.1861 4.7953-1.9613zm-4.601-2.0544c-.0932-.4186-.0855-.5969-.1632-.6822-1.1502-1.124-8.5025-.8217-9.4351.4652-.171.2325.2643 1.3256.4508 1.3333 3.0777.1551 6.1709.3179 9.1553-1.1085z" fill="#291510"/><path d="m84.8613 61.5284c-.07-3.3179 1.6476-4.7056 3.9714-5.2947 3.8394-.9768 7.7253-1.8528 11.6653-.2559 1.205.4884 2.169.9846 1.936 2.4807-1.928-.1472-3.8397-.6666-5.5807-.3333-2.9533.5737-5.7978 1.7055-8.7045 2.566-1.0492.3101-2.1295.5426-3.2953.8372z" fill="#291510"/><path d="m68.7734 69.7149c1.0648-.5426 2.1295-1.0853 3.1943-1.6202.1088.2093.2176.4186.3264.628-1.0259.6822-1.601 2.1861-3.272 1.6744-.0855-.2248-.1632-.4573-.2487-.6822z" fill="#fff2e3"/><path d="m94.103 81.0876c-1.0259-.9458-2.0518-1.8916-3.0854-2.8374.171-.2015.3419-.3953.5129-.5969 1.057.907 2.1218 1.8063 3.1787 2.7133-.202.2403-.4041.4806-.6062.721z" fill="#fff2e3"/><path d="m93.7516 90.8319c-6.3807 4.7909-13.0179 4.2483-19.6085 3.7289-.4042-.0311-1.329-3.6901-.9637-4.4653 2.0129-4.3103 17.7588-5.3181 20.2225-1.5505.1787.2714.1477.8838.3575 2.2869z" fill="#291510"/><path d="m90.5729 89.297c-1.1736 2.0854-5.417 3.4575-7.3134 3.4808-3.7693.0465-6.1398-.2869-9.8237-2.1396-.3808-.1939-1.1269-.783-1.1113-1.3877.0155-.6047 1.088-.8993 1.4688-.8217 5.5492 1.0388 10.1657 1.3489 16.0413-.1008.1865-.0465 1.2435.0698.7383.969z" fill="#fff"/><path d="m76.2729 66.2888c-.1555 2.2172-.1943 4.1397-.3109 6.3414-.0544 1.0698-.2565 2.1551-.715 3.1474-.4197.9147-1.1269 1.6744-1.4378 2.6357-.8782 2.7288 1.259 5.7599 4.0569 6.0158.7073.062.8782-1.1396.171-1.2404-1.4689-.2093-2.6425-1.1861-3.0621-2.628-.5052-1.7443.7072-2.8528 1.3523-4.3413.645-1.4884.5673-3.1241.5984-4.6823.0389-1.8605.2176-6.1553.4586-8.4965.0233-.1938-.886 2.6746-.9404 2.8451z" fill="#291510"/><path d="m85.265 76.9398c2.2539.7442 2.1528 3.5893 1.228 5.256-.3031.5504-.5285 1.3024.1476 1.6822.5285.3024 1.0726.062 1.2591-.4884s-.6839-.9302-.9482-.4031c.1166-.2325.5207-.3721.6839-.6202.0855-.1318.1555-.3256.2177-.4729.1243-.3255.2098-.6589.2642-1.0077.1088-.721.0389-1.473-.2021-2.1629-.4352-1.2481-1.2901-1.9768-2.5958-2.0776-.1787-.0155-.1943.2481-.0389.2946z" fill="#291510"/><g fill="#000"><path d="m73.6551 66.3968c-.1088-.1861-.2409-.3411-.3808-.5039 0 0-.0156-.0155-.0156-.0233-.0621-.0697-.1243-.1395-.1787-.2093h-.0078c-.272-.2791-.6839-.6977-.8316-.8295-.8005-.6822-1.8886-1.3256-2.8212-1.7442-1.5388-.69-3.1709-.69-4.7875-.1085-1.5233.5504-2.8523 1.5116-4.0647 2.659-.1399.1318-.3031.2946-.342.4651-.0233.124.1166.3876.2254.4186.5907.1783 1.8186-.5349 2.2228-1.062.3031-.4031.7849-.659 1.2124-.9381.0855-.0542.3264.0311.3886.1241.2487.4186.3808.7287.7072 1.0698.5596.5737.4664.876.9638.907.816.0465 1.1347.1008 1.9507.1085.7073.0078 1.5544-.2248 1.8497-.8992.1088-.2403.2254-.4807.3187-.721.2875-.7675.5518-.8605 1.1735-.4031.1943.1473.7384.4961.9482.6202.2021.124.6451.5504.8316 1.0388.0466.155.0933.3023.1477.4419.0388.0852.3342.124.4274.0465.0855-.062.1321-.3566.07-.4652zm-5.0517-.093c-.1555-.0853.917-1.9924.6839-2.2404.272-.0853.544.0542.6062.1007.1399.1163-.3964 1.1474-.2876 1.3024-.1165.0698-.9326.8683-.9948.8373z"/><path d="m99.6355 63.8005c-.9482-.8372-1.9197-1.3799-3.0155-1.876-.8549-.3876-1.9041-.7287-2.8367-.7365-1.1969-.0155-1.8964.3179-2.899.752-.7305.3101-1.8264.9768-2.3626 1.5892-.7306.845-1.3523 1.9923-1.4067 2.1551-.3187.9768.7227.031.8704-.0077.07-.0233.9637-1.8218 1.0181-1.8916.3109-.3876.7461-.6434 1.1658-.4031.2643.1473.684.721.7617 1.0621.3031.5194.5829 1.2868 1.8108 1.2248.9016-.0465 1.7409-.124 2.557-.5194.4896-.2326 1.4067-1.3256 1.4922-1.5504.2098-.5194.6839-.3954 1.1269-.0698.4119.3023.7306.7442 1.1658.9923.2487.1395.6373 0 .9633 0-.1317-.2481-.2327-.5737-.4115-.7287zm-4.0958.5969c-.272 0 .1788-.9845.1788-1.3799 0-.3953.0233-.8217.2642-.6977.3109.1551.4974.3179.4974.7055s-.6684 1.3644-.9404 1.3644z"/></g></g></g></svg>