<svg width="163" height="163" viewBox="0 0 163 163" fill="none" xmlns="http://www.w3.org/2000/svg">
<g clip-path="url(#clip0_5795_5255)">
<circle cx="81.5" cy="81.5" r="81.5" fill="#FFDEB5"/>
<g clip-path="url(#clip1_5795_5255)">
<path d="M59.6092 99.8161L61.5133 123.391C61.5133 123.391 67.2412 129.383 69.6039 131.213C72.122 133.166 78.2462 136.81 81.4172 137.182C82.9871 137.368 87.658 136.073 87.658 136.073L91.8082 134.376L99.79 129.98C99.79 129.98 103.466 126.492 104.236 124.553C104.484 123.918 105.036 120.522 105.036 120.522C124.396 125.344 141.222 134.003 156.805 146.43C159.595 148.655 162.338 151.027 164.274 154.02C167.04 158.276 167.965 163.423 168.812 168.423C170.662 179.292 172.434 190.176 174.121 201.076C175.014 206.828 175.644 213.433 171.75 217.766L169.341 218.642C160.947 215.914 135.673 217.766 112.101 217.836C72.3862 217.96 65.5936 216.363 26.0268 219.681C15.0839 220.596 3.70583 223.356 -6.6075 219.596C-7.47019 219.278 -8.51939 218.952 -9.22664 219.526C-9.93388 220.1 -9.00125 221.635 -8.39504 220.953L-9.23441 217.743C-12.4753 215.479 -11.9857 210.634 -11.0997 206.789C-6.79403 188.075 -1.47804 169.594 4.81721 151.454C5.77315 148.702 6.79127 145.888 8.71094 143.702C10.5529 141.601 13.071 140.244 15.5347 138.934C30.822 130.825 45.27 123.476 60.8372 115.933L59.2284 97.9013C59.5237 105.126 60.9149 114.259 61.2102 121.476C61.2335 122.119 61.2646 122.786 61.5133 123.383C61.8786 124.267 62.648 124.895 63.3786 125.515C68.951 130.259 74.096 136.872 81.4172 137.174C85.0311 137.329 88.4974 135.833 91.8082 134.368C97.1942 131.988 103.202 128.902 104.679 123.212C105.277 120.894 105.005 118.452 104.733 116.073C103.987 109.638 103.248 103.196 102.502 96.7617C88.272 99.5138 73.5909 99.8936 59.2361 97.8936" fill="#FFF2E3"/>
<path d="M59.4158 99.8166C60.0065 107.127 60.5972 114.437 61.1878 121.748C61.2345 122.368 61.1412 123.159 61.5065 123.662C62.0194 124.376 62.8044 125.004 63.4184 125.624C64.4365 126.663 65.4702 127.686 66.5116 128.694C68.3846 130.492 70.3043 132.066 72.5271 133.438C75.0762 135.012 77.9752 136.764 80.9673 137.314C82.071 137.516 83.2134 137.291 84.3015 137.074C85.3896 136.857 86.532 136.632 87.6046 136.299C89.0268 135.849 90.5035 135.213 91.8558 134.57C93.3402 133.872 94.7547 132.981 96.1925 132.19C97.4283 131.508 98.8971 130.919 100.009 130.043C100.856 129.376 101.602 128.446 102.301 127.639C103.086 126.74 104.003 125.74 104.423 124.6C104.812 123.562 104.92 122.376 105.099 121.283C105.122 121.143 105.107 120.833 105.192 120.717C105.208 120.693 105.192 120.6 105.216 120.585C105.014 120.717 105.985 120.996 105.713 120.895C106.708 121.267 107.819 121.445 108.845 121.732C117.029 124.027 124.98 127.112 132.55 130.957C140.042 134.756 147.145 139.291 153.829 144.369C157.412 147.09 161.189 149.904 163.769 153.64C166.272 157.253 167.352 161.579 168.145 165.842C169.932 175.463 171.401 185.145 172.925 194.812C173.616 199.192 174.564 203.635 174.58 208.084C174.58 210.007 174.401 211.953 173.787 213.782C173.329 215.17 172.52 217.271 171.059 217.806C170.585 217.976 170.072 218.247 169.583 218.348C169.163 218.434 168.883 218.302 168.448 218.193C167.422 217.93 166.373 217.759 165.324 217.62C162.425 217.232 159.487 217.1 156.557 217.03C148.451 216.829 140.329 217.1 132.223 217.302C115.49 217.713 98.7728 217.651 82.0399 217.457C69.5815 217.309 57.1542 217.402 44.7114 218.131C35.9835 218.643 27.2401 219.263 18.5589 220.302C14.0123 220.844 9.44243 221.395 4.857 221.325C2.57206 221.294 0.279348 221.108 -1.97451 220.674C-3.00817 220.472 -4.04184 220.224 -5.05218 219.922C-5.96927 219.643 -6.88636 219.193 -7.83453 219.061C-8.6739 218.945 -9.82414 219.248 -9.67647 220.302C-9.57544 221.015 -8.89928 221.635 -8.26198 221.108C-8.20758 221.062 -8.19204 220.976 -8.20758 220.914L-8.9226 218.17C-8.977 217.953 -9.00809 217.759 -9.13244 217.589C-9.38891 217.255 -9.85523 216.999 -10.135 216.658C-10.5236 216.185 -10.8189 215.643 -11.0366 215.069C-12.4588 211.294 -10.9044 206.805 -10.0262 203.092C-7.70241 193.332 -5.10659 183.641 -2.24652 174.029C-0.816492 169.222 0.683487 164.431 2.25341 159.672C3.01506 157.354 3.79225 155.051 4.58499 152.741C5.33109 150.578 6.03833 148.369 7.14195 146.345C9.44243 142.128 13.6704 140.151 17.7428 137.996C22.0951 135.694 26.4552 133.415 30.8307 131.159C40.8021 126.019 50.8356 121.003 60.9314 116.112C60.9858 116.081 61.0324 116.003 61.0324 115.941C60.4961 109.933 59.9599 103.918 59.4236 97.9095C59.4003 97.6615 59.0117 97.6537 59.0272 97.9095C59.3459 105.328 60.5194 112.678 60.9391 120.089C61.0246 121.608 60.9003 123.166 61.9106 124.414C62.921 125.663 64.3121 126.593 65.4624 127.663C67.8095 129.833 70.0867 132.105 72.6825 133.988C75.0762 135.717 77.7809 137.066 80.7575 137.345C84.4025 137.686 87.8843 136.314 91.1563 134.88C96.2936 132.64 102.558 129.849 104.586 124.159C106.001 120.182 104.85 115.538 104.384 111.484C103.817 106.584 103.249 101.677 102.69 96.7777C102.674 96.6459 102.573 96.5606 102.433 96.5839C88.2185 99.3049 73.6073 99.6925 59.2682 97.7157C59.0195 97.6847 58.9107 98.0646 59.1594 98.1033C73.5763 100.088 88.2418 99.708 102.534 96.9715L102.278 96.7777C102.736 100.731 103.187 104.677 103.646 108.631C104.104 112.585 104.812 116.275 104.812 120.081C104.812 126.895 99.2702 130.663 93.69 133.298C90.4491 134.833 87.0061 136.508 83.3922 136.919C80.1591 137.283 77.0814 136.33 74.3535 134.64C71.7265 133.012 69.4571 130.872 67.2111 128.763C66.1152 127.732 65.0116 126.701 63.8769 125.709C63.2396 125.159 62.4857 124.624 62.0117 123.911C61.3899 122.98 61.4132 121.872 61.3666 120.794C60.9858 113.143 59.7423 105.561 59.4158 97.9095H59.0195C59.3381 101.46 59.649 105.018 59.9676 108.569C60.1464 110.6 60.3329 112.639 60.5117 114.67C60.535 114.895 60.7448 115.701 60.6205 115.91C60.6205 115.902 60.022 116.112 59.9365 116.151C59.4003 116.368 58.8873 116.662 58.3744 116.91C57.2086 117.476 56.0428 118.042 54.8848 118.616C46.1181 122.91 37.4058 127.306 28.7401 131.787C24.4189 134.027 20.1055 136.283 15.8076 138.562C12.2714 140.438 8.88286 142.376 6.8777 145.973C5.8829 147.756 5.21451 149.687 4.54613 151.609C3.74562 153.912 2.96843 156.222 2.19901 158.532C0.644627 163.222 -0.847579 167.943 -2.26984 172.672C-5.0755 182.006 -7.62469 191.409 -9.9174 200.882C-10.8345 204.681 -12.2257 208.751 -11.9303 212.712C-11.8215 214.131 -11.464 215.557 -10.5936 216.705C-10.2749 217.123 -9.66093 217.465 -9.41223 217.868C-9.18684 218.224 -9.14798 218.891 -9.03918 219.302C-8.93037 219.713 -8.65058 220.317 -8.65835 220.751C-8.66612 221.015 -8.65058 221.1 -8.99254 220.798C-9.39668 220.441 -9.05472 219.697 -8.65835 219.457C-8.33193 219.263 -7.60137 219.488 -7.25941 219.589C-5.12213 220.178 -3.11698 220.914 -0.909754 221.255C3.52801 221.945 8.03572 221.775 12.489 221.364C17.0822 220.938 21.6443 220.255 26.2375 219.868C30.8307 219.48 35.3384 219.131 39.9006 218.829C46.8564 218.364 53.8123 218.015 60.7759 217.86C73.9027 217.573 87.045 217.961 100.172 218.023C109.506 218.069 118.84 218.007 128.174 217.79C136.7 217.589 145.226 217.286 153.751 217.371C157 217.402 160.264 217.488 163.505 217.798C164.772 217.922 166.039 218.077 167.29 218.325C167.989 218.465 168.883 218.899 169.575 218.767C170.22 218.643 171.362 218.294 171.891 217.899C173.103 216.999 173.865 214.961 174.285 213.565C175.365 209.999 175.039 206.154 174.533 202.518C173.173 192.696 171.456 182.913 169.808 173.137C169.062 168.68 168.487 164.106 167.119 159.78C165.844 155.726 163.66 152.299 160.575 149.384C157.482 146.462 153.984 143.904 150.534 141.431C147.091 138.965 143.547 136.655 139.894 134.508C132.689 130.283 125.088 126.732 117.216 123.957C113.229 122.554 109.179 121.345 105.084 120.321C104.99 120.298 104.858 120.352 104.835 120.461C104.633 121.717 104.493 123.058 104.104 124.275C103.584 125.918 102.068 127.337 100.902 128.562C100.327 129.167 99.8764 129.694 99.2236 130.05C98.0422 130.701 96.8687 131.345 95.6873 131.996C91.5527 134.275 87.5657 136.322 82.7549 136.919C80.8663 137.151 78.5969 136.686 76.9026 135.911C74.8275 134.965 73.856 134.423 71.9286 132.911C69.1618 130.748 66.4727 128.151 64.0168 125.67C63.4883 125.135 62.9598 124.593 62.4313 124.058C62.1982 123.817 61.8329 123.554 61.6697 123.267C61.7552 123.414 61.7163 123.36 61.693 123.174C61.6541 122.879 61.6464 122.585 61.6231 122.29C61.4288 119.918 61.2422 117.546 61.0479 115.174C60.636 110.057 60.2241 104.933 59.8122 99.8166C59.7889 99.5608 59.3925 99.5608 59.4158 99.8166Z" fill="#190602"/>
<path d="M104.23 124.833C104.478 124.198 105.03 120.802 105.03 120.802C124.39 125.624 141.216 134.283 156.799 146.71C159.589 148.935 162.332 151.307 164.268 154.3C167.034 158.556 167.959 163.703 168.806 168.703C170.656 179.572 172.428 190.456 174.115 201.356C175.008 207.108 175.638 213.713 171.744 218.046L169.335 218.922C160.941 216.193 135.667 218.046 112.095 218.116C72.3804 218.24 65.5877 216.643 26.0209 219.961C15.078 220.876 3.69997 223.636 -6.61336 219.876C-7.47605 219.558 -8.52525 219.232 -9.2325 219.806C-9.94751 220.38 -9.00711 221.915 -8.4009 221.232L-9.24027 218.023C-12.4812 215.759 -11.9915 210.914 -11.1055 207.069C-6.79989 188.355 -1.4839 169.874 4.81135 151.734C5.76729 148.982 6.78542 146.168 8.70508 143.981C10.547 141.881 13.0651 140.524 15.5288 139.214C30.8162 131.105 45.2642 123.756 60.8313 116.213C60.8313 116.213 60.6836 117.414 61.2121 121.756C61.2898 122.399 61.2665 123.066 61.5152 123.663C61.8805 124.547 62.6499 125.174 63.3805 125.795C68.9529 130.539 74.0979 137.152 81.4191 137.454C85.033 137.609 88.4993 136.113 91.8102 134.648C97.1961 132.268 103.204 129.182 104.68 123.492" fill="#C59D7B"/>
<path d="M104.424 124.888C104.665 124.205 104.766 123.461 104.898 122.756C104.945 122.5 105.007 121.019 105.225 120.88C105.015 121.011 106.087 121.283 106.095 121.283C106.468 121.376 106.833 121.477 107.207 121.577C107.883 121.756 108.551 121.942 109.227 122.135C110.681 122.546 112.126 122.988 113.564 123.446C119.098 125.221 124.507 127.36 129.753 129.864C140.191 134.849 150.294 141.214 159.03 148.811C161.322 150.803 163.421 153.028 164.882 155.71C166.343 158.393 167.175 161.308 167.796 164.253C169.141 170.633 170.05 177.13 171.099 183.556C172.149 189.983 173.353 196.758 174.224 203.387C174.573 206.069 174.791 208.829 174.402 211.519C174.216 212.79 173.897 214.054 173.361 215.224C172.941 216.155 172.304 217.503 171.403 217.976C170.89 218.24 170.042 218.604 169.475 218.682C168.97 218.744 168.294 218.426 167.773 218.317C166.211 217.984 164.618 217.79 163.032 217.651C158.455 217.248 153.838 217.232 149.245 217.255C137.136 217.325 125.035 217.868 112.927 217.922C94.1419 218.007 75.3261 217.248 56.5492 217.86C45.8317 218.209 35.0909 218.868 24.4201 219.914C18.2414 220.519 12.0861 221.573 5.86076 221.604C2.71314 221.62 -0.442261 221.356 -3.51217 220.612C-4.84894 220.287 -6.12353 219.705 -7.4603 219.403C-8.12091 219.255 -9.11572 219.186 -9.5354 219.86C-10.0328 220.651 -9.13903 222.116 -8.25303 221.38C-8.19863 221.333 -8.18309 221.248 -8.19863 221.186L-8.91365 218.441C-8.96805 218.224 -8.99914 218.031 -9.12349 217.86C-9.37996 217.527 -9.84628 217.271 -10.1261 216.93C-10.5147 216.457 -10.81 215.914 -11.0276 215.341C-12.4499 211.565 -10.8955 207.077 -10.0173 203.363C-7.69346 193.603 -5.09764 183.913 -2.23757 174.3C-0.80754 169.494 0.692439 164.703 2.26237 159.943C3.02401 157.625 3.8012 155.323 4.59394 153.013C5.34004 150.85 6.04729 148.64 7.1509 146.617C9.45138 142.4 13.6793 140.423 17.7518 138.268C22.1041 135.965 26.4641 133.686 30.8397 131.43C40.8111 126.291 50.8446 121.275 60.9403 116.383C61.0025 116.352 61.0336 116.275 61.0413 116.213C61.0413 116.166 61.0413 116.128 61.0491 116.128C60.5517 115.81 60.7382 116.453 60.7538 116.647C60.9248 118.476 60.9014 120.321 61.0413 122.151C61.1191 123.198 61.3444 124.043 62.0595 124.841C62.8522 125.733 63.8548 126.453 64.733 127.252C66.4817 128.841 68.1604 130.5 69.9402 132.051C73.1111 134.81 76.7639 137.345 81.0929 137.64C83.8441 137.826 86.5332 137.043 89.0669 136.035C91.243 135.167 93.4036 134.206 95.4865 133.136C99.5512 131.043 103.6 128.167 104.867 123.546C104.937 123.298 104.549 123.19 104.479 123.438C103.375 127.461 100.064 130.136 96.5512 132.105C94.8647 133.051 93.1005 133.857 91.3363 134.64C89.0202 135.655 86.6576 136.663 84.1472 137.074C79.4841 137.842 75.3261 135.872 71.7588 133.035C70.1811 131.779 68.7044 130.399 67.2356 129.019C65.7667 127.64 64.1579 126.353 62.7123 124.934C60.9403 123.19 61.3755 120.314 61.2434 118.004C61.2201 117.562 61.3522 116.438 61.0802 116.034C60.8859 115.748 60.8781 115.903 60.6605 116.003C60.6294 116.019 60.6605 116.143 60.6372 116.166V116.19C60.4818 116.314 60.6605 115.996 60.3419 116.213C59.7667 116.608 59.0206 116.856 58.3833 117.159C49.0804 121.686 39.824 126.322 30.6298 131.066C25.9978 133.454 21.3813 135.872 16.7725 138.307C12.9332 140.338 9.07833 142.299 6.87888 146.229C5.85299 148.074 5.16129 150.082 4.47736 152.067C3.60691 154.571 2.75977 157.083 1.93594 159.602C0.296071 164.571 -1.26608 169.564 -2.75829 174.579C-5.73493 184.611 -8.42402 194.72 -10.81 204.906C-11.6105 208.309 -12.753 212.309 -11.3152 215.705C-11.0509 216.325 -10.6934 216.899 -10.2426 217.395C-9.79187 217.891 -9.45768 217.969 -9.2867 218.604C-9.13903 219.162 -8.99914 219.721 -8.85147 220.279C-8.79707 220.48 -8.65717 220.806 -8.65717 221.015C-8.65717 221.046 -8.595 221.186 -8.61054 221.201C-8.75044 221.387 -9.21675 220.775 -9.24007 220.643C-9.66752 218.759 -6.0769 220.263 -5.53286 220.434C-4.39816 220.79 -3.24792 221.085 -2.07436 221.31C0.21058 221.752 2.53438 221.946 4.85818 221.977C9.78558 222.046 14.6897 221.411 19.5704 220.829C28.7724 219.736 38.0598 219.131 47.3161 218.635C60.746 217.914 74.1681 218.015 87.6135 218.17C96.5978 218.279 105.582 218.356 114.574 218.279C124.336 218.201 134.097 217.852 143.859 217.682C151.157 217.558 158.672 217.255 165.916 218.348C166.996 218.511 168.076 218.922 169.141 219.046C169.856 219.131 170.975 218.604 171.628 218.279C172.732 217.721 173.47 215.992 173.913 214.899C174.62 213.139 174.915 211.247 174.978 209.364C175.141 204.906 174.185 200.433 173.501 196.045C172.669 190.743 171.814 185.448 170.936 180.153C170.097 175.052 169.335 169.928 168.325 164.866C167.462 160.548 166.164 156.261 163.421 152.741C160.646 149.175 156.877 146.415 153.286 143.718C149.641 140.981 145.864 138.4 141.97 136.02C134.369 131.376 126.31 127.485 117.924 124.477C113.712 122.965 109.429 121.678 105.085 120.593C104.992 120.57 104.859 120.624 104.836 120.732C104.618 122.058 104.486 123.492 104.036 124.763C103.95 125.004 104.339 125.112 104.424 124.872V124.888Z" fill="#291510"/>
<path d="M59.8828 65.9474C60.3336 64.6527 60.4035 63.4511 61.0408 62.8077C63.4579 60.358 69.691 61.6061 72.5355 62.4123C69.7221 63.4821 63.5201 64.5597 59.8828 65.9474Z" fill="#FFF2E3"/>
<path d="M118.84 46.0625C118.716 59.6987 115.335 69.3425 114.302 67.3502C113.882 68.0944 112.452 68.7998 112.156 67.668C112.755 70.0247 113.423 72.3659 113.897 74.7458C114.037 75.4358 113.82 76.428 113.361 76.9087C113.066 77.2188 112.055 76.8544 110.882 76.7459V79.8235C109.802 80.4437 109.079 81.6685 110.447 82.8856C110.128 84.2268 109.693 85.2811 109.654 86.3509C109.584 88.351 109.864 90.3743 109.747 92.3666C109.701 93.1186 108.962 93.8241 108.543 94.5528C108.302 94.545 108.053 94.5295 107.812 94.5218C108.146 94.9404 108.48 95.3512 108.558 95.4443C107.897 97.3436 107.26 99.1653 106.615 100.987C106.576 101.103 106.421 101.173 106.312 101.266C105.69 101.801 104.416 103.863 104.206 104.739C104.058 104.39 103.926 104.088 103.802 103.793C103.638 103.755 103.467 103.708 103.304 103.669C102.962 104.995 102.62 106.328 102.278 107.662C100.017 107.204 97.5142 111.631 98.4157 114.36C97.2655 115.135 96.193 115.848 94.8406 116.763C93.6127 115.778 92.1205 116.057 90.8381 117.732C90.636 117.996 90.0998 118.375 90.0221 118.313C88.2501 116.957 87.061 118.864 85.5843 119.058C82.4833 119.468 79.3901 120.228 76.258 119.143C75.4808 118.872 74.6104 118.647 73.8099 118.716C70.9964 118.949 69.442 117.414 68.1286 114.701C67.8332 115.259 67.6156 115.678 67.398 116.096C67.2581 116.073 67.1105 116.042 66.9706 116.019C66.8928 115.484 66.8151 114.949 66.7141 114.267C66.2322 114.468 65.7504 114.67 65.7115 114.685C64.9343 114.15 64.3592 113.817 63.8696 113.398C63.6286 113.197 63.5043 112.84 63.3722 112.53C62.6727 110.832 62.0743 109.08 61.2504 107.437C60.9784 106.894 60.1624 106.6 59.5795 106.228C57.5199 104.91 58.336 102.693 57.8308 100.871C56.9526 97.6847 57.4422 93.762 53.4163 92.1418C53.2376 92.072 53.0899 91.8627 52.9733 91.6922C51.792 89.8782 50.5097 88.5138 48.6522 90.3666C47.9682 86.6067 47.0667 82.8624 46.6548 79.0638C46.2196 75.0636 45.9553 71.0015 46.1652 67.0013C46.4993 60.6212 46.9579 54.2179 47.9605 47.9231C49.8102 36.2947 55.7401 27.4339 66.9317 22.7205C69.3255 21.7128 71.898 21.0383 74.4549 20.5189C76.0326 20.1933 76.1259 20.0848 77.3461 20.046M75.6829 20.2476C77.1129 19.8677 77.4626 19.984 79.1802 20.046C86.4703 20.3174 92.5091 23.0927 97.7862 28.3487C99.8147 30.372 102.131 32.217 104.594 33.6977C108.768 36.2017 111.939 39.3568 113.781 43.9539M65.3618 66.9781C64.7556 67.6835 64.3825 68.5363 63.8074 68.6991C61.1883 69.4355 59.7893 71.3348 58.8878 73.6372C56.9137 78.6762 56.8515 83.9632 57.722 89.165C58.1417 91.6689 59.4007 94.1341 60.7219 96.3513C61.8411 98.2273 63.5432 99.7778 65.1131 101.351C66.1467 102.39 67.3514 103.297 68.5949 104.088C69.1778 104.452 70.2892 104.135 70.7244 104.561C72.1 105.918 73.4601 106.747 75.3642 105.685C74.9445 104.53 74.5326 103.375 74.0741 102.096C74.6803 101.902 75.1311 101.693 75.5974 101.623C77.8279 101.282 80.0585 100.817 82.2968 100.724C83.8512 100.662 85.4988 100.933 86.9444 101.483C87.3951 101.654 87.4962 103.212 87.4418 104.119C87.4029 104.778 86.8356 105.398 86.5636 105.91C88.048 106.305 89.3614 107.073 90.4806 106.848C91.9728 106.553 93.5505 105.918 94.18 104.049C94.4676 103.189 95.3536 102.049 96.1386 101.902C99.1463 101.336 100.366 100.189 100.701 97.0257C100.74 96.6924 101.081 96.2428 101.4 96.0955C105.014 94.4597 106.234 91.196 106.91 87.7308C107.641 83.9787 107.874 80.1259 108.62 76.3815C109.568 71.6372 109.133 67.2029 107.416 62.6291C105.954 58.7452 105.434 54.5125 104.462 50.4348C103.646 47.0006 102.83 43.5741 101.874 40.1786C101.742 39.6979 100.817 39.4421 100.405 39.1708C100.087 38.3258 99.9546 37.2482 99.3717 36.5738C97.281 34.1551 94.5919 32.6744 91.4987 31.7364C85.8408 30.0309 80.3227 30.465 74.7503 32.124C70.9498 33.2558 68.0353 35.4962 66.6908 39.1243C64.6234 44.6981 62.968 50.4348 61.1883 56.1094C60.8152 57.2955 61.0173 58.3886 62.6494 58.094C66.1467 57.4661 69.512 57.8847 72.9549 58.7219C77.1984 59.7607 78.2942 63.1097 76.8409 66.5207C76.0015 66.5207 75.2865 66.3966 74.6337 66.5517C73.6389 66.792 73.872 66.7688 73.1104 67.0478C72.8073 66.1021 72.1078 64.2493 71.9524 63.7609C71.6259 64.0632 70.5923 66.1408 70.3513 66.4974C69.1545 68.3192 66.9939 68.4587 65.3618 66.9626V66.9781ZM59.8904 65.9238C63.4732 63.164 70.2348 63.8694 71.9679 62.3887C69.1234 61.5748 63.4577 60.3344 61.0406 62.7841C60.4033 63.4275 60.3333 64.6291 59.8826 65.9238H59.8904Z" fill="#291510"/>
<path d="M64.2347 63.3037C65.8745 64.7999 65.3538 64.2727 66.5429 62.451C66.5429 62.451 70.5221 63.0014 70.9962 62.2416C71.0584 62.1486 73.118 62.4897 73.2268 62.4897C74.118 62.4897 74.8278 62.6189 75.3563 62.8773C76.0868 63.2339 76.4987 64.5286 76.3977 65.5441C76.2967 66.5751 75.9936 66.5751 76.8252 66.5751C78.2785 63.1642 77.1827 59.8074 72.9392 58.7764C69.504 57.9392 66.1388 57.5205 62.6336 58.1485C60.9938 58.4431 60.7995 57.35 61.1725 56.1639C62.9523 50.4815 64.6077 44.7526 66.675 39.1787C68.0196 35.5507 70.9341 33.3181 74.7345 32.1785C80.2992 30.5195 85.825 30.0776 91.483 31.7909C94.5762 32.7289 97.2653 34.2096 99.3559 36.6283C99.9388 37.3027 100.071 38.3803 100.39 39.2253C100.802 39.4888 101.726 39.7524 101.858 40.233C102.814 43.6285 103.63 47.0628 104.447 50.4893C105.418 54.5592 105.939 58.7919 107.4 62.6835C109.117 67.2573 109.553 71.6916 108.605 76.436C107.858 80.1803 107.625 84.0332 106.895 87.7853C106.219 91.2505 104.998 94.5142 101.384 96.1499C101.066 96.2895 100.724 96.7391 100.685 97.0802C100.351 100.243 99.1305 101.39 96.1228 101.956C95.3456 102.104 94.4519 103.235 94.1643 104.104C93.5348 105.98 91.9571 106.608 90.4649 106.902C89.3457 107.127 88.0323 106.36 86.5478 105.964C86.8198 105.453 87.3872 104.825 87.4261 104.173C87.4805 103.266 87.3872 101.708 86.9287 101.538C85.4831 100.987 83.8354 100.716 82.281 100.778C80.035 100.871 77.8122 101.336 75.5817 101.677C75.1153 101.747 74.6646 101.956 74.0584 102.15C74.5169 103.429 74.9366 104.584 75.3485 105.739C73.4444 106.801 72.0843 105.972 70.7087 104.615C70.2734 104.181 69.1621 104.507 68.5792 104.142C67.3357 103.36 66.131 102.445 65.0973 101.406C63.5274 99.8322 61.8254 98.2818 60.7062 96.4057C59.3772 94.1886 58.1259 91.7234 57.7063 89.2194C56.8358 84.0177 56.9446 78.9632 58.2348 73.715C58.8099 71.3738 58.5068 67.6682 60.9316 66.4356C61.7943 65.9937 63.6207 64.0324 64.2269 63.3347L64.2347 63.3037ZM61.8021 94.7003C61.973 95.0181 62.1518 95.3359 62.3228 95.6538C63.5119 95.2894 65.0274 95.2584 65.8124 94.4909C67.4678 92.863 69.2242 93.3979 70.9107 93.8087C74.035 94.5762 77.0894 95.6383 80.1982 96.491C82.1334 97.0182 84.0064 96.8709 85.6074 95.4445C85.8095 95.2662 86.0971 95.1731 86.3613 95.0879C87.8535 94.615 89.3768 94.2351 90.8379 93.677C92.5866 93.0103 94.1876 91.7389 96.2316 92.9948C96.5192 93.1731 97.887 92.3978 97.8637 92.1265C97.7316 90.1264 97.4518 88.1186 97.0244 86.165C96.9466 85.8007 95.9363 85.3356 95.4234 85.4131C92.8431 85.7774 90.9623 84.3045 89.1592 82.9556C87.5115 81.723 85.9805 81.3121 84.4805 82.7773C82.6152 84.5991 80.9365 84.7464 78.8459 83.1649C77.5324 82.1649 75.978 81.9788 74.5091 83.1494C72.9159 84.4208 71.3149 85.6922 69.6595 86.8782C69.2165 87.1961 70.1413 91.0102 69.4963 91.1962C69.5662 89.2427 66.4807 87.6302 66.403 91.7001C66.3875 92.3513 64.1569 92.5994 63.6906 93.1343C63.1544 93.7467 62.4238 94.1886 61.771 94.708L61.8021 94.7003ZM84.8536 61.5284C86.0271 61.2339 87.0996 61.009 88.1488 60.6912C91.0478 59.823 93.8923 58.6989 96.8534 58.1252C98.5943 57.7919 100.506 58.3113 102.434 58.4586C102.667 56.9624 101.703 56.4662 100.498 55.9778C96.5581 54.3809 92.6721 55.2569 88.8328 56.2337C86.5012 56.8228 84.7836 58.2105 84.8613 61.5284H84.8536ZM97.3508 62.8928C97.4207 62.7378 100.195 64.5208 100.265 64.3658C100.009 64.0712 100.304 64.3192 100.009 64.0712C97.6694 62.1409 95.7342 62.9549 92.8664 62.5595C90.1928 62.1874 91.0245 61.792 91.6151 64.6061C94.7083 64.2572 92.3612 66.4744 95.0037 64.3658C96.2627 64.6448 96.1539 62.6293 97.3508 62.8928ZM68.7657 69.7071C68.8512 69.9319 68.9289 70.1644 69.0144 70.3892C70.6931 70.9009 71.2682 69.397 72.2864 68.7148C72.1776 68.5055 72.0688 68.2961 71.9599 68.0868C70.8952 68.6295 69.8304 69.1721 68.7657 69.7071ZM94.1021 81.0873C94.3042 80.847 94.5063 80.6067 94.7083 80.3664C93.6514 79.4594 92.5866 78.5601 91.5296 77.6531C91.3586 77.8547 91.1877 78.0485 91.0167 78.25C92.0426 79.1958 93.0685 80.1416 94.1021 81.0873Z" fill="#FFF2E3"/>
<path d="M61.8105 94.701C62.4556 94.1816 63.1939 93.7475 63.7302 93.1273C64.1888 92.5924 64.4685 91.8171 64.7095 91.2125C66.2172 87.3829 67.0488 87.6464 67.9504 87.3984C68.6032 87.2123 69.256 87.1891 69.699 86.8635C71.3545 85.6774 72.9555 84.406 74.5487 83.1346C76.0176 81.9641 77.572 82.1501 78.8854 83.1501C80.9683 84.7316 82.6548 84.5843 84.5201 82.7625C86.0201 81.2974 87.5511 81.7082 89.1988 82.9408C91.0019 84.282 92.8749 85.7549 95.4629 85.3983C95.9759 85.3285 96.9785 85.7859 97.0639 86.1503C97.4914 88.1116 97.7712 90.1117 97.9033 92.1117C97.9189 92.3908 96.551 93.1583 96.2712 92.98C94.2194 91.7241 92.6262 92.9955 90.8775 93.6622C89.4164 94.2203 87.8931 94.6002 86.4009 95.0731C86.1366 95.1584 85.8413 95.2514 85.647 95.4297C84.046 96.8561 82.173 97.0111 80.2378 96.4762C77.129 95.6235 74.0746 94.5614 70.9503 93.794C69.256 93.3753 67.5074 92.8404 65.8519 94.4762C65.067 95.2514 63.5437 95.2746 62.3624 95.639C62.1914 95.3212 62.0126 95.0033 61.8416 94.6855L61.8105 94.701ZM91.7635 92.042C91.1184 91.6156 90.9397 91.4063 90.7842 91.414C86.362 91.7241 81.9398 92.042 77.5254 92.4296C77.2145 92.4606 76.958 93.0653 76.6782 93.4064C77.028 93.6854 77.3699 94.2126 77.7197 94.2126C80.8051 94.2203 83.9139 94.3366 86.9682 94.0033C88.5071 93.8405 89.9449 92.8172 91.7635 92.042ZM87.1625 89.9876C87.0693 89.569 87.077 89.3907 86.9993 89.3054C85.8491 88.1814 78.4968 88.4837 77.5642 89.7706C77.3932 90.0031 77.8285 91.0962 78.015 91.1039C81.0927 91.259 84.1859 91.4218 87.1703 89.9954L87.1625 89.9876Z" fill="#291510"/>
<path d="M84.8613 61.5284C84.7913 58.2105 86.5089 56.8228 88.8327 56.2337C92.6721 55.2569 96.558 54.3809 100.498 55.9778C101.703 56.4662 102.667 56.9624 102.434 58.4585C100.506 58.3113 98.5943 57.7919 96.8533 58.1252C93.9 58.6989 91.0555 59.8307 88.1488 60.6912C87.0996 61.0013 86.0193 61.2338 84.8535 61.5284H84.8613Z" fill="#291510"/>
<path d="M68.7734 69.7149C69.8382 69.1723 70.9029 68.6296 71.9677 68.0947C72.0765 68.304 72.1853 68.5133 72.2941 68.7227C71.2682 69.4049 70.6931 70.9088 69.0221 70.3971C68.9366 70.1723 68.8589 69.9398 68.7734 69.7149Z" fill="#FFF2E3"/>
<path d="M94.103 81.0876C93.0771 80.1418 92.0512 79.196 91.0176 78.2502C91.1886 78.0487 91.3595 77.8549 91.5305 77.6533C92.5875 78.5603 93.6523 79.4596 94.7092 80.3666C94.5072 80.6069 94.3051 80.8472 94.103 81.0876Z" fill="#FFF2E3"/>
<path d="M93.7516 90.8319C87.3709 95.6228 80.7337 95.0802 74.1431 94.5608C73.7389 94.5297 72.8141 90.8707 73.1794 90.0955C75.1923 85.7852 90.9382 84.7774 93.4019 88.545C93.5806 88.8164 93.5496 89.4288 93.7594 90.8319H93.7516Z" fill="#291510"/>
<path d="M90.5729 89.297C89.3993 91.3824 85.1559 92.7545 83.2595 92.7778C79.4902 92.8243 77.1197 92.4909 73.4358 90.6382C73.055 90.4443 72.3089 89.8552 72.3245 89.2505C72.34 88.6458 73.4125 88.3512 73.7933 88.4288C79.3425 89.4676 83.959 89.7777 89.8346 88.328C90.0211 88.2815 91.0781 88.3978 90.5729 89.297Z" fill="white"/>
<path d="M76.2729 66.2888C76.1174 68.506 76.0786 70.4285 75.962 72.6302C75.9076 73.7 75.7055 74.7853 75.247 75.7776C74.8273 76.6923 74.1201 77.452 73.8092 78.4133C72.931 81.1421 75.0682 84.1732 77.8661 84.4291C78.5734 84.4911 78.7443 83.2895 78.0371 83.1887C76.5682 82.9794 75.3946 82.0026 74.975 80.5607C74.4698 78.8164 75.6822 77.7079 76.3273 76.2194C76.9723 74.731 76.8946 73.0953 76.9257 71.5371C76.9646 69.6766 77.1433 65.3818 77.3843 63.0406C77.4076 62.8468 76.4983 65.7152 76.4439 65.8857L76.2729 66.2888Z" fill="#291510"/>
<path d="M85.265 76.9398C87.5189 77.684 87.4178 80.5291 86.493 82.1958C86.1899 82.7462 85.9645 83.4982 86.6406 83.878C87.1691 84.1804 87.7132 83.94 87.8997 83.3896C88.0862 82.8392 87.2158 82.4594 86.9515 82.9865C87.0681 82.754 87.4722 82.6144 87.6354 82.3663C87.7209 82.2345 87.7909 82.0407 87.8531 81.8934C87.9774 81.5679 88.0629 81.2345 88.1173 80.8857C88.2261 80.1647 88.1562 79.4127 87.9152 78.7228C87.48 77.4747 86.6251 76.746 85.3194 76.6452C85.1407 76.6297 85.1251 76.8933 85.2805 76.9398H85.265Z" fill="#291510"/>
<path d="M73.6551 66.3968C73.5463 66.2107 73.4142 66.0557 73.2743 65.8929C73.2743 65.8929 73.2587 65.8774 73.2587 65.8696C73.1966 65.7999 73.1344 65.7301 73.08 65.6603H73.0722C72.8002 65.3812 72.3883 64.9626 72.2406 64.8308C71.4401 64.1486 70.352 63.5052 69.4194 63.0866C67.8806 62.3966 66.2485 62.3966 64.6319 62.9781C63.1086 63.5285 61.7796 64.4897 60.5672 65.6371C60.4273 65.7689 60.2641 65.9317 60.2252 66.1022C60.2019 66.2262 60.3418 66.4898 60.4506 66.5208C61.0413 66.6991 62.2692 65.9859 62.6734 65.4588C62.9765 65.0557 63.4583 64.7998 63.8858 64.5207C63.9713 64.4665 64.2122 64.5518 64.2744 64.6448C64.5231 65.0634 64.6552 65.3735 64.9816 65.7146C65.5412 66.2883 65.448 66.5906 65.9454 66.6216C66.7614 66.6681 67.0801 66.7224 67.8961 66.7301C68.6034 66.7379 69.4505 66.5053 69.7458 65.8309C69.8546 65.5906 69.9712 65.3502 70.0645 65.1099C70.352 64.3424 70.6163 64.2494 71.238 64.7068C71.4323 64.8541 71.9764 65.2029 72.1862 65.327C72.3883 65.451 72.8313 65.8774 73.0178 66.3658C73.0644 66.5208 73.1111 66.6681 73.1655 66.8077C73.2043 66.8929 73.4997 66.9317 73.5929 66.8542C73.6784 66.7922 73.725 66.4976 73.6629 66.389L73.6551 66.3968ZM68.6034 66.3038C68.4479 66.2185 69.5204 64.3114 69.2873 64.0634C69.5593 63.9781 69.8313 64.1176 69.8935 64.1641C70.0334 64.2804 69.4971 65.3115 69.6059 65.4665C69.4894 65.5363 68.6733 66.3348 68.6111 66.3038H68.6034Z" fill="black"/>
<path d="M99.6355 63.8005C98.6873 62.9633 97.7158 62.4206 96.62 61.9245C95.7651 61.5369 94.7159 61.1958 93.7833 61.188C92.5864 61.1725 91.8869 61.5059 90.8843 61.94C90.1538 62.2501 89.0579 62.9168 88.5217 63.5292C87.7911 64.3742 87.1694 65.5215 87.115 65.6843C86.7963 66.6611 87.8377 65.7153 87.9854 65.6766C88.0554 65.6533 88.9491 63.8548 89.0035 63.785C89.3144 63.3974 89.7496 63.1416 90.1693 63.3819C90.4336 63.5292 90.8533 64.1029 90.931 64.444C91.2341 64.9634 91.5139 65.7308 92.7418 65.6688C93.6434 65.6223 94.4827 65.5448 95.2988 65.1494C95.7884 64.9168 96.7055 63.8238 96.791 63.599C97.0008 63.0796 97.4749 63.2036 97.9179 63.5292C98.3298 63.8315 98.6485 64.2734 99.0837 64.5215C99.3324 64.661 99.721 64.5215 100.047 64.5215C99.9153 64.2734 99.8143 63.9478 99.6355 63.7928V63.8005ZM95.5397 64.3974C95.2677 64.3974 95.7185 63.4129 95.7185 63.0175C95.7185 62.6222 95.7418 62.1958 95.9827 62.3198C96.2936 62.4749 96.4801 62.6377 96.4801 63.0253C96.4801 63.4129 95.8117 64.3897 95.5397 64.3897V64.3974Z" fill="black"/>
</g>
</g>
<defs>
<clipPath id="clip0_5795_5255">
<rect width="163" height="163" rx="81.5" fill="white"/>
</clipPath>
<clipPath id="clip1_5795_5255">
<rect width="187" height="202" fill="white" transform="translate(-12 20)"/>
</clipPath>
</defs>
</svg>
