<svg fill="none" height="163" viewBox="0 0 163 163" width="163" xmlns="http://www.w3.org/2000/svg" xmlns:xlink="http://www.w3.org/1999/xlink"><clipPath id="a"><rect height="163" rx="81.5" width="163"/></clipPath><clipPath id="b"><path d="m6 18h151v176h-151z"/></clipPath><g clip-path="url(#a)"><circle cx="81.5" cy="81.5" fill="#ffdeb5" r="81.5"/><g clip-path="url(#b)"><path d="m113.898 133.671c5.188 10.095-15.1224 21.965-32.6486 21.543-17.5261-.422-31.1528-9.639-30.8761-20.983.0864-3.488 2.8619-8.389 5.2743-11.309 5.4299-6.581 14.7506-9.355 28.1093-7.778 17.1111 2.015 25.0401 8.579 30.1501 18.519z" fill="#6dd5c8"/><path d="m50.9095 131.026c-11.6726 2.799-23.0771 6.718-33.9975 11.688-.8041.362-1.6255.75-2.2048 1.404-.683.767-.9597 1.809-1.2191 2.808-3.2337 12.714-6.48478 25.531-7.16784 38.623-.04323.879-.06053 1.844.4669 2.55.80411 1.085 2.41234 1.051 3.76114.939 27.7894-2.429 55.6739 2.429 83.5757 2.575 15.131.086 30.323-1.214 45.35.552 4.73.551 9.442 1.412 14.215 1.498.579.009 1.202 0 1.669-.336.562-.396.752-1.137.873-1.817 2.343-13.067-5.499-25.496-9.269-38.227-1.444-4.866-2.291-9.905-2.542-14.97.726 1.102-.061-1.318 0 0-.83-1.258-4.384-2.748-5.81-3.239-9.719-3.368-16.532-2.903-26.571-5.116l-6.977-7.589c1.34 2.024 5.62 5.573 6.977 7.589.32.473-.078 2.532-.596 5.392-.312 1.697-3.891 6.693-6.139 8.674-4.764 4.186-10.9984 5.702-17.3275 6.244-6.3292.543-16.3935-.051-22.8783-3.006-6.1908-2.816-11.1365-8.045-14.1195-14.134-.2594-.535-.5101-1.094-.4928-1.689.0259-.611.3285-1.163.6311-1.688 1.6428-2.834 3.4499-5.573 5.4213-8.191l-5.6374 9.457z" fill="#c59d7b"/><path d="m50.7618 130.699c-11.6812 2.61-22.9647 6.762-33.8505 11.706-1.0116.456-2.0405.947-2.6977 1.877-.7263 1.025-.9511 2.335-1.2537 3.532-.7609 2.972-1.5131 5.943-2.2308 8.924-1.46119 6.055-2.77544 12.153-3.66601 18.329-.42367 2.946-.76088 5.9-.95975 8.872-.14699 2.11-.50149 4.849 2.17024 5.392 1.18455.241 2.42102.035 3.60552-.06 1.5477-.121 3.0954-.224 4.6518-.302 3.1559-.163 6.3118-.249 9.4764-.258 12.615-.069 25.2127.913 37.7845 1.809 12.5546.896 25.0918 1.611 37.6812 1.404 12.606-.207 25.273-.879 37.845.577 3.138.362 6.26.87 9.407 1.189 1.539.163 3.087.284 4.634.318.995.026 2.058.009 2.672-.896.614-.904.649-2.136.77-3.161.155-1.326.216-2.661.19-4.005-.061-2.653-.458-5.28-1.064-7.864-1.288-5.478-3.458-10.69-5.481-15.927-2.101-5.435-3.978-10.913-4.92-16.675-.26-1.568-.458-3.144-.597-4.729-.069-.75-.129-1.507-.155-2.257 0 0 .008-.284-.009-.31v-.052c.026-.198-.13-.181-.467.043 0 0 .121.285.104.285.164.051-.484.344.216-.035.355-.189.164-.051.095-.258-.034-.112-.199-.259-.268-.336-.277-.302-.614-.543-.942-.775-.839-.569-1.764-1.025-2.689-1.439-4.548-2.024-9.563-3.006-14.474-3.704-2.534-.361-5.076-.654-7.609-1.033-1.427-.216-2.845-.448-4.254-.715-.701-.138-1.79-.147-2.343-.551-.329-.242-.606-.655-.874-.948l-1.366-1.481c-1.02-1.112-2.04-2.223-3.061-3.334-.518-.56-1.029-1.12-1.547-1.679-.234-.259-.683.077-.484.37 1.521 2.257 3.769 4.005 5.62 5.978.406.439.821.878 1.176 1.361.302.413.259.801.216 1.3-.069.81-.225 1.611-.363 2.403-.13.741-.199 1.534-.467 2.24-.433 1.12-1.15 2.171-1.825 3.152-.838 1.224-1.746 2.404-2.741 3.506-2.282 2.541-5.291 4.333-8.4903 5.487-6.3032 2.283-13.3759 2.541-19.9991 1.955-3.398-.301-6.8133-.861-10.0643-1.912-3.2943-1.068-6.3378-2.825-8.9577-5.082-2.9311-2.515-5.352-5.599-7.1591-9.01-.6139-1.154-1.2365-1.946-.588-3.23.5101-.999 4.3491-6.994 5.672-8.966.2421-.354-.121-.31-.3977-.018-1.565 1.689-2.5247 2.955-3.7093 4.833-.562.895-1.3488 2.127-1.8676 3.049-.3977.697-.7522 1.412-.6571 2.231.0951.818.5966 1.662.9943 2.411.4583.862.9511 1.697 1.4785 2.507.9771 1.499 2.0838 2.92 3.3116 4.238 2.4728 2.661 5.4299 4.901 8.7328 6.443s6.6404 2.248 10.0903 2.73c6.8825.956 14.1973.948 20.9415-.87 3.5709-.964 7.0122-2.567 9.7872-5.039 2.145-1.903 3.995-4.418 5.396-6.908.778-1.378.994-2.739 1.254-4.298.198-1.171.639-2.601-.139-3.618-1.988-2.609-4.859-4.487-6.709-7.209l-.485.37c1.557 1.689 3.113 3.377 4.669 5.074.718.784 1.401 1.697 2.205 2.394.476.414 1.219.414 1.825.534 1.435.285 2.87.534 4.314.758 5.136.793 10.315 1.258 15.373 2.49 2.395.585 4.79 1.266 7.056 2.248.968.422 1.928.878 2.801 1.464.337.224.683.474.951.784.147.172.294.499.528.577.83.267.527-1.499-.165-1.318-.605.164-.242 1.68-.224 2.016.095 1.43.242 2.851.441 4.272.804 5.883 2.542 11.508 4.651 17.046 1.989 5.211 4.194 10.371 5.638 15.771.709 2.645 1.228 5.358 1.383 8.097.078 1.378.069 2.756-.043 4.135-.061.689-.138 1.378-.251 2.067-.103.629-.19 1.499-.691 1.955-.588.534-1.557.396-2.283.371-.778-.026-1.548-.069-2.317-.13-1.548-.12-3.087-.293-4.626-.491-3.139-.404-6.269-.87-9.416-1.162-6.251-.578-12.537-.681-18.814-.621-6.347.061-12.693.293-19.0398.354-6.2859.06-12.5631-.095-18.8404-.414-12.5631-.629-25.0831-1.8-37.6462-2.42-6.26-.31-12.5286-.483-18.7972-.379-3.1559.051-6.3205.172-9.4764.379-1.4699.094-2.9398.293-4.40965.327-1.50447.026-2.8533-.448-2.99164-2.145-.1124-1.421.1124-2.928.2248-4.341.1297-1.525.28533-3.041.47555-4.557.38909-3.169.90787-6.322 1.50447-9.457 1.15857-6.073 2.61987-12.085 4.13297-18.08.3545-1.395.6485-2.817 1.0808-4.177.4842-1.542 1.4612-2.326 2.8879-2.981 2.7668-1.275 5.5682-2.463 8.3956-3.592 5.6201-2.248 11.3527-4.22 17.163-5.934 2.8014-.827 5.6201-1.602 8.4475-2.326.1902-.052 0-.517-.1902-.474z" fill="#000"/><path d="m105.389 122.189c-.779-.724-1.747-.999-2.776-1.189-1.444-.275-2.8963-.499-4.3489-.715-2.8447-.413-5.7153-.741-8.5859-.965-5.9054-.465-11.8455-.525-17.7596-.223-2.957.146-5.9141.396-8.8625.723-2.2394.25-4.8938.293-6.649 1.904-2.9312 2.687-1.885 7.114-.3545 10.207 3.6487 7.399 11.2229 12.067 19.29 13.213 3.813.542 7.7212.577 11.5602.293 3.5796-.267 6.8738-1.465 10.1162-2.972 2.1875-1.016 3.969-2.481 5.49-4.35 1.159-1.412 2.352-3.032 2.949-4.772.51-1.507.761-3.126.908-4.703.147-1.576.225-3.368-.225-4.952-.156-.552-.381-1.069-.77-1.491-.276-.301-.726.147-.449.448.925 1.017.916 2.791.908 4.066-.009 1.688-.217 3.376-.588 5.022-.338 1.472-.908 2.661-1.73 3.936-1.262 1.955-2.836 3.833-4.781 5.151-1.9368 1.309-4.3146 2.179-6.5194 2.92-1.3056.439-2.6371.792-4.0119.947-3.1818.353-6.4329.379-9.6234.164-4.1502-.276-8.0152-1.206-11.7331-3.075-3.3548-1.688-6.3291-4.04-8.4734-7.141s-4.1503-7.502-2.7928-11.137c.8992-2.412 3.1559-2.498 5.5164-2.799 2.6112-.328 5.231-.586 7.8595-.776 6.0179-.43 12.0617-.491 18.0882-.137 3.0608.181 6.1216.465 9.1651.861 1.5996.207 3.1992.448 4.7988.724 1.314.223 2.888.327 3.908 1.274.303.276.752-.172.45-.448z" fill="#000"/><path d="m113.837 83.5231c-1.997 5.4868-2.404 8.648-3.381 8.3034-.977-.3445-2.135-4.0828-.147-9.5696 1.998-5.4868 4.739-8.691 5.716-8.3379.977.3532-.199 4.1173-2.188 9.6127z" fill="#fff2e3"/><path d="m117.39 58.1826c-.069-1.9553-.311-3.945-.83-5.8314-.7-2.541-1.107-5.0733-1.072-7.6832 0-.6116-.104-1.2835-.389-1.8261-.726-1.3696-1.47-2.7563-2.404-4.0053-1.565-2.1103-2.862-4.4704-5.317-5.8658-.943-.534-1.911-1.025-2.854-1.559-1.997-1.137-3.916-2.4118-6.2769-2.8597-.9165-.1723-1.98-.3101-2.6544-.8355-1.3315-1.0423-2.8273-1.2921-4.4269-1.4385-.6226-.0517-1.3489.0258-1.8417-.2498-1.3661-.7666-2.7755-1.3609-4.2367-1.9553-3.8476-1.559-7.6607-1.404-11.4651-.2842-1.5823.4651-3.2337.6374-4.7987 1.404-1.3488.6632-3.1646.4565-4.7728.6632-.5015.0603-1.0635.0948-1.4612.3446-.9684.6029-1.8504 1.3351-2.8015 1.9811-.2334.155-.562.1895-.8387.2756.1211.1723.2508.3359.3718.5082.6226-.0689 1.2451-.1378 1.8677-.2067-.7696.6374-1.591 1.3437-2.3951 1.3265-1.3056-.0259-1.9627.7149-2.7755 1.3523-.2248.1809-.4755.3273-.7349.4737-3.424 1.9639-6.1649 4.5652-8.093 7.8986-1.8849 3.2559-3.0262 6.7616-3.8822 10.3793-1.1413 4.7978-1.1413 8.6997.5274 13.5922.562 1.6365-.7176 4.4187-.7782 6.2448-.0605 1.6365-1.2364 3.0922-.7608 4.8752.6398 2.4118 2.2826 4.5135 4.0292 6.3051.3718.379.8732.7666.9943 1.2231.5447 1.9984 1.0548 4.0139 1.4093 6.0467.2681 1.5504 1.7898 3.2904 3.2424 3.1181 1.1932-.1464 1.3662.3962 1.5564 1.2403.683 3.1181 1.6947 6.1243 3.4931 8.8543.268.405.5101.896.5534 1.361.4842 5.539 1.0289 11.077.294 16.633-.1989 1.533-.3978 3.066-.6485 4.548-.4929 3.006-1.9368 2.722-2.1097 3.075-.3632.749.6398 2.963 1.5304 4.427 2.5939 4.255 5.646 8.132 10.2113 10.19 6.7874 3.058 13.1511 3.609 20.6994 2.774 9.3899-1.042 17.3104-6.348 18.3394-14.488.268-2.128-.191-5.504-1.038-5.969-2.326-1.275-3.121-5.358-3.355-7.262-.605-4.866-.484-6.787-.026-7.132 4.808-3.557 6.952-6.692 7.894-9.561 1.946-5.8998 2.075-8.2685 3.978-20.6892.095-.6116.89-3.0406 1.15-3.5833.674-1.3781 1.271-1.671 1.547-2.1016 1.142-1.7572.424-3.032.657-5.082.087-.7925.545-1.5505.58-2.3343.121-2.7649.242-5.5471.138-8.312z" fill="#fff2e3"/><path d="m81.5946 145.291c-5.4732 0-10.1336-1.008-14.8718-3.144-4.9284-2.222-8.093-5.926-10.4275-9.759-.0864-.138-2.0059-4.014-1.4353-5.194.0865-.172.2508-.241.441-.327.4496-.19 1.2883-.534 1.6428-2.679.2248-1.387.4237-2.843.6052-4.247l.0346-.293c.7004-5.262.2248-10.62-.2248-15.788l-.0691-.784c-.0346-.353-.2076-.784-.5102-1.249-1.5996-2.4375-2.7236-5.2713-3.5277-8.9321-.1816-.8097-.294-1.1542-1.271-1.0422-1.5909.1895-3.2251-1.6624-3.5191-3.3248-.3718-2.1276-.9165-4.2379-1.4007-6.0209-.0778-.2929-.3804-.5771-.6744-.8613-.0865-.0862-.1729-.1723-.2594-.2498-2.2394-2.2912-3.5364-4.3326-4.0897-6.4171-.3026-1.137.0173-2.1362.3372-3.1009.2075-.6288.3977-1.2231.4237-1.8519.0259-.7235.2334-1.5676.4496-2.4634.3285-1.3524.6657-2.7564.3458-3.6866-1.5909-4.6513-1.7465-8.6308-.5361-13.73 1.0203-4.2723 2.2567-7.5885 3.9082-10.4482 1.8849-3.2645 4.6431-5.9519 8.1881-7.9933.2594-.1464.4928-.2843.7004-.4479.121-.0948.2421-.1981.3631-.2929.6744-.5599 1.3748-1.137 2.5766-1.1197h.0173c.4929 0 1.0203-.3273 1.5477-.7322l-1.1586.1292-.6658-.913.3372-.1034c.0951-.0258.1903-.0517.294-.0775.1816-.0431.3632-.0861.4842-.1637.3718-.2584.7436-.534 1.0981-.7924.5447-.4048 1.1154-.8269 1.7033-1.1887.3891-.2411.8992-.3014 1.3575-.3531.0692 0 .1383-.0172.2075-.0259.5274-.0689 1.0722-.0947 1.6082-.1119 1.1414-.0517 2.2135-.0948 3.0868-.5255 1.0635-.5168 2.1616-.7752 3.2337-1.0164.5275-.1205 1.0808-.2497 1.5996-.4048 4.254-1.2576 8.0584-1.1628 11.638.2929 1.4526.5943 2.8792 1.1886 4.2627 1.9639.3026.1722.7522.1808 1.1932.1981.1815 0 .3717.0086.5533.0258 1.444.1292 3.1127.3618 4.5567 1.4901.536.4221 1.3747.5685 2.1875.7236.121.0258.2421.043.3545.0689 2.0493.3876 3.7783 1.3954 5.4563 2.3687.302.1723.596.3445.899.5168.458.2584.934.5082 1.383.758.484.2584.986.5254 1.47.8011 2.023 1.1542 3.286 2.9544 4.513 4.6943.286.4135.588.8355.882 1.2404.934 1.2575 1.678 2.6271 2.421 4.0397.277.5254.424 1.2145.415 1.9467-.034 2.4204.312 4.9097 1.064 7.6143.484 1.7486.761 3.678.839 5.8917.103 2.7391-.018 5.5126-.13 8.2086v.1292c-.026.4566-.173.8872-.311 1.3093-.121.3618-.234.6977-.277 1.0422-.078.6891-.043 1.2835-.017 1.8519.06 1.094.112 2.119-.675 3.3421-.104.155-.233.2842-.38.4393-.303.3101-.709.7235-1.159 1.6365-.251.5169-1.037 2.9114-1.132 3.5144-.32 2.1103-.597 3.9277-.831 5.5212-1.175 7.8986-1.53 10.2846-3.155 15.2026-1.124 3.403-3.658 6.486-7.99 9.682-.199.146-.588 1.12.121 6.899.208 1.706.951 5.823 3.225 7.072 1.038.568 1.427 4.169 1.168 6.219-.493 3.936-2.612 7.425-6.1306 10.069-3.3115 2.498-7.6088 4.1-12.4334 4.634-2.1097.233-4.0811.353-5.9574.353zm-26.285-17.873c-.2334.534.3459 2.842 1.4267 4.617 2.2999 3.772 4.9716 6.908 10.2027 9.647 6.0957 3.195 12.4507 3.747 20.587 2.842 4.6604-.516 8.9662-2.222 12.1567-4.625 3.4063-2.567 5.4563-5.926 5.9313-9.733.268-2.145-.242-5.349-.908-5.711-2.481-1.361-3.268-5.668-3.484-7.451-.735-5.935-.346-7.054.078-7.364 4.236-3.136 6.718-6.133 7.807-9.441 1.609-4.8751 1.963-7.2524 3.13-15.1166.242-1.5935.51-3.4195.83-5.5298.095-.6374.908-3.1009 1.176-3.6522.476-.9819.925-1.4384 1.245-1.7657.139-.1378.242-.2498.312-.3618.7-1.0853.657-1.9467.596-3.0406-.034-.5685-.069-1.2059.017-1.938.044-.3962.173-.7752.294-1.1456.139-.4048.268-.7925.286-1.1714v-.1292c.121-2.6789.242-5.4524.138-8.1657-.078-2.1447-.354-4.0828-.821-5.771-.761-2.7477-1.116-5.2887-1.081-7.7522.009-.646-.121-1.2489-.355-1.7055-.735-1.3954-1.469-2.7477-2.377-3.9794-.303-.4135-.606-.8355-.891-1.249-1.184-1.6968-2.421-3.4454-4.34-4.5479-.476-.2756-.977-.5427-1.453-.7924-.458-.2498-.934-.4996-1.401-.7667-.302-.1722-.605-.3445-.899-.5168-1.643-.9561-3.337-1.938-5.3001-2.3084-.1124-.0258-.2335-.0431-.3545-.0689-.8301-.1464-1.7725-.3187-2.4124-.8183-1.2105-.9389-2.542-1.2317-4.2886-1.3868-.1642-.0172-.3372-.0172-.5187-.0258-.5015-.0172-1.0117-.0258-1.4267-.2584-1.3575-.7666-2.7668-1.3523-4.2021-1.938-3.4672-1.404-7.1592-1.4988-11.3008-.2757-.5447.1637-1.0981.2843-1.6342.4135-1.0375.2412-2.1183.4823-3.1213.9819-.9684.4738-2.1443.5254-3.2856.5771-.5188.0259-1.0635.0431-1.565.112-.0692.0086-.147.0172-.2162.0258-.415.0517-.8473.1034-1.1413.2843-.5793.3531-1.1327.7666-1.6687 1.1714-.3632.267-.735.5427-1.1154.8097-.173.1206-.3632.1723-.562.2239l.0605.0862 2.5593-.2757-.7349.6116c-.7869.6546-1.5996 1.3351-2.4815 1.3179-1.003-.0173-1.5823.4565-2.2481.9991-.121.1034-.2421.1982-.3718.3015-.2334.1809-.4842.3273-.7609.491-3.4672 1.9983-6.1648 4.6168-8.0065 7.8038-1.6255 2.8167-2.8533 6.0898-3.8563 10.3104-1.2018 5.0561-1.0548 8.8289.5188 13.4457.3718 1.0767.0087 2.5496-.3372 3.9708-.2075.87-.4064 1.6883-.4323 2.3601-.0259.6891-.2421 1.3524-.441 1.9812-.3026.9388-.5879 1.8174-.3285 2.8166.5274 1.9897 1.7898 3.9622 3.9686 6.1931.0779.0775.1643.1637.2508.2412.3458.3273.7003.6632.8127 1.0939.4842 1.8002 1.0376 3.9191 1.4094 6.0639.2507 1.4385 1.6688 3.0578 2.9571 2.9114 1.3661-.1637 1.6341.5168 1.833 1.4298.7955 3.6005 1.8849 6.3826 3.4499 8.7687.3545.534.5533 1.034.5879 1.481l.0692.784c.4583 5.203.9252 10.586.2248 15.901l-.0346.293c-.1902 1.412-.3804 2.868-.6052 4.263-.3978 2.421-1.4094 2.843-1.9455 3.067-.0691.026-.1556.069-.1902.086z" fill="#000"/><path d="m58.4668 59.7754c.5534-.7063.0432-1.1111 1.5823-1.8433.0259-.1292 1.0202-.7321 1.4699-.8613.389-.112.7522-.3101 1.1326-.4651.1816-.0776 2.9398-.6719 4.0984-1.0509.7004-.2239 1.3921-.1637 2.0838.0861.8992.3187 1.4353.3704 2.2394.9131.1729.1206.7782.379.9857.4393.5188.1378 1.712.646 1.6082 1.18-.0951.4738 0 .3187-.7609 1.0767-.0778.2756-.3285-.0258-3.2942-.0258-.7177 0-1.3489.155-2.0233.1119-.6831-.043-2.3345-.0086-2.4815-.0258-1.2105-.112-2.4123-.0431-3.6315.0345-.9338.0602-1.8503.0947-2.7236.4392-.0605.0259-.1383 0-.2853 0zm10.8771-3.4626c.0087-.0517.026-.1034.0346-.1551-.1038-.0172-.2162-.043-.3199-.0602-.0087.0344-.0173.0775-.026.1119.1038.0345.2076.0689.32.1034z" fill="#000"/><path d="m93.5268 104.755c1.3488-.327 1.565 1.146 1.5477 2.223 0 .275-.5448.654-.9338.766-.2681.078-.8128-.163-1.0462-.396-.8387-.827-.9857-2.248.4323-2.593z" fill="#000"/><path d="m90.4227 57.407c1.5131.1636 3.0522.0775 4.5393-.2584-1.5217.3962-3.0867.5943-4.6603.5943 1.9367-.3015 3.8735-.6029 5.819-.913-1.7466.4393-3.6661.8527-5.2916.0775 1.4785-1.0423 3.4845-1.292 5.1792-.6546-1.2884.7493-2.8879.9474-4.3232.5426 1.392-.2928 2.8533-.2412 4.2194.1464-.9425.379-2.0233.3963-2.9743.0345 1.1759-.2929 2.4209-.3187 3.6141-.0775-.83.0689-1.6774-.0517-2.4555-.3532.7954-.3273 1.7379-.2928 2.4988.112-.9166.1378-1.859.0689-2.7409-.2067.8819-.1551 1.7811-.1809 2.663-.0776-1.8935-.0861-3.7957.1034-5.6287.5599.1815.0775.415.0173.5447-.1292-.2421-.3014 3.4931-1.3437-1.0289-.0086-.3718.112-.1557.8183.1815 1.0078.0951-.1809.2162-1.2145.026-1.1284-.1902.0862-.8992 1.1715-.9598 1.3696.7782.2928 1.8676.0172 2.6631-.2498 2.4123-.8097 4.9198-1.6883 7.4445-1.3265-.2334-.0775-.5101.0258-.6312.2412 1.3921.6891 4.3581 1.4298 5.9051 1.5935-1.772-.6288-5.075-1.3523-6.9513-1.5246 1.1759-.0431 2.3693.1206 3.4843.491-1.8933-.1551-3.7955-.3101-5.6891-.4652 1.2451-.2498 2.4815-.5082 3.7266-.758-1.5131.0948-3.5537.1292-5.0408-.1119 1.3401.0258 3.2078-.0517 4.5479-.0259-1.098-.1033-2.2048-.0517-3.2856.1378 1.3402-.3014 2.7236-.5943 4.0898-.4306 1.3662.1636 4.4702 1.1628 5.1272 2.6874-1.115-.2498-3.899-1.3782-4.825-2.0414.917.4134 1.773.9647 2.534 1.6107-1.046-.7494-2.7671-1.4471-3.7268-2.2998.7003.0603 2.0838.1723 2.6888.5168-1.9971.0172-3.9858-.0086-5.9831-.0861 1.418-.0517 2.8447.0516 4.2367.3101-2.1961.4479-4.4442.6201-6.6836.5254 1.3315.2153 2.6717.4393 4.0033.6546-1.738-.155-3.4845-.1723-5.2311-.0431l1.7034.0603c-.8215-.2928-1.738-.3014-2.5594-.0172 2.6977.3187 7.0727.6805 9.5978-.3015-3.0092 0-7.5572.224-10.5143.7753 1.7034.6374 3.6142.3445 5.3694-.1293 1.7552-.4737 3.4931-1.1283 5.3179-1.1972.38-.0173.907.1895.778.5426" fill="#190602"/><path d="m90.4225 57.5537c1.5477.1723 3.0694.1034 4.5912-.1981l-.1124-.4134c-1.5131.3531-3.0435.5426-4.5999.5684l.0605.4652c1.9368-.3015 3.8823-.5944 5.819-.8872l-.1383-.4996c-1.6687.4048-3.4499.8097-5.0927.1034v.4651c1.4958-.9906 3.277-1.2231 4.9716-.6374l-.0605-.4824c-1.2883.6977-2.7063.87-4.1243.5082v.5168c1.3748-.2584 2.7236-.2153 4.0724.1465v-.5168c-.9424.3445-1.8762.3617-2.8273.0344v.5168c1.1586-.267 2.2999-.2928 3.4672-.0775l.0691-.5254c-.83.043-1.5995-.0689-2.3777-.3359v.5168c.7782-.2843 1.5304-.2671 2.2913.0775l.1383-.4996c-.9165.112-1.7811.0517-2.6717-.1981v.5254c.8646-.1378 1.7206-.155 2.5939-.0689v-.5426c-1.9281-.069-3.8303.1205-5.7066.5771-.2507.0603-.268.4737 0 .5168.3026.0517.4929.0344.7522-.1637.1211-.0947.1643-.2239.0952-.3704.1469.3101-.1211.1723.2075.0862.1383-.0345.2767-.1292.4063-.1895.1557-.0689.3632-.112.5102-.2068.2075-.1378.147-.5168-.1384-.4995-.1642.0086-.3372.0861-.4928.1292-.5793.1722-1.297.267-1.833.5426-.6572.3359-.3632 1.1284.121 1.4988.147.1119.3372-.0173.3977-.1637.1211-.3187.3805-1.4729-.2248-1.4729-.5014 0-1.0548 1.1887-1.2191 1.5677-.0605.1378.0605.2928.1902.3273 1.4958.4393 3.0695-.3532 4.4788-.7925 1.859-.5771 3.7439-.9991 5.698-.7493.3204.043.4064-.5255.0778-.5685-.3804-.0517-.6571.0172-.9165.31-.1124.1293-.1211.3704.0605.4566 1.8586.8872 4.0116 1.404 6.0526 1.6365.346.0431.38-.4737.078-.5771-2.248-.7752-4.661-1.292-7.0298-1.5246v.5771c1.1673-.0258 2.2908.1292 3.4068.4824l.078-.5599c-1.8939-.155-3.7961-.3101-5.6896-.4565l.0778.5513c1.2364-.2584 2.4815-.5082 3.7179-.7666.3026-.0603.2335-.5513-.0691-.5341-1.6515.1034-3.3289.1465-4.9717-.1033l-.0692.534c1.5131.0258 3.0263-.0517 4.548-.0258.3632 0 .3459-.5255 0-.5513-1.1327-.0948-2.2394-.0431-3.3634.1378l.147.5427c1.8244-.4135 3.5536-.6547 5.3693-.1034 1.245.379 2.897.9906 3.502 2.2481l.354-.4565c-1.617-.3876-3.38-1.0594-4.755-2.0069l-.303.5168c.891.422 1.712.9302 2.473 1.559l.355-.4565c-1.185-.8097-2.568-1.3265-3.6751-2.2481l-.1989.4823c.8387.0776 1.781.1034 2.551.4824l.147-.534c-1.9976.0172-3.9863-.0173-5.9836-.0948v.5857c1.4007-.043 2.7841.0603 4.1589.3015v-.5685c-2.1789.4307-4.3837.603-6.6058.5082-.3286-.0086-.4064.5254-.0778.5771 1.3315.2153 2.6717.4393 4.0032.6546l.0778-.5685c-1.7465-.1464-3.4844-.1636-5.231-.043-.3718.0258-.3805.5685 0 .5857l1.7033.0603c.3372.0086.3891-.4738.0778-.5771-.9165-.2929-1.7984-.2929-2.7149-.0172-.3372.1033-.2421.534.0778.5771 3.1127.3617 6.675.8096 9.6843-.2929.32-.1206.285-.6116-.087-.6116-3.5276 0-7.1158.1723-10.6003.8011-.3112.0603-.2594.491 0 .5771 1.712.5857 3.5104.3876 5.2397-.0517.5188-.1292 6.0436-1.7313 6.0006-1.025-.026.3962.597.3962.623 0 .103-1.671-3.5887-.4651-4.2977-.2756-2.4124.6718-4.9111 1.6193-7.4099.7666v.5771c3.4239-.6202 6.9689-.7322 10.4366-.758l-.087-.6116c-2.9484 1.094-6.4674.6719-9.5196.3101l.0778.5771c.8214-.2498 1.5823-.2498 2.4037.0173l.0778-.5771-1.7033-.0603v.5857c1.7466-.1206 3.4845-.112 5.231.043.3286.0259.4064-.5168.0779-.5684-1.3316-.224-2.6718-.4393-4.0033-.6633l-.0778.5771c2.274.0948 4.5307-.0861 6.7618-.534.276-.0517.285-.5168 0-.5685-1.427-.2498-2.8623-.3618-4.3149-.3187-.3804.0086-.3804.5685 0 .5857 1.9973.0689 3.986.0948 5.9829.0775.268 0 .407-.3962.147-.534-.864-.4307-1.8932-.4737-2.8356-.5513-.2335-.0172-.3805.3273-.1989.4824 1.1413.9647 2.5595 1.5074 3.7785 2.3515.268.1895.614-.2498.354-.4565-.795-.6633-1.651-1.2145-2.585-1.6624-.3457-.1637-.6223.2928-.302.5168 1.4.9647 3.242 1.6968 4.893 2.0844.277.0603.467-.2153.355-.4565-.657-1.3437-2.343-2.0155-3.692-2.4376-1.9801-.6202-3.8737-.379-5.871.0689-.3631.0775-.1988.6029.147.5427 1.0635-.1723 2.1357-.2154 3.2078-.1293v-.5512c-1.5131-.0172-3.0262.0517-4.548.0344-.2939 0-.3804.4824-.0691.5341 1.6947.2498 3.4153.2153 5.1186.1206l-.0692-.5341c-1.245.2498-2.4815.4996-3.7265.7494-.3286.0689-.2248.5254.0778.5513 1.8935.155 3.7957.3187 5.6896.4737.337.0259.371-.4651.077-.5599-1.158-.3703-2.3427-.534-3.5618-.5082-.3804.0086-.3631.5427 0 .5771 2.3088.2326 4.6778.758 6.8738 1.516l.078-.5771c-1.928-.2239-3.995-.7235-5.7586-1.5504l.0605.4565.4237-.155v-.5858c-1.6688-.1981-3.3116.0689-4.9198.5255-1.6082.4565-3.5018 1.559-5.11 1.0853l.1902.3273c.147-.3532.4496-.6202.6139-.9561.1989-.1465.2075-.2067.026-.1809-.1297-.0345-.1643.0172-.1211.155-.0778.1379-.0519.4307-.1124.5944l.3977-.1637c-.683-.5168.6658-.7924.8301-.8355.2075-.0603.415-.1206.6225-.1809.1038-.0344.5188-.1464.4756-.1464l-.1384-.4996c-.268.1723-1.6168.4048-1.3142 1.0422l.0951-.3703-.3372.1033v.5168c1.8244-.4393 3.6834-.6201 5.5596-.5512.3545.0172.3459-.5082 0-.5427-.9251-.0861-1.8244-.0517-2.7322.0948-.2767.043-.2421.4565 0 .5254.9338.267 1.8503.3445 2.8187.2153.2334-.0258.415-.379.1383-.4996-.8819-.4048-1.7898-.4651-2.7063-.1378-.2507.0948-.2594.4307 0 .5168.8301.2843 1.6515.4049 2.5247.3618.2854-.0172.3891-.4737.0692-.5254-1.2624-.2326-2.4988-.2067-3.7525.0775-.2767.0603-.2335.4393 0 .5168 1.0376.3532 2.0838.3446 3.1127-.0344.2421-.0862.2767-.4479 0-.5169-1.444-.3876-2.8965-.4392-4.3664-.155-.2681.0517-.2508.4565 0 .5168 1.5563.3876 3.1213.1895 4.5307-.5771.2075-.112.1383-.4048-.0606-.4823-1.8157-.6288-3.7784-.379-5.3866.6804-.147.0948-.1989.379 0 .4652 1.7984.7838 3.6747.3962 5.499-.0603.3286-.0862.1816-.5513-.1383-.4996-1.9368.3101-3.8736.6288-5.8104.9302-.268.0431-.1988.4738.0606.4652 1.5995-.0173 3.1645-.224 4.7122-.6288.2681-.0689.1557-.4738-.1124-.4135-1.4785.336-2.9657.4393-4.4788.3187-.1902-.0172-.1816.2757 0 .2929z" fill="#000"/><path d="m56.4254 64.1774c-.5188.0259-4.3578-1.3523-5.9574.3532-.2334-.4824-.6052-.9561.1989-1.0423 1.5477-.155 3.1041-.2497 4.6518-.2842.415 0 .83.3101 1.245.4737-.0432.1637-.0951.3274-.1383.491z" fill="#000"/><path d="m110.18 65.7706c1.712.0431 3.424.0948 5.136.1378-.026.3101.034.6288.173.9131-1.695-.5599-3.485-.8269-5.266-.8011.207-.1292.424-.2584.631-.3876" fill="#190602"/><path d="m110.153 65.8571c.718.2929 1.669.1723 2.43.1981l2.732.0948-.242-.2412c0 .3618.043.646.173.9819l.303-.3014c-1.73-.5685-3.511-.8355-5.335-.8269l.138.4996c.216-.1292.415-.2671.623-.4049.268-.1809.034-.6029-.26-.4393-.216.1206-.432.2412-.64.3704-.224.1378-.138.5082.139.4996 1.781-.0258 3.51.2412 5.205.7666.164.0517.38-.1292.303-.3015-.113-.2842-.173-.5426-.165-.8527 0-.1292-.112-.2412-.242-.2412l-2.732-.0517c-.77-.0172-1.703-.1895-2.43.0689-.086.0345-.078.1379 0 .1723z" fill="#000"/><path d="m78.9219 65.3572c2.7495-.4651 4.9976-.4565 7.7212.0173.1902.0344.4409.1722.3718.3703-.441.2154-.9425.2671-1.4007.1465.2507.0258.5187-.0431.7608-.0173.1557-.0947.5621-.1722.441-.31-.121-.1379-.7349-.2757-.9079-.3187-2.274-.4824-4.6517-.4135-6.9257.2067.294.3359.6225.6202.9857.8441" fill="#190602"/><g fill="#000"><path d="m78.9142 65.4004c.6917.0689 1.392-.0948 2.0837-.1465.7695-.0516 1.5477-.0689 2.3172-.043.709.0258 1.4094.0861 2.1098.1809.1556.0172 1.2364.0947 1.2796.2153.0605.1636-.9597.0861-1.0721.0603l-.0606.4479c.3373 0 1.3575.0947 1.4699-.4307.1038-.491-.7436-.5943-1.0462-.6718-2.3259-.5427-4.7555-.4393-7.0554.1636-.1729.0431-.3286.267-.1729.4307.3199.3445.6484.6374 1.0375.8958.2854.1895.6139-.2412.3286-.4307-.3545-.2325-.6485-.4823-.9425-.801l-.1729.4306c1.5045-.3962 3.0522-.5857 4.6085-.5168.709.0345 1.4094.112 2.1011.2584.0951.0173.7436.1809.7436.1895.0173-.0344-.882.0259-.8387.0259-.2767 0-.3459.3962-.0606.4479.5361.0947 1.0117.043 1.5132-.1723.0951-.0431.1297-.1292.1297-.224 0-.4134-.3632-.5081-.7004-.5771-.8906-.1808-1.8244-.2584-2.7323-.3014-.7608-.0345-1.5131-.0259-2.2739.0258-.856.0603-1.8244.0861-2.6112.4393-.0433.0172-.0346.0861.0086.0861z"/><path d="m83.1778 35.8821c.1816.491.5188-.0344.7868.1464-.1816.3532-.4496.5169-.8214.5255-.294 0-.5966.0258-.8819-.0086-1.0117-.1293-1.8158.31-2.5334.9474-.2508.2154-.4929.3274-.7955.1895-.3891-.1722-.7522-.1378-1.1327.0517-.3285.1637-.6917.2584-1.0289.3962-.3285.1379-.6139.2326-.9251-.1119-.2248-.2498-.4324-.0259-.6139.3273.1297.0517.2853.1206.4582.1981-.4409.379-.7695.6718-1.271.5426-.0692-.0172-.1556 0-.2161.0345-.8214.5513-4.5913 2.1361-5.5683 2.584-.0519.0259-4.3923 1.8347-6.9776 3.6694-4.9889 4.6771-7.7471 10.2415-7.8077 10.3707-.0432.0861-1.0202 1.9466-.9511 2.9544.0087.1464-.1124.3273-.2075.4652-.2248.3359-.3458.689-.3545 1.1025 0 .2325-.0864.491-.2161.6804-.32.4824-.5707.9648-.4929 1.5246-.0605.0689-.0951.1292-.1297.1379-.6312.0689-1.0289.4565-1.392.9474-.3718.5169-.8128.982-1.1846 1.4902-.1297.1809-.1643.422-.2767.7407.6312-.1722.9511-.5598 1.2883-.8871.3113-.2929.6312-.4479 1.1327-.3187-.0173.2497-.0432.5168-.0519.7752-.0086.4823 0 .9647-.0173 1.447 0 .1637 0 .3704-.0951.4738-.4928.534-.6744 1.2059-.7609 1.8777-.2075 1.5505-.562 3.0923-.4323 4.6686.1038 1.292.2767 2.5754.441 3.8588.1124.8441.268 1.6883.4237 2.5324.1037.5771.268 1.1456.3458 1.7227.1557 1.2145.2681 2.429.415 3.6435.0433.3876.1384.7666.1903 1.1542.0259.1981.0259.4049.0345.6116-.0605.0172-.121.0344-.1815.0603-.2162-.3704-.4496-.7236-.6312-1.1026-.1989-.4134-.3632-.8527-.5361-1.2834-.1383-.3445-.3631-.5512-.7522-.6029-.7522-.1034-1.271-.5685-1.5304-1.2318-.3459-.8785-.6658-1.7571-.562-2.7649.0778-.758-.1557-1.4987-.709-2.1017-.2248-.2498-.4669-.4221-.856-.4048-.173.1895-.3718.3962-.6312.6804-.1989-.2411-.3977-.4134-.5274-.6287-.2594-.4393-.4842-.8958-.709-1.361-.1038-.2153-.1989-.4479-.2681-.6804-.3199-1.0767-.6312-2.1534-.9424-3.2301-.1384-.4996-.147-.9733-.0606-1.5074.1297-.8183.2076-1.6452.4756-2.4376.0259-.0689.0173-.1464.0259-.2153 0-1.6883.0606-3.3679 0-5.0562-.0345-1.0508-.2248-2.0931-.3631-3.1353-.0173-.1637-.1038-.3359-.2162-.4565-.3372-.379-.3977-.8355-.4063-1.3007-.026-1.6365-.1124-3.2817-.026-4.9183.0865-1.6538.268-3.3076.735-4.9183.3804-1.3092.5706-2.6788.9078-4.0053.3372-1.3006 1.9109-5.6763 2.2654-6.4084.3112-.6374.5706-1.2921.8819-1.9295.3199-.6632 3.8303-5.4179 4.7641-5.883.4842-.2412 4.2281-3.8416 6.4243-4.9355 2.2653-1.5419 7.9633-2.9114 8.3697-3.411 2.1788-.8011 2.9224-1.2576 5.1705-2.1448.0691-.0258 2.9743-.9991 3.3807-1.4556.3891-.4307.9597-.4393 1.5045-.4738.7349-.0431 4.0724-.1809 4.9889-.0431.8906.1292 3.6574 1.0337 4.1243 1.2835.6917.3703 1.3575.7924 1.9714 1.2661.4755.3618 3.6055 1.0164 4.0465 1.0078 1.0203-.0258 1.9887.1465 2.9484.5082.562.2067 2.6717 1.671 3.3029 1.9897.3026.1551 4.3839 1.3524 4.4959 1.4213.121.0775 2.655 2.0672 2.949 2.2481.19 1.2059 5.551 4.1 5.879 4.057.285-.0345 1.781 2.1792 2.075 3.2645.147.5513 1.064 2.6702 1.176 3.032.182.5598.407 1.1025.614 1.6537.078.2068.173.4049.259.603.147.3359.251 1.6366.217 2.0759-.052.6029 1.426 4.4704 1.452 5.0216.018.4566.182.8786.381 1.3179.285.6374.363 1.3609.536 2.05.086.3273.199.6546.268.9906.069.3014.104.6201.138.9302.035.2671.035.5341.061.8011.069.6546.198 1.3092.198 1.9639 0 1.5418-.051 3.0836-.121 4.6168-.017.4565-.198.9044-.25 1.3696-.026.2756.043.5598.095.8355.043.2325.199.4737.164.6891-.164 1.1542-.285 2.3256-.631 3.454-.182.6029-.199 1.2489-.303 1.8691-.147.8355-.32 1.671-.458 2.5152-.104.6546-.19 1.3092-.259 1.9638-.044.3876-.009.7839-.07 1.1715-.043.3015-.172.5857-.311 1.0078-.276-.3015-.441-.491-.648-.715-.26.3532-.459.6461-.329 1.1198.182.6546-.32.5513-.579 1.1198-.623-.336-.631.0861-.45-.5513.216-.7322.173-1.4299.052-2.162-.095-.5771-.069-1.1714-.086-1.7572-.052-1.7916-.121-3.5746-.675-5.2973-.008-.043.018-.0947.043-.1895.415-.2498.805-.0689 1.211.1206.329.1637.666.3273 1.012.4135.492.1292.838-.2154.665-.6977-.129-.3532-.363-.7063-.631-.9734-.242-.2497-.579-.1464-.89 0-.234.1034-.502.1809-.753.1809-.821-.0086-.804-.0344-1.037-.8096-.908-2.9975-1.773-6.0123-2.767-8.9839-.614-1.8261-1.453-3.5833-2.17-5.3749-.173-.4307-.242-.8958-.407-1.3351-.449-1.1886-.873-2.3945-1.392-3.5487-.475-1.0681-.977-2.1362-1.599-3.1181-.493-.7753-1.202-1.404-1.781-2.119-.32-.3962-.58-.8269-1.012-1.1283-.095-.0689-.138-.2584-.156-.3963-.095-.8527-.588-1.5073-1.132-2.093-.511-.5513-.9947-1.137-1.721-1.4729-.3113-.1379-.5188-.491-.7868-.7667-.6053.3101-1.0895.8528-1.9714.8183.4496-.5426 1.0635-.8269.9684-1.5073-.7868-.1809-1.2969.1722-1.3661.9475-.0346.3273.0519.7063-.441.8871-.0692-.1636-.147-.3014-.1902-.4479-.1902-.6374-.441-.7838-1.0116-.4823-.4756.2498-.8906.5943-1.3402.8786-.3286.2067-.6658.3962-1.003.5857-.2161.1206-.4323.2239-.6571.3187-.1211.0517-.2594.0603-.4323.0431.8905-.5944 1.6947-1.2404 1.7379-2.4635.1989.1378.3372.3101.4842.3273.1643.0086.3372-.1292.5879-.2326-.3199-.2842-.5533-.5082-.8127-.7149-.2248-.1809-.4496-.0861-.6831.0259-.5447.2584-.5706.2497-.8214-.2757-.147-.3187-.3718-.4134-.7003-.4307-.4064-.0172-.8042-.0602-1.3056-.1033.3026-.491.6917-.4996 1.0721-.4393.2853.0431.5707.1637.856.2239.2594.0603.5361.1465.7782-.2239-.3459-.2498-2.6718-.6805-2.6112-.4824-.0433.0345-.1038.0689-.1557.112-.5015.3446-1.0548.6374-1.4958 1.0422-.294.2671-.5793.448-.9424.5082-.3545.0517-1.1241.5772-1.3662.8528-.4928.5599-2.2653 1.4729-2.4642 1.6366z"/><path d="m78.2239 23.5467c-1.2537.9389-2.2567 2.0931-3.3029 3.2042-.0778.0862-.0692.2584-.1124.4307.147.0172.2507.0689.3199.0345.1902-.0948.3632-.2412.5534-.3532.3458-.2067.5361-.1206.6139.2756.0778.3618.1297.7236.2248 1.0767.0259.1034.1729.1637.3631.3273 0-.3187.0432-.5168.0087-.6977-.1211-.8269.1297-1.5332.6139-2.1964.4496-.6116.7176-1.3093.709-2.1103z"/><path d="m72.4211 22.2202c-1.1587.4824-1.176.491-1.4699 1.3179.4842.1722.8473-.112 1.2364-.2843.3977-.1809.83-.3014 1.2105-.5168.3458-.1981.8733-.155 1.0462-.7407-.7004-.0431-1.1154.5857-1.7379.5684-.0865-.1033-.1816-.2153-.2853-.3359z"/><path d="m81.2493 24.2963c.7263-.7322 1.3575-1.3782 2.0752-2.1104-.2335 0-.3372-.0172-.4151.0173-.4669.1809-.8819.4996-1.4266.4909-.1383 0-.3804.2843-.3891.4479-.0173.3446.0865.6977.1556 1.1543z"/><path d="m79.1309 27.466c.389-.0862.6398-.3015.8041-.6719.2248-.4737.4928-.9302.7436-1.3954.0173-.0258-.0346-.0861-.0519-.1292-.9598.2498-1.3921.87-1.4958 2.1879z"/><path d="m111.944 37.6558c.277-.8614.009-1.1801-1.037-1.3179-.156.8183.545.9389 1.037 1.3179z"/><path d="m58.0599 28.0693c-.7436.4135-1.0808 1.2145-.9684 2.2137.3545-.8097.6657-1.516.9684-2.2137z"/><path d="m51.471 33.125c.268-.3187.5015-.5427.6657-.8011.0692-.1119.0173-.3014.0173-.4651-.1729.0086-.3891-.0345-.5188.0431-.3458.2239-.3977.5685-.1556 1.2145z"/><path d="m72.1016 24.7527c.4669 0 1.4871-.5427 1.7725-.9216-.6744.1636-1.3229.31-1.7725.9216z"/><path d="m73.2245 38.5518c-.735.043-.9944.2153-1.1327.7666.5447 0 .8733-.2929 1.1327-.7666z"/><path d="m69.6367 24.0639c.026.0517.0605.1034.0865.1551.4409.0258.4582.043.6139-.1551.0691-.0861.0605-.2325.0864-.3531-.0432-.0345-.0778-.0689-.121-.1034-.2248.1551-.4496.3015-.6658.4565z"/><path d="m59.1236 26.7861c-.3891.1465-.5101.4135-.6744.8011.4583-.1464.735-.3015.6744-.8011z"/><path d="m84.0513 22.1859c.1124-.1465.2075-.2412.2593-.3532.0087-.0258-.1729-.1895-.2248-.1723-.1124.0431-.2161.1465-.268.2585-.0173.0344.1297.1464.2335.2756z"/><path d="m70.8044 40.0762c-.3372.0258-.5793.1809-.7263.5512.4496.0173.588-.267.7263-.5512z"/><path d="m70.6406 24.4342c.0346.0517.0692.0948.1038.1465.2248-.1551.4496-.3015.6658-.4566-.0346-.043-.0692-.0947-.0952-.1378-.2248.1551-.4496.3015-.6744.4565z"/><path d="m105.218 29.3178c-.121-.1034-.182-.1723-.251-.1981-.035-.0086-.147.0861-.138.1206.008.0775.051.1895.112.2153.043.0172.138-.0603.277-.1292z"/><path d="m75.422 29.043-.0778-.0948c-.0692.0776-.1383.1637-.268.3101.147-.043.1988-.0344.2334-.0603.0519-.043.0778-.1033.1211-.155z"/><path d="m75.4902 28.233s.0692-.0431.1124-.0689c-.0259-.0345-.0432-.0948-.0692-.0948-.0345 0-.0691.0345-.1037.0603.0259.0345.0519.0689.0692.1034z"/><path d="m79.8915 23.6681c-.0173-.0603-.0346-.0948-.0432-.1378-.0605.0258-.1297.0344-.1729.0775-.0173.0086.0345.0947.0518.1464.0606-.0258.1124-.0603.173-.0861z"/><path d="m103.436 66.4167c-.562.4737-.968.3704-1.349-.1981-.458-.6891-1.106-1.1456-1.876-1.4126-.069-.0259-.2248-.0173-.4323-.0259-.6658-.0344-.5448.4135-.7263.8097-.2335.4996-.7177 1.9208-1.0635 1.9553-1.271.1033-2.5334.3101-3.8217.0603-.588-.112-1.2105-.0431-1.859-.0603 0-.1637-.0519-.3101 0-.4221.4756-1.1542 1.1759-2.1275 2.1962-2.8683.8992-.646 1.8762-.5599 2.8879-.4048 1.6082.2498 3.1477.6977 4.5567 1.5246.501.2928.951.6546 1.496 1.0336zm-9.4677-1.0422c-.6139.9905-.1989 1.7485.4929 1.8605-.2162-.3273-.4756-1.6021-.4929-1.8605zm3.3807-.2843c-.0778-.0603-.1383-.1464-.1902-.1378-.0519 0-.1037.0861-.1556.1378.0692.0603.1297.1206.1989.1809.0432-.0517.0864-.112.1469-.1809z"/><path d="m76.9082 83.7473c1.4094-1.1197 4.0033-.7924 4.816.6547-.2767.1722-4.2972.2239-4.6863-.4135-.0519-.0775-.0865-.1636-.1297-.2412z"/><path d="m85.4688 83.7042c.9856.7063 2.2653.4823 2.9916-.4996-.3718-.4393-.8733-.4135-1.3402-.3101-.5966.1292-1.271.1809-1.6514.8097z"/><path d="m97.5996 55.5977h.3891c0 .0516 0 .0861.0086.1292l-.389.043c0-.0603 0-.1119 0-.1722z"/><path d="m95.1523 55.4947c.147-.0259.2854-.0431.4324-.0689 0 .0517.0173.0947.0173.1464l-.441.0259v-.0948z"/><path d="m99.2674 55.8737c-.1124.0172-.2248.0344-.3458.0517l-.0173-.1206c.1124-.0172.2334-.0259.3459-.0431 0 .0345.0086.0775.0172.112z"/><path d="m95.9315 56.0978c-.0778.0603-.1556.1292-.2507.1722-.0087 0-.0779-.0861-.1124-.1292.0864-.0603.1642-.1205.2507-.1808.0346.043.0778.0947.1124.1378z"/><path d="m72.0583 22.1089c.1038.1292.1989.2326.2854.3446.6311.0172 1.0462-.6116 1.7552-.5771-.173.5943-.709.5512-1.0635.7493-.3891.2154-.8214.336-1.2278.5255-.3978.1809-.7609.4651-1.2451.2928.3026-.8355.3199-.8441 1.4872-1.3265z"/><path d="m80.9895 24.2104c-.0691-.4652-.1815-.8183-.1556-1.1715.0086-.1636.2594-.4565.3977-.4565.5534.0086.9684-.3101 1.444-.491.0778-.0344.1815 0 .4236-.0172-.7349.7408-1.3661 1.3868-2.101 2.1276z"/><path d="m78.8457 27.4061c.1038-1.3351.5361-1.9639 1.5131-2.2137.0173.0431.0692.1033.0519.1292-.2508.4737-.5274.9302-.7522 1.4126-.173.3704-.4237.5857-.8128.6719z"/><path d="m112.012 37.716c-.501-.3877-1.21-.4996-1.055-1.3351 1.064.1464 1.341.4565 1.055 1.3351z"/><path d="m57.5412 28.0264c-.3113.7063-.6139 1.4126-.9771 2.2395-.1124-1.0078.2248-1.8175.9771-2.2395z"/><path d="m50.8826 33.134c-.2421-.6546-.1989-1.0078.1556-1.2317.1297-.0862.3459-.0345.5275-.0431 0 .155.0605.3531-.0173.4651-.1643.267-.3978.491-.6744.8097z"/><path d="m71.7383 24.6752c.4582-.6202 1.1067-.7666 1.7984-.9389-.294.3876-1.3229.9303-1.7984.9389z"/><path d="m72.8718 38.6123c-.2594.4824-.588.7666-1.1413.7752.1383-.5512.3977-.7321 1.1413-.7752z"/><path d="m69.2489 23.9692c.2248-.155.4496-.3015.6744-.4565.0432.0344.0778.0689.121.1034-.0259.1205-.0172.267-.0864.3531-.1643.1981-.1729.1809-.6226.1551-.0345-.0517-.0605-.1034-.0951-.1551z"/><path d="m58.6217 26.7256c.0605.5082-.2162.6546-.6744.8097.1642-.3963.2853-.6633.6744-.8097z"/><path d="m83.8177 22.0744c-.1124-.1206-.2594-.2412-.2421-.2757.0605-.1119.1643-.2153.2767-.2584.0519-.0172.2335.1465.2248.1723-.0519.1206-.147.2153-.2594.3618z"/><path d="m70.4244 40.1543c-.1383.2842-.2853.5685-.7349.5513.1556-.3704.389-.5255.7349-.5513z"/><path d="m70.2598 24.3481c.2248-.155.4496-.3015.683-.4565.0346.0431.0692.0948.0951.1378-.2248.1551-.4496.3101-.6744.4651-.0346-.0516-.0691-.0947-.1037-.1464z"/><path d="m105.209 29.2834c-.138.069-.233.1551-.285.1293-.061-.0259-.104-.1379-.121-.2154 0-.0344.112-.1292.138-.1206.078.0259.138.1034.259.2067z"/><path d="m75.0928 29.0078c-.0432.0517-.0778.112-.1211.1551-.0259.0258-.0864.0258-.2334.0603.1297-.1465.1988-.2326.2767-.3101l.0864.0947z"/><path d="m75.1629 28.1902s-.0519-.0689-.0691-.1034c.0345-.0258.0778-.0689.1124-.0603.0259 0 .0518.0603.0778.0948-.0346.0258-.0692.043-.1124.0689z"/><path d="m79.6072 23.5734c-.0519.0258-.1124.0603-.1729.0861-.0173-.0517-.0692-.1378-.0519-.1464.0432-.0431.121-.0517.1816-.0776.0086.0431.0259.0776.0432.1379z"/><path d="m57.1352 101.887c3.692 5.53 8.9663 9.923 15.1225 12.489 3.6661 1.534 7.6088 1.611 11.5256 1.404 3.9168-.206 7.678-.852 11.2835-2.205 3.6229-1.361 6.9692-3.385 9.7012-6.132.277-.276-.147-.707-.432-.431-5.1449 5.039-12.1744 7.451-19.2644 8.028-3.666.301-7.7039.448-11.2316-.724-3.0867-1.025-6.0092-2.705-8.6031-4.634-2.983-2.222-5.6461-4.935-7.799-7.967-.1211-.173-.4151-.009-.294.172z"/></g><path d="m116.431 75.0479c.398.9819.242 2.1016-.13 3.0922-.371.9906-.925 1.9036-1.348 2.8683-.735 1.671-1.072 3.5229-.969 5.349.026.5082.087 1.0164.009 1.516-.234 1.4471-1.332 3.1784-2.559 3.9967" fill="#fff2e3"/><path d="m116.319 75.0733c.32 1.8174-.251 3.187-1.055 4.7805-.631 1.2317-1.133 2.4893-1.375 3.8588-.112.6719-.181 1.3524-.181 2.0414 0 .7666.147 1.5332-.018 2.2912-.302 1.4127-1.236 2.7391-2.395 3.5919-.285.2067-.017.6977.286.4823 1.089-.7493 1.902-1.8863 2.377-3.1008.631-1.6108.147-3.3421.389-5.0131.268-1.8002 1.064-3.3162 1.807-4.9442.554-1.2231 1.055-2.7907.364-4.0569-.07-.1206-.234-.0345-.208.0861z" fill="#000"/><path d="m84.3872 98.9073c.268 1.2407-4.9025-.2842-5.6634-.4565-.5707-.1292-3.0781-1.4126-3.6142-1.6624-.8646-.3617-2.2394-.4134-2.421-.5168-.3545-.2067-.9078-1.3351-.3717-1.3092.1729.0086 1.1672.4823 1.7725.2928 1.6168-.5082 5.8535.5168 7.7817.3962.9684-.0603 2.0059.1551 4.4442-.3531.1816-.0431.0173.1292.2853.1206-.1642.3531-1.6168.646-1.8416.6632-1.15.0861-1.5131.1292-2.6631.1895-.441.0172-2.2394-.112-2.6804-.155-.709-.1292-4.1329-.603-4.107-.3274.2248.4824 3.1127 2.4204 9.0787 3.1181z" fill="#000"/><path d="m95.7823 95.6333c-.3372.0345-1.539-.3359-2.2999-.7063.7263-.7666 2.0665-.6288 2.2999.7063z" fill="#000"/><path d="m87.4746 95.151c.2853-.0344.5707-.0775.8473-.1119-.2161.3962-.4841.4995-.8127.3445l-.0346-.2239z" fill="#000"/><path d="m84.352 93.3079c-1.4699-.7408-3.1905-.5944-4.6085.1809-.7609.422-1.4093.9216-2.2913 1.0594-.8819.1378-4.3404.0172-5.1273.4049-.2593.1292-.0345.3531.2594.3703 2.2308.1292 5.1878-.0775 6.4502-1.0422.588-.4565 1.4872-.6374 2.2135-.8269.9857-.2584 2.0146-.155 2.9657.1723.1902.0689.3199-.2326.1383-.3273z" fill="#000"/><path d="m84.3268 93.5666c1.5822-1.1715 3.7352-.112 5.3521.4823 1.4871.5513 3.0694 1.1284 4.6863 1.0595.4064-.0172.3891-.5771 0-.6202-1.0722-.1292-2.0924-.2326-3.13-.5426-.83-.2498-1.6342-.5685-2.4556-.8356-1.4698-.4651-3.3893-1.0422-4.5998.2671-.0865.0947.0346.2756.147.1895z" fill="#000"/><path d="m85.433 95.9182c1.5477-.2842 2.983-.3445 4.548-.2928.709.0172 1.418.0344 2.127-.0173.6485-.0517 1.2969-.2756 1.9368-.3014.3026-.0173.3631-.4307.0691-.5255-.5101-.1722-1.3315.1723-1.8589.224-.856.0775-1.7207.0517-2.5853.0258-1.4699-.043-3.0176-.0603-4.3751.603-.121.0603-.0259.2239.0865.1981l.0432.0861z" fill="#000"/><path d="m93.9059 94.9363c-1.6688.646-2.9052 2.0242-4.5221 2.7736-1.8935.8699-3.7957.9044-5.8276 1.0939-.3718.0344-.3718.5513 0 .5771 1.8244.1378 3.813-.1981 5.4991-.8872 1.8849-.7752 3.2164-2.2912 4.9976-3.2215.1815-.0947.0518-.4048-.1384-.3273z" fill="#000"/><path d="m69.1352 56.701c.1481 0 .2681-.1195.2681-.267s-.12-.267-.2681-.267c-.148 0-.268.1195-.268.267s.12.267.268.267z" fill="#fff2e3"/><path d="m69.136 56.9504s0 0-.0087 0c-.1383 0-.268-.0603-.3631-.1636-.0951-.1034-.147-.2326-.147-.3704s.0605-.267.1643-.3618c.1037-.0947.2334-.1464.3718-.1464.2853 0 .5187.2498.5101.534 0 .2843-.2421.5082-.5188.5082zm0-.534s-.0173 0-.0173.0172c0 0 .0086.0173.0173.0173 0 0 .0173 0 .0173-.0173 0 0 0-.0172-.0173-.0172z" fill="#000"/><path d="m54.5576 65.8391c-.2507-3.1697 4.3319-4.0052 6.675-4.3584 2.5075-.379 5.0668-.4651 7.5915-.3618 2.7755.1034 5.5337.4652 8.2573 1.0337 1.2624.2584 3.1905.4479 3.3375 2.0586.1297 1.3523-.709 2.9372-1.2105 4.1689-.8646 2.1448-1.9541 4.3412-3.5796 6.0209-1.859 1.9208-5.1878 1.7313-7.7039 1.7916-2.7928.0689-5.5855-.4048-8.3437-.8355-.5361-.0862-1.2451-.0948-1.7466-.3015-.8646-.3531-1.3748-1.8174-1.6774-2.6616-.3977-1.0939-.6225-2.2481-.9165-3.3679-.4064-1.5676-.8646-3.0491-.5015-4.6685.0778-.3704-.4928-.4823-.5707-.1206-.2853 1.2662-.121 2.4893.1903 3.7383.3458 1.404.6657 2.8511 1.1153 4.2292.4497 1.3782 1.0203 3.187 2.6199 3.4971 3.4585.6719 7.1073 1.2059 10.635 1.0423 2.6804-.1206 5.551 0 7.4791-2.1104 1.9195-2.1103 3.1213-4.7805 4.0811-7.4334.6485-1.7916 1.4439-4.2034-.8733-5.0992-1.2969-.4996-2.7928-.6719-4.1589-.9044-1.6514-.2757-3.3202-.4824-4.9889-.5944-3.571-.2498-7.2976-.1981-10.808.6116-2.3518.5426-5.7152 1.6796-5.4818 4.6599.026.3704.6139.3359.588-.0345z" fill="#000"/><path d="m98.0068 66.8469-.2248.0431c-.3372.0689-.2421.5599.0778.5685 1.7553.0603 3.4582-.1723 5.1362-.7149.354-.112.207-.6805-.156-.5599-1.625.5254-3.2768.758-4.9802.6977l.0779.5685.2248-.0431c.3718-.0689.2161-.6374-.1557-.5599z" fill="#000"/><path d="m86.4622 68.9486c.4237 2.9889 1.2624 5.9692 2.8447 8.5705.6744 1.1025 1.9281 2.1533 2.0405 3.4971.1643 2.0327-1.3402 3.6607-3.3288 3.9708-.294.0431-.2508.4737 0 .5426 1.0029.2843 2.7754-1.0164 3.3202-1.8174.7608-1.137.8905-2.8425.2248-4.0398-.3978-.7149-.9598-1.3178-1.4267-1.9811-.5966-.8441-1.0808-1.783-1.5131-2.7218-.9079-1.9467-1.4353-4.0053-1.98-6.064-.0346-.1205-.1989-.0689-.1816.0517z" fill="#000"/><path d="m77.6779 72.1016c-.3286 1.8777-1.2451 3.8502-2.421 5.3576-1.0116 1.2834-2.1789 2.4979-2.153 4.2378.0433 2.7994 2.006 4.8322 4.8593 4.4446.3718-.0517.3718-.6288 0-.5857-1.6255.2153-3.0608-.267-3.8044-1.8088-.5274-1.1026-.6571-2.4291-.147-3.5574.6571-1.4557 1.9714-2.5152 2.7236-3.9364.6571-1.2404 1.271-2.6185 1.5045-4.0053.0605-.3704-.5015-.5254-.562-.155z" fill="#000"/><path d="m86.9303 69.1814c-.3199-.87-.6398-1.74-.9165-2.6186-.3372-1.0766-.6831-1.9552.3891-2.7649 1.5563-1.1714 3.9687-1.5849 5.8449-1.8433 4.2367-.5857 8.6032-.1292 12.8222.379 2.162.2584 6.053.7925 5.197 3.8072-.554 1.9466-1.764 3.9277-2.715 5.7107-.441.8269-.873 1.6625-1.375 2.4549-.804 1.2748-1.876 1.559-3.286 1.7141-2.031.2239-4.0892.1895-6.1384.2153-1.2192.0173-2.4383.0345-3.6661.0431s-2.8101.1292-3.692-.9819c-.6312-.7925-.9078-2.0845-1.2969-3.0062-.4324-1.025-.8301-2.0586-1.1759-3.1181-.1124-.3531-.6658-.155-.5534.1982.3891 1.1886.8387 2.3428 1.3315 3.497.4237.9992.6745 2.2654 1.4613 3.0578 1.3315 1.3351 3.7438.9389 5.4299.9131 2.9225-.0345 5.923.1119 8.828-.3015 2.136-.3015 2.94-1.3523 3.943-3.1439.674-1.2145 1.323-2.4463 1.928-3.7038.605-1.2576 1.34-2.498 1.66-3.79.467-1.9208-1.141-3.0406-2.784-3.5574-2.525-.801-5.361-.8786-7.989-1.0767-2.629-.1981-5.1883-.267-7.7563.0603-1.4353.1895-2.8619.491-4.228.9734-.9338.3273-2.0233.7149-2.6804 1.4987-.4323.5254-.5447 1.0078-.4237 1.6452.2508 1.3351.8041 2.653 1.2797 3.9278.1297.3531.6831.155.5534-.1982z" fill="#000"/><path d="m73.7883 67.0284c-.0433-.1206-.1124-.2326-.1816-.3446-.5274-.8441-1.3402-1.3867-2.1789-1.8519-.3631-.2067-.8387-.2928-1.2624-.2928-1.1067.0086-2.1788.2067-3.225.5857-1.8677.6804-3.5364 1.7571-5.3089 2.6271-.2075.1034-.3545.3015-.5534.4738.2421.5168.562.3703.9598.3014.9338-.155 1.8849-.2498 2.8273-.2584.9944-.0086 1.5304.0603 2.3259-.0258.6917-.0775 1.4699.2153 1.5563.2239.7436.0259.5707.0776 1.3056-.0086 1.1068-.1378 2.1962-.4048 3.2857-.6374.4409-.0947.5966-.379.4582-.7752zm-9.8309.4306c0-.6977 1.9973-1.18 2.3864-1.3695.2421.491.5274 1.4815.8473 1.8519-1.0289.2153-3.2424.0172-3.2337-.4824zm4.0551-1.0594c0 .3015 0 .6632-.3026.6632s-.2421-.4823-.2421-.7838.2421-.5427.5447-.5427 0 .3618 0 .6633zm4.2367.9647c-.2161.0689-.4496.112-.8473.2067.1643-.5943.2767-1.0164.4409-1.6193.2594.422.441.7063.5966.9991.0951.1809 0 .3532-.1902.4135z" fill="#000"/><path d="m53.5119 92.8344c-1.1932-3.8674-2.5939-7.2612-2.5939-7.2612" stroke="#000" stroke-miterlimit="10" stroke-width=".3"/></g></g></svg>