<svg width="163" height="163" viewBox="0 0 163 163" fill="none" xmlns="http://www.w3.org/2000/svg">
<g clip-path="url(#clip0_5795_5015)">
<circle cx="81.5" cy="81.5" r="81.5" fill="#FFDEB5"/>
<g clip-path="url(#clip1_5795_5015)">
<path d="M113.898 133.671C119.086 143.766 98.7756 155.636 81.2494 155.214C63.7233 154.792 50.0966 145.575 50.3733 134.231C50.4597 130.743 53.2352 125.842 55.6476 122.922C61.0775 116.341 70.3982 113.567 83.7569 115.144C100.868 117.159 108.797 123.723 113.907 133.663L113.898 133.671Z" fill="#6DD5C8"/>
<path d="M50.9095 131.026C39.2369 133.825 27.8324 137.744 16.912 142.714C16.1079 143.076 15.2865 143.464 14.7072 144.118C14.0242 144.885 13.7475 145.927 13.4881 146.926C10.2544 159.64 7.00332 172.457 6.32026 185.549C6.27703 186.428 6.25973 187.393 6.78716 188.099C7.59127 189.184 9.1995 189.15 10.5483 189.038C38.3377 186.609 66.2222 191.467 94.124 191.613C109.255 191.699 124.447 190.399 139.474 192.165C144.204 192.716 148.916 193.577 153.689 193.663C154.268 193.672 154.891 193.663 155.358 193.327C155.92 192.931 156.11 192.19 156.231 191.51C158.574 178.443 150.732 166.014 146.962 153.283C145.518 148.417 144.671 143.378 144.42 138.313C145.146 139.415 144.359 136.995 144.42 138.313C143.59 137.055 140.036 135.565 138.61 135.074C128.891 131.706 122.078 132.171 112.039 129.958L105.062 122.369C106.402 124.393 110.682 127.942 112.039 129.958C112.359 130.431 111.961 132.49 111.443 135.35C111.131 137.047 107.552 142.043 105.304 144.024C100.54 148.21 94.3056 149.726 87.9765 150.268C81.6473 150.811 71.583 150.217 65.0982 147.262C58.9074 144.446 53.9617 139.217 50.9787 133.128C50.7193 132.593 50.4686 132.034 50.4859 131.439C50.5118 130.828 50.8144 130.276 51.117 129.751C52.7598 126.917 54.5669 124.178 56.5383 121.56L50.9009 131.017L50.9095 131.026Z" fill="#C59D7B"/>
<path d="M50.7618 130.699C39.0806 133.309 27.7971 137.461 16.9113 142.405C15.8997 142.861 14.8708 143.352 14.2136 144.282C13.4873 145.307 13.2625 146.617 12.9599 147.814C12.199 150.786 11.4468 153.757 10.7291 156.738C9.26791 162.793 7.95366 168.891 7.06309 175.067C6.63942 178.013 6.30221 180.967 6.10334 183.939C5.95635 186.049 5.60185 188.788 8.27358 189.331C9.45813 189.572 10.6946 189.366 11.8791 189.271C13.4268 189.15 14.9745 189.047 16.5309 188.969C19.6868 188.806 22.8427 188.72 26.0073 188.711C38.6223 188.642 51.22 189.624 63.7918 190.52C76.3464 191.416 88.8836 192.131 101.473 191.924C114.079 191.717 126.746 191.045 139.318 192.501C142.456 192.863 145.578 193.371 148.725 193.69C150.264 193.853 151.812 193.974 153.359 194.008C154.354 194.034 155.417 194.017 156.031 193.112C156.645 192.208 156.68 190.976 156.801 189.951C156.956 188.625 157.017 187.29 156.991 185.946C156.93 183.293 156.533 180.666 155.927 178.082C154.639 172.604 152.469 167.392 150.446 162.155C148.345 156.72 146.468 151.242 145.526 145.48C145.266 143.912 145.068 142.336 144.929 140.751C144.86 140.001 144.8 139.244 144.774 138.494C144.774 138.494 144.782 138.21 144.765 138.184V138.132C144.791 137.934 144.635 137.951 144.298 138.175C144.298 138.175 144.419 138.46 144.402 138.46C144.566 138.511 143.918 138.804 144.618 138.425C144.973 138.236 144.782 138.374 144.713 138.167C144.679 138.055 144.514 137.908 144.445 137.831C144.168 137.529 143.831 137.288 143.503 137.056C142.664 136.487 141.739 136.031 140.814 135.617C136.266 133.593 131.251 132.611 126.34 131.913C123.806 131.552 121.264 131.259 118.731 130.88C117.304 130.664 115.886 130.432 114.477 130.165C113.776 130.027 112.687 130.018 112.134 129.614C111.805 129.372 111.528 128.959 111.26 128.666L109.894 127.185C108.874 126.073 107.854 124.962 106.833 123.851C106.315 123.291 105.804 122.731 105.286 122.172C105.052 121.913 104.603 122.249 104.802 122.542C106.323 124.799 108.571 126.547 110.422 128.52C110.828 128.959 111.243 129.398 111.598 129.881C111.9 130.294 111.857 130.682 111.814 131.181C111.745 131.991 111.589 132.792 111.451 133.584C111.321 134.325 111.252 135.118 110.984 135.824C110.551 136.944 109.834 137.995 109.159 138.976C108.321 140.2 107.413 141.38 106.418 142.482C104.136 145.023 101.127 146.815 97.9277 147.969C91.6245 150.252 84.5518 150.51 77.9286 149.924C74.5306 149.623 71.1153 149.063 67.8643 148.012C64.57 146.944 61.5265 145.187 58.9066 142.93C55.9755 140.415 53.5546 137.331 51.7475 133.92C51.1336 132.766 50.511 131.974 51.1595 130.69C51.6696 129.691 55.5086 123.696 56.8315 121.724C57.0736 121.37 56.7105 121.414 56.4338 121.706C54.8688 123.395 53.9091 124.661 52.7245 126.539C52.1625 127.434 51.3757 128.666 50.8569 129.588C50.4592 130.285 50.1047 131 50.1998 131.819C50.2949 132.637 50.7964 133.481 51.1941 134.23C51.6524 135.092 52.1452 135.927 52.6726 136.737C53.6497 138.236 54.7564 139.657 55.9842 140.975C58.457 143.636 61.4141 145.876 64.717 147.418C68.0199 148.96 71.3574 149.666 74.8073 150.148C81.6898 151.104 89.0046 151.096 95.7488 149.278C99.3197 148.314 102.761 146.711 105.536 144.239C107.681 142.336 109.531 139.821 110.932 137.331C111.71 135.953 111.926 134.592 112.186 133.033C112.384 131.862 112.825 130.432 112.047 129.415C110.059 126.806 107.188 124.928 105.338 122.206L104.853 122.576C106.41 124.265 107.966 125.953 109.522 127.65C110.24 128.434 110.923 129.347 111.727 130.044C112.203 130.458 112.946 130.458 113.552 130.578C114.987 130.863 116.422 131.112 117.866 131.336C123.002 132.129 128.181 132.594 133.239 133.826C135.634 134.411 138.029 135.092 140.295 136.074C141.263 136.496 142.223 136.952 143.096 137.538C143.433 137.762 143.779 138.012 144.047 138.322C144.194 138.494 144.341 138.821 144.575 138.899C145.405 139.166 145.102 137.4 144.41 137.581C143.805 137.745 144.168 139.261 144.186 139.597C144.281 141.027 144.428 142.448 144.627 143.869C145.431 149.752 147.169 155.377 149.278 160.915C151.267 166.126 153.472 171.286 154.916 176.686C155.625 179.331 156.144 182.044 156.299 184.783C156.377 186.161 156.368 187.539 156.256 188.918C156.195 189.607 156.118 190.296 156.005 190.985C155.902 191.614 155.815 192.484 155.314 192.94C154.726 193.474 153.757 193.336 153.031 193.311C152.253 193.285 151.483 193.242 150.714 193.181C149.166 193.061 147.627 192.888 146.088 192.69C142.949 192.286 139.819 191.82 136.672 191.528C130.421 190.95 124.135 190.847 117.858 190.907C111.511 190.968 105.165 191.2 98.8182 191.261C92.5323 191.321 86.2551 191.166 79.9778 190.847C67.4147 190.218 54.8947 189.047 42.3316 188.427C36.0716 188.117 29.803 187.944 23.5344 188.048C20.3785 188.099 17.2139 188.22 14.058 188.427C12.5881 188.521 11.1182 188.72 9.64835 188.754C8.14388 188.78 6.79505 188.306 6.65671 186.609C6.54431 185.188 6.76911 183.681 6.88151 182.268C7.01121 180.743 7.16684 179.227 7.35706 177.711C7.74615 174.542 8.26493 171.389 8.86153 168.254C10.0201 162.181 11.4814 156.169 12.9945 150.174C13.349 148.779 13.643 147.357 14.0753 145.997C14.5595 144.455 15.5365 143.671 16.9632 143.016C19.73 141.741 22.5314 140.553 25.3588 139.424C30.9789 137.176 36.7115 135.204 42.5218 133.49C45.3232 132.663 48.1419 131.888 50.9693 131.164C51.1595 131.112 50.9693 130.647 50.7791 130.69L50.7618 130.699Z" fill="black"/>
<path d="M105.389 122.189C104.61 121.465 103.642 121.19 102.613 121C101.169 120.725 99.7167 120.501 98.2641 120.285C95.4194 119.872 92.5488 119.544 89.6782 119.32C83.7728 118.855 77.8327 118.795 71.9186 119.097C68.9616 119.243 66.0045 119.493 63.0561 119.82C60.8167 120.07 58.1623 120.113 56.4071 121.724C53.4759 124.411 54.5221 128.838 56.0526 131.931C59.7013 139.33 67.2755 143.998 75.3426 145.144C79.1556 145.686 83.0638 145.721 86.9028 145.437C90.4824 145.17 93.7766 143.972 97.019 142.465C99.2065 141.449 100.988 139.984 102.509 138.115C103.668 136.703 104.861 135.083 105.458 133.343C105.968 131.836 106.219 130.217 106.366 128.64C106.513 127.064 106.591 125.272 106.141 123.688C105.985 123.136 105.76 122.619 105.371 122.197C105.095 121.896 104.645 122.344 104.922 122.645C105.847 123.662 105.838 125.436 105.83 126.711C105.821 128.399 105.613 130.087 105.242 131.733C104.904 133.205 104.334 134.394 103.512 135.669C102.25 137.624 100.676 139.502 98.731 140.82C96.7942 142.129 94.4164 142.999 92.2116 143.74C90.906 144.179 89.5745 144.532 88.1997 144.687C85.0179 145.04 81.7668 145.066 78.5763 144.851C74.4261 144.575 70.5611 143.645 66.8432 141.776C63.4884 140.088 60.5141 137.736 58.3698 134.635C56.2255 131.534 54.2195 127.133 55.577 123.498C56.4762 121.086 58.7329 121 61.0934 120.699C63.7046 120.371 66.3244 120.113 68.9529 119.923C74.9708 119.493 81.0146 119.432 87.0411 119.786C90.1019 119.967 93.1627 120.251 96.2062 120.647C97.8058 120.854 99.4054 121.095 101.005 121.371C102.319 121.594 103.893 121.698 104.913 122.645C105.216 122.921 105.665 122.473 105.363 122.197L105.389 122.189Z" fill="black"/>
<path d="M113.837 83.5231C111.84 89.0099 111.433 92.1711 110.456 91.8265C109.479 91.482 108.321 87.7437 110.309 82.2569C112.307 76.7701 115.048 73.5659 116.025 73.919C117.002 74.2722 115.826 78.0363 113.837 83.5317V83.5231Z" fill="#FFF2E3"/>
<path d="M117.39 58.1826C117.321 56.2273 117.079 54.2376 116.56 52.3512C115.86 49.8102 115.453 47.2779 115.488 44.668C115.488 44.0564 115.384 43.3845 115.099 42.8419C114.373 41.4723 113.629 40.0856 112.695 38.8366C111.13 36.7263 109.833 34.3662 107.378 32.9708C106.435 32.4368 105.467 31.9458 104.524 31.4118C102.527 30.2748 100.608 29 98.2471 28.5521C97.3306 28.3798 96.2671 28.242 95.5927 27.7166C94.2612 26.6743 92.7654 26.4245 91.1658 26.2781C90.5432 26.2264 89.8169 26.3039 89.3241 26.0283C87.958 25.2617 86.5486 24.6674 85.0874 24.073C81.2398 22.514 77.4267 22.669 73.6223 23.7888C72.04 24.2539 70.3886 24.4262 68.8236 25.1928C67.4748 25.856 65.659 25.6493 64.0508 25.856C63.5493 25.9163 62.9873 25.9508 62.5896 26.2006C61.6212 26.8035 60.7392 27.5357 59.7881 28.1817C59.5547 28.3367 59.2261 28.3712 58.9494 28.4573C59.0705 28.6296 59.2002 28.7932 59.3212 28.9655C59.9438 28.8966 60.5663 28.8277 61.1889 28.7588C60.4193 29.3962 59.5979 30.1025 58.7938 30.0853C57.4882 30.0594 56.8311 30.8002 56.0183 31.4376C55.7935 31.6185 55.5428 31.7649 55.2834 31.9113C51.8594 33.8752 49.1185 36.4765 47.1904 39.8099C45.3055 43.0658 44.1642 46.5715 43.3082 50.1892C42.1669 54.987 42.1669 58.8889 43.8356 63.7814C44.3976 65.4179 43.118 68.2001 43.0574 70.0262C42.9969 71.6627 41.821 73.1184 42.2966 74.9014C42.9364 77.3132 44.5792 79.4149 46.3258 81.2065C46.6976 81.5855 47.199 81.9731 47.3201 82.4296C47.8648 84.428 48.3749 86.4435 48.7294 88.4763C48.9975 90.0267 50.5192 91.7667 51.9718 91.5944C53.165 91.448 53.338 91.9906 53.5282 92.8347C54.2112 95.9528 55.2229 98.959 57.0213 101.689C57.2893 102.094 57.5314 102.585 57.5747 103.05C58.0589 108.589 58.6036 114.127 57.8687 119.683C57.6698 121.216 57.4709 122.749 57.2202 124.231C56.7273 127.237 55.2834 126.953 55.1105 127.306C54.7473 128.055 55.7503 130.269 56.6409 131.733C59.2348 135.988 62.2869 139.865 66.8522 141.923C73.6396 144.981 80.0033 145.532 87.5516 144.697C96.9415 143.655 104.862 138.349 105.891 130.209C106.159 128.081 105.7 124.705 104.853 124.24C102.527 122.965 101.732 118.882 101.498 116.978C100.893 112.112 101.014 110.191 101.472 109.846C106.28 106.289 108.424 103.154 109.366 100.285C111.312 94.3852 111.441 92.0165 113.344 79.5958C113.439 78.9842 114.234 76.5552 114.494 76.0125C115.168 74.6344 115.765 74.3415 116.041 73.9109C117.183 72.1537 116.465 70.8789 116.698 68.8289C116.785 68.0364 117.243 67.2784 117.278 66.4946C117.399 63.7297 117.52 60.9475 117.416 58.1826H117.39Z" fill="#FFF2E3"/>
<path d="M81.5946 145.291C76.1214 145.291 71.461 144.283 66.7228 142.147C61.7944 139.925 58.6298 136.221 56.2953 132.388C56.2089 132.25 54.2894 128.374 54.86 127.194C54.9465 127.022 55.1108 126.953 55.301 126.867C55.7506 126.677 56.5893 126.333 56.9438 124.188C57.1686 122.801 57.3675 121.345 57.549 119.941L57.5836 119.648C58.284 114.386 57.8084 109.028 57.3588 103.86L57.2897 103.076C57.2551 102.723 57.0821 102.292 56.7795 101.827C55.1799 99.3895 54.0559 96.5557 53.2518 92.8949C53.0702 92.0852 52.9578 91.7407 51.9808 91.8527C50.3899 92.0422 48.7557 90.1903 48.4617 88.5279C48.0899 86.4003 47.5452 84.29 47.061 82.507C46.9832 82.2141 46.6806 81.9299 46.3866 81.6457C46.3001 81.5595 46.2137 81.4734 46.1272 81.3959C43.8878 79.1047 42.5908 77.0633 42.0375 74.9788C41.7349 73.8418 42.0548 72.8426 42.3747 71.8779C42.5822 71.2491 42.7724 70.6548 42.7984 70.026C42.8243 69.3025 43.0318 68.4584 43.248 67.5626C43.5765 66.2102 43.9137 64.8062 43.5938 63.876C42.0029 59.2247 41.8473 55.2452 43.0577 50.146C44.078 45.8737 45.3144 42.5575 46.9659 39.6978C48.8508 36.4333 51.609 33.7459 55.154 31.7045C55.4134 31.5581 55.6468 31.4202 55.8544 31.2566C55.9754 31.1618 56.0965 31.0585 56.2175 30.9637C56.8919 30.4038 57.5923 29.8267 58.7941 29.844H58.8114C59.3043 29.844 59.8317 29.5167 60.3591 29.1118L59.2005 29.241L58.5347 28.328L58.8719 28.2246C58.967 28.1988 59.0622 28.1729 59.1659 28.1471C59.3475 28.104 59.5291 28.061 59.6501 27.9834C60.0219 27.725 60.3937 27.4494 60.7482 27.191C61.2929 26.7862 61.8636 26.3641 62.4515 26.0023C62.8406 25.7612 63.3507 25.7009 63.809 25.6492C63.8782 25.6492 63.9473 25.632 64.0165 25.6233C64.5439 25.5544 65.0887 25.5286 65.6247 25.5114C66.7661 25.4597 67.8382 25.4166 68.7115 24.9859C69.775 24.4691 70.8731 24.2107 71.9452 23.9695C72.4727 23.849 73.026 23.7198 73.5448 23.5647C77.7988 22.3071 81.6032 22.4019 85.1828 23.8576C86.6354 24.4519 88.062 25.0462 89.4455 25.8215C89.7481 25.9937 90.1977 26.0023 90.6387 26.0196C90.8202 26.0196 91.0104 26.0282 91.192 26.0454C92.636 26.1746 94.3047 26.4072 95.7487 27.5355C96.2847 27.9576 97.1234 28.104 97.9362 28.2591C98.0572 28.2849 98.1783 28.3021 98.2907 28.328C100.34 28.7156 102.069 29.7234 103.747 30.6967C104.049 30.869 104.343 31.0412 104.646 31.2135C105.104 31.4719 105.58 31.7217 106.029 31.9715C106.513 32.2299 107.015 32.4969 107.499 32.7726C109.522 33.9268 110.785 35.727 112.012 37.4669C112.298 37.8804 112.6 38.3024 112.894 38.7073C113.828 39.9648 114.572 41.3344 115.315 42.747C115.592 43.2724 115.739 43.9615 115.73 44.6937C115.696 47.1141 116.042 49.6034 116.794 52.308C117.278 54.0566 117.555 55.986 117.633 58.1997C117.736 60.9388 117.615 63.7123 117.503 66.4083V66.5375C117.477 66.9941 117.33 67.4247 117.192 67.8468C117.071 68.2086 116.958 68.5445 116.915 68.889C116.837 69.5781 116.872 70.1725 116.898 70.7409C116.958 71.8349 117.01 72.8599 116.223 74.083C116.119 74.238 115.99 74.3672 115.843 74.5223C115.54 74.8324 115.134 75.2458 114.684 76.1588C114.433 76.6757 113.647 79.0702 113.552 79.6732C113.232 81.7835 112.955 83.6009 112.721 85.1944C111.546 93.093 111.191 95.479 109.566 100.397C108.442 103.8 105.908 106.883 101.576 110.079C101.377 110.225 100.988 111.199 101.697 116.978C101.905 118.684 102.648 122.801 104.922 124.05C105.96 124.618 106.349 128.219 106.09 130.269C105.597 134.205 103.478 137.694 99.9594 140.338C96.6479 142.836 92.3506 144.438 87.526 144.972C85.4163 145.205 83.4449 145.325 81.5686 145.325L81.5946 145.291ZM55.3096 127.418C55.0762 127.952 55.6555 130.26 56.7363 132.035C59.0362 135.807 61.7079 138.943 66.939 141.682C73.0347 144.877 79.3897 145.429 87.526 144.524C92.1864 144.008 96.4922 142.302 99.6827 139.899C103.089 137.332 105.139 133.973 105.614 130.166C105.882 128.021 105.372 124.817 104.706 124.455C102.225 123.094 101.438 118.787 101.222 117.004C100.487 111.069 100.876 109.95 101.3 109.64C105.536 106.504 108.018 103.507 109.107 100.199C110.716 95.3239 111.07 92.9466 112.237 85.0824C112.479 83.4889 112.747 81.6629 113.067 79.5526C113.162 78.9152 113.975 76.4517 114.243 75.9004C114.719 74.9185 115.168 74.462 115.488 74.1347C115.627 73.9969 115.73 73.8849 115.8 73.7729C116.5 72.6876 116.457 71.8262 116.396 70.7323C116.362 70.1638 116.327 69.5264 116.413 68.7943C116.457 68.3981 116.586 68.0191 116.707 67.6487C116.846 67.2439 116.975 66.8562 116.993 66.4773V66.3481C117.114 63.6692 117.235 60.8957 117.131 58.1824C117.053 56.0377 116.777 54.0996 116.31 52.4114C115.549 49.6637 115.194 47.1227 115.229 44.6592C115.238 44.0132 115.108 43.4103 114.874 42.9537C114.139 41.5583 113.405 40.206 112.497 38.9743C112.194 38.5608 111.891 38.1388 111.606 37.7253C110.422 36.0285 109.185 34.2799 107.266 33.1774C106.79 32.9018 106.289 32.6347 105.813 32.385C105.355 32.1352 104.879 31.8854 104.412 31.6183C104.11 31.4461 103.807 31.2738 103.513 31.1015C101.87 30.1454 100.176 29.1635 98.2129 28.7931C98.1005 28.7673 97.9794 28.75 97.8584 28.7242C97.0283 28.5778 96.0859 28.4055 95.446 27.9059C94.2355 26.967 92.904 26.6742 91.1574 26.5191C90.9932 26.5019 90.8202 26.5019 90.6387 26.4933C90.1372 26.4761 89.627 26.4675 89.212 26.2349C87.8545 25.4683 86.4452 24.8826 85.0099 24.2969C81.5427 22.8929 77.8507 22.7981 73.7091 24.0212C73.1644 24.1849 72.611 24.3055 72.0749 24.4347C71.0374 24.6759 69.9566 24.917 68.9536 25.4166C67.9852 25.8904 66.8093 25.942 65.668 25.9937C65.1492 26.0196 64.6045 26.0368 64.103 26.1057C64.0338 26.1143 63.956 26.1229 63.8868 26.1315C63.4718 26.1832 63.0395 26.2349 62.7455 26.4158C62.1662 26.7689 61.6128 27.1824 61.0768 27.5872C60.7136 27.8542 60.3418 28.1299 59.9614 28.3969C59.7884 28.5175 59.5982 28.5692 59.3994 28.6208L59.4599 28.707L62.0192 28.4313L61.2843 29.0429C60.4974 29.6975 59.6847 30.378 58.8028 30.3608C57.7998 30.3435 57.2205 30.8173 56.5547 31.3599C56.4337 31.4633 56.3126 31.5581 56.1829 31.6614C55.9495 31.8423 55.6987 31.9887 55.422 32.1524C51.9548 34.1507 49.2572 36.7692 47.4155 39.9562C45.79 42.7729 44.5622 46.046 43.5592 50.2666C42.3574 55.3227 42.5044 59.0955 44.078 63.7123C44.4498 64.789 44.0867 66.2619 43.7408 67.6831C43.5333 68.5531 43.3344 69.3714 43.3085 70.0432C43.2826 70.7323 43.0664 71.3956 42.8675 72.0244C42.5649 72.9632 42.2796 73.8418 42.539 74.841C43.0664 76.8307 44.3288 78.8032 46.5076 81.0341C46.5855 81.1116 46.6719 81.1978 46.7584 81.2753C47.1042 81.6026 47.4587 81.9385 47.5711 82.3692C48.0553 84.1694 48.6087 86.2883 48.9805 88.4331C49.2312 89.8716 50.6493 91.4909 51.9376 91.3445C53.3037 91.1808 53.5717 91.8613 53.7706 92.7743C54.5661 96.3748 55.6555 99.1569 57.2205 101.543C57.575 102.077 57.7738 102.577 57.8084 103.024L57.8776 103.808C58.3359 109.011 58.8028 114.394 58.1024 119.709L58.0678 120.002C57.8776 121.414 57.6874 122.87 57.4626 124.265C57.0648 126.686 56.0532 127.108 55.5171 127.332C55.448 127.358 55.3615 127.401 55.3269 127.418H55.3096Z" fill="black"/>
<path d="M58.4668 59.7754C59.0202 59.0691 58.51 58.6643 60.0491 57.9321C60.075 57.8029 61.0693 57.2 61.519 57.0708C61.908 56.9588 62.2712 56.7607 62.6516 56.6057C62.8332 56.5281 65.5914 55.9338 66.75 55.5548C67.4504 55.3309 68.1421 55.3911 68.8338 55.6409C69.733 55.9596 70.2691 56.0113 71.0732 56.554C71.2461 56.6746 71.8514 56.933 72.0589 56.9933C72.5777 57.1311 73.7709 57.6393 73.6671 58.1733C73.572 58.6471 73.6671 58.492 72.9062 59.25C72.8284 59.5256 72.5777 59.2242 69.612 59.2242C68.8943 59.2242 68.2631 59.3792 67.5887 59.3361C66.9056 59.2931 65.2542 59.3275 65.1072 59.3103C63.8967 59.1983 62.6949 59.2672 61.4757 59.3448C60.5419 59.405 59.6254 59.4395 58.7521 59.784C58.6916 59.8099 58.6138 59.784 58.4668 59.784V59.7754ZM69.3439 56.3128C69.3526 56.2611 69.3699 56.2094 69.3785 56.1577C69.2747 56.1405 69.1623 56.1147 69.0586 56.0975C69.0499 56.1319 69.0413 56.175 69.0326 56.2094C69.1364 56.2439 69.2402 56.2783 69.3526 56.3128H69.3439Z" fill="black"/>
<path d="M93.5268 104.755C94.8756 104.428 95.0918 105.901 95.0745 106.978C95.0745 107.253 94.5297 107.632 94.1407 107.744C93.8726 107.822 93.3279 107.581 93.0945 107.348C92.2558 106.521 92.1088 105.1 93.5268 104.755Z" fill="black"/>
<path d="M90.4227 57.407C91.9358 57.5706 93.4749 57.4845 94.962 57.1486C93.4403 57.5448 91.8753 57.7429 90.3017 57.7429C92.2384 57.4414 94.1752 57.14 96.1207 56.8299C94.3741 57.2692 92.4546 57.6826 90.8291 56.9074C92.3076 55.8651 94.3136 55.6154 96.0083 56.2528C94.7199 57.0021 93.1204 57.2002 91.6851 56.7954C93.0771 56.5026 94.5384 56.5542 95.9045 56.9418C94.962 57.3208 93.8812 57.3381 92.9302 56.9763C94.1061 56.6834 95.3511 56.6576 96.5443 56.8988C95.7143 56.9677 94.8669 56.8471 94.0888 56.5456C94.8842 56.2183 95.8267 56.2528 96.5876 56.6576C95.671 56.7954 94.7286 56.7265 93.8467 56.4509C94.7286 56.2958 95.6278 56.27 96.5097 56.3733C94.6162 56.2872 92.714 56.4767 90.881 56.9332C91.0625 57.0107 91.296 56.9505 91.4257 56.804C91.1836 56.5026 94.9188 55.4603 90.3968 56.7954C90.025 56.9074 90.2411 57.6137 90.5783 57.8032C90.6734 57.6223 90.7945 56.5887 90.6043 56.6748C90.4141 56.761 89.7051 57.8463 89.6445 58.0444C90.4227 58.3372 91.5121 58.0616 92.3076 57.7946C94.7199 56.9849 97.2274 56.1063 99.7521 56.4681C99.5187 56.3906 99.242 56.4939 99.1209 56.7093C100.513 57.3984 103.479 58.1391 105.026 58.3028C103.254 57.674 99.951 56.9505 98.0747 56.7782C99.2506 56.7351 100.444 56.8988 101.559 57.2692C99.6657 57.1141 97.7635 56.9591 95.8699 56.804C97.115 56.5542 98.3514 56.2958 99.5965 56.046C98.0834 56.1408 96.0428 56.1752 94.5557 55.9341C95.8958 55.9599 97.7635 55.8824 99.1036 55.9082C98.0056 55.8049 96.8988 55.8565 95.818 56.046C97.1582 55.7446 98.5416 55.4517 99.9078 55.6154C101.274 55.779 104.378 56.7782 105.035 58.3028C103.92 58.053 101.136 56.9246 100.21 56.2614C101.127 56.6748 101.983 57.2261 102.744 57.8721C101.698 57.1227 99.9769 56.425 99.0172 55.5723C99.7175 55.6326 101.101 55.7446 101.706 56.0891C99.7089 56.1063 97.7202 56.0805 95.7229 56.003C97.1409 55.9513 98.5676 56.0546 99.9596 56.3131C97.7635 56.761 95.5154 56.9332 93.276 56.8385C94.6075 57.0538 95.9477 57.2778 97.2793 57.4931C95.5413 57.3381 93.7948 57.3208 92.0482 57.45L93.7516 57.5103C92.9301 57.2175 92.0136 57.2089 91.1922 57.4931C93.8899 57.8118 98.2649 58.1736 100.79 57.1916C97.7808 57.1916 93.2328 57.4156 90.2757 57.9669C91.9791 58.6043 93.8899 58.3114 95.6451 57.8376C97.4003 57.3639 99.1382 56.7093 100.963 56.6404C101.343 56.6231 101.87 56.8299 101.741 57.183" fill="#190602"/>
<path d="M90.4225 57.5537C91.9702 57.726 93.4919 57.6571 95.0137 57.3556L94.9013 56.9422C93.3882 57.2953 91.8578 57.4848 90.3014 57.5106L90.3619 57.9758C92.2987 57.6743 94.2442 57.3814 96.1809 57.0886L96.0426 56.589C94.3739 56.9938 92.5927 57.3987 90.9499 56.6924V57.1575C92.4457 56.1669 94.2269 55.9344 95.9215 56.5201L95.861 56.0377C94.5727 56.7354 93.1547 56.9077 91.7367 56.5459V57.0627C93.1115 56.8043 94.4603 56.8474 95.8091 57.2092V56.6924C94.8667 57.0369 93.9329 57.0541 92.9818 56.7268V57.2436C94.1404 56.9766 95.2817 56.9508 96.449 57.1661L96.5181 56.6407C95.6881 56.6837 94.9186 56.5718 94.1404 56.3048V56.8216C94.9186 56.5373 95.6708 56.5545 96.4317 56.8991L96.57 56.3995C95.6535 56.5115 94.7889 56.4512 93.8983 56.2014V56.7268C94.7629 56.589 95.6189 56.5718 96.4922 56.6579V56.1153C94.5641 56.0463 92.6619 56.2358 90.7856 56.6924C90.5349 56.7527 90.5176 57.1661 90.7856 57.2092C91.0882 57.2609 91.2785 57.2436 91.5378 57.0455C91.6589 56.9508 91.7021 56.8216 91.633 56.6751C91.7799 56.9852 91.5119 56.8474 91.8405 56.7613C91.9788 56.7268 92.1172 56.6321 92.2468 56.5718C92.4025 56.5029 92.61 56.4598 92.757 56.365C92.9645 56.2272 92.904 55.8482 92.6186 55.8655C92.4544 55.8741 92.2814 55.9516 92.1258 55.9947C91.5465 56.1669 90.8288 56.2617 90.2928 56.5373C89.6356 56.8732 89.9296 57.6657 90.4138 58.0361C90.5608 58.148 90.751 58.0188 90.8115 57.8724C90.9326 57.5537 91.192 56.3995 90.5867 56.3995C90.0853 56.3995 89.5319 57.5882 89.3676 57.9672C89.3071 58.105 89.4281 58.26 89.5578 58.2945C91.0536 58.7338 92.6273 57.9413 94.0366 57.502C95.8956 56.9249 97.7805 56.5029 99.7346 56.7527C100.055 56.7957 100.141 56.2272 99.8124 56.1842C99.432 56.1325 99.1553 56.2014 98.8959 56.4942C98.7835 56.6235 98.7748 56.8646 98.9564 56.9508C100.815 57.838 102.968 58.3548 105.009 58.5873C105.355 58.6304 105.389 58.1136 105.087 58.0102C102.839 57.235 100.426 56.7182 98.0572 56.4856V57.0627C99.2245 57.0369 100.348 57.1919 101.464 57.5451L101.542 56.9852C99.6481 56.8302 97.7459 56.6751 95.8524 56.5287L95.9302 57.08C97.1666 56.8216 98.4117 56.5718 99.6481 56.3134C99.9507 56.2531 99.8816 55.7621 99.579 55.7793C97.9275 55.8827 96.2501 55.9258 94.6073 55.676L94.5381 56.21C96.0512 56.2358 97.5644 56.1583 99.0861 56.1842C99.4493 56.1842 99.432 55.6587 99.0861 55.6329C97.9534 55.5381 96.8467 55.5898 95.7227 55.7707L95.8697 56.3134C97.6941 55.8999 99.4233 55.6587 101.239 56.21C102.484 56.589 104.136 57.2006 104.741 58.4581L105.095 58.0016C103.478 57.614 101.715 56.9422 100.34 55.9947L100.037 56.5115C100.928 56.9335 101.749 57.4417 102.51 58.0705L102.865 57.614C101.68 56.8043 100.297 56.2875 99.1899 55.3659L98.991 55.8482C99.8297 55.9258 100.772 55.9516 101.542 56.3306L101.689 55.7966C99.6914 55.8138 97.7027 55.7793 95.7054 55.7018V56.2875C97.1061 56.2445 98.4895 56.3478 99.8643 56.589V56.0205C97.6854 56.4512 95.4806 56.6235 93.2585 56.5287C92.9299 56.5201 92.8521 57.0541 93.1807 57.1058C94.5122 57.3211 95.8524 57.5451 97.1839 57.7604L97.2617 57.1919C95.5152 57.0455 93.7773 57.0283 92.0307 57.1489C91.6589 57.1747 91.6502 57.7174 92.0307 57.7346L93.734 57.7949C94.0712 57.8035 94.1231 57.3211 93.8118 57.2178C92.8953 56.9249 92.0134 56.9249 91.0969 57.2006C90.7597 57.3039 90.8548 57.7346 91.1747 57.7777C94.2874 58.1394 97.8497 58.5873 100.859 57.4848C101.179 57.3642 101.144 56.8732 100.772 56.8732C97.2444 56.8732 93.6562 57.0455 90.1717 57.6743C89.8605 57.7346 89.9123 58.1653 90.1717 58.2514C91.8837 58.8371 93.6821 58.639 95.4114 58.1997C95.9302 58.0705 101.455 56.4684 101.412 57.1747C101.386 57.5709 102.009 57.5709 102.035 57.1747C102.138 55.5037 98.4463 56.7096 97.7373 56.8991C95.3249 57.5709 92.8262 58.5184 90.3274 57.6657V58.2428C93.7513 57.6226 97.2963 57.5106 100.764 57.4848L100.677 56.8732C97.7286 57.9672 94.2096 57.5451 91.1574 57.1833L91.2352 57.7604C92.0566 57.5106 92.8175 57.5106 93.6389 57.7777L93.7167 57.2006L92.0134 57.1403V57.726C93.76 57.6054 95.4979 57.614 97.2444 57.769C97.573 57.7949 97.6508 57.2522 97.3223 57.2006C95.9907 56.9766 94.6505 56.7613 93.319 56.5373L93.2412 57.1144C95.5152 57.2092 97.7719 57.0283 100.003 56.5804C100.279 56.5287 100.288 56.0636 100.003 56.0119C98.576 55.7621 97.1407 55.6501 95.6881 55.6932C95.3077 55.7018 95.3077 56.2617 95.6881 56.2789C97.6854 56.3478 99.6741 56.3737 101.671 56.3564C101.939 56.3564 102.078 55.9602 101.818 55.8224C100.954 55.3917 99.9248 55.3487 98.9824 55.2711C98.7489 55.2539 98.6019 55.5984 98.7835 55.7535C99.9248 56.7182 101.343 57.2609 102.562 58.105C102.83 58.2945 103.176 57.8552 102.916 57.6485C102.121 56.9852 101.265 56.434 100.331 55.9861C99.9853 55.8224 99.7087 56.2789 100.029 56.5029C101.429 57.4676 103.271 58.1997 104.922 58.5873C105.199 58.6476 105.389 58.372 105.277 58.1308C104.62 56.7871 102.934 56.1153 101.585 55.6932C99.6049 55.073 97.7113 55.3142 95.714 55.7621C95.3509 55.8396 95.5152 56.365 95.861 56.3048C96.9245 56.1325 97.9967 56.0894 99.0688 56.1755V55.6243C97.5557 55.6071 96.0426 55.676 94.5208 55.6587C94.2269 55.6587 94.1404 56.1411 94.4517 56.1928C96.1464 56.4426 97.867 56.4081 99.5703 56.3134L99.5011 55.7793C98.2561 56.0291 97.0196 56.2789 95.7746 56.5287C95.446 56.5976 95.5498 57.0541 95.8524 57.08C97.7459 57.235 99.6481 57.3987 101.542 57.5537C101.879 57.5796 101.913 57.0886 101.619 56.9938C100.461 56.6235 99.2763 56.4598 98.0572 56.4856C97.6768 56.4942 97.6941 57.0283 98.0572 57.0627C100.366 57.2953 102.735 57.8207 104.931 58.5787L105.009 58.0016C103.081 57.7777 101.014 57.2781 99.2504 56.4512L99.3109 56.9077L99.7346 56.7527V56.1669C98.0658 55.9688 96.423 56.2358 94.8148 56.6924C93.2066 57.1489 91.313 58.2514 89.7048 57.7777L89.895 58.105C90.042 57.7518 90.3446 57.4848 90.5089 57.1489C90.7078 57.0024 90.7164 56.9422 90.5349 56.968C90.4052 56.9335 90.3706 56.9852 90.4138 57.123C90.336 57.2609 90.3619 57.5537 90.3014 57.7174L90.6991 57.5537C90.0161 57.0369 91.3649 56.7613 91.5292 56.7182C91.7367 56.6579 91.9442 56.5976 92.1517 56.5373C92.2555 56.5029 92.6705 56.3909 92.6273 56.3909L92.4889 55.8913C92.2209 56.0636 90.8721 56.2961 91.1747 56.9335L91.2698 56.5632L90.9326 56.6665V57.1833C92.757 56.744 94.616 56.5632 96.4922 56.6321C96.8467 56.6493 96.8381 56.1239 96.4922 56.0894C95.5671 56.0033 94.6678 56.0377 93.76 56.1842C93.4833 56.2272 93.5179 56.6407 93.76 56.7096C94.6938 56.9766 95.6103 57.0541 96.5787 56.9249C96.8121 56.8991 96.9937 56.5459 96.717 56.4253C95.8351 56.0205 94.9272 55.9602 94.0107 56.2875C93.76 56.3823 93.7513 56.7182 94.0107 56.8043C94.8408 57.0886 95.6622 57.2092 96.5354 57.1661C96.8208 57.1489 96.9245 56.6924 96.6046 56.6407C95.3422 56.4081 94.1058 56.434 92.8521 56.7182C92.5754 56.7785 92.6186 57.1575 92.8521 57.235C93.8897 57.5882 94.9359 57.5796 95.9648 57.2006C96.2069 57.1144 96.2415 56.7527 95.9648 56.6837C94.5208 56.2961 93.0683 56.2445 91.5984 56.5287C91.3303 56.5804 91.3476 56.9852 91.5984 57.0455C93.1547 57.4331 94.7197 57.235 96.1291 56.4684C96.3366 56.3564 96.2674 56.0636 96.0685 55.9861C94.2528 55.3573 92.2901 55.6071 90.6819 56.6665C90.5349 56.7613 90.483 57.0455 90.6819 57.1317C92.4803 57.9155 94.3566 57.5279 96.1809 57.0714C96.5095 56.9852 96.3625 56.5201 96.0426 56.5718C94.1058 56.8819 92.169 57.2006 90.2322 57.502C89.9642 57.5451 90.0334 57.9758 90.2928 57.9672C91.8923 57.9499 93.4573 57.7432 95.005 57.3384C95.2731 57.2695 95.1607 56.8646 94.8926 56.9249C93.4141 57.2609 91.9269 57.3642 90.4138 57.2436C90.2236 57.2264 90.2322 57.5193 90.4138 57.5365L90.4225 57.5537Z" fill="black"/>
<path d="M56.4254 64.1774C55.9066 64.2033 52.0676 62.8251 50.468 64.5306C50.2346 64.0482 49.8628 63.5745 50.6669 63.4883C52.2146 63.3333 53.771 63.2386 55.3187 63.2041C55.7337 63.2041 56.1487 63.5142 56.5637 63.6778C56.5205 63.8415 56.4686 64.0052 56.4254 64.1688V64.1774Z" fill="black"/>
<path d="M110.18 65.7706C111.892 65.8137 113.604 65.8654 115.316 65.9084C115.29 66.2185 115.35 66.5372 115.489 66.8215C113.794 66.2616 112.004 65.9946 110.223 66.0204C110.43 65.8912 110.647 65.762 110.854 65.6328" fill="#190602"/>
<path d="M110.153 65.8571C110.871 66.15 111.822 66.0294 112.583 66.0552L115.315 66.15L115.073 65.9088C115.073 66.2706 115.116 66.5548 115.246 66.8907L115.549 66.5893C113.819 66.0208 112.038 65.7538 110.214 65.7624L110.352 66.262C110.568 66.1328 110.767 65.9949 110.975 65.8571C111.243 65.6762 111.009 65.2542 110.715 65.4178C110.499 65.5384 110.283 65.659 110.075 65.7882C109.851 65.926 109.937 66.2964 110.214 66.2878C111.995 66.262 113.724 66.529 115.419 67.0544C115.583 67.1061 115.799 66.9252 115.722 66.7529C115.609 66.4687 115.549 66.2103 115.557 65.9002C115.557 65.771 115.445 65.659 115.315 65.659L112.583 65.6073C111.813 65.5901 110.88 65.4178 110.153 65.6762C110.067 65.7107 110.075 65.8141 110.153 65.8485V65.8571Z" fill="black"/>
<path d="M78.9219 65.3572C81.6714 64.8921 83.9195 64.9007 86.6431 65.3745C86.8333 65.4089 87.084 65.5467 87.0149 65.7448C86.5739 65.9602 86.0724 66.0119 85.6142 65.8913C85.8649 65.9171 86.1329 65.8482 86.375 65.874C86.5307 65.7793 86.9371 65.7018 86.816 65.564C86.695 65.4261 86.0811 65.2883 85.9081 65.2453C83.6341 64.7629 81.2564 64.8318 78.9824 65.452C79.2764 65.7879 79.6049 66.0722 79.9681 66.2961" fill="#190602"/>
<path d="M78.9142 65.4004C79.6059 65.4693 80.3062 65.3056 80.9979 65.2539C81.7674 65.2023 82.5456 65.185 83.3151 65.2109C84.0241 65.2367 84.7245 65.297 85.4249 65.3918C85.5805 65.409 86.6613 65.4865 86.7045 65.6071C86.765 65.7707 85.7448 65.6932 85.6324 65.6674L85.5718 66.1153C85.9091 66.1153 86.9293 66.21 87.0417 65.6846C87.1455 65.1936 86.2981 65.0903 85.9955 65.0128C83.6696 64.4701 81.24 64.5735 78.9401 65.1764C78.7672 65.2195 78.6115 65.4434 78.7672 65.6071C79.0871 65.9516 79.4156 66.2445 79.8047 66.5029C80.0901 66.6924 80.4186 66.2617 80.1333 66.0722C79.7788 65.8397 79.4848 65.5899 79.1908 65.2712L79.0179 65.7018C80.5224 65.3056 82.0701 65.1161 83.6264 65.185C84.3354 65.2195 85.0358 65.297 85.7275 65.4434C85.8226 65.4607 86.4711 65.6243 86.4711 65.6329C86.4884 65.5985 85.5891 65.6588 85.6324 65.6588C85.3557 65.6588 85.2865 66.055 85.5718 66.1067C86.1079 66.2014 86.5835 66.1497 87.085 65.9344C87.1801 65.8913 87.2147 65.8052 87.2147 65.7104C87.2147 65.297 86.8515 65.2023 86.5143 65.1333C85.6237 64.9525 84.6899 64.8749 83.782 64.8319C83.0212 64.7974 82.2689 64.806 81.5081 64.8577C80.6521 64.918 79.6837 64.9438 78.8969 65.297C78.8536 65.3142 78.8623 65.3831 78.9055 65.3831L78.9142 65.4004Z" fill="black"/>
<path d="M83.1778 35.8821C83.3594 36.3731 83.6966 35.8477 83.9646 36.0285C83.783 36.3817 83.515 36.5454 83.1432 36.554C82.8492 36.554 82.5466 36.5798 82.2613 36.5454C81.2496 36.4161 80.4455 36.8554 79.7279 37.4928C79.4771 37.7082 79.235 37.8202 78.9324 37.6823C78.5433 37.5101 78.1802 37.5445 77.7997 37.734C77.4712 37.8977 77.108 37.9924 76.7708 38.1302C76.4423 38.2681 76.1569 38.3628 75.8457 38.0183C75.6209 37.7685 75.4133 37.9924 75.2318 38.3456C75.3615 38.3973 75.5171 38.4662 75.69 38.5437C75.2491 38.9227 74.9205 39.2155 74.419 39.0863C74.3498 39.0691 74.2634 39.0863 74.2029 39.1208C73.3815 39.6721 69.6116 41.2569 68.6346 41.7048C68.5827 41.7307 64.2423 43.5395 61.657 45.3742C56.6681 50.0513 53.9099 55.6157 53.8493 55.7449C53.8061 55.831 52.8291 57.6915 52.8982 58.6993C52.9069 58.8457 52.7858 59.0266 52.6907 59.1645C52.4659 59.5004 52.3449 59.8535 52.3362 60.267C52.3362 60.4995 52.2498 60.758 52.1201 60.9474C51.8001 61.4298 51.5494 61.9122 51.6272 62.472C51.5667 62.5409 51.5321 62.6012 51.4975 62.6099C50.8663 62.6788 50.4686 63.0664 50.1055 63.5573C49.7337 64.0742 49.2927 64.5393 48.9209 65.0475C48.7912 65.2284 48.7566 65.4695 48.6442 65.7882C49.2754 65.616 49.5953 65.2284 49.9325 64.9011C50.2438 64.6082 50.5637 64.4532 51.0652 64.5824C51.0479 64.8321 51.022 65.0992 51.0133 65.3576C51.0047 65.8399 51.0133 66.3223 50.996 66.8046C50.996 66.9683 50.996 67.175 50.9009 67.2784C50.4081 67.8124 50.2265 68.4843 50.14 69.1561C49.9325 70.7066 49.578 72.2484 49.7077 73.8247C49.8115 75.1167 49.9844 76.4001 50.1487 77.6835C50.2611 78.5276 50.4167 79.3718 50.5724 80.2159C50.6761 80.793 50.8404 81.3615 50.9182 81.9386C51.0739 83.1531 51.1863 84.3676 51.3332 85.5821C51.3765 85.9697 51.4716 86.3487 51.5235 86.7363C51.5494 86.9344 51.5494 87.1412 51.558 87.3479C51.4975 87.3651 51.437 87.3823 51.3765 87.4082C51.1603 87.0378 50.9269 86.6846 50.7453 86.3056C50.5464 85.8922 50.3821 85.4529 50.2092 85.0222C50.0709 84.6777 49.8461 84.471 49.457 84.4193C48.7048 84.3159 48.186 83.8508 47.9266 83.1875C47.5807 82.309 47.2608 81.4304 47.3646 80.4226C47.4424 79.6646 47.2089 78.9239 46.6556 78.3209C46.4308 78.0711 46.1887 77.8988 45.7996 77.9161C45.6266 78.1056 45.4278 78.3123 45.1684 78.5965C44.9695 78.3554 44.7707 78.1831 44.641 77.9678C44.3816 77.5285 44.1568 77.072 43.932 76.6068C43.8282 76.3915 43.7331 76.1589 43.6639 75.9264C43.344 74.8497 43.0327 73.773 42.7215 72.6963C42.5831 72.1967 42.5745 71.723 42.6609 71.1889C42.7906 70.3706 42.8685 69.5437 43.1365 68.7513C43.1624 68.6824 43.1538 68.6049 43.1624 68.536C43.1624 66.8477 43.223 65.1681 43.1624 63.4798C43.1279 62.429 42.9376 61.3867 42.7993 60.3445C42.782 60.1808 42.6955 60.0086 42.5831 59.888C42.2459 59.509 42.1854 59.0525 42.1768 58.5873C42.1508 56.9508 42.0644 55.3056 42.1508 53.669C42.2373 52.0152 42.4188 50.3614 42.8858 48.7507C43.2662 47.4415 43.4564 46.0719 43.7936 44.7454C44.1308 43.4448 45.7045 39.0691 46.059 38.337C46.3702 37.6996 46.6296 37.0449 46.9409 36.4075C47.2608 35.7443 50.7712 30.9896 51.705 30.5245C52.1892 30.2833 55.9331 26.6829 58.1293 25.589C60.3946 24.0471 66.0926 22.6776 66.499 22.178C68.6778 21.3769 69.4214 20.9204 71.6695 20.0332C71.7386 20.0074 74.6438 19.0341 75.0502 18.5776C75.4393 18.1469 76.0099 18.1383 76.5547 18.1038C77.2896 18.0607 80.6271 17.9229 81.5436 18.0607C82.4342 18.1899 85.201 19.0944 85.6679 19.3442C86.3596 19.7145 87.0254 20.1366 87.6393 20.6103C88.1148 20.9721 91.2448 21.6267 91.6858 21.6181C92.7061 21.5923 93.6745 21.7646 94.6342 22.1263C95.1962 22.333 97.3059 23.7973 97.9371 24.116C98.2397 24.2711 102.321 25.4684 102.433 25.5373C102.554 25.6148 105.088 27.6045 105.382 27.7854C105.572 28.9913 110.933 31.8854 111.261 31.8424C111.546 31.8079 113.042 34.0216 113.336 35.1069C113.483 35.6582 114.4 37.7771 114.512 38.1389C114.694 38.6987 114.919 39.2414 115.126 39.7926C115.204 39.9994 115.299 40.1975 115.385 40.3956C115.532 40.7315 115.636 42.0322 115.602 42.4715C115.55 43.0744 117.028 46.9419 117.054 47.4931C117.072 47.9497 117.236 48.3717 117.435 48.811C117.72 49.4484 117.798 50.1719 117.971 50.861C118.057 51.1883 118.17 51.5156 118.239 51.8516C118.308 52.153 118.343 52.4717 118.377 52.7818C118.412 53.0489 118.412 53.3159 118.438 53.5829C118.507 54.2375 118.636 54.8921 118.636 55.5468C118.636 57.0886 118.585 58.6304 118.515 60.1636C118.498 60.6201 118.317 61.068 118.265 61.5332C118.239 61.8088 118.308 62.093 118.36 62.3687C118.403 62.6012 118.559 62.8424 118.524 63.0578C118.36 64.212 118.239 65.3834 117.893 66.5118C117.711 67.1147 117.694 67.7607 117.59 68.3809C117.443 69.2164 117.27 70.0519 117.132 70.8961C117.028 71.5507 116.942 72.2053 116.873 72.8599C116.829 73.2475 116.864 73.6438 116.803 74.0314C116.76 74.3329 116.631 74.6171 116.492 75.0392C116.216 74.7377 116.051 74.5482 115.844 74.3242C115.584 74.6774 115.385 74.9703 115.515 75.444C115.697 76.0986 115.195 75.9953 114.936 76.5638C114.313 76.2278 114.305 76.6499 114.486 76.0125C114.702 75.2803 114.659 74.5826 114.538 73.8505C114.443 73.2734 114.469 72.6791 114.452 72.0933C114.4 70.3017 114.331 68.5187 113.777 66.796C113.769 66.753 113.795 66.7013 113.82 66.6065C114.235 66.3567 114.625 66.5376 115.031 66.7271C115.36 66.8908 115.697 67.0544 116.043 67.1406C116.535 67.2698 116.881 66.9252 116.708 66.4429C116.579 66.0897 116.345 65.7366 116.077 65.4695C115.835 65.2198 115.498 65.3231 115.187 65.4695C114.953 65.5729 114.685 65.6504 114.434 65.6504C113.613 65.6418 113.63 65.616 113.397 64.8408C112.489 61.8433 111.624 58.8285 110.63 55.8569C110.016 54.0308 109.177 52.2736 108.46 50.482C108.287 50.0513 108.218 49.5862 108.053 49.1469C107.604 47.9583 107.18 46.7524 106.661 45.5982C106.186 44.5301 105.684 43.462 105.062 42.4801C104.569 41.7048 103.86 41.0761 103.281 40.3611C102.961 39.9649 102.701 39.5342 102.269 39.2328C102.174 39.1639 102.131 38.9744 102.113 38.8365C102.018 37.9838 101.525 37.3292 100.981 36.7435C100.47 36.1922 99.9863 35.6065 99.26 35.2706C98.9487 35.1327 98.7412 34.7796 98.4732 34.5039C97.8679 34.814 97.3837 35.3567 96.5018 35.3222C96.9514 34.7796 97.5653 34.4953 97.4702 33.8149C96.6834 33.634 96.1733 33.9871 96.1041 34.7624C96.0695 35.0897 96.156 35.4687 95.6631 35.6495C95.5939 35.4859 95.5161 35.3481 95.4729 35.2016C95.2827 34.5642 95.0319 34.4178 94.4613 34.7193C93.9857 34.9691 93.5707 35.3136 93.1211 35.5979C92.7925 35.8046 92.4553 35.9941 92.1181 36.1836C91.902 36.3042 91.6858 36.4075 91.461 36.5023C91.3399 36.554 91.2016 36.5626 91.0287 36.5454C91.9192 35.951 92.7234 35.305 92.7666 34.0819C92.9655 34.2197 93.1038 34.392 93.2508 34.4092C93.4151 34.4178 93.588 34.28 93.8387 34.1766C93.5188 33.8924 93.2854 33.6684 93.026 33.4617C92.8012 33.2808 92.5764 33.3756 92.3429 33.4876C91.7982 33.746 91.7723 33.7373 91.5215 33.2119C91.3745 32.8932 91.1497 32.7985 90.8212 32.7812C90.4148 32.764 90.017 32.721 89.5156 32.6779C89.8182 32.1869 90.2073 32.1783 90.5877 32.2386C90.873 32.2817 91.1584 32.4023 91.4437 32.4625C91.7031 32.5228 91.9798 32.609 92.2219 32.2386C91.876 31.9888 89.5501 31.5581 89.6107 31.7562C89.5674 31.7907 89.5069 31.8251 89.455 31.8682C88.9535 32.2128 88.4002 32.5056 87.9592 32.9104C87.6652 33.1775 87.3799 33.3584 87.0168 33.4186C86.6623 33.4703 85.8927 33.9958 85.6506 34.2714C85.1578 34.8313 83.3853 35.7443 83.1864 35.908L83.1778 35.8821Z" fill="black"/>
<path d="M78.2239 23.5467C76.9702 24.4856 75.9672 25.6398 74.921 26.7509C74.8432 26.8371 74.8518 27.0093 74.8086 27.1816C74.9556 27.1988 75.0593 27.2505 75.1285 27.2161C75.3187 27.1213 75.4917 26.9749 75.6819 26.8629C76.0277 26.6562 76.218 26.7423 76.2958 27.1385C76.3736 27.5003 76.4255 27.8621 76.5206 28.2152C76.5465 28.3186 76.6935 28.3789 76.8837 28.5425C76.8837 28.2238 76.9269 28.0257 76.8924 27.8448C76.7713 27.0179 77.0221 26.3116 77.5063 25.6484C77.9559 25.0368 78.2239 24.3391 78.2153 23.5381L78.2239 23.5467Z" fill="black"/>
<path d="M72.4211 22.2202C71.2624 22.7026 71.2451 22.7112 70.9512 23.5381C71.4354 23.7103 71.7985 23.4261 72.1876 23.2538C72.5853 23.0729 73.0176 22.9524 73.3981 22.737C73.7439 22.5389 74.2714 22.582 74.4443 21.9963C73.7439 21.9532 73.3289 22.582 72.7064 22.5647C72.6199 22.4614 72.5248 22.3494 72.4211 22.2288V22.2202Z" fill="black"/>
<path d="M81.2493 24.2963C81.9756 23.5641 82.6068 22.9181 83.3245 22.1859C83.091 22.1859 82.9873 22.1687 82.9094 22.2032C82.4425 22.3841 82.0275 22.7028 81.4828 22.6941C81.3445 22.6941 81.1024 22.9784 81.0937 23.142C81.0764 23.4866 81.1802 23.8397 81.2493 24.2963Z" fill="black"/>
<path d="M79.1309 27.466C79.5199 27.3798 79.7707 27.1645 79.935 26.7941C80.1598 26.3204 80.4278 25.8639 80.6786 25.3987C80.6959 25.3729 80.644 25.3126 80.6267 25.2695C79.6669 25.5193 79.2346 26.1395 79.1309 27.4574V27.466Z" fill="black"/>
<path d="M111.944 37.6558C112.221 36.7944 111.953 36.4757 110.907 36.3379C110.751 37.1562 111.452 37.2768 111.944 37.6558Z" fill="black"/>
<path d="M58.0599 28.0693C57.3163 28.4828 56.9791 29.2838 57.0915 30.283C57.446 29.4733 57.7572 28.767 58.0599 28.0693Z" fill="black"/>
<path d="M51.471 33.125C51.739 32.8063 51.9725 32.5823 52.1367 32.3239C52.2059 32.212 52.154 32.0225 52.154 31.8588C51.9811 31.8674 51.7649 31.8243 51.6352 31.9019C51.2894 32.1258 51.2375 32.4704 51.4796 33.1164L51.471 33.125Z" fill="black"/>
<path d="M72.1016 24.7527C72.5685 24.7527 73.5887 24.21 73.8741 23.8311C73.1997 23.9947 72.5512 24.1411 72.1016 24.7527Z" fill="black"/>
<path d="M73.2245 38.5518C72.4895 38.5948 72.2301 38.7671 72.0918 39.3184C72.6365 39.3184 72.9651 39.0255 73.2245 38.5518Z" fill="black"/>
<path d="M69.6367 24.0639C69.6627 24.1156 69.6972 24.1673 69.7232 24.219C70.1641 24.2448 70.1814 24.262 70.3371 24.0639C70.4062 23.9778 70.3976 23.8314 70.4235 23.7108C70.3803 23.6763 70.3457 23.6419 70.3025 23.6074C70.0777 23.7625 69.8529 23.9089 69.6367 24.0639Z" fill="black"/>
<path d="M59.1236 26.7861C58.7345 26.9326 58.6135 27.1996 58.4492 27.5872C58.9075 27.4408 59.1842 27.2857 59.1236 26.7861Z" fill="black"/>
<path d="M84.0513 22.1859C84.1637 22.0394 84.2588 21.9447 84.3106 21.8327C84.3193 21.8069 84.1377 21.6432 84.0858 21.6604C83.9734 21.7035 83.8697 21.8069 83.8178 21.9189C83.8005 21.9533 83.9475 22.0653 84.0513 22.1945V22.1859Z" fill="black"/>
<path d="M70.8044 40.0762C70.4672 40.102 70.2251 40.2571 70.0781 40.6274C70.5277 40.6447 70.6661 40.3604 70.8044 40.0762Z" fill="black"/>
<path d="M70.6406 24.4342C70.6752 24.4859 70.7098 24.529 70.7444 24.5807C70.9692 24.4256 71.194 24.2792 71.4102 24.1241C71.3756 24.0811 71.341 24.0294 71.315 23.9863C71.0902 24.1414 70.8654 24.2878 70.6406 24.4428V24.4342Z" fill="black"/>
<path d="M105.218 29.3178C105.097 29.2144 105.036 29.1455 104.967 29.1197C104.932 29.1111 104.82 29.2058 104.829 29.2403C104.837 29.3178 104.88 29.4298 104.941 29.4556C104.984 29.4728 105.079 29.3953 105.218 29.3264V29.3178Z" fill="black"/>
<path d="M75.422 29.043L75.3442 28.9482C75.275 29.0258 75.2059 29.1119 75.0762 29.2583C75.2232 29.2153 75.275 29.2239 75.3096 29.198C75.3615 29.155 75.3874 29.0947 75.4307 29.043H75.422Z" fill="black"/>
<path d="M75.4902 28.233C75.4902 28.233 75.5594 28.1899 75.6026 28.1641C75.5767 28.1296 75.5594 28.0693 75.5334 28.0693C75.4989 28.0693 75.4643 28.1038 75.4297 28.1296C75.4556 28.1641 75.4816 28.1985 75.4989 28.233H75.4902Z" fill="black"/>
<path d="M79.8915 23.6681C79.8742 23.6078 79.8569 23.5733 79.8483 23.5303C79.7878 23.5561 79.7186 23.5647 79.6754 23.6078C79.6581 23.6164 79.7099 23.7025 79.7272 23.7542C79.7878 23.7284 79.8396 23.6939 79.9002 23.6681H79.8915Z" fill="black"/>
<path d="M103.436 66.4167C102.874 66.8904 102.468 66.7871 102.087 66.2186C101.629 65.5295 100.981 65.073 100.211 64.806C100.142 64.7801 99.9862 64.7887 99.7787 64.7801C99.1129 64.7457 99.2339 65.1936 99.0524 65.5898C98.8189 66.0894 98.3347 67.5106 97.9889 67.5451C96.7179 67.6484 95.4555 67.8552 94.1672 67.6054C93.5792 67.4934 92.9567 67.5623 92.3082 67.5451C92.3082 67.3814 92.2563 67.235 92.3082 67.123C92.7838 65.9688 93.4841 64.9955 94.5044 64.2547C95.4036 63.6087 96.3806 63.6948 97.3923 63.8499C99.0005 64.0997 100.54 64.5476 101.949 65.3745C102.45 65.6673 102.9 66.0291 103.445 66.4081L103.436 66.4167ZM93.9683 65.3745C93.3544 66.365 93.7694 67.123 94.4612 67.235C94.245 66.9077 93.9856 65.6329 93.9683 65.3745ZM97.349 65.0902C97.2712 65.0299 97.2107 64.9438 97.1588 64.9524C97.1069 64.9524 97.0551 65.0385 97.0032 65.0902C97.0724 65.1505 97.1329 65.2108 97.2021 65.2711C97.2453 65.2194 97.2885 65.1591 97.349 65.0902Z" fill="black"/>
<path d="M76.9082 83.7473C78.3176 82.6276 80.9115 82.9549 81.7242 84.402C81.4475 84.5742 77.427 84.6259 77.0379 83.9885C76.986 83.911 76.9514 83.8249 76.9082 83.7473Z" fill="black"/>
<path d="M85.4688 83.7042C86.4544 84.4105 87.7341 84.1865 88.4604 83.2046C88.0886 82.7653 87.5871 82.7911 87.1202 82.8945C86.5236 83.0237 85.8492 83.0754 85.4688 83.7042Z" fill="black"/>
<path d="M97.5996 55.5977H97.9887C97.9887 55.6493 97.9887 55.6838 97.9973 55.7269L97.6083 55.7699C97.6083 55.7096 97.6083 55.658 97.6083 55.5977H97.5996Z" fill="black"/>
<path d="M95.1523 55.4947C95.2993 55.4688 95.4377 55.4516 95.5847 55.4258C95.5847 55.4775 95.602 55.5205 95.602 55.5722L95.161 55.5981V55.5033L95.1523 55.4947Z" fill="black"/>
<path d="M99.2674 55.8737C99.155 55.8909 99.0426 55.9081 98.9216 55.9254L98.9043 55.8048C99.0167 55.7876 99.1377 55.7789 99.2502 55.7617C99.2502 55.7962 99.2588 55.8392 99.2674 55.8737Z" fill="black"/>
<path d="M95.9315 56.0978C95.8537 56.1581 95.7759 56.227 95.6808 56.27C95.6721 56.27 95.6029 56.1839 95.5684 56.1408C95.6548 56.0805 95.7326 56.0203 95.8191 55.96C95.8537 56.003 95.8969 56.0547 95.9315 56.0978Z" fill="black"/>
<path d="M72.0583 22.1089C72.1621 22.2381 72.2572 22.3415 72.3437 22.4535C72.9748 22.4707 73.3899 21.8419 74.0989 21.8764C73.9259 22.4707 73.3899 22.4276 73.0354 22.6257C72.6463 22.8411 72.214 22.9617 71.8076 23.1512C71.4098 23.3321 71.0467 23.6163 70.5625 23.444C70.8651 22.6085 70.8824 22.5999 72.0497 22.1175L72.0583 22.1089Z" fill="black"/>
<path d="M80.9895 24.2104C80.9204 23.7452 80.808 23.3921 80.8339 23.0389C80.8425 22.8753 81.0933 22.5824 81.2316 22.5824C81.785 22.591 82.2 22.2723 82.6756 22.0914C82.7534 22.057 82.8571 22.0914 83.0992 22.0742C82.3643 22.815 81.7331 23.461 80.9982 24.2018L80.9895 24.2104Z" fill="black"/>
<path d="M78.8457 27.4061C78.9495 26.071 79.3818 25.4422 80.3588 25.1924C80.3761 25.2355 80.428 25.2957 80.4107 25.3216C80.1599 25.7953 79.8833 26.2518 79.6585 26.7342C79.4855 27.1046 79.2348 27.3199 78.8457 27.4061Z" fill="black"/>
<path d="M112.012 37.716C111.511 37.3283 110.802 37.2164 110.957 36.3809C112.021 36.5273 112.298 36.8374 112.012 37.716Z" fill="black"/>
<path d="M57.5412 28.0264C57.2299 28.7327 56.9273 29.439 56.5641 30.2659C56.4517 29.2581 56.7889 28.4484 57.5412 28.0264Z" fill="black"/>
<path d="M50.8826 33.134C50.6405 32.4794 50.6837 32.1262 51.0382 31.9023C51.1679 31.8161 51.3841 31.8678 51.5657 31.8592C51.5657 32.0142 51.6262 32.2123 51.5484 32.3243C51.3841 32.5913 51.1506 32.8153 50.874 33.134H50.8826Z" fill="black"/>
<path d="M71.7383 24.6752C72.1965 24.055 72.845 23.9086 73.5367 23.7363C73.2427 24.1239 72.2138 24.6666 71.7383 24.6752Z" fill="black"/>
<path d="M72.8718 38.6123C72.6124 39.0947 72.2838 39.3789 71.7305 39.3875C71.8688 38.8363 72.1282 38.6554 72.8718 38.6123Z" fill="black"/>
<path d="M69.2489 23.9692C69.4737 23.8142 69.6985 23.6677 69.9233 23.5127C69.9665 23.5471 70.0011 23.5816 70.0443 23.6161C70.0184 23.7366 70.0271 23.8831 69.9579 23.9692C69.7936 24.1673 69.785 24.1501 69.3353 24.1243C69.3008 24.0726 69.2748 24.0209 69.2402 23.9692H69.2489Z" fill="black"/>
<path d="M58.6217 26.7256C58.6822 27.2338 58.4055 27.3802 57.9473 27.5353C58.1115 27.139 58.2326 26.872 58.6217 26.7256Z" fill="black"/>
<path d="M83.8177 22.0744C83.7053 21.9538 83.5583 21.8332 83.5756 21.7987C83.6361 21.6868 83.7399 21.5834 83.8523 21.5403C83.9042 21.5231 84.0858 21.6868 84.0771 21.7126C84.0252 21.8332 83.9301 21.9279 83.8177 22.0744Z" fill="black"/>
<path d="M70.4244 40.1543C70.2861 40.4385 70.1391 40.7228 69.6895 40.7056C69.8451 40.3352 70.0785 40.1801 70.4244 40.1543Z" fill="black"/>
<path d="M70.2598 24.3481C70.4846 24.1931 70.7094 24.0466 70.9428 23.8916C70.9774 23.9347 71.012 23.9864 71.0379 24.0294C70.8131 24.1845 70.5883 24.3395 70.3635 24.4945C70.3289 24.4429 70.2944 24.3998 70.2598 24.3481Z" fill="black"/>
<path d="M105.209 29.2834C105.071 29.3524 104.976 29.4385 104.924 29.4127C104.863 29.3868 104.82 29.2748 104.803 29.1973C104.803 29.1629 104.915 29.0681 104.941 29.0767C105.019 29.1026 105.079 29.1801 105.2 29.2834H105.209Z" fill="black"/>
<path d="M75.0928 29.0078C75.0496 29.0595 75.015 29.1198 74.9717 29.1629C74.9458 29.1887 74.8853 29.1887 74.7383 29.2232C74.868 29.0767 74.9371 28.9906 75.015 28.9131L75.1014 29.0078H75.0928Z" fill="black"/>
<path d="M75.1629 28.1902C75.1629 28.1902 75.111 28.1213 75.0938 28.0868C75.1283 28.061 75.1716 28.0179 75.2062 28.0265C75.2321 28.0265 75.258 28.0868 75.284 28.1213C75.2494 28.1471 75.2148 28.1643 75.1716 28.1902H75.1629Z" fill="black"/>
<path d="M79.6072 23.5734C79.5553 23.5992 79.4948 23.6337 79.4343 23.6595C79.417 23.6078 79.3651 23.5217 79.3824 23.5131C79.4256 23.47 79.5034 23.4614 79.564 23.4355C79.5726 23.4786 79.5899 23.5131 79.6072 23.5734Z" fill="black"/>
<path d="M57.1352 101.887C60.8272 107.417 66.1015 111.81 72.2577 114.376C75.9238 115.91 79.8665 115.987 83.7833 115.78C87.7001 115.574 91.4613 114.928 95.0668 113.575C98.6897 112.214 102.036 110.19 104.768 107.443C105.045 107.167 104.621 106.736 104.336 107.012C99.1911 112.051 92.1616 114.463 85.0716 115.04C81.4056 115.341 77.3677 115.488 73.84 114.316C70.7533 113.291 67.8308 111.611 65.2369 109.682C62.2539 107.46 59.5908 104.747 57.4379 101.715C57.3168 101.542 57.0228 101.706 57.1439 101.887H57.1352Z" fill="black"/>
<path d="M116.431 75.0479C116.829 76.0298 116.673 77.1495 116.301 78.1401C115.93 79.1307 115.376 80.0437 114.953 81.0084C114.218 82.6794 113.881 84.5313 113.984 86.3574C114.01 86.8656 114.071 87.3738 113.993 87.8734C113.759 89.3205 112.661 91.0518 111.434 91.8701" fill="#FFF2E3"/>
<path d="M116.319 75.0733C116.639 76.8907 116.068 78.2603 115.264 79.8538C114.633 81.0855 114.131 82.3431 113.889 83.7126C113.777 84.3845 113.708 85.065 113.708 85.754C113.708 86.5206 113.855 87.2872 113.69 88.0452C113.388 89.4579 112.454 90.7843 111.295 91.6371C111.01 91.8438 111.278 92.3348 111.581 92.1194C112.67 91.3701 113.483 90.2331 113.958 89.0186C114.589 87.4078 114.105 85.6765 114.347 84.0055C114.615 82.2053 115.411 80.6893 116.154 79.0613C116.708 77.8382 117.209 76.2706 116.518 75.0044C116.448 74.8838 116.284 74.9699 116.31 75.0905L116.319 75.0733Z" fill="black"/>
<path d="M84.3872 98.9073C84.6552 100.148 79.4847 98.6231 78.7238 98.4508C78.1531 98.3216 75.6457 97.0382 75.1096 96.7884C74.245 96.4267 72.8702 96.375 72.6886 96.2716C72.3341 96.0649 71.7808 94.9365 72.3169 94.9624C72.4898 94.971 73.4841 95.4447 74.0894 95.2552C75.7062 94.747 79.9429 95.772 81.8711 95.6514C82.8395 95.5911 83.877 95.8065 86.3153 95.2983C86.4969 95.2552 86.3326 95.4275 86.6006 95.4189C86.4364 95.772 84.9838 96.0649 84.759 96.0821C83.609 96.1682 83.2459 96.2113 82.0959 96.2716C81.6549 96.2888 79.8565 96.1596 79.4155 96.1166C78.7065 95.9874 75.2826 95.5136 75.3085 95.7892C75.5333 96.2716 78.4212 98.2096 84.3872 98.9073Z" fill="black"/>
<path d="M95.7823 95.6333C95.4451 95.6678 94.2433 95.2974 93.4824 94.927C94.2087 94.1604 95.5489 94.2982 95.7823 95.6333Z" fill="black"/>
<path d="M87.4746 95.151C87.7599 95.1166 88.0453 95.0735 88.3219 95.0391C88.1058 95.4353 87.8378 95.5386 87.5092 95.3836L87.4746 95.1597V95.151Z" fill="black"/>
<path d="M84.352 93.3079C82.8821 92.5671 81.1615 92.7135 79.7435 93.4888C78.9826 93.9108 78.3342 94.4104 77.4522 94.5482C76.5703 94.686 73.1118 94.5654 72.3249 94.9531C72.0656 95.0823 72.2904 95.3062 72.5843 95.3234C74.8151 95.4526 77.7721 95.2459 79.0345 94.2812C79.6225 93.8247 80.5217 93.6438 81.248 93.4543C82.2337 93.1959 83.2626 93.2993 84.2137 93.6266C84.4039 93.6955 84.5336 93.394 84.352 93.2993V93.3079Z" fill="black"/>
<path d="M84.3268 93.5666C85.909 92.3951 88.062 93.4546 89.6789 94.0489C91.166 94.6002 92.7483 95.1773 94.3652 95.1084C94.7716 95.0912 94.7543 94.5313 94.3652 94.4882C93.293 94.359 92.2728 94.2556 91.2352 93.9456C90.4052 93.6958 89.601 93.3771 88.7796 93.11C87.3098 92.6449 85.3903 92.0678 84.1798 93.3771C84.0933 93.4718 84.2144 93.6527 84.3268 93.5666Z" fill="black"/>
<path d="M85.433 95.9182C86.9807 95.634 88.416 95.5737 89.981 95.6254C90.69 95.6426 91.399 95.6598 92.108 95.6081C92.7565 95.5564 93.4049 95.3325 94.0448 95.3067C94.3474 95.2894 94.4079 94.876 94.1139 94.7812C93.6038 94.609 92.7824 94.9535 92.255 95.0052C91.399 95.0827 90.5343 95.0569 89.6697 95.031C88.1998 94.988 86.6521 94.9707 85.2946 95.634C85.1736 95.6943 85.2687 95.8579 85.3811 95.8321L85.4243 95.9182H85.433Z" fill="black"/>
<path d="M93.9059 94.9363C92.2371 95.5823 91.0007 96.9605 89.3838 97.7099C87.4903 98.5798 85.5881 98.6143 83.5562 98.8038C83.1844 98.8382 83.1844 99.3551 83.5562 99.3809C85.3806 99.5187 87.3692 99.1828 89.0553 98.4937C90.9402 97.7185 92.2717 96.2025 94.0529 95.2722C94.2344 95.1775 94.1047 94.8674 93.9145 94.9449L93.9059 94.9363Z" fill="black"/>
<path d="M69.1352 56.701C69.2833 56.701 69.4033 56.5815 69.4033 56.434C69.4033 56.2865 69.2833 56.167 69.1352 56.167C68.9872 56.167 68.8672 56.2865 68.8672 56.434C68.8672 56.5815 68.9872 56.701 69.1352 56.701Z" fill="#FFF2E3"/>
<path d="M69.136 56.9504C69.136 56.9504 69.136 56.9504 69.1273 56.9504C68.989 56.9504 68.8593 56.8901 68.7642 56.7868C68.6691 56.6834 68.6172 56.5542 68.6172 56.4164C68.6172 56.2786 68.6777 56.1494 68.7815 56.0546C68.8852 55.9599 69.0149 55.9082 69.1533 55.9082C69.4386 55.9082 69.672 56.158 69.6634 56.4422C69.6634 56.7265 69.4213 56.9504 69.1446 56.9504H69.136ZM69.136 56.4164C69.136 56.4164 69.1187 56.4164 69.1187 56.4336C69.1187 56.4336 69.1273 56.4509 69.136 56.4509C69.136 56.4509 69.1533 56.4509 69.1533 56.4336C69.1533 56.4336 69.1533 56.4164 69.136 56.4164Z" fill="black"/>
<path d="M54.5576 65.8391C54.3069 62.6694 58.8895 61.8339 61.2326 61.4807C63.7401 61.1017 66.2994 61.0156 68.8241 61.1189C71.5996 61.2223 74.3578 61.5841 77.0814 62.1526C78.3438 62.411 80.2719 62.6005 80.4189 64.2112C80.5486 65.5635 79.7099 67.1484 79.2084 68.3801C78.3438 70.5249 77.2543 72.7213 75.6288 74.401C73.7698 76.3218 70.441 76.1323 67.9249 76.1926C65.1321 76.2615 62.3394 75.7878 59.5812 75.3571C59.0451 75.2709 58.3361 75.2623 57.8346 75.0556C56.97 74.7025 56.4598 73.2382 56.1572 72.394C55.7595 71.3001 55.5347 70.1459 55.2407 69.0261C54.8343 67.4585 54.3761 65.977 54.7392 64.3576C54.817 63.9872 54.2464 63.8753 54.1685 64.237C53.8832 65.5032 54.0475 66.7263 54.3588 67.9753C54.7046 69.3793 55.0245 70.8264 55.4741 72.2045C55.9238 73.5827 56.4944 75.3915 58.094 75.7016C61.5525 76.3735 65.2013 76.9075 68.729 76.7439C71.4094 76.6233 74.28 76.7439 76.2081 74.6335C78.1276 72.5232 79.3294 69.853 80.2892 67.2001C80.9377 65.4085 81.7331 62.9967 79.4159 62.1009C78.119 61.6013 76.6231 61.429 75.257 61.1965C73.6056 60.9208 71.9368 60.7141 70.2681 60.6021C66.6971 60.3523 62.9705 60.404 59.4601 61.2137C57.1083 61.7563 53.7449 62.8933 53.9783 65.8736C54.0043 66.244 54.5922 66.2095 54.5663 65.8391H54.5576Z" fill="black"/>
<path d="M98.0068 66.8469L97.782 66.89C97.4448 66.9589 97.5399 67.4499 97.8598 67.4585C99.6151 67.5188 101.318 67.2862 102.996 66.7436C103.35 66.6316 103.203 66.0631 102.84 66.1837C101.215 66.7091 99.5632 66.9417 97.8598 66.8814L97.9377 67.4499L98.1625 67.4068C98.5343 67.3379 98.3786 66.7694 98.0068 66.8469Z" fill="black"/>
<path d="M86.4622 68.9486C86.8859 71.9375 87.7246 74.9178 89.3069 77.5191C89.9813 78.6216 91.235 79.6724 91.3474 81.0162C91.5117 83.0489 90.0072 84.6769 88.0186 84.987C87.7246 85.0301 87.7678 85.4607 88.0186 85.5296C89.0215 85.8139 90.794 84.5132 91.3388 83.7122C92.0996 82.5752 92.2293 80.8697 91.5636 79.6724C91.1658 78.9575 90.6038 78.3546 90.1369 77.6913C89.5403 76.8472 89.0561 75.9083 88.6238 74.9695C87.7159 73.0228 87.1885 70.9642 86.6438 68.9055C86.6092 68.785 86.4449 68.8366 86.4622 68.9572V68.9486Z" fill="black"/>
<path d="M77.6779 72.1016C77.3493 73.9793 76.4328 75.9518 75.2569 77.4592C74.2453 78.7426 73.078 79.9571 73.1039 81.697C73.1472 84.4964 75.1099 86.5292 77.9632 86.1416C78.335 86.0899 78.335 85.5128 77.9632 85.5559C76.3377 85.7712 74.9024 85.2889 74.1588 83.7471C73.6314 82.6445 73.5017 81.318 74.0118 80.1897C74.6689 78.734 75.9832 77.6745 76.7354 76.2533C77.3925 75.0129 78.0064 73.6348 78.2399 72.248C78.3004 71.8776 77.7384 71.7226 77.6779 72.093V72.1016Z" fill="black"/>
<path d="M86.9303 69.1814C86.6104 68.3114 86.2905 67.4414 86.0138 66.5628C85.6766 65.4862 85.3307 64.6076 86.4029 63.7979C87.9592 62.6265 90.3716 62.213 92.2478 61.9546C96.4845 61.3689 100.851 61.8254 105.07 62.3336C107.232 62.592 111.123 63.1261 110.267 66.1408C109.713 68.0874 108.503 70.0685 107.552 71.8515C107.111 72.6784 106.679 73.514 106.177 74.3064C105.373 75.5812 104.301 75.8654 102.891 76.0205C100.86 76.2444 98.8018 76.21 96.7526 76.2358C95.5334 76.2531 94.3143 76.2703 93.0865 76.2789C91.8587 76.2875 90.2764 76.4081 89.3945 75.297C88.7633 74.5045 88.4867 73.2125 88.0976 72.2908C87.6652 71.2658 87.2675 70.2322 86.9217 69.1727C86.8093 68.8196 86.2559 69.0177 86.3683 69.3709C86.7574 70.5595 87.207 71.7137 87.6998 72.8679C88.1235 73.8671 88.3743 75.1333 89.1611 75.9257C90.4926 77.2608 92.9049 76.8646 94.591 76.8388C97.5135 76.8043 100.514 76.9507 103.419 76.5373C105.555 76.2358 106.359 75.185 107.362 73.3934C108.036 72.1789 108.685 70.9471 109.29 69.6896C109.895 68.432 110.63 67.1916 110.95 65.8996C111.417 63.9788 109.809 62.859 108.166 62.3422C105.641 61.5412 102.805 61.4636 100.177 61.2655C97.548 61.0674 94.9887 60.9985 92.4207 61.3258C90.9854 61.5153 89.5588 61.8168 88.1927 62.2992C87.2589 62.6265 86.1694 63.0141 85.5123 63.7979C85.08 64.3233 84.9676 64.8057 85.0886 65.4431C85.3394 66.7782 85.8927 68.0961 86.3683 69.3709C86.498 69.724 87.0514 69.5259 86.9217 69.1727L86.9303 69.1814Z" fill="black"/>
<path d="M73.7883 67.0284C73.745 66.9078 73.6759 66.7958 73.6067 66.6838C73.0793 65.8397 72.2665 65.2971 71.4278 64.8319C71.0647 64.6252 70.5891 64.5391 70.1654 64.5391C69.0587 64.5477 67.9866 64.7458 66.9404 65.1248C65.0727 65.8052 63.404 66.8819 61.6315 67.7519C61.424 67.8553 61.277 68.0534 61.0781 68.2257C61.3202 68.7425 61.6401 68.596 62.0379 68.5271C62.9717 68.3721 63.9228 68.2773 64.8652 68.2687C65.8596 68.2601 66.3956 68.329 67.1911 68.2429C67.8828 68.1654 68.661 68.4582 68.7474 68.4668C69.491 68.4927 69.3181 68.5444 70.053 68.4582C71.1598 68.3204 72.2492 68.0534 73.3387 67.8208C73.7796 67.7261 73.9353 67.4418 73.7969 67.0456L73.7883 67.0284ZM63.9574 67.459C63.9574 66.7613 65.9547 66.279 66.3438 66.0895C66.5859 66.5805 66.8712 67.571 67.1911 67.9414C66.1622 68.1567 63.9487 67.9586 63.9574 67.459ZM68.0125 66.3996C68.0125 66.7011 68.0125 67.0628 67.7099 67.0628C67.4073 67.0628 67.4678 66.5805 67.4678 66.279C67.4678 65.9775 67.7099 65.7363 68.0125 65.7363C68.3151 65.7363 68.0125 66.0981 68.0125 66.3996ZM72.2492 67.3643C72.0331 67.4332 71.7996 67.4763 71.4019 67.571C71.5662 66.9767 71.6786 66.5546 71.8428 65.9517C72.1022 66.3737 72.2838 66.658 72.4394 66.9508C72.5345 67.1317 72.4394 67.304 72.2492 67.3643Z" fill="black"/>
<path d="M53.5119 92.8344C52.3187 88.967 50.918 85.5732 50.918 85.5732" stroke="black" stroke-width="0.3" stroke-miterlimit="10"/>
</g>
</g>
<defs>
<clipPath id="clip0_5795_5015">
<rect width="163" height="163" rx="81.5" fill="white"/>
</clipPath>
<clipPath id="clip1_5795_5015">
<rect width="151" height="176" fill="white" transform="translate(6 18)"/>
</clipPath>
</defs>
</svg>
