<svg fill="none" height="163" viewBox="0 0 163 163" width="163" xmlns="http://www.w3.org/2000/svg" xmlns:xlink="http://www.w3.org/1999/xlink"><clipPath id="a"><rect height="163" rx="81.5" width="163"/></clipPath><clipPath id="b"><path d="m-3 20h163v169h-163z"/></clipPath><g clip-path="url(#a)"><circle cx="81.5" cy="81.5" fill="#ffdeb5" r="81.5"/><g clip-path="url(#b)"><path d="m116.172 144.618s-48.2726 12.42-61.3279.249c-5.9885-5.583-25.5299-9.679-.423-25.19 4.7692-2.949 2.9445-22.3065 2.9445-22.3065l46.6804-2.185 12.135 49.4235z" fill="#fff2e3"/><path d="m76.177 150.234c-2.2229 0-4.3048-.083-6.2373-.249-7.0419-.606-12.118-2.318-15.104-5.101-1.2027-1.121-2.9445-2.177-4.7858-3.298-1.9492-1.18-3.9647-2.401-5.5074-3.805-1.7502-1.595-2.6045-3.19-2.6128-4.877-.0166-3.705 4.0726-8.034 12.4913-13.234 1.0865-.673 1.916-2.26 2.4634-4.719.4396-1.969.705-4.503.788-7.527.141-5.151-.3152-10.0031-.3152-10.0447v-.0166h.0166l46.6882-2.185 12.143 49.4573h-.016c-.125.033-12.226 3.132-25.7707 4.694-5.2254.606-9.9863.905-14.233.905zm-18.7949-52.838c.0331.324.4479 5.043.3151 10.036-.0829 3.024-.3483 5.558-.7879 7.535-.5557 2.468-1.3852 4.063-2.48 4.736-8.4105 5.192-12.4913 9.512-12.4747 13.209 0 1.679.8543 3.265 2.6044 4.852 1.5428 1.404 3.55 2.626 5.4992 3.805 1.8413 1.122 3.5831 2.177 4.7941 3.298 2.9777 2.775 8.0538 4.487 15.0791 5.093 5.6235.482 12.5161.266 20.4704-.656 13.3122-1.537 25.2392-4.553 25.7452-4.686l-12.126-49.3987-46.6472 2.185z" fill="#000"/><path d="m159.709 187.545c-.356-1.928-.199-3.905-.713-5.816-.216-.789-.083-1.678-.398-2.484-.033-.083 0-.199 0-.291-.058-.481-.116-.963-.191-1.445-.074-.482-.157-.956-.232-1.437-.058-.358-.1-.715-.166-1.064-.249-1.379-.514-2.75-.746-4.129-.199-1.188-.365-2.384-.54-3.581-.215-1.42-.447-2.841-.647-4.262-.165-1.163-.215-2.342-.447-3.481-.44-2.102-.772-4.228-1.377-6.305-.539-1.853-.962-3.739-1.759-5.5-.696-1.545-1.393-3.107-2.272-4.545-.705-1.154-1.336-2.409-2.431-3.29-.124-.099-.174-.274-.282-.398-.431-.532-.87-1.055-1.31-1.579-.879-1.047-1.75-2.102-2.629-3.149-.755-.897-1.493-1.811-2.688-2.185-1.833-.573-3.591-1.379-5.515-1.678-1.452-.224-2.895-.523-4.347-.681-1.493-.166-3.002-.158-4.487-.324-1.128-.125-2.239-.382-3.359-.59-1.211-.224-2.422-.482-3.641-.698-1.601-.282-3.252-.382-4.803-.831-1.252-.365-2.223-.141-3.201.557-.631.449-.705.748-.108 1.213.829.648.921 1.421.713 2.359-.39 1.787-1.186 3.357-2.19 4.869-1.385 2.085-2.944 3.988-4.943 5.516-1.12.856-2.273 1.662-3.608 2.136-1.4681.523-2.9362 1.088-4.4291 1.536-1.6838.507-3.3758.997-5.1674 1.022-1.3022.017-2.6044.108-3.8983.175-.9124.05-1.8331.241-2.7206.158-1.1197-.108-2.2809-.283-3.3094-.706-2.3722-.973-4.7526-1.795-7.3571-1.803-.7713 0-1.551-.191-2.3141-.333-1.7998-.34-3.5334-.922-5.1756-1.736-1.5179-.756-3.0772-1.47-4.4458-2.443-2.0736-1.462-4.0891-3.024-5.8807-4.851-1.2939-1.321-2.7122-2.534-4.0808-3.789-.622-.573-1.2939-1.105-1.8745-1.711-1.1031-1.163-2.115-2.401-3.2431-3.531-.6552-.656-1.1197-1.504-2.0321-1.936-1.6671-.806-3.3923-.44-5.0927-.357-.8294.041-1.6423.407-2.4717.581-.8958.192-1.7916.324-2.6956.499-1.0866.199-2.198.332-3.2514.64-1.8662.54-3.7739.698-5.6982.806-.282.016-.5723-.092-.8626-.142-1.1198-.199-2.2395-.506-3.3675-.573-1.5594-.091-3.1436-.091-4.479.972-.1741.141-.4976.175-.7381.141-.5972-.091-1.0866.108-1.5677.424-.8958.59-1.7998 1.171-2.7039 1.761-1.5842 1.03-3.20993 2.011-4.32137 3.606-.03317.05-.09953.083-.141.133-.79625 1.022-1.64228 2.01-2.36388 3.09-.65525.972-1.18609 2.028-1.73351 3.066-.48937.922-1.02021 1.836-1.39345 2.808-.47278 1.213-.77967 2.484-1.21926 3.714-.870908 2.417-1.061678 4.976-1.551043 7.469-.265418 1.337-.373244 2.708-.580602 4.054-.572305 3.68-1.020205 7.377-1.302205 11.091-.08295 1.105-.14101 2.218-.20736 3.323-.08295 1.238-.20736 2.476-.23224 3.714-.02489 1.537.04976 3.074.04147 4.611 0 1.08-.04977 2.151-.09953 3.231-.04977 1.172-.16589 2.343-.17418 3.515 0 .664.15759 1.337.23224 1.985 1.20267.2 36.45352.15 37.28302-.066.0414-.607.0746-1.246.1244-1.894.0497-.715.1161-1.421.1576-2.135.0248-.416.0497-.848 0-1.255-.1079-.906-.3235-1.786.0746-2.7.141-.324.0581-.773 0-1.163-.1576-1.097-.3484-2.185-.5142-3.282-.0166-.116.058-.257.1078-.49.1327.208.2073.283.2322.366.2986 1.154.7465 2.226 1.6506 3.057.1493.141.2239.399.282.606.6221 2.244.5308 4.453-.2737 6.647-.2654.723-.4562 1.479-.7382 2.417h121.8768.879c.921-.025 1.236-.299 1.07-1.188z" fill="#da6c4d" stroke="#000" stroke-miterlimit="10" stroke-width=".15"/><path d="m12.0786 188.932c-7.49803 0-14.08372-.041-14.62286-.124l-.141-.025-.01659-.141c-.02488-.191-.05806-.391-.09124-.599-.07464-.456-.14929-.93-.14929-1.412 0-.748.04976-1.495.09953-2.226.02488-.424.05806-.864.07465-1.296v-.092c.04976-1.03.09124-2.085.09953-3.132 0-.656-.01659-1.329-.02488-1.977-.01659-.864-.03318-1.761-.01659-2.642.01659-.848.08294-1.703.1493-2.526.03317-.399.05806-.797.09123-1.188.02489-.399.04977-.806.07465-1.204.04147-.698.08295-1.413.14101-2.119.27371-3.581.71331-7.319 1.302204-11.108.082943-.531.149298-1.08.215653-1.603.099531-.806.207358-1.645.36495-2.459.149298-.765.2737123-1.546.3981271-2.302.2737129-1.719.5557189-3.497 1.1694959-5.192.19907-.54.36495-1.105.53084-1.653.20736-.682.42301-1.388.68843-2.069.32348-.822.74649-1.603 1.1612-2.368.08295-.149.16589-.307.24883-.457.09953-.182.19077-.365.2903-.54.4479-.847.91238-1.728 1.4598-2.534.51425-.764 1.09486-1.487 1.65887-2.193.24053-.299.48107-.598.71331-.905.03318-.042.06635-.067.09953-.092.01659-.008.03318-.025.04147-.033 1.03679-1.495 2.52974-2.468 3.98124-3.398.1327-.083.2655-.166.3899-.258.3069-.199.622-.398.9289-.606.5889-.382 1.1861-.773 1.775-1.155.4064-.274.9705-.565 1.7004-.457.2156.033.481-.008.5889-.099 1.3934-1.105 3.044-1.105 4.6116-1.014.7962.05 1.5925.216 2.3556.374.34.075.6884.141 1.0285.208.0995.016.1907.041.282.066.1908.05.3649.091.5391.083 1.8248-.1 3.7656-.249 5.6567-.797.7548-.217 1.5511-.349 2.3142-.474.3151-.05.6469-.108.9621-.166.3235-.058.6552-.117.987-.175.564-.099 1.1363-.199 1.7004-.315.2986-.067.6054-.158.8957-.241.5226-.158 1.0534-.316 1.6008-.341.3318-.017.6636-.041.9871-.066 1.3768-.108 2.8035-.225 4.1886.448.6635.324 1.1031.839 1.5262 1.346.1741.216.3649.432.5557.632.6469.648 1.2607 1.337 1.8579 2.01.4479.507.9124 1.03 1.3852 1.529.3732.398.7962.764 1.2109 1.121.2157.191.4396.382.6553.582.3981.365.8128.739 1.211 1.096.9621.865 1.9491 1.753 2.8698 2.692 1.5344 1.57 3.3426 3.058 5.8558 4.835 1.1778.831 2.5132 1.488 3.7988 2.119.2073.1.4147.208.622.307 1.6091.798 3.3344 1.379 5.1259 1.72.1327.025.2655.05.3982.075.622.125 1.2607.249 1.8828.249 2.5215 0 4.7941.731 7.4317 1.811 1.0534.432 2.2395.598 3.2597.698.5723.058 1.1778-.008 1.7584-.075.3068-.033.622-.066.9372-.083.2654-.016.5308-.033.7963-.041 1.0202-.058 2.0735-.117 3.1103-.133 1.7087-.025 3.3261-.474 5.1176-1.014 1.1115-.332 2.2229-.739 3.2925-1.13.374-.133.747-.274 1.128-.407 1.253-.448 2.323-1.163 3.559-2.11 1.758-1.346 3.309-3.082 4.902-5.467 1.136-1.711 1.824-3.24 2.164-4.81.216-1.013.034-1.637-.647-2.168-.223-.175-.489-.424-.481-.731 0-.324.307-.582.598-.79 1.078-.772 2.123-.955 3.367-.589 1.02.299 2.107.44 3.152.589.539.075 1.086.15 1.626.241.73.125 1.476.275 2.189.416.481.091.971.191 1.452.282.298.058.597.117.896.175.796.158 1.625.324 2.446.415.73.075 1.477.116 2.198.158.755.041 1.535.083 2.298.166.929.108 1.866.266 2.77.424.523.091 1.054.183 1.584.266 1.328.199 2.597.656 3.824 1.096.564.2 1.145.407 1.717.59 1.203.374 1.949 1.263 2.679 2.127l.1.116c.68.806 1.368 1.629 2.032 2.426l.605.723c.423.507.871 1.047 1.311 1.587.05.066.091.133.124.199.042.075.083.141.125.175.937.764 1.542 1.778 2.123 2.766.116.191.232.391.348.573.863 1.413 1.56 2.95 2.231 4.445l.059.125c.622 1.379 1.02 2.841 1.418 4.262.116.415.232.839.348 1.254.432 1.496.73 3.041 1.02 4.536.117.59.233 1.197.357 1.787.149.722.224 1.47.299 2.193.041.432.091.872.149 1.304.133.947.282 1.911.431 2.842.075.473.15.938.216 1.412.058.399.116.798.174 1.196.116.781.232 1.587.365 2.385.149.88.315 1.778.473 2.642.091.498.182.997.274 1.487.041.216.074.44.099.648.017.141.042.274.066.415.034.183.059.366.092.557.049.299.099.59.141.889.074.482.132.972.19 1.445v.166.084c.191.481.224.98.266 1.462.025.365.058.714.141 1.038.298 1.105.373 2.243.448 3.34.058.822.116 1.67.265 2.492.091.482.042.806-.141 1.039-.199.241-.539.357-1.111.374-.208 0-.423 0-.622 0-.092 0-.175 0-.266 0h-122.1751l.0747-.25c.0912-.307.1741-.598.2571-.872.1659-.573.3069-1.063.4894-1.553.7879-2.144.8709-4.337.2654-6.53-.0498-.183-.1161-.416-.2323-.524-.9621-.889-1.4017-2.044-1.6588-2.982.0663.423.1327.839.199 1.262.0996.623.2074 1.263.2986 1.895l.0166.108c.0581.382.1161.805-.0332 1.154-.3151.723-.2156 1.429-.1161 2.177.0166.141.0415.283.0581.424.0497.432.0249.872 0 1.288-.0249.448-.0581.897-.0913 1.337-.0248.266-.0414.532-.058.806-.0332.457-.0581.906-.0913 1.346l-.0414.681-.1327.033c-.4728.125-12.4664.2-22.7431.2zm-14.42379-.49c2.604415.175 34.47949.125 36.93459-.058l.0249-.39c.0249-.441.0581-.898.0912-1.346.0166-.266.0415-.54.0581-.806.0332-.432.0664-.881.0912-1.321.0249-.407.0415-.823 0-1.221-.0166-.142-.0331-.275-.0497-.416-.1079-.772-.2157-1.562.1493-2.384.1078-.249.0497-.615 0-.947l-.0166-.108c-.0913-.632-.1908-1.271-.2986-1.886-.0747-.465-.1493-.922-.224-1.388-.0166-.124.0166-.232.0581-.357.0166-.058.0415-.124.0581-.208l.0995-.432.2405.374c.0498.075.0913.133.1244.175.0664.091.1162.158.1328.241.2405.922.6386 2.093 1.5925 2.966.1907.174.2737.465.34.698.6304 2.268.5392 4.544-.2737 6.762-.1742.482-.3152.964-.4811 1.529-.058.199-.1161.407-.1824.631h121.6191.266.614c.448-.008.705-.083.829-.232.108-.133.133-.374.066-.731-.157-.84-.215-1.704-.273-2.534-.075-1.08-.15-2.194-.44-3.265-.099-.358-.124-.74-.157-1.105-.034-.457-.075-.931-.241-1.355-.033-.091-.025-.182-.025-.257 0-.033 0-.067 0-.083-.058-.474-.116-.964-.191-1.437-.041-.291-.091-.59-.141-.881-.033-.183-.058-.374-.091-.557-.025-.141-.041-.282-.066-.423-.033-.208-.067-.424-.1-.64-.091-.499-.182-.989-.273-1.487-.158-.864-.324-1.762-.473-2.642-.133-.798-.249-1.604-.365-2.393-.058-.399-.116-.797-.174-1.196-.075-.474-.141-.939-.216-1.413-.141-.93-.299-1.902-.431-2.849-.058-.44-.108-.889-.15-1.321-.074-.715-.149-1.446-.298-2.152-.125-.598-.241-1.205-.357-1.794-.29-1.488-.589-3.016-1.012-4.503-.124-.424-.24-.848-.356-1.263-.39-1.404-.788-2.858-1.394-4.212l-.058-.125c-.663-1.479-1.352-3.007-2.206-4.403-.116-.191-.232-.391-.349-.582-.564-.955-1.153-1.944-2.032-2.658-.099-.083-.157-.191-.215-.283-.034-.058-.058-.108-.092-.141-.439-.54-.887-1.08-1.31-1.578l-.606-.723c-.663-.798-1.343-1.62-2.023-2.418l-.1-.116c-.722-.856-1.41-1.67-2.497-2.011-.58-.182-1.169-.39-1.733-.589-1.211-.432-2.455-.881-3.749-1.08-.531-.084-1.07-.175-1.593-.266-.904-.158-1.833-.316-2.753-.416-.755-.083-1.526-.124-2.273-.166-.73-.041-1.476-.075-2.215-.158-.837-.091-1.667-.257-2.48-.415-.298-.058-.597-.116-.895-.175-.49-.091-.971-.182-1.452-.282-.713-.141-1.451-.283-2.181-.415-.531-.092-1.087-.167-1.618-.241-1.061-.142-2.164-.291-3.21-.599-1.144-.332-2.048-.174-3.044.532-.29.208-.431.366-.439.482 0 .108.108.249.332.424 1.012.789.953 1.778.779 2.55-.348 1.62-1.053 3.182-2.223 4.935-1.609 2.426-3.193 4.196-4.984 5.558-1.261.964-2.364 1.703-3.658 2.169-.373.132-.747.274-1.12.407-1.0782.39-2.198.797-3.3094 1.138-1.8165.548-3.4587 1.005-5.2254 1.022-1.0285.016-2.0819.074-3.0938.133-.2654.016-.5308.033-.7963.041-.2986.017-.6137.05-.9123.083-.6055.067-1.2276.133-1.8414.075-1.0451-.1-2.2643-.266-3.3675-.723-2.5961-1.063-4.8273-1.778-7.2907-1.786-.6552 0-1.3188-.133-1.9574-.258-.1328-.024-.2655-.049-.3982-.074-1.8247-.349-3.5831-.939-5.2254-1.753-.2073-.1-.4147-.208-.6221-.308-1.3022-.639-2.6541-1.304-3.8568-2.151-2.5298-1.787-4.3545-3.29-5.9056-4.877-.9124-.931-1.8994-1.82-2.8532-2.675-.3982-.358-.8129-.731-1.2193-1.105-.2156-.2-.4313-.391-.6469-.574-.4148-.365-.8461-.739-1.2359-1.146-.4728-.499-.9456-1.03-1.3934-1.537-.5889-.665-1.2027-1.354-1.8414-1.994-.2073-.208-.3981-.432-.5806-.656-.4147-.499-.8045-.964-1.4017-1.246-1.2939-.624-2.6044-.524-3.9979-.408-.3318.025-.6718.05-1.0036.067-.4977.025-.9953.174-1.5096.324-.2986.091-.6138.183-.9289.249-.5723.125-1.1529.224-1.717.324-.3234.058-.6552.116-.9787.175-.3235.058-.6552.116-.9704.166-.7548.124-1.5345.257-2.2644.465-1.9243.557-3.89.706-5.7396.814-.224.009-.4396-.041-.647-.091-.0912-.025-.1742-.042-.2654-.058-.3484-.067-.705-.133-1.0451-.208-.7548-.158-1.5345-.324-2.3058-.366-1.493-.091-3.0606-.091-4.3463.931-.2322.183-.6054.224-.8874.174-.4728-.074-.9041.05-1.435.399-.5889.391-1.186.773-1.7749 1.163-.3069.2-.6221.399-.929.607-.1327.083-.2654.174-.3898.257-1.4101.914-2.87817 1.861-3.87349 3.299-.03318.049-.07465.083-.10783.108-.01658.016-.03317.024-.04147.033-.24053.307-.48107.615-.7216.905-.55572.698-1.13633 1.421-1.64228 2.169-.53084.789-.99532 1.661-1.43492 2.5-.09953.183-.19077.366-.2903.549-.08294.149-.16588.307-.24883.457-.40642.747-.82943 1.528-1.13632 2.326-.25712.665-.47278 1.362-.68013 2.035-.16589.549-.34007 1.114-.53913 1.67-.597196 1.662-.879202 3.423-1.14462 5.126-.124415.765-.24883 1.546-.3981278 2.318-.1575922.798-.2571242 1.629-.3566562 2.426-.066354.532-.132709 1.08-.215652 1.62-.588894 3.78-1.028494 7.502-1.302204 11.075-.05806.706-.09954 1.42-.14101 2.11-.02488.399-.04976.806-.07465 1.204-.02488.399-.05806.798-.09123 1.197-.06636.822-.13271 1.67-.1493 2.509-.01659.872 0 1.761.01659 2.625.01659.648.02488 1.321.02488 1.986 0 1.046-.04977 2.118-.09124 3.148v.092c-.02488.432-.04976.88-.07465 1.304-.04976.723-.09123 1.471-.09953 2.202 0 .448.07465.905.141 1.346.02489.149.04977.307.07465.457z" fill="#da6c4d" stroke="#000" stroke-miterlimit="10" stroke-width=".15"/><path d="m12.2608 188.767c-7.56447 0-14.24139-.042-14.78053-.133h-.00829v-.017c-.02488-.199-.05806-.407-.09124-.598-.07465-.449-.14929-.922-.14929-1.379 0-.739.04976-1.495.09953-2.218.02488-.424.05806-.864.07465-1.305v-.074c.04976-1.039.09123-2.102.09953-3.157 0-.657-.01659-1.33-.02489-1.978-.01658-.864-.03317-1.753-.01658-2.633.01658-.839.08294-1.695.14929-2.518.03318-.39.05806-.797.09124-1.188.02488-.398.04977-.806.07465-1.204.04147-.698.08294-1.413.141-2.119.27372-3.572.71332-7.311 1.302213-11.091.082943-.532.149297-1.08.215652-1.612.099532-.806.207358-1.636.36495-2.442.1492978-.765.2737124-1.554.398127-2.31.273713-1.711.55572-3.481 1.161208-5.159.19906-.548.36495-1.113.53913-1.662.20736-.681.42301-1.379.68013-2.052.31519-.806.7382-1.587 1.15291-2.343.08295-.149.16589-.307.24883-.456.09953-.183.19077-.358.2903-.54.4479-.848.91238-1.72 1.45151-2.526.50595-.756 1.08656-1.479 1.65057-2.185.24054-.299.48107-.607.72161-.906.01659-.025.04147-.049.06635-.066.02488-.025.04977-.042.06636-.067 1.0202-1.47 2.49658-2.425 3.93148-3.356.1327-.083.2654-.166.3899-.258.3068-.199.6054-.398.9123-.589.5889-.383 1.1944-.781 1.7916-1.172.7299-.482 1.2276-.482 1.5759-.432.2323.033.5557 0 .7216-.133 1.3437-1.071 2.9611-1.071 4.4873-.972.7796.05 1.5676.216 2.3307.374.34.075.6884.141 1.0368.208.0912.016.1824.041.2737.058.1907.05.3898.091.5889.083 1.833-.1 3.7905-.249 5.6899-.806.7465-.216 1.5344-.349 2.2892-.473.3152-.05.647-.108.9621-.167.3235-.058.6636-.116.9788-.174.564-.1 1.1446-.199 1.7086-.316.3069-.066.6138-.158.9124-.249.5059-.15 1.0368-.307 1.5593-.332.3318-.017.6719-.042.9953-.067 1.3603-.108 2.762-.216 4.1057.432.6304.308 1.0534.814 1.4681 1.305.1825.216.365.44.5723.639.6387.64 1.2608 1.338 1.8497 2.003.4478.506.9123 1.03 1.3934 1.528.3815.399.8045.773 1.2193 1.138.2156.191.4396.383.6552.582.4064.374.8212.748 1.2193 1.105.9538.864 1.9409 1.753 2.8615 2.683 1.5428 1.579 3.3592 3.074 5.8807 4.852 1.1861.839 2.5298 1.496 3.8237 2.135.2073.1.4147.208.6221.308 1.6256.806 3.3674 1.387 5.1756 1.736l.3981.075c.6304.124 1.2774.257 1.916.257 2.4966 0 4.7444.723 7.3654 1.803 1.0782.441 2.2726.607 3.3094.706.5889.059 1.2027 0 1.7916-.074.3069-.034.6138-.067.929-.083.2654-.017.5308-.034.7962-.042 1.0202-.058 2.0653-.116 3.1021-.133 1.7335-.025 3.3675-.473 5.1674-1.013 1.1114-.333 2.2228-.74 3.3007-1.13.374-.133.755-.275 1.128-.407 1.269-.457 2.364-1.18 3.608-2.136 1.767-1.354 3.343-3.107 4.936-5.508 1.144-1.728 1.841-3.273 2.189-4.868.233-1.072.025-1.77-.705-2.343-.29-.224-.414-.407-.414-.59 0-.199.157-.39.522-.648 1.037-.739 2.024-.914 3.218-.565 1.029.299 2.124.449 3.177.59.531.075 1.087.15 1.626.241.73.125 1.468.274 2.181.415.473.092.971.191 1.452.283.298.058.597.116.895.174.805.158 1.634.324 2.464.416.73.083 1.484.116 2.206.158.747.041 1.526.083 2.281.166.929.099 1.858.266 2.762.423.523.092 1.053.183 1.584.266 1.311.2 2.571.648 3.791 1.089.564.199 1.144.407 1.725.589 1.153.358 1.883 1.23 2.596 2.077l.1.117c.68.806 1.376 1.636 2.04 2.434.199.233.398.473.589.706.398.474.854 1.03 1.31 1.579.042.049.075.116.108.174.05.083.091.166.166.224.913.74 1.51 1.745 2.082 2.717.116.191.232.391.348.582.855 1.404 1.551 2.941 2.223 4.428l.058.116c.614 1.363 1.021 2.825 1.41 4.237.116.416.233.839.349 1.255.431 1.487.73 3.032 1.02 4.519.116.59.232 1.197.357 1.786.149.715.224 1.454.298 2.177.042.432.091.872.149 1.313.133.955.282 1.919.432 2.849.074.466.149.939.215 1.404.058.399.117.806.175 1.197.116.781.232 1.587.365 2.384.149.881.315 1.77.472 2.634.092.49.183.997.274 1.495.042.216.066.432.1.64.016.141.041.282.066.424.033.182.058.373.091.556.05.291.1.59.141.881.067.473.133.955.191 1.42v.025c.008.042 0 .083 0 .125 0 .058-.008.116 0 .158.182.457.216.939.249 1.412.025.374.058.731.149 1.072.299 1.088.373 2.218.448 3.306.058.823.116 1.679.265 2.509.083.424.042.715-.107.898-.166.199-.465.299-.979.307-.208 0-.415 0-.622 0-.083 0-.174 0-.257 0h-121.9269v-.025c.0995-.307.1825-.598.2654-.872.1659-.565.3069-1.055.4811-1.545.7962-2.177.8875-4.412.2737-6.63-.0581-.216-.1327-.465-.2737-.598-.9953-.914-1.4018-2.119-1.6506-3.066-.0166-.05-.0497-.1-.0995-.174-.0332-.042-.0664-.092-.1078-.15-.0166.067-.0332.125-.0498.183-.0332.108-.0581.191-.0498.266.0664.457.1493.93.224 1.379.0995.623.2073 1.263.2986 1.894 0 .033.0083.075.0166.108.0497.357.1078.764-.0166 1.063-.3318.765-.2323 1.496-.1327 2.269.0166.132.0414.282.058.415.0498.415.0249.847 0 1.263-.0249.448-.058.897-.0912 1.337-.0249.266-.0415.532-.0581.798-.0332.448-.058.897-.0912 1.329-.0083.191-.0249.382-.0332.565l-.0083.017c-.4645.124-12.2922.199-22.5108.199zm-14.76394-.158c.7299.1 10.21861.133 18.77004.125 8.5432-.017 17.9323-.075 18.4881-.183.0083-.183.0248-.366.0331-.549.0249-.432.0581-.88.0913-1.329.0166-.266.0414-.54.058-.797.0332-.441.0747-.889.0913-1.338.0249-.415.0497-.839 0-1.254-.0166-.142-.0332-.283-.0581-.416-.0995-.748-.2074-1.512.1327-2.293.1244-.291.0664-.689.0166-1.038 0-.034-.0083-.075-.0166-.108-.0912-.632-.199-1.28-.2986-1.895-.0746-.448-.1493-.922-.2239-1.379-.0083-.083.0166-.166.0497-.282.0166-.067.0415-.133.0581-.216v-.042l.0332.034c.0497.074.0912.132.1244.182.0581.083.0912.133.1078.191.4728 1.795 1.128 2.576 1.6423 3.049.1576.142.2239.391.2903.615.6221 2.235.5308 4.47-.2737 6.655-.1742.482-.3235.972-.4811 1.537-.0746.274-.1576.548-.2488.847h121.852.257.622c.506-.008.805-.099.954-.299.141-.174.174-.457.099-.872-.157-.831-.215-1.687-.265-2.518-.075-1.088-.149-2.218-.448-3.306-.091-.341-.124-.715-.149-1.08-.033-.465-.075-.956-.249-1.404-.025-.05-.017-.116-.008-.175 0-.041 0-.083 0-.124v-.025c-.058-.465-.125-.947-.191-1.421-.042-.299-.091-.598-.141-.88-.033-.183-.058-.366-.091-.557-.025-.141-.042-.283-.067-.424-.033-.207-.066-.432-.099-.639-.091-.499-.183-1.006-.274-1.496-.158-.864-.323-1.753-.473-2.634-.132-.789-.249-1.603-.365-2.384-.058-.39-.116-.797-.174-1.196-.074-.466-.141-.939-.215-1.404-.15-.931-.299-1.903-.432-2.858-.058-.432-.108-.881-.149-1.313-.075-.714-.149-1.454-.299-2.168-.124-.598-.24-1.205-.356-1.786-.291-1.488-.589-3.025-1.021-4.52-.124-.415-.24-.847-.348-1.263-.39-1.412-.788-2.874-1.402-4.237l-.058-.116c-.672-1.487-1.36-3.016-2.214-4.42-.116-.191-.233-.39-.349-.582-.572-.972-1.161-1.968-2.073-2.708-.075-.058-.125-.149-.174-.233-.034-.058-.067-.116-.108-.166-.448-.556-.913-1.105-1.311-1.578-.199-.233-.398-.474-.589-.706-.663-.798-1.352-1.629-2.04-2.435l-.1-.116c-.705-.839-1.443-1.711-2.579-2.06-.581-.183-1.161-.391-1.725-.59-1.22-.432-2.472-.889-3.783-1.088-.53-.084-1.069-.175-1.584-.266-.904-.158-1.833-.316-2.762-.424-.755-.083-1.534-.125-2.281-.166-.721-.042-1.476-.075-2.206-.158-.829-.091-1.659-.258-2.463-.415-.291-.059-.598-.117-.896-.175-.49-.091-.979-.191-1.452-.282-.713-.142-1.451-.283-2.181-.416-.539-.091-1.087-.166-1.617-.241-1.062-.141-2.157-.29-3.185-.59-1.187-.348-2.165-.174-3.194.557-.356.249-.506.44-.506.623 0 .166.125.349.398.565.739.582.954 1.288.722 2.376-.348 1.595-1.045 3.149-2.198 4.877-1.601 2.409-3.168 4.162-4.943 5.516-1.245.956-2.339 1.687-3.617 2.136-.373.132-.755.274-1.128.407-1.0781.39-2.1895.797-3.3009 1.13-1.7999.54-3.4339.996-5.1757 1.021-1.0368.017-2.0819.075-3.1021.133-.2654.017-.5308.034-.7962.042-.3069.016-.6221.05-.9207.083-.5972.066-1.211.133-1.7999.075-1.0367-.1-2.2311-.266-3.3177-.706-2.6127-1.072-4.8605-1.795-7.3488-1.795-.6386 0-1.2939-.133-1.9242-.258-.1327-.024-.2655-.049-.3982-.074-1.8081-.341-3.5582-.931-5.1839-1.737-.2074-.099-.4147-.207-.6221-.307-1.3022-.64-2.6459-1.296-3.832-2.135-2.5214-1.786-4.3379-3.282-5.8806-4.86-.9124-.931-1.8994-1.82-2.8533-2.684-.3981-.357-.8128-.731-1.2192-1.105-.2157-.199-.4396-.39-.6553-.581-.4147-.358-.8377-.731-1.2193-1.139-.4727-.498-.9372-1.021-1.3934-1.528-.5972-.665-1.211-1.363-1.8496-2.002-.1991-.2-.3899-.424-.5724-.64-.4064-.49-.8294-.989-1.4515-1.296-1.3353-.648-2.7371-.532-4.0891-.424-.3234.025-.6635.05-.9953.067-.5225.025-1.0451.182-1.551.332-.2986.091-.6055.183-.9124.249-.564.125-1.1446.225-1.7086.316-.3235.058-.6553.116-.9787.174-.3235.059-.647.117-.9622.167-.7548.124-1.5427.257-2.2892.473-1.9077.557-3.8652.698-5.6982.806-.1991.008-.3982-.042-.5972-.083-.0913-.025-.1825-.042-.2737-.058-.3484-.058-.6967-.133-1.0368-.208-.7631-.158-1.5511-.324-2.3307-.374-1.5262-.091-3.127-.091-4.4707.964-.1907.149-.5225.174-.7465.141-.6552-.1-1.1777.175-1.551.424-.5972.39-1.2027.789-1.7916 1.171-.3069.2-.6054.391-.9123.59-.1327.083-.2655.175-.3899.258-1.4266.922-2.90298 1.886-3.92318 3.348-.01659.033-.04977.05-.07465.075-.02489.016-.04977.041-.06636.058-.24053.307-.48107.614-.7216.905-.56402.698-1.13633 1.429-1.65057 2.185-.53913.798-1.00362 1.678-1.44322 2.518-.09953.182-.19077.365-.2903.54-.08294.149-.16588.307-.24883.456-.40642.756-.82943 1.537-1.14461 2.343-.26542.673-.47278 1.371-.68014 2.052-.16588.549-.34006 1.114-.53913 1.662-.605484 1.67-.887491 3.439-1.152909 5.151-.1244147.756-.2488296 1.545-.398127 2.309-.157592.806-.265419 1.637-.364951 2.443-.066354.532-.132709 1.08-.215652 1.612-.588901 3.78-1.028491 7.518-1.302211 11.091-.05806.706-.09953 1.421-.141 2.118-.02488.391-.04977.806-.07465 1.205s-.05806.798-.09124 1.188c-.06635.823-.13271 1.678-.1493 2.517-.01658.881 0 1.77.01659 2.634.01659.648.02489 1.321.02489 1.977 0 1.055-.04977 2.127-.09124 3.157v.075c-.02488.432-.04977.872-.07465 1.304-.04977.723-.09124 1.479-.09953 2.219 0 .457.07465.93.141 1.379.03318.191.06636.399.09124.59z" fill="#000"/><path d="m12.0786 188.95c-6.6935 0-14.05056-.033-14.63116-.125l-.1493-.025-.01659-.149c-.02488-.191-.05806-.382-.09124-.59-.07465-.465-.14929-.939-.14929-1.421 0-.748.04976-1.495.09953-2.226v-.058c.03317-.408.05806-.831.07465-1.238v-.092c.04976-1.03.09123-2.085.09953-3.132 0-.656-.01659-1.329-.02488-1.977-.01659-.864-.03318-1.761-.01659-2.642.01659-.847.08294-1.703.14929-2.526.03318-.39.06636-.797.09124-1.188.02488-.398.04977-.814.07465-1.204v-.017c.04147-.69.08294-1.404.141-2.102.27372-3.581.71332-7.319 1.302213-11.108.082943-.531.149297-1.071.215652-1.603.099532-.806.207358-1.645.36495-2.459.149298-.773.273713-1.545.3981276-2.301.2737124-1.72.5557194-3.506 1.1694974-5.193.19907-.54.36495-1.105.53084-1.645.20736-.681.42301-1.387.68843-2.069.32348-.822.74649-1.611 1.1612-2.367l.04147-.083c.06636-.125.13271-.25.19907-.374.08294-.158.16588-.316.24883-.474l.03317-.066c.4479-.848.91238-1.728 1.4598-2.534.51425-.765 1.09485-1.496 1.65887-2.193.20736-.266.47277-.59.71331-.906.03318-.042.06635-.075.09953-.1.02488-.025.03318-.033.03318-.033 1.03679-1.495 2.53802-2.467 3.98132-3.406l.0746-.05c.1078-.067.2157-.141.3152-.208.2737-.174.5474-.357.8211-.531l.1078-.067c.6553-.424 1.2027-.781 1.775-1.155.4148-.274.9788-.573 1.7087-.457.2156.034.4644-.008.5806-.099 1.4017-1.114 3.0523-1.114 4.6199-1.014.7963.05 1.5925.216 2.3639.374h.0166c.3317.075.6801.141 1.0119.208.0995.016.199.041.282.066h.0166c.1825.05.3566.091.5142.083 1.8248-.1 3.7656-.249 5.6485-.797.763-.225 1.551-.349 2.3141-.474h.0166c.3151-.05.6303-.108.9455-.166.3235-.058.647-.116.987-.175.5558-.099 1.1364-.199 1.7004-.315.2986-.067.5972-.15.8875-.241.5225-.158 1.0616-.316 1.6091-.341.3317-.016.6801-.041.987-.066 1.2275-.1 2.7537-.216 4.1969.448.4313.2.9456.657 1.5262 1.355.1741.216.3566.432.5557.631.6469.648 1.2607 1.338 1.8579 2.01l.0166.017c.4479.499.9041 1.022 1.3769 1.512.3732.399.7962.764 1.2026 1.122l.0166.016c.2157.183.4313.374.6387.574.3981.365.7962.731 1.1944 1.08l.0166.016c.9621.864 1.9491 1.753 2.8698 2.692 1.5344 1.57 3.3426 3.057 5.8475 4.835 1.1695.831 2.5049 1.487 3.7988 2.119.2156.108.423.207.6304.307 1.6091.798 3.3343 1.379 5.1258 1.72.1328.025.2655.05.3982.075.6221.124 1.2607.249 1.8828.249 2.5215 0 4.8024.731 7.44 1.811 1.0534.432 2.2395.59 3.2514.69.5723.058 1.1695 0 1.7501-.075.3069-.033.622-.067.9372-.083.2654-.017.5309-.034.7963-.042 1.0202-.058 2.0736-.116 3.1104-.133 1.7086-.025 3.326-.473 5.1092-1.005 1.1115-.332 2.2229-.739 3.2933-1.13l.074-.025c.349-.124.705-.257 1.054-.382 1.244-.449 2.322-1.163 3.55-2.102 1.75-1.346 3.309-3.082 4.893-5.467 1.137-1.711 1.825-3.231 2.165-4.802.216-1.005.033-1.628-.639-2.151-.232-.183-.489-.424-.489-.748 0-.332.307-.59.606-.798 1.086-.772 2.131-.955 3.384-.589 1.012.299 2.098.44 3.151.581.54.075 1.087.15 1.626.241.73.125 1.477.274 2.19.415h.033c.464.1.946.192 1.418.283.299.058.598.116.888.174h.008c.796.158 1.626.324 2.447.416.722.075 1.468.116 2.19.158.754.041 1.534.083 2.297.166.937.108 1.866.266 2.779.423.489.084 1.045.183 1.584.266 1.335.2 2.596.657 3.824 1.097.564.199 1.136.407 1.717.59 1.202.374 1.957 1.271 2.687 2.135l.099.116c.681.806 1.369 1.629 2.033 2.426l.605.723c.398.482.863 1.039 1.311 1.587.058.066.099.141.132.199.042.075.075.141.116.166.946.765 1.543 1.787 2.132 2.767.108.191.224.39.34.573.863 1.413 1.559 2.958 2.231 4.445l.058.125c.622 1.37 1.021 2.841 1.41 4.262.125.456.233.864.349 1.262.431 1.504.73 3.041 1.02 4.536v.042c.116.573.232 1.163.357 1.745.149.722.224 1.47.298 2.193.042.407.091.872.149 1.304.133.931.274 1.878.424 2.792v.058c.082.473.157.939.223 1.412.059.407.117.806.175 1.197.107.739.232 1.578.365 2.384.149.881.315 1.778.472 2.642v.017c.092.481.183.988.274 1.478.042.216.066.432.1.64v.058c.024.125.041.249.066.374.033.183.058.366.091.557v.058c.058.274.1.548.141.831.067.473.133.947.183 1.412v.033c.008.067 0 .125 0 .166v.075c.19.482.224.98.265 1.462.025.366.05.707.141 1.039.299 1.105.382 2.243.456 3.34.058.822.116 1.67.266 2.492.091.482.041.822-.15 1.055-.199.249-.547.366-1.128.382-.207 0-.414 0-.622 0-.083 0-.174 0-.265 0h-122.1257l.083-.266c.0995-.315.1824-.623.2571-.872.1659-.581.3069-1.063.481-1.553.7797-2.136.871-4.329.2655-6.514-.0498-.183-.1161-.415-.224-.515-.9124-.839-1.3437-1.919-1.5925-2.733.0498.332.1078.673.1659.997.0995.623.2074 1.262.2986 1.894l.0166.108c.058.382.1161.814-.0332 1.163-.3152.714-.2156 1.421-.1161 2.168.0166.142.0415.283.058.424.0498.432.0249.872 0 1.296-.0248.44-.058.889-.0912 1.321v.017c-.0249.266-.0415.531-.0663.806-.0332.44-.0581.888-.0913 1.345l-.0415.698-.141.042c-.4644.124-12.1677.199-22.743.199zm-14.74728-.183.12441.025c.57231.091 7.92937.125 14.62287.125 10.5753 0 22.2703-.075 22.7348-.2l.1244-.033.0414-.673c.0249-.457.0581-.906.0913-1.346.0166-.266.0414-.54.058-.806v-.016c.0332-.432.0747-.881.0913-1.321.0249-.424.0497-.856 0-1.288-.0166-.141-.0332-.283-.0581-.424-.0995-.756-.199-1.462.1161-2.185.1493-.34.083-.764.0332-1.146l-.0166-.108c-.0912-.632-.199-1.28-.2986-1.894-.0663-.416-.141-.84-.199-1.263h.0331c.2323.831.6553 2.044 1.6506 2.966.1161.108.1825.34.2323.531.6054 2.194.5225 4.395-.2655 6.539-.1824.49-.3234.972-.481 1.537-.0747.257-.1576.565-.2572.88l-.0663.225h122.1092.265.622c.564-.017.904-.125 1.103-.366.183-.224.224-.548.141-1.022-.149-.822-.207-1.67-.265-2.492-.075-1.097-.149-2.235-.448-3.34-.091-.332-.116-.673-.141-1.038-.033-.482-.075-.981-.265-1.454 0-.017 0-.05 0-.092 0-.05.008-.099 0-.166v-.033c-.058-.465-.125-.947-.191-1.412-.042-.275-.091-.557-.133-.831v-.058c-.041-.183-.074-.366-.099-.557-.017-.125-.042-.249-.058-.374v-.058c-.042-.208-.067-.424-.108-.631-.091-.491-.183-.997-.266-1.479-.157-.881-.323-1.77-.472-2.65-.133-.806-.258-1.645-.365-2.385-.058-.39-.116-.789-.175-1.196-.074-.474-.141-.939-.215-1.413v-.058c-.149-.914-.299-1.861-.432-2.791-.058-.44-.107-.897-.149-1.305-.074-.722-.149-1.47-.298-2.193-.125-.581-.241-1.171-.349-1.744v-.042c-.298-1.495-.597-3.032-1.028-4.536-.116-.407-.232-.806-.349-1.255-.389-1.42-.796-2.891-1.41-4.262l-.058-.124c-.672-1.487-1.36-3.024-2.223-4.437-.116-.191-.232-.382-.34-.573-.58-.989-1.186-2.01-2.123-2.766-.041-.034-.083-.108-.124-.175-.034-.058-.075-.133-.125-.199-.448-.549-.912-1.105-1.31-1.587l-.606-.723c-.663-.797-1.344-1.62-2.032-2.426l-.099-.116c-.722-.864-1.477-1.753-2.671-2.119-.581-.182-1.153-.39-1.717-.59-1.228-.44-2.488-.888-3.824-1.096-.531-.083-1.095-.175-1.584-.266-.904-.158-1.841-.316-2.77-.424-.763-.083-1.543-.124-2.29-.166-.721-.041-1.468-.075-2.189-.158-.821-.091-1.651-.249-2.447-.415h-.008c-.291-.058-.589-.116-.888-.175-.473-.091-.954-.182-1.418-.274h-.033c-.714-.149-1.46-.291-2.19-.423-.539-.092-1.095-.167-1.626-.241-1.053-.142-2.14-.291-3.16-.59-1.244-.366-2.281-.183-3.351.581-.29.208-.58.457-.589.773 0 .299.249.54.473.714.68.532.871 1.172.655 2.185-.34 1.571-1.028 3.099-2.165 4.811-1.584 2.392-3.143 4.129-4.901 5.475-1.236.947-2.315 1.661-3.567 2.11-.348.124-.705.257-1.053.382l-.075.025c-1.07.39-2.1815.797-3.2929 1.13-1.7916.54-3.409.988-5.1176 1.013-1.0368.017-2.0902.075-3.1104.133-.2654.017-.5308.034-.7962.042-.3069.016-.6221.05-.929.083-.5806.066-1.1861.125-1.7584.075-1.0202-.1-2.2063-.258-3.2596-.698-2.6376-1.08-4.902-1.803-7.4235-1.811-.622 0-1.2607-.133-1.8828-.25-.1327-.024-.2654-.049-.3981-.074-1.7916-.341-3.5251-.923-5.1342-1.72-.2073-.1-.4147-.208-.6221-.307-1.2939-.64-2.6293-1.296-3.807-2.127-2.5132-1.778-4.3214-3.265-5.8558-4.836-.9207-.938-1.9077-1.827-2.8699-2.691l-.0166-.017c-.3898-.357-.7962-.714-1.1943-1.08-.2074-.191-.4313-.382-.6387-.573l-.0166-.017c-.4064-.357-.8294-.723-1.211-1.121-.4645-.491-.9289-1.014-1.3768-1.512l-.0166-.017c-.5972-.673-1.211-1.363-1.8579-2.011-.1991-.199-.3816-.415-.5558-.623-.5806-.698-1.0948-1.154-1.5178-1.346-1.4349-.664-2.9611-.54-4.1887-.448-.3068.025-.6552.05-.987.066-.5474.025-1.0782.183-1.6008.341-.2903.091-.5972.183-.8875.241-.564.116-1.1446.224-1.7003.316-.3318.058-.6636.116-.987.174-.3152.058-.6387.108-.9456.166h-.0166c-.763.125-1.551.258-2.3058.482-1.8911.548-3.832.698-5.6567.798-.1659.008-.3401-.034-.5309-.075h-.0165c-.0913-.025-.1825-.05-.2821-.067-.34-.058-.6801-.133-1.0202-.199h-.0165c-.7714-.166-1.5594-.332-2.3556-.374-1.5677-.091-3.2099-.1-4.5951 1.005-.1161.092-.3815.142-.6055.1-.7216-.108-1.2773.183-1.6837.449-.564.374-1.1115.731-1.775 1.155l-.1078.066c-.2737.174-.5475.357-.8212.532-.1078.066-.2156.141-.3151.207l-.0747.05c-1.4432.939-2.93619 1.903-3.97298 3.398 0 0-.01659.017-.04147.042s-.06635.05-.09124.091c-.24053.316-.50595.64-.71331.906-.56401.706-1.14462 1.429-1.65886 2.193-.54743.806-1.00362 1.686-1.45151 2.534l-.04147.075c-.08294.158-.16589.315-.24883.473-.06635.125-.13271.249-.19906.374l-.04148.083c-.41471.764-.83772 1.545-1.1612 2.368-.26542.681-.48107 1.387-.68843 2.06-.16589.549-.34007 1.105-.53084 1.654-.605481 1.686-.887487 3.464-1.1612 5.184-.1161205.756-.240535 1.537-.398127 2.309-.157592.814-.265419 1.645-.364951 2.451-.066354.532-.132709 1.072-.215652 1.604-.5889 3.788-1.0285 7.527-1.30221 11.107-.05806.698-.09953 1.413-.13271 2.102v.017c-.02488.399-.04976.806-.07465 1.204-.02488.399-.05806.798-.09123 1.189-.06636.83-.13271 1.686-.1493 2.525-.01659.881 0 1.77.01659 2.634.01659.648.02488 1.321.02488 1.977 0 1.039-.04977 2.102-.09124 3.132v.091c-.02488.416-.04976.831-.07465 1.238v.059c-.04976.731-.09953 1.478-.09953 2.226 0 .482.07465.947.1493 1.412.03318.208.06635.399.09124.599l.01659.124zm14.97958-.199c-7.15804 0-13.52808-.034-14.6561-.108h-.01659v-.017c-.02489-.15-.04977-.299-.06636-.449-.07465-.457-.1493-.913-.141-1.362 0-.731.04976-1.479.09953-2.21v-.025c.02488-.415.05806-.856.07465-1.279v-.092c.04977-1.03.09124-2.093.09953-3.148 0-.657-.00829-1.313-.02488-1.961v-.025c-.01659-.814-.03318-1.745-.01659-2.625.01659-.831.08294-1.679.1493-2.493.03317-.457.06635-.822.09124-1.204.02488-.366.04147-.731.06635-1.097v-.108c.04147-.656.09124-1.404.141-2.11.27372-3.573.71331-7.303 1.302211-11.075.082944-.531.149298-1.063.215653-1.587v-.024c.099532-.798.207358-1.629.36494975-2.435.14929825-.772.27371225-1.553.39812725-2.318.273713-1.703.547425-3.464 1.152909-5.126.19907-.548.37325-1.113.53913-1.661.20736-.681.41472-1.379.68014-2.044.31518-.797.7299-1.578 1.13632-2.326l.02488-.042c.07465-.141.1493-.274.22395-.415.09953-.183.19077-.366.2903-.548.44789-.84.90408-1.712 1.43492-2.501.50595-.748 1.07826-1.471 1.64227-2.168.22395-.283.48107-.599.72161-.906 0-.008.02488-.025.04147-.042.03318-.025.07465-.058.10783-.108.99531-1.437 2.46345-2.384 3.87345-3.306.1327-.083.2654-.175.3981-.258.2986-.199.5972-.39.8958-.581l.0581-.033c.5723-.374 1.1695-.756 1.7418-1.139.5308-.349.9621-.473 1.4432-.398.2737.041.6469 0 .8709-.175 1.2939-1.03 2.8615-1.022 4.3628-.93.7714.049 1.551.207 2.3058.365.3401.075.6885.141 1.0368.208.083.016.1742.033.2571.058.2074.05.4148.1.6387.091 1.8496-.099 3.8154-.249 5.7397-.805.7382-.216 1.5178-.341 2.2726-.466.3152-.05.647-.108.9705-.166.3234-.058.6552-.116.9787-.174h.0166c.5557-.1 1.1363-.2 1.7003-.324.3069-.067.6221-.158.9207-.25.5225-.157 1.0119-.307 1.5178-.324.3318-.016.6719-.041 1.0036-.066 1.3935-.108 2.7123-.216 4.0062.415.5972.291.987.756 1.4017 1.255.1825.216.3733.44.5806.656.6387.64 1.2525 1.329 1.8414 1.994.4313.482.9124 1.03 1.3934 1.537.3899.407.8129.781 1.2276 1.147.2074.174.4313.382.6469.581.3899.357.7797.715 1.2193 1.105.9539.856 1.9409 1.745 2.8533 2.675 1.551 1.587 3.3757 3.091 5.9055 4.877 1.1944.847 2.5464 1.512 3.8486 2.152.2073.099.4147.207.6221.307 1.6422.814 3.3923 1.404 5.2171 1.753l.3981.075c.6387.124 1.2939.257 1.9492.257 2.4634 0 4.6946.723 7.2907 1.787 1.1031.448 2.3141.614 3.3592.722.6138.059 1.2358 0 1.833-.074.2986-.034.6055-.067.9124-.083.2654-.017.5308-.034.7963-.042 1.0119-.058 2.0652-.116 3.0937-.133 1.7584-.025 3.4007-.482 5.2172-1.022 1.1197-.34 2.2311-.739 3.3098-1.138l.049-.017c.357-.133.722-.265 1.087-.39 1.294-.465 2.397-1.196 3.658-2.16 1.791-1.371 3.367-3.132 4.976-5.558 1.162-1.753 1.867-3.315 2.215-4.935.166-.764.232-1.745-.78-2.534-.224-.174-.34-.324-.34-.44 0-.125.149-.283.44-.499.995-.714 1.907-.872 3.06-.531 1.045.307 2.14.456 3.21.598.531.074 1.079.149 1.609.241.73.124 1.468.274 2.182.415.473.091.97.191 1.451.282.291.059.581.117.871.167h.025c.805.166 1.642.332 2.48.423.738.083 1.493.117 2.215.158.746.042 1.518.083 2.264.166.921.1 1.85.266 2.754.416h.008c.514.091 1.053.183 1.576.266 1.294.199 2.546.648 3.757 1.08.564.199 1.145.407 1.734.589 1.095.341 1.783 1.155 2.505 2.019l.099.117c.697.822 1.402 1.67 2.024 2.417l.605.723c.399.474.855 1.03 1.311 1.579.033.041.058.091.091.141.05.099.116.207.208.282.887.723 1.476 1.712 2.04 2.667v.017c.116.182.232.382.348.565.846 1.395 1.543 2.924 2.207 4.403l.058.124c.605 1.346 1.012 2.809 1.393 4.213.116.415.232.839.357 1.262.431 1.479.73 3.016 1.012 4.503v.05c.124.573.232 1.163.356 1.745.15.706.224 1.445.299 2.152.041.432.091.88.149 1.321.141.98.291 1.969.432 2.849.074.474.149.939.215 1.412.058.399.116.806.174 1.197.108.739.233 1.587.365 2.393.15.88.316 1.777.473 2.641.091.507.183.997.274 1.496.041.216.066.432.099.64.017.133.042.274.067.423.033.183.058.374.091.557v.025c.05.282.099.565.141.856.075.49.133.997.191 1.437v.091c0 .075-.017.158.016.249.166.432.208.906.241 1.363.025.366.058.748.157 1.105.291 1.072.365 2.193.44 3.273.058.839.116 1.695.274 2.534.066.366.041.607-.067.74-.124.149-.389.224-.837.241-.199 0-.407 0-.614 0h-.075c-.066 0-.124 0-.191 0h-121.6357v-.025c.0663-.208.1244-.408.1824-.599v-.025c.1742-.564.3152-1.046.4894-1.528.8128-2.218.9041-4.486.2737-6.755-.0663-.232-.141-.515-.3318-.689-.9538-.881-1.3519-2.052-1.6008-2.974-.0248-.083-.0663-.15-.1327-.241-.0331-.05-.0746-.108-.1161-.175l-.2156-.34-.0913.39c-.0166.075-.0414.141-.058.2-.0415.132-.0747.24-.0581.357.0664.448.141.897.2157 1.329v.058c.1078.582.2156 1.246.3068 1.886l.0166.108c.0498.332.1079.706 0 .955-.3566.815-.2488 1.604-.141 2.377.0166.132.0415.274.0498.415.0498.399.0249.822 0 1.23-.0249.432-.0581.88-.0912 1.304v.124c-.0249.233-.0498.466-.0664.698-.0332.449-.0581.898-.0912 1.338l-.0249.415h-.0166c-1.4515.108-12.5825.175-22.2868.175zm-14.63952-.142c2.745424.183 34.28872.125 36.90972-.058l.0249-.39c.0249-.432.0581-.889.0912-1.338.0166-.232.0332-.473.0498-.698v-.124c.0415-.432.0829-.873.0995-1.305.0249-.407.0415-.822 0-1.221-.0166-.141-.0331-.282-.0497-.415-.1079-.773-.2157-1.57.1493-2.393.1078-.241.0497-.615 0-.939l-.0166-.108c-.0913-.639-.1991-1.304-.2986-1.886v-.058c-.083-.44-.1576-.889-.224-1.337-.0166-.125.0166-.233.0581-.366.0166-.066.0415-.125.0581-.208l.1161-.465.2654.399c.0498.075.0829.125.1161.174.0664.1.1161.167.141.25.2405.922.6387 2.085 1.5842 2.957.1991.183.2737.474.3401.706.6304 2.277.5391 4.553-.2737 6.771-.1742.482-.3152.964-.4811 1.529v.025c-.0663.183-.1161.382-.1742.581h121.595.191.074.614c.44-.008.697-.083.813-.224.108-.133.124-.365.058-.714-.158-.839-.216-1.703-.274-2.534-.074-1.08-.149-2.202-.439-3.274-.1-.365-.125-.747-.158-1.113-.033-.457-.066-.922-.241-1.346-.041-.091-.033-.182-.024-.257 0-.033 0-.067 0-.083-.059-.449-.117-.956-.191-1.438-.042-.282-.091-.573-.133-.847v-.025c-.033-.183-.066-.374-.099-.557-.025-.141-.042-.29-.067-.423-.033-.208-.058-.424-.099-.64-.092-.498-.183-.989-.274-1.487-.158-.872-.324-1.761-.473-2.642-.133-.806-.257-1.645-.365-2.393-.058-.39-.116-.789-.174-1.196-.075-.474-.141-.939-.216-1.412-.132-.881-.29-1.87-.431-2.85-.058-.44-.108-.889-.149-1.321-.075-.714-.15-1.446-.299-2.152-.124-.581-.24-1.171-.348-1.744v-.05c-.299-1.487-.597-3.016-1.02-4.503-.125-.424-.241-.848-.357-1.263-.39-1.404-.788-2.858-1.393-4.204l-.059-.124c-.663-1.479-1.352-3.008-2.206-4.395-.116-.183-.232-.382-.34-.565v-.017c-.572-.955-1.161-1.944-2.04-2.658-.1-.083-.166-.191-.216-.291-.033-.058-.058-.108-.091-.141-.456-.557-.913-1.105-1.311-1.579l-.605-.723c-.622-.747-1.327-1.595-2.024-2.417l-.1-.117c-.721-.855-1.401-1.661-2.496-2.002-.589-.183-1.17-.39-1.734-.59-1.211-.432-2.455-.88-3.749-1.071-.53-.083-1.061-.175-1.576-.266h-.008c-.904-.158-1.833-.316-2.754-.424-.746-.083-1.517-.125-2.264-.166-.73-.042-1.476-.075-2.215-.158-.837-.091-1.667-.258-2.48-.415h-.024c-.282-.059-.581-.117-.871-.175-.49-.091-.979-.191-1.452-.282-.713-.142-1.451-.283-2.173-.416-.531-.091-1.078-.166-1.609-.241-1.062-.141-2.165-.29-3.21-.598-1.136-.332-2.04-.174-3.027.532-.282.199-.423.357-.432.473 0 .1.108.241.324.408 1.02.797.954 1.794.788 2.567-.349 1.62-1.062 3.19-2.223 4.943-1.609 2.426-3.193 4.195-4.985 5.566-1.261.964-2.372 1.703-3.666 2.169-.365.133-.73.265-1.087.39l-.049.017c-1.0787.39-2.1901.797-3.3098 1.138-1.8165.548-3.4671 1.005-5.2255 1.03-1.0285.017-2.0818.075-3.0937.133-.2655.017-.5309.033-.7963.042-.2986.016-.6055.049-.9041.083-.6055.066-1.2275.133-1.8413.074-1.0451-.099-2.2644-.265-3.3675-.722-2.5961-1.064-4.8273-1.778-7.2824-1.787-.6636 0-1.3188-.133-1.9575-.257-.1327-.025-.2654-.05-.3981-.075-1.8248-.349-3.5914-.939-5.2337-1.753-.2074-.1-.4147-.208-.6221-.307-1.3022-.64-2.6542-1.305-3.8569-2.152-2.5297-1.795-4.3545-3.298-5.9055-4.877-.9124-.93-1.8994-1.819-2.8533-2.675-.4313-.39-.8211-.739-1.2192-1.105-.2157-.199-.4479-.399-.647-.573-.4147-.366-.846-.74-1.2358-1.147-.4811-.506-.9705-1.055-1.3935-1.537-.5889-.664-1.2027-1.354-1.8413-1.994-.2074-.207-.3981-.44-.5806-.656-.4147-.49-.8046-.964-1.3935-1.246-1.2856-.623-2.5961-.515-3.9895-.407-.3318.025-.6719.05-1.0036.066-.4977.025-.9871.166-1.5096.324-.2986.092-.6138.183-.9207.25-.564.116-1.1446.224-1.7003.315h-.0166c-.3235.058-.6553.117-.9787.175-.3235.058-.6553.116-.9705.166-.7548.125-1.5344.249-2.2643.465-1.9243.557-3.8901.706-5.7397.814-.2239.017-.4396-.041-.6469-.091-.083-.025-.1742-.042-.2572-.058-.3483-.058-.6967-.133-1.0368-.208-.7547-.158-1.5344-.324-2.2975-.365-1.493-.092-3.0523-.092-4.3379.93-.2323.183-.6138.224-.8958.183-.4728-.075-.8958.05-1.4183.39-.5806.382-1.1695.765-1.7418 1.138l-.0581.034c-.2986.191-.5972.39-.8958.581-.1327.083-.2654.175-.3898.258-1.4101.914-2.86986 1.861-3.86518 3.298-.03317.05-.07465.083-.10782.116-.01659.009-.03318.025-.03318.034-.24053.307-.49766.631-.72161.905-.55572.698-1.13632 1.421-1.63398 2.169-.53083.789-.98702 1.661-1.43491 2.5-.09954.183-.19077.366-.29031.549-.07464.141-.14929.274-.22394.415l-.02489.041c-.40642.748-.82943 1.529-1.13632 2.327-.25712.664-.47277 1.362-.68013 2.035-.16589.548-.34007 1.122-.53913 1.67-.597194 1.653-.879201 3.415-1.144619 5.118-.124415.764-.248829 1.545-.3981269 2.318-.1575921.797-.2571241 1.628-.3566561 2.426v.024c-.066354.524-.132709 1.064-.215652 1.587-.588896 3.78-1.028496 7.502-1.302206 11.075-.05806.706-.09953 1.454-.14101 2.11v.108c-.02488.366-.04976.731-.07464 1.097-.02489.382-.04977.756-.09124 1.196-.06636.831-.13271 1.678-.1493 2.501-.01659.88 0 1.802.01659 2.625v.025c.01659.64.02488 1.304.02488 1.961 0 1.046-.04976 2.118-.09124 3.148v.092c-.02488.423-.04976.864-.07464 1.279v.025c-.04977.723-.09124 1.47-.09954 2.202 0 .44.07465.897.14101 1.345.02488.15.04976.3.06635.449z" fill="#000"/><path d="m50.9375 66.3926c.141.1495.2903.2991.423.4403-.1161-.1745-.2405-.3406-.423-.4403z" fill="#000"/><path d="m52.016 67.6471c-.0747-.0415-.1327-.0831-.1908-.1412.0912.191.1742.3987.282.6147.224.457.3981.3324.6138.0997 0-.0332 0-.0747 0-.108.0083-.1827.0166-.3323 0-.4818-.2157.108-.4894.1329-.7133.0083z" fill="#fcd095"/><path d="m55.7402 96.3166c-.6885-1.4289-1.4184-2.4508-1.634-4.0293 0-.0582-.282-.3323-.2903-.3905-.1244-.4818-.1161-1.0135-.1576-1.5037-.0995-1.1465-.1908-2.293-.4811-3.4063-.423-1.6117-1.3851-2.9825-2.0818-4.4696-.6553-1.4041-1.1447-2.8829-1.5096-4.3949-.2903-1.1964-.506-2.4093-.6801-3.6223-.4313 2.6918-.7134 5.4251-.8792 8.1418-.2074 3.3398-.0415 6.6796-.0415 10.0277 0 3.4893-.3235 6.9288-.6719 10.3935-.3483 3.431-.6469 6.92-.1658 10.36.1161.822.2322 1.678.4976 2.467.2737.831 1.0617 1.072 1.7833 1.412 1.6672.798 3.326 1.596 4.9932 2.385.0083 0 .0166.008.0249.016 1.1363-1.802 1.8579-3.846 2.3058-5.948.5889-2.8.705-5.666.8045-8.516.0415-1.171.0996-2.334.1493-3.506.0166-.398.0581-.614-.0166-.889-.0165-.024-.0248-.049-.0414-.074-.8212-1.3877-1.211-2.9995-1.9077-4.4534z" fill="#fcd095"/><path d="m49.0463 71.8085c.3483 3.2567.8294 6.5466 2.0736 9.5956.5889 1.4456 1.4515 2.7417 2.0652 4.1706.1328.3074.2406.6314.3401.9471 0-.8474.0083-1.6865 0-2.5422-.0332-3.0241-.3732-6.0233-.6055-9.0307-.1161-1.5038-.2156-3.0075-.2322-4.5112 0-.565 0-1.1299.0166-1.6949-.3401.2244-.7133.2825-.9456-.2077-.1327-.2741-.0995-.5981-.2571-.8806-.1493-.2575-.3732-.4735-.5806-.6896-.2074-.216-.423-.4403-.5889-.6895-.4811.0581-.9538.3988-1.1944.7976-.4479.731-.3649 1.6782-.2986 2.4923.0664.7477.141 1.4872.224 2.2349z" fill="#fff2e3"/><path d="m120.204 84.1552c-.29-2.9161-.514-5.8321-.614-8.7565-.099-2.941-.008-5.8737.1-8.8064.099-2.8331.182-5.6827-.05-8.5157-.199-2.5007-.622-4.9764-1.236-7.4107-1.219-4.8103-3.21-9.4212-5.881-13.6-1.327-2.0853-2.828-4.0543-4.478-5.8904-1.46-1.6117-3.434-3.157-3.874-5.4001-.398-.3323-.722-.7477-1.128-1.0801-.506-.4237-1.095-.7144-1.684-1.0052-.489-.241-.97-.4902-1.4015-.8225-.5059-.3988-.8543-.9388-1.4349-1.2379-.5889-.3074-1.2773-.3988-1.9243-.5151-.7796-.1412-1.5676-.2658-2.3555-.3655-1.4433-.1745-2.9031-.2659-4.3629-.216-1.5178.0415-3.0025.2991-4.5038.5067-.6967.0997-1.4017.2077-2.0901.3573-.6802.1495-1.3271.4071-2.0073.5483-1.2109.2576-2.4468-.216-3.6246.1828-1.1363.3822-1.8745 1.5785-3.0357 1.8942-.5143.1412-.7548-.1994-1.2193-.3157-.5889-.1495-1.1695.2243-1.7501.2658-1.2524.0997-2.538.0665-3.6661.7228-.5391.3157-1.0533.7062-1.5759 1.0385-.5225.3323-1.0368.673-1.5095 1.0634-1.07.889-1.775 2.1269-2.5713 3.2484-.7879 1.1216-1.5593 2.2598-2.4053 3.3398-.9124 1.1465-1.8331 2.2847-2.6708 3.4894-.7548 1.0966-1.634 2.1683-2.2975 3.3231-.3484.6065-.6304 1.2462-.8958 1.8943-.2323.5566-.5723 1.1298-.7299 1.7114-.0913.3157-.0664.6563-.1576.972-.0747.2659-.2074.5068-.3235.756-.282.5899-.5723 1.1798-.8543 1.7779-1.2525 2.6503-2.0404 5.4168-1.9575 8.3744.0166.6231.0581 1.2462-.0663 1.861-.083.4237-.3484.7893-.3982 1.2047-.0912.7726.0996 1.6449.2655 2.3926.0829.3905.2405.6148.3981.9638.1659.3738.1742.7809.1659 1.1797 0 .7145-.1908 1.6865.0497 2.3678.0166.0581.0415.108.0664.1578.2488 0 .4894.0665.705.1911.1659.0997.2986.2409.4147.3988.0996.1329.1659.2907.2655.4237.1078.216.282.3489.5308.4154.058-.0582.1244-.1163.1825-.1662-.0166-.0415-.0249-.0831-.0415-.1246-.083-.216.2488-.4071.3981-.2326.0996.1246.141.2409.1493.3572.0498.1828.0747.3489.083.5317.0912-.1329.1824-.2658.2571-.3988.4064-.6646.5972-1.4705.8211-2.2099.2074-.6646.3981-1.3292.564-2.0022.2903-1.1631.4645-2.3594 1.0949-3.3979.3815-.6397.8875-1.0551.9787-1.8361.0664-.5649.1991-1.0966.3815-1.645.1991-.623.4977-1.2046.7051-1.836.1907-.5982.3649-1.1963.5723-1.7862.4479-1.2545 1.1363-2.3761 1.4847-3.6721.2405-.9139.2405-2.0355.6884-2.8663.2488-.4569.6304-.8557.9953-1.2295 1.128-1.1714 2.3888-2.2182 3.6329-3.2567.9788-.8142 1.999-1.5869 2.9611-2.426.564-.4901 1.1197-.9554 1.8994-1.0218.5972-.0582 1.0948.216 1.6754.2907.647.0831 1.3271.108 1.9824.0997 1.352-.0249 2.6044-.432 3.9564-.2243 1.3851.2077 2.8532.457 4.1803.9056.6801.2326 1.2856.7062 1.8414 1.1382.4893.3738 1.0119.7643 1.4183 1.2462.0415.0166.0746.0498.0995.0914.8875 1.5618 1.775 3.132 2.6625 4.6939 1.7999 3.1654 3.5914 6.339 5.3913 9.5043 1.6506 2.9078 3.2763 5.8322 4.0642 9.1055.7797 3.2484.9124 6.6214 1.1198 9.9446.2405 3.7053.4727 7.419.7133 11.1243.1161 1.8278.2488 3.6638.3483 5.4916.083 1.5702.0249 3.0988-.5889 4.561-.5723 1.3625-1.41 2.617-2.0984 3.9297-.6221 1.1883-1.2525 2.3593-1.9243 3.5143-.2157.864-.4479 1.728-.6719 2.592-.6054 2.31-1.2109 4.636-1.6174 6.987-.3898 2.227-.6386 4.52-.2903 6.771.1493.972.3318 1.944.6138 2.883.2986.988.788 1.445 1.7584 1.794.8295.299 1.7087.457 2.5547.682.8875.232 1.5593.623 2.3556 1.08 2.2976 1.321 4.8276 2.185 7.4066 2.783 1.253.291 2.513.523 3.782.723.382.058.805.074 1.178.166.349.083.257.108.456-.092.175-.174.257-.432.432-.606.34-.341.854-.582 1.244-.881.481-.365.954-.747 1.402-1.155.87-.781 1.675-1.636 2.397-2.55 1.476-1.861 2.646-3.98 3.409-6.231 1.824-5.342 1.177-11.266.663-16.774-.547-5.8403-1.377-11.6558-1.957-17.4963z" fill="#fcd095"/><path d="m112.415 130.022s-.074-.008-.132-.024c-.034-.009-.083-.025-.141-.034-.241-.058-.498-.083-.747-.116-.141-.017-.29-.033-.423-.05-1.385-.216-2.629-.449-3.782-.723-2.903-.681-5.325-1.595-7.4152-2.791l-.0581-.033c-.763-.441-1.4183-.815-2.2892-1.047-.282-.075-.564-.141-.846-.208-.564-.133-1.1529-.274-1.7169-.473-1.0037-.358-1.4847-.848-1.775-1.812-.2406-.805-.4313-1.694-.6138-2.891-.3733-2.409-.0415-4.885.2903-6.779.3981-2.285.9704-4.519 1.6257-6.995l.0663-.25c.1991-.764.4148-1.561.6055-2.342.5806-1.014 1.1695-2.094 1.916-3.5229.2488-.4736.5226-.9471.7797-1.404.4645-.8142.9455-1.6533 1.3105-2.5257.6469-1.5452.6635-3.1736.5889-4.5527-.0664-1.2462-.1493-2.509-.2323-3.7386-.0414-.5815-.0746-1.1714-.1161-1.7529l-.7133-11.1244c-.0249-.3738-.0498-.756-.0663-1.1298-.1742-2.9161-.365-5.9319-1.0534-8.8065-.8046-3.3564-2.5381-6.4054-4.056-9.0971-1.7998-3.1654-3.5914-6.339-5.3913-9.5043l-2.6624-4.694s-.0498-.0665-.083-.0831h-.0083c-.3898-.4652-.8875-.8474-1.3685-1.2129l-.1162-.0914c-.5474-.4237-1.1197-.8557-1.7666-1.0801-1.3437-.4569-2.8616-.7061-4.1804-.9055-.8211-.1246-1.6257-.0166-2.4053.0831-.4977.0664-1.0202.1329-1.5428.1412-.705.0083-1.3685-.0166-1.9823-.0997-.224-.0249-.4396-.0831-.6387-.1412-.3401-.0914-.6635-.1828-1.0202-.1413-.788.0748-1.3437.5567-1.8828 1.0219-.5806.4985-1.1861.9886-1.775 1.4622-.3898.3157-.7962.6397-1.1861.9637-1.1612.9637-2.48 2.0604-3.6329 3.2567l-.0249.025c-.3566.3738-.7216.756-.9621 1.2046-.282.5317-.3898 1.188-.4894 1.8194-.058.349-.1161.7145-.199 1.0468-.1991.7561-.5226 1.4622-.8378 2.1435-.2239.4902-.4562 1.0052-.6469 1.5286-.1493.4154-.282.8391-.4064 1.2545-.0581.1745-.1079.3573-.1659.5318-.0996.3157-.2323.6314-.3567.9304-.1244.2908-.2488.5982-.3484.8973-.199.6065-.3151 1.1216-.3732 1.6367-.0663.5649-.3401.9388-.6387 1.3375-.1161.1579-.2405.324-.3483.5068-.4977.8225-.7133 1.7613-.9207 2.6752-.0498.2326-.1078.4735-.1659.7145-.1576.6314-.34 1.2877-.564 2.0022-.0415.1412-.0829.2824-.1244.4237-.1825.6148-.3733 1.2545-.6967 1.7945-.0747.1246-.1659.2658-.2654.3988l-.0498.0664v-.083c0-.1911-.0332-.349-.083-.5234 0-.1247-.0497-.241-.141-.349-.0663-.0831-.1741-.0748-.2488-.0249-.0746.0415-.1327.1329-.0995.2243.0166.0416.0249.0748.0415.1163v.0249l-.1991.1911h-.0166c-.2571-.0747-.4396-.216-.5474-.4403-.0498-.0665-.0913-.1329-.1327-.2077-.0415-.0748-.083-.1495-.1327-.216-.141-.1828-.2655-.3074-.4065-.3905-.199-.1163-.4313-.1827-.6967-.1911h-.0166v-.0166c-.0249-.0498-.0497-.0997-.0663-.1578-.1742-.4985-.1245-1.1465-.083-1.7281.0166-.2326.0332-.4486.0332-.648 0-.3738 0-.7892-.1659-1.1714-.0415-.0914-.0829-.1828-.1244-.2659-.1161-.2243-.2074-.4237-.2737-.7144-.1493-.6813-.3567-1.6035-.2654-2.401.0249-.2327.1161-.4487.2073-.6564.0747-.1744.1576-.3655.1908-.5566.1078-.5483.0912-1.1133.0746-1.6616v-.1994c-.0829-2.6917.5558-5.4334 1.9492-8.3827.1493-.324.3152-.648.4645-.9637.1327-.2659.2654-.54.3898-.8142.0249-.0498.0498-.108.0747-.1578.0912-.1911.1907-.3905.2488-.5899.0415-.1578.0581-.324.0747-.4819.0165-.1661.0331-.3323.0829-.4901.1078-.3822.2903-.7643.4645-1.1382.0912-.1911.1825-.3905.2654-.5733.2737-.6563.5557-1.2877.8958-1.8942.4313-.756.9704-1.4788 1.4847-2.1849.2737-.3739.5557-.7561.8128-1.1382.6884-1.0053 1.4598-1.969 2.198-2.8995.1576-.1994.3152-.3905.4645-.5899.6801-.8557 1.3105-1.7613 1.9243-2.6419.1576-.2326.3235-.4652.4893-.6979.1659-.2409.3318-.4818.4977-.7227.6055-.8973 1.2359-1.8278 2.0819-2.534.481-.4071 1.0119-.756 1.5095-1.0717.224-.1412.4396-.2908.6553-.4403.2986-.2077.6138-.4154.9207-.6065.9538-.5566 2.0321-.6231 3.0689-.6896.199-.0083.4064-.0249.6054-.0415.224-.0166.4479-.0831.6636-.1495.3566-.108.7216-.216 1.0948-.1163.1659.0415.2986.108.4313.1827.2406.1246.4479.2243.7714.1413.5972-.1579 1.0949-.565 1.5759-.9638.4479-.3655.9124-.7477 1.4598-.9304.6387-.216 1.3105-.1745 1.9575-.133.5474.0333 1.1114.0665 1.6672-.0498.34-.0748.6884-.1745 1.0202-.2825.3234-.0997.6552-.1994.9953-.2741.6967-.1579 1.4183-.2576 2.0901-.3573.224-.0332.4396-.0665.6636-.0997 1.2524-.1828 2.5463-.3738 3.8403-.4154 1.3685-.0415 2.8366.0332 4.3628.2243.7465.0914 1.5178.2077 2.3556.3656.0746.0166.1575.0249.2322.0415.5723.0997 1.1695.2077 1.692.4736.3567.1827.6387.4652.9041.7394.1659.1744.3484.3489.5392.5068.4308.3406.9288.5898 1.3938.8224.63.3074 1.194.5982 1.692 1.0053.207.1745.398.3656.572.5483.174.1828.357.3656.547.5234v.0166c.34 1.7613 1.643 3.0906 2.895 4.37.324.3323.664.6813.971 1.0219 1.642 1.8194 3.151 3.805 4.487 5.8903 2.679 4.2038 4.661 8.7815 5.889 13.6084.622 2.4426 1.037 4.9432 1.236 7.4107.232 2.833.157 5.6494.049 8.5156-.107 2.9577-.199 5.8571-.099 8.8064.091 2.642.282 5.4251.614 8.7566.273 2.7167.597 5.4749.92 8.1418.365 3.0656.747 6.2309 1.037 9.3551l.058.639c.506 5.409 1.029 11.008-.721 16.151-.772 2.251-1.916 4.353-3.418 6.239-.721.914-1.534 1.77-2.405 2.551-.456.407-.929.797-1.402 1.155-.149.108-.315.216-.481.315-.274.166-.556.341-.763.557-.083.083-.149.191-.207.291-.067.108-.133.224-.224.307-.025.025-.05.05-.067.075-.058.066-.091.091-.141.091zm-17.3016-26.543c-.1991.781-.4064 1.578-.6055 2.342l-.0663.25c-.647 2.475-1.2193 4.702-1.6174 6.987-.3318 1.886-.6636 4.361-.2903 6.762.1824 1.188.3732 2.077.6137 2.883.282.947.7548 1.429 1.7418 1.778.5558.199 1.1447.341 1.7087.474.282.066.564.133.846.207.8709.233 1.5344.607 2.2975 1.047l.0581.033c2.0823 1.197 4.5033 2.102 7.3983 2.783 1.153.275 2.397.507 3.782.715.141.025.282.042.423.05.249.025.515.058.755.116.058.017.108.025.141.033.094.023.166.006.216-.049 0 0 .041-.042.075-.075.082-.083.149-.191.215-.299.067-.108.133-.216.216-.308.215-.216.497-.39.771-.565.166-.099.332-.207.481-.315.473-.358.946-.748 1.402-1.155.871-.781 1.675-1.637 2.397-2.551 1.493-1.877 2.638-3.971 3.409-6.222 1.75-5.135 1.228-10.726.722-16.126l-.058-.64c-.291-3.1236-.672-6.2889-1.037-9.3545-.315-2.6669-.647-5.4251-.921-8.1418-.332-3.3398-.531-6.1229-.614-8.7649-.099-2.9493-.008-5.8487.1-8.8147.108-2.8662.182-5.6743-.05-8.5073-.199-2.4675-.614-4.9598-1.236-7.4024-1.219-4.8186-3.201-9.3962-5.88-13.5917-1.336-2.0853-2.845-4.0709-4.479-5.8904-.307-.3406-.631-.6729-.971-1.0218-1.261-1.2878-2.563-2.617-2.903-4.3866-.191-.1662-.373-.349-.547-.5234-.183-.1828-.365-.3739-.573-.5484-.489-.407-1.053-.6978-1.675-1.0052-.473-.2326-.962-.4819-1.4017-.8308-.1991-.1579-.3733-.3323-.5475-.5068-.2654-.2659-.5391-.5483-.8874-.7311-.5143-.2658-1.1032-.3655-1.6755-.4735-.0829-.0167-.1576-.025-.2322-.0416-.8378-.1495-1.6091-.2741-2.3556-.3655-1.5262-.1828-2.986-.2576-4.3545-.216-1.294.0415-2.5879.2326-3.8403.4154-.224.0332-.4396.0664-.6636.0996-.6718.0997-1.3851.2077-2.0818.3573-.3318.0748-.6636.1745-.9871.2742-.3317.0996-.6718.2077-1.0202.2824-.5557.1163-1.128.0831-1.6754.0499-.647-.0416-1.3105-.0831-1.9409.1329-.5391.1828-.9953.5566-1.4432.9222-.4811.3988-.987.8058-1.6008.972-.3484.0914-.5723-.0249-.8046-.1412-.1244-.0665-.2654-.133-.423-.1745-.3566-.0914-.7133.0166-1.0616.1163-.224.0665-.4479.1329-.6802.1496-.199.0166-.4064.0249-.6055.0415-1.0367.0665-2.1067.1246-3.044.6812-.3152.1828-.622.3988-.9206.5982-.2157.1496-.4396.2991-.6553.4403-.4977.3157-1.0202.6647-1.5013 1.0635-.8377.7061-1.4681 1.6283-2.0735 2.5256-.1576.2409-.3235.4818-.4977.7228-.1659.2326-.3235.4652-.4894.6978-.6138.8807-1.2441 1.7862-1.9243 2.6419-.1575.1994-.3151.3905-.4644.5899-.7465.9305-1.5096 1.9025-2.198 2.8995-.2654.3821-.5392.7643-.8129 1.1382-.5142.7061-1.0451 1.4289-1.4764 2.185-.3483.5981-.622 1.2378-.8957 1.8859-.083.191-.1742.3904-.2655.5815-.1741.3656-.3566.7477-.4645 1.1299-.0414.1578-.058.324-.0746.4818-.0166.1662-.0332.3324-.0829.4902-.0581.2077-.1576.4071-.2489.6065-.0249.0498-.0497.108-.0746.1578-.1327.2742-.2571.5401-.3899.8142-.1575.3157-.3151.6397-.4644.9637-1.3935 2.9411-2.0238 5.6744-1.9492 8.3578v.1994c.0249.5483.0415 1.1216-.0664 1.6782-.0414.1994-.1161.3822-.199.565-.0913.216-.1742.4154-.2074.6397-.0912.7892.1161 1.7114.2654 2.3843.0581.2825.1576.4736.2655.6979.0414.0831.0829.1662.1244.2659.1742.3904.1742.8141.1742 1.188 0 .1994-.0166.4237-.0332.6563-.0415.5733-.083 1.2213.0829 1.7032.0166.0498.0415.0997.0581.1412.2654.0083.4976.0748.705.1994.1493.0914.282.216.423.3988.0498.0664.0995.1495.141.216.0415.0664.083.1412.1244.2077.0996.2077.2737.3406.506.4071l.1576-.1496s-.0249-.0665-.0332-.0997c-.0498-.1246.0249-.2409.1244-.2991.0995-.0581.2323-.0664.3235.0416.0995.1163.1493.2409.1493.3738.0415.1496.0663.2908.0746.4487.0747-.108.1493-.2244.2157-.3324.3235-.5317.5142-1.1631.6884-1.7779.0415-.1412.083-.2824.1244-.4237.224-.7144.4065-1.3708.564-2.0022.0581-.2326.1162-.4818.1659-.7145.2074-.9138.423-1.8609.929-2.6917.1161-.1828.2322-.349.3484-.5151.2903-.3905.5557-.7643.622-1.3127.0581-.5151.1825-1.0385.3816-1.6449.0995-.3074.2239-.6148.3483-.9056.1244-.2991.2572-.6148.3567-.9305.058-.1745.1078-.3572.1659-.5317.1327-.4154.2654-.8391.4064-1.2545.1908-.5234.423-1.0385.647-1.537.3151-.6812.6303-1.3874.8377-2.1351.0912-.324.141-.673.199-1.0385.0996-.6397.2074-1.296.4977-1.8361.2405-.4569.6138-.8391.9787-1.2129l.0249-.0249c1.1529-1.1964 2.4717-2.293 3.6329-3.2567.3899-.3241.7963-.6481 1.1861-.9638.5889-.4735 1.1944-.9554 1.775-1.4622.5474-.4735 1.1031-.9554 1.916-1.0301.3732-.0333.7133.0581 1.0451.1495.2073.0582.4147.1163.6303.1412.6138.0748 1.2774.108 1.9741.0997.5225-.0083 1.0368-.0747 1.5344-.1412.788-.0997 1.5925-.2077 2.422-.0831 1.3188.1994 2.8366.4486 4.1886.9056.6553.2243 1.2276.6646 1.7833 1.0883l.1161.0914c.4811.3656.9787.7477 1.3686 1.213.0415.0166.0829.0581.1078.0997l2.6625 4.6939c1.7998 3.1654 3.5914 6.339 5.3913 9.5043 1.5261 2.6918 3.2597 5.7408 4.0642 9.1138.6884 2.8829.8792 5.8986 1.0534 8.823.0249.3739.0497.7561.0663 1.1299l.7134 11.1243c.0414.5816.0746 1.1715.1161 1.753.0829 1.2213.1659 2.4924.2322 3.7386.0747 1.3874.0581 3.0158-.5972 4.5777-.3649.8723-.846 1.7197-1.3188 2.5256-.2654.4569-.5308.9305-.7796 1.404-.7465 1.4293-1.3354 2.5093-1.916 3.5143z" fill="#000"/><path d="m98.5389 96.1928c.7382-1.5952.7962-3.2401.6967-4.9682-.2074-3.6139-.4562-7.2196-.6884-10.8252-.2157-3.4561-.3816-6.9122-.6885-10.36-.3151-3.4894-1.0368-6.7959-2.5795-9.9612-1.4847-3.0407-3.2597-5.9402-4.9268-8.8812-1.7501-3.0906-3.5002-6.1811-5.2503-9.2717-.4811-.6646-1.2608-1.2046-1.9243-1.6699-.3401-.2409-.6967-.4984-1.0783-.6646-.5474-.2326-1.1944-.3323-1.7833-.4652-1.4929-.349-2.9859-.7062-4.5121-.457-1.3353.216-2.7288.3074-4.0642.0748-.6138-.108-1.1197-.3739-1.7667-.2077-.4893.1246-.8543.4403-1.2192.7643-2.198 1.9358-4.6117 3.6057-6.6521 5.7159-.3732.3821-.8211.8142-1.0285 1.3209-.2073.5151-.2405 1.1382-.3566 1.6782-.1327.6398-.2903 1.2795-.5143 1.8943-.2322.648-.5723 1.2378-.8543 1.8609-.2737.6148-.4811 1.2628-.6884 1.9109-.1908.6064-.3567 1.2295-.6055 1.8028-.2737.6231-.5226 1.2545-.647 1.9274-.1078.5899-.1078 1.0967-.4727 1.6034-.3733.5234-.7382.9638-.9871 1.5702-.5308 1.2961-.705 2.7417-1.1031 4.0792-.3733 1.2545-.7133 2.4509-1.5262 3.4977-.0331.0498-.0829.0997-.1327.1578-.0332.8308-.0415 1.6616-.0249 2.4924.0332 1.7114.1659 3.4146.3069 5.126.2903 3.4478.5972 6.8707.4894 10.3351-.0249.9222 0 1.8443.0581 2.7748.0414.5899.0995 1.1798.1575 1.7696.0083.0914.0166.1828.0166.2742.0332.2908.0747.5815.1162.8723.282.889.7962 1.7779 1.1695 2.6253.6137 1.4041 1.2358 2.8081 1.8496 4.2121.2737.6148.7797 1.3796.8709 2.0856.987 1.844 1.7999 3.747 2.6873 5.657.5889 1.263 1.2442 2.501 2.0487 3.639.8792 1.255 2.0156 2.709 3.351 3.49 3.7324 2.21 8.2279 3.572 12.5741 2.899 6.7433-1.038 11.6287-6.488 15.0377-12.005 1.1777-1.902 2.1731-3.896 3.243-5.8569.4562-.8391.9788-1.645 1.3852-2.509z" fill="#fff2e3"/><path d="m76.6257 116.764c-3.3343 0-6.934-1.055-10.343-3.074-1.3602-.806-2.5132-2.293-3.3592-3.498-.7216-1.022-1.3685-2.185-2.057-3.647-.2322-.507-.4727-1.022-.6967-1.512-.6221-1.371-1.269-2.791-1.9989-4.146-.0581-.506-.3401-1.0382-.5806-1.5117-.1078-.1994-.1991-.3905-.282-.5733l-1.8497-4.2121c-.1244-.2908-.2737-.5898-.4147-.8723-.282-.5733-.564-1.1631-.7548-1.753-.0414-.2825-.0829-.5815-.1161-.8806 0-.0914 0-.1828-.0166-.2825-.058-.6231-.1161-1.188-.1576-1.7696-.0663-.9305-.0912-1.861-.058-2.7748.0995-3.3481-.1825-6.7212-.4645-9.9779l-.0332-.3572c-.141-1.6367-.2737-3.3896-.3069-5.126-.0166-.864-.0083-1.7031.0249-2.4924v-.0166c.0498-.0498.0912-.108.1244-.1495.7714-.997 1.1115-2.1352 1.4764-3.3398l.0415-.1496c.1576-.5234.282-1.0717.3981-1.6034.1908-.8308.3815-1.6865.705-2.4758.2074-.5067.4977-.8972.8046-1.3209.058-.0831.1244-.1662.1825-.2493.2903-.3987.3483-.7892.4147-1.2462.0166-.108.0331-.2243.058-.3489.1244-.7062.3982-1.3708.647-1.9274.1908-.4403.34-.9139.4728-1.3708.0414-.1413.0829-.2825.1327-.4321.1907-.5981.3981-1.2711.6884-1.9108.0995-.2326.2157-.4652.3235-.6895.1825-.3822.3815-.7727.5225-1.1798.1908-.54.3567-1.1215.5143-1.8942.0331-.1744.0663-.3572.0912-.54.0581-.3905.1244-.7892.2654-1.1382.1908-.4569.5806-.8557.9207-1.2129.0415-.0416.0746-.0748.1161-.1163 1.2856-1.3293 2.7371-2.5007 4.1389-3.6306.8377-.673 1.7003-1.3708 2.5132-2.0853.4064-.3572.7547-.648 1.2275-.7726.4645-.1247.8543-.0167 1.2608.0913.1658.0416.3317.0914.5142.1164 1.1695.1994 2.4966.1744 4.0559-.0748 1.5096-.2409 3.0109.108 4.4624.4486l.058.0166c.1493.0333.2986.0665.4479.0997.4562.0997.9207.1911 1.3354.3739.3567.1495.6884.3821 1.0036.6148l.1659.1163c.647.4569 1.3769.972 1.8496 1.62l5.2586 9.28c.4396.7809.9041 1.5702 1.3437 2.3345 1.2276 2.1185 2.4966 4.3118 3.5832 6.5467 1.41 2.8911 2.2311 6.0565 2.5795 9.9695.2239 2.4591.365 4.9681.506 7.3941.058.972.1161 1.9856.1824 2.9742.0747 1.188.1493 2.3678.2323 3.5558.1576 2.3844.3152 4.8518.4562 7.2694.0912 1.6035.0746 3.3149-.6968 4.9765-.2654.5649-.5806 1.1216-.8875 1.6533-.1658.2824-.3317.5732-.4893.864-.3069.5649-.6138 1.1382-.9124 1.6951-.7382 1.379-1.493 2.808-2.3307 4.162-1.9658 3.174-4.0725 5.766-6.2788 7.693-2.7371 2.401-5.6899 3.855-8.7837 4.329-.7299.116-1.4847.166-2.2477.166zm-18.3968-15.902c.7299 1.355 1.3686 2.775 1.999 4.138.2239.498.4562 1.005.6967 1.512.6801 1.462 1.3271 2.617 2.0487 3.639.846 1.204 1.9906 2.683 3.3426 3.489 4.1803 2.467 8.6427 3.498 12.5576 2.899 3.0772-.473 6.0217-1.927 8.7505-4.311 2.198-1.928 4.3048-4.512 6.2705-7.677.8377-1.354 1.6008-2.783 2.3307-4.162.2986-.5568.6055-1.13.9124-1.695.1576-.2907.3318-.5815.4894-.864.3069-.5317.6303-1.08.8875-1.645.763-1.6532.7879-3.3564.6884-4.9515-.141-2.4259-.2986-4.8934-.4562-7.2694-.0747-1.1881-.1576-2.3678-.2322-3.5558-.0664-.9887-.1245-1.9939-.1825-2.9743-.141-2.4259-.2903-4.9349-.506-7.3857-.3483-3.9047-1.1695-7.0701-2.5795-9.9446-1.0866-2.2265-2.3556-4.4198-3.5832-6.5384-.4396-.7643-.904-1.5535-1.3436-2.3345l-5.2503-9.2716c-.4562-.6314-1.1861-1.1465-1.8331-1.6035l-.1659-.1163c-.3152-.2243-.6386-.4569-.9953-.6065-.4064-.1744-.8792-.2741-1.3271-.3655-.1493-.0332-.2986-.0665-.4479-.0997l-.058-.0166c-1.4432-.3406-2.9362-.6896-4.4375-.4403-1.5593.2492-2.8947.2741-4.0725.0747-.1825-.0332-.3484-.0747-.5143-.1163-.4064-.108-.7879-.2077-1.2358-.0914-.4645.1247-.8046.3988-1.211.7561-.8211.7227-1.6837 1.4206-2.5132 2.0936-1.4017 1.1298-2.8532 2.3013-4.1388 3.6222-.0332.0416-.0747.0748-.1161.1163-.3401.349-.7217.7394-.9124 1.1964-.141.3406-.1991.7394-.2654 1.1215-.0249.1828-.0581.3739-.0913.5484-.1659.7726-.3235 1.3625-.5142 1.9025-.1493.4071-.3401.8058-.5309 1.1797-.1078.2243-.2239.4569-.3234.6813-.282.6397-.4977 1.3126-.6802 1.9108-.0414.1412-.0912.2825-.1327.432-.141.4569-.282.9388-.4728 1.3791-.2405.5566-.5142 1.2213-.6386 1.9191-.0249.1164-.0415.2327-.0581.3407-.0663.4403-.1244.864-.423 1.2711-.0581.0831-.1244.1661-.1825.2492-.3069.4154-.5972.8059-.7962 1.3044-.3235.7892-.5143 1.6366-.6967 2.4674-.1245.5317-.2489 1.0884-.4065 1.6118l-.0414.1495c-.3567 1.2047-.6968 2.3512-1.4847 3.3564-.0332.0499-.0747.0997-.1244.1496-.0332.7892-.0415 1.62-.0249 2.484.0332 1.7281.1659 3.4811.3069 5.1177l.0331.3573c.2821 3.265.5641 6.638.4645 9.9861-.0249.9139 0 1.8444.0581 2.7665.0415.5816.0995 1.1465.1576 1.7696.0083.0914.0166.1911.0166.2825.0331.2991.0746.5899.1161.8723.1825.5816.4728 1.1714.7465 1.7364.141.2908.2903.5898.4147.8806l1.8496 4.2121c.083.1828.1742.3656.282.5733.2489.4735.5226 1.0137.5889 1.5117z" fill="#000"/><path d="m54.8447 94.3066c.0913.2908.1908.5816.3069.8641.2986.756.6553 1.4871 1.0451 2.2016-.4479-1.0219-.8958-2.0438-1.352-3.0657z" fill="#000"/><path d="m69.9316 66.9967v.2326c.1245.0831.2489.1828.3816.2493 1.0119.4403 2.0321.8557 3.0357 1.3043.5308.241 1.0285.5483 1.5427.8225.3484.1828.7217.2077.9705-.1246.2986-.3988-.0581-.6397-.3152-.8807-1.3852-1.2794-3.044-1.8194-4.9102-1.7862-.2323 0-.4645.1164-.7051.1745z" fill="#fff"/><path d="m92.3266 70.2385c-.141-.1662-.1825-.2659-.2572-.2991-1.3436-.6148-2.7454-.7644-4.172-.4487-.3484.0748-.6635.4902-.9041.8142-.1161.1579-.0829.5068.0083.6979.0498.0997.4064.0997.5972.0581 1.2276-.2824 2.4468-.6064 3.7242-.6397.3068 0 .6137-.108.9953-.1827z" fill="#fff"/><g fill="#190602"><path d="m69.9316 66.9982c.2323-.0582.4645-.1745.7051-.1745 1.8662-.0332 3.525.5068 4.9102 1.7862.2571.2409.6138.4902.3152.8807-.2488.324-.6221.3073-.9705.1246-.5142-.2742-1.0119-.5816-1.5427-.8225-1.0036-.457-2.0238-.8723-3.0357-1.3044-.141-.0581-.2571-.1661-.3816-.2492 0-.0748 0-.1578 0-.2326z"/><path d="m92.326 70.2385c-.3899.0747-.6884.1744-.9953.1827-1.2774.0333-2.4966.3573-3.7242.6397-.1991.0416-.5474.0416-.5972-.0581-.0995-.1911-.1244-.54-.0083-.6979.2406-.324.5557-.7394.9041-.8142 1.4266-.3157 2.8367-.1661 4.172.4487.0747.0332.1162.1329.2572.2991z"/><path d="m95.1955 112.251c.0498 0 .0498-.075 0-.075-.0497 0-.0497.075 0 .075z"/><path d="m61.0148 69.8896c1.3022-1.429 3.4339-1.6616 5.2586-1.8527 1.8248-.1911 3.7491-.1828 5.607.0332.1244.0166.2571-.1246.2405-.2409-.0912-.7643-.9289-.9222-1.5759-1.0136-.9704-.1412-1.9326 0-2.8367.3656-.2488.0997-.2073.4403.0664.4652 1.0534.1163 2.0985.1163 3.1518 0 .2323-.0249.3401-.4071.0581-.4569-1.8082-.3323-3.6495-.3988-5.466-.1579-.904.1163-1.7998.3074-2.6707.5816-.5309.1661-1.0949.3323-1.2774.9139-.058.191.1327.3489.3069.3074 2.2644-.4985 4.5287-1.0053 6.7848-1.5038.2654-.0581.2156-.5068-.0664-.4818-1.634.1163-3.3011.1744-4.8936.5981-1.2691.3407-2.5547.9638-3.0109 2.2847-.0746.2077.1742.3573.3484.2659.6553-.349 1.211-.8391 1.8496-1.2296.7714-.4653 1.6838-.6148 2.5713-.7394 1.8164-.2409 3.6578-.2742 5.4825-.1412.3069.0249.2986-.4487 0-.4736-1.8994-.1329-3.8071-.0914-5.6899.1662-.7962.108-1.6257.2492-2.3473.6231-.7216.3738-1.3602.972-2.1067 1.3708l.3483.2658c.4562-1.3126 1.916-1.7945 3.1519-2.0604 1.41-.299 2.8615-.3572 4.3047-.4652l-.0663-.4819c-2.2644.4985-4.5287.997-6.7931 1.4955.0996.0997.2074.2077.3069.3074.1825-.5733 1.4515-.7228 1.9492-.8474.7796-.1911 1.5676-.3241 2.3639-.3905 1.5012-.1413 3.0108-.0665 4.4955.2077l.058-.457c-1.0533.108-2.0984.108-3.1518-.0166l.0664.4653c.5971-.2493 1.2192-.3988 1.8745-.4071.3898 0 1.8579 0 1.9243.5982l.2405-.241c-2.0487-.2243-4.1057-.1994-6.1378.0914-1.775.2493-3.7325.54-4.9103 2.0355-.0995.1329.0664.3157.1825.1827z"/><path d="m88.9588 70.2383h-.0497s-.0415.0664 0 .0664h.0497s.0332-.0498 0-.0581h-.0497s-.0415.0498 0 .0581h.0497c.0415 0 .0415-.0664 0-.0664z"/><path d="m87.2339 71.1593c1.4266-.5151 2.8283-.7311 4.3379-.5649 1.5096.1661 3.2431.7726 4.678 1.3459.2406.0913 1.269.0498 1.0534-.0748-1.1861-.673-3.55-1.6367-4.8688-1.9939-1.2275-.3406-2.5463-.6314-3.7988-.2493-.2654.0831-.1576.4819.1161.4154 1.2608-.3157 2.563-.0166 3.7823.3324 1.2026.3489 2.3472.8474 3.4338 1.4622l.1742-.4154c-2.7288-1.0801-6.2539-2.0521-8.9662-.3822-.0663.0415-.0249.1578.0498.1246z"/></g><path d="m92.2846 94.9698c-.1161.0581.141-.54-1.269-.2243-2.0487.4569-4.0311 1.08-6.1544 1.0052-1.211-.0415-2.8449-.0664-4.0227.2326-1.8746.4819-2.8699.4985-4.678-.3489-.7299-.3489-1.7833-.8557-2.5464-1.1216-1.4764-.5151-3.0772-.6646-4.5702-1.1382-1.2524-.3987-2.762-1.4206-3.4753-1.3625-.6387.0499.2571.9887.929 2.4675.6138 1.3459 1.0285 2.8746 1.7915 4.1207.7631 1.2462 1.775 2.4097 2.8865 3.3647 1.0036.864 2.1897 1.462 3.3841 2.027.5059.241 1.0284.424 1.5593.573.0083.025.6055.158.8792.192.4396.066 1.4598.066 1.5013.024 2.339-.166 4.6697-1.213 6.5442-2.484 2.7371-1.852 5.0263-4.4028 7.0833-6.97.0664-.0831.0581-.1828.0249-.2575l.1327-.1247z" fill="#000"/><path d="m71.4493 94.7377c1.2939.3406 2.5795.7228 3.7158 1.4622 1.4847.9637 3.0523 1.6367 4.8854 1.2877.5142-.0997 1.0202-.1993 1.5344-.2741.7714-.108 1.551-.1911 2.3224-.2742.3981-.0415 4.4541-.2908 4.4624.0665 0 .1745-.0415.6646-.2903.9803-.141.0914-.5309.2991-.6802.3905-1.0616.6563-2.2146 1.0136-3.3758 1.4788-1.0782.4316-2.198.7806-3.326 1.0386-.5806.133-1.1695.249-1.7667.341-.0249 0-.0414 0-.0663 0 0 0-.0083 0-.0166-.009-1.1115-.099-2.1399-.158-3.2182-.507-.7631-.249-1.4764-.606-2.1731-1.0131-.7133-.4154-1.3686-.9056-1.9907-1.429-.3234-.2742-.622-.5649-.9538-.8308-.5308-.432-.9539-.7726-1.3686-1.0634-.0414-.4154 0-1.0219 0-1.1216.0747-.9139 1.1115-.8225 2.3059-.5151z" fill="#fff"/><path d="m85.0938 101.75c-1.2607.897-2.6542 1.637-4.1305 2.11-.8544.274-1.7004.432-2.563.515-.0166 0-.0415-.016-.0664-.016-1.3105-.067-2.4717-.308-3.6577-.881-1.1613-.565-2.3142-1.138-3.2929-2.002-1.974-1.7367-3.3758-3.9632-4.3794-6.3725 0 0 .0083.0083.0166.0166.0415.0416.5806.5816.6221.6148 0 0 .0083.0083.0166.0166 1.0367.9305 2.538 1.9275 2.8615 2.2266.7382.6812 1.493 1.3375 2.339 1.8776.8045.5153 1.6672.9723 2.5712 1.2873.4894.175 1.0451.341 1.6091.441 0 .016 0 .033.0249.041.2488.067.5226.075.8046.067.3566.016.705 0 1.0285-.058.0414-.009.0663-.034.0912-.059.6387-.074 1.2773-.182 1.9077-.324 1.2939-.282 2.5546-.689 3.7739-1.213 1.269-.5396 2.48-1.1959 3.6246-1.9602.2572-.1745.4977-.3656.7465-.5567.3733-.2409.8377-.54 1.3935-.9139-1.6423 1.861-3.3012 3.6888-5.3499 5.1428z" fill="#ffd0c0"/><path d="m95.0297 102.896c-.7134 2.883-1.5594 5.733-2.1649 8.64-.5474 2.634-.987 5.392-.6054 8.084.1741 1.213.3732 2.492.8211 3.639.2986.764.9704 1.121 1.7169 1.387 1.07.382 2.2146.532 3.2929.906.5971.208 1.1031.581 1.6588.897.7549.432 1.5429.814 2.3389 1.155 3.326 1.421 6.901 2.102 10.468 2.584.049 0 .082-.034.107-.067.241-.332.44-.698.78-.93.63-.424 1.244-.864 1.825-1.354 1.236-1.022 2.339-2.194 3.309-3.465 1.949-2.559 3.31-5.566 3.915-8.731.755-3.963.44-8.084.125-12.08-.316-3.9964-.838-8.3082-1.328-12.4538-.481-4.0958-.953-8.2-1.219-12.3207-.265-4.1789-.207-8.3329-.05-12.5201.141-3.8133.158-7.6183-.414-11.3984-.515-3.4146-1.419-6.771-2.688-9.9862-1.252-3.1985-2.861-6.2642-4.785-9.1055-.938-1.3874-1.95-2.725-3.036-3.9961-1.153-1.3542-2.522-2.5505-3.575-3.9795-.523-.6979-.896-1.4705-1.037-2.3428l-.348.1495.083.1496.265-.2659c-.506-.3822-.879-.9056-1.385-1.2877-.539-.4071-1.136-.6979-1.742-.997-.531-.2658-1.078-.5649-1.5011-.9886-.423-.4237-.763-.8142-1.327-1.0717-1.1529-.5234-2.5796-.6231-3.8237-.7893-1.4432-.1911-2.8947-.3074-4.3545-.2908-1.4847.0166-2.9279.2243-4.3877.432s-2.7952.4154-4.1555.8308c-.7548.2327-1.5013.349-2.2892.2493-.5475-.0748-1.0783-.108-1.6257.0166-1.1529.2575-1.9326 1.1714-2.9196 1.7447-.4396.2575-.6801.2907-1.1612.0498-.1659-.0831-.3401-.1412-.5309-.1579-.5971-.0581-1.1363.2576-1.7252.2991-1.1031.0748-2.2146.0748-3.2513.5151-.5641.241-.9788.6397-1.493.9471-.5475.324-1.0866.648-1.6008 1.0219-1.0036.7311-1.6838 1.5868-2.3805 2.5921-.8626 1.2462-1.7086 2.5256-2.6293 3.7302-.8709 1.1299-1.7833 2.2183-2.6376 3.3648-.8377 1.1298-1.5925 2.3179-2.4302 3.4477-.788 1.0635-1.2525 2.3013-1.7667 3.506-.2323.5483-.4313.997-.5226 1.5868-.1161.7394-.5308 1.4207-.8626 2.0853-.5972 1.2379-1.1778 2.4841-1.5925 3.7884-.4147 1.3044-.6718 2.6503-.7548 4.0211-.0414.6812-.0166 1.3542 0 2.0354.0166.8059-.141 1.3957-.4064 2.1435-.2073.5732-.0497 1.3209.0249 1.9025.0912.6812.1991 1.3043.5308 1.9025.6221 1.1382-.199 2.6336.3401 3.805.1825.3905.4811.6979.7714 1.0053.2073.216.4313.432.5806.6895.1576.2825.1327.6065.2571.8807.3981.8474 1.2359.0415 1.5676-.3822.8129-1.0468 1.1446-2.2431 1.5262-3.4976.3981-1.3376.5806-2.7832 1.1031-4.0792.2489-.5982.6138-1.0468.9871-1.5702.3732-.5234.3649-1.0136.4727-1.6034.1244-.673.3733-1.3044.647-1.9275.2571-.5815.4147-1.2046.6055-1.8028.199-.648.4064-1.296.6801-1.9108s.6221-1.213.8543-1.861c.2323-.648.3816-1.2545.5143-1.8942.1161-.54.1493-1.1631.3566-1.6782.2074-.5151.6553-.9305 1.0285-1.321 2.0404-2.1102 4.4624-3.7801 6.6521-5.7158.3649-.3241.7299-.6314 1.2192-.7644.647-.1661 1.1446.0997 1.7667.2077 1.3437.2326 2.7371.1413 4.0642-.0747 1.5262-.2493 3.0192.108 4.5121.4569.5806.1329 1.2276.2326 1.7833.4652.3816.1662.7382.4237 1.0783.6647.6635.4735 1.4432 1.0052 1.9243 1.6699.1659.2243.5225.0332.3815-.2244l-.0663-.1246c-.141-.2492-.5143-.0249-.3816.2243 1.775 3.1321 3.55 6.2642 5.325 9.3963 1.6671 2.941 3.4421 5.8405 4.9268 8.8812 1.5427 3.157 2.2643 6.4719 2.5795 9.9612.3069 3.4478.4645 6.9122.6885 10.36.2322 3.6056.481 7.2196.6884 10.8252.0995 1.7281.0415 3.3731-.6967 4.9682-.3982.8723-.9207 1.6699-1.3852 2.509-1.07 1.9609-2.0653 3.9549-3.2431 5.8569-3.4172 5.525-8.3026 10.975-15.0376 12.005-4.3462.665-8.8417-.698-12.5742-2.899-1.3353-.79-2.4717-2.243-3.3509-3.49-.8045-1.146-1.4598-2.376-2.0487-3.639-1.1197-2.409-2.1233-4.81-3.5085-7.0862-.8294-1.3708-1.4598-2.9576-2.057-4.4531-.6469-1.6283-1.0782-3.1071-1.2275-4.8518-.141-1.5619-.2986-3.1072-.9207-4.561-.6221-1.4539-1.4764-2.7334-2.0653-4.1706-1.2441-3.049-1.7252-6.339-2.0735-9.5957-.083-.7394-.1576-1.4871-.224-2.2348-.0746-.8142-.1493-1.7613.2986-2.4924.3235-.5234 1.0368-.9554 1.6672-.7477.6303.2077.6718 1.0136 1.2275 1.3126.5557.2991 1.4681-.3157.9622-.9138-.1493-.1745-.4811.0083-.3982.2326.1576.4237.1576.6979.1327 1.1548-.0414.8142-.0497 1.6283-.0331 2.4425.0248 1.5038.1244 3.0075.2405 4.5112.2405 3.049.5889 6.0897.6055 9.1554.0083 2.1434-.0498 4.2287.1576 6.3722.0497.5566.0249 1.1381.2571 1.6532.1742.3988.3484.7893.5225 1.1881 1.07 2.4259 2.1317 4.8435 3.2017 7.2695.2156.482.0497 1.038.0248 1.57-.058 1.255-.1078 2.501-.1576 3.755-.1078 2.883-.282 5.791-.987 8.599-.3566 1.437-.8045 2.966-1.6588 4.187-.7051 1.014-1.6755 1.778-2.704 2.434-2.115 1.338-4.1554 2.111-6.0466 3.789-.2073.183.141.482.3733.324 2.8035-1.894 5.2752-3.506 8.0787-5.4.141-.092.1741-.341 0-.424-1.5677-.748-3.1851-1.387-4.7693-2.094-.6386-.282-1.5759-.54-1.9823-1.146-.423-.64-.4977-1.687-.6138-2.426-.5557-3.464-.282-6.995.0581-10.468.3483-3.506.705-6.9787.7133-10.5095 0-3.3648-.1659-6.7378.0249-10.0942.1824-3.1155.5142-6.2392 1.0533-9.3132.0498-.3074-.4147-.4403-.4727-.1329-.4811 2.7582-.788 5.558-.9954 8.3495-.2571 3.3979-.1327 6.7875-.1078 10.1938.0249 3.7053-.282 7.3442-.6552 11.0245-.3567 3.523-.6553 7.087-.1659 10.609.1244.881.2322 1.87.5806 2.692.2737.665.8377.964 1.4598 1.255 1.8496.872 3.7739 1.603 5.6235 2.484v-.424c-2.8035 1.894-5.3996 3.606-8.1948 5.5.0996.124.2738.199.3733.324 1.775-1.57 3.6329-2.301 5.6401-3.514 1.8248-1.105 3.2348-2.476 4.0311-4.478 1.0616-2.651 1.4764-5.509 1.6754-8.342.1908-2.633.3235-5.3.3567-7.942.0083-.764-.5806-1.6283-.8792-2.3095-.6138-1.4041-1.2359-2.8081-1.8497-4.2122-.3898-.8806-.9372-1.8028-1.2026-2.725-.0996-.3406-.0747-.7975-.1079-1.1548-.0497-.5566-.1078-1.1132-.1493-1.6699-.0663-.9221-.0912-1.8443-.058-2.7748.1078-3.4644-.1991-6.8873-.4894-10.3351-.141-1.7031-.2737-3.4145-.3069-5.126-.0166-.8972-.0083-1.7862.0332-2.6834.0249-.5317.0332-.8059-.1576-1.2878l-.3981.2327-.1991.1827c-.2488-.0664-.4313-.2077-.5308-.4154-.0996-.1329-.1659-.2907-.2654-.4237-.1162-.1578-.2489-.299-.4148-.3987-.3898-.2327-.8791-.241-1.3022-.1164-1.1612.3573-1.5925 1.5121-1.6174 2.6337-.0414 1.6034.2572 3.265.4562 4.8518.1991 1.5868.4479 3.1736.8295 4.7355.3649 1.5037.8543 2.9909 1.5095 4.3949.6968 1.4954 1.6589 2.8662 2.0819 4.4697.4396 1.6616.1742 3.4478.6636 5.0844.4478 1.5204 1.045 2.6669 1.7335 4.0958.6884 1.429 1.2524 3.2152 2.0735 4.6025.6885 1.172 1.2608 2.418 1.8082 3.664 1.0783 2.459 2.1565 4.902 3.8652 7.004.9704 1.196 2.0404 2.268 3.4006 2.999 1.0949.59 2.2229 1.113 3.3924 1.537 1.9989.739 4.1057 1.196 6.2373 1.221 7.1497.108 12.7567-4.81 16.6219-10.377 1.5178-2.185 2.7951-4.511 4.031-6.8703.6884-1.3127 1.5262-2.5672 2.0985-3.9297.6137-1.4622.6718-2.9992.5889-4.561-.0996-1.8278-.2323-3.6638-.3484-5.4916-.2405-3.7053-.4728-7.419-.7133-11.1243-.2157-3.3232-.3401-6.6962-1.1197-9.9446-.788-3.2733-2.4137-6.1977-4.0643-9.1055-1.7998-3.1653-3.5914-6.339-5.3913-9.5043-.8875-1.5619-1.775-3.1321-2.6624-4.694l-.3816.2243.0664.1247.3815-.2244c-.423-.5815-1.0202-1.0301-1.5842-1.4622-.564-.432-1.1695-.9055-1.8414-1.1381-1.327-.457-2.7951-.6979-4.1803-.9056-1.3851-.2077-2.6127.1994-3.9564.2243-.6552.0083-1.3271-.0166-1.9823-.0997-.5806-.0748-1.0783-.3406-1.6755-.2908-.7796.0748-1.3354.5317-1.8994 1.0219-.9621.8308-1.9823 1.6118-2.961 2.4259-1.2525 1.0385-2.5049 2.0853-3.633 3.2567-.3566.3739-.7464.7727-.9953 1.2296-.4479.8308-.4479 1.9607-.6884 2.8663-.3484 1.2877-1.0368 2.4176-1.4847 3.6721-.2073.5898-.3815 1.188-.5723 1.7862-.1991.6314-.4977 1.2129-.705 1.836-.1742.54-.3069 1.0717-.3816 1.6367-.0912.7809-.5971 1.2046-.9787 1.8443-.6304 1.0385-.8045 2.2349-1.0948 3.398-.1659.6729-.3567 1.3376-.564 2.0022-.2323.7394-.4231 1.5453-.8212 2.2099-.1825.3074-.4064.6148-.6387.8807-.2654.299-.4561.5566-.7216.0166-.2239-.4487-.3234-.8225-.6801-1.213-.3566-.3905-.7962-.7394-.9704-1.2462-.2406-.6812-.0581-1.6533-.0498-2.3677 0-.3988 0-.8059-.1659-1.1798-.1659-.3738-.3152-.5815-.3981-.9637-.1659-.7477-.3484-1.62-.2654-2.3927.0497-.4154.3152-.7809.3981-1.2046.1244-.6148.0829-1.2379.0664-1.861-.083-2.9576.6967-5.7159 1.9574-8.3744.282-.5982.5723-1.1797.8543-1.7779.1162-.2492.2572-.4902.3235-.756.0913-.3157.0664-.6563.1576-.972.1576-.5816.4977-1.1548.7299-1.7115.2737-.6397.5474-1.2877.8958-1.8942.6635-1.1548 1.5427-2.2182 2.2975-3.3232.8295-1.2129 1.7584-2.3428 2.6708-3.4893.8543-1.08 1.6174-2.2099 2.4053-3.3398.7963-1.1299 1.5013-2.3594 2.5713-3.2484.4728-.3988.987-.7394 1.5096-1.0634.5225-.324 1.045-.7228 1.5759-1.0385 1.128-.6646 2.4053-.6231 3.6661-.7228.5806-.0415 1.1612-.4154 1.7501-.2658.4644.1163.6967.4569 1.2192.3157 1.1612-.3157 1.8994-1.5038 3.0357-1.8942 1.1364-.3905 2.4137.083 3.6247-.1828.6801-.1496 1.3271-.3988 2.0072-.5483.6884-.1496 1.3851-.2576 2.0902-.3573 1.5012-.216 2.9859-.4652 4.5038-.5068 1.5178-.0415 2.9113.0416 4.3628.216.7879.0997 1.5759.2244 2.3556.3656.6469.1163 1.3354.2077 1.9243.5151s.9289.8474 1.4349 1.2379c.4312.3323.9122.5815 1.4022.8224.588.2908 1.177.5816 1.683 1.0053.456.3739.797.8391 1.269 1.1963.166.1247.349-.108.266-.2658l-.083-.1495c-.116-.1994-.382-.0582-.349.1495.374 2.3262 2.414 3.8964 3.899 5.5497 1.65 1.836 3.152 3.805 4.479 5.8903 2.67 4.1789 4.661 8.7898 5.88 13.6001.614 2.4259 1.029 4.91 1.236 7.4107.232 2.833.158 5.6743.05 8.5156s-.199 5.8737-.1 8.8064c.1 2.9327.324 5.8488.614 8.7566.581 5.8405 1.41 11.6477 1.958 17.4961.514 5.517 1.161 11.432-.664 16.774-.771 2.252-1.932 4.37-3.409 6.231-.73.914-1.526 1.77-2.397 2.551-.448.407-.921.789-1.402 1.154-.389.291-.904.532-1.244.881-.174.175-.257.432-.431.607-.207.199-.108.174-.456.091-.382-.091-.797-.108-1.178-.166-1.269-.191-2.53-.424-3.782-.715-2.572-.606-5.101-1.47-7.4071-2.783-.7963-.457-1.4598-.847-2.3556-1.08s-1.7252-.382-2.5547-.681c-.9704-.341-1.4597-.806-1.7583-1.795-.2986-.988-.4645-1.919-.6138-2.883-.3484-2.243-.0996-4.544.2903-6.77.4147-2.36 1.0119-4.678 1.6174-6.987.2654-1.022.5391-2.036.7879-3.058.0249-.108-.1327-.149-.1576-.041z" fill="#231815" stroke="#291510" stroke-miterlimit="10" stroke-width=".15"/><path d="m73.7717 84.9765c-1.211-.3821-2.7455-.3074-3.0772 1.1797-.3567 1.5702.987 2.8746 1.9823 3.8799 1.211 1.2212 2.5381 2.5339 4.1804 3.132 1.5344.565 3.2347.4819 4.7111-.1827.282-.1247.0664-.5401-.2073-.4237-1.2774.5317-2.704.648-4.0394.2409s-2.48-1.3708-3.5085-2.3179c-.9289-.8557-2.1731-1.8693-2.6293-3.0906-.2571-.6895-.1824-1.5619.4313-2.0271.6138-.4653 1.4267-.2742 2.1151-.2077.0995.0083.1327-.1412.0332-.1745z" fill="#190602"/><path d="m84.43 85.7243c1.2524-.2077 2.762.0747 2.8864 1.5951.1327 1.6034-1.3769 2.7084-2.4966 3.5641-1.3686 1.0468-2.8615 2.1518-4.5785 2.5173-1.5925.3406-3.2679.0249-4.6448-.8391-.2571-.1662 0-.54.2654-.3905 1.1944.7062 2.5879 1.0136 3.9647.7976 1.3769-.216 2.6459-1.0053 3.7988-1.8111 1.0368-.7228 2.4137-1.5453 3.0275-2.7001.3483-.648.3981-1.5204-.1493-2.0687-.5475-.5483-1.3686-.4735-2.0653-.5068-.0996 0-.1078-.1578-.0083-.1744z" fill="#190602"/><path d="m50.9633 64.606s-.5889.5649-.5557.8557c.0664.5732 1.1197 1.4788 1.41 1.9773.0581.108.4894.648.4894.648s.1327.1661.1991.1578c.3234-.0249.8709-.9637.8709-.9637v-2.6834h-2.4137z" fill="#fcd095"/><path d="m68.7459 70.7207c1.8911.0831 3.3924.3739 4.9103 1.6284.2654.216.4313.4237.1824.7643-.0497.0748-.0995.1661-.1078.2575-.0746.6314-.141-.2991-.6055-.7228-.5806-.5234-.5225-.6729-1.1861-.5317-.6635.1413-1.0782 1.2961-1.128 1.4373-.3401 1.0219-2.0321 1.0053-2.8035.7062-.8045-.324-1.2524-1.3958-1.3934-1.6118-.3152-.4818-1.2774-.8141-1.7916-.5815-1.3271.5732-1.7667 1.944-2.0155 1.9607-.6138.0332-.7216.0249-.9124-.5484-.0663-.1994-.0415-.5566.0912-.6646.4728-.3905.9871-.7477 1.5262-1.0468 1.0451-.5816 2.1233-.8142 3.3094-.9056.3484-.0249 1.4515-.1495 1.916-.1329zm.9705 1.5536c-.2738-.1828-.4313-.3656-.5724-.3573-.1824.0084-.3566.1745-.5308.2742.1659.1496.3152.3739.506.432.1161.0333.3069-.1744.5972-.3489z" fill="#190602"/><path d="m97.4356 76.0031c-.141-.4569-.5806-.8972-1.0036-1.188-.7382-.5068-1.5843-.8225-2.4717-1.0468-1.3105-.324-2.6293-.3905-3.9564-.2991-1.0202.0664-1.9409.3738-2.4137 1.429-.0912.2076-.3401.3489-.5059.5233-.0996.1081-.1825.2244-.2738.3324.0332.0415.0664.083.0996.1329.3981-.1911.9206-.1662 1.1446-.6813.2322-.5234.846-.9388 1.4183-.8723.2406.0249.5475.1412.6719.3157.2903.432 1.0368 1.3791 1.7003 1.4207 2.3556.1412 2.3307-.8807 2.9943-.7893 1.7335.2243 1.974 2.0521 2.1316 1.9025.2903-.2824.5723-.8557.4645-1.1797zm-4.1887-.756c-.1907 0-.2239-.2908-.2239-.4819s.2903-.4486.4811-.4486c.1907 0 .2073.2575.2073.4486s-.2737.4819-.4645.4819z" fill="#190602"/><path d="m84.3226 72.5229c-.8294 1.9025-1.0036 4.1207-1.1446 6.1728-.1493 2.2265-.1493 4.453.3732 6.6297.7216 2.9826-.9538 6.2393-3.8237 7.4772-.2322.0997-.0331.4486.1991.3489 2.2146-.9554 4.0642-3.4478 4.255-5.8488.0664-.8142-.1327-1.5785-.3235-2.3594-.3152-1.2795-.3649-2.5755-.3649-3.8965 0-2.6917.0746-5.8155 1.1695-8.3162.0995-.2326-.2406-.4403-.3484-.1994z" fill="#190602"/></g></g></svg>