<svg width="163" height="163" viewBox="0 0 163 163" fill="none" xmlns="http://www.w3.org/2000/svg">
<g clip-path="url(#clip0_5795_5417)">
<circle cx="81.5" cy="81.5" r="81.5" fill="#FFDEB5"/>
<g clip-path="url(#clip1_5795_5417)">
<path d="M64.5433 82.8358C73.2473 82.8358 80.3034 75.7615 80.3034 67.0351C80.3034 58.3086 73.2473 51.2344 64.5433 51.2344C55.8392 51.2344 48.7832 58.3086 48.7832 67.0351C48.7832 75.7615 55.8392 82.8358 64.5433 82.8358Z" fill="#FFF2E3"/>
<path d="M90.0925 110.498C89.3658 110.681 88.848 110.823 88.3219 110.932C87.5785 111.09 87.211 111.407 87.495 112.25C87.9544 113.603 87.5869 113.978 86.1921 113.661C86 113.619 85.8079 113.569 85.6158 113.561C84.5384 113.527 83.6531 113.402 82.6593 112.601C81.4399 111.616 79.7361 111.04 78.1576 110.773C76.3786 110.464 75.2762 109.387 74.1152 108.219C74.6748 108.544 75.226 108.878 75.794 109.187C78.1075 110.464 79.5523 110.322 81.657 108.695C81.9827 108.444 82.4421 108.369 82.8179 108.16C83.0267 108.044 83.2773 107.868 83.3608 107.668C83.8118 106.575 85.5073 105.598 86.7099 105.79C87.637 105.932 88.372 106.132 88.23 107.401C88.1799 107.885 88.6643 108.453 88.965 108.945C89.2489 109.412 89.6081 109.83 90.0925 110.489V110.498Z" fill="#FFF2E3"/>
<path d="M85.8175 126.282C86.4439 125.84 86.8114 125.581 87.3125 125.222C86.1265 124.93 85.0993 124.671 83.9717 124.396C84.3559 123.603 84.7986 122.86 83.8548 122.259C83.8298 122.242 84.1722 121.332 84.381 121.316C85.3248 121.224 86.5608 120.957 87.1789 121.424C87.9974 122.042 88.9161 123.043 88.2479 124.479C87.9723 125.072 88.0892 125.856 88.0308 126.482C87.4963 126.432 86.8197 126.374 85.8175 126.29V126.282Z" fill="#FFF2E3"/>
<path d="M52.5095 53.8643V48.7727C52.4594 48.7477 52.4093 48.731 52.3675 48.706C52.0334 49.6492 51.6993 50.584 51.3736 51.5272C51.2066 51.4771 51.0479 51.4354 50.8809 51.3853C51.7662 47.8295 52.6598 44.2654 53.5785 40.5677C54.8146 41.2438 55.0902 40.5009 55.5245 39.6663C56.5017 37.8132 57.6459 36.0437 58.715 34.2324C58.882 34.3242 59.0574 34.4244 59.2244 34.5162C58.7901 35.2758 58.3558 36.0354 57.8714 36.8867C58.9321 37.1956 58.715 37.8132 58.3725 38.5478C57.8464 39.6913 57.4288 40.8849 56.9277 42.0368C56.4683 43.0968 55.8586 44.1068 55.4744 45.1919C55.0485 46.3855 54.8063 47.6459 54.4805 48.8812C54.3636 48.8562 54.2467 48.8312 54.1298 48.8145C54.706 46.4523 55.274 44.0985 55.8503 41.7363C55.6916 41.6862 55.5412 41.6361 55.3825 41.5777C54.706 43.4891 53.8625 45.3672 53.3948 47.3287C52.9187 49.3403 52.8185 51.4354 52.5011 53.856L52.5095 53.8643Z" fill="white"/>
<path opacity="0.45" d="M69.2373 64.4897C66.9155 65.9504 64.9193 67.2024 62.7311 68.5797C61.5201 68.0955 61.0608 65.2659 62.2968 63.8136C62.798 63.2209 65.1365 63.463 65.7462 64.0056C65.9717 64.2059 66.3642 64.256 66.69 64.2893C67.4333 64.3728 68.1933 64.4145 69.2456 64.4897H69.2373Z" fill="#FFF2E3"/>
<path d="M31.5462 131.549C31.0618 137.467 30.5773 143.377 30.1013 149.295C30.0094 149.295 29.9175 149.295 29.8257 149.286C29.8591 148.535 29.9342 147.784 29.9259 147.033C29.9092 145.455 29.7839 143.877 29.834 142.308C29.8591 141.549 30.2182 140.797 30.3351 140.029C30.6358 138.01 30.9031 135.973 31.1286 133.945C31.2121 133.143 31.1453 132.325 31.1453 131.516C31.2789 131.524 31.4125 131.541 31.5462 131.549Z" fill="white"/>
<path d="M64.1426 70.1229C64.2762 67.7857 66.4728 66.0412 69.3959 65.916C67.5585 67.3851 65.9549 68.6705 64.1426 70.1229Z" fill="#FFF2E3"/>
<path d="M33.4492 136.339C33.8668 135.137 34.2761 133.927 34.6937 132.725C34.8523 132.783 35.0027 132.833 35.1614 132.892C34.7271 134.093 34.3011 135.295 33.8668 136.506C33.7248 136.456 33.5912 136.397 33.4492 136.347V136.339Z" fill="white"/>
<path d="M36.6816 148.151C37.2412 146.84 37.8008 145.538 38.3103 144.361C38.8531 145.271 38.5608 146.164 36.6816 148.151Z" fill="white"/>
<path d="M118.372 89.4469C118.188 88.3201 118.005 87.1933 117.812 86.0581C118.013 86.033 118.213 85.9997 118.405 85.9746C118.531 87.1098 118.648 88.245 118.773 89.3801C118.639 89.3968 118.497 89.4219 118.364 89.4386L118.372 89.4469Z" fill="white"/>
<path d="M51.4141 38.3793C52.1824 36.977 52.9592 35.5663 53.7275 34.1641C53.8194 34.2058 53.9113 34.2559 54.0032 34.2976C53.2598 35.7082 52.5165 37.1189 51.7732 38.5295C51.6563 38.4794 51.531 38.4293 51.4141 38.3793Z" fill="white"/>
<path d="M56.066 36.252C55.3227 37.6542 54.7047 38.8311 54.0783 40.0164C53.8695 39.1817 54.7214 37.4623 56.066 36.252Z" fill="white"/>
<path d="M112.393 88.6703C112.468 87.7605 112.551 86.859 112.626 85.9492C112.768 85.9659 112.919 85.9743 113.061 85.9909C112.977 86.9008 112.902 87.8189 112.819 88.7287C112.677 88.712 112.535 88.687 112.393 88.6703Z" fill="white"/>
<path d="M123.559 131.213C126.716 133.066 155.897 177.105 155.789 173.866C155.455 163.725 155.588 153.541 153.191 143.592C151.989 138.584 150.26 133.943 145.107 131.339C141.323 129.419 137.439 128.042 133.314 127.207C131.585 126.856 129.923 126.189 128.194 125.863C126.724 125.579 125.196 125.571 123.692 125.437C123.676 125.529 123.65 125.621 123.634 125.721C123.968 125.997 124.302 126.28 124.912 126.789C123.083 127.374 121.512 127.875 119.85 128.4C127.902 134.719 120.46 132.123 121.713 132.566C123.057 133.041 119.7 133.158 120.819 132.198C122.281 130.946 121.17 135.345 120.886 135.545C118.756 137.048 115.75 135.879 113.595 137.332C112.292 138.216 110.989 139.151 109.552 139.777C102.228 142.949 94.6108 144.919 86.5763 144.827C83.1102 144.785 79.6358 144.527 76.1781 144.243C74.7165 144.126 74.5411 143.425 75.5684 142.323C76.3619 141.472 77.1887 140.645 78.0489 139.869C79.0512 138.959 79.6275 136.822 79.2182 135.504C78.8006 134.176 78.525 132.799 78.0657 131.497C77.5562 130.061 76.9298 128.659 76.2783 127.274C75.9192 126.497 75.2928 125.838 75.0005 125.045C74.1402 122.716 73.3635 120.362 72.5868 118C71.1753 113.693 69.814 109.378 68.3691 105.088C68.0433 104.103 67.5339 103.168 67.0244 102.266C66.2477 100.897 65.1703 99.6537 64.619 98.2097C62.3223 92.2416 61.3952 85.9397 60.5517 79.6462C60.393 78.4358 61.0444 77.067 61.5288 75.8483C61.8629 74.9886 62.6229 74.2958 63.0405 73.4611C63.5918 72.3593 64.4854 71.8501 65.5962 71.6081C66.1475 71.4912 66.7237 71.4411 67.3334 71.3577C67.133 71.0906 66.8741 70.8736 66.7989 70.5981C66.7237 70.3143 66.8323 69.9804 66.8657 69.6633C67.1079 69.8051 67.4002 69.9053 67.5756 70.1056C68.0099 70.6065 68.3858 71.1573 68.7533 71.6582C67.8011 72.0922 68.1185 72.8685 68.8785 73.6197C68.6864 73.8284 68.5528 73.9703 68.319 74.2207C69.0122 74.2207 69.5383 74.1288 70.0227 74.2374C71.643 74.5879 73.0127 74.1288 74.3407 73.219C76.9465 71.4411 76.3452 66.8754 75.1508 65.1559C74.324 63.979 74.3156 63.5617 75.2511 62.4515C75.3847 62.2929 75.4599 61.909 75.368 61.7504C74.8418 60.8656 74.2822 59.889 73.0963 59.889C71.2588 59.889 69.4131 59.9808 67.584 60.1561C65.9554 60.3147 64.3518 60.6486 62.6229 60.9324C62.6229 60.4566 62.5728 60.1478 62.6229 59.8556C63.099 57.4601 63.6168 55.0645 64.0845 52.6606C64.452 50.7659 64.5272 48.7793 65.1536 46.968C66.4398 43.2536 68.4693 40.5159 72.0857 39.1219C72.3947 39.0051 73.5306 39.147 73.6141 38.8632C73.8897 37.9784 82.8764 34.9819 84.1124 35.9501C84.5133 36.2589 95.5212 37.9951 96.1225 37.4943C97.3586 38.763 102.478 42.0684 102.729 43.1869C103.03 44.5474 105.034 46.0582 104.842 47.6358C104.792 48.0364 105.218 50.1482 105.485 50.8994C106.086 52.5771 108.183 58.829 107.899 59.5885C107.849 59.7304 107.473 63.7119 107.94 65.1392C107.999 65.3229 108.609 65.9322 108.634 66.1909C108.174 65.9155 110.212 67.3261 109.845 67.1091C109.728 67.3428 113.01 63.1193 113.044 63.3279C119.875 63.4615 115.031 79.8298 114.664 80.6227C114.121 81.808 113.094 82.3672 112.417 83.469C112.091 83.9949 111.031 83.7862 110.438 83.9865C110.02 84.1368 109.31 83.9532 108.934 83.661C108.141 83.035 108.45 83.1685 108.224 84.2036C107.874 85.8562 107.882 87.3921 107.698 89.0698C107.389 91.8577 106.362 94.7791 104.859 97.1997C103.514 99.3699 105.042 101.448 105.134 103.835C105.184 105.138 105.376 106.381 105.402 107.683C106.788 112.75 105.919 116.974 110.271 120.696C110.446 120.846 110.747 122.357 110.897 122.265C112.083 123.943 119.85 129.068 123.55 131.238L123.559 131.213ZM97.0997 85.5808C96.2394 85.4473 93.6921 86.6075 94.0429 88.5857C94.1765 89.3453 94.2517 90.4637 93.8257 90.8811C93.3998 91.3068 92.3057 91.1482 91.5206 91.0981C90.9443 91.0647 90.3931 90.7225 89.8085 90.6307C88.2049 90.3636 86.6264 89.4705 84.9476 90.4387C84.6219 90.6307 84.1292 90.5138 83.5529 90.5556C83.5362 90.2551 82.2249 90.1883 81.0306 90.6223C79.285 91.2066 78.2577 91.7826 76.2867 92.5505C74.9253 93.0763 73.8062 93.0763 72.7288 91.9829C72.1024 91.3402 71.0834 91.5155 70.7661 92.3168C70.5573 92.8259 70.5155 93.4937 70.6491 94.0195C70.7995 94.6205 71.2254 95.1631 71.5344 95.7306C71.9938 95.3884 72.4448 95.0378 72.9125 94.7123C73.3051 94.4369 73.731 93.9694 74.1319 93.9861C75.986 94.0529 77.8318 94.2115 79.6692 94.4202C80.187 94.4786 80.7216 94.7374 81.1475 95.0462C81.5066 95.305 81.8157 95.5554 82.0078 95.8141C83.4777 96.5153 87.2695 96.5319 88.9733 94.8208C90.0757 93.719 91.7461 93.3267 93.1826 92.6673C94.2266 92.1832 94.402 92.3418 94.3018 93.502C94.2016 94.6789 94.6275 95.0295 95.7634 94.7207C96.1392 94.6205 96.5151 94.512 96.8992 94.4452C97.6509 94.3117 98.0017 93.8275 97.985 93.1181C97.9766 92.6506 97.843 92.1916 97.7344 91.7325C97.2667 89.7125 96.6821 87.7093 97.0913 85.5892L97.0997 85.5808ZM90.0841 110.596C89.5997 109.937 89.2405 109.52 88.9566 109.052C88.6559 108.56 88.1631 107.992 88.2216 107.508C88.3636 106.239 87.6286 106.039 86.7015 105.897C85.4989 105.714 83.7951 106.682 83.3524 107.775C83.2689 107.984 83.0183 108.159 82.8095 108.268C82.4337 108.468 81.9743 108.543 81.6486 108.802C79.5439 110.43 78.0991 110.571 75.7856 109.294C75.2176 108.986 74.6664 108.643 74.1068 108.326C75.2678 109.495 76.3702 110.571 78.1492 110.88C79.7277 111.147 81.4398 111.732 82.6509 112.708C83.6447 113.51 84.53 113.635 85.6074 113.668C85.7995 113.668 86 113.718 86.1837 113.768C87.5785 114.085 87.946 113.71 87.4866 112.358C87.1943 111.506 87.5701 111.197 88.3135 111.039C88.8396 110.93 89.3575 110.78 90.0841 110.605V110.596ZM85.8079 126.38C86.8101 126.472 87.4866 126.531 88.0211 126.572C88.0796 125.946 87.9543 125.162 88.2383 124.569C88.9148 123.134 87.9877 122.124 87.1692 121.514C86.5512 121.047 85.3151 121.322 84.3714 121.406C84.1542 121.422 83.8201 122.341 83.8452 122.349C84.789 122.95 84.3463 123.684 83.9621 124.486C85.098 124.77 86.1169 125.02 87.3029 125.312C86.8018 125.671 86.4343 125.93 85.8079 126.372V126.38Z" fill="#FFF2E3"/>
<path d="M100.174 57.027C100.449 57.3859 99.1131 58.1455 98.6788 58.037C98.4951 57.9952 96.7579 57.7031 96.499 57.7532C96.0897 57.8366 95.8976 57.7949 94.9873 57.9368C94.7367 57.9785 94.9873 57.9368 94.3191 58.1789C93.8765 58.2957 93.4338 58.4042 92.9912 58.5294C92.5151 58.663 92.039 58.8132 91.5713 58.9551C90.9616 59.1304 90.3519 59.3057 89.7506 59.481C89.6003 59.5227 87.0446 59.7314 86.8107 59.8482C86.5936 59.9567 85.6331 59.5728 85.2656 59.3975C85.3157 59.2055 85.3658 58.9217 85.4744 58.663C85.5245 58.5461 85.6999 58.4042 85.8252 58.3959C86.2929 58.3792 88.1804 57.2857 88.8987 57.2523C89.4583 57.2273 93.4839 55.4995 93.8347 55.4494C94.3692 55.3659 96.5825 55.199 97.1254 55.174C97.4511 55.1573 99.9316 56.7014 100.182 57.027H100.174Z" fill="black"/>
<path d="M59.7911 62.5118C59.6074 62.9291 61.0857 63.3548 61.4782 63.1545C61.6453 63.071 63.2655 62.3866 63.5411 62.3782C63.9587 62.3615 64.1341 62.278 65.0528 62.2113C65.3034 62.1946 65.0528 62.2113 65.7628 62.2947C66.2221 62.3031 66.6731 62.3114 67.1325 62.3281C67.6252 62.3532 68.118 62.3866 68.6191 62.4116C69.2539 62.445 69.8803 62.47 70.515 62.5034C70.6737 62.5034 70.8491 62.4784 70.9911 62.5368C71.6342 62.8206 72.1937 62.47 72.7533 62.2864C73.0039 62.2029 73.2127 62.1361 73.4632 62.1946C73.6971 62.253 73.8975 62.228 74.0813 62.036C74.2901 61.8273 73.3379 60.809 71.4504 60.4918C70.8992 60.6003 69.1119 59.774 68.5272 59.7322C68.1681 59.7072 65.9799 59.4985 65.6208 59.5236C65.0779 59.5653 62.8897 59.9075 62.3552 60.0077C62.0294 60.0661 59.9749 62.1361 59.8078 62.5118H59.7911Z" fill="black"/>
<path d="M64.3262 99.4117C64.7271 100.964 65.8045 102.3 66.8485 103.477C68.1263 104.921 69.5712 106.214 71.0495 107.433C73.7221 109.645 76.3613 111.907 79.9527 112.241C83.544 112.575 87.2856 112.124 90.5679 110.972C92.5724 110.263 94.6604 109.553 96.4143 108.326C97.9176 107.274 99.1621 105.914 100.281 104.462C101.501 102.884 102.662 101.24 103.781 99.5953C104.708 98.2348 105.844 96.6572 106.194 95.0212C106.278 94.6289 105.677 94.4536 105.585 94.8543C105.242 96.2816 104.299 97.6421 103.497 98.8608C102.653 100.146 101.734 101.373 100.841 102.625C99.7634 104.144 98.6192 105.63 97.2244 106.874C95.6459 108.276 93.7834 109.102 91.8291 109.837C88.4967 111.089 85.0891 111.673 81.5228 111.673C79.7689 111.673 78.0401 111.44 76.4699 110.622C74.9749 109.845 73.6637 108.727 72.3524 107.675C69.471 105.363 66.1469 102.742 64.6436 99.2698C64.5601 99.0862 64.2761 99.2197 64.3262 99.4033V99.4117Z" fill="#291510" stroke="#291510" stroke-width="0.15" stroke-miterlimit="10"/>
<path d="M156.04 173.958C155.706 163.8 155.84 153.592 153.434 143.626C152.223 138.609 150.494 133.96 145.341 131.347C141.55 129.428 137.658 128.05 133.523 127.207C131.794 126.857 130.124 126.189 128.395 125.855C126.917 125.571 125.397 125.563 123.894 125.429C123.877 125.521 123.852 125.613 123.835 125.713C124.169 125.989 124.503 126.273 125.113 126.782C123.276 127.366 122.073 131.172 121.012 132.199C120.762 132.441 120.461 132.65 120.177 132.85C118.047 134.352 115.934 135.88 113.771 137.341C112.468 138.225 111.157 139.168 109.72 139.786C102.387 142.966 94.7537 144.936 86.7024 144.844C83.228 144.803 79.7536 144.544 76.2876 144.26C74.826 144.143 74.6506 143.442 75.6779 142.34C76.4713 141.489 77.2982 140.663 78.1668 139.878C79.1773 138.968 79.7453 136.831 79.336 135.504C78.9184 134.177 78.6428 132.8 78.1751 131.489C77.6656 130.054 77.0392 128.651 76.3878 127.257C76.0287 126.481 75.4023 125.822 75.11 125.029C74.2497 122.7 73.4646 120.338 72.6963 117.976C71.2764 113.669 69.9151 109.337 68.4702 105.038C68.1444 104.053 67.635 103.118 67.1255 102.208C66.3488 100.831 65.2714 99.5958 64.7118 98.1434C62.415 92.1587 61.4796 85.8484 60.6361 79.5465C60.4774 78.3362 60.4941 76.767 60.6194 75.4649C60.7029 74.5467 60.9701 73.8706 61.3961 73.0276C61.9473 71.9258 62.6656 59.9981 62.724 59.7059C63.2001 57.302 63.7263 54.9065 64.194 52.5026C64.5615 50.5995 64.6366 48.6129 65.263 46.8016C66.5492 43.0789 69.3471 40.7501 72.9719 39.3478C73.2809 39.231 74.9095 38.7635 75.1935 38.6884L82.7186 37.0942C88.8238 36.6184 94.1022 38.4464 94.7954 38.8053C96.6997 39.7986 99.0466 41.6265 99.2804 41.8185C101.318 43.4545 102.939 46.1756 103.306 48.3291C103.373 48.7298 104.3 51.1587 104.567 51.9099C105.169 53.596 105.853 55.257 106.271 56.9932C106.455 57.7695 107.006 59.5223 106.722 60.2819C106.672 60.4238 106.63 60.5991 106.68 60.7326C107.156 62.1599 107.49 67.1263 109.745 67.1263C109.946 67.1263 112.694 62.9278 115.316 64.7308C116.26 65.3568 114.907 78.2528 114.539 79.0457C113.997 80.231 112.827 81.5665 112.151 82.6766C111.825 83.2025 111.207 83.6782 110.622 83.8869C110.196 84.0372 109.495 83.8535 109.119 83.5614C108.317 82.9354 107.983 82.9354 107.758 83.9704C107.407 85.6314 107.089 87.3008 106.906 88.9869C106.597 91.7831 106.538 94.6962 105.035 97.1251C103.682 99.2953 103.481 101.524 103.565 103.911C103.615 105.213 103.623 106.524 103.648 107.826C103.757 113.56 105.995 118.301 110.355 122.032C110.53 122.183 110.931 122.316 111.073 122.224C112.176 121.54 114.456 120.338 114.723 119.779C115.458 118.268 116.811 117.066 117.028 115.296C117.037 115.221 119.283 105.555 119.409 105.555C119.484 103.544 119.701 101.524 119.609 99.5123C119.5 97.0083 119.15 94.5209 118.907 92.0168C118.916 91.7247 118.072 81.9087 117.955 80.9405C117.797 79.6383 116.677 77.5015 116.803 74.1294C116.87 72.3515 117.204 64.8309 116.627 61.559C116.277 59.5473 115.483 57.5942 115.333 55.5826C115.191 53.6544 114.723 50.491 114.189 47.461C113.846 45.5079 111.95 43.6799 110.839 41.4513C109.912 39.5982 108.342 38.1125 107.064 36.5349C106.622 35.9924 106.087 35.4331 105.636 34.8489C105.311 34.4315 104.233 33.2296 103.832 32.9124C102.663 31.9942 102.287 31.8273 101.084 30.9592C100.909 30.834 100.75 30.6671 100.6 30.5001C100.316 30.1996 100.04 29.8908 99.698 29.5068C99.7231 29.4067 99.4057 28.814 99.3055 28.6554C98.7208 27.7122 98.3116 26.9777 97.4514 26.3684C95.7392 25.1581 95.3801 24.8159 93.2754 24.5154C91.9057 24.3234 90.8617 23.881 90.2102 23.6557C88.8489 23.1715 87.5794 22.4453 86.2848 21.7859C84.1551 20.7008 81.9251 20.2251 79.5281 20.4838C78.3923 20.609 77.1478 20.8845 76.1038 20.584C73.2976 19.766 70.7503 20.8427 68.253 21.594C63.8432 22.9211 60.2686 25.5254 57.312 28.8892C55.8838 30.1662 54.2886 32.3615 52.8437 35.1076C52.2925 35.9924 51.7496 36.8772 51.2067 37.7703C50.4968 38.9221 49.9456 40.1658 49.244 41.5013C47.1477 47.3943 47.6071 51.9934 46.9389 53.9633C46.3125 55.8163 44.7591 59.6559 44.5837 59.6058C44.1577 60.8411 43.6399 62.0598 43.3309 63.3285C42.9884 64.7308 42.7964 66.1664 42.621 67.6021C42.5291 68.345 40.533 74.6469 40.2574 75.9741C39.489 79.6383 38.8459 83.336 38.3865 87.0504C38.1026 89.3541 37.2924 94.2788 37.259 94.5042C36.9584 96.5659 36.5825 98.6192 36.3654 100.689C36.0814 103.352 35.9728 106.031 35.6972 108.694C35.4467 111.073 30.2017 125.079 29.4166 125.822C27.7378 127.408 23.8876 136.714 23.3948 137.941C22.0585 141.314 20.8726 144.753 18.7595 147.782C18.2083 148.567 18.0914 149.677 17.8742 150.662C17.6738 151.58 17.6654 152.54 17.4566 153.45C16.7634 156.572 15.9366 159.677 15.3102 162.815C14.2495 168.116 13.289 173.449 12.2951 178.766C11.9861 180.394 11.6854 182.022 11.3848 183.657H156.6C156.408 180.419 156.14 177.18 156.032 173.942L156.04 173.958ZM21.0062 154.644C21.1231 154.118 21.2484 153.592 21.3653 153.058C21.3737 153.433 21.3987 153.801 21.4321 154.16L21.2985 154.71C21.1983 154.685 21.1064 154.669 21.0062 154.644Z" fill="#EDCA8C"/>
<path d="M156.958 184H11L11.3257 182.247C11.5429 181.079 11.76 179.902 11.9772 178.733C12.2611 177.197 12.5451 175.67 12.8291 174.134C13.5223 170.411 14.2322 166.555 14.9922 162.782C15.3764 160.879 15.8358 158.968 16.2784 157.115C16.5707 155.879 16.8714 154.652 17.147 153.417C17.2472 152.975 17.2974 152.507 17.3475 152.048C17.3976 151.581 17.456 151.096 17.5563 150.621C17.598 150.429 17.6398 150.228 17.6815 150.02C17.8486 149.177 18.0156 148.309 18.4917 147.624C20.2873 145.053 21.4232 142.115 22.534 139.277C22.7178 138.801 22.9098 138.326 23.0936 137.842C23.1353 137.741 27.328 127.366 29.1905 125.605C29.9171 124.879 35.1204 111.148 35.3709 108.686C35.5045 107.392 35.6048 106.065 35.6966 104.788C35.7969 103.444 35.8971 102.05 36.0391 100.69C36.1894 99.3039 36.4066 97.91 36.6237 96.5578C36.7323 95.8733 36.8409 95.1805 36.9411 94.4961C36.9411 94.4544 36.9745 94.2707 37.0246 93.9786C37.2501 92.6013 37.8347 88.9371 38.0686 87.0423C38.5112 83.4949 39.1209 79.864 39.9478 75.9409C40.0814 75.2899 40.6326 73.4619 41.1504 71.6924C41.6683 69.9395 42.2613 67.9529 42.303 67.6024C42.4617 66.2836 42.6621 64.7561 43.0213 63.287C43.2384 62.3856 43.5642 61.5091 43.8732 60.6577C44.0152 60.2821 44.1488 59.9065 44.2824 59.5309L44.3826 59.2388L44.4662 59.2638C44.8504 58.5627 46.053 55.5912 46.6377 53.8884C46.8632 53.2123 46.955 52.1856 47.0803 50.8835C47.2975 48.5046 47.5898 45.241 48.9428 41.4265C49.185 40.959 49.3854 40.55 49.5859 40.141C50.0285 39.2646 50.4378 38.4299 50.9306 37.6286L51.3064 37.0193C51.724 36.3349 52.1499 35.6504 52.5759 34.966C54.0041 32.2449 55.616 30.0079 57.1026 28.6807C60.2931 25.0498 64.0264 22.5625 68.1689 21.3188C68.503 21.2186 68.8454 21.1101 69.1795 21.0016C71.3928 20.3005 73.6728 19.5743 76.2035 20.3088C76.9802 20.5342 77.9073 20.409 78.8093 20.2921C79.0431 20.2587 79.2686 20.2337 79.4941 20.2086C81.8911 19.9415 84.1545 20.3839 86.4346 21.5441C86.7018 21.6777 86.9691 21.8196 87.2364 21.9615C88.2302 22.479 89.2575 23.0215 90.3182 23.3888L90.6356 23.5057C91.2871 23.7477 92.1807 24.0733 93.3166 24.2402C95.3628 24.5323 95.8556 24.8829 97.3171 25.9179L97.6429 26.1433C98.4781 26.7359 98.9207 27.4538 99.4302 28.2801L99.5805 28.5222C99.6724 28.6724 99.9229 29.0897 99.9981 29.3902L100.224 29.649C100.441 29.891 100.633 30.1081 100.833 30.3167C100.992 30.4837 101.126 30.6256 101.268 30.7341C101.744 31.0763 102.086 31.31 102.403 31.5187C102.896 31.8526 103.314 32.1364 104.032 32.6956C104.475 33.0462 105.577 34.2899 105.886 34.6822C106.137 34.9994 106.412 35.3165 106.68 35.6254C106.897 35.8758 107.114 36.1178 107.306 36.3599C107.657 36.7939 108.033 37.2196 108.408 37.6453C109.402 38.7805 110.438 39.9574 111.123 41.3347C111.549 42.186 112.1 42.9957 112.626 43.772C113.478 45.0156 114.28 46.1842 114.497 47.4362C115.098 50.8501 115.516 53.8216 115.65 55.5828C115.733 56.7514 116.051 57.9283 116.36 59.0718C116.577 59.8731 116.794 60.6995 116.944 61.5342C117.495 64.6726 117.228 71.5755 117.136 73.8542L117.12 74.1714C117.036 76.4584 117.537 78.1779 117.905 79.4383C118.072 80.0142 118.214 80.5067 118.272 80.9324C118.389 81.8756 119.241 91.7583 119.233 92.0588C119.308 92.7683 119.391 93.5195 119.475 94.2707C119.667 95.9902 119.867 97.7681 119.934 99.5293C119.993 100.932 119.909 102.359 119.826 103.744C119.792 104.362 119.75 104.98 119.725 105.597V105.915H119.625C119.233 107.233 117.437 114.913 117.337 115.388C117.195 116.59 116.543 117.55 115.917 118.468C115.574 118.969 115.257 119.437 115.007 119.946C114.773 120.422 113.745 121.048 112.2 121.949C111.841 122.158 111.499 122.358 111.231 122.525C110.906 122.725 110.346 122.492 110.129 122.3C105.719 118.518 103.422 113.661 103.305 107.851L103.289 106.633C103.272 105.739 103.264 104.838 103.23 103.945C103.147 101.725 103.272 99.3373 104.75 96.9751C105.995 94.9719 106.229 92.5513 106.454 90.2141C106.496 89.7968 106.538 89.3878 106.579 88.9788C106.738 87.5014 107.014 85.8904 107.431 83.9289C107.523 83.4865 107.674 83.0108 108.066 82.8689C108.442 82.7353 108.834 82.9523 109.311 83.3279C109.62 83.57 110.213 83.7119 110.505 83.6034C111.039 83.4114 114.639 79.5802 115.065 72.0095C115.349 66.968 115.274 65.2402 115.098 65.0065C113.203 63.7127 111.098 66.1166 110.313 67.0181C110.004 67.377 109.92 67.4688 109.736 67.4688C107.724 67.4688 107.089 64.3053 106.671 62.2103C106.554 61.6427 106.463 61.1502 106.362 60.8497C106.287 60.616 106.346 60.3573 106.412 60.1903C106.613 59.6478 106.254 58.2622 106.062 57.5193C106.02 57.3607 105.978 57.2105 105.953 57.0936C105.636 55.7748 105.151 54.4643 104.675 53.1956C104.533 52.8117 104.391 52.4277 104.249 52.0437C104.182 51.8601 104.074 51.5763 103.957 51.2424C103.447 49.8735 103.022 48.7133 102.971 48.4045C102.604 46.2677 100.967 43.6134 99.0627 42.0942C99.0376 42.0775 96.5989 40.141 94.6278 39.1144C94.0515 38.8139 88.8566 36.9525 82.7263 37.4367L75.243 39.0226C74.0904 39.3481 73.2552 39.5985 73.0715 39.6736C69.238 41.151 66.7073 43.5883 65.5548 46.9271C65.1539 48.079 64.9868 49.3393 64.8115 50.558C64.7196 51.2257 64.6277 51.9102 64.4941 52.5779C64.2268 53.9468 63.9429 55.3074 63.6672 56.6679C63.4501 57.7029 63.2413 58.7463 63.0325 59.7813C63.0241 59.8564 62.974 60.5659 62.9156 61.3756C62.5147 67.0264 62.0804 72.3768 61.6795 73.1781C61.2702 73.9961 61.0197 74.6472 60.9362 75.4985C60.8025 76.9342 60.8025 78.4367 60.9529 79.5051C61.8465 86.1909 62.7736 92.1924 65.0119 98.0268C65.346 98.9033 65.8805 99.6962 66.4401 100.531C66.7658 101.023 67.1082 101.524 67.4005 102.05C67.885 102.901 68.4278 103.895 68.7703 104.938C69.6472 107.542 70.4991 110.197 71.3343 112.767C71.8855 114.47 72.4368 116.181 72.9963 117.884C73.7146 120.071 74.5247 122.55 75.41 124.929C75.5604 125.33 75.8026 125.705 76.0699 126.097C76.287 126.423 76.5125 126.765 76.6795 127.133C77.2976 128.46 77.9407 129.895 78.4752 131.389C78.7508 132.157 78.9596 132.95 79.1601 133.727C79.3104 134.294 79.4607 134.862 79.6361 135.421C80.0871 136.848 79.4691 139.144 78.375 140.129C77.5481 140.872 76.7213 141.698 75.9112 142.566C75.2931 143.234 75.3349 143.526 75.3599 143.593C75.4267 143.768 75.7859 143.893 76.3121 143.943C79.6445 144.219 83.1857 144.486 86.7102 144.527C94.0933 144.619 101.577 142.967 109.594 139.494C110.814 138.968 111.958 138.184 113.077 137.424L113.595 137.074C115.174 136.005 116.76 134.878 118.297 133.785L119.993 132.583C120.293 132.366 120.569 132.174 120.794 131.957C121.145 131.615 122.373 131.515 122.799 130.73C123.509 129.428 123.484 127.333 124.519 126.698L123.484 125.83L123.642 125.079L123.926 125.104C124.386 125.146 124.845 125.171 125.304 125.204C126.348 125.271 127.417 125.338 128.461 125.538C129.372 125.714 130.265 125.981 131.134 126.239C131.936 126.481 132.771 126.724 133.59 126.89C137.707 127.733 141.599 129.094 145.491 131.064C151.012 133.86 152.657 138.977 153.759 143.551C155.797 152.023 156.023 160.787 156.24 169.268C156.282 170.829 156.323 172.389 156.374 173.95C156.449 176.171 156.599 178.424 156.741 180.603C156.808 181.621 156.875 182.639 156.942 183.658L156.958 184ZM11.7851 183.349H156.265C156.207 182.447 156.148 181.546 156.09 180.645C155.948 178.458 155.789 176.196 155.722 173.967C155.672 172.406 155.63 170.837 155.589 169.276C155.371 160.829 155.146 152.098 153.125 143.701C152.056 139.269 150.477 134.311 145.199 131.64C141.365 129.695 137.523 128.351 133.464 127.525C132.612 127.35 131.769 127.099 130.95 126.857C130.098 126.607 129.213 126.34 128.345 126.173C127.342 125.981 126.29 125.914 125.271 125.847C125.004 125.83 124.728 125.814 124.461 125.797L125.789 126.907L125.221 127.091C124.177 127.425 124.302 129.879 123.576 131.214C123.1 132.082 121.671 132.024 121.245 132.433C120.987 132.683 120.694 132.892 120.41 133.092L118.673 134.319C117.136 135.413 115.549 136.539 113.963 137.616L113.445 137.967C112.309 138.743 111.131 139.544 109.862 140.095C101.752 143.601 94.1935 145.245 86.7102 145.179C83.169 145.137 79.6111 144.87 76.2703 144.594C75.4435 144.527 74.934 144.269 74.7669 143.835C74.5832 143.367 74.8087 142.808 75.4435 142.124C76.2703 141.239 77.1138 140.404 77.949 139.645C78.8677 138.81 79.4023 136.815 79.0264 135.613C78.851 135.045 78.6924 134.469 78.542 133.893C78.3416 133.134 78.1328 132.349 77.8739 131.615C77.3477 130.146 76.7129 128.727 76.1033 127.416C75.9529 127.091 75.7525 126.782 75.5353 126.465C75.2681 126.056 74.9841 125.638 74.8087 125.163C73.9234 122.775 73.1049 120.288 72.3866 118.101C71.8271 116.398 71.2758 114.687 70.7246 112.984C69.8978 110.414 69.0375 107.759 68.1606 105.163C67.8349 104.179 67.3087 103.219 66.841 102.392C66.557 101.891 66.2229 101.399 65.9056 100.915C65.346 100.08 64.7697 99.2204 64.4106 98.2772C62.1472 92.376 61.2118 86.3328 60.3181 79.6052C60.1678 78.4867 60.1594 76.9342 60.3014 75.4485C60.3933 74.4886 60.6689 73.7874 61.1116 72.8943C61.5124 72.093 62.072 64.272 62.2808 61.3338C62.3727 60.0401 62.3977 59.7312 62.4145 59.6561C62.6232 58.6128 62.8404 57.5777 63.0492 56.5344C63.3332 55.1738 63.6088 53.8133 63.876 52.4444C64.0013 51.7933 64.0932 51.1172 64.1851 50.4578C64.3604 49.2058 64.5358 47.912 64.9534 46.7017C66.1728 43.1793 68.8287 40.6001 72.8544 39.056C73.1383 38.9474 74.3828 38.5885 75.1094 38.3799L82.6595 36.7856C88.9819 36.2848 94.3606 38.2213 94.9535 38.5301C96.9831 39.5818 99.4719 41.56 99.497 41.5767C101.543 43.2127 103.247 45.9755 103.64 48.2876C103.69 48.5631 104.258 50.0906 104.592 51.0087C104.717 51.3426 104.826 51.6264 104.892 51.8184C105.026 52.2023 105.168 52.5779 105.31 52.9619C105.786 54.2473 106.279 55.5745 106.604 56.935C106.63 57.0519 106.671 57.1938 106.713 57.3524C107.03 58.5794 107.298 59.7312 107.047 60.4157C106.997 60.5409 106.997 60.6244 107.005 60.6494C107.114 60.9916 107.223 61.5008 107.339 62.0851C107.707 63.9214 108.258 66.6759 109.653 66.8178C109.703 66.7677 109.77 66.6842 109.853 66.5924C110.747 65.5657 113.127 62.8446 115.524 64.489C115.758 64.6392 116.301 65.0065 115.767 71.876C115.533 74.9226 115.082 79.4466 112.459 82.8689C112.05 83.4031 111.44 83.9707 110.764 84.2127C110.196 84.413 109.377 84.171 108.951 83.8288C108.467 83.4448 108.35 83.4698 108.333 83.4698C108.333 83.4698 108.225 83.5283 108.108 84.0541C107.69 85.9989 107.423 87.5765 107.264 89.0372C107.223 89.4462 107.181 89.8552 107.139 90.2642C106.905 92.6765 106.663 95.1722 105.343 97.309C103.965 99.5293 103.848 101.791 103.924 103.911C103.957 104.813 103.974 105.714 103.982 106.616L103.999 107.834C104.107 113.452 106.329 118.151 110.597 121.799C110.697 121.882 110.922 121.949 110.981 121.949C111.206 121.799 111.549 121.599 111.916 121.381C112.81 120.864 114.305 119.988 114.464 119.654C114.731 119.103 115.082 118.585 115.416 118.093C116.025 117.191 116.602 116.348 116.735 115.28C116.744 115.196 117.429 112.292 117.888 110.347C118.64 107.208 118.924 106.006 119.116 105.539C119.141 104.93 119.174 104.312 119.216 103.703C119.299 102.342 119.383 100.932 119.324 99.5543C119.249 97.8182 119.057 96.0486 118.865 94.3459C118.782 93.5946 118.698 92.8351 118.623 92.0838C118.623 91.6248 117.779 81.934 117.671 81.0158C117.621 80.6402 117.487 80.1728 117.328 79.6219C116.953 78.3198 116.426 76.5419 116.518 74.1463V73.8208C116.618 71.5672 116.886 64.7143 116.351 61.6427C116.209 60.8414 115.992 60.0234 115.783 59.2388C115.474 58.0702 115.149 56.8599 115.057 55.6329C114.931 53.8884 114.514 50.9419 113.912 47.5448C113.72 46.4263 112.952 45.3161 112.142 44.1309C111.599 43.3379 111.039 42.5116 110.588 41.6185C109.937 40.3163 108.935 39.1728 107.966 38.071C107.582 37.637 107.206 37.2029 106.847 36.7689C106.655 36.5352 106.446 36.2931 106.229 36.0511C105.953 35.7339 105.669 35.4084 105.41 35.0828C105.093 34.6738 104.04 33.4969 103.665 33.2048C102.971 32.6622 102.554 32.3784 102.078 32.0612C101.76 31.8442 101.41 31.6105 100.925 31.2599C100.725 31.118 100.566 30.9428 100.407 30.7758C100.19 30.5505 99.9981 30.3334 99.781 30.083L99.3801 29.6323L99.4051 29.5238C99.355 29.3819 99.1629 29.0146 99.071 28.856L98.9207 28.614C98.4279 27.8127 98.0354 27.1783 97.3088 26.6691L96.9831 26.4354C95.5465 25.4171 95.1624 25.1417 93.2748 24.8746C92.0721 24.7076 91.095 24.3487 90.4602 24.1066L90.1512 23.9981C89.0571 23.6058 88.0048 23.0633 86.9858 22.5291C86.7186 22.3872 86.4513 22.2536 86.184 22.1117C84.0292 21.0099 81.8744 20.5926 79.6111 20.843C79.3939 20.868 79.1684 20.9014 78.9346 20.9265C77.9657 21.06 76.9635 21.1852 76.0531 20.9265C73.723 20.2504 71.5264 20.9432 69.4134 21.6109C69.0709 21.7194 68.7285 21.8279 68.3944 21.9281C64.3103 23.1551 60.7858 25.5089 57.6037 29.1231C56.1505 30.4336 54.5803 32.6038 53.1772 35.2748C52.7429 35.9759 52.317 36.6604 51.8994 37.3448L51.5235 37.9542C51.0475 38.7304 50.6382 39.5484 50.2123 40.4165C50.0118 40.8255 49.803 41.2428 49.5775 41.6685C48.2663 45.3662 47.974 48.5798 47.7652 50.9253C47.6399 52.2691 47.548 53.3375 47.2975 54.0804C46.9884 54.9818 46.4456 56.4092 45.9445 57.6362C45.3765 59.0218 45.1009 59.5977 44.9088 59.8314C44.7919 60.182 44.6583 60.5242 44.533 60.8748C44.224 61.7095 43.9066 62.5692 43.6978 63.4289C43.347 64.8562 43.1549 66.367 42.9962 67.6608C42.9461 68.0448 42.5202 69.5055 41.8186 71.8593C41.2924 73.6121 40.7579 75.4318 40.6243 76.0578C39.8058 79.9641 39.1961 83.5783 38.7534 87.1091C38.5196 89.0122 37.9266 92.6848 37.7011 94.0621C37.651 94.3459 37.6259 94.5295 37.6176 94.5712C37.5174 95.264 37.4088 95.9568 37.3002 96.6413C37.0914 97.9851 36.8659 99.3707 36.7239 100.74C36.5819 102.092 36.4817 103.477 36.3815 104.821C36.2896 106.107 36.1894 107.434 36.0558 108.744C35.8219 110.973 30.5769 125.221 29.6749 126.072C28.1214 127.542 24.4048 136.398 23.7367 138.084C23.5446 138.559 23.3608 139.035 23.1771 139.511C22.0579 142.382 20.897 145.362 19.0596 147.991C18.6587 148.559 18.5084 149.369 18.3497 150.145C18.3079 150.354 18.2662 150.554 18.2244 150.754C18.1242 151.197 18.0741 151.639 18.024 152.115C17.9739 152.582 17.9154 153.075 17.8068 153.55C17.5312 154.794 17.2389 156.021 16.9382 157.256C16.4956 159.101 16.0362 161.013 15.6604 162.899C14.9003 166.672 14.1904 170.52 13.4972 174.242C13.2133 175.778 12.9293 177.314 12.637 178.842C12.4198 180.01 12.2027 181.187 11.9855 182.356L11.8018 183.341L11.7851 183.349ZM21.5401 155.103L20.6131 154.886L21.6069 150.495L21.6821 153.041C21.6905 153.409 21.7155 153.767 21.7406 154.126V154.176L21.5318 155.095L21.5401 155.103Z" fill="black"/>
<path d="M108.568 120.538C110.355 122.692 112.602 124.578 114.949 126.189C117.296 127.8 119.735 129.194 122.39 130.087C122.733 130.204 122.95 129.67 122.624 129.528C120.085 128.393 117.621 127.257 115.316 125.722C112.944 124.136 110.89 122.283 108.869 120.313C108.718 120.171 108.434 120.38 108.568 120.538Z" fill="black"/>
<path d="M122.097 131.582C122.915 130.597 123.692 129.587 124.46 128.56C125.112 127.692 125.813 126.807 126.056 125.73C126.181 125.171 125.379 124.954 125.204 125.497C124.87 126.54 124.218 127.358 123.592 128.235C122.899 129.194 122.214 130.163 121.562 131.164C121.345 131.49 121.855 131.89 122.105 131.582H122.097Z" fill="black"/>
<path d="M81.2392 84.1283C80.4124 84.6542 77.5309 84.0198 78.1406 83.5274C78.7253 83.0516 79.335 82.9264 80.0365 83.302C80.4124 83.5107 80.7548 83.7945 81.2308 84.1283H81.2392Z" fill="black"/>
<path d="M85.6582 83.3446C85.7167 82.7353 86.1176 82.5767 86.5268 82.4765C86.936 82.3763 87.3286 82.4932 87.6376 82.7937C87.8798 83.0274 87.8464 83.2695 87.5541 83.4531C86.8943 83.8537 86.2929 83.5866 85.6582 83.3529V83.3446Z" fill="black"/>
<path d="M27.0111 166.163C25.4659 163.075 22.0834 144.537 24.5973 136.123C25.633 132.659 21.2649 144.545 19.1602 147.566C18.6174 148.351 18.5004 149.461 18.2833 150.438C18.0828 151.348 18.0745 152.307 17.8657 153.217C17.1725 156.331 16.354 159.427 15.7276 162.557C14.6669 167.849 13.7148 173.158 12.7209 178.467C12.4119 180.094 12.1196 181.714 11.8105 183.341H156.65C156.458 180.111 156.19 176.881 156.082 173.651C155.748 163.517 155.881 153.342 153.484 143.393C152.282 138.393 150.553 133.752 145.408 131.148C141.625 129.237 137.749 127.859 133.623 127.016C131.903 126.666 130.241 126.006 128.512 125.672C127.042 125.389 127.134 124.612 123.142 125.247C121.004 125.539 118.456 127.175 118.44 127.267C119.868 129.762 125.405 128.435 121.137 131.999C120.753 132.325 120.327 132.617 119.935 132.918C118.298 134.17 116.644 135.388 114.898 136.49C113.261 137.525 111.666 138.802 109.879 139.578C102.563 142.75 94.9456 144.72 86.9194 144.628C83.4534 144.587 79.2523 144.077 75.7946 143.794C74.3331 143.677 74.5168 144.996 72.7796 149.161C72.7796 149.161 69.1632 155.154 67.735 159.745C65.5886 166.631 67.0752 170.687 59.642 175.095" fill="#DEBFBA"/>
<path d="M157 183.675H11.3926L11.7601 181.68C11.9605 180.586 12.1693 179.493 12.3698 178.399C12.6621 176.863 12.946 175.328 13.23 173.792C13.9149 170.086 14.6248 166.255 15.3848 162.49C15.7606 160.595 16.22 158.692 16.6626 156.839C16.955 155.629 17.2556 154.377 17.5312 153.142C17.6315 152.699 17.6816 152.257 17.7317 151.781C17.7818 151.314 17.8403 150.829 17.9405 150.362C17.9822 150.17 18.024 149.97 18.0658 149.769C18.2328 148.926 18.3998 148.058 18.8759 147.374C20.0953 145.621 22.1332 140.73 23.3525 137.808C23.6532 137.09 23.9121 136.464 24.1042 136.03C24.4132 135.321 24.5218 135.062 24.8559 135.179C25.19 135.296 25.1064 135.588 24.9143 136.222C23.4778 141.047 24.1126 148.868 24.6137 153.1C25.3403 159.201 26.5764 164.552 27.3113 166.012L26.7017 166.313C25.2067 163.325 22.3837 147.916 23.6866 138.768C22.4422 141.74 20.5964 146.088 19.4355 147.758C19.0429 148.325 18.8843 149.127 18.7339 149.895C18.6922 150.103 18.6504 150.304 18.6086 150.504C18.5084 150.938 18.4583 151.389 18.4082 151.856C18.3581 152.324 18.2996 152.816 18.191 153.292C17.9154 154.535 17.6148 155.788 17.3224 156.998C16.8798 158.834 16.4288 160.737 16.053 162.624C15.3013 166.38 14.5914 170.211 13.9065 173.909C13.6225 175.444 13.3386 176.989 13.0463 178.524C12.8375 179.618 12.637 180.711 12.4366 181.805L12.2111 182.998H156.282C156.223 182.105 156.165 181.212 156.106 180.319C155.964 178.141 155.806 175.879 155.739 173.658C155.689 172.097 155.647 170.511 155.605 168.984C155.388 160.562 155.163 151.856 153.15 143.476C152.081 139.052 150.511 134.119 145.249 131.456C141.424 129.52 137.599 128.176 133.548 127.358C132.696 127.183 131.852 126.932 131.042 126.69C130.19 126.44 129.313 126.181 128.445 126.014C128.019 125.931 127.718 125.814 127.426 125.697C126.699 125.413 126.014 125.138 123.191 125.588C121.513 125.814 119.55 126.924 118.89 127.35C119.433 128.034 120.394 128.36 121.254 128.643C122.147 128.944 122.916 129.194 123.041 129.854C123.158 130.455 122.649 131.181 121.354 132.266C121.087 132.491 120.803 132.7 120.527 132.9C120.394 133 120.268 133.092 120.143 133.192C118.673 134.319 116.919 135.621 115.082 136.782C114.589 137.09 114.088 137.433 113.603 137.767C112.468 138.543 111.29 139.344 110.02 139.895C101.936 143.401 94.3773 145.053 86.9274 144.97C84.4218 144.937 81.5905 144.669 78.8427 144.411C77.7653 144.311 76.7464 144.21 75.7776 144.135C75.0677 144.077 74.9173 144.344 74.2492 146.264C73.9736 147.057 73.6311 148.042 73.105 149.294L73.0799 149.335C73.0465 149.394 69.4719 155.345 68.0687 159.844C67.5175 161.605 67.2085 163.216 66.9245 164.627C66.1144 168.767 65.4713 172.039 59.8254 175.378L59.483 174.793C64.87 171.605 65.4546 168.625 66.2647 164.493C66.5487 163.058 66.8661 161.43 67.4256 159.635C68.8037 155.203 72.2447 149.41 72.4869 149.001C72.9964 147.775 73.3388 146.806 73.6061 146.03C74.2492 144.185 74.5498 143.351 75.8277 143.451C76.8049 143.534 77.8238 143.626 78.9012 143.726C81.6323 143.985 84.4552 144.252 86.9274 144.285C94.2854 144.377 101.752 142.733 109.745 139.269C110.964 138.743 112.108 137.959 113.219 137.207C113.712 136.873 114.213 136.531 114.723 136.206C116.535 135.062 118.272 133.768 119.734 132.658C119.867 132.558 119.993 132.458 120.126 132.358C120.394 132.157 120.669 131.957 120.92 131.748C122.264 130.622 122.415 130.163 122.381 129.987C122.331 129.72 121.68 129.503 121.045 129.294C120.026 128.952 118.765 128.535 118.147 127.45L118.08 127.341L118.105 127.216C118.164 126.949 119.082 126.431 119.842 126.048C120.678 125.63 121.922 125.088 123.091 124.929C126.09 124.453 126.858 124.754 127.676 125.079C127.952 125.188 128.211 125.288 128.57 125.363C129.472 125.538 130.366 125.805 131.234 126.056C132.036 126.29 132.863 126.54 133.69 126.707C137.799 127.542 141.683 128.902 145.558 130.872C151.07 133.66 152.707 138.768 153.81 143.342C155.847 151.789 156.073 160.537 156.29 168.992C156.332 170.52 156.374 172.106 156.424 173.667C156.499 175.879 156.649 178.132 156.791 180.302C156.858 181.312 156.925 182.331 156.983 183.341L157.008 183.7L157 183.675Z" fill="black"/>
<path d="M69.8565 66.3666C72.0197 66.0745 73.4562 66.567 75.0097 67.8607C73.1138 67.2514 70.3159 65.8074 65.263 68.2697C65.1878 67.9859 68.5286 66.5419 69.8565 66.3666Z" fill="black"/>
<path d="M93.2585 63.6042C91.087 63.4373 89.6756 64.0132 88.1973 65.3821C90.0514 64.6643 92.7658 63.07 97.9523 65.2402C98.0108 64.9564 94.5948 63.7044 93.2585 63.5959V63.6042Z" fill="black"/>
<path d="M75.6182 69.8311C75.5096 69.4054 75.2006 69.1383 74.8665 68.8879C73.6972 67.9197 72.386 67.302 70.8325 67.3187C70.0558 67.494 69.2289 67.4272 68.4773 67.7694C67.7005 68.2118 66.882 68.5958 66.2389 69.2468C66.1053 69.347 65.4956 69.9062 65.2785 70.0231C65.2033 70.0899 64.6187 70.7075 64.5352 71.0915C64.8191 71.2668 64.9611 70.983 65.1616 70.9746C66.0719 70.5406 66.5981 69.6308 67.4333 69.0882C67.6003 69.2886 67.6337 69.4722 67.7089 69.6558C67.9344 70.2318 68.1098 70.8494 68.7278 71.1666C69.0786 71.2835 69.4878 71.4588 69.7551 71.1416C70.0725 70.7576 69.4711 70.6157 69.3793 70.2401C70.3147 70.6992 70.9578 70.2568 71.484 69.5139C71.7345 69.8979 71.6092 70.1399 71.5007 70.382C71.4088 70.599 71.2167 70.7994 71.4088 71.0498C71.5758 71.1666 71.7596 71.1666 71.9517 71.1082C72.0602 71.0665 72.1521 71.008 72.2273 70.9246C72.5029 70.5823 72.5363 70.165 72.6198 69.7643C72.6616 69.564 72.5948 69.2719 72.862 69.2051C73.1042 69.1467 73.3297 69.3219 73.5135 69.4805C73.7473 69.6892 73.5803 69.8728 73.4383 70.0481C73.2796 70.2485 73.2546 70.4404 73.4383 70.6324C73.6053 70.8077 73.8309 70.8912 74.0313 70.7743C74.499 70.5072 74.95 70.2318 75.4845 70.1399C75.6098 70.1149 75.6182 69.9563 75.6098 69.8311H75.6182ZM68.9951 69.1634C68.9032 69.3053 68.7779 69.4305 68.6944 69.5724C68.5441 69.8561 68.352 69.8061 68.1515 69.6642C67.9511 69.5139 67.6588 69.3637 67.9845 69.0548C68.1181 69.0799 68.2518 69.2635 68.377 69.1049C68.4689 68.9964 68.3186 68.8879 68.2852 68.7794C68.3436 68.6542 68.4689 68.6292 68.5775 68.5874C68.7362 68.5373 68.9199 68.4622 69.0536 68.6208C69.2039 68.8044 69.0953 68.9881 68.9867 69.155L68.9951 69.1634Z" fill="black"/>
<path d="M86.9698 69.5396C86.285 69.5396 88.5651 66.5514 88.682 66.3845C88.9242 66.0339 90.0099 65.1909 90.3357 65.0406C91.5049 64.4814 92.6826 64.448 94.0439 64.6233C94.3279 64.665 95.9816 65.0573 96.9838 65.483C97.8524 65.8586 98.6124 66.6265 98.8546 66.7768C99.0133 66.8769 99.172 66.9771 99.314 67.119C99.0133 67.2108 98.4621 67.1858 98.2282 67.0355C98.0528 66.927 97.0339 66.3678 96.3658 66.2259C96.1653 66.1842 95.5723 66.0256 94.8624 66.109C94.52 66.1508 94.5033 66.902 94.4866 67.1023C94.4532 67.7367 93.9019 68.3961 92.6157 67.9704C92.006 67.7701 91.7388 67.3945 91.7722 66.7684C91.7889 66.5347 91.5383 66.276 91.2293 66.2843C91.0289 66.2843 90.7616 66.3678 90.653 66.5097C90.5779 66.6098 90.6614 66.8936 90.7533 67.0606C90.8702 67.2776 91.3546 67.8535 91.6386 68.0038C91.8975 68.1457 92.1814 68.4462 92.8663 68.321C93.2171 68.2542 93.952 68.0372 93.9771 67.745C93.9771 67.7033 94.0356 67.6699 94.069 67.6365C94.1024 67.6699 94.1525 67.7033 94.1608 67.745C94.1775 67.8035 94.1608 67.8702 94.1608 67.9287C94.1274 68.2709 93.4175 68.6882 92.9832 68.7717C92.6909 68.8301 92.3318 68.947 92.006 68.9303C91.4799 68.9052 90.6029 68.3377 90.3357 68.0038C90.0851 67.6866 89.751 66.8185 89.6508 66.8102C88.5734 66.735 88.54 68.2458 89.442 68.8301C89.7761 69.0471 87.5294 69.548 86.9782 69.5396H86.9698Z" fill="black"/>
<path d="M86.9542 100.177C95.9464 97.9015 102.403 92.7673 101.374 88.7097C100.346 84.652 92.2232 83.2074 83.231 85.483C74.2388 87.7587 67.7827 92.8929 68.8108 96.9506C69.8389 101.008 77.962 102.453 86.9542 100.177Z" fill="#FFF2E3"/>
<path d="M81.9338 94.1878C81.8753 94.1878 81.8085 94.1878 81.75 94.1878C79.6537 94.1628 74.392 93.5618 73.064 93.278C73.0557 93.278 73.039 93.278 73.0306 93.278C72.8719 93.3865 72.6965 93.3114 72.1203 93.0192C71.9616 92.9441 71.8446 92.8857 71.7611 92.844C71.6442 92.844 71.5273 92.7772 71.4688 92.7354L71.3519 92.652C71.1598 92.652 70.9677 92.5769 70.9009 92.2012C70.8758 92.076 70.9259 91.9592 71.0345 91.9008C71.3268 91.7338 72.0534 92.0677 72.3207 92.3014C72.4543 92.4016 73.6654 92.9525 74.6008 92.7772C75.0685 92.6854 76.6303 92.3181 78.142 91.9675C80.4388 91.425 81.4577 91.1913 81.5913 91.1913C82.0256 91.1913 82.6771 91.3499 83.2033 91.4751C83.4538 91.5418 83.7127 91.6003 83.7962 91.6086C83.8297 91.6086 83.9382 91.5836 83.9716 91.5669C84.6648 91.0828 85.2244 90.8073 86.0179 90.8574C86.093 90.8574 86.3018 90.8908 86.7862 90.9659C92.4739 91.8089 94.019 91.7422 94.2946 91.5252C94.3113 91.4918 94.328 91.4584 94.3531 91.425C94.4115 91.3332 94.4366 91.2747 94.4533 91.2414C94.5201 91.0911 94.5953 91.0494 94.7623 91.0577H94.8542C95.063 91.0577 95.1465 91.1746 95.1799 91.2414C95.2968 91.5001 95.0296 91.8924 94.7874 92.1846L94.6454 92.3515L94.5201 92.2263C94.2111 92.3849 94.0775 92.2513 94.0357 92.1846C93.5095 92.3598 91.5051 92.9358 90.3525 93.253C88.3731 93.6703 84.2974 94.2212 81.9421 94.2212L81.9338 94.1878ZM74.7177 93.1361C76.8391 93.4199 80.1799 93.7705 81.75 93.7872C84.0385 93.8372 88.2478 93.253 90.2523 92.8273C91.029 92.6186 92.2317 92.2764 93.0669 92.026C91.8224 92.0093 89.7762 91.7839 86.7278 91.3248C86.3269 91.2664 86.0596 91.2247 85.9928 91.2247C85.3079 91.1829 84.8319 91.4166 84.1888 91.859C84.0886 91.9258 83.8798 91.9759 83.7712 91.9759C83.6543 91.9759 83.4455 91.9175 83.0947 91.834C82.6186 91.7171 81.9672 91.5418 81.583 91.5585C81.4243 91.5752 79.7205 91.9759 78.2172 92.3265C76.7472 92.6687 75.2355 93.0276 74.7094 93.1361H74.7177ZM71.3268 92.243C71.3268 92.243 71.3268 92.243 71.3185 92.243H71.3268ZM94.7623 91.4834C94.7623 91.4834 94.7623 91.4834 94.7623 91.4918C94.7707 91.4667 94.7874 91.45 94.7957 91.425C94.7957 91.425 94.779 91.4584 94.7707 91.4834H94.7623Z" fill="black"/>
<path d="M72.2031 93.0855C78.6007 97.8934 88.0217 98.4443 94.7784 92.2008C94.9872 92.0088 94.0852 91.4746 93.9014 91.6916C88.598 97.9601 76.4125 96.5912 72.6625 92.8602C72.579 92.7767 72.1363 92.7684 72.2198 92.8351V93.0855H72.2031Z" fill="black"/>
</g>
</g>
<defs>
<clipPath id="clip0_5795_5417">
<rect width="163" height="163" rx="81.5" fill="white"/>
</clipPath>
<clipPath id="clip1_5795_5417">
<rect width="146" height="164" fill="white" transform="translate(11 20)"/>
</clipPath>
</defs>
</svg>
