<svg fill="none" height="163" viewBox="0 0 163 163" width="163" xmlns="http://www.w3.org/2000/svg" xmlns:xlink="http://www.w3.org/1999/xlink"><clipPath id="a"><rect height="163" rx="81.5" width="163"/></clipPath><clipPath id="b"><path d="m11 20h146v164h-146z"/></clipPath><g clip-path="url(#a)"><circle cx="81.5" cy="81.5" fill="#ffdeb5" r="81.5"/><g clip-path="url(#b)"><path d="m64.5433 82.8358c8.704 0 15.7601-7.0743 15.7601-15.8007 0-8.7265-7.0561-15.8007-15.7601-15.8007-8.7041 0-15.7601 7.0742-15.7601 15.8007 0 8.7264 7.056 15.8007 15.7601 15.8007z" fill="#fff2e3"/><path d="m90.0925 110.498c-.7267.183-1.2445.325-1.7706.434-.7434.158-1.1109.475-.8269 1.318.4594 1.353.0919 1.728-1.3029 1.411-.1921-.042-.3842-.092-.5763-.1-1.0774-.034-1.9627-.159-2.9565-.96-1.2194-.985-2.9232-1.561-4.5017-1.828-1.779-.309-2.8814-1.386-4.0424-2.554.5596.325 1.1108.659 1.6788.968 2.3135 1.277 3.7583 1.135 5.863-.492.3257-.251.7851-.326 1.1609-.535.2088-.116.4594-.292.5429-.492.451-1.093 2.1465-2.07 3.3491-1.878.9271.142 1.6621.342 1.5201 1.611-.0501.484.4343 1.052.735 1.544.2839.467.6431.885 1.1275 1.544z" fill="#fff2e3"/><path d="m85.8175 126.282c.6264-.442.9939-.701 1.495-1.06-1.186-.292-2.2132-.551-3.3408-.826.3842-.793.8269-1.536-.1169-2.137-.025-.017.3174-.927.5262-.943.9438-.092 2.1798-.359 2.7979.108.8185.618 1.7372 1.619 1.069 3.055-.2756.593-.1587 1.377-.2171 2.003-.5345-.05-1.2111-.108-2.2133-.192z" fill="#fff2e3"/><path d="m52.5095 53.8643v-5.0916c-.0501-.025-.1002-.0417-.142-.0667-.3341.9432-.6682 1.878-.9939 2.8212-.167-.0501-.3257-.0918-.4927-.1419.8853-3.5558 1.7789-7.1199 2.6976-10.8176 1.2361.6761 1.5117-.0668 1.946-.9014.9772-1.8531 2.1214-3.6226 3.1905-5.4339.167.0918.3424.192.5094.2838-.4343.7596-.8686 1.5192-1.353 2.3705 1.0607.3089.8436.9265.5011 1.6611-.5261 1.1435-.9437 2.3371-1.4448 3.489-.4594 1.06-1.0691 2.07-1.4533 3.1551-.4259 1.1936-.6681 2.454-.9939 3.6893-.1169-.025-.2338-.05-.3507-.0667.5762-2.3622 1.1442-4.716 1.7205-7.0782-.1587-.0501-.3091-.1002-.4678-.1586-.6765 1.9114-1.52 3.7895-1.9877 5.751-.4761 2.0116-.5763 4.1067-.8937 6.5273z" fill="#fff"/><path d="m69.2373 64.4897c-2.3218 1.4607-4.318 2.7127-6.5062 4.09-1.211-.4842-1.6703-3.3138-.4343-4.7661.5012-.5927 2.8397-.3506 3.4494.192.2255.2003.618.2504.9438.2837.7433.0835 1.5033.1252 2.5556.2004z" fill="#fff2e3" opacity=".45"/><path d="m31.5462 131.549c-.4844 5.918-.9689 11.828-1.4449 17.746-.0919 0-.1838 0-.2756-.009.0334-.751.1085-1.502.1002-2.253-.0167-1.578-.142-3.156-.0919-4.725.0251-.759.3842-1.511.5011-2.279.3007-2.019.568-4.056.7935-6.084.0835-.802.0167-1.62.0167-2.429.1336.008.2672.025.4009.033z" fill="#fff"/><path d="m64.1426 70.1229c.1336-2.3372 2.3302-4.0817 5.2533-4.2069-1.8374 1.4691-3.441 2.7545-5.2533 4.2069z" fill="#fff2e3"/><g fill="#fff"><path d="m33.4492 136.339c.4176-1.202.8269-2.412 1.2445-3.614.1586.058.309.108.4677.167-.4343 1.201-.8603 2.403-1.2946 3.614-.142-.05-.2756-.109-.4176-.159z"/><path d="m36.6816 148.151c.5596-1.311 1.1192-2.613 1.6287-3.79.5428.91.2505 1.803-1.6287 3.79z"/><path d="m118.372 89.4469c-.184-1.1268-.367-2.2536-.56-3.3888.201-.0251.401-.0584.593-.0835.126 1.1352.243 2.2704.368 3.4055-.134.0167-.276.0418-.409.0585z"/><path d="m51.4141 38.3793c.7683-1.4023 1.5451-2.813 2.3134-4.2152.0919.0417.1838.0918.2757.1335-.7434 1.4106-1.4867 2.8213-2.23 4.2319-.1169-.0501-.2422-.1002-.3591-.1502z"/><path d="m56.066 36.252c-.7433 1.4022-1.3613 2.5791-1.9877 3.7644-.2088-.8347.6431-2.5541 1.9877-3.7644z"/><path d="m112.393 88.6703c.075-.9098.158-1.8113.233-2.7211.142.0167.293.0251.435.0417-.084.9099-.159 1.828-.242 2.7378-.142-.0167-.284-.0417-.426-.0584z"/></g><path d="m123.559 131.213c3.157 1.853 32.338 45.892 32.23 42.653-.334-10.141-.201-20.325-2.598-30.274-1.202-5.008-2.931-9.649-8.084-12.253-3.784-1.92-7.668-3.297-11.793-4.132-1.729-.351-3.391-1.018-5.12-1.344-1.47-.284-2.998-.292-4.502-.426-.016.092-.042.184-.058.284.334.276.668.559 1.278 1.068-1.829.585-3.4 1.086-5.062 1.611 8.052 6.319.61 3.723 1.863 4.166 1.344.475-2.013.592-.894-.368 1.462-1.252.351 3.147.067 3.347-2.13 1.503-5.136.334-7.291 1.787-1.303.884-2.606 1.819-4.043 2.445-7.324 3.172-14.9412 5.142-22.9757 5.05-3.4661-.042-6.9405-.3-10.3982-.584-1.4616-.117-1.637-.818-.6097-1.92.7935-.851 1.6203-1.678 2.4805-2.454 1.0023-.91 1.5786-3.047 1.1693-4.365-.4176-1.328-.6932-2.705-1.1525-4.007-.5095-1.436-1.1359-2.838-1.7874-4.223-.3591-.777-.9855-1.436-1.2778-2.229-.8603-2.329-1.637-4.683-2.4137-7.045-1.4115-4.307-2.7728-8.622-4.2177-12.912-.3258-.985-.8352-1.92-1.3447-2.822-.7767-1.369-1.8541-2.6123-2.4054-4.0563-2.2967-5.9681-3.2238-12.27-4.0673-18.5635-.1587-1.2104.4927-2.5792.9771-3.7979.3341-.8597 1.0941-1.5525 1.5117-2.3872.5513-1.1018 1.4449-1.611 2.5557-1.853.5513-.1169 1.1275-.167 1.7372-.2504-.2004-.2671-.4593-.4841-.5345-.7596-.0752-.2838.0334-.6177.0668-.9348.2422.1418.5345.242.7099.4423.4343.5009.8102 1.0517 1.1777 1.5526-.9522.434-.6348 1.2103.1252 1.9615-.1921.2087-.3257.3506-.5595.601.6932 0 1.2193-.0919 1.7037.0167 1.6203.3505 2.99-.1086 4.318-1.0184 2.6058-1.7779 2.0045-6.3436.8101-8.0631-.8268-1.1769-.8352-1.5942.1003-2.7044.1336-.1586.2088-.5425.1169-.7011-.5262-.8848-1.0858-1.8614-2.2717-1.8614-1.8375 0-3.6832.0918-5.5123.2671-1.6286.1586-3.2322.4925-4.9611.7763 0-.4758-.0501-.7846 0-1.0768.4761-2.3955.9939-4.7911 1.4616-7.195.3675-1.8947.4427-3.8813 1.0691-5.6926 1.2862-3.7144 3.3157-6.4521 6.9321-7.8461.309-.1168 1.4449.0251 1.5284-.2587.2756-.8848 9.2623-3.8813 10.4983-2.9131.4009.3088 11.4088 2.045 12.0101 1.5442 1.2361 1.2687 6.3555 4.5741 6.6065 5.6926.301 1.3605 2.305 2.8713 2.113 4.4489-.05.4006.376 2.5124.643 3.2636.601 1.6777 2.698 7.9296 2.414 8.6891-.05.1419-.426 4.1234.041 5.5507.059.1837.669.793.694 1.0517-.46-.2754 1.578 1.1352 1.211.9182-.117.2337 3.165-3.9898 3.199-3.7812 6.831.1336 1.987 16.5019 1.62 17.2948-.543 1.1853-1.57 1.7445-2.247 2.8463-.326.5259-1.386.3172-1.979.5175-.418.1503-1.128-.0333-1.504-.3255-.793-.626-.484-.4925-.71.5426-.35 1.6526-.342 3.1885-.526 4.8662-.309 2.7879-1.336 5.7093-2.839 8.1299-1.345 2.1702.183 4.2483.275 6.6353.05 1.303.242 2.546.268 3.848 1.386 5.067.517 9.291 4.869 13.013.175.15.476 1.661.626 1.569 1.186 1.678 8.953 6.803 12.653 8.973zm-26.4593-45.6322c-.8603-.1335-3.4076 1.0267-3.0568 3.0049.1336.7596.2088 1.878-.2172 2.2954-.4259.4257-1.52.2671-2.3051.217-.5763-.0334-1.1275-.3756-1.7121-.4674-1.6036-.2671-3.1821-1.1602-4.8609-.192-.3257.192-.8184.0751-1.3947.1169-.0167-.3005-1.328-.3673-2.5223.0667-1.7456.5843-2.7729 1.1603-4.7439 1.9282-1.3614.5258-2.4805.5258-3.5579-.5676-.6264-.6427-1.6454-.4674-1.9627.3339-.2088.5091-.2506 1.1769-.117 1.7027.1504.601.5763 1.1436.8853 1.7111.4594-.3422.9104-.6928 1.3781-1.0183.3926-.2754.8185-.7429 1.2194-.7262 1.8541.0668 3.6999.2254 5.5373.4341.5178.0584 1.0524.3172 1.4783.626.3591.2588.6682.5092.8603.7679 1.4699.7012 5.2617.7178 6.9655-.9933 1.1024-1.1018 2.7728-1.4941 4.2093-2.1535 1.044-.4841 1.2194-.3255 1.1192.8347-.1002 1.1769.3257 1.5275 1.4616 1.2187.3758-.1002.7517-.2087 1.1358-.2755.7517-.1335 1.1025-.6177 1.0858-1.3271-.0084-.4675-.142-.9265-.2506-1.3856-.4677-2.02-1.0523-4.0232-.6431-6.1433zm-7.0156 25.0152c-.4844-.659-.8436-1.076-1.1275-1.544-.3007-.492-.7935-1.06-.735-1.544.142-1.269-.593-1.469-1.5201-1.611-1.2026-.183-2.9064.785-3.3491 1.878-.0835.209-.3341.384-.5429.493-.3758.2-.8352.275-1.1609.534-2.1047 1.628-3.5495 1.769-5.863.492-.568-.308-1.1192-.651-1.6788-.968 1.161 1.169 2.2634 2.245 4.0424 2.554 1.5785.267 3.2906.852 4.5017 1.828.9938.802 1.8791.927 2.9565.96.1921 0 .3926.05.5763.1 1.3948.317 1.7623-.058 1.3029-1.41-.2923-.852.0835-1.161.8269-1.319.5261-.109 1.044-.259 1.7706-.434zm-4.2762 15.784c1.0022.092 1.6787.151 2.2132.192.0585-.626-.0668-1.41.2172-2.003.6765-1.435-.2506-2.445-1.0691-3.055-.618-.467-1.8541-.192-2.7978-.108-.2172.016-.5513.935-.5262.943.9438.601.5011 1.335.1169 2.137 1.1359.284 2.1548.534 3.3408.826-.5011.359-.8686.618-1.495 1.06z" fill="#fff2e3"/><path d="m100.174 57.027c.275.3589-1.0609 1.1185-1.4952 1.01-.1837-.0418-1.9209-.3339-2.1798-.2838-.4093.0834-.6014.0417-1.5117.1836-.2506.0417 0 0-.6682.2421-.4426.1168-.8853.2253-1.3279.3505-.4761.1336-.9522.2838-1.4199.4257-.6097.1753-1.2194.3506-1.8207.5259-.1503.0417-2.706.2504-2.9399.3672-.2171.1085-1.1776-.2754-1.5451-.4507.0501-.192.1002-.4758.2088-.7345.0501-.1169.2255-.2588.3508-.2671.4677-.0167 2.3552-1.1102 3.0735-1.1436.5596-.025 4.5852-1.7528 4.936-1.8029.5345-.0835 2.7478-.2504 3.2907-.2754.3257-.0167 2.8062 1.5274 3.0566 1.853z" fill="#000"/><path d="m59.7911 62.5118c-.1837.4173 1.2946.843 1.6871.6427.1671-.0835 1.7873-.7679 2.0629-.7763.4176-.0167.593-.1002 1.5117-.1669.2506-.0167 0 0 .71.0834.4593.0084.9103.0167 1.3697.0334.4927.0251.9855.0585 1.4866.0835.6348.0334 1.2612.0584 1.8959.0918.1587 0 .3341-.025.4761.0334.6431.2838 1.2026-.0668 1.7622-.2504.2506-.0835.4594-.1503.7099-.0918.2339.0584.4343.0334.6181-.1586.2088-.2087-.7434-1.227-2.6309-1.5442-.5512.1085-2.3385-.7178-2.9232-.7596-.3591-.025-2.5473-.2337-2.9064-.2086-.5429.0417-2.7311.3839-3.2656.4841-.3258.0584-2.3803 2.1284-2.5474 2.5041z" fill="#000"/><path d="m64.3262 99.4117c.4009 1.5523 1.4783 2.8883 2.5223 4.0653 1.2778 1.444 2.7227 2.737 4.201 3.956 2.6726 2.212 5.3118 4.474 8.9032 4.808 3.5913.334 7.3329-.117 10.6152-1.269 2.0045-.709 4.0925-1.419 5.8464-2.646 1.5033-1.052 2.7478-2.412 3.8667-3.864 1.22-1.578 2.381-3.222 3.5-4.8667.927-1.3605 2.063-2.9381 2.413-4.5741.084-.3923-.517-.5676-.609-.1669-.343 1.4273-1.286 2.7878-2.088 4.0065-.844 1.2852-1.763 2.5122-2.656 3.7642-1.0776 1.519-2.2218 3.005-3.6166 4.249-1.5785 1.402-3.441 2.228-5.3953 2.963-3.3324 1.252-6.74 1.836-10.3063 1.836-1.7539 0-3.4827-.233-5.0529-1.051-1.495-.777-2.8062-1.895-4.1175-2.947-2.8814-2.312-6.2055-4.933-7.7088-8.4052-.0835-.1836-.3675-.0501-.3174.1335z" fill="#291510" stroke="#291510" stroke-miterlimit="10" stroke-width=".15"/><path d="m156.04 173.958c-.334-10.158-.2-20.366-2.606-30.332-1.211-5.017-2.94-9.666-8.093-12.279-3.791-1.919-7.683-3.297-11.818-4.14-1.729-.35-3.399-1.018-5.128-1.352-1.478-.284-2.998-.292-4.501-.426-.017.092-.042.184-.059.284.334.276.668.56 1.278 1.069-1.837.584-3.04 4.39-4.101 5.417-.25.242-.551.451-.835.651-2.13 1.502-4.243 3.03-6.406 4.491-1.303.884-2.614 1.827-4.051 2.445-7.333 3.18-14.9663 5.15-23.0176 5.058-3.4744-.041-6.9488-.3-10.4148-.584-1.4616-.117-1.637-.818-.6097-1.92.7934-.851 1.6203-1.677 2.4889-2.462 1.0105-.91 1.5785-3.047 1.1692-4.374-.4176-1.327-.6932-2.704-1.1609-4.015-.5095-1.435-1.1359-2.838-1.7873-4.232-.3591-.776-.9855-1.435-1.2778-2.228-.8603-2.329-1.6454-4.691-2.4137-7.053-1.4199-4.307-2.7812-8.639-4.2261-12.938-.3258-.985-.8352-1.92-1.3447-2.83-.7767-1.377-1.8541-2.6122-2.4137-4.0646-2.2968-5.9847-3.2322-12.295-4.0757-18.5969-.1587-1.2103-.142-2.7795-.0167-4.0816.0835-.9182.3507-1.5943.7767-2.4373.5512-1.1018 1.2695-13.0295 1.3279-13.3217.4761-2.4039 1.0023-4.7994 1.47-7.2033.3675-1.9031.4426-3.8897 1.069-5.701 1.2862-3.7227 4.0841-6.0515 7.7089-7.4538.309-.1168 1.9376-.5843 2.2216-.6594l7.5251-1.5942c6.1052-.4758 11.3836 1.3522 12.0768 1.7111 1.9043.9933 4.2512 2.8212 4.485 3.0132 2.0376 1.636 3.6586 4.3571 4.0256 6.5106.067.4007.994 2.8296 1.261 3.5808.602 1.6861 1.286 3.3471 1.704 5.0833.184.7763.735 2.5291.451 3.2887-.05.1419-.092.3172-.042.4507.476 1.4273.81 6.3937 3.065 6.3937.201 0 2.949-4.1985 5.571-2.3955.944.626-.409 13.522-.777 14.3149-.542 1.1853-1.712 2.5208-2.388 3.6309-.326.5259-.944 1.0016-1.529 1.2103-.426.1503-1.127-.0334-1.503-.3255-.802-.626-1.136-.626-1.361.409-.351 1.661-.669 3.3304-.852 5.0165-.309 2.7962-.368 5.7093-1.871 8.1382-1.353 2.1702-1.554 4.3989-1.47 6.7859.05 1.302.058 2.613.083 3.915.109 5.734 2.347 10.475 6.707 14.206.175.151.576.284.718.192 1.103-.684 3.383-1.886 3.65-2.445.735-1.511 2.088-2.713 2.305-4.483.009-.075 2.255-9.741 2.381-9.741.075-2.011.292-4.031.2-6.0427-.109-2.504-.459-4.9914-.702-7.4955.009-.2921-.835-10.1081-.952-11.0763-.158-1.3022-1.278-3.439-1.152-6.8111.067-1.7779.401-9.2985-.176-12.5704-.35-2.0117-1.144-3.9648-1.294-5.9764-.142-1.9282-.61-5.0916-1.144-8.1216-.343-1.9531-2.239-3.7811-3.35-6.0097-.927-1.8531-2.497-3.3388-3.775-4.9164-.442-.5425-.977-1.1018-1.428-1.686-.325-.4174-1.403-1.6193-1.804-1.9365-1.169-.9182-1.545-1.0851-2.748-1.9532-.175-.1252-.334-.2921-.484-.4591-.284-.3005-.56-.6093-.902-.9933.0251-.1001-.2923-.6928-.3925-.8514-.5847-.9432-.9939-1.6777-1.8541-2.287-1.7122-1.2103-2.0713-1.5525-4.176-1.853-1.3697-.192-2.4137-.6344-3.0652-.8597-1.3613-.4842-2.6308-1.2104-3.9254-1.8698-2.1297-1.0851-4.3597-1.5608-6.7567-1.3021-1.1358.1252-2.3803.4007-3.4243.1002-2.8062-.818-5.3535.2587-7.8508 1.01-4.4098 1.3271-7.9844 3.9314-10.941 7.2952-1.4282 1.277-3.0234 3.4723-4.4683 6.2184-.5512.8848-1.0941 1.7696-1.637 2.6627-.7099 1.1518-1.2611 2.3955-1.9627 3.731-2.0963 5.893-1.6369 10.4921-2.3051 12.462-.6264 1.853-2.1798 5.6926-2.3552 5.6425-.426 1.2353-.9438 2.454-1.2528 3.7227-.3425 1.4023-.5345 2.8379-.7099 4.2736-.0919.7429-2.088 7.0448-2.3636 8.372-.7684 3.6642-1.4115 7.3619-1.8709 11.0763-.2839 2.3037-1.0941 7.2284-1.1275 7.4538-.3006 2.0617-.6765 4.115-.8936 6.1848-.284 2.663-.3926 5.342-.6682 8.005-.2505 2.379-5.4955 16.385-6.2806 17.128-1.6788 1.586-5.529 10.892-6.0218 12.119-1.3363 3.373-2.5222 6.812-4.6353 9.841-.5512.785-.6681 1.895-.8853 2.88-.2004.918-.2088 1.878-.4176 2.788-.6932 3.122-1.52 6.227-2.1464 9.365-1.0607 5.301-2.0212 10.634-3.0151 15.951-.309 1.628-.6097 3.256-.9103 4.891h145.2152c-.192-3.238-.46-6.477-.568-9.715zm-135.0338-19.314c.1169-.526.2422-1.052.3591-1.586.0084.375.0334.743.0668 1.102l-.1336.55c-.1002-.025-.1921-.041-.2923-.066z" fill="#edca8c"/><path d="m156.958 184h-145.958l.3257-1.753c.2172-1.168.4343-2.345.6515-3.514.2839-1.536.5679-3.063.8519-4.599.6932-3.723 1.4031-7.579 2.1631-11.352.3842-1.903.8436-3.814 1.2862-5.667.2923-1.236.593-2.463.8686-3.698.1002-.442.1504-.91.2005-1.369.0501-.467.1085-.952.2088-1.427.0417-.192.0835-.393.1252-.601.1671-.843.3341-1.711.8102-2.396 1.7956-2.571 2.9315-5.509 4.0423-8.347.1838-.476.3758-.951.5596-1.435.0417-.101 4.2344-10.476 6.0969-12.237.7266-.726 5.9299-14.457 6.1804-16.919.1336-1.294.2339-2.621.3257-3.898.1003-1.344.2005-2.738.3425-4.098.1503-1.3861.3675-2.78.5846-4.1322.1086-.6845.2172-1.3773.3174-2.0617 0-.0417.0334-.2254.0835-.5175.2255-1.3773.8101-5.0415 1.044-6.9363.4426-3.5474 1.0523-7.1783 1.8792-11.1014.1336-.651.6848-2.479 1.2026-4.2485.5179-1.7529 1.1109-3.7395 1.1526-4.09.1587-1.3188.3591-2.8463.7183-4.3154.2171-.9014.5429-1.7779.8519-2.6293.142-.3756.2756-.7512.4092-1.1268l.1002-.2921.0836.025c.3842-.7011 1.5868-3.6726 2.1715-5.3754.2255-.6761.3173-1.7028.4426-3.0049.2172-2.3789.5095-5.6425 1.8625-9.457.2422-.4675.4426-.8765.6431-1.2855.4426-.8764.8519-1.7111 1.3447-2.5124l.3758-.6093c.4176-.6844.8435-1.3689 1.2695-2.0533 1.4282-2.7211 3.0401-4.9581 4.5267-6.2853 3.1905-3.6309 6.9238-6.1182 11.0663-7.3619.3341-.1002.6765-.2087 1.0106-.3172 2.2133-.7011 4.4933-1.4273 7.024-.6928.7767.2254 1.7038.1002 2.6058-.0167.2338-.0334.4593-.0584.6848-.0835 2.397-.2671 4.6604.1753 6.9405 1.3355.2672.1336.5345.2755.8018.4174.9938.5175 2.0211 1.06 3.0818 1.4273l.3174.1169c.6515.242 1.5451.5676 2.681.7345 2.0462.2921 2.539.6427 4.0005 1.6777l.3258.2254c.8352.5926 1.2778 1.3105 1.7873 2.1368l.1503.2421c.0919.1502.3424.5675.4176.868l.2259.2588c.217.242.409.4591.609.6677.159.167.293.3089.435.4174.476.3422.818.5759 1.135.7846.493.3339.911.6177 1.629 1.1769.443.3506 1.545 1.5943 1.854 1.9866.251.3172.526.6343.794.9432.217.2504.434.4924.626.7345.351.434.727.8597 1.102 1.2854.994 1.1352 2.03 2.3121 2.715 3.6894.426.8513.977 1.661 1.503 2.4373.852 1.2436 1.654 2.4122 1.871 3.6642.601 3.4139 1.019 6.3854 1.153 8.1466.083 1.1686.401 2.3455.71 3.489.217.8013.434 1.6277.584 2.4624.551 3.1384.284 10.0413.192 12.32l-.016.3172c-.084 2.287.417 4.0065.785 5.2669.167.5759.309 1.0684.367 1.4941.117.9432.969 10.8259.961 11.1264.075.7095.158 1.4607.242 2.2119.192 1.7195.392 3.4974.459 5.2586.059 1.4027-.025 2.8297-.108 4.2147-.034.618-.076 1.236-.101 1.853v.318h-.1c-.392 1.318-2.188 8.998-2.288 9.473-.142 1.202-.794 2.162-1.42 3.08-.343.501-.66.969-.91 1.478-.234.476-1.262 1.102-2.807 2.003-.359.209-.701.409-.969.576-.325.2-.885-.033-1.102-.225-4.41-3.782-6.707-8.639-6.824-14.449l-.016-1.218c-.017-.894-.025-1.795-.059-2.688-.083-2.22.042-4.6077 1.52-6.9699 1.245-2.0032 1.479-4.4238 1.704-6.761.042-.4173.084-.8263.125-1.2353.159-1.4774.435-3.0884.852-5.0499.092-.4424.243-.9181.635-1.06.376-.1336.768.0834 1.245.459.309.2421.902.384 1.194.2755.534-.192 4.134-4.0232 4.56-11.5939.284-5.0415.209-6.7693.033-7.003-1.895-1.2938-4 1.1101-4.785 2.0116-.309.3589-.393.4507-.577.4507-2.012 0-2.647-3.1635-3.065-5.2585-.117-.5676-.208-1.0601-.309-1.3606-.075-.2337-.016-.4924.05-.6594.201-.5425-.158-1.9281-.35-2.671-.042-.1586-.084-.3088-.109-.4257-.317-1.3188-.802-2.6293-1.278-3.898-.142-.3839-.284-.7679-.426-1.1519-.067-.1836-.175-.4674-.292-.8013-.51-1.3689-.935-2.5291-.986-2.8379-.367-2.1368-2.004-4.7911-3.9083-6.3103-.0251-.0167-2.4638-1.9532-4.4349-2.9798-.5763-.3005-5.7712-2.1619-11.9015-1.6777l-7.4833 1.5859c-1.1526.3255-1.9878.5759-2.1715.651-3.8335 1.4774-6.3642 3.9147-7.5167 7.2535-.4009 1.1519-.568 2.4122-.7433 3.6309-.0919.6677-.1838 1.3522-.3174 2.0199-.2673 1.3689-.5512 2.7295-.8269 4.09-.2171 1.035-.4259 2.0784-.6347 3.1134-.0084.0751-.0585.7846-.1169 1.5943-.4009 5.6508-.8352 11.0012-1.2361 11.8025-.4093.818-.6598 1.4691-.7433 2.3204-.1337 1.4357-.1337 2.9382.0167 4.0066.8936 6.6858 1.8207 12.6873 4.059 18.5217.3341.8765.8686 1.6694 1.4282 2.5042.3257.492.6681.993.9604 1.519.4845.851 1.0273 1.845 1.3698 2.888.8769 2.604 1.7288 5.259 2.564 7.829.5512 1.703 1.1025 3.414 1.662 5.117.7183 2.187 1.5284 4.666 2.4137 7.045.1504.401.3926.776.6599 1.168.2171.326.4426.668.6096 1.036.6181 1.327 1.2612 2.762 1.7957 4.256.2756.768.4844 1.561.6849 2.338.1503.567.3006 1.135.476 1.694.451 1.427-.167 3.723-1.2611 4.708-.8269.743-1.6537 1.569-2.4638 2.437-.6181.668-.5763.96-.5513 1.027.0668.175.426.3.9522.35 3.3324.276 6.8736.543 10.3981.584 7.3831.092 14.8668-1.56 22.8838-5.033 1.22-.526 2.364-1.31 3.483-2.07l.518-.35c1.579-1.069 3.165-2.196 4.702-3.289l1.696-1.202c.3-.217.576-.409.801-.626.351-.342 1.579-.442 2.005-1.227.71-1.302.685-3.397 1.72-4.032l-1.035-.868.158-.751.284.025c.46.042.919.067 1.378.1 1.044.067 2.113.134 3.157.334.911.176 1.804.443 2.673.701.802.242 1.637.485 2.456.651 4.117.843 8.009 2.204 11.901 4.174 5.521 2.796 7.166 7.913 8.268 12.487 2.038 8.472 2.264 17.236 2.481 25.717.042 1.561.083 3.121.134 4.682.075 2.221.225 4.474.367 6.653.067 1.018.134 2.036.201 3.055zm-145.1729-.651h144.4799c-.058-.902-.117-1.803-.175-2.704-.142-2.187-.301-4.449-.368-6.678-.05-1.561-.092-3.13-.133-4.691-.218-8.447-.443-17.178-2.464-25.575-1.069-4.432-2.648-9.39-7.926-12.061-3.834-1.945-7.676-3.289-11.735-4.115-.852-.175-1.695-.426-2.514-.668-.852-.25-1.737-.517-2.605-.684-1.003-.192-2.055-.259-3.074-.326-.267-.017-.543-.033-.81-.05l1.328 1.11-.568.184c-1.044.334-.919 2.788-1.645 4.123-.476.868-1.905.81-2.331 1.219-.258.25-.551.459-.835.659l-1.737 1.227c-1.537 1.094-3.124 2.22-4.71 3.297l-.518.351c-1.136.776-2.314 1.577-3.583 2.128-8.11 3.506-15.6685 5.15-23.1518 5.084-3.5412-.042-7.0991-.309-10.4399-.585-.8268-.067-1.3363-.325-1.5034-.759-.1837-.468.0418-1.027.6766-1.711.8268-.885 1.6703-1.72 2.5055-2.479.9187-.835 1.4533-2.83 1.0774-4.032-.1754-.568-.334-1.144-.4844-1.72-.2004-.759-.4092-1.544-.6681-2.278-.5262-1.469-1.161-2.888-1.7706-4.199-.1504-.325-.3508-.634-.568-.951-.2672-.409-.5512-.827-.7266-1.302-.8853-2.388-1.7038-4.875-2.4221-7.062-.5595-1.703-1.1108-3.414-1.662-5.117-.8268-2.57-1.6871-5.225-2.564-7.821-.3257-.984-.8519-1.944-1.3196-2.771-.284-.501-.6181-.993-.9354-1.477-.5596-.835-1.1359-1.6946-1.495-2.6378-2.2634-5.9012-3.1988-11.9444-4.0925-18.672-.1503-1.1185-.1587-2.671-.0167-4.1567.0919-.9599.3675-1.6611.8102-2.5542.4008-.8013.9604-8.6223 1.1692-11.5605.0919-1.2937.1169-1.6026.1337-1.6777.2087-1.0433.4259-2.0784.6347-3.1217.284-1.3606.5596-2.7211.8268-4.09.1253-.6511.2172-1.3272.3091-1.9866.1753-1.252.3507-2.5458.7683-3.7561 1.2194-3.5224 3.8753-6.1016 7.901-7.6457.2839-.1086 1.5284-.4675 2.255-.6761l7.5501-1.5943c6.3224-.5008 11.7011 1.4357 12.294 1.7445 2.0296 1.0517 4.5184 3.0299 4.5435 3.0466 2.046 1.636 3.75 4.3988 4.143 6.7109.05.2755.618 1.803.952 2.7211.125.3339.234.6177.3.8097.134.3839.276.7595.418 1.1435.476 1.2854.969 2.6126 1.294 3.9731.026.1169.067.2588.109.4174.317 1.227.585 2.3788.334 3.0633-.05.1252-.05.2087-.042.2337.109.3422.218.8514.334 1.4357.368 1.8363.919 4.5908 2.314 4.7327.05-.0501.117-.1336.2-.2254.894-1.0267 3.274-3.7478 5.671-2.1034.234.1502.777.5175.243 7.387-.234 3.0466-.685 7.5706-3.308 10.9929-.409.5342-1.019 1.1018-1.695 1.3438-.568.2003-1.387-.0417-1.813-.3839-.484-.384-.601-.359-.618-.359 0 0-.108.0585-.225.5843-.418 1.9448-.685 3.5224-.844 4.9831-.041.409-.083.818-.125 1.227-.234 2.4123-.476 4.908-1.796 7.0448-1.378 2.2203-1.495 4.482-1.419 6.602.033.902.05 1.803.058 2.705l.017 1.218c.108 5.618 2.33 10.317 6.598 13.965.1.083.325.15.384.15.225-.15.568-.35.935-.568.894-.517 2.389-1.393 2.548-1.727.267-.551.618-1.069.952-1.561.609-.902 1.186-1.745 1.319-2.813.009-.084.694-2.988 1.153-4.933.752-3.139 1.036-4.341 1.228-4.808.025-.609.058-1.227.1-1.836.083-1.361.167-2.771.108-4.1487-.075-1.7361-.267-3.5057-.459-5.2084-.083-.7513-.167-1.5108-.242-2.2621 0-.459-.844-10.1498-.952-11.068-.05-.3756-.184-.843-.343-1.3939-.375-1.3021-.902-3.08-.81-5.4756v-.3255c.1-2.2536.368-9.1065-.167-12.1781-.142-.8013-.359-1.6193-.568-2.4039-.309-1.1686-.634-2.3789-.726-3.6059-.126-1.7445-.543-4.691-1.145-8.0881-.192-1.1185-.96-2.2287-1.77-3.4139-.543-.793-1.103-1.6193-1.554-2.5124-.651-1.3022-1.653-2.4457-2.622-3.5475-.384-.434-.76-.8681-1.119-1.3021-.192-.2337-.401-.4758-.618-.7178-.276-.3172-.56-.6427-.819-.9683-.317-.409-1.37-1.5859-1.745-1.878-.694-.5426-1.111-.8264-1.587-1.1436-.318-.217-.668-.4507-1.153-.8013-.2-.1419-.359-.3171-.518-.4841-.217-.2253-.4089-.4424-.626-.6928l-.4009-.4507.025-.1085c-.0501-.1419-.2422-.5092-.3341-.6678l-.1503-.242c-.4928-.8013-.8853-1.4357-1.6119-1.9449l-.3257-.2337c-1.4366-1.0183-1.8207-1.2937-3.7083-1.5608-1.2027-.167-2.1798-.5259-2.8146-.768l-.309-.1085c-1.0941-.3923-2.1464-.9348-3.1654-1.469-.2672-.1419-.5345-.2755-.8018-.4174-2.1548-1.1018-4.3096-1.5191-6.5729-1.2687-.2172.025-.4427.0584-.6765.0835-.9689.1335-1.9711.2587-2.8815 0-2.3301-.6761-4.5267.0167-6.6397.6844-.3425.1085-.6849.217-1.019.3172-4.0841 1.227-7.6086 3.5808-10.7907 7.195-1.4532 1.3105-3.0234 3.4807-4.4265 6.1517-.4343.7011-.8602 1.3856-1.2778 2.07l-.3759.6094c-.476.7762-.8853 1.5942-1.3112 2.4623-.2005.409-.4093.8263-.6348 1.252-1.3112 3.6977-1.6035 6.9113-1.8123 9.2568-.1253 1.3438-.2172 2.4122-.4677 3.1551-.3091.9014-.8519 2.3288-1.353 3.5558-.568 1.3856-.8436 1.9615-1.0357 2.1952-.1169.3506-.2505.6928-.3758 1.0434-.309.8347-.6264 1.6944-.8352 2.5541-.3508 1.4273-.5429 2.9381-.7016 4.2319-.0501.384-.476 1.8447-1.1776 4.1985-.5262 1.7528-1.0607 3.5725-1.1943 4.1985-.8185 3.9063-1.4282 7.5205-1.8709 11.0513-.2338 1.9031-.8268 5.5757-1.0523 6.953-.0501.2838-.0752.4674-.0835.5091-.1002.6928-.2088 1.3856-.3174 2.0701-.2088 1.3438-.4343 2.7294-.5763 4.0987-.142 1.352-.2422 2.737-.3424 4.081-.0919 1.286-.1921 2.613-.3257 3.923-.2339 2.229-5.4789 16.477-6.3809 17.328-1.5535 1.47-5.2701 10.326-5.9382 12.012-.1921.475-.3759.951-.5596 1.427-1.1192 2.871-2.2801 5.851-4.1175 8.48-.4009.568-.5512 1.378-.7099 2.154-.0418.209-.0835.409-.1253.609-.1002.443-.1503.885-.2004 1.361-.0501.467-.1086.96-.2172 1.435-.2756 1.244-.5679 2.471-.8686 3.706-.4426 1.845-.902 3.757-1.2778 5.643-.7601 3.773-1.47 7.621-2.1632 11.343-.2839 1.536-.5679 3.072-.8602 4.6-.2172 1.168-.4343 2.345-.6515 3.514l-.1837.985zm9.755-28.246-.927-.217.9938-4.391.0752 2.546c.0084.368.0334.726.0585 1.085v.05l-.2088.919z" fill="#000"/><path d="m108.568 120.538c1.787 2.154 4.034 4.04 6.381 5.651s4.786 3.005 7.441 3.898c.343.117.56-.417.234-.559-2.539-1.135-5.003-2.271-7.308-3.806-2.372-1.586-4.426-3.439-6.447-5.409-.151-.142-.435.067-.301.225z" fill="#000"/><path d="m122.097 131.582c.818-.985 1.595-1.995 2.363-3.022.652-.868 1.353-1.753 1.596-2.83.125-.559-.677-.776-.852-.233-.334 1.043-.986 1.861-1.612 2.738-.693.959-1.378 1.928-2.03 2.929-.217.326.293.726.543.418z" fill="#000"/><path d="m81.2392 84.1283c-.8268.5259-3.7083-.1085-3.0986-.6009.5847-.4758 1.1944-.601 1.8959-.2254.3759.2087.7183.4925 1.1943.8263z" fill="#000"/><path d="m85.6582 83.3446c.0585-.6093.4594-.7679.8686-.8681s.8018.0167 1.1108.3172c.2422.2337.2088.4758-.0835.6594-.6598.4006-1.2612.1335-1.8959-.1002z" fill="#000"/><path d="m27.0111 166.163c-1.5452-3.088-4.9277-21.626-2.4138-30.04 1.0357-3.464-3.3324 8.422-5.4371 11.443-.5428.785-.6598 1.895-.8769 2.872-.2005.91-.2088 1.869-.4176 2.779-.6932 3.114-1.5117 6.21-2.1381 9.34-1.0607 5.292-2.0128 10.601-3.0067 15.91-.309 1.627-.6013 3.247-.9104 4.874h144.8395c-.192-3.23-.46-6.46-.568-9.69-.334-10.134-.201-20.309-2.598-30.258-1.202-5-2.931-9.641-8.076-12.245-3.783-1.911-7.659-3.289-11.785-4.132-1.72-.35-3.382-1.01-5.111-1.344-1.47-.283-1.378-1.06-5.37-.425-2.138.292-4.686 1.928-4.702 2.02 1.428 2.495 6.965 1.168 2.697 4.732-.384.326-.81.618-1.202.919-1.637 1.252-3.291 2.47-5.037 3.572-1.637 1.035-3.232 2.312-5.019 3.088-7.316 3.172-14.9334 5.142-22.9596 5.05-3.466-.041-7.6671-.551-11.1248-.834-1.4615-.117-1.2778 1.202-3.015 5.367 0 0-3.6164 5.993-5.0446 10.584-2.1464 6.886-.6598 10.942-8.093 15.35" fill="#debfba"/><path d="m157 183.675h-145.6074l.3675-1.995c.2004-1.094.4092-2.187.6097-3.281.2923-1.536.5762-3.071.8602-4.607.6849-3.706 1.3948-7.537 2.1548-11.302.3758-1.895.8352-3.798 1.2778-5.651.2924-1.21.593-2.462.8686-3.697.1003-.443.1504-.885.2005-1.361.0501-.467.1086-.952.2088-1.419.0417-.192.0835-.392.1253-.593.167-.843.334-1.711.8101-2.395 1.2194-1.753 3.2573-6.644 4.4766-9.566.3007-.718.5596-1.344.7517-1.778.309-.709.4176-.968.7517-.851s.2505.409.0584 1.043c-1.4365 4.825-.8017 12.646-.3006 16.878.7266 6.101 1.9627 11.452 2.6976 12.912l-.6096.301c-1.495-2.988-4.318-18.397-3.0151-27.545-1.2444 2.972-3.0902 7.32-4.2511 8.99-.3926.567-.5512 1.369-.7016 2.137-.0417.208-.0835.409-.1253.609-.1002.434-.1503.885-.2004 1.352-.0501.468-.1086.96-.2172 1.436-.2756 1.243-.5762 2.496-.8686 3.706-.4426 1.836-.8936 3.739-1.2694 5.626-.7517 3.756-1.4616 7.587-2.1465 11.285-.284 1.535-.5679 3.08-.8602 4.615-.2088 1.094-.4093 2.187-.6097 3.281l-.2255 1.193h144.0709c-.059-.893-.117-1.786-.176-2.679-.142-2.178-.3-4.44-.367-6.661-.05-1.561-.092-3.147-.134-4.674-.217-8.422-.442-17.128-2.455-25.508-1.069-4.424-2.639-9.357-7.901-12.02-3.825-1.936-7.65-3.28-11.701-4.098-.852-.175-1.696-.426-2.506-.668-.852-.25-1.729-.509-2.597-.676-.426-.083-.727-.2-1.019-.317-.727-.284-1.412-.559-4.235-.109-1.678.226-3.641 1.336-4.301 1.762.543.684 1.504 1.01 2.364 1.293.893.301 1.662.551 1.787 1.211.117.601-.392 1.327-1.687 2.412-.267.225-.551.434-.827.634-.133.1-.259.192-.384.292-1.47 1.127-3.224 2.429-5.061 3.59-.493.308-.994.651-1.479.985-1.135.776-2.313 1.577-3.583 2.128-8.084 3.506-15.6427 5.158-23.0926 5.075-2.5056-.033-5.3369-.301-8.0847-.559-1.0774-.1-2.0963-.201-3.0651-.276-.7099-.058-.8603.209-1.5284 2.129-.2756.793-.6181 1.778-1.1442 3.03l-.0251.041c-.0334.059-3.608 6.01-5.0112 10.509-.5512 1.761-.8602 3.372-1.1442 4.783-.8101 4.14-1.4532 7.412-7.0991 10.751l-.3424-.585c5.387-3.188 5.9716-6.168 6.7817-10.3.284-1.435.6014-3.063 1.1609-4.858 1.3781-4.432 4.8191-10.225 5.0613-10.634.5095-1.226.8519-2.195 1.1192-2.971.6431-1.845.9437-2.679 2.2216-2.579.9772.083 1.9961.175 3.0735.275 2.7311.259 5.554.526 8.0262.559 7.358.092 14.8246-1.552 22.8176-5.016 1.219-.526 2.363-1.31 3.474-2.062.493-.334.994-.676 1.504-1.001 1.812-1.144 3.549-2.438 5.011-3.548.133-.1.259-.2.392-.3.268-.201.543-.401.794-.61 1.344-1.126 1.495-1.585 1.461-1.761-.05-.267-.701-.484-1.336-.693-1.019-.342-2.28-.759-2.898-1.844l-.067-.109.025-.125c.059-.267.977-.785 1.737-1.168.836-.418 2.08-.96 3.249-1.119 2.999-.476 3.767-.175 4.585.15.276.109.535.209.894.284.902.175 1.796.442 2.664.693.802.234 1.629.484 2.456.651 4.109.835 7.993 2.195 11.868 4.165 5.512 2.788 7.149 7.896 8.252 12.47 2.037 8.447 2.263 17.195 2.48 25.65.042 1.528.084 3.114.134 4.675.075 2.212.225 4.465.367 6.635.067 1.01.134 2.029.192 3.039l.025.359z" fill="#000"/><path d="m69.8565 66.3666c2.1632-.2921 3.5997.2004 5.1532 1.4941-1.8959-.6093-4.6938-2.0533-9.7467.409-.0752-.2838 3.2656-1.7278 4.5935-1.9031z" fill="#000"/><path d="m93.2585 63.6042c-2.1715-.1669-3.5829.409-5.0612 1.7779 1.8541-.7178 4.5685-2.3121 9.755-.1419.0585-.2838-3.3575-1.5358-4.6938-1.6443z" fill="#000"/><path d="m75.6182 69.8311c-.1086-.4257-.4176-.6928-.7517-.9432-1.1693-.9682-2.4805-1.5859-4.034-1.5692-.7767.1753-1.6036.1085-2.3552.4507-.7768.4424-1.5953.8264-2.2384 1.4774-.1336.1002-.7433.6594-.9604.7763-.0752.0668-.6598.6844-.7433 1.0684.2839.1753.4259-.1085.6264-.1169.9103-.434 1.4365-1.3438 2.2717-1.8864.167.2004.2004.384.2756.5676.2255.576.4009 1.1936 1.0189 1.5108.3508.1169.76.2922 1.0273-.025.3174-.384-.284-.5259-.3758-.9015.9354.4591 1.5785.0167 2.1047-.7262.2505.384.1252.626.0167.8681-.0919.217-.284.4174-.0919.6678.167.1168.3508.1168.5429.0584.1085-.0417.2004-.1002.2756-.1836.2756-.3423.309-.7596.3925-1.1603.0418-.2003-.025-.4924.2422-.5592.2422-.0584.4677.1168.6515.2754.2338.2087.0668.3923-.0752.5676-.1587.2004-.1837.3923 0 .5843.167.1753.3926.2588.593.1419.4677-.2671.9187-.5425 1.4532-.6344.1253-.025.1337-.1836.1253-.3088zm-6.6231-.6677c-.0919.1419-.2172.2671-.3007.409-.1503.2837-.3424.2337-.5429.0918-.2004-.1503-.4927-.3005-.167-.6094.1336.0251.2673.2087.3925.0501.0919-.1085-.0584-.217-.0918-.3255.0584-.1252.1837-.1502.2923-.192.1587-.0501.3424-.1252.4761.0334.1503.1836.0417.3673-.0669.5342z" fill="#000"/><path d="m86.9698 69.5396c-.6848 0 1.5953-2.9882 1.7122-3.1551.2422-.3506 1.3279-1.1936 1.6537-1.3439 1.1692-.5592 2.3469-.5926 3.7082-.4173.284.0417 1.9377.434 2.9399.8597.8686.3756 1.6286 1.1435 1.8708 1.2938.1587.1001.3174.2003.4594.3422-.3007.0918-.8519.0668-1.0858-.0835-.1754-.1085-1.1943-.6677-1.8624-.8096-.2005-.0417-.7935-.2003-1.5034-.1169-.3424.0418-.3591.793-.3758.9933-.0334.6344-.5847 1.2938-1.8709.8681-.6097-.2003-.8769-.5759-.8435-1.202.0167-.2337-.2339-.4924-.5429-.4841-.2004 0-.4677.0835-.5763.2254-.0751.1001.0084.3839.1003.5509.1169.217.6013.7929.8853.9432.2589.1419.5428.4424 1.2277.3172.3508-.0668 1.0857-.2838 1.1108-.576 0-.0417.0585-.0751.0919-.1085.0334.0334.0835.0668.0918.1085.0167.0585 0 .1252 0 .1837-.0334.3422-.7433.7595-1.1776.843-.2923.0584-.6514.1753-.9772.1586-.5261-.0251-1.4031-.5926-1.6703-.9265-.2506-.3172-.5847-1.1853-.6849-1.1936-1.0774-.0752-1.1108 1.4356-.2088 2.0199.3341.217-1.9126.7179-2.4638.7095z" fill="#000"/><path d="m86.9542 100.177c8.9922-2.2755 15.4488-7.4097 14.4198-11.4673-1.028-4.0577-9.1508-5.5023-18.143-3.2267-8.9922 2.2757-15.4483 7.4099-14.4202 11.4676 1.0281 4.0574 9.1512 5.5024 18.1434 3.2264z" fill="#fff2e3"/><path d="m81.9338 94.1878c-.0585 0-.1253 0-.1838 0-2.0963-.025-7.358-.626-8.686-.9098-.0083 0-.025 0-.0334 0-.1587.1085-.3341.0334-.9103-.2588-.1587-.0751-.2757-.1335-.3592-.1752-.1169 0-.2338-.0668-.2923-.1086l-.1169-.0834c-.1921 0-.3842-.0751-.451-.4508-.0251-.1252.025-.242.1336-.3004.2923-.167 1.0189.1669 1.2862.4006.1336.1002 1.3447.6511 2.2801.4758.4677-.0918 2.0295-.4591 3.5412-.8097 2.2968-.5425 3.3157-.7762 3.4493-.7762.4343 0 1.0858.1586 1.612.2838.2505.0667.5094.1252.5929.1335.0335 0 .142-.025.1754-.0417.6932-.4841 1.2528-.7596 2.0463-.7095.0751 0 .2839.0334.7683.1085 5.6877.843 7.2328.7763 7.5084.5593.0167-.0334.0334-.0668.0585-.1002.0584-.0918.0835-.1503.1002-.1836.0668-.1503.142-.192.309-.1837h.0919c.2088 0 .2923.1169.3257.1837.1169.2587-.1503.651-.3925.9432l-.142.1669-.1253-.1252c-.309.1586-.4426.025-.4844-.0417-.5262.1752-2.5306.7512-3.6832 1.0684-1.9794.4173-6.0551.9682-8.4104.9682zm-7.2161-1.0517c2.1214.2838 5.4622.6344 7.0323.6511 2.2885.05 6.4978-.5342 8.5023-.9599.7767-.2087 1.9794-.5509 2.8146-.8013-1.2445-.0167-3.2907-.2421-6.3391-.7012-.4009-.0584-.6682-.1001-.735-.1001-.6849-.0418-1.1609.1919-1.804.6343-.1002.0668-.309.1169-.4176.1169-.1169 0-.3257-.0584-.6765-.1419-.4761-.1169-1.1275-.2922-1.5117-.2755-.1587.0167-1.8625.4174-3.3658.768-1.47.3422-2.9817.7011-3.5078.8096zm-3.3909-.8931s0 0-.0083 0zm23.4355-.7596v.0084c.0084-.0251.0251-.0418.0334-.0668 0 0-.0167.0334-.025.0584z" fill="#000"/><path d="m72.2031 93.0855c6.3976 4.8079 15.8186 5.3588 22.5753-.8847.2088-.192-.6932-.7262-.877-.5092-5.3034 6.2685-17.4889 4.8996-21.2389 1.1686-.0835-.0835-.5262-.0918-.4427-.0251v.2504z" fill="#000"/></g></g></svg>