<svg fill="none" height="163" viewBox="0 0 163 163" width="163" xmlns="http://www.w3.org/2000/svg" xmlns:xlink="http://www.w3.org/1999/xlink"><clipPath id="a"><rect height="163" rx="81.5" width="163"/></clipPath><clipPath id="b"><path d="m-5 20h163v170h-163z"/></clipPath><g clip-path="url(#a)"><circle cx="81.5" cy="81.5" fill="#ffdeb5" r="81.5"/><g clip-path="url(#b)"><path d="m8.68907 132.244c6.65663-5.145 12.91143-6.058 21.34143-5.997 8.4299.061 16.7201 1.982 24.9317 3.902.8125.192 3.5467.183 4.132.774.6727.678-.131 2.729.1049 3.651 1.4064 5.493 5.1104 6.162 10.6488 7.509 5.5385 1.347 12.6494 1.773 18.3014 1.095 5.0842-.608 9.9587-.73 13.1127-4.745.952-1.217-.988-3.103.157-4.146 1.773-1.608 7.041-1.078 9.426-1.33 9.225-.982 18.476-1.782 27.727-2.39 2.76-.183 5.765-.287 8.046 1.277 2.201 1.513 3.188 4.216 3.974 6.754 4.971 15.984 7.347 32.75 7.024 49.481-26.242 2.251-52.642 1.626-78.9799.991-27.7622-.66-55.5243-1.33-83.28649-1.99 5.79179-14.307 6.98858-29.969 9.03274-45.258.48047-3.581 1.27542-7.587 4.30672-9.569" fill="#dd847d"/><path d="m8.86404 132.539c12.27366-9.335 29.18606-5.928 43.06716-2.746 1.3628.313 2.7081.695 4.0971.825.6726.061 1.3715.087 2.0354.244 1.1007.26.9696 1.051.8648 1.973-.2533 2.225.5416 4.398 2.1403 6.014 1.5986 1.617 3.7214 2.286 5.8092 2.843 3.0139.808 6.0626 1.442 9.1725 1.781 3.5293.383 7.1109.478 10.6489.183 2.9876-.252 6.1325-.487 9.024-1.313 2.0267-.582 5.2066-1.955 6.0276-4.102.367-.956-.262-1.756-.323-2.694-.131-1.904 2.743-1.982 4.062-2.078 2.996-.217 5.966-.252 8.963-.556 4.114-.417 8.229-.8 12.352-1.139 4.08-.339 8.168-.669 12.256-.912 4.089-.244 7.731.26 9.767 4.128 1.974 3.746 2.848 8.318 3.861 12.395 1.075 4.345 1.966 8.735 2.673 13.15 1.45 9.1 2.071 18.313 1.913 27.526l.35-.347c-20.966 1.782-42.028 1.756-63.046 1.347-21.1492-.409-42.2896-.991-63.4301-1.495-11.9243-.287-23.85729-.574-35.78156-.86l.34069.443c3.642801-9.1 5.50351-18.739 6.85755-28.413.66392-4.702 1.21427-9.422 1.81703-14.141.52415-4.12.7338-9.44 4.4989-12.073.3669-.252.01747-.861-.34943-.6-3.19727 2.243-3.96602 6.154-4.46395 9.778-.66392 4.894-1.22301 9.804-1.87819 14.698-1.388978 10.395-3.24095 20.782-7.15456 30.568-.08736.218.13104.435.34069.444 21.18413.504 42.35953 1.017 63.54373 1.521 21.0793.504 42.1672 1.225 63.2462 1.034 11.837-.113 23.674-.548 35.476-1.556.192-.017.35-.148.35-.348.288-16.375-1.948-32.767-6.701-48.455-.882-2.903-1.817-6.267-4.481-8.084-2.734-1.86-6.307-1.451-9.426-1.243-8.456.574-16.895 1.304-25.316 2.191-2.778.286-5.643.008-8.395.521-2.053.383-3.302 1.226-2.726 3.381.28 1.017.245 1.617-.524 2.512-.5414.626-1.2664 1.165-1.9828 1.591-1.4676.878-3.1361 1.347-4.8134 1.651-3.4069.626-6.9798.965-10.4479 1.017-3.8699.052-7.7748-.269-11.5661-1.034-2.778-.557-5.9578-1.113-8.4387-2.538-1.1007-.635-2.0092-1.504-2.6382-2.608-.8823-1.529-.9697-2.825-.8299-4.511.2009-2.407-1.686-2.338-3.6428-2.529-2.1141-.2-4.2019-.869-6.2723-1.33-2.3586-.521-4.7173-1.017-7.0934-1.434-4.5251-.791-9.0851-1.286-13.6801-1.269-7.5215.026-14.3965 1.426-20.47658 6.049-.34943.27 0 .87.34943.6z" fill="#000"/><path d="m60.2302 136.138c-26.5217 7.448-48.5182-6.224-47.4612-7.093 1.7209-1.408 7.4778-7.631 8.3688-9.317 1.3628-2.582 2.9614-5.024 4.761-7.353.9697-1.261 4.7872-10.517 5.3812-13.9157.4193-2.3815.7338-4.7717 1.1269-7.1619.8911-5.3801 2.3849-10.6299 4.0971-15.8188.5678-1.7122 1.057-3.4593 1.5986-5.241.2621-.0609 4.8047-14.5064 5.3288-15.506.5329-1.0169.9609-2.0946 1.3541-3.1724.3756-1.0082.7075-2.0165 1.1269-3.016.6115-1.4428 7.6437-15.2104 8.5872-16.5055.9784-1.3472 2.0529-2.5814 3.3021-3.6852 1.4938-1.3211 2.9876-2.6597 4.5863-3.8591.7512-.565 1.7209-.8866 2.6381-1.2081 1.2318-.4346 2.5159-.7475 3.7651-1.156.5329-.1739 1.1357-.3564 1.5026-.7128 1.092-1.0516 7.0235-1.2081 8.1242-1.3124 1.3541-.1391 2.7256-.1477 4.0796-.0174 1.7734.1739 3.538.5041 5.2939.791.5154.0869 1.0046.2955 1.5112.4345 1.0833.2869 2.1752.5476 3.2497.8605 1.8957.5476 3.5293 1.5906 5.2065 2.5554.4455.2607.926.4693 1.389.704.4979.252 1.0221.4693 1.4941.7649 1.17.7301 2.341 1.4428 3.45 2.2424 1.11.8083 2.202 1.6514 3.198 2.5814 1.406 1.3125 2.778 2.6597 4.044 4.0851.717.8083 4.569 6.8056 5.661 8.6395.446.7475.839 1.5297 1.223 2.312.21.4172.332.8778.498 1.3124.166.4259.358.8518.515 1.2864.21.5736.411 1.1386.586 1.7209.419 1.3733.83 2.7466 1.24 4.1199.297.9908.62 1.973.856 2.9812.219.9474.315 1.9122.489 2.8683.158.8778.979 4.4327 1.031 5.354.219 3.4941.891 6.9273 1.52 10.3778.393 2.1643 1.686 10.9863 1.477 13.2635-.053.5563 3.712 13.9062 4.088 15.9322.332 1.834 1.039 3.528 1.703 5.258.691 1.791.865 6.936 8.063 11.855 1.267.626 7.557 2.999 8.553 4.459s4.988 2.06 6.752 2.556c2.141.599-3.948 3.172-5.136 3.772-10.134 5.093-49.934 6.805-49.942 6.866" fill="#000"/><path d="m107.28 73.9839c0-3.8939-.751-3.7896-1.337-5.6235-.55-1.7036-1.371-3.3202-1.974-5.0151-.681-1.9295-1.598-3.6765-3.284-4.9368-1.0925-.8171-2.2368-1.1995-3.6171-.7736-.6464.1999-1.3628.1999-2.0529.2781-2.2538.2608-4.4989.5476-6.7527.7736-.3756.0348-.7775-.1478-1.1619-.2347.1748-.3216.2971-.704.5504-.9647.2359-.2521.5766-.4781.9085-.5563 3.1361-.7736 6.3421-.678 9.5394-.678.2534 0 .5242.0956.7688.1826.8823.3389 1.4855-.1043 1.2925-1.0517-.148-.7301-.3578-1.4689-.6723-2.1469-1.0221-2.2511-1.9131-4.5892-3.206-6.6752-1.4065-2.2772-3.1798-4.3371-4.8658-6.4405-.5678-.704-1.2842-1.3732-2.0704-1.8078-1.9568-1.0952-3.931-2.1816-6.0102-2.99-1.0744-.4172-2.1489-1.069-3.468-.8952-.9086.113-2.0529.0782-2.7693-.3911-1.3802-.904-2.8041-.5128-3.9835-.1652-1.9131.565-3.8612 1.0778-5.5996 2.3294-2.5071 1.8079-5.0754 3.5288-7.1807 5.7799-.8911.9561-1.7122 2.1816-2.0267 3.4159-.629 2.4597-1.1269 4.9977-1.1968 7.5182-.0524 1.6515-.6639 3.0247-1.092 4.511-.8648 3.0334-1.9218 6.0146-2.6644 9.0654-.8561 3.5027-1.057 7.0837-.4542 10.6733.5678 3.3637 1.0133 6.7535 1.686 10.0911.4979 2.4684 1.1531 4.9281 1.9655 7.3096 1.0133 2.9465 3.7564 4.7196 3.6952 5.8583-.131 2.26.1835 9.708.2097 11.977 0 .721-.1398 6.006-.1311 7.197.0437 3.442 0 8.622-.0436 10.099-.035 1.408-.2796 2.538-.3932 5.52-.0349.886 1.3628 3.928 4.3155 4.902 2.909.956 4.1931 1.39 5.6607 1.66 9.0241 1.677 10.9197 1.33 12.2301 1.347 3.5205.052 9.8015-.635 11.7757-.982 5.1192-.895 6.3164-2.912 6.4124-3.173.209-.539.139-11.62-.009-13.159-.044-.426-.4194-12.942-.3146-14.871.0616-1.061-.1921-7.31.2626-8.718.891-2.7639 2.411-5.0498 3.144-6.6751.289-.6432.577-2.0078.787-2.903.27-1.156 3.127-14.0023 3.127-18.6871zm-16.1-8.7438c.1485-.0174.3407.339.5067.5302-.0524.0869-.1136.1825-.166.2694-.3843-.0347-.76-.0782-1.1444-.113-.0174-.0869-.0349-.1651-.0611-.252.2795-.1565.5503-.3998.8561-.4346zm-26.2072-8.1006c.8299-.0435 1.6511-.1043 2.481-.113.9172-.0087 1.8432 0 2.7517.0782.2272.0174.4194.3825.6377.5824-.1659.1651-.3581.4867-.5066.4693-1.7908-.2347-3.669.0869-5.3638-.7388 0-.0956 0-.1825 0-.2781zm2.8828 10.2561c-.5853-.1477-1.2841.1652-1.8869.2695-.7425-.1043-1.4239-.2434-2.114-.2782-.5417-.0347-1.1007.113-1.6423.0783-.6727-.0435-1.3454-.1478-2.0005-.3129-.1573-.0435-.332-.3998-.332-.6171 0-.7041.0349-1.4081.131-2.1034.0437-.3303.1485-.817.3669-.9126.3058-.1304.9348-.087 1.0833.1129.8386 1.2169 1.8782.6085 2.8041.3303 2.1054-.6171 4.2019-.6258 6.1937.2347.8561.3737 1.5375 1.1734 2.2538 1.8339.0611.0522-.2097.6954-.3844.7301-1.4676.2695-2.8478 1.0517-4.4552.6432zm6.1762 22.833 21.4549-21.0164c-.559-.0261-1.1181-.0609-1.686-.0869 0-.0956.0001-.1999.0088-.2955h1.686l-.0175.3824z" fill="#fff2e3"/><path d="m82.8727 92.2708c.6639-.4606 1.3889-.4346 2.3149-.7388 2.7168-.9126 5.2153-1.3385 4.6999-1.9382-.6115-.704-5.2852.1651-6.613.2086-2.6993.0869-5.4336-.3129-8.0805.5041-.5679.1738-1.223.4867-1.7996.565-.9871.1303-1.8782-.1478-2.8653-.5476-.6901-.2781-1.1182-.8605-1.0134-1.3733.1311-.591 1.4327-.0261 2.1315.3564 1.0833.591 1.5463.9474 2.4198.478 1.0745-.5736 4.0796-.8779 5.6346-.8518 3.4856.0609 10.3518-.2086 10.7624-.252.8212-.087 1.1968-.7823 1.6685-.1999.2621.3302.0961.6084-.2009 1.1125-.3756.6519-.9696 1.0082-1.389 1.2168-.6813.3303-1.7995.7997-3.6078 1.2169-.4019.0956-3.5817.591-3.9923.6257-.0262-.1216-.0524-.2346-.0786-.3563z" fill="#000"/><path d="m82.8285 92.7925-.131-.591.0873-.0608c.4456-.3129.9173-.4085 1.4152-.5215.297-.0609.6028-.1304.9347-.2434.7775-.2607 1.5463-.4867 2.2189-.6779 1.1619-.339 2.3674-.6867 2.4373-.9474 0 0 0-.0261-.0262-.0696-.3844-.4432-3.1099-.113-4.7348.0783-.7425.0869-1.3802.1651-1.7646.1825-.7687.0261-1.555 0-2.315 0-1.8956-.0348-3.8524-.0782-5.7219.5041-.1922.0608-.3931.1304-.594.2086-.4106.1478-.8386.3042-1.2317.3564-.9872.1303-1.887-.1304-2.944-.565-.7687-.3129-1.2317-.9648-1.1007-1.5471.035-.1478.1223-.2608.2534-.3216.5154-.2347 1.6423.3216 2.1053.5736l.2882.1565c.8649.4867 1.2667.704 1.9831.3216 1.0832-.5824 4.0533-.8953 5.7131-.8692 3.4419.0609 10.3519-.2086 10.7362-.252.2883-.0348.5242-.1478.7251-.2521.3494-.1738.7163-.3477 1.0832.1043.3233.3998.1223.7649-.1659 1.2603-.4194.7214-1.0396 1.0864-1.4764 1.3037-.9871.4868-2.2101.8953-3.6428 1.2256-.4106.0956-3.5991.5997-4.0184.6344h-.1398zm.2184-.4519.0262.1217c.7338-.0956 3.4681-.5215 3.835-.6085 1.4065-.3215 2.612-.7301 3.5729-1.1994.3931-.1912.9609-.5215 1.3278-1.156.3145-.5389.3932-.7127.2097-.9387-.2009-.2521-.332-.2086-.6989-.0261-.2183.1043-.4892.2434-.8299.2782-.3931.0434-7.2069.3216-10.7798.252-1.5812-.0261-4.5339.2782-5.5647.8344-.8648.4694-1.3977.1652-2.28-.3216l-.2883-.1564c-.8212-.452-1.5724-.678-1.8258-.565-.0437.0174-.0699.0522-.0873.1043-.0961.4346.297.9474.9172 1.1995 1.0396.4259 1.8607.6605 2.7867.5389.3669-.0435.7688-.2 1.1619-.3477.2096-.0782.4105-.1565.6115-.2086 1.9218-.591 3.9048-.5476 5.818-.5128.7512.0174 1.5375.0261 2.2975 0 .3669-.0087.9958-.0869 1.7296-.1738 2.5596-.3043 4.5426-.5042 5.0056.026.1223.1391.1136.2695.0961.3564-.1223.3998-.9435.6605-2.6557 1.156-.6726.1999-1.4326.4172-2.2014.6779-.3494.1217-.6639.1825-.9696.2521-.4543.0956-.8474.1825-1.223.4172z" fill="#fff2e3"/><path d="m66.9393 68.1952c-.9435-.2347-1.8083-.5563-2.6731-.6519-.6902-.0782-1.389.2521-2.0791.1738-.8474-.0956-1.7035-.3476-2.5247-.7214-.2009-.0956-.4193-.9213-.428-1.4167 0-1.608.0524-3.2246.1572-4.8239.0524-.7562.1922-1.8861.463-2.1034.3844-.2955 1.1881-.2086 1.3628.2608 1.057 2.7987 2.3674 1.3906 3.5467.7648 2.6644-1.4167 5.3026-1.4428 7.8272.5389 1.0832.8518 1.9481 2.7031 2.8479 4.2155.0786.1304-.2621 1.6079-.4892 1.6775-1.8608.6258-3.5992 2.4162-5.6346 1.4689-.7338-.339-1.6248.3911-2.3848.6084zm-2.3412-3.9808c.0087.2086.0262.4259.035.6345.5328.2694 1.057.5302 1.8781.9474-.2271-1.3125-.3494-2.0339-.5241-3.0769-.5678.6084-.9784 1.0517-1.389 1.5037z" fill="#fff2e3"/><path d="m82.3047 80.6937c.0349-.7822.428-1.1908 1.0046-1.4428.6028-.2608 1.1881-.1999 1.686.252.5416.4868.428 1.0778-.2621 1.1734-.7775.1043-1.5811.0261-2.4285.0261z" fill="#000"/><path d="m76.9763 80.7368c-.5504-.0347-.9085-.1043-.9872-.4172-.1659-.6345.5504-1.382 1.1881-1.2081.5329.1477.9609.6432 1.4414.9821-.5067.339-.8474.6954-1.6423.6432z" fill="#000"/><path d="m95.5143 69.5422c-.8212-.0869-1.6424-.1651-2.4635-.252l.0175-.8605h2.4722z" fill="#fff2e3"/><path d="m91.5994 66.5261-1.7035-.2607c-.0262-.1912-.0524-.3825-.0873-.5737.4193-.3563.8299-.9039 1.2754-.9908.2184-.0435.5067.7735.76 1.2081-.0786.2086-.166.4085-.2446.6171z" fill="#fff2e3"/><path d="m64.1523 65.8394c.3233-.1912.6552-.3912 1.1007-.6519.1398.452.2359.7649.4194 1.3385-.6465-.1825-1.0658-.2955-1.4851-.4085-.0088-.0956-.0175-.1825-.0262-.2781z" fill="#fff2e3"/><g fill="#000"><path d="m61.3388 57.7647c.2621-.139.5067-.3476.7862-.4172 3.1624-.7474 6.3422-.7822 9.5307-.2172.131.026.3232.0434.3844.1303.2271.339.4106.6954.6115 1.0517-.3494.1912-.7251.5911-1.0483.5476-2.4984-.2868-4.9794-.678-7.4778-.9822-.5241-.0695-1.0832.0522-1.6248.0956-.3582.0261-.7251.0696-1.0833.1043-.0262-.1043-.0524-.2086-.0873-.3129z"/><path d="m91.1445 66.1958h-2.2713c-.2096-.365.0175-.5476.1922-.7301.4805-.5128.9784-1.0169 1.4851-1.5036.131-.1217.297-.2434.463-.2869 1.6423-.4345 3.2933-.8257 5.0143-.478.2533.0521 1.1269.2086 1.3802.2694.629.1478 2.0354.7301 2.752 1.2256.402.3389.769.6171 1.109.93.533.4954.472.8778-.218 1.0517-.551.139-1.1358.1477-1.7037.1825-.4629.0261-.9347-.0174-1.3977 0-1.5724.0434-3.1361.1477-4.6648-.339-.9784.113-1.3628-.3477-1.4939-1.295-.0873-.6606-.428-.7128-1.0133-.339-.131.0869-.2708.1651-.3844.2781-.3319.3216-.262.6084.166.7475.1922.0608.4019.0956.6028.1391 0 .0521-.0088.1043-.0175.1477zm4.9881-.2173c.4892.1304.7688.0261.9959-.2086.1922-.1912.2096-.4172 0-.6171-.2097-.2086-.4368-.1651-.5941.0696-.1397.1999-.2358.4345-.4105.7561zm-2.4722-.9561c-.2621-.1043-.4193-.2172-.5591-.2086-.1136.0087-.2009.1826-.3057.2782.1397.0869.2708.2173.4193.2347.1048.0086.2184-.1391.4455-.3043z"/><path d="m72.8527 66.2745c-.297.0956-.498.1738-.6989.2173-.5154.0956-1.0483.1217-1.5375.2781-.7949.2608-1.5899.2782-2.4023.1999-.6115-.0608-1.1968-.0347-1.7996.1478-.428.1304-.9172.0869-1.3802.0522-.7513-.0609-1.4938-.2086-2.2363-.2608-.4892-.0348-.9784.0348-1.4676.0435-.3407 0-.6989.0347-1.0309-.0522-.4193-.1043-.4979-.3824-.2533-.7127.8561-1.1473 1.9655-1.9296 3.3807-2.2424.7251-.1652 1.4589-.3738 2.1927-.452.8037-.0782 1.6161-.0695 2.4198-.0174 1.1094.0782 2.1315.4867 3.1012 1.0082.1747.0956.3319.2347.463.3825.3756.4085.7425.8344 1.2404 1.3993zm-7.4865.6345c.2358-.6779-.0612-1.2168-.3407-1.7383-.0612-.113-.332-.2086-.4456-.1652-.3931.1565-.7949.339-1.1356.5824-.2533.1825-.2097.4954.0611.6518.5417.3129 1.0745.678 1.8608.6693zm2.1315-1.6949c-.4718-.3129-.8649-.3476-.9872-.0434-.0524.1303.0088.3998.1223.4954.2534.2347.5591.0608.8649-.452zm3.7301.2086c-.131-.0782-.2795-.2173-.4455-.2433-.2795-.0348-.5241.0869-.5067.4085 0 .0956.2184.252.3407.2607.2446 0 .5242 0 .6115-.4259z"/><path d="m56.6823 96.0776c4.6474 9.6654 17.1657 13.2284 27.2205 12.3244 9.2948-.843 18.4582-6.466 21.6992-15.4708.096-.2781-.358-.4693-.48-.1999-3.783 8.6747-12.0816 14.1847-21.4987 14.9587-10.0723.825-21.3414-2.773-26.6877-11.7601-.0961-.1652-.3407-.0174-.2621.1477z"/></g></g></g></svg>