<svg width="163" height="163" viewBox="0 0 163 163" fill="none" xmlns="http://www.w3.org/2000/svg">
<g clip-path="url(#clip0_5795_5145)">
<circle cx="81.5" cy="81.5" r="81.5" fill="#FFDEB5"/>
<g clip-path="url(#clip1_5795_5145)">
<path d="M8.68907 132.244C15.3457 127.099 21.6005 126.186 30.0305 126.247C38.4604 126.308 46.7506 128.229 54.9622 130.149C55.7747 130.341 58.5089 130.332 59.0942 130.923C59.7669 131.601 58.9632 133.652 59.1991 134.574C60.6055 140.067 64.3095 140.736 69.8479 142.083C75.3864 143.43 82.4973 143.856 88.1493 143.178C93.2335 142.57 98.108 142.448 101.262 138.433C102.214 137.216 100.274 135.33 101.419 134.287C103.192 132.679 108.46 133.209 110.845 132.957C120.07 131.975 129.321 131.175 138.572 130.567C141.332 130.384 144.337 130.28 146.618 131.844C148.819 133.357 149.806 136.06 150.592 138.598C155.563 154.582 157.939 171.348 157.616 188.079C131.374 190.33 104.974 189.705 78.6361 189.07C50.8739 188.41 23.1118 187.74 -4.65039 187.08C1.1414 172.773 2.33819 157.111 4.38235 141.822C4.86282 138.241 5.65777 134.235 8.68907 132.253" fill="#DD847D"/>
<path d="M8.86404 132.539C21.1377 123.204 38.0501 126.611 51.9312 129.793C53.294 130.106 54.6393 130.488 56.0283 130.618C56.7009 130.679 57.3998 130.705 58.0637 130.862C59.1644 131.122 59.0333 131.913 58.9285 132.835C58.6752 135.06 59.4701 137.233 61.0688 138.849C62.6674 140.466 64.7902 141.135 66.878 141.692C69.8919 142.5 72.9406 143.134 76.0505 143.473C79.5798 143.856 83.1614 143.951 86.6994 143.656C89.687 143.404 92.8319 143.169 95.7234 142.343C97.7501 141.761 100.93 140.388 101.751 138.241C102.118 137.285 101.489 136.485 101.428 135.547C101.297 133.643 104.171 133.565 105.49 133.469C108.486 133.252 111.456 133.217 114.453 132.913C118.567 132.496 122.682 132.113 126.805 131.774C130.885 131.435 134.973 131.105 139.061 130.862C143.15 130.618 146.792 131.122 148.828 134.99C150.802 138.736 151.676 143.308 152.689 147.385C153.764 151.73 154.655 156.12 155.362 160.535C156.812 169.635 157.433 178.848 157.275 188.061L157.625 187.714C136.659 189.496 115.597 189.47 94.579 189.061C73.4298 188.652 52.2894 188.07 31.1489 187.566C19.2246 187.279 7.29161 186.992 -4.63266 186.706L-4.29197 187.149C-0.649169 178.049 1.21154 168.41 2.56558 158.736C3.2295 154.034 3.77985 149.314 4.38261 144.595C4.90676 140.475 5.11641 135.155 8.88151 132.522C9.24841 132.27 8.89898 131.661 8.53208 131.922C5.33481 134.165 4.56606 138.076 4.06813 141.7C3.40421 146.594 2.84512 151.504 2.18994 156.398C0.800962 166.793 -1.05101 177.18 -4.96462 186.966C-5.05198 187.184 -4.83358 187.401 -4.62393 187.41C16.5602 187.914 37.7356 188.427 58.9198 188.931C79.9991 189.435 101.087 190.156 122.166 189.965C134.003 189.852 145.84 189.417 157.642 188.409C157.834 188.392 157.992 188.261 157.992 188.061C158.28 171.686 156.044 155.294 151.291 139.606C150.409 136.703 149.474 133.339 146.81 131.522C144.076 129.662 140.503 130.071 137.384 130.279C128.928 130.853 120.489 131.583 112.068 132.47C109.29 132.756 106.425 132.478 103.673 132.991C101.62 133.374 100.371 134.217 100.947 136.372C101.227 137.389 101.192 137.989 100.423 138.884C99.8816 139.51 99.1566 140.049 98.4402 140.475C96.9726 141.353 95.3041 141.822 93.6268 142.126C90.2199 142.752 86.647 143.091 83.1789 143.143C79.309 143.195 75.4041 142.874 71.6128 142.109C68.8348 141.552 65.655 140.996 63.1741 139.571C62.0734 138.936 61.1649 138.067 60.5359 136.963C59.6536 135.434 59.5662 134.138 59.706 132.452C59.9069 130.045 58.02 130.114 56.0632 129.923C53.9491 129.723 51.8613 129.054 49.7909 128.593C47.4323 128.072 45.0736 127.576 42.6975 127.159C38.1724 126.368 33.6124 125.873 29.0174 125.89C21.4959 125.916 14.6209 127.316 8.54082 131.939C8.19139 132.209 8.54082 132.809 8.89025 132.539H8.86404Z" fill="black"/>
<path d="M60.2302 136.138C33.7085 143.586 11.712 129.914 12.769 129.045C14.4899 127.637 20.2468 121.414 21.1378 119.728C22.5006 117.146 24.0992 114.704 25.8988 112.375C26.8685 111.114 30.686 101.858 31.28 98.4593C31.6993 96.0778 32.0138 93.6876 32.4069 91.2974C33.298 85.9173 34.7918 80.6675 36.504 75.4786C37.0718 73.7664 37.561 72.0193 38.1026 70.2376C38.3647 70.1767 42.9073 55.7312 43.4314 54.7316C43.9643 53.7147 44.3923 52.637 44.7855 51.5592C45.1611 50.551 45.493 49.5427 45.9124 48.5432C46.5239 47.1004 53.5561 33.3328 54.4996 32.0377C55.478 30.6905 56.5525 29.4563 57.8017 28.3525C59.2955 27.0314 60.7893 25.6928 62.388 24.4934C63.1392 23.9284 64.1089 23.6068 65.0261 23.2853C66.2579 22.8507 67.542 22.5378 68.7912 22.1293C69.3241 21.9554 69.9269 21.7729 70.2938 21.4165C71.3858 20.3649 77.3173 20.2084 78.418 20.1041C79.7721 19.965 81.1436 19.9564 82.4976 20.0867C84.271 20.2606 86.0356 20.5908 87.7915 20.8777C88.3069 20.9646 88.7961 21.1732 89.3027 21.3122C90.386 21.5991 91.4779 21.8598 92.5524 22.1727C94.4481 22.7203 96.0817 23.7633 97.7589 24.7281C98.2044 24.9888 98.6849 25.1974 99.1479 25.4321C99.6458 25.6841 100.17 25.9014 100.642 26.197C101.812 26.9271 102.983 27.6398 104.092 28.4394C105.202 29.2477 106.294 30.0908 107.29 31.0208C108.696 32.3333 110.068 33.6805 111.334 35.1059C112.051 35.9142 115.903 41.9115 116.995 43.7454C117.441 44.4929 117.834 45.2751 118.218 46.0574C118.428 46.4746 118.55 46.9352 118.716 47.3698C118.882 47.7957 119.074 48.2216 119.231 48.6562C119.441 49.2298 119.642 49.7948 119.817 50.3771C120.236 51.7504 120.647 53.1237 121.057 54.497C121.354 55.4878 121.677 56.47 121.913 57.4782C122.132 58.4256 122.228 59.3904 122.402 60.3465C122.56 61.2243 123.381 64.7792 123.433 65.7005C123.652 69.1946 124.324 72.6278 124.953 76.0783C125.346 78.2426 126.639 87.0646 126.43 89.3418C126.377 89.8981 130.142 103.248 130.518 105.274C130.85 107.108 131.557 108.802 132.221 110.532C132.912 112.323 133.086 117.468 140.284 122.387C141.551 123.013 147.841 125.386 148.837 126.846C149.833 128.306 153.825 128.906 155.589 129.402C157.73 130.001 151.641 132.574 150.453 133.174C140.319 138.267 100.519 139.979 100.511 140.04" fill="black"/>
<path d="M107.28 73.9839C107.28 70.09 106.529 70.1943 105.943 68.3604C105.393 66.6568 104.572 65.0402 103.969 63.3453C103.288 61.4158 102.371 59.6688 100.685 58.4085C99.5925 57.5914 98.4482 57.209 97.0679 57.6349C96.4215 57.8348 95.7051 57.8348 95.015 57.913C92.7612 58.1738 90.5161 58.4606 88.2623 58.6866C87.8867 58.7214 87.4848 58.5388 87.1004 58.4519C87.2752 58.1303 87.3975 57.7479 87.6508 57.4872C87.8867 57.2351 88.2274 57.0091 88.5593 56.9309C91.6954 56.1573 94.9014 56.2529 98.0987 56.2529C98.3521 56.2529 98.6229 56.3485 98.8675 56.4355C99.7498 56.7744 100.353 56.3312 100.16 55.3838C100.012 54.6537 99.8022 53.9149 99.4877 53.2369C98.4656 50.9858 97.5746 48.6477 96.2817 46.5617C94.8752 44.2845 93.1019 42.2246 91.4159 40.1212C90.8481 39.4172 90.1317 38.748 89.3455 38.3134C87.3887 37.2182 85.4145 36.1318 83.3353 35.3234C82.2609 34.9062 81.1864 34.2544 79.8673 34.4282C78.9587 34.5412 77.8144 34.5064 77.098 34.0371C75.7178 33.1331 74.2939 33.5243 73.1145 33.8719C71.2014 34.4369 69.2533 34.9497 67.5149 36.2013C65.0078 38.0092 62.4395 39.7301 60.3342 41.9812C59.4431 42.9373 58.622 44.1628 58.3075 45.3971C57.6785 47.8568 57.1806 50.3948 57.1107 52.9153C57.0583 54.5668 56.4468 55.94 56.0187 57.4263C55.1539 60.4597 54.0969 63.4409 53.3543 66.4917C52.4982 69.9944 52.2973 73.5754 52.9001 77.165C53.4679 80.5287 53.9134 83.9185 54.5861 87.2561C55.084 89.7245 55.7392 92.1842 56.5516 94.5657C57.5649 97.5122 60.308 99.2853 60.2468 100.424C60.1158 102.684 60.4303 110.132 60.4565 112.401C60.4565 113.122 60.3167 118.407 60.3254 119.598C60.3691 123.04 60.3254 128.22 60.2818 129.697C60.2468 131.105 60.0022 132.235 59.8886 135.217C59.8537 136.103 61.2514 139.145 64.2041 140.119C67.1131 141.075 68.3972 141.509 69.8648 141.779C78.8889 143.456 80.7845 143.109 82.0949 143.126C85.6154 143.178 91.8964 142.491 93.8706 142.144C98.9898 141.249 100.187 139.232 100.283 138.971C100.492 138.432 100.422 127.351 100.274 125.812C100.23 125.386 99.8546 112.87 99.9594 110.941C100.021 109.88 99.7673 103.631 100.222 102.223C101.113 99.4591 102.633 97.1732 103.366 95.5479C103.655 94.9047 103.943 93.5401 104.153 92.6449C104.423 91.4889 107.28 78.6426 107.28 73.9578V73.9839ZM91.18 65.2401C91.3285 65.2227 91.5207 65.5791 91.6867 65.7703C91.6343 65.8572 91.5731 65.9528 91.5207 66.0397C91.1364 66.005 90.7607 65.9615 90.3763 65.9267C90.3589 65.8398 90.3414 65.7616 90.3152 65.6747C90.5947 65.5182 90.8655 65.2749 91.1713 65.2401H91.18ZM64.9728 57.1395C65.8027 57.096 66.6239 57.0352 67.4538 57.0265C68.371 57.0178 69.297 57.0265 70.2055 57.1047C70.4327 57.1221 70.6249 57.4872 70.8432 57.6871C70.6773 57.8522 70.4851 58.1738 70.3366 58.1564C68.5458 57.9217 66.6676 58.2433 64.9728 57.4176C64.9728 57.322 64.9728 57.2351 64.9728 57.1395ZM67.8556 67.3956C67.2703 67.2479 66.5715 67.5608 65.9687 67.6651C65.2262 67.5608 64.5448 67.4217 63.8547 67.3869C63.313 67.3522 62.754 67.4999 62.2124 67.4652C61.5397 67.4217 60.867 67.3174 60.2119 67.1523C60.0546 67.1088 59.8799 66.7525 59.8799 66.5352C59.8799 65.8311 59.9148 65.1271 60.0109 64.4318C60.0546 64.1015 60.1594 63.6148 60.3778 63.5192C60.6836 63.3888 61.3126 63.4322 61.4611 63.6321C62.2997 64.849 63.3393 64.2406 64.2652 63.9624C66.3706 63.3453 68.4671 63.3366 70.4589 64.1971C71.315 64.5708 71.9964 65.3705 72.7127 66.031C72.7738 66.0832 72.503 66.7264 72.3283 66.7611C70.8607 67.0306 69.4805 67.8128 67.8731 67.4043L67.8556 67.3956ZM74.0318 90.2286L95.4867 69.2122C94.9277 69.1861 94.3686 69.1513 93.8007 69.1253C93.8007 69.0297 93.8008 68.9254 93.8095 68.8298H95.4955L95.478 69.2122L74.0318 90.2286Z" fill="#FFF2E3"/>
<path d="M82.8727 92.2708C83.5366 91.8102 84.2616 91.8362 85.1876 91.532C87.9044 90.6194 90.4029 90.1935 89.8875 89.5938C89.276 88.8898 84.6023 89.7589 83.2745 89.8024C80.5752 89.8893 77.8409 89.4895 75.194 90.3065C74.6261 90.4803 73.971 90.7932 73.3944 90.8715C72.4073 91.0018 71.5162 90.7237 70.5291 90.3239C69.839 90.0458 69.4109 89.4634 69.5157 88.9506C69.6468 88.3596 70.9484 88.9245 71.6472 89.307C72.7305 89.898 73.1935 90.2544 74.067 89.785C75.1415 89.2114 78.1466 88.9071 79.7016 88.9332C83.1872 88.9941 90.0534 88.7246 90.464 88.6812C91.2852 88.5942 91.6608 87.8989 92.1325 88.4813C92.3946 88.8115 92.2286 89.0897 91.9316 89.5938C91.556 90.2457 90.962 90.602 90.5426 90.8106C89.8613 91.1409 88.7431 91.6103 86.9348 92.0275C86.5329 92.1231 83.3531 92.6185 82.9425 92.6532C82.9163 92.5316 82.8901 92.4186 82.8639 92.2969L82.8727 92.2708Z" fill="black"/>
<path d="M82.8285 92.7925L82.6975 92.2015L82.7848 92.1407C83.2304 91.8278 83.7021 91.7322 84.2 91.6192C84.497 91.5583 84.8028 91.4888 85.1347 91.3758C85.9122 91.1151 86.681 90.8891 87.3536 90.6979C88.5155 90.3589 89.721 90.0112 89.7909 89.7505C89.7909 89.7505 89.7909 89.7244 89.7647 89.6809C89.3803 89.2377 86.6548 89.5679 85.0299 89.7592C84.2874 89.8461 83.6497 89.9243 83.2653 89.9417C82.4966 89.9678 81.7103 89.9417 80.9503 89.9417C79.0547 89.9069 77.0979 89.8635 75.2284 90.4458C75.0362 90.5066 74.8353 90.5762 74.6344 90.6544C74.2238 90.8022 73.7958 90.9586 73.4027 91.0108C72.4155 91.1411 71.5157 90.8804 70.4587 90.4458C69.69 90.1329 69.227 89.481 69.358 88.8987C69.393 88.7509 69.4803 88.6379 69.6114 88.5771C70.1268 88.3424 71.2537 88.8987 71.7167 89.1507L72.0049 89.3072C72.8698 89.7939 73.2716 90.0112 73.988 89.6288C75.0712 89.0464 78.0413 88.7335 79.7011 88.7596C83.143 88.8205 90.053 88.551 90.4373 88.5076C90.7256 88.4728 90.9615 88.3598 91.1624 88.2555C91.5118 88.0817 91.8787 87.9078 92.2456 88.3598C92.5689 88.7596 92.3679 89.1247 92.0797 89.6201C91.6603 90.3415 91.0401 90.7065 90.6033 90.9238C89.6162 91.4106 88.3932 91.8191 86.9605 92.1494C86.5499 92.245 83.3614 92.7491 82.9421 92.7838H82.8023L82.8285 92.7925ZM83.0469 92.3406L83.0731 92.4623C83.8069 92.3667 86.5412 91.9408 86.9081 91.8538C88.3146 91.5323 89.5201 91.1237 90.481 90.6544C90.8741 90.4632 91.4419 90.1329 91.8088 89.4984C92.1233 88.9595 92.202 88.7857 92.0185 88.5597C91.8176 88.3076 91.6865 88.3511 91.3196 88.5336C91.1013 88.6379 90.8304 88.777 90.4897 88.8118C90.0966 88.8552 83.2828 89.1334 79.7099 89.0638C78.1287 89.0377 75.176 89.342 74.1452 89.8982C73.2804 90.3676 72.7475 90.0634 71.8652 89.5766L71.5769 89.4202C70.7557 88.9682 70.0045 88.7422 69.7511 88.8552C69.7074 88.8726 69.6812 88.9074 69.6638 88.9595C69.5677 89.3941 69.9608 89.9069 70.581 90.159C71.6206 90.5849 72.4417 90.8195 73.3677 90.6979C73.7346 90.6544 74.1365 90.4979 74.5296 90.3502C74.7392 90.272 74.9401 90.1937 75.1411 90.1416C77.0629 89.5506 79.0459 89.594 80.9591 89.6288C81.7103 89.6462 82.4966 89.6549 83.2566 89.6288C83.6235 89.6201 84.2524 89.5419 84.9862 89.455C87.5458 89.1507 89.5288 88.9508 89.9918 89.481C90.1141 89.6201 90.1054 89.7505 90.0879 89.8374C89.9656 90.2372 89.1444 90.4979 87.4322 90.9934C86.7596 91.1933 85.9996 91.4106 85.2308 91.6713C84.8814 91.793 84.5669 91.8538 84.2612 91.9234C83.8069 92.019 83.4138 92.1059 83.0382 92.3406H83.0469Z" fill="#FFF2E3"/>
<path d="M66.9393 68.1952C65.9958 67.9605 65.131 67.6389 64.2662 67.5433C63.576 67.4651 62.8772 67.7954 62.1871 67.7171C61.3397 67.6215 60.4836 67.3695 59.6624 66.9957C59.4615 66.9001 59.2431 66.0744 59.2344 65.579C59.2344 63.971 59.2868 62.3544 59.3916 60.7551C59.444 59.9989 59.5838 58.869 59.8546 58.6517C60.239 58.3562 61.0427 58.4431 61.2174 58.9125C62.2744 61.7112 63.5848 60.3031 64.7641 59.6773C67.4285 58.2606 70.0667 58.2345 72.5913 60.2162C73.6745 61.068 74.5394 62.9193 75.4392 64.4317C75.5178 64.5621 75.1771 66.0396 74.95 66.1092C73.0892 66.735 71.3508 68.5254 69.3154 67.5781C68.5816 67.2391 67.6906 67.9692 66.9306 68.1865L66.9393 68.1952ZM64.5981 64.2144C64.6068 64.423 64.6243 64.6403 64.6331 64.8489C65.1659 65.1183 65.6901 65.3791 66.5112 65.7963C66.2841 64.4838 66.1618 63.7624 65.9871 62.7194C65.4193 63.3278 65.0087 63.7711 64.5981 64.2231V64.2144Z" fill="#FFF2E3"/>
<path d="M82.3047 80.6937C82.3396 79.9115 82.7327 79.5029 83.3093 79.2509C83.9121 78.9901 84.4974 79.051 84.9953 79.5029C85.5369 79.9897 85.4233 80.5807 84.7332 80.6763C83.9557 80.7806 83.1521 80.7024 82.3047 80.7024V80.6937Z" fill="black"/>
<path d="M76.9763 80.7368C76.4259 80.7021 76.0678 80.6325 75.9891 80.3196C75.8232 79.6851 76.5395 78.9376 77.1772 79.1115C77.7101 79.2592 78.1381 79.7547 78.6186 80.0936C78.1119 80.4326 77.7712 80.789 76.9763 80.7368Z" fill="black"/>
<path d="M95.5143 69.5422C94.6931 69.4553 93.8719 69.3771 93.0508 69.2902L93.0683 68.4297H95.5405L95.5143 69.5422Z" fill="#FFF2E3"/>
<path d="M91.5994 66.5261L89.8959 66.2654C89.8697 66.0742 89.8435 65.8829 89.8086 65.6917C90.2279 65.3354 90.6385 64.7878 91.084 64.7009C91.3024 64.6574 91.5907 65.4744 91.844 65.909C91.7654 66.1176 91.678 66.3175 91.5994 66.5261Z" fill="#FFF2E3"/>
<path d="M64.1523 65.8394C64.4756 65.6482 64.8075 65.4482 65.253 65.1875C65.3928 65.6395 65.4889 65.9524 65.6724 66.526C65.0259 66.3435 64.6066 66.2305 64.1873 66.1175C64.1785 66.0219 64.1698 65.935 64.1611 65.8394H64.1523Z" fill="#FFF2E3"/>
<path d="M61.3388 57.7647C61.6009 57.6257 61.8455 57.4171 62.125 57.3475C65.2874 56.6001 68.4672 56.5653 71.6557 57.1303C71.7867 57.1563 71.9789 57.1737 72.0401 57.2606C72.2672 57.5996 72.4507 57.956 72.6516 58.3123C72.3022 58.5035 71.9265 58.9034 71.6033 58.8599C69.1049 58.5731 66.6239 58.1819 64.1255 57.8777C63.6014 57.8082 63.0423 57.9299 62.5007 57.9733C62.1425 57.9994 61.7756 58.0429 61.4174 58.0776C61.3912 57.9733 61.365 57.869 61.3301 57.7647H61.3388Z" fill="black"/>
<path d="M91.1445 66.1958H88.8732C88.6636 65.8308 88.8907 65.6482 89.0654 65.4657C89.5459 64.9529 90.0438 64.4488 90.5505 63.9621C90.6815 63.8404 90.8475 63.7187 91.0135 63.6752C92.6558 63.2407 94.3068 62.8495 96.0278 63.1972C96.2811 63.2493 97.1547 63.4058 97.408 63.4666C98.037 63.6144 99.4434 64.1967 100.16 64.6922C100.562 65.0311 100.929 65.3093 101.269 65.6222C101.802 66.1176 101.741 66.5 101.051 66.6739C100.5 66.8129 99.9152 66.8216 99.3473 66.8564C98.8844 66.8825 98.4126 66.839 97.9496 66.8564C96.3772 66.8998 94.8135 67.0041 93.2848 66.5174C92.3064 66.6304 91.922 66.1697 91.7909 65.2224C91.7036 64.5618 91.3629 64.5096 90.7776 64.8834C90.6466 64.9703 90.5068 65.0485 90.3932 65.1615C90.0613 65.4831 90.1312 65.7699 90.5592 65.909C90.7514 65.9698 90.9611 66.0046 91.162 66.0481C91.162 66.1002 91.1532 66.1524 91.1445 66.1958ZM96.1326 65.9785C96.6218 66.1089 96.9014 66.0046 97.1285 65.7699C97.3207 65.5787 97.3381 65.3527 97.1285 65.1528C96.9188 64.9442 96.6917 64.9877 96.5344 65.2224C96.3947 65.4223 96.2986 65.6569 96.1239 65.9785H96.1326ZM93.6604 65.0224C93.3983 64.9181 93.2411 64.8052 93.1013 64.8138C92.9877 64.8225 92.9004 64.9964 92.7956 65.092C92.9353 65.1789 93.0664 65.3093 93.2149 65.3267C93.3197 65.3353 93.4333 65.1876 93.6604 65.0224Z" fill="black"/>
<path d="M72.8527 66.2745C72.5557 66.3701 72.3547 66.4483 72.1538 66.4918C71.6384 66.5874 71.1055 66.6135 70.6163 66.7699C69.8214 67.0307 69.0264 67.0481 68.214 66.9698C67.6025 66.909 67.0172 66.9351 66.4144 67.1176C65.9864 67.248 65.4972 67.2045 65.0342 67.1698C64.2829 67.1089 63.5404 66.9612 62.7979 66.909C62.3087 66.8742 61.8195 66.9438 61.3303 66.9525C60.9896 66.9525 60.6314 66.9872 60.2994 66.9003C59.8801 66.796 59.8015 66.5179 60.0461 66.1876C60.9022 65.0403 62.0116 64.258 63.4268 63.9452C64.1519 63.78 64.8857 63.5714 65.6195 63.4932C66.4232 63.415 67.2356 63.4237 68.0393 63.4758C69.1487 63.554 70.1708 63.9625 71.1405 64.484C71.3152 64.5796 71.4724 64.7187 71.6035 64.8665C71.9791 65.275 72.346 65.7009 72.8439 66.2658L72.8527 66.2745ZM65.3662 66.909C65.602 66.2311 65.305 65.6922 65.0255 65.1707C64.9643 65.0577 64.6935 64.9621 64.5799 65.0055C64.1868 65.162 63.785 65.3445 63.4443 65.5879C63.191 65.7704 63.2346 66.0833 63.5054 66.2397C64.0471 66.5526 64.5799 66.9177 65.3662 66.909ZM67.4977 65.2141C67.0259 64.9012 66.6328 64.8665 66.5105 65.1707C66.4581 65.301 66.5193 65.5705 66.6328 65.6661C66.8862 65.9008 67.1919 65.7269 67.4977 65.2141ZM71.2278 65.4227C71.0968 65.3445 70.9483 65.2054 70.7823 65.1794C70.5028 65.1446 70.2582 65.2663 70.2756 65.5879C70.2756 65.6835 70.494 65.8399 70.6163 65.8486C70.8609 65.8486 71.1405 65.8486 71.2278 65.4227Z" fill="black"/>
<path d="M56.6823 96.0776C61.3297 105.743 73.848 109.306 83.9028 108.402C93.1976 107.559 102.361 101.936 105.602 92.9312C105.698 92.6531 105.244 92.4619 105.122 92.7313C101.339 101.406 93.0404 106.916 83.6233 107.69C73.551 108.515 62.2819 104.917 56.9356 95.9299C56.8395 95.7647 56.5949 95.9125 56.6735 96.0776H56.6823Z" fill="black"/>
</g>
</g>
<defs>
<clipPath id="clip0_5795_5145">
<rect width="163" height="163" rx="81.5" fill="white"/>
</clipPath>
<clipPath id="clip1_5795_5145">
<rect width="163" height="170" fill="white" transform="translate(-5 20)"/>
</clipPath>
</defs>
</svg>
