<svg fill="none" height="163" viewBox="0 0 163 163" width="163" xmlns="http://www.w3.org/2000/svg" xmlns:xlink="http://www.w3.org/1999/xlink"><clipPath id="a"><rect height="163" rx="81.5" width="163"/></clipPath><clipPath id="b"><path d="m-12 19h219v180h-219z"/></clipPath><mask id="c" height="69" maskUnits="userSpaceOnUse" width="219" x="-12" y="130"><path d="m207 130.506h-219v68.493h219z" fill="#fff"/></mask><g clip-path="url(#a)"><circle cx="81.5" cy="81.5" fill="#ffdeb5" r="81.5"/><g clip-path="url(#b)"><path d="m61.3664 143.149c7.9084 4.609 17.5411 7.831 26.514 8.008 4.4336.088 11.6031-.698 15.8786-1.987 4.275-1.28 13.195-5.968 16.45-9.376 1.786-1.863 4.874-3.072 1.504-5.827-.237-.194-2.296-2.039-6.984-4.961-1.707-1.069-3.255-6.657-3.414-8.088-.607-5.341-.343-4.281-.791-7.937-.203-1.642-.247-2.074-.203-3.725.106-.239-.563-1.916 0-3.735.036-.123 5.173-.274 7.293-2.701.607-.698 2.094-2.102 3.651-3.4348.422-.362-2.604-6.1448-1.557-7.6015.747-1.0418 3.809-.6445 2.788-7.8841-.052-.3708 2.261.0618 1.364-2.2248-.053-.1766-.114-.3443-.194-.4944-.22-.5562-.378-.9712-.431-1.1212-1.662-4.7234-2.621-9.1819-2.63-9.3585-.044-.9182-1.856-7.2925-2.595-8.9347-.352-.7945-4.522-13.3931-5.102-13.8787-.555-.4591-2.138-3.9906-2.543-4.7764-.536-1.0417-2.639-4.9264-2.524-5.0588-.511-1.0506-1.496-2.0659-2.472-2.525-.379-.1766-2.982-2.0836-3.176-2.0748-.29.0089-1.715-3.1695-2.173-3.6904-.3429-.0883-5.4452-2.8605-5.841-2.8605-.2111-.8299-1.7594-1.3861-1.9265-1.4302-.5191-.159-3.5188-4.3703-10.1165-3.046-.3079.0618-2.1553 0-4.0906 2.0395-.4751.5032-.8709-.106-1.1524-.3973-.4223-.4326-3.6244-3.0371-7.5478-.5474-.6598.4238-4.3457 2.4897-5.155 2.7634-1.5483.5121-2.7974 1.3949-3.8003 2.6663-.2199.2737-2.8238 3.4167-3.0613 3.7522-.1936.053-4.592 3.8581-5.0231 3.7434-.9589-.2561-5.9027 4.1583-6.6769 5.5179-.3606.6269-.8005 2.7899-1.0028 3.0636-.4575.618-.7302 1.3596-1.3284 1.8717-.3958.3355-2.4719 5.9152-2.8942 6.7451-2.3751 2.8958-2.7182 7.5486-2.8238 8.6345-.0791.8211.3783 4.847.4135 5.2354.044.5386-.0616.9889-.5014 1.3597-.5543.4767-.4135 1.2007-.5191 1.8275-.044.2737.3167 5.9153.132 6.3567-1.214 2.8782-3.4396 4.0877-4.724 12.8723-.0528.3708.695 2.8075.3783 3.3019-.1056.1589-.1408.4414-.0792.6357.2287.6974-.044 1.2713-.3431 1.8628-.2375.4768-1.0292 4.7229-1.0556 5.4119-.0264.671 0 1.316.3871 1.951.5542.901 2.5247 1.828 2.5951 1.907.3079.327 3.8091 1.625 4.6272 2.154.8797.574 5.6828 4.335 6.3778 4.9.7917.636 1.6186 1.228 2.3663 1.907.8973.813 11.1985-10.232 12.1398-9.755 1.0469.521 2.296 5.067 3.2021 6.701.2551.45.4223 2.631.2111 4.538-.0967.865 1.4339 10.144-.994 12.589-1.6714 1.678-8.7794 7.046-8.7794 7.046.3783 2.339 6.0347 6.983 7.9613 8.105zm45.3126-43.7638v.0177c-.017-.1148-.026-.2207-.044-.3355l-.114.0706c.079-.1501.15-.3002.22-.4591-.044.309-.079.5916-.07.7063zm.37 3.9548v.08.071c0-.053 0-.098-.009-.151zm.132 6.649v-.045zm0-.142c0-.106 0-.212 0-.318 0-.291.009-.582.009-.882v.008c.017.345 0 .636-.018 1.183z" fill="#fff2e3"/><path d="m166.525 151.448c-1.496-1.862-3.281-3.266-6.519-5.632-.528-.38-11.093-6.154-14.981-6.233-7.486-.159-25.353-7.77-24.948-7.549 10.785 5.959-17.075 20.695-32.5664 18.982-5.067-.556-19.9251-.724-32.9798-13.57 0 0-.0175-.009-.0175-.018-.9237-3.204-2.4544-1.041-3.5012-.203-12.0782 9.65-27.3673 9.014-37.563 21.745-7.02876 8.767-6.76485 17.623-12.500458 29.603-1.944126 4.07.316688 3.505 2.093678 3.699 13.86398 1.492 35.20538-1.218 92.04248-4.22 42.1552-2.225 81.2922 3.505 82.0142 3.77 3.765 1.369 4.952.45 5.014-.344.378-4.935-1.117-8.096-2.49-12.802-2.392-8.219-11.216-25.665-12.782-26.91-.123-.097-.228-.212-.325-.335z" fill="#ddc9b5"/><path d="m76.1626 63.7516c.6334.8211-.7301 2.0483-2.0673 2.2072-.7301.0883-3.8091.1677-5.5069.4238-1.2227.1854-2.4719.1589-3.7035.3002-.2375.0264-.431.3708-.6598.5473-.2023.159-1.6098 1.9247-2.0408 2.2249-.8534.5738-2.8239 1.7216-3.2109 1.2272-1.1348-1.4479 1.2403-4.0348 1.6274-4.538 1.17-1.545 2.8502-1.7481 4.6536-2.0571 2.252-.3885 10.3276-.5562 10.917-.3267z" fill="#1e0a05"/><path d="m76.2159 68.4399c.6773.2737.7213.671.7741 1.5362-.8445-.2649-.9237-.4414-1.821-.7328.4575.4944.9325.7416.7566 1.2007-.176.4591-1.0996.1854-1.5835.1236-.3343-.0441-.2023-.3355-.519-.5209-.3607-.2119-.7037-.5209-1.0908-.5915-.132-.0265-.4047.5474-.5454.8741-.607 1.4479-.9237 1.2095-2.1025 1.5097-.3255.0883-1.4691.2825-1.821.0706-.2023-.1236-.3606-.309-.4222-.7769-.0792 0-.1672.0088-.2463.0176 0 .8829-1.9178 1.033-1.9178 1.9777.0264.0176.8094 1.2801-.4662.8387-.0616-.0177-.132-.053-.2023-.0795-1.6802-.5385-1.3724-2.11-.563-3.0459.9852-1.4832 2.4455-1.9511 4.0817-2.1012-.3958.309-3.8794 2.0306-3.5011 3.1518 2.4191-1.8981 3.1669-3.6904 9.6678-2.9311-.8181-.2384-1.6626-.4856-2.7095-.7946 2.1993-.5032 2.1641-.5562 4.2226.2649z" fill="#1e0a05"/><path d="m90.7569 66.2588c1.0644-.4327 2.1024-.9712 3.202-1.2714 2.3224-.6445 4.5393-.4238 6.5181 1.033-.043.1148-.079.2207-.123.3355-.264-.1413-.5715-.2472-.7914-.4415-1.1876-1.0329-1.8474-.9535-2.3136.5033-.3343 1.0506-1.1788 1.0506-1.9089 1.1212-.8094.0795-1.7858.4591-2.4104-.5738-.1583-.2649-.5014-.5121-.7917-.5651-.1408-.0265-.4663.3973-.5366.6622-.2639 1.0329-1.0029.9976-1.9618.9623.4311-.671.783-1.2272 1.1436-1.7834l-.0351.0265z" fill="#1e0a05"/><path d="m79.541 85.4177c1.2228-1.6157 3.9762-1.2449 5.3486.7239-.5015.1943-4.7152-.3178-5.3486-.7239z" fill="#1e0a05"/><path d="m88.9102 84.041c.3694-1.1477 2.076-1.6509 3.3164-.9799-.2551.2295-2.859 1.0329-3.3164.9799z" fill="#1e0a05"/><path d="m99.0261 56.6621c3.2289 0 5.2959 4.6527 3.9939 4.2466-4.205-1.3155-12.5181 1.9423-15.8522 1.8894-.6773-2.7104 3.2901-3.1607 4.9967-3.8582 1.7946-.7328 4.7679-1.6068 6.8528-2.2778z" fill="#1e0a05"/><g fill="#000"><path d="m90.7919 66.2334c-.2903.0618-.5806.1324-1.0292.2296.7741-1.4744 4.4249-3.5757 9.2632-2.9047-1.258-.0177-6.9936.8829-8.2692 2.6928l.0352-.0265z"/><path d="m35.908 109.635c1.2932-.124 2.2256-.212 3.1581-.309 0-.124.0176-.239.0264-.362-1.557-.23-3.1053-.459-4.3369-.636-.8621-2.569 1.3196-3.39 1.9266-4.785.4398.221.8005.397 1.3195.653-.044.15-.1232.459-.2199.804.0791.044.1759.15.2727.15 1.214-.044 1.8209.83 1.9177 1.748.1056.945.3695 1.377 1.2844 1.351-.2288 1.086-1.9969.3-1.9354 1.651.8182.07 1.5571.132 2.5687.22-.6773.671-1.082 1.236-1.6274 1.59-1.3107.856-1.8474-.839-2.8854-1.007-.4134-.071-.7653-.53-1.4779-1.068z"/><path d="m27.5162 99.1202c.607-.4767 1.1436-.9093 1.6802-1.3331.0704.0618.1408.1236.2199.1942-.6861 1.9953-1.3811 3.9997-2.1992 6.3917-1.038-1.033-1.8562-1.818-2.6303-2.648-.1407-.15-.1319-.548-.0616-.786.3695-1.2007 1.9002-2.0483 2.991-1.8099z"/><path d="m124.309 94.7578c1.082 1.4568.791 3.2578-.783 4.8911-.889-1.8099-.51-3.3814.783-4.8911z"/><path d="m44.5818 113.467c.6158.962 1.1876 1.933.044 3.24-.1144-.238-.2199-.477-.3783-.795-.1847.309-.3167.521-.6949 1.148-.3871-.962-.651-1.633-.9149-2.295.3431-.097.6862-.186 1.0292-.283.0264.08.044.15.0704.23.2903-.406.5806-.813.8709-1.219l-.0352-.026z"/><path d="m122.057 91.6158c.149-.2472.378-.6268.615-1.0064.264.3355.669.6445.748 1.0241.132.6445.088 1.3331.035 1.9953-.017.1942-.343.5121-.51.5032-.202-.0088-.492-.2825-.554-.5032-.158-.5827-.202-1.1831-.334-2.013z"/><path d="m127.009 96.0297c.44 1.4744-.202 2.6486-1.32 3.7081.317-1.2626.643-2.5339.959-3.7964l.352.0883z"/><path d="m29.6358 92.2422c-.5982.6533-.9589 1.0418-1.4251 1.5627-.2991-.5297-.5367-.9447-.7742-1.3685.6158-.053 1.2316-.1059 2.1993-.1942z"/><path d="m51.5579 119.973c.1935.123.431.212.5718.37.4838.557.9413 1.139 1.4075 1.713-.088.089-.1847.177-.2727.265-.6686-.671-1.3371-1.333-2.0057-2.004.0968-.115.1935-.23.2991-.344z"/><path d="m127.722 97.9729v-2.6663c.95.9271.95 1.6334 0 2.6663z"/><path d="m117.649 104.798c.106-.548.168-1.104.343-1.625.053-.159.423-.203.651-.3.053.212.22.477.15.636-.229.485-.537.927-.818 1.395-.106-.036-.22-.062-.326-.097z"/><path d="m125.074 90.75c.105.8476.202 1.6863.308 2.5338-.159.0265-.317.053-.475.0795l-.326-2.5074c.167-.0353.326-.0618.493-.0971z"/><path d="m44.6172 113.485c.3343-.336.6598-.671.9941-1.006.2375.397.4838.794.7565 1.253-.8005-.123-1.2931-.194-1.7858-.273z"/></g><path d="m129.947 91.4388c-.228-1.2537-.563-2.4809-.906-3.9288-.246-1.1389-1.39-3.814-1.627-4.5115-.326-.9446-1.117-1.6509-1.557-2.5338-.607-1.236-6.642-18.4697-6.061-18.5403 0-.3885.035-.7505 0-1.1036-.168-1.4479-.449-2.8782-.519-4.3261-.036-.7946-1.654-3.5403-2.164-4.9971-.282-.7945-.335-1.4655-.819-2.4808.018-.0618-1.618-2.4103-2.076-3.4785-.483-1.139-1.126-2.2161-1.689-3.3108.036-.0088-1.724-3.6463-2.014-5.2884-.238-1.342-2.05-1.8452-3.149-2.7104-.995-.777-4.795-4.1407-5.507-5.0677.114-.2119-2.1292-1.9953-2.2436-2.0836-.7917-.6445-1.5131-1.4567-2.4191-1.8275-.6422-.2649-2.8415-3.1519-4.5657-4.1584-2.7446-1.7481-5.4717-1.9864-6.0962-2.0836-1.3284-.2118-10.1077 2.4986-11.0402 1.6422-.2111-.1942-3.0877-.1678-3.4396-.0706-.7654.2207-1.821 1.0506-2.1729.7945-1.2755-.9005-8.6474 4.4144-9.703 5.2973-.3079.256-.3607.9711-.651 1.0506-1.1348.3267-1.5043 1.3773-2.2256 2.0836-.6598.6445-1.1084 1.3861-2.0057 1.9246-1.4955.8917-2.6567 2.3396-3.9674 3.558-.0792.0706-.176.1236-.3431.2296-.132-.3709-5.111 3.708-4.4952 3.6374-.3959.5121-.6422.8122-.8709 1.1212-.8973 1.2184-1.9354 2.3661-2.6303 3.6993-.4135.7857-.9237 1.3243-1.5571 1.8717-1.4603 1.2625-2.7622 3.9905-2.6303 4.0435-.4662 1.5097-.7301 3.1254-1.4427 4.5027-1.2667 2.4544-2.4103 4.9087-2.5863 7.7074-.088 1.3508-.0264 2.7105-.1055 4.0524-.0264.4856-.2903.9535-.4751 1.5009.0264.0177.2024.1589.4047.309-.3343.3708-.6158.6887-.7478.8387.3079.415.7918.9006.7214 1.0153-.2903.468-1.5219 5.1825.6949 5.0412-.2639.6357-.8181 1.4303-.8708 2.2514-.088 1.5627-1.3548 3.0812-.2376 4.7057.0704.1059.0264.3266-.0264.4767-.5102 1.4479-.9324 2.94-1.5922 4.3173-.5894 1.2272-1.1876 2.5956-2.8942 2.6839-.3783.0177-.7477.0706-1.126.1059-.044-.4326-2.1289 2.94-1.8386 3.5757.4575 1.0065.0264 1.8187-1.0292 1.9864-.5542.0883-1.0908.3267-1.6978.5121.5542 1.2272-.7918 3.302-.0792 3.0283v3.2492c.8621 1.024 2.0321 2.242 2.9734 3.62.6861 1.006 1.8121 1.836 1.6802 3.31-.1056 1.263.9237 2.384 2.1728 2.481.9677.08 1.9354.133 2.9118.194.0088-.256.0264-.494.0352-.724 1.4515.689 2.9382 1.175 4.1698 2.022 1.2843.883 3.0877 1.245 3.5627 3.108.0616.221.3871.415.6334.547 2.1992 1.139 3.7827 3.002 5.5245 4.68 1.9353 1.854 4.2489 3.151 6.8616 3.619 1.2492.23 2.2344.662 3.2549 1.351 1.4691.989 3.0701 1.783 4.4688 2.587.5806-.53.9325-.865 1.2932-1.183.4222-.371 1.0116-1.36 1.214-1.819.95-2.092 1.1963-3.575.9588-5.862-.1055-1.068-.3694-5.509-.3694-6.595.2287.07-1.7242-9.562-3.5628-13.031-3.598-6.7897-3.1845-12.4842-4.636-16.7485-.5102-3.3019-1.645-6.7539-.6158-10.3561-.2199.106-.2199-10.1883.2727-10.8946.1408-.2031-.0264-2.1189.2903-2.4985-.2023-1.3508.0264-5.1119.5718-5.7564.7126-.8299 1.2668-1.8187 1.7858-2.7898.3519-.6622.5454-1.4126.7829-2.1278.8973-2.7369 3.2109-4.1495 5.3662-5.6592.9148-.6356 1.9969-1.1124 3.0613-1.4479 1.777-.5562 2.9998-2.6839 5.2518-1.8717.0879.0353.2375-.0618.3431-.1147 1.2755-.6799 2.5335-1.3862 3.8178-2.0571.3255-.1678.7302-.4238 1.0293-.3532 1.4779.3708 2.6655-.1766 3.7387-.9623.4398.2384 1.0204.7946 1.3283.671 1.17-.4768 2.252-1.1743 3.3605-1.7834.0263.2295.0791.5738.1319 1.0153 1.0381.1501 2.0673.4855 3.0526.3884 1.7066-.1677 3.1229.3885 4.5128 1.2272.1935.1148.4398.2561.6334.2207 1.0204-.1854 1.7242.4238 2.34 1.0153 1.2227 1.1831 2.41 2.4191 3.484 3.7346.765.9447 1.389 2.0218 1.97 3.0989.519.9447.889 1.9688 1.328 2.9841-1.099.7681-.202 1.6598.08 2.3661.914 2.2866 2.463 4.2819 2.955 6.7804.467 2.3661 1.17 4.6881 1.619 7.063.651 3.4521.704 4.0083 1.232 7.2131.044.2913.158.5739.343.7946.431.512.255 1.1036.439.9005 1.382-1.4744 1.065-4.7587 1.663-6.2331.238-.5827.431-1.3861 1.337-2.1012.264.2913.273.5385.264.7946-.088 2.0659 1.161 10.2766.466 13.967-.598 3.1872-1.108 5.6681-3.809 6.1271 0 .9006-.035 1.8276 0 2.7546.176 3.9111.027 7.7693-1.39 11.486-.184.477-.422.998-.395 1.483.131 2.578.307 5.165.527 7.734.088 1.007.335 2.004.528 3.135.669-.495 1.126-1.113 1.636-1.157 1.232-.106 1.645-.927 2.191-1.801.589-.936 3.686-1.421 3.976-1.483 4.97-1.104 8.216-6.984 8.304-7.107.862-1.342 1.804-2.6579 2.428-4.1058.291-.671.739-3.814.845-3.7875-.053-.8034-.027-1.6245-.167-2.4102zm-70.736 2.3661c.4135.1059-.7125 1.183-.994 1.3773-.4399.3001-1.0996 1.0329-1.865 1.0153-.7653-.0177-1.9353-.3179-2.3048-.8034-.5454-.7152-.563-2.6487-.9412-3.4697-.4927-1.086-2.0937-2.9047-2.6479-3.9641-.8709-1.6687-2.3752-7.1601-2.3752-7.1601s-.8005-3.3108-.4311-4.3349c.1672-.4591 1.1261-1.1036 1.6187-1.1124 1.7242-.0265 5.2518 4.1583 5.2518 4.1583s3.853 14.073 4.6799 14.2849z" fill="#1e0a05"/><path d="m58.8506 93.6011c1.1348 5.0323 3.1229 10.4969 7.0991 13.9849 3.9147 3.434 9.5007 5.791 14.4798 7.125 5.1022 1.368 10.6443 1.527 15.6586-.274 5.0139-1.801 8.8059-5.5 12.1129-9.447 4.205-5.0234 3.933-11.6538 4.329-17.8869.035-.5385-.801-.5385-.836 0-.229 3.6463-.273 7.478-1.003 11.0713-.686 3.3906-2.63 5.8356-4.926 8.2986-4.619 4.953-10.0112 8.246-16.9168 8.449-6.6417.195-13.0371-2.26-18.7375-5.509-2.7798-1.58-5.0583-3.514-6.7473-6.277-1.8209-2.975-2.9469-6.3654-3.7123-9.7556-.1143-.5209-.9237-.3002-.8005.2207z" fill="#000"/><path d="m109.679 102.201c-.185 4.935.237 9.835.756 14.735.379 3.558.581 7.487 2.543 10.594 2.093 3.32 6.219 4.265 8.814 7.09 1.98 2.154-1.97 5.05-3.527 6.392-1.839 1.589-3.836 2.975-5.938 4.185-.466.265-.044.989.422.724 3.563-2.066 7.521-4.803 9.958-8.202 2.27-3.161-2.683-5.757-4.917-7.107-2.358-1.431-4.135-2.976-5.103-5.633-.765-2.119-1.011-4.388-1.257-6.622-.59-5.376-1.118-10.762-.915-16.174.017-.538-.81-.538-.836 0z" fill="#000"/><path d="m62.6155 104.498c.8269 3.902 1.4779 7.839 1.8913 11.804.4135 3.964.8445 7.866-1.9177 11.097-1.1612 1.36-2.5423 2.552-3.985 3.602-1.214.892-2.6743 1.492-3.8267 2.446-1.2579 1.042-1.777 2.852-.3167 3.938.4311.317.8445-.407.4223-.724-2.1905-1.634 2.3752-3.735 3.378-4.406 1.0644-.715 2.0849-1.51 3.0437-2.366 1.9618-1.766 3.6684-3.77 4.1786-6.436.5718-3.002 0-6.277-.3783-9.27-.4134-3.329-.9852-6.631-1.6802-9.915-.1144-.53-.9149-.3-.8005.221z" fill="#000"/><g fill="#000" mask="url(#c)"><path d="m88.4257 151.534c-2.6215 0-5.0494-.194-7.2838-.573-2.6039-.451-5.1375-.919-7.539-1.81-3.5364-1.307-7.0376-2.843-10.398-4.565-3.5628-1.827-6.1403-3.761-8.102-6.065-.5014-.592-1.1348-1.792-1.4867-2.631l.6862-.283c.3255.795.9237 1.916 1.3635 2.428 1.9001 2.234 4.4073 4.106 7.8821 5.889 3.334 1.713 6.8 3.24 10.31 4.529 2.34.865 4.8383 1.333 7.407 1.775 5.0143.856 11.093.733 18.0602-.38 4.9178-.786 10.5038-3.266 13.0368-4.608l.343.653c-2.568 1.368-8.251 3.885-13.2655 4.688-3.9674.636-7.6445.945-11.0138.945z"/><path d="m.983905 192.508c-1.0028517-.75.791725-4.264 1.143605-5.164.64217-1.678 1.35473-3.329 2.04969-4.989 1.40751-3.355 2.67427-6.71 3.48359-10.267.80052-3.505 1.87375-6.675 3.96741-9.633 1.865-2.631 4.1962-4.908 6.6505-6.983 2.8942-2.446 5.8148-4.406 9.3424-5.801 3.1053-1.227 6.2018-2.428 9.2368-3.814 6.1842-2.816 12.087-6.206 17.4003-10.47.4223-.336-.1759-.928-.5894-.592-4.7327 3.805-9.9757 6.895-15.4474 9.509-2.8238 1.35-5.7004 2.569-8.6122 3.708-2.6479 1.033-5.2958 1.986-7.671 3.575-4.1521 2.781-8.1283 6.348-11.0401 10.445-3.38686 4.767-3.81791 10.356-5.78843 15.715-1.20518 3.266-2.68307 6.427-3.91464 9.676-.563003 1.501-2.33119 4.511-.633379 5.792.431051.326.844509-.406.422254-.724z"/><path d="m119.734 132.183c12.456 7.063 27.833 6.383 40.061 13.896 7.293 4.485 11.146 11.795 14.462 19.441 1.945 4.485 3.827 9.014 5.419 13.64.73 2.11 1.39 4.247 1.98 6.401.475 1.748 1.847 5.447-.335 6.489-1.046.503-2.252-.132-3.36-.388s-2.278-.512-3.431-.733c-2.217-.433-4.451-.777-6.694-1.077-4.716-.627-9.457-1.015-14.199-1.36-9.887-.715-19.802-1.068-29.724-1.148-19.618-.158-39.2261.76-58.7905 2.022-11.0226.715-22.0364 1.536-33.0589 2.34-10.53.768-21.7989 2.622-32.1352816-.344-.5190204-.151-.7389434.662-.2199234.803 9.421535 2.702 19.441305 1.315 29.047505.618 10.4068-.759 20.8048-1.545 31.2116-2.243 20.5497-1.386 41.1345-2.454 61.7365-2.374 10.284.035 20.568.362 30.825 1.085 5.208.362 10.416.786 15.588 1.484 2.534.344 5.05.759 7.548 1.28 1.144.238 2.287.503 3.413.794.713.186 1.496.557 2.243.398 2.683-.548 1.918-4.732 1.469-6.498-1.205-4.794-2.85-9.465-4.68-14.047-3.14-7.884-6.272-16.704-12.324-22.866-12.043-12.29-31.379-10.233-45.656-18.329-.466-.264-.889.46-.422.724z"/></g><path d="m91.5572 100.408c-2.2608.707-4.4249.777-6.7648.477-2.3312-.3-4.2226-1.5802-6.1227-2.878-.4399-.3002-.8621.4238-.4223.724 1.9178 1.315 3.8619 2.613 6.2019 2.949 2.5247.362 4.8823.3 7.3278-.468.5103-.159.2903-.971-.2199-.804z" fill="#1e0a05"/><path d="m91.5314 101.291c1.9001-.591 3.5803-1.6417 4.8383-3.2132 1.4427-1.8099 2.0761-4.1937 2.8942-6.3302.1935-.5033-.6158-.724-.8005-.2207-1.4955 3.9199-2.7887 7.5927-7.1432 8.9521-.5102.159-.2903.971.22.804z" fill="#1e0a05"/><path d="m79.9629 95.4207 3.0261-.9182 3.686-.7946 6.105-.9711 3.51-.5298.519.7593-.6069.7063-1.953 1.4214-1.5306.5739-1.4603.2649-3.8003 1.2713-5.243.2472-2.252-.8122z" fill="#fff"/><path d="m95.024 94.185c1.4163-.7417 1.3811-.6534 1.2667-1.9777-.044-.5209 2.1465-1.0859 2.5071-.7063.1144.1236.0704.8652-.0263.9359-.9677.6886-5.8412 3.9199-7.5918 3.4961 3.1053-1.0153 2.9118-1.2625 3.8443-1.7569z" fill="#1e0a05"/><path d="m78.4328 96.3044c1.39-.4944 2.7799-1.0418 4.205-1.4126 1.645-.4326 3.2812-.3267 4.9439-.5651 1.5482-.2207 2.9821-.821 4.4952-1.1654 1.7066-.3972 3.4924-.4326 5.2254-.6621.5278-.0706.5278-.9094 0-.8387-1.4779.1942-2.9822.256-4.4601.4944-1.645.2737-3.1757.9358-4.8119 1.2537-1.6626.3266-3.3692.1412-5.023.5208-1.6539.3797-3.2197 1.0154-4.8032 1.5716-.5014.1765-.2903.9888.2199.8034z" fill="#1e0a05"/><path d="m80.5707 99.4371c-1.3724-1.0947-4.0115-3.0459-4.0115-3.0459s5.0495 1.5715 5.3838 1.5627c2.1728-.0971 4.117-.053 6.5625-.7858 1.4867-.4414 3.6595-1.183 4.9175-1.7392.2903-.1678.4926-.3267.563-.4679-3.1933 1.2095-7.6885 2.0835-9.5183 2.0482-2.2344-.0353-3.5364.3178-3.7299-.3885.0704-.1677-.1935-1.7127-.1232-1.8805-.5366.053-1.082.0795-1.6186.1678-.475.0706-.9325.203-1.4075.3002-.739.1589-1.7858-.3267-2.1025.7327-.3079 1.0242.8181 1.1478 1.3547 1.598 1.0733.9006 1.9442 1.8629 4.7504 3.0811.0968-.238-.5454-.6796-1.038-1.1741z" fill="#1e0a05"/><path d="m80.5882 80.9513c-.563-.5474-1.6274-.3443-2.1904.053-.8357.5827-1.4515 1.7481-1.7594 2.6927-.3079.9447-.4399 1.9159.4046 2.6045 1.0293.8476 2.7359 1.4038 4.0466 1.2007.3695-.0618.2464-.5915-.0791-.618-.9765-.0795-2.2784-.2207-3.0878-.8652-1.1436-.9094-.8621-1.854-.2903-2.94.3959-.7504.8006-1.5892 1.6803-1.8187.387-.0971.9324.0971 1.2579-.1413.0528-.0441.0792-.1147.0264-.1765z" fill="#1e0a05"/><path d="m90.4403 79.6084c.6158.2561 1.2492 0 1.865.3797.6158.3796 1.4163 1.1124 1.645 1.8717.5103 1.6598-3.1845 2.9399-4.2665 3.4343-.3519.159-.1056.7505.2639.6269 1.4251-.5033 2.8238-1.2802 4.0026-2.2337.563-.4503.9501-1.2272.7126-1.96-.4223-1.2978-2.903-3.5932-4.2226-2.1453-.0088.0088 0 .0264 0 .0264z" fill="#1e0a05"/><path d="m79.3828 65.5706c.4223 2.887.8973 5.7563 1.0117 8.6786.0439 1.1654.0703 2.3397.0088 3.5051-.044.7945.0791 2.2601-.4399 2.9134-.2727.3443.1847.8299.4926.4944.3783-.4149.4751-.8122.5367-1.3596.1495-1.4479.1759-2.9223.1407-4.379-.0968-3.3373-.5894-6.7099-1.4339-9.9412-.0528-.203-.3343-.1147-.3079.0883z" fill="#1e0a05"/></g></g></svg>