<svg width="163" height="163" viewBox="0 0 163 163" fill="none" xmlns="http://www.w3.org/2000/svg">
<g clip-path="url(#clip0_5795_5375)">
<circle cx="81.5" cy="81.5" r="81.5" fill="#FFDEB5"/>
<g clip-path="url(#clip1_5795_5375)">
<path d="M61.3664 143.149C69.2748 147.758 78.9075 150.98 87.8804 151.157C92.314 151.245 99.4835 150.459 103.759 149.17C108.034 147.89 116.954 143.202 120.209 139.794C121.995 137.931 125.083 136.722 121.713 133.967C121.476 133.773 119.417 131.928 114.729 129.006C113.022 127.937 111.474 122.349 111.315 120.918C110.708 115.577 110.972 116.637 110.524 112.981C110.321 111.339 110.277 110.907 110.321 109.256C110.427 109.017 109.758 107.34 110.321 105.521C110.357 105.398 115.494 105.247 117.614 102.82C118.221 102.122 119.708 100.718 121.265 99.3852C121.687 99.0232 118.661 93.2404 119.708 91.7837C120.455 90.7419 123.517 91.1392 122.496 83.8996C122.444 83.5288 124.757 83.9614 123.86 81.6748C123.807 81.4982 123.746 81.3305 123.666 81.1804C123.446 80.6242 123.288 80.2092 123.235 80.0592C121.573 75.3358 120.614 70.8773 120.605 70.7007C120.561 69.7825 118.749 63.4082 118.01 61.766C117.658 60.9715 113.488 48.3729 112.908 47.8873C112.353 47.4282 110.77 43.8967 110.365 43.1109C109.829 42.0692 107.726 38.1845 107.841 38.0521C107.33 37.0015 106.345 35.9862 105.369 35.5271C104.99 35.3505 102.387 33.4435 102.193 33.4523C101.903 33.4612 100.478 30.2828 100.02 29.7619C99.6771 29.6736 94.5748 26.9014 94.179 26.9014C93.9679 26.0715 92.4196 25.5153 92.2525 25.4712C91.7334 25.3122 88.7337 21.1009 82.136 22.4252C81.8281 22.487 79.9807 22.4252 78.0454 24.4647C77.5703 24.9679 77.1745 24.3587 76.893 24.0674C76.4707 23.6348 73.2686 21.0303 69.3452 23.52C68.6854 23.9438 64.9995 26.0097 64.1902 26.2834C62.6419 26.7955 61.3928 27.6783 60.3899 28.9497C60.17 29.2234 57.5661 32.3664 57.3286 32.7019C57.135 32.7549 52.7366 36.56 52.3055 36.4453C51.3466 36.1892 46.4028 40.6036 45.6286 41.9632C45.268 42.5901 44.8281 44.7531 44.6258 45.0268C44.1683 45.6448 43.8956 46.3864 43.2974 46.8985C42.9016 47.234 40.8255 52.8137 40.4032 53.6436C38.0281 56.5394 37.685 61.1922 37.5794 62.2781C37.5003 63.0992 37.9577 67.1251 37.9929 67.5135C38.0369 68.0521 37.9313 68.5024 37.4915 68.8732C36.9372 69.3499 37.078 70.0739 36.9724 70.7007C36.9284 70.9744 37.2891 76.616 37.1044 77.0574C35.8904 79.9356 33.6648 81.1451 32.3804 89.9297C32.3276 90.3005 33.0754 92.7372 32.7587 93.2316C32.6531 93.3905 32.6179 93.673 32.6795 93.8673C32.9082 94.5647 32.6355 95.1386 32.3364 95.7301C32.0989 96.2069 31.3072 100.453 31.2808 101.142C31.2544 101.813 31.2808 102.458 31.6679 103.093C32.2221 103.994 34.1926 104.921 34.263 105C34.5709 105.327 38.0721 106.625 38.8902 107.154C39.7699 107.728 44.573 111.489 45.268 112.054C46.0597 112.69 46.8866 113.282 47.6343 113.961C48.5316 114.774 58.8328 103.729 59.7741 104.206C60.821 104.727 62.0701 109.273 62.9762 110.907C63.2313 111.357 63.3985 113.538 63.1873 115.445C63.0906 116.31 64.6212 125.589 62.1933 128.034C60.5219 129.712 53.4139 135.08 53.4139 135.08C53.7922 137.419 59.4486 142.063 61.3752 143.185L61.3664 143.149ZM106.679 99.3852C106.679 99.3852 106.679 99.394 106.679 99.4029C106.662 99.2881 106.653 99.1822 106.635 99.0674L106.521 99.138C106.6 98.9879 106.671 98.8378 106.741 98.6789C106.697 98.9879 106.662 99.2705 106.671 99.3852H106.679ZM107.049 103.34C107.049 103.34 107.049 103.393 107.049 103.42C107.049 103.446 107.049 103.464 107.049 103.491C107.049 103.438 107.049 103.393 107.04 103.34H107.049ZM107.181 109.989V109.944C107.181 109.944 107.181 109.971 107.181 109.989ZM107.181 109.847C107.181 109.741 107.181 109.635 107.181 109.529C107.181 109.238 107.19 108.947 107.19 108.647C107.19 108.647 107.19 108.647 107.19 108.655C107.207 109 107.19 109.291 107.172 109.838L107.181 109.847Z" fill="#FFF2E3"/>
<path d="M166.525 151.448C165.029 149.586 163.244 148.182 160.006 145.816C159.478 145.436 148.913 139.662 145.025 139.583C137.539 139.424 119.672 131.813 120.077 132.034C130.862 137.993 103.002 152.729 87.5106 151.016C82.4436 150.46 67.5855 150.292 54.5308 137.446C54.5308 137.446 54.5133 137.437 54.5133 137.428C53.5896 134.224 52.0589 136.387 51.0121 137.225C38.9339 146.875 23.6448 146.239 13.4491 158.97C6.42034 167.737 6.68425 176.593 0.948642 188.573C-0.995484 192.643 1.26533 192.078 3.04232 192.272C16.9063 193.764 38.2477 191.054 95.0848 188.052C137.24 185.827 176.377 191.557 177.099 191.822C180.864 193.191 182.051 192.272 182.113 191.478C182.491 186.543 180.996 183.382 179.623 178.676C177.231 170.457 168.407 153.011 166.841 151.766C166.718 151.669 166.613 151.554 166.516 151.431L166.525 151.448Z" fill="#DDC9B5"/>
<path d="M76.1626 63.7516C76.796 64.5727 75.4325 65.7999 74.0953 65.9588C73.3652 66.0471 70.2862 66.1265 68.5884 66.3826C67.3657 66.568 66.1165 66.5415 64.8849 66.6828C64.6474 66.7092 64.4539 67.0536 64.2251 67.2301C64.0228 67.3891 62.6153 69.1548 62.1843 69.455C61.3309 70.0288 59.3604 71.1766 58.9734 70.6822C57.8386 69.2343 60.2137 66.6474 60.6008 66.1442C61.7708 64.5992 63.451 64.3961 65.2544 64.0871C67.5064 63.6986 75.582 63.5309 76.1714 63.7604L76.1626 63.7516Z" fill="#1E0A05"/>
<path d="M76.2159 68.4399C76.8932 68.7136 76.9372 69.1109 76.99 69.9761C76.1455 69.7112 76.0663 69.5347 75.169 69.2433C75.6265 69.7377 76.1015 69.9849 75.9256 70.444C75.7496 70.9031 74.826 70.6294 74.3421 70.5676C74.0078 70.5235 74.1398 70.2321 73.8231 70.0467C73.4624 69.8348 73.1194 69.5258 72.7323 69.4552C72.6003 69.4287 72.3276 70.0026 72.1869 70.3293C71.5799 71.7772 71.2632 71.5388 70.0844 71.839C69.7589 71.9273 68.6153 72.1215 68.2634 71.9096C68.0611 71.786 67.9028 71.6006 67.8412 71.1327C67.762 71.1327 67.674 71.1415 67.5949 71.1503C67.5949 72.0332 65.6771 72.1833 65.6771 73.128C65.7035 73.1456 66.4865 74.4081 65.2109 73.9667C65.1493 73.949 65.0789 73.9137 65.0086 73.8872C63.3284 73.3487 63.6362 71.7772 64.4456 70.8413C65.4308 69.3581 66.8911 68.8902 68.5273 68.7401C68.1315 69.0491 64.6479 70.7707 65.0262 71.8919C67.4453 69.9938 68.1931 68.2015 74.694 68.9608C73.8759 68.7224 73.0314 68.4752 71.9845 68.1662C74.1838 67.663 74.1486 67.61 76.2071 68.4311L76.2159 68.4399Z" fill="#1E0A05"/>
<path d="M90.7569 66.2588C91.8213 65.8261 92.8593 65.2876 93.9589 64.9874C96.2813 64.3429 98.4982 64.5636 100.477 66.0204C100.434 66.1352 100.398 66.2411 100.354 66.3559C100.09 66.2146 99.7825 66.1087 99.5626 65.9144C98.375 64.8815 97.7152 64.9609 97.249 66.4177C96.9147 67.4683 96.0702 67.4683 95.3401 67.5389C94.5307 67.6184 93.5543 67.998 92.9297 66.9651C92.7714 66.7002 92.4283 66.453 92.138 66.4C91.9972 66.3735 91.6717 66.7973 91.6014 67.0622C91.3375 68.0951 90.5985 68.0598 89.6396 68.0245C90.0707 67.3535 90.4226 66.7973 90.7832 66.2411L90.7481 66.2676L90.7569 66.2588Z" fill="#1E0A05"/>
<path d="M79.541 85.4177C80.7638 83.802 83.5172 84.1728 84.8896 86.1416C84.3881 86.3359 80.1744 85.8238 79.541 85.4177Z" fill="#1E0A05"/>
<path d="M88.9102 84.041C89.2796 82.8933 90.9862 82.3901 92.2266 83.0611C91.9715 83.2906 89.3676 84.094 88.9102 84.041Z" fill="#1E0A05"/>
<path d="M99.0261 56.6621C102.255 56.6621 104.322 61.3148 103.02 60.9087C98.815 59.5932 90.5019 62.851 87.1678 62.7981C86.4905 60.0877 90.4579 59.6374 92.1645 58.9399C93.9591 58.2071 96.9324 57.3331 99.0173 56.6621H99.0261Z" fill="#1E0A05"/>
<path d="M90.7919 66.2334C90.5016 66.2952 90.2113 66.3658 89.7627 66.463C90.5368 64.9886 94.1876 62.8873 99.0259 63.5583C97.7679 63.5406 92.0323 64.4412 90.7567 66.2511L90.7919 66.2246V66.2334Z" fill="black"/>
<path d="M35.908 109.635C37.2012 109.511 38.1336 109.423 39.0661 109.326C39.0661 109.202 39.0837 109.087 39.0925 108.964C37.5355 108.734 35.9872 108.505 34.7556 108.328C33.8935 105.759 36.0752 104.938 36.6822 103.543C37.122 103.764 37.4827 103.94 38.0017 104.196C37.9577 104.346 37.8785 104.655 37.7818 105C37.8609 105.044 37.9577 105.15 38.0545 105.15C39.2685 105.106 39.8754 105.98 39.9722 106.898C40.0778 107.843 40.3417 108.275 41.2566 108.249C41.0278 109.335 39.2597 108.549 39.3212 109.9C40.1394 109.97 40.8783 110.032 41.8899 110.12C41.2126 110.791 40.8079 111.356 40.2625 111.71C38.9518 112.566 38.4151 110.871 37.3771 110.703C36.9637 110.632 36.6118 110.173 35.8992 109.635H35.908Z" fill="black"/>
<path d="M27.5162 99.1202C28.1232 98.6435 28.6598 98.2109 29.1964 97.7871C29.2668 97.8489 29.3372 97.9107 29.4163 97.9813C28.7302 99.9766 28.0352 101.981 27.2171 104.373C26.1791 103.34 25.3609 102.555 24.5868 101.725C24.4461 101.575 24.4549 101.177 24.5252 100.939C24.8947 99.7383 26.4254 98.8907 27.5162 99.1291V99.1202Z" fill="black"/>
<path d="M124.309 94.7578C125.391 96.2146 125.1 98.0156 123.526 99.6489C122.637 97.839 123.016 96.2675 124.309 94.7578Z" fill="black"/>
<path d="M44.5818 113.467C45.1976 114.429 45.7694 115.4 44.6258 116.707C44.5114 116.469 44.4059 116.23 44.2475 115.912C44.0628 116.221 43.9308 116.433 43.5526 117.06C43.1655 116.098 42.9016 115.427 42.6377 114.765C42.9808 114.668 43.3239 114.579 43.6669 114.482C43.6933 114.562 43.7109 114.632 43.7373 114.712C44.0276 114.306 44.3179 113.899 44.6082 113.493L44.573 113.467H44.5818Z" fill="black"/>
<path d="M122.057 91.6158C122.206 91.3686 122.435 90.989 122.672 90.6094C122.936 90.9449 123.341 91.2539 123.42 91.6335C123.552 92.278 123.508 92.9666 123.455 93.6288C123.438 93.823 123.112 94.1409 122.945 94.132C122.743 94.1232 122.453 93.8495 122.391 93.6288C122.233 93.0461 122.189 92.4457 122.057 91.6158Z" fill="black"/>
<path d="M127.009 96.0297C127.449 97.5041 126.807 98.6783 125.689 99.7378C126.006 98.4752 126.332 97.2039 126.648 95.9414L127 96.0297H127.009Z" fill="black"/>
<path d="M29.6358 92.2422C29.0376 92.8955 28.6769 93.284 28.2107 93.8049C27.9116 93.2752 27.674 92.8602 27.4365 92.4364C28.0523 92.3834 28.6681 92.3305 29.6358 92.2422Z" fill="black"/>
<path d="M51.5579 119.973C51.7514 120.096 51.9889 120.185 52.1297 120.343C52.6135 120.9 53.071 121.482 53.5372 122.056C53.4492 122.145 53.3525 122.233 53.2645 122.321C52.5959 121.65 51.9274 120.988 51.2588 120.317C51.3556 120.202 51.4523 120.087 51.5579 119.973Z" fill="black"/>
<path d="M127.722 97.9729V95.3066C128.672 96.2337 128.672 96.94 127.722 97.9729Z" fill="black"/>
<path d="M117.649 104.798C117.755 104.25 117.817 103.694 117.992 103.173C118.045 103.014 118.415 102.97 118.643 102.873C118.696 103.085 118.863 103.35 118.793 103.509C118.564 103.994 118.256 104.436 117.975 104.904C117.869 104.868 117.755 104.842 117.649 104.807V104.798Z" fill="black"/>
<path d="M125.074 90.75C125.179 91.5976 125.276 92.4363 125.382 93.2838C125.223 93.3103 125.065 93.3368 124.907 93.3633L124.581 90.8559C124.748 90.8206 124.907 90.7941 125.074 90.7588V90.75Z" fill="black"/>
<path d="M44.6172 113.485C44.9515 113.149 45.277 112.814 45.6113 112.479C45.8488 112.876 46.0951 113.273 46.3678 113.732C45.5673 113.609 45.0747 113.538 44.582 113.459L44.6172 113.485Z" fill="black"/>
<path d="M129.947 91.4388C129.719 90.1851 129.384 88.9579 129.041 87.51C128.795 86.3711 127.651 83.696 127.414 82.9985C127.088 82.0539 126.297 81.3476 125.857 80.4647C125.25 79.2287 119.215 61.995 119.796 61.9244C119.796 61.5359 119.831 61.1739 119.796 60.8208C119.628 59.3729 119.347 57.9426 119.277 56.4947C119.241 55.7001 117.623 52.9544 117.113 51.4976C116.831 50.7031 116.778 50.0321 116.294 49.0168C116.312 48.955 114.676 46.6065 114.218 45.5383C113.735 44.3993 113.092 43.3222 112.529 42.2275C112.565 42.2187 110.805 38.5812 110.515 36.9391C110.277 35.5971 108.465 35.0939 107.366 34.2287C106.371 33.4517 102.571 30.088 101.859 29.161C101.973 28.9491 99.7298 27.1657 99.6154 27.0774C98.8237 26.4329 98.1023 25.6207 97.1963 25.2499C96.5541 24.985 94.3548 22.098 92.6306 21.0915C89.886 19.3434 87.1589 19.1051 86.5344 19.0079C85.206 18.7961 76.4267 21.5065 75.4942 20.6501C75.2831 20.4559 72.4065 20.4823 72.0546 20.5795C71.2892 20.8002 70.2336 21.6301 69.8817 21.374C68.6062 20.4735 61.2343 25.7884 60.1787 26.6713C59.8708 26.9273 59.818 27.6424 59.5277 27.7219C58.3929 28.0486 58.0234 29.0992 57.3021 29.8055C56.6423 30.45 56.1937 31.1916 55.2964 31.7301C53.8009 32.6218 52.6397 34.0697 51.329 35.2881C51.2498 35.3587 51.153 35.4117 50.9859 35.5177C50.8539 35.1468 45.8749 39.2257 46.4907 39.1551C46.0948 39.6672 45.8485 39.9673 45.6198 40.2763C44.7225 41.4947 43.6844 42.6424 42.9895 43.9756C42.576 44.7613 42.0658 45.2999 41.4324 45.8473C39.9721 47.1098 38.6702 49.8378 38.8021 49.8908C38.3359 51.4005 38.072 53.0162 37.3594 54.3935C36.0927 56.8479 34.9491 59.3022 34.7731 62.1009C34.6851 63.4517 34.7467 64.8114 34.6676 66.1533C34.6412 66.6389 34.3773 67.1068 34.1925 67.6542C34.2189 67.6719 34.3949 67.8131 34.5972 67.9632C34.2629 68.334 33.9814 68.6519 33.8494 68.8019C34.1573 69.2169 34.6412 69.7025 34.5708 69.8172C34.2805 70.2852 33.0489 74.9997 35.2657 74.8584C35.0018 75.4941 34.4476 76.2887 34.3949 77.1098C34.3069 78.6725 33.0401 80.191 34.1573 81.8155C34.2277 81.9214 34.1837 82.1421 34.1309 82.2922C33.6207 83.7401 33.1985 85.2322 32.5387 86.6095C31.9493 87.8367 31.3511 89.2051 29.6445 89.2934C29.2662 89.3111 28.8968 89.364 28.5185 89.3993C28.4745 88.9667 26.3896 92.3393 26.6799 92.975C27.1374 93.9815 26.7063 94.7937 25.6507 94.9614C25.0965 95.0497 24.5599 95.2881 23.9529 95.4735C24.5071 96.7007 23.1611 98.7755 23.8737 98.5018V101.751C24.7358 102.775 25.9058 103.993 26.8471 105.371C27.5332 106.377 28.6592 107.207 28.5273 108.681C28.4217 109.944 29.451 111.065 30.7001 111.162C31.6678 111.242 32.6355 111.295 33.6119 111.356C33.6207 111.1 33.6383 110.862 33.6471 110.632C35.0986 111.321 36.5853 111.807 37.8169 112.654C39.1012 113.537 40.9046 113.899 41.3796 115.762C41.4412 115.983 41.7667 116.177 42.013 116.309C44.2122 117.448 45.7957 119.311 47.5375 120.989C49.4728 122.843 51.7864 124.14 54.3991 124.608C55.6483 124.838 56.6335 125.27 57.654 125.959C59.1231 126.948 60.7241 127.742 62.1228 128.546C62.7034 128.016 63.0553 127.681 63.416 127.363C63.8382 126.992 64.4276 126.003 64.63 125.544C65.58 123.452 65.8263 121.969 65.5888 119.682C65.4833 118.614 65.2194 114.173 65.2194 113.087C65.4481 113.157 63.4952 103.525 61.6566 100.056C58.0586 93.2663 58.4721 87.5718 57.0206 83.3075C56.5104 80.0056 55.3756 76.5536 56.4048 72.9514C56.1849 73.0574 56.1849 62.7631 56.6775 62.0568C56.8183 61.8537 56.6511 59.9379 56.9678 59.5583C56.7655 58.2075 56.9942 54.4464 57.5396 53.8019C58.2522 52.972 58.8064 51.9832 59.3254 51.0121C59.6773 50.3499 59.8708 49.5995 60.1083 48.8843C61.0056 46.1474 63.3192 44.7348 65.4745 43.2251C66.3893 42.5895 67.4714 42.1127 68.5358 41.7772C70.3128 41.221 71.5356 39.0933 73.7876 39.9055C73.8755 39.9408 74.0251 39.8437 74.1307 39.7908C75.4062 39.1109 76.6642 38.4046 77.9485 37.7337C78.274 37.5659 78.6787 37.3099 78.9778 37.3805C80.4557 37.7513 81.6433 37.2039 82.7165 36.4182C83.1563 36.6566 83.7369 37.2128 84.0448 37.0892C85.2148 36.6124 86.2968 35.9149 87.4053 35.3058C87.4316 35.5353 87.4844 35.8796 87.5372 36.3211C88.5753 36.4712 89.6045 36.8066 90.5898 36.7095C92.2964 36.5418 93.7127 37.098 95.1026 37.9367C95.2961 38.0515 95.5424 38.1928 95.736 38.1574C96.7564 37.972 97.4602 38.5812 98.076 39.1727C99.2987 40.3558 100.486 41.5918 101.56 42.9073C102.325 43.852 102.949 44.9291 103.53 46.0062C104.049 46.9509 104.419 47.975 104.858 48.9903C103.759 49.7584 104.656 50.6501 104.938 51.3564C105.852 53.643 107.401 55.6383 107.893 58.1368C108.36 60.5029 109.063 62.8249 109.512 65.1998C110.163 68.6519 110.216 69.2081 110.744 72.4129C110.788 72.7042 110.902 72.9868 111.087 73.2075C111.518 73.7195 111.342 74.3111 111.526 74.108C112.908 72.6336 112.591 69.3493 113.189 67.8749C113.427 67.2922 113.62 66.4888 114.526 65.7737C114.79 66.065 114.799 66.3122 114.79 66.5683C114.702 68.6342 115.951 76.8449 115.256 80.5353C114.658 83.7225 114.148 86.2034 111.447 86.6624C111.447 87.563 111.412 88.49 111.447 89.417C111.623 93.3281 111.474 97.1863 110.057 100.903C109.873 101.38 109.635 101.901 109.662 102.386C109.793 104.964 109.969 107.551 110.189 110.12C110.277 111.127 110.524 112.124 110.717 113.255C111.386 112.76 111.843 112.142 112.353 112.098C113.585 111.992 113.998 111.171 114.544 110.297C115.133 109.361 118.23 108.876 118.52 108.814C123.49 107.71 126.736 101.83 126.824 101.707C127.686 100.365 128.628 99.0491 129.252 97.6012C129.543 96.9302 129.991 93.7872 130.097 93.8137C130.044 93.0103 130.07 92.1892 129.93 91.4035L129.947 91.4388ZM59.211 93.8049C59.6245 93.9108 58.4985 94.9879 58.217 95.1822C57.7771 95.4823 57.1174 96.2151 56.352 96.1975C55.5867 96.1798 54.4167 95.8796 54.0472 95.3941C53.5018 94.6789 53.4842 92.7454 53.106 91.9244C52.6133 90.8384 51.0123 89.0197 50.4581 87.9603C49.5872 86.2916 48.0829 80.8002 48.0829 80.8002C48.0829 80.8002 47.2824 77.4894 47.6518 76.4653C47.819 76.0062 48.7779 75.3617 49.2705 75.3529C50.9947 75.3264 54.5223 79.5112 54.5223 79.5112C54.5223 79.5112 58.3753 93.5842 59.2022 93.7961L59.211 93.8049Z" fill="#1E0A05"/>
<path d="M58.8506 93.6011C59.9854 98.6334 61.9735 104.098 65.9497 107.586C69.8644 111.02 75.4504 113.377 80.4295 114.711C85.5317 116.079 91.0738 116.238 96.0881 114.437C101.102 112.636 104.894 108.937 108.201 104.99C112.406 99.9666 112.134 93.3362 112.53 87.1031C112.565 86.5646 111.729 86.5646 111.694 87.1031C111.465 90.7494 111.421 94.5811 110.691 98.1744C110.005 101.565 108.061 104.01 105.765 106.473C101.146 111.426 95.7538 114.719 88.8482 114.922C82.2065 115.117 75.8111 112.662 70.1107 109.413C67.3309 107.833 65.0524 105.899 63.3634 103.136C61.5425 100.161 60.4165 96.7706 59.6511 93.3804C59.5368 92.8595 58.7274 93.0802 58.8506 93.6011Z" fill="black"/>
<path d="M109.679 102.201C109.494 107.136 109.916 112.036 110.435 116.936C110.814 120.494 111.016 124.423 112.978 127.53C115.071 130.85 119.197 131.795 121.792 134.62C123.772 136.774 119.822 139.67 118.265 141.012C116.426 142.601 114.429 143.987 112.327 145.197C111.861 145.462 112.283 146.186 112.749 145.921C116.312 143.855 120.27 141.118 122.707 137.719C124.977 134.558 120.024 131.962 117.79 130.612C115.432 129.181 113.655 127.636 112.687 124.979C111.922 122.86 111.676 120.591 111.43 118.357C110.84 112.981 110.312 107.595 110.515 102.183C110.532 101.645 109.705 101.645 109.679 102.183V102.201Z" fill="black"/>
<path d="M62.6155 104.498C63.4424 108.4 64.0934 112.337 64.5068 116.302C64.9203 120.266 65.3513 124.168 62.5891 127.399C61.4279 128.759 60.0468 129.951 58.6041 131.001C57.3901 131.893 55.9298 132.493 54.7774 133.447C53.5195 134.489 53.0004 136.299 54.4607 137.385C54.8918 137.702 55.3052 136.978 54.883 136.661C52.6925 135.027 57.2582 132.926 58.261 132.255C59.3254 131.54 60.3459 130.745 61.3047 129.889C63.2665 128.123 64.9731 126.119 65.4833 123.453C66.0551 120.451 65.4833 117.176 65.105 114.183C64.6916 110.854 64.1198 107.552 63.4248 104.268C63.3104 103.738 62.5099 103.968 62.6243 104.489L62.6155 104.498Z" fill="black"/>
<mask id="mask0_5795_5375" style="mask-type:luminance" maskUnits="userSpaceOnUse" x="-12" y="130" width="219" height="69">
<path d="M207 130.506H-12V198.999H207V130.506Z" fill="white"/>
</mask>
<g mask="url(#mask0_5795_5375)">
<path d="M88.4257 151.534C85.8042 151.534 83.3763 151.34 81.1419 150.961C78.538 150.51 76.0044 150.042 73.6029 149.151C70.0665 147.844 66.5653 146.308 63.2049 144.586C59.6421 142.759 57.0646 140.825 55.1029 138.521C54.6015 137.929 53.9681 136.729 53.6162 135.89L54.3024 135.607C54.6279 136.402 55.2261 137.523 55.6659 138.035C57.566 140.269 60.0732 142.141 63.548 143.924C66.882 145.637 70.348 147.164 73.858 148.453C76.198 149.318 78.6963 149.786 81.265 150.228C86.2793 151.084 92.358 150.961 99.3252 149.848C104.243 149.062 109.829 146.582 112.362 145.24L112.705 145.893C110.137 147.261 104.454 149.778 99.4395 150.581C95.4721 151.217 91.795 151.526 88.4257 151.526V151.534Z" fill="black"/>
<path d="M0.983905 192.508C-0.0189467 191.758 1.77563 188.244 2.12751 187.344C2.76968 185.666 3.48224 184.015 4.1772 182.355C5.58471 179 6.85147 175.645 7.66079 172.088C8.46131 168.583 9.53454 165.413 11.6282 162.455C13.4932 159.824 15.8244 157.547 18.2787 155.472C21.1729 153.026 24.0935 151.066 27.6211 149.671C30.7264 148.444 33.8229 147.243 36.8579 145.857C43.0421 143.041 48.9449 139.651 54.2582 135.387C54.6805 135.051 54.0823 134.459 53.6688 134.795C48.9361 138.6 43.6931 141.69 38.2214 144.304C35.3976 145.654 32.521 146.873 29.6092 148.012C26.9613 149.045 24.3134 149.998 21.9382 151.587C17.7861 154.368 13.8099 157.935 10.8981 162.032C7.51124 166.799 7.08019 172.388 5.10967 177.747C3.90449 181.013 2.4266 184.174 1.19503 187.423C0.632027 188.924 -1.13616 191.934 0.561651 193.215C0.992702 193.541 1.40616 192.809 0.983905 192.491V192.508Z" fill="black"/>
<path d="M119.734 132.183C132.19 139.246 147.567 138.566 159.795 146.079C167.088 150.564 170.941 157.874 174.257 165.52C176.202 170.005 178.084 174.534 179.676 179.16C180.406 181.27 181.066 183.407 181.656 185.561C182.131 187.309 183.503 191.008 181.321 192.05C180.275 192.553 179.069 191.918 177.961 191.662C176.853 191.406 175.683 191.15 174.53 190.929C172.313 190.496 170.079 190.152 167.836 189.852C163.12 189.225 158.379 188.837 153.637 188.492C143.75 187.777 133.835 187.424 123.913 187.344C104.295 187.186 84.6869 188.104 65.1225 189.366C54.0999 190.081 43.0861 190.902 32.0636 191.706C21.5336 192.474 10.2647 194.328 -0.0716816 191.362C-0.590702 191.211 -0.810625 192.024 -0.291605 192.165C9.12993 194.867 19.1497 193.48 28.7559 192.783C39.1627 192.024 49.5607 191.238 59.9675 190.54C80.5172 189.154 101.102 188.086 121.704 188.166C131.988 188.201 142.272 188.528 152.529 189.251C157.737 189.613 162.945 190.037 168.117 190.735C170.651 191.079 173.167 191.494 175.665 192.015C176.809 192.253 177.952 192.518 179.078 192.809C179.791 192.995 180.574 193.366 181.321 193.207C184.004 192.659 183.239 188.475 182.79 186.709C181.585 181.915 179.94 177.244 178.11 172.662C174.97 164.778 171.838 155.958 165.786 149.796C153.743 137.506 134.407 139.563 120.13 131.467C119.664 131.203 119.241 131.927 119.708 132.191L119.734 132.183Z" fill="black"/>
</g>
<path d="M91.5572 100.408C89.2964 101.115 87.1323 101.185 84.7924 100.885C82.4612 100.585 80.5698 99.3048 78.6697 98.007C78.2298 97.7068 77.8076 98.4308 78.2474 98.731C80.1652 100.046 82.1093 101.344 84.4493 101.68C86.974 102.042 89.3316 101.98 91.7771 101.212C92.2874 101.053 92.0674 100.241 91.5572 100.408Z" fill="#1E0A05"/>
<path d="M91.5314 101.291C93.4315 100.7 95.1117 99.6493 96.3697 98.0778C97.8124 96.2679 98.4458 93.8841 99.2639 91.7476C99.4574 91.2443 98.6481 91.0236 98.4634 91.5269C96.9679 95.4468 95.6747 99.1196 91.3202 100.479C90.81 100.638 91.0299 101.45 91.5402 101.283L91.5314 101.291Z" fill="#1E0A05"/>
<path d="M79.9629 95.4207L82.989 94.5025L86.675 93.7079L92.78 92.7368L96.29 92.207L96.809 92.9663L96.2021 93.6726L94.2491 95.094L92.7185 95.6679L91.2582 95.9328L87.4579 97.2041L82.2149 97.4513L79.9629 96.6391V95.4207Z" fill="white"/>
<path d="M95.024 94.185C96.4403 93.4433 96.4051 93.5316 96.2907 92.2073C96.2467 91.6864 98.4372 91.1214 98.7978 91.501C98.9122 91.6246 98.8682 92.3662 98.7715 92.4369C97.8038 93.1255 92.9303 96.3568 91.1797 95.933C94.285 94.9177 94.0915 94.6705 95.024 94.1761V94.185Z" fill="#1E0A05"/>
<path d="M78.4328 96.3044C79.8228 95.81 81.2127 95.2626 82.6378 94.8918C84.2828 94.4592 85.919 94.5651 87.5817 94.3267C89.1299 94.106 90.5638 93.5057 92.0769 93.1613C93.7835 92.7641 95.5693 92.7287 97.3023 92.4992C97.8301 92.4286 97.8301 91.5898 97.3023 91.6605C95.8244 91.8547 94.3201 91.9165 92.8422 92.1549C91.1972 92.4286 89.6665 93.0907 88.0303 93.4086C86.3677 93.7352 84.6611 93.5498 83.0073 93.9294C81.3534 94.3091 79.7876 94.9448 78.2041 95.501C77.7027 95.6775 77.9138 96.4898 78.424 96.3044H78.4328Z" fill="#1E0A05"/>
<path d="M80.5707 99.4371C79.1983 98.3424 76.5592 96.3912 76.5592 96.3912C76.5592 96.3912 81.6087 97.9627 81.943 97.9539C84.1158 97.8568 86.06 97.9009 88.5055 97.1681C89.9922 96.7267 92.165 95.9851 93.423 95.4289C93.7133 95.2611 93.9156 95.1022 93.986 94.961C90.7927 96.1705 86.2975 97.0445 84.4677 97.0092C82.2333 96.9739 80.9313 97.327 80.7378 96.6207C80.8082 96.453 80.5443 94.908 80.6146 94.7402C80.078 94.7932 79.5326 94.8197 78.996 94.908C78.521 94.9786 78.0635 95.111 77.5885 95.2082C76.8495 95.3671 75.8027 94.8815 75.486 95.9409C75.1781 96.9651 76.3041 97.0887 76.8407 97.5389C77.914 98.4395 78.7849 99.4018 81.5911 100.62C81.6879 100.382 81.0457 99.9404 80.5531 99.4459L80.5707 99.4371Z" fill="#1E0A05"/>
<path d="M80.5882 80.9513C80.0252 80.4039 78.9608 80.607 78.3978 81.0043C77.5621 81.587 76.9463 82.7524 76.6384 83.697C76.3305 84.6417 76.1985 85.6129 77.043 86.3015C78.0723 87.1491 79.7789 87.7053 81.0896 87.5022C81.4591 87.4404 81.336 86.9107 81.0105 86.8842C80.034 86.8047 78.7321 86.6635 77.9227 86.019C76.7791 85.1096 77.0606 84.165 77.6324 83.079C78.0283 82.3286 78.433 81.4898 79.3127 81.2603C79.6997 81.1632 80.2451 81.3574 80.5706 81.119C80.6234 81.0749 80.6498 81.0043 80.597 80.9425L80.5882 80.9513Z" fill="#1E0A05"/>
<path d="M90.4403 79.6084C91.0561 79.8645 91.6895 79.6084 92.3053 79.9881C92.9211 80.3677 93.7216 81.1005 93.9503 81.8598C94.4606 83.5196 90.7658 84.7997 89.6838 85.2941C89.3319 85.4531 89.5782 86.0446 89.9477 85.921C91.3728 85.4177 92.7715 84.6408 93.9503 83.6873C94.5133 83.237 94.9004 82.4601 94.6629 81.7273C94.2406 80.4295 91.7599 78.1341 90.4403 79.582C90.4315 79.5908 90.4403 79.6084 90.4403 79.6084Z" fill="#1E0A05"/>
<path d="M79.3828 65.5706C79.8051 68.4576 80.2801 71.3269 80.3945 74.2492C80.4384 75.4146 80.4648 76.5889 80.4033 77.7543C80.3593 78.5488 80.4824 80.0144 79.9634 80.6677C79.6907 81.012 80.1481 81.4976 80.456 81.1621C80.8343 80.7472 80.9311 80.3499 80.9927 79.8025C81.1422 78.3546 81.1686 76.8802 81.1334 75.4235C81.0366 72.0862 80.544 68.7136 79.6995 65.4823C79.6467 65.2793 79.3652 65.3676 79.3916 65.5706H79.3828Z" fill="#1E0A05"/>
</g>
</g>
<defs>
<clipPath id="clip0_5795_5375">
<rect width="163" height="163" rx="81.5" fill="white"/>
</clipPath>
<clipPath id="clip1_5795_5375">
<rect width="219" height="180" fill="white" transform="translate(-12 19)"/>
</clipPath>
</defs>
</svg>
