<svg width="163" height="163" viewBox="0 0 163 163" fill="none" xmlns="http://www.w3.org/2000/svg">
<g clip-path="url(#clip0_5795_5530)">
<circle cx="81.5" cy="81.5" r="81.5" fill="#FFDEB5"/>
<g clip-path="url(#clip1_5795_5530)">
<path d="M46.6727 140.945C47.1885 140.658 46.5374 140.86 46.0047 141.122C36.9992 145.695 26.0321 147.214 19.149 154.598C13.7204 160.428 12.0293 168.698 10.5664 176.52H153.808V174.9C154.535 174.748 154.594 173.744 154.476 173.01C153.638 167.719 152.759 162.302 150.146 157.618C146.4 150.902 139.551 146.505 132.626 143.139C125.701 139.772 118.344 137.105 112.154 132.523" fill="#91D2C9"/>
<path d="M154.281 177H10L10.1015 176.444C11.4459 169.296 13.1117 160.394 18.8025 154.285C23.4278 149.315 29.9472 146.935 36.2552 144.623C39.46 143.45 42.7662 142.244 45.7934 140.708C46.8081 140.193 47.1125 140.278 47.2816 140.59C47.4338 140.877 47.307 141.138 46.9011 141.358L46.8588 141.282C46.7489 141.316 46.4783 141.417 46.2246 141.543C43.1552 143.104 39.8151 144.328 36.585 145.501C30.0994 147.872 23.969 150.117 19.4959 154.918C14.1349 160.673 12.4353 169.119 11.1331 176.055H153.334V174.52L153.706 174.444C154.07 174.368 154.087 173.591 154.002 173.094C153.182 167.896 152.328 162.529 149.732 157.863C145.716 150.648 137.928 146.26 132.415 143.577C130.563 142.674 128.652 141.813 126.8 140.978C121.71 138.683 116.442 136.303 111.867 132.92L112.425 132.16C116.915 135.476 122.132 137.839 127.18 140.117C129.041 140.953 130.96 141.822 132.82 142.725C144.557 148.429 148.557 153.829 150.544 157.399C153.224 162.208 154.129 167.913 154.924 172.942C155.101 174.047 154.848 174.874 154.256 175.22V176.992L154.281 177ZM46.4614 140.565C46.3937 140.674 46.3599 140.835 46.4276 140.995C46.5206 141.197 46.7151 141.273 46.8504 141.273L46.4529 140.565H46.4614Z" fill="#190602"/>
<path d="M62.8074 120.633C58.0806 127.071 52.7957 132.809 48.0689 139.247C47.6715 139.787 47.2741 140.336 47.1303 140.986C47.0035 141.543 47.0796 142.116 47.1557 142.682C47.7814 147.424 48.4156 152.166 49.0413 156.908C52.1446 152.765 55.2479 148.622 58.3512 144.479C58.8332 143.838 59.3405 143.171 60.0593 142.808C62.1478 141.77 64.4055 143.795 65.7838 145.669C70.5191 152.115 74.4679 159.33 76.9201 166.941" fill="#6DD5C8"/>
<path d="M62.7221 120.549C60.3291 123.081 58.249 125.992 56.0251 128.675C53.8012 131.358 51.5858 134.008 49.4634 136.75C48.5586 137.923 47.2226 139.24 46.7998 140.691C46.3517 142.218 46.9351 144.125 47.1465 145.661C47.6454 149.408 48.1359 153.154 48.6347 156.901C48.6855 157.314 49.1421 157.449 49.4042 157.112C51.941 153.719 54.4862 150.336 57.0229 146.944C58.1475 145.442 59.5681 142.488 61.8596 143.011C63.7114 143.433 65.0136 145.273 66.0368 146.716C70.5183 153.002 73.926 159.786 76.4966 167.052C76.6911 167.592 77.5367 167.372 77.3675 166.815C76.133 162.681 74.2812 158.69 72.218 154.901C71.1525 152.952 70.0025 151.045 68.7765 149.197C67.6941 147.56 66.6202 145.847 65.2927 144.395C64.2864 143.29 62.9081 142.151 61.3354 142.117C59.6273 142.083 58.6464 143.417 57.7163 144.648C54.706 148.665 51.6957 152.682 48.6939 156.707L49.4634 156.918C48.9983 153.399 48.5333 149.88 48.0598 146.361C47.9414 145.442 47.8145 144.522 47.6962 143.611C47.5778 142.699 47.3326 141.695 47.6539 140.784C48.2035 139.197 49.7425 137.679 50.7656 136.362C52.8288 133.704 54.9681 131.114 57.0821 128.498C59.0946 126.009 61.3438 123.486 62.9166 120.701C62.9758 120.591 62.8236 120.465 62.7306 120.558L62.7221 120.549Z" fill="#190602"/>
<path d="M91.2422 150.808C95.1826 148.285 100.062 147.458 104.712 147.947C109.363 148.436 113.819 150.175 117.912 152.436C115.028 145.331 113.041 137.872 112.001 130.278C111.824 128.995 111.671 127.687 111.147 126.506C109.608 123.004 107.207 123.417 104.577 120.633" fill="#6DD5C8"/>
<path d="M91.2933 150.901C99.766 146.082 109.575 148.445 117.667 152.833C117.988 153.01 118.513 152.706 118.352 152.31C115.824 146.091 113.98 139.619 112.864 132.995C112.391 130.185 112.424 126.962 110.564 124.633C109.076 122.759 106.598 121.983 104.89 120.312C104.476 119.899 103.85 120.532 104.248 120.954C105.837 122.633 108.213 123.325 109.71 125.046C111.748 127.4 111.613 131.197 112.137 134.109C113.27 140.42 115.071 146.606 117.456 152.554L118.14 152.031C110.014 147.559 99.4193 145.087 91.1834 150.715C91.065 150.791 91.1665 150.976 91.2933 150.909V150.901Z" fill="#190602"/>
<path d="M103.039 100.796C101.407 106.306 97.6184 113.014 93.103 116.583C91.4457 117.891 89.6446 119.925 87.6406 120.6C84.9262 121.511 81.7976 122.439 78.948 122.212C76.8679 122.043 74.3396 121.579 72.6231 120.389C69.0547 117.917 66.4165 114.128 62.6875 111.807L62.9665 112.195C62.7551 117.503 62.5522 122.87 63.5162 128.093C64.218 131.873 65.5202 135.51 66.8139 139.13C68.8349 144.775 70.8558 150.42 72.8767 156.065C74.9738 161.921 77.0877 167.811 80.2333 173.169C81.8906 167.491 83.5902 161.736 86.6512 156.673C89.7122 151.61 94.3629 147.222 100.113 145.762C100.705 145.61 101.347 145.475 101.779 145.037C102.108 144.708 102.269 144.252 102.421 143.813C103.977 139.299 105.203 134.666 106.074 129.966C106.472 127.823 106.784 125.536 105.914 123.536C105.305 122.136 104.172 121.022 103.478 119.655C102.531 117.782 102.497 115.596 102.523 113.495C102.565 109.251 102.734 105.015 103.039 100.787" fill="#FFF2E3"/>
<path d="M102.844 100.736C101.846 103.917 100.392 106.946 98.5992 109.748C96.8065 112.549 94.4981 114.886 91.936 117.123C90.6592 118.236 89.4077 119.494 87.818 120.143C86.0508 120.869 84.0721 121.375 82.1949 121.679C78.4406 122.278 74.4748 121.51 71.5237 119.072C68.5557 116.616 66.1543 113.553 62.8903 111.461C62.5606 111.25 62.0955 111.68 62.3323 112.017C62.7297 112.574 62.5014 113.351 62.476 114.026C62.4337 115.165 62.3915 116.304 62.3745 117.452C62.3407 119.654 62.3661 121.856 62.5437 124.05C62.8819 128.202 63.922 132.185 65.2664 136.117C68.0822 144.336 71.0248 152.537 74.052 160.68C75.6755 165.051 77.4766 169.363 79.8273 173.405C80.0303 173.751 80.563 173.675 80.6729 173.295C83.5817 163.347 87.243 151.635 97.6183 147.103C98.8106 146.58 100.121 146.394 101.297 145.888C102.184 145.5 102.548 144.808 102.869 143.947C103.901 141.154 104.687 138.243 105.398 135.357C106.049 132.682 106.793 129.881 106.92 127.122C106.979 125.932 106.869 124.734 106.438 123.62C105.981 122.43 105.161 121.477 104.468 120.422C102.666 117.688 102.962 114.363 103.022 111.233C103.089 107.748 103.292 104.271 103.444 100.795C103.47 100.263 102.675 100.28 102.624 100.795C102.337 103.816 102.21 106.845 102.125 109.874C102.049 112.524 101.795 115.351 102.387 117.958C102.979 120.565 105.152 122.16 105.787 124.632C106.497 127.426 105.516 130.632 104.907 133.374C104.256 136.286 103.461 139.171 102.54 142.015C102.303 142.741 102.108 143.585 101.762 144.26C101.364 145.027 100.569 145.179 99.8084 145.39C98.6668 145.694 97.5591 146.116 96.4937 146.631C92.3842 148.622 89.061 152.04 86.6258 155.854C83.2773 161.102 81.51 167.161 79.7766 173.076L80.6222 172.966C76.3604 165.625 73.8237 157.406 70.9656 149.457C69.469 145.289 67.9469 141.129 66.4841 136.952C65.0297 132.826 63.812 128.666 63.4146 124.295C63.1948 121.873 63.1694 119.443 63.2032 117.013C63.2201 115.798 63.2624 114.583 63.3047 113.359C63.3301 112.617 63.4315 112.212 63.0172 111.629L62.4591 112.186C65.7822 114.296 68.1921 117.452 71.2531 119.882C73.9674 122.042 77.5527 122.886 81.0027 122.582C84.4865 122.278 88.1816 121.249 90.8706 118.97C93.5595 116.692 96.0455 114.498 98.0411 111.638C100.333 108.364 102.091 104.693 103.216 100.862C103.292 100.609 102.903 100.508 102.819 100.753L102.844 100.736Z" fill="#291510"/>
<path d="M118.235 64.8571C118.158 64.0976 118.108 63.2538 117.753 62.621C117.118 61.4987 116.975 60.3595 117.118 59.1444C117.347 57.2121 117.626 55.2882 117.837 53.3559C118.15 50.5629 118.37 47.7698 117.541 45.0106C117.482 44.8165 117.474 44.614 117.423 44.4199C117.11 43.2892 116.949 42.091 116.442 41.0531C115.292 38.7157 113.998 36.4459 112.696 34.2013C112.239 33.425 111.58 32.7584 110.979 32.0749C110.472 31.4927 109.931 30.9442 109.39 30.3957C108.367 29.3663 107.445 28.2018 105.898 27.8896C105.627 27.839 105.365 27.6786 105.12 27.5352C102.684 26.0838 100.241 24.6409 97.8222 23.1558C96.4947 22.3457 95.2686 21.4007 94.4399 20.0084H93.5774C88.0135 20.0084 82.4496 20.0084 76.8772 20.0084C74.7886 20.0084 72.6916 19.9493 70.6284 20.405C69.7067 20.6075 68.7681 20.7594 67.8295 20.8859C65.7409 21.1559 63.7623 21.8648 61.7498 22.4385C61.5892 22.4892 61.4285 22.5651 61.2847 22.6579C59.1454 23.9321 57.0484 25.2738 55.1289 26.877C53.9451 27.8643 52.6345 28.6996 51.383 29.611C50.9687 29.9147 50.5543 30.2269 50.1738 30.5645C48.7448 31.8302 47.7216 33.425 46.6224 34.9692C44.8636 37.4416 43.5868 40.1502 42.4791 42.9517C41.921 44.3608 41.7265 45.8122 41.7941 47.3226C41.8618 48.8077 41.828 50.3013 41.8195 51.7864C41.811 54.0562 42.1324 56.2839 42.7327 58.4778C43.054 59.6339 43.3923 60.7899 43.6121 61.9712C44.0096 64.0554 44.3901 66.1312 45.1934 68.1142C45.5316 68.9327 45.7768 69.7934 46.0389 70.6372C46.4617 72.0042 46.8 73.3796 46.9099 74.8141C44.8974 76.0629 46.7831 81.8599 47.2904 83.1088C49.1422 87.6569 52.5499 91.2769 55.8899 94.7787C55.9914 94.88 56.1013 94.9306 56.2113 94.9475C56.4734 96.3313 56.7355 97.7152 56.9723 99.099C57.5896 102.643 58.3421 105.875 60.4138 108.879C62.384 111.731 64.6163 114.499 67.2376 116.777C68.9711 118.279 70.7722 119.967 72.7085 121.207C74.7887 122.54 77.207 122.979 79.6507 123.021C82.1452 123.063 84.6988 123.021 87.0242 122.009C88.9944 121.156 90.4911 119.637 92.1315 118.304C94.8458 116.102 97.205 113.748 99.3358 110.971C101.813 107.74 103.327 104.66 104.08 100.652C104.443 98.7446 104.815 96.846 105.196 94.939C105.348 94.9643 105.509 94.9222 105.644 94.7787C108.984 91.2769 112.392 87.6569 114.243 83.1088C114.7 81.9865 116.239 77.2864 115.157 75.3879C115.85 73.7677 117.042 72.0379 117.541 70.3756C117.575 70.2659 117.558 70.1478 117.575 70.0381C117.685 69.4221 117.753 68.7892 117.913 68.1901C118.201 67.1016 118.353 65.9962 118.235 64.8739V64.8571Z" fill="#291510"/>
<path d="M49.3714 85.0668C48.4497 83.4636 47.6971 81.7506 47.2744 79.9449C47.0799 79.1179 46.9108 78.2488 46.9361 77.3881C46.9446 77.0506 47.0122 76.7637 47.1052 76.5021C47.1644 76.8396 47.0714 75.7933 47.6802 75.4727C48.196 75.6245 48.5681 75.9621 48.9063 76.249C49.4898 76.7468 49.7265 76.9409 50.0309 77.1097C50.4284 77.329 50.699 77.4809 51.0456 77.7172C51.5614 78.08 52.5761 80.7465 52.6776 81.5481C52.8721 83.1092 53.1258 84.6534 53.557 86.1722C53.5824 86.2566 53.5739 86.341 53.5908 86.4254C53.7177 87.4633 54.521 89.1509 54.8423 89.2099C54.9438 89.2268 55.0283 89.2184 55.0875 89.1931C55.3412 90.501 55.5949 91.8005 55.8485 93.1084C53.464 90.6191 51.1048 88.0539 49.3714 85.0584V85.0668Z" fill="#FFF2E3"/>
<path d="M56.0169 93.4287L55.7802 93.184C53.3449 90.6441 51.0195 88.1211 49.2861 85.1171C48.2799 83.3704 47.5696 81.6322 47.1806 79.9614C46.9861 79.1345 46.817 78.2485 46.8424 77.3794C46.8508 77.0672 46.91 76.7718 47.0115 76.468L47.0707 76.2993C47.1214 76.0208 47.2567 75.582 47.6372 75.388L47.671 75.3711H47.7133C48.2038 75.523 48.5674 75.8352 48.8887 76.1052L48.9732 76.1812C49.5482 76.6621 49.785 76.8646 50.0894 77.0334L50.1148 77.0503C50.4953 77.2612 50.7743 77.4131 51.1126 77.6494C51.6706 78.046 52.6853 80.7462 52.7868 81.5478C52.9475 82.822 53.1927 84.5012 53.6662 86.155C53.6831 86.2141 53.6916 86.2816 53.6916 86.3407C53.6916 86.366 53.6916 86.3997 53.6916 86.4251C53.8269 87.5051 54.6386 89.0831 54.8669 89.1253C54.943 89.1337 55.0107 89.1337 55.0614 89.1168L55.1713 89.0746L56.0169 93.4371V93.4287ZM49.4637 85.0159C51.1379 87.9017 53.3618 90.3572 55.6956 92.8043L55.0191 89.3193C54.9599 89.3193 54.9007 89.3193 54.8331 89.3193C54.4103 89.2518 53.6155 87.4292 53.4971 86.4504C53.4971 86.4166 53.4971 86.3829 53.4971 86.3491C53.4971 86.2985 53.4971 86.2479 53.4802 86.2057C53.0066 84.5433 52.753 82.8557 52.5923 81.5731C52.4908 80.7546 51.4762 78.1472 51.0026 77.8097C50.6729 77.5819 50.4192 77.4384 50.0218 77.219L49.9964 77.2022C49.6835 77.025 49.4383 76.8225 48.8549 76.333L48.7703 76.2571C48.4743 76.004 48.1361 75.7171 47.7049 75.582C47.3497 75.793 47.2821 76.2993 47.2483 76.5018C47.2398 76.5777 47.2313 76.6453 47.1721 76.6621C47.096 76.9068 47.0622 77.1347 47.0538 77.3878C47.0284 78.2316 47.1975 79.1008 47.3835 79.9192C47.7641 81.5731 48.4659 83.2861 49.4721 85.0159H49.4637Z" fill="#FFF2E3"/>
<path d="M103.311 97.3773C102.669 100.786 102.212 104.229 100.335 107.233C97.2907 112.093 93.0121 116.296 88.3783 119.671C86.239 121.223 83.8037 121.671 81.1909 121.696C78.781 121.713 76.3034 121.679 74.1134 120.548C72.3208 119.629 70.8748 118.127 69.3105 116.886C66.5285 114.692 64.2032 112.085 62.0977 109.25C59.6963 106.01 58.69 102.727 57.9374 98.8118C57.2018 94.9893 56.39 91.1753 55.3415 87.4203C55.3331 87.1587 55.3161 86.8971 55.2992 86.6355C55.2739 86.2643 55.147 85.9099 55.1217 85.5386C54.9948 83.3109 54.8595 81.0832 54.8003 78.8556C54.775 77.9189 54.8934 76.9739 55.0033 76.0457C55.0963 75.2525 55.3669 74.4677 55.3838 73.6746C55.4768 69.9871 55.5952 66.2912 55.0202 62.6206C54.9018 61.8949 55.0287 61.2705 55.3753 60.6461C56.0518 59.4225 56.7029 58.1821 57.354 56.9417C57.7599 56.1654 57.8022 55.3638 57.5062 54.5369C57.2102 53.7352 57.0242 52.8999 56.5507 52.1573C56.2294 51.651 56.3816 51.2207 56.9058 51.0519C57.5062 50.8494 57.7514 50.4275 57.9374 49.8959C58.3349 48.7905 58.8422 47.7357 59.6878 46.8835C60.1275 46.4363 60.5587 45.9722 60.9308 45.4574C61.9032 44.1158 63.2815 43.7023 64.8289 43.6854C65.6238 43.6854 66.351 43.5588 67.0443 43.1454C67.7715 42.715 68.6171 42.5294 69.4458 42.6813C70.3421 42.8416 71.213 43.1623 72.1094 43.3479C72.4476 43.4154 72.8957 43.4407 73.1663 43.2719C73.7752 42.9007 74.1641 43.061 74.6968 43.4407C75.3987 43.9301 76.0075 44.6642 77.0306 44.5714C77.2082 44.5545 77.4788 44.8246 77.5803 45.0271C77.8339 45.4996 80.9626 49.6765 86.0022 52.9252C86.7971 53.4399 87.4228 54.0728 88.336 54.3006C89.6382 54.6212 90.7798 55.2541 91.8537 56.0473C92.3779 56.4354 92.9614 56.7561 93.5448 57.0514C94.3904 57.4733 95.2444 57.8868 96.1238 58.2159C97.2062 58.6209 97.9926 59.3635 98.5506 60.3086C99.2017 61.4139 99.726 62.5953 100.673 63.5066C100.749 63.5825 100.791 63.7007 100.825 63.8104C102.339 65.3546 105.366 67.9704 106.33 68.9661C109.247 71.9954 106.406 78.8303 106.609 80.1466L106.372 85.9605C106.135 85.9267 105.882 86.0364 105.797 86.3486C104.783 89.977 104.013 93.6645 103.311 97.3689V97.3773Z" fill="#FFF2E3"/>
<path d="M80.5564 121.798C78.1888 121.798 76.041 121.654 74.0708 120.633C72.8025 119.983 71.6948 119.03 70.6293 118.11C70.1812 117.722 69.7161 117.325 69.251 116.963C66.7481 114.988 64.3805 112.482 62.0213 109.309C59.5945 106.044 58.5967 102.761 57.8442 98.8374C56.9563 94.2133 56.153 90.703 55.2482 87.4543C55.2313 87.1674 55.2229 86.9059 55.2059 86.6443C55.1975 86.4755 55.1552 86.3067 55.1214 86.1211C55.0791 85.9355 55.0453 85.7414 55.0284 85.5473L54.9692 84.4588C54.8677 82.6277 54.7578 80.7291 54.7071 78.8643C54.6817 77.9699 54.7832 77.067 54.8931 76.1894L54.91 76.0375C54.9523 75.7 55.0199 75.3625 55.0876 75.0334C55.1806 74.5862 55.2821 74.1221 55.2905 73.6748V73.2192C55.392 69.7427 55.4765 66.148 54.9269 62.6462C54.8085 61.9205 54.9269 61.2708 55.2905 60.6042C55.9839 59.3469 56.6434 58.0812 57.2692 56.8998C57.6666 56.1488 57.7089 55.3894 57.4129 54.5793C57.3368 54.3684 57.2692 54.1574 57.2015 53.9465C57.007 53.3642 56.8126 52.7567 56.4659 52.2251C56.2883 51.9466 56.2376 51.6766 56.3221 51.4488C56.3982 51.2294 56.5927 51.0606 56.8717 50.9678C57.4129 50.7906 57.6497 50.4109 57.8442 49.8709C58.1824 48.9427 58.6813 47.7613 59.6114 46.8163C59.975 46.445 60.4485 45.9471 60.846 45.4071C61.7254 44.1836 62.9937 43.6098 64.8286 43.5929C65.725 43.5929 66.393 43.4241 66.9933 43.0613C67.7713 42.5972 68.6253 42.4369 69.4624 42.5887C69.9613 42.6816 70.4517 42.8166 70.9337 42.9516C71.3227 43.0613 71.7286 43.171 72.126 43.2554C72.4473 43.3229 72.8701 43.3397 73.1153 43.1963C73.7411 42.8081 74.1638 42.9516 74.7558 43.3735C74.908 43.4832 75.0602 43.6013 75.2039 43.7195C75.7197 44.1329 76.2609 44.5548 77.0219 44.4873C77.2587 44.462 77.5546 44.7742 77.673 45.002C77.9013 45.4408 80.9877 49.5924 86.0612 52.8664C86.2895 53.0183 86.5093 53.1786 86.7207 53.3305C87.245 53.7102 87.7354 54.0731 88.3611 54.2334C89.5619 54.5287 90.6865 55.0941 91.9126 55.9969C92.3607 56.326 92.8934 56.6382 93.5953 56.9926C94.3986 57.3977 95.2611 57.8111 96.1658 58.1487C97.2059 58.5368 98.043 59.2541 98.6434 60.2835C98.7956 60.5367 98.9309 60.7982 99.0746 61.0514C99.5397 61.8952 100.022 62.7728 100.74 63.4647C100.833 63.5491 100.876 63.6757 100.91 63.7853C101.721 64.6123 102.981 65.7599 104.089 66.764C105.044 67.6331 105.949 68.4601 106.397 68.9242C108.562 71.1772 107.607 75.5144 107.032 78.1049C106.82 79.0668 106.651 79.8263 106.702 80.1638L106.465 86.1042L106.355 86.0873C106.177 86.062 105.966 86.1295 105.89 86.3996C104.791 90.3233 103.987 94.3483 103.412 97.4113C103.336 97.7995 103.269 98.1876 103.201 98.5758C102.66 101.546 102.102 104.626 100.428 107.301C97.6118 111.798 93.4684 116.102 88.4457 119.764C86.5431 121.148 84.3108 121.781 81.2075 121.806C80.9961 121.806 80.7763 121.806 80.5733 121.806L80.5564 121.798ZM68.8536 42.7322C68.2532 42.7322 67.6444 42.901 67.0863 43.23C66.4522 43.6098 65.7503 43.7785 64.8202 43.787C63.0529 43.8038 61.8438 44.3523 60.9982 45.5168C60.6007 46.0653 60.1188 46.5715 59.7467 46.9513C58.8419 47.871 58.3515 49.027 58.0217 49.9299C57.8103 50.5122 57.5398 50.9425 56.9225 51.145C56.7026 51.221 56.5589 51.3391 56.4997 51.4994C56.4405 51.6682 56.4828 51.8791 56.6265 52.107C56.9817 52.6639 57.1846 53.2799 57.3791 53.879C57.4467 54.0899 57.5144 54.3009 57.5905 54.5034C57.9033 55.3641 57.8526 56.1995 57.4383 56.9842C56.8126 58.1655 56.153 59.4313 55.4596 60.6886C55.1214 61.313 55.0115 61.9205 55.1129 62.604C55.671 66.1312 55.578 69.7258 55.4934 73.2107V73.6664C55.4681 74.1389 55.3751 74.6115 55.2736 75.0671C55.206 75.3878 55.1383 75.7253 55.096 76.046L55.0791 76.1978C54.9776 77.067 54.8762 77.9699 54.9015 78.8474C54.9523 80.7123 55.0622 82.6024 55.1637 84.4335L55.2229 85.522C55.2313 85.6992 55.2736 85.8848 55.3074 86.0705C55.3412 86.2477 55.3835 86.4333 55.392 86.6189C55.4089 86.8805 55.4258 87.1421 55.4343 87.4121C56.339 90.6439 57.1423 94.1542 58.0302 98.7868C58.7828 102.685 59.7721 105.951 62.1735 109.183C64.5242 112.338 66.8749 114.836 69.3694 116.802C69.8429 117.173 70.308 117.57 70.7562 117.958C71.8131 118.87 72.9124 119.815 74.1638 120.456C76.2693 121.544 78.5947 121.612 81.1991 121.595C84.2601 121.57 86.4586 120.954 88.3273 119.595C93.3331 115.95 97.4596 111.655 100.258 107.183C101.916 104.542 102.465 101.487 103.007 98.5336C103.074 98.1455 103.15 97.7573 103.218 97.3691C103.793 94.3061 104.596 90.2811 105.704 86.3405C105.789 86.0536 106.008 85.8764 106.279 85.8764L106.507 80.1638C106.448 79.8094 106.617 79.0753 106.837 78.0542C107.404 75.4975 108.342 71.2278 106.254 69.0592C105.814 68.6035 104.909 67.7766 103.954 66.9075C102.837 65.8864 101.561 64.7304 100.749 63.9035L100.724 63.8697C100.69 63.76 100.656 63.6588 100.597 63.6081C99.8526 62.8909 99.3621 62.0049 98.8886 61.1526C98.7449 60.8995 98.6096 60.6379 98.4574 60.3848C97.8739 59.3975 97.0791 58.7056 96.0813 58.3343C95.168 57.9968 94.3056 57.5749 93.4938 57.1698C92.7835 56.8154 92.2423 56.4948 91.7857 56.1573C90.585 55.2713 89.4773 54.7228 88.3019 54.4275C87.6339 54.2587 87.1266 53.8874 86.5854 53.4908C86.374 53.3389 86.1626 53.1786 85.9343 53.0352C80.827 49.7358 77.7153 45.5421 77.4785 45.0949C77.3771 44.8924 77.1403 44.673 77.0219 44.6898C76.1848 44.7658 75.6182 44.3101 75.0686 43.8713C74.9249 43.7532 74.7811 43.6351 74.6289 43.5338C74.0793 43.1541 73.7495 43.036 73.1999 43.3651C72.8363 43.5844 72.2444 43.4832 72.0668 43.4494C71.6609 43.3651 71.2551 43.2469 70.8576 43.1372C70.3841 43.0022 69.8937 42.8672 69.4117 42.7828C69.2257 42.7491 69.0312 42.7322 68.8451 42.7322H68.8536Z" fill="#FFF2E3"/>
<path d="M114.312 79.6477C113.915 81.5631 113.128 83.3773 112.156 85.065C110.389 88.1196 107.97 90.727 105.535 93.2668C105.975 91.0645 106.423 88.8621 106.863 86.6513C106.897 86.4994 106.863 86.3729 106.804 86.2632C107.759 84.238 108.207 81.8669 109.306 79.9515C109.518 79.5886 110.947 76.939 111.336 76.7956C113.619 75.9349 113.433 75.9349 114.355 76.264C114.448 76.4834 114.524 76.7196 114.549 76.9897C114.651 77.8841 114.498 78.7701 114.321 79.6477H114.312Z" fill="#FFF2E3"/>
<path d="M105.365 93.5796L105.703 91.9173C106.059 90.1537 106.414 88.3986 106.76 86.635C106.786 86.5169 106.76 86.4072 106.71 86.3143L106.684 86.2721L106.71 86.23C107.124 85.3524 107.454 84.382 107.767 83.4538C108.173 82.2472 108.595 80.9983 109.221 79.9098C109.246 79.8676 109.289 79.7832 109.348 79.682C110.456 77.699 111.039 76.813 111.301 76.7117L111.868 76.4923C113.491 75.8764 113.517 75.8595 114.286 76.1464L114.43 76.197L114.447 76.2392C114.557 76.5092 114.624 76.7455 114.65 76.9902C114.76 77.9353 114.591 78.8719 114.421 79.682C114.058 81.4371 113.322 83.2682 112.248 85.1246C110.506 88.1454 108.113 90.7359 105.61 93.3433L105.374 93.588L105.365 93.5796ZM106.913 86.2637C106.972 86.3903 106.989 86.5337 106.955 86.6772C106.608 88.4407 106.253 90.1959 105.898 91.9595L105.695 92.9552C108.105 90.4406 110.388 87.926 112.071 85.0233C113.136 83.1838 113.855 81.3696 114.218 79.6398C114.388 78.8466 114.548 77.9268 114.447 77.0071C114.421 76.7961 114.371 76.5852 114.278 76.3489L114.218 76.3236C113.756 76.1548 112.998 76.2701 111.944 76.6695L111.377 76.8889C111.242 76.9396 110.802 77.488 109.534 79.7663C109.475 79.876 109.432 79.952 109.407 80.0026C108.79 81.0743 108.375 82.3147 107.97 83.5129C107.657 84.4326 107.335 85.3861 106.93 86.2637H106.913Z" fill="#FFF2E3"/>
<path d="M76.8594 90.6016C77.4682 90.6016 78.4575 91.2091 78.6689 91.7154C78.7789 91.9854 78.6689 92.1964 78.3392 92.2554C77.8403 92.3398 76.0476 92.3145 75.9123 91.9179C75.9123 91.901 75.8954 91.8757 75.887 91.8588C75.4219 90.9307 75.6756 90.61 76.8594 90.61V90.6016Z" fill="#291510"/>
<path d="M84.4032 90.375C83.8621 90.375 82.9742 91.0163 82.7882 91.5479C82.6867 91.8264 82.7882 92.0542 83.0841 92.1133C83.5238 92.1976 85.2657 91.7167 85.2742 91.6913C85.6885 90.7125 85.4687 90.375 84.4032 90.375Z" fill="#291510"/>
<path d="M74.8146 86.5774C71.7367 87.2356 71.9481 91.3871 74.6624 92.3828C75.0176 92.5094 75.1698 91.9525 74.8146 91.8175C72.2779 90.8555 72.7092 87.8431 74.933 86.8643C75.1021 86.7883 74.9753 86.5436 74.8146 86.5774Z" fill="#291510"/>
<path d="M86.4746 86.3995C88.69 87.3783 89.1297 90.3991 86.5929 91.3526C86.2463 91.4876 86.39 92.0446 86.7451 91.918C89.4595 90.9223 89.6709 86.7707 86.5929 86.1126C86.4323 86.0788 86.297 86.3235 86.4746 86.3995Z" fill="#291510"/>
<path d="M88.2086 67.9706C86.9149 68.6119 85.562 69.4388 84.6826 70.6033C83.5241 72.139 83.448 74.0292 83.5579 75.8771C83.7102 78.3495 84.2175 80.7713 84.3359 83.2521C84.4289 85.2604 84.9954 87.2433 84.5726 89.2347C84.5304 89.4372 84.8179 89.5891 84.9278 89.3866C85.5789 88.0956 85.2914 86.7877 85.0969 85.4207C84.7671 83.0917 84.6741 80.7375 84.3359 78.4086C84.0146 76.1894 83.4988 73.4723 84.6487 71.4049C85.4943 69.8861 86.9825 69.1773 88.3439 68.2153C88.4877 68.1141 88.3608 67.9031 88.2086 67.979V67.9706Z" fill="#291510"/>
<path d="M77.5533 91.1332C78.4666 92.4496 80.2085 92.8884 81.7221 92.4664C83.464 91.9855 84.6393 90.4919 85.2312 88.8634C85.3581 88.509 84.7915 88.3571 84.6647 88.7115C83.65 91.5298 80.2592 93.3946 77.8324 90.9223C77.6971 90.7788 77.435 90.9645 77.5533 91.1417V91.1332Z" fill="#291510"/>
<path d="M60.2434 70.7892C62.4081 68.7725 65.3761 68.5109 68.2088 68.6628C69.5786 68.7387 71.0499 68.8737 72.2676 69.5657C73.4852 70.2576 74.1194 71.4136 75.2948 72.0296C75.5822 72.1815 75.9712 71.9283 75.8697 71.5908C75.2186 69.38 72.7157 67.9034 70.6694 67.1692C68.065 66.2326 64.911 66.0807 62.1798 66.4098C61.1989 66.5279 60.4379 66.9414 59.9221 67.7937C59.4824 68.5193 59.085 69.8441 59.4148 70.6879C60.2519 72.789 62.9662 68.5615 63.482 67.8443C63.7019 67.5405 63.2368 67.9624 62.9239 68.0384C62.1798 68.2071 61.4357 68.3759 60.7 68.5362L61.089 69.2028C61.7316 68.5278 62.4673 68.2156 63.3974 68.2662L63.1269 67.608C62.5941 68.224 61.9684 68.494 61.1567 68.3928L61.4864 68.9666C61.7739 68.5025 62.1883 68.2746 62.7294 68.2662L62.4589 67.6249C62.0361 68.0299 61.5372 68.1734 60.9706 68.0552L61.1313 68.6797C61.6133 68.1649 62.1375 67.9371 62.8309 67.9793L62.5688 67.3464C61.7655 68.1143 60.8945 68.7134 59.8714 69.1438L60.1504 69.8019C62.8647 68.2071 65.8919 67.5574 69.0206 67.9118V67.1017C65.5368 66.7642 61.6471 66.8064 59.6262 70.1563C59.3979 70.536 59.8376 70.8567 60.1842 70.7132C64.5982 68.8147 70.6018 66.6629 74.4745 70.6373C74.6775 70.8483 75.4892 70.8736 75.3624 70.5867C74.39 68.3843 72.6396 67.2367 70.7033 66.8064C68.082 66.2326 65.021 65.6166 62.5265 66.9161C62.0276 67.1777 62.4673 67.9371 62.9662 67.6755C64.8434 66.6798 67.1687 66.992 69.1728 67.3549C70.6694 67.6249 73.8657 68.5446 74.3646 70.2323L75.058 70.0466C70.8724 65.7854 63.0677 67.3211 59.7784 70.0044L60.3364 70.5614C62.1967 67.5068 65.8834 67.6249 69.029 67.9118C69.5533 67.9624 69.5448 67.1524 69.029 67.1017C65.782 66.7811 62.6026 67.5405 59.7868 69.1691C59.4486 69.3716 59.6769 69.996 60.0659 69.8272C61.2158 69.3547 62.1967 68.7134 63.093 67.8527C63.3383 67.6249 63.1353 67.2367 62.8309 67.2199C61.9346 67.1692 61.2158 67.4899 60.607 68.1312C60.4295 68.3168 60.4802 68.705 60.7677 68.7556C61.6386 68.899 62.3151 68.6965 62.9916 68.1396C63.2452 67.9287 63.0338 67.4814 62.721 67.4983C61.8839 67.5405 61.3089 67.8949 60.8184 68.5615C60.6324 68.8231 60.8945 69.1016 61.1482 69.1353C62.1544 69.2619 63 68.8822 63.6596 68.1312C63.8879 67.8696 63.7272 67.4899 63.389 67.473C62.2475 67.3971 61.3089 67.8021 60.5225 68.6206C60.235 68.9159 60.5225 69.3716 60.9114 69.2872C61.6555 69.1269 62.3997 68.9581 63.1438 68.7978L62.6872 68.1987C62.2052 68.8653 61.664 69.4982 61.0298 70.0298C59.8037 71.0592 60.4971 69.0678 60.8522 68.4771C61.7824 66.9498 64.6574 67.0849 66.2301 67.1524C67.9974 67.2367 69.7731 67.5321 71.3797 68.2831C72.8426 68.9666 74.6352 70.1563 75.1256 71.768L75.7006 71.3292C74.297 70.612 73.5021 69.2113 71.9885 68.5953C70.6863 68.0721 69.2489 67.9709 67.8536 67.9877C65.0379 68.0384 62.1206 68.4771 60.0659 70.5698C59.9475 70.6879 60.1251 70.8736 60.2519 70.7554L60.2434 70.7892Z" fill="#291510"/>
<path d="M102.118 70.6129C99.7586 68.2164 96.0719 67.8536 92.8672 68.073C91.1591 68.1911 89.8738 68.7227 88.4786 69.6762C87.3455 70.4525 85.9672 70.8322 84.7073 71.3638L85.24 71.8954C85.4683 71.4145 86.5253 71.2541 86.9819 71.0601C87.5146 70.8238 87.7683 70.5285 88.1911 70.115C89.5779 68.7396 91.4128 67.9126 93.3153 67.5161C95.3616 67.0857 97.7123 67.0098 99.7925 67.246C100.782 67.3557 101.433 67.8198 101.771 68.7565C101.889 69.0687 102.118 69.7353 102.008 70.0222C101.67 70.9251 100.942 69.9041 100.613 69.5665C100.198 69.1531 99.8347 68.7058 99.488 68.2333L99.0314 68.824C99.7755 68.9843 100.52 69.1531 101.264 69.3134C101.644 69.3978 101.94 68.9421 101.653 68.6468C100.866 67.8283 99.9277 67.4232 98.7862 67.4992C98.4395 67.5245 98.2873 67.9042 98.5156 68.1574C99.1752 68.9083 100.029 69.2796 101.027 69.1615C101.281 69.1277 101.543 68.8493 101.357 68.5877C100.875 67.9211 100.291 67.5582 99.4542 67.5161C99.1414 67.4992 98.9384 67.9464 99.1836 68.1574C99.8601 68.7227 100.537 68.9168 101.408 68.7733C101.703 68.7227 101.746 68.3346 101.577 68.1489C100.968 67.5076 100.249 67.187 99.3527 67.2376C99.0483 67.2545 98.8454 67.6342 99.0906 67.8705C99.9869 68.7227 100.976 69.364 102.118 69.845C102.507 70.0053 102.744 69.3809 102.397 69.1784C99.5811 67.5414 96.4101 66.8073 93.1546 67.1195C92.6558 67.1701 92.6558 67.7861 93.1546 67.9042C100.765 69.7268 99.9785 67.5076 101.847 70.5707L102.405 70.0137C100.596 69.2459 98.7439 68.6046 96.8329 68.1574C95.3362 67.803 93.6535 67.3895 92.1061 67.592C89.7301 67.9042 87.058 69.3556 85.3838 71.0516L86.0856 71.3385C85.9926 70.6129 87.7514 69.8112 88.2334 69.3724C89.0536 68.6299 89.3242 68.1658 90.4065 67.9126C93.1208 67.2798 96.5877 66.2841 99.209 67.6764C99.7079 67.938 100.156 67.1785 99.6487 66.9169C96.63 65.339 92.5374 66.4191 89.451 67.2798C88.3179 67.592 87.5231 68.2502 86.6944 69.0518C86.1363 69.5918 84.572 70.7057 84.6904 71.5832C84.7327 71.9123 85.6797 71.9039 85.9588 71.6254C87.5146 70.0306 90.1021 68.5877 92.3429 68.3514C93.8903 68.1827 95.5646 68.6468 97.0443 69.0265C98.7355 69.4568 100.384 70.0306 101.983 70.7225C102.329 70.8744 102.777 70.5453 102.541 70.1656C100.52 66.8157 96.6215 66.7651 93.1377 67.1279V67.9126C96.2664 67.5498 99.302 68.2164 102.008 69.8112L102.287 69.1446C101.264 68.7143 100.393 68.1236 99.5895 67.3473L99.3274 67.9802C100.021 67.9464 100.545 68.1742 101.027 68.6805L101.196 68.0561C100.63 68.1658 100.131 68.0223 99.7079 67.6258L99.4373 68.2671C99.9785 68.2671 100.393 68.5033 100.68 68.9674L101.01 68.3936C100.19 68.4864 99.5726 68.2164 99.0399 67.6089L98.7693 68.2671C99.7079 68.2164 100.435 68.5371 101.078 69.2037L101.467 68.5371C100.723 68.3683 99.9785 68.1995 99.2344 68.0392C98.9215 67.9717 98.5579 68.3261 98.7778 68.6299C99.3189 69.3893 102.473 73.0937 102.828 70.3006C102.963 69.2543 102.532 67.9295 101.788 67.187C100.824 66.2335 99.3443 66.3516 98.0928 66.3263C95.1249 66.2672 92.03 66.571 89.4426 68.1405C88.4279 68.7565 87.6668 69.8787 86.6183 70.3597C85.9926 70.6466 84.8849 70.8069 84.5636 71.4989C84.386 71.8701 84.7327 72.1908 85.0963 72.0305C86.1702 71.5748 87.2948 71.1866 88.3264 70.6213C88.8845 70.3091 89.3495 69.8703 89.8992 69.5581C90.6179 69.1615 91.4212 68.9505 92.2245 68.824C95.4715 68.2924 99.395 68.4358 101.923 70.7901C102.05 70.9082 102.228 70.7225 102.109 70.6044L102.118 70.6129Z" fill="#291510"/>
<path d="M74.3904 99.8157C75.7857 99.9929 78.2463 99.9001 78.7114 99.9085C79.8444 99.9338 82.0429 100.153 83.176 99.9507C86.4484 99.36 87.3532 99.2925 88.6892 99.2925C90.9131 99.1153 90.8539 98.5837 91.3359 98.0521C91.4881 97.8834 91.8517 97.5458 92.2153 97.5037C92.3844 97.4783 93.12 97.4446 93.3061 97.4699C94.2447 97.6302 94.2362 98.1956 93.6274 98.7356C92.841 99.4276 92.0292 99.8241 90.9384 100.263C89.9829 100.651 88.5454 100.643 87.1333 100.837C85.9833 100.997 83.1337 101.081 81.9415 101.115C80.2249 101.166 75.5066 101.157 73.6294 100.82C69.4861 100.069 67.7949 98.6175 68.3023 98.2547C68.3023 98.2547 68.7166 97.7906 69.4861 98.2547C69.6129 98.3306 71.2787 99.4191 74.382 99.8073L74.3904 99.8157Z" fill="#291510"/>
<path d="M77.6293 104.475L77.401 104.332L77.012 104.635C79.7517 106.939 84.656 106.365 87.3534 104.349C87.7762 104.028 87.3957 103.319 86.9222 103.623C85.4255 104.568 83.8443 105.167 82.0601 105.235C80.2844 105.302 78.8976 104.745 77.2488 104.222C76.9782 104.138 76.8091 104.543 77.0543 104.678C77.3249 104.829 77.3333 104.838 77.6293 104.737C77.7477 104.703 77.773 104.5 77.6293 104.475Z" fill="#291510"/>
<path d="M104.578 120.633C104.578 120.633 102.151 128.801 100.097 134.606C98.7607 138.387 91.9453 148.411 91.9453 148.411L90.5078 150.909C90.5078 150.909 92.664 149.542 94.1015 149.01C95.2177 148.588 100.596 146.985 100.596 146.985L106.481 146.445L109.195 128.742L109.322 125.417L106.794 122.869L104.587 120.633H104.578Z" fill="#6DD5C8"/>
<path d="M88.0716 155.153L87.3105 154.689L91.5638 147.728C91.6399 147.61 98.3792 137.686 99.6814 134.007C101.702 128.278 104.129 120.135 104.154 120.051L105.009 120.304C104.983 120.388 102.548 128.548 100.519 134.303C99.1825 138.092 92.5954 147.804 92.3164 148.209L88.08 155.153H88.0716Z" fill="#291510"/>
<path d="M100.451 73.3284C100.231 72.9487 99.0813 72.0627 98.9207 71.8686C98.6839 71.5902 97.1365 70.6535 96.6799 70.4848C95.0648 69.8857 92.1898 69.5397 89.9829 70.4173C89.5601 70.586 88.9344 70.9995 88.723 71.2104C88.3425 71.5817 87.9281 71.9361 87.5138 72.2737C86.5752 73.0415 86.3976 74.1132 86.2454 75.1932C86.1862 75.6236 86.3638 75.7839 86.8035 75.8514C87.7928 75.9949 87.9112 75.1257 88.5369 74.3747C88.7483 74.1216 89.391 73.1259 89.6447 72.9065C90.0336 72.569 90.2957 73.5816 90.6509 73.9697C90.7524 74.0794 91.0568 74.5351 91.1667 74.6448C91.9615 75.3873 92.7733 76.0708 94.0163 75.9021C94.5067 75.8345 94.8873 75.6152 95.2847 75.3704C96.088 74.881 97.035 73.0753 97.8468 74.0878C98.0328 74.3157 98.2865 75.1932 98.9122 75.3704C99.8677 75.6405 100.028 75.3198 100.502 74.265C100.62 74.0035 100.595 73.5816 100.451 73.3369V73.3284ZM92.4943 74.4422C92.2237 74.4422 90.7693 73.5647 90.7693 73.185C90.7693 72.8053 91.5388 72.2146 91.8093 72.2146C92.0799 72.2146 92.0715 72.8559 92.0715 73.2272C92.0715 73.5984 92.7648 74.4422 92.4943 74.4422Z" fill="#291510"/>
<path d="M73.7404 74.0977C73.5374 73.7517 72.472 72.9248 72.3282 72.756C72.1084 72.4944 70.6878 71.6337 70.2566 71.4818C68.7599 70.9334 66.1132 70.6127 64.0754 71.4143C63.6864 71.5662 63.1114 71.9544 62.9085 72.1484C62.5533 72.4944 62.1728 72.8151 61.7923 73.1273C60.9298 73.8361 60.7607 74.8318 60.617 75.819C60.5578 76.2156 60.7269 76.3675 61.1328 76.4266C62.046 76.5616 61.5048 75.49 62.0798 74.798C62.2743 74.5618 62.0798 74.182 62.9846 73.6082C64.1599 73.1441 64.346 74.3339 64.6757 74.6883C64.7688 74.7896 65.0478 75.2115 65.1493 75.3043C65.8849 75.9878 66.4176 76.4266 67.5676 76.2747C68.0242 76.2156 68.5908 76.1987 68.9544 75.9794C69.6985 75.5237 70.5272 73.507 71.2713 74.4436C71.4404 74.6546 71.99 75.9119 72.2437 75.9287C73.1569 75.9962 73.3345 75.9287 73.7657 74.9583C73.8757 74.7136 73.8503 74.3255 73.715 74.0977H73.7404ZM66.0456 73.8023C65.7327 73.8023 65.2254 73.1441 65.2254 72.7897C65.2254 72.4353 65.6904 71.8615 66.0033 71.8615C66.3162 71.8615 66.1132 72.6463 66.1132 73.0091C66.1132 73.372 66.3584 73.8023 66.0456 73.8023ZM66.9503 75.7684C66.6459 75.7684 66.4599 75.7009 66.4599 75.3971C66.4599 75.0934 66.7136 75.3971 67.018 75.3971C67.3224 75.3971 67.7875 75.1946 67.7875 75.5068C67.7875 75.819 67.2548 75.7684 66.9503 75.7684Z" fill="#291510"/>
</g>
</g>
<defs>
<clipPath id="clip0_5795_5530">
<rect width="163" height="163" rx="81.5" fill="white"/>
</clipPath>
<clipPath id="clip1_5795_5530">
<rect width="145" height="157" fill="white" transform="translate(10 20)"/>
</clipPath>
</defs>
</svg>
