<svg fill="none" height="163" viewBox="0 0 163 163" width="163" xmlns="http://www.w3.org/2000/svg" xmlns:xlink="http://www.w3.org/1999/xlink"><clipPath id="a"><rect height="163" rx="81.5" width="163"/></clipPath><clipPath id="b"><path d="m10 20h145v157h-145z"/></clipPath><g clip-path="url(#a)"><circle cx="81.5" cy="81.5" fill="#ffdeb5" r="81.5"/><g clip-path="url(#b)"><path d="m46.6727 140.945c.5158-.287-.1353-.085-.668.177-9.0055 4.573-19.9726 6.092-26.8557 13.476-5.4286 5.83-7.1197 14.1-8.5826 21.922h143.2416v-1.62c.727-.152.786-1.156.668-1.89-.838-5.291-1.717-10.708-4.33-15.392-3.746-6.716-10.595-11.113-17.52-14.479-6.925-3.367-14.282-6.034-20.472-10.616" fill="#91d2c9"/><path d="m154.281 177h-144.281l.1015-.556c1.3444-7.148 3.0102-16.05 8.701-22.159 4.6253-4.97 11.1447-7.35 17.4527-9.662 3.2048-1.173 6.511-2.379 9.5382-3.915 1.0147-.515 1.3191-.43 1.4882-.118.1522.287.0254.548-.3805.768l-.0423-.076c-.1099.034-.3805.135-.6342.261-3.0694 1.561-6.4095 2.785-9.6396 3.958-6.4856 2.371-12.616 4.616-17.0891 9.417-5.361 5.755-7.0606 14.201-8.3628 21.137h142.2009v-1.535l.372-.076c.364-.076.381-.853.296-1.35-.82-5.198-1.674-10.565-4.27-15.231-4.016-7.215-11.804-11.603-17.317-14.286-1.852-.903-3.763-1.764-5.615-2.599-5.09-2.295-10.358-4.675-14.933-8.058l.558-.76c4.49 3.316 9.707 5.679 14.755 7.957 1.861.836 3.78 1.705 5.64 2.608 11.737 5.704 15.737 11.104 17.724 14.674 2.68 4.809 3.585 10.514 4.38 15.543.177 1.105-.076 1.932-.668 2.278v1.772zm-107.8196-36.435c-.0677.109-.1015.27-.0338.43.093.202.2875.278.4228.278l-.3975-.708z" fill="#190602"/><path d="m62.8074 120.633c-4.7268 6.438-10.0117 12.176-14.7385 18.614-.3974.54-.7948 1.089-.9386 1.739-.1268.557-.0507 1.13.0254 1.696.6257 4.742 1.2599 9.484 1.8856 14.226 3.1033-4.143 6.2066-8.286 9.3099-12.429.482-.641.9893-1.308 1.7081-1.671 2.0885-1.038 4.3462.987 5.7245 2.861 4.7353 6.446 8.6841 13.661 11.1363 21.272" fill="#6dd5c8"/><path d="m62.7221 120.549c-2.393 2.532-4.4731 5.443-6.697 8.126s-4.4393 5.333-6.5617 8.075c-.9048 1.173-2.2408 2.49-2.6636 3.941-.4481 1.527.1353 3.434.3467 4.97.4989 3.747.9894 7.493 1.4882 11.24.0508.413.5074.548.7695.211 2.5368-3.393 5.082-6.776 7.6187-10.168 1.1246-1.502 2.5452-4.456 4.8367-3.933 1.8518.422 3.154 2.262 4.1772 3.705 4.4815 6.286 7.8892 13.07 10.4598 20.336.1945.54 1.0401.32.8709-.237-1.2345-4.134-3.0863-8.125-5.1495-11.914-1.0655-1.949-2.2155-3.856-3.4415-5.704-1.0824-1.637-2.1563-3.35-3.4838-4.802-1.0063-1.105-2.3846-2.244-3.9573-2.278-1.7081-.034-2.689 1.3-3.6191 2.531-3.0103 4.017-6.0206 8.034-9.0224 12.059l.7695.211c-.4651-3.519-.9301-7.038-1.4036-10.557-.1184-.919-.2453-1.839-.3636-2.75-.1184-.912-.3636-1.916-.0423-2.827.5496-1.587 2.0886-3.105 3.1117-4.422 2.0632-2.658 4.2025-5.248 6.3165-7.864 2.0125-2.489 4.2617-5.012 5.8345-7.797.0592-.11-.093-.236-.186-.143z" fill="#190602"/><path d="m91.2422 150.808c3.9404-2.523 8.8198-3.35 13.4698-2.861 4.651.489 9.107 2.228 13.2 4.489-2.884-7.105-4.871-14.564-5.911-22.158-.177-1.283-.33-2.591-.854-3.772-1.539-3.502-3.94-3.089-6.57-5.873" fill="#6dd5c8"/><path d="m91.2933 150.901c8.4727-4.819 18.2817-2.456 26.3737 1.932.321.177.846-.127.685-.523-2.528-6.219-4.372-12.691-5.488-19.315-.473-2.81-.44-6.033-2.3-8.362-1.488-1.874-3.966-2.65-5.674-4.321-.414-.413-1.04.22-.642.642 1.589 1.679 3.965 2.371 5.462 4.092 2.038 2.354 1.903 6.151 2.427 9.063 1.133 6.311 2.934 12.497 5.319 18.445l.684-.523c-8.126-4.472-18.7207-6.944-26.9566-1.316-.1184.076-.0169.261.1099.194z" fill="#190602"/><path d="m103.039 100.796c-1.632 5.51-5.4206 12.218-9.936 15.787-1.6573 1.308-3.4584 3.342-5.4624 4.017-2.7144.911-5.843 1.839-8.6926 1.612-2.0801-.169-4.6084-.633-6.3249-1.823-3.5684-2.472-6.2066-6.261-9.9356-8.582l.279.388c-.2114 5.308-.4143 10.675.5497 15.898.7018 3.78 2.004 7.417 3.2977 11.037 2.021 5.645 4.0419 11.29 6.0628 16.935 2.0971 5.856 4.211 11.746 7.3566 17.104 1.6573-5.678 3.3569-11.433 6.4179-16.496s7.7117-9.451 13.4618-10.911c.592-.152 1.234-.287 1.666-.725.329-.329.49-.785.642-1.224 1.556-4.514 2.782-9.147 3.653-13.847.398-2.143.71-4.43-.16-6.43-.609-1.4-1.742-2.514-2.436-3.881-.947-1.873-.981-4.059-.955-6.16.042-4.244.211-8.48.516-12.708" fill="#fff2e3"/><path d="m102.844 100.736c-.998 3.181-2.452 6.21-4.2448 9.012-1.7927 2.801-4.1011 5.138-6.6632 7.375-1.2768 1.113-2.5283 2.371-4.118 3.02-1.7672.726-3.7459 1.232-5.6231 1.536-3.7543.599-7.7201-.169-10.6712-2.607-2.968-2.456-5.3694-5.519-8.6334-7.611-.3297-.211-.7948.219-.558.556.3974.557.1691 1.334.1437 2.009-.0423 1.139-.0845 2.278-.1015 3.426-.0338 2.202-.0084 4.404.1692 6.598.3382 4.152 1.3783 8.135 2.7227 12.067 2.8158 8.219 5.7584 16.42 8.7856 24.563 1.6235 4.371 3.4246 8.683 5.7753 12.725.203.346.7357.27.8456-.11 2.9088-9.948 6.5701-21.66 16.9454-26.192 1.1923-.523 2.5027-.709 3.6787-1.215.887-.388 1.251-1.08 1.572-1.941 1.032-2.793 1.818-5.704 2.529-8.59.651-2.675 1.395-5.476 1.522-8.235.059-1.19-.051-2.388-.482-3.502-.457-1.19-1.277-2.143-1.97-3.198-1.802-2.734-1.506-6.059-1.446-9.189.067-3.485.27-6.962.422-10.438.026-.532-.769-.515-.82 0-.287 3.021-.414 6.05-.499 9.079-.076 2.65-.33 5.477.262 8.084s2.765 4.202 3.4 6.674c.71 2.794-.271 6-.88 8.742-.651 2.912-1.446 5.797-2.367 8.641-.237.726-.432 1.57-.778 2.245-.398.767-1.193.919-1.9536 1.13-1.1416.304-2.2493.726-3.3147 1.241-4.1095 1.991-7.4327 5.409-9.8679 9.223-3.3485 5.248-5.1158 11.307-6.8492 17.222l.8456-.11c-4.2618-7.341-6.7985-15.56-9.6566-23.509-1.4966-4.168-3.0187-8.328-4.4815-12.505-1.4544-4.126-2.6721-8.286-3.0695-12.657-.2198-2.422-.2452-4.852-.2114-7.282.0169-1.215.0592-2.43.1015-3.654.0254-.742.1268-1.147-.2875-1.73l-.5581.557c3.3231 2.11 5.733 5.266 8.794 7.696 2.7143 2.16 6.2996 3.004 9.7496 2.7 3.4838-.304 7.1789-1.333 9.8679-3.612 2.6889-2.278 5.1749-4.472 7.1705-7.332 2.2919-3.274 4.0499-6.945 5.1749-10.776.076-.253-.313-.354-.397-.109z" fill="#291510"/><path d="m118.235 64.8571c-.077-.7595-.127-1.6033-.482-2.2361-.635-1.1223-.778-2.2615-.635-3.4766.229-1.9323.508-3.8562.719-5.7885.313-2.793.533-5.5861-.296-8.3453-.059-.1941-.067-.3966-.118-.5907-.313-1.1307-.474-2.3289-.981-3.3668-1.15-2.3374-2.444-4.6072-3.746-6.8518-.457-.7763-1.116-1.4429-1.717-2.1264-.507-.5822-1.048-1.1307-1.589-1.6792-1.023-1.0294-1.945-2.1939-3.492-2.5061-.271-.0506-.533-.211-.778-.3544-2.436-1.4514-4.879-2.8943-7.2978-4.3794-1.3275-.8101-2.5536-1.7551-3.3823-3.1474h-.8625c-5.5639 0-11.1278 0-16.7002 0-2.0886 0-4.1856-.0591-6.2488.3966-.9217.2025-1.8603.3544-2.7989.4809-2.0886.27-4.0672.9789-6.0797 1.5526-.1606.0507-.3213.1266-.4651.2194-2.1393 1.2742-4.2363 2.6159-6.1558 4.2191-1.1838.9873-2.4944 1.8226-3.7459 2.734-.4143.3037-.8287.6159-1.2092.9535-1.429 1.2657-2.4522 2.8605-3.5514 4.4047-1.7588 2.4724-3.0356 5.181-4.1433 7.9825-.5581 1.4091-.7526 2.8605-.685 4.3709.0677 1.4851.0339 2.9787.0254 4.4638-.0085 2.2698.3129 4.4975.9132 6.6914.3213 1.1561.6596 2.3121.8794 3.4934.3975 2.0842.778 4.16 1.5813 6.143.3382.8185.5834 1.6792.8455 2.523.4228 1.367.7611 2.7424.871 4.1769-2.0125 1.2488-.1268 7.0458.3805 8.2947 1.8518 4.5481 5.2595 8.1681 8.5995 11.6699.1015.1013.2114.1519.3214.1688.2621 1.3838.5242 2.7677.761 4.1515.6173 3.544 1.3698 6.776 3.4415 9.78 1.9702 2.852 4.2025 5.62 6.8238 7.898 1.7335 1.502 3.5346 3.19 5.4709 4.43 2.0802 1.333 4.4985 1.772 6.9422 1.814 2.4945.042 5.0481 0 7.3735-1.012 1.9702-.853 3.4669-2.372 5.1073-3.705 2.7143-2.202 5.0735-4.556 7.2043-7.333 2.4772-3.231 3.9912-6.311 4.7442-10.319.363-1.9074.735-3.806 1.116-5.713.152.0253.313-.0168.448-.1603 3.34-3.5018 6.748-7.1218 8.599-11.6699.457-1.1223 1.996-5.8224.914-7.7209.693-1.6202 1.885-3.35 2.384-5.0123.034-.1097.017-.2278.034-.3375.11-.616.178-1.2489.338-1.848.288-1.0885.44-2.1939.322-3.3162z" fill="#291510"/><path d="m49.3714 85.0668c-.9217-1.6032-1.6743-3.3162-2.097-5.1219-.1945-.827-.3636-1.6961-.3383-2.5568.0085-.3375.0761-.6244.1691-.886.0592.3375-.0338-.7088.575-1.0294.5158.1518.8879.4894 1.2261.7763.5835.4978.8202.6919 1.1246.8607.3975.2193.6681.3712 1.0147.6075.5158.3628 1.5305 3.0293 1.632 3.8309.1945 1.5611.4482 3.1053.8794 4.6241.0254.0844.0169.1688.0338.2532.1269 1.0379.9302 2.7255 1.2515 2.7845.1015.0169.186.0085.2452-.0168.2537 1.3079.5074 2.6074.761 3.9153-2.3845-2.4893-4.7437-5.0545-6.4771-8.05z" fill="#fff2e3"/><path d="m56.0169 93.4287-.2367-.2447c-2.4353-2.5399-4.7607-5.0629-6.4941-8.0669-1.0062-1.7467-1.7165-3.4849-2.1055-5.1557-.1945-.8269-.3636-1.7129-.3382-2.582.0084-.3122.0676-.6076.1691-.9114l.0592-.1687c.0507-.2785.186-.7173.5665-.9113l.0338-.0169h.0423c.4905.1519.8541.4641 1.1754.7341l.0845.076c.575.4809.8118.6834 1.1162.8522l.0254.0169c.3805.2109.6595.3628.9978.5991.558.3966 1.5727 3.0968 1.6742 3.8984.1607 1.2742.4059 2.9534.8794 4.6072.0169.0591.0254.1266.0254.1857v.0844c.1353 1.08.947 2.658 1.1753 2.7002.0761.0084.1438.0084.1945-.0085l.1099-.0422.8456 4.3625zm-6.5532-8.4128c1.6742 2.8858 3.8981 5.3413 6.2319 7.7884l-.6765-3.485c-.0592 0-.1184 0-.186 0-.4228-.0675-1.2176-1.8901-1.336-2.8689 0-.0338 0-.0675 0-.1013 0-.0506 0-.1012-.0169-.1434-.4736-1.6624-.7272-3.35-.8879-4.6326-.1015-.8185-1.1161-3.4259-1.5897-3.7634-.3297-.2278-.5834-.3713-.9808-.5907l-.0254-.0168c-.3129-.1772-.5581-.3797-1.1415-.8692l-.0846-.0759c-.296-.2531-.6342-.54-1.0654-.6751-.3552.211-.4228.7173-.4566.9198-.0085.0759-.017.1435-.0762.1603-.0761.2447-.1099.4726-.1183.7257-.0254.8438.1437 1.713.3297 2.5314.3806 1.6539 1.0824 3.3669 2.0886 5.0967z" fill="#fff2e3"/><path d="m103.311 97.3773c-.642 3.4087-1.099 6.8517-2.976 9.8557-3.0443 4.86-7.3229 9.063-11.9567 12.438-2.1393 1.552-4.5746 2-7.1874 2.025-2.4099.017-4.8875-.017-7.0775-1.148-1.7926-.919-3.2386-2.421-4.8029-3.662-2.782-2.194-5.1073-4.801-7.2128-7.636-2.4014-3.24-3.4077-6.523-4.1603-10.4382-.7356-3.8225-1.5474-7.6365-2.5959-11.3915-.0084-.2616-.0254-.5232-.0423-.7848-.0253-.3712-.1522-.7256-.1775-1.0969-.1269-2.2277-.2622-4.4554-.3214-6.683-.0253-.9367.0931-1.8817.203-2.8099.093-.7932.3636-1.578.3805-2.3711.093-3.6875.2114-7.3834-.3636-11.054-.1184-.7257.0085-1.3501.3551-1.9745.6765-1.2236 1.3276-2.464 1.9787-3.7044.4059-.7763.4482-1.5779.1522-2.4048-.296-.8017-.482-1.637-.9555-2.3796-.3213-.5063-.1691-.9366.3551-1.1054.6004-.2025.8456-.6244 1.0316-1.156.3975-1.1054.9048-2.1602 1.7504-3.0124.4397-.4472.8709-.9113 1.243-1.4261.9724-1.3416 2.3507-1.7551 3.8981-1.772.7949 0 1.5221-.1266 2.2154-.54.7272-.4304 1.5728-.616 2.4015-.4641.8963.1603 1.7672.481 2.6636.6666.3382.0675.7863.0928 1.0569-.076.6089-.3712.9978-.2109 1.5305.1688.7019.4894 1.3107 1.2235 2.3338 1.1307.1776-.0169.4482.2532.5497.4557.2536.4725 3.3823 4.6494 8.4219 7.8981.7949.5147 1.4206 1.1476 2.3338 1.3754 1.3022.3206 2.4438.9535 3.5177 1.7467.5242.3881 1.1077.7088 1.6911 1.0041.8456.4219 1.6996.8354 2.579 1.1645 1.0824.405 1.8688 1.1476 2.4268 2.0927.6511 1.1053 1.1754 2.2867 2.1224 3.198.076.0759.118.1941.152.3038 1.514 1.5442 4.541 4.16 5.505 5.1557 2.917 3.0293.076 9.8642.279 11.1805l-.237 5.8139c-.237-.0338-.49.0759-.575.3881-1.014 3.6284-1.784 7.3159-2.486 11.0203z" fill="#fff2e3"/><path d="m80.5564 121.798c-2.3676 0-4.5154-.144-6.4856-1.165-1.2683-.65-2.376-1.603-3.4415-2.523-.4481-.388-.9132-.785-1.3783-1.147-2.5029-1.975-4.8705-4.481-7.2297-7.654-2.4268-3.265-3.4246-6.548-4.1771-10.4716-.8879-4.6241-1.6912-8.1344-2.596-11.3831-.0169-.2869-.0253-.5484-.0423-.81-.0084-.1688-.0507-.3376-.0845-.5232-.0423-.1856-.0761-.3797-.093-.5738l-.0592-1.0885c-.1015-1.8311-.2114-3.7297-.2621-5.5945-.0254-.8944.0761-1.7973.186-2.6749l.0169-.1519c.0423-.3375.1099-.675.1776-1.0041.093-.4472.1945-.9113.2029-1.3586v-.4556c.1015-3.4765.186-7.0712-.3636-10.573-.1184-.7257 0-1.3754.3636-2.042.6934-1.2573 1.3529-2.523 1.9787-3.7044.3974-.751.4397-1.5104.1437-2.3205-.0761-.2109-.1437-.4219-.2114-.6328-.1945-.5823-.3889-1.1898-.7356-1.7214-.1776-.2785-.2283-.5485-.1438-.7763.0761-.2194.2706-.3882.5496-.481.5412-.1772.778-.5569.9725-1.0969.3382-.9282.8371-2.1096 1.7672-3.0546.3636-.3713.8371-.8692 1.2346-1.4092.8794-1.2235 2.1477-1.7973 3.9826-1.8142.8964 0 1.5644-.1688 2.1647-.5316.778-.4641 1.632-.6244 2.4691-.4726.4989.0929.9893.2279 1.4713.3629.389.1097.7949.2194 1.1923.3038.3213.0675.7441.0843.9893-.0591.6258-.3882 1.0485-.2447 1.6405.1772.1522.1097.3044.2278.4481.346.5158.4134 1.057.8353 1.818.7678.2368-.0253.5327.2869.6511.5147.2283.4388 3.3147 4.5904 8.3882 7.8644.2283.1519.4481.3122.6595.4641.5243.3797 1.0147.7426 1.6404.9029 1.2008.2953 2.3254.8607 3.5515 1.7635.4481.3291.9808.6413 1.6827.9957.8033.4051 1.6658.8185 2.5705 1.1561 1.0401.3881 1.8772 1.1054 2.4776 2.1348.1522.2532.2875.5147.4312.7679.4651.8438.9474 1.7214 1.6654 2.4133.093.0844.136.211.17.3206.811.827 2.071 1.9746 3.179 2.9787.955.8691 1.86 1.6961 2.308 2.1602 2.165 2.253 1.21 6.5902.635 9.1807-.212.9619-.381 1.7214-.33 2.0589l-.237 5.9404-.11-.0169c-.178-.0253-.389.0422-.465.3123-1.099 3.9237-1.903 7.9487-2.478 11.0117-.076.3882-.143.7763-.211 1.1645-.541 2.9702-1.099 6.0502-2.773 8.7252-2.8162 4.497-6.9596 8.801-11.9823 12.463-1.9026 1.384-4.1349 2.017-7.2382 2.042-.2114 0-.4312 0-.6342 0zm-11.7028-79.0658c-.6004 0-1.2092.1688-1.7673.4978-.6341.3798-1.336.5485-2.2661.557-1.7673.0168-2.9764.5653-3.822 1.7298-.3975.5485-.8794 1.0547-1.2515 1.4345-.9048.9197-1.3952 2.0757-1.725 2.9786-.2114.5823-.4819 1.0126-1.0992 1.2151-.2199.076-.3636.1941-.4228.3544-.0592.1688-.0169.3797.1268.6076.3552.5569.5581 1.1729.7526 1.772.0676.2109.1353.4219.2114.6244.3128.8607.2621 1.6961-.1522 2.4808-.6257 1.1813-1.2853 2.4471-1.9787 3.7044-.3382.6244-.4481 1.2319-.3467 1.9154.5581 3.5272.4651 7.1218.3805 10.6067v.4557c-.0253.4725-.1183.9451-.2198 1.4007-.0676.3207-.1353.6582-.1776.9789l-.0169.1518c-.1015.8692-.2029 1.7721-.1776 2.6496.0508 1.8649.1607 3.755.2622 5.5861l.0592 1.0885c.0084.1772.0507.3628.0845.5485.0338.1772.0761.3628.0846.5484.0169.2616.0338.5232.0423.7932.9047 3.2318 1.708 6.7421 2.5959 11.3747.7526 3.8982 1.7419 7.1642 4.1433 10.3962 2.3507 3.155 4.7014 5.653 7.1959 7.619.4735.371.9386.768 1.3868 1.156 1.0569.912 2.1562 1.857 3.4076 2.498 2.1055 1.088 4.4309 1.156 7.0353 1.139 3.061-.025 5.2595-.641 7.1282-2 5.0058-3.645 9.1323-7.94 11.9307-12.412 1.658-2.641 2.207-5.696 2.749-8.6494.067-.3881.143-.7763.211-1.1645.575-3.063 1.378-7.088 2.486-11.0286.085-.2869.304-.4641.575-.4641l.228-5.7126c-.059-.3544.11-1.0885.33-2.1096.567-2.5567 1.505-6.8264-.583-8.995-.44-.4557-1.345-1.2826-2.3-2.1517-1.117-1.0211-2.393-2.1771-3.205-3.004l-.025-.0338c-.034-.1097-.068-.2109-.127-.2616-.7444-.7172-1.2349-1.6032-1.7084-2.4555-.1437-.2531-.279-.5147-.4312-.7678-.5835-.9873-1.3783-1.6792-2.3761-2.0505-.9133-.3375-1.7757-.7594-2.5875-1.1645-.7103-.3544-1.2515-.675-1.7081-1.0125-1.2007-.886-2.3084-1.4345-3.4838-1.7298-.668-.1688-1.1753-.5401-1.7165-.9367-.2114-.1519-.4228-.3122-.6511-.4556-5.1073-3.2994-8.219-7.4931-8.4558-7.9403-.1014-.2025-.3382-.4219-.4566-.4051-.8371.076-1.4037-.3797-1.9533-.8185-.1437-.1181-.2875-.2362-.4397-.3375-.5496-.3797-.8794-.4978-1.429-.1687-.3636.2193-.9555.1181-1.1331.0843-.4059-.0843-.8117-.2025-1.2092-.3122-.4735-.135-.9639-.27-1.4459-.3544-.186-.0337-.3805-.0506-.5666-.0506z" fill="#fff2e3"/><path d="m114.312 79.6477c-.397 1.9154-1.184 3.7296-2.156 5.4173-1.767 3.0546-4.186 5.662-6.621 8.2018.44-2.2023.888-4.4047 1.328-6.6155.034-.1519 0-.2784-.059-.3881.955-2.0252 1.403-4.3963 2.502-6.3117.212-.3629 1.641-3.0125 2.03-3.1559 2.283-.8607 2.097-.8607 3.019-.5316.093.2194.169.4556.194.7257.102.8944-.051 1.7804-.228 2.658z" fill="#fff2e3"/><path d="m105.365 93.5796.338-1.6623c.356-1.7636.711-3.5187 1.057-5.2823.026-.1181 0-.2278-.05-.3207l-.026-.0422.026-.0421c.414-.8776.744-1.848 1.057-2.7762.406-1.2066.828-2.4555 1.454-3.544.025-.0422.068-.1266.127-.2278 1.108-1.983 1.691-2.869 1.953-2.9703l.567-.2194c1.623-.6159 1.649-.6328 2.418-.3459l.144.0506.017.0422c.11.27.177.5063.203.751.11.9451-.059 1.8817-.229 2.6918-.363 1.7551-1.099 3.5862-2.173 5.4426-1.742 3.0208-4.135 5.6113-6.638 8.2187l-.236.2447zm1.548-7.3159c.059.1266.076.27.042.4135-.347 1.7635-.702 3.5187-1.057 5.2823l-.203.9957c2.41-2.5146 4.693-5.0292 6.376-7.9319 1.065-1.8395 1.784-3.6537 2.147-5.3835.17-.7932.33-1.713.229-2.6327-.026-.211-.076-.4219-.169-.6582l-.06-.0253c-.462-.1688-1.22-.0535-2.274.3459l-.567.2194c-.135.0507-.575.5991-1.843 2.8774-.059.1097-.102.1857-.127.2363-.617 1.0717-1.032 2.3121-1.437 3.5103-.313.9197-.635 1.8732-1.04 2.7508z" fill="#fff2e3"/><g fill="#291510"><path d="m76.8594 90.6016c.6088 0 1.5981.6075 1.8095 1.1138.11.27 0 .481-.3297.54-.4989.0844-2.2916.0591-2.4269-.3375 0-.0169-.0169-.0422-.0253-.0591-.4651-.9281-.2114-1.2488.9724-1.2488z"/><path d="m84.4032 90.375c-.5411 0-1.429.6413-1.615 1.1729-.1015.2785 0 .5063.2959.5654.4397.0843 2.1816-.3966 2.1901-.422.4143-.9788.1945-1.3163-.871-1.3163z"/><path d="m74.8146 86.5774c-3.0779.6582-2.8665 4.8097-.1522 5.8054.3552.1266.5074-.4303.1522-.5653-2.5367-.962-2.1054-3.9744.1184-4.9532.1691-.076.0423-.3207-.1184-.2869z"/><path d="m86.4746 86.3995c2.2154.9788 2.6551 3.9996.1183 4.9531-.3466.135-.2029.692.1522.5654 2.7144-.9957 2.9258-5.1473-.1522-5.8054-.1606-.0338-.2959.2109-.1183.2869z"/><path d="m88.2086 67.9706c-1.2937.6413-2.6466 1.4682-3.526 2.6327-1.1585 1.5357-1.2346 3.4259-1.1247 5.2738.1523 2.4724.6596 4.8942.778 7.375.093 2.0083.6595 3.9912.2367 5.9826-.0422.2025.2453.3544.3552.1519.6511-1.291.3636-2.5989.1691-3.9659-.3298-2.329-.4228-4.6832-.761-7.0121-.3213-2.2192-.8371-4.9363.3128-7.0037.8456-1.5188 2.3338-2.2276 3.6952-3.1896.1438-.1012.0169-.3122-.1353-.2363z"/><path d="m77.5533 91.1332c.9133 1.3164 2.6552 1.7552 4.1688 1.3332 1.7419-.4809 2.9172-1.9745 3.5091-3.603.1269-.3544-.4397-.5063-.5665-.1519-1.0147 2.8183-4.4055 4.6831-6.8323 2.2108-.1353-.1435-.3974.0422-.2791.2194z"/><path d="m60.2434 70.7892c2.1647-2.0167 5.1327-2.2783 7.9654-2.1264 1.3698.0759 2.8411.2109 4.0588.9029 1.2176.6919 1.8518 1.8479 3.0272 2.4639.2874.1519.6764-.1013.5749-.4388-.6511-2.2108-3.154-3.6874-5.2003-4.4216-2.6044-.9366-5.7584-1.0885-8.4896-.7594-.9809.1181-1.7419.5316-2.2577 1.3839-.4397.7256-.8371 2.0504-.5073 2.8942.8371 2.1011 3.5514-2.1264 4.0672-2.8436.2199-.3038-.2452.1181-.5581.1941-.7441.1687-1.4882.3375-2.2239.4978l.389.6666c.6426-.675 1.3783-.9872 2.3084-.9366l-.2705-.6582c-.5328.616-1.1585.886-1.9702.7848l.3297.5738c.2875-.4641.7019-.692 1.243-.7004l-.2705-.6413c-.4228.405-.9217.5485-1.4883.4303l.1607.6245c.482-.5148 1.0062-.7426 1.6996-.7004l-.2621-.6329c-.8033.7679-1.6743 1.367-2.6974 1.7974l.279.6581c2.7143-1.5948 5.7415-2.2445 8.8702-1.8901v-.8101c-3.4838-.3375-7.3735-.2953-9.3944 3.0546-.2283.3797.2114.7004.558.5569 4.414-1.8985 10.4176-4.0503 14.2903-.0759.203.211 1.0147.2363.8879-.0506-.9724-2.2024-2.7228-3.35-4.6591-3.7803-2.6213-.5738-5.6823-1.1898-8.1768.1097-.4989.2616-.0592 1.021.4397.7594 1.8772-.9957 4.2025-.6835 6.2066-.3206 1.4966.27 4.6929 1.1897 5.1918 2.8774l.6934-.1857c-4.1856-4.2612-11.9903-2.7255-15.2796-.0422l.558.557c1.8603-3.0546 5.547-2.9365 8.6926-2.6496.5243.0506.5158-.7594 0-.8101-3.247-.3206-6.4264.4388-9.2422 2.0674-.3382.2025-.1099.8269.2791.6581 1.1499-.4725 2.1308-1.1138 3.0271-1.9745.2453-.2278.0423-.616-.2621-.6328-.8963-.0507-1.6151.27-2.2239.9113-.1775.1856-.1268.5738.1607.6244.8709.1434 1.5474-.0591 2.2239-.616.2536-.2109.0422-.6582-.2706-.6413-.8371.0422-1.4121.3966-1.9026 1.0632-.186.2616.0761.5401.3298.5738 1.0062.1266 1.8518-.2531 2.5114-1.0041.2283-.2616.0676-.6413-.2706-.6582-1.1415-.0759-2.0801.3291-2.8665 1.1476-.2875.2953 0 .751.3889.6666.7441-.1603 1.4883-.3291 2.2324-.4894l-.4566-.5991c-.482.6666-1.0232 1.2995-1.6574 1.8311-1.2261 1.0294-.5327-.962-.1776-1.5527.9302-1.5273 3.8052-1.3922 5.3779-1.3247 1.7673.0843 3.543.3797 5.1496 1.1307 1.4629.6835 3.2555 1.8732 3.7459 3.4849l.575-.4388c-1.4036-.7172-2.1985-2.1179-3.7121-2.7339-1.3022-.5232-2.7396-.6244-4.1349-.6076-2.8157.0507-5.733.4894-7.7877 2.5821-.1184.1181.0592.3038.186.1856z"/><path d="m102.118 70.6129c-2.3594-2.3965-6.0461-2.7593-9.2508-2.5399-1.7081.1181-2.9934.6497-4.3886 1.6032-1.1331.7763-2.5114 1.156-3.7713 1.6876l.5327.5316c.2283-.4809 1.2853-.6413 1.7419-.8353.5327-.2363.7864-.5316 1.2092-.9451 1.3868-1.3754 3.2217-2.2024 5.1242-2.5989 2.0463-.4304 4.397-.5063 6.4772-.2701.9895.1097 1.6405.5738 1.9785 1.5105.118.3122.347.9788.237 1.2657-.338.9029-1.066-.1181-1.395-.4557-.415-.4134-.7783-.8607-1.125-1.3332l-.4566.5907c.7441.1603 1.4886.3291 2.2326.4894.38.0844.676-.3713.389-.6666-.787-.8185-1.7253-1.2236-2.8668-1.1476-.3467.0253-.4989.405-.2706.6582.6596.7509 1.5134 1.1222 2.5114 1.0041.254-.0338.516-.3122.33-.5738-.482-.6666-1.066-1.0295-1.9028-1.0716-.3128-.0169-.5158.4303-.2706.6413.6765.5653 1.3534.7594 2.2244.6159.295-.0506.338-.4387.169-.6244-.609-.6413-1.328-.9619-2.2243-.9113-.3044.0169-.5073.3966-.2621.6329.8963.8522 1.8854 1.4935 3.0274 1.9745.389.1603.626-.4641.279-.6666-2.8159-1.637-5.9869-2.3711-9.2424-2.0589-.4988.0506-.4988.6666 0 .7847 7.6104 1.8226 6.8239-.3966 8.6924 2.6665l.558-.557c-1.809-.7678-3.6611-1.4091-5.5721-1.8563-1.4967-.3544-3.1794-.7679-4.7268-.5654-2.376.3122-5.0481 1.7636-6.7223 3.4596l.7018.2869c-.093-.7256 1.6658-1.5273 2.1478-1.9661.8202-.7425 1.0908-1.2066 2.1731-1.4598 2.7143-.6328 6.1812-1.6285 8.8025-.2362.4989.2616.947-.4979.4397-.7595-3.0187-1.5779-7.1113-.4978-10.1977.3629-1.1331.3122-1.9279.9704-2.7566 1.772-.5581.54-2.1224 1.6539-2.004 2.5314.0423.3291.9893.3207 1.2684.0422 1.5558-1.5948 4.1433-3.0377 6.3841-3.274 1.5474-.1687 3.2217.2954 4.7014.6751 1.6912.4303 3.3397 1.0041 4.9387 1.696.346.1519.794-.1772.558-.5569-2.021-3.3499-5.9195-3.4005-9.4033-3.0377v.7847c3.1287-.3628 6.1643.3038 8.8703 1.8986l.279-.6666c-1.023-.4303-1.894-1.021-2.6975-1.7973l-.2621.6329c.6936-.0338 1.2176.194 1.6996.7003l.169-.6244c-.566.1097-1.065-.0338-1.4881-.4303l-.2706.6413c.5412 0 .9557.2362 1.2427.7003l.33-.5738c-.82.0928-1.4374-.1772-1.9701-.7847l-.2706.6582c.9386-.0507 1.6657.27 2.3087.9366l.389-.6666c-.744-.1688-1.4885-.3376-2.2326-.4979-.3129-.0675-.6765.2869-.4566.5907.5411.7594 3.6952 4.4638 4.0502 1.6707.135-1.0463-.296-2.3711-1.04-3.1136-.964-.9535-2.4437-.8354-3.6952-.8607-2.9679-.0591-6.0628.2447-8.6502 1.8142-1.0147.616-1.7758 1.7382-2.8243 2.2192-.6257.2869-1.7334.4472-2.0547 1.1392-.1776.3712.1691.6919.5327.5316 1.0739-.4557 2.1985-.8439 3.2301-1.4092.5581-.3122 1.0231-.751 1.5728-1.0632.7187-.3966 1.522-.6076 2.3253-.7341 3.247-.5316 7.1705-.3882 9.6985 1.9661.127.1181.305-.0676.186-.1857z"/><path d="m74.3904 99.8157c1.3953.1772 3.8559.0844 4.321.0928 1.133.0253 3.3315.2445 4.4646.0422 3.2724-.5907 4.1772-.6582 5.5132-.6582 2.2239-.1772 2.1647-.7088 2.6467-1.2404.1522-.1687.5158-.5063.8794-.5484.1691-.0254.9047-.0591 1.0908-.0338.9386.1603.9301.7257.3213 1.2657-.7864.692-1.5982 1.0885-2.689 1.5274-.9555.388-2.393.38-3.8051.574-1.15.16-3.9996.244-5.1918.278-1.7166.051-6.4349.042-8.3121-.295-4.1433-.751-5.8345-2.2025-5.3271-2.5653 0 0 .4143-.4641 1.1838 0 .1268.0759 1.7926 1.1644 4.8959 1.5526z"/><path d="m77.6293 104.475-.2283-.143-.389.303c2.7397 2.304 7.644 1.73 10.3414-.286.4228-.321.0423-1.03-.4312-.726-1.4967.945-3.0779 1.544-4.8621 1.612-1.7757.067-3.1625-.49-4.8113-1.013-.2706-.084-.4397.321-.1945.456.2706.151.279.16.575.059.1184-.034.1437-.237 0-.262z"/></g><path d="m104.578 120.633s-2.427 8.168-4.481 13.973c-1.3363 3.781-8.1517 13.805-8.1517 13.805l-1.4375 2.498s2.1562-1.367 3.5937-1.899c1.1162-.422 6.4945-2.025 6.4945-2.025l5.885-.54 2.714-17.703.127-3.325-2.528-2.548-2.207-2.236z" fill="#6dd5c8"/><path d="m88.0716 155.153-.7611-.464 4.2533-6.961c.0761-.118 6.8154-10.042 8.1176-13.721 2.0206-5.729 4.4476-13.872 4.4726-13.956l.855.253c-.026.084-2.461 8.244-4.49 13.999-1.3365 3.789-7.9236 13.501-8.2026 13.906l-4.2364 6.944z" fill="#291510"/><path d="m100.451 73.3284c-.22-.3797-1.3697-1.2657-1.5303-1.4598-.2368-.2784-1.7842-1.2151-2.2408-1.3838-1.6151-.5991-4.4901-.9451-6.697-.0675-.4228.1687-1.0485.5822-1.2599.7931-.3805.3713-.7949.7257-1.2092 1.0633-.9386.7678-1.1162 1.8395-1.2684 2.9195-.0592.4304.1184.5907.5581.6582.9893.1435 1.1077-.7257 1.7334-1.4767.2114-.2531.8541-1.2488 1.1078-1.4682.3889-.3375.651.6751 1.0062 1.0632.1015.1097.4059.5654.5158.6751.7948.7425 1.6066 1.426 2.8496 1.2573.4904-.0676.871-.2869 1.2684-.5317.8033-.4894 1.7503-2.2951 2.5621-1.2826.186.2279.4397 1.1054 1.0654 1.2826.9555.2701 1.1158-.0506 1.5898-1.1054.118-.2615.093-.6834-.051-.9281zm-7.9567 1.1138c-.2706 0-1.725-.8775-1.725-1.2572s.7695-.9704 1.04-.9704c.2706 0 .2622.6413.2622 1.0126 0 .3712.6933 1.215.4228 1.215z" fill="#291510"/><path d="m73.7404 74.0977c-.203-.346-1.2684-1.1729-1.4122-1.3417-.2198-.2616-1.6404-1.1223-2.0716-1.2742-1.4967-.5484-4.1434-.8691-6.1812-.0675-.389.1519-.964.5401-1.1669.7341-.3552.346-.7357.6667-1.1162.9789-.8625.7088-1.0316 1.7045-1.1753 2.6917-.0592.3966.1099.5485.5158.6076.9132.135.372-.9366.947-1.6286.1945-.2362 0-.616.9048-1.1898 1.1753-.4641 1.3614.7257 1.6911 1.0801.0931.1013.3721.5232.4736.616.7356.6835 1.2683 1.1223 2.4183.9704.4566-.0591 1.0232-.076 1.3868-.2953.7441-.4557 1.5728-2.4724 2.3169-1.5358.1691.211.7187 1.4683.9724 1.4851.9132.0675 1.0908 0 1.522-.9704.11-.2447.0846-.6328-.0507-.8606zm-7.6948-.2954c-.3129 0-.8202-.6582-.8202-1.0126s.465-.9282.7779-.9282.1099.7848.1099 1.1476c0 .3629.2452.7932-.0676.7932zm.9047 1.9661c-.3044 0-.4904-.0675-.4904-.3713 0-.3037.2537 0 .5581 0s.7695-.2025.7695.1097-.5327.2616-.8372.2616z" fill="#291510"/></g></g></svg>