<svg width="163" height="163" viewBox="0 0 163 163" fill="none" xmlns="http://www.w3.org/2000/svg">
<g clip-path="url(#clip0_5795_4778)">
<circle cx="81.5" cy="81.5" r="81.5" fill="#FFDEB5"/>
<g clip-path="url(#clip1_5795_4778)">
<path d="M119.476 73.5201C119.476 104.991 88.9219 131.765 64.7444 112.309C56.1095 105.362 50.9463 96.1986 49.1662 84.9432C48.0769 78.0841 47.5633 75.9125 49.671 62.3354C51.3626 51.442 55.2593 25.9122 84.8923 32.3035C101.48 35.8787 119.476 42.0493 119.476 73.5201Z" fill="#FFF2E3"/>
<path d="M94.9352 61.9644C94.3507 61.8761 93.9345 61.8585 93.5625 61.7437C92.4821 61.4171 91.4193 61.0375 90.3477 60.6932C90.0112 60.5873 89.6658 60.499 89.3204 60.446C86.0436 60.0046 82.8022 60.1017 79.6051 60.9669C78.7815 61.1875 77.9578 61.3818 77.1165 61.5318C76.284 61.6819 75.9829 61.3818 76.1069 60.6049C76.3017 59.369 76.8951 58.7158 78.1881 58.5216C80.3933 58.1861 82.5985 57.7536 84.8568 57.9743C86.0082 58.089 90.144 58.707 90.3477 58.7776C92.0215 59.3249 93.474 60.2165 94.6961 61.4347C94.767 61.5053 94.7758 61.6113 94.9352 61.9732V61.9644Z" fill="#190602"/>
<path d="M95.4048 62.326L94.8911 62.2466C94.6963 62.2201 94.5191 62.1936 94.3597 62.176C94.032 62.1318 93.7486 62.0965 93.4741 62.0171C92.8364 61.8229 92.1988 61.611 91.5789 61.3991C91.136 61.249 90.6932 61.1078 90.2504 60.9666C89.8873 60.8518 89.5685 60.7724 89.2762 60.737C85.8223 60.2692 82.6783 60.4369 79.6672 61.2491C78.7993 61.4874 77.9491 61.6728 77.152 61.814C76.6295 61.9111 76.2664 61.8405 76.0273 61.611C75.797 61.3903 75.7262 61.046 75.8059 60.5517C76.0184 59.1569 76.7358 58.4418 78.1262 58.23C78.4096 58.1858 78.693 58.1417 78.9764 58.0976C80.8894 57.7974 82.8643 57.4884 84.8747 57.6826C85.9906 57.7886 90.1796 58.4154 90.4276 58.4948C92.1191 59.0421 93.6158 59.9602 94.8911 61.2226C94.9708 61.302 95.0062 61.3991 95.0594 61.5404C95.0859 61.611 95.1302 61.7169 95.1834 61.8493L95.387 62.326H95.4048ZM85.592 59.9072C86.8142 59.9072 88.0629 59.9955 89.3559 60.1721C89.6836 60.2162 90.0379 60.2957 90.4364 60.4281C90.8792 60.5693 91.322 60.7194 91.7648 60.8695C92.3759 61.0725 93.0136 61.2844 93.6424 61.4786C93.8726 61.5492 94.1117 61.5757 94.4306 61.6198C94.4483 61.6198 94.466 61.6198 94.4837 61.6198C93.2881 60.4369 91.8623 59.5718 90.2681 59.0509C90.0379 58.9892 86.0171 58.38 84.8304 58.2653C82.8997 58.0799 80.9602 58.38 79.0827 58.6802C78.7993 58.7243 78.5159 58.7685 78.2325 58.8126C77.0989 58.9803 76.5675 59.5188 76.3904 60.6576C76.3461 60.9401 76.3638 61.1343 76.4524 61.2137C76.541 61.302 76.7624 61.3197 77.0723 61.2579C77.8517 61.1166 78.6842 60.9313 79.5344 60.7017C81.4827 60.1721 83.4931 59.9161 85.6009 59.9161L85.592 59.9072Z" fill="#FFF2E3"/>
<path d="M96.3427 135.49C95.8645 135.685 98.2645 140.125 97.8217 140.275C94.2083 141.502 89.612 143.021 85.7772 143.382C83.448 143.603 78.6656 141.811 76.3365 141.952C73.405 142.12 69.34 141.635 66.4086 141.546C64.5222 141.493 64.3097 138.518 62.6181 137.706C62.6358 137.953 62.379 137.591 62.6181 137.706C62.5473 136.7 64.044 133.61 64.044 131.28C64.044 125.921 60.5901 126.124 60.6166 122.187C60.6432 117.191 60.4838 114.021 60.8646 112.627C60.6078 111.823 67.7548 111.903 70.1902 111.329C74.9549 110.199 81.7122 108.513 83.7314 107.648C87.5219 106.006 91.3921 103.049 94.6423 100.7C98.1759 98.1492 101.222 92.7996 101.656 92.4818C102.002 92.2346 100.78 99.4292 100.877 100.25C100.966 101.009 101.355 104.17 101.24 104.938C101.125 105.732 101.037 109.122 99.9206 113.271C99.4955 115.187 97.5206 118.947 95.8202 123.035C95.2357 124.818 95.4925 130.141 95.5014 130.635C95.5014 131.28 95.7405 132.233 96.015 134.087C95.9796 134.581 96.0859 134.978 96.3338 135.482L96.3427 135.49Z" fill="#FFF2E3"/>
<path d="M109.796 93.4708C109.796 94.3094 108.857 95.148 107.927 95.1215C107.343 95.1039 106.333 94.0092 106.307 93.3736C106.271 92.4644 107.13 91.6787 108.122 91.714C108.928 91.7405 109.796 92.6498 109.805 93.4708H109.796Z" fill="black"/>
<path d="M126.375 133.584C127.349 133.708 128.11 133.875 128.863 133.884C129.368 133.884 129.775 133.972 130.139 134.308C130.466 134.608 130.936 134.758 131.13 135.244C130.139 134.634 129.04 134.961 128.013 134.82C127.614 134.767 127.207 134.758 126.817 134.661C126.552 134.599 126.18 134.458 126.109 134.273C126.038 134.07 126.295 133.769 126.366 133.593L126.375 133.584Z" fill="black"/>
<path d="M117.235 67.3755C116.748 67.252 116.252 67.146 115.773 66.9959C115.401 66.8812 115.215 66.4221 115.322 65.9984C115.437 65.5394 115.791 65.5747 116.136 65.6365C116.871 65.7777 117.359 66.5369 117.235 67.3755Z" fill="black"/>
<path d="M109.689 101.195C110.903 102.122 111.142 103.87 110.194 105.265C110.194 104.462 110.256 103.799 110.177 103.155C110.097 102.511 109.875 101.893 109.689 101.195Z" fill="black"/>
<path d="M104.544 102.396C104.792 103.384 105.031 104.311 105.288 105.326C104.234 104.647 103.968 103.534 104.544 102.396Z" fill="black"/>
<path d="M132.415 136.073C131.706 136.276 131.237 136.611 130.626 136.091C131.202 135.746 131.689 135.791 132.415 136.073Z" fill="black"/>
<path d="M61.6 137.441C61.4495 137.062 61.3697 136.85 61.29 136.638C61.3255 136.62 61.3609 136.603 61.3963 136.576C61.4583 136.673 61.538 136.77 61.5646 136.876C61.6 137 61.5823 137.132 61.6 137.432V137.441Z" fill="black"/>
<path d="M108.255 88.5098C108.255 88.6157 108.282 88.7128 108.255 88.7923C108.246 88.8276 108.149 88.8453 108.096 88.8717C108.078 88.7835 108.051 88.6952 108.06 88.6069C108.06 88.5716 108.167 88.5539 108.255 88.501V88.5098Z" fill="black"/>
<path d="M60.9004 133.425V132.992C60.9004 132.992 60.9358 132.992 60.9535 132.992V133.425C60.9535 133.425 60.9181 133.425 60.9004 133.425Z" fill="black"/>
<path d="M49.8659 59.9344C49.9456 62.6356 49.3257 65.1162 48.5906 67.6939C48.0593 69.5566 47.9707 71.3751 47.9707 73.2995C47.9707 77.069 48.4667 80.706 49.06 84.4225C49.3611 86.294 49.68 88.1566 49.9988 90.0281C50.1405 90.8579 50.2645 91.6524 50.5567 92.4469C51.6903 95.4924 53.3553 98.3968 55.0468 101.169C57.0041 104.364 59.1916 107.666 62.0433 110.155C63.5931 111.506 65.1075 112.194 67.1356 112.212C72.6442 112.247 78.3033 110.65 83.3071 108.46C91.1183 105.026 97.7959 99.3413 102.144 91.9878C102.782 90.9197 103.349 89.8162 103.88 88.6863C104.057 88.3067 103.49 87.9624 103.304 88.3508C99.452 96.2163 93.3412 102.572 85.5477 106.624C80.3225 109.343 74.38 111.188 68.4729 111.506C66.7902 111.594 65.2758 111.603 63.8057 110.667C60.8388 108.778 58.6425 105.521 56.7472 102.643C54.8254 99.7297 53.063 96.6577 51.6549 93.4621C50.725 91.3522 50.477 89.1541 50.0962 86.8942C49.4851 83.3102 48.7678 79.6908 48.6172 76.0538C48.5286 74.0411 48.4578 71.9842 48.6526 69.9803C48.8652 67.8705 49.8039 65.8754 50.1051 63.7744C50.291 62.5032 50.3176 61.2232 50.2379 59.9432C50.2202 59.696 49.8482 59.696 49.8571 59.9432L49.8659 59.9344Z" fill="black"/>
<path d="M141.173 135.844C139.748 135.367 133.371 134.484 131.919 134.087C129.058 133.31 120.6 131.651 119.856 132.551C118.926 133.672 117.235 135.923 115.845 136.365C112.887 137.318 114.782 138.775 111.753 139.454C109.574 139.94 107.245 140.505 105.27 139.454C102.658 138.059 98.8494 134.811 96.3431 136.391C92.8891 137.812 89.2935 138.695 85.5916 139.189C84.0329 139.392 82.4742 139.543 80.9244 139.763C77.8778 140.187 74.8313 140.487 71.7493 140.496C69.4732 140.505 67.268 140.169 65.1868 139.207C64.93 139.092 64.6466 139.031 64.2038 138.889C64.3366 139.322 60.5462 139.666 60.6081 139.913C60.2716 142.897 57.783 144.424 57.0834 147.143C55.6309 146.975 54.2317 146.852 53.4169 146.887C51.2471 146.984 50.6714 144.389 48.5194 144.071C46.881 143.833 45.216 141.07 45.216 141.07C45.216 141.07 42.4174 138.289 41.5318 136.382C40.1325 133.372 33.7914 125.374 33.7914 125.374C33.7914 125.374 28.4157 128.623 25.2363 130.062C21.7558 131.642 18.0008 133.425 17.2391 135.12C16.9203 135.826 19.0812 137.433 19.0812 137.433L24.8378 143.365L31.7988 152.422L42.0986 161.7L63.1676 165.584C62.7514 167.094 62.3263 168.595 61.9543 170.113C61.2635 172.955 60.6879 175.833 59.9262 178.658C59.2089 181.324 58.3321 183.946 57.4908 186.577C56.4191 189.949 55.2855 193.295 54.2228 196.676C52.9564 200.701 52.0353 204.806 51.3977 208.973C50.8751 212.398 50.2995 215.814 49.7504 219.239C49.2367 222.426 48.7231 225.604 48.2006 228.791C48.0234 229.85 47.7312 230.901 47.6603 231.969C47.3592 236.321 46.6684 240.593 45.3488 244.76C45.0389 245.749 44.7909 246.764 44.5164 247.77H89.5858C89.6478 247.479 89.7629 247.188 89.7717 246.896C89.878 243.568 90.1791 240.258 90.7991 236.983C91.0205 235.835 91.0471 234.661 91.1533 233.496C91.171 233.293 91.1799 233.099 91.1976 232.896C91.3836 230.247 91.6227 227.608 91.7378 224.951C91.915 220.925 92.0567 216.891 92.1098 212.866C92.1452 210.182 91.9947 207.49 91.9238 204.806C91.8707 202.52 91.7998 200.233 91.7644 197.947C91.729 195.457 91.7113 192.977 91.7024 190.487C91.7024 188.678 91.7024 186.868 91.7201 185.058C91.729 182.233 91.7113 179.409 91.7644 176.592C91.8175 173.971 91.915 171.358 92.0744 168.736C92.1275 167.818 92.1895 166.891 92.2515 165.973C94.1644 165.973 95.4043 165.955 95.5372 165.937C96.1925 165.831 125.223 159.776 125.223 159.776L145.663 138.792C145.663 138.792 143.113 136.497 141.156 135.844H141.173Z" fill="#C65536" stroke="black" stroke-width="0.5" stroke-miterlimit="10"/>
<path d="M89.7634 247.974H44.2954L44.3574 247.735C44.446 247.417 44.5257 247.1 44.6142 246.782C44.7914 246.102 44.9773 245.396 45.1987 244.716C46.4209 240.832 47.1737 236.665 47.5014 231.969C47.5457 231.263 47.6962 230.565 47.8291 229.877C47.8999 229.515 47.9796 229.135 48.0416 228.764C48.5641 225.578 49.0778 222.4 49.5914 219.213C49.7509 218.251 49.9014 217.288 50.0608 216.326C50.4594 213.907 50.8667 211.409 51.2387 208.946C51.8852 204.7 52.8328 200.56 54.0727 196.623C54.6661 194.742 55.286 192.827 55.8882 190.982C56.3665 189.525 56.8624 188.007 57.3318 186.524C57.4912 186.012 57.6595 185.509 57.8189 184.997C58.492 182.913 59.1828 180.759 59.7584 178.614C60.2278 176.875 60.6352 175.083 61.0248 173.344C61.264 172.267 61.5208 171.164 61.7865 170.069C62.0699 168.904 62.3976 167.73 62.7075 166.6C62.7872 166.308 62.8669 166.026 62.9467 165.735L42.0282 161.877L31.6664 152.537L24.7054 143.489L18.9666 137.574C18.5592 137.265 16.7082 135.835 17.0713 135.041C17.8507 133.319 21.4906 131.554 25.1659 129.885C28.301 128.464 33.6502 125.242 33.7034 125.206L33.8451 125.118L33.9513 125.251C34.2082 125.577 40.3278 133.301 41.7182 136.294C42.5773 138.148 45.3316 140.893 45.367 140.92L45.3936 140.955C45.3936 140.955 47.0231 143.648 48.5553 143.868C49.6357 144.027 50.3265 144.707 50.9907 145.378C51.6904 146.075 52.3546 146.728 53.4085 146.684C54.1081 146.649 55.2949 146.728 56.9421 146.923C57.2875 145.731 57.9606 144.76 58.6071 143.815C59.4396 142.615 60.2278 141.476 60.4138 139.896C60.4138 139.852 60.4226 139.807 60.4492 139.772C60.5466 139.622 60.8566 139.552 62.0079 139.34C62.6721 139.216 63.7614 139.022 64.0005 138.863L63.912 138.58L64.2574 138.695C64.4079 138.739 64.5408 138.783 64.6648 138.819C64.895 138.889 65.081 138.942 65.267 139.022C67.1357 139.887 69.2523 140.302 71.7498 140.293C74.5218 140.275 77.4266 140.046 80.8983 139.56C81.7485 139.446 82.6075 139.34 83.44 139.243C84.1396 139.163 84.8658 139.075 85.5743 138.987C89.4977 138.466 92.9959 137.556 96.2638 136.215C98.3273 134.935 101.108 136.665 103.553 138.192C104.199 138.598 104.81 138.978 105.368 139.278C107.219 140.267 109.406 139.772 111.523 139.304L111.718 139.26C113.179 138.934 113.41 138.448 113.675 137.892C113.95 137.318 114.26 136.674 115.792 136.179C116.97 135.8 118.404 134.034 119.352 132.86C119.485 132.701 119.6 132.551 119.706 132.419C120.618 131.315 130.095 133.39 131.963 133.893C132.601 134.069 134.213 134.334 135.922 134.626C138.136 134.996 140.421 135.385 141.227 135.65C143.202 136.312 145.699 138.545 145.806 138.633L145.956 138.766L145.814 138.907L125.33 159.926H125.277C124.09 160.182 96.2373 165.999 95.5819 166.105C95.4933 166.123 95.0505 166.132 92.4468 166.149C92.3937 167.015 92.3317 167.871 92.2874 168.736C92.1368 171.314 92.0305 173.953 91.9774 176.584C91.9331 178.561 91.9331 180.574 91.9331 182.525C91.9331 183.363 91.9331 184.211 91.9331 185.05V186.533C91.9243 187.821 91.9154 189.163 91.9154 190.479C91.9243 192.871 91.9331 195.413 91.9774 197.929C92.004 199.589 92.0483 201.266 92.0925 202.899C92.1103 203.526 92.128 204.162 92.1368 204.788C92.1545 205.627 92.19 206.474 92.2165 207.313C92.2785 209.132 92.3405 211.012 92.3228 212.857C92.2785 216.335 92.1634 220.069 91.9508 224.951C91.8711 226.778 91.7294 228.641 91.5966 230.433C91.5346 231.254 91.4726 232.075 91.4106 232.896C91.4106 232.966 91.4018 233.037 91.4018 233.099C91.4018 233.231 91.384 233.364 91.3752 233.496C91.3398 233.849 91.3132 234.211 91.2866 234.573C91.2246 235.376 91.1626 236.206 91.0121 237.01C90.4453 240.002 90.1087 243.242 89.9848 246.897C89.9848 247.117 89.9228 247.329 89.8608 247.541C89.8342 247.629 89.8165 247.718 89.7899 247.806L89.7545 247.956L89.7634 247.974ZM44.7914 247.594H89.4622C89.4711 247.55 89.4888 247.506 89.4977 247.462C89.5508 247.267 89.5951 247.082 89.6039 246.905C89.7279 243.233 90.0645 239.976 90.6401 236.965C90.7907 236.18 90.8527 235.368 90.9058 234.573C90.9324 234.211 90.9589 233.849 90.9944 233.487C91.0032 233.355 91.0121 233.231 91.0209 233.099C91.0209 233.028 91.0209 232.958 91.0298 232.887C91.0829 232.066 91.1538 231.245 91.2158 230.424C91.3486 228.632 91.4903 226.778 91.57 224.951C91.7826 220.069 91.8977 216.344 91.942 212.866C91.9686 211.021 91.8977 209.149 91.8357 207.34C91.8091 206.501 91.7737 205.653 91.756 204.815C91.7383 204.188 91.7206 203.553 91.7117 202.926C91.6674 201.293 91.6232 199.615 91.5966 197.956C91.5612 195.431 91.5435 192.889 91.5346 190.496C91.5346 189.181 91.5346 187.839 91.5346 186.55V185.067C91.5435 184.229 91.5435 183.39 91.5435 182.543C91.5435 180.592 91.5435 178.579 91.5877 176.593C91.6409 173.962 91.7471 171.314 91.8977 168.736C91.9508 167.818 92.0128 166.891 92.0748 165.973V165.796H92.2608C94.9354 165.787 95.4491 165.77 95.5199 165.761C96.1487 165.664 123.683 159.908 125.135 159.608L145.398 138.81C144.831 138.316 142.733 136.577 141.103 136.029C140.324 135.764 137.95 135.367 135.851 135.014C134.133 134.723 132.512 134.449 131.857 134.273C128.315 133.31 120.592 131.96 119.999 132.675C119.892 132.807 119.768 132.948 119.644 133.107C118.661 134.317 117.182 136.135 115.898 136.55C114.525 136.991 114.277 137.512 114.012 138.068C113.728 138.669 113.427 139.278 111.789 139.649L111.594 139.693C109.406 140.178 107.148 140.681 105.182 139.631C104.615 139.331 103.995 138.942 103.34 138.527C100.984 137.053 98.3096 135.385 96.441 136.559L96.4144 136.577C93.111 137.936 89.5774 138.854 85.6098 139.384C84.9013 139.481 84.1751 139.56 83.4754 139.64C82.6429 139.737 81.7839 139.834 80.9425 139.949C77.4532 140.434 74.5306 140.673 71.7409 140.69C71.7055 140.69 71.6612 140.69 71.6258 140.69C69.1283 140.69 66.994 140.267 65.0987 139.384C64.9482 139.313 64.771 139.26 64.5585 139.198C64.4788 139.172 64.3991 139.154 64.3017 139.128C64.0714 139.357 63.3806 139.499 62.0699 139.737C61.5739 139.825 60.9717 139.94 60.7857 140.011C60.582 141.661 59.7407 142.871 58.9259 144.054C58.2351 145.051 57.5798 146.005 57.2698 147.205L57.2255 147.364L57.0573 147.346C55.348 147.143 54.1258 147.064 53.4262 147.09C52.1952 147.143 51.4424 146.402 50.7162 145.678C50.0962 145.06 49.4497 144.416 48.4933 144.283C46.8372 144.045 45.2342 141.485 45.0659 141.211C44.8091 140.955 42.2231 138.342 41.364 136.488C40.0887 133.743 34.5801 126.707 33.7476 125.648C32.8709 126.177 28.1771 128.967 25.3165 130.265C21.712 131.898 18.1341 133.628 17.4167 135.226C17.2573 135.579 18.2226 136.585 19.2057 137.309L19.2323 137.327L25.0065 143.277L31.9587 152.316L42.2053 161.55L63.4249 165.461L63.3718 165.664C63.2743 166.017 63.1769 166.37 63.0795 166.723C62.7695 167.853 62.4419 169.027 62.1585 170.184C61.8928 171.27 61.6448 172.382 61.4057 173.45C61.016 175.189 60.6086 176.981 60.1392 178.738C59.5636 180.892 58.8639 183.055 58.1909 185.138C58.0314 185.65 57.8632 186.153 57.7038 186.665C57.2255 188.157 56.7384 189.666 56.2602 191.132C55.658 192.977 55.038 194.884 54.4447 196.764C53.2136 200.683 52.266 204.806 51.6284 209.035C51.2564 211.497 50.849 214.005 50.4505 216.423C50.2911 217.386 50.1317 218.348 49.9811 219.31C49.4675 222.497 48.9538 225.675 48.4313 228.862C48.3693 229.241 48.2896 229.621 48.2187 229.992C48.0859 230.662 47.9442 231.351 47.891 232.031C47.5634 236.754 46.8106 240.956 45.5707 244.866C45.3582 245.546 45.1722 246.243 44.9951 246.914C44.9331 247.153 44.8711 247.391 44.8091 247.629L44.7914 247.594Z" fill="black"/>
<path d="M75.8409 68.3296C75.9649 68.056 76.0534 67.7558 76.2128 67.5087C76.6734 66.8113 78.8786 64.4807 79.6314 64.2424C80.0742 64.1012 80.5701 64.0747 81.0395 64.0305C81.3495 64.004 84.5377 64.4101 85.1931 64.6573C86.4507 65.2046 87.0086 65.4165 87.5754 65.6548C88.3548 65.9903 89.5149 67.5793 89.7629 67.8C89.9666 67.9854 90.1526 68.1972 90.3474 68.4003C90.0374 68.462 88.2485 68.3826 87.664 68.2767C87.2743 68.206 86.9643 68.0471 86.7341 67.6676C86.5215 67.3144 86.185 67.4027 85.9459 67.7029C85.6625 68.0648 85.4499 68.4885 84.9185 68.5415C83.9621 68.6209 83.0056 68.9476 82.0314 68.6474C81.8277 68.5856 81.6152 68.4091 81.5177 68.2325C81.2786 67.8088 81.0218 67.3586 80.9155 66.8907C80.765 66.2286 80.3399 66.2551 79.8705 66.4228C79.5605 66.5376 79.224 66.6259 78.9583 66.8201C78.7989 66.9349 78.4623 68.003 76.0003 68.4974C75.9472 68.4356 75.894 68.3826 75.832 68.3208L75.8409 68.3296ZM85.1931 67.288C85.0425 67.1202 84.9451 67.0055 84.8388 66.8995C84.7237 67.1026 84.582 67.288 84.52 67.4998C84.4934 67.5793 84.6617 67.7117 84.7414 67.8265C84.8743 67.6676 85.0071 67.5087 85.1931 67.288Z" fill="black"/>
<path d="M63.7074 68.0291C63.424 67.7908 63.0963 67.5966 62.866 67.3141C62.5561 66.9433 62.4409 66.9345 62.1133 67.3053C61.9538 67.4818 61.7147 67.6584 61.4845 67.7025C60.8911 67.8084 60.28 67.8526 59.6778 67.9144C58.4999 68.0291 57.8977 67.6407 57.5523 66.5549C57.4637 66.2812 57.446 65.9811 57.3397 65.7074C57.2955 65.5838 57.0298 65.4514 57.0032 65.4338C56.5338 65.0983 56.1264 65.0983 55.7191 64.9924C55.4002 64.9306 54.674 65.1954 54.5323 65.4691C54.3021 65.9016 55.0105 66.0429 53.7618 66.6079C52.6814 66.8727 52.5308 66.4225 52.6636 66.193C52.7611 66.0164 53.7087 64.9659 54.4349 64.3656C54.8334 64.0302 55.781 63.6506 56.4098 63.6859C58.7479 63.7918 60.5103 64.3038 62.1664 65.319C63.0166 65.8399 63.5037 66.6432 63.8402 67.5259C63.8845 67.6495 63.8579 67.7996 63.8668 67.9408C63.8137 67.9673 63.7694 68.0026 63.7162 68.0291H63.7074ZM61.7324 66.7314C61.7679 66.652 61.8121 66.5637 61.8476 66.4843C61.7059 66.4313 61.5287 66.2901 61.4402 66.3342C61.3162 66.396 61.2099 66.5814 61.1745 66.7314C61.1568 66.8197 61.2808 66.9433 61.3428 67.0581C61.4756 66.9521 61.6084 66.8374 61.7324 66.7314ZM61.1214 65.628C60.838 65.4249 60.6697 65.2837 60.4749 65.1866C60.4394 65.1689 60.3243 65.2749 60.2446 65.3278C60.3863 65.4779 60.5191 65.6456 60.6874 65.7692C60.7317 65.8045 60.8822 65.7074 61.1125 65.628H61.1214Z" fill="black"/>
<path d="M100.771 145.342C97.1664 143.082 94.793 134.872 94.5273 133.91C94.1465 132.568 92.6498 125.965 95.4218 120.774C96.148 119.062 97.0867 117.42 97.3701 115.478C97.5915 113.968 98.8757 102.934 99.3274 100.126C99.3893 99.7644 99.5488 99.4201 99.6462 99.0582C99.7347 98.7404 99.8056 98.4138 99.8942 98.0518C99.6905 97.9547 101.311 92.3756 102.073 90.6012C102.303 90.0716 102.516 89.5419 102.764 89.0211C102.923 88.6768 103.561 87.6528 103.862 87.8911C106.306 89.7714 108.272 85.5341 109.22 84.5013C113.515 79.8226 115.127 77.4214 115.632 76.1679C116.19 74.7731 118.9 69.3176 114.294 66.2544C111.885 64.6477 110.229 66.7399 108.83 69.5471C107.989 71.2508 107.387 73.0252 106.669 74.0757C106.333 74.5612 104.464 78.6308 104.508 77.1301C104.517 76.7858 104.606 76.4327 104.544 76.1061C104.296 74.676 104.508 73.2547 104.508 71.8247C104.508 70.1297 104.367 68.4436 103.959 66.7575C103.729 65.7865 103.508 64.7978 103.233 63.8356C102.79 62.2554 102.108 60.8077 101.231 59.4394C100.488 58.2829 99.7879 57.0735 99.2476 55.8023C98.9731 55.1667 98.8934 54.4429 98.4683 53.8602C98.3974 53.7631 97.6624 49.7377 96.2011 47.6543C95.2978 46.3655 93.4645 44.4499 92.5169 43.2581C91.8881 42.4636 88.4253 39.3651 87.5663 38.9149C86.2998 38.2616 83.8289 36.1342 76.5668 36.0635C69.2604 35.9929 68.242 36.4873 65.5497 37.2818C64.6109 37.7496 63.619 38.0851 62.6448 38.4735C60.9533 39.1532 59.5186 40.292 58.0484 41.3513C57.8624 41.4838 55.4447 44.4587 54.5413 45.8623C53.6557 47.2394 52.3893 51.3355 52.1856 51.7592C51.3088 53.6042 51.114 55.5993 50.866 57.6032C50.6357 59.4923 50.2284 61.355 49.8033 63.2264C49.4047 62.7851 49.3782 62.2642 49.387 61.7346C49.387 61.2402 48.5191 59.3423 48.7051 58.7596C48.9176 58.0887 47.5449 55.9965 47.5803 55.1049C47.6158 54.2045 47.3766 53.2864 47.2172 52.386C46.8718 50.4616 47.173 48.5813 47.4564 46.6921C47.5715 45.8976 47.8726 45.2002 48.2357 44.5205C48.7139 43.6289 49.3162 42.8079 49.7678 41.9075C50.6003 40.2479 51.362 38.5441 52.1413 36.858C52.7258 35.5957 53.2838 34.3245 53.8771 33.0709C54.0631 32.6737 57.0565 29.3898 58.2433 28.2775C59.43 27.1652 62.4943 23.3251 66.639 21.5243C78.5152 16.3689 89.8246 20.5003 91.5693 21.3742C93.1988 22.1864 100.08 23.9078 104.145 27.4477C104.792 28.2775 105.164 28.5953 105.987 30.3608C105.987 30.608 106.678 30.8552 106.829 31.0582C107.006 31.2877 107.245 31.5526 107.502 31.632C108.866 32.0558 110.265 32.6119 111.071 33.7772C111.939 35.0395 112.931 35.6575 113.976 37.0169C114.728 37.4495 116.26 40.4509 117.244 42.5696C118.829 45.9859 120.697 51.4856 120.786 52.1918C121.052 54.3281 122.345 61.8935 122.69 64.0121C123.23 67.3049 124.7 72.9899 124.913 73.4843C125.134 74.0051 127.295 79.4518 127.446 79.8579C127.738 80.6082 129.341 83.3801 129.802 84.0246C132.397 87.6881 133.318 88.3855 134.248 93.3996C136.178 103.772 133.796 105.538 131.608 110.296C130.705 112.256 128.402 115.478 127.428 117.932C125.79 122.072 127.03 122.01 126.091 125.497C125.675 126.715 124.798 128.772 125.081 130.07C125.4 131.527 132.397 130.22 131.909 134.069C131.502 141.113 115.047 150.948 104.747 147.876" fill="black"/>
<path d="M45.8272 145.978C57.0834 148.98 63.9205 150.313 66.4179 141.556C67.6401 138.934 68.3486 134.732 67.3035 126.61C66.1522 117.668 68.1272 114.084 66.2585 112.027C66.046 111.798 65.5677 111.559 65.302 111.709C64.753 112.027 64.3013 111.542 63.8053 111.294C63.4068 111.091 62.9817 110.906 62.654 110.623C61.7595 109.855 60.8031 109.132 60.068 108.231C58.7838 106.651 57.606 104.991 56.4724 103.305C55.2502 101.487 54.0369 99.6506 53.0184 97.7173C51.938 95.6693 51.0878 93.4976 50.521 91.2377C50.459 90.9817 50.3616 90.7257 50.273 90.4697C50.211 90.4697 50.1402 90.4697 50.0782 90.4697C50.0782 91.9175 49.4228 93.1445 48.8117 94.3804C48.3246 95.3779 44.5342 100.366 42.94 102.405C41.3459 104.444 42.2847 109.52 40.8234 111.338C36.9266 116.185 33.1185 118.259 32.5871 120.934C31.5775 126.001 33.7473 129.4 34.3672 131.404C36.0144 136.718 39.2735 141.882 42.5592 144.125" fill="black"/>
<path d="M51.4151 60.0938C51.0786 59.3876 51.2557 58.8844 51.7517 58.3548C53.3812 56.6334 55.365 56.3067 57.5437 56.8629C59.2529 57.2955 60.9356 57.8075 62.6006 58.3724C63.743 58.7609 64.4072 59.7849 65.1777 60.65C65.3106 60.8001 65.3194 61.1885 65.2132 61.3562C65.1069 61.5239 64.7526 61.6563 64.5489 61.621C63.9999 61.5239 63.4685 61.3209 62.9371 61.1532C61.5467 60.7118 60.1651 60.2439 58.7658 59.829C57.7119 59.52 56.6315 59.4318 55.5421 59.6966C55.2942 59.7584 55.0108 59.7849 54.7628 59.7496C53.8506 59.626 52.9738 59.7496 52.1059 60.0409C51.9111 60.1115 51.672 60.0762 51.4417 60.085L51.4151 60.0938Z" fill="#190602"/>
<path d="M64.62 62.0179C64.5668 62.0179 64.5225 62.0179 64.4783 62.0091C64.0266 61.9296 63.5926 61.7795 63.1675 61.6471C63.0524 61.6118 62.9373 61.5677 62.8133 61.5324C62.335 61.3823 61.8657 61.2322 61.3963 61.0733C60.5018 60.782 59.5719 60.4819 58.6508 60.2082C57.5792 59.8904 56.5873 59.8463 55.622 60.0846C55.3918 60.1376 55.0464 60.1905 54.701 60.1464C53.9039 60.0317 53.0891 60.1288 52.2124 60.4201C52.0175 60.4819 51.8227 60.4819 51.6456 60.4819C51.5836 60.4819 51.5127 60.4819 51.4419 60.4819L51.185 60.4995L51.0788 60.27C50.5917 59.246 51.0433 58.5751 51.4862 58.1072C53.0891 56.4123 55.1615 55.8738 57.6501 56.5094C59.2885 56.9243 60.9446 57.4186 62.7336 58.0278C63.7609 58.3809 64.4163 59.1577 65.0451 59.9169C65.1868 60.0846 65.3285 60.2523 65.4702 60.4112C65.7358 60.7114 65.727 61.294 65.541 61.5765C65.3727 61.8325 64.9742 62.0267 64.6288 62.0267L64.62 62.0179ZM56.8619 59.1754C57.5172 59.1754 58.1815 59.2725 58.8634 59.4755C59.7933 59.7492 60.7232 60.0493 61.6265 60.3494C62.0959 60.4995 62.5742 60.6584 63.0435 60.8085C63.1675 60.8438 63.2827 60.8879 63.4067 60.9233C63.8229 61.0557 64.2126 61.1881 64.62 61.2587C64.6819 61.2587 64.8591 61.2057 64.9034 61.1528C64.9211 61.1086 64.9122 60.9586 64.8856 60.8968C64.7439 60.729 64.6022 60.5613 64.4605 60.3936C63.8672 59.6874 63.3092 59.0165 62.4856 58.7428C60.7144 58.1425 59.0759 57.6482 57.4553 57.2421C55.2235 56.6771 53.4522 57.1273 52.0352 58.628C51.6633 59.0253 51.557 59.3254 51.6721 59.7227C51.7873 59.7227 51.8935 59.7227 51.9644 59.6962C52.9563 59.3607 53.8773 59.2636 54.7984 59.3961C54.9844 59.4225 55.2058 59.4049 55.436 59.3519C55.8966 59.2372 56.3748 59.1842 56.853 59.1842L56.8619 59.1754Z" fill="#FFF2E3"/>
<path d="M66.3207 64.6214C67.3303 66.943 66.8875 69.4148 66.055 71.7188C65.683 72.734 65.2225 73.7139 64.7265 74.6761C64.1597 75.7884 63.6195 77.0243 62.8402 78.0042C61.7331 79.399 60.511 80.5731 60.8298 82.5416C61.1043 84.2454 62.9287 84.5367 64.2395 85.1635C64.5051 85.2871 64.7354 84.8986 64.4697 84.7662C63.7258 84.4131 62.8844 84.2189 62.1848 83.7775C61.0601 83.0625 61.0778 81.65 61.5294 80.5113C61.866 79.6638 62.5479 79.0812 63.1147 78.3926C63.8055 77.554 64.266 76.53 64.7708 75.5766C66.5509 72.1955 68.3487 68.1613 66.7103 64.4007C66.5952 64.1358 66.1967 64.3654 66.3118 64.6302L66.3207 64.6214Z" fill="black"/>
<path d="M63.4155 83.2124C64.7085 84.2629 66.4443 84.9514 68.127 84.7043C68.8621 84.5983 69.3757 84.1305 70.0754 83.9363C71.2621 83.6096 72.1743 84.0334 73.2725 84.4218C73.4585 84.4836 73.6002 84.2276 73.4585 84.104C72.4754 83.1682 70.7042 83.0535 69.482 83.6008C68.6584 83.9716 68.0561 84.2982 67.0997 84.2717C65.8332 84.2364 64.6819 83.5655 63.566 83.027C63.442 82.9652 63.2915 83.1329 63.4155 83.23V83.2124Z" fill="black"/>
<path d="M81.8446 89.9838C81.1006 89.6395 80.525 89.6925 79.7899 90.1515C79.6394 90.2398 79.0549 90.434 78.9043 90.4958C78.9132 90.6812 79.1966 90.6106 79.1966 90.796C79.1966 91.052 79.1788 91.2991 79.1611 91.5551C79.9051 91.1844 80.9678 91.0343 81.8269 91.052C82.3317 91.0608 82.2697 91.6964 82.6593 91.8994C82.8807 90.8136 82.6859 90.3811 81.8534 89.9926L81.8446 89.9838Z" fill="black"/>
<path d="M82.8546 92.3143L82.518 92.1466C82.2612 92.023 82.1461 91.7847 82.0575 91.5993C81.9424 91.3698 81.907 91.3345 81.8095 91.3256C81.0833 91.308 80.0294 91.4316 79.2767 91.8023L78.8161 92.0319L78.8693 91.5198C78.887 91.2903 78.9047 91.0873 78.9047 90.8931C78.8073 90.8489 78.6301 90.7518 78.6124 90.5135L78.5947 90.3193L78.7718 90.2398C78.8427 90.2045 78.949 90.1692 79.1261 90.1074C79.2944 90.0456 79.5689 89.9485 79.6309 89.9132C80.4634 89.41 81.1365 89.357 81.9601 89.7366C82.9254 90.1869 83.1734 90.743 82.9254 91.9524L82.8546 92.3232V92.3143ZM81.6944 90.7607C81.7387 90.7607 81.783 90.7607 81.8272 90.7607C82.1461 90.7607 82.3321 90.9372 82.4472 91.1138C82.4206 90.6547 82.1904 90.4605 81.7298 90.2398C81.0833 89.9397 80.6139 89.975 79.9409 90.3899C79.8523 90.4429 79.684 90.5135 79.4361 90.6018C79.4626 90.6547 79.4804 90.7165 79.4804 90.796C79.4804 90.9019 79.4804 90.999 79.4804 91.1049C80.2066 90.8489 81.0479 90.7518 81.7033 90.7518L81.6944 90.7607Z" fill="#FFF2E3"/>
<path d="M72.2362 85.2518C73.4583 85.6402 75.0524 84.8633 75.8318 83.9099C76.9123 82.5946 76.2835 81.1645 75.3978 79.9463C75.2296 79.7079 74.831 79.9375 74.9993 80.1758C75.7521 81.244 76.434 82.4887 75.4687 83.6628C74.7336 84.5632 73.414 85.1458 72.2627 85.0664C72.1565 85.0664 72.1476 85.2076 72.2362 85.2429V85.2518Z" fill="black"/>
<path d="M59.4741 89.5253C59.8726 90.8053 61.2542 91.4409 62.4321 91.8558C64.3982 92.5532 66.3377 92.5974 68.4012 92.6062C70.5887 92.615 72.8027 92.7121 74.9902 92.5885C77.2131 92.4561 79.2058 91.4762 81.3933 91.2114C81.7741 91.1673 81.7741 90.567 81.3933 90.6111C79.6309 90.8318 78.0013 91.5822 76.2567 91.8735C74.2463 92.2001 72.1385 92.0412 70.1104 92.05C68.0824 92.0589 66.0366 92.2266 64.0616 91.8029C62.4852 91.4586 60.5368 90.9201 59.6424 89.4635C59.5892 89.3752 59.4387 89.4282 59.4741 89.5341V89.5253Z" fill="black"/>
<path d="M67.3212 90.5219C66.409 89.542 65.0363 89.3125 63.7699 89.7539C63.1854 89.957 62.654 90.3012 62.0606 90.4778C61.1839 90.7338 60.3868 90.2836 59.8466 89.595C59.634 89.3302 59.262 89.7009 59.4746 89.9658C60.3071 90.9986 61.423 91.2723 62.6274 90.7779C63.5219 90.4072 64.2215 89.9923 65.2312 89.9834C65.6208 89.9834 65.9219 90.0099 66.285 90.1776C66.409 90.2394 66.6747 90.4601 66.8164 90.5131C67.0998 90.6102 67.0024 90.6897 67.3035 90.5661C67.3212 90.5661 67.3301 90.5396 67.3124 90.5308L67.3212 90.5219Z" fill="black"/>
<path d="M68.1361 89.7631C67.7818 89.8426 67.215 90.0103 66.9759 90.3016L67.339 90.5753C67.6047 90.2133 68.6763 90.2222 69.1014 90.2045C69.7391 90.1869 70.3944 90.4075 71.0232 90.5135C72.1834 90.7165 73.3613 90.9019 74.5303 91.0608C76.4432 91.3168 78.9141 91.564 80.6942 90.6547C80.9599 90.5223 80.7297 90.1251 80.464 90.2575C79.2861 90.8578 77.7894 90.8136 76.5052 90.7695C75.2211 90.7253 74.0078 90.5223 72.759 90.3281C71.652 90.1604 70.5007 89.8249 69.3848 89.7543C68.7029 89.7102 67.3833 89.7366 66.9316 90.3369C66.7811 90.54 67.1265 90.8136 67.2947 90.6106C67.4984 90.3722 67.9501 90.2575 68.2512 90.1957C68.5523 90.1339 68.4195 89.6925 68.1272 89.7543L68.1361 89.7631Z" fill="black"/>
<path d="M59.8376 90.5042C60.2184 92.155 61.8568 93.3379 63.2384 94.1501C65.2133 95.3065 67.4451 95.7744 69.73 95.536C72.0326 95.2888 74.2909 94.5385 76.4607 93.7617C78.4179 93.0643 80.3752 92.2609 82.0224 90.9898C82.2793 90.7955 81.9339 90.3453 81.677 90.5395C80.1538 91.6871 78.3648 92.4463 76.5847 93.0996C74.7337 93.7705 72.8031 94.4237 70.8636 94.7857C68.5964 95.2094 66.2672 95.0946 64.1683 94.0795C62.6361 93.3468 60.67 92.1462 60.1475 90.4248C60.0855 90.2306 59.7933 90.31 59.8376 90.5131V90.5042Z" fill="black"/>
<path d="M59.9882 89.684C59.873 89.3132 59.5896 89.1985 59.4657 89.3397C59.262 89.5692 59.324 89.8782 59.4745 90.2754C59.6074 90.6374 60.0945 91.3524 60.4044 91.6084C60.6701 91.8379 59.9793 90.8139 60.2273 90.5667C60.2893 90.5138 60.9358 90.8228 60.9889 90.761C60.9181 90.4785 60.7852 90.5138 60.5373 90.3372C60.3513 90.2048 60.0945 90.0194 59.9882 89.6751V89.684Z" fill="black"/>
<path d="M79.9946 86.9471C80.7828 87.6534 82.1378 88.6509 82.4035 89.7014C82.6692 90.7519 82.1024 91.6788 81.6153 92.5439C81.5179 92.7205 81.7216 92.95 81.9075 92.8352C82.7754 92.2791 83.0766 90.7607 82.9171 89.7985C82.7046 88.4832 81.137 87.4768 80.1186 86.7794C80.0211 86.7088 79.906 86.8677 79.9946 86.9383V86.9471Z" fill="black"/>
</g>
</g>
<defs>
<clipPath id="clip0_5795_4778">
<rect width="163" height="163" rx="81.5" fill="white"/>
</clipPath>
<clipPath id="clip1_5795_4778">
<rect width="129" height="229" fill="white" transform="translate(17 19)"/>
</clipPath>
</defs>
</svg>
