<svg fill="none" height="163" viewBox="0 0 163 163" width="163" xmlns="http://www.w3.org/2000/svg" xmlns:xlink="http://www.w3.org/1999/xlink"><clipPath id="a"><rect height="163" rx="81.5" width="163"/></clipPath><clipPath id="b"><path d="m17 19h129v229h-129z"/></clipPath><g clip-path="url(#a)"><circle cx="81.5" cy="81.5" fill="#ffdeb5" r="81.5"/><g clip-path="url(#b)"><path d="m119.476 73.5201c0 31.4709-30.5541 58.2449-54.7316 38.7889-8.6349-6.947-13.7981-16.1104-15.5782-27.3658-1.0893-6.8591-1.6029-9.0307.5048-22.6078 1.6916-10.8934 5.5883-36.4232 35.2213-30.0319 16.5877 3.5752 34.5837 9.7458 34.5837 41.2166z" fill="#fff2e3"/><path d="m94.9352 61.9644c-.5845-.0883-1.0007-.1059-1.3727-.2207-1.0804-.3266-2.1432-.7062-3.2148-1.0505-.3365-.1059-.6819-.1942-1.0273-.2472-3.2768-.4414-6.5182-.3443-9.7153.5209-.8236.2206-1.6473.4149-2.4886.5649-.8325.1501-1.1336-.15-1.0096-.9269.1948-1.2359.7882-1.8891 2.0812-2.0833 2.2052-.3355 4.4104-.768 6.6687-.5473 1.1514.1147 5.2872.7327 5.4909.8033 1.6738.5473 3.1263 1.4389 4.3484 2.6571.0709.0706.0797.1766.2391.5385z" fill="#190602"/><path d="m95.4048 62.326-.5137-.0794c-.1948-.0265-.372-.053-.5314-.0706-.3277-.0442-.6111-.0795-.8856-.1589-.6377-.1942-1.2753-.4061-1.8952-.618-.4429-.1501-.8857-.2913-1.3285-.4325-.3631-.1148-.6819-.1942-.9742-.2296-3.4539-.4678-6.5979-.3001-9.609.5121-.8679.2383-1.7181.4237-2.5152.5649-.5225.0971-.8856.0265-1.1247-.203-.2303-.2207-.3011-.565-.2214-1.0593.2125-1.3948.9299-2.1099 2.3203-2.3217.2834-.0442.5668-.0883.8502-.1324 1.913-.3002 3.8879-.6092 5.8983-.415 1.1159.106 5.3049.7328 5.5529.8122 1.6915.5473 3.1882 1.4654 4.4635 2.7278.0797.0794.1151.1765.1683.3178.0265.0706.0708.1765.124.3089l.2036.4767zm-9.8128-2.4188c1.2222 0 2.4709.0883 3.7639.2649.3277.0441.682.1236 1.0805.256.4428.1412.8856.2913 1.3284.4414.6111.203 1.2488.4149 1.8776.6091.2302.0706.4693.0971.7882.1412h.0531c-1.1956-1.1829-2.6214-2.048-4.2156-2.5689-.2302-.0617-4.251-.6709-5.4377-.7856-1.9307-.1854-3.8702.1147-5.7477.4149-.2834.0441-.5668.0883-.8502.1324-1.1336.1677-1.665.7062-1.8421 1.845-.0443.2825-.0266.4767.062.5561.0886.0883.31.106.6199.0442.7794-.1413 1.6119-.3266 2.4621-.5562 1.9483-.5296 3.9587-.7856 6.0665-.7856z" fill="#fff2e3"/><path d="m96.3427 135.49c-.4782.195 1.9218 4.635 1.479 4.785-3.6134 1.227-8.2097 2.746-12.0445 3.107-2.3292.221-7.1116-1.571-9.4407-1.43-2.9315.168-6.9965-.317-9.9279-.406-1.8864-.053-2.0989-3.028-3.7905-3.84.0177.247-.2391-.115 0 0-.0708-1.006 1.4259-4.096 1.4259-6.426 0-5.359-3.4539-5.156-3.4274-9.093.0266-4.996-.1328-8.166.248-9.56-.2568-.804 6.8902-.724 9.3256-1.298 4.7647-1.13 11.522-2.816 13.5412-3.681 3.7905-1.642 7.6607-4.599 10.9109-6.948 3.5336-2.5508 6.5797-7.9004 7.0137-8.2182.346-.2472-.876 6.9474-.779 7.7682.089.759.478 3.92.363 4.688-.115.794-.203 4.184-1.3194 8.333-.4251 1.916-2.4 5.676-4.1004 9.764-.5845 1.783-.3277 7.106-.3188 7.6 0 .645.2391 1.598.5136 3.452-.0354.494.0709.891.3188 1.395z" fill="#fff2e3"/><g fill="#000"><path d="m109.796 93.4708c0 .8386-.939 1.6772-1.869 1.6507-.584-.0176-1.594-1.1123-1.62-1.7479-.036-.9092.823-1.6949 1.815-1.6596.806.0265 1.674.9358 1.683 1.7568z"/><path d="m126.375 133.584c.974.124 1.735.291 2.488.3.505 0 .912.088 1.276.424.327.3.797.45.991.936-.991-.61-2.09-.283-3.117-.424-.399-.053-.806-.062-1.196-.159-.265-.062-.637-.203-.708-.388-.071-.203.186-.504.257-.68z"/><path d="m117.235 67.3755c-.487-.1235-.983-.2295-1.462-.3796-.372-.1147-.558-.5738-.451-.9975.115-.459.469-.4237.814-.3619.735.1412 1.223.9004 1.099 1.739z"/><path d="m109.689 101.195c1.214.927 1.453 2.675.505 4.07 0-.803.062-1.466-.017-2.11-.08-.644-.302-1.262-.488-1.96z"/><path d="m104.544 102.396c.248.988.487 1.915.744 2.93-1.054-.679-1.32-1.792-.744-2.93z"/><path d="m132.415 136.073c-.709.203-1.178.538-1.789.018.576-.345 1.063-.3 1.789-.018z"/><path d="m61.6 137.441c-.1505-.379-.2303-.591-.31-.803.0355-.018.0709-.035.1063-.062.062.097.1417.194.1683.3.0354.124.0177.256.0354.556z"/><path d="m108.255 88.5098c0 .1059.027.203 0 .2825-.009.0353-.106.053-.159.0794-.018-.0882-.045-.1765-.036-.2648 0-.0353.107-.053.195-.1059z"/><path d="m60.9004 133.425v-.433h.0531v.433s-.0354 0-.0531 0z"/><path d="m49.8659 59.9344c.0797 2.7012-.5402 5.1818-1.2753 7.7595-.5313 1.8627-.6199 3.6812-.6199 5.6056 0 3.7695.496 7.4065 1.0893 11.123.3011 1.8715.62 3.7341.9388 5.6056.1417.8298.2657 1.6243.5579 2.4188 1.1336 3.0455 2.7986 5.9499 4.4901 8.7221 1.9573 3.195 4.1448 6.497 6.9965 8.986 1.5498 1.351 3.0642 2.039 5.0923 2.057 5.5086.035 11.1677-1.562 16.1715-3.752 7.8112-3.434 14.4888-9.1187 18.8369-16.4722.638-1.0681 1.205-2.1716 1.736-3.3015.177-.3796-.39-.7239-.576-.3355-3.852 7.8655-9.9628 14.2212-17.7563 18.2732-5.2252 2.719-11.1677 4.564-17.0748 4.882-1.6827.088-3.1971.097-4.6672-.839-2.9669-1.889-5.1632-5.146-7.0585-8.024-1.9218-2.9133-3.6842-5.9853-5.0923-9.1809-.9299-2.1099-1.1779-4.308-1.5587-6.5679-.6111-3.584-1.3284-7.2034-1.479-10.8404-.0886-2.0127-.1594-4.0696.0354-6.0735.2126-2.1098 1.1513-4.1049 1.4525-6.2059.1859-1.2712.2125-2.5512.1328-3.8312-.0177-.2472-.3897-.2472-.3808 0z"/></g><path d="m141.173 135.844c-1.425-.477-7.802-1.36-9.254-1.757-2.861-.777-11.319-2.436-12.063-1.536-.93 1.121-2.621 3.372-4.011 3.814-2.958.953-1.063 2.41-4.092 3.089-2.179.486-4.508 1.051-6.483 0-2.612-1.395-6.4206-4.643-8.9269-3.063-3.454 1.421-7.0496 2.304-10.7515 2.798-1.5587.203-3.1174.354-4.6672.574-3.0466.424-6.0931.724-9.1751.733-2.2761.009-4.4813-.327-6.5625-1.289-.2568-.115-.5402-.176-.983-.318.1328.433-3.6576.777-3.5957 1.024-.3365 2.984-2.8251 4.511-3.5247 7.23-1.4525-.168-2.8517-.291-3.6665-.256-2.1698.097-2.7455-2.498-4.8975-2.816-1.6384-.238-3.3034-3.001-3.3034-3.001s-2.7986-2.781-3.6842-4.688c-1.3993-3.01-7.7404-11.008-7.7404-11.008s-5.3757 3.249-8.5551 4.688c-3.4805 1.58-7.2355 3.363-7.9972 5.058-.3188.706 1.8421 2.313 1.8421 2.313l5.7566 5.932 6.961 9.057 10.2998 9.278 21.069 3.884c-.4162 1.51-.8413 3.011-1.2133 4.529-.6908 2.842-1.2664 5.72-2.0281 8.545-.7173 2.666-1.5941 5.288-2.4354 7.919-1.0717 3.372-2.2053 6.718-3.268 10.099-1.2664 4.025-2.1875 8.13-2.8251 12.297-.5226 3.425-1.0982 6.841-1.6473 10.266-.5137 3.187-1.0273 6.365-1.5498 9.552-.1772 1.059-.4694 2.11-.5403 3.178-.3011 4.352-.9919 8.624-2.3115 12.791-.3099.989-.5579 2.004-.8324 3.01h45.0694c.062-.291.1771-.582.1859-.874.1063-3.328.4074-6.638 1.0274-9.913.2214-1.148.248-2.322.3542-3.487.0177-.203.0266-.397.0443-.6.186-2.649.4251-5.288.5402-7.945.1772-4.026.3189-8.06.372-12.085.0354-2.684-.1151-5.376-.186-8.06-.0531-2.286-.124-4.573-.1594-6.859-.0354-2.49-.0531-4.97-.062-7.46 0-1.809 0-3.619.0177-5.429.0089-2.825-.0088-5.649.0443-8.466.0531-2.621.1506-5.234.31-7.856.0531-.918.1151-1.845.1771-2.763 1.9129 0 3.1528-.018 3.2857-.036.6553-.106 29.6858-6.161 29.6858-6.161l20.44-20.984s-2.55-2.295-4.507-2.948z" fill="#c65536" stroke="#000" stroke-miterlimit="10" stroke-width=".5"/><path d="m89.7634 247.974h-45.468l.062-.239c.0886-.318.1683-.635.2568-.953.1772-.68.3631-1.386.5845-2.066 1.2222-3.884 1.975-8.051 2.3027-12.747.0443-.706.1948-1.404.3277-2.092.0708-.362.1505-.742.2125-1.113.5225-3.186 1.0362-6.364 1.5498-9.551.1595-.962.31-1.925.4694-2.887.3986-2.419.8059-4.917 1.1779-7.38.6465-4.246 1.5941-8.386 2.834-12.323.5934-1.881 1.2133-3.796 1.8155-5.641.4783-1.457.9742-2.975 1.4436-4.458.1594-.512.3277-1.015.4871-1.527.6731-2.084 1.3639-4.238 1.9395-6.383.4694-1.739.8768-3.531 1.2664-5.27.2392-1.077.496-2.18.7617-3.275.2834-1.165.6111-2.339.921-3.469.0797-.292.1594-.574.2392-.865l-20.9185-3.858-10.3618-9.34-6.961-9.048-5.7388-5.915c-.4074-.309-2.2584-1.739-1.8953-2.533.7794-1.722 4.4193-3.487 8.0946-5.156 3.1351-1.421 8.4843-4.643 8.5375-4.679l.1417-.088.1062.133c.2569.326 6.3765 8.05 7.7669 11.043.8591 1.854 3.6134 4.599 3.6488 4.626l.0266.035s1.6295 2.693 3.1617 2.913c1.0804.159 1.7712.839 2.4354 1.51.6997.697 1.3639 1.35 2.4178 1.306.6996-.035 1.8864.044 3.5336.239.3454-1.192 1.0185-2.163 1.665-3.108.8325-1.2 1.6207-2.339 1.8067-3.919 0-.044.0088-.089.0354-.124.0974-.15.4074-.22 1.5587-.432.6642-.124 1.7535-.318 1.9926-.477l-.0885-.283.3454.115c.1505.044.2834.088.4074.124.2302.07.4162.123.6022.203 1.8687.865 3.9853 1.28 6.4828 1.271 2.772-.018 5.6768-.247 9.1485-.733.8502-.114 1.7092-.22 2.5417-.317.6996-.08 1.4258-.168 2.1343-.256 3.9234-.521 7.4216-1.431 10.6895-2.772 2.0635-1.28 4.8442.45 7.2892 1.977.646.406 1.257.786 1.815 1.086 1.851.989 4.038.494 6.155.026l.195-.044c1.461-.326 1.692-.812 1.957-1.368.275-.574.585-1.218 2.117-1.713 1.178-.379 2.612-2.145 3.56-3.319.133-.159.248-.309.354-.441.912-1.104 10.389.971 12.257 1.474.638.176 2.25.441 3.959.733 2.214.37 4.499.759 5.305 1.024 1.975.662 4.472 2.895 4.579 2.983l.15.133-.142.141-20.484 21.019h-.053c-1.187.256-29.0397 6.073-29.6951 6.179-.0886.018-.5314.027-3.1351.044-.0531.866-.1151 1.722-.1594 2.587-.1506 2.578-.2569 5.217-.31 7.848-.0443 1.977-.0443 3.99-.0443 5.941v2.525 1.483c-.0088 1.288-.0177 2.63-.0177 3.946.0089 2.392.0177 4.934.062 7.45.0266 1.66.0709 3.337.1151 4.97.0178.627.0355 1.263.0443 1.889.0177.839.0532 1.686.0797 2.525.062 1.819.124 3.699.1063 5.544-.0443 3.478-.1594 7.212-.372 12.094-.0797 1.827-.2214 3.69-.3542 5.482-.062.821-.124 1.642-.186 2.463 0 .07-.0088.141-.0088.203 0 .132-.0178.265-.0266.397-.0354.353-.062.715-.0886 1.077-.062.803-.124 1.633-.2745 2.437-.5668 2.992-.9034 6.232-1.0273 9.887 0 .22-.062.432-.124.644-.0266.088-.0443.177-.0709.265l-.0354.15zm-44.972-.38h44.6708c.0089-.044.0266-.088.0355-.132.0531-.195.0974-.38.1062-.557.124-3.672.4606-6.929 1.0362-9.94.1506-.785.2126-1.597.2657-2.392.0266-.362.0531-.724.0886-1.086.0088-.132.0177-.256.0265-.388 0-.071 0-.141.0089-.212.0531-.821.124-1.642.186-2.463.1328-1.792.2745-3.646.3542-5.473.2126-4.882.3277-8.607.372-12.085.0266-1.845-.0443-3.717-.1063-5.526-.0266-.839-.062-1.687-.0797-2.525-.0177-.627-.0354-1.262-.0443-1.889-.0443-1.633-.0885-3.311-.1151-4.97-.0354-2.525-.0531-5.067-.062-7.46 0-1.315 0-2.657 0-3.946v-1.483c.0089-.838.0089-1.677.0089-2.524 0-1.951 0-3.964.0442-5.95.0532-2.631.1594-5.279.31-7.857.0531-.918.1151-1.845.1771-2.763v-.177h.186c2.6746-.009 3.1883-.026 3.2591-.035.6288-.097 28.1631-5.853 29.6151-6.153l20.263-20.798c-.567-.494-2.665-2.233-4.295-2.781-.779-.265-3.153-.662-5.252-1.015-1.718-.291-3.339-.565-3.994-.741-3.542-.963-11.265-2.313-11.858-1.598-.107.132-.231.273-.355.432-.983 1.21-2.462 3.028-3.746 3.443-1.373.441-1.621.962-1.886 1.518-.284.601-.585 1.21-2.223 1.581l-.195.044c-2.188.485-4.446.988-6.412-.062-.567-.3-1.187-.689-1.842-1.104-2.356-1.474-5.0304-3.142-6.899-1.968l-.0266.018c-3.3034 1.359-6.837 2.277-10.8046 2.807-.7085.097-1.4347.176-2.1344.256-.8325.097-1.6915.194-2.5329.309-3.4893.485-6.4119.724-9.2016.741-.0354 0-.0797 0-.1151 0-2.4975 0-4.6318-.423-6.5271-1.306-.1505-.071-.3277-.124-.5402-.186-.0797-.026-.1594-.044-.2568-.07-.2303.229-.9211.371-2.2318.609-.496.088-1.0982.203-1.2842.274-.2037 1.65-1.045 2.86-1.8598 4.043-.6908.997-1.3461 1.951-1.6561 3.151l-.0443.159-.1682-.018c-1.7093-.203-2.9315-.282-3.6311-.256-1.231.053-1.9838-.688-2.71-1.412-.62-.618-1.2665-1.262-2.2229-1.395-1.6561-.238-3.2591-2.798-3.4274-3.072-.2568-.256-2.8428-2.869-3.7019-4.723-1.2753-2.745-6.7839-9.781-7.6164-10.84-.8767.529-5.5705 3.319-8.4311 4.617-3.6045 1.633-7.1824 3.363-7.8998 4.961-.1594.353.8059 1.359 1.789 2.083l.0266.018 5.7742 5.95 6.9522 9.039 10.2466 9.234 21.2196 3.911-.0531.203c-.0975.353-.1949.706-.2923 1.059-.31 1.13-.6376 2.304-.921 3.461-.2657 1.086-.5137 2.198-.7528 3.266-.3897 1.739-.7971 3.531-1.2665 5.288-.5756 2.154-1.2753 4.317-1.9483 6.4-.1595.512-.3277 1.015-.4871 1.527-.4783 1.492-.9654 3.001-1.4436 4.467-.6022 1.845-1.2222 3.752-1.8155 5.632-1.2311 3.919-2.1787 8.042-2.8163 12.271-.372 2.462-.7794 4.97-1.1779 7.388-.1594.963-.3188 1.925-.4694 2.887-.5136 3.187-1.0273 6.365-1.5498 9.552-.062.379-.1417.759-.2126 1.13-.1328.67-.2745 1.359-.3277 2.039-.3276 4.723-1.0804 8.925-2.3203 12.835-.2125.68-.3985 1.377-.5756 2.048-.062.239-.124.477-.186.715z" fill="#000"/><path d="m75.8409 68.3296c.124-.2736.2125-.5738.3719-.8209.4606-.6974 2.6658-3.028 3.4186-3.2663.4428-.1412.9387-.1677 1.4081-.2119.31-.0265 3.4982.3796 4.1536.6268 1.2576.5473 1.8155.7592 2.3823.9975.7794.3355 1.9395 1.9245 2.1875 2.1452.2037.1854.3897.3972.5845.6003-.31.0617-2.0989-.0177-2.6834-.1236-.3897-.0707-.6997-.2296-.9299-.6091-.2126-.3532-.5491-.2649-.7882.0353-.2834.3619-.496.7856-1.0274.8386-.9564.0794-1.9129.4061-2.8871.1059-.2037-.0618-.4162-.2383-.5137-.4149-.2391-.4237-.4959-.8739-.6022-1.3418-.1505-.6621-.5756-.6356-1.045-.4679-.31.1148-.6465.2031-.9122.3973-.1594.1148-.496 1.1829-2.958 1.6773-.0531-.0618-.1063-.1148-.1683-.1766zm9.3522-1.0416c-.1506-.1678-.248-.2825-.3543-.3885-.1151.2031-.2568.3885-.3188.6003-.0266.0795.1417.2119.2214.3267.1329-.1589.2657-.3178.4517-.5385z" fill="#000"/><path d="m63.7074 68.0291c-.2834-.2383-.6111-.4325-.8414-.715-.3099-.3708-.4251-.3796-.7527-.0088-.1595.1765-.3986.3531-.6288.3972-.5934.1059-1.2045.1501-1.8067.2119-1.1779.1147-1.7801-.2737-2.1255-1.3595-.0886-.2737-.1063-.5738-.2126-.8475-.0442-.1236-.3099-.256-.3365-.2736-.4694-.3355-.8768-.3355-1.2841-.4414-.3189-.0618-1.0451.203-1.1868.4767-.2302.4325.4782.5738-.7705 1.1388-1.0804.2648-1.231-.1854-1.0982-.4149.0975-.1766 1.0451-1.2271 1.7713-1.8274.3985-.3354 1.3461-.715 1.9749-.6797 2.3381.1059 4.1005.6179 5.7566 1.6331.8502.5209 1.3373 1.3242 1.6738 2.2069.0443.1236.0177.2737.0266.4149-.0531.0265-.0974.0618-.1506.0883zm-1.975-1.2977c.0355-.0794.0797-.1677.1152-.2471-.1417-.053-.3189-.1942-.4074-.1501-.124.0618-.2303.2472-.2657.3972-.0177.0883.1063.2119.1683.3267.1328-.106.2656-.2207.3896-.3267zm-.611-1.1034c-.2834-.2031-.4517-.3443-.6465-.4414-.0355-.0177-.1506.0883-.2303.1412.1417.1501.2745.3178.4428.4414.0443.0353.1948-.0618.4251-.1412z" fill="#000"/><path d="m100.771 145.342c-3.6046-2.26-5.978-10.47-6.2437-11.432-.3808-1.342-1.8775-7.945.8945-13.136.7262-1.712 1.6649-3.354 1.9483-5.296.2214-1.51 1.5056-12.544 1.9573-15.352.0619-.3616.2214-.7059.3188-1.0678.0885-.3178.1594-.6444.248-1.0064-.2037-.0971 1.4168-5.6762 2.1788-7.4506.23-.5296.443-1.0593.691-1.5801.159-.3443.797-1.3683 1.098-1.13 2.444 1.8803 4.41-2.357 5.358-3.3898 4.295-4.6787 5.907-7.0799 6.412-8.3334.558-1.3948 3.268-6.8503-1.338-9.9135-2.409-1.6067-4.065.4855-5.464 3.2927-.841 1.7037-1.443 3.4781-2.161 4.5286-.336.4855-2.205 4.5551-2.161 3.0544.009-.3443.098-.6974.036-1.024-.248-1.4301-.036-2.8514-.036-4.2814 0-1.695-.141-3.3811-.549-5.0672-.23-.971-.451-1.9597-.726-2.9219-.443-1.5802-1.125-3.0279-2.002-4.3962-.743-1.1565-1.4431-2.3659-1.9834-3.6371-.2745-.6356-.3542-1.3594-.7793-1.9421-.0709-.0971-.8059-4.1225-2.2672-6.2059-.9033-1.2888-2.7366-3.2044-3.6842-4.3962-.6288-.7945-4.0916-3.893-4.9506-4.3432-1.2665-.6533-3.7374-2.7807-10.9995-2.8514-7.3064-.0706-8.3248.4238-11.0171 1.2183-.9388.4678-1.9307.8033-2.9049 1.1917-1.6915.6797-3.1262 1.8185-4.5964 2.8778-.186.1325-2.6037 3.1074-3.5071 4.511-.8856 1.3771-2.152 5.4732-2.3557 5.8969-.8768 1.845-1.0716 3.8401-1.3196 5.844-.2303 1.8891-.6376 3.7518-1.0627 5.6232-.3986-.4413-.4251-.9622-.4163-1.4918 0-.4944-.8679-2.3923-.6819-2.975.2125-.6709-1.1602-2.7631-1.1248-3.6547.0355-.9004-.2037-1.8185-.3631-2.7189-.3454-1.9244-.0442-3.8047.2392-5.6939.1151-.7945.4162-1.4919.7793-2.1716.4782-.8916 1.0805-1.7126 1.5321-2.613.8325-1.6596 1.5942-3.3634 2.3735-5.0495.5845-1.2623 1.1425-2.5335 1.7358-3.7871.186-.3972 3.1794-3.6811 4.3662-4.7934 1.1867-1.1123 4.251-4.9524 8.3957-6.7532 11.8762-5.1554 23.1856-1.024 24.9303-.1501 1.6295.8122 8.5107 2.5336 12.5757 6.0735.647.8298 1.019 1.1476 1.842 2.9131 0 .2472.691.4944.842.6974.177.2295.416.4944.673.5738 1.364.4238 2.763.9799 3.569 2.1452.868 1.2623 1.86 1.8803 2.905 3.2397.752.4326 2.284 3.434 3.268 5.5527 1.585 3.4163 3.453 8.916 3.542 9.6222.266 2.1363 1.559 9.7017 1.904 11.8203.54 3.2928 2.01 8.9778 2.223 9.4722.221.5208 2.382 5.9675 2.533 6.3736.292.7503 1.895 3.5222 2.356 4.1667 2.595 3.6635 3.516 4.3609 4.446 9.375 1.93 10.3724-.452 12.1384-2.64 16.8964-.903 1.96-3.206 5.182-4.18 7.636-1.638 4.14-.398 4.078-1.337 7.565-.416 1.218-1.293 3.275-1.01 4.573.319 1.457 7.316.15 6.828 3.999-.407 7.044-16.862 16.879-27.162 13.807" fill="#000"/><path d="m45.8272 145.978c11.2562 3.002 18.0933 4.335 20.5907-4.422 1.2222-2.622 1.9307-6.824.8856-14.946-1.1513-8.942.8237-12.526-1.045-14.583-.2125-.229-.6908-.468-.9565-.318-.549.318-1.0007-.167-1.4967-.415-.3985-.203-.8236-.388-1.1513-.671-.8945-.768-1.8509-1.491-2.586-2.392-1.2842-1.58-2.462-3.24-3.5956-4.926-1.2222-1.818-2.4355-3.6544-3.454-5.5877-1.0804-2.048-1.9306-4.2197-2.4974-6.4796-.062-.256-.1594-.512-.248-.768-.062 0-.1328 0-.1948 0 0 1.4478-.6554 2.6748-1.2665 3.9107-.4871.9975-4.2775 5.9856-5.8717 8.0246-1.5941 2.039-.6553 7.115-2.1166 8.933-3.8968 4.847-7.7049 6.921-8.2363 9.596-1.0096 5.067 1.1602 8.466 1.7801 10.47 1.6472 5.314 4.9063 10.478 8.192 12.721" fill="#000"/><path d="m51.4151 60.0938c-.3365-.7062-.1594-1.2094.3366-1.739 1.6295-1.7214 3.6133-2.0481 5.792-1.4919 1.7092.4326 3.3919.9446 5.0569 1.5095 1.1424.3885 1.8066 1.4125 2.5771 2.2776.1329.1501.1417.5385.0355.7062-.1063.1677-.4606.3001-.6643.2648-.549-.0971-1.0804-.3001-1.6118-.4678-1.3904-.4414-2.772-.9093-4.1713-1.3242-1.0539-.309-2.1343-.3972-3.2237-.1324-.2479.0618-.5313.0883-.7793.053-.9122-.1236-1.789 0-2.6569.2913-.1948.0706-.4339.0353-.6642.0441z" fill="#190602"/><path d="m64.62 62.0179c-.0532 0-.0975 0-.1417-.0088-.4517-.0795-.8857-.2296-1.3108-.362-.1151-.0353-.2302-.0794-.3542-.1147-.4783-.1501-.9476-.3002-1.417-.4591-.8945-.2913-1.8244-.5914-2.7455-.8651-1.0716-.3178-2.0635-.3619-3.0288-.1236-.2302.053-.5756.1059-.921.0618-.7971-.1147-1.6119-.0176-2.4886.2737-.1949.0618-.3897.0618-.5668.0618-.062 0-.1329 0-.2037 0l-.2569.0176-.1062-.2295c-.4871-1.024-.0355-1.6949.4074-2.1628 1.6029-1.6949 3.6753-2.2334 6.1639-1.5978 1.6384.4149 3.2945.9092 5.0835 1.5184 1.0273.3531 1.6827 1.1299 2.3115 1.8891.1417.1677.2834.3354.4251.4943.2656.3002.2568.8828.0708 1.1653-.1683.256-.5668.4502-.9122.4502zm-7.7581-2.8425c.6553 0 1.3196.0971 2.0015.3001.9299.2737 1.8598.5738 2.7631.8739.4694.1501.9477.309 1.417.4591.124.0353.2392.0794.3632.1148.4162.1324.8059.2648 1.2133.3354.0619 0 .2391-.053.2834-.1059.0177-.0442.0088-.1942-.0178-.256-.1417-.1678-.2834-.3355-.4251-.5032-.5933-.7062-1.1513-1.3771-1.9749-1.6508-1.7712-.6003-3.4097-1.0946-5.0303-1.5007-2.2318-.565-4.0031-.1148-5.4201 1.3859-.3719.3973-.4782.6974-.3631 1.0947.1152 0 .2214 0 .2923-.0265.9919-.3355 1.9129-.4326 2.834-.3001.186.0264.4074.0088.6376-.0442.4606-.1147.9388-.1677 1.417-.1677z" fill="#fff2e3"/><path d="m66.3207 64.6214c1.0096 2.3216.5668 4.7934-.2657 7.0974-.372 1.0152-.8325 1.9951-1.3285 2.9573-.5668 1.1123-1.107 2.3482-1.8863 3.3281-1.1071 1.3948-2.3292 2.5689-2.0104 4.5374.2745 1.7038 2.0989 1.9951 3.4097 2.6219.2656.1236.4959-.2649.2302-.3973-.7439-.3531-1.5853-.5473-2.2849-.9887-1.1247-.715-1.107-2.1275-.6554-3.2662.3366-.8475 1.0185-1.4301 1.5853-2.1187.6908-.8386 1.1513-1.8626 1.6561-2.816 1.7801-3.3811 3.5779-7.4153 1.9395-11.1759-.1151-.2649-.5136-.0353-.3985.2295z" fill="#000"/><path d="m63.4155 83.2124c1.293 1.0505 3.0288 1.739 4.7115 1.4919.7351-.106 1.2487-.5738 1.9484-.768 1.1867-.3267 2.0989.0971 3.1971.4855.186.0618.3277-.1942.186-.3178-.9831-.9358-2.7543-1.0505-3.9765-.5032-.8236.3708-1.4259.6974-2.3823.6709-1.2665-.0353-2.4178-.7062-3.5337-1.2447-.124-.0618-.2745.1059-.1505.203z" fill="#000"/><path d="m81.8446 89.9838c-.744-.3443-1.3196-.2913-2.0547.1677-.1505.0883-.735.2825-.8856.3443.0089.1854.2923.1148.2923.3002 0 .256-.0178.5031-.0355.7591.744-.3707 1.8067-.5208 2.6658-.5031.5048.0088.4428.6444.8324.8474.2214-1.0858.0266-1.5183-.8059-1.9068z" fill="#000"/><path d="m82.8546 92.3143-.3366-.1677c-.2568-.1236-.3719-.3619-.4605-.5473-.1151-.2295-.1505-.2648-.248-.2737-.7262-.0176-1.7801.106-2.5328.4767l-.4606.2296.0532-.5121c.0177-.2295.0354-.4325.0354-.6267-.0974-.0442-.2746-.1413-.2923-.3796l-.0177-.1942.1771-.0795c.0709-.0353.1772-.0706.3543-.1324.1683-.0618.4428-.1589.5048-.1942.8325-.5032 1.5056-.5562 2.3292-.1766.9653.4503 1.2133 1.0064.9653 2.2158l-.0708.3708zm-1.1602-1.5536h.1328c.3189 0 .5049.1765.62.3531-.0266-.4591-.2568-.6533-.7174-.874-.6465-.3001-1.1159-.2648-1.7889.1501-.0886.053-.2569.1236-.5048.2119.0265.0529.0443.1147.0443.1942v.3089c.7262-.256 1.5675-.3531 2.2229-.3531z" fill="#fff2e3"/><path d="m72.2362 85.2518c1.2221.3884 2.8162-.3885 3.5956-1.3419 1.0805-1.3153.4517-2.7454-.434-3.9636-.1682-.2384-.5668-.0088-.3985.2295.7528 1.0682 1.4347 2.3129.4694 3.487-.7351.9004-2.0547 1.483-3.206 1.4036-.1062 0-.1151.1412-.0265.1765z" fill="#000"/><path d="m59.4741 89.5253c.3985 1.28 1.7801 1.9156 2.958 2.3305 1.9661.6974 3.9056.7416 5.9691.7504 2.1875.0088 4.4015.1059 6.589-.0177 2.2229-.1324 4.2156-1.1123 6.4031-1.3771.3808-.0441.3808-.6444 0-.6003-1.7624.2207-3.392.9711-5.1366 1.2624-2.0104.3266-4.1182.1677-6.1463.1765-2.028.0089-4.0738.1766-6.0488-.2471-1.5764-.3443-3.5248-.8828-4.4192-2.3394-.0532-.0883-.2037-.0353-.1683.0706z" fill="#000"/><path d="m67.3212 90.5219c-.9122-.9799-2.2849-1.2094-3.5513-.768-.5845.2031-1.1159.5473-1.7093.7239-.8767.256-1.6738-.1942-2.214-.8828-.2126-.2648-.5846.1059-.372.3708.8325 1.0328 1.9484 1.3065 3.1528.8121.8945-.3707 1.5941-.7856 2.6038-.7945.3896 0 .6907.0265 1.0538.1942.124.0618.3897.2825.5314.3355.2834.0971.186.1766.4871.053.0177 0 .0266-.0265.0089-.0353z" fill="#000"/><path d="m68.1361 89.7631c-.3543.0795-.9211.2472-1.1602.5385l.3631.2737c.2657-.362 1.3373-.3531 1.7624-.3708.6377-.0176 1.293.203 1.9218.309 1.1602.203 2.3381.3884 3.5071.5473 1.9129.256 4.3838.5032 6.1639-.4061.2657-.1324.0355-.5296-.2302-.3972-1.1779.6003-2.6746.5561-3.9588.512-1.2841-.0442-2.4974-.2472-3.7462-.4414-1.107-.1677-2.2583-.5032-3.3742-.5738-.6819-.0441-2.0015-.0177-2.4532.5826-.1505.2031.1949.4767.3631.2737.2037-.2384.6554-.3531.9565-.4149s.1683-.5032-.124-.4414z" fill="#000"/><path d="m59.8376 90.5042c.3808 1.6508 2.0192 2.8337 3.4008 3.6459 1.9749 1.1564 4.2067 1.6243 6.4916 1.3859 2.3026-.2472 4.5609-.9975 6.7307-1.7743 1.9572-.6974 3.9145-1.5008 5.5617-2.7719.2569-.1943-.0885-.6445-.3454-.4503-1.5232 1.1476-3.3122 1.9068-5.0923 2.5601-1.851.6709-3.7816 1.3241-5.7211 1.6861-2.2672.4237-4.5964.3089-6.6953-.7062-1.5322-.7327-3.4983-1.9333-4.0208-3.6547-.062-.1942-.3542-.1148-.3099.0883z" fill="#000"/><path d="m59.9882 89.684c-.1152-.3708-.3986-.4855-.5225-.3443-.2037.2295-.1417.5385.0088.9357.1329.362.62 1.077.9299 1.333.2657.2295-.4251-.7945-.1771-1.0417.062-.0529.7085.2561.7616.1943-.0708-.2825-.2037-.2472-.4516-.4238-.186-.1324-.4428-.3178-.5491-.6621z" fill="#000"/><path d="m79.9946 86.9471c.7882.7063 2.1432 1.7038 2.4089 2.7543s-.3011 1.9774-.7882 2.8425c-.0974.1766.1063.4061.2922.2913.8679-.5561 1.1691-2.0745 1.0096-3.0367-.2125-1.3153-1.7801-2.3217-2.7985-3.0191-.0975-.0706-.2126.0883-.124.1589z" fill="#000"/></g></g></svg>