<svg width="163" height="163" viewBox="0 0 163 163" fill="none" xmlns="http://www.w3.org/2000/svg">
<g clip-path="url(#clip0_5795_5508)">
<circle cx="81.5" cy="81.5" r="81.5" fill="#FFDEB5"/>
<g clip-path="url(#clip1_5795_5508)">
<path d="M114.723 126.639C114.723 126.639 99.7922 141.681 93.7099 141.908C87.6277 142.135 79.8438 142.039 79.8438 142.039L66.8241 141.034L57.2862 133.671L52.6351 124.385L49.2406 115.475L48.7868 109.876C45.3748 110.435 40.2524 112.025 40.2524 112.025C40.2524 112.025 41.7708 124.708 43.3241 128.753C44.5632 131.976 48.429 138.754 51.012 141.043C54.2146 143.882 62.2079 148.049 66.3878 148.975C70.0441 149.787 77.924 150.346 81.6327 149.831C86.0133 149.219 95.5774 147.123 99.8533 145.157C103.23 143.594 109.487 139.418 112.314 136.999C114.522 135.112 119.924 129.382 121.564 126.979C123.022 124.848 125.613 118.961 125.613 118.961L114.732 115.886L114.269 122.926C114.644 121.966 114.732 115.886 114.732 115.886C143.939 123.188 170.074 137.235 193.583 156.05C197.789 159.422 201.925 163.012 204.857 167.537C209.028 173.983 210.425 181.784 211.707 189.349C214.5 205.806 217.17 222.289 219.718 238.79C221.062 247.499 222.022 257.5 216.14 264.06L212.51 265.388C199.84 261.256 161.705 264.06 126.146 264.165C66.2307 264.349 55.9773 261.929 -3.71953 266.96C-20.2297 268.349 -37.3944 272.525 -52.9535 266.829C-54.2537 266.358 -55.8332 265.851 -56.9065 266.725C-57.9798 267.598 -56.5662 269.922 -55.6499 268.882L-56.9152 264.025C-61.802 260.601 -61.0689 253.264 -59.7338 247.437C-53.2327 219.101 -45.2132 191.122 -35.719 163.65C-34.2791 159.483 -33.5636 154.102 -30.6664 150.783C-27.8915 147.603 -23.3974 141.113 -19.6713 139.13C3.39243 126.857 42.2857 109.614 48.8042 109.867C48.8042 109.867 48.9264 107.325 49.3715 118.262C49.4151 119.24 49.4587 120.245 49.8252 121.153C50.375 122.49 51.5443 123.442 52.6351 124.376C61.0473 131.557 68.805 141.567 79.8438 142.039C85.2977 142.266 90.5248 140.012 95.5163 137.794C103.64 134.186 112.707 129.521 114.932 120.9" fill="#DEB68B"/>
<path d="M-34.5237 270C-40.8503 270 -47.0896 269.266 -53.0584 267.074C-54.0358 266.715 -55.1091 266.375 -55.973 266.558L-55.3535 268.943L-55.4495 269.048C-55.7112 269.345 -56.0516 269.458 -56.4006 269.371C-56.9068 269.24 -57.378 268.655 -57.5263 267.982C-57.6572 267.371 -57.5001 266.829 -57.09 266.497C-56.9417 266.375 -56.7933 266.279 -56.6275 266.209L-57.1511 264.182C-61.0256 261.404 -61.9506 255.901 -59.9959 247.367C-53.5209 219.126 -45.4404 190.929 -35.9723 163.553C-35.5709 162.409 -35.2393 161.177 -34.8815 159.884C-33.9565 156.521 -32.9966 153.036 -30.8674 150.59C-30.1867 149.813 -29.3839 148.808 -28.5375 147.751C-25.9108 144.476 -22.6472 140.396 -19.7937 138.876C-2.96932 129.923 25.1469 116.969 39.9729 111.815L40.0602 111.789C43.9958 110.426 46.9889 109.614 48.5684 109.587C48.6033 109.448 48.6731 109.334 48.8563 109.334C49.1618 109.334 49.2665 109.334 49.537 115.414L52.8879 124.21C54.6768 125.739 56.457 127.425 58.1935 129.049C64.3194 134.814 70.6373 140.763 78.6131 141.663L79.8959 141.759C79.8959 141.759 79.8959 141.759 79.9046 141.759C79.957 141.759 80.402 141.759 81.1263 141.768C86.1963 141.637 91.0918 139.47 95.4462 137.531C102.942 134.203 111.058 130.071 114.033 122.847L114.487 115.859V115.527H114.513L114.836 115.606C118.431 116.506 122.009 117.519 125.561 118.637L126.023 118.768V118.785C149.689 126.315 172.439 138.737 193.783 155.823C197.649 158.923 202.038 162.618 205.119 167.379C209.421 174.027 210.8 182.142 212.012 189.296C214.787 205.683 217.484 222.323 220.023 238.737C221.393 247.577 222.344 257.57 216.384 264.235L216.341 264.287L212.554 265.676L212.466 265.65C203.574 262.75 182.247 263.274 157.551 263.894C147.281 264.147 136.661 264.409 126.189 264.444C109.12 264.497 96.1967 264.339 84.7826 264.2C56.2475 263.85 39.0218 263.641 -3.6587 267.24C-7.26267 267.545 -10.9626 267.991 -14.5404 268.419C-21.1375 269.214 -27.8481 270.017 -34.4626 270.017L-34.5237 270ZM-55.4582 265.964C-54.6205 265.964 -53.7129 266.252 -52.8752 266.567C-40.7805 270.996 -27.499 269.406 -14.6626 267.868C-11.0761 267.44 -7.36739 266.995 -3.75469 266.689C38.952 263.09 56.1865 263.3 84.739 263.649C96.1443 263.789 109.068 263.946 126.137 263.894C136.6 263.859 147.22 263.597 157.49 263.344C182.151 262.732 203.469 262.199 212.501 265.099L215.983 263.824C221.742 257.343 220.791 247.524 219.447 238.824C216.908 222.411 214.22 205.77 211.437 189.392C210.232 182.29 208.862 174.236 204.621 167.685C201.585 162.994 197.239 159.325 193.408 156.259C172.098 139.199 149.384 126.796 125.753 119.292C125.255 120.41 123.082 125.206 121.782 127.119C120.177 129.469 114.792 135.216 112.489 137.19C109.731 139.549 103.413 143.803 99.9665 145.393C95.5509 147.437 85.856 149.507 81.6761 150.092C77.9586 150.616 70.0002 150.049 66.3352 149.236C62.2164 148.328 54.1096 144.144 50.8372 141.244C48.2455 138.946 44.3448 132.141 43.0795 128.848C41.6571 125.145 40.2871 114.462 40.034 112.391C35.1909 114.077 28.6723 116.68 20.8797 120.061C7.22303 125.974 -8.2662 133.382 -19.5406 139.383C-22.2894 140.85 -25.5182 144.877 -28.1099 148.118C-28.9563 149.175 -29.7592 150.18 -30.4485 150.974C-32.4992 153.324 -33.4417 156.74 -34.3492 160.05C-34.707 161.352 -35.0473 162.584 -35.4487 163.754C-44.9081 191.113 -52.9799 219.292 -59.4548 247.516C-61.3659 255.866 -60.4845 261.204 -56.741 263.815L-56.6624 263.876L-56.0952 266.06C-55.8858 266.017 -55.6589 265.99 -55.432 265.99L-55.4582 265.964ZM-56.4966 266.75C-56.5839 266.803 -56.6711 266.855 -56.7497 266.925C-57.09 267.205 -57.0551 267.641 -57.0027 267.868C-56.898 268.34 -56.5839 268.768 -56.2697 268.847C-56.1999 268.864 -56.0865 268.873 -55.9643 268.786L-56.4966 266.75ZM40.5489 112.217C40.7583 113.937 42.1632 124.987 43.5769 128.647C44.8248 131.897 48.6556 138.588 51.1863 140.833C54.4063 143.689 62.3909 147.804 66.4399 148.703C70.07 149.507 77.9237 150.066 81.5888 149.551C85.7425 148.965 95.3677 146.913 99.7308 144.895C103.143 143.323 109.4 139.112 112.122 136.771C114.409 134.814 119.74 129.128 121.329 126.804C122.568 124.987 124.688 120.323 125.229 119.117L114.993 116.226C114.976 117.1 114.932 119.205 114.81 120.864L115.194 120.96C115.002 121.712 114.758 122.428 114.47 123.118L113.876 124.612L113.894 124.35C110.464 130.962 102.768 134.858 95.6207 138.029C92.4443 139.435 88.9887 140.973 85.3586 141.768C87.9154 141.759 90.9871 141.715 93.6922 141.619C99.5912 141.401 114.374 126.586 114.522 126.437L114.906 126.822C114.295 127.442 99.8268 141.942 93.7097 142.169C89.1458 142.335 83.5609 142.327 81.1001 142.318C80.6725 142.327 80.2537 142.318 79.8261 142.309C79.381 142.292 78.936 142.257 78.4997 142.204L66.7104 141.296L66.6493 141.244L57.0591 133.836L57.0329 133.784L52.408 124.542L52.2945 124.446C51.2212 123.529 50.1042 122.585 49.5632 121.249C49.1705 120.288 49.1269 119.213 49.0832 118.27C49.0396 117.222 48.996 116.296 48.9611 115.484L48.5335 110.181C45.584 110.697 41.5175 111.911 40.5402 112.208L40.5489 112.217ZM66.9286 140.772L74.6252 141.366C68.2724 139.322 62.9668 134.325 57.8008 129.46C56.3959 128.132 54.9473 126.778 53.4988 125.494L57.5041 133.495L66.9286 140.772ZM49.5894 117.143C49.6068 117.493 49.6155 117.868 49.633 118.253C49.6679 119.196 49.7115 120.174 50.0693 121.048C50.462 122 51.195 122.76 51.9978 123.467L49.5894 117.134V117.143Z" fill="#291510"/>
<path d="M50.1129 99.6202C49.6416 105.429 48.8563 109.648 48.9872 115.475C49.0395 117.58 48.9872 120.716 49.8511 122.62C50.4445 123.939 51.4654 127.066 52.2595 128.254C53.7343 130.447 55.0258 132.368 56.5791 134.491C60.375 139.688 66.3177 142.431 72.5046 142.807C78.6916 143.182 87.479 143.759 93.4303 141.907C100.036 139.854 104.295 138.597 110.002 133.277C111.119 132.237 113.955 128.149 114.435 126.638C114.67 125.887 114.705 121.685 114.644 120.899C114.042 113.675 115.36 109.386 114.766 102.162C111.974 104.259 107.166 108.696 103.998 110.059C100.481 111.57 96.6678 112.103 92.8893 112.54C86.0566 113.334 78.9621 113.85 72.461 111.491C70.2096 110.679 68.0804 109.526 65.829 108.705C62.9667 107.657 59.9213 107.132 57.2161 105.7C54.5109 104.259 52.0937 101.577 52.0676 98.3711" fill="#FFF2E3"/>
<path d="M50.2689 99.6215C49.6581 104.801 48.9076 109.981 48.9862 115.205C49.0211 117.336 48.9513 119.564 49.4923 121.634C49.9373 123.355 50.7489 125.093 51.447 126.727C52.2847 128.683 53.6111 130.395 54.8153 132.143C56.1243 134.047 57.4245 135.951 59.1349 137.523C62.2589 140.406 66.2556 142.205 70.4355 142.861C74.7812 143.542 79.3974 143.577 83.7867 143.498C88.2634 143.42 92.3647 142.695 96.6232 141.332C100.506 140.083 104.215 138.545 107.496 136.065C110.419 133.863 112.671 131.278 114.434 128.063C115.917 125.364 115.271 121.809 115.158 118.848C114.94 113.266 115.839 107.728 115.402 102.146C115.385 101.919 115.114 101.683 114.896 101.858C111.982 104.068 109.303 106.601 106.222 108.593C102.243 111.161 97.2951 111.728 92.6963 112.253C87.8532 112.803 82.9054 113.205 78.0536 112.462C73.097 111.702 68.8822 109.125 64.1438 107.693C59.3967 106.26 52.9305 104.408 52.6861 98.3549C52.6687 97.9182 51.988 97.9182 52.0055 98.3549C52.1713 102.425 55.3826 105.273 58.9342 106.723C61.395 107.728 64.0216 108.252 66.4999 109.204C69.0393 110.182 71.439 111.493 74.0569 112.27C79.0571 113.755 84.354 113.711 89.5025 113.257C94.494 112.812 99.8345 112.392 104.468 110.34C108.517 108.549 111.755 105.081 115.245 102.443L114.739 102.155C115.088 106.662 114.591 111.1 114.477 115.598C114.39 118.996 114.861 122.385 114.538 125.775C114.407 127.12 113.587 128.273 112.863 129.382C112.034 130.649 111.161 131.959 110.079 133.034C107.051 136.012 103.351 138.222 99.3807 139.698C95.4713 141.148 91.5008 142.354 87.3209 142.686C83.141 143.018 78.6469 142.817 74.3274 142.564C69.973 142.302 65.8541 141.454 62.1455 139.043C58.1139 136.423 55.2866 132.125 52.7821 128.107C51.7611 126.465 51.2201 124.543 50.4871 122.77C49.5708 120.568 49.5795 118.184 49.5272 115.834C49.4137 110.392 50.2166 105.046 50.4871 99.6215C50.4871 99.4905 50.3038 99.4992 50.2951 99.6215H50.2689Z" fill="#231815"/>
<path d="M113.204 109.615C114.26 107.553 115.831 103.159 117.917 102.163C119.775 101.272 125.186 94.8172 125.709 92.4849C126.547 88.7724 127.28 85.0163 127.751 81.2427C128.153 78.0369 128.187 74.77 128.266 71.5292C128.414 64.9953 126.73 58.8982 123.99 53.0019C121.8 48.2937 117.917 44.7035 115.84 39.9254C115.316 38.72 114.138 37.6717 113.021 36.8943C108.728 33.8981 104.338 31.0417 99.9753 28.1417C99.7047 27.967 99.3906 27.7748 99.0764 27.7573C97.0607 27.6438 95.4288 26.6392 93.7796 25.6259C92.9855 25.1368 93.2996 25.1805 91.7376 24.3069C91.2053 24.0536 90.8562 23.8702 90.4985 23.7042C89.5996 23.2937 88.7357 22.6909 87.802 22.5337C84.5558 21.9921 81.3009 21.6427 78.0373 22.5424C77.409 22.7171 77.1036 22.6647 75.7772 23.4771C74.285 24.3856 72.9411 25.4163 71.4663 25.7832C64.6249 27.504 58.4467 30.5351 52.9753 34.9289C51.6489 35.9946 50.7239 37.5844 49.6767 38.9733C49.2578 39.5323 49.1182 40.3185 48.6557 40.8251C45.0867 44.6861 42.0935 48.9314 39.9381 53.7357C37.3115 59.6057 36.2207 65.8339 36.3342 72.2106C36.4214 77.0935 36.8316 81.9677 37.294 86.8332C37.4948 88.8947 38.0096 90.9737 38.7252 92.9216C39.2313 94.2931 40.0516 95.8217 41.186 96.6253C43.0098 97.9181 47.8965 99.1847 49.9909 102.845C51.9892 106.348 50.4359 109.099 53.3243 112.742C53.6123 113.109 55.4012 115.441 56.1429 116.367C58.0278 118.725 60.0174 119.642 60.5672 120.088C71.9986 129.548 83.2469 128.832 85.7863 128.64C97.8635 127.705 106.773 119.433 108.693 117.17C109.915 115.738 113.868 110.008 113.213 109.597L113.204 109.615ZM116.538 50.0407C126.913 54.3559 125.273 68.5767 123.877 79.3122C123.763 79.3647 123.536 79.583 123.536 79.4607C123.536 75.6784 117.454 71.4593 116.608 70.7343C116.416 70.5684 116.442 70.0792 116.468 69.7385C116.66 67.0394 117.105 64.3402 117.026 61.6585C116.931 58.3566 116.407 55.0634 116.084 51.7616C116.032 51.2025 116.389 49.997 116.529 50.0495L116.538 50.0407ZM50.2875 65.0215C47.6347 64.6459 46.3694 65.4408 44.7289 66.8559C44.1093 67.3888 42.8178 69.0834 42.3379 69.9132C41.7096 70.9789 41.1685 72.097 40.3221 73.1016C40.1127 67.9391 40.4093 62.8814 42.3989 58.0945C44.7638 52.3992 48.3416 47.6123 53.333 43.8126C50.9158 50.626 49.86 57.5879 50.2963 65.0128L50.2875 65.0215Z" fill="#070215"/>
<path d="M113.109 74.2457C112.533 74.4903 112.306 79.251 112.262 79.4606C112.026 80.4564 111.887 81.4785 111.608 82.4655C109.836 88.5627 103.492 92.5546 97.3837 90.1874C96.9299 90.0127 96.0049 89.7594 95.5337 89.5934C94.5825 89.2527 93.6139 89.2964 93.7273 90.4058C93.8233 91.3579 94.6349 92.7381 94.7832 93.83C94.8879 94.5987 92.8896 95.9264 92.0257 95.9963C91.537 96.0312 90.6731 96.6514 90.4724 97.1057C89.783 98.6431 91.537 100.032 93.1427 100.661C93.6575 100.862 94.1986 101.124 94.6 101.499C95.8042 102.626 96.7117 104.461 95.9613 105.928C95.8391 106.173 95.5424 106.741 94.8879 107.23C94.0502 107.867 93.3957 107.553 92.366 107.658C91.2142 107.78 90.8651 107.867 89.8092 108.435C88.989 108.881 88.4479 109.492 87.9942 110.444C87.9243 110.584 87.7934 110.995 87.0081 111.929C85.8475 113.318 84.6694 113.676 83.0463 113.912C81.3621 114.157 79.2504 113.58 78.1596 111.685C77.9152 111.257 77.4091 110.715 77.6534 110.27C77.8978 109.824 78.6395 109.938 79.1369 109.946C80.6902 109.973 81.9904 110.706 83.535 110.785C84.5473 110.837 85.9085 110.846 87.043 110.139C88.2734 109.37 91.6854 107.396 92.1392 105.378C92.3137 104.6 90.6906 105.256 87.3746 105.605C87.1302 105.631 84.4425 105.841 84.1109 105.797C82.0428 105.535 81.336 105.474 79.2591 105.256C78.369 105.159 74.2938 103.875 73.2205 103.701C71.5188 103.43 69.7299 102.504 69.1104 105.09C68.8748 106.068 67.5745 105.413 67.7054 104.4C67.8974 102.932 68.2028 101.386 68.8922 100.111C69.5554 98.8876 71.7195 98.1976 73.2466 98.3897C75.1141 98.6256 78.0723 95.114 77.2259 94.1969C77.0688 94.0309 76.8768 93.6465 76.8593 93.4369C76.8332 93.1224 77.1822 92.7381 77.444 92.7381C78.0199 92.7381 78.2643 92.8604 78.6919 93.7688C78.9711 94.3541 79.5907 95.4023 80.0183 95.8391C80.7426 96.5903 81.6763 97.027 82.4355 97.4813C83.5437 98.1364 85.0796 98.5906 86.8074 97.6909C87.9767 97.0795 88.5177 95.9963 89.4514 95.3412C90.9524 94.2755 90.7953 95.0267 92.8373 93.6815C93.6663 93.1312 92.9769 90.4931 92.7325 89.8729C91.7377 87.2786 90.3415 84.9114 89.4427 82.2821C88.6399 79.9411 88.6661 77.8796 89.1635 75.3638C89.53 73.5207 88.3607 72.6297 86.5019 72.2366C85.4635 72.0095 84.3291 72.1056 83.2557 72.2104C82.2871 72.3153 81.7897 72.9791 81.7286 73.9924C81.5628 76.7353 80.507 79.1112 78.8577 81.3212C75.7773 85.453 69.7736 87.4096 65.1574 85.5578C59.3194 83.208 57.3822 78.1067 58.2286 72.2192C58.2985 71.765 58.281 71.0312 58.0105 70.8303C55.9598 69.2754 54.0051 69.5812 52.67 71.8523C51.4657 73.9051 50.5495 76.7353 49.8339 78.9627C49.1271 81.1553 48.7606 89.7507 48.8653 91.4103C49.066 94.5899 50.8462 101.875 52.2511 105.483C52.9754 107.352 56.5968 113.676 58.7959 116.026C62.871 120.385 69.6689 123.914 76.2223 125.084C84.4774 126.561 89.4776 124.91 90.5597 124.569C93.2561 123.713 98.6664 121.922 102.419 119.153C106.511 116.131 108.806 114.227 111.058 110.671C112.864 107.815 114.173 105.928 115.037 102.163C115.849 98.5906 116.425 93.5592 116.433 90.7901C116.442 87.5494 115.404 80.7534 114.714 78.0717C114.636 77.766 114.025 73.8439 113.1 74.2457H113.109Z" fill="#FFF2E3"/>
<path d="M63.7783 49.2444C63.7957 49.1134 63.5165 49.2444 63.403 49.2968C63.1412 49.4104 62.5217 49.6549 61.8585 49.9956C60.6019 50.6333 60.471 50.7119 59.1533 51.8562C59.0312 51.961 58.7432 52.2405 58.5774 52.4327C57.1201 54.0749 56.9805 54.2147 56.1078 55.9006C55.7064 56.6693 55.3835 57.9359 55.2177 58.7657C54.7814 60.8884 54.4935 63.0547 54.2753 65.2123C53.9437 68.5316 55.1043 69.4925 58.2545 68.5491C58.7083 68.4181 59.3628 67.9551 59.3977 67.597C59.5373 66.1469 60.5408 65.9023 61.5181 65.387C62.7922 64.7231 64.0837 64.4174 65.3577 64.2077C66.6231 63.9981 67.4521 63.867 69.2846 63.8758C70.1834 63.8758 71.0997 63.9195 71.981 64.0854C75.4366 64.7144 78.9359 65.2472 80.1401 69.4401C80.3234 70.0777 80.7074 71.5016 81.9116 70.9949C84.4684 69.9292 86.7983 70.4796 89.0933 71.6413C89.8962 72.0519 90.3412 71.8422 90.9608 71.1784C91.8421 70.2524 92.8893 69.1431 94.0499 68.8723C98.8668 67.7629 103.754 66.9593 108.152 70.3223C108.283 70.4184 108.422 70.5145 108.562 70.5931C109.722 71.1609 112.113 71.3181 112.855 70.2874C114.731 67.6581 114.635 64.0854 114.723 62.714C114.81 61.3426 113.946 54.5379 113.483 53.2363C112.305 49.9694 110.386 48.6766 107.558 48.1088C106.162 47.8293 104.792 47.4013 103.422 46.9994C102.183 46.6326 100.961 45.8988 99.722 45.8551C97.2961 45.7765 94.844 45.96 92.4268 46.2308C89.8002 46.5277 87.3481 46.5802 85.6028 44.143C85.533 44.047 85.437 43.9334 85.3323 43.8985C84.608 43.6626 83.8837 43.2695 83.1507 43.2695C81.5189 43.2695 79.8871 43.4792 78.2553 43.584C76.1784 43.715 74.1801 44.0295 72.618 45.6193C71.9636 46.2919 71.0909 46.7636 70.4975 47.4799C69.7733 48.3621 69.1624 49.3579 68.6476 50.38C68.3858 50.8953 68.3421 51.1399 67.6353 50.9827C66.2915 50.6857 66.5096 49.62 66.37 48.5543C65.6108 49.5676 65.7853 50.4498 66.0558 51.3845C66.1518 51.7077 65.9686 52.1357 65.8377 52.4939C65.8202 52.5463 65.3141 52.5113 65.2007 52.424C64.2757 51.7514 63.6037 51.1923 63.8045 49.2531L63.7783 49.2444Z" fill="#FFF2E3"/>
<path d="M79.8169 72.2541C79.5202 69.4151 78.0542 67.7292 76.911 67.144C76.5533 66.9606 75.6981 66.6024 75.5672 66.55C73.8045 65.8162 71.492 65.3358 69.4675 65.2048C68.0189 65.1087 65.7239 65.3445 64.1619 65.8075C63.1496 66.1132 60.4619 67.3886 60.2263 68.2708C59.6591 70.3935 58.8912 72.5336 58.8214 74.6824C58.6905 78.4735 59.9994 81.7404 63.4114 83.9242C65.9246 85.5315 68.6472 85.5402 71.3785 85.1122C74.2582 84.6667 76.5969 83.1555 78.124 80.6136C78.412 80.1419 79.4853 78.0892 79.7471 76.8313C80.0961 75.1192 80.0351 74.333 79.8169 72.2541Z" fill="#FFF2E3"/>
<path d="M111.057 78.3325C110.839 74.8996 109.076 73.2224 107.191 71.851C105.437 70.5844 103.552 69.9642 101.737 69.8943C99.3112 69.7983 97.1296 70.104 95.3581 70.7242C93.2027 71.4841 91.1433 73.3709 90.611 77.8957C90.4801 78.9964 90.7506 82.4206 91.2306 83.4076C91.8502 84.683 92.4872 86.1068 93.5256 86.9891C98.9272 91.5663 106.528 90.7888 109.826 84.1414C110.524 82.735 111.179 80.3503 111.057 78.3238V78.3325Z" fill="#FFF2E3"/>
<path d="M83.997 101.499C82.9673 101.848 81.7456 101.883 80.9254 101.237C78.9358 99.6817 75.707 100.45 73.2462 100.992C72.7139 101.106 71.7016 101.455 71.8064 102.049C71.8936 102.573 72.8186 102.529 73.3247 102.512C76.0823 102.451 78.7787 102.625 81.414 103.586C83.0022 104.172 89.7302 104.163 91.4668 103.429C91.0566 102.005 87.2781 100.389 84.0058 101.49L83.997 101.499Z" fill="#FFF2E3"/>
<path d="M61.0716 67.1433C62.4766 67.3355 63.8728 67.0036 65.2515 66.7415C66.7874 66.4445 68.2883 66.2786 69.8503 66.3572C71.2727 66.4358 72.6951 66.6716 74.0651 67.0647C75.5312 67.4927 76.8488 68.2352 78.2887 68.7419C79.3097 69.1 80.2346 67.5801 79.3707 66.8725C77.0844 65.0032 73.655 64.2869 70.7666 64.1297C67.5204 63.955 64.0735 64.7412 61.0716 65.9554C60.5917 66.1475 60.3997 67.0385 61.0716 67.1346V67.1433Z" fill="#070215"/>
<path d="M109.661 69.3794C106.659 68.1564 103.221 67.3877 99.9658 67.5537C97.0774 67.7022 93.6392 68.4272 91.3616 70.2965C90.4977 71.0041 91.4227 72.524 92.4437 72.1659C93.805 71.6854 95.0529 70.9779 96.4404 70.5499C97.8278 70.1218 99.3724 69.851 100.873 69.7724C102.339 69.6938 103.779 69.8248 105.219 70.1044C106.676 70.3839 108.16 70.7682 109.643 70.5586C110.315 70.4625 110.123 69.5715 109.643 69.3794H109.661Z" fill="#070215"/>
<path d="M93.0206 78.8575C93.0467 78.4644 94.7309 77.6346 95.0887 77.521C95.6995 77.3288 96.3278 77.3026 96.9561 77.4162C97.8026 77.5647 98.6141 77.7918 99.4693 77.8879C101.948 78.1674 104.243 78.7876 106.459 79.9494L106.642 79.2593H106.224C105.883 79.2768 105.805 79.7747 106.145 79.8708L106.546 79.9931C106.948 80.1066 107.21 79.5126 106.834 79.3117C103.763 77.7044 100.656 77.4599 97.3052 76.9008C96.2057 76.7174 95.1323 76.8397 94.1637 77.4336C93.7361 77.6957 92.7413 78.3771 92.9071 78.9798C92.9246 79.0584 93.0118 79.1021 93.0904 79.0846L93.1864 79.0671C93.2649 79.0497 93.2911 78.971 93.2824 78.9012V78.8313C93.2475 78.6828 93.0293 78.7265 93.0206 78.8662V78.8575Z" fill="#291510"/>
<path d="M97.7243 77.4167L97.6719 77.3993C97.6719 77.3993 97.5847 77.3993 97.5585 77.4255L97.5149 77.4691C97.5149 77.4691 97.4712 77.5478 97.48 77.5827C97.5672 77.8884 97.4625 78.1767 97.5847 78.4999C97.6719 78.727 97.8028 78.9541 97.9774 79.1288C98.3264 79.4957 98.8413 79.6966 99.3474 79.6529C99.9582 79.6092 101.608 78.43 100.84 77.7661C100.717 77.6613 100.491 77.6526 100.412 77.8185C100.229 78.2291 99.8186 78.9192 99.3038 78.9716L98.3177 78.5523L98.6144 78.6047C98.3962 78.4475 98.1432 78.3863 97.925 78.2204L97.8552 78.7619C98.0297 78.7008 98.1955 78.6659 98.3788 78.6571C98.6057 78.6571 98.5708 78.596 98.2741 78.4475C98.4922 78.2902 98.4486 78.002 98.2042 77.9059C97.7679 77.7399 96.9215 77.1896 96.7033 77.9059C96.5201 78.4999 97.0873 79.0851 97.5323 79.3821C98.7104 80.1508 101.093 80.2644 101.11 78.3601C101.11 78.0719 100.752 77.9234 100.543 78.1243C100.316 78.3514 100.08 78.5261 99.7924 78.6746L100.272 79.0415C100.29 78.8056 100.395 78.6222 100.595 78.4999C100.813 78.3164 100.63 77.9321 100.368 77.9408C99.7663 77.967 99.3125 78.1854 98.9547 78.6746C98.7453 78.9541 99.1903 79.2861 99.4347 79.0415C99.6965 78.7707 99.9844 78.6047 100.368 78.5872L100.141 78.0282C99.8622 78.2553 99.7139 78.4999 99.6441 78.8493C99.583 79.1288 99.8622 79.3559 100.124 79.2162C100.464 79.0327 100.735 78.8318 101.005 78.561L100.438 78.3252C100.421 79.6005 98.7453 79.3035 98.0035 78.9192C97.8552 78.8406 97.0698 78.3077 97.1396 78.1155C97.1396 78.1155 97.9599 78.43 98.0297 78.4562L97.9599 77.9146C97.637 78.1505 97.5149 78.5698 97.7941 78.9104C98.1344 79.3297 98.7802 79.2598 99.2165 79.0502C99.3038 79.0065 99.3648 78.893 99.3648 78.7969C99.3212 78.002 98.2653 77.9932 97.6894 78.1767C97.4363 78.2553 97.4189 78.5698 97.6196 78.7183C97.9948 78.9891 99.5743 79.5306 99.5743 78.6047C99.5743 77.8011 98.2042 77.9583 97.7679 78.2116C97.6807 78.264 97.6196 78.3601 97.6283 78.4562C97.6719 79.155 98.7191 79.452 99.2078 79.024C99.7924 78.5174 99.2776 77.6089 98.5446 77.8447C97.7679 78.0981 97.9599 79.1463 98.5969 79.4433C99.5743 79.8975 100.517 78.8755 100.874 78.0719L100.447 78.1243C100.665 78.3164 99.5306 79.0851 99.4521 79.1026C99.042 79.2162 98.5707 79.0851 98.2653 78.8056C98.021 78.5872 97.8726 78.264 97.7854 77.9583C97.576 77.1285 97.8377 77.6264 97.6545 77.5914C97.7941 77.6176 97.8552 77.4167 97.7156 77.373L97.7243 77.4167Z" fill="#291510"/>
<path d="M61.6134 74.4015C63.8822 74.7596 66.2034 74.7072 68.4897 74.8295C69.7551 74.8906 71.0291 74.978 72.2857 75.1964C73.5423 75.4148 75.4621 75.6855 76.3522 76.6726L76.4133 76.2009C76.038 76.4368 75.6541 76.5067 75.2439 76.428C74.86 76.3931 74.8687 76.9784 75.2439 77.022C75.8111 77.0919 76.2213 76.9871 76.7099 76.7163C76.8845 76.6202 76.8932 76.3844 76.771 76.2446C75.3399 74.6723 72.1897 74.5587 70.1914 74.4277C67.3466 74.2355 64.4756 74.3403 61.6309 74.2617C61.5523 74.2617 61.5349 74.384 61.6134 74.3927V74.4015Z" fill="#291510"/>
<path d="M66.7351 74.9859C67.1627 75.475 68.9516 77.0299 69.6671 76.2699C70.3303 75.5711 68.681 75.0295 68.2535 75.0295C68.14 75.0295 68.0266 75.1344 68.0353 75.2479C68.1138 76.6368 71.1593 76.3748 72.0058 76.1913C72.2414 76.1389 72.2414 75.7633 72.0058 75.7109C70.9848 75.4925 69.9638 75.3265 68.9254 75.1955V75.7109C69.7282 75.7458 70.4787 75.6847 71.2728 75.5274C71.4997 75.4838 71.5171 75.1606 71.3338 75.0557C70.3914 74.4792 69.2832 74.453 68.2011 74.4355C67.9917 74.4355 67.8346 74.7325 68.0179 74.881C68.62 75.3615 69.1959 75.5973 69.9725 75.6672C70.2256 75.6934 70.3391 75.2829 70.1034 75.1693C69.5101 74.8898 68.2709 74.4443 67.7386 75.082C67.2063 75.7196 67.9568 76.2263 68.5502 76.3311C68.8381 76.3835 69.0388 75.9991 68.7596 75.8332C68.428 75.641 68.1836 75.5799 67.8084 75.5886C67.599 75.5886 67.4245 75.8943 67.6164 76.0516C68.9254 77.0998 70.7317 77.0299 71.9098 75.8244C72.1367 75.5973 71.8487 75.2304 71.5695 75.3877L70.4699 75.9991C70.1907 76.1564 70.3827 76.5931 70.6881 76.5058C71.4211 76.2961 72.0232 75.9729 72.6079 75.4838L72.2065 75.082C71.3513 76.0079 68.8556 76.9251 68.1575 75.2741L67.6775 75.5536C68.8119 76.6281 71.2728 77.9995 72.0232 75.7284C72.0756 75.5624 71.9272 75.344 71.744 75.3615C70.8539 75.4576 68.0178 76.2263 67.5903 75.0994L67.1103 75.3789C68.8032 76.7853 71.3339 77.3968 72.8261 75.3789C73.0442 75.082 72.5468 74.7937 72.3286 75.0907C71.3775 76.3573 69.8242 76.8377 68.3145 76.3922L68.1575 76.9513C69.7806 77.1871 71.36 77.3618 72.8959 76.6717C73.1838 76.5407 72.9744 76.0341 72.6777 76.1564C71.2553 76.7416 69.798 76.6019 68.3058 76.3922C67.948 76.3398 67.7822 76.8377 68.1487 76.9513C69.9202 77.4754 71.7091 76.8552 72.8086 75.3877L72.3112 75.0994C71.0546 76.8115 68.873 76.1302 67.503 74.9946C67.311 74.8286 66.9096 74.9771 67.0231 75.2741C67.6775 77.0037 70.3827 76.1127 71.7353 75.9555L71.456 75.5886C70.8277 77.4929 68.8032 75.8506 68.0702 75.1606C67.8782 74.9859 67.4681 75.1606 67.5903 75.4401C68.4629 77.5016 71.3775 76.8115 72.5817 75.4925C72.8261 75.2217 72.4595 74.8636 72.1803 75.0907C71.6654 75.5187 71.1506 75.7895 70.5136 75.9729L70.7317 76.4796L71.8313 75.8681L71.4909 75.4314C70.531 76.4097 69.0476 76.532 67.9742 75.6672L67.7822 76.1302L68.4629 76.2961L68.6723 75.7982C68.969 75.2829 69.353 75.2217 69.8155 75.6235L69.9464 75.1256C69.353 75.1169 68.8207 74.9072 68.3669 74.4967L68.1836 74.9422C69.0475 74.9509 70.3827 75.0732 71.0546 75.4838L71.1157 75.0121C70.374 75.1606 69.6584 75.213 68.9079 75.178C68.5676 75.1606 68.5938 75.6497 68.9079 75.6934C69.894 75.8157 70.8714 75.9817 71.8487 76.1738V75.6934C71.36 75.807 70.8539 75.8681 70.3478 75.8506C70.1296 75.8419 69.1348 75.51 68.873 75.5449L68.8469 75.9817C68.524 75.9118 68.2098 75.7895 67.9219 75.6323C67.5205 75.4139 67.1888 75.1169 66.8834 74.785C66.77 74.6627 66.5955 74.8461 66.7002 74.9684L66.7351 74.9859Z" fill="#291510"/>
</g>
</g>
<defs>
<clipPath id="clip0_5795_5508">
<rect width="163" height="163" rx="81.5" fill="white"/>
</clipPath>
<clipPath id="clip1_5795_5508">
<rect width="282" height="248" fill="white" transform="translate(-61 22)"/>
</clipPath>
</defs>
</svg>
