<svg fill="none" height="163" viewBox="0 0 163 163" width="163" xmlns="http://www.w3.org/2000/svg" xmlns:xlink="http://www.w3.org/1999/xlink"><clipPath id="a"><rect height="163" rx="81.5" width="163"/></clipPath><clipPath id="b"><path d="m-61 22h282v248h-282z"/></clipPath><g clip-path="url(#a)"><circle cx="81.5" cy="81.5" fill="#ffdeb5" r="81.5"/><g clip-path="url(#b)"><path d="m114.723 126.639s-14.9308 15.042-21.0131 15.269c-6.0822.227-13.8661.131-13.8661.131l-13.0197-1.005-9.5379-7.363-4.6511-9.286-3.3945-8.91-.4538-5.599c-3.412.559-8.5344 2.149-8.5344 2.149s1.5184 12.683 3.0717 16.728c1.2391 3.223 5.1049 10.001 7.6879 12.29 3.2026 2.839 11.1959 7.006 15.3758 7.932 3.6563.812 11.5362 1.371 15.2449.856 4.3806-.612 13.9447-2.708 18.2206-4.674 3.3767-1.563 9.6337-5.739 12.4607-8.158 2.208-1.887 7.61-7.617 9.25-10.02 1.458-2.131 4.049-8.018 4.049-8.018l-10.881-3.075-.463 7.04c.375-.96.463-7.04.463-7.04 29.207 7.302 55.342 21.349 78.851 40.164 4.206 3.372 8.342 6.962 11.274 11.487 4.171 6.446 5.568 14.247 6.85 21.812 2.793 16.457 5.463 32.94 8.011 49.441 1.344 8.709 2.304 18.71-3.578 25.27l-3.63 1.328c-12.67-4.132-50.805-1.328-86.364-1.223-59.9153.184-70.1687-2.236-129.86553 2.795-16.51017 1.389-33.67487 5.565-49.23397-.131-1.3002-.471-2.8797-.978-3.953-.104-1.0733.873.3403 3.197 1.2566 2.157l-1.2653-4.857c-4.8868-3.424-4.1537-10.761-2.8186-16.588 6.5011-28.336 14.5206-56.315 24.0148-83.787 1.4399-4.167 2.1554-9.548 5.0526-12.867 2.7749-3.18 7.269-9.67 10.9951-11.653 23.06373-12.273 61.957-29.516 68.4755-29.263 0 0 .1222-2.542.5673 8.395.0436.978.0872 1.983.4537 2.891.5498 1.337 1.7191 2.289 2.8099 3.223 8.4122 7.181 16.1699 17.191 27.2087 17.663 5.4539.227 10.681-2.027 15.6725-4.245 8.1237-3.608 17.1907-8.273 19.4157-16.894" fill="#deb68b"/><path d="m-34.5237 270c-6.3266 0-12.5659-.734-18.5347-2.926-.9774-.359-2.0507-.699-2.9146-.516l.6195 2.385-.096.105c-.2617.297-.6021.41-.9511.323-.5062-.131-.9774-.716-1.1257-1.389-.1309-.611.0262-1.153.4363-1.485.1483-.122.2967-.218.4625-.288l-.5236-2.027c-3.8745-2.778-4.7995-8.281-2.8448-16.815 6.475-28.241 14.5555-56.438 24.0236-83.814.4014-1.144.733-2.376 1.0908-3.669.925-3.363 1.8849-6.848 4.0141-9.294.6807-.777 1.4835-1.782 2.3299-2.839 2.6267-3.275 5.8903-7.355 8.7438-8.875 16.82438-8.953 44.9406-21.907 59.7666-27.061l.0873-.026c3.9356-1.363 6.9287-2.175 8.5082-2.202.0349-.139.1047-.253.2879-.253.3055 0 .4102 0 .6807 6.08l3.3509 8.796c1.7889 1.529 3.5691 3.215 5.3056 4.839 6.1259 5.765 12.4438 11.714 20.4196 12.614l1.2828.096h.0087c.0524 0 .4974 0 1.2217.009 5.07-.131 9.9655-2.298 14.3199-4.237 7.4958-3.328 15.6118-7.46 18.5868-14.684l.454-6.988v-.332h.026l.323.079c3.595.9 7.173 1.913 10.725 3.031l.462.131v.017c23.666 7.53 46.416 19.952 67.76 37.038 3.866 3.1 8.255 6.795 11.336 11.556 4.302 6.648 5.681 14.763 6.893 21.917 2.775 16.387 5.472 33.027 8.011 49.441 1.37 8.84 2.321 18.833-3.639 25.498l-.043.052-3.787 1.389-.088-.026c-8.892-2.9-30.219-2.376-54.915-1.756-10.27.253-20.89.515-31.362.55-17.069.053-29.9923-.105-41.4064-.244-28.5351-.35-45.7608-.559-88.4413 3.04-3.60397.305-7.3039.751-10.8817 1.179-6.5971.795-13.3077 1.598-19.9222 1.598zm-20.9345-4.036c.8377 0 1.7453.288 2.583.603 12.0947 4.429 25.3762 2.839 38.2126 1.301 3.5865-.428 7.29521-.873 10.90791-1.179 42.70669-3.599 59.94119-3.389 88.49369-3.04 11.4053.14 24.329.297 41.398.245 10.463-.035 21.083-.297 31.353-.55 24.661-.612 45.979-1.145 55.011 1.755l3.482-1.275c5.759-6.481 4.808-16.3 3.464-25-2.539-16.413-5.227-33.054-8.01-49.432-1.205-7.102-2.575-15.156-6.816-21.707-3.036-4.691-7.382-8.36-11.213-11.426-21.31-17.06-44.024-29.463-67.655-36.967-.498 1.118-2.671 5.914-3.971 7.827-1.605 2.35-6.99 8.097-9.293 10.071-2.758 2.359-9.076 6.613-12.5225 8.203-4.4156 2.044-14.1105 4.114-18.2904 4.699-3.7175.524-11.6759-.043-15.3409-.856-4.1188-.908-12.2256-5.092-15.498-7.992-2.5917-2.298-6.4924-9.103-7.7577-12.396-1.4224-3.703-2.7924-14.386-3.0455-16.457-4.8431 1.686-11.3617 4.289-19.1543 7.67-13.65667 5.913-29.1459 13.321-40.4203 19.322-2.7488 1.467-5.9776 5.494-8.5693 8.735-.8464 1.057-1.6493 2.062-2.3386 2.856-2.0507 2.35-2.9932 5.766-3.9007 9.076-.3578 1.302-.6981 2.534-1.0995 3.704-9.4594 27.359-17.5312 55.538-24.0061 83.762-1.9111 8.35-1.0297 13.688 2.7138 16.299l.0786.061.5672 2.184c.2094-.043.4363-.07.6632-.07zm-1.0384.786c-.0873.053-.1745.105-.2531.175-.3403.28-.3054.716-.253.943.1047.472.4188.9.733.979.0698.017.1832.026.3054-.061zm97.0455-154.533c.2094 1.72 1.6143 12.77 3.028 16.43 1.2479 3.25 5.0787 9.941 7.6094 12.186 3.22 2.856 11.2046 6.971 15.2536 7.87 3.6301.804 11.4838 1.363 15.1489.848 4.1537-.586 13.7789-2.638 18.142-4.656 3.4122-1.572 9.6692-5.783 12.3912-8.124 2.287-1.957 7.618-7.643 9.207-9.967 1.239-1.817 3.359-6.481 3.9-7.687l-10.236-2.891c-.017.874-.061 2.979-.183 4.638l.384.096c-.192.752-.436 1.468-.724 2.158l-.594 1.494.018-.262c-3.43 6.612-11.126 10.508-18.2733 13.679-3.1764 1.406-6.632 2.944-10.2621 3.739 2.5568-.009 5.6285-.053 8.3336-.149 5.899-.218 20.6818-15.033 20.8298-15.182l.384.385c-.611.62-15.0792 15.12-21.1963 15.347-4.5639.166-10.1488.158-12.6096.149-.4276.009-.8464 0-1.274-.009-.4451-.017-.8901-.052-1.3264-.105l-11.7893-.908-.0611-.052-9.5902-7.408-.0262-.052-4.6249-9.242-.1135-.096c-1.0733-.917-2.1903-1.861-2.7313-3.197-.3927-.961-.4363-2.036-.48-2.979-.0436-1.048-.0872-1.974-.1221-2.786l-.4276-5.303c-2.9495.516-7.016 1.73-7.9933 2.027zm26.3797 28.555 7.6966.594c-6.3528-2.044-11.6584-7.041-16.8244-11.906-1.4049-1.328-2.8535-2.682-4.302-3.966l4.0053 8.001zm-17.3392-23.629c.0174.35.0261.725.0436 1.11.0349.943.0785 1.921.4363 2.795.3927.952 1.1257 1.712 1.9285 2.419l-2.4084-6.333z" fill="#291510"/><path d="m50.1129 99.6202c-.4713 5.8088-1.2566 10.0278-1.1257 15.8548.0523 2.105 0 5.241.8639 7.145.5934 1.319 1.6143 4.446 2.4084 5.634 1.4748 2.193 2.7663 4.114 4.3196 6.237 3.7959 5.197 9.7386 7.94 15.9255 8.316 6.187.375 14.9744.952 20.9257-.9 6.6057-2.053 10.8647-3.31 16.5717-8.63 1.117-1.04 3.953-5.128 4.433-6.639.235-.751.27-4.953.209-5.739-.602-7.224.716-11.513.122-18.737-2.792 2.097-7.6 6.534-10.768 7.897-3.517 1.511-7.3302 2.044-11.1087 2.481-6.8327.794-13.9272 1.31-20.4283-1.049-2.2514-.812-4.3806-1.965-6.632-2.786-2.8623-1.048-5.9077-1.573-8.6129-3.005-2.7052-1.441-5.1224-4.123-5.1485-7.3289" fill="#fff2e3"/><path d="m50.2689 99.6215c-.6108 5.1795-1.3613 10.3595-1.2827 15.5835.0349 2.131-.0349 4.359.5061 6.429.445 1.721 1.2566 3.459 1.9547 5.093.8377 1.956 2.1641 3.668 3.3683 5.416 1.309 1.904 2.6092 3.808 4.3196 5.38 3.124 2.883 7.1207 4.682 11.3006 5.338 4.3457.681 8.9619.716 13.3512.637 4.4767-.078 8.578-.803 12.8365-2.166 3.8828-1.249 7.5918-2.787 10.8728-5.267 2.923-2.202 5.175-4.787 6.938-8.002 1.483-2.699.837-6.254.724-9.215-.218-5.582.681-11.12.244-16.702-.017-.227-.288-.463-.506-.288-2.914 2.21-5.593 4.743-8.674 6.735-3.979 2.568-8.9269 3.135-13.5257 3.66-4.8431.55-9.7909.952-14.6427.209-4.9566-.76-9.1714-3.337-13.9098-4.769-4.7471-1.433-11.2133-3.285-11.4577-9.3381-.0174-.4367-.6981-.4367-.6806 0 .1658 4.0701 3.3771 6.9181 6.9287 8.3681 2.4608 1.005 5.0874 1.529 7.5657 2.481 2.5394.978 4.9391 2.289 7.557 3.066 5.0002 1.485 10.2971 1.441 15.4456.987 4.9915-.445 10.332-.865 14.9655-2.917 4.049-1.791 7.287-5.259 10.777-7.897l-.506-.288c.349 4.507-.148 8.945-.262 13.443-.087 3.398.384 6.787.061 10.177-.131 1.345-.951 2.498-1.675 3.607-.829 1.267-1.702 2.577-2.784 3.652-3.028 2.978-6.728 5.188-10.6983 6.664-3.9094 1.45-7.8799 2.656-12.0598 2.988s-8.674.131-12.9935-.122c-4.3544-.262-8.4733-1.11-12.1819-3.521-4.0316-2.62-6.8589-6.918-9.3634-10.936-1.021-1.642-1.562-3.564-2.295-5.337-.9163-2.202-.9076-4.586-.9599-6.936-.1135-5.442.6894-10.788.9599-16.2125 0-.131-.1833-.1223-.192 0z" fill="#231815"/><path d="m113.204 109.615c1.056-2.062 2.627-6.456 4.713-7.452 1.858-.891 7.269-7.3458 7.792-9.6781.838-3.7125 1.571-7.4686 2.042-11.2422.402-3.2058.436-6.4727.515-9.7135.148-6.5339-1.536-12.631-4.276-18.5273-2.19-4.7082-6.073-8.2984-8.15-13.0765-.524-1.2054-1.702-2.2537-2.819-3.0311-4.293-2.9962-8.683-5.8526-13.0457-8.7526-.2706-.1747-.5847-.3669-.8989-.3844-2.0157-.1135-3.6476-1.1181-5.2968-2.1314-.7941-.4891-.48-.4454-2.042-1.319-.5323-.2533-.8814-.4367-1.2391-.6027-.8989-.4105-1.7628-1.0133-2.6965-1.1705-3.2462-.5416-6.5011-.891-9.7647.0087-.6283.1747-.9337.1223-2.2601.9347-1.4922.9085-2.8361 1.9392-4.3109 2.3061-6.8414 1.7208-13.0196 4.7519-18.491 9.1457-1.3264 1.0657-2.2514 2.6555-3.2986 4.0444-.4189.559-.5585 1.3452-1.021 1.8518-3.569 3.861-6.5622 8.1063-8.7176 12.9106-2.6266 5.87-3.7174 12.0982-3.6039 18.4749.0872 4.8829.4974 9.7571.9598 14.6226.2008 2.0615.7156 4.1405 1.4312 6.0884.5061 1.3715 1.3264 2.9001 2.4608 3.7037 1.8238 1.2928 6.7105 2.5594 8.8049 6.2197 1.9983 3.503.445 6.254 3.3334 9.897.288.367 2.0769 2.699 2.8186 3.625 1.8849 2.358 3.8745 3.275 4.4243 3.721 11.4314 9.46 22.6797 8.744 25.2191 8.552 12.0772-.935 20.9867-9.207 22.9067-11.47 1.222-1.432 5.175-7.162 4.52-7.573zm3.334-59.5743c10.375 4.3152 8.735 18.536 7.339 29.2715-.114.0525-.341.2708-.341.1485 0-3.7823-6.082-8.0014-6.928-8.7264-.192-.1659-.166-.6551-.14-.9958.192-2.6991.637-5.3983.558-8.08-.095-3.3019-.619-6.5951-.942-9.8969-.052-.5591.305-1.7646.445-1.7121zm-66.2505 14.9808c-2.6528-.3756-3.9181.4193-5.5586 1.8344-.6196.5329-1.9111 2.2275-2.391 3.0573-.6283 1.0657-1.1694 2.1838-2.0158 3.1884-.2094-5.1625.0872-10.2202 2.0768-15.0071 2.3649-5.6953 5.9427-10.4822 10.9341-14.2819-2.4172 6.8134-3.473 13.7753-3.0367 21.2002z" fill="#070215"/><g fill="#fff2e3"><path d="m113.109 74.2457c-.576.2446-.803 5.0053-.847 5.2149-.236.9958-.375 2.0179-.654 3.0049-1.772 6.0972-8.116 10.0891-14.2243 7.7219-.4538-.1747-1.3788-.428-1.85-.594-.9512-.3407-1.9198-.297-1.8064.8124.096.9521.9076 2.3323 1.0559 3.4242.1047.7687-1.8936 2.0964-2.7575 2.1663-.4887.0349-1.3526.6551-1.5533 1.1094-.6894 1.5374 1.0646 2.9263 2.6703 3.5553.5148.201 1.0559.463 1.4573.838 1.2042 1.127 2.1117 2.962 1.3613 4.429-.1222.245-.4189.813-1.0734 1.302-.8377.637-1.4922.323-2.5219.428-1.1518.122-1.5009.209-2.5568.777-.8202.446-1.3613 1.057-1.815 2.009-.0699.14-.2008.551-.9861 1.485-1.1606 1.389-2.3387 1.747-3.9618 1.983-1.6842.245-3.7959-.332-4.8867-2.227-.2444-.428-.7505-.97-.5062-1.415.2444-.446.9861-.332 1.4835-.324 1.5533.027 2.8535.76 4.3981.839 1.0123.052 2.3735.061 3.508-.646 1.2304-.769 4.6424-2.743 5.0962-4.761.1745-.778-1.4486-.122-4.7646.227-.2444.026-2.9321.236-3.2637.192-2.0681-.262-2.7749-.323-4.8518-.541-.8901-.097-4.9653-1.381-6.0386-1.555-1.7017-.271-3.4906-1.197-4.1101 1.389-.2356.978-1.5359.323-1.405-.69.192-1.468.4974-3.014 1.1868-4.289.6632-1.2234 2.8273-1.9134 4.3544-1.7213 1.8675.2359 4.8257-3.2757 3.9793-4.1928-.1571-.166-.3491-.5504-.3666-.76-.0261-.3145.3229-.6988.5847-.6988.5759 0 .8203.1223 1.2479 1.0307.2792.5853.8988 1.6335 1.3264 2.0703.7243.7512 1.658 1.1879 2.4172 1.6422 1.1082.6551 2.6441 1.1093 4.3719.2096 1.1693-.6114 1.7103-1.6946 2.644-2.3497 1.501-1.0657 1.3439-.3145 3.3859-1.6597.829-.5503.1396-3.1884-.1048-3.8086-.9948-2.5943-2.391-4.9615-3.2898-7.5908-.8028-2.341-.7766-4.4025-.2792-6.9183.3665-1.8431-.8028-2.7341-2.6616-3.1272-1.0384-.2271-2.1728-.131-3.2462-.0262-.9686.1049-1.466.7687-1.5271 1.782-.1658 2.7429-1.2216 5.1188-2.8709 7.3288-3.0804 4.1318-9.0841 6.0884-13.7003 4.2366-5.838-2.3498-7.7752-7.4511-6.9288-13.3386.0699-.4542.0524-1.188-.2181-1.3889-2.0507-1.5549-4.0054-1.2491-5.3405 1.022-1.2043 2.0528-2.1205 4.883-2.8361 7.1104-.7068 2.1926-1.0733 10.788-.9686 12.4476.2007 3.1796 1.9809 10.4647 3.3858 14.0727.7243 1.869 4.3457 8.193 6.5448 10.543 4.0751 4.359 10.873 7.888 17.4264 9.058 8.2551 1.477 13.2553-.174 14.3374-.515 2.6964-.856 8.1067-2.647 11.8593-5.416 4.092-3.022 6.387-4.926 8.639-8.482 1.806-2.856 3.115-4.743 3.979-8.508.812-3.5724 1.388-8.6038 1.396-11.3729.009-3.2407-1.029-10.0367-1.719-12.7184-.078-.3057-.689-4.2278-1.614-3.826z"/><path d="m63.7783 49.2444c.0174-.131-.2618 0-.3753.0524-.2618.1136-.8813.3581-1.5445.6988-1.2566.6377-1.3875.7163-2.7052 1.8606-.1221.1048-.4101.3843-.5759.5765-1.4573 1.6422-1.5969 1.782-2.4696 3.4679-.4014.7687-.7243 2.0353-.8901 2.8651-.4363 2.1227-.7242 4.289-.9424 6.4466-.3316 3.3193.829 4.2802 3.9792 3.3368.4538-.131 1.1083-.594 1.1432-.9521.1396-1.4501 1.1431-1.6947 2.1204-2.21 1.2741-.6639 2.5656-.9696 3.8396-1.1793 1.2654-.2096 2.0944-.3407 3.9269-.3319.8988 0 1.8151.0437 2.6964.2096 3.4556.629 6.9549 1.1618 8.1591 5.3547.1833.6376.5673 2.0615 1.7715 1.5548 2.5568-1.0657 4.8867-.5153 7.1817.6464.8029.4106 1.2479.2009 1.8675-.4629.8813-.926 1.9285-2.0353 3.0891-2.3061 4.8169-1.1094 9.7041-1.913 14.1021 1.45.131.0961.27.1922.41.2708 1.16.5678 3.551.725 4.293-.3057 1.876-2.6293 1.78-6.202 1.868-7.5734.087-1.3714-.777-8.1761-1.24-9.4777-1.178-3.2669-3.097-4.5597-5.925-5.1275-1.396-.2795-2.766-.7075-4.136-1.1094-1.239-.3668-2.461-1.1006-3.7-1.1443-2.4259-.0786-4.878.1049-7.2952.3757-2.6266.2969-5.0787.3494-6.824-2.0878-.0698-.096-.1658-.2096-.2705-.2445-.7243-.2359-1.4486-.629-2.1816-.629-1.6318 0-3.2636.2097-4.8954.3145-2.0769.131-4.0752.4455-5.6373 2.0353-.6544.6726-1.5271 1.1443-2.1205 1.8606-.7242.8822-1.3351 1.878-1.8499 2.9001-.2618.5153-.3055.7599-1.0123.6027-1.3438-.297-1.1257-1.3627-1.2653-2.4284-.7592 1.0133-.5847 1.8955-.3142 2.8302.096.3232-.0872.7512-.2181 1.1094-.0175.0524-.5236.0174-.637-.0699-.925-.6726-1.597-1.2317-1.3962-3.1709z"/><path d="m79.8169 72.2541c-.2967-2.839-1.7627-4.5249-2.9059-5.1101-.3577-.1834-1.2129-.5416-1.3438-.594-1.7627-.7338-4.0752-1.2142-6.0997-1.3452-1.4486-.0961-3.7436.1397-5.3056.6027-1.0123.3057-3.7 1.5811-3.9356 2.4633-.5672 2.1227-1.3351 4.2628-1.4049 6.4116-.1309 3.7911 1.178 7.058 4.59 9.2418 2.5132 1.6073 5.2358 1.616 7.9671 1.188 2.8797-.4455 5.2184-1.9567 6.7455-4.4986.288-.4717 1.3613-2.5244 1.6231-3.7823.349-1.7121.288-2.4983.0698-4.5772z"/><path d="m111.057 78.3325c-.218-3.4329-1.981-5.1101-3.866-6.4815-1.754-1.2666-3.639-1.8868-5.454-1.9567-2.4258-.096-4.6074.2097-6.3789.8299-2.1554.7599-4.2148 2.6467-4.7471 7.1715-.1309 1.1007.1396 4.5249.6196 5.5119.6196 1.2754 1.2566 2.6992 2.295 3.5815 5.4016 4.5772 13.0024 3.7997 16.3004-2.8477.698-1.4064 1.353-3.7911 1.231-5.8176z"/><path d="m83.997 101.499c-1.0297.349-2.2514.384-3.0716-.262-1.9896-1.5553-5.2184-.787-7.6792-.245-.5323.114-1.5446.463-1.4398 1.057.0872.524 1.0122.48 1.5183.463 2.7576-.061 5.454.113 8.0893 1.074 1.5882.586 8.3162.577 10.0528-.157-.4102-1.424-4.1887-3.04-7.461-1.939z"/></g><path d="m61.0716 67.1433c1.405.1922 2.8012-.1397 4.1799-.4018 1.5359-.297 3.0368-.4629 4.5988-.3843 1.4224.0786 2.8448.3144 4.2148.7075 1.4661.428 2.7837 1.1705 4.2236 1.6772 1.021.3581 1.9459-1.1618 1.082-1.8694-2.2863-1.8693-5.7157-2.5856-8.6041-2.7428-3.2462-.1747-6.6931.6115-9.695 1.8257-.4799.1921-.6719 1.0831 0 1.1792z" fill="#070215"/><path d="m109.661 69.3794c-3.002-1.223-6.44-1.9917-9.6952-1.8257-2.8884.1485-6.3266.8735-8.6042 2.7428-.8639.7076.0611 2.2275 1.0821 1.8694 1.3613-.4805 2.6092-1.188 3.9967-1.616 1.3874-.4281 2.932-.6989 4.4326-.7775 1.466-.0786 2.906.0524 4.346.332 1.457.2795 2.941.6638 4.424.4542.672-.0961.48-.9871 0-1.1792z" fill="#070215"/><path d="m93.0206 78.8575c.0261-.3931 1.7103-1.2229 2.0681-1.3365.6108-.1922 1.2391-.2184 1.8674-.1048.8465.1485 1.658.3756 2.5132.4717 2.4787.2795 4.7737.8997 6.9897 2.0615l.183-.6901h-.418c-.341.0175-.419.5154-.079.6115l.401.1223c.402.1135.664-.4805.288-.6814-3.071-1.6073-6.178-1.8518-9.5288-2.4109-1.0995-.1834-2.1729-.0611-3.1415.5328-.4276.2621-1.4224.9435-1.2566 1.5462.0175.0786.1047.1223.1833.1048l.096-.0175c.0785-.0174.1047-.0961.096-.1659v-.0699c-.0349-.1485-.2531-.1048-.2618.0349z" fill="#291510"/><path d="m97.7243 77.4167-.0524-.0174s-.0872 0-.1134.0262l-.0436.0436s-.0437.0787-.0349.1136c.0872.3057-.0175.594.1047.9172.0872.2271.2181.4542.3927.6289.349.3669.8639.5678 1.37.5241.6108-.0437 2.2606-1.2229 1.4926-1.8868-.123-.1048-.349-.1135-.428.0524-.183.4106-.5934 1.1007-1.1082 1.1531l-.9861-.4193.2967.0524c-.2182-.1572-.4712-.2184-.6894-.3843l-.0698.5415c.1745-.0611.3403-.096.5236-.1048.2269 0 .192-.0611-.1047-.2096.2181-.1573.1745-.4455-.0699-.5416-.4363-.166-1.2827-.7163-1.5009 0-.1832.594.384 1.1792.829 1.4762 1.1781.7687 3.5607.8823 3.5777-1.022 0-.2882-.358-.4367-.567-.2358-.227.2271-.463.4018-.7506.5503l.4796.3669c.018-.2359.123-.4193.323-.5416.218-.1835.035-.5678-.227-.5591-.6017.0262-1.0555.2446-1.4133.7338-.2094.2795.2356.6115.48.3669.2618-.2708.5497-.4368.9333-.4543l-.227-.559c-.2788.2271-.4271.4717-.4969.8211-.0611.2795.2181.5066.4799.3669.34-.1835.611-.3844.881-.6552l-.567-.2358c-.017 1.2753-1.6927.9783-2.4345.594-.1483-.0786-.9337-.6115-.8639-.8037 0 0 .8203.3145.8901.3407l-.0698-.5416c-.3229.2359-.445.6552-.1658.9958.3403.4193.9861.3494 1.4224.1398.0873-.0437.1483-.1572.1483-.2533-.0436-.7949-1.0995-.8037-1.6754-.6202-.2531.0786-.2705.3931-.0698.5416.3752.2708 1.9547.8123 1.9547-.1136 0-.8036-1.3701-.6464-1.8064-.3931-.0872.0524-.1483.1485-.1396.2446.0436.6988 1.0908.9958 1.5795.5678.5846-.5066.0698-1.4151-.6632-1.1793-.7767.2534-.5847 1.3016.0523 1.5986.9774.4542 1.9201-.5678 2.2771-1.3714l-.427.0524c.218.1921-.9164.9608-.9949.9783-.4101.1136-.8814-.0175-1.1868-.297-.2443-.2184-.3927-.5416-.4799-.8473-.2094-.8298.0523-.3319-.1309-.3669.1396.0262.2007-.1747.0611-.2184z" fill="#291510"/><path d="m61.6134 74.4015c2.2688.3581 4.59.3057 6.8763.428 1.2654.0611 2.5394.1485 3.796.3669s3.1764.4891 4.0665 1.4762l.0611-.4717c-.3753.2359-.7592.3058-1.1694.2271-.3839-.0349-.3752.5504 0 .594.5672.0699.9774-.0349 1.466-.3057.1746-.0961.1833-.3319.0611-.4717-1.4311-1.5723-4.5813-1.6859-6.5796-1.8169-2.8448-.1922-5.7158-.0874-8.5605-.166-.0786 0-.096.1223-.0175.131z" fill="#291510"/><path d="m66.7351 74.9859c.4276.4891 2.2165 2.044 2.932 1.284.6632-.6988-.9861-1.2404-1.4136-1.2404-.1135 0-.2269.1049-.2182.2184.0785 1.3889 3.124 1.1269 3.9705.9434.2356-.0524.2356-.428 0-.4804-1.021-.2184-2.042-.3844-3.0804-.5154v.5154c.8028.0349 1.5533-.0262 2.3474-.1835.2269-.0436.2443-.3668.061-.4717-.9424-.5765-2.0506-.6027-3.1327-.6202-.2094 0-.3665.297-.1832.4455.6021.4805 1.178.7163 1.9546.7862.2531.0262.3666-.3843.1309-.4979-.5933-.2795-1.8325-.725-2.3648-.0873-.5323.6376.2182 1.1443.8116 1.2491.2879.0524.4886-.332.2094-.4979-.3316-.1922-.576-.2533-.9512-.2446-.2094 0-.3839.3057-.192.463 1.309 1.0482 3.1153.9783 4.2934-.2272.2269-.2271-.0611-.594-.3403-.4367l-1.0996.6114c-.2792.1573-.0872.594.2182.5067.733-.2097 1.3351-.5329 1.9198-1.022l-.4014-.4018c-.8552.9259-3.3509 1.8431-4.049.1921l-.48.2795c1.1344 1.0745 3.5953 2.4459 4.3457.1748.0524-.166-.096-.3844-.2792-.3669-.8901.0961-3.7262.8648-4.1537-.2621l-.48.2795c1.6929 1.4064 4.2236 2.0179 5.7158 0 .2181-.2969-.2793-.5852-.4975-.2882-.9511 1.2666-2.5044 1.747-4.0141 1.3015l-.157.5591c1.6231.2358 3.2025.4105 4.7384-.2796.2879-.131.0785-.6376-.2182-.5153-1.4224.5852-2.8797.4455-4.3719.2358-.3578-.0524-.5236.4455-.1571.5591 1.7715.5241 3.5604-.0961 4.6599-1.5636l-.4974-.2883c-1.2566 1.7121-3.4382 1.0308-4.8082-.1048-.192-.166-.5934-.0175-.4799.2795.6544 1.7296 3.3596.8386 4.7122.6814l-.2793-.3669c-.6283 1.9043-2.6528.262-3.3858-.428-.192-.1747-.6021 0-.4799.2795.8726 2.0615 3.7872 1.3714 4.9914.0524.2444-.2708-.1222-.6289-.4014-.4018-.5149.428-1.0297.6988-1.6667.8822l.2181.5067 1.0996-.6115-.3404-.4367c-.9599.9783-2.4433 1.1006-3.5167.2358l-.192.463.6807.1659.2094-.4979c.2967-.5153.6807-.5765 1.1432-.1747l.1309-.4979c-.5934-.0087-1.1257-.2184-1.5795-.6289l-.1833.4455c.8639.0087 2.1991.131 2.871.5416l.0611-.4717c-.7417.1485-1.4573.2009-2.2078.1659-.3403-.0174-.3141.4717 0 .5154.9861.1223 1.9635.2883 2.9408.4804v-.4804c-.4887.1136-.9948.1747-1.5009.1572-.2182-.0087-1.213-.3406-1.4748-.3057l-.0261.4368c-.3229-.0699-.6371-.1922-.925-.3494-.4014-.2184-.7331-.5154-1.0385-.8473-.1134-.1223-.2879.0611-.1832.1834z" fill="#291510"/></g></g></svg>