<svg fill="none" height="163" viewBox="0 0 163 163" width="163" xmlns="http://www.w3.org/2000/svg" xmlns:xlink="http://www.w3.org/1999/xlink"><clipPath id="a"><rect height="163" rx="81.5" width="163"/></clipPath><clipPath id="b"><path d="m31 20h153v185h-153z"/></clipPath><g clip-path="url(#a)"><circle cx="81.5" cy="81.5" fill="#ffdeb5" r="81.5"/><g clip-path="url(#b)"><path d="m45.9223 202.475c.3941.788.3493 1.773-.1254 2.516 9.8166-1.012 19.7139-.904 29.5932-.922 34.5549-.063 69.1019-1.639 103.5139-4.737-.036-9.697 2.526-19.188 3.672-28.814 1.353-11.381.708-22.994-1.908-34.151" fill="#fff"/><path d="m174.829 183.69s8.741-52.149 8.741-69.663c0-5.158-10.667-5.444-20.466.403-23.019 13.744-98.8739 7.951-102.2417 14.299-16.8298 31.716-15.2265 74.024-15.2265 74.024s75.7472-7.925 77.6822-6.474 51.502-12.589 51.502-12.589z" fill="#fff"/><path d="m163.309 120.026c-.725.242-13.256 7.898-13.256 7.898s-27.336 14.111-28.912 15.061c-10.05 6.044-30.7219 12.723-35.7556 13.484-4.98.753-6.9953 1.227-9.3599 1.236-3.9499.018-12.6559-2.677-12.6559-2.677s-3.3678-8.39-3.3588-15.544c0-3.117 1.0569-11.578 1.0569-11.578l2.0242-6.143 40.6911-12.329 18.289-3.725s8.482-4.074 9.298-3.125c2.113 2.453 31.931 17.442 31.931 17.442z" fill="#6dd5c8"/><path d="m60.8177 126.384c-.4479 4.262-1.1465 8.506-1.2003 12.795-.0447 3.985.5912 7.933 1.8183 11.721 2.2302 6.912 6.4489 12.938 12.7097 16.735.4209.26.8061-.403.3851-.663-6.4399-3.895-10.6138-10.207-12.6918-17.344-2.266-7.799-1.0927-15.338-.2687-23.244.0538-.493-.7165-.484-.7703 0z" fill="#000"/><path d="m111.638 125.569c4.218-1.021 6.225-4.809 8.643-8.086 3.735-5.05 7.47-10.1 11.214-15.159.188-.26-.134-.69-.43-.564-8.822 3.698-18.146 6.08-27.596 7.467-.484.072-.278.815.206.744 9.45-1.388 18.774-3.779 27.596-7.468l-.43-.564c-3.341 4.513-6.673 9.017-10.014 13.529-2.561 3.457-4.899 8.274-9.386 9.357-.484.117-.278.86.206.744z" fill="#000"/><path d="m39.8315 46.8626c0-.9312 23.7444-17.5589 23.7444-17.5589l30.5696 4.683 11.5005 18.2394 1.576 15.1055s.197-.6178 1.129.9402c.931 1.5491 1.29 15.007-1.344 19.2781-1.451 2.3549-1.343 2.4176-3.269 2.4803l-1.693 10.0908s.117.69.305 1.317c.242.806 2.347 14.129 3.009 15.06.448.627 3.153 6.689 5.984 8.516 1.289.841-2.473 3.474-3.664 4.871-.833.985-8.0161 6.769-8.5446 7.199-.5284.43-10.8914 11.425-11.6438 11.748-.7524.322-6.3414 6.482-6.9684 6.16s-8.3298-4.549-9.4225-5.775c-1.0122-1.138-3.7082-7.97-3.7082-7.97l-5.5173-14.371s-2.92-9.026-3.0364-9.67c-.1164-.645-8.4463-6.519-10.0764-9.59-4.4963-8.4795-6.843-15.7054-6.843-15.7054s-.9494-.3045-1.657-2.1311c-.7165-1.8535-.3045-4.092-1.1913-5.7664-1.1195-2.0953.8241-8.39.1702-9.0436-.4836-.4836.6001-28.089.6001-28.089z" fill="#fff2e3"/><path d="m70.4096 149.028c-.4031-.314-1.1644-1.684-2.2482-4.066l-.0448-.098c-.2777-.591-2.0421-5.238-2.3288-6.008-.1612-.43-1.7465-4.397-1.8719-4.782-.2777-.877-1.0659-3.304-1.3525-3.984-.2239-.529-.4299-1.048-.627-1.549-.1881-.484-.3851-.985-.6001-1.487-.0269-.062-1.657-5.292-1.8988-6.133-.1075-.376-.2239-.761-.3673-1.2-.1791-.537-.2328-.976-.2866-1.406-.0537-.421-.1075-.815-.2687-1.298-.2508-.314-2.472-1.872-3.3229-2.427-1.1644-.761-4.0396-3.662-4.3441-4.029-.4568-.564-2.7318-3.492-3.1976-4.262-.2508-.412-1.4778-3.009-1.7018-3.618l-.1164-.304c-1.8361-4.8353-2.3109-6.0441-2.3825-6.2053-1.7735-3.9935-2.4273-7.2707-2.7945-9.6794-.0448-.2954-.1344-.7879-.2419-1.361-.3493-1.8624-.8688-4.6651-.7523-5.7216.0716-.6089-.0896-2.3191-.5374-3.913-.0359-.0268-.0717-.0537-.0986-.0895-.197-.2507-.0895-.6447.0986-1.2715.0627-.2059.1433-.4835.1433-.582 0 0 .5195.4477.4299.7522-.0537.179-.1433.4656-.1702.6446h.0627l.0717.2239c.4747 1.5849 1.03 8.1303 1.3524 9.8405.1075.582.1971 1.0745.2508 1.3789.3673 2.3729 1.0032 5.5963 2.7498 9.5272.1075.2507.9136 2.3459 2.3914 6.232l.1165.304c.2149.573 1.4241 3.134 1.657 3.519.4389.735 2.7049 3.654 3.1438 4.191.2866.34 3.117 3.188 4.2097 3.904.0358.018 3.3946 2.229 3.5559 2.713.1881.555.2418 1.003.3045 1.442.0537.42.1075.814.2687 1.289.1523.448.2597.842.3762 1.218.2418.823 1.8451 5.981 1.8809 6.088.206.502.412 1.003.6001 1.487.1971.501.4031 1.021.618 1.54.3583.842 1.3615 4.002 1.3794 4.029.1164.358 1.6928 4.316 1.863 4.755.2777.743 2.0511 5.417 2.3108 5.963 0 .009.0269.054.0538.108 1.4599 3.205 1.9078 3.805 2.0242 3.895l-.3224.412z" fill="#000"/><path d="m70.4276 149.144-.0717-.053c-.2687-.511-.8329-1.612-1.9346-4.039l-.206-.376c-.2866-.591-.5016-1.03-.6628-1.62-.1881-.672-.3762-1.29-.7076-1.881-.4658-.833-.6897-1.585-.9763-2.355-.1612-.43-.3314-.877-.5374-1.361-.2239-.519-1.2092-3.026-1.3256-3.411-.2777-.878-.8151-3.394-1.2719-4.056-.3314-.484-.4478-1.093-.6359-1.567-.1881-.484-.4031-.896-.6091-1.406-.0268-.072-.3493-.358-.824-2.158-.1612-.6-.3493-1.316-.3851-1.442-.4568-.895-.6718-1.629-.9226-2.471-.1075-.376-.2239-.761-.3672-1.2-.1792-.546-.2419-.985-.2956-1.415-.0537-.412-.1075-.806-.2597-1.271-.2777-.322-2.4453-1.836-3.2961-2.4-1.1644-.761-4.0575-3.68-4.362-4.038-.4568-.564-2.7318-3.492-3.2065-4.271-.2508-.412-1.4779-3.027-1.7108-3.627l-.1164-.304c-1.9347-5.077-2.3198-6.0619-2.3825-6.1962-1.7824-4.0025-2.4363-7.2887-2.8035-9.7063-.0448-.2954-.1433-.8148-.2418-1.361-.3494-1.8624-.8689-4.674-.7524-5.7395.0627-.582-.0896-2.2833-.5285-3.8503-.0358-.0268-.0627-.0537-.0895-.0895-.224-.2776-.1165-.6984.0806-1.3521.0537-.1612.1433-.4745.1433-.5551v-.0896s.6897.5462.5911.8596c-.0448.1433-.1074.3671-.1433.5373h.0179l.0896.2954c.4747 1.5939.6986 3.5279.6091 4.3338-.1075.9491.4209 3.8055.7434 5.5157.1075.582.197 1.0835.2508 1.3789.3672 2.3639 1.0031 5.5874 2.7497 9.5093.1075.2507.8957 2.2922 2.4004 6.2406l.1165.305c.2149.564 1.4241 3.125 1.657 3.51.4478.734 2.7049 3.644 3.1438 4.181.2777.341 3.0991 3.179 4.1918 3.886.3493.233 3.4215 2.257 3.5917 2.758.1881.564-.0359 1.03.0179 1.469.0537.412.0806.868.2329 1.343.1522.448.1522.913.2687 1.298.2418.815.4478 1.307.8867 2.167.0269.054 0 .152.3941 1.657l.1433.241c.2239.842.5105 1.89.5464 1.997.206.501.4836 1.03.6717 1.513.206.511.3314.94.5464 1.46.3583.85 1.3883 3.966 1.3972 4.002.1165.358 1.1107 2.901 1.3256 3.394.215.492.421 1.012.5822 1.45.2777.753.4568 1.442.8868 2.221.3761.672.5463 1.415.7344 2.095.1523.555.2956 1.012.5464 1.549l.2418.314c1.4868 3.268 1.7824 3.161 2.1676 3.617l.0985.152-.4299.439zm-31.098-75.5004c-.0179.1254-.0716.3134-.1433.5193-.1791.6-.2777.985-.1075 1.1909.0179.0269.0448.0537.0806.0717l.0269.0179v.0268c.4658 1.6207.618 3.3399.5553 3.9488-.1164 1.0386.4031 3.8413.7524 5.6948.0985.5462.197 1.0655.2418 1.361.3673 2.3997 1.0211 5.6769 2.7945 9.6614.0717.1701.5464 1.3789 2.3826 6.2048l.1164.305c.2329.6 1.451 3.196 1.7018 3.599.4657.77 2.7318 3.698 3.1886 4.254.2956.358 3.1707 3.25 4.3261 4.011.7255.475 3.0722 2.104 3.3499 2.444l.0179.027c.1612.493.215.887.2687 1.308.0537.429 1.8003 5.918 1.9615 6.518.43 1.621 1.0032 3.206 1.1913 3.689.1881.475 1.7018 4.656 1.9884 5.543.1254.376 1.1017 2.892 1.3256 3.411.215.493.3851.949.5374 1.361.2866.761 2.0511 5.418 2.3288 6l.0448.098c1.021 2.247 1.7465 3.582 2.1585 3.976l.2061-.26c-.215-.224-.6987-1.092-1.9705-3.886l-.0448-.108c-.2598-.546-2.0332-5.211-2.3109-5.963-.1702-.448-.3403-.895-.5463-1.388-.215-.501-1.2003-3.008-1.3167-3.376-.0089-.026-1.7914-5.05-1.9884-5.551s-.9405-2.731-1.1733-3.626v-.036c-.3852-1.415-1.9078-6.044-1.9616-6.465-.0537-.43-.1164-.878-.2956-1.424-.1074-.331-2.1675-1.773-3.52-2.668-1.1017-.716-3.941-3.573-4.2276-3.922-.4389-.537-2.7049-3.456-3.1528-4.199-.2329-.385-1.451-2.964-1.6659-3.537l-.1165-.305c-1.4778-3.8948-2.284-5.99-2.3914-6.2318-1.7556-3.9398-2.4005-7.1722-2.7587-9.554-.0448-.3044-.1344-.7969-.2419-1.3699-.3224-1.7282-.8509-4.6024-.7434-5.5784.0896-.788-.1343-2.6862-.6001-4.2711l-.0448-.1612h-.0985l.0179-.0985c.0269-.188.1165-.4835.1702-.6536.0806-.2597.1433-.4835.1612-.6537h-.4299z" fill="#000"/><path d="m79.2771 84.2012c-.1075 0-.206 0-.3135 0-1.1644-.0179-2.2661-.2687-3.2782-.7343-.7972-.3671-1.451-.9939-2.0511-1.9609-.5643-.9044-1.8989-3.0265-2.3109-4.2263-.7255-1.5222-1.1644-3.2951-1.5316-4.9785-.2239-1.0208-.0269-1.8535.5733-2.4892 1.0927-1.1551 5.3024-2.9549 6.5563-3.2503.1612-.0717.3314-.1523.5016-.2239.3404-.1612.6628-.3044 1.0032-.394l.7165-.197c1.7376-.4745 3.5379-.9581 5.3293-1.361 2.8572-.6447 5.7324-.8864 8.5269-.7432 1.5674.0806 2.6691.6716 3.2602 1.755.3404.6179.5554 1.2984.7703 1.961.0806.2596.1613.5103.2508.7611.0627.1701.0986.3492.1433.573 0 .0269.009.0627.0179.0896l.3852-.9223c-.4299-.8596-.6539-1.6028-.3583-2.4087.0896-.2417.3762-.4208.5912-.5372.1701-.0895.3493-.1612.5284-.2328.1971-.0806.3762-.1522.5464-.2507.3314-.197.609-.188.8957.0268.09.0627.188.1254.287.1791.116.0717.241.1433.358.2418.331.2686.654.5462.994.8417.072.0627.152.1253.224.197-.099-.3582-.296-.6179-.609-.8059-.358-.2149-.564-.4298-.726-.7611-.125-.2597-.268-.4119-.456-.4835-.2064-.0717-.4572-.0358-.7796.1164l-.0986.0448-.0358-.1075c-.2209-.6148-.6777-.9193-1.3704-.9133-3.1259.0269-6.2787.197-9.3867.5104-3.4931.3492-9.6644 2.0146-12.844 3.2682l.206.1254c3.1975-1.2626 9.0105-3.2325 12.6201-3.5996 3.117-.3134 6.2787-.4835 9.4046-.5193 1.1107 0 1.1823.0179 1.5227.9491.3224-.1343.6001-.1612.8327-.0806.233.0806.43.2776.574.591.161.3313.367.5104.644.6716.448.2596.69.6626.762 1.2356l.027.2597-.197-.1701c-.153-.1343-.305-.2597-.448-.3851-.341-.2954-.663-.573-.995-.8327-.098-.0806-.214-.1522-.331-.2238-.098-.0627-.206-.1254-.3044-.197-.224-.1612-.4031-.1702-.6718-.009-.1881.1075-.3851.188-.5732.2597-.1702.0716-.3404.1343-.5016.2238-.1075.0538-.421.2328-.4926.4298-.2777.7522-.0627 1.4327.3672 2.2833l.0179.0448-.6718 1.5938-.0716-.3044c-.0358-.1522-.0627-.2866-.0896-.403-.0448-.2149-.0806-.385-.1343-.5462-.0896-.2507-.1702-.5103-.2598-.77-.2149-.6537-.4299-1.3252-.7523-1.9251-.5643-1.0298-1.5764-1.567-3.0901-1.6476-2.7766-.1522-5.6339.0985-8.4732.7342-1.7824.403-3.5827.8865-5.3203 1.3611l-.7255.197c-.3224.0895-.6359.2328-.9673.385-.1702.0806-.3404.1522-.5195.2328-1.3704.3223-5.4816 2.149-6.4758 3.1966-.5643.591-.7345 1.3431-.5195 2.3101.3672 1.6745.8061 3.4384 1.5137 4.9427.6718 1.4237 1.5137 2.731 2.7139 4.2353 1.0927 1.3699 2.5348 2.0415 4.4068 2.0504 2.0421 0 4.0395-.188 5.9204-.5999 1.6212-.3492 3.2692-.6715 5.0337-.9849l.4747-.0806-.403.2686c-.3225.2149-.6897.3761-1.0928.4746-.4657.1164-.9404.2328-1.4062.3402-1.0658.2597-2.1586.5283-3.2423.779-1.5496.3492-3.108.5283-4.6307.5283zm-6.0369-3.716c.2149.3582.412.6716.5643.9044.5822.9312 1.2091 1.5311 1.9705 1.8893.9762.4567 2.0511.6984 3.1975.7163 1.6123.0269 3.2513-.1522 4.8994-.5193 1.0838-.2418 2.1765-.5104 3.2424-.7701.4657-.1164.9404-.2328 1.4062-.3402.1522-.0358.3045-.0806.4478-.1343-1.5137.2775-2.9557.5641-4.3709.8685-1.8988.4119-3.9052.6089-5.9652.5999-1.9078-.0089-3.4394-.7252-4.559-2.131-.2956-.3671-.5643-.7253-.8151-1.0745z" fill="#190602"/><g fill="#000"><path d="m79.2774 84.3712c-.1075 0-.215 0-.3135 0-1.1912-.0179-2.3198-.2686-3.3498-.7522-.8241-.385-1.5048-1.0297-2.1317-2.0236-.5733-.9133-1.9078-3.0444-2.3288-4.2621-.7255-1.5222-1.1644-3.3041-1.5316-4.9964-.2329-1.0745-.0269-1.9609.618-2.6414.824-.8775 3.4215-2.1132 5.2039-2.8116l.1523-.0806.2687-.1701c3.2154-1.2626 8.912-3.1071 12.5395-3.4742 3.1169-.3134 6.2876-.4925 9.4225-.5194 1.0838 0 1.2898.0269 1.6212.8955.2956-.0985.5549-.0985.7879-.018.278.0985 2.562 2.4356 2.634 3.0534l-.144.967s-.94-1.1819-1.298-1.5311c-.323-.3313-.663-.5731-.986-.8327-.089-.0717-.5281-.5462-1.1193-.4119-.215.0537-1.0748.2507-1.5047.8237-.43.5731-.1792 1.4595.2328 2.2654l-.7165 2.149-.1881-.8238c-.0358-.1522-.0627-.2865-.0896-.4029-.0447-.2239-.0806-.385-.1343-.5283-.0896-.2597-.1702-.5193-.2598-.779-.206-.6447-.4209-1.3163-.7434-1.8983-.5374-.976-1.4958-1.4863-2.9557-1.5669-2.7677-.1433-5.598.0985-8.4284.7342-1.7824.394-3.5737.8865-5.3024 1.3521l-.7255.197c-.3045.0805-.618.2238-.9404.376-.1702.0806-5.9653 2.3549-6.9416 3.3847-.5195.5462-.6717 1.2535-.4747 2.1579.3673 1.6654.7972 3.4115 1.5048 4.9068.6717 1.4148 1.4958 2.7042 2.696 4.1995 1.0569 1.3252 2.4541 1.9788 4.2724 1.9878 2.0511 0 4.0305-.1881 5.8846-.591 1.6212-.3492 3.2692-.6715 5.0426-.9849l1.2719-.2239-1.0748.7163c-.3404.2239-.7255.394-1.1465.4925-.4657.1164-.9404.2239-1.4062.3403-1.0748.2596-2.1675.5283-3.2513.779-1.5674.3492-3.1349.5283-4.6665.5283zm9.6913-2.1848.0179.0627c.0806-.0359.1701-.0717.2418-.1075-.0896.0179-.1791.0358-.2597.0448zm-16.2477-2.5072c.1702.2866.3314.5641.4926.8238l.0538-.0358c-.1971-.2686-.3762-.5283-.5464-.788z"/><path d="m76.8941 66.3105s-.0267.0179-.0445.0268c.0178 0 .0445-.0089.0623-.0178h-.0178z"/><path d="m36.6872 74.9058c-.1881.2328-.1701 1.0208-.1701 1.2446v1.6923c.6359.0448 1.8361-.573 1.9973.0806l1.1107 1.0208c-.0359-.2865-.4389-.9402-.4389-1.2267 0-1.4506.5643-2.5967 1.9615-3.2414 1.6391-.7521 3.332-1.3073 5.0875-1.746 3.2244-.8059 6.4847-1.3252 9.8077-1.4058 1.5316-.0358 3.0542 0 4.5411.5283 1.0569.385 1.5495 1.0924 1.6659 2.14.1344 1.1998.215 2.4086.3404 3.6085.206 1.943-.215 3.7875-.7703 5.6321-.5016 1.6744-1.6122 2.7668-3.2155 3.3578-.9584.3492-1.9436.5999-2.9199.8864-.4478.1343-.8957.2418-1.3435.3582.9494-.0538 1.863-.2507 2.7855-.4298.6449-.1254 1.2898-.2328 2.0064-.3582.1791-.1343.4299-.385.7255-.5193.7523-.3403 1.2002-1.0297 1.854-1.4774.0627-.0448.1344-.1075.1523-.1791.215-.7164.4657-1.4237.6001-2.158.1791-.976.3493-1.9609.3851-2.9548.0359-1.0655.0717-2.6235-.0806-3.9667-.0716-.6357-.0179-1.2804-.1164-1.9161-.0985-.6626.3135-1.1282.9046-1.37.1702-.0716.3493-.1522.5285-.197 1.0658-.2865 2.1227-.582 3.1976-.8238.4657-.1074.9583-.1432 1.442-.1522.6807-.0268.9673.197 1.1913.8327.0716.206.1433.4119.206.6179-.0448-.1791-.0807-.3582-.1254-.5373-.1792-.8327-.0896-1.6206.5105-2.2564.2597-.2776.5374-.5104.833-.7163.2597-.2149.5374-.4029.824-.5641 1.2987-.6984 2.5437-1.5043 3.9589-1.9431.2598-.0805.4747-.2775.7076-.4208-1.236.3044-2.4094.7701-3.5379 1.3521-1.3615.6984-2.7587 1.3431-3.4753 2.8384-.1254.2507-1.236.4567-1.2629.4388-.0716.0358-2.8303.188-3.6991.3223-.7703.1164-1.5406.2149-2.2303.6537-.1612.0984-.5016.0984-.6628-.009-1.0121-.7074-2.1765-.9402-3.3498-.976-1.6391-.0537-3.2782-.0179-4.9173.0716-3.6454.197-7.1834.985-10.6496 2.0863-1.1465.3672-2.2751.8149-3.4126 1.2267-.1612.0627-.3493.0717-.6001.1254"/><path d="m49.8988 68.1459c-.1522.197-.3224.2955-.5911.2328-.6449-.1343-1.2808-.3223-1.9616-.0179-.2687.1164-.5463-.0806-.4836-.4746.7703-.1253 1.4599-.4387 2.1496-.7431.4837-.2149 1.0927-.1433 1.6391-.197.197-.0179.421.0537.6001-.0179.2956-.1165.5464-.0538.6718.179.0806.1523-.0269.403-.0627.6805.0716.0627.2149.1881.5105.4388-.9494-.0269-1.7197-.0448-2.49-.0627-.0955-.2567-.2806-.3492-.5553-.2776.2508.1075.412.1791.5732.2507z"/><path d="m74.9865 83.126c.2597.7163 3.099 1.2177 3.7887 3.3846.1881.582-.4926 1.5401.0806 1.9072.421.2597.7076-.6088.6987-.9222 0-.591-.009-1.173-.2956-1.6924-1.1375-2.131-3.5469-2.4534-4.2814-2.6683z"/><path d="m54.0284 67.7789h-.7345c.2508-.1492.4957-.1492.7345 0z"/><path d="m105.163 49.8708c-.063-.0179-.135-.0716-.153-.1253-.017-.0448.036-.1164.054-.1791"/><path d="m89.5144 64.0449c-.2687.009-.3672.0179-.4568.0179v-.0179z"/><path d="m62.8773 77.0558c-.0448.0626-.0627.1074-.0896.1432-.0447-.0447-.1074-.0716-.1433-.1253-.0089-.009.0538-.1075.0627-.0985.0538.0179.1075.0537.1612.0806z"/><path d="m49.8984 68.1464c-.1612-.0716-.3314-.1433-.5732-.2507.2747-.0776.4598.0149.5553.2776l.0179-.0179z"/><path d="m88.0727 69.9637c-.9495-.4477-4.3083-1.352-4.9621-1.2983-1.3614.1164-2.7229.3044-4.0216.8148-.5195.2059-1.9168 1.9609-2.2034 2.4355-.1612.2686-.2329.591-.3583.9133.9226-.0537 1.1286-.0985 2.3467-.5372.3046-.1075 1.2629-.7611 1.3883-.8328-.1164-.0447-.2329-.0895-.3403-.1432-.4389-.206-.5106-.591-.1523-.9402.1702-.1612.412-.3044.6359-.3313.412-.0537 2.0064-.4298 1.0838.8327-.2418.206-.3851.1791-.618.403-.0448.0447.2418.9222.8778.9401.7434.018 1.4868 0 2.2212.0269.8241.0448 1.4152-.385 1.9168-1.0566.1791-.2417.3672-.4656.5374-.6894.8151.2507 1.2898 1.1909 2.1228 1.1013.7434-.0806 1.5226.1343 2.3825-.3313-.5733-.2059-2.3736-1.0834-2.8393-1.3073z"/><path d="m103.308 69.7307c.69-.8775 1.433-1.755 2.463-2.2385.287-.1343.636-.2597.958-.2776.591-.0358.95.4835 1.156.985.224.5372.295 1.2356.403 1.8087.448 2.4713.089 4.9963.376 7.4856.269 2.3191-.125 5.6858-1.612 8.4526-.994 1.8446-.744 4.3696-3.565 3.6533l.278.3671c.331-3.904.645-7.8259.671-11.7478.018-3.0801-.188-6.1514-.43-9.2226-.035-.4925-.841-.403-.797.0895.242 3.0712.484 6.053.466 9.1331-.018 3.9219-.331 7.8438-.663 11.7478-.018.1612.126.3223.278.3671 2.642.6626 3.144-1.6117 4.308-3.5816 1.048-1.764 1.989-6.9573 1.594-10.4136-.188-1.6565.233-3.1071.027-4.7636-.098-.7611-.224-1.5222-.394-2.2743-.143-.6447-.251-1.5491-.663-2.1042-.555-.7611-1.639-.6178-2.4-.2955-1.191.5193-1.845 1.0297-2.526 2.0953 0 0 .018.6894.054.7431z"/><path d="m104.186 90.495c-.269 0-.564-.0358-.896-.1254-.161-.0447-.322-.2149-.313-.4119.34-3.9666.645-7.8527.663-11.7477.018-2.8384-.161-5.6948-.368-8.3989 0-.1343.224-.3224.162-.3761-.09-.0627-.197-.1701-.126-.2776.081-.1253.072.0985-.027-.0179-.026-.0358-.071-.1074-.071-.1522-.018-.2597.161-.394.358-.4119h.072c.663-.8238 1.361-1.3968 2.122-1.7281.816-.3582 1.89-.4567 2.455.3044.331.4567.465 1.1282.582 1.7282.027.1432.054.2686.08.3939.162.7253.287 1.4685.395 2.2833.107.8417.044 1.6476 0 2.4176-.054.7522-.108 1.5312-.018 2.346.403 3.4921-.547 8.6586-1.595 10.4404-.215.3582-.403.7343-.591 1.1014-.716 1.3968-1.352 2.6325-2.875 2.6325zm-.824-20.7466c.215 2.722.385 5.6052.376 8.4706-.018 3.895-.322 7.781-.663 11.7477-.009.1433.117.2865.242.3223 2.114.5373 2.84-.8506 3.664-2.4623.188-.3582.376-.7343.6-1.1014 1.048-1.7729 1.988-6.9125 1.585-10.3867-.098-.8238-.036-1.6028.018-2.3549.054-.7701.116-1.567 0-2.3997-.099-.8059-.233-1.5491-.394-2.2743-.027-.1254-.054-.2597-.081-.403-.116-.5909-.251-1.2535-.573-1.6923-.528-.7253-1.558-.6178-2.347-.2776-.734.3224-1.415.8686-2.06 1.6655.117.0268.224.1074.287.2238.493-.5462 1.057-1.0386 1.738-1.361.367-.1701.698-.2686.976-.2865.492-.0269.913.3223 1.2 1.0118.17.4208.26.9223.331 1.4147.018.1433.045.2776.072.403.251 1.3789.251 2.7936.251 4.1636 0 1.0924 0 2.2206.125 3.322.242 2.0773-.036 5.5425-1.612 8.4705-.26.4835-.43 1.0029-.6 1.5133-.448 1.361-.842 2.5519-2.66 2.2385 0 .0806-.018.1701-.018.2507v.1074l-.43-.5462.116.0269c.09.0179.171.0448.251.0537.332-3.8413.618-7.6109.645-11.3985.018-3.1339-.197-6.2858-.43-9.2227-.215.2507-.421.5014-.627.7611zm.251 19.9228.134.1791c0-.0537 0-.0985.009-.1522-.054-.009-.098-.0179-.152-.0358zm.242-.0358c1.755.3044 2.131-.8506 2.57-2.1759.17-.5103.341-1.0386.6-1.5311 1.568-2.9101 1.845-6.3574 1.604-8.4258-.126-1.1103-.126-2.2385-.126-3.3309 0-1.37 0-2.7757-.251-4.1457-.026-.1343-.044-.2686-.071-.403-.081-.4835-.161-.9849-.332-1.3968-.188-.4477-.519-.9581-1.065-.9581-.018 0-.036 0-.054 0-.269.0179-.591.1075-.95.2776-.68.3224-1.245.8148-1.737 1.37 0 .0268.009.0537.009.0806.233 2.9369.448 6.0887.43 9.2316-.027 3.7965-.314 7.5662-.645 11.4164zm-.618-20.3526c-.054.0895.134-.2059.08-.1164-.045.0627.108.394.161.4387.045.0359-.25.1702-.206.1164-.008-.1522-.026-.2954-.035-.4477zm.08-.1164c.009.1522.027.3044.036.4566.197-.2507.394-.4924.609-.7342-.045-.1253-.161-.197-.277-.2149-.126.1522-.242.3224-.368.4925zm.26-.5014c-.134.0089-.296.1074-.278.3223v.0448c.09-.1254.179-.2507.269-.3671z"/><path d="m103.156 89.5016c-.636 4.665-1.075 9.4017-2.804 13.8254-1.4237 3.635-3.7077 6.885-6.5291 9.572-2.8124 2.677-6.1981 4.772-9.8793 6.035-2.078.716-4.2187 1.11-6.3952 1.343-2.4541.268-5.0068.725-7.4699.743-4.7471.027-8.1328-3.456-12.1902-5.265-.4837-.215-.1702.797.3135.994 3.8962 1.567 6.4489 4.557 10.6138 5.086 2.4631.313 5.1232-.305 7.5774-.564 2.2571-.233 4.4963-.538 6.6728-1.182 7.5058-2.23 13.9726-7.781 17.2602-14.9 2.248-4.871 2.893-10.3419 3.233-15.6427.018-.2328-.385-.2954-.412-.0537z"/><path d="m70.2752 121.969c-.4926 0-.9763-.027-1.46-.09-2.5258-.322-4.4426-1.531-6.4668-2.811-1.2898-.815-2.6243-1.666-4.1649-2.283-.2956-.117-.5464-.529-.5822-.824-.0179-.117 0-.206.0627-.251.0537-.045.1344-.036.2329 0 1.3256.591 2.5885 1.37 3.8245 2.122 2.5169 1.54 5.1233 3.143 8.294 3.143h.0627c1.7376-.009 3.538-.242 5.2845-.475.7166-.089 1.469-.188 2.1855-.268 2.4721-.269 4.4963-.699 6.3862-1.343 3.6096-1.245 7.0221-3.331 9.8614-6.026 2.8931-2.758 5.1412-6.062 6.5113-9.554 1.487-3.8058 2.025-7.9068 2.544-11.8734.081-.6447.17-1.2894.26-1.9341.018-.1433.143-.197.26-.1881.125.009.25.1075.241.2508-.34 5.2291-.976 10.7538-3.242 15.6608-3.2782 7.1-9.745 12.679-17.2866 14.917-2.2392.663-4.5321.967-6.6728 1.182-.6628.072-1.3615.17-2.0332.26-1.3525.188-2.7408.385-4.0933.385zm-12.5037-6.196s-.0358 0-.0448.009c-.0358.027-.0448.089-.0358.17.0268.242.2508.644.5284.752 1.5406.618 2.8841 1.468 4.1739 2.283 2.0153 1.272 3.9141 2.481 6.431 2.803 1.7913.233 3.6902-.036 5.5263-.296.6718-.098 1.3704-.197 2.0422-.259 2.1406-.224 4.4246-.52 6.6638-1.182 7.5237-2.239 13.9637-7.799 17.2325-14.873 2.266-4.898 2.893-10.4046 3.234-15.6337 0-.0985-.081-.1523-.161-.1612-.063 0-.153.0179-.171.1164-.089.6447-.17 1.2894-.259 1.9341-.52 3.9756-1.057 8.0765-2.544 11.9004-1.3705 3.51-3.6365 6.823-6.5385 9.589-2.8483 2.713-6.2698 4.8-9.8883 6.044-1.8899.654-3.9231 1.075-6.4041 1.352-.7255.081-1.469.179-2.1855.269-1.7466.224-3.5469.466-5.2935.475-.0179 0-.0448 0-.0627 0-3.1886 0-5.804-1.603-8.3387-3.152-1.2271-.752-2.49-1.531-3.8067-2.113-.0269-.018-.0716-.027-.0985-.027z"/><path d="m101.92 97.8825c-.161 2.8025.197 5.5875.672 8.3365.466 2.731.949 5.48 1.657 8.157.627 2.364 1.478 4.692 2.785 6.769 1.12 1.764 2.356 3.394 4.3 4.28.43.197.68-.215.313-.492-.913-.699-1.424-1.12-2.23-1.961-.788-.824-1.469-1.755-2.051-2.731-1.245-2.087-2.024-4.406-2.616-6.761-1.28-5.059-2.4-10.368-2.463-15.5975 0-.2418-.367-.2418-.376 0z"/><path d="m111.557 125.56c-.071 0-.161-.018-.251-.063-1.979-.904-3.251-2.605-4.335-4.307-1.164-1.835-2.078-4.056-2.803-6.796-.681-2.605-1.156-5.238-1.657-8.157-.43-2.48-.842-5.417-.672-8.3631.009-.1701.143-.2596.278-.2596.125 0 .26.0985.26.2686.071 5.3991 1.289 10.9061 2.463 15.5801.707 2.794 1.531 4.934 2.606 6.733.609 1.021 1.29 1.934 2.033 2.714.797.832 1.308 1.253 2.213 1.951.232.18.25.394.17.538-.054.098-.17.161-.314.161zm-9.557-27.6771c-.161 2.9281.251 5.8471.672 8.3181.502 2.919.976 5.552 1.657 8.148.717 2.722 1.621 4.925 2.777 6.752 1.066 1.683 2.32 3.358 4.263 4.244.179.081.305.036.349-.036.045-.071.027-.197-.125-.313-.914-.699-1.433-1.128-2.239-1.97-.753-.788-1.442-1.719-2.06-2.749-1.084-1.818-1.917-3.976-2.625-6.778-1.182-4.683-2.4-10.199-2.472-15.6161 0-.0896-.071-.0985-.098-.0985-.009 0-.108 0-.108.0985z"/><path d="m70.428 149.145c2.1765 2.874 4.8008 4.011 8.0521 5.444.6091.268 1.245.564 1.9257.394.7614-.197 1.4331-.869 2.0422-1.343 1.5137-1.191 2.9199-2.507 4.2813-3.877 2.8035-2.821 5.392-5.865 8.2672-8.614 2.7139-2.597 5.7235-4.818 8.6255-7.19 3.188-2.606 6.019-5.006 8.142-8.578.25-.421-.341-.815-.583-.394-3.591 6.035-9.583 9.357-14.7694 13.87-2.7228 2.372-5.1501 5.05-7.6132 7.691-1.2361 1.325-2.49 2.65-3.8067 3.904-.6538.627-1.3256 1.236-2.0153 1.827-.6896.591-1.5226 1.468-2.3825 1.853-1.1196.502-2.4452-.403-3.4483-.913-.8957-.457-1.7735-.958-2.6333-1.495-1.7556-1.111-2.7229-2.006-3.7619-3.161-.0896-.099-.8957-.224-.8151-.117l.4748.708z"/><path d="m60.5842 102.861c.8867-.429-.5912-.053.2239-.662.9046-.672 3.9858 0 4.9352 0 1.9884.009 4.0932-.976 6.0637-1.155 3.5648-.314 7.6044.188 11.4468-1.3703.4926-.197.3762-1.3699-.0627-1.0924-3.8245 2.4357-7.3266.985-11.3841 1.5757-1.0031.144-3.2423.806-4.2276 1.066-1.0927.286-2.5168.242-3.6096.134-1.1823-.116-3.9857-1.164-4.5679.833-.0448.152.5374.313.6628.251l.5195.429z"/><path d="m59.5449 102.378c.6807.725 1.9077 1.128 2.7766 1.576.9136.474 1.863.913 2.8482 1.209 2.1586.644 2.6691.492 6.4131 0 .5016-.063-1.5137-.511-2.0243-.493-2.1675.081-2.1765.313-4.335-.295-1.039-.287-2.0243-.753-3.0006-1.2-.7792-.358-1.7376-1.003-2.6064-.985-.0896 0-.1343.116-.0716.179z"/><path d="m65.6715 91.9997c1.2271.8865 2.5258 1.2178 3.9499.5642 3.7619-1.7282 4.2545-2.6146 6.3594-3.2235.3941-.1164.0537-.8954-1.5227-.2776-1.2539.4925-3.2423 1.9072-4.4336 2.6056-.5732.3313-1.2181.5552-1.8809.6179-.8599.0806-1.5764-.1343-2.3467-.4298-.1433-.0537-.2418.0627-.1254.1432z"/><path d="m74.6646 63.2752c-1.0658-.3224-2.0332.1074-2.8393.8685-.6717.6447-.2597 1.7461.6807 1.7192.7614-.0269 1.4242-.2776 1.9078-.8865.8688-1.0655-.4478-2.4086-1.5137-1.5132-.1702.1433-.9315.976-1.1464.967l.8956.5194-.0537-.1075v1.0477l-.2239.188-1.254-.1612.0717.0627c-.0538-.4209.1164-.8596.0627-1.2804-.206.2686-.627.5641-.833.8327-.5464.6984-.0806 2.14 1.0032 1.7192 1.9346-.7611 3.7976-1.6476 5.598-2.6863-.3583-.6178-.7166-1.2267-1.0749-1.8445-.3672.2597-.7255.4656-1.1464.6178.1881.6895.3851 1.3879.5732 2.0774.9852-.385 1.9705-.779 2.9557-1.173 1.2719-.5104.8062-2.3101-.5732-2.0684-1.0211.1791-2.0601.2597-3.0543.5462-5.374 1.5222-.7702 2.2654.5643 2.0415l3.2155-.5372c1.1644-.197.9046-2.149-.2777-2.0684-1.1016.0806-2.1585.2686-3.1975.6178.1881.6716.3672 1.3431.5553 2.0147 3.2065-1.2267 6.834-1.5043 9.9241-2.9996.5106-.2507 1.0121-.7432 1.5585-.9044.4568-.1343 1.0121.0627 1.451.206 1.2808.4208 2.481 1.0297 3.7887 1.4237.1165-.8328.224-1.6744.3404-2.5072-6.3683.0717-19.8214 5.65-18.1733 5.1934 5.9383-1.6565 12.011-2.5072 18.1733-2.6415 1.4331-.0268 1.3973-2.1489 0-2.5519-1.3973-.4029-2.3019-1.0118-3.6633-1.4058-1.3615-.3939-1.8631-.5014-3.0633.3403-1.3883.976-2.5616 1.1461-4.1738 1.6117-1.863.5462-4.8904 1.5312-6.7087 2.2206-1.236.4656-.7434 2.4445.5553 2.0147.8689-.2865 1.7287-.4746 2.6423-.5283l-.2777-2.0684c-1.0748.1701-2.1496.3492-3.2154.5194.188.6805.3761 1.361.5642 2.0415 1.0211-.1791 2.0422-.3492 3.0543-.5283l-.5732-2.0684c-.9853.385-1.9705.7611-2.9558 1.164-1.2629.5104-.7434 2.5699.5733 2.0774.5911-.2239 1.1375-.4835 1.648-.8507 1.0927-.7879.1254-2.5608-1.0748-1.8445-1.6301.967-3.314 1.8356-5.0606 2.5519l1.1644 1.5132c.206-.2686.412-.5282.618-.7969.3224-.4118.4658-1.0744 0-1.4684l-.0716-.0627c-.3494-.2955-.1702-.7342-.5822-.4746-.6539.4119-2.0959 1.7282-1.8004 2.4087.1434.3402 1.2092.1074 1.5496.1343 1.039.0806 1.8988-.9402 2.6601-1.5401-.5015-.5014-1.0121-1.0118-1.5137-1.5133-.0806.1791-.206.2508-.3941.2239l.7703 1.8535c.3404-.3403.6628-.5014 1.1465-.5104 1.0121-.0179 1.2092-1.4595.2418-1.755z"/><path d="m130.985 102.306c.699.779 1.147 1.352 2.06 1.871 1.469.824 2.965 1.612 4.443 2.409 2.768 1.504 5.526 3 8.294 4.504 5.723 3.107 11.456 6.214 17.179 9.321v-.439c-11.868 7.423-24.192 14.085-36.732 20.299-12.342 6.116-24.927 12.169-38.3617 15.482-8.1328 2.005-16.0685 1.97-24.0311-.788-.3135-.108-.4478.385-.1343.492 6.4309 2.23 13.2023 2.91 19.9288 1.737 6.9416-1.209 13.7398-3.546 20.2693-6.133 13.077-5.194 25.724-11.676 38.102-18.347 7.201-3.877 14.295-7.96 21.228-12.303.161-.099.17-.349 0-.439-5.527-2.999-11.062-5.999-16.588-9.008-2.768-1.504-5.527-2.999-8.294-4.503-1.38-.753-2.768-1.505-4.147-2.248-1.174-.636-1.971-1.298-2.848-2.274-.224-.242-.583.116-.359.358z"/><path d="m77.0472 157.812c-4.4426 0-8.912-.77-13.3636-2.31-.1881-.063-.2329-.26-.1881-.403.0448-.125.1702-.233.3493-.17 7.6133 2.633 15.4595 2.892 24.0132.779 13.095-3.232 25.124-8.918 38.353-15.482 13.704-6.796 25.581-13.341 36.293-20.021l-25.034-13.583c-.493-.269-.986-.528-1.478-.797-.976-.519-1.989-1.066-2.965-1.621-.815-.456-1.263-.967-1.827-1.603-.081-.089-.161-.179-.251-.277-.134-.143-.08-.331.027-.439.099-.089.269-.125.394.018.914 1.012 1.711 1.648 2.839 2.265l29.029 15.76c.09.044.144.134.144.241 0 .108-.054.215-.144.278-6.619 4.146-13.766 8.282-21.236 12.303-20.028 10.78-30.498 15.32-38.102 18.347-8.0884 3.214-14.3491 5.104-20.2785 6.142-2.1855.376-4.3799.573-6.5923.573zm-13.2919-2.811c-.0896 0-.1433.062-.1702.134-.0358.107 0 .242.1343.295 6.637 2.293 13.3278 2.884 19.9021 1.738 5.9294-1.03 12.1812-2.928 20.2605-6.134 7.604-3.018 18.075-7.557 38.093-18.338 7.47-4.02 14.609-8.157 21.228-12.303.062-.045.107-.116.107-.197 0-.071-.036-.134-.098-.17l-.198-.107v.582l-.42-.224c-10.722 6.688-22.616 13.252-36.338 20.048-13.238 6.563-25.267 12.258-38.3711 15.482-8.5627 2.113-16.4357 1.853-24.058-.788-.0268 0-.0537-.009-.0716-.009zm98.9277-34.787.251.134v-.295c-.081.054-.17.107-.251.152zm-31.501-18.302c-.054 0-.098.027-.134.054-.081.071-.117.206-.027.313.089.099.17.188.251.278.564.635 1.003 1.128 1.809 1.585.976.555 1.988 1.092 2.965 1.611.492.269.985.529 1.477.797l25.079 13.61c.117-.071.242-.152.359-.223l.053-.036-28.831-15.643c-1.138-.618-1.944-1.263-2.858-2.283-.044-.045-.089-.072-.134-.072z"/><path d="m73.0969 167.089c5.9563.689 11.9842 1.2 17.9047-.009 5.7144-1.164 11.2584-3.268 16.8744-4.826 11.08-3.081 22.303-5.65 33.373-8.775 10.811-3.054 21.514-6.644 31.555-11.721 2.374-1.2 4.971-2.373 7.058-4.038 1.8-1.442 2.508-3.34 2.803-5.57.386-2.964.565-5.972.798-8.945.223-2.91.779-6.089.421-8.999-.636-5.211-6.333-4.79-10.256-4.11-5.956 1.039-11.572 3.519-16.409 7.128-.394.295-.009.958.385.662 4.103-3.062 8.742-5.301 13.713-6.527 2.275-.564 4.72-1.066 7.076-.94 1.308.071 2.75.376 3.681 1.378 1.048 1.129 1.129 2.758 1.075 4.209-.089 2.847-.358 5.704-.582 8.551s-.287 5.784-.842 8.56c-.636 3.161-2.983 4.567-5.607 6.008-2.275 1.263-4.595 2.436-6.95 3.537-18.962 8.883-39.679 12.876-59.76 18.356-5.616 1.531-11.1425 3.483-16.7942 4.889-6.4668 1.612-12.9784 1.155-19.5348.403-.4926-.054-.4837.707 0 .77z"/><path d="m60.7362 128.658c-2.3467 3.716-4.0485 7.915-5.6697 11.989-1.8093 4.558-3.3857 9.205-4.7113 13.924-2.7407 9.777-3.9678 19.797-4.5321 29.915-.3583 6.42-.5822 12.885-.4478 19.314l.7792-.107c-.0537-.35-.1075-.69-.1612-1.039-.0627-.403-.7524-.313-.7166.098.0359.35.0627.699.0986 1.048.0447.502.7792.519.7882 0 .3314-13.789.2149-27.659 3.0094-41.242 1.2003-5.82 2.8662-11.542 4.8278-17.156 1.9973-5.704 4.5411-11.094 6.9773-16.601.0717-.161-.1433-.305-.2418-.143z"/><path d="m102.242 38.2129c.17.1612.367.2955.493.4745 1.496 2.1759 2.132 4.7547 3.045 7.2081.323.8775-.072 1.7281.054 2.6772 0 .0538-.045.4746-.072.4925-.546.3761.6.5104.627 1.0029 0 .0626-.08.1253-.152.2328-.188-.0985-.376-.197-.555-.2955-.233.2417-.135.4208.026.573.269.2508.52.5462.833.6985.493.2328-.394.5462-.295 1.0207.134.6358.349 1.0387-.188 1.3969-.179.1164.492-.0359.233.2059.035-.3671.053-.5999.071-.8775-.367-.0806-.51.0448-.501.4208 0 .2329-.036.4657-.063.7074-.546-.1612-.976-.2865-1.415-.4208 0-.0627 0-.1164 0-.1791.251-.0716.492-.1433.842-.2418-.081-.2596-.161-.5103-.287-.9133-.385.3582-.681.6268-1.003.9223-.761-.8954-1.469-1.7281-2.212-2.5967.877-.5372.233-1.37.582-1.9967-.985-.6089-1.191-1.755-1.818-2.6236-.269-.3671-.43-.8059-.69-1.3073-.3673.5552.242.976-.0627 1.4237.4117.1343.8867.188.8687.8148-.125-.0268-.242-.0358-.349-.0716-.3406-.1074-.6809-.2149-1.0123-.3403-.2061-.0805-.5375-.1969-.5554-.3313-.0716-.5103-.4836-.6178-.8509-.8416.0359-.1433.0627-.2776.1075-.4477-.4926-.1075-.9673-.206-1.4958-.3134.0627-.1791.1165-.3313.1971-.5641-1.8451-.1881-3.5469-.8149-5.3383-1.576h.7882c-.4299-.6626-.4657-.6805-.9942-.4566-.0985.0448-.197.1343-.2776.1253-1.1375-.1701-2.3557-.0089-3.323-.8327-.0179-.0179-.0179-.0448-.0448-.1164.0717-.1253.1612-.2776.2598-.4298-.5016-.0716-.9853-.1343-1.5227-.2149.0717-.197.1344-.3492.2508-.6626-.4658.2239-.8061.385-1.1823.5641-.1791-.1164-.3672-.2417-.5374-.3581.0448-.5462.6628-.2866.824-.6985-.5105-.3223-1.039-.0537-1.5316-.0447-.4299-.7074-.6718-.7969-1.6928-.6179 0-.0716-.0179-.1343 0-.1969.0268-.0717.0806-.1254.1343-.206-.6986-.2686-1.3166-.6268-1.7734-1.2088-.215-.2686-.43-.2149-.6807-.0716-.7255.4298-1.0032.4119-1.6391-.1254-.2508-.2059-.5016-.376-.842-.2776-.3941.1075-.7076-.0358-1.0121-.2954.0358-.197.0627-.394.0985-.591.206-.0269.412-.0448.6181-.0716-.018-.0627-.0359-.1254-.0627-.197-.1792.0895-.3583.188-.5375.2775-.2687.0806-.5553.1523-.815.2597-.3135.1254-.5912.3761-.9047.4298-.3134.0448-.6538-.0895-1.0121-.1522-.0716.1791-.1433.3402-.206.5014-.0716 0-.1523.0179-.2239 0-.3493-.0985-.4478-.394-.5732-.6894-.1523-.3582-.4031-.4298-.7882-.1612.1612.2059.3045.394.5015.6536-.3134.0269-.5284.0448-.7882.0627-.1074.1701-.2239.3671-.412.6716-.1164-.2328-.2776-.394-.2418-.4925.0985-.3134.0806-.5552-.2687-.7522-.1075.0806-.2687.1433-.3314.2687-.4747.8954-1.3167.8237-2.1228.7969-.3135-.009-.5553.0089-.6896.3402-.1254.3134-.421.3761-.7166.3403-1.5853-.1612-3.0005.385-4.4336.9491-.7165.2776-1.4779.4567-2.2213.6805-.0985.0269-.2508 0-.2956.0538-.5374.6894-1.4062.5462-2.0959.8506-.206.0895-.3851.2418-.5821.3582-.3673.2149-.7345.4298-1.1823.6984 0-.0269-.018.0985-.0448.3044-.4568.0716-.9315.1433-1.4062.2239-.0717.0089-.1613.0268-.215.0716-.6449.5104-1.4152.77-2.1407 1.1372-.5822.2954-1.1017.5909-1.5495 1.1013-.2866.3313-.7524.4925-.7703 1.0297 0 .0627-.0896.1164-.1612.2149-.1791-.0806-.3583-.1522-.5195-.2238-.0627.0537-.1254.0806-.1344.1253-.1433.4746-.3134.8954-.8509 1.1282-.2776.1164-.4836.4567-.6896.7164-.2956.3671-.5374.779-1.2271.6805.1523.4029.2418.6536.3493.967-.3762.4746-.5374 1.1461-1.1644 1.5401-.197.1254-.2508.5462-.2776.8417-.0359.3492-.1165.6178-.3583.8954-.3404.394-.7703.8059-.4837 1.4506.0359.0716-.1791.2507-.3045.4119.206.3939.3224.8058-.1433 1.155-.0717.0538-.1433.197-.1254.2597.2687.6984-.4658 1.1909-.3852 1.8535.009.0716-.188.1612-.2507.2686-.0717.1254-.1881.3134-.1434.4029.1881.3851-.0358.7074-.0716 1.0656-.0358.3134-.1702.5372-.4926.6268-.3314.0895-.4389.3313-.4568.6447-.009.2596-.0448.5193-.0269.779.0269.4387-.1433.7969-.3672 1.164-.215.3492-.4926.7432-.4837 1.1193 0 .5461-.3224.8148-.5822 1.1819-.1702.2507-.3762.4925-.4657.77-.3225.985-.4479 1.9968-.5464 3.0444-.1612 1.7908.2239 3.2683.0358 5.0412-.0627.6178-.0537.7611-.0179 1.0476.2418-.0448.421-.0358.5732-.0985 2.0959-.8596 4.2545-1.5312 6.4489-2.0415 1.7914-.4209 3.5917-.8238 5.4458-.9223 1.6839-.0895 3.3677-.3134 5.0516-.3134 1.2629 0 2.5258.2507 3.7798.4388.2866.0447.5732.2417.815.4118.215.1433.4031.2597.636.1075.8598-.5731 1.8809-.5014 2.8303-.6984.7076-.1433 1.4421-.1791 2.1676-.2418.1791-.0179.3672-.0179.5284.0358.5643.1702 1.0748.0269 1.3615-.4656.5911-.9939 1.4689-1.6654 2.472-2.1758.7793-.403 1.5496-.8417 2.3646-1.1641 1.0838-.4118 2.2034-.7431 3.323-1.0744.7076-.206 1.5495-.6537 2.2661-.8328.0268.0627-.0538.197-.0269.2597-.1612.0806-.4478.1701-.618.2059-2.7318.6089-5.1412 1.961-7.5775 3.2951-.4209.2328-.815.5641-1.1375.9313-.5822.6536-.7971 1.4058-.5553 2.3101.3493 1.3252.7165 2.6504 1.236 3.9219.0806.188.1165.385.1971.6626-.4031-.0985-.4926-.3671-.5822-.6178-.412-1.173-.8061-2.355-1.2092-3.5279-.0627-.1702-.1343-.3403-.1791-.5104-.1254-.4835-.4747-.6895-.9315-.6447-.7703.0716-1.5585.1433-2.3109.3223-.8777.206-1.7286.5373-2.5885.8059-.627.2059-.7344.7611-.7344.7969-.0538.5014.1343 4.1278.1701 4.871.009.206-.1522 2.1221-.2328 2.8832-.0538.4836-.1344.9671-.2329 1.4416-.1165.5821-.2687 1.1462-.3941 1.7282-.1971.8954-.833 1.4058-1.6033 1.7729-1.5137.7253-2.2213 2.2116-1.9078 3.698.1612.7701.7972 1.0566 1.5137.6984 1.9436-.976 3.6992-.4924 5.392.6447.2508.1701.5643.4119.8509.5283.206.0896.5643.3134.8151.394-.1523.3492-.1702.3044-.636.0985-.4657-.206-.8956-.3671-1.5047-.788-.6449-.4566-2.3825-1.4774-4.8546.0269-.9136.5551-2.2302-.4656-2.3915-1.7102.0359-1.6924.5285-2.2206.6181-2.7221-1.4779.206-5.9115 1.4058-7.1117 1.2178-.1523 0-.0359-.6805.1254-.7163 1.9973-.1433 5.4367-.7164 7.0131-1.3521 1.8362-.7432 2.9379-2.0415 3.3499-3.9756.2866-1.3431.6359-2.6773.5105-4.0741-.0358-.4298-.215-3.1877-.2597-3.3667-.1881-.7611-.1613-1.6655-.9405-2.1401-.5284-.3223-1.1017-.6178-1.6928-.7521-1.9168-.4209-3.8694-.4029-5.813-.188-1.442.1611-2.8841.376-4.3082.6626-1.3973.2775-2.7766.6626-4.147 1.0386-.8688.2418-1.7197.5641-2.5796.8596-.1433.0537-.2866.1164-.4299.1701-1.9705.7432-2.4989 2.2565-2.1944 4.2801.0896.591.2239 1.173.3224 1.755.0179.1253.0269.2597 0 .385-.1074.5193-.2328 1.0387-.3135 1.3789-.2955-.976-.3761-2.1758-.5194-3.3756-.0538-.4298-.2419-.8417-.3941-1.2536-.1434-.403-.4927-.4925-.8689-.5373-.2687-.0358-.6717-.0716-.7523-.2328-.1881-.3671-.3225-.7879-.0717-1.2535.3046-.5552.2239-.8596-.2956-1.182-.6001-.3671-.8061-.9312-.9315-1.549-.1074-.5731-.1881-1.1282-.7792-1.4416-.1075-.0627-.1344-.2597-.206-.394-.1791-.3403-.3672-.6805-.5464-1.0208-.0716-.1343-.1881-.2865-.1612-.4208.1075-.6537-.2777-1.164-.5553-1.6655-.1971-.3581-.1702-.8864-.6718-1.0834-.0716-.0269-.0627-.2865-.0716-.4388-.0179-.3402-.0269-.6715-.0269-1.0118 0-.4656-.1523-.8685-.5016-1.1819s-.4389-.6895-.2866-1.1282c.1344-.3761.009-.6805-.2239-1.0029-.3852-.5372-.9315-.9939-1.039-1.7013-.0269-.179-.1075-.3939-.0358-.5282.4747-.9671.2239-1.9968.2508-2.9907.0358-1.1372-.1254-2.2654.2507-3.3846.1613-.4746.1254-1.0208.1881-1.567-.206 0 .009-.9939.0986-1.4774.1254-.7611.2149-1.5312.3224-2.3191-.1523-.0358.3045-1.0745.6628-1.4327.2956-.2865.6539-.5193.9046-.8327.4748-.6268 1.0211-1.164 1.6481-1.6296.0627-.0448.1702-.0806.1881-.1344.2777-.9133 1.1196-1.1461 1.8182-1.558.2687-.1522.5106-.3402.7882-.5372-.8957-.1343-.8688-.0985-1.4868.2865-.3583.2239-.7882.3403-1.2898.5462-.1075.5731-.6001.8775-1.3435 1.0566.1881-.6268.0985-1.2625.7434-1.6028.1344-.0716.2777-.1791.3314-.3134.2866-.6894 1.4421-2.0325 1.1017-2.0594.7165-1.0566 1.1285-2.2743 2.4452-2.7937.5464-.2149 1.0569-.6089.8688-1.3699-.0089-.0448 0-.1075.0179-.1523.0179-.0447.0448-.0895.0896-.2059.2597-.0269.5643-.0627.9046-.0896.1254-.9939-.8688-1.1461-1.3077-1.6833.1792-.5194.6539-.2776.7882-.3582.2956-.4835.4568-.8506.7076-1.1461.2866-.3403.0985-.591-.0627-.788.3314-.2238.618-.4387.9136-.6088.1702-.0985 4.4426-3.5996 5.6876-3.6443.3851-.0179.7613-.2597 1.1733-.403.3404.0717.7345.2149 1.1375.2328.5016.0179.6718-.3581.4031-.779-.0448-.0626-.1164-.1164-.1433-.1791-.4389-.9491-.2687-1.5848.7971-1.6206.3583-.009.7255.0447 1.0838.0537h.5643c0-.0537.0179-.1075.0179-.1522-.1702-.0806-.3404-.1523-.5105-.2328.2776-.3045.5374-.6089.824-.8775.0985-.0896.3224-.1702.412-.1254.5553.2776 1.1017.0179 1.6391.0269.0806.1253.1612.2417.2777.4208.197-.2686.3582-.4656.4926-.6895.0627-.0984.0089-.2775.0716-.3671.2687-.385.2508-.6536-.206-.8685-.1254-.0627-.1791-.2686-.2597-.4119.1702-.0985.3762-.3134.5016-.2686.9315.3134 1.8898.2417 2.8393.3313.403.0447.7613.5462 1.2002.8864.6449-.1522.9046-.5909.6717-1.2894-.0895-.2775-.2955-.573.0896-.8775.1433.1075.2866.197.412.3134.1523.1343.2777.3582.4479.4119.4299.1433.6001.4567.6628.8507.5374.1074 1.0389.2328 1.5495.2865.3403.0358 2.2123-.394 2.8035-.2776.0627.009 3.305-.5372 4.0484-.5193.8688.6357 1.8541.0537 2.7766.2776.2956.0716.9226.0447.8778.179.2239.206 2.5348.6985 3.2334.4298.2866-.1074.6628-.0358.9853 0 .403.0448.8061.1254 1.245.206.1791.3671 2.06 1.2446 2.4899 1.4953.4121.2418 1.9795 1.0208 2.0243.9402.1791.0537 1.5674 1.1461 1.6928 1.2267.0896.0537.1523.1522.2418.197.842.4119 3.3588 1.8087 3.9769 2.5608.1881.2328.5463.394.8509.4477.5374.0896.7613.4746 1.0748.8686-.1792.1701.4568 1.0566 1.021 1.3431-.2507.197.4568 1.1998 1.039 1.5759-.8688.0448-.1701.4209.3583.976.0985.0985.2777.1343.4299.1612.5285.1074 1.0659.188 1.5854.3134.1433.0358 1.8272-.0717 1.8809-.0358.2329.188.5553.376.6449.6267.1523.394.3941.6179.7255.8507.2687.188.3851.573.6001.9222.9409.1702 1.7649.6268 2.2389 1.5939-.071 0-.17 0-.215.0268-.062.0448-.08.1433-.116.2149.081-.0179.179-.0179.233-.0626.054-.0359.054-.1344.08-.206zm.645 8.1213c.045-.0448.099-.0895.143-.1432-.34-.5283-.662-1.0745-1.03-1.5849-.089-.1343-.277-.206-.439-.2776-.044-.0179-.125.0448-.241.0895.125.206.233.394.322.5462-.107.1254-.197.2239-.304.3493.528.3939.895.9133 1.54 1.0207zm1.962 5.7396c-.394-.7432-.896-1.1999-1.819-1.2984.439.7701.986 1.1641 1.819 1.2984zm-3.816-6.5365-.197.1433c-.018.5909.125.7073.69.6715-.135-.2149-.314-.5193-.493-.8148zm2.311-4.5308c-.027-.2686-.161-.4208-.43-.376-.054.0089-.152.2238-.116.2865.125.2239.313.3044.546.0895zm-2.983 3.4563c-.125-.3492-.322-.4208-.6805-.3044.1792.2865.3046.5193.6805.3044zm-63.2974-4.5307c.1164-.1791.2149-.2776.2508-.403.0089-.0358-.1613-.188-.1792-.1791-.1164.0627-.2328.1612-.3045.2687-.0179.0358.1164.1611.2329.3134zm61.4525 4.2352c.018-.0537.0269-.0985.0448-.1522-.2508-.0895-.4388-.385-.9673-.1164.412.1164.6718.197.9225.2686zm.8957 1.8177c-.1164-.1522-.1791-.3044-.2687-.3223-.0806-.0179-.2597.0985-.2687.179-.0089.0896.0896.2418.1792.2776.0716.0269.197-.0716.3582-.1343zm-24.2729-11.1209c.0179.0716.0358.1522.0538.2238.2507-.0537.5015-.1164.7434-.1701-.009-.0448-.0179-.0985-.0269-.1433-.2597.0269-.5105.0627-.7703.0896zm3.0632-11.4702c.1075-.1075.1702-.1791.2329-.2418-.0806-.0716-.1522-.1701-.2508-.197-.0537-.0179-.1433.0985-.2149.1612.0716.0806.1343.1612.2328.2776zm22.1769 18.2126c.126.0447.215.0985.296.0985.053 0 .098-.0896.152-.1343-.099-.0538-.188-.1165-.287-.1523-.026 0-.08.0896-.161.1881zm-7.0757.8148c-.0717.2238-.1254.3134-.1254.4119 0 .0537.0896.1432.1344.1432.0806 0 .1612-.0626.2418-.0985-.0448-.0716-.0806-.1432-.2508-.4566zm9.5297 5.1575c.045-.0358.099-.0626.144-.0985-.081-.1164-.162-.2328-.242-.3492l-.144.0985c.081.1164.162.2328.242.3492zm-32.9338-23.0388c.0448-.4387 0-.5999-.4658-.6089.1792.2328.2687.3582.4658.6089zm32.5398 15.9203c-.062-.1343-.08-.2238-.125-.2507-.054-.0268-.152-.0179-.206.0179-.036.0269-.027.1702 0 .1881.08.0358.17.0358.331.0537zm-1.084-2.1937c.081-.1074.162-.1701.153-.2149 0-.0627-.063-.1343-.117-.1612-.036-.0179-.161.0627-.152.0806.009.0806.063.1522.125.2865z"/><path d="m59.7428 69.0326c-.2956-.0269-2.8035-.2955-3.8245-.2508-1.245.0448-2.4811.0627-3.7171-.0985-.5733-.0716-6.1354.8955-6.7445 1.1193-.5643.2059-1.451.2418-1.9884-.1522-.215-.7701-.421-.8417-.3762-1.2625.0179-.1164.5285-.4298.5822-.4656.5105-.3582 2.4273-1.3073 3.0095-1.3611.2777-.0268 2.1855-.6536 2.911-.6984.2776-.0179 5.1232.4388 5.5084.4656.9942.0717 4.7381.9044 4.971 1.173.1702.197.2239.5999.1344.779-.1881.394-.0448.5552-.4748.7701z"/><path d="m47.4983 77.5212c-.206.0269-1.46.206-2.1497-.1701.3135-.2238.2956-.2417.4568-.4745.1254-.1881.0717-.5104.1075-.8865.3583-.582 2.3377-1.4595 2.6423-1.6117.5911-.3045 5.4726-1.1999 7.3087-1.1282 1.3525.0537 2.481.6178 3.3857 1.5311.3583.3582.4209 1.0297.5732 1.567.0179.0716-.1612.2775-.2776.3044-.1075.0269-.2598-.0985-.3852-.1612-.0179 0-.0179-.0447-.0358-.0716-.4299-.9223-.4389-.9491-1.4241-.7969-.9674.1522-1.9168.3581-2.8841.5283-.3314.0537-.6718.0895-1.0032.0985-.421.0179-.7524-.1702-.9673-.5373-.1165-.197-.2329-.4119-.3941-.582-.2777-.3044-.7703-.8775-1.7914-.2865-.6628.385-.7165.3134-1.442 1.4953-.0538.0895-.6628 1.0476-1.7377 1.1819z"/><path d="m103.451 69.0859c-.206-.8685-.672-1.5222-1.003-1.8714.466-.2776.224-2.4803.26-3.1518.036-.7432.161-1.4953-.403-2.2296.313-.0358-2.4454-6.1783-2.6335-6.9215-.009-.0358-10.9542-13.1983-14.3936-14.7115-.5285-.2328 17.6631-.7342 17.7071-.6895 5.563 2.9817 3.494 23.6209 3.646 23.4328.824.8238.376 2.3191.331 3.8413.018-.2597-1.603.6626-1.8.779-.86.5104-.788 1.0029-1.702 1.5312z"/><path d="m40.5392 82.6064c.1344.0627.1792-.1791.2687-.0716 1.254 4.083 4.3889 5.65 6.225 5.5604 1.5047.0179 3.0095-.1074 4.5053-.1611.2955-.009.5822.0179.8777.0268v.1612c-.0985.0358-.206.1074-.3134.1164-1.8899.0895-3.7798.2507-5.6697.2418-1.2002 0-2.5975-.7611-3.4842-1.6745-.2687-.2775-1.3973-1.7281-1.5853-2.0594-.421-.7432-.833-2.1311-.833-2.1311z" stroke="#000" stroke-miterlimit="10" stroke-width=".25"/><path d="m40.6195 82.6073c-.0896-.2597-.1881-.5193-.2777-.779.0537-.0179.0985-.0448.1523-.0627l.3134.7611c-.0626.0269-.1253.0448-.188.0717z"/><path d="m89.6133 42.5373c-.0359.0537-.0627.1253-.0807.1164-.0626-.0179-.1164-.0537-.1791-.0806.0179-.0358.0448-.0985.0627-.0985.0627 0 .1254.0358.1881.0537z"/><path d="m65.591 138.381c-.0358-.098-.0716-.206-.1164-.304.0358-.009.0717-.027.1075-.036.0358.107.0716.206.1075.313-.0359.009-.0717.027-.1075.036z"/><path d="m68.1436 37.7469.3672-.0448s.0089.0896.0179.1344c-.1254.0089-.2508.0268-.3672.0358 0-.0448-.009-.0806-.0179-.1254z"/><path d="m102.888 46.3338c-.636-.1074-1.013-.6267-1.541-1.0207.108-.1254.197-.2239.305-.3492-.09-.1523-.198-.3403-.323-.5462.117-.0448.197-.1164.242-.0896.152.0717.349.1433.439.2776.358.5193.689 1.0566 1.03 1.5849-.045.0447-.099.0895-.143.1432z"/><path d="m104.849 52.0737c-.825-.1343-1.371-.5283-1.819-1.2983.923.0985 1.424.5551 1.819 1.2983z"/><path d="m101.033 45.5371c.18.2955.359.591.493.8148-.564.0358-.708-.0716-.69-.6715z"/><path d="m103.344 41.0157c-.233.2149-.43.1343-.546-.0896-.036-.0627.062-.2776.116-.2865.269-.0448.412.1074.43.3761z"/><path d="m100.353 44.4629c-.3855.2149-.5109-.0179-.6811-.3044.3581-.1075.5551-.0358.6811.3044z"/><path d="m37.0636 39.932c-.1164-.1522-.2508-.2776-.2329-.3134.0717-.1164.1881-.2059.3045-.2686.0269-.009.1971.1433.1792.1791-.0448.1253-.1344.2328-.2508.4029z"/><path d="m98.5163 44.1667c-.2508-.0716-.5105-.1522-.9225-.2686.5284-.2686.7255.0179.9673.1164-.0179.0537-.0269.0985-.0448.1522z"/><path d="m99.4124 45.9843c-.1612.0627-.2866.1702-.3582.1344-.0896-.0359-.1971-.197-.1792-.2776.009-.0806.1881-.197.2687-.1791.0896.0179.1523.1701.2687.3223z"/><path d="m75.1484 34.864c.2598-.0269.5106-.0627.7703-.0896.009.0448.0179.0985.0269.1433-.2508.0537-.5016.1164-.7434.1701-.0179-.0716-.0358-.1522-.0538-.2238z"/><path d="m78.2114 23.3933c-.0985-.1164-.1612-.1969-.2329-.2775.0717-.0538.1612-.1702.215-.1612.0985.0269.1702.1253.2508.197-.0627.0627-.1254.1343-.2329.2417z"/><path d="m100.389 41.6066c.08-.0985.134-.197.161-.1881.098.0359.197.0985.287.1523-.054.0447-.099.1343-.153.1343-.08 0-.17-.0538-.295-.0985z"/><path d="m93.3031 42.4209c.1702.3044.206.3761.2508.4567-.0806.0358-.1612.0984-.2418.0984-.0448 0-.1344-.0895-.1344-.1432 0-.0896.0538-.188.1254-.4119z"/><path d="m102.834 47.5874c-.081-.1165-.162-.2329-.242-.3493l.143-.0985c.081.1165.161.2329.242.3493-.045.0358-.099.0626-.143.0985z"/><path d="m69.8993 24.5395c-.197-.2507-.2866-.376-.4657-.6088.4657.0089.5105.179.4657.6088z"/><path d="m102.439 40.4599c-.161-.018-.25-.0179-.331-.0538-.027-.0089-.027-.1611 0-.188.045-.0358.152-.0448.206-.0179.045.0269.063.1164.125.2507z"/><path d="m101.347 38.2662c-.063-.1343-.107-.206-.125-.2865 0-.018.116-.0985.152-.0806.054.0179.116.0985.116.1611 0 .0448-.071.0985-.152.2149z"/><path d="m102.242 38.2129c-.027.0716-.027.1701-.08.2059-.054.0448-.153.0448-.233.0627.036-.0716.053-.1701.116-.2149.045-.0358.143-.0268.215-.0268l-.018-.018z"/><path d="m104.867 63.8838c.099.1253.17.188.197.2597.009.0268-.072.0985-.107.1432-.054-.0447-.117-.0895-.144-.1432-.018-.0538.018-.1164.054-.2597z"/><path d="m38.4159 77.4677c-.009 1.5849-.3046 3.2593-.1971 4.8262.0985 1.4595 1.1196 2.5698 1.2181 3.9577.1165 1.7729-.0447 5.3008 2.2482 5.856.3135.0716.4389-.4029.1343-.4746-1.5495-.394-1.8898-3.2593-1.9078-4.5039-.0179-.8327.1434-1.558-.2597-2.3101-.6718-1.2446-1.0569-2.1042-.9315-3.5637.1075-1.2805.0985-2.4893-.0358-3.7697-.0179-.1612-.2508-.1701-.2598 0z"/><path d="m80.253 84.3261c5.1233-.0806 10.1212-2.1311 14.7698-4.11.815-.3492 1.8182-.6178 2.4452-1.2625.6986-.7253.6986-1.746.815-2.6952.3494-2.7399.1792-5.5783-.206-8.3093-.0895-.6626-1.0927-.3761-1.0031.2775.3314 2.355.4747 4.8173.2597 7.1991-.1254 1.4058-.403 2.8474-1.8272 3.4652-.7255.3134-1.4599.6268-2.1944.9223-4.1201 1.6923-8.5627 3.3936-13.0679 3.4742-.6718.0089-.6718 1.0476 0 1.0387z"/><path d="m60.4228 101.885c1.5944-1.37 3.7888-2.2208 5.6876-3.1162.7255-.3403 1.6122-.7074 2.4273-.7074.2956 0 .627.188.9405.197.5911.0179 1.021-.197 1.5495-.4119 4.1828-1.6476 8.079 1.0208 12.226 1.3789.5016.0448.4926-.7342 0-.779-4.1918-.3582-7.8372-2.7937-12.1185-1.4953-.833.2507-1.0838.3313-1.8899.3402-.8061.009-.7434-.197-1.666-.0179-.7613.1433-1.4689.6089-2.1406.9671-1.872 1.0028-4.0664 1.8985-5.6876 3.2955-.3852.331.3404.85.7165.528z"/><path d="m67.6957 105.592c5.9294-.385 11.617-1.809 15.9162-6.1513.3493-.3582-.197-.9044-.5553-.5552-4.1649 4.1995-9.6465 5.5515-15.3699 5.9185-.5015.036-.5015.815 0 .779z"/><path d="m73.9117 90.092c.7166-.2149 1.3884-.4835 2.1497-.5014.5911-.0179 1.2091.1701 1.7913.0358.833-.188 1.4063-.976 1.666-1.7371.1971-.582-.6807-.7879-.9046-.2507-.2867.6984-.7793 1.1103-1.5406 1.1282-.4389 0-.8599-.0358-1.2898.0358-.7613.1254-1.5047.4746-2.0242 1.0387-.0985.1075 0 .2955.1433.2507z"/></g></g></g></svg>