<svg width="163" height="163" viewBox="0 0 163 163" fill="none" xmlns="http://www.w3.org/2000/svg">
<g clip-path="url(#clip0_5795_4702)">
<circle cx="81.5" cy="81.5" r="81.5" fill="#FFDEB5"/>
<g clip-path="url(#clip1_5795_4702)">
<path d="M45.9223 202.475C46.3164 203.263 46.2716 204.248 45.7969 204.991C55.6135 203.979 65.5108 204.087 75.3901 204.069C109.945 204.006 144.492 202.43 178.904 199.332C178.868 189.635 181.43 180.144 182.576 170.518C183.929 159.137 183.284 147.524 180.668 136.367" fill="white"/>
<path d="M174.829 183.69C174.829 183.69 183.57 131.541 183.57 114.027C183.57 108.869 172.903 108.583 163.104 114.43C140.085 128.174 64.2301 122.381 60.8623 128.729C44.0325 160.445 45.6358 202.753 45.6358 202.753C45.6358 202.753 121.383 194.828 123.318 196.279C125.253 197.73 174.82 183.69 174.82 183.69H174.829Z" fill="white"/>
<path d="M163.309 120.026C162.584 120.268 150.053 127.924 150.053 127.924C150.053 127.924 122.717 142.035 121.141 142.985C111.091 149.029 90.4191 155.708 85.3854 156.469C80.4054 157.222 78.3901 157.696 76.0255 157.705C72.0756 157.723 63.3696 155.028 63.3696 155.028C63.3696 155.028 60.0018 146.638 60.0108 139.484C60.0108 136.367 61.0677 127.906 61.0677 127.906L63.0919 121.763L103.783 109.434L122.072 105.709C122.072 105.709 130.554 101.635 131.37 102.584C133.483 105.037 163.301 120.026 163.301 120.026H163.309Z" fill="#6DD5C8"/>
<path d="M60.8177 126.384C60.3698 130.646 59.6712 134.89 59.6174 139.179C59.5727 143.164 60.2086 147.112 61.4357 150.9C63.6659 157.812 67.8846 163.838 74.1454 167.635C74.5663 167.895 74.9515 167.232 74.5305 166.972C68.0906 163.077 63.9167 156.765 61.8387 149.628C59.5727 141.829 60.746 134.29 61.57 126.384C61.6238 125.891 60.8535 125.9 60.7997 126.384H60.8177Z" fill="black"/>
<path d="M111.638 125.569C115.856 124.548 117.863 120.76 120.281 117.483C124.016 112.433 127.751 107.383 131.495 102.324C131.683 102.064 131.361 101.634 131.065 101.76C122.243 105.458 112.919 107.84 103.469 109.227C102.985 109.299 103.191 110.042 103.675 109.971C113.125 108.583 122.449 106.192 131.271 102.503L130.841 101.939C127.5 106.452 124.168 110.956 120.827 115.468C118.266 118.925 115.928 123.742 111.441 124.825C110.957 124.942 111.163 125.685 111.647 125.569H111.638Z" fill="black"/>
<path d="M39.8315 46.8626C39.8315 45.9314 63.5759 29.3037 63.5759 29.3037L94.1455 33.9867L105.646 52.2261L107.222 67.3316C107.222 67.3316 107.419 66.7138 108.351 68.2718C109.282 69.8209 109.641 83.2788 107.007 87.5499C105.556 89.9048 105.664 89.9675 103.738 90.0302L102.045 100.121C102.045 100.121 102.162 100.811 102.35 101.438C102.592 102.244 104.697 115.567 105.359 116.498C105.807 117.125 108.512 123.187 111.343 125.014C112.632 125.855 108.87 128.488 107.679 129.885C106.846 130.87 99.6629 136.654 99.1344 137.084C98.606 137.514 88.243 148.509 87.4906 148.832C86.7382 149.154 81.1492 155.314 80.5222 154.992C79.8952 154.67 72.1924 150.443 71.0997 149.217C70.0875 148.079 67.3915 141.247 67.3915 141.247L61.8742 126.876C61.8742 126.876 58.9542 117.85 58.8378 117.206C58.7214 116.561 50.3915 110.687 48.7614 107.616C44.2651 99.1365 41.9184 91.9106 41.9184 91.9106C41.9184 91.9106 40.969 91.6061 40.2614 89.7795C39.5449 87.926 39.9569 85.6875 39.0701 84.0131C37.9506 81.9178 39.8942 75.6231 39.2403 74.9695C38.7567 74.4859 39.8404 46.8805 39.8404 46.8805L39.8315 46.8626Z" fill="#FFF2E3"/>
<path d="M70.4096 149.028C70.0065 148.714 69.2452 147.344 68.1614 144.962L68.1166 144.864C67.8389 144.273 66.0745 139.626 65.7878 138.856C65.6266 138.426 64.0413 134.459 63.9159 134.074C63.6382 133.197 62.85 130.77 62.5634 130.09C62.3395 129.561 62.1335 129.042 61.9364 128.541C61.7483 128.057 61.5513 127.556 61.3363 127.054C61.3094 126.992 59.6793 121.762 59.4375 120.921C59.33 120.545 59.2136 120.16 59.0702 119.721C58.8911 119.184 58.8374 118.745 58.7836 118.315C58.7299 117.894 58.6761 117.5 58.5149 117.017C58.2641 116.703 56.0429 115.145 55.192 114.59C54.0276 113.829 51.1524 110.928 50.8479 110.561C50.3911 109.997 48.1161 107.069 47.6503 106.299C47.3995 105.887 46.1725 103.29 45.9485 102.681L45.8321 102.377C43.996 97.5417 43.5212 96.3329 43.4496 96.1717C41.6761 92.1782 41.0223 88.901 40.6551 86.4923C40.6103 86.1969 40.5207 85.7044 40.4132 85.1313C40.0639 83.2689 39.5444 80.4662 39.6609 79.4097C39.7325 78.8008 39.5713 77.0906 39.1235 75.4967C39.0876 75.4699 39.0518 75.443 39.0249 75.4072C38.8279 75.1565 38.9354 74.7625 39.1235 74.1357C39.1862 73.9298 39.2668 73.6522 39.2668 73.5537C39.2668 73.5537 39.7863 74.0014 39.6967 74.3059C39.643 74.4849 39.5534 74.7715 39.5265 74.9505H39.5892L39.6609 75.1744C40.1356 76.7593 40.6909 83.3047 41.0133 85.0149C41.1208 85.5969 41.2104 86.0894 41.2641 86.3938C41.6314 88.7667 42.2673 91.9901 44.0139 95.921C44.1214 96.1717 44.9275 98.2669 46.4053 102.153L46.5218 102.457C46.7367 103.03 47.9459 105.591 48.1788 105.976C48.6177 106.711 50.8837 109.63 51.3226 110.167C51.6092 110.507 54.4396 113.355 55.5323 114.071C55.5681 114.089 58.9269 116.3 59.0882 116.784C59.2763 117.339 59.33 117.787 59.3927 118.226C59.4464 118.646 59.5002 119.04 59.6614 119.515C59.8137 119.963 59.9211 120.357 60.0376 120.733C60.2794 121.556 61.8827 126.714 61.9185 126.821C62.1245 127.323 62.3305 127.824 62.5186 128.308C62.7157 128.809 62.9217 129.329 63.1366 129.848C63.4949 130.69 64.4981 133.85 64.516 133.877C64.6324 134.235 66.2088 138.193 66.379 138.632C66.6567 139.375 68.4301 144.049 68.6898 144.595C68.6898 144.604 68.7167 144.649 68.7436 144.703C70.2035 147.908 70.6514 148.508 70.7678 148.598L70.4454 149.01L70.4096 149.028Z" fill="black"/>
<path d="M70.4276 149.144L70.3559 149.091C70.0872 148.58 69.523 147.479 68.4213 145.052L68.2153 144.676C67.9287 144.085 67.7137 143.646 67.5525 143.056C67.3644 142.384 67.1763 141.766 66.8449 141.175C66.3791 140.342 66.1552 139.59 65.8686 138.82C65.7074 138.39 65.5372 137.943 65.3312 137.459C65.1073 136.94 64.122 134.433 64.0056 134.048C63.7279 133.17 63.1905 130.654 62.7337 129.992C62.4023 129.508 62.2859 128.899 62.0978 128.425C61.9097 127.941 61.6947 127.529 61.4887 127.019C61.4619 126.947 61.1394 126.661 60.6647 124.861C60.5035 124.261 60.3154 123.545 60.2796 123.419C59.8228 122.524 59.6078 121.79 59.357 120.948C59.2495 120.572 59.1331 120.187 58.9898 119.748C58.8106 119.202 58.7479 118.763 58.6942 118.333C58.6405 117.921 58.5867 117.527 58.4345 117.062C58.1568 116.74 55.9892 115.226 55.1384 114.662C53.974 113.901 51.0809 110.982 50.7764 110.624C50.3196 110.06 48.0446 107.132 47.5699 106.353C47.3191 105.941 46.092 103.326 45.8591 102.726L45.7427 102.422C43.808 97.345 43.4229 96.3601 43.3602 96.2258C41.5778 92.2233 40.9239 88.9371 40.5567 86.5195C40.5119 86.2241 40.4134 85.7047 40.3149 85.1585C39.9655 83.2961 39.446 80.4845 39.5625 79.419C39.6252 78.837 39.4729 77.1357 39.034 75.5687C38.9982 75.5419 38.9713 75.515 38.9445 75.4792C38.7205 75.2016 38.828 74.7808 39.0251 74.1271C39.0788 73.9659 39.1684 73.6526 39.1684 73.572V73.4824C39.1684 73.4824 39.8581 74.0286 39.7595 74.342C39.7147 74.4853 39.6521 74.7091 39.6162 74.8793H39.6341L39.7237 75.1747C40.1984 76.7686 40.4223 78.7026 40.3328 79.5085C40.2253 80.4576 40.7537 83.314 41.0762 85.0242C41.1837 85.6062 41.2732 86.1077 41.327 86.4031C41.6942 88.767 42.3301 91.9905 44.0767 95.9124C44.1842 96.1631 44.9724 98.2046 46.4771 102.153L46.5936 102.458C46.8085 103.022 48.0177 105.583 48.2506 105.968C48.6984 106.702 50.9555 109.612 51.3944 110.149C51.6721 110.49 54.4935 113.328 55.5862 114.035C55.9355 114.268 59.0077 116.292 59.1779 116.793C59.366 117.357 59.142 117.823 59.1958 118.262C59.2495 118.674 59.2764 119.13 59.4287 119.605C59.5809 120.053 59.5809 120.518 59.6974 120.903C59.9392 121.718 60.1452 122.21 60.5841 123.07C60.611 123.124 60.5841 123.222 60.9782 124.727L61.1215 124.968C61.3454 125.81 61.632 126.858 61.6679 126.965C61.8739 127.466 62.1515 127.995 62.3396 128.478C62.5456 128.989 62.671 129.418 62.886 129.938C63.2443 130.788 64.2743 133.904 64.2832 133.94C64.3997 134.298 65.3939 136.841 65.6088 137.334C65.8238 137.826 66.0298 138.346 66.191 138.784C66.4687 139.537 66.6478 140.226 67.0778 141.005C67.4539 141.677 67.6241 142.42 67.8122 143.1C67.9645 143.655 68.1078 144.112 68.3586 144.649L68.6004 144.963C70.0872 148.231 70.3828 148.124 70.768 148.58L70.8665 148.732L70.4366 149.171L70.4276 149.144ZM39.3296 73.6436C39.3117 73.769 39.258 73.957 39.1863 74.1629C39.0072 74.7629 38.9086 75.1479 39.0788 75.3538C39.0967 75.3807 39.1236 75.4075 39.1594 75.4255L39.1863 75.4434V75.4702C39.6521 77.0909 39.8043 78.8101 39.7416 79.419C39.6252 80.4576 40.1447 83.2603 40.494 85.1138C40.5925 85.66 40.691 86.1793 40.7358 86.4748C41.1031 88.8745 41.7569 92.1517 43.5303 96.1362C43.602 96.3063 44.0767 97.5151 45.9129 102.341L46.0293 102.646C46.2622 103.246 47.4803 105.842 47.7311 106.245C48.1968 107.015 50.4629 109.943 50.9197 110.499C51.2153 110.857 54.0904 113.749 55.2458 114.51C55.9713 114.985 58.318 116.614 58.5957 116.954L58.6136 116.981C58.7748 117.474 58.8286 117.868 58.8823 118.289C58.936 118.718 60.6826 124.207 60.8438 124.807C61.2738 126.428 61.847 128.013 62.0351 128.496C62.2232 128.971 63.7369 133.152 64.0235 134.039C64.1489 134.415 65.1252 136.931 65.3491 137.45C65.5641 137.943 65.7342 138.399 65.8865 138.811C66.1731 139.572 67.9376 144.229 68.2153 144.811L68.2601 144.909C69.2811 147.156 70.0066 148.491 70.4186 148.885L70.6247 148.625C70.4097 148.401 69.926 147.533 68.6542 144.739L68.6094 144.631C68.3496 144.085 66.5762 139.42 66.2985 138.668C66.1283 138.22 65.9582 137.773 65.7522 137.28C65.5372 136.779 64.5519 134.272 64.4355 133.904C64.4266 133.878 62.6441 128.854 62.4471 128.353C62.2501 127.852 61.5066 125.622 61.2738 124.727V124.691C60.8886 123.276 59.366 118.647 59.3122 118.226C59.2585 117.796 59.1958 117.348 59.0166 116.802C58.9092 116.471 56.8491 115.029 55.4966 114.134C54.3949 113.418 51.5556 110.561 51.269 110.212C50.8301 109.675 48.5641 106.756 48.1162 106.013C47.8833 105.628 46.6652 103.049 46.4503 102.476L46.3338 102.171C44.856 98.2762 44.0498 96.181 43.9424 95.9392C42.1868 91.9994 41.5419 88.767 41.1837 86.3852C41.1389 86.0808 41.0493 85.5883 40.9418 85.0153C40.6194 83.2871 40.0909 80.4129 40.1984 79.4369C40.288 78.6489 40.0641 76.7507 39.5983 75.1658L39.5535 75.0046H39.455L39.4729 74.9061C39.4998 74.7181 39.5894 74.4226 39.6431 74.2525C39.7237 73.9928 39.7864 73.769 39.8043 73.5988H39.3744L39.3296 73.6436Z" fill="black"/>
<path d="M79.2771 84.2012C79.1696 84.2012 79.0711 84.2012 78.9636 84.2012C77.7992 84.1833 76.6975 83.9325 75.6854 83.4669C74.8882 83.0998 74.2344 82.473 73.6343 81.506C73.07 80.6016 71.7354 78.4795 71.3234 77.2797C70.5979 75.7575 70.159 73.9846 69.7918 72.3012C69.5679 71.2804 69.7649 70.4477 70.3651 69.812C71.4578 68.6569 75.6675 66.8571 76.9214 66.5617C77.0826 66.49 77.2528 66.4094 77.423 66.3378C77.7634 66.1766 78.0858 66.0334 78.4262 65.9438L79.1427 65.7468C80.8803 65.2723 82.6806 64.7887 84.472 64.3858C87.3292 63.7411 90.2044 63.4994 92.9989 63.6426C94.5663 63.7232 95.668 64.3142 96.2591 65.3976C96.5995 66.0155 96.8145 66.696 97.0294 67.3586C97.11 67.6182 97.1907 67.8689 97.2802 68.1197C97.3429 68.2898 97.3788 68.4689 97.4235 68.6927C97.4235 68.7196 97.4325 68.7554 97.4414 68.7823L97.8266 67.86C97.3967 67.0004 97.1727 66.2572 97.4683 65.4513C97.5579 65.2096 97.8445 65.0305 98.0595 64.9141C98.2296 64.8246 98.4088 64.7529 98.5879 64.6813C98.785 64.6007 98.9641 64.5291 99.1343 64.4306C99.4657 64.2336 99.7433 64.2426 100.03 64.4574C100.12 64.5201 100.218 64.5828 100.317 64.6365C100.433 64.7082 100.558 64.7798 100.675 64.8783C101.006 65.1469 101.329 65.4245 101.669 65.72C101.741 65.7827 101.821 65.8453 101.893 65.917C101.794 65.5588 101.597 65.2991 101.284 65.1111C100.926 64.8962 100.72 64.6813 100.558 64.35C100.433 64.0903 100.29 63.9381 100.102 63.8665C99.8956 63.7948 99.6448 63.8307 99.3224 63.9829L99.2238 64.0277L99.188 63.9202C98.9671 63.3054 98.5103 63.0009 97.8176 63.0069C94.6917 63.0338 91.5389 63.2039 88.4309 63.5173C84.9378 63.8665 78.7665 65.5319 75.5869 66.7855L75.7929 66.9109C78.9904 65.6483 84.8034 63.6784 88.413 63.3113C91.53 62.9979 94.6917 62.8278 97.8176 62.792C98.9283 62.792 98.9999 62.8099 99.3403 63.7411C99.6627 63.6068 99.9404 63.5799 100.173 63.6605C100.406 63.7411 100.603 63.9381 100.747 64.2515C100.908 64.5828 101.114 64.7619 101.391 64.9231C101.839 65.1827 102.081 65.5857 102.153 66.1587L102.18 66.4184L101.983 66.2483C101.83 66.114 101.678 65.9886 101.535 65.8632C101.194 65.5678 100.872 65.2902 100.54 65.0305C100.442 64.9499 100.326 64.8783 100.209 64.8067C100.111 64.744 100.003 64.6813 99.9046 64.6097C99.6806 64.4485 99.5015 64.4395 99.2328 64.6007C99.0447 64.7082 98.8477 64.7887 98.6596 64.8604C98.4894 64.932 98.3192 64.9947 98.158 65.0842C98.0505 65.138 97.737 65.317 97.6654 65.514C97.3877 66.2662 97.6027 66.9467 98.0326 67.7973L98.0505 67.8421L97.3787 69.4359L97.3071 69.1315C97.2713 68.9793 97.2444 68.8449 97.2175 68.7285C97.1727 68.5136 97.1369 68.3435 97.0832 68.1823C96.9936 67.9316 96.913 67.672 96.8234 67.4123C96.6085 66.7586 96.3935 66.0871 96.0711 65.4872C95.5068 64.4574 94.4947 63.9202 92.981 63.8396C90.2044 63.6874 87.3471 63.9381 84.5078 64.5738C82.7254 64.9768 80.9251 65.4603 79.1875 65.9349L78.462 66.1319C78.1396 66.2214 77.8261 66.3647 77.4947 66.5169C77.3245 66.5975 77.1543 66.6691 76.9752 66.7497C75.6048 67.072 71.4936 68.8987 70.4994 69.9463C69.9351 70.5373 69.7649 71.2894 69.9799 72.2564C70.3471 73.9309 70.786 75.6948 71.4936 77.1991C72.1654 78.6228 73.0073 79.9301 74.2075 81.4344C75.3002 82.8043 76.7423 83.4759 78.6143 83.4848C80.6564 83.4848 82.6538 83.2968 84.5347 82.8849C86.1559 82.5357 87.8039 82.2134 89.5684 81.9L90.0431 81.8194L89.6401 82.088C89.3176 82.3029 88.9504 82.4641 88.5473 82.5626C88.0816 82.679 87.6069 82.7954 87.1411 82.9028C86.0753 83.1625 84.9825 83.4311 83.8988 83.6818C82.3492 84.031 80.7908 84.2101 79.2681 84.2101L79.2771 84.2012ZM73.2402 80.4852C73.4551 80.8434 73.6522 81.1568 73.8045 81.3896C74.3867 82.3208 75.0136 82.9207 75.775 83.2789C76.7512 83.7356 77.8261 83.9773 78.9725 83.9952C80.5848 84.0221 82.2238 83.843 83.8719 83.4759C84.9557 83.2341 86.0484 82.9655 87.1143 82.7058C87.58 82.5894 88.0547 82.473 88.5205 82.3656C88.6727 82.3298 88.825 82.285 88.9683 82.2313C87.4546 82.5088 86.0126 82.7954 84.5974 83.0998C82.6986 83.5117 80.6922 83.7087 78.6322 83.6997C76.7244 83.6908 75.1928 82.9745 74.0732 81.5687C73.7776 81.2016 73.5089 80.8434 73.2581 80.4942L73.2402 80.4852Z" fill="#190602"/>
<path d="M79.2774 84.3712C79.1699 84.3712 79.0624 84.3712 78.9639 84.3712C77.7727 84.3533 76.6441 84.1026 75.6141 83.619C74.79 83.234 74.1093 82.5893 73.4824 81.5954C72.9091 80.6821 71.5746 78.551 71.1536 77.3333C70.4281 75.8111 69.9892 74.0292 69.622 72.3369C69.3891 71.2624 69.5951 70.376 70.24 69.6955C71.064 68.818 73.6615 67.5823 75.4439 66.8839L75.5962 66.8033L75.8649 66.6332C79.0803 65.3706 84.7769 63.5261 88.4044 63.159C91.5213 62.8456 94.692 62.6665 97.8269 62.6396C98.9107 62.6396 99.1167 62.6665 99.4481 63.5351C99.7437 63.4366 100.003 63.4366 100.236 63.5171C100.514 63.6156 102.798 65.9527 102.87 66.5705L102.726 67.5375C102.726 67.5375 101.786 66.3556 101.428 66.0064C101.105 65.6751 100.765 65.4333 100.442 65.1737C100.353 65.102 99.9139 64.6275 99.3227 64.7618C99.1077 64.8155 98.2479 65.0125 97.818 65.5855C97.388 66.1586 97.6388 67.045 98.0508 67.8509L97.3343 69.9999L97.1462 69.1761C97.1104 69.0239 97.0835 68.8896 97.0566 68.7732C97.0119 68.5493 96.976 68.3882 96.9223 68.2449C96.8327 67.9852 96.7521 67.7256 96.6625 67.4659C96.4565 66.8212 96.2416 66.1496 95.9191 65.5676C95.3817 64.5916 94.4233 64.0813 92.9634 64.0007C90.1957 63.8574 87.3654 64.0992 84.535 64.7349C82.7526 65.1289 80.9613 65.6214 79.2326 66.087L78.5071 66.284C78.2026 66.3645 77.8891 66.5078 77.5667 66.66C77.3965 66.7406 71.6014 69.0149 70.6251 70.0447C70.1056 70.5909 69.9534 71.2982 70.1504 72.2026C70.5177 73.868 70.9476 75.6141 71.6552 77.1094C72.3269 78.5242 73.151 79.8136 74.3512 81.3089C75.4081 82.6341 76.8053 83.2877 78.6236 83.2967C80.6747 83.2967 82.6541 83.1086 84.5082 82.7057C86.1294 82.3565 87.7774 82.0342 89.5508 81.7208L90.8227 81.4969L89.7479 82.2132C89.4075 82.4371 89.0224 82.6072 88.6014 82.7057C88.1357 82.8221 87.661 82.9296 87.1952 83.046C86.1204 83.3056 85.0277 83.5743 83.9439 83.825C82.3765 84.1742 80.809 84.3533 79.2774 84.3533V84.3712ZM88.9687 82.1864L88.9866 82.2491C89.0672 82.2132 89.1567 82.1774 89.2284 82.1416C89.1388 82.1595 89.0493 82.1774 88.9687 82.1864ZM72.721 79.6792C72.8912 79.9658 73.0524 80.2433 73.2136 80.503L73.2674 80.4672C73.0703 80.1986 72.8912 79.9389 72.721 79.6792Z" fill="black"/>
<path d="M76.8941 66.3105C76.8941 66.3105 76.8674 66.3284 76.8496 66.3373C76.8674 66.3373 76.8941 66.3284 76.9119 66.3195H76.8941V66.3105Z" fill="black"/>
<path d="M36.6872 74.9058C36.4991 75.1386 36.5171 75.9266 36.5171 76.1504V77.8427C37.153 77.8875 38.3532 77.2697 38.5144 77.9233L39.6251 78.9441C39.5892 78.6576 39.1862 78.0039 39.1862 77.7174C39.1862 76.2668 39.7505 75.1207 41.1477 74.476C42.7868 73.7239 44.4797 73.1687 46.2352 72.73C49.4596 71.9241 52.7199 71.4048 56.0429 71.3242C57.5745 71.2884 59.0971 71.3242 60.584 71.8525C61.6409 72.2375 62.1335 72.9449 62.2499 73.9925C62.3843 75.1923 62.4649 76.4011 62.5903 77.601C62.7963 79.544 62.3753 81.3885 61.82 83.2331C61.3184 84.9075 60.2078 85.9999 58.6045 86.5909C57.6461 86.9401 56.6609 87.1908 55.6846 87.4773C55.2368 87.6116 54.7889 87.7191 54.3411 87.8355C55.2905 87.7817 56.2041 87.5848 57.1266 87.4057C57.7715 87.2803 58.4164 87.1729 59.133 87.0475C59.3121 86.9132 59.5629 86.6625 59.8585 86.5282C60.6108 86.1879 61.0587 85.4985 61.7125 85.0508C61.7752 85.006 61.8469 84.9433 61.8648 84.8717C62.0798 84.1553 62.3305 83.448 62.4649 82.7137C62.644 81.7377 62.8142 80.7528 62.85 79.7589C62.8859 78.6934 62.9217 77.1354 62.7694 75.7922C62.6978 75.1565 62.7515 74.5118 62.653 73.8761C62.5545 73.2135 62.9665 72.7479 63.5576 72.5061C63.7278 72.4345 63.9069 72.3539 64.0861 72.3091C65.1519 72.0226 66.2088 71.7271 67.2837 71.4853C67.7494 71.3779 68.242 71.3421 68.7257 71.3331C69.4064 71.3063 69.693 71.5301 69.917 72.1658C69.9886 72.3718 70.0603 72.5777 70.123 72.7837C70.0782 72.6046 70.0423 72.4255 69.9976 72.2464C69.8184 71.4137 69.908 70.6258 70.5081 69.99C70.7678 69.7124 71.0455 69.4796 71.3411 69.2737C71.6008 69.0588 71.8785 68.8708 72.1651 68.7096C73.4638 68.0112 74.7088 67.2053 76.124 66.7665C76.3838 66.686 76.5987 66.489 76.8316 66.3457C75.5956 66.6501 74.4222 67.1158 73.2937 67.6978C71.9322 68.3962 70.535 69.0409 69.8184 70.5362C69.693 70.7869 68.5824 70.9929 68.5555 70.975C68.4839 71.0108 65.7252 71.163 64.8564 71.2973C64.0861 71.4137 63.3158 71.5122 62.6261 71.951C62.4649 72.0494 62.1245 72.0494 61.9633 71.942C60.9512 71.2346 59.7868 71.0018 58.6135 70.966C56.9744 70.9123 55.3353 70.9481 53.6962 71.0376C50.0508 71.2346 46.5128 72.0226 43.0466 73.1239C41.9001 73.4911 40.7715 73.9388 39.634 74.3506C39.4728 74.4133 39.2847 74.4223 39.0339 74.476" fill="black"/>
<path d="M49.8988 68.1459C49.7466 68.3429 49.5764 68.4414 49.3077 68.3787C48.6628 68.2444 48.0269 68.0564 47.3461 68.3608C47.0774 68.4772 46.7998 68.2802 46.8625 67.8862C47.6328 67.7609 48.3224 67.4475 49.0121 67.1431C49.4958 66.9282 50.1048 66.9998 50.6512 66.9461C50.8482 66.9282 51.0722 66.9998 51.2513 66.9282C51.5469 66.8117 51.7977 66.8744 51.9231 67.1072C52.0037 67.2595 51.8962 67.5102 51.8604 67.7877C51.932 67.8504 52.0753 67.9758 52.3709 68.2265C51.4215 68.1996 50.6512 68.1817 49.8809 68.1638C49.7854 67.9071 49.6003 67.8146 49.3256 67.8862C49.5764 67.9937 49.7376 68.0653 49.8988 68.1369V68.1459Z" fill="black"/>
<path d="M74.9865 83.126C75.2462 83.8423 78.0855 84.3437 78.7752 86.5106C78.9633 87.0926 78.2826 88.0507 78.8558 88.4178C79.2768 88.6775 79.5634 87.809 79.5545 87.4956C79.5545 86.9046 79.5455 86.3226 79.2589 85.8032C78.1214 83.6722 75.712 83.3498 74.9775 83.1349L74.9865 83.126Z" fill="black"/>
<path d="M54.0284 67.7789H53.2939C53.5447 67.6297 53.7896 67.6297 54.0284 67.7789Z" fill="black"/>
<path d="M105.163 49.8708C105.1 49.8529 105.028 49.7992 105.01 49.7455C104.993 49.7007 105.046 49.6291 105.064 49.5664" fill="black"/>
<path d="M89.5144 64.0449C89.2457 64.0539 89.1472 64.0628 89.0576 64.0628V64.0449H89.5144Z" fill="black"/>
<path d="M62.8773 77.0558C62.8325 77.1184 62.8146 77.1632 62.7877 77.199C62.743 77.1543 62.6803 77.1274 62.6444 77.0737C62.6355 77.0647 62.6982 76.9662 62.7071 76.9752C62.7609 76.9931 62.8146 77.0289 62.8683 77.0558H62.8773Z" fill="black"/>
<path d="M49.8984 68.1464C49.7372 68.0748 49.567 68.0031 49.3252 67.8957C49.5999 67.8181 49.785 67.9106 49.8805 68.1733L49.8984 68.1554V68.1464Z" fill="black"/>
<path d="M88.0727 69.9637C87.1232 69.516 83.7644 68.6117 83.1106 68.6654C81.7492 68.7818 80.3877 68.9698 79.089 69.4802C78.5695 69.6861 77.1722 71.4411 76.8856 71.9157C76.7244 72.1843 76.6527 72.5067 76.5273 72.829C77.4499 72.7753 77.6559 72.7305 78.874 72.2918C79.1786 72.1843 80.1369 71.5307 80.2623 71.459C80.1459 71.4143 80.0294 71.3695 79.922 71.3158C79.4831 71.1098 79.4114 70.7248 79.7697 70.3756C79.9399 70.2144 80.1817 70.0712 80.4056 70.0443C80.8176 69.9906 82.412 69.6145 81.4894 70.877C81.2476 71.083 81.1043 71.0561 80.8714 71.28C80.8266 71.3247 81.1132 72.2022 81.7492 72.2201C82.4926 72.2381 83.236 72.2201 83.9704 72.247C84.7945 72.2918 85.3856 71.862 85.8872 71.1904C86.0663 70.9487 86.2544 70.7248 86.4246 70.501C87.2397 70.7517 87.7144 71.6919 88.5474 71.6023C89.2908 71.5217 90.07 71.7366 90.9299 71.271C90.3566 71.0651 88.5563 70.1876 88.0906 69.9637H88.0727Z" fill="black"/>
<path d="M103.308 69.7307C103.998 68.8532 104.741 67.9757 105.771 67.4922C106.058 67.3579 106.407 67.2325 106.729 67.2146C107.32 67.1788 107.679 67.6981 107.885 68.1996C108.109 68.7368 108.18 69.4352 108.288 70.0083C108.736 72.4796 108.377 75.0046 108.664 77.4939C108.933 79.813 108.539 83.1797 107.052 85.9465C106.058 87.7911 106.308 90.3161 103.487 89.5998L103.765 89.9669C104.096 86.0629 104.41 82.141 104.436 78.2191C104.454 75.139 104.248 72.0677 104.006 68.9965C103.971 68.504 103.165 68.5935 103.209 69.086C103.451 72.1572 103.693 75.139 103.675 78.2191C103.657 82.141 103.344 86.0629 103.012 89.9669C102.994 90.1281 103.138 90.2892 103.29 90.334C105.932 90.9966 106.434 88.7223 107.598 86.7524C108.646 84.9884 109.587 79.7951 109.192 76.3388C109.004 74.6823 109.425 73.2317 109.219 71.5752C109.121 70.8141 108.995 70.053 108.825 69.3009C108.682 68.6562 108.574 67.7518 108.162 67.1967C107.607 66.4356 106.523 66.5789 105.762 66.9012C104.571 67.4205 103.917 67.9309 103.236 68.9965C103.236 68.9965 103.254 69.6859 103.29 69.7396L103.308 69.7307Z" fill="black"/>
<path d="M104.186 90.495C103.917 90.495 103.622 90.4592 103.29 90.3696C103.129 90.3249 102.968 90.1547 102.977 89.9577C103.317 85.9911 103.622 82.105 103.64 78.21C103.658 75.3716 103.479 72.5152 103.272 69.8111C103.272 69.6768 103.496 69.4887 103.434 69.435C103.344 69.3723 103.237 69.2649 103.308 69.1574C103.389 69.0321 103.38 69.2559 103.281 69.1395C103.255 69.1037 103.21 69.0321 103.21 68.9873C103.192 68.7276 103.371 68.5933 103.568 68.5754C103.595 68.5754 103.613 68.5754 103.64 68.5754C104.303 67.7516 105.001 67.1786 105.762 66.8473C106.578 66.4891 107.652 66.3906 108.217 67.1517C108.548 67.6084 108.682 68.2799 108.799 68.8799C108.826 69.0231 108.853 69.1485 108.879 69.2738C109.041 69.9991 109.166 70.7423 109.274 71.5571C109.381 72.3988 109.318 73.2047 109.274 73.9747C109.22 74.7269 109.166 75.5059 109.256 76.3207C109.659 79.8128 108.709 84.9793 107.661 86.7611C107.446 87.1193 107.258 87.4954 107.07 87.8625C106.354 89.2593 105.718 90.495 104.195 90.495H104.186ZM103.362 69.7484C103.577 72.4704 103.747 75.3536 103.738 78.219C103.72 82.114 103.416 86 103.075 89.9667C103.066 90.11 103.192 90.2532 103.317 90.289C105.431 90.8263 106.157 89.4384 106.981 87.8267C107.169 87.4685 107.357 87.0924 107.581 86.7253C108.629 84.9524 109.569 79.8128 109.166 76.3386C109.068 75.5148 109.13 74.7358 109.184 73.9837C109.238 73.2136 109.3 72.4167 109.184 71.584C109.085 70.7781 108.951 70.0349 108.79 69.3097C108.763 69.1843 108.736 69.05 108.709 68.9067C108.593 68.3158 108.458 67.6532 108.136 67.2144C107.608 66.4891 106.578 66.5966 105.789 66.9368C105.055 67.2592 104.374 67.8054 103.729 68.6023C103.846 68.6291 103.953 68.7097 104.016 68.8261C104.509 68.2799 105.073 67.7875 105.754 67.4651C106.121 67.295 106.452 67.1965 106.73 67.1786C107.222 67.1517 107.643 67.5009 107.93 68.1904C108.1 68.6112 108.19 69.1127 108.261 69.6051C108.279 69.7484 108.306 69.8827 108.333 70.0081C108.584 71.387 108.584 72.8017 108.584 74.1717C108.584 75.2641 108.584 76.3923 108.709 77.4937C108.951 79.571 108.673 83.0362 107.097 85.9642C106.837 86.4477 106.667 86.9671 106.497 87.4775C106.049 88.8385 105.655 90.0294 103.837 89.716C103.837 89.7966 103.819 89.8861 103.819 89.9667V90.0741L103.389 89.5279L103.505 89.5548C103.595 89.5727 103.676 89.5996 103.756 89.6085C104.088 85.7672 104.374 81.9976 104.401 78.21C104.419 75.0761 104.204 71.9242 103.971 68.9873C103.756 69.238 103.55 69.4887 103.344 69.7484H103.362ZM103.613 89.6712L103.747 89.8503C103.747 89.7966 103.747 89.7518 103.756 89.6981C103.702 89.6891 103.658 89.6802 103.604 89.6623L103.613 89.6712ZM103.855 89.6354C105.61 89.9398 105.986 88.7848 106.425 87.4595C106.595 86.9492 106.766 86.4209 107.025 85.9284C108.593 83.0183 108.87 79.571 108.629 77.5026C108.503 76.3923 108.503 75.2641 108.503 74.1717C108.503 72.8017 108.503 71.396 108.252 70.026C108.226 69.8917 108.208 69.7574 108.181 69.623C108.1 69.1395 108.02 68.6381 107.849 68.2262C107.661 67.7785 107.33 67.2681 106.784 67.2681C106.766 67.2681 106.748 67.2681 106.73 67.2681C106.461 67.286 106.139 67.3756 105.78 67.5457C105.1 67.8681 104.535 68.3605 104.043 68.9157C104.043 68.9425 104.052 68.9694 104.052 68.9963C104.285 71.9332 104.5 75.085 104.482 78.2279C104.455 82.0244 104.168 85.7941 103.837 89.6443L103.855 89.6354ZM103.237 69.2828C103.183 69.3723 103.371 69.0769 103.317 69.1664C103.272 69.2291 103.425 69.5604 103.478 69.6051C103.523 69.641 103.228 69.7753 103.272 69.7215C103.264 69.5693 103.246 69.4261 103.237 69.2738V69.2828ZM103.317 69.1664C103.326 69.3186 103.344 69.4708 103.353 69.623C103.55 69.3723 103.747 69.1306 103.962 68.8888C103.917 68.7635 103.801 68.6918 103.685 68.6739C103.559 68.8261 103.443 68.9963 103.317 69.1664ZM103.577 68.665C103.443 68.6739 103.281 68.7724 103.299 68.9873C103.299 69.0052 103.299 69.0142 103.299 69.0321C103.389 68.9067 103.478 68.7814 103.568 68.665H103.577Z" fill="black"/>
<path d="M103.156 89.5016C102.52 94.1666 102.081 98.9033 100.352 103.327C98.9283 106.962 96.6443 110.212 93.8229 112.899C91.0105 115.576 87.6248 117.671 83.9436 118.934C81.8656 119.65 79.7249 120.044 77.5484 120.277C75.0943 120.545 72.5416 121.002 70.0785 121.02C65.3314 121.047 61.9457 117.564 57.8883 115.755C57.4046 115.54 57.7181 116.552 58.2018 116.749C62.098 118.316 64.6507 121.306 68.8156 121.835C71.2787 122.148 73.9388 121.53 76.393 121.271C78.6501 121.038 80.8893 120.733 83.0658 120.089C90.5716 117.859 97.0384 112.308 100.326 105.189C102.574 100.318 103.219 94.8471 103.559 89.5463C103.577 89.3135 103.174 89.2509 103.147 89.4926L103.156 89.5016Z" fill="black"/>
<path d="M70.2752 121.969C69.7826 121.969 69.2989 121.942 68.8152 121.879C66.2894 121.557 64.3726 120.348 62.3484 119.068C61.0586 118.253 59.7241 117.402 58.1835 116.785C57.8879 116.668 57.6371 116.256 57.6013 115.961C57.5834 115.844 57.6013 115.755 57.664 115.71C57.7177 115.665 57.7984 115.674 57.8969 115.71C59.2225 116.301 60.4854 117.08 61.7214 117.832C64.2383 119.372 66.8447 120.975 70.0154 120.975C70.0333 120.975 70.0602 120.975 70.0781 120.975C71.8157 120.966 73.6161 120.733 75.3626 120.5C76.0792 120.411 76.8316 120.312 77.5481 120.232C80.0202 119.963 82.0444 119.533 83.9343 118.889C87.5439 117.644 90.9564 115.558 93.7957 112.863C96.6888 110.105 98.9369 106.801 100.307 103.309C101.794 99.5032 102.332 95.4022 102.851 91.4356C102.932 90.7909 103.021 90.1462 103.111 89.5015C103.129 89.3582 103.254 89.3045 103.371 89.3134C103.496 89.3224 103.621 89.4209 103.612 89.5642C103.272 94.7933 102.636 100.318 100.37 105.225C97.0918 112.325 90.625 117.904 83.0834 120.142C80.8442 120.805 78.5513 121.109 76.4106 121.324C75.7478 121.396 75.0491 121.494 74.3774 121.584C73.0249 121.772 71.6366 121.969 70.2841 121.969H70.2752ZM57.7715 115.773C57.7715 115.773 57.7357 115.773 57.7267 115.782C57.6909 115.809 57.6819 115.871 57.6909 115.952C57.7177 116.194 57.9417 116.596 58.2193 116.704C59.7599 117.322 61.1034 118.172 62.3932 118.987C64.4085 120.259 66.3073 121.468 68.8242 121.79C70.6155 122.023 72.5144 121.754 74.3505 121.494C75.0223 121.396 75.7209 121.297 76.3927 121.235C78.5333 121.011 80.8173 120.715 83.0565 120.053C90.5802 117.814 97.0202 112.254 100.289 105.18C102.555 100.282 103.182 94.7754 103.523 89.5463C103.523 89.4478 103.442 89.394 103.362 89.3851C103.299 89.3851 103.209 89.403 103.191 89.5015C103.102 90.1462 103.021 90.7909 102.932 91.4356C102.412 95.4112 101.875 99.5121 100.388 103.336C99.0175 106.846 96.7515 110.159 93.8495 112.925C91.0012 115.638 87.5797 117.725 83.9612 118.969C82.0713 119.623 80.0381 120.044 77.5571 120.321C76.8316 120.402 76.0881 120.5 75.3716 120.59C73.625 120.814 71.8247 121.056 70.0781 121.065C70.0602 121.065 70.0333 121.065 70.0154 121.065C66.8268 121.065 64.2114 119.462 61.6767 117.913C60.4496 117.161 59.1867 116.382 57.87 115.8C57.8431 115.782 57.7984 115.773 57.7715 115.773Z" fill="black"/>
<path d="M101.92 97.8825C101.759 100.685 102.117 103.47 102.592 106.219C103.058 108.95 103.541 111.699 104.249 114.376C104.876 116.74 105.727 119.068 107.034 121.145C108.154 122.909 109.39 124.539 111.334 125.425C111.764 125.622 112.014 125.21 111.647 124.933C110.734 124.234 110.223 123.813 109.417 122.972C108.629 122.148 107.948 121.217 107.366 120.241C106.121 118.154 105.342 115.835 104.75 113.48C103.47 108.421 102.35 103.112 102.287 97.8825C102.287 97.6407 101.92 97.6407 101.911 97.8825H101.92Z" fill="black"/>
<path d="M111.557 125.56C111.486 125.56 111.396 125.542 111.306 125.497C109.327 124.593 108.055 122.892 106.971 121.19C105.807 119.355 104.893 117.134 104.168 114.394C103.487 111.789 103.012 109.156 102.511 106.237C102.081 103.757 101.669 100.82 101.839 97.8739C101.848 97.7038 101.982 97.6143 102.117 97.6143C102.242 97.6143 102.377 97.7128 102.377 97.8829C102.448 103.282 103.666 108.789 104.84 113.463C105.547 116.257 106.371 118.397 107.446 120.196C108.055 121.217 108.736 122.13 109.479 122.91C110.276 123.742 110.787 124.163 111.692 124.861C111.924 125.041 111.942 125.255 111.862 125.399C111.808 125.497 111.692 125.56 111.548 125.56H111.557ZM102 97.8829C101.839 100.811 102.251 103.73 102.672 106.201C103.174 109.12 103.648 111.753 104.329 114.349C105.046 117.071 105.95 119.274 107.106 121.101C108.172 122.784 109.426 124.459 111.369 125.345C111.548 125.426 111.674 125.381 111.718 125.309C111.763 125.238 111.745 125.112 111.593 124.996C110.679 124.297 110.16 123.868 109.354 123.026C108.601 122.238 107.912 121.307 107.294 120.277C106.21 118.459 105.377 116.301 104.669 113.499C103.487 108.816 102.269 103.3 102.197 97.8829C102.197 97.7933 102.126 97.7844 102.099 97.7844C102.09 97.7844 101.991 97.7844 101.991 97.8829H102Z" fill="black"/>
<path d="M70.428 149.145C72.6045 152.019 75.2288 153.156 78.4801 154.589C79.0892 154.857 79.7251 155.153 80.4058 154.983C81.1672 154.786 81.8389 154.114 82.448 153.64C83.9617 152.449 85.3679 151.133 86.7293 149.763C89.5328 146.942 92.1213 143.898 94.9965 141.149C97.7104 138.552 100.72 136.331 103.622 133.959C106.81 131.353 109.641 128.953 111.764 125.381C112.014 124.96 111.423 124.566 111.181 124.987C107.59 131.022 101.598 134.344 96.4116 138.857C93.6888 141.229 91.2615 143.907 88.7984 146.548C87.5623 147.873 86.3084 149.198 84.9917 150.452C84.3379 151.079 83.6661 151.688 82.9764 152.279C82.2868 152.87 81.4538 153.747 80.5939 154.132C79.4743 154.634 78.1487 153.729 77.1456 153.219C76.2499 152.762 75.3721 152.261 74.5123 151.724C72.7567 150.613 71.7894 149.718 70.7504 148.563C70.6608 148.464 69.8547 148.339 69.9353 148.446L70.4101 149.154L70.428 149.145Z" fill="black"/>
<path d="M60.5842 102.861C61.4709 102.432 59.993 102.808 60.8081 102.199C61.7127 101.527 64.7939 102.199 65.7433 102.199C67.7317 102.208 69.8365 101.223 71.807 101.044C75.3718 100.73 79.4114 101.232 83.2538 99.6737C83.7464 99.4767 83.63 98.3038 83.1911 98.5813C79.3666 101.017 75.8645 99.5663 71.807 100.157C70.8039 100.301 68.5647 100.963 67.5794 101.223C66.4867 101.509 65.0626 101.465 63.9698 101.357C62.7875 101.241 59.9841 100.193 59.4019 102.19C59.3571 102.342 59.9393 102.503 60.0647 102.441L60.5842 102.87V102.861Z" fill="black"/>
<path d="M59.5449 102.378C60.2256 103.103 61.4526 103.506 62.3215 103.954C63.2351 104.428 64.1845 104.867 65.1697 105.163C67.3283 105.807 67.8388 105.655 71.5828 105.163C72.0844 105.1 70.0691 104.652 69.5585 104.67C67.391 104.751 67.382 104.983 65.2235 104.375C64.1845 104.088 63.1992 103.622 62.2229 103.175C61.4437 102.817 60.4853 102.172 59.6165 102.19C59.5269 102.19 59.4822 102.306 59.5449 102.369V102.378Z" fill="black"/>
<path d="M65.6715 91.9997C66.8986 92.8862 68.1973 93.2175 69.6214 92.5639C73.3833 90.8357 73.8759 89.9493 75.9808 89.3404C76.3749 89.224 76.0345 88.445 74.4581 89.0628C73.2042 89.5553 71.2158 90.97 70.0245 91.6684C69.4513 91.9997 68.8064 92.2236 68.1436 92.2863C67.2837 92.3669 66.5672 92.152 65.7969 91.8565C65.6536 91.8028 65.5551 91.9192 65.6715 91.9997Z" fill="black"/>
<path d="M74.6646 63.2752C73.5988 62.9528 72.6314 63.3826 71.8253 64.1437C71.1536 64.7884 71.5656 65.8898 72.506 65.8629C73.2674 65.836 73.9302 65.5853 74.4138 64.9764C75.2826 63.9109 73.966 62.5678 72.9001 63.4632C72.7299 63.6065 71.9686 64.4392 71.7537 64.4302L72.6493 64.9496L72.5956 64.8421V65.8898L72.3717 66.0778L71.1177 65.9166L71.1894 65.9793C71.1356 65.5584 71.3058 65.1197 71.2521 64.6989C71.0461 64.9675 70.6251 65.263 70.4191 65.5316C69.8727 66.23 70.3385 67.6716 71.4223 67.2508C73.3569 66.4897 75.2199 65.6032 77.0203 64.5645C76.662 63.9467 76.3037 63.3378 75.9454 62.72C75.5782 62.9797 75.2199 63.1856 74.799 63.3378C74.9871 64.0273 75.1841 64.7257 75.3722 65.4152C76.3574 65.0302 77.3427 64.6362 78.3279 64.2422C79.5998 63.7318 79.1341 61.9321 77.7547 62.1738C76.7336 62.3529 75.6946 62.4335 74.7004 62.72C69.3264 64.2422 73.9302 64.9854 75.2647 64.7615L78.4802 64.2243C79.6446 64.0273 79.3848 62.0753 78.2025 62.1559C77.1009 62.2365 76.044 62.4245 75.005 62.7737C75.1931 63.4453 75.3722 64.1168 75.5603 64.7884C78.7668 63.5617 82.3943 63.2841 85.4844 61.7888C85.995 61.5381 86.4965 61.0456 87.0429 60.8844C87.4997 60.7501 88.055 60.9471 88.4939 61.0904C89.7747 61.5112 90.9749 62.1201 92.2826 62.5141C92.3991 61.6813 92.5066 60.8397 92.623 60.0069C86.2547 60.0786 72.8016 65.6569 74.4497 65.2003C80.388 63.5438 86.4607 62.6931 92.623 62.5588C94.0561 62.532 94.0203 60.4099 92.623 60.0069C91.2257 59.604 90.3211 58.9951 88.9597 58.6011C87.5982 58.2072 87.0966 58.0997 85.8964 58.9414C84.5081 59.9174 83.3348 60.0875 81.7226 60.5531C79.8596 61.0993 76.8322 62.0843 75.0139 62.7737C73.7779 63.2393 74.2705 65.2182 75.5692 64.7884C76.4381 64.5019 77.2979 64.3138 78.2115 64.2601L77.9338 62.1917C76.859 62.3618 75.7842 62.5409 74.7184 62.7111C74.9064 63.3916 75.0945 64.0721 75.2826 64.7526C76.3037 64.5735 77.3248 64.4034 78.3369 64.2243L77.7637 62.1559C76.7784 62.5409 75.7932 62.917 74.8079 63.3199C73.545 63.8303 74.0645 65.8898 75.3812 65.3973C75.9723 65.1734 76.5187 64.9138 77.0292 64.5466C78.1219 63.7587 77.1546 61.9858 75.9544 62.7021C74.3243 63.6691 72.6404 64.5377 70.8938 65.254L72.0582 66.7672C72.2642 66.4986 72.4702 66.239 72.6762 65.9703C72.9986 65.5585 73.142 64.8959 72.6762 64.5019L72.6046 64.4392C72.2552 64.1437 72.4344 63.705 72.0224 63.9646C71.3685 64.3765 69.9265 65.6928 70.222 66.3733C70.3654 66.7135 71.4312 66.4807 71.7716 66.5076C72.8106 66.5882 73.6704 65.5674 74.4317 64.9675C73.9302 64.4661 73.4196 63.9557 72.918 63.4542C72.8374 63.6333 72.712 63.705 72.5239 63.6781L73.2942 65.5316C73.6346 65.1913 73.957 65.0302 74.4407 65.0212C75.4528 65.0033 75.6499 63.5617 74.6825 63.2662L74.6646 63.2752Z" fill="black"/>
<path d="M130.985 102.306C131.684 103.085 132.132 103.658 133.045 104.177C134.514 105.001 136.01 105.789 137.488 106.586C140.256 108.09 143.014 109.586 145.782 111.09C151.505 114.197 157.238 117.304 162.961 120.411V119.972C151.093 127.395 138.769 134.057 126.229 140.271C113.887 146.387 101.302 152.44 87.8673 155.753C79.7345 157.758 71.7988 157.723 63.8362 154.965C63.5227 154.857 63.3884 155.35 63.7019 155.457C70.1328 157.687 76.9042 158.367 83.6307 157.194C90.5723 155.985 97.3705 153.648 103.9 151.061C116.977 145.867 129.624 139.385 142.002 132.714C149.203 128.837 156.297 124.754 163.23 120.411C163.391 120.312 163.4 120.062 163.23 119.972C157.703 116.973 152.168 113.973 146.642 110.964C143.874 109.46 141.115 107.965 138.348 106.461C136.968 105.708 135.58 104.956 134.201 104.213C133.027 103.577 132.23 102.915 131.353 101.939C131.129 101.697 130.77 102.055 130.994 102.297L130.985 102.306Z" fill="black"/>
<path d="M77.0472 157.812C72.6046 157.812 68.1352 157.042 63.6836 155.502C63.4955 155.439 63.4507 155.242 63.4955 155.099C63.5403 154.974 63.6657 154.866 63.8448 154.929C71.4581 157.562 79.3043 157.821 87.858 155.708C100.953 152.476 112.982 146.79 126.211 140.226C139.915 133.43 151.792 126.885 162.504 120.205L137.47 106.622C136.977 106.353 136.484 106.094 135.992 105.825C135.016 105.306 134.003 104.759 133.027 104.204C132.212 103.748 131.764 103.237 131.2 102.601C131.119 102.512 131.039 102.422 130.949 102.324C130.815 102.181 130.869 101.993 130.976 101.885C131.075 101.796 131.245 101.76 131.37 101.903C132.284 102.915 133.081 103.551 134.209 104.168L163.238 119.928C163.328 119.972 163.382 120.062 163.382 120.169C163.382 120.277 163.328 120.384 163.238 120.447C156.619 124.593 149.472 128.729 142.002 132.75C121.974 143.53 111.504 148.07 103.9 151.097C95.8116 154.311 89.5509 156.201 83.6215 157.239C81.436 157.615 79.2416 157.812 77.0292 157.812H77.0472ZM63.7553 155.001C63.6657 155.001 63.612 155.063 63.5851 155.135C63.5493 155.242 63.5851 155.377 63.7194 155.43C70.3564 157.723 77.0472 158.314 83.6215 157.168C89.5509 156.138 95.8027 154.24 103.882 151.034C111.486 148.016 121.957 143.477 141.975 132.696C149.445 128.676 156.584 124.539 163.203 120.393C163.265 120.348 163.31 120.277 163.31 120.196C163.31 120.125 163.274 120.062 163.212 120.026L163.014 119.919V120.501L162.594 120.277C151.872 126.965 139.978 133.529 126.256 140.325C113.018 146.888 100.989 152.583 87.8849 155.807C79.3222 157.92 71.4492 157.66 63.8269 155.019C63.8001 155.019 63.7732 155.01 63.7553 155.01V155.001ZM162.683 120.214L162.934 120.348V120.053C162.853 120.107 162.764 120.16 162.683 120.205V120.214ZM131.182 101.912C131.128 101.912 131.084 101.939 131.048 101.966C130.967 102.037 130.931 102.172 131.021 102.279C131.11 102.378 131.191 102.467 131.272 102.557C131.836 103.192 132.275 103.685 133.081 104.142C134.057 104.697 135.069 105.234 136.046 105.753C136.538 106.022 137.031 106.282 137.523 106.55L162.602 120.16C162.719 120.089 162.844 120.008 162.961 119.937L163.014 119.901L134.183 104.258C133.045 103.64 132.239 102.995 131.325 101.975C131.281 101.93 131.236 101.903 131.191 101.903L131.182 101.912Z" fill="black"/>
<path d="M73.0969 167.089C79.0532 167.778 85.0811 168.289 91.0016 167.08C96.716 165.916 102.26 163.812 107.876 162.254C118.956 159.173 130.179 156.604 141.249 153.479C152.06 150.425 162.763 146.835 172.804 141.758C175.178 140.558 177.775 139.385 179.862 137.72C181.662 136.278 182.37 134.38 182.665 132.15C183.051 129.186 183.23 126.178 183.463 123.205C183.686 120.295 184.242 117.116 183.884 114.206C183.248 108.995 177.551 109.416 173.628 110.096C167.672 111.135 162.056 113.615 157.219 117.224C156.825 117.519 157.21 118.182 157.604 117.886C161.707 114.824 166.346 112.585 171.317 111.359C173.592 110.795 176.037 110.293 178.393 110.419C179.701 110.49 181.143 110.795 182.074 111.797C183.122 112.926 183.203 114.555 183.149 116.006C183.06 118.853 182.791 121.71 182.567 124.557C182.343 127.404 182.28 130.341 181.725 133.117C181.089 136.278 178.742 137.684 176.118 139.125C173.843 140.388 171.523 141.561 169.168 142.662C150.206 151.545 129.489 155.538 109.408 161.018C103.792 162.549 98.2655 164.501 92.6138 165.907C86.147 167.519 79.6354 167.062 73.079 166.31C72.5864 166.256 72.5953 167.017 73.079 167.08L73.0969 167.089Z" fill="black"/>
<path d="M60.7362 128.658C58.3895 132.374 56.6877 136.573 55.0665 140.647C53.2572 145.205 51.6808 149.852 50.3552 154.571C47.6145 164.348 46.3874 174.368 45.8231 184.486C45.4648 190.906 45.2409 197.371 45.3753 203.8L46.1545 203.693C46.1008 203.343 46.047 203.003 45.9933 202.654C45.9306 202.251 45.2409 202.341 45.2767 202.752C45.3126 203.102 45.3394 203.451 45.3753 203.8C45.42 204.302 46.1545 204.319 46.1635 203.8C46.4949 190.011 46.3784 176.141 49.1729 162.558C50.3732 156.738 52.0391 151.016 54.0007 145.402C55.998 139.698 58.5418 134.308 60.978 128.801C61.0497 128.64 60.8347 128.496 60.7362 128.658Z" fill="black"/>
<path d="M102.242 38.2129C102.412 38.3741 102.609 38.5084 102.735 38.6874C104.231 40.8633 104.867 43.4421 105.78 45.8955C106.103 46.773 105.708 47.6236 105.834 48.5727C105.834 48.6265 105.789 49.0473 105.762 49.0652C105.216 49.4413 106.362 49.5756 106.389 50.0681C106.389 50.1307 106.309 50.1934 106.237 50.3009C106.049 50.2024 105.861 50.1039 105.682 50.0054C105.449 50.2471 105.547 50.4262 105.708 50.5784C105.977 50.8292 106.228 51.1246 106.541 51.2769C107.034 51.5097 106.147 51.8231 106.246 52.2976C106.38 52.9334 106.595 53.3363 106.058 53.6945C105.879 53.8109 106.55 53.6586 106.291 53.9004C106.326 53.5333 106.344 53.3005 106.362 53.0229C105.995 52.9423 105.852 53.0677 105.861 53.4437C105.861 53.6766 105.825 53.9094 105.798 54.1511C105.252 53.9899 104.822 53.8646 104.383 53.7303C104.383 53.6676 104.383 53.6139 104.383 53.5512C104.634 53.4796 104.875 53.4079 105.225 53.3094C105.144 53.0498 105.064 52.7991 104.938 52.3961C104.553 52.7543 104.257 53.0229 103.935 53.3184C103.174 52.423 102.466 51.5903 101.723 50.7217C102.6 50.1845 101.956 49.3517 102.305 48.725C101.32 48.1161 101.114 46.97 100.487 46.1014C100.218 45.7343 100.057 45.2955 99.797 44.7941C99.4297 45.3493 100.039 45.7701 99.7343 46.2178C100.146 46.3521 100.621 46.4058 100.603 47.0326C100.478 47.0058 100.361 46.9968 100.254 46.961C99.9134 46.8536 99.5731 46.7461 99.2417 46.6207C99.0356 46.5402 98.7042 46.4238 98.6863 46.2894C98.6147 45.7791 98.2027 45.6716 97.8354 45.4478C97.8713 45.3045 97.8981 45.1702 97.9429 45.0001C97.4503 44.8926 96.9756 44.7941 96.4471 44.6867C96.5098 44.5076 96.5636 44.3554 96.6442 44.1226C94.7991 43.9345 93.0973 43.3077 91.3059 42.5466H92.0941C91.6642 41.884 91.6284 41.8661 91.0999 42.09C91.0014 42.1348 90.9029 42.2243 90.8223 42.2153C89.6848 42.0452 88.4666 42.2064 87.4993 41.3826C87.4814 41.3647 87.4814 41.3378 87.4545 41.2662C87.5262 41.1409 87.6157 40.9886 87.7143 40.8364C87.2127 40.7648 86.729 40.7021 86.1916 40.6215C86.2633 40.4245 86.326 40.2723 86.4424 39.9589C85.9766 40.1828 85.6363 40.3439 85.2601 40.523C85.081 40.4066 84.8929 40.2813 84.7227 40.1649C84.7675 39.6187 85.3855 39.8783 85.5467 39.4664C85.0362 39.1441 84.5077 39.4127 84.0151 39.4217C83.5852 38.7143 83.3433 38.6248 82.3223 38.8038C82.3223 38.7322 82.3044 38.6695 82.3223 38.6069C82.3491 38.5352 82.4029 38.4815 82.4566 38.4009C81.758 38.1323 81.14 37.7741 80.6832 37.1921C80.4682 36.9235 80.2532 36.9772 80.0025 37.1205C79.277 37.5503 78.9993 37.5324 78.3634 36.9951C78.1126 36.7892 77.8618 36.6191 77.5214 36.7175C77.1273 36.825 76.8138 36.6817 76.5093 36.4221C76.5451 36.2251 76.572 36.0281 76.6078 35.8311C76.8138 35.8042 77.0198 35.7863 77.2259 35.7595C77.2079 35.6968 77.19 35.6341 77.1632 35.5625C76.984 35.652 76.8049 35.7505 76.6257 35.84C76.357 35.9206 76.0704 35.9923 75.8107 36.0997C75.4972 36.2251 75.2195 36.4758 74.906 36.5295C74.5926 36.5743 74.2522 36.44 73.8939 36.3773C73.8223 36.5564 73.7506 36.7175 73.6879 36.8787C73.6163 36.8787 73.5356 36.8966 73.464 36.8787C73.1147 36.7802 73.0162 36.4847 72.8908 36.1893C72.7385 35.8311 72.4877 35.7595 72.1026 36.0281C72.2638 36.234 72.4071 36.4221 72.6041 36.6817C72.2907 36.7086 72.0757 36.7265 71.8159 36.7444C71.7085 36.9145 71.592 37.1115 71.4039 37.416C71.2875 37.1832 71.1263 37.022 71.1621 36.9235C71.2606 36.6101 71.2427 36.3683 70.8934 36.1713C70.7859 36.2519 70.6247 36.3146 70.562 36.44C70.0873 37.3354 69.2453 37.2637 68.4392 37.2369C68.1257 37.2279 67.8839 37.2458 67.7496 37.5771C67.6242 37.8905 67.3286 37.9532 67.033 37.9174C65.4477 37.7562 64.0325 38.3024 62.5994 38.8665C61.8829 39.1441 61.1215 39.3232 60.3781 39.547C60.2796 39.5739 60.1273 39.547 60.0825 39.6008C59.5451 40.2902 58.6763 40.147 57.9866 40.4514C57.7806 40.5409 57.6015 40.6932 57.4045 40.8096C57.0372 41.0245 56.67 41.2394 56.2222 41.508C56.2222 41.4811 56.2042 41.6065 56.1774 41.8124C55.7206 41.884 55.2459 41.9557 54.7712 42.0363C54.6995 42.0452 54.6099 42.0631 54.5562 42.1079C53.9113 42.6183 53.141 42.8779 52.4155 43.2451C51.8333 43.5405 51.3138 43.836 50.866 44.3464C50.5794 44.6777 50.1136 44.8389 50.0957 45.3761C50.0957 45.4388 50.0061 45.4925 49.9345 45.591C49.7554 45.5104 49.5762 45.4388 49.415 45.3672C49.3523 45.4209 49.2896 45.4478 49.2806 45.4925C49.1373 45.9671 48.9672 46.3879 48.4297 46.6207C48.1521 46.7371 47.9461 47.0774 47.7401 47.3371C47.4445 47.7042 47.2027 48.1161 46.513 48.0176C46.6653 48.4205 46.7548 48.6712 46.8623 48.9846C46.4861 49.4592 46.3249 50.1307 45.6979 50.5247C45.5009 50.6501 45.4471 51.0709 45.4203 51.3664C45.3844 51.7156 45.3038 51.9842 45.062 52.2618C44.7216 52.6558 44.2917 53.0677 44.5783 53.7124C44.6142 53.784 44.3992 53.9631 44.2738 54.1243C44.4798 54.5182 44.5962 54.9301 44.1305 55.2793C44.0588 55.3331 43.9872 55.4763 44.0051 55.539C44.2738 56.2374 43.5393 56.7299 43.6199 57.3925C43.6289 57.4641 43.4319 57.5537 43.3692 57.6611C43.2975 57.7865 43.1811 57.9745 43.2258 58.064C43.4139 58.4491 43.19 58.7714 43.1542 59.1296C43.1184 59.443 42.984 59.6668 42.6616 59.7564C42.3302 59.8459 42.2227 60.0877 42.2048 60.4011C42.1958 60.6607 42.16 60.9204 42.1779 61.1801C42.2048 61.6188 42.0346 61.977 41.8107 62.3441C41.5957 62.6933 41.3181 63.0873 41.327 63.4634C41.327 64.0095 41.0046 64.2782 40.7448 64.6453C40.5746 64.896 40.3686 65.1378 40.2791 65.4153C39.9566 66.4003 39.8312 67.4121 39.7327 68.4597C39.5715 70.2505 39.9566 71.728 39.7685 73.5009C39.7058 74.1187 39.7148 74.262 39.7506 74.5485C39.9924 74.5037 40.1716 74.5127 40.3238 74.45C42.4197 73.5904 44.5783 72.9188 46.7727 72.4085C48.5641 71.9876 50.3644 71.5847 52.2185 71.4862C53.9024 71.3967 55.5862 71.1728 57.2701 71.1728C58.533 71.1728 59.7959 71.4235 61.0499 71.6116C61.3365 71.6563 61.6231 71.8533 61.8649 72.0234C62.0799 72.1667 62.268 72.2831 62.5009 72.1309C63.3607 71.5578 64.3818 71.6295 65.3312 71.4325C66.0388 71.2892 66.7733 71.2534 67.4988 71.1907C67.6779 71.1728 67.866 71.1728 68.0272 71.2265C68.5915 71.3967 69.102 71.2534 69.3887 70.7609C69.9798 69.767 70.8576 69.0955 71.8607 68.5851C72.64 68.1821 73.4103 67.7434 74.2253 67.421C75.3091 67.0092 76.4287 66.6779 77.5483 66.3466C78.2559 66.1406 79.0978 65.6929 79.8144 65.5138C79.8412 65.5765 79.7606 65.7108 79.7875 65.7735C79.6263 65.8541 79.3397 65.9436 79.1695 65.9794C76.4377 66.5883 74.0283 67.9404 71.592 69.2745C71.1711 69.5073 70.777 69.8386 70.4545 70.2058C69.8723 70.8594 69.6574 71.6116 69.8992 72.5159C70.2485 73.8411 70.6157 75.1663 71.1352 76.4378C71.2158 76.6258 71.2517 76.8228 71.3323 77.1004C70.9292 77.0019 70.8397 76.7333 70.7501 76.4826C70.3381 75.3096 69.944 74.1276 69.5409 72.9547C69.4782 72.7845 69.4066 72.6144 69.3618 72.4443C69.2364 71.9608 68.8871 71.7548 68.4303 71.7996C67.66 71.8712 66.8718 71.9429 66.1194 72.1219C65.2417 72.3279 64.3908 72.6592 63.5309 72.9278C62.9039 73.1337 62.7965 73.6889 62.7965 73.7247C62.7427 74.2261 62.9308 77.8525 62.9666 78.5957C62.9756 78.8017 62.8144 80.7178 62.7338 81.4789C62.68 81.9625 62.5994 82.446 62.5009 82.9205C62.3844 83.5026 62.2322 84.0667 62.1068 84.6487C61.9097 85.5441 61.2738 86.0545 60.5035 86.4216C58.9898 87.1469 58.2822 88.6332 58.5957 90.1196C58.7569 90.8897 59.3929 91.1762 60.1094 90.818C62.053 89.842 63.8086 90.3256 65.5014 91.4627C65.7522 91.6328 66.0657 91.8746 66.3523 91.991C66.5583 92.0806 66.9166 92.3044 67.1674 92.385C67.0151 92.7342 66.9972 92.6894 66.5314 92.4835C66.0657 92.2775 65.6358 92.1164 65.0267 91.6955C64.3818 91.2389 62.6442 90.2181 60.1721 91.7224C59.2585 92.2775 57.9419 91.2568 57.7806 90.0122C57.8165 88.3198 58.3091 87.7916 58.3987 87.2901C56.9208 87.4961 52.4872 88.6959 51.287 88.5079C51.1347 88.5079 51.2511 87.8274 51.4124 87.7916C53.4097 87.6483 56.8491 87.0752 58.4255 86.4395C60.2617 85.6963 61.3634 84.398 61.7754 82.4639C62.062 81.1208 62.4113 79.7866 62.2859 78.3898C62.2501 77.96 62.0709 75.2021 62.0262 75.0231C61.8381 74.262 61.8649 73.3576 61.0857 72.883C60.5573 72.5607 59.984 72.2652 59.3929 72.1309C57.4761 71.71 55.5235 71.728 53.5799 71.9429C52.1379 72.104 50.6958 72.3189 49.2717 72.6055C47.8744 72.883 46.4951 73.2681 45.1247 73.6441C44.2559 73.8859 43.405 74.2082 42.5451 74.5037C42.4018 74.5574 42.2585 74.6201 42.1152 74.6738C40.1447 75.417 39.6163 76.9303 39.9208 78.9539C40.0104 79.5449 40.1447 80.1269 40.2432 80.7089C40.2611 80.8342 40.2701 80.9686 40.2432 81.0939C40.1358 81.6132 40.0104 82.1326 39.9297 82.4728C39.6342 81.4968 39.5536 80.297 39.4103 79.0972C39.3565 78.6674 39.1684 78.2555 39.0162 77.8436C38.8728 77.4406 38.5235 77.3511 38.1473 77.3063C37.8786 77.2705 37.4756 77.2347 37.395 77.0735C37.2069 76.7064 37.0725 76.2856 37.3233 75.82C37.6279 75.2648 37.5472 74.9604 37.0277 74.638C36.4276 74.2709 36.2216 73.7068 36.0962 73.089C35.9888 72.5159 35.9081 71.9608 35.317 71.6474C35.2095 71.5847 35.1826 71.3877 35.111 71.2534C34.9319 70.9131 34.7438 70.5729 34.5646 70.2326C34.493 70.0983 34.3765 69.9461 34.4034 69.8118C34.5109 69.1581 34.1257 68.6478 33.8481 68.1463C33.651 67.7882 33.6779 67.2599 33.1763 67.0629C33.1047 67.036 33.1136 66.7764 33.1047 66.6241C33.0868 66.2839 33.0778 65.9526 33.0778 65.6123C33.0778 65.1467 32.9255 64.7438 32.5762 64.4304C32.2269 64.117 32.1373 63.7409 32.2896 63.3022C32.424 62.9261 32.2986 62.6217 32.0657 62.2993C31.6805 61.7621 31.1342 61.3054 31.0267 60.598C30.9998 60.419 30.9192 60.2041 30.9909 60.0698C31.4656 59.1027 31.2148 58.073 31.2417 57.0791C31.2775 55.9419 31.1163 54.8137 31.4924 53.6945C31.6537 53.2199 31.6178 52.6737 31.6805 52.1275C31.4745 52.1275 31.6895 51.1336 31.7791 50.6501C31.9045 49.889 31.994 49.1189 32.1015 48.331C31.9492 48.2952 32.406 47.2565 32.7643 46.8983C33.0599 46.6118 33.4182 46.379 33.6689 46.0656C34.1437 45.4388 34.69 44.9016 35.317 44.436C35.3797 44.3912 35.4872 44.3554 35.5051 44.3016C35.7828 43.3883 36.6247 43.1555 37.3233 42.7436C37.592 42.5914 37.8339 42.4034 38.1115 42.2064C37.2158 42.0721 37.2427 42.1079 36.6247 42.4929C36.2664 42.7168 35.8365 42.8332 35.3349 43.0391C35.2274 43.6122 34.7348 43.9166 33.9914 44.0957C34.1795 43.4689 34.0899 42.8332 34.7348 42.4929C34.8692 42.4213 35.0125 42.3138 35.0662 42.1795C35.3528 41.4901 36.5083 40.147 36.1679 40.1201C36.8844 39.0635 37.2964 37.8458 38.6131 37.3264C39.1595 37.1115 39.67 36.7175 39.4819 35.9565C39.473 35.9117 39.4819 35.849 39.4998 35.8042C39.5177 35.7595 39.5446 35.7147 39.5894 35.5983C39.8491 35.5714 40.1537 35.5356 40.494 35.5087C40.6194 34.5148 39.6252 34.3626 39.1863 33.8254C39.3655 33.306 39.8402 33.5478 39.9745 33.4672C40.2701 32.9837 40.4313 32.6166 40.6821 32.3211C40.9687 31.9808 40.7806 31.7301 40.6194 31.5331C40.9508 31.3093 41.2374 31.0944 41.533 30.9243C41.7032 30.8258 45.9756 27.3247 47.2206 27.28C47.6057 27.2621 47.9819 27.0203 48.3939 26.877C48.7343 26.9487 49.1284 27.0919 49.5314 27.1098C50.033 27.1277 50.2032 26.7517 49.9345 26.3308C49.8897 26.2682 49.8181 26.2144 49.7912 26.1517C49.3523 25.2026 49.5225 24.5669 50.5883 24.5311C50.9466 24.5221 51.3138 24.5758 51.6721 24.5848C51.8602 24.5848 52.0483 24.5848 52.2364 24.5848C52.2364 24.5311 52.2543 24.4773 52.2543 24.4326C52.0841 24.352 51.9139 24.2803 51.7438 24.1998C52.0214 23.8953 52.2812 23.5909 52.5678 23.3223C52.6663 23.2327 52.8902 23.1521 52.9798 23.1969C53.5351 23.4745 54.0815 23.2148 54.6189 23.2238C54.6995 23.3491 54.7801 23.4655 54.8966 23.6446C55.0936 23.376 55.2548 23.179 55.3892 22.9551C55.4519 22.8567 55.3981 22.6776 55.4608 22.588C55.7295 22.203 55.7116 21.9344 55.2548 21.7195C55.1294 21.6568 55.0757 21.4509 54.9951 21.3076C55.1653 21.2091 55.3713 20.9942 55.4967 21.039C56.4282 21.3524 57.3865 21.2807 58.336 21.3703C58.739 21.415 59.0973 21.9165 59.5362 22.2567C60.1811 22.1045 60.4408 21.6658 60.2079 20.9673C60.1184 20.6898 59.9124 20.3943 60.2975 20.0898C60.4408 20.1973 60.5841 20.2868 60.7095 20.4032C60.8618 20.5375 60.9872 20.7614 61.1574 20.8151C61.5873 20.9584 61.7575 21.2718 61.8202 21.6658C62.3576 21.7732 62.8591 21.8986 63.3697 21.9523C63.71 21.9881 65.582 21.5583 66.1732 21.6747C66.2359 21.6837 69.4782 21.1375 70.2216 21.1554C71.0904 21.7911 72.0757 21.2091 72.9982 21.433C73.2938 21.5046 73.9208 21.4777 73.876 21.612C74.0999 21.818 76.4108 22.3105 77.1094 22.0418C77.396 21.9344 77.7722 22.006 78.0947 22.0418C78.4977 22.0866 78.9008 22.1672 79.3397 22.2478C79.5188 22.6149 81.3997 23.4924 81.8296 23.7431C82.2417 23.9849 83.8091 24.7639 83.8539 24.6833C84.033 24.737 85.4213 25.8294 85.5467 25.91C85.6363 25.9637 85.699 26.0622 85.7885 26.107C86.6305 26.5189 89.1473 27.9157 89.7654 28.6678C89.9535 28.9006 90.3117 29.0618 90.6163 29.1155C91.1537 29.2051 91.3776 29.5901 91.6911 29.9841C91.5119 30.1542 92.1479 31.0407 92.7121 31.3272C92.4614 31.5242 93.1689 32.527 93.7511 32.9031C92.8823 32.9479 93.581 33.324 94.1094 33.8791C94.2079 33.9776 94.3871 34.0134 94.5393 34.0403C95.0678 34.1477 95.6052 34.2283 96.1247 34.3537C96.268 34.3895 97.9519 34.282 98.0056 34.3179C98.2385 34.5059 98.5609 34.6939 98.6505 34.9446C98.8028 35.3386 99.0446 35.5625 99.376 35.7953C99.6447 35.9833 99.7611 36.3683 99.9761 36.7175C100.917 36.8877 101.741 37.3443 102.215 38.3114C102.144 38.3114 102.045 38.3114 102 38.3382C101.938 38.383 101.92 38.4815 101.884 38.5531C101.965 38.5352 102.063 38.5352 102.117 38.4905C102.171 38.4546 102.171 38.3561 102.197 38.2845L102.242 38.2129ZM102.887 46.3342C102.932 46.2894 102.986 46.2447 103.03 46.191C102.69 45.6627 102.368 45.1165 102 44.6061C101.911 44.4718 101.723 44.4001 101.561 44.3285C101.517 44.3106 101.436 44.3733 101.32 44.418C101.445 44.624 101.553 44.812 101.642 44.9642C101.535 45.0896 101.445 45.1881 101.338 45.3135C101.866 45.7074 102.233 46.2268 102.878 46.3342H102.887ZM104.849 52.0738C104.455 51.3306 103.953 50.8739 103.03 50.7754C103.469 51.5455 104.016 51.9395 104.849 52.0738ZM101.033 45.5373L100.836 45.6806C100.818 46.2715 100.961 46.3879 101.526 46.3521C101.391 46.1372 101.212 45.8328 101.033 45.5373ZM103.344 41.0065C103.317 40.7379 103.183 40.5857 102.914 40.6305C102.86 40.6394 102.762 40.8543 102.798 40.917C102.923 41.1409 103.111 41.2214 103.344 41.0065ZM100.361 44.4628C100.236 44.1136 100.039 44.042 99.6805 44.1584C99.8597 44.4449 99.9851 44.6777 100.361 44.4628ZM37.0636 39.9321C37.18 39.753 37.2785 39.6545 37.3144 39.5291C37.3233 39.4933 37.1531 39.3411 37.1352 39.35C37.0188 39.4127 36.9024 39.5112 36.8307 39.6187C36.8128 39.6545 36.9471 39.7798 37.0636 39.9321ZM98.5161 44.1673C98.5341 44.1136 98.543 44.0688 98.5609 44.0151C98.3101 43.9256 98.1221 43.6301 97.5936 43.8987C98.0056 44.0151 98.2654 44.0957 98.5161 44.1673ZM99.4118 45.985C99.2954 45.8328 99.2327 45.6806 99.1431 45.6627C99.0625 45.6448 98.8834 45.7612 98.8744 45.8417C98.8655 45.9313 98.964 46.0835 99.0536 46.1193C99.1252 46.1462 99.2506 46.0477 99.4118 45.985ZM75.1389 34.8641C75.1568 34.9357 75.1747 35.0163 75.1927 35.0879C75.4434 35.0342 75.6942 34.9715 75.9361 34.9178C75.9271 34.873 75.9182 34.8193 75.9092 34.7745C75.6495 34.8014 75.3987 34.8372 75.1389 34.8641ZM78.2021 23.3939C78.3096 23.2864 78.3723 23.2148 78.435 23.1521C78.3544 23.0805 78.2828 22.982 78.1842 22.9551C78.1305 22.9372 78.0409 23.0536 77.9693 23.1163C78.0409 23.1969 78.1036 23.2775 78.2021 23.3939ZM100.379 41.6065C100.505 41.6512 100.594 41.705 100.675 41.705C100.728 41.705 100.773 41.6154 100.827 41.5707C100.728 41.5169 100.639 41.4542 100.54 41.4184C100.514 41.4184 100.46 41.508 100.379 41.6065ZM93.3033 42.4213C93.2316 42.6451 93.1779 42.7347 93.1779 42.8332C93.1779 42.8869 93.2675 42.9764 93.3123 42.9764C93.3929 42.9764 93.4735 42.9138 93.5541 42.8779C93.5093 42.8063 93.4735 42.7347 93.3033 42.4213ZM102.833 47.5788C102.878 47.543 102.932 47.5162 102.977 47.4803C102.896 47.3639 102.815 47.2475 102.735 47.1311L102.591 47.2296C102.672 47.346 102.753 47.4624 102.833 47.5788ZM69.8992 24.54C69.944 24.1013 69.8992 23.9401 69.4334 23.9311C69.6126 24.1639 69.7021 24.2893 69.8992 24.54ZM102.439 40.4603C102.377 40.326 102.359 40.2365 102.314 40.2096C102.26 40.1828 102.162 40.1917 102.108 40.2275C102.072 40.2544 102.081 40.3977 102.108 40.4156C102.188 40.4514 102.278 40.4514 102.439 40.4693V40.4603ZM101.355 38.2666C101.436 38.1592 101.517 38.0965 101.508 38.0517C101.508 37.989 101.445 37.9174 101.391 37.8905C101.355 37.8726 101.23 37.9532 101.239 37.9711C101.248 38.0517 101.302 38.1233 101.364 38.2576L101.355 38.2666Z" fill="black"/>
<path d="M59.7428 69.0326C59.4472 69.0057 56.9393 68.7371 55.9183 68.7818C54.6733 68.8266 53.4372 68.8445 52.2012 68.6833C51.6279 68.6117 46.0658 69.5788 45.4567 69.8026C44.8924 70.0085 44.0057 70.0444 43.4683 69.6504C43.2533 68.8803 43.0473 68.8087 43.0921 68.3879C43.11 68.2715 43.6206 67.9581 43.6743 67.9223C44.1848 67.5641 46.1016 66.615 46.6838 66.5612C46.9615 66.5344 48.8693 65.9076 49.5948 65.8628C49.8724 65.8449 54.718 66.3016 55.1032 66.3284C56.0974 66.4001 59.8413 67.2328 60.0742 67.5014C60.2444 67.6984 60.2981 68.1013 60.2086 68.2804C60.0205 68.6744 60.1638 68.8356 59.7338 69.0505L59.7428 69.0326Z" fill="black"/>
<path d="M47.4983 77.5212C47.2923 77.5481 46.0383 77.7272 45.3486 77.3511C45.6621 77.1273 45.6442 77.1094 45.8054 76.8766C45.9308 76.6885 45.8771 76.3662 45.9129 75.9901C46.2712 75.4081 48.2506 74.5306 48.5552 74.3784C49.1463 74.0739 54.0278 73.1785 55.8639 73.2502C57.2164 73.3039 58.3449 73.868 59.2496 74.7813C59.6079 75.1395 59.6705 75.811 59.8228 76.3483C59.8407 76.4199 59.6616 76.6258 59.5452 76.6527C59.4377 76.6796 59.2854 76.5542 59.16 76.4915C59.1421 76.4915 59.1421 76.4468 59.1242 76.4199C58.6943 75.4976 58.6853 75.4708 57.7001 75.623C56.7327 75.7752 55.7833 75.9811 54.816 76.1513C54.4846 76.205 54.1442 76.2408 53.8128 76.2498C53.3918 76.2677 53.0604 76.0796 52.8455 75.7125C52.729 75.5155 52.6126 75.3006 52.4514 75.1305C52.1737 74.8261 51.6811 74.253 50.66 74.844C49.9972 75.229 49.9435 75.1574 49.218 76.3393C49.1642 76.4288 48.5552 77.3869 47.4803 77.5212H47.4983Z" fill="black"/>
<path d="M103.451 69.0859C103.245 68.2174 102.779 67.5637 102.448 67.2145C102.914 66.9369 102.672 64.7342 102.708 64.0627C102.744 63.3195 102.869 62.5674 102.305 61.8331C102.618 61.7973 99.8596 55.6548 99.6715 54.9116C99.6625 54.8758 88.7173 41.7133 85.2779 40.2001C84.7494 39.9673 102.941 39.4659 102.985 39.5106C108.548 42.4923 106.479 63.1315 106.631 62.9434C107.455 63.7672 107.007 65.2625 106.962 66.7847C106.98 66.525 105.359 67.4473 105.162 67.5637C104.302 68.0741 104.374 68.5666 103.46 69.0949L103.451 69.0859Z" fill="black"/>
<path d="M40.5392 82.6064C40.6736 82.6691 40.7184 82.4273 40.8079 82.5348C42.0619 86.6178 45.1968 88.1848 47.0329 88.0952C48.5376 88.1131 50.0424 87.9878 51.5382 87.9341C51.8337 87.9251 52.1204 87.952 52.4159 87.9609V88.1221C52.3174 88.1579 52.2099 88.2295 52.1025 88.2385C50.2126 88.328 48.3227 88.4892 46.4328 88.4803C45.2326 88.4803 43.8353 87.7192 42.9486 86.8058C42.6799 86.5283 41.5513 85.0777 41.3633 84.7464C40.9423 84.0032 40.5303 82.6153 40.5303 82.6153L40.5392 82.6064Z" fill="black" stroke="black" stroke-width="0.25" stroke-miterlimit="10"/>
<path d="M40.6195 82.6073C40.5299 82.3476 40.4314 82.088 40.3418 81.8283C40.3955 81.8104 40.4403 81.7835 40.4941 81.7656L40.8075 82.5267C40.7449 82.5536 40.6822 82.5715 40.6195 82.5984V82.6073Z" fill="black"/>
<path d="M89.6133 42.5373C89.5774 42.591 89.5506 42.6626 89.5326 42.6537C89.47 42.6358 89.4162 42.6 89.3535 42.5731C89.3714 42.5373 89.3983 42.4746 89.4162 42.4746C89.4789 42.4746 89.5416 42.5104 89.6043 42.5283L89.6133 42.5373Z" fill="black"/>
<path d="M65.591 138.381C65.5552 138.283 65.5194 138.175 65.4746 138.077C65.5104 138.068 65.5463 138.05 65.5821 138.041C65.6179 138.148 65.6537 138.247 65.6896 138.354C65.6537 138.363 65.6179 138.381 65.5821 138.39L65.591 138.381Z" fill="black"/>
<path d="M68.1436 37.7469L68.5108 37.7021C68.5108 37.7021 68.5197 37.7917 68.5287 37.8365C68.4033 37.8454 68.2779 37.8633 68.1615 37.8723C68.1615 37.8275 68.1525 37.7917 68.1436 37.7469Z" fill="black"/>
<path d="M102.888 46.3338C102.252 46.2264 101.875 45.7071 101.347 45.3131C101.455 45.1877 101.544 45.0892 101.652 44.9639C101.562 44.8116 101.454 44.6236 101.329 44.4177C101.446 44.3729 101.526 44.3013 101.571 44.3281C101.723 44.3998 101.92 44.4714 102.01 44.6057C102.368 45.125 102.699 45.6623 103.04 46.1906C102.995 46.2353 102.941 46.2801 102.897 46.3338H102.888Z" fill="black"/>
<path d="M104.849 52.0737C104.024 51.9394 103.478 51.5454 103.03 50.7754C103.953 50.8739 104.454 51.3305 104.849 52.0737Z" fill="black"/>
<path d="M101.033 45.5371C101.213 45.8326 101.392 46.1281 101.526 46.3519C100.962 46.3877 100.818 46.2803 100.836 45.6804L101.033 45.5371Z" fill="black"/>
<path d="M103.344 41.0157C103.111 41.2306 102.914 41.15 102.798 40.9261C102.762 40.8634 102.86 40.6485 102.914 40.6396C103.183 40.5948 103.326 40.747 103.344 41.0157Z" fill="black"/>
<path d="M100.353 44.4629C99.9675 44.6778 99.8421 44.445 99.6719 44.1585C100.03 44.051 100.227 44.1227 100.353 44.4629Z" fill="black"/>
<path d="M37.0636 39.932C36.9472 39.7798 36.8128 39.6544 36.8307 39.6186C36.9024 39.5022 37.0188 39.4127 37.1352 39.35C37.1621 39.341 37.3323 39.4933 37.3144 39.5291C37.2696 39.6544 37.18 39.7619 37.0636 39.932Z" fill="black"/>
<path d="M98.5163 44.1667C98.2655 44.0951 98.0058 44.0145 97.5938 43.8981C98.1222 43.6295 98.3193 43.916 98.5611 44.0145C98.5432 44.0682 98.5342 44.113 98.5163 44.1667Z" fill="black"/>
<path d="M99.4124 45.9843C99.2512 46.047 99.1258 46.1545 99.0542 46.1187C98.9646 46.0828 98.8571 45.9217 98.875 45.8411C98.884 45.7605 99.0631 45.6441 99.1437 45.662C99.2333 45.6799 99.296 45.8321 99.4124 45.9843Z" fill="black"/>
<path d="M75.1484 34.864C75.4082 34.8371 75.659 34.8013 75.9187 34.7744C75.9277 34.8192 75.9366 34.8729 75.9456 34.9177C75.6948 34.9714 75.444 35.0341 75.2022 35.0878C75.1843 35.0162 75.1664 34.9356 75.1484 34.864Z" fill="black"/>
<path d="M78.2114 23.3933C78.1129 23.2769 78.0502 23.1964 77.9785 23.1158C78.0502 23.062 78.1397 22.9456 78.1935 22.9546C78.292 22.9815 78.3637 23.0799 78.4443 23.1516C78.3816 23.2143 78.3189 23.2859 78.2114 23.3933Z" fill="black"/>
<path d="M100.389 41.6066C100.469 41.5081 100.523 41.4096 100.55 41.4185C100.648 41.4544 100.747 41.517 100.837 41.5708C100.783 41.6155 100.738 41.7051 100.684 41.7051C100.604 41.7051 100.514 41.6513 100.389 41.6066Z" fill="black"/>
<path d="M93.3031 42.4209C93.4733 42.7253 93.5091 42.797 93.5539 42.8776C93.4733 42.9134 93.3927 42.976 93.3121 42.976C93.2673 42.976 93.1777 42.8865 93.1777 42.8328C93.1777 42.7432 93.2315 42.6448 93.3031 42.4209Z" fill="black"/>
<path d="M102.834 47.5874C102.753 47.4709 102.672 47.3545 102.592 47.2381L102.735 47.1396C102.816 47.2561 102.896 47.3725 102.977 47.4889C102.932 47.5247 102.878 47.5515 102.834 47.5874Z" fill="black"/>
<path d="M69.8993 24.5395C69.7023 24.2888 69.6127 24.1635 69.4336 23.9307C69.8993 23.9396 69.9441 24.1097 69.8993 24.5395Z" fill="black"/>
<path d="M102.439 40.4599C102.278 40.4419 102.189 40.442 102.108 40.4061C102.081 40.3972 102.081 40.245 102.108 40.2181C102.153 40.1823 102.26 40.1733 102.314 40.2002C102.359 40.2271 102.377 40.3166 102.439 40.4509V40.4599Z" fill="black"/>
<path d="M101.347 38.2662C101.284 38.1319 101.24 38.0602 101.222 37.9797C101.222 37.9617 101.338 37.8812 101.374 37.8991C101.428 37.917 101.49 37.9976 101.49 38.0602C101.49 38.105 101.419 38.1587 101.338 38.2751L101.347 38.2662Z" fill="black"/>
<path d="M102.242 38.2129C102.215 38.2845 102.215 38.383 102.162 38.4188C102.108 38.4636 102.009 38.4636 101.929 38.4815C101.965 38.4099 101.982 38.3114 102.045 38.2666C102.09 38.2308 102.188 38.2398 102.26 38.2398L102.242 38.2218V38.2129Z" fill="black"/>
<path d="M104.867 63.8838C104.966 64.0091 105.037 64.0718 105.064 64.1435C105.073 64.1703 104.992 64.242 104.957 64.2867C104.903 64.242 104.84 64.1972 104.813 64.1435C104.795 64.0897 104.831 64.0271 104.867 63.8838Z" fill="black"/>
<path d="M38.4159 77.4677C38.4069 79.0526 38.1113 80.727 38.2188 82.2939C38.3173 83.7534 39.3384 84.8637 39.4369 86.2516C39.5534 88.0245 39.3922 91.5524 41.6851 92.1076C41.9986 92.1792 42.124 91.7047 41.8194 91.633C40.2699 91.239 39.9296 88.3737 39.9116 87.1291C39.8937 86.2964 40.055 85.5711 39.6519 84.819C38.9801 83.5744 38.595 82.7148 38.7204 81.2553C38.8279 79.9748 38.8189 78.766 38.6846 77.4856C38.6667 77.3244 38.4338 77.3155 38.4248 77.4856L38.4159 77.4677Z" fill="black"/>
<path d="M80.253 84.3261C85.3763 84.2455 90.3742 82.195 95.0228 80.2161C95.8378 79.8669 96.841 79.5983 97.468 78.9536C98.1666 78.2283 98.1666 77.2076 98.283 76.2584C98.6324 73.5185 98.4622 70.6801 98.077 67.9491C97.9875 67.2865 96.9843 67.573 97.0739 68.2266C97.4053 70.5816 97.5486 73.0439 97.3336 75.4257C97.2082 76.8315 96.9306 78.2731 95.5064 78.8909C94.7809 79.2043 94.0465 79.5177 93.312 79.8132C89.1919 81.5055 84.7493 83.2068 80.2441 83.2874C79.5723 83.2963 79.5723 84.335 80.2441 84.3261H80.253Z" fill="black"/>
<path d="M60.4228 101.885C62.0172 100.515 64.2116 99.6642 66.1104 98.7688C66.8359 98.4285 67.7226 98.0614 68.5377 98.0614C68.8333 98.0614 69.1647 98.2494 69.4782 98.2584C70.0693 98.2763 70.4992 98.0614 71.0277 97.8465C75.2105 96.1989 79.1067 98.8673 83.2537 99.2254C83.7553 99.2702 83.7463 98.4912 83.2537 98.4464C79.0619 98.0882 75.4165 95.6527 71.1352 96.9511C70.3022 97.2018 70.0514 97.2824 69.2453 97.2913C68.4392 97.3003 68.5019 97.0943 67.5793 97.2734C66.818 97.4167 66.1104 97.8823 65.4387 98.2405C63.5667 99.2433 61.3723 100.139 59.7511 101.536C59.3659 101.867 60.0915 102.386 60.4676 102.064L60.4228 101.885Z" fill="black"/>
<path d="M67.6957 105.592C73.6251 105.207 79.3127 103.783 83.6119 99.4407C83.9612 99.0825 83.4149 98.5363 83.0566 98.8855C78.8917 103.085 73.4101 104.437 67.6867 104.804C67.1852 104.84 67.1852 105.619 67.6867 105.583L67.6957 105.592Z" fill="black"/>
<path d="M73.9117 90.092C74.6283 89.8771 75.3001 89.6085 76.0614 89.5906C76.6525 89.5727 77.2705 89.7607 77.8527 89.6264C78.6857 89.4384 79.259 88.6504 79.5187 87.8893C79.7158 87.3073 78.838 87.1014 78.6141 87.6386C78.3274 88.337 77.8348 88.7489 77.0735 88.7668C76.6346 88.7668 76.2136 88.731 75.7837 88.8026C75.0224 88.928 74.279 89.2772 73.7595 89.8413C73.661 89.9488 73.7595 90.1368 73.9028 90.092H73.9117Z" fill="black"/>
</g>
</g>
<defs>
<clipPath id="clip0_5795_4702">
<rect width="163" height="163" rx="81.5" fill="white"/>
</clipPath>
<clipPath id="clip1_5795_4702">
<rect width="153" height="185" fill="white" transform="translate(31 20)"/>
</clipPath>
</defs>
</svg>
