<svg width="15" height="19" viewBox="0 0 15 19" fill="none" xmlns="http://www.w3.org/2000/svg">
<g clip-path="url(#clip0_5483_3215)">
<path d="M1.44033 10.6667L1.44023 10.6665C0.825043 9.63994 0.5 8.46628 0.5 7.27344C0.5 3.55352 3.62624 0.5 7.5 0.5C11.3741 0.5 14.5 3.5535 14.5 7.27344C14.5 8.46664 14.175 9.63993 13.5598 10.6665L13.5597 10.6667C13.4162 10.9062 13.2558 11.1395 13.0826 11.3608L13.0803 11.3638L7.58011 18.5H7.42027L1.92013 11.3638L1.92014 11.3638L1.91755 11.3605C1.74441 11.1397 1.58371 10.9061 1.44033 10.6667ZM3.09694 7.27344C3.09694 9.65096 5.08638 11.5586 7.5 11.5586C9.91362 11.5586 11.9031 9.65096 11.9031 7.27344C11.9031 4.89592 9.91362 2.98828 7.5 2.98828C5.08638 2.98828 3.09694 4.89592 3.09694 7.27344Z" fill="#FF684B" stroke="#101010"/>
</g>
<defs>
<clipPath id="clip0_5483_3215">
<rect width="15" height="19" fill="white"/>
</clipPath>
</defs>
</svg>
