<svg width="155" height="142" viewBox="0 0 155 142" fill="none" xmlns="http://www.w3.org/2000/svg">
<g id="Layer_1" clip-path="url(#clip0_2513_10185)">
<g id="Group">
<path id="Vector" d="M124.233 69.913C126.355 88.8979 137.468 105.467 145.186 122.965C147.812 128.939 150.066 135.152 150.65 141.631C151.233 148.11 150.411 154.349 146.592 159.607C146.592 159.607 132.375 128.116 99.8583 121.557L96.2246 94.6598C96.2246 94.6598 110.812 89.9069 116.753 69.0898L124.233 69.913Z" fill="#FFF0DD"/>
<path id="Vector_2" d="M10.1314 166.749C0.95448 162.129 -0.663418 150.818 5.22467 139.162C11.0067 127.691 20.1306 118.345 26.0717 106.954C33.0207 93.6509 37.7153 78.8612 38.9618 63.8326C38.9618 63.8326 44.2929 63.8326 45.46 62.7705C45.46 62.7705 49.7301 88.1546 66.4661 94.1288L64.4239 121.345C64.4239 121.345 23.0746 136.135 10.1314 166.749Z" fill="#FFF0DD"/>
<path id="Vector_3" d="M78.4277 0.0535773C78.4277 0.0535773 118.981 -3.66375 123.066 51.99L119.14 55.4683L119.671 47.715C119.671 47.715 97.6303 46.945 80.8944 23.7383C80.8944 23.7383 76.0407 40.3866 44.001 41.9266L44.054 50.0782L40.3143 45.9095C40.3143 45.9095 38.272 4.2223 78.4277 0.0535773Z" fill="#FFF0DD"/>
</g>
<path id="Vector_4" d="M44.0544 43.3332C43.9748 49.3606 44.3461 55.4145 45.407 61.3357C46.4414 67.2569 48.1919 73.0718 51.0299 78.3292C53.8413 83.5866 57.8198 88.2598 62.9122 91.3398C65.4318 92.9064 68.1902 94.0747 71.0282 94.8979C73.8661 95.7475 76.8367 96.1193 79.8073 96.3582C85.7484 96.7565 91.7956 96.0662 97.2328 93.6499C102.67 91.2602 107.179 87.0649 110.468 82.0996C113.783 77.1343 115.932 71.4256 117.337 65.5841C118.796 59.7425 119.459 53.7152 119.671 47.6878C119.724 53.7152 119.167 59.7691 117.894 65.6903C116.568 71.5849 114.499 77.3999 111.21 82.551C107.975 87.7022 103.28 92.0567 97.6572 94.5792C92.0344 97.1282 85.8015 97.8717 79.7277 97.5C76.7041 97.261 73.654 96.8627 70.7099 95.9599C67.7659 95.0837 64.9544 93.8623 62.3552 92.2161C57.1302 88.9767 52.9926 84.1441 50.2342 78.7275C47.4493 73.3108 45.8049 67.3631 44.8501 61.3888C43.9748 55.388 43.7096 49.334 44.0544 43.3066V43.3332Z" fill="#010101"/>
<g id="Group_2">
<g id="Group_3">
<path id="Vector_5" d="M65.3525 111.918C65.3525 111.918 92.5385 114.919 96.57 98.0048V95.2964C96.57 95.2964 78.4018 99.9431 67.05 94.6592L65.3525 111.918Z" fill="#010101"/>
<path id="Vector_6" d="M82.6186 132.337C70.365 132.337 63.6812 124.583 63.5752 124.477L63.416 124.291L65.9357 93.8623L67.1027 93.9685L64.6361 123.92C66.1744 125.619 78.0832 137.674 99.222 126.708L95.6414 94.7651L96.8084 94.6323L100.469 127.371L100.124 127.557C93.4135 131.089 87.5784 132.363 82.6186 132.363V132.337Z" fill="#010101"/>
</g>
<g id="Group_4">
<g id="Group_5">
<g id="Group_6" opacity="0.4">
<path id="Vector_7" d="M48.4843 136.824C48.4843 141.365 44.7977 145.029 40.2888 145.029C36.4695 145.029 33.2602 142.427 32.3584 138.842C36.3368 135.576 40.554 132.655 45.0098 130.106C47.1051 131.567 48.5109 134.036 48.5109 136.798L48.4843 136.824Z" fill="#FFF0DD"/>
</g>
<g id="Group_7" opacity="0.4">
<path id="Vector_8" d="M128.212 136.877C128.212 139.824 125.825 142.214 122.881 142.214C119.937 142.214 117.55 139.824 117.55 136.877C117.55 133.93 119.937 131.54 122.881 131.54C125.825 131.54 128.212 133.93 128.212 136.877Z" fill="#FFF0DD"/>
</g>
</g>
<path id="Vector_9" d="M155 192H0L0.159138 191.283C0.45089 189.876 1.56485 186.796 2.3075 184.751L2.70534 183.636C2.99709 182.76 3.34189 181.884 3.66016 181.008C4.53542 178.671 5.33111 176.653 6.1268 174.768C8.3282 169.537 10.5826 164.943 13.0758 160.748C14.6141 158.066 16.3116 155.464 18.0886 153.021C21.0062 149.039 24.242 145.374 27.7165 142.108C28.8304 141.046 29.9974 140.037 31.2971 138.949C31.5358 138.736 31.7745 138.55 32.0132 138.365C35.9386 135.152 40.2088 132.178 44.7177 129.576C50.6853 126.124 57.263 123.15 64.2385 120.76L64.6099 121.849C57.6874 124.212 51.1893 127.159 45.3012 130.585C40.8453 133.134 36.6282 136.054 32.7293 139.267C32.4906 139.453 32.2519 139.639 32.0397 139.825C30.7666 140.887 29.5996 141.896 28.5122 142.932C25.0907 146.144 21.9079 149.755 19.0169 153.685C17.2664 156.101 15.5955 158.651 14.0572 161.306C11.617 165.474 9.3626 170.015 7.18771 175.193C6.41855 177.051 5.62286 179.069 4.7476 181.326C4.40281 182.229 4.08453 183.079 3.79278 183.955L3.39494 185.07C2.81143 186.69 1.90965 189.212 1.48528 190.752H153.833C153.806 189.69 153.674 187.221 153.223 183.822C152.799 180.822 152.242 177.874 151.552 175.06C150.385 170.254 148.82 165.581 146.884 161.2C145.664 158.438 144.391 155.942 142.985 153.606C139.988 148.481 136.381 143.808 132.27 139.772C123.464 131.089 112.219 125.035 98.851 121.822L99.1162 120.681C112.722 123.947 124.154 130.08 133.092 138.922C137.283 143.038 140.943 147.791 143.993 152.995C145.399 155.385 146.698 157.907 147.945 160.722C149.908 165.182 151.499 169.909 152.693 174.794C153.409 177.635 153.966 180.636 154.39 183.663C155 188.309 155.027 191.204 155.027 191.31V191.894L155 192Z" fill="#010101"/>
</g>
</g>
<g id="Group_8">
<path id="Vector_10" d="M118.956 56.1314C119.99 54.4852 121.316 52.9983 122.881 51.7768C124.472 50.6351 126.409 49.6792 128.504 49.7854C129.008 49.8385 129.538 49.8385 130.042 49.9978L130.785 50.2103C131.024 50.2899 131.262 50.4227 131.474 50.5289C132.429 50.9006 133.305 51.6175 133.941 52.4407C135.241 54.1666 135.559 56.3439 135.4 58.3618C135.002 62.4243 132.562 66.1948 129.034 68.1862C127.284 69.1952 125.321 69.7262 123.332 69.8855C121.343 69.9918 119.38 69.7262 117.523 69.1686C119.433 69.4873 121.396 69.62 123.279 69.328C125.162 69.089 126.992 68.4783 128.557 67.4427C131.713 65.4248 133.888 61.9464 134.233 58.2822C134.419 56.4766 134.1 54.5648 133.039 53.131C132.509 52.4141 131.846 51.83 130.997 51.4582C130.785 51.352 130.599 51.2458 130.387 51.1396L129.751 50.9272C129.326 50.7413 128.875 50.7148 128.424 50.6616C126.594 50.4492 124.764 51.2192 123.173 52.2282C121.555 53.2372 120.149 54.6179 118.929 56.1049L118.956 56.1314Z" fill="#010101"/>
<path id="Vector_11" d="M118.134 63.247C118.664 62.0787 119.433 61.0166 120.282 60.0608C121.157 59.1049 122.165 58.2817 123.253 57.5648C124.367 56.8745 125.587 56.37 126.86 56.0779C128.133 55.7593 129.486 55.8124 130.732 56.0779C129.459 56.3169 128.266 56.5293 127.125 56.9541C125.985 57.4055 124.897 57.91 123.889 58.5738C121.82 59.8749 119.99 61.4946 118.16 63.2736L118.134 63.247Z" fill="#010101"/>
</g>
<g id="Group_9">
<path id="Vector_12" d="M44.0544 50.1041C42.8078 48.6172 41.4286 47.2365 39.8107 46.2275C38.2193 45.2185 36.3892 44.475 34.5591 44.6609C34.1083 44.714 33.6574 44.7405 33.233 44.9264L32.5964 45.1388C32.3843 45.2185 32.1986 45.3512 31.9864 45.4574C31.1377 45.8292 30.4746 46.4133 29.9442 47.1302C28.9098 48.5641 28.5915 50.4758 28.7506 52.2814C29.0954 55.9722 31.2703 59.4505 34.4265 61.442C35.9914 62.4775 37.8215 63.0882 39.7046 63.3272C41.5877 63.6193 43.5504 63.4865 45.4601 63.1679C43.6035 63.752 41.6408 63.991 39.6515 63.8848C37.6888 63.752 35.6996 63.221 33.9491 62.1854C30.4216 60.194 27.9815 56.4236 27.5836 52.3611C27.4245 50.3431 27.7428 48.1658 29.0424 46.4399C29.6789 45.5902 30.5542 44.8998 31.509 44.5281C31.7477 44.4219 31.9599 44.2891 32.1986 44.2095L32.9412 43.9971C33.4452 43.8378 33.9491 43.8112 34.4796 43.7846C36.5749 43.6784 38.5111 44.6078 40.1024 45.7761C41.6673 46.9975 42.9934 48.4579 44.0278 50.1307L44.0544 50.1041Z" fill="#010101"/>
<path id="Vector_13" d="M31.3232 50.2104C32.6759 49.8918 34.0816 49.9183 35.4608 50.1573C36.84 50.3962 38.1927 50.9007 39.4127 51.5911C40.6328 52.308 41.7468 53.2108 42.622 54.326C43.5503 55.3881 44.1869 56.6626 44.6378 57.9371C43.736 56.875 42.9403 55.8395 41.9589 54.9367C41.0306 54.0074 39.9697 53.2373 38.8292 52.6001C36.6013 51.2725 34.0286 50.529 31.3232 50.2104Z" fill="#010101"/>
</g>
<g id="Group_10">
<path id="Vector_14" d="M68.9865 55.07C68.9865 56.6631 68.0051 57.9642 66.8116 57.9642C65.6181 57.9642 64.6367 56.6631 64.6367 55.07C64.6367 53.4768 65.6181 52.1758 66.8116 52.1758C68.0051 52.1758 68.9865 53.4768 68.9865 55.07Z" fill="#010101"/>
<path id="Vector_15" d="M94.7667 58.9466C95.9678 58.9466 96.9416 57.6508 96.9416 56.0524C96.9416 54.454 95.9678 53.1582 94.7667 53.1582C93.5655 53.1582 92.5918 54.454 92.5918 56.0524C92.5918 57.6508 93.5655 58.9466 94.7667 58.9466Z" fill="#010101"/>
<path id="Vector_16" d="M80.8954 53.9015C81.0545 55.4947 80.8158 57.1409 80.2588 58.6544C79.7284 60.1945 78.8796 61.6283 77.9779 62.9028C77.0761 64.1508 76.2539 65.4518 76.4926 66.806C76.7313 68.1602 77.8452 69.4612 79.4366 69.7533C77.8187 69.9392 76.0947 68.7443 75.6173 67.0184C75.3256 66.1422 75.4847 65.1863 75.803 64.3897C76.1213 63.5932 76.5987 62.9028 77.0496 62.239C78.8796 59.7431 80.3384 57.0347 80.9219 53.875L80.8954 53.9015Z" fill="#010101"/>
<path id="Vector_17" d="M69.835 68.4785C70.3124 69.7265 70.8694 70.9213 71.5855 72.0365C72.2751 73.1517 73.0973 74.1607 74.0521 75.0104C75.0069 75.86 76.0678 76.577 77.2614 76.9487C77.5531 77.0815 77.8449 77.1611 78.1632 77.2142C78.4814 77.2673 78.7732 77.3735 79.0915 77.4266C79.728 77.4532 80.338 77.586 80.9746 77.5063C83.4943 77.4532 85.8283 76.2052 87.6849 74.3997C88.6397 73.5234 89.4354 72.4879 90.1515 71.3727C90.8942 70.2841 91.5307 69.1158 92.1142 67.9209C91.4246 70.4965 90.1515 72.9658 88.3214 75.0104C87.3931 76.0194 86.3322 76.9487 85.0857 77.5859C83.8391 78.1967 82.4599 78.648 81.0276 78.648C78.2427 78.8074 75.3517 77.6656 73.4421 75.6476C71.5059 73.6562 70.3124 71.1072 69.835 68.4785Z" fill="#010101"/>
<g id="Group_11" opacity="0.4">
<path id="Vector_18" d="M107.1 67.0447C107.1 71.0541 103.864 74.2935 99.8589 74.2935C95.854 74.2935 92.6182 71.0541 92.6182 67.0447C92.6182 63.0353 95.854 59.7959 99.8589 59.7959C103.864 59.7959 107.1 63.0353 107.1 67.0447Z" fill="#FFF0DD"/>
</g>
<g id="Group_12" opacity="0.4">
<path id="Vector_19" d="M67.9522 67.0447C67.9522 71.0541 64.7164 74.2935 60.7115 74.2935C56.7065 74.2935 53.4707 71.0541 53.4707 67.0447C53.4707 63.0353 56.7065 59.7959 60.7115 59.7959C64.7164 59.7959 67.9522 63.0353 67.9522 67.0447Z" fill="#FFF0DD"/>
</g>
<path id="Vector_20" d="M58.3242 48.246L58.8282 47.5291C60.8704 44.7145 63.0188 43.2276 65.2202 43.0683C67.6072 42.8824 69.1191 44.4225 69.1721 44.4756L69.5169 44.8207L58.3242 48.246ZM65.5915 43.6524C65.5915 43.6524 65.3793 43.6524 65.2467 43.6524C63.4431 43.7852 61.6131 44.9535 59.8625 47.1574L68.3764 44.5552C67.8725 44.1835 66.8911 43.6259 65.5915 43.6259V43.6524Z" fill="#010101"/>
<path id="Vector_21" d="M99.4614 50.7156L90.8945 46.6531L91.1598 46.361C91.1598 46.361 92.6185 44.7944 94.5812 45.1131C96.3052 45.4051 97.8435 47.0514 99.1432 49.9987L99.4614 50.7156ZM91.8759 46.4672L98.2679 49.4942C97.1274 47.1842 95.8543 45.9096 94.4751 45.6707C93.3346 45.4848 92.3533 46.069 91.8759 46.4672Z" fill="#010101"/>
<g id="Group_13">
<path id="Vector_22" d="M61.6127 66.9122C54.0537 66.9122 47.9004 60.752 47.9004 53.1846C47.9004 45.6172 54.0537 39.457 61.6127 39.457C69.1718 39.457 75.3251 45.6172 75.3251 53.1846C75.3251 60.752 69.1718 66.9122 61.6127 66.9122ZM61.6127 40.6253C54.6903 40.6253 49.0674 46.2544 49.0674 53.1846C49.0674 60.1148 54.6903 65.7439 61.6127 65.7439C68.5352 65.7439 74.1581 60.1148 74.1581 53.1846C74.1581 46.2544 68.5352 40.6253 61.6127 40.6253Z" fill="#010101"/>
<path id="Vector_23" d="M98.3471 66.9122C90.7881 66.9122 84.6348 60.752 84.6348 53.1846C84.6348 45.6172 90.7881 39.457 98.3471 39.457C105.906 39.457 112.059 45.6172 112.059 53.1846C112.059 60.752 105.906 66.9122 98.3471 66.9122ZM98.3471 40.6253C91.4246 40.6253 85.8018 46.2544 85.8018 53.1846C85.8018 60.1148 91.4246 65.7439 98.3471 65.7439C105.27 65.7439 110.892 60.1148 110.892 53.1846C110.892 46.2544 105.27 40.6253 98.3471 40.6253Z" fill="#010101"/>
<path id="Vector_24" d="M48.3252 52.0691L44.002 49.6794L44.0285 48.3252L48.8556 51.0601L48.3252 52.0691Z" fill="#010101"/>
<path id="Vector_25" d="M84.8472 54.5118C80.7627 51.06 75.0867 54.379 75.0337 54.4056L74.4502 53.3966C74.7154 53.2373 80.8953 49.6262 85.6163 53.609L84.8737 54.5118H84.8472Z" fill="#010101"/>
<path id="Vector_26" d="M111.556 55.6536L111.396 54.4853L119.566 52.9453L119.247 54.4853L111.556 55.6536Z" fill="#010101"/>
</g>
</g>
</g>
<defs>
<clipPath id="clip0_2513_10185">
<rect width="155" height="192" fill="white"/>
</clipPath>
</defs>
</svg>
