<svg fill="none" height="46" viewBox="0 0 46 46" width="46" xmlns="http://www.w3.org/2000/svg"><path d="m23 46c12.7025 0 23-10.2975 23-23s-10.2975-23-23-23-23 10.2975-23 23 10.2975 23 23 23z" fill="#9bb8ff" opacity=".4"/><path d="m23.4753 28.7308 4.8752-1.7285c.2082-.0692.4295.0554.4942.2777.0352.1196.0176.2501-.0462.3548l-4.9085 7.5268c-.349.5238-1.0293.6473-1.5199.2747-.1-.0751-.187-.168-.2573-.2747l-4.9085-7.5268c-.1185-.1957-.0667-.4566.1157-.5831.0981-.0682.2203-.0859.3323-.0494l4.8752 1.7285c.3073.1127.6405.1127.9478 0zm6.0229-5.4938c.3101-.1117.4767-.4705.3721-.8015-.0111-.0356-.0259-.0702-.0426-.1028l-5.8785-11.3959c-.3018-.5594-.971-.7511-1.4939-.4289-.1667.1028-.3055.251-.4018.4289l-5.8785 11.3959c-.1574.3064-.0537.6908.2332.8588.0306.0178.063.0336.0963.0455l6.4969 2.3313z" fill="#396ce8"/></svg>