<svg width="15" height="15" viewBox="0 0 15 15" fill="none" xmlns="http://www.w3.org/2000/svg">
<path fill-rule="evenodd" clip-rule="evenodd" d="M7.25 13.1797C10.5242 13.1797 13.1797 10.5242 13.1797 7.25C13.1797 3.97578 10.5242 1.32031 7.25 1.32031C3.97578 1.32031 1.32031 3.97578 1.32031 7.25C1.32031 10.5242 3.97578 13.1797 7.25 13.1797ZM7.25 14.4688C11.2358 14.4688 14.4688 11.2358 14.4688 7.25C14.4688 3.26422 11.2358 0.03125 7.25 0.03125C3.26422 0.03125 0.03125 3.26422 0.03125 7.25C0.03125 11.2358 3.26422 14.4688 7.25 14.4688Z" fill="#FF664D"/>
<path fill-rule="evenodd" clip-rule="evenodd" d="M7.25 5.765C7.60578 5.765 7.89453 6.05375 7.89453 6.40953V10.5345C7.89453 10.8903 7.60578 11.1791 7.25 11.1791C6.89422 11.1791 6.60547 10.8903 6.60547 10.5345V6.40953C6.60547 6.05375 6.89422 5.765 7.25 5.765Z" fill="#FF664D"/>
<path d="M7.25 4.60484C7.60596 4.60484 7.89453 4.31628 7.89453 3.96031C7.89453 3.60435 7.60596 3.31578 7.25 3.31578C6.89404 3.31578 6.60547 3.60435 6.60547 3.96031C6.60547 4.31628 6.89404 4.60484 7.25 4.60484Z" fill="#FF664D"/>
</svg>
