<svg fill="none" height="22" viewBox="0 0 22 22" width="22" xmlns="http://www.w3.org/2000/svg"><g fill="#101010"><path d="m18.6396 12.4269c-.3683.3682-.962.3682-1.3303 0-.1803-.1803-.278-.4132-.278-.6686s.0977-.4883.278-.6686l1.5257-1.5251c1.706-1.70538 1.706-4.59025 0-6.29564l-.1127-.11269c-1.7061-1.70538-4.5921-1.69787-6.2981 0l-1.5257 1.53259c-.3682.36813-.96196.36813-1.33022 0-.18037-.1803-.27808-.41319-.27808-.66863 0-.24792.09771-.48832.27808-.66863l1.52562-1.52507c2.4351-2.434118 6.5386-2.434118 8.9661-.00752l.1128.11269c2.435 2.4266 2.435 6.52854.0075 8.9627l-1.5257 1.525z"/><path d="m10.8985 20.18c-2.42749 2.4266-6.531 2.4266-8.95854 0l-.11273-.1126c-2.435052-2.4266-2.435052-6.5286-.00752-8.9627l1.52567-1.52507c.36826-.36812.96199-.36812 1.33025 0 .36827.36812.36827.96167 0 1.32977l-1.52566 1.5251c-1.70604 1.7129-1.70604 4.5902 0 6.2956l.11273.1127c1.70604 1.7054 4.59203 1.6979 6.29807 0l1.52563-1.5326c.3683-.3681.962-.3681 1.3303 0 .1804.1803.2781.4132.2781.6686 0 .2479-.0977.4884-.2781.6687l-1.5332 1.5325z"/><path d="m17.8805 17.8736c-.3682.3682-.962.3682-1.3302 0l-12.44585-12.41093c-.18037-.1803-.27808-.4132-.27808-.66863 0-.24792.09771-.48832.27808-.66863.36826-.36812.96199-.36812 1.33026 0l12.44579 12.41099c.1804.1803.2781.4132.2781.6686 0 .2479-.0977.4883-.2781.6686z"/></g></svg>