<svg fill="none" height="22" viewBox="0 0 22 22" width="22" xmlns="http://www.w3.org/2000/svg"><g fill="#101010"><path d="m19.4219 22h-11.68752c-1.42175 0-2.57813-1.1564-2.57813-2.5781v-11.68752c0-1.42175 1.15638-2.57813 2.57813-2.57813h11.68752c1.4217 0 2.5781 1.15638 2.5781 2.57813v11.68752c0 1.4217-1.1564 2.5781-2.5781 2.5781zm-11.68752-15.125c-.47404 0-.85938.38534-.85938.85938v11.68752c0 .474.38534.8593.85938.8593h11.68752c.474 0 .8593-.3853.8593-.8593v-11.68752c0-.47404-.3853-.85938-.8593-.85938z"/><path d="m2.78884 16.8438h-.21072c-1.42174 0-2.57812-1.1564-2.57812-2.5782v-11.68748c0-1.42174 1.15638-2.57812 2.57812-2.57812h11.68748c1.4218 0 2.5782 1.15638 2.5782 2.57812v.21038c0 .47506-.3847.85972-.8594.85972s-.8594-.38466-.8594-.85938v-.21072c0-.47403-.3853-.85937-.8594-.85937h-11.68748c-.47403 0-.85937.38534-.85937.85937v11.68748c0 .4741.38534.8594.85937.8594h.21072c.47472 0 .85938.3847.85938.8594s-.38466.8594-.85938.8594z"/></g></svg>