<svg width="32" height="32" viewBox="0 0 32 32" fill="none" xmlns="http://www.w3.org/2000/svg">
<path d="M25.0286 17.686C24.5934 18.121 23.8917 18.121 23.4565 17.686C23.2433 17.4729 23.1278 17.1976 23.1278 16.8958C23.1278 16.5939 23.2433 16.3187 23.4565 16.1056L25.2595 14.3033C27.2758 12.2879 27.2758 8.8786 25.2595 6.86321L25.1263 6.73003C23.1101 4.71464 19.6994 4.72352 17.6832 6.73003L15.8801 8.54122C15.4449 8.97626 14.7432 8.97626 14.308 8.54122C14.0948 8.32814 13.9793 8.05291 13.9793 7.75105C13.9793 7.45806 14.0948 7.17395 14.308 6.96087L16.111 5.15856C18.9888 2.28196 23.8384 2.28196 26.7073 5.14968L26.8405 5.28286C29.7183 8.15057 29.7183 12.9982 26.8494 15.8748L25.0464 17.6771L25.0286 17.686Z" fill="#5B5B5B"/>
<path d="M15.8801 26.8484C13.0112 29.7162 8.16159 29.7162 5.29268 26.8484L5.15945 26.7153C2.28167 23.8476 2.28167 19 5.15057 16.1234L6.95363 14.321C7.38885 13.886 8.09053 13.886 8.52575 14.321C8.96097 14.7561 8.96097 15.4575 8.52575 15.8925L6.72269 17.6948C4.70647 19.7191 4.70647 23.1195 6.72269 25.1349L6.85592 25.2681C8.87215 27.2835 12.2829 27.2746 14.2991 25.2681L16.1021 23.4569C16.5374 23.0219 17.239 23.0219 17.6743 23.4569C17.8874 23.67 18.0029 23.9452 18.0029 24.2471C18.0029 24.5401 17.8874 24.8242 17.6743 25.0373L15.8623 26.8484H15.8801Z" fill="#5B5B5B"/>
<path d="M24.1315 24.1228C23.6963 24.5578 22.9946 24.5578 22.5594 24.1228L7.85071 9.45569C7.63754 9.24261 7.52208 8.96738 7.52208 8.66552C7.52208 8.37253 7.63754 8.08842 7.85071 7.87534C8.28593 7.4403 8.98762 7.4403 9.42284 7.87534L24.1315 22.5424C24.3447 22.7555 24.4602 23.0307 24.4602 23.3326C24.4602 23.6256 24.3447 23.9097 24.1315 24.1228Z" fill="#5B5B5B"/>
</svg>
