<svg width="25" height="24" viewBox="0 0 25 24" fill="none" xmlns="http://www.w3.org/2000/svg">
<path d="M5.00011 11.4129C5.00011 10.8589 5.45515 10.4039 6.00811 10.4039H7.70827C8.26219 10.4039 8.73643 10.8589 8.73643 11.433V17.8449C8.93419 17.7853 9.17131 17.7258 9.44875 17.6663C9.82411 17.5674 10.1016 17.2314 10.1016 16.8349V8.87942C10.1016 8.3255 10.5566 7.8503 11.1297 7.8503H12.8299C13.3838 7.8503 13.858 8.30534 13.858 8.87942V16.2618C13.858 16.2618 14.2737 16.0833 14.6884 15.9057C15.0052 15.7674 15.203 15.4708 15.203 15.1137V6.30758C15.203 5.75366 15.658 5.27846 16.212 5.27846H17.9121C18.466 5.27846 18.9211 5.7335 18.9211 6.30758V13.5709C20.3841 12.5025 21.8875 11.2161 23.074 9.67238C23.4302 9.21734 23.5291 8.6231 23.3313 8.06918C21.156 1.81574 14.315 -1.5097 8.06635 0.667583C1.81771 2.84486 -1.50389 9.69158 0.670513 15.946C0.907633 16.6583 1.22443 17.3313 1.59979 17.9841C1.89643 18.4986 2.45035 18.7953 3.04363 18.7357C3.36043 18.7156 3.75595 18.6762 4.24939 18.6167C4.68427 18.5773 5.00107 18.201 5.00107 17.7652L5.00011 11.4129Z" fill="#101010"/>
<path d="M4.96094 21.7038C10.3197 25.6023 17.8144 24.4148 21.7091 19.0522C23.1923 16.994 24.0025 14.5201 24.0025 11.9876C24.0025 11.7102 23.9824 11.4337 23.9632 11.1562C19.5942 17.7063 11.5062 20.7735 4.96094 21.7038Z" fill="#101010"/>
</svg>
