<svg fill="none" height="46" viewBox="0 0 46 46" width="46" xmlns="http://www.w3.org/2000/svg" xmlns:xlink="http://www.w3.org/1999/xlink"><clipPath id="a"><rect height="46" rx="23" width="46"/></clipPath><g clip-path="url(#a)"><rect fill="#f0f0f0" height="46" rx="23" width="46"/><path d="m23 46c12.7025 0 23-10.2975 23-23s-10.2975-23-23-23-23 10.2975-23 23 10.2975 23 23 23z" fill="#f0f0f0"/><path d="m32.9661 27.5361v-13.9321c-.0186-1.1657-.9252-2.104-2.0632-2.104h-14.1921c-3.0623.0474-5.5233 2.6158-5.5233 5.7624 0 1.0615.2776 1.9713.7031 2.7674.3608.6635.9252 1.289 1.4803 1.7534.1573.1327.0833.0758.5644.3791.6661.417 1.4247.6255 1.4247.6255l-.0092 8.3308c.0185.3981.0555.7772.1573 1.1278.3145 1.1753 1.1102 2.0756 2.1926 2.5116.4533.1801.9622.3033 1.508.3128l11.3334.0379c2.2574 0 4.0893-1.8766 4.0893-4.1986.0092-1.3742-.6569-2.6063-1.6653-3.374z" fill="#f0f0f0"/><path d="m33.2429 31.0129c-.0463 1.488-1.2397 2.6822-2.7015 2.6822l-7.7992-.0285c.6199-.7392.9992-1.6965.9992-2.739 0-1.6396-.953-2.7674-.953-2.7674h7.7622c1.4896 0 2.7015 1.2415 2.7015 2.7674z" fill="#c9c9c9"/><g fill="#afafaf"><path d="m14.111 20.6122c-.8974-.872-1.5265-1.9998-1.5265-3.3362v-.1421c.074-2.2841 1.9059-4.1228 4.1355-4.1891h14.1922c.37.0189.6661.2843.6661.6729v12.3019c.3238.0569.4811.1043.7956.218.2498.0948.5922.2938.5922.2938v-12.8137c-.0186-1.1657-.9252-2.104-2.0632-2.104h-14.1921c-3.0623.0474-5.5233 2.6158-5.5233 5.7623 0 1.8292.8142 3.393 2.1464 4.4924.0925.0758.1758.1706.4163.1706.4164 0 .7124-.3412.6939-.7108-.0092-.3128-.1388-.4265-.3331-.616z"/><path d="m30.5445 26.7274h-11.1298c-.7494.0095-1.3507.6255-1.3507 1.3932v1.6396c.0185.7583.6476 1.4027 1.397 1.4027h.8234v-1.4027h-.8234v-1.6017h.4533c1.4063 0 2.4425 1.3364 2.4425 2.7675 0 1.27-1.1287 2.8907-3.0161 2.758-1.6746-.1138-2.5812-1.6397-2.5812-2.758v-13.8942c0-.6255-.4996-1.1373-1.1102-1.1373h-1.1102v1.4217h.8234v13.6193c-.0463 2.7674 1.9243 4.1606 3.9782 4.1606l11.2131.0379c2.2574 0 4.0893-1.8765 4.0893-4.1985s-1.8411-4.2081-4.0986-4.2081zm2.7015 4.2934c-.0462 1.488-1.2397 2.6821-2.7015 2.6821l-7.7992-.0284c.6199-.7393.9992-1.6965.9992-2.739 0-1.6397-.9529-2.7675-.9529-2.7675h7.7622c1.4895 0 2.7015 1.2416 2.7015 2.7675z"/><path d="m27.5476 17.5681h-8.3914v-1.4216h8.3914c.3793 0 .6938.3127.6938.7108 0 .3886-.3053.7108-.6938.7108z"/><path d="m27.5476 24.2615h-8.3914v-1.4217h8.3914c.3793 0 .6938.3128.6938.7109 0 .3885-.3053.7108-.6938.7108z"/><path d="m29.0278 20.9158h-9.8716v-1.4217h9.8624c.3793 0 .6939.3128.6939.7109.0092.3885-.3053.7108-.6847.7108z"/></g></g></svg>