<svg width="35" height="29" viewBox="0 0 35 29" fill="none" xmlns="http://www.w3.org/2000/svg">
<path d="M9.31 28.41C4.09 28.41 0 22.17 0 14.21C0 6.25002 4.09 0.0200195 9.31 0.0200195C14.53 0.0200195 18.62 6.25002 18.62 14.21C18.62 22.17 14.53 28.4 9.31 28.4V28.41ZM9.31 2.36002C5.53 2.36002 2.34 7.79002 2.34 14.21C2.34 20.63 5.53 26.06 9.31 26.06C12.48 26.06 15.32 22.21 16.08 16.9C15.47 17.22 14.84 17.41 14.19 17.41C13.54 17.41 12.91 17.22 12.38 16.85C11.67 16.37 11.2 15.64 11.04 14.79C10.88 13.95 11.06 13.1 11.55 12.39C12.15 11.52 13.14 11 14.2 11C14.85 11 15.47 11.19 16.01 11.56C15.33 6.20002 12.48 2.35002 9.32 2.35002L9.31 2.36002Z" fill="black"/>
<path d="M25.5898 28.41C23.2098 28.32 21.0498 27.17 19.6598 25.29L18.8498 24.24C18.4398 23.7 18.5398 22.93 19.0698 22.51C19.6098 22.1 20.3798 22.2 20.7998 22.73C21.6998 24.58 23.5298 25.86 25.5898 26.06C28.7598 26.06 31.6098 22.21 32.3698 16.9C31.7598 17.22 31.1298 17.41 30.4798 17.41C29.0898 17.41 27.8898 16.54 27.4198 15.2C27.0998 14.29 27.2298 13.27 27.7598 12.48C28.3798 11.54 29.3698 11 30.4698 11C31.1198 11 31.7498 11.19 32.2798 11.56C31.5998 6.2 28.7498 2.35 25.5898 2.35C23.5298 2.56 21.6998 3.83 20.7998 5.68C20.3898 6.22 19.6098 6.32 19.0698 5.9C18.5298 5.49 18.4298 4.71 18.8498 4.17L19.6598 3.12C21.0498 1.24 23.2098 0.08 25.5898 0C30.8098 0 34.8998 6.23 34.8998 14.19C34.8998 22.15 30.8098 28.38 25.5898 28.38V28.41Z" fill="black"/>
</svg>
