<svg fill="none" height="27" viewBox="0 0 33 27" width="33" xmlns="http://www.w3.org/2000/svg"><g fill="#101010"><path clip-rule="evenodd" d="m14.9206 22.5737c-1.5274 2.3276-3.653 3.7878-6.05743 3.8462v.011h-.15c-2.46613 0-4.64848-1.4746-6.2075-3.8526-1.559273-2.3785-2.50567-5.6735-2.50567-9.3583 0-3.68478.946399-6.97749 2.5057-9.35368 1.55908-2.37585 3.74144-3.8480095 6.20747-3.8480095s4.64843 1.4721595 6.20743 3.8480095c1.5593 2.37619 2.5057 5.6689 2.5057 9.35368 0 3.6848-.9464 6.9775-2.5057 9.3537zm-6.1453-20.1031.00865-.00864c1.36655.02462 2.68505.86772 3.74935 2.32476 1.0329 1.41401 1.8141 3.39184 2.1511 5.70308-.453-.2463-.9536-.3723-1.4735-.3723-1.0242 0-1.981.5025-2.5609 1.3434-.4733.6857-.6476 1.5081-.493 2.3203.1543.8196.6083 1.5261 1.295 1.9907.5135.3582 1.1229.5414 1.7497.5414.5338 0 1.05-.1327 1.5472-.3585-.3684 2.3023-1.1668 4.2799-2.2117 5.6944-1.0885 1.4737-2.4308 2.3202-3.82403 2.3202-1.66175 0-3.22424-1.1957-4.37993-3.1613-1.1528-1.9607-1.88095-4.6586-1.88095-7.5881s.72815-5.62736 1.88095-7.58804c1.15569-1.96558 2.71818-3.16136 4.37993-3.16136z" fill-rule="evenodd"/><path d="m29.8945 3.84801c-1.5591-2.37585-3.7414-3.84801-6.2074-3.84801l-.0051.00008467c-2.2349.07512413-4.2636 1.16442533-5.569 2.92921533l-.7439.96434c-.4366.56162-.3337 1.37375.2296 1.80202.5618.43637 1.374.33314 1.8021-.23059l.0089-.01179.0065-.0133c.8037-1.65209 2.4379-2.78819 4.2784-2.97848 1.3858.00308 2.7251.84909 3.8034 2.3253 1.0326 1.41363 1.8137 3.39074 2.1508 5.7011-.4497-.2453-.9555-.3703-1.4732-.3703-1.0633 0-2.0202.5229-2.6175 1.4282-.5137.7661-.6392 1.7534-.3294 2.6345.4526 1.2905 1.6116 2.1331 2.9561 2.1331.5338 0 1.05-.1328 1.5472-.3585-.3686 2.3022-1.1691 4.2797-2.2162 5.6943-1.0889 1.4711-2.4308 2.3174-3.8215 2.3203-1.8396-.1812-3.4741-1.3258-4.2781-2.9785l-.0072-.0147-.0101-.0128c-.4368-.5511-1.2375-.6555-1.7996-.2287l-.0024.0019c-.5511.4367-.6554 1.2374-.2286 1.7995l.0007.0009.744.9646c1.3057 1.7652 3.3343 2.8447 5.5684 2.9292l.1557.0059v-.0352c2.4044-.0584 4.53-1.5186 6.0574-3.8462 1.5593-2.3762 2.5057-5.6689 2.5057-9.3537 0-3.68479-.9464-6.9775-2.5057-9.35369z"/></g></svg>