<svg width="65" height="95" viewBox="0 0 65 95" fill="none" xmlns="http://www.w3.org/2000/svg">
<g id="Layer_1" clip-path="url(#clip0_6207_3209)">
<path id="Vector" d="M60.9819 95C60.0319 95 59.1224 94.616 58.4554 93.949C57.7883 93.2819 57.4043 92.3522 57.4043 91.4022V80.8915C57.4043 79.9415 57.0202 79.0117 56.3532 78.3447C55.6862 77.6777 54.7766 77.2937 53.8064 77.2937C52.8362 77.2937 51.9468 77.6777 51.2798 78.3447C50.6128 79.0117 50.2288 79.9415 50.2288 80.8915V85.8841C50.2288 86.8341 49.8447 87.7639 49.1777 88.4309C48.5107 89.0979 47.6011 89.4819 46.6511 89.4819C45.7011 89.4819 44.7915 89.0979 44.1245 88.4309C43.4575 87.7639 43.0734 86.8341 43.0734 85.8841V80.8915C43.0734 79.9415 42.6894 79.0117 42.0224 78.3447C41.3554 77.6777 40.4458 77.2937 39.4756 77.2937C38.5054 77.2937 37.616 77.6777 36.949 78.3447C36.2819 79.0117 35.8979 79.9415 35.8979 80.8915V82.2458C35.8979 83.1958 35.5139 84.1256 34.8468 84.7926C34.1798 85.4798 33.2702 85.8437 32.3 85.8437C31.3298 85.8437 30.4405 85.4596 29.7532 84.7926C29.0862 84.1054 28.7022 83.1958 28.7022 82.2458V80.8915C28.7022 79.9415 28.3181 79.0117 27.6511 78.3447C26.9841 77.6777 26.0745 77.2937 25.1245 77.2937C24.1745 77.2937 23.2649 77.6777 22.5777 78.3447C21.9107 79.0117 21.5266 79.9415 21.5266 80.8915V85.8841C21.5266 86.8341 21.1426 87.7639 20.4756 88.4309C19.8085 89.0979 18.899 89.4819 17.949 89.4819C16.999 89.4819 16.0894 89.0979 15.4224 88.4309C14.7554 87.7639 14.3713 86.8341 14.3713 85.8841V80.8915C14.3713 79.9415 13.9873 79.0117 13.3202 78.3447C12.6532 77.6777 11.7436 77.2937 10.7936 77.2937C9.84365 77.2937 8.93407 77.6777 8.26705 78.3447C7.60003 79.0117 7.21599 79.9415 7.21599 80.8915V91.4022C7.21599 92.3522 6.83195 93.2819 6.16492 93.949C5.4979 94.616 4.58833 95 3.63833 95C2.68833 95 1.77875 94.616 1.11173 93.949C0.444712 93.2819 0.0606689 92.3522 0.0606689 91.4022V31.7947C0.242584 24.3968 2.91067 17.2819 7.64046 11.6224C12.3096 5.94258 18.8181 2.08194 26.0341 0.626623C33.25 -0.808483 40.7288 0.242581 47.2575 3.65854C53.7862 7.0745 58.9607 12.6128 61.9319 19.3841C63.65 23.3053 64.6 27.5096 64.6809 31.7947C64.6809 31.8351 64.6809 31.8756 64.6809 31.916C64.6809 31.9564 64.6405 31.9968 64.6 32.0171V91.382C64.6 92.3319 64.216 93.2617 63.549 93.9288C62.882 94.616 61.9724 94.9798 61.0224 95H60.9819ZM28.6415 41.2543C27.7319 41.2543 27.3681 41.6181 27.3681 42.4873C27.3681 44.6096 29.7128 46.3479 32.583 46.3479C35.4532 46.3479 37.7979 44.6096 37.7979 42.4873C37.7979 41.6181 37.4341 41.2543 36.5245 41.2543C36.0394 41.2543 35.5543 41.3149 35.0692 41.3958H35.0288C34.2202 41.5373 33.4117 41.6181 32.583 41.6181C31.7543 41.6181 30.9458 41.5373 30.1373 41.3958C29.6522 41.3149 29.1468 41.2543 28.6415 41.2341V41.2543ZM44.266 23.7096C41.0926 23.7096 38.5053 26.6809 38.5053 30.3394C38.5053 33.9979 41.0926 36.9692 44.266 36.9692C47.4394 36.9692 50.0064 33.9979 50.0064 30.3394C50.0064 26.6809 47.4192 23.7096 44.266 23.7096ZM20.3947 23.7096C17.2213 23.7096 14.6543 26.6809 14.6543 30.3394C14.6543 33.9979 17.2415 36.9692 20.3947 36.9692C23.5479 36.9692 26.1351 33.9979 26.1351 30.3394C26.1351 26.6809 23.5479 23.7096 20.3947 23.7096Z" fill="white"/>
</g>
<defs>
<clipPath id="clip0_6207_3209">
<rect width="64.6809" height="95" fill="white"/>
</clipPath>
</defs>
</svg>
