<svg width="50" height="42" viewBox="0 0 50 42" fill="none" xmlns="http://www.w3.org/2000/svg">
<g id="Layer_1" clip-path="url(#clip0_2513_9465)">
<g id="Group">
<g id="Group_2">
<g id="Group_3">
<g id="Group_4" opacity="0.4">
<path id="Vector" d="M19.6313 40.5643V63.2763L18.168 63.2503V41.1105C18.6528 40.9111 19.1377 40.729 19.6313 40.5557V40.5643Z" fill="#E992A2"/>
</g>
<g id="Group_5" opacity="0.4">
<path id="Vector_2" d="M36.0014 42.0035V63.1117L34.5381 63.0857V41.4141C35.0406 41.5961 35.5342 41.7868 36.0014 42.0035Z" fill="#E992A2"/>
</g>
</g>
<path id="Vector_3" d="M-1.42898 63.6665H-1.66699L-1.6141 63.4325C-1.53476 63.0597 -1.21741 62.2882 -0.935319 61.6034C-0.803089 61.274 -0.679675 60.9879 -0.617967 60.8145C-0.520999 60.5285 -0.406399 60.2424 -0.300615 59.9563C-0.00970948 59.1935 0.254751 58.5347 0.519211 57.9279C0.977608 56.8703 1.45364 55.856 1.93848 54.9285C2.25583 54.339 2.54674 53.8189 2.82883 53.3421C3.00513 53.0474 3.20789 52.7093 3.41946 52.3799C3.74562 51.8685 4.10705 51.3483 4.49493 50.8195C4.90043 50.2734 5.32357 49.7533 5.7467 49.2679C6.24918 48.6871 6.73402 48.1756 7.22768 47.7075C7.37754 47.5601 7.5274 47.4214 7.68608 47.2741C8.07395 46.91 8.47946 46.5632 8.89378 46.2251C9.25521 45.9217 9.58137 45.6704 9.8811 45.4536C10.3395 45.1069 10.8243 44.7601 11.3533 44.4047C12.1907 43.8413 13.0811 43.3038 13.9979 42.8097C14.518 42.5323 15.0028 42.2896 15.47 42.0642C16.3075 41.6568 17.1978 41.2753 18.1146 40.9199C18.573 40.7379 19.049 40.5558 19.5868 40.3738L19.8512 40.2871L19.9747 40.6512L19.7102 40.7379C19.1813 40.9199 18.7052 41.0933 18.2557 41.2753C17.3477 41.6221 16.4661 42.0035 15.6375 42.4023C15.1703 42.6277 14.6943 42.8704 14.1742 43.1478C13.275 43.6332 12.3935 44.162 11.5648 44.7255C11.0359 45.0722 10.5599 45.4103 10.1103 45.757C9.81057 45.9738 9.49322 46.2251 9.14061 46.5199C8.7351 46.858 8.33841 47.196 7.96817 47.5341C7.80068 47.6902 7.65082 47.8289 7.50095 47.9762C7.01611 48.4443 6.54008 48.9471 6.04642 49.5192C5.62329 49.996 5.20897 50.5161 4.81228 51.0449C4.43322 51.5651 4.07179 52.0765 3.75444 52.588C3.54287 52.9087 3.34012 53.2381 3.17263 53.5328C2.89054 54.0009 2.60844 54.5124 2.29109 55.1019C1.80625 56.0208 1.33904 57.0176 0.880639 58.0666C0.624995 58.6647 0.360535 59.3235 0.0696286 60.069C-0.0449708 60.3638 -0.150755 60.6412 -0.247723 60.9272C-0.309431 61.1093 -0.432845 61.404 -0.565075 61.7421C-0.776643 62.2622 -1.03229 62.8777 -1.1557 63.2764C-0.794274 63.2764 -0.124309 63.2764 0.757225 63.2764C6.4343 63.2591 21.5085 63.2244 24.9994 63.2764C24.9994 63.2764 25.4754 63.2764 26.2424 63.2678C44.446 63.1377 48.6245 63.1204 49.6206 63.1637C49.6118 62.817 49.5677 62.0108 49.4179 60.9012C49.2768 59.9043 49.0917 58.9681 48.8625 58.0406C48.6421 57.139 48.3953 56.3155 48.1132 55.5266C47.884 54.8765 47.6195 54.2003 47.311 53.5155C47.1082 53.0647 46.8879 52.614 46.6587 52.1719C46.4647 51.7904 46.2532 51.409 46.024 51.0276C45.4333 50.0394 44.7722 49.0945 44.0581 48.2363C43.5909 47.6641 43.1149 47.144 42.6036 46.6499C42.5507 46.5979 42.5066 46.5459 42.4626 46.5025C41.7045 45.7657 40.8758 45.0722 40.0031 44.4567C39.5447 44.1273 39.0598 43.8066 38.5486 43.5032C37.7199 43.0004 36.8384 42.5496 35.948 42.1682C35.5073 41.9688 35.0312 41.7781 34.4935 41.5874C33.6384 41.2753 32.7569 41.0066 31.8842 40.7899C31.7079 40.7379 31.5404 40.6945 31.3729 40.6599L31.3993 40.4692L31.461 40.2871C31.6373 40.3305 31.8048 40.3738 31.9811 40.4258C32.8627 40.6425 33.753 40.9113 34.6169 41.232C35.1635 41.4314 35.6483 41.6308 36.0979 41.8301C37.0059 42.2202 37.8962 42.6797 38.7425 43.1911C39.2626 43.5032 39.7563 43.8239 40.2235 44.162C41.105 44.7862 41.9513 45.4883 42.727 46.2425C42.7799 46.2945 42.8328 46.3465 42.8769 46.3985C43.3882 46.8926 43.873 47.4214 44.3491 48.0022C45.0807 48.8778 45.7507 49.8313 46.3501 50.8369C46.5793 51.227 46.7997 51.6171 46.9937 51.9985C47.2317 52.4406 47.452 52.9 47.6636 53.3595C47.9722 54.053 48.2454 54.7378 48.4746 55.3966C48.7655 56.2028 49.0124 57.035 49.2327 57.9452C49.4708 58.8901 49.6559 59.835 49.7969 60.8405C49.9997 62.3576 50.0085 63.3024 50.0085 63.3371H49.8146L49.7793 63.5278C49.5501 63.5018 45.2835 63.5018 26.2335 63.6492C25.449 63.6492 24.9818 63.6579 24.9818 63.6579C21.4909 63.5972 6.41667 63.6405 0.739594 63.6579C-0.42403 63.6579 -1.20859 63.6579 -1.42898 63.6579V63.6665Z" fill="#010101"/>
</g>
<g id="Group_6">
<path id="Vector_4" d="M13.0986 16.8817C13.0986 16.8817 17.0479 15.2 17.4005 10.883C17.7531 6.56601 13.319 9.74741 13.319 9.74741L13.0986 16.8817Z" fill="#101010"/>
<g id="Group_7">
<path id="Vector_5" d="M20.2041 37.4001C20.2041 37.4001 29.2398 38.3797 30.5798 32.8491V31.9649C30.5798 31.9649 24.5412 33.4819 20.7683 31.7568L20.2041 37.3915V37.4001Z" fill="#010101"/>
<path id="Vector_6" d="M25.9252 44.0754C25.1583 44.0754 24.4001 43.9888 23.6773 43.8067C23.1395 43.6767 22.6371 43.4946 22.1787 43.2866C20.5214 42.5411 19.6575 41.5355 19.6222 41.5008L19.5693 41.4402V41.3621L20.4068 31.5059L20.7947 31.5405L19.9748 41.3188C20.1776 41.5355 20.9886 42.3417 22.3462 42.9485C22.7869 43.1479 23.2718 43.3213 23.7831 43.4426C24.6117 43.642 25.4756 43.7287 26.3571 43.694C26.8067 43.6767 27.2916 43.616 27.794 43.5293C28.6491 43.3646 29.5218 43.1045 30.3769 42.7405C30.7207 42.6018 31.0733 42.4284 31.47 42.229L30.28 31.8006L30.6678 31.7573L31.8932 42.4457L31.7786 42.5064C31.329 42.7405 30.9235 42.9312 30.5356 43.0872C29.6541 43.46 28.7549 43.7287 27.8734 43.9021C27.3533 43.9974 26.8508 44.0581 26.3748 44.0754C26.2337 44.0754 26.0839 44.0841 25.9428 44.0841L25.9252 44.0754Z" fill="#010101"/>
</g>
<path id="Vector_7" d="M38.1168 19.014C37.9493 21.0598 37.5526 23.0883 36.8297 25.03C36.0893 26.9458 34.9962 28.7836 33.4006 30.1706C31.8314 31.5835 29.7598 32.3811 27.6706 32.6238C25.5726 32.8492 23.4304 32.7018 21.4117 32.0343C19.4018 31.3582 17.6123 30.0752 16.3429 28.4108C15.0559 26.7551 14.236 24.796 13.7424 22.7935C13.2487 20.7911 13.0372 18.7279 13.0195 16.6734C13.0195 15.6419 13.0812 14.619 13.1429 13.5961L13.3281 10.5273L13.2399 13.6047C13.2047 14.6276 13.1694 15.6505 13.2047 16.6734C13.2575 18.7192 13.5044 20.7564 14.0245 22.7242C14.5534 24.6833 15.3644 26.5991 16.625 28.2028C17.868 29.8065 19.5958 31.0374 21.544 31.6789C23.4833 32.3291 25.5902 32.4938 27.6354 32.2857C29.6717 32.0603 31.6551 31.2801 33.2155 29.9538C34.7846 28.6449 35.9041 26.8591 36.6623 24.9694C37.438 23.0796 37.8788 21.0598 38.1256 19.0226L38.1168 19.014Z" fill="#010101"/>
<g id="Group_8">
<path id="Vector_8" d="M20.6887 19.777C21.0879 19.777 21.4115 19.3539 21.4115 18.8321C21.4115 18.3102 21.0879 17.8872 20.6887 17.8872C20.2895 17.8872 19.9658 18.3102 19.9658 18.8321C19.9658 19.3539 20.2895 19.777 20.6887 19.777Z" fill="#010101"/>
<path id="Vector_9" d="M29.9807 20.1066C30.3799 20.1066 30.7035 19.6835 30.7035 19.1617C30.7035 18.6398 30.3799 18.2168 29.9807 18.2168C29.5814 18.2168 29.2578 18.6398 29.2578 19.1617C29.2578 19.6835 29.5814 20.1066 29.9807 20.1066Z" fill="#010101"/>
<path id="Vector_10" d="M25.3697 18.4594C25.4226 18.9795 25.3433 19.5169 25.1581 20.011C24.9818 20.5138 24.6997 20.9819 24.4 21.398C24.1003 21.8055 23.827 22.2302 23.9064 22.6723C23.9857 23.1144 24.3559 23.5392 24.8849 23.6346C24.3471 23.6952 23.7741 23.3051 23.6155 22.7417C23.5185 22.4556 23.5714 22.1435 23.6772 21.8835C23.7829 21.6234 23.9416 21.398 24.0915 21.1813C24.6997 20.3665 25.1846 19.4823 25.3785 18.4507L25.3697 18.4594Z" fill="#010101"/>
<path id="Vector_11" d="M21.6943 23.2182C21.853 23.6256 22.0381 24.0157 22.2761 24.3798C22.5053 24.7439 22.7786 25.0733 23.096 25.3507C23.4133 25.6281 23.7659 25.8621 24.1626 25.9835C24.2596 26.0268 24.3566 26.0528 24.4623 26.0702C24.5681 26.0875 24.6651 26.1222 24.7709 26.1395C24.9825 26.1482 25.1852 26.1915 25.3968 26.1655C26.2342 26.1482 27.01 25.7408 27.6271 25.1513C27.9444 24.8652 28.2089 24.5271 28.4469 24.1631C28.6937 23.8076 28.9053 23.4262 29.0992 23.0361C28.87 23.877 28.4469 24.6832 27.8386 25.3507C27.5301 25.6801 27.1775 25.9835 26.7632 26.1915C26.3488 26.3909 25.8904 26.5383 25.4144 26.5383C24.4888 26.5903 23.5279 26.2175 22.8932 25.5587C22.2497 24.9086 21.853 24.0764 21.6943 23.2182Z" fill="#010101"/>
<g id="Group_9" opacity="0.4">
<path id="Vector_12" d="M34.071 22.742C34.071 24.051 32.9955 25.1086 31.6644 25.1086C30.3333 25.1086 29.2578 24.051 29.2578 22.742C29.2578 21.4331 30.3333 20.3755 31.6644 20.3755C32.9955 20.3755 34.071 21.4331 34.071 22.742Z" fill="#E992A2"/>
</g>
<g id="Group_10" opacity="0.4">
<path id="Vector_13" d="M21.0681 22.742C21.0681 24.051 19.9926 25.1086 18.6615 25.1086C17.3304 25.1086 16.2549 24.051 16.2549 22.742C16.2549 21.4331 17.3304 20.3755 18.6615 20.3755C19.9926 20.3755 21.0681 21.4331 21.0681 22.742Z" fill="#E992A2"/>
</g>
<path id="Vector_14" d="M17.8682 16.6044L18.0357 16.3703C18.7144 15.4514 19.4285 14.966 20.1602 14.914C20.9535 14.862 21.456 15.3561 21.4825 15.3734L21.597 15.4861L17.877 16.6044H17.8682ZM20.2836 15.1047C20.2836 15.1047 20.213 15.1047 20.169 15.1047C19.5695 15.148 18.9613 15.5295 18.3795 16.249L21.2092 15.3994C21.0417 15.2781 20.7155 15.096 20.2836 15.096V15.1047Z" fill="#010101"/>
<path id="Vector_15" d="M31.5407 17.4104L28.6934 16.0841L28.7815 15.9888C28.7815 15.9888 29.2752 15.4773 29.9187 15.5813C30.4917 15.6767 31.003 16.2142 31.4349 17.1764L31.5407 17.4104ZM29.0195 16.0234L31.144 17.0117C30.765 16.2575 30.3418 15.8414 29.8834 15.7634C29.5044 15.7027 29.1782 15.8934 29.0195 16.0234Z" fill="#010101"/>
</g>
<g id="Group_11">
<path id="Vector_16" d="M38.0993 19.1529C38.4343 18.6068 38.8663 18.13 39.3864 17.7313C39.9065 17.3498 40.5588 17.0724 41.2552 17.1158C41.599 17.1331 41.934 17.2285 42.2337 17.3845C42.5334 17.5319 42.8332 17.7573 43.0271 18.0347C43.4414 18.6068 43.5384 19.3176 43.4767 19.9678C43.3268 21.2854 42.5158 22.5077 41.3434 23.1405C40.7616 23.4699 40.1092 23.6346 39.4569 23.6866C38.8046 23.7213 38.1522 23.6346 37.5352 23.4526C38.1699 23.5566 38.8134 23.6 39.4393 23.5046C40.0652 23.4266 40.6734 23.2272 41.1935 22.8978C42.2425 22.2476 42.9654 21.1294 43.0888 19.9331C43.1505 19.3436 43.0624 18.7195 42.7274 18.2427C42.5599 18 42.3395 17.818 42.0751 17.6793C41.8106 17.5406 41.5197 17.4365 41.2288 17.4105C40.6293 17.3412 40.0123 17.5492 39.4922 17.8873C38.9632 18.2167 38.496 18.6675 38.0993 19.1616V19.1529Z" fill="#010101"/>
<path id="Vector_17" d="M37.7471 21.5108C37.9234 21.1294 38.179 20.7827 38.4611 20.4706C38.752 20.1585 39.087 19.8898 39.4484 19.6557C39.8187 19.4304 40.2242 19.2657 40.6473 19.1703C41.0705 19.0663 41.52 19.0836 41.9344 19.1703C41.5112 19.2483 41.1145 19.3177 40.7355 19.4564C40.3564 19.6037 39.995 19.7684 39.66 19.9852C38.9724 20.4099 38.3641 20.9387 37.7559 21.5195L37.7471 21.5108Z" fill="#010101"/>
</g>
<g id="Group_12">
<path id="Vector_18" d="M13.1255 17.2197C12.7112 16.7342 12.2528 16.2834 11.7151 15.954C11.1862 15.6246 10.5779 15.3819 9.96964 15.4426C9.81978 15.4599 9.66992 15.4686 9.52887 15.5293L9.31731 15.5986C9.24678 15.6246 9.18507 15.668 9.11455 15.7026C8.83246 15.824 8.61208 16.0147 8.43577 16.2488C8.09197 16.7169 7.98619 17.341 8.03908 17.9305C8.15368 19.1354 8.87654 20.271 9.92556 20.9212C10.4457 21.2593 11.0539 21.4586 11.6798 21.5367C12.3057 21.632 12.958 21.5887 13.5927 21.4846C12.9757 21.6754 12.3233 21.7534 11.6622 21.7187C11.0098 21.6754 10.3487 21.502 9.76689 21.1639C8.59445 20.5138 7.78344 19.2828 7.65121 17.9565C7.59831 17.2977 7.7041 16.5868 8.13605 16.0234C8.34762 15.746 8.63852 15.5206 8.95588 15.3992C9.03521 15.3646 9.10574 15.3212 9.18508 15.2952L9.4319 15.2259C9.5994 15.1738 9.76689 15.1652 9.94319 15.1565C10.6396 15.1218 11.2831 15.4252 11.812 15.8067C12.3321 16.2054 12.7729 16.6822 13.1167 17.2283L13.1255 17.2197Z" fill="#010101"/>
<path id="Vector_19" d="M8.89453 17.2542C9.34411 17.1502 9.81133 17.1589 10.2697 17.2369C10.7281 17.3149 11.1777 17.4796 11.5832 17.705C11.9887 17.939 12.359 18.2338 12.6499 18.5979C12.9584 18.9446 13.17 19.3607 13.3198 19.7768C13.0201 19.4301 12.7556 19.092 12.4295 18.7972C12.1209 18.4938 11.7683 18.2424 11.3893 18.0344C10.6488 17.601 9.7937 17.3582 8.89453 17.2542Z" fill="#010101"/>
</g>
<path id="Vector_20" d="M39.2806 17.9304C39.2806 17.9304 43.3093 8.61162 37.7732 6.46179C37.7732 6.46179 35.3314 0.662449 30.6592 0.411058C14.968 -0.455809 13.725 7.32866 13.3019 4.50267C13.2225 3.95655 13.152 3.28039 12.8258 2.81228C12.5702 2.4482 11.9443 2.48287 11.5829 2.64758C11.1333 2.83829 10.8776 3.35841 10.7895 3.80918C10.6308 4.65004 10.7454 5.56025 10.957 6.38377C11.0716 6.82588 11.2391 7.26798 11.4947 7.6494C11.6093 7.82277 11.7504 7.98748 11.909 8.12618C11.9531 8.16085 12.4027 8.42091 12.4027 8.42091C12.3674 8.27354 12.1559 8.0655 12.0677 7.9528C11.8033 7.59739 11.5123 7.25064 11.195 6.93857C10.8688 6.61783 10.4986 6.29709 10.0754 6.14105C9.74928 6.01969 9.0176 5.95901 9.00879 6.47913C9.00879 6.60049 9.05287 6.72185 9.10576 6.82588C9.64349 7.98748 10.7719 8.89769 11.8121 9.62586C12.6936 10.2413 13.6545 10.7615 14.6506 11.1602C17.1189 12.1571 19.834 12.4345 22.4522 11.9231C23.5453 11.715 24.6031 11.3683 25.6169 10.9262C25.9254 10.7875 29.0284 9.15775 28.9403 9.02772C28.9403 9.02772 31.5672 12.8419 36.1159 12.7552L36.9446 16.6215L37.5969 18.1385L38.2669 18.962L39.2895 17.9391L39.2806 17.9304Z" fill="#101010"/>
</g>
</g>
<path id="Vector_21" d="M11.582 2.63904C10.6476 3.84399 10.9385 5.36967 11.5291 6.60062C12.0404 7.43282 12.8602 7.9616 13.8035 8.3777C14.5704 8.71578 15.3902 8.96717 16.2365 9.20989C15.355 9.33125 14.447 9.25324 13.5655 9.01051C12.4812 8.73312 11.3176 8.05696 10.7622 6.99071C10.0746 5.62106 10.0658 3.44523 11.5732 2.63037L11.582 2.63904Z" fill="#010101"/>
</g>
<defs>
<clipPath id="clip0_2513_9465">
<rect width="51.6667" height="63.3333" fill="white" transform="translate(-1.66699 0.333008)"/>
</clipPath>
</defs>
</svg>
