<svg fill="none" height="20" viewBox="0 0 20 20" width="20" xmlns="http://www.w3.org/2000/svg"><g fill="#fff8f3"><path clip-rule="evenodd" d="m10 18.5c4.6944 0 8.5-3.8056 8.5-8.5 0-4.69442-3.8056-8.5-8.5-8.5-4.69442 0-8.5 3.80558-8.5 8.5 0 4.6944 3.80558 8.5 8.5 8.5zm0 1.5c5.5228 0 10-4.4772 10-10 0-5.52285-4.4772-10-10-10-5.52285 0-10 4.47715-10 10 0 5.5228 4.47715 10 10 10z" fill-rule="evenodd"/><path clip-rule="evenodd" d="m10 9.25c.4142 0 .75.33579.75.75v4c0 .4142-.3358.75-.75.75-.41421 0-.75-.3358-.75-.75v-4c0-.41421.33579-.75.75-.75z" fill-rule="evenodd"/><path d="m11 6c0 .55228-.4477 1-1 1-.55228 0-1-.44772-1-1s.44772-1 1-1c.5523 0 1 .44772 1 1z"/></g></svg>