<svg width="24" height="24" viewBox="0 0 24 24" fill="none" xmlns="http://www.w3.org/2000/svg">
<g id="Icon/Info">
<g id="info">
<path fill-rule="evenodd" clip-rule="evenodd" d="M12 20.625C16.7625 20.625 20.625 16.7625 20.625 12C20.625 7.2375 16.7625 3.375 12 3.375C7.2375 3.375 3.375 7.2375 3.375 12C3.375 16.7625 7.2375 20.625 12 20.625ZM12 22.5C17.7975 22.5 22.5 17.7975 22.5 12C22.5 6.2025 17.7975 1.5 12 1.5C6.2025 1.5 1.5 6.2025 1.5 12C1.5 17.7975 6.2025 22.5 12 22.5Z" fill="#FFEBD7"/>
<path fill-rule="evenodd" clip-rule="evenodd" d="M12 9.84C12.5175 9.84 12.9375 10.26 12.9375 10.7775V16.7775C12.9375 17.295 12.5175 17.715 12 17.715C11.4825 17.715 11.0625 17.295 11.0625 16.7775V10.7775C11.0625 10.26 11.4825 9.84 12 9.84Z" fill="#FFEBD7"/>
<path d="M12 8.1525C12.5178 8.1525 12.9375 7.73277 12.9375 7.215C12.9375 6.69723 12.5178 6.2775 12 6.2775C11.4822 6.2775 11.0625 6.69723 11.0625 7.215C11.0625 7.73277 11.4822 8.1525 12 8.1525Z" fill="#FFEBD7"/>
</g>
</g>
</svg>
