<svg width="16" height="16" viewBox="0 0 16 16" fill="none" xmlns="http://www.w3.org/2000/svg">
<path d="M2.95982 11.1137C2.12839 11.1137 1.45312 10.4384 1.45312 9.60699V2.95982C1.45312 2.12839 2.12839 1.45312 2.95982 1.45312H9.61121C10.4426 1.45312 11.1179 2.12839 11.1179 2.95982V3.07799C11.1179 3.3692 10.8816 3.60554 10.5903 3.60554C10.2991 3.60554 10.0628 3.3692 10.0628 3.07799V2.95982C10.0628 2.71081 9.86021 2.50823 9.61121 2.50823H2.95982C2.71081 2.50823 2.50823 2.71081 2.50823 2.95982V9.61121C2.50823 9.86021 2.71081 10.0628 2.95982 10.0628H3.07799C3.3692 10.0628 3.60554 10.2991 3.60554 10.5903C3.60554 10.8816 3.3692 11.1179 3.07799 11.1179H2.95982V11.1137Z" fill="white"/>
<path fill-rule="evenodd" clip-rule="evenodd" d="M5.89301 14.0469C5.06159 14.0469 4.38632 13.3716 4.38632 12.5402V5.88879C4.38632 5.05737 5.06159 4.3821 5.89301 4.3821H12.5444C13.3758 4.3821 14.0511 5.05737 14.0511 5.88879V12.5402C14.0511 13.3716 13.3758 14.0469 12.5444 14.0469H5.89301ZM5.89301 5.44143C5.64401 5.44143 5.44143 5.64401 5.44143 5.89301V12.5444C5.44143 12.7934 5.64401 12.996 5.89301 12.996H12.5444C12.7934 12.996 12.996 12.7934 12.996 12.5444V5.89301C12.996 5.64401 12.7934 5.44143 12.5444 5.44143H5.89301Z" fill="white"/>
</svg>
