<svg fill="none" height="24" viewBox="0 0 22 24" width="22" xmlns="http://www.w3.org/2000/svg"><g fill="#000"><path d="m15.6148 10.3133c0-.51702-.43-.93762-.9586-.93762h-9.87233c-.52855 0-.95856.4206-.95856.93762 0 .5169.43001.9375.95856.9375h9.87233c.5286 0 .9586-.4206.9586-.9375z"/><path d="m4.78387 13.126c-.52855 0-.95856.4205-.95856.9375s.43001.9376.95856.9376h5.99333c.5285 0 .9585-.4206.9585-.9376s-.43-.9375-.9585-.9375z"/><path d="m7.04143 22.1249h-3.20716c-1.05711 0-1.91714-.8412-1.91714-1.8752v-16.49943c0-1.03395.86003-1.87513 1.91714-1.87513h11.78053c1.0571 0 1.9171.84118 1.9171 1.87513v5.76561c0 .51702.43.93762.9586.93762.5285 0 .9585-.4206.9585-.93762v-5.76561c0-2.0679-1.72-3.75027-3.8342-3.75027h-11.78053c-2.11423 0-3.83427 1.68237-3.83427 3.75027v16.49943c0 2.0679 1.72004 3.7503 3.83427 3.7503h3.20716c.52856 0 .95857-.4206.95857-.9376 0-.5169-.43001-.9375-.95857-.9375z"/><path d="m21.1512 13.5728c-1.1198-1.0953-2.9474-1.0953-4.0672 0l-5.2587 5.1348c-.1075.1051-.1971.2453-.2419.3943l-1.1467 3.6889c-.0985.3242-.0089.6835.233.9288.1791.184.43.2804.6898.2804.0895 0 .1702-.0088.2598-.035l3.8701-1.0515c.1612-.0438.3046-.1227.421-.2366l5.2497-5.126c1.1199-1.0953 1.1199-2.8828 0-3.9781zm-6.4233 7.6057-1.944.5258.5733-1.8314 3.5476-3.4611 1.3528 1.3231zm5.0705-4.9507-.1881.184-1.3527-1.3231.1881-.184c.3762-.368.9854-.368 1.3527 0s.3763.9639 0 1.3231z"/><path d="m14.6562 5.62541h-9.87233c-.52855 0-.95856.42059-.95856.93757s.43001.93757.95856.93757h9.87233c.5286 0 .9586-.42059.9586-.93757s-.43-.93757-.9586-.93757z"/></g></svg>