<svg fill="none" height="22" viewBox="0 0 22 22" width="22" xmlns="http://www.w3.org/2000/svg"><path d="m10.9955 0c-6.06244 0-10.9955 4.98216-10.9955 11.1049 0 5.2468 3.68624 9.8184 8.76386 10.8768.06324.0092.12649.0183.1807.0183.4156 0 .79507-.3011.88542-.73.09938-.4927-.21684-.9763-.70472-1.0767-4.23737-.8851-7.31828-4.7084-7.31828-9.0884 0-5.119 4.11992-9.27993 9.18852-9.27993s9.1885 4.16093 9.1885 9.27993c0 3.8051-2.3039 7.1904-5.7281 8.5956.018-1.0128-.1085-3.1389-.2711-3.9693 2.0871-.5475 3.5417-2.5002 3.4875-4.6719.0542-1.0128-.2078-1.99833-.7499-2.85607.0903-.82123-.0181-1.66984-.2982-2.44545-.1265-.365-.4608-.62049-.8493-.62049-.0451 0-.0903 0-.1355.00912-.8583.11862-1.6985.42887-2.4213.91249-.6325-.16425-1.283-.2555-1.9516-.26462-.7137.01825-1.41845.11862-2.1051.29199-.71376-.52924-1.56304-.82123-2.50267-.83948-.37947 0-.71376.23724-.84025.60223-.26201.73912-.3614 1.5421-.28008 2.32684-.51499.86686-.76797 1.85234-.7499 2.86524.05421 2.1625 1.50883 4.0605 3.55072 4.6719-.04518.2281-.09938.5748-.13552.7938-.04518 0-.09035 0-.13553 0-.47885 0-.8041-.1003-1.21971-.6296-.35236-.5566-.91253-1.0037-1.50883-1.1862-.05421-.0091-.10842-.0183-.15359-.0183-.42464 0-.77701.292-.87639.7027-.09035.4288.14456.8486.5963 1.0493.25298.1369.56017.438.69569.6114.64148 1.0493 1.5269 1.1862 2.62916 1.2501.33429 0 .65955-.0456.9848-.1369.09035-.0274.1807-.073.28912-.146.06325-.0456.14456-.1186.16263-.1551.05421-.0548.23491-.2738.24394-.9855 0-.4471.10841-.8942.28911-1.2592.3253-.3833.2801-.949-.0994-1.2775-.1626-.1369-.3704-.219-.56917-.219-1.61725-.0912-2.90924-1.4417-2.93635-3.0842-.03614-.73.17167-1.45996.57824-2.04395.18069-.20987.26201-.48362.21683-.75736-.06324-.35587-.07228-.72087-.0271-1.07674.3614.1095.69569.30112.97577.57487.17166.16425.3885.25549.62341.25549.09035 0 .18973-.01825.27105-.04562.67761-.19162 1.37332-.31025 2.05992-.32849.6234.01824 1.2469.11862 1.8432.30111.0993.0365.2078.05475.3071.05475.2169 0 .4247-.08212.5783-.21899.3433-.292.7499-.50187 1.1745-.63874.0633.36499.0452.74824-.0361 1.11323-.0723.32849.0361.67524.262.86686.3975.55662.5602 1.24098.4788 1.95268.0633 1.606-1.1835 2.9747-2.7737 3.0386h-.1174-.0904c-.3704 0-.7137.2373-.8402.584-.1356.3559-.0271.7574.2529 1.0037.235.2008.4066 2.9109.3524 5.2012 0 .0456.0271.0912.0271.1369 0 .0547 0 .1186.009.1733.1265.4837.6235.7756 1.1023.6479 4.8156-1.2866 8.1766-5.703 8.1766-10.7399 0-6.09543-4.9331-11.0776-11.0045-11.0776z" fill="#000"/></svg>