<svg fill="none" height="18" viewBox="0 0 24 18" width="24" xmlns="http://www.w3.org/2000/svg"><g fill="#101010"><path d="m16.5785 18c-.4815 0-.8781-.3898-.8781-.8631v-.8979c-1.3241.2366-2.535.3619-3.6963.3619-1.1614 0-2.45013-.1392-3.64686-.4106l-.06373.9396c0 .4803-.39655.8631-.87807.8631-2.7121-.1601-5.25425-1.2946-7.159094-3.1949-.1770302-.174-.2690858-.4176-.2549234-.6542.1982734-3.188.3965474-6.48033 2.1880874-10.16942.49569-1.10673 3.78845-3.299306 6.37309-3.9396772.07081-.0139211.14162-.02784224.21243-.02784224.40363 0 .75061.27146144.84975.65429244.1133.466357-.16995.939677-.63731 1.051047-2.03939.42459-3.90174 1.53132-5.26133 3.10441-1.26754 2.86078-1.91901 5.89559-1.94734 9.01389 1.31711 1.2181 2.9387 2.0325 4.69484 2.3527l.05665-.5151c-1.17548-.4872-2.23766-1.0928-3.17238-1.8237-.3753-.2993-.43903-.8491-.14162-1.2181.16995-.2088.42487-.3271.69396-.3271.19827 0 .38946.0626.54525.1879 2.06063 1.5453 4.61694 2.3945 7.2157 2.3945h.3329.3257c2.5846 0 5.148-.8492 7.2157-2.3945.1629-.1253.3612-.1879.5595-.1879.269 0 .5169.1183.6798.3271.2974.3829.2336.9258-.1417 1.2181-.9418.7309-2.004 1.3295-3.1653 1.775-.0212.0905-.0141.5151-.0141.5151 1.7915-.2715 3.4202-1.065 4.7373-2.2692 0-3.1322-.6515-6.17398-1.9261-9.03477-1.3596-1.58005-3.229-2.68678-5.2684-3.11833-.2408-.05569-.432-.1949-.5523-.40372-.1204-.20185-.1487-.43155-.0921-.654288.0991-.38283.4461-.654292.8497-.654292.0779 0 .1488.00696056.2196.0278422 2.5846.6403708 5.7357 2.5893278 6.366 3.9396778 1.8057 3.69605 2.0039 6.98148 2.2022 10.16938.0071.2506-.085.4942-.2549.6612-1.8978 1.8933-4.4328 3.0279-7.1308 3.1949h-.0283z"/><path d="m18.9295 5.0464c.2407-.44547.0566-.99536-.3895-1.23202-2.0394-.96055-4.277-1.43387-6.5359-1.37122-2.25894-.05569-4.50368.41067-6.53599 1.37122-.4532.23666-.60898.79351-.36822 1.24594.24076.43156.77893.60557 1.22505.38284 1.77738-.82135 3.72466-1.22506 5.68616-1.16938 1.9615-.05568 3.9089.34803 5.6862 1.16938.4532.19489.9843.02784 1.2534-.38284h-.0071z"/><path d="m9.22115 10.6497c.64439 0 1.16135-.5151 1.16135-1.14854 0-.63341-.52404-1.14849-1.16135-1.14849s-1.16132.51508-1.16132 1.14849c0 .63344.52401 1.14854 1.16132 1.14854z"/><path d="m14.7586 10.6497c.6444 0 1.1614-.5151 1.1614-1.14854 0-.63341-.524-1.14849-1.1614-1.14849-.6373 0-1.1613.51508-1.1613 1.14849 0 .63344.524 1.14854 1.1613 1.14854z"/></g></svg>