<svg width="49" height="47" viewBox="0 0 49 47" fill="none" xmlns="http://www.w3.org/2000/svg">
<g id="Layer_2" clip-path="url(#clip0_2513_9435)">
<path id="Vector" d="M19.4326 43.4539C19.4326 43.4539 28.1925 44.3969 29.4999 39.0897V38.2417C29.4999 38.2417 23.6426 39.6952 19.98 38.0449L19.4326 43.4539Z" fill="black"/>
<path id="Vector_2" d="M13.6572 30.6104C14.494 32.8255 15.7805 34.9219 17.6824 36.3636C19.5616 37.8375 21.9743 38.5024 24.3695 38.6177C26.763 38.7449 29.2437 38.2683 31.2153 36.903C32.2002 36.2296 33.0352 35.3612 33.7308 34.3995C34.4263 33.4344 34.972 32.3692 35.4235 31.2701C35.033 32.3913 34.5187 33.4785 33.8511 34.4792C33.1886 35.4799 32.3484 36.3806 31.3565 37.0946C30.3663 37.8104 29.2227 38.326 28.0251 38.6211C26.8258 38.918 25.5828 39.0028 24.3538 38.9536C23.1266 38.8993 21.8906 38.7314 20.7191 38.3396C19.5459 37.9546 18.439 37.3711 17.4819 36.6095C16.5196 35.8497 15.73 34.9049 15.0937 33.8856C14.4626 32.8594 13.9954 31.7484 13.6607 30.6104H13.6572Z" fill="black"/>
<g id="Group">
<path id="Vector_3" d="M-1.66602 68.666L-1.6172 68.4438C-1.51087 67.9672 -1.07331 66.7612 -0.83797 66.1133L-0.769983 65.9267C-0.672361 65.6469 -0.564279 65.3687 -0.457941 65.0905C-0.180764 64.3714 0.077238 63.7387 0.33001 63.1519C1.03777 61.5151 1.76994 60.0768 2.56835 58.7572C3.06692 57.9193 3.61256 57.1052 4.18783 56.3403C5.12744 55.0919 6.1734 53.9419 7.29256 52.9226C7.65516 52.5918 8.0317 52.2679 8.44486 51.9337C8.57037 51.8286 8.69763 51.7285 8.83011 51.6267C11.6908 49.3743 15.0971 47.573 18.9532 46.2721L19.6174 37.7881L19.9904 37.8152L19.3071 46.5384L19.1903 46.5774C15.3272 47.8664 11.9192 49.6609 9.06197 51.9117C8.93122 52.0118 8.80745 52.1084 8.68368 52.2119C8.27576 52.5426 7.90445 52.8615 7.54708 53.1872C6.4436 54.1913 5.41334 55.3243 4.48767 56.554C3.92111 57.3087 3.38245 58.111 2.89085 58.9387C2.10116 60.2464 1.37596 61.6695 0.675174 63.2927C0.424145 63.8744 0.167887 64.5037 -0.107547 65.2178C-0.213885 65.4925 -0.320224 65.7656 -0.416103 66.0438L-0.48409 66.2337C-0.670618 66.7494 -1.03321 67.745 -1.19185 68.2979L47.9557 68.1775C47.9452 67.8434 47.9069 67.0699 47.7605 66.0098C47.6245 65.0566 47.4484 64.1594 47.22 63.2655C46.847 61.7611 46.3397 60.299 45.7156 58.9218C45.3199 58.0584 44.9102 57.2782 44.4605 56.5387C43.6795 55.2361 42.7556 54.0183 41.7131 52.9192C41.4882 52.6783 41.2511 52.4375 41.0036 52.2017C38.1691 49.4778 34.5431 47.5883 30.2268 46.5808L30.0978 46.5502L29.1931 38.0612L29.5661 38.0238L30.443 46.2568C34.7697 47.2864 38.4096 49.1979 41.2668 51.9422C41.5179 52.1831 41.7619 52.429 41.9903 52.6732C43.0502 53.791 43.9898 55.0292 44.7847 56.3538C45.2397 57.1052 45.6563 57.8956 46.059 58.7725C46.6936 60.1718 47.2078 61.6525 47.5861 63.1773C47.8162 64.0814 47.9958 64.9905 48.1335 65.959C48.3322 67.4142 48.3357 68.32 48.3357 68.359V68.5405H48.1492L-1.66427 68.6626L-1.66602 68.666Z" fill="black"/>
</g>
<g id="Group_2">
<g id="Group_3">
<path id="Vector_4" d="M20.5987 25.6394C20.5987 26.1397 20.2867 26.5434 19.9014 26.5434C19.5161 26.5434 19.2041 26.138 19.2041 25.6394C19.2041 25.1407 19.5161 24.7354 19.9014 24.7354C20.2867 24.7354 20.5987 25.1407 20.5987 25.6394Z" fill="black"/>
<path id="Vector_5" d="M28.9161 26.8559C29.3012 26.8559 29.6134 26.4512 29.6134 25.9519C29.6134 25.4526 29.3012 25.0479 28.9161 25.0479C28.5309 25.0479 28.2188 25.4526 28.2188 25.9519C28.2188 26.4512 28.5309 26.8559 28.9161 26.8559Z" fill="black"/>
<path id="Vector_6" d="M24.4408 25.2761C24.4966 25.7731 24.4147 26.2904 24.2369 26.7687C24.066 27.2487 23.7958 27.6982 23.4995 28.1018C23.2083 28.4937 22.9399 28.899 23.0183 29.3248C23.095 29.7454 23.4594 30.1575 23.9649 30.2474C23.4454 30.3068 22.8876 29.9337 22.7324 29.3909C22.6418 29.1178 22.6941 28.8176 22.7917 28.5666C22.8963 28.3139 23.048 28.0985 23.1909 27.8915C23.7819 27.1062 24.2508 26.2582 24.4391 25.2744L24.4408 25.2761Z" fill="black"/>
<path id="Vector_7" d="M20.876 29.8444C21.0276 30.2362 21.2124 30.6111 21.4425 30.9554C21.6639 31.3031 21.9289 31.6236 22.2392 31.8899C22.5495 32.1528 22.8912 32.3784 23.2782 32.4988C23.3706 32.5379 23.4665 32.5667 23.5676 32.5853C23.6669 32.6057 23.7628 32.6345 23.8639 32.6481C24.0661 32.6583 24.2683 32.699 24.4688 32.6719C25.2812 32.6583 26.036 32.2614 26.6305 31.7017C26.9355 31.4252 27.1935 31.0995 27.4271 30.7569C27.6694 30.4177 27.8751 30.053 28.0582 29.6748C27.8333 30.4839 27.4289 31.2556 26.8379 31.8967C26.5415 32.2139 26.1964 32.5022 25.7902 32.7007C25.3858 32.8907 24.9395 33.0331 24.4828 33.0348C23.5815 33.0857 22.6489 32.7278 22.0405 32.0901C21.4199 31.4659 21.0346 30.6653 20.876 29.8427V29.8444Z" fill="black"/>
<g id="Group_4" opacity="0.4">
<path id="Vector_8" d="M32.8868 29.39C32.8868 30.6451 31.8408 31.6628 30.5508 31.6628C29.2608 31.6628 28.2148 30.6451 28.2148 29.39C28.2148 28.1349 29.2608 27.1172 30.5508 27.1172C31.8408 27.1172 32.8868 28.1349 32.8868 29.39Z" fill="#E890A0"/>
</g>
<g id="Group_5" opacity="0.4">
<path id="Vector_9" d="M20.2676 29.39C20.2676 30.6451 19.2217 31.6628 17.9317 31.6628C16.6417 31.6628 15.5957 30.6451 15.5957 29.39C15.5957 28.1349 16.6417 27.1172 17.9317 27.1172C19.2217 27.1172 20.2676 28.1349 20.2676 29.39Z" fill="#E890A0"/>
</g>
<path id="Vector_10" d="M17.165 23.4989L17.3306 23.2784C17.9913 22.3998 18.6834 21.9283 19.3877 21.8791C20.1599 21.8265 20.6446 22.2997 20.6655 22.3201L20.7736 22.4269L17.165 23.4989ZM19.5062 22.0572C19.4714 22.0572 19.4348 22.0572 19.3981 22.0606C18.8124 22.103 18.2284 22.4727 17.6584 23.1613L20.404 22.3455C20.2384 22.2302 19.9211 22.0572 19.5062 22.0572Z" fill="black"/>
<path id="Vector_11" d="M30.4259 24.2719L27.6611 22.9964L27.7483 22.9048C27.7675 22.8844 28.2242 22.4146 28.85 22.5164C29.4096 22.608 29.9047 23.1219 30.3248 24.0463L30.4259 24.2702V24.2719ZM27.9854 22.9438L30.0442 23.8936C29.6798 23.1745 29.2684 22.7725 28.8204 22.6979C28.4473 22.6368 28.137 22.8268 27.9854 22.9438Z" fill="black"/>
</g>
<g id="Group_6">
<path id="Vector_12" d="M37.7873 24.8564C38.1656 24.5104 38.6224 24.2306 39.1436 24.0881C39.6648 23.9507 40.2436 24.0135 40.7421 24.2357C41.246 24.4426 41.673 24.8887 41.8561 25.3992C42.0513 25.9114 42.0635 26.4627 41.9746 26.9834C41.7829 28.0282 41.1501 28.978 40.2628 29.5733C39.8165 29.8651 39.3162 30.072 38.7967 30.1823C38.2754 30.2823 37.7438 30.2959 37.2295 30.2179C38.2685 30.2264 39.2987 29.9448 40.0919 29.3478C40.8746 28.7456 41.4377 27.8721 41.6051 26.9223C41.6922 26.4508 41.6783 25.9606 41.5214 25.5179C41.375 25.0668 41.0472 24.714 40.6114 24.4867C40.1791 24.2611 39.6735 24.1712 39.1802 24.2628C38.6816 24.3374 38.2144 24.5766 37.7856 24.8581L37.7873 24.8564Z" fill="black"/>
<path id="Vector_13" d="M37.7891 26.8558C38.0906 26.4538 38.5265 26.1689 39.0059 25.9942C39.4852 25.8297 40.0274 25.7805 40.5103 25.9518C40.0152 26.0739 39.5724 26.1791 39.1314 26.3385C38.6886 26.4877 38.2667 26.6845 37.7891 26.8558Z" fill="black"/>
</g>
<g id="Group_7">
<path id="Vector_14" d="M11.3089 22.9127C10.8975 22.6396 10.4565 22.3886 9.97881 22.3309C9.50464 22.2546 9.03048 22.3886 8.62256 22.6243C8.20417 22.8465 7.90259 23.1925 7.75442 23.6234C7.60101 24.0474 7.58358 24.5189 7.65679 24.9735C7.79974 25.8894 8.314 26.7425 9.03919 27.3565C9.77485 27.9671 10.7458 28.2962 11.7447 28.3437C11.2462 28.3945 10.7336 28.3487 10.2403 28.2266C9.7487 28.0943 9.27802 27.8721 8.86138 27.5719C8.03508 26.9647 7.45458 26.0369 7.28722 25.0294C7.20878 24.5257 7.23318 23.9965 7.41797 23.5029C7.60101 23.0144 7.99847 22.5768 8.4831 22.3682C8.9468 22.1409 9.50116 22.0273 10.0154 22.1494C10.5279 22.2766 10.9533 22.5735 11.3107 22.9127H11.3089Z" fill="black"/>
<path id="Vector_15" d="M8.46191 24.1218C8.71294 24.0285 8.9814 24.0014 9.24464 24.0064C9.50961 24.0098 9.77284 24.0522 10.0291 24.1235C10.5364 24.2693 11.0193 24.5407 11.3487 24.9478C11.0925 24.8698 10.8624 24.7731 10.627 24.6951C10.3934 24.6137 10.1598 24.5373 9.9245 24.4729C9.45208 24.3338 8.97617 24.2354 8.46191 24.1201V24.1218Z" fill="black"/>
</g>
<path id="Vector_16" d="M37.6186 21.4518C37.6186 21.4518 36.9073 15.7783 33.3005 12.0706C32.8508 11.6075 32.394 11.192 31.9286 10.8205C32.8769 10.5203 33.4365 9.60951 33.8183 8.77502C35.2111 5.73218 34.2872 2.25513 30.975 0.959289C28.3009 -0.0872179 24.1258 -0.0295498 22.5272 2.73004C21.4917 4.51945 22.0949 6.7278 23.1618 8.36795C22.3355 8.44597 21.4813 8.58336 20.5974 8.7818C15.5699 9.90803 12.8591 15.6613 12.4285 17.1131C12.1758 17.9697 11.8637 19.4012 11.6511 20.4342L11.6075 20.4308C11.5186 20.8344 11.4506 21.2534 11.4 21.6825C10.6365 28.2533 14.245 37.3479 14.245 37.3479C13.4884 31.52 13.926 24.5048 14.1439 21.8046C15.1254 21.7894 16.3352 21.7198 17.735 21.5332C18.0349 21.4942 18.8245 16.6094 19.1348 16.5636C19.4295 17.0114 19.2935 20.8107 19.2028 21.4417C20.709 21.4009 22.3511 21.6028 24.267 21.4773C24.5128 21.462 24.8928 19.9372 25.0166 19.1722C25.3565 19.9898 25.5186 20.8327 25.6267 21.3976C28.2137 21.3195 30.3875 21.6588 32.6607 21.3738C32.8926 19.9745 32.7061 18.2852 33.0983 17.5406C33.4714 17.8255 33.7973 19.4334 34.1286 21.3721C34.2262 21.3721 35.1972 21.5146 35.4186 21.5146C35.7132 23.4634 35.2617 32.7989 35.056 38.5335C35.056 38.5335 39.0463 29.388 37.6151 21.4501L37.6186 21.4518Z" fill="#101010"/>
</g>
</g>
<defs>
<clipPath id="clip0_2513_9435">
<rect width="50" height="68.3333" fill="white" transform="translate(-1.66602 0.333008)"/>
</clipPath>
</defs>
</svg>
