<svg fill="none" height="24" viewBox="0 0 81 24" width="81" xmlns="http://www.w3.org/2000/svg"><g fill="#101010"><path d="m30.6132 6.74148c-1.5002 0-2.6563.87689-2.6563 2.17867 0 1.26565.9796 1.69955 2.1974 1.93455l1.5355.2532c2.0385.3435 3.4416 1.3018 3.4416 3.5799 0 2.3775-1.9061 3.7697-4.3329 3.7697-2.1885 0-4.2535-1.3198-4.5536-3.9053-.0264-.217.1412-.4068.353-.4068h.9178c.1765 0 .3265.1356.353.3164.1941 1.8261 1.5796 2.5493 2.9386 2.5493 1.4826 0 2.6563-.7503 2.6563-2.2691 0-1.356-.9443-1.8261-2.1974-2.0702l-1.5178-.2712c-2.1268-.3616-3.4593-1.4103-3.4593-3.39909 0-2.30523 1.9591-3.7155 4.3152-3.7155 1.8797 0 3.9535 1.08482 4.3595 3.66126.0353.21697-.1324.42489-.353.42489h-.9531c-.1677 0-.3177-.12656-.3442-.29832-.2735-1.70859-1.4913-2.33236-2.7003-2.33236z"/><path d="m41.2378 8.15167c2.268 0 3.8829 1.2385 4.4565 3.26353.0618.226-.1059.461-.3442.461h-1.0678c-.15 0-.2823-.0994-.3353-.2441-.3971-1.1571-1.3149-1.81704-2.7092-1.81704-1.8973 0-2.9563 1.58204-2.9563 3.48954 0 1.8984 1.0678 3.4895 2.9563 3.4895 1.3943 0 2.3121-.66 2.7092-1.8171.053-.1447.1853-.2441.3353-.2441h1.0678c.2383 0 .406.2351.3354.4611-.6089 2.1154-2.1709 3.2634-4.4477 3.2634-2.921 0-4.7741-2.3142-4.7741-5.1528-.0089-2.8296 1.8531-5.15293 4.7741-5.15293z"/><path d="m47.4065 16.812h2.2856v-6.5089h-2.0385c-.1941 0-.353-.1628-.353-.36165v-.9221c0-.19888.1589-.3616.353-.3616h2.7798c.5824 0 1.059.48817 1.059 1.08482v.26213c.503-1.23847 1.5884-1.54584 3.2739-1.54584.6442 0 1.0766.10849 1.3237.19889.1412.05424.2295.18984.2295.33448v.95826c0 .24411-.2295.42491-.4589.34351-.3-.0994-.7236-.1898-1.2796-.1898-1.8002 0-3.0798 1.2566-3.0798 3.4352v3.2726h2.9386c.1942 0 .353.1627.353.3616v.9221c0 .1989-.1588.3616-.353.3616h-7.0244c-.1942 0-.353-.1627-.353-.3616v-.9221c-.0089-.1989.15-.3616.3441-.3616z"/><path d="m57.6609 13.3046c0-2.8296 1.8355-5.15293 4.8183-5.15293 2.9827 0 4.8183 2.31433 4.8183 5.15293s-1.8356 5.1528-4.8183 5.1528c-2.9828 0-4.8183-2.3142-4.8183-5.1528zm4.8183 3.4895c1.9149 0 3.018-1.5821 3.018-3.4895 0-1.8985-1.1031-3.48954-3.018-3.48954-1.915 0-3.0181 1.58204-3.0181 3.48954 0 1.9074 1.1031 3.4895 3.0181 3.4895z"/><path d="m71.286 16.8936h2.7621c.1941 0 .353.1627.353.3616v.8497c0 .1989-.1589.3616-.353.3616h-4.1388c-.1942 0-.353-.1627-.353-.3616v-11.15551h-1.3767c-.1941 0-.3529-.16272-.3529-.3616v-.84978c0-.19888.1588-.36161.3529-.36161h2.0386c.5824 0 1.0589.48817 1.0589 1.08482v10.43238z"/><path d="m77.3926 16.8936h2.7622c.1941 0 .353.1627.353.3616v.8497c0 .1989-.1589.3616-.353.3616h-4.1388c-.1942 0-.353-.1627-.353-.3616v-11.15551h-1.3767c-.1941 0-.353-.16272-.353-.3616v-.84978c0-.19888.1589-.36161.353-.36161h2.0385c.5825 0 1.059.48817 1.059 1.08482v10.43238z"/></g><path d="m20.7734 15.8086v-13.28899c-.0177-1.11194-.8825-2.006915-1.9679-2.006915h-13.53715c-2.92098.045201-5.26835 2.495085-5.26835 5.496415 0 1.0125.264742 1.88035.670679 2.63973.344161.63281.882471 1.22946 1.411951 1.67246.15002.1265.07943.0723.53831.3616.63538.3977 1.359.5966 1.359.5966l-.00882 7.9463c.01765.3797.05295.7413.15002 1.0758.30004 1.121 1.05896 1.9798 2.09146 2.3956.43241.1718.91777.2893 1.43843.2984l10.81027.0361c2.1532 0 3.9005-1.7899 3.9005-4.0048.0088-1.3108-.6265-2.486-1.5884-3.2183z" fill="#ffeeda"/><path d="m21.038 19.1264c-.0441 1.4193-1.1825 2.5583-2.5768 2.5583l-7.4392-.0271c.5912-.7051.953-1.6182.953-2.6126 0-1.5639-.9089-2.6397-.9089-2.6397h7.4039c1.4208 0 2.5768 1.1842 2.5768 2.6397z" fill="#ebc28e"/><path d="m2.78861 9.20034c-.856-.8317-1.45608-1.90748-1.45608-3.18214v-.1356c.0706-2.17868 1.81789-3.93247 3.94465-3.99575h13.53712c.353.01808.6354.27121.6354.64185v11.7341c.3088.0543.4588.0995.7589.208.2383.0904.5648.2802.5648.2802v-12.2223c-.0177-1.11194-.8825-2.00691-1.9679-2.00691h-13.53715c-2.92098.0452-5.26835 2.49508-5.26835 5.49641 0 1.74475.776576 3.23638 2.04733 4.285.08825.0724.16767.1628.39712.1628.39711 0 .6795-.3255.66185-.67805-.00883-.29833-.13237-.40681-.31769-.58761z" fill="#101010"/><path d="m18.4613 15.0312h-10.6161c-.7148.009-1.28841.5967-1.28841 1.3289v1.5639c.01765.7233.61774 1.338 1.33254 1.338h.78539v-1.338h-.78539v-1.5277h.43241c1.34135 0 2.32976 1.2746 2.32976 2.6397 0 1.2114-1.07666 2.7572-2.8769 2.6307-1.59727-.1085-2.46209-1.564-2.46209-2.6307v-13.25288c0-.59665-.47653-1.08482-1.05896-1.08482h-1.05897v1.35603h.7854v12.99067c-.04412 2.6398 1.83554 3.9687 3.79462 3.9687l10.6956.0361c2.1532 0 3.9005-1.7899 3.9005-4.0048 0-2.2148-1.7561-4.0138-3.9094-4.0138zm2.5768 4.0952c-.0441 1.4193-1.1825 2.5584-2.5768 2.5584l-7.4392-.0272c.5913-.7051.9531-1.6182.9531-2.6126 0-1.5639-.909-2.6397-.909-2.6397h7.404c1.4207 0 2.5768 1.1843 2.5768 2.6397z" fill="#101010"/><path d="m15.6019 6.29859h-8.004v-1.35602h8.004c.3618 0 .6619.29832.6619.67801 0 .37064-.2912.67801-.6619.67801z" fill="#101010"/><path d="m15.6019 12.6807h-8.004v-1.3561h8.004c.3618 0 .6619.2984.6619.6781 0 .3706-.2912.678-.6619.678z" fill="#101010"/><path d="m17.0139 9.48963h-9.416v-1.35602h9.4071c.3619 0 .6619.29832.6619.67801.0088.37064-.2912.67801-.653.67801z" fill="#101010"/></svg>