<svg fill="none" height="27" viewBox="0 0 28 27" width="28" xmlns="http://www.w3.org/2000/svg"><path d="m25.0722 17.7886v-15.45463c-.0213-1.29315-1.0651-2.33397-2.3752-2.33397h-16.33842c-3.52544.0525668-6.35858 2.90169-6.35858 6.39212 0 1.1775.319527 2.18678.809468 3.0699.415382.73598 1.065092 1.42978 1.704142 1.94498.18106.1472.09586.0841.6497.4205.76687.4626 1.64024.6939 1.64024.6939l-.01065 9.2413c.0213.4415.06391.8621.18107 1.251.36213 1.3037 1.2781 2.3025 2.52425 2.7861.5219.1997 1.1077.3364 1.7361.3469l13.04738.0421c2.5988 0 4.7076-2.0817 4.7076-4.6574.0107-1.5245-.7562-2.8912-1.9171-3.7428z" fill="#ffeeda"/><path d="m25.3915 21.6469c-.0533 1.6506-1.4272 2.9753-3.1101 2.9753l-8.9787-.0315c.7136-.8201 1.1503-1.8819 1.1503-3.0384 0-1.8188-1.097-3.0699-1.097-3.0699h8.9361c1.7148 0 3.11 1.3773 3.11 3.0699z" fill="#ebc28e"/><g fill="#101010"><path d="m3.36568 10.1036c-1.03314-.96726-1.7574-2.21835-1.7574-3.70074v-.1577c.08521-2.53372 2.19409-4.57331 4.76095-4.6469h16.33847c.426.02103.7669.3154.7669.74645v13.64629c.3727.0631.5538.1157.9159.2419.2876.1051.6817.3259.6817.3259v-14.21409c-.0213-1.29315-1.0651-2.3339678-2.3752-2.3339678h-16.33842c-3.52544.0525668-6.35858 2.9016878-6.35858 6.3921178 0 2.02908.937279 3.76374 2.47101 4.98334.10651.0841.20236.1892.47929.1892.47929 0 .82012-.3784.79881-.7885-.01065-.3469-.15976-.4731-.38343-.6833z"/><path d="m22.2835 16.8844h-12.81306c-.86272.0106-1.55503.6939-1.55503 1.5455v1.8188c.0213.8411.74556 1.556 1.60829 1.556h.9479v-1.556h-.9479v-1.7767h.5219c1.6189 0 2.8118 1.4824 2.8118 3.0699 0 1.4088-1.2994 3.2065-3.47217 3.0594-1.92781-.1262-2.97159-1.8189-2.97159-3.0594v-15.41262c0-.69388-.57515-1.2616-1.27811-1.2616h-1.27811v1.577h.94793v15.10772c-.05325 3.0699 2.21538 4.6153 4.57988 4.6153l12.90887.0421c2.5988 0 4.7077-2.0816 4.7077-4.6574s-2.1195-4.668-4.7183-4.668zm3.11 4.7626c-.0532 1.6506-1.4272 2.9753-3.11 2.9753l-8.9787-.0316c.7136-.82 1.1503-1.8819 1.1503-3.0383 0-1.8188-1.0971-3.0699-1.0971-3.0699h8.9361c1.7148 0 3.1101 1.3772 3.1101 3.0699z"/><path d="m18.8303 6.72886h-9.66038v-1.577h9.66038c.4367 0 .7988.34694.7988.7885 0 .43104-.3515.7885-.7988.7885z"/><path d="m18.8303 14.1507h-9.66038v-1.577h9.66038c.4367 0 .7988.347.7988.7885 0 .4311-.3515.7885-.7988.7885z"/><path d="m20.5344 10.4398h-11.36448v-1.57701h11.35388c.4367 0 .7988.34694.7988.7885.0106.43101-.3515.78851-.7882.78851z"/></g></svg>