<svg fill="none" height="23" viewBox="0 0 81 23" width="81" xmlns="http://www.w3.org/2000/svg"><g fill="#fff8f3"><path d="m30.6132 6.10094c-1.5002 0-2.6563.85893-2.6563 2.13404 0 1.23969.9796 1.66473 2.1974 1.89492l1.5355.248c2.0385.3365 3.4416 1.2751 3.4416 3.5065 0 2.3289-1.9061 3.6925-4.3329 3.6925-2.1885 0-4.2535-1.2928-4.5536-3.8253-.0264-.2125.1412-.3985.353-.3985h.9178c.1765 0 .3265.1329.353.31.1941 1.7887 1.5796 2.497 2.9386 2.497 1.4826 0 2.6563-.7349 2.6563-2.2225 0-1.3283-.9443-1.7887-2.1974-2.0278l-1.5178-.2657c-2.1268-.3542-3.4593-1.3813-3.4593-3.32943 0-2.25801 1.9591-3.63938 4.3152-3.63938 1.8797 0 3.9535 1.0626 4.3595 3.58625.0353.21252-.1324.41619-.353.41619h-.9531c-.1677 0-.3177-.12397-.3442-.29222-.2735-1.67358-1.4913-2.28457-2.7003-2.28457z"/><path d="m41.2378 7.48242c2.268 0 3.8829 1.21313 4.4565 3.19668.0618.2213-.1059.4516-.3442.4516h-1.0678c-.15 0-.2823-.0974-.3353-.2391-.3971-1.13346-1.3149-1.77987-2.7092-1.77987-1.8973 0-2.9563 1.54957-2.9563 3.41797 0 1.8596 1.0678 3.418 2.9563 3.418 1.3943 0 2.3121-.6464 2.7092-1.7798.053-.1417.1853-.2391.3353-.2391h1.0678c.2383 0 .406.2302.3354.4516-.6089 2.0721-2.1709 3.1967-4.4477 3.1967-2.921 0-4.7741-2.2669-4.7741-5.0474-.0089-2.77156 1.8531-5.04728 4.7741-5.04728z"/><path d="m47.4065 15.9652h2.2856v-6.37559h-2.0385c-.1941 0-.353-.15939-.353-.3542v-.9032c0-.19481.1589-.3542.353-.3542h2.7798c.5824 0 1.059.47817 1.059 1.0626v.25679c.503-1.21313 1.5884-1.5142 3.2739-1.5142.6442 0 1.0766.10626 1.3237.19481.1412.05313.2295.18595.2295.32763v.93863c0 .23908-.2295.41618-.4589.33649-.3-.09741-.7236-.18596-1.2796-.18596-1.8002 0-3.0798 1.2308-3.0798 3.3649v3.2055h2.9386c.1942 0 .353.1594.353.3542v.9032c0 .1948-.1588.3542-.353.3542h-7.0244c-.1942 0-.353-.1594-.353-.3542v-.9032c-.0089-.1948.15-.3542.3441-.3542z"/><path d="m57.6609 12.5297c0-2.77156 1.8355-5.04728 4.8183-5.04728 2.9827 0 4.8183 2.26687 4.8183 5.04728 0 2.7805-1.8356 5.0474-4.8183 5.0474-2.9828 0-4.8183-2.2669-4.8183-5.0474zm4.8183 3.418c1.9149 0 3.018-1.5496 3.018-3.418 0-1.8595-1.1031-3.41797-3.018-3.41797-1.915 0-3.0181 1.54957-3.0181 3.41797s1.1031 3.418 3.0181 3.418z"/><path d="m71.286 16.0454h2.7621c.1941 0 .353.1593.353.3542v.8323c0 .1948-.1589.3542-.353.3542h-4.1388c-.1942 0-.353-.1594-.353-.3542v-10.92698h-1.3767c-.1941 0-.3529-.15939-.3529-.3542v-.83236c0-.19481.1588-.3542.3529-.3542h2.0386c.5824 0 1.0589.47817 1.0589 1.06259v10.21865z"/><path d="m77.3926 16.0454h2.7622c.1941 0 .353.1593.353.3542v.8323c0 .1948-.1589.3542-.353.3542h-4.1388c-.1942 0-.353-.1594-.353-.3542v-10.92698h-1.3767c-.1941 0-.353-.15939-.353-.3542v-.83236c0-.19481.1589-.3542.353-.3542h2.0385c.5825 0 1.059.47817 1.059 1.06259v10.21865z"/><path d="m2.78861 8.50953c-.856-.81465-1.45608-1.86839-1.45608-3.11694v-.13282c.0706-2.13404 1.81789-3.8519 3.94465-3.91388h13.53712c.353.01771.6354.26564.6354.62869v11.49372c.3088.0531.4588.0974.7589.2037.2383.0885.5648.2745.5648.2745v-11.97192c-.0177-1.089154-.8825-1.96579094-1.9679-1.96579094h-13.53715c-2.92098.04427474-5.26835 2.44396094-5.26835 5.38380094 0 1.709.776576 3.17007 2.04733 4.19724.08825.07084.16767.15939.39712.15939.39711 0 .6795-.31878.66185-.66412-.00883-.29221-.13237-.39847-.31769-.57557z"/><path d="m18.4613 14.2208h-10.6161c-.7148.0089-1.28841.5844-1.28841 1.3017v1.5319c.01765.7084.61774 1.3105 1.33254 1.3105h.78539v-1.3105h-.78539v-1.4965h.43241c1.34135 0 2.32976 1.2485 2.32976 2.5856 0 1.1866-1.07666 2.7008-2.8769 2.5768-1.59727-.1062-2.46209-1.5319-2.46209-2.5768v-12.9813c0-.58442-.47653-1.06259-1.05896-1.06259h-1.05897v1.32824h.7854v12.72455c-.04412 2.5856 1.83554 3.8873 3.79462 3.8873l10.6956.0354c2.1532 0 3.9005-1.7532 3.9005-3.9227s-1.7561-3.9316-3.9094-3.9316zm2.5768 4.0113c-.0441 1.3902-1.1825 2.5059-2.5768 2.5059l-7.4392-.0265c.5913-.6907.9531-1.5851.9531-2.5591 0-1.5319-.909-2.5856-.909-2.5856h7.404c1.4207 0 2.5768 1.16 2.5768 2.5856z"/><path d="m15.6019 5.66711h-8.004v-1.32824h8.004c.3618 0 .6619.29221.6619.66412 0 .36305-.2912.66412-.6619.66412z"/><path d="m15.6019 11.9186h-8.004v-1.3283h8.004c.3618 0 .6619.2922.6619.6642 0 .363-.2912.6641-.6619.6641z"/><path d="m17.0139 8.79308h-9.416v-1.32824h9.4071c.3619 0 .6619.29222.6619.66412.0088.36306-.2912.66412-.653.66412z"/></g></svg>