<svg fill="none" height="35" viewBox="0 0 35 35" width="35" xmlns="http://www.w3.org/2000/svg" xmlns:xlink="http://www.w3.org/1999/xlink"><clipPath id="a"><path d="m0 0h35v35h-35z"/></clipPath><g clip-path="url(#a)" fill="#101010"><path d="m19.4007 0h-3.7914c-1.1092 0-2.0066.897436-2.0066 2.00663v2.3293c-.9176.27225-1.7949.63526-2.6419 1.08902l-1.65368-1.6537c-.78652-.78652-2.05705-.78652-2.84357 0l-2.68222 2.68222c-.78652.78652-.78652 2.05705 0 2.84356l1.6537 1.65367c-.45376.837-.82685 1.7243-1.08902 2.6419h-2.33938c-1.109194 0-2.00663.8975-2.00663 2.0067v3.7914c0 1.1092.897436 2.0066 2.00663 2.0066h2.3293c.27225.9176.63526 1.7949 1.08902 2.6419l-1.6537 1.6537c-.38318.3832-.58485.8873-.58485 1.4218 0 .5344.21176 1.0386.58485 1.4217l2.68222 2.6823c.38318.3831.88735.5848 1.42178.5848s1.03861-.2117 1.42178-.5848l1.65367-1.6537c.837.4537 1.7243.8268 2.6419 1.089v2.3293c0 1.1092.8975 2.0066 2.0067 2.0066h3.7914c1.1092 0 2.0066-.8974 2.0066-2.0066v-2.3293c.9176-.2723 1.7949-.6353 2.6419-1.089l1.6537 1.6537c.7865.7865 2.057.7865 2.8435 0l2.6823-2.6823c.3831-.3831.5848-.8873.5848-1.4217 0-.5345-.2117-1.0386-.5848-1.4218l-1.6537-1.6537c.4537-.837.8268-1.7243 1.089-2.6419h2.3293c1.1092 0 2.0066-.8974 2.0066-2.0066v-3.7914c0-1.1092-.8974-2.0067-2.0066-2.0067h-2.3293c-.2723-.9176-.6353-1.7948-1.089-2.6419l1.6537-1.65367c.7865-.78651.7865-2.05704 0-2.84356l-2.6823-2.68222c-.7865-.78652-2.057-.78652-2.8435 0l-1.6537 1.6537c-.837-.45376-1.7243-.82685-2.6419-1.08902v-2.3293c.0101-1.109194-.8874-2.00663-1.9966-2.00663zm4.215 7.845c.4537.29242 1.0487.22184 1.4318-.16134l2.0772-2.07721 2.2789 2.27889-2.0772 2.07721c-.3832.38315-.4437.97815-.1613 1.43185.7058 1.1092 1.21 2.3293 1.4923 3.6099.121.5244.5849.8975 1.1193.8975h2.9343v3.2166h-2.9343c-.5344 0-1.0083.3731-1.1193.8974-.2823 1.2807-.7865 2.4907-1.4923 3.61-.2924.4537-.2219 1.0486.1613 1.4318l2.0772 2.0772-2.2789 2.2789-2.0772-2.0772c-.3831-.3832-.9781-.4437-1.4318-.1613-1.1092.7058-2.3293 1.21-3.6099 1.4923-.5244.121-.8975.5849-.8975 1.1193v2.9343h-3.2166v-2.9343c0-.5344-.3731-1.0084-.8975-1.1193-1.2806-.2823-2.4906-.7865-3.6099-1.4923-.4537-.2925-1.0487-.2219-1.43184.1613l-2.07721 2.0772-2.27888-2.2789 2.07721-2.0772c.38318-.3832.44368-.9781.16134-1.4318-.70585-1.1092-1.21003-2.3293-1.49237-3.61-.121-.5243-.58484-.8974-1.11927-.8974h-2.93431v-3.2166h2.93431c.53443 0 1.00835-.3731 1.11927-.8975.28234-1.2806.78652-2.4906 1.49237-3.6099.29242-.4537.22184-1.0487-.16134-1.43185l-2.07721-2.07721 2.27888-2.27889 2.07721 2.07721c.38314.38318.97814.44368 1.43184.16134 1.1092-.70585 2.3293-1.21002 3.6099-1.49236.5244-.12101.8975-.58485.8975-1.11928v-2.93431h3.2166v2.93431c0 .53443.3731 1.00836.8975 1.11928 1.2806.28234 2.4906.78651 3.6099 1.49236z"/><path d="m17.0514 8.84326c-4.3864.22184-7.98618 3.83174-8.20802 8.21814-.121 2.4503.7966 4.8501 2.53102 6.5744 1.6234 1.6235 3.8418 2.5411 6.1408 2.5411.1412 0 .2824 0 .4336-.0101.6353-.0303 1.1193-.5748 1.089-1.1999-.0302-.6353-.5747-1.1193-1.1999-1.0891-1.8352.0908-3.5494-.5747-4.8401-1.8553-1.2907-1.2807-1.9461-3.0049-1.8554-4.8401.1614-3.2167 2.8133-5.8687 6.03-6.0401 1.8352-.0907 3.6805.6454 4.951 1.9663 2.6318 2.7528 1.9361 6.8064-.2117 8.9744-.4437.4537-.4437 1.1797 0 1.6234.4537.4437 1.1797.4437 1.6234 0 1.5327-1.5428 2.4705-3.6906 2.5814-5.8787.121-2.3595-.7159-4.588-2.3394-6.2921-1.7444-1.82515-4.1947-2.80326-6.7257-2.67217z"/></g></svg>