<svg fill="none" height="27" viewBox="0 0 42 27" width="42" xmlns="http://www.w3.org/2000/svg" xmlns:xlink="http://www.w3.org/1999/xlink"><clipPath id="a"><path d="m0 0h42v27h-42z"/></clipPath><g clip-path="url(#a)" fill="#fff8f3"><path d="m28.3001 0c-2.6784 0-5.1745.775281-7.283 2.08989-2.1883-1.370789-4.6958-2.08989-7.3172-2.08989-7.55662 0-13.6999 6.05618-13.6999 13.5056 0 7.4495 6.14328 13.5056 13.6999 13.5056 2.6214 0 5.1289-.7191 7.3172-2.0899 2.1085 1.3147 4.6046 2.0899 7.283 2.0899 7.5566 0 13.6999-6.0561 13.6999-13.5056 0-7.44942-6.1433-13.5056-13.6999-13.5056zm-25.45071 13.5056c0-5.89886 4.86676-10.69661 10.85051-10.69661 1.7324 0 3.3964.39326 4.9123 1.1573-2.4733 2.44944-4.0119 5.82023-4.0119 9.53931 0 3.7191 1.5386 7.0899 4.0119 9.5393-1.5159.7641-3.1799 1.1573-4.9123 1.1573-5.98375 0-10.85051-4.7977-10.85051-10.6966zm25.45071 10.6966c-1.7666 0-3.442-.4269-4.9123-1.1685.2621-.2584.5357-.5281.775-.809.5129-.5955.4331-1.4831-.1709-1.9775-.6041-.5056-1.5045-.427-2.006.1685-.3077.3483-.6383.6854-.9802.9888-2.1769-1.9551-3.556-4.7641-3.556-7.8876 0-3.1236 1.3791-5.93263 3.556-7.89892.3419.3146.6725.64045.9802.98876.2849.32584.6838.49438 1.0942.49438.3191 0 .6496-.11236.9232-.33708.604-.50561.6724-1.38202.1709-1.97752-.2393-.2809-.5129-.55057-.775-.80899 1.4817-.74158 3.1457-1.16854 4.9123-1.16854 5.9838 0 10.8505 4.79775 10.8505 10.69661 0 5.8989-4.8667 10.6966-10.8505 10.6966z"/><path d="m25.3136 9.33755c-.7636.17978-1.2423.93255-1.06 1.69665.1938.809.2964 1.6404.2964 2.4719s-.1026 1.6741-.2964 2.4719c-.1823.7528.2964 1.5169 1.06 1.6854.114.0225.2165.0337.3305.0337.6497 0 1.231-.4382 1.3905-1.0786.2394-1.0225.3648-2.0675.3648-3.1236 0-1.0562-.1254-2.1124-.3762-3.1236-.1823-.75285-.9574-1.22476-1.7096-1.04498z"/></g></svg>