<svg fill="none" height="222" viewBox="0 0 310 222" width="310" xmlns="http://www.w3.org/2000/svg"><path d="m310 108.809c-107.381 18.459-128.713 33.421-155.009 108.81-26.278-75.389-47.611-90.351-154.991-108.81 107.38-18.4577 128.713-33.4324 155.009-108.809 26.295 75.3766 47.611 90.3513 155.008 108.809z" fill="#ffdeb5"/><path d="m155.009 4.39308c25.254 72.37202 45.922 89.05852 142.577 106.60692 4.007-.73 8.134-1.46 12.414-2.191-107.381-18.4577-128.696-33.4324-154.991-108.809-26.296 75.3766-47.629 90.3513-155.009 108.809 4.28021.731 8.40695 1.461 12.4143 2.191 96.6547-17.5484 117.3397-34.2349 142.5767-106.60692z" fill="#ffdeb5"/><path d="m155.008 217.607c-25.255-72.372-45.923-89.059-142.5771-106.607-4.00735.73-8.13409 1.46-12.4142984 2.191 107.3803984 18.458 128.7133984 33.42 155.0083984 108.809 26.295-75.377 47.611-90.351 155.009-108.809-4.281-.731-8.407-1.461-12.415-2.191-96.654 17.548-117.339 34.235-142.577 106.607z" fill="#ff684b"/><g fill="#ffdeb5"><path d="m108.25 104.656c22.999 0 41.643-13.0873 41.643-29.2313s-18.644-29.2313-41.643-29.2313c-22.9986 0-41.6426 13.0873-41.6426 29.2313s18.644 29.2313 41.6426 29.2313z"/><path d="m231.992 96.6531c16.263-11.4156 16.263-29.9238 0-41.3394-16.262-11.4155-42.629-11.4155-58.891 0-16.262 11.4156-16.262 29.9238 0 41.3394 16.262 11.4159 42.629 11.4159 58.891 0z"/><path d="m217.7 169.187c21.248-6.178 31.338-23.277 22.537-38.192s-33.161-21.998-54.409-15.82-31.338 23.277-22.537 38.193c8.802 14.915 33.161 21.997 54.409 15.819z"/><path d="m148.695 145.678c3.189-15.988-12.69-30.764-35.466-33.002-22.7768-2.239-43.8258 8.907-47.0146 24.896-3.1889 15.988 12.6899 30.763 35.4666 33.002 22.776 2.238 43.825-8.908 47.014-24.896z"/></g></svg>