<svg width="310" height="222" viewBox="0 0 310 222" fill="none" xmlns="http://www.w3.org/2000/svg">
<g style="mix-blend-mode:multiply">
<path d="M310 108.809C202.619 127.268 181.287 142.23 154.991 217.619C128.713 142.23 107.38 127.268 0 108.809C107.38 90.3513 128.713 75.3766 155.009 0C181.304 75.3766 202.62 90.3513 310.017 108.809H310Z" fill="#FFDEB5"/>
</g>
<g style="mix-blend-mode:multiply">
<path d="M155.009 4.39308C180.263 76.7651 200.931 93.4516 297.586 111C301.593 110.27 305.72 109.54 310 108.809C202.619 90.3513 181.304 75.3766 155.009 0C128.713 75.3766 107.38 90.3513 0 108.809C4.28021 109.54 8.40695 110.27 12.4143 111C109.069 93.4516 129.754 76.7651 154.991 4.39308H155.009Z" fill="#FFDEB5"/>
</g>
<path d="M155.008 217.607C129.753 145.235 109.085 128.548 12.4309 111C8.42355 111.73 4.29681 112.46 0.0166016 113.191C107.397 131.649 128.73 146.611 155.025 222C181.32 146.623 202.636 131.649 310.034 113.191C305.753 112.46 301.627 111.73 297.619 111C200.965 128.548 180.28 145.235 155.042 217.607H155.008Z" fill="#FF684B"/>
<g style="mix-blend-mode:multiply">
<path d="M108.25 104.656C131.249 104.656 149.893 91.5687 149.893 75.4247C149.893 59.2807 131.249 46.1934 108.25 46.1934C85.2514 46.1934 66.6074 59.2807 66.6074 75.4247C66.6074 91.5687 85.2514 104.656 108.25 104.656Z" fill="#FFDEB5"/>
</g>
<g style="mix-blend-mode:multiply">
<path d="M231.992 96.6531C248.255 85.2375 248.255 66.7293 231.992 55.3137C215.73 43.8982 189.363 43.8982 173.101 55.3137C156.839 66.7293 156.839 85.2375 173.101 96.6531C189.363 108.069 215.73 108.069 231.992 96.6531Z" fill="#FFDEB5"/>
</g>
<g style="mix-blend-mode:multiply">
<path d="M217.7 169.187C238.948 163.009 249.038 145.91 240.237 130.995C231.436 116.08 207.076 108.997 185.828 115.175C164.58 121.353 154.49 138.452 163.291 153.368C172.093 168.283 196.452 175.365 217.7 169.187Z" fill="#FFDEB5"/>
</g>
<g style="mix-blend-mode:multiply">
<path d="M148.695 145.678C151.884 129.69 136.005 114.914 113.229 112.676C90.4522 110.437 69.4032 121.583 66.2144 137.572C63.0255 153.56 78.9043 168.335 101.681 170.574C124.457 172.812 145.506 161.666 148.695 145.678Z" fill="#FFDEB5"/>
</g>
</svg>
