<svg fill="none" height="33" viewBox="0 0 38 33" width="38" xmlns="http://www.w3.org/2000/svg" xmlns:xlink="http://www.w3.org/1999/xlink"><clipPath id="a"><path d="m0 0h38v33h-38z"/></clipPath><g clip-path="url(#a)"><path d="m2.81437 20.8611 3.96625-10.0576 3.96628 10.0576zm24.32003 0 3.9662-10.0576 3.9663 10.0576h-7.9444zm-6.7807-12.75246h9.0013l-4.8331 12.23516c-.0713.1684-.1069.3368-.1069.5173 0 4.0062 4.1563 5.498 6.7806 5.498 2.6244 0 6.7806-1.4918 6.7806-5.498 0-.1805-.0356-.3489-.1068-.5173l-5.415-13.8232h-.0119l-.0712-.1564-.0357-.03609s-.0594-.10828-.1069-.1564h-.0118l-.1069-.12031s0 0-.0119 0c0 0 0 0 0-.01203l-.1543-.1203-.1307-.07219h-.0356l-.1662-.07218h-.1188-11.1506v-4.40321c0-.36092-.1425-.709806-.3919-.974479-.2494-.252643-.6056-.397011-.9619-.397011-.3562 0-.7006.144368-.9618.397011-.2494.252643-.3919.613559-.3919.974479v4.40321h-11.25753l-.16624.07218h-.03563l-.13062.07219-.15438.1203v.01203s0 0-.01188 0l-.10687.12031h-.01187s-.08313.09624-.10688.1564l-.03562.03609-.07125.1564h-.01188l-5.426875 13.8232c-.07125.1684-.095.3368-.106875.5173 0 4.0062 4.15625 5.498 6.78062 5.498 2.62438 0 6.78058-1.4918 6.78058-5.498 0-.1805-.0356-.3489-.1068-.5173l-4.82127-12.23516h9.01307v22.13636h-2.7193c-.3563 0-.7006.1444-.9619.397-.2612.2526-.3919.6136-.3919.9745s.1425.7098.3919.9745c.2494.2646.6056.397.9619.397h8.1462c.3563 0 .7007-.1444.9619-.397.2612-.2527.3919-.6136.3919-.9745s-.1425-.7098-.3919-.9745-.6056-.397-.9619-.397h-2.7194z" fill="#fff8f3"/></g></svg>