<svg fill="none" height="282" viewBox="0 0 393 282" width="393" xmlns="http://www.w3.org/2000/svg"><path d="m294.75 4.66113h-196.5l-98.25 136.32987 98.25 136.329h196.5l98.25-136.329z" fill="#4c4c4c"/><g fill="#ffdeb5"><path d="m234.268 282c16.241 0 30.374-29.247 37.768-72.457 7.393 43.21 21.526 72.457 37.768 72.457 23.877 0 43.222-63.135 43.222-140.99 0-77.8557-19.369-141.01-43.247-141.01-16.241 0-30.374 29.2467-37.768 72.4566-7.369-43.2099-21.502-72.4566-37.743-72.4566-16.242 0-30.375 29.2467-37.768 72.4566-7.394-43.2099-21.527-72.4566-37.768-72.4566-16.242 0-30.375 29.2467-37.768 72.4566-7.37-43.2099-21.5265-72.4566-37.7681-72.4566-23.8777 0-43.2223 63.1349-43.2223 140.99 0 77.856 19.3446 140.991 43.2223 140.991 16.2416 0 30.3741-29.247 37.7681-72.457 7.393 43.21 21.526 72.457 37.768 72.457 16.241 0 30.374-29.247 37.768-72.457 7.393 43.21 21.526 72.457 37.768 72.457z"/><path d="m183.167 72.4566c1.818-10.7005 4.073-20.5465 6.666-29.305-7.854-26.5862-18.884-43.1516-31.101-43.1516-2.255 0-4.485.582604-6.667 1.68955 13.382 6.75821 24.751 33.57745 31.102 70.76705z"/><path d="m76.5301 280.31c2.1817 1.107 4.4119 1.69 6.6664 1.69 12.2176 0 23.2475-16.546 31.1015-43.152-2.594-8.759-4.824-18.605-6.666-29.305-6.352 37.19-17.7207 64.009-31.1261 70.767z"/><path d="m107.656 72.4566c1.818-10.7005 4.073-20.5465 6.666-29.305-7.878-26.6056-18.9078-43.1516-31.1254-43.1516-2.2787 0-4.5089.582604-6.6663 1.68955 13.4054 6.75821 24.7507 33.57745 31.1257 70.76705z"/><path d="m339.669 140.99c0 70.457-15.853 128.853-36.531 139.32 2.157 1.088 4.387 1.69 6.642 1.69 23.877 0 43.222-63.135 43.222-140.99 0-77.8557-19.345-141.01-43.222-141.01-2.255 0-4.485.582605-6.642 1.68955 20.702 10.46745 36.531 68.86385 36.531 139.32045z"/><path d="m258.703 72.4566c1.818-10.7005 4.073-20.5465 6.667-29.305-7.855-26.5862-18.884-43.1516-31.102-43.1516-2.279 0-4.485.582604-6.666 1.68955 13.381 6.75821 24.75 33.57745 31.101 70.76705z"/><path d="m152.065 280.31c2.182 1.107 4.388 1.69 6.667 1.69 12.217 0 23.247-16.546 31.101-43.152-2.593-8.759-4.824-18.605-6.666-29.305-6.351 37.19-17.72 64.009-31.102 70.767z"/><path d="m227.602 280.31c2.181 1.107 4.387 1.69 6.666 1.69 12.218 0 23.247-16.546 31.102-43.152-2.594-8.759-4.825-18.605-6.667-29.305-6.351 37.19-17.72 64.009-31.101 70.767z"/></g><path d="m227.602 1.68955c-2.182-1.106946-4.388-1.68955-6.666-1.68955-12.218 0-23.248 16.546-31.102 43.1516 2.594 8.7585 4.824 18.6045 6.666 29.305 6.352-37.1896 17.721-64.00884 31.102-70.76705z" fill="#ff684b"/><path d="m296.472 282c2.278 0 4.508-.583 6.666-1.69-13.406-6.758-24.75-33.577-31.126-70.767-1.818 10.7-4.072 20.546-6.666 29.305 7.854 26.586 18.884 43.152 31.101 43.152z" fill="#ff684b"/><path d="m120.964 209.543c-1.818 10.7-4.072 20.546-6.666 29.305 7.854 26.586 18.884 43.152 31.101 43.152 2.279 0 4.485-.583 6.667-1.69-13.381-6.758-24.751-33.577-31.102-70.767z" fill="#ff684b"/><path d="m303.137 1.68955c-2.182-1.106946-4.412-1.68955-6.666-1.68955-12.218 0-23.248 16.546-31.102 43.1516 2.594 8.7585 4.824 18.6045 6.666 29.305 6.352-37.1896 17.721-64.00884 31.126-70.76705z" fill="#ff684b"/><path d="m39.9978 140.99c0-70.456 15.8295-128.833 36.5316-139.30045-2.1575-1.087525-4.3877-1.68955-6.6421-1.68955-23.8777 0-43.2223 63.1349-43.2223 140.99 0 77.856 19.3446 140.991 43.2223 140.991 2.2544 0 4.4846-.583 6.6421-1.69-20.7021-10.467-36.5316-68.864-36.5316-139.32z" fill="#ff684b"/><path d="m152.066 1.68955c-2.182-1.106946-4.388-1.68955-6.667-1.68955-12.217 0-23.247 16.546-31.101 43.1516 2.594 8.7585 4.824 18.6045 6.666 29.305 6.351-37.1896 17.721-64.00884 31.102-70.76705z" fill="#ff684b"/><path d="m196.5 209.543c-1.818 10.7-4.072 20.546-6.666 29.305 7.854 26.586 18.884 43.152 31.102 43.152 2.254 0 4.484-.583 6.666-1.69-13.381-6.758-24.75-33.577-31.102-70.767z" fill="#ff684b"/></svg>