<svg width="474" height="337" viewBox="0 0 474 337" fill="none" xmlns="http://www.w3.org/2000/svg">
<path d="M156.811 33.7832H69.9844V296.444H156.811V33.7832Z" fill="#FFDEB5"/>
<g style="mix-blend-mode:multiply">
<path d="M70.0098 33.7881L113.411 67.0535L156.812 33.7881" fill="#FFDEB5"/>
</g>
<path d="M280.426 33.7861H193.6V296.447H280.426V33.7861Z" fill="#FFDEB5"/>
<g style="mix-blend-mode:multiply">
<path d="M193.611 33.7803L237.012 67.0457L280.413 33.7803Z" fill="#FFDEB5"/>
</g>
<path d="M404.041 33.7852H317.215V296.446H404.041V33.7852Z" fill="#FFDEB5"/>
<g style="mix-blend-mode:multiply">
<path d="M317.215 33.7871L360.616 67.0525L404.017 33.7871Z" fill="#FFDEB5"/>
</g>
<g style="mix-blend-mode:multiply">
<path d="M474 183.811H0V322.526H474V183.811Z" fill="#FFDEB5"/>
</g>
<g style="mix-blend-mode:multiply">
<path d="M156.807 183.811H69.9805V196.201H156.807V183.811Z" fill="#FFDEB5"/>
</g>
<g style="mix-blend-mode:multiply">
<path d="M280.426 183.811H193.6V196.201H280.426V183.811Z" fill="#FFDEB5"/>
</g>
<g style="mix-blend-mode:multiply">
<path d="M404.045 183.811H317.219V196.201H404.045V183.811Z" fill="#FFDEB5"/>
</g>
<g style="mix-blend-mode:multiply">
<path d="M474 183.811H0V197.8H474V183.811Z" fill="#FFDEB5"/>
</g>
<path d="M474 322.546H0V336.535H474V322.546Z" fill="#FF684B"/>
</svg>
