<svg width="22" height="22" viewBox="0 0 22 22" fill="none" xmlns="http://www.w3.org/2000/svg">
<path id="Scale" d="M22 0.945565V7.23C22 7.74962 21.5785 8.17334 21.0566 8.17334C20.5347 8.17334 20.1131 7.75185 20.1131 7.23V3.2225L10.409 12.9257C10.2261 13.1086 9.98297 13.2022 9.74209 13.2022C9.50122 13.2022 9.26034 13.1108 9.07522 12.9257C8.70722 12.5577 8.70722 11.9601 9.07522 11.5921L18.7816 1.88667H14.7737C14.2541 1.88667 13.8303 1.46518 13.8303 0.943335C13.8303 0.42149 14.2518 0.00223011 14.7715 0.00223011H21.0566C21.5785 0.00223011 22 0.42372 22 0.945565ZM21.0566 11.3156C20.5369 11.3156 20.1131 11.7371 20.1131 12.2589V18.5433C20.1131 19.4086 19.4084 20.1156 18.5408 20.1156H3.45702C2.59165 20.1156 1.88463 19.4108 1.88463 18.5433V3.4589C1.88463 2.59361 2.58942 1.88667 3.45702 1.88667H9.74209C10.2618 1.88667 10.6855 1.46518 10.6855 0.943335C10.6855 0.42149 10.264 0 9.74209 0H3.45702C1.55008 0.00223011 0 1.55215 0 3.4589V18.5433C0 20.4501 1.55008 22 3.45702 22H18.543C20.4499 22 22 20.4501 22 18.5433V12.2589C22 11.7393 21.5785 11.3156 21.0566 11.3156Z" fill="#101010"/>
</svg>
