<svg fill="none" height="33" viewBox="0 0 37 33" width="37" xmlns="http://www.w3.org/2000/svg" xmlns:xlink="http://www.w3.org/1999/xlink"><clipPath id="a"><path d="m0 0h37v33h-37z"/></clipPath><g clip-path="url(#a)"><path d="m16.6987 33c-1.0519 0-2.0434-.414-2.7326-1.1325-.6288-.6332-1.0157-1.4612-1.1004-2.338-.8826-.0852-1.7049-.4749-2.3336-1.1203-.61669-.621-1.00362-1.4125-1.10035-2.2771-.83431-.0852-1.60817-.4627-2.21274-1.0594-1.1366-1.1447-1.39053-2.9225-.66504-4.3472l-3.6879-3.507c-3.83301-3.8602-3.83301-10.09488-.02419-13.9185 1.85-1.8631 4.29249-2.885978 6.90425-2.885978 2.61177 0 5.05427 1.010698 6.89217 2.861628l1.3663 1.33948 1.5598-1.57085c2.1523-1.99705 4.6432-3.04428 7.1945-3.04428 3.966 0 7.7385 2.5572 9.3951 6.35646 1.6444 3.76274.8706 7.81774-2.1281 11.12984l.1088.1096c1.5235 1.5344 1.5235 4.0185 0 5.5528-.665.6698-1.4994 1.0716-2.3941 1.1568-.0847.9011-.4716 1.7414-1.1245 2.3989-.6893.6941-1.5477 1.096-2.4667 1.169-.0967.889-.4958 1.7048-1.1124 2.3259-.7618.7671-1.7412 1.169-2.7811 1.169-1.0398 0-2.0192-.4019-2.7568-1.1447l-.2177-.2192-1.8621 1.8753c-.6892.7185-1.6807 1.1325-2.7326 1.1325zm.2661-9.0354c.3748 0 .7375.1461 1.0036.4262.266.28.4232.6332.4232 1.0107s-.1451.7428-.4232 1.0107l-1.971 1.9848c-.1934.1949-.3022.4506-.3022.7185s.1088.5236.2901.7184c.1814.1949.4353.2923.7134.2923.2782 0 .5321-.1096.7014-.2923l2.0313-2.0457c-.665-1.4491-.3385-3.3.7981-4.4081.3023-.3045.6408-.5602 1.0036-.7428-.8223-1.4856-.5683-3.507.6529-4.6882.7497-.755 1.7291-1.169 2.769-1.169.3869 0 .7617.0609 1.1245.1705.1934-.475.4836-.9255.8464-1.2908.7134-.755 1.717-1.169 2.781-1.169.9794 0 1.8984.3531 2.5876.9741 2.7931-2.8859 2.769-7.52542-.0726-10.37486-1.3905-1.40037-3.2284-2.16753-5.1872-2.16753s-3.8088.76716-5.1873 2.16753l-1.5356 1.54649 3.1438 3.06864c.786.74283 1.2575 1.82653 1.2575 2.99553 0 1.1569-.4353 2.2528-1.2212 3.0078-.7376.7671-1.8137 1.2177-2.9503 1.2177s-2.2128-.4506-2.9625-1.2299l-.9794-.9863-7.09769 7.1479c-.15719.1583-.24183.3775-.24183.5967s.08464.4262.24183.5723c.16928.1705.37484.2558.59249.2558.2176 0 .4353-.0853.5925-.2436l2.1039-2.1188c.266-.2679.6288-.4262 1.0036-.4262s.7376.1461 1.0036.4262.4232.6332.4232 1.0107-.1451.7428-.4232 1.0107l-1.9951 2.0092c-.3869.4019-.3869 1.0351 0 1.4369.1814.1949.4353.2923.7134.2923s.532-.1096.7013-.2923l1.983-1.997c.266-.2679.6288-.4262 1.0036-.4262zm6.0578 1.1324c-.2781 0-.5441.1096-.7376.3045-.2176.2192-.3265.4871-.3265.7671 0 .2801.1089.5602.3023.7428l1.2696 1.2786c.1935.1949.4595.3045.7376.3045s.5441-.1096.7376-.3045c.2297-.2313.3386-.487.3386-.7671s-.1089-.548-.3023-.755l-1.2575-1.2664c-.1935-.1949-.4595-.3045-.7376-.3045zm1.6565-5.4431c-.2781 0-.5441.1096-.7375.3044-.2177.2192-.3265.4871-.3265.7672 0 .28.1088.5601.3023.7428l3.1921 3.2147c.1935.1949.4595.3045.7376.3045s.532-.1096.7255-.3045c.2297-.2192.3386-.4871.3386-.7793 0-.2923-.1089-.5602-.3023-.7428l-3.1801-3.2148c-.1935-.1948-.4595-.3044-.7376-.3044zm4.7641-2.3015c-.2902 0-.5562.1096-.7376.3044-.2297.2192-.3386.4871-.3386.7794 0 .2922.1089.5601.3023.7428l1.9589 1.9727c.1934.1948.4594.3044.7375.3044s.5442-.1096.7376-.3044c.2298-.2314.3386-.4871.3386-.7672s-.1088-.548-.3023-.755l-1.9467-1.9605c-.1935-.1948-.4595-.3044-.7376-.3044zm-19.69707-14.06458c-1.85 0-3.57908.71845-4.88497 2.03358-1.30588 1.30295-2.01928 3.04428-2.01928 4.9074 0 1.8509.7134 3.6044 2.01928 4.9074l3.60327 3.4339 6.05787-6.1007c.4595-.4871 1.1245-.755 1.8258-.755s1.3663.2801 1.8258.7671l1.1729 1.1812c.3265.3288.6892.3897.931.3897.3628 0 .7134-.1461.9674-.4018.1692-.1705.3748-.475.3748-.9377 0-.3531-.1451-.6941-.4111-.9498l-6.5536-6.41734c-1.3059-1.32731-3.0471-2.04576-4.89708-2.04576z" fill="#fff8f3"/></g></svg>