<svg fill="none" height="32" viewBox="0 0 25 32" width="25" xmlns="http://www.w3.org/2000/svg"><g fill="#101010"><path d="m1.21269 32c-.664649 0-1.21269-.5371-1.21269-1.2v-14.8c0-.6629.548041-1.2 1.21269-1.2h2.49533l.0583-6.26286c0-4.78857 3.85961-8.53714 8.79198-8.53714 4.9324 0 8.6754 3.82857 8.6754 8.53714 0 .66286-.5481 1.2-1.2127 1.2-.6647 0-1.2127-.53714-1.2127-1.2 0-3.38285-2.7985-6.14857-6.25-6.14857-3.45149 0-6.35494 2.69714-6.35494 6.14857v6.20576l17.58394.0571c.6647 0 1.2127.5371 1.2127 1.2v14.8c0 .6629-.548 1.2-1.2127 1.2zm1.21268-2.4571 20.07933.0571.0583-12.3543-20.14929-.0571v12.3543z"/><path d="m14 23.5c0 .8284-.6716 1.5-1.5 1.5s-1.5-.6716-1.5-1.5.6716-1.5 1.5-1.5 1.5.6716 1.5 1.5z"/></g></svg>