<svg fill="none" height="26" viewBox="0 0 43 26" width="43" xmlns="http://www.w3.org/2000/svg" xmlns:xlink="http://www.w3.org/1999/xlink"><clipPath id="a"><path d="m0 0h43v26h-43z"/></clipPath><g clip-path="url(#a)" fill="#fff"><path d="m1.58269 8.44933c-.72546 0-1.319018-.59877-1.319018-1.3306s.593558-1.3306 1.319018-1.3306h8.70551v-3.12692h-8.70551c-.72546 0-1.319018-.59877-1.319018-1.33061 0-.731828.593558-1.3306 1.319018-1.3306h39.83431c.7255 0 1.3191.598772 1.3191 1.3306 0 .73184-.5936 1.33061-1.3191 1.33061h-8.7055v3.14022h8.7055c.7255 0 1.3191.59877 1.3191 1.33061 0 .73183-.5936 1.3306-1.3191 1.3306h-39.83431zm28.49081-2.6612v-3.12692h-7.2546v3.14022h7.2546zm-9.8927 0v-3.12692h-7.2546v3.14022h7.2546z"/><path d="m29.4666 25.9995c-.7254 0-1.319-.5987-1.319-1.3306v-3.3132c0-3.699-2.981-6.7062-6.6478-6.7062-3.6669 0-6.6479 3.0072-6.6479 6.7062v3.3132c0 .7319-.5936 1.3306-1.319 1.3306-.7255 0-1.319-.5987-1.319-1.3306v-3.3132c0-5.1627 4.1681-9.3674 9.2859-9.3674 5.1177 0 9.2858 4.2047 9.2858 9.3674v3.3132c0 .7319-.5935 1.3306-1.319 1.3306z"/><path d="m8.37577 22.5669c-.77822 0-1.41135-.6386-1.41135-1.4237v-.6919c0-3.087-2.49295-5.6019-5.55307-5.6019-.778221 0-1.41135-.6386-1.41135-1.4237s.633129-1.4237 1.41135-1.4237c4.61657 0 8.37577 3.7922 8.37577 8.4493v.6919c0 .7851-.63313 1.4237-1.41135 1.4237z"/><path d="m34.6242 22.5669c.7783 0 1.4114-.6386 1.4114-1.4237v-.6919c0-3.087 2.4929-5.6019 5.5531-5.6019.7782 0 1.4113-.6386 1.4113-1.4237s-.6331-1.4237-1.4113-1.4237c-4.6166 0-8.3758 3.7922-8.3758 8.4493v.6919c0 .7851.6331 1.4237 1.4113 1.4237z"/></g></svg>