<svg fill="none" height="32" viewBox="0 0 28 32" width="28" xmlns="http://www.w3.org/2000/svg"><path d="m14 32c-.2208 0-.4286-.0448-.6234-.1343l-12.649327-5.6391c-.454546-.2014-.727273-.593-.727273-1.0294v-6.2322c0-.4363.272727-.8279.727273-1.0293l4.337667-1.9357-4.337667-1.9357c-.454546-.2014-.727273-.593-.727273-1.0293v-6.2322c0-.43637.272727-.82798.727273-1.02937l12.649327-5.639164c.1948-.0895108.4026-.134266.6234-.134266s.4286.0447552.6234.134266l12.6493 5.639164c.4546.20139.7273.593.7273 1.02937v6.2322c0 .4363-.2727.8279-.7273 1.0293l-4.3376 1.9357 4.3376 1.9357c.4546.2014.7273.593.7273 1.0293v6.2322c0 .4364-.2727.828-.7273 1.0294l-12.6493 5.6391c-.1948.0895-.4026.1343-.6234.1343zm0-2.4615 11.2987-5.0462v-3.6252l-10.6883 4.7665c-.1818.0895-.4026.1342-.6234.1342s-.4286-.0447-.6234-.1342l-10.68828-4.7665v3.6252l11.31168 5.0462zm0-6.2322 9.7273-4.3413-3.7273-1.6559-5.3766 2.3944c-.1948.0895-.4026.1343-.6234.1343s-.4286-.0448-.6234-.1343l-5.3766-2.3944-3.72727 1.6559zm0-5.9413 11.2987-5.0349v-3.6252l-10.6883 4.7664c-.1948.0895-.4026.1343-.6234.1343s-.4286-.0448-.6234-.1343l-10.67529-4.7664v3.6252zm0-6.2321 9.7143-4.34129-9.7143-4.34126-9.72727 4.34126z" fill="#101010"/></svg>