<svg fill="none" height="34" viewBox="0 0 23 34" width="23" xmlns="http://www.w3.org/2000/svg"><path clip-rule="evenodd" d="m12.508.533613c-.2283-.334111-.6053-.53367066-1.008-.53361299-.4028.0000577-.7797.19972499-1.008.53390199l-10.260453 15.025098c-.077191.1077-.1358593.2265-.1748276.3512-.0202488.0647-.0351271.1309-.0445339.1978-.0345836.2454.0038193.5024.1232335.7357.01806.0354.037758.0698.059001.103l10.26948 16.4762c.2238.3591.6153.577 1.0363.577s.8124-.2179 1.0362-.577l10.2766-16.4875c.132-.2118.1921-.4484.187-.6809-.0031-.2411-.0766-.4791-.2157-.6825l-3.3571-4.9079c-.3832-.5603-1.145-.70165-1.7015-.3157-.5564.3859-.6968 1.153-.3135 1.7133l2.4542 3.5879-8.3667 2.9995-8.36544-2.9924 8.36614-12.25109 2.8774 4.21092c.383.5605 1.1447.70224 1.7013.3166.5567-.38565.6974-1.15264.3144-1.71314zm6.3666 18.085687-6.9641 2.4977c-.2652.0951-.5547.0952-.8199.0003l-6.95952-2.4894 7.36912 11.8228z" fill="#101010" fill-rule="evenodd"/></svg>