<svg fill="none" height="30" viewBox="0 0 30 30" width="30" xmlns="http://www.w3.org/2000/svg"><path d="m30 1.28941v8.56969c0 .7086-.5748 1.2864-1.2865 1.2864s-1.2865-.5748-1.2865-1.2864v-5.46478l-13.233 13.23158c-.2494.2494-.5809.3771-.9093.3771-.3285 0-.657-.1246-.9094-.3771-.5018-.5017-.5018-1.3167 0-1.8185l13.236-13.23467h-5.4653c-.7087 0-1.2865-.57476-1.2865-1.28636 0-.711611.5748-1.28332895 1.2834-1.28332895h8.5706c.7117 0 1.2865.57475895 1.2865 1.28636895zm-1.2865 14.14089c-.7086 0-1.2865.5748-1.2865 1.2864v8.5697c0 1.1799-.9611 2.1439-2.1442 2.1439h-20.56869c-1.18005 0-2.14416-.961-2.14416-2.1439v-20.56972c0-1.17993.96107-2.14395 2.14416-2.14395h8.57059c.7086 0 1.2865-.57476 1.2865-1.28636 0-.711611-.5748-1.28637-1.2865-1.28637h-8.57059c-2.60036.00304105-4.71411 2.11657-4.71411 4.71668v20.56972c0 2.6001 2.11375 4.7136 4.71411 4.7136h20.57179c2.6004 0 4.7141-2.1135 4.7141-4.7136v-8.5697c0-.7086-.5748-1.2864-1.2865-1.2864z" fill="#101010"/></svg>