<svg width="17" height="14" viewBox="0 0 17 14" fill="none" xmlns="http://www.w3.org/2000/svg">
<path d="M16.8201 10.3901C16.6901 10.0701 16.3301 9.91506 16.0101 10.0401C15.6901 10.1651 15.5351 10.5301 15.6601 10.8501C15.8251 11.2601 15.7701 11.7251 15.5151 12.0951C15.2651 12.4651 14.8601 12.6801 14.4051 12.6801H3.59514C3.10014 12.6801 2.66514 12.4251 2.42514 11.9901C2.18514 11.5601 2.19514 11.0501 2.45514 10.6301L7.86014 1.88506C8.10514 1.48506 8.53014 1.25006 9.00014 1.25006C9.47014 1.25006 9.89514 1.49006 10.1401 1.88506L14.1401 8.36006C14.3201 8.65506 14.7051 8.74506 15.0001 8.56506C15.2951 8.38506 15.3851 8.00006 15.2051 7.70506L11.2051 1.23006C10.7301 0.460061 9.90514 6.10352e-05 9.00014 6.10352e-05C8.09514 6.10352e-05 7.27014 0.460061 6.79514 1.23006L1.39014 9.98006C0.890135 10.7901 0.865135 11.7751 1.33014 12.6051C1.79514 13.4351 2.64014 13.9351 3.59014 13.9351H14.4001C15.2751 13.9351 16.0551 13.5201 16.5451 12.8001C17.0301 12.0851 17.1301 11.1851 16.8151 10.3901H16.8201Z" fill="currentColor"/>
<path fill-rule="evenodd" clip-rule="evenodd" d="M9.00014 8.54292C8.63049 8.54292 8.33049 8.24292 8.33049 7.87328L8.3305 5.25004C8.3305 4.88039 8.6305 4.58039 9.00014 4.58039C9.36978 4.58039 9.66978 4.88039 9.66978 5.25004L9.66978 7.87328C9.66978 8.24292 9.36978 8.54292 9.00014 8.54292Z" fill="currentColor"/>
<path d="M9.00014 9.41076C8.6303 9.41076 8.33049 9.71057 8.33049 10.0804C8.33049 10.4502 8.6303 10.75 9.00014 10.75C9.36997 10.75 9.66978 10.4502 9.66978 10.0804C9.66978 9.71057 9.36997 9.41076 9.00014 9.41076Z" fill="currentColor"/>
</svg>
