<svg fill="none" height="20" viewBox="0 0 20 20" width="20" xmlns="http://www.w3.org/2000/svg"><g fill="#000"><path d="m2.36084 9.08829c-1.30518 0-2.36084-1.05566-2.36084-2.36084v-4.36661c0-1.30518 1.05566-2.36084 2.36084-2.36084h4.3858c1.30518 0 2.36085 1.05566 2.36085 2.36084v4.36661c0 1.30518-1.05567 2.36084-2.36085 2.36084zm0-6.94817c-.12476 0-.22072.09596-.22072.22072v4.36661c0 .12476.09596.22073.22072.22073h4.3858c.12476 0 .22073-.09597.22073-.22073v-4.36661c0-.12476-.09597-.22072-.22073-.22072z"/><path d="m13.2534 9.08829c-1.3052 0-2.3609-1.05566-2.3609-2.36084v-4.36661c0-1.30518 1.0557-2.36084 2.3609-2.36084h4.3858c1.3051 0 2.3608 1.05566 2.3608 2.36084v4.36661c0 1.30518-1.0557 2.36084-2.3608 2.36084zm0-6.94817c-.1248 0-.2208.09596-.2208.22072v4.36661c0 .12476.096.22073.2208.22073h4.3858c.1247 0 .2207-.09597.2207-.22073v-4.36661c0-.12476-.096-.22072-.2207-.22072z"/><path d="m2.36084 20c-1.30518 0-2.36084-1.0556-2.36084-2.3608v-4.3666c0-1.3052 1.05566-2.3609 2.36084-2.3609h4.3858c1.30518 0 2.36085 1.0557 2.36085 2.3609v4.3666c0 1.3052-1.05567 2.3608-2.36085 2.3608zm0-6.9481c-.12476 0-.22072.0959-.22072.2207v4.3666c0 .1247.09596.2207.22072.2207h4.3858c.12476 0 .22073-.096.22073-.2207v-4.3666c0-.1248-.09597-.2207-.22073-.2207z"/><path d="m13.2534 20c-1.3052 0-2.3609-1.0556-2.3609-2.3608v-4.3666c0-1.3052 1.0557-2.3609 2.3609-2.3609h4.3858c1.3051 0 2.3608 1.0557 2.3608 2.3609v1.0557c0 .595-.4798 1.0748-1.0749 1.0748-.595 0-1.0748-.4798-1.0748-1.0748v-1.0557c0-.1248-.096-.2207-.2207-.2207h-4.3858c-.1248 0-.2208.0959-.2208.2207v4.3666c0 .1247.096.2207.2208.2207h4.3858c.1247 0 .2207-.096.2207-.2207v-.691c0-.595.4798-1.0748 1.0748-1.0748.5951 0 1.0749.4798 1.0749 1.0748v.691c0 1.3052-1.0557 2.3608-2.3608 2.3608z"/></g></svg>