<svg width="50" height="43" viewBox="0 0 50 43" fill="none" xmlns="http://www.w3.org/2000/svg">
<g id="Frame 3">
<g id="Group">
<path id="Vector" d="M-1.40518 66.5339C-1.48492 66.8777 49.9021 66.362 49.9021 66.362C49.9021 66.362 49.4414 51.5329 37.2946 44.7562C39.7842 40.8205 35.6909 38.5676 31.0484 37.9434L31.5711 42.6662C31.5711 42.6662 31.7749 44.1772 30.8978 44.7653C29.7814 45.3624 27.5576 45.86 24.4124 45.8058L21.2051 44.6477L19.6015 43.4262L19.504 42.6662L19.947 37.9434L14.8615 39.0019L11.9466 41.1372L11.3973 43.6253L12.7351 46.0953C12.7351 46.0953 2.35139 51.2434 -1.40518 66.5339Z" fill="#FFDEB5"/>
<path id="Vector_2" d="M23.5887 50.6184C23.5887 50.6184 23.5621 50.6184 23.5533 50.6184C13.0544 48.5736 11.0521 45.3255 11.2204 42.9641C11.5571 38.2412 19.6992 37.7345 20.0448 37.7164C20.1688 37.7074 20.2397 37.7979 20.2486 37.9064C20.2486 38.015 20.1688 38.1055 20.0625 38.1145C19.9828 38.1145 11.9115 38.6212 11.6102 42.9912C11.4507 45.1988 13.4176 48.2389 23.633 50.2293C23.7393 50.2474 23.8102 50.356 23.7836 50.4646C23.7659 50.5641 23.6862 50.6274 23.5976 50.6274L23.5887 50.6184Z" fill="#010101"/>
<path id="Vector_3" d="M27.3094 50.9535C27.2296 50.9535 27.1588 50.8992 27.1233 50.8178C27.0879 50.7182 27.141 50.6006 27.2385 50.5644C27.3448 50.5282 37.6399 46.7463 37.9943 42.7201C38.0652 41.9511 37.8437 41.2634 37.3476 40.6573C35.5756 38.513 30.8887 38.1149 30.8356 38.1058C30.7293 38.1058 30.6495 37.9972 30.6584 37.8887C30.6584 37.7801 30.7647 37.6987 30.871 37.7077C31.0659 37.7258 35.7705 38.133 37.6488 40.3949C38.2158 41.0825 38.4639 41.8696 38.393 42.7473C38.0209 47.0268 27.8144 50.7725 27.3803 50.9354C27.3625 50.9354 27.336 50.9444 27.3182 50.9444L27.3094 50.9535Z" fill="#010101"/>
<path id="Vector_4" d="M20.1683 44.2314C20.1683 44.2314 20.0797 44.2133 20.0443 44.1862C20.0177 44.1681 17.5281 42.1414 14.8613 42.6752C14.755 42.6933 14.6575 42.63 14.6309 42.5214C14.6132 42.4128 14.6752 42.3133 14.7816 42.2862C17.6344 41.7071 20.1772 43.7881 20.2924 43.8786C20.3721 43.9509 20.3898 44.0686 20.3189 44.159C20.2835 44.2043 20.2215 44.2314 20.1683 44.2314Z" fill="#010101"/>
<path id="Vector_5" d="M31.3935 44.7012C31.3314 44.7012 31.2783 44.6741 31.234 44.6198C31.172 44.5293 31.1897 44.4117 31.2783 44.3393C31.3846 44.2579 33.8211 42.4303 35.8588 42.6112C35.9651 42.6112 36.0449 42.7198 36.036 42.8284C36.036 42.9369 35.9297 43.0184 35.8234 43.0093C33.9362 42.8555 31.5352 44.6469 31.5086 44.665C31.4732 44.6922 31.4289 44.7012 31.3935 44.7012Z" fill="#010101"/>
</g>
<g id="Group_2">
<g id="Group_3">
<path id="Vector_6" d="M20.0527 39.2638C20.0527 39.2638 29.1341 40.2862 30.4808 34.5228V33.6C30.4808 33.6 24.4118 35.1833 20.6198 33.3828L20.0527 39.2638Z" fill="#010101"/>
<path id="Vector_7" d="M26.2372 46.1309C24.8285 46.1309 23.4286 45.8776 22.1528 45.398C21.3111 45.0814 20.6023 44.6652 20.0442 44.1766L19.9822 44.1314C19.6012 43.8147 19.3974 43.5976 19.4151 43.3985C19.4151 43.3352 20.248 33.1113 20.248 33.1113L20.6378 33.1475C19.9379 41.8423 19.8227 43.1995 19.805 43.4166C19.8315 43.4709 19.929 43.5795 20.2302 43.8328L20.2923 43.8871C20.815 44.3485 21.4795 44.7376 22.2769 45.0361C23.721 45.579 25.3335 45.8233 26.9283 45.7237C28.6559 45.6152 30.0735 44.9909 31.3493 44.3033L30.1532 33.4189L30.5431 33.3737L31.7746 44.5295L31.6594 44.5928C30.3127 45.3166 28.8066 46.0042 26.9637 46.1218C26.7245 46.1399 26.4764 46.1399 26.2372 46.1399V46.1309Z" fill="#010101"/>
</g>
<g id="Group_4">
<path id="Vector_8" d="M13.284 11.8128C12.8587 14.0023 12.7347 16.2371 12.8587 18.4537C12.9828 20.6704 13.3549 22.878 14.0637 24.968C14.7725 27.049 15.8268 29.0395 17.3329 30.6138C18.8303 32.1881 20.7971 33.2738 22.9058 33.7171C25.0056 34.1423 27.2294 34.1514 29.3026 33.5723C30.3392 33.2738 31.3226 32.8123 32.2086 32.1971C33.0946 31.5819 33.8743 30.8038 34.5387 29.9442C35.8766 28.2161 36.736 26.1352 37.2941 23.9909C37.8612 21.8466 38.127 19.6209 38.1978 17.3952C38.2156 19.6209 38.0029 21.8647 37.4891 24.0361C36.9663 26.1985 36.1335 28.3338 34.7868 30.1342C33.4578 31.9438 31.5353 33.3009 29.4 33.9162C28.3369 34.2328 27.2294 34.3776 26.1219 34.3957C25.0144 34.4138 23.9069 34.3233 22.826 34.079C20.6554 33.6176 18.6265 32.4776 17.0849 30.849C15.5344 29.2204 14.4801 27.1757 13.789 25.0495C13.0979 22.9142 12.7613 20.6795 12.6727 18.4537C12.6018 16.219 12.7701 13.9751 13.2751 11.8037L13.284 11.8128Z" fill="#010101"/>
<g id="Group_5">
<g id="Group_6">
<path id="Vector_9" d="M38.0387 20.227C38.3754 19.657 38.8095 19.1594 39.3322 18.7432C39.855 18.3451 40.5106 18.0556 41.2105 18.1008C41.5561 18.1189 41.8927 18.2185 42.194 18.3813C42.4952 18.5351 42.7964 18.7704 42.9914 19.0599C43.4078 19.657 43.5052 20.3989 43.4432 21.0775C43.2926 22.4528 42.4775 23.7285 41.2991 24.389C40.7144 24.7328 40.0588 24.9047 39.4031 24.959C38.7475 24.9952 38.0919 24.9047 37.4717 24.7147C38.1096 24.8232 38.7564 24.8685 39.3854 24.769C40.0145 24.6875 40.6258 24.4794 41.1485 24.1356C42.2028 23.4571 42.9293 22.2899 43.0534 21.0413C43.1154 20.4261 43.0268 19.7747 42.6901 19.277C42.5218 19.0237 42.3003 18.8337 42.0345 18.6889C41.7687 18.5442 41.4763 18.4356 41.1839 18.4085C40.5815 18.3361 39.9613 18.5532 39.4386 18.9061C38.907 19.2499 38.4374 19.7204 38.0387 20.2361V20.227Z" fill="#010101"/>
<path id="Vector_10" d="M37.6846 22.6881C37.8618 22.29 38.1187 21.9281 38.4022 21.6024C38.6946 21.2766 39.0313 20.9962 39.3945 20.7519C39.7666 20.5166 40.1742 20.3447 40.5995 20.2452C41.0247 20.1366 41.4766 20.1547 41.893 20.2452C41.4677 20.3266 41.069 20.399 40.6881 20.5438C40.3071 20.6976 39.9438 20.8695 39.6072 21.0957C38.9161 21.539 38.3048 22.0909 37.6934 22.6971L37.6846 22.6881Z" fill="#010101"/>
</g>
<g id="Group_7">
<path id="Vector_11" d="M12.8148 18.0467C12.4073 17.54 11.9377 17.0876 11.3884 16.7709C10.8568 16.4362 10.2366 16.2552 9.63417 16.3548C9.04942 16.4724 8.46467 16.7709 8.15458 17.2686C7.83562 17.7662 7.74702 18.4176 7.8179 19.0238C7.95966 20.2633 8.68617 21.4214 9.74049 22.091C10.7948 22.7695 12.1415 22.8872 13.3907 22.661C12.7794 22.851 12.1238 22.9414 11.4682 22.9052C10.8214 22.86 10.1658 22.6881 9.58101 22.3533C8.41151 21.7019 7.58755 20.4443 7.42807 19.069C7.34833 18.3905 7.44579 17.6576 7.83562 17.0514C8.03054 16.7528 8.31405 16.5086 8.61529 16.3548C8.91652 16.1919 9.24434 16.0743 9.58101 16.0381C10.2721 15.9657 10.9366 16.21 11.477 16.59C12.0086 16.9881 12.4605 17.4767 12.7971 18.0376L12.8148 18.0467Z" fill="#010101"/>
<path id="Vector_12" d="M8.68652 18.2459C9.13837 18.1373 9.60795 18.1463 10.0687 18.2278C10.5294 18.3092 10.9812 18.4811 11.3888 18.7163C11.7963 18.9606 12.1684 19.2682 12.4608 19.6483C12.7709 20.0102 12.9835 20.4444 13.1342 20.8787C12.8329 20.5168 12.5671 20.164 12.2393 19.8563C11.9292 19.5397 11.5748 19.2773 11.1939 19.0602C10.4496 18.6078 9.59023 18.3544 8.68652 18.2459Z" fill="#010101"/>
</g>
</g>
<path id="Vector_13" d="M38.0392 20.2272L38.1278 16.8524C38.1278 16.8524 34.956 16.1738 35.0092 10.4647C35.0092 10.4647 32.0323 6.6014 29.1351 6.6014C26.2379 6.6014 26.5746 10.0124 26.5746 10.0124C26.5746 10.0124 25.3785 8.77283 25.4494 7.3433C25.4494 7.3433 22.0738 5.56092 19.1678 8.38378C19.1678 8.38378 18.583 14.0657 12.8685 14.88L12.7267 17.911L11.9736 16.9881L10.8484 16.3638C9.60804 10.7724 12.7356 0.394711 23.0484 0.150424C35.3813 -0.1391 36.3116 8.21188 36.3116 8.21188C42.859 8.21188 38.8543 19.241 38.8543 19.241L38.0392 20.2181V20.2272Z" fill="#010101"/>
<g id="Group_8">
<g id="Group_9">
<path id="Vector_14" d="M20.541 20.8786C20.9422 20.8786 21.2675 20.4371 21.2675 19.8924C21.2675 19.3478 20.9422 18.9062 20.541 18.9062C20.1397 18.9062 19.8145 19.3478 19.8145 19.8924C19.8145 20.4371 20.1397 20.8786 20.541 20.8786Z" fill="#010101"/>
<path id="Vector_15" d="M29.8789 21.2224C30.2801 21.2224 30.6054 20.7809 30.6054 20.2362C30.6054 19.6915 30.2801 19.25 29.8789 19.25C29.4776 19.25 29.1523 19.6915 29.1523 20.2362C29.1523 20.7809 29.4776 21.2224 29.8789 21.2224Z" fill="#010101"/>
<path id="Vector_16" d="M25.245 19.5032C25.2982 20.046 25.2185 20.607 25.0324 21.1227C24.8552 21.6475 24.5717 22.1361 24.2704 22.5703C23.9692 22.9956 23.6946 23.4389 23.7743 23.9003C23.854 24.3618 24.2261 24.8051 24.7577 24.9046C24.2173 24.968 23.6414 24.5608 23.4819 23.9727C23.3845 23.6742 23.4376 23.3484 23.5439 23.077C23.6503 22.8056 23.8097 22.5703 23.9604 22.3442C24.5717 21.4937 25.059 20.5708 25.2539 19.4941L25.245 19.5032Z" fill="#010101"/>
<path id="Vector_17" d="M21.5508 24.4703C21.7103 24.8955 21.8963 25.3027 22.1355 25.6827C22.3659 26.0627 22.6405 26.4065 22.9595 26.696C23.2784 26.9855 23.6328 27.2298 24.0315 27.3565C24.129 27.4017 24.2264 27.4289 24.3328 27.4469C24.4391 27.465 24.5365 27.5012 24.6429 27.5193C24.8555 27.5284 25.0593 27.5736 25.2719 27.5465C26.1136 27.5284 26.8933 27.1031 27.5134 26.4879C27.8324 26.1893 28.0982 25.8365 28.3374 25.4565C28.5855 25.0855 28.7981 24.6874 28.993 24.2803C28.7627 25.1579 28.3374 25.9993 27.7261 26.696C27.416 27.0398 27.0616 27.3565 26.6452 27.5736C26.2288 27.7817 25.7681 27.9355 25.2896 27.9355C24.3593 27.9898 23.3936 27.6008 22.7557 26.9131C22.109 26.2346 21.7103 25.366 21.5508 24.4703Z" fill="#010101"/>
<g id="Group_10" opacity="0.4">
<path id="Vector_18" d="M33.9898 23.9729C33.9898 25.3391 32.9089 26.4429 31.5711 26.4429C30.2332 26.4429 29.1523 25.3391 29.1523 23.9729C29.1523 22.6067 30.2332 21.5029 31.5711 21.5029C32.9089 21.5029 33.9898 22.6067 33.9898 23.9729Z" fill="#E992A2"/>
</g>
<g id="Group_11" opacity="0.4">
<path id="Vector_19" d="M20.9127 23.9729C20.9127 25.3391 19.8318 26.4429 18.4939 26.4429C17.1561 26.4429 16.0752 25.3391 16.0752 23.9729C16.0752 22.6067 17.1561 21.5029 18.4939 21.5029C19.8318 21.5029 20.9127 22.6067 20.9127 23.9729Z" fill="#E992A2"/>
</g>
<path id="Vector_20" d="M17.9531 16.5718L21.2578 15.5404C21.2578 15.5404 19.7871 14.0113 17.9531 16.5718Z" fill="#010101"/>
<path id="Vector_21" d="M31.1284 17.4492L28.6211 16.2368C28.6211 16.2368 29.9678 14.7621 31.1284 17.4492Z" fill="#010101"/>
</g>
<g id="Group_12">
<path id="Vector_22" d="M23.4734 22.0637H15.5615V16.7075H23.4734V22.0637ZM15.8539 21.7652H23.181V17.0061H15.8539V21.7652Z" fill="#010101"/>
<path id="Vector_23" d="M34.362 22.2356H26.4502V16.8794H34.362V22.2356ZM26.7426 21.937H34.0697V17.178H26.7426V21.937Z" fill="#010101"/>
<path id="Vector_24" d="M26.4496 19.6931C25.2978 18.4445 23.4461 19.5393 23.4195 19.5574L23.2246 19.2135C23.2246 19.2135 25.3687 17.9469 26.7331 19.4216L26.4496 19.6931Z" fill="#010101"/>
<path id="Vector_25" d="M12.4862 16.9356L12.2393 17.2437L15.5919 20.0459L15.8388 19.7379L12.4862 16.9356Z" fill="#010101"/>
<path id="Vector_26" d="M38.6447 18.3183L34.2285 20.0767L34.3701 20.4476L38.7864 18.6892L38.6447 18.3183Z" fill="#010101"/>
</g>
</g>
</g>
</g>
</g>
</svg>
