<svg width="35" height="34" viewBox="0 0 35 34" fill="none" xmlns="http://www.w3.org/2000/svg">
<path d="M33.9981 21.3871C33.9981 18.1355 30.6576 15.2871 25.2302 13.8379C25.1975 11.5111 23.6143 9.4951 21.3649 8.91099C22.0108 8.08053 22.3963 7.03741 22.3963 5.90287C22.3963 3.71751 20.9678 1.86702 18.9953 1.23384C18.9953 1.23384 18.9943 1.23384 18.9934 1.23384C18.9251 1.2117 18.8559 1.19246 18.7867 1.17321C18.7771 1.17033 18.7684 1.16744 18.7588 1.16551C18.6992 1.14915 18.6386 1.13568 18.5781 1.12221C18.5589 1.11836 18.5406 1.11355 18.5214 1.10874C18.4695 1.09815 18.4175 1.08853 18.3656 1.07891C18.3368 1.0741 18.3089 1.06832 18.2801 1.06351C18.2359 1.05678 18.1907 1.051 18.1455 1.04427C18.109 1.03945 18.0724 1.03464 18.0359 1.02983C17.9965 1.02598 17.9571 1.02213 17.9177 1.01925C17.8754 1.0154 17.8321 1.01155 17.7898 1.00962C17.7533 1.0077 17.7168 1.00577 17.6812 1.00481C17.636 1.00289 17.5908 1.00192 17.5447 1.00096C17.5293 1.00096 17.5139 1 17.4995 1C17.4774 1 17.4553 1.00096 17.4342 1.00192C17.3919 1.00192 17.3486 1.00385 17.3063 1.00481C17.264 1.00674 17.2227 1.00866 17.1804 1.01155C17.1448 1.01347 17.1102 1.01636 17.0746 1.01925C17.0256 1.02309 16.9775 1.02791 16.9295 1.03368C16.9026 1.03657 16.8756 1.04042 16.8487 1.04427C16.7939 1.05196 16.7391 1.05966 16.6843 1.06832C16.6642 1.07121 16.6449 1.07506 16.6247 1.07891C16.5651 1.08949 16.5055 1.10104 16.4459 1.11451C16.4306 1.1174 16.4162 1.12125 16.4008 1.1251C16.3383 1.13953 16.2768 1.15493 16.2152 1.17129C16.2008 1.17514 16.1874 1.17899 16.1729 1.18284C16.1114 1.20016 16.0509 1.21844 15.9903 1.23769C15.973 1.24346 15.9567 1.24923 15.9394 1.25501C15.8836 1.27425 15.8278 1.2935 15.7721 1.31371C15.7481 1.32333 15.724 1.33295 15.699 1.34258C15.6519 1.36086 15.6058 1.3801 15.5596 1.39935C15.525 1.41378 15.4904 1.43014 15.4568 1.44554C15.4222 1.4619 15.3866 1.4773 15.352 1.49462C15.3068 1.51675 15.2616 1.53984 15.2174 1.5639C15.1944 1.57545 15.1713 1.58796 15.1492 1.59951C15.0953 1.62934 15.0425 1.66013 14.9896 1.69189C14.9761 1.69959 14.9636 1.70728 14.9502 1.71498C14.8915 1.75059 14.8339 1.78812 14.7772 1.82565C14.7695 1.83046 14.7627 1.83527 14.755 1.84008C14.6964 1.87953 14.6387 1.92091 14.5811 1.96325C14.5753 1.96806 14.5686 1.97191 14.5628 1.97672C14.508 2.0181 14.4532 2.06044 14.4003 2.10471C14.3917 2.11145 14.383 2.11818 14.3753 2.12588C14.3263 2.1663 14.2782 2.20864 14.2311 2.25098C14.2177 2.26349 14.2042 2.27503 14.1908 2.28754C14.1494 2.32507 14.11 2.36357 14.0696 2.40302C14.0495 2.42226 14.0302 2.44247 14.01 2.46268C13.9774 2.4954 13.9456 2.52908 13.9139 2.56372C13.887 2.59259 13.8611 2.62146 13.8351 2.65129C13.8111 2.6792 13.787 2.70614 13.763 2.73501C13.7303 2.7735 13.6986 2.81199 13.6678 2.85145C13.6573 2.86492 13.6467 2.87743 13.6361 2.88994C13.6246 2.90437 13.614 2.91977 13.6025 2.9342C13.588 2.95345 13.5727 2.9727 13.5582 2.99194C13.5256 3.03621 13.4938 3.08047 13.4631 3.1257C13.4439 3.15361 13.4256 3.18151 13.4073 3.20942C13.3919 3.23348 13.3766 3.25657 13.3612 3.28063C13.3275 3.33452 13.2939 3.3884 13.2622 3.44422C13.2554 3.45576 13.2487 3.46635 13.2429 3.4779C12.8354 4.19288 12.6018 5.02045 12.6018 5.90287C12.6018 7.03741 12.9872 8.08053 13.6342 8.91195C11.3857 9.49606 9.80346 11.5121 9.77078 13.8379C4.34047 15.2862 1 18.1345 1 21.3871C1 23.7052 2.67264 25.829 5.71703 27.4062C5.94678 28.1895 6.36782 28.9026 6.94267 29.4809C5.67474 30.1632 4.74998 31.3458 4.39334 32.7421V33H6.57354V32.7421C7.07341 31.6374 8.17216 30.9282 9.38338 30.9282H11.4453C12.6566 30.9282 13.7553 31.6384 14.2561 32.7421V33H16.4363V32.7421C16.123 31.5171 15.3703 30.4509 14.3225 29.7455C15.3703 29.8485 16.4363 29.9005 17.4995 29.9005C18.5627 29.9005 19.6288 29.8485 20.6766 29.7455C19.6288 30.4509 18.8761 31.5171 18.5627 32.7421V33H20.7439V32.7421C21.2437 31.6384 22.3434 30.9282 23.5547 30.9282H25.6166C26.8278 30.9282 27.9266 31.6384 28.4265 32.7421V33H30.6067V32.7421C30.25 31.3458 29.3253 30.1622 28.0573 29.4799C28.6322 28.9006 29.0532 28.1876 29.283 27.4052C32.3274 25.829 34 23.7052 34 21.388L33.9981 21.3871ZM14.6531 5.90287C14.6531 5.53816 14.7224 5.19077 14.8464 4.87033H14.8598C15.4289 3.40957 17.0737 2.68786 18.5329 3.2585C19.9921 3.82913 20.7131 5.47465 20.1431 6.93541C19.573 8.39616 17.9292 9.11788 16.47 8.54724C15.7317 8.25856 15.1473 7.67445 14.8598 6.93541H14.8464C14.7224 6.61496 14.6531 6.26758 14.6531 5.90287ZM14.9213 10.8057H20.0777C21.5773 10.8077 22.8606 11.8845 23.124 13.3625C21.2678 13.0296 19.3856 12.865 17.4995 12.8699C15.6135 12.865 13.7313 13.0296 11.875 13.3625C12.1384 11.8845 13.4217 10.8077 14.9213 10.8057ZM10.4148 28.8641C8.8489 28.8641 7.57904 27.5929 7.57904 26.0253C7.57904 24.4577 8.8489 23.1866 10.4148 23.1866C11.9808 23.1866 13.2506 24.4577 13.2506 26.0253C13.2487 27.5929 11.9808 28.8622 10.4148 28.8641ZM24.5842 28.8641C23.0183 28.8641 21.7484 27.5929 21.7484 26.0253C21.7484 24.4577 23.0183 23.1866 24.5842 23.1866C26.1501 23.1866 27.42 24.4577 27.42 26.0253C27.4181 27.5929 26.1501 28.8622 24.5842 28.8641ZM24.5842 21.1225C21.8868 21.1138 19.6922 23.2953 19.6836 25.9965C19.6816 26.5892 19.7874 27.1772 19.995 27.7315C18.332 27.8671 16.6613 27.8671 14.9983 27.7315C15.9509 25.1987 14.6733 22.3734 12.1432 21.4188C9.61313 20.4652 6.79079 21.7441 5.83719 24.2768C5.75164 24.5039 5.68339 24.7368 5.63244 24.9735C3.98287 23.8967 3.06196 22.6332 3.06196 21.3871C3.06196 19.0641 6.25824 16.7604 11.0176 15.6489L11.0301 15.6461C13.1526 15.1639 15.3222 14.9253 17.4986 14.9359C19.6749 14.9253 21.8455 15.1639 23.9671 15.6461L23.9796 15.6489C28.7389 16.7604 31.9352 19.0651 31.9352 21.3871C31.9352 22.6332 31.0142 23.8967 29.3647 24.9735C28.8687 22.7276 26.8817 21.1263 24.5832 21.1225H24.5842Z" fill="#101010" stroke="#101010" stroke-width="0.4"/>
</svg>
