<svg width="31" height="32" viewBox="0 0 31 32" fill="none" xmlns="http://www.w3.org/2000/svg">
<g clip-path="url(#clip0_276_256)">
<path d="M21.3311 2.01174V1.24905C21.3311 0.563731 20.7695 0 20.0867 0C19.4039 0 18.8423 0.563731 18.8423 1.24905V2.01174C13.4021 2.63074 9.17336 7.37271 9.17336 12.8995C9.17336 13.3637 9.42665 13.7838 9.82309 13.9938C10.2306 14.2149 10.7151 14.1927 11.1005 13.9275C12.4441 13.0321 14.184 13.0321 15.5275 13.9275C15.8909 14.1706 16.3755 14.2038 16.7719 14.0048L17.4657 13.6511C18.2256 13.2642 18.5339 13.1095 18.8423 13.01V24.981H17.4547V23.5551C17.4547 21.7976 16.0341 20.3717 14.2831 20.3717H4.59219L2.29059 17.2104C1.88313 16.6466 1.09023 16.514 0.517586 16.934C-0.0440485 17.343 -0.176198 18.1389 0.242275 18.7136L6.00178 26.6501L4.37194 30.1983C4.0746 30.8394 4.36093 31.591 4.98863 31.8895C5.16483 31.9668 5.34103 32.0111 5.51723 32.0111C5.99077 32.0111 6.45329 31.7347 6.66252 31.2705L8.38046 27.5454H24.0622L25.7801 31.2705C25.9893 31.7347 26.4519 32.0111 26.9254 32.0111C27.1016 32.0111 27.2888 31.9779 27.454 31.8895C28.0927 31.591 28.368 30.8394 28.0707 30.1983L26.8483 27.5344H27.8174C28.5112 27.5344 29.0838 26.9706 29.0838 26.2632C29.0838 25.5558 28.5112 24.9921 27.8174 24.9921H21.3201V13.0211C21.7826 13.1758 22.2341 13.419 22.6416 13.629C23.1702 13.9164 23.5996 14.1375 23.952 14.1375C24.1943 14.1375 24.4366 14.0601 24.6348 13.9275C25.9783 13.0321 27.7183 13.0321 29.0618 13.9275C29.4472 14.1817 29.9318 14.2038 30.3393 13.9938C30.7467 13.7727 31 13.3527 31 12.8995C31 7.37271 26.7712 2.6418 21.3311 2.01174ZM14.9989 10.9872C14.4483 10.8325 13.8867 10.7661 13.314 10.7661C12.8405 10.7661 12.356 10.8214 11.8824 10.932C12.4441 8.56649 13.9858 6.5658 16.1332 5.42729C15.2963 7.40587 15.054 9.60553 14.9879 10.9872H14.9989ZM7.93997 24.9921L6.39823 22.8808H14.2831C14.6686 22.8808 14.9769 23.1903 14.9769 23.5772V25.0031H7.93997V24.9921ZM20.0867 10.3351C19.2167 10.3351 18.3467 10.523 17.4877 10.8877C17.719 6.65423 19.2718 4.44352 20.0867 4.44352C20.9016 4.44352 22.4544 6.65423 22.6856 10.8877C21.8266 10.523 20.9567 10.3351 20.0867 10.3351ZM25.1744 10.9872C25.1084 9.60553 24.8661 7.40587 24.0401 5.42729C26.1766 6.5658 27.7183 8.56649 28.2909 10.932C27.2668 10.6998 26.1986 10.7219 25.1854 10.9983L25.1744 10.9872Z" fill="#101010"/>
</g>
<defs>
<clipPath id="clip0_276_256">
<rect width="31" height="32" fill="white"/>
</clipPath>
</defs>
</svg>
