<svg width="45" height="23" viewBox="0 0 45 23" fill="none" xmlns="http://www.w3.org/2000/svg">
<path d="M43.9469 4.16119C43.6554 2.73099 41.4578 1.76643 40.6057 1.52251H40.5944C38.2735 0.835128 34.6183 0.491434 30.4024 2.67555L28.7654 3.40729L21.0177 1.84403C20.872 1.82186 20.7262 1.84403 20.5917 1.89947L16.7683 3.86185C16.544 3.97272 16.4095 4.20554 16.4207 4.44945C16.4319 4.69337 16.5777 4.9151 16.8019 5.02597L21.0065 6.87748L11.9582 10.9242L5.60082 7.67574C5.41021 7.58704 5.18596 7.58704 5.00656 7.67574L1.35135 9.51616C1.16074 9.61594 1.02619 9.79333 1.00377 10.004C0.981344 10.2146 1.05983 10.4253 1.2168 10.5694L5.81385 14.5385C6.13901 14.8157 6.4081 15.1816 6.65477 15.6361C6.93508 16.1461 7.91055 17.6318 10.0185 17.6318C10.2988 17.6318 10.6127 17.6096 10.9267 17.5431C10.9827 17.5431 15.748 17.0331 20.8608 15.8468L18.4277 21.0798C18.3156 21.3237 18.3716 21.623 18.5622 21.8115C18.6856 21.9335 18.8538 22 19.022 22C19.1117 22 19.2126 21.9778 19.3023 21.9335L24.572 19.4389C24.6954 19.3835 24.7963 19.2948 24.8636 19.1728L28.0479 13.5851C28.4627 13.3966 29.0794 13.1083 29.8643 12.7646C33.8334 11.0018 41.2223 7.69791 43.2181 5.89075C43.9918 5.2588 44.059 4.59358 43.9693 4.15011L43.9469 4.16119ZM18.551 4.38293L20.9729 3.1412L26.7248 4.30532L22.5763 6.16792L18.551 4.38293ZM5.28687 8.9729L7.33872 10.0262L4.2217 11.4564L2.79774 10.2257L5.28687 8.9729ZM23.8096 18.3635L20.3562 20.0044L24.2357 11.667L28.7767 9.63812L23.8096 18.3635ZM42.3548 4.9151C40.4823 6.60031 32.9476 9.97073 29.3149 11.5894C29.2476 11.6227 29.1915 11.6448 29.1242 11.6781L30.907 8.5516C31.0528 8.30769 31.0079 8.00834 30.8173 7.79769C30.6267 7.58704 30.324 7.53161 30.0661 7.64248L23.4845 10.5805C23.3387 10.647 23.2266 10.7579 23.1593 10.902L21.5559 14.339C16.1852 15.6805 10.8482 16.2459 10.7361 16.257C8.93087 16.5896 8.12359 15.625 7.79843 15.0263C7.47327 14.4277 7.10327 13.9398 6.65477 13.5629L5.28687 12.3766L8.79633 10.7579L11.6218 12.2103C11.8012 12.299 12.0143 12.299 12.1937 12.2214L30.9631 3.82859C33.8671 2.32077 36.4571 2.12121 38.4417 2.37621L36.3562 3.40729C36.031 3.5625 35.9077 3.95054 36.0647 4.27206C36.1768 4.4938 36.4122 4.62684 36.6477 4.62684C36.7486 4.62684 36.8383 4.60467 36.9392 4.56032L40.4487 2.83077C41.4241 3.17446 42.5678 3.9062 42.6799 4.42728C42.6799 4.47163 42.7136 4.62684 42.3548 4.9151Z" fill="#101010" stroke="#101010" stroke-linejoin="round"/>
</svg>
