<svg width="22" height="32" viewBox="0 0 22 32" fill="none" xmlns="http://www.w3.org/2000/svg">
<g clip-path="url(#clip0_274_232)">
<path d="M21.0663 10.6845C20.7444 10.5988 20.4009 10.6417 20.1112 10.8131C19.8214 10.9846 19.6175 11.2525 19.5317 11.574L18.1902 16.5787C18.0078 16.3429 17.7931 16.0965 17.5356 15.8392V6.52646C17.5356 2.92565 14.5951 0 10.9892 0C7.38338 0 4.4429 2.92565 4.4429 6.52646V15.8392C4.19607 16.0965 3.98143 16.3429 3.79899 16.5787L2.45753 11.574C2.37168 11.2525 2.16777 10.9846 1.87802 10.8131C1.58826 10.6417 1.24485 10.5988 0.922897 10.6845C0.257531 10.8667 -0.139542 11.5526 0.0321653 12.217L2.58631 21.7227C2.58631 21.7227 2.60777 21.7977 2.61851 21.787C2.71509 22.3979 3.24095 22.8372 3.85265 22.8372H9.74436V28.0134H3.85265C3.15509 28.0134 2.60777 28.5492 2.60777 29.2458V30.7461C2.60777 31.432 3.16582 32 3.86338 32C4.56095 32 5.11899 31.4427 5.11899 30.7461V30.5211H16.8917V30.7461C16.8917 31.432 17.4497 32 18.1473 32C18.8448 32 19.4029 31.4427 19.4029 30.7461V29.2458C19.4029 28.5599 18.8556 28.0134 18.158 28.0134H12.2663V26.7703H12.717C13.4039 26.7703 13.9727 26.213 13.9727 25.5164C13.9727 24.8198 13.4146 24.2626 12.717 24.2626H12.2663V22.8265H18.158C18.7697 22.8265 19.2956 22.3871 19.3814 21.8299C19.3922 21.7977 19.4029 21.7549 19.4244 21.712L21.9785 12.1956C22.1609 11.5311 21.7639 10.8453 21.0878 10.6631L21.0663 10.6845ZM16.8809 20.1795V20.3403H5.11899V20.1795C5.11899 18.2291 6.69656 16.6323 8.63899 16.6323H13.3824C15.3248 16.6323 16.9024 18.2184 16.9024 20.1795H16.8809ZM15.0351 14.3925C14.4556 14.221 13.8975 14.1353 13.3609 14.1353H8.61753C8.08095 14.1353 7.53363 14.221 6.94338 14.3925V6.52646C6.94338 4.3081 8.75704 2.49699 10.9785 2.49699C13.2 2.49699 15.0136 4.3081 15.0136 6.52646V14.3925H15.0351Z" fill="#101010"/>
</g>
<defs>
<clipPath id="clip0_274_232">
<rect width="22" height="32" fill="white"/>
</clipPath>
</defs>
</svg>
