<svg width="32" height="31" viewBox="0 0 32 31" fill="none" xmlns="http://www.w3.org/2000/svg">
<path d="M16.1553 28.7786V22.9974C17.3799 23.2417 18.5737 23.374 19.6954 23.374C22.1344 23.374 24.2029 22.8142 25.8495 21.6946C30.4084 18.5902 30.9744 11.72 30.995 11.435C31.0465 10.8752 30.6966 10.3663 30.1511 10.1729C29.4513 9.94896 23.2252 8.09653 18.8412 11.0787C17.8533 11.7403 16.9786 12.6564 16.217 13.8065C16.2376 11.5978 15.9083 7.11943 13.0782 4.22882C9.31171 0.391641 2.8695 1.00233 2.14912 1.08376C1.58311 1.16518 1.1406 1.60285 1.07885 2.16265C1.04798 2.44764 0.296729 9.30774 4.14559 13.2365C6.9036 16.0457 11.1332 16.463 13.4076 16.463C13.5105 16.463 13.6031 16.463 13.6957 16.463V28.7786C13.6957 29.4504 14.2411 29.9898 14.9203 30C15.5996 30 16.1553 29.4606 16.1553 28.7786ZM13.4693 14.0304C11.6581 14.0304 8.04591 13.7353 5.90536 11.5469C3.70307 9.29756 3.42522 5.56216 3.45609 3.45528C5.16441 3.42474 9.04414 3.63848 11.2876 5.93876C13.4899 8.18814 13.7677 11.9235 13.7369 14.0304C13.6545 14.0304 13.5619 14.0304 13.4693 14.0304ZM20.2305 13.0838C22.8959 11.2721 26.7551 11.8523 28.4016 12.2289C28.1032 13.949 27.1461 17.8472 24.4602 19.6793C21.908 21.4096 18.2958 20.9821 16.2788 20.5343C16.5772 18.8142 17.5446 14.9159 20.2305 13.0838Z" fill="#101010" stroke="#101010" stroke-width="0.2"/>
</svg>
