<svg width="29" height="29" viewBox="0 0 29 29" fill="none" xmlns="http://www.w3.org/2000/svg">
<path d="M27.2491 18.9428C27.7355 17.5507 28 16.0566 28 14.5006C28 12.9447 27.7342 11.4506 27.2491 10.0585C27.2375 10.0172 27.2233 9.97592 27.2065 9.93721C25.3317 4.73255 20.3436 1 14.5 1C8.65641 1 3.66826 4.73255 1.79351 9.93721C1.77674 9.97721 1.76254 10.0172 1.75093 10.0585C1.2645 11.4506 1 12.9447 1 14.4994C1 16.054 1.26579 17.5494 1.75093 18.9415C1.76254 18.9828 1.77674 19.0241 1.79351 19.0628C3.66826 24.2687 8.65641 28 14.5 28C20.3436 28 25.3317 24.2675 27.2065 19.0628C27.2233 19.0241 27.2375 18.9828 27.2491 18.9415V18.9428ZM14.5 26.0673C13.9852 26.0673 13.1568 25.137 12.464 23.0585C12.1298 22.0561 11.8614 20.9026 11.6666 19.6473H17.3334C17.1386 20.9013 16.8702 22.0548 16.536 23.0585C15.8432 25.137 15.0135 26.0673 14.5 26.0673ZM11.4318 17.712C11.3389 16.6798 11.2898 15.6038 11.2898 14.5019C11.2898 13.4001 11.3389 12.3241 11.4318 11.2919H17.5682C17.6611 12.3241 17.7102 13.4001 17.7102 14.5019C17.7102 15.6038 17.6611 16.6798 17.5682 17.712H11.4318ZM2.9341 14.5006C2.9341 13.3872 3.0928 12.3099 3.38827 11.2906H9.49121C9.40089 12.3434 9.35444 13.4233 9.35444 14.5006C9.35444 15.578 9.40089 16.6579 9.49121 17.7107H3.38827C3.0928 16.6914 2.9341 15.6141 2.9341 14.5006ZM14.5 2.9353C15.0148 2.9353 15.8432 3.86553 16.536 5.94404C16.8702 6.94782 17.1386 8.09997 17.3334 9.35404H11.6666C11.8614 8.09997 12.1298 6.94653 12.464 5.94404C13.1568 3.86553 13.9865 2.9353 14.5 2.9353ZM19.5088 11.2906H25.6117C25.9072 12.3099 26.0659 13.3872 26.0659 14.5006C26.0659 15.6141 25.9072 16.6914 25.6117 17.7107H19.5088C19.5991 16.6579 19.6456 15.578 19.6456 14.5006C19.6456 13.4233 19.5991 12.3434 19.5088 11.2906ZM24.8556 9.35533H19.2869C18.9424 6.98136 18.3527 4.85254 17.5231 3.33784C20.7358 4.20873 23.3963 6.43174 24.8556 9.35533ZM11.4756 3.33655C10.6473 4.85125 10.0563 6.98136 9.71184 9.35533H4.14437C5.60365 6.43174 8.26417 4.20744 11.4769 3.33655H11.4756ZM4.14308 19.646H9.71184C10.0563 22.0199 10.6473 24.1488 11.4756 25.6647C8.26288 24.7939 5.60236 22.5708 4.14308 19.646ZM17.5231 25.6647C18.3514 24.15 18.9424 22.0199 19.2869 19.646H24.8556C23.3963 22.5708 20.7358 24.7939 17.5231 25.6647Z" fill="#101010" stroke="#101010" stroke-width="0.5"/>
</svg>
