<svg width="27" height="27" viewBox="0 0 27 27" fill="none" xmlns="http://www.w3.org/2000/svg">
<path fill-rule="evenodd" clip-rule="evenodd" d="M13.5009 4.84998C12.8766 4.84998 12.3654 5.34758 12.3654 5.96853V6.84665C10.3675 7.26821 8.84998 8.78823 8.84998 10.6334C8.84998 12.8171 10.9625 14.5477 13.5009 14.5477C14.1575 14.5477 14.7583 14.7479 15.1914 15.0609C15.6255 15.3746 15.8789 15.7907 15.8789 16.225C15.8789 16.6592 15.6255 17.0752 15.1914 17.3886C14.7583 17.7014 14.1576 17.9013 13.5009 17.9013C12.8443 17.9013 12.2431 17.7008 11.8094 17.3876C11.3747 17.0737 11.121 16.6577 11.121 16.225C11.121 15.604 10.6098 15.1064 9.98551 15.1064C9.3612 15.1064 8.84998 15.604 8.84998 16.225C8.84998 18.0684 10.3676 19.5883 12.3644 20.0124V21.0314C12.3644 21.6523 12.8747 22.15 13.5 22.15C14.1253 22.15 14.6355 21.6523 14.6355 21.0314V20.0125C16.6324 19.5893 18.1491 18.071 18.1491 16.225C18.1491 14.0422 16.0385 12.3115 13.5009 12.3115C12.8443 12.3115 12.2431 12.1109 11.8093 11.7976C11.3745 11.4835 11.1205 11.067 11.1201 10.6332C11.1202 10.2185 11.3527 9.80041 11.7731 9.48082C12.1925 9.16205 12.7912 8.94883 13.4954 8.94883C14.1996 8.94883 14.8005 9.16186 15.222 9.4807C15.6448 9.80042 15.8789 10.2185 15.8789 10.6334C15.8789 11.2552 16.3892 11.7519 17.0144 11.7519C17.6397 11.7519 18.15 11.2552 18.15 10.6334C18.15 8.78994 16.6332 7.27089 14.6364 6.84682V5.96853C14.6364 5.34758 14.1252 4.84998 13.5009 4.84998Z" fill="#101010"/>
<path fill-rule="evenodd" clip-rule="evenodd" d="M13.5 24.6C19.6304 24.6 24.6 19.6304 24.6 13.5C24.6 7.36964 19.6304 2.4 13.5 2.4C7.36964 2.4 2.4 7.36964 2.4 13.5C2.4 19.6304 7.36964 24.6 13.5 24.6ZM13.5 27C20.9558 27 27 20.9558 27 13.5C27 6.04416 20.9558 0 13.5 0C6.04416 0 0 6.04416 0 13.5C0 20.9558 6.04416 27 13.5 27Z" fill="#101010"/>
</svg>
