<svg width="24" height="20" viewBox="0 0 24 20" fill="none" xmlns="http://www.w3.org/2000/svg">
<g clip-path="url(#clip0_5342_954)">
<path d="M22.0235 11.0934L15.9988 16.6495C15.798 16.8354 15.5302 16.9395 15.2457 16.9395C14.9612 16.9395 14.7102 16.8503 14.5178 16.6792C14.3169 16.5081 14.1998 16.2776 14.1914 16.0247C14.1914 15.7718 14.2918 15.5412 14.4843 15.3627L20.4922 9.82149C21.421 8.90663 21.9147 7.71657 21.8812 6.46701C21.8478 5.27695 21.329 4.15383 20.4169 3.29848C19.5132 2.458 18.325 1.97454 17.0699 1.94479H16.9193C15.3127 1.94479 13.7981 2.6737 12.861 3.90838C12.6685 4.16871 12.3422 4.31747 11.9907 4.31747C11.6393 4.31747 11.313 4.16127 11.1205 3.90838C10.1917 2.68114 8.67716 1.94479 7.07058 1.94479C5.7736 1.94479 4.56867 2.41337 3.63986 3.24641C2.65249 4.13152 2.09186 5.37364 2.10859 6.63808C2.11696 7.87277 2.64412 9.03308 3.58129 9.91075L12.7606 18.3453C13.1622 18.7172 13.1538 19.3122 12.7355 19.6692C12.5346 19.8403 12.2752 19.9296 12.0075 19.9296C11.7146 19.9296 11.4468 19.8254 11.2544 19.6469L2.05839 11.1975C0.744673 9.97769 0.0166918 8.36367 -4.34512e-05 6.65296C-0.0167787 4.89018 0.769776 3.17203 2.15043 1.93735C3.47251 0.747289 5.20461 0.0853187 7.04548 0.0778809C8.86962 0.0778809 10.5933 0.702662 11.9071 1.84066L11.9991 1.92247L12.0911 1.84066C13.3965 0.7101 15.1118 0.0778809 16.9109 0.0778809H17.1452C18.9609 0.129946 20.6679 0.821668 21.9482 2.01917C23.2201 3.20179 23.948 4.77118 23.9899 6.42982C24.0401 8.18516 23.3372 9.83637 22.0235 11.0934Z" fill="#101010"/>
</g>
<defs>
<clipPath id="clip0_5342_954">
<rect width="23.9983" height="19.8442" fill="white" transform="translate(0 0.0778809)"/>
</clipPath>
</defs>
</svg>
