<svg width="24" height="18" viewBox="0 0 24 18" fill="none" xmlns="http://www.w3.org/2000/svg">
<path d="M16.5785 17.1552C16.097 17.1552 15.7004 16.802 15.7004 16.3731V15.5594C14.3763 15.7739 13.1654 15.8874 12.0041 15.8874C10.8427 15.8874 9.55397 15.7613 8.35724 15.5153L8.29351 16.3668C8.29351 16.802 7.89696 17.1488 7.41544 17.1488C4.70334 17.0038 2.16119 15.9757 0.256346 14.2539C0.0793158 14.0962 -0.0127398 13.8754 0.0014226 13.661C0.199696 10.7723 0.39797 7.78903 2.18951 4.44623C2.6852 3.4434 5.97796 1.45664 8.5626 0.876384C8.63341 0.86377 8.70422 0.851156 8.77503 0.851156C9.17866 0.851156 9.52564 1.09713 9.62478 1.44403C9.73808 1.86661 9.45483 2.29549 8.98747 2.39641C6.94808 2.78115 5.08573 3.78398 3.72614 5.2094C2.4586 7.80164 1.80713 10.5516 1.7788 13.3772C3.09591 14.4809 4.7175 15.2189 6.47364 15.509L6.53029 15.0423C5.35481 14.6008 4.29263 14.052 3.35791 13.3898C2.98261 13.1186 2.91888 12.6203 3.21629 12.286C3.38624 12.0968 3.64116 11.9896 3.91025 11.9896C4.10852 11.9896 4.29971 12.0464 4.4555 12.1599C6.51613 13.5601 9.07244 14.3295 11.6712 14.3295C11.7775 14.3295 11.8908 14.3295 12.0041 14.3295C12.1103 14.3295 12.2165 14.3295 12.3298 14.3295C14.9144 14.3295 17.4778 13.5601 19.5455 12.1599C19.7084 12.0464 19.9067 11.9896 20.105 11.9896C20.374 11.9896 20.6219 12.0968 20.7848 12.286C21.0822 12.6329 21.0184 13.1249 20.6431 13.3898C19.7013 14.052 18.6391 14.5944 17.4778 14.9981C17.4566 15.0801 17.4637 15.4648 17.4637 15.4648C19.2552 15.2189 20.8839 14.4998 22.201 13.4087C22.201 10.5705 21.5495 7.81425 20.2749 5.22201C18.9153 3.79029 17.0459 2.78745 15.0065 2.39641C14.7657 2.34595 14.5745 2.21981 14.4542 2.03059C14.3338 1.84769 14.3055 1.63955 14.3621 1.43772C14.4612 1.09083 14.8082 0.844849 15.2118 0.844849C15.2897 0.844849 15.3606 0.851156 15.4314 0.870077C18.016 1.45034 21.1671 3.21634 21.7974 4.43993C23.6031 7.78903 23.8013 10.766 23.9996 13.6547C24.0067 13.8817 23.9146 14.1025 23.7447 14.2539C21.8469 15.9694 19.3119 16.9975 16.6139 17.1488H16.5856L16.5785 17.1552Z" fill="#101010"/>
<path d="M18.9295 5.41754C19.1702 5.01388 18.9861 4.51561 18.54 4.30117C16.5006 3.43078 14.263 3.0019 12.0041 3.05866C9.74516 3.0082 7.50042 3.43078 5.46811 4.30117C5.01491 4.51561 4.85913 5.02019 5.09989 5.43015C5.34065 5.82119 5.87882 5.97887 6.32494 5.77704C8.10232 5.0328 10.0496 4.66698 12.0111 4.71744C13.9726 4.66698 15.92 5.0328 17.6973 5.77704C18.1505 5.95364 18.6816 5.80227 18.9507 5.43015H18.9436L18.9295 5.41754Z" fill="#101010"/>
<path d="M9.22115 10.4948C9.86554 10.4948 10.3825 10.0281 10.3825 9.45411C10.3825 8.88016 9.85846 8.41343 9.22115 8.41343C8.58384 8.41343 8.05983 8.88016 8.05983 9.45411C8.05983 10.0281 8.58384 10.4948 9.22115 10.4948Z" fill="#101010"/>
<path d="M14.7586 10.4948C15.403 10.4948 15.92 10.0281 15.92 9.45411C15.92 8.88016 15.396 8.41343 14.7586 8.41343C14.1213 8.41343 13.5973 8.88016 13.5973 9.45411C13.5973 10.0281 14.1213 10.4948 14.7586 10.4948Z" fill="#101010"/>
</svg>
