<svg width="24" height="24" viewBox="0 0 24 24" fill="none" xmlns="http://www.w3.org/2000/svg">
<path d="M19.3157 8.9958C18.7928 8.9958 18.3811 9.41861 18.3811 9.93043C18.3811 10.4423 18.8039 10.8651 19.3157 10.8651C20.8623 10.8651 22.1307 12.1224 22.1307 13.6801V21.1794C22.1307 21.6912 21.7079 22.114 21.1961 22.114C21.0292 22.114 20.8734 22.0695 20.7288 21.9916L17.9138 20.3671C17.7691 20.2893 17.6133 20.2448 17.4465 20.2448H11.8164C10.2698 20.2448 9.00139 18.9875 9.00139 17.4297V15.5493C9.00139 15.0264 8.57858 14.6147 8.06676 14.6147C7.55494 14.6147 7.13213 15.0375 7.13213 15.5493V17.4297C7.13213 20.0111 9.23505 22.114 11.8164 22.114H17.1905L19.783 23.6161C20.2058 23.8609 20.6954 23.9944 21.185 23.9944C22.7316 23.9944 24 22.7371 24 21.1794V13.6801C24 11.0987 21.8971 8.9958 19.3157 8.9958Z" fill="#101010"/>
<path d="M2.81502 15.0041C3.30459 15.0041 3.79416 14.8706 4.21697 14.6258L6.80946 13.1238H12.1836C14.7649 13.1238 16.8679 11.0208 16.8679 8.43947V4.68982C16.8679 2.10846 14.7649 0.00553711 12.1836 0.00553711H4.68428C2.10292 -0.00558945 0 2.09733 0 4.67869V12.178C0 13.7246 1.2573 14.993 2.81502 14.993V15.0041ZM1.88039 4.68982C1.88039 3.14323 3.13769 1.8748 4.69541 1.8748H12.1947C13.7413 1.8748 15.0097 3.1321 15.0097 4.68982V8.43947C15.0097 9.98606 13.7524 11.2545 12.1947 11.2545H6.56467C6.39777 11.2545 6.242 11.299 6.09736 11.3769L3.28234 13.0014C3.13769 13.0792 2.98192 13.1238 2.81502 13.1238C2.3032 13.1238 1.88039 12.7009 1.88039 12.1891V4.68982Z" fill="#101010"/>
<path d="M4.68428 7.49371C5.20047 7.49371 5.61891 7.07527 5.61891 6.55908C5.61891 6.0429 5.20047 5.62445 4.68428 5.62445C4.1681 5.62445 3.74965 6.0429 3.74965 6.55908C3.74965 7.07527 4.1681 7.49371 4.68428 7.49371Z" fill="#101010"/>
<path d="M8.44506 7.49371C8.96124 7.49371 9.37969 7.07527 9.37969 6.55908C9.37969 6.0429 8.96124 5.62445 8.44506 5.62445C7.92888 5.62445 7.51043 6.0429 7.51043 6.55908C7.51043 7.07527 7.92888 7.49371 8.44506 7.49371Z" fill="#101010"/>
<path d="M12.1947 7.49371C12.7109 7.49371 13.1293 7.07527 13.1293 6.55908C13.1293 6.0429 12.7109 5.62445 12.1947 5.62445C11.6785 5.62445 11.2601 6.0429 11.2601 6.55908C11.2601 7.07527 11.6785 7.49371 12.1947 7.49371Z" fill="#101010"/>
</svg>
