<svg width="20" height="23" viewBox="0 0 20 23" fill="none" xmlns="http://www.w3.org/2000/svg">
<path fill="none" d="M10.8935 21.5171L10.8936 21.5172L10.9007 21.5112L10.9072 21.5057C11.1078 21.3374 12.9829 19.764 14.8235 17.5002C16.6609 15.2404 18.5898 12.1419 18.5898 8.99043C18.5898 4.47855 14.6768 0.894897 9.98263 0.894897C5.28848 0.894897 1.37549 4.47855 1.37549 8.99043C1.37549 12.1418 3.30426 15.2419 5.14169 17.5026C6.9779 19.7618 8.84865 21.3337 9.06406 21.5108C9.34715 21.753 9.68722 21.8393 9.98263 21.8393C10.3029 21.8393 10.6304 21.7326 10.8935 21.5171ZM9.98263 12.238C7.93605 12.238 6.36835 10.7056 6.36835 8.93739C6.36835 7.16914 7.93605 5.63674 9.98263 5.63674C12.0292 5.63674 13.5969 7.16914 13.5969 8.93739C13.5969 10.7056 12.0292 12.238 9.98263 12.238Z" stroke="#101010" stroke-width="1.5" stroke-miterlimit="10"/>
</svg>
