<svg width="572" height="572" viewBox="-20 -20 572 572" fill="none" xmlns="http://www.w3.org/2000/svg">
<path d="M292 26.5581L460.363 123.762C476.452 133.051 486.363 150.218 486.363 168.796V363.204C486.363 381.782 476.452 398.949 460.363 408.238L292 505.442C275.911 514.731 256.089 514.731 240 505.442L71.6372 408.238C55.5484 398.949 45.6372 381.782 45.6372 363.204V168.796C45.6372 150.218 55.5484 133.051 71.6372 123.762L240 26.5581C256.089 17.2692 275.911 17.2692 292 26.5581Z" stroke="#595959" stroke-width="20"/>
<path d="M102.592 372C96.1973 372 93 369.802 93 365.406V167.594C93 163.198 96.1973 161 102.592 161H108.65C111.174 161 113.194 161.5 114.708 162.499C116.223 163.298 117.485 164.796 118.494 166.994L177.056 300.967C179.412 306.162 181.599 312.456 183.619 319.849L184.881 319.25C183.534 312.257 182.861 305.663 182.861 299.469V167.594C182.861 163.198 186.059 161 192.453 161H195.482C201.877 161 205.074 163.198 205.074 167.594V365.406C205.074 369.802 201.877 372 195.482 372H190.182C185.47 372 182.441 370.501 181.094 367.504L121.019 229.036C118.663 223.84 116.475 217.546 114.456 210.153L113.194 210.753C114.54 217.746 115.213 224.34 115.213 230.534V365.406C115.213 369.802 112.016 372 105.621 372H102.592Z" fill="#595959"/>
<path d="M252.742 372C246.348 372 243.15 369.802 243.15 365.406V170.591C243.15 167.394 243.655 165.096 244.665 163.697C245.843 162.299 247.61 161.599 249.966 161.599H315.595C318.792 161.599 320.391 164.597 320.391 170.591V175.386C320.391 181.381 318.792 184.378 315.595 184.378H265.868V258.707H311.303C314.501 258.707 316.099 261.705 316.099 267.699V272.494C316.099 278.489 314.501 281.486 311.303 281.486H265.868V365.406C265.868 369.802 262.671 372 256.276 372H252.742Z" fill="#595959"/>
<path d="M385.982 372C379.588 372 376.39 369.802 376.39 365.406V184.378H340.042C336.845 184.378 335.246 181.381 335.246 175.386V170.591C335.246 164.597 336.845 161.599 340.042 161.599H434.952C436.803 161.599 438.065 162.299 438.738 163.697C439.579 165.096 440 167.394 440 170.591V175.386C440 178.583 439.579 180.881 438.738 182.28C438.065 183.679 436.803 184.378 434.952 184.378H399.108V365.406C399.108 369.802 395.911 372 389.516 372H385.982Z" fill="#595959"/>
</svg>
