<svg fill="none" height="89" viewBox="0 0 89 89" width="89" xmlns="http://www.w3.org/2000/svg" xmlns:xlink="http://www.w3.org/1999/xlink"><clipPath id="a"><path d="m0 0h48v47h-48z" transform="matrix(1 0 0 -1 20.2197 68)"/></clipPath><circle cx="44.2225" cy="44.2225" fill="#000" r="44.2225"/><g clip-path="url(#a)" fill="#fff"><path d="m51.1452 52.3447h-13.8514c-.5828 0-1.0628-.4703-1.0628-1.0414v-13.5726c0-.5711.48-1.0414 1.0628-1.0414h13.8514c.5829 0 1.0629.4703 1.0629 1.0414v13.5726c0 .5711-.48 1.0414-1.0629 1.0414z"/><path d="m35.134 68h-13.8514c-.5829 0-1.0629-.4703-1.0629-1.0415v-13.5725c0-.5711.48-1.0415 1.0629-1.0415h13.8514c.5829 0 1.0629.4704 1.0629 1.0415v13.5725c0 .5712-.48 1.0415-1.0629 1.0415z"/><path d="m67.157 68h-13.8515c-.5828 0-1.0628-.4703-1.0628-1.0415v-13.5725c0-.5711.48-1.0415 1.0628-1.0415h13.8515c.5828 0 1.0628.4704 1.0628 1.0415v13.5725c0 .5712-.48 1.0415-1.0628 1.0415z"/><path d="m35.134 36.6553h-13.8514c-.5829 0-1.0629-.4704-1.0629-1.0415v-13.5725c0-.5712.48-1.0415 1.0629-1.0415h13.8514c.5829 0 1.0629.4703 1.0629 1.0415v13.5725c0 .5711-.48 1.0415-1.0629 1.0415z"/><path d="m67.157 36.6553h-13.8515c-.5828 0-1.0628-.4704-1.0628-1.0415v-13.5725c0-.5712.48-1.0415 1.0628-1.0415h13.8515c.5828 0 1.0628.4703 1.0628 1.0415v13.5725c0 .5711-.48 1.0415-1.0628 1.0415z"/></g></svg>