<svg fill="none" height="89" viewBox="0 0 89 89" width="89" xmlns="http://www.w3.org/2000/svg" xmlns:xlink="http://www.w3.org/1999/xlink"><clipPath id="a"><path d="m0 0h88.45v88.45h-88.45z"/></clipPath><g clip-path="url(#a)"><path d="m44.225 88.45c24.4248 0 44.225-19.8002 44.225-44.225s-19.8002-44.225-44.225-44.225-44.225 19.8002-44.225 44.225 19.8002 44.225 44.225 44.225z" fill="#000426"/><path d="m44.7027 28.1929v-13.9751c-16.5549 0-29.961 13.4068-29.961 29.9609 0 16.5549 13.4068 29.9625 29.961 29.9625v-13.9751c-8.8362 0-15.9859-7.1505-15.9859-15.9874 0-8.8354 7.1497-15.9858 15.9859-15.9858z" fill="#fff"/><path d="m60.7473 28.1929c-.9176 0-1.8262-.1808-2.674-.5319-.8478-.3512-1.618-.8659-2.2669-1.5147-.6488-.6489-1.1635-1.4192-1.5147-2.267-.3512-.8477-.5319-1.7564-.5319-2.674s.1807-1.8262.5319-2.674.8659-1.6181 1.5147-2.2669c.6489-.6489 1.4191-1.1636 2.2669-1.5147.8478-.3512 1.7564-.5319 2.674-.5319 1.8533 0 3.6306.7362 4.941 2.0466s2.0466 3.0877 2.0466 4.9409c0 1.8533-.7362 3.6305-2.0466 4.941-1.3104 1.3104-3.0877 2.0466-4.941 2.0466z" fill="#00d8d5"/><path d="m60.6301 74.1401c-1.8532 0-3.6306-.7362-4.9409-2.0465-1.3104-1.3105-2.0466-3.0878-2.0466-4.941s.7362-3.6305 2.0466-4.941c1.3103-1.3104 3.0877-2.0466 4.9409-2.0466s3.6305.7362 4.941 2.0466c1.3104 1.3105 2.0466 3.0878 2.0466 4.941s-.7362 3.6305-2.0466 4.941c-1.3105 1.3103-3.0878 2.0465-4.941 2.0465z" fill="#ea048c"/><path d="m60.6892 44.179c0 8.8369-7.1497 15.9873-15.9866 15.9873v-31.9739c8.8362 0 15.9866 7.1504 15.9866 15.9866z" fill="#fff"/></g></svg>