<svg fill="none" height="89" viewBox="0 0 89 89" width="89" xmlns="http://www.w3.org/2000/svg"><circle cx="44.2225" cy="44.2225" fill="#1e1e1e" r="44.2225"/><g fill="#fff"><path d="m45.2089 62.3921c-14.0712 0-25.476-4.0656-25.476-9.5128 0-2.8424 3.1064-5.4032 8.0784-7.2072 3.8808 2.4904 10.3928 3.7664 17.776 3.7664s13.5784-1.5576 17.4944-3.9424c4.6904 1.7864 7.6032 4.2768 7.6032 7.0224 0 5.456-11.4048 9.8736-25.476 9.8736z"/><path d="m45.3585 48.2156c-10.6656 0-19.316-3.344-19.316-7.4712 0-2.288 2.6664-4.3384 6.8464-5.7024 2.9832 1.5576 7.4536 2.552 12.4696 2.552s9.4864-.9944 12.4696-2.552c4.1888 1.3728 6.8464 3.4144 6.8464 5.7024.0088 4.1272-8.6416 7.4712-19.316 7.4712z"/><path d="m45.2881 36.3532c-8.2456 0-14.9336-2.7632-14.9336-6.16s6.688-6.16 14.9336-6.16 14.9336 2.7632 14.9336 6.16-6.688 6.16-14.9336 6.16z"/></g></svg>