<svg fill="none" height="89" viewBox="0 0 89 89" width="89" xmlns="http://www.w3.org/2000/svg" xmlns:xlink="http://www.w3.org/1999/xlink"><clipPath id="a"><path d="m24.1035 15h39v59h-39z"/></clipPath><circle cx="44.2225" cy="44.2225" fill="#fff" r="44.2225"/><g clip-path="url(#a)" fill="#121312"><path d="m32.6367 66.6312c-.6209-.2499-1.3785-.4571-2.273-.6243h-.0195c-.8696-.1538-1.5224-.2943-1.9568-.4223-.4352-.1281-.7772-.3006-1.0259-.5184-.2495-.2179-.3739-.5184-.3739-.9026 0-.5628.2105-.9923.6333-1.2866.4219-.2944.9779-.442 1.669-.442.755 0 1.3652.1921 1.8324.5762.4192.345.6759.7834.7701 1.3143.0186.1058.1083.184.2158.1849l2.1228.016c.1306.0009.2345-.1111.2212-.241-.071-.7104-.3046-1.356-.7017-1.9375-.4414-.6465-1.049-1.1489-1.8226-1.5072-.7737-.3583-1.653-.538-2.6371-.538-.9336 0-1.7747.1725-2.5226.5184s-1.3297.8261-1.7453 1.4405c-.4157.6145-.6236 1.3063-.6236 2.0736 0 .8448.1848 1.5232.5561 2.0354.3703.5122.8562.8999 1.4575 1.1622.6014.2623 1.3235.4704 2.1673.6242l.0959.0196c.8945.1663 1.5633.3139 2.0047.4419.4415.128.7897.3077 1.0455.538s.3837.5442.3837.9407c0 .5638-.2301 1.0048-.6902 1.3249-.4601.3202-1.0552.4802-1.7835.4802-.8696 0-1.5731-.2205-2.1095-.6624-.4886-.402-.7764-.9177-.8625-1.5472-.0151-.1085-.1048-.1912-.215-.193l-2.1201-.032c-.1288-.0018-.2336.1067-.223.2356.0604.7745.302 1.4725.7257 2.0941.4663.6847 1.1094 1.2226 1.9274 1.613.8181.3903 1.7587.586 2.8201.586.9851 0 1.8671-.1788 2.6469-.538.7799-.3583 1.391-.8545 1.8315-1.4885.4415-.634.6618-1.3471.6618-2.1412 0-.8447-.1919-1.5268-.5756-2.0452s-.8856-.9025-1.5055-1.1523z"/><path d="m45.6713 71.806h-.3313c-.1919 0-.342-.0506-.4503-.1538-.1093-.1022-.1635-.2685-.1635-.4988v-3.668c0-1.1648-.3712-2.0513-1.112-2.6596-.7417-.6082-1.6148-.9176-2.9836-.9176-1.2923 0-2.3005.281-3.0936.8314-.723.5015-1.1583 1.1897-1.3075 2.0629-.0231.1361.0791.2606.2167.2606h1.9497c.0977 0 .1847-.0641.2114-.1583.0888-.3237.2851-.5869.5889-.7923.3517-.2365.7692-.3548 1.319-.3548 1.0374 0 1.7746.6403 1.7746 1.5935v.2978c0 .1219-.0986.2206-.2202.2206h-1.7658c-1.4318 0-2.519.2819-3.2607.8447-.7416.5638-1.1129 1.3631-1.1129 2.4 0 .8963.3384 1.6005 1.017 2.1127.5081.3841 1.1165.6055 1.7427.7024.4778.0739.969.1014 1.4487.0241.5018-.0801.9095-.2873 1.3181-.5834.3668-.2649.6724-.6046.9513-1.019.1359-.2338.4929-.1405.4929.1307v.3255c0 .5913.4788 1.0715 1.0695 1.0715h1.7009c.1217 0 .2203-.0987.2203-.2206v-1.6325c0-.1218-.0986-.2205-.2203-.2205zm-3.3815-1.9775c0 .4739-.0994.8865-.2975 1.2386-.4157.7381-1.1583 1.1231-1.995 1.1231-.4858 0-.8757-.1147-1.1697-.3459-.294-.2303-.4415-.538-.4415-.9221 0-.4348.1634-.7709.4894-1.0084.326-.2365.7896-.3556 1.391-.3556h1.8039c.1217 0 .2203.0987.2203.2205v.0498z"/><path d="m52.7778 60.4434h-2.5368c-1.3385 0-2.423 1.0857-2.423 2.4257v1.0661c0 .1219-.0986.2206-.2203.2206h-1.4487c-.1217 0-.2203.0987-.2203.2205v1.6521c0 .1218.0986.2205.2203.2205h1.4487c.1217 0 .2203.0987.2203.2205v7.191c0 .1218.0985.2205.2202.2205h1.9763c.1217 0 .2203-.0987.2203-.2205v-7.191c0-.1218.0986-.2205.2203-.2205h2.3031c.1217 0 .2203-.0987.2203-.2205v-1.6521c0-.1218-.0986-.2205-.2203-.2205h-2.3031c-.1217 0-.2203-.0987-.2203-.2206v-.9576c0-.2437.1972-.4411.4406-.4411h2.1024c.1217 0 .2203-.0987.2203-.2205v-1.6521c0-.1218-.0986-.2205-.2203-.2205z"/><path d="m62.4612 66.141c-.4281-.7167-1.0135-1.2671-1.7551-1.6513-.7417-.3841-1.5988-.5815-2.5705-.5815s-1.8102.2134-2.551.6296c-.7417.4161-1.3172 1.0047-1.7267 1.7668-.4095.762-.6138 1.6548-.6138 2.6791 0 1.0244.2114 1.8789.6333 2.6401.4219.762 1.0259 1.3471 1.8129 1.757.7861.4099 1.7098.6144 2.7721.6144.8181 0 1.5509-.1502 2.1966-.4517.6457-.3005 1.1662-.7131 1.5633-1.2386.3393-.4499.5711-.9417.6946-1.4752.0319-.1387-.072-.2721-.215-.2721h-1.986c-.0951 0-.1786.0614-.2088.1521-.1403.4143-.3872.7407-.7408.9808-.397.2685-.8891.4028-1.4771.4028-.4858 0-.9113-.1023-1.2754-.3068-.3642-.2045-.652-.4926-.8634-.8643-.0835-.1467-.1519-.3015-.2061-.4615-.0577-.1716-.1003-.3486-.1288-.5273-.0097-.0622-.0195-.1254-.0266-.1885-.0151-.1298.0879-.2437.2194-.2437h6.8473c.111 0 .206-.0826.2185-.1929.0098-.0809.016-.1636.0195-.249.0062-.1538.0098-.2943.0098-.4223 0-.947-.2141-1.7793-.6422-2.496zm-2.0571 1.6894h-4.2883c-.1404 0-.247-.1307-.2159-.2685.0684-.3014.1874-.5735.3562-.8172.2176-.3138.4992-.5539.8438-.7202.3455-.1663.7221-.2499 1.1316-.2499.6644 0 1.2151.1796 1.6494.538.3731.3077.6191.7238.7381 1.2475.0311.1379-.0737.2695-.2149.2695z"/><path d="m60.8172 34.5107h-4.2288c-1.2631 0-2.2863 1.0252-2.2863 2.2887v6.1444c0 1.2644-1.0241 2.2888-2.2863 2.2888h-16.8238c-1.263 0-2.2862 1.0252-2.2862 2.2888v4.2335c0 1.2644 1.0241 2.2887 2.2862 2.2887h17.7982c1.2631 0 2.2721-1.0252 2.2721-2.2887v-3.3968c0-1.2644 1.0241-2.1616 2.2863-2.1616h3.2686c1.2631 0 2.2863-1.0253 2.2863-2.2888v-7.1358c0-1.2645-1.0241-2.2621-2.2863-2.2621z"/><path d="m32.9049 26.0998c0-1.2644 1.0241-2.2887 2.2863-2.2887h16.814c1.263 0 2.2863-1.0253 2.2863-2.2888v-4.2335c0-1.2644-1.0241-2.2888-2.2863-2.2888h-17.7884c-1.2631 0-2.2863 1.0252-2.2863 2.2888v3.2616c0 1.2644-1.0241 2.2888-2.2863 2.2888h-3.2544c-1.2631 0-2.2863 1.0252-2.2863 2.2888v7.1429c0 1.2644 1.0277 2.2372 2.2907 2.2372h4.2289c1.263 0 2.2862-1.0253 2.2862-2.2888l-.0035-6.1195z"/><path d="m45.6749 30.0605h-4.0619c-1.3244 0-2.3982 1.0749-2.3982 2.4009v4.0663c0 1.3259 1.0738 2.4008 2.3982 2.4008h4.0619c1.3245 0 2.3982-1.0749 2.3982-2.4008v-4.0663c0-1.326-1.0737-2.4009-2.3982-2.4009z"/></g></svg>