<svg fill="none" height="89" viewBox="0 0 90 89" width="90" xmlns="http://www.w3.org/2000/svg"><circle cx="44.9512" cy="44.5" fill="#ffe804" r="44.5"/><path clip-rule="evenodd" d="m45.212 14.2402c1.958 0 3.738 3.026 3.738 6.586v.178c1.068-1.246 2.314-1.958 3.382-1.602s1.424 1.78 1.246 3.56c0 .89-.178 1.78-.534 2.67-.178.534-.534 1.068-.712 1.424 14.24 3.56 24.386 15.842 24.208 37.024h-8.722c.178-17.978-9.968-26.878-23.14-27.056-14.418-.356-22.428 9.612-23.318 27.056h-8.9c1.068-21.36 9.968-34.176 25.632-36.846-.178-.356-.712-1.068-.89-1.602-1.246-2.67-1.068-5.34.356-6.052 1.068-.534 2.848.356 3.916 1.958v-.712c.178-3.56 1.78-6.586 3.738-6.586zm-8.01 33.108c1.068 0 1.958 1.068 1.958 2.136v5.34c0 1.246-.89 2.136-1.958 2.136s-1.958-1.068-1.958-2.136v-5.34c.178-1.246.89-2.136 1.958-2.136zm15.308 0c1.068 0 1.958 1.068 1.958 2.136v5.34c0 1.246-.89 2.136-1.958 2.136s-1.958-1.068-1.958-2.136v-5.34c.178-1.246.89-2.136 1.958-2.136z" fill="#000" fill-rule="evenodd"/></svg>