<svg fill="none" height="89" viewBox="0 0 89 89" width="89" xmlns="http://www.w3.org/2000/svg" xmlns:xlink="http://www.w3.org/1999/xlink"><clipPath id="a"><path d="m19.6646 18h49v52h-49z"/></clipPath><circle cx="44.2225" cy="44.2225" fill="#245ae5" r="44.2225"/><g clip-path="url(#a)"><path d="m47.5528 18.78 17.0719 8.71c2.476 1.3 4.0399 3.77 4.0399 6.63v4.03h-6.2554v-4.03c0-.39-.2606-.78-.6516-1.04l-17.0718-8.71c-.2606-.13-.6516-.13-1.0425 0l-17.0718 8.71c-.391.13-.6516.52-.6516 1.04v4.03h-6.2553v-4.03c0-2.73 1.5638-5.33 4.0398-6.63l17.0719-8.71c2.0851-1.04 4.5611-1.04 6.7765 0zm1.9548 24.96c0-2.99-2.476-5.33-5.343-5.33-2.8671 0-5.3431 2.34-5.3431 5.33s2.476 5.33 5.3431 5.33c2.867 0 5.343-2.34 5.343-5.33zm12.1197 11.18c.391-.13.6516-.52.6516-1.04v-4.03h6.2553v4.03c0 2.73-1.5638 5.33-4.0399 6.63l-17.0718 8.71c-1.0425.52-2.2154.78-3.3883.78-1.1728 0-2.3457-.26-3.3883-.78l-16.9415-8.71c-2.476-1.3-4.0398-3.77-4.0398-6.63v-4.03h6.2553v4.03c0 .39.2606.78.6516 1.04l14.4654 7.28v-7.28c-4.9521-1.43-8.4708-5.85-8.4708-11.18 0-6.37 5.2128-11.7 11.7288-11.7 6.5159 0 11.7287 5.2 11.7287 11.7 0 5.33-3.6489 9.88-8.4708 11.18v7.28z" fill="#fff"/></g></svg>