<svg fill="none" height="89" viewBox="0 0 89 89" width="89" xmlns="http://www.w3.org/2000/svg" xmlns:xlink="http://www.w3.org/1999/xlink"><clipPath id="a"><path d="m0 0h88.45v88.2901h-88.45z"/></clipPath><g clip-path="url(#a)"><path d="m18.3836 41.9645c0-.4943.0945-.9814.2908-1.4393.189-.458.4652-.8723.8141-1.2212s.7633-.6251 1.2212-.8141c.458-.189.945-.2835 1.4393-.2835l6.2441.0218c.9959 0 1.9481.3925 2.6532 1.0976s1.0977 1.6573 1.0977 2.6532v23.6099c.7051-.2108 1.6064-.4288 2.595-.6614.6833-.16 1.3012-.5525 1.7373-1.1049.4362-.5525.676-1.2358.676-1.9409v-29.2871c0-.9958.3926-1.9481 1.0977-2.6532s1.6573-1.0976 2.6532-1.0976h6.2586c.9959 0 1.9482.3925 2.6533 1.0976s1.0976 1.6574 1.0976 2.6532v27.1791s1.5628-.6324 3.0893-1.2794c.567-.2398 1.0541-.6396 1.3884-1.1557.3417-.5162.5234-1.1122.5234-1.7301v-32.3837c0-.9958.3925-1.9481 1.0976-2.6532s1.6574-1.0976 2.6532-1.0976h6.2587c.9959 0 1.9481.3925 2.6532 1.0976s1.0976 1.6574 1.0976 2.6532v26.6848c5.4228-3.9326 10.9182-8.6575 15.2869-14.3419.6324-.8287 1.054-1.7955 1.2212-2.8204s.08-2.079-.2617-3.0603c-2.0208-5.808-5.2264-11.1362-9.4207-15.6285-4.1943-4.49952-9.2826-8.06864-14.9379-10.48924-5.6481-2.42786-11.7468-3.6417986-17.8965-3.56910793-6.1496.07269063-12.2193 1.43200793-17.8165 3.98344793-5.5971 2.55144-10.5982 6.2441-14.6835 10.8382-4.08518 4.594-7.16726 9.9949-9.04995 15.8538-1.882689 5.8589-2.515098 12.0449-1.868151 18.1581.646947 6.1133 2.565981 12.0303 5.626261 17.3658.53064.9232 1.3157 1.6719 2.26068 2.159.94497.487 2.00626.6978 3.06756.6033 1.1848-.1018 2.6532-.2544 4.405-.458.7633-.0872 1.4684-.4506 1.9772-1.0249.5089-.5743.7924-1.3157.7924-2.079v-23.4354z" fill="#21325b"/><path d="m18.2451 79.8361c6.5931 4.7976 14.3855 7.6762 22.5196 8.3231 8.1268.6397 16.2827-.974 23.5445-4.674 7.2691-3.6999 13.3678-9.3407 17.6275-16.2972s6.5131-14.9525 6.5131-23.1084c0-1.0177-.0437-2.0208-.1163-3.0239-16.1519 24.0896-45.9696 35.3494-70.0884 38.7804z" fill="#979695"/></g></svg>