<svg fill="none" height="89" viewBox="0 0 89 89" width="89" xmlns="http://www.w3.org/2000/svg"><circle cx="44.2225" cy="44.2225" fill="#fff" r="44.2225"/><path clip-rule="evenodd" d="m69.2394 41.9742c.4788-1.3345 2.4814-1.9681 3.6872-1.9681h.5486v2.9611c-.688 0-1.3896-.037-2.0508.1934-.4595.1511-.8671.4333-1.175.8133-.562.7749-.5151 1.2536-.5593 1.9805-.0416.7063-.0228 1.1891-.0228 1.8968v5.253h-3.1669v-12.9651h2.7443zm-38.5028 8.0591c-2.2681 2.2699-4.2251 3.3671-7.4469 3.3671-5.3653 0-9.07-3.8306-9.07-9.2249 0-5.5396 4.201-9.1755 9.1209-9.1755 2.8719.0033 5.5998 1.2863 7.4712 3.5139l-2.295 2.2452c-1.5519-1.6843-3.246-2.5621-5.2513-2.5621-3.2191 0-5.8467 2.5374-5.8467 5.9785 0 3.6126 2.5297 6.0279 5.9192 6.0279 2.1233 0 3.5558-.8778 5.1788-2.5373zm13.5878.4842c-1.3601 1.9777-3.1534 2.861-5.824 2.861-4.0333 0-6.6341-3.0256-6.6341-6.833 0-3.5385 2.5056-6.8096 6.5872-6.8096 4.0092 0 6.7294 2.9296 6.7294 7.0291 0 .2935-.0229.4389-.0229.7324h-10.2154c.3099 1.9284 1.7437 3.0009 3.5558 3.0009 1.3601 0 2.2682-.3895 3.1508-1.2687zm-2.3392-5.589c-.4293-1.5087-1.7893-2.4399-3.4874-2.4399-1.5747 0-2.7927.805-3.4123 2.4399zm4.8064-9.8586h3.1735v17.9671h-3.1735zm17.2403 15.4476c-1.3601 1.9777-3.1507 2.861-5.8239 2.861-4.0334 0-6.6342-3.0256-6.6342-6.833 0-3.5385 2.5056-6.8096 6.5872-6.8096 4.0092 0 6.7307 2.9296 6.7307 7.0291 0 .2935-.0241.4389-.0241.7324h-10.2155c.3099 1.9284 1.7437 3.0009 3.5559 3.0009 1.3614 0 2.2681-.3895 3.1507-1.2687zm-2.3392-5.589c-.4292-1.5087-1.7893-2.4399-3.4874-2.4399-1.5747 0-2.7913.805-3.4123 2.4399z" fill="#000" fill-rule="evenodd"/></svg>