<svg fill="none" height="89" viewBox="0 0 89 89" width="89" xmlns="http://www.w3.org/2000/svg" xmlns:xlink="http://www.w3.org/1999/xlink"><clipPath id="a"><path d="m24.3296 16h40v56h-40z"/></clipPath><circle cx="44.2225" cy="44.2225" fill="#31cb9e" r="44.2225"/><g clip-path="url(#a)" fill="#fff"><path d="m41.3921 43.9944 21.2582 11.9906c.7365.4172 1.6794-.1098 1.6794-.9443v-22.0926c0-.8345-.9318-1.367-1.6794-.9443z"/><path d="m61.4058 26.8323-14.1052-10.6071c-.6528-.4831-1.6013-.1427-1.7798.6424l-5.1556 23.6298 20.929-11.8314c.7031-.4008.7644-1.3506.1116-1.8282z"/><path d="m47.3009 71.7745 14.1443-10.6236c.636-.4831.5691-1.4274-.1116-1.8282l-20.9625-11.8149 5.1723 23.6298c.145.7851 1.0936 1.1255 1.7631.6424z"/><path d="m35.9463 43.994 5.5628-25.458c.212-.9937-.9485-1.7349-1.7799-1.0925l-14.2391 10.7058c-.7365.5436-1.1605 1.411-1.1605 2.3114v27.1106c0 .9004.424 1.7678 1.1605 2.3114l14.2391 10.6894c.8146.6094 1.9919-.1098 1.7799-1.0926l-5.5628-25.4909z"/></g></svg>