<svg fill="none" height="89" viewBox="0 0 89 89" width="89" xmlns="http://www.w3.org/2000/svg" xmlns:xlink="http://www.w3.org/1999/xlink"><clipPath id="a"><path d="m16.2148 28h56v37h-56z"/></clipPath><circle cx="44.2225" cy="44.2225" fill="#fff" r="44.2225"/><g clip-path="url(#a)" fill="#31e530"><path d="m16.2148 35.3916v12.876l11.5148 6.7122v-12.9238z"/><path d="m31.7609 44.1665v-.0174c0-.0653.0139-.1262.0324-.1828v-.0087c.0185-.061.0462-.1176.0786-.1741 0 0 0 0 0-.0044.0371-.0522.0787-.1045.125-.1524.0463-.0435.1018-.087.1666-.1175h.0046l8.4417-4.5053-.0093-3.0644-11.2416 6.142v12.8368l2.3973-1.5366v-9.2021z"/><path d="m28.3125 28-11.311 6.0419 11.5563 6.6948 11.2648-6.1507z"/><path d="m72.2149 49.8125v-11.8574l-25.6397 14.2907v12.7541z"/><path d="m38.948 48.7637-5.5491-3.2168v6.7732.9315 4.9275l11.5425 6.8211v-12.7629l-4.4707-2.59-.759-.444"/><path d="m60.3667 30.2202-18.1097 9.6722-.8192.4353-.8146.4353-6.4377 3.4388 6.2434 3.613.7636.444.759.4396 3.8228 2.2113 25.6767-14.3168-11.0843-6.3771z"/></g></svg>