<svg fill="none" height="89" viewBox="0 0 89 89" width="89" xmlns="http://www.w3.org/2000/svg" xmlns:xlink="http://www.w3.org/1999/xlink"><clipPath id="a"><path d="m21.6582 20h46v50h-46z"/></clipPath><circle cx="44.2225" cy="44.2225" fill="#040818" r="44.2225"/><g clip-path="url(#a)"><path d="m45.7503 60.5414c4.003-.3189 7.102-2.2778 9.7765-5.103 1.6436-1.7348 3.9395-2.0666 5.8698-1.0301 2.657 1.4266 3.4099 4.8164 1.4204 7.077-5.4934 6.2387-12.4159 9.1673-20.8333 8.3893-1.4007-.1293-2.7817-.4676-4.2327-.8145.2123-.4353.4618-.7888.7638-1.0905 2.158-2.1399 4.3312-4.2604 6.4826-6.4046.2977-.2974.5056-.681.7529-1.0236z" fill="#59cdfe"/><path d="m21.6733 40.4748c.2714-1.0495.3218-2.224.8514-3.1248 2.8605-4.8638 5.8304-9.6672 8.7872-14.4771 2.3659-3.8467 7.1962-3.8359 9.5248.0732-.4552.2543-.9126.3534-1.2037.625-2.4272 2.2735-4.839 4.5621-7.2224 6.8787-3.1122 3.0277-6.1806 6.0964-9.295 9.1199-.3961.3857-.9586.6077-1.4423.9029z" fill="#02ebe8"/><path d="m21.6584 40.5629c.499-.3858 1.0615-.6077 1.4576-.9913 3.1144-3.0235 6.185-6.0922 9.295-9.1199 2.3834-2.3188 4.7953-4.6052 7.2224-6.8787.2889-.2716.7463-.3707 1.2081-.5496.8339 1.2693.8514 2.6054.3086 4.0406-.4749.2543-.8667.3901-1.1359.6487-4.3137 4.1505-8.6099 8.3204-12.9127 12.4795-1.2979 1.2542-2.6088 2.4912-3.9132 3.7368-1.0221-.862-1.4314-2.002-1.5321-3.3661z" fill="#0be9ec"/><path d="m43.9817 45.4826c-1.6108-.0258-2.7948-.8103-3.6921-2.1377 3.2522-3.1743 6.4695-6.2301 9.6648-9.3096 2.2368-2.1571 4.4166-4.3746 6.6774-6.5059.7069-.6659 1.5933-1.1464 2.3987-1.711-.2451.7714-.3567 1.6184-.7594 2.2993-1.8078 3.0558-3.6966 6.0642-5.7035 9.1221-.4881.2866-.8601.5129-1.1687.8016-1.8625 1.7434-3.7294 3.4803-5.5503 5.2625-.6828.6681-1.2497 1.4482-1.8691 2.1787z" fill="#2eddf4"/><path d="m59.0547 25.73c-.8273.6551-1.7159 1.1335-2.4228 1.7994-2.2608 2.1335-4.4407 4.3488-6.6774 6.5059-3.1954 3.0795-6.4126 6.1353-9.6912 9.2385-.4136-.9935-.7572-2.0214-1.0089-3.1571.429-.3728.7901-.6185 1.0987-.9116 1.0242-.9697 2.0288-1.9588 3.0465-2.9351 2.994-2.8725 5.9814-5.7516 8.9886-8.6113 1.8778-1.7865 3.7819-3.5428 5.675-5.312.3393 1.0969.6763 2.1959.9915 3.3833z" fill="#28dff3"/><path d="m58.0395 22.2778c-1.8691 1.8404-3.7754 3.5967-5.651 5.3832-3.0071 2.8596-5.9946 5.7387-8.9886 8.6113-1.0177.9762-2.0201 1.9675-3.0465 2.9351-.3108.2931-.6697.5387-1.079.821.1642-.8275.2495-1.7541.6653-2.5019 1.1447-2.0537 2.4294-4.0341 3.7973-6.0921.5887-.3319 1.1052-.5474 1.4795-.9073 2.0222-1.9438 4.0182-3.9135 6.0011-5.896 1.4182-1.418 2.8014-2.8705 4.1999-4.3079.8667.6271 1.7334 1.2564 2.622 1.9546z" fill="#20e1f0"/><path d="m45.6495 60.5289c-.1467.3578-.3546.7413-.6522 1.0387-2.1514 2.1442-4.3269 4.2669-6.4827 6.4046-.3042.3017-.5515.6552-.8426 1.056-1.729-.6206-3.4427-1.3102-5.2067-2.127.3896-.6745.7814-1.2714 1.2847-1.7606 1.543-1.502 3.1429-2.9502 4.6858-4.4501.2605-.2521.359-.6637.5319-1.002 2.1404.6939 4.3356.9503 6.6839.8404z" fill="#4ed1fc"/><path d="m23.2188 43.9978c1.2759-1.3124 2.5869-2.5515 3.8847-3.8057 4.305-4.1592 8.6012-8.3291 12.9128-12.4796.2692-.2586.6609-.3943 1.0768-.5904-.3371.7801-.7179 1.5839-1.1753 2.3446-1.2388 2.058-2.5104 4.0966-3.8914 6.2107-.8995.7197-1.7093 1.3404-2.449 2.0343-2.2805 2.142-4.5479 4.2992-6.7869 6.4822-.3348.3254-.4968.8232-.7375 1.2412-.9345-.4568-1.8691-.9115-2.8342-1.4373z" fill="#12e6ed"/><path d="m38.8998 59.6498c-.1073.3772-.2057.7888-.4662 1.0409-1.5451 1.502-3.1428 2.948-4.6858 4.45-.5012.4871-.8929 1.084-1.3416 1.7068-1.3832-.9051-2.762-1.8813-4.143-2.989 1.1337-1.2563 2.2674-2.3855 3.4033-3.5126 1.0571-1.0516 2.1163-2.1011 3.1756-3.1506 1.3307.8038 2.6592 1.6098 4.0577 2.4524z" fill="#42d5f8"/><path d="m34.8031 57.139c-1.0177 1.1076-2.077 2.1571-3.1341 3.2066-1.1359 1.127-2.2696 2.2563-3.4427 3.4566-.9651-.8534-1.8931-1.7779-2.7707-2.8123.3677-.4008.6916-.6853 1.0023-.9827 1.8604-1.7778 3.7163-3.56 5.5744-5.3422.9105.806 1.8209 1.6098 2.773 2.4718z" fill="#38d9f6"/><path d="m64.3861 35.4297c.8667.7499 1.7312 1.4999 2.5738 2.3877-.7048.8361-1.3701 1.5494-2.0683 2.2283-1.7049 1.6615-3.4229 3.3079-5.1366 4.9607-.8054-.7973-1.613-1.5968-2.3746-2.5256 1.7837-1.8102 3.5302-3.4825 5.257-5.1741.6106-.5991 1.1687-1.2499 1.7509-1.877z" fill="#4cd2fb"/><path d="m55.3471 20.2818c-1.3285 1.4784-2.7117 2.9308-4.1299 4.3488-1.9829 1.9826-3.9811 3.9501-6.0011 5.896-.3743.3599-.8886.5776-1.4182.8663 1.7749-3.0536 3.5258-6.1805 5.5196-9.15 1.3788-2.0537 3.5302-2.6119 6.0318-1.9611z" fill="#19e2ed"/><path d="m59.8054 45.0669c1.6612-1.7132 3.3814-3.3596 5.0841-5.0211.6982-.681 1.3635-1.3921 2.0814-2.1571 1.1468 2.3317.8426 4.519-.8207 6.1826-1.4511 1.4525-4.0249 2.1938-6.347.9935z" fill="#54cefc"/><path d="m64.325 35.3801c-.5209.6766-1.079 1.3275-1.6896 1.9265-1.7268 1.6917-3.4733 3.364-5.2614 5.0987-.9499-1.8662-.6325-4.1548.8404-5.6784 1.6896-1.7455 3.7294-2.198 6.1106-1.3468z" fill="#42d5f8"/><path d="m31.984 54.6051c-1.8122 1.8446-3.6681 3.6268-5.5284 5.4047-.3108.2974-.6347.5818-1.0177.9094-1.2059-1.8016-.9695-4.1225.5165-5.6849 1.5167-1.5947 3.8454-1.8662 6.0318-.6292z" fill="#2eddf4"/><path d="m26.1294 45.4737c.1641-.459.3261-.9568.661-1.2822 2.2389-2.183 4.5063-4.3401 6.7868-6.4822.7397-.6939 1.5495-1.3145 2.4031-1.9739-1.427 2.4717-2.8715 4.9823-4.4494 7.411-1.2191 1.8769-3.0619 2.642-5.4015 2.3252z" fill="#19e2ed"/><path d="m44.0564 45.5257c.5449-.7715 1.1118-1.5516 1.7946-2.2196 1.8231-1.7822 3.69-3.5191 5.5503-5.2625.3086-.2888.6785-.5129 1.0965-.778-1.2168 2.1485-2.4031 4.3811-3.8432 6.4413-1.0286 1.474-2.7094 1.9632-4.6004 1.8166z" fill="#38d9f6"/></g></svg>