<svg width="25" height="25" viewBox="0 0 25 25" fill="none" xmlns="http://www.w3.org/2000/svg">
<path fill-rule="evenodd" clip-rule="evenodd" d="M12.7586 3.54551C12.5916 3.48418 12.4083 3.48418 12.2413 3.54551L3.92986 6.59871C3.63467 6.70714 3.43848 6.98823 3.43848 7.30271V17.48C3.43848 17.7848 3.62289 18.0592 3.90505 18.1744L12.2165 21.5669C12.3982 21.641 12.6017 21.641 12.7834 21.5669L21.0949 18.1744C21.377 18.0592 21.5614 17.7848 21.5614 17.48V7.30271C21.5614 6.98823 21.3652 6.70714 21.07 6.59871L12.7586 3.54551ZM11.75 11.1498L4.93848 8.41242V16.9761L11.75 19.7563V11.1498ZM13.25 11.1627L14.5371 10.68C14.9249 10.5346 15.1214 10.1023 14.976 9.71444C14.8305 9.3266 14.3982 9.1301 14.0104 9.27554L12.5093 9.83843L6.27797 7.33414L12.5 5.04851L18.7616 7.3487L16.3658 8.3529C15.9838 8.51302 15.8039 8.95251 15.964 9.33452C16.1241 9.71653 16.5636 9.89641 16.9456 9.73629L20.0614 8.43029V16.9761L13.25 19.7563V11.1627Z" fill="currentColor"/>
</svg>
