<svg width="25" height="24" viewBox="0 0 25 24" fill="none" xmlns="http://www.w3.org/2000/svg">
<path fill-rule="evenodd" clip-rule="evenodd" d="M3.5 12C3.5 7.02944 7.52944 3 12.5 3C17.4706 3 21.5 7.02944 21.5 12C21.5 16.9706 17.4706 21 12.5 21C7.52944 21 3.5 16.9706 3.5 12ZM12.5 1.5C6.70101 1.5 2 6.20101 2 12C2 17.799 6.70101 22.5 12.5 22.5C18.299 22.5 23 17.799 23 12C23 6.20101 18.299 1.5 12.5 1.5ZM12.5 10.5C13.7426 10.5 14.75 9.49264 14.75 8.25C14.75 7.00736 13.7426 6 12.5 6C11.2574 6 10.25 7.00736 10.25 8.25C10.25 9.49264 11.2574 10.5 12.5 10.5ZM11 14.25C11 15.4926 9.99264 16.5 8.75 16.5C7.50736 16.5 6.5 15.4926 6.5 14.25C6.5 13.0074 7.50736 12 8.75 12C9.99264 12 11 13.0074 11 14.25ZM16.25 16.5C17.4926 16.5 18.5 15.4926 18.5 14.25C18.5 13.0074 17.4926 12 16.25 12C15.0074 12 14 13.0074 14 14.25C14 15.4926 15.0074 16.5 16.25 16.5Z" fill="#101010"/>
</svg>
