<svg width="25" height="25" viewBox="0 0 25 25" fill="none" xmlns="http://www.w3.org/2000/svg">
<path d="M21.3879 5.95525V16.5603H15.1126C14.495 16.5603 13.865 16.727 13.3091 17.0791V7.75878C13.3091 6.76437 14.1182 5.95525 15.1126 5.95525H21.3879ZM3.61206 5.95525H9.89353C10.8879 5.95525 11.6971 6.76437 11.6971 7.75878V17.0791C11.1659 16.7517 10.5421 16.5603 9.89353 16.5603H3.61206V5.95525ZM23 6.94966V5.14613C23 4.70143 22.6418 4.34319 22.1971 4.34319H15.1126C14.0688 4.34319 13.1238 4.81878 12.5 5.55996C11.8576 4.79408 10.9003 4.34319 9.88735 4.34319H2.80294C2.35824 4.34319 2 4.70143 2 5.14613V17.3632C2 17.8079 2.35824 18.1723 2.80294 18.1723H9.88735C10.8818 18.1723 11.6909 18.9814 11.6909 19.9758C11.6909 20.4205 12.0491 20.7788 12.4938 20.7788C12.9385 20.7788 13.2968 20.4205 13.2968 19.9758C13.2968 18.9814 14.1059 18.1723 15.1003 18.1723H22.1847C22.6294 18.1723 22.9876 17.8141 22.9876 17.3694V6.94966H23Z" fill="currentColor"/>
<path d="M6.32971 10.3529C5.90353 10.3529 5.55765 10.007 5.55765 9.58084C5.55765 9.15466 5.90353 8.80878 6.32971 8.80878H8.59647C9.02265 8.80878 9.36853 9.15466 9.36853 9.58084C9.36853 10.007 9.02265 10.3529 8.59647 10.3529H6.32971Z" fill="currentColor"/>
<path d="M6.32971 13.8673C5.90353 13.8673 5.55765 13.5214 5.55765 13.0953C5.55765 12.6691 5.90353 12.3232 6.32971 12.3232H8.59647C9.02265 12.3232 9.36853 12.6691 9.36853 13.0953C9.36853 13.5214 9.02265 13.8673 8.59647 13.8673H6.32971Z" fill="currentColor"/>
<path d="M16.3974 10.3529C15.9712 10.3529 15.6253 10.007 15.6253 9.58084C15.6253 9.15466 15.9712 8.80878 16.3974 8.80878H18.6641C19.0903 8.80878 19.4362 9.15466 19.4362 9.58084C19.4362 10.007 19.0903 10.3529 18.6641 10.3529H16.3974Z" fill="currentColor"/>
<path d="M16.3974 13.8673C15.9712 13.8673 15.6253 13.5214 15.6253 13.0953C15.6253 12.6691 15.9712 12.3232 16.3974 12.3232H18.6641C19.0903 12.3232 19.4362 12.6691 19.4362 13.0953C19.4362 13.5214 19.0903 13.8673 18.6641 13.8673H16.3974Z" fill="currentColor"/>
</svg>
