<svg width="25" height="25" viewBox="0 0 25 25" fill="none" xmlns="http://www.w3.org/2000/svg">
<path fill-rule="evenodd" clip-rule="evenodd" d="M12.5 1.31099C12.7307 1.31099 12.9485 1.41712 13.0906 1.59876L19.8406 10.2238C19.9794 10.401 20.0311 10.6312 19.9817 10.8508C19.9322 11.0704 19.7867 11.2561 19.5854 11.3568L16.9604 12.6693C16.5899 12.8546 16.1394 12.7044 15.9542 12.3339C15.7689 11.9634 15.9191 11.5129 16.2896 11.3277L18.0938 10.4256L13.25 4.23625V12.6899L14.1529 12.2636C14.5274 12.0867 14.9744 12.2469 15.1513 12.6215C15.3282 12.996 15.1679 13.4431 14.7934 13.6199L12.8203 14.5517C12.6175 14.6474 12.3825 14.6474 12.1798 14.5517L5.42975 11.3642C5.22355 11.2668 5.07284 11.0809 5.02024 10.859C4.96763 10.6371 5.01883 10.4033 5.15938 10.2238L11.9094 1.59876C12.0515 1.41712 12.2694 1.31099 12.5 1.31099ZM11.75 12.6899V4.23625L6.91934 10.4088L11.75 12.6899Z" fill="currentColor"/>
<path fill-rule="evenodd" clip-rule="evenodd" d="M5.16719 13.5889C5.38352 13.3218 5.75373 13.236 6.06555 13.3806L12.5 16.3647L18.9345 13.3806C19.2463 13.236 19.6165 13.3218 19.8328 13.5889C20.0492 13.856 20.0562 14.236 19.85 14.511L13.1 23.511C12.9584 23.6998 12.7361 23.811 12.5 23.811C12.2639 23.811 12.0416 23.6998 11.9 23.511L5.15001 14.511C4.94378 14.236 4.95086 13.856 5.16719 13.5889ZM8.13825 15.9953L12.5 21.811L16.8618 15.9953L12.8156 17.8718C12.6154 17.9646 12.3846 17.9646 12.1845 17.8718L8.13825 15.9953Z" fill="currentColor"/>
</svg>
