<svg width="25" height="25" viewBox="0 0 25 25" fill="none" xmlns="http://www.w3.org/2000/svg">
<path d="M12.5 14.061C13.3284 14.061 14 13.3894 14 12.561C14 11.7326 13.3284 11.061 12.5 11.061C11.6716 11.061 11 11.7326 11 12.561C11 13.3894 11.6716 14.061 12.5 14.061Z" fill="currentColor"/>
<path fill-rule="evenodd" clip-rule="evenodd" d="M12.5 2.06099C6.70101 2.06099 2 6.762 2 12.561C2 18.36 6.70101 23.061 12.5 23.061C18.299 23.061 23 18.36 23 12.561C23 6.762 18.299 2.06099 12.5 2.06099ZM3.5 12.561C3.5 7.59043 7.52944 3.56099 12.5 3.56099C17.4706 3.56099 21.5 7.59043 21.5 12.561C21.5 17.5316 17.4706 21.561 12.5 21.561C7.52944 21.561 3.5 17.5316 3.5 12.561Z" fill="currentColor"/>
</svg>
