<svg width="25" height="25" viewBox="0 0 25 25" fill="none" xmlns="http://www.w3.org/2000/svg">
<path fill-rule="evenodd" clip-rule="evenodd" d="M4.37772 6.55627C3.89234 6.55627 3.49647 6.9508 3.49647 7.43926V15.3176C5.70112 13.0964 8.51842 11.4403 11.6863 10.6214C11.9586 10.5438 12.2405 10.5132 12.5063 10.5132C12.7939 10.5132 13.0636 10.5556 13.3109 10.6175L13.3162 10.6188C16.4822 11.4352 19.2984 13.0877 21.5035 15.3049V7.43926C21.5035 6.9508 21.1077 6.55627 20.6223 6.55627C19.5787 6.55627 18.6019 6.82922 17.7547 7.30829C18.6872 7.7919 19.5441 8.40062 20.3028 9.10921C20.6047 9.39117 20.6207 9.86428 20.3385 10.1659C20.0563 10.4676 19.5828 10.4835 19.2809 10.2016C18.2265 9.21679 16.9569 8.45622 15.5553 8.00623C15.1619 7.87991 14.9454 7.45883 15.0718 7.06572C15.1983 6.67261 15.6197 6.45632 16.0131 6.58263C16.0451 6.59292 16.0771 6.60334 16.109 6.61391C17.3541 5.642 18.9184 5.06099 20.6223 5.06099C21.9363 5.06099 23 6.1271 23 7.43926V16.8453C23 18.6246 21.5575 20.061 19.7855 20.061H15.7932L15.7842 20.061L15.7751 20.061H9.21866L9.20958 20.061L9.20051 20.061H5.21449C3.4337 20.061 2 18.6159 2 16.8453V7.43926C2 6.1271 3.06375 5.06099 4.37772 5.06099C6.08232 5.06099 7.64721 5.64248 8.89251 6.6151C10.0247 6.23995 11.2353 6.03685 12.4937 6.03685C12.7398 6.03685 12.9865 6.0435 13.2274 6.05689C13.64 6.07983 13.9558 6.43264 13.9329 6.84491C13.9099 7.25718 13.5568 7.5728 13.1442 7.54986C12.9321 7.53807 12.7132 7.53212 12.4937 7.53212C9.87225 7.53212 7.49199 8.5442 5.71216 10.2023C5.40991 10.4838 4.93644 10.4673 4.65464 10.1652C4.37285 9.86324 4.38943 9.39015 4.69168 9.10858C5.45378 8.39863 6.31245 7.79128 7.24591 7.30865C6.39854 6.82935 5.42155 6.55627 4.37772 6.55627ZM21.3148 17.6303C21.261 17.3409 21.1212 17.0732 20.915 16.8549L20.9067 16.8461C19.9034 15.7493 18.7434 14.7865 17.4602 13.9931C17.5036 14.0562 17.5442 14.1205 17.5822 14.1853C17.9552 14.8223 18.1619 15.6532 18.1619 16.5306C18.1619 17.2717 18.0144 17.9797 17.7437 18.5657H19.7855C20.4504 18.5657 21.0295 18.1866 21.3148 17.6303ZM15.6128 13.0084C14.7613 12.6223 13.8694 12.3059 12.9449 12.0674C12.7906 12.0289 12.6458 12.0085 12.5063 12.0085C12.3481 12.0085 12.2065 12.0275 12.0924 12.0606L12.0815 12.0638L12.0704 12.0666C11.1437 12.3056 10.2498 12.6228 9.39638 13.01C10.1275 13.0876 10.673 13.6139 11.0076 14.1853C11.3806 14.8223 11.5873 15.6532 11.5873 16.5306C11.5873 17.2717 11.4398 17.9797 11.1692 18.5657H13.8246C13.5539 17.9797 13.4064 17.2717 13.4064 16.5306C13.4064 15.6532 13.6131 14.8223 13.9861 14.1853C14.3231 13.6099 14.8739 13.0802 15.6128 13.0084ZM7.5197 14.0134C6.24952 14.8029 5.1006 15.7586 4.10588 16.8461L4.09773 16.855C3.89114 17.0736 3.75169 17.3419 3.69529 17.6494C3.98342 18.1942 4.55525 18.5657 5.21449 18.5657H7.24999C6.97934 17.9797 6.83186 17.2717 6.83186 16.5306C6.83186 15.6532 7.03854 14.8223 7.41155 14.1853C7.44544 14.1274 7.4815 14.07 7.5197 14.0134ZM8.70318 18.1207C8.92784 18.5044 9.13039 18.5644 9.20697 18.5657H9.2122C9.28877 18.5644 9.49133 18.5044 9.71599 18.1207C9.93274 17.7506 10.0908 17.1901 10.0908 16.5306C10.0908 15.8711 9.93274 15.3106 9.71599 14.9404C9.48873 14.5523 9.28408 14.4954 9.20958 14.4954C9.13509 14.4954 8.93044 14.5523 8.70318 14.9404C8.48643 15.3106 8.32833 15.8711 8.32833 16.5306C8.32833 17.1901 8.48643 17.7506 8.70318 18.1207ZM15.2778 18.1207C15.5024 18.5044 15.705 18.5644 15.7815 18.5657H15.7868C15.8633 18.5644 16.0659 18.5044 16.2906 18.1207C16.5073 17.7506 16.6654 17.1901 16.6654 16.5306C16.6654 15.8711 16.5073 15.3106 16.2906 14.9404C16.0633 14.5523 15.8587 14.4954 15.7842 14.4954C15.7097 14.4954 15.505 14.5523 15.2778 14.9404C15.061 15.3106 14.9029 15.8711 14.9029 16.5306C14.9029 17.1901 15.061 17.7506 15.2778 18.1207Z" fill="currentColor"/>
</svg>
