<svg width="25" height="24" viewBox="0 0 25 24" fill="none" xmlns="http://www.w3.org/2000/svg">
<path fill-rule="evenodd" clip-rule="evenodd" d="M5.00517 6C5.41938 6 5.75517 5.66421 5.75517 5.25C5.75517 4.83579 5.41938 4.5 5.00517 4.5C4.59095 4.5 4.25517 4.83579 4.25517 5.25C4.25517 5.66421 4.59095 6 5.00517 6ZM5.00517 12.75C5.41938 12.75 5.75517 12.4142 5.75517 12C5.75517 11.5858 5.41938 11.25 5.00517 11.25C4.59095 11.25 4.25517 11.5858 4.25517 12C4.25517 12.4142 4.59095 12.75 5.00517 12.75ZM5.7373 18.75C5.7373 19.1642 5.40152 19.5 4.9873 19.5C4.57309 19.5 4.2373 19.1642 4.2373 18.75C4.2373 18.3358 4.57309 18 4.9873 18C5.40152 18 5.7373 18.3358 5.7373 18.75ZM8.03032 4.5C7.61611 4.5 7.28032 4.83579 7.28032 5.25C7.28032 5.66421 7.61611 6 8.03032 6H20.0303C20.4445 6 20.7803 5.66421 20.7803 5.25C20.7803 4.83579 20.4445 4.5 20.0303 4.5H8.03032ZM7.28032 12C7.28032 11.5858 7.61611 11.25 8.03032 11.25H20.0303C20.4445 11.25 20.7803 11.5858 20.7803 12C20.7803 12.4142 20.4445 12.75 20.0303 12.75H8.03032C7.61611 12.75 7.28032 12.4142 7.28032 12ZM8.01246 18C7.59825 18 7.26246 18.3358 7.26246 18.75C7.26246 19.1642 7.59825 19.5 8.01246 19.5H20.0125C20.4267 19.5 20.7625 19.1642 20.7625 18.75C20.7625 18.3358 20.4267 18 20.0125 18H8.01246Z" fill="currentColor"/>
</svg>
