<svg width="25" height="25" viewBox="0 0 25 25" fill="none" xmlns="http://www.w3.org/2000/svg">
<path fill-rule="evenodd" clip-rule="evenodd" d="M5.00517 6.56104C5.41938 6.56104 5.75517 6.22525 5.75517 5.81104C5.75517 5.39682 5.41938 5.06104 5.00517 5.06104C4.59095 5.06104 4.25517 5.39682 4.25517 5.81104C4.25517 6.22525 4.59095 6.56104 5.00517 6.56104ZM5.00517 13.311C5.41938 13.311 5.75517 12.9752 5.75517 12.561C5.75517 12.1468 5.41938 11.811 5.00517 11.811C4.59095 11.811 4.25517 12.1468 4.25517 12.561C4.25517 12.9752 4.59095 13.311 5.00517 13.311ZM5.7373 19.311C5.7373 19.7252 5.40152 20.061 4.9873 20.061C4.57309 20.061 4.2373 19.7252 4.2373 19.311C4.2373 18.8968 4.57309 18.561 4.9873 18.561C5.40152 18.561 5.7373 18.8968 5.7373 19.311ZM8.03032 5.06104C7.61611 5.06104 7.28032 5.39682 7.28032 5.81104C7.28032 6.22525 7.61611 6.56104 8.03032 6.56104H20.0303C20.4445 6.56104 20.7803 6.22525 20.7803 5.81104C20.7803 5.39682 20.4445 5.06104 20.0303 5.06104H8.03032ZM7.28032 12.561C7.28032 12.1468 7.61611 11.811 8.03032 11.811H20.0303C20.4445 11.811 20.7803 12.1468 20.7803 12.561C20.7803 12.9752 20.4445 13.311 20.0303 13.311H8.03032C7.61611 13.311 7.28032 12.9752 7.28032 12.561ZM8.01246 18.561C7.59825 18.561 7.26246 18.8968 7.26246 19.311C7.26246 19.7252 7.59825 20.061 8.01246 20.061H20.0125C20.4267 20.061 20.7625 19.7252 20.7625 19.311C20.7625 18.8968 20.4267 18.561 20.0125 18.561H8.01246Z" fill="currentColor"/>
</svg>
