<svg width="25" height="24" viewBox="0 0 25 24" fill="none" xmlns="http://www.w3.org/2000/svg">
<path fill-rule="evenodd" clip-rule="evenodd" d="M12.5001 2.22327C12.7635 2.22327 13.0076 2.36149 13.1432 2.58739L17.6432 10.0874C17.7822 10.3191 17.7858 10.6077 17.6527 10.8428C17.5196 11.0779 17.2703 11.2233 17.0001 11.2233H8.00005C7.72985 11.2233 7.48053 11.0779 7.3474 10.8428C7.21427 10.6077 7.21791 10.3191 7.35693 10.0874L11.8569 2.58739C11.9925 2.36149 12.2366 2.22327 12.5001 2.22327ZM12.5001 4.431L9.3247 9.72327H15.6754L12.5001 4.431ZM2.75049 15.0071C2.75049 13.7644 3.75785 12.7571 5.00049 12.7571H9.50049C10.7431 12.7571 11.7505 13.7644 11.7505 15.0071V19.5071C11.7505 20.7497 10.7431 21.7571 9.50049 21.7571H5.00049C3.75785 21.7571 2.75049 20.7497 2.75049 19.5071V15.0071ZM5.00049 14.2571C4.58628 14.2571 4.25049 14.5929 4.25049 15.0071V19.5071C4.25049 19.9213 4.58627 20.2571 5.00049 20.2571H9.50049C9.9147 20.2571 10.2505 19.9213 10.2505 19.5071V15.0071C10.2505 14.5929 9.9147 14.2571 9.50049 14.2571H5.00049ZM17.7504 14.2571C16.0935 14.2571 14.7504 15.6002 14.7504 17.2571C14.7504 18.9139 16.0935 20.2571 17.7504 20.2571C19.4072 20.2571 20.7504 18.9139 20.7504 17.2571C20.7504 15.6002 19.4072 14.2571 17.7504 14.2571ZM13.2504 17.2571C13.2504 14.7718 15.2651 12.7571 17.7504 12.7571C20.2357 12.7571 22.2504 14.7718 22.2504 17.2571C22.2504 19.7424 20.2357 21.7571 17.7504 21.7571C15.2651 21.7571 13.2504 19.7424 13.2504 17.2571Z" fill="currentColor"/>
</svg>
