<svg width="25" height="25" viewBox="0 0 25 25" fill="none" xmlns="http://www.w3.org/2000/svg">
<path fill-rule="evenodd" clip-rule="evenodd" d="M17.9493 5.78022C16.291 4.63096 14.2691 4.12922 12.2659 4.3699C10.2626 4.61058 8.41708 5.57699 7.07821 7.08635C5.90611 8.4077 5.19348 10.065 5.03413 11.811L9.0071 11.811L10.3076 8.53768C10.4192 8.2569 10.6884 8.07047 10.9904 8.06475C11.2925 8.05902 11.5685 8.23512 11.6907 8.51147L14.0378 13.8231L14.8387 12.225C14.9658 11.9712 15.2254 11.811 15.5092 11.811L18.5236 11.811C18.9378 11.811 19.2736 12.1468 19.2736 12.561C19.2736 12.9752 18.9378 13.311 18.5236 13.311L15.9723 13.311L14.6657 15.9182C14.5356 16.1778 14.2673 16.339 13.977 16.332C13.6867 16.3249 13.4265 16.1509 13.3092 15.8853L11.0414 10.7533L10.2131 12.8379C10.0997 13.1235 9.82345 13.311 9.51614 13.311L4.25058 13.311C4.25038 13.311 4.25018 13.311 4.24998 13.311C4.24978 13.311 4.24958 13.311 4.24938 13.311L2.73242 13.311C2.31821 13.311 1.98242 12.9752 1.98242 12.561C1.98242 12.1468 2.31821 11.811 2.73242 11.811H3.52886C3.69186 9.69752 4.54038 7.68692 5.95607 6.09096C7.53837 4.30717 9.71949 3.16505 12.0869 2.88061C14.4543 2.59617 16.8439 3.18913 18.8037 4.54735C20.7635 5.90557 22.1577 7.93488 22.7225 10.2515C23.2873 12.5681 22.9836 15.0113 21.8689 17.1191C20.7542 19.227 18.9057 20.8532 16.673 21.6904C14.4403 22.5275 11.9783 22.5174 9.75251 21.6621C7.52676 20.8068 5.6916 19.1654 4.59412 17.0486C4.40347 16.6808 4.54702 16.2282 4.91475 16.0375C5.28248 15.8469 5.73514 15.9904 5.92579 16.3582C6.85443 18.1494 8.40725 19.5382 10.2906 20.2619C12.1739 20.9857 14.2572 20.9942 16.1464 20.2859C18.0356 19.5775 19.5997 18.2014 20.5429 16.4179C21.4862 14.6343 21.7431 12.567 21.2652 10.6068C20.7873 8.64659 19.6076 6.92948 17.9493 5.78022Z" fill="currentColor"/>
</svg>
