<svg width="56" height="57" viewBox="0 0 56 57" fill="none" xmlns="http://www.w3.org/2000/svg">
<rect x="10.4985" y="5.75317" width="27.9961" height="40.2444" fill="#FFEEDA" stroke="black" stroke-width="2" stroke-linejoin="round"/>
<path d="M16.5029 30.5368L24.4641 20.1246L32.2402 30.5368L24.4641 42.1246L16.5029 30.5368Z" fill="#90F7EB" stroke="black" stroke-width="2" stroke-linejoin="round"/>
<path d="M16.4966 30.488L24.4468 33.2262L32.4966 30.488" stroke="black" stroke-width="2" stroke-linejoin="round"/>
<rect x="15.7478" y="11.0024" width="17.4976" height="5.24927" fill="#EBC28E" stroke="black" stroke-width="2" stroke-linejoin="round"/>
<rect width="38.4946" height="5.24927" transform="matrix(1 0 0 -1 5.24927 51.2468)" fill="#EBC28E" stroke="black" stroke-width="2" stroke-linejoin="round"/>
<path d="M45.2227 14.502H38.7168V20.1242H40.0209H42.0183L43.9316 22.4683V28.5H50.7429V17.9553L45.2227 14.502Z" fill="#FF9E8C" stroke="black" stroke-width="2" stroke-linejoin="round"/>
<path d="M46.5592 28.5C46.5592 30.6622 46.5592 35.3351 46.5592 36.7295C46.5592 38.124 41.3674 37.9274 38.7168 37.9274" stroke="black" stroke-width="2" stroke-linejoin="round"/>
</svg>
