<svg width="50" height="50" viewBox="0 0 50 50" fill="currentColor" xmlns="http://www.w3.org/2000/svg">
<path fill-rule="evenodd" clip-rule="evenodd" d="M8.79808 8.79549C12.9429 4.6507 18.675 2.08337 25.0026 2.08337C31.3302 2.08337 37.0623 4.6507 41.2071 8.7955L39.734 10.2686L41.2071 8.79551C45.3519 12.9404 47.9193 18.6724 47.9193 25C47.9193 31.3277 45.3519 37.0597 41.2071 41.2045C37.0623 45.3494 31.3303 47.9167 25.0026 47.9167C18.675 47.9167 12.9429 45.3494 8.79808 41.2045L10.2712 39.7314L8.79807 41.2045C4.65326 37.0597 2.08594 31.3277 2.08594 25C2.08594 18.6724 4.65326 12.9404 8.79806 8.79552L8.79808 8.79549ZM25.0026 6.25004C19.8244 6.25004 15.1398 8.34643 11.7443 11.7418C8.34896 15.1372 6.2526 19.8219 6.2526 25C6.2526 30.1782 8.34899 34.8629 11.7444 38.2583C15.1398 41.6536 19.8244 43.75 25.0026 43.75C30.1808 43.75 34.8654 41.6536 38.2608 38.2583C41.6562 34.8629 43.7526 30.1782 43.7526 25C43.7526 19.8219 41.6562 15.1372 38.2608 11.7418C34.8654 8.34643 30.1808 6.25004 25.0026 6.25004ZM36.8924 17.2769C37.706 18.0905 37.706 19.4096 36.8924 20.2232L24.3924 32.7232C23.5788 33.5368 22.2597 33.5368 21.4461 32.7232L15.1961 26.4732C14.3825 25.6596 14.3825 24.3405 15.1961 23.5269C16.0097 22.7133 17.3288 22.7133 18.1424 23.5269L22.9193 28.3038L33.9461 17.2769C34.7597 16.4633 36.0788 16.4633 36.8924 17.2769Z" fill="white"/>
</svg>
