<svg fill="none" height="20" viewBox="0 0 21 20" width="21" xmlns="http://www.w3.org/2000/svg"><path d="m12.0002 20.0002h-10.00001c-.26513.0092-.52931-.0362-.77613-.1335-.246822-.0972-.470995-.2442-.658581-.4318s-.334574-.4118-.431823-.6586c-.0972487-.2468-.14267906-.511-.1334658-.7761v-10.00001c-.00921326-.26513.0362171-.52931.1334658-.77613.097249-.24682.244237-.471.431823-.65858.187586-.18759.411759-.33457.658581-.43182.24682-.09725.511-.14268.77613-.13347h4v-4c-.00921-.26513.03622-.52931.13347-.77613.09725-.246822.24423-.470995.43182-.658581.18758-.187586.41176-.334574.65858-.431823.24682-.0972487.511-.14267906.77613-.1334658h10.00001c.2651-.00921326.5293.0362171.7761.1334658.2468.097249.471.244237.6586.431823s.3346.411759.4318.658581c.0973.24682.1427.511.1335.77613v10.00001c.0091.2651-.0365.5292-.1338.776-.0973.2467-.2443.4708-.4318.6584-.1876.1875-.4117.3345-.6584.4318-.2468.0973-.5109.1429-.776.1338h-4v4c.0091.2651-.0365.5292-.1338.776-.0973.2467-.2443.4708-.4318.6584-.1876.1875-.4117.3345-.6584.4318-.2468.0973-.5109.1429-.776.1338zm-10.00001-12.00001v10.00001h10.00001v-4h-4.00001c-.26509.0091-.52921-.0365-.77596-.1338s-.47087-.2443-.65842-.4318c-.18756-.1876-.33455-.4117-.43185-.6584-.0973-.2468-.14283-.5109-.13377-.776v-4.00001zm6-6v10.00001h10.00001v-10.00001z" fill="#333"/></svg>