<svg width="19" height="19" viewBox="0 0 19 19" fill="none" xmlns="http://www.w3.org/2000/svg">
<path fill-rule="evenodd" clip-rule="evenodd" d="M3.09212 3.60038C4.6828 1.87432 6.9634 0.791748 9.4974 0.791748C14.3069 0.791748 18.2057 4.6906 18.2057 9.50008C18.2057 14.3096 14.3069 18.2084 9.4974 18.2084C4.68791 18.2084 0.789062 14.3096 0.789062 9.50008C0.789062 9.06286 1.1435 8.70842 1.58073 8.70842C2.01795 8.70842 2.3724 9.06286 2.3724 9.50008C2.3724 13.4351 5.56237 16.6251 9.4974 16.6251C13.4324 16.6251 16.6224 13.4351 16.6224 9.50008C16.6224 5.56505 13.4324 2.37508 9.4974 2.37508C7.38788 2.37508 5.49181 3.29159 4.18652 4.75008H5.17925C5.61648 4.75008 5.97092 5.10452 5.97092 5.54175C5.97092 5.97897 5.61648 6.33342 5.17925 6.33342H2.30045C1.86322 6.33342 1.50878 5.97897 1.50878 5.54175V2.66297C1.50878 2.22574 1.86322 1.8713 2.30045 1.8713C2.73767 1.8713 3.09212 2.22574 3.09212 2.66297V3.60038ZM9.49946 3.95842C9.93668 3.95846 10.2911 4.31294 10.291 4.75016L10.2906 9.17568L13.4151 12.3002C13.7243 12.6094 13.7243 13.1106 13.4151 13.4198C13.106 13.729 12.6047 13.729 12.2955 13.4198L8.93911 10.0634C8.79062 9.91487 8.70721 9.71348 8.70723 9.50349L8.70771 4.75C8.70775 4.31278 9.06223 3.95837 9.49946 3.95842Z" fill="currentColor"/>
</svg>
