<svg xmlns="http://www.w3.org/2000/svg" width="18" height="15" viewBox="0 0 18 15" fill="none">
  <path d="M17.3953 1.80126C16.8723 2.0517 16.2955 2.20822 15.7284 2.30736C15.9973 2.2604 16.3883 1.74386 16.5497 1.52994C16.7892 1.21168 16.9896 0.846449 17.102 0.455134C17.1167 0.423829 17.1265 0.387306 17.102 0.361219C17.0678 0.345566 17.0434 0.356001 17.014 0.366436C16.3835 0.726445 15.7333 0.987322 15.0392 1.17515C14.9806 1.19081 14.9414 1.17515 14.9023 1.13863C14.8437 1.0708 14.7899 1.00297 14.7313 0.950799C14.438 0.684705 14.1251 0.476004 13.7732 0.324696C13.3088 0.121212 12.8053 0.037732 12.3067 0.0742547C11.8228 0.10556 11.3437 0.251651 10.9136 0.491657C10.4834 0.731663 10.0973 1.06558 9.78931 1.47255C9.47157 1.88995 9.23694 2.38562 9.11963 2.90737C9.00231 3.41347 9.01208 3.90914 9.08541 4.42045C9.09518 4.50393 9.08541 4.51437 9.01697 4.50393C6.30403 4.07088 4.05548 3.03781 2.23219 0.820361C2.15398 0.726445 2.10998 0.726445 2.04644 0.825578C1.24966 2.10387 1.63583 4.15436 2.63302 5.16656C2.765 5.30222 2.90187 5.43787 3.04851 5.55787C2.99474 5.56831 2.32995 5.49526 1.73848 5.16656C1.66027 5.11438 1.62117 5.14569 1.61139 5.23961C1.6065 5.37526 1.61139 5.5057 1.63094 5.65179C1.78247 6.94574 2.62324 8.14577 3.77685 8.61013C3.91372 8.67274 4.06526 8.72491 4.2119 8.751C3.94794 8.81361 3.67909 8.85535 2.92631 8.79274C2.83343 8.77187 2.79922 8.82405 2.83343 8.91796C3.40046 10.5615 4.61762 11.0519 5.53171 11.3285C5.65391 11.3493 5.77612 11.3493 5.89832 11.3806C5.88855 11.3911 5.88365 11.3911 5.87877 11.4015C5.5757 11.892 4.52475 12.2624 4.03593 12.445C3.14628 12.7789 2.17842 12.925 1.23989 12.8259C1.08836 12.7998 1.05902 12.805 1.01503 12.8259C0.975925 12.852 1.01014 12.8937 1.05902 12.9355C1.24966 13.0711 1.44519 13.1911 1.64072 13.3059C2.23707 13.645 2.85787 13.9111 3.51289 14.1042C6.87595 15.0955 10.6594 14.3651 13.1866 11.6885C15.1663 9.5858 15.8653 6.69008 15.8653 3.78392C15.8653 3.66913 15.9924 3.60652 16.0657 3.54913C16.5839 3.13694 16.9994 2.64128 17.3806 2.08822C17.4686 1.963 17.4686 1.85343 17.4686 1.80647V1.79082C17.4686 1.74386 17.4686 1.75952 17.4002 1.79082L17.3953 1.80126Z" fill="currentColor"/>
</svg>