<svg width="20" height="16" viewBox="0 0 20 16" fill="none" xmlns="http://www.w3.org/2000/svg">
<path d="M19.2787 1.85606C18.5678 2.17016 17.808 2.38229 17.0072 2.48019C17.8243 1.99068 18.4535 1.21562 18.7476 0.293706C17.9836 0.746504 17.138 1.07692 16.2351 1.25233C15.512 0.481352 14.4825 0 13.3468 0C11.1611 0 9.39218 1.7704 9.39218 3.9528C9.39218 4.26282 9.42486 4.56469 9.49432 4.85431C6.20562 4.69114 3.28869 3.11655 1.33999 0.722028C1.00091 1.30536 0.804811 1.9866 0.804811 2.70863C0.804811 4.07926 1.50749 5.2908 2.56967 6.00059C1.91602 5.98427 1.30322 5.80478 0.772128 5.507C0.772128 5.52331 0.772128 5.53963 0.772128 5.55595C0.772128 7.4732 2.13663 9.06819 3.94643 9.43124C3.61552 9.52098 3.26418 9.56993 2.90467 9.56993C2.65138 9.56993 2.40218 9.54546 2.16114 9.49651C2.66364 11.067 4.12619 12.2092 5.85837 12.2418C4.50612 13.3025 2.79845 13.9347 0.943712 13.9347C0.625056 13.9347 0.310485 13.9143 0 13.8776C1.74444 15.0117 3.82387 15.6643 6.05446 15.6643C13.3386 15.6643 17.3177 9.63928 17.3177 4.41376C17.3177 4.24243 17.3136 4.0711 17.3055 3.90385C18.0776 3.34499 18.7476 2.65152 19.2787 1.85606Z" fill="currentColor"/>
</svg>
