<svg width="15" height="16" viewBox="0 0 15 16" fill="none" xmlns="http://www.w3.org/2000/svg">
<path d="M13.6875 4.50781C12.7266 2.84375 11.1094 1.60156 9.23438 1.13281C8.625 0.992188 8.0625 0.921875 7.5 0.921875C6.91406 0.921875 6.30469 0.992188 5.71875 1.15625C3.86719 1.625 2.27344 2.84375 1.33594 4.53125C0.726562 5.60938 0.421875 6.78125 0.421875 8V8.16406C0.445313 9.45313 0.84375 10.7188 1.52344 11.8203C2.64844 13.6016 4.5 14.7734 6.5625 15.0078C6.84375 15.0547 7.14844 15.0781 7.5 15.0781C7.78125 15.0781 8.08594 15.0547 8.36719 15.0313C10.4766 14.7734 12.3281 13.6016 13.4766 11.8203C14.1797 10.7422 14.5547 9.47656 14.6016 8.16406V8C14.6016 6.82813 14.2734 5.60938 13.6875 4.50781ZM12.0234 7.67188C11.9531 6.89844 11.7656 6.14844 11.4609 5.44531H12.9609C13.2891 6.14844 13.4766 6.92188 13.5234 7.67188H12.0234ZM1.47656 7.67188C1.52344 6.89844 1.71094 6.14844 2.03906 5.44531H3.39844C3.09375 6.14844 2.92969 6.89844 2.85937 7.67188H1.47656ZM4.57031 5.44531H6.96094V7.67188H3.9375C4.00781 6.875 4.21875 6.125 4.57031 5.44531ZM9.65625 4.39063H8.01563V2.44531C8.55469 2.86719 9.09375 3.52344 9.65625 4.39063ZM6.98438 2.42188V4.39063H5.22656C5.8125 3.5 6.39844 2.84375 6.98438 2.42188ZM6.98438 8.72656V10.9531H4.64062C4.26562 10.2734 4.03125 9.5 3.96094 8.72656H6.98438ZM6.98438 12.0078V13.625C6.39844 13.2266 5.8125 12.6641 5.29688 12.0078H6.98438ZM8.03906 13.625V11.9844H9.82031C9.32813 12.6641 8.71875 13.2266 8.03906 13.625ZM8.03906 10.9531V8.72656H10.9922C10.9453 9.5 10.7578 10.25 10.4297 10.9531H8.03906ZM8.03906 7.67188V5.44531H10.3125C10.6641 6.125 10.8984 6.89844 10.9688 7.67188H8.03906ZM12.3281 4.39063H10.8984C10.3828 3.52344 9.86719 2.82031 9.35156 2.28125C10.5469 2.65625 11.6016 3.40625 12.3281 4.39063ZM5.50781 2.30469C4.99219 2.84375 4.47656 3.54688 3.96094 4.36719H2.69531C3.39844 3.42969 4.38281 2.70313 5.50781 2.30469ZM1.5 8.72656H2.88281C2.95313 9.5 3.14062 10.25 3.44531 10.9531H2.22656C1.82812 10.25 1.59375 9.5 1.5 8.72656ZM2.97656 12.0078H4.03125C4.40625 12.6172 4.875 13.1797 5.34375 13.6484C4.42969 13.2969 3.60937 12.7344 2.97656 12.0078ZM9.82031 13.5781C10.2891 13.1328 10.7109 12.5938 11.0391 12.0313C11.0391 12.0313 11.0391 12.0078 11.0625 12.0078H12.0234C11.4141 12.6875 10.6641 13.2266 9.82031 13.5781ZM12.7734 10.9531H11.5547C11.8359 10.25 12 9.5 12.0234 8.72656H13.4766C13.4063 9.5 13.1484 10.25 12.7734 10.9531Z" fill="currentColor"/>
</svg>
