<svg width="16" height="16" viewBox="0 0 16 16" fill="none" xmlns="http://www.w3.org/2000/svg">
<path fill-rule="evenodd" clip-rule="evenodd" d="M8 2C4.68629 2 2 4.68629 2 8C2 9.35741 2.45076 10.6095 3.21076 11.6149C3.39291 11.1629 3.70024 10.6807 4.17047 10.2545C4.96652 9.53303 6.19694 9 8 9C10.865 9 12.3263 10.3595 12.8117 11.585C13.5581 10.5848 14 9.34398 14 8C14 4.68629 11.3137 2 8 2ZM11.9996 12.4726C11.9778 11.7797 11.1364 10 8 10C6.40306 10 5.42514 10.467 4.84203 10.9955C4.28155 11.5035 4.05501 12.0951 4.00522 12.4769C5.0661 13.4242 6.46581 14 8 14C9.5365 14 10.9381 13.4225 11.9996 12.4726ZM1 8C1 4.13401 4.13401 1 8 1C11.866 1 15 4.13401 15 8C15 11.866 11.866 15 8 15C4.13401 15 1 11.866 1 8ZM8 4.5C7.17157 4.5 6.5 5.17157 6.5 6C6.5 6.82843 7.17157 7.5 8 7.5C8.82843 7.5 9.5 6.82843 9.5 6C9.5 5.17157 8.82843 4.5 8 4.5ZM5.5 6C5.5 4.61929 6.61929 3.5 8 3.5C9.38071 3.5 10.5 4.61929 10.5 6C10.5 7.38071 9.38071 8.5 8 8.5C6.61929 8.5 5.5 7.38071 5.5 6Z" fill="currentColor"/>
</svg>
