<svg width="444" height="249" viewBox="0 0 444 249" fill="none" xmlns="http://www.w3.org/2000/svg">
<rect width="444" height="249" rx="25" fill="#FFF0DD"/>
<g clip-path="url(#clip0_126_173)">
<path fill-rule="evenodd" clip-rule="evenodd" d="M126.757 124.78L134.759 112.078L142.761 124.78L134.759 129.4L126.757 124.78Z" fill="#1F294F"/>
<path fill-rule="evenodd" clip-rule="evenodd" d="M126.757 126.95L134.759 131.57L142.761 126.95L134.759 137.919L126.757 126.95Z" fill="#1F294F"/>
<path fill-rule="evenodd" clip-rule="evenodd" d="M138.397 106.928C137.154 107.515 135.945 108.168 134.771 108.888C133.591 108.159 132.373 107.503 131.116 106.919C132.286 106.119 133.499 105.379 134.744 104.702C135.996 105.382 137.217 106.125 138.397 106.928Z" fill="#5F9A34"/>
<path fill-rule="evenodd" clip-rule="evenodd" d="M155.482 104.067C151.091 99.6307 143.086 100.16 134.744 104.702C135.996 105.382 137.217 106.125 138.397 106.929C141.626 105.421 144.701 104.611 147.308 104.611C149.637 104.611 151.592 105.255 152.947 106.625C155.822 109.529 155.48 115.15 152.649 121.326C153.442 122.517 154.178 123.748 154.854 125.015C159.352 116.589 159.877 108.505 155.482 104.067Z" fill="#FFC750"/>
<path fill-rule="evenodd" clip-rule="evenodd" d="M138.397 106.928C137.154 107.515 135.945 108.168 134.771 108.888C141.248 112.935 146.703 118.451 150.698 125C151.413 123.811 152.062 122.583 152.646 121.322C150.754 118.491 148.594 115.851 146.199 113.441C143.813 111.018 141.2 108.836 138.397 106.928Z" fill="#FFC750"/>
<path fill-rule="evenodd" clip-rule="evenodd" d="M154.854 125.012C154.181 126.273 153.445 127.498 152.652 128.687C152.068 127.423 151.419 126.192 150.701 125C151.416 123.811 152.065 122.583 152.649 121.323C153.442 122.514 154.178 123.745 154.854 125.012Z" fill="#FF512F"/>
<path fill-rule="evenodd" clip-rule="evenodd" d="M152.652 128.687C152.068 127.423 151.419 126.192 150.701 125C148.72 128.271 146.357 131.293 143.664 133.998C140.992 136.719 138.006 139.108 134.771 141.112C135.942 141.835 137.151 142.488 138.397 143.071C141.2 141.161 143.816 138.979 146.199 136.556C148.597 134.149 150.757 131.512 152.649 128.687H152.652Z" fill="#FF6895"/>
<path fill-rule="evenodd" clip-rule="evenodd" d="M157.422 131.088C156.758 128.984 155.897 126.953 154.854 125.012C154.181 126.273 153.445 127.498 152.652 128.687C155.479 134.859 155.822 140.474 152.947 143.375C150.072 146.28 144.51 145.93 138.4 143.072C138.146 143.243 137.896 143.412 137.643 143.574C136.702 144.188 135.736 144.763 134.747 145.298C139.186 147.718 143.53 149 147.287 149C150.585 149 153.43 148.013 155.482 145.939C158.697 142.692 159.382 137.42 157.422 131.091V131.088Z" fill="#FF6895"/>
<path fill-rule="evenodd" clip-rule="evenodd" d="M138.397 143.071C138.144 143.243 137.893 143.411 137.64 143.574C136.699 144.188 135.733 144.763 134.744 145.298C133.499 144.621 132.289 143.881 131.116 143.08C132.37 142.497 133.591 141.841 134.771 141.112C135.942 141.835 137.151 142.488 138.397 143.071Z" fill="#552990"/>
<path fill-rule="evenodd" clip-rule="evenodd" d="M127.66 144.438C122.732 145.997 118.791 145.617 116.571 143.375C114.349 141.13 113.976 137.152 115.519 132.174C115.892 130.983 116.339 129.818 116.86 128.684C116.071 127.498 115.338 126.276 114.664 125.018C113.622 126.956 112.764 128.987 112.099 131.091C110.136 137.42 110.824 142.692 114.036 145.939C116.05 147.971 118.85 149.003 122.202 149.003C124.421 148.97 126.623 148.597 128.732 147.896C130.815 147.224 132.829 146.355 134.75 145.301C133.505 144.624 132.295 143.884 131.122 143.084C129.998 143.61 128.842 144.065 127.663 144.441L127.66 144.438Z" fill="#5666F6"/>
<path fill-rule="evenodd" clip-rule="evenodd" d="M131.118 143.081C132.373 142.497 133.594 141.841 134.774 141.112C131.53 139.111 128.533 136.722 125.851 133.998C123.155 131.29 120.79 128.265 118.808 124.985C118.087 126.177 117.438 127.411 116.857 128.681C118.755 131.509 120.918 134.149 123.319 136.556C125.702 138.982 128.315 141.167 131.118 143.081Z" fill="#5666F6"/>
<path fill-rule="evenodd" clip-rule="evenodd" d="M118.809 124.985C118.088 126.177 117.438 127.411 116.857 128.681C116.068 127.495 115.335 126.273 114.661 125.015C115.335 123.748 116.074 122.517 116.869 121.323C117.447 122.58 118.094 123.802 118.809 124.985Z" fill="#204FA0"/>
<path fill-rule="evenodd" clip-rule="evenodd" d="M116.568 106.625C118.791 104.38 122.729 104.003 127.657 105.565C128.836 105.941 129.992 106.396 131.116 106.92C132.286 106.119 133.499 105.379 134.744 104.702C132.826 103.645 130.809 102.776 128.726 102.107C122.467 100.127 117.247 100.819 114.033 104.067C111.98 106.14 111 109.014 111 112.345C111 116.14 112.269 120.531 114.661 125.015C115.335 123.748 116.074 122.517 116.869 121.323C114.039 115.147 113.693 109.526 116.568 106.622V106.625Z" fill="#5FC5A6"/>
<path fill-rule="evenodd" clip-rule="evenodd" d="M131.119 106.92C125.512 110.772 120.676 115.659 116.869 121.326C117.447 122.584 118.093 123.805 118.808 124.988C122.816 118.44 128.282 112.926 134.771 108.891C133.591 108.162 132.373 107.506 131.116 106.923L131.119 106.92Z" fill="#5FC5A6"/>
<path d="M320.542 134.796V136.803C320.196 137.008 319.8 137.116 319.398 137.113C317.762 137.155 316.315 136.054 315.895 134.45C313.452 137.155 309.507 137.829 306.322 136.087C303.138 134.344 301.532 130.631 302.426 127.08C303.319 123.528 306.483 121.049 310.103 121.064C312.188 121.058 314.187 121.891 315.665 123.378V121.371H318.028V132.791C318.028 134.218 318.752 134.799 319.589 134.799H320.542V134.796ZM315.668 129.087C315.668 125.975 313.178 123.453 310.106 123.453C307.034 123.453 304.544 125.975 304.544 129.087C304.544 132.199 307.034 134.72 310.106 134.72C313.175 134.717 315.662 132.199 315.668 129.087ZM323.521 113.537H326.003V137.11H323.521V113.54V113.537ZM298.711 128.981C298.711 132.259 296.789 135.217 293.837 136.481C290.884 137.745 287.476 137.068 285.2 134.766V136.797H282.834V113.038H285.2V123.2C287.479 120.898 290.884 120.221 293.837 121.485C296.789 122.749 298.713 125.707 298.711 128.984V128.981ZM296.345 128.981C296.345 125.831 293.848 123.276 290.771 123.276C287.693 123.276 285.197 125.831 285.197 128.981C285.197 132.132 287.693 134.687 290.771 134.687C292.255 134.69 293.676 134.091 294.715 133.023C295.764 131.946 296.348 130.495 296.342 128.981H296.345ZM262.489 129.087C262.489 124.654 266.044 121.061 270.429 121.061C274.814 121.061 278.369 124.654 278.369 129.087C278.369 133.52 274.814 137.113 270.429 137.113C268.323 137.113 266.303 136.27 264.813 134.766C263.324 133.261 262.486 131.217 262.489 129.09V129.087ZM276.003 129.087C276.003 125.975 273.506 123.453 270.429 123.453C267.351 123.453 264.855 125.975 264.855 129.087C264.855 132.199 267.351 134.72 270.429 134.72C273.506 134.717 275.997 132.196 276.003 129.087ZM250.582 124.293V124.991C250.62 131.043 246.303 136.183 240.494 136.999C234.684 137.814 229.191 134.049 227.665 128.205C226.14 122.361 229.054 116.258 234.47 113.946C239.889 111.635 246.128 113.838 249.041 119.09L246.974 120.293C244.772 116.279 240.092 114.479 235.882 116.029C231.673 117.579 229.152 122.03 229.909 126.574C230.666 131.121 234.479 134.447 238.948 134.459C243.417 134.471 247.245 131.16 248.022 126.619H238.96V124.29H250.579L250.582 124.293ZM255.545 113.537H258.027V137.11H255.545V113.54V113.537ZM223.292 113.537V137.11H218.29V127.603H208.977V137.11H203.939V113.54H208.977V123.008H218.29V113.54H223.292V113.537ZM201.955 118.136H196.259V137.113H191.316V118.136H185.581V113.537H201.955C201.955 113.537 201.955 118.136 201.955 118.133V118.136ZM175.276 118.096V123.047H182.82V127.603H175.276V132.554H184.089V137.11H170.194V113.54H184.089V118.096H175.276Z" fill="#1F294F"/>
</g>
<defs>
<clipPath id="clip0_126_173">
<rect width="215" height="48" fill="white" transform="translate(111 101)"/>
</clipPath>
</defs>
</svg>
