<svg width="24" height="24" viewBox="0 0 24 24" fill="none" xmlns="http://www.w3.org/2000/svg">
<path fill-rule="evenodd" clip-rule="evenodd" d="M11.7587 1.6989C12.0631 1.97985 12.0821 2.45435 11.8011 2.75871L3.963 11.25L21.75 11.25C22.1642 11.25 22.5 11.5858 22.5 12C22.5 12.4142 22.1642 12.75 21.75 12.75L2.25002 12.75C1.95212 12.75 1.68246 12.5737 1.56298 12.3008C1.4435 12.0279 1.49685 11.7102 1.69891 11.4913L10.6989 1.74129C10.9799 1.43693 11.4544 1.41795 11.7587 1.6989ZM3.23277 13.3319C3.53272 13.0462 4.00745 13.0578 4.29312 13.3578L11.7931 21.2328C12.0788 21.5327 12.0672 22.0074 11.7673 22.2931C11.4673 22.5788 10.9926 22.5672 10.7069 22.2672L3.20691 14.3922C2.92125 14.0923 2.93283 13.6176 3.23277 13.3319Z" fill="white"/>
</svg>
