<svg width="180" height="150" viewBox="0 0 180 150" fill="none" xmlns="http://www.w3.org/2000/svg">
<g clip-path="url(#clip0_6916_30883)">
<path d="M36.3552 82.8797C36.3552 82.8797 38.2908 87.6284 36.0921 91.3436C33.8935 95.0606 33.3861 95.6169 33.341 97.4265C33.2959 99.2381 33.9837 103.023 33.1925 104.263C32.4014 105.503 31.0277 106.918 29.1767 106.956C27.3276 106.995 25.5292 105.778 25.159 102.282C24.7907 98.787 24.9485 96.8308 23.3775 96.3178C21.8065 95.8048 17.7832 101.41 17.7832 101.41C17.7832 101.41 13.8068 110.97 10.0485 109.951C6.2882 108.935 7.01169 105.851 7.01169 105.851C7.01169 105.851 2.22727 106.08 2.91505 100.495C1.81197 99.3865 0.720161 99.1403 1.63908 95.3838C2.55801 91.6273 7.98886 80.9592 16.464 77.1914C15.8382 73.1248 15.9247 71.5031 20.0589 70.7477C24.1931 69.9922 27.9872 70.0561 31.3866 71.2175C34.7861 72.3788 36.9509 75.3611 37.9582 77.2271C38.9654 79.0931 38.8151 80.6942 36.3533 82.8778L36.3552 82.8797Z" fill="white"/>
<path d="M36.8449 83.6634C37.8841 82.8779 38.9064 82.0191 39.3743 80.7619C39.8422 79.5047 39.5904 78.1536 39.0774 76.9791C38.0138 74.5455 36.0406 72.4991 33.7743 71.1498C31.3144 69.686 28.5596 69.1635 25.737 68.9568C23.0686 68.7633 20.2874 69.2124 17.8576 70.3681C15.1534 71.6535 14.1706 74.7616 15.5875 77.3963C16.2753 78.6741 18.224 77.5372 17.5344 76.2575C16.98 75.2277 17.0251 73.9329 17.8632 73.0647C18.5641 72.3394 19.6278 72.0462 20.5655 71.7756C23.3486 70.9751 26.1843 71.0352 29.0106 71.6553C31.4685 72.1947 33.7593 73.5045 35.4167 75.4062C36.2041 76.3101 37.0197 77.4771 37.2828 78.6628C37.5947 80.0572 36.7528 80.9273 35.708 81.7165C34.5654 82.581 35.6873 84.5391 36.8468 83.6634H36.8449Z" fill="#291510"/>
<path d="M7.30157 90.4885C4.65567 93.0386 2.61675 96.4587 1.96467 100.106C1.66776 101.766 1.65649 103.686 2.79715 105.047C3.80064 106.242 5.44305 107.037 7.01217 106.982C8.45915 106.931 8.46667 104.676 7.01217 104.727C6.01057 104.763 4.74587 104.192 4.28171 103.256C3.68601 102.055 4.15581 100.364 4.51661 99.1666C5.33406 96.4568 6.86372 94.044 8.89512 92.084C9.94183 91.0748 8.3464 89.4813 7.29969 90.4885H7.30157Z" fill="#291510"/>
<path d="M11.8691 92.8169C8.89621 96.5001 5.97219 101.132 6.04172 106.054C6.07179 108.138 6.97192 110.273 9.11795 110.913C11.4387 111.609 13.6787 110.327 15.0769 108.534C16.5952 106.588 17.3469 104.16 18.6849 102.091C19.3858 101.006 20.1939 100.001 21.1372 99.1178C21.7649 98.5296 22.5072 98.0955 23.1423 97.5393L23.2307 97.4904C23.5332 97.4359 23.4599 97.3701 23.0146 97.2875C23.0503 97.2611 23.2814 97.7046 23.2927 97.7291C23.4543 98.0748 23.5482 98.4601 23.6347 98.8303C23.8827 99.8976 23.9504 100.984 24.0199 102.076C24.1627 104.269 24.7265 106.396 26.8199 107.473C28.7386 108.459 30.8752 108.185 32.5439 106.853C34.5377 105.261 34.7802 102.993 34.6223 100.587C34.534 99.2625 34.3291 97.8907 34.5415 96.5677C34.7538 95.2448 35.4661 94.2582 36.2083 93.2096C37.6158 91.2195 38.4427 89.0209 38.3469 86.5498C38.1646 81.8255 34.923 77.8472 30.6666 76.0244C28.2612 74.9946 25.6435 74.7297 23.0484 74.8011C20.4532 74.8725 17.9107 75.1731 15.494 76.419C10.7303 78.8751 6.74829 83.1672 3.94266 87.6679C2.54831 89.9041 1.40764 92.3207 0.629655 94.8389C0.257575 96.0415 -0.21598 97.4678 0.116636 98.7344C0.422944 99.9033 1.53918 100.796 2.68925 101.05C4.10428 101.362 4.70749 99.1892 3.28871 98.8754C2.18562 98.6311 2.19502 97.823 2.40549 96.8815C2.64602 95.8123 3.00119 94.7581 3.39394 93.7377C4.13058 91.8246 5.10776 89.9981 6.224 88.2805C8.49782 84.7833 11.4782 81.6206 14.9791 79.3337C16.9654 78.037 18.9668 77.2929 21.3346 77.1388C23.6121 76.9903 25.9348 76.9433 28.1598 77.5297C32.0422 78.5557 35.4867 81.6864 36.0354 85.7924C36.3211 87.931 35.7461 89.9323 34.5321 91.6875C33.2355 93.561 32.2733 95.2128 32.2132 97.5562C32.1831 98.6874 32.3316 99.8112 32.3917 100.939C32.4518 102.066 32.5496 103.252 31.9576 104.203C31.0594 105.648 29.2647 106.293 27.752 105.411C26.0231 104.404 26.3407 102.119 26.1528 100.409C25.9837 98.8678 25.7976 96.8346 24.6119 95.692C23.4261 94.5495 21.7367 95.6751 20.7088 96.5113C19.1528 97.776 17.8299 99.2644 16.7418 100.95C15.4226 102.991 14.7236 105.535 13.13 107.379C11.7883 108.931 8.98829 109.677 8.40574 107.063C7.94534 104.996 8.74399 102.542 9.55204 100.659C10.5236 98.3943 11.9255 96.3197 13.4683 94.4067C14.3722 93.2867 12.7861 91.6818 11.8728 92.8112L11.8691 92.8169Z" fill="#291510"/>
<path d="M143.348 137.314L33.2968 116.25C33.2968 116.25 36.6229 102.401 21.7172 77.3568C9.9441 44.7021 20.3304 23.0632 29.7602 17.172C66.051 6.20315 114.482 2.04826 114.482 2.04826C114.482 2.04826 152.766 -0.732936 160.14 4.15296C152.146 27.6917 141.538 37.1196 141.538 37.1196C148.416 60.8161 156.808 85.0821 158.357 90.3326C159.099 92.8507 162.442 103.641 163.038 110.803C162.801 121.031 154.98 135.273 143.348 137.314Z" fill="#FFEDDA"/>
<path d="M144.219 46.6302H164.607C164.607 46.6302 174.08 47.9644 172.512 23.877C167.664 -0.511151 152.505 0.650187 146.73 10.6644C140.955 20.6786 138.382 33.9363 144.219 46.6302Z" fill="#E1CDB4"/>
<path d="M3.37917 131.152C2.89246 125.227 4.57434 117.816 12.9574 114.198C27.1058 115.578 33.2977 116.248 33.2977 116.248C33.2977 116.248 38.2456 117.958 54.8332 117.739C71.4208 117.517 100.528 115.397 131.933 102.356C140.06 98.7156 139.216 99.3714 140.832 99.4917C142.449 99.612 146.318 101.435 147.293 107.984C148.268 114.533 147.53 126.496 142.975 127.602C138.42 128.709 131.215 130.04 131.215 130.04C131.215 130.04 133.583 135.174 137.493 136.044L141.404 136.914L145.395 136.621C145.395 136.621 116.177 146.962 69.0305 148.354C21.8835 149.747 14.1507 146.199 11.0782 145.212C8.00574 144.226 3.82642 136.581 3.37917 131.152Z" fill="#E1CDB4"/>
<path d="M144.61 47.9926C151.281 48.0846 157.939 48.0132 164.607 47.7577C166.054 47.7013 166.061 45.4463 164.607 45.5026C157.939 45.7601 151.281 45.8296 144.61 45.7375C143.16 45.7169 143.158 47.9719 144.61 47.9926Z" fill="#291510"/>
<path d="M154.724 33.2841C157.813 33.038 160.908 32.9252 164.009 32.9271C164.642 32.9271 165.104 32.4084 165.136 31.7996C165.33 27.998 164.806 24.1081 163.479 20.5338C162.56 18.0571 160.617 15.1913 157.565 15.8396C154.532 16.4842 153.489 20.1599 153.083 22.7889C152.538 26.3199 152.811 29.9091 153.639 33.3743C154.431 36.6855 155.665 40.0793 157.4 43.0202C158.873 45.5177 161.179 47.8516 164.287 47.7915C167.545 47.7276 170.203 45.311 171.535 42.4903C173.067 39.2468 173.619 35.4715 173.886 31.9255C174.412 24.9744 173.038 17.9875 169.618 11.8952C168.104 9.19858 166.204 6.57335 163.77 4.63403C162.019 3.23779 159.425 2.68719 157.281 2.15914C151.95 0.847462 146.412 0.351356 140.938 0.129612C134.438 -0.133474 127.925 0.0412902 121.434 0.426524C107.93 1.22894 94.492 2.96719 81.1385 5.09631C68.531 7.10516 55.9592 9.42784 43.5002 12.2184C39.7192 13.0659 35.9214 13.9191 32.21 15.0372C31.2836 15.3153 30.2763 15.5841 29.4269 16.0576C28.5118 16.5669 27.6924 17.358 26.8881 18.0251C25.9561 18.7994 25.0428 19.6036 24.2122 20.4869C20.4237 24.5177 18.0747 30.0125 16.7011 35.2968C14.976 41.9322 14.7411 48.8607 15.2409 55.6728C15.6449 61.1845 16.6071 66.6642 18.3698 71.9109C19.7397 75.9887 21.5851 79.8749 23.5639 83.6877C25.381 87.1906 27.2846 90.6633 28.7448 94.3371C30.4361 98.5916 31.526 103.06 31.9582 107.619C32.2307 110.489 32.2739 113.375 32.1705 116.256C32.1198 117.707 34.3748 117.705 34.4256 116.256C34.6097 111.073 34.294 105.855 33.1289 100.79C32.225 96.8627 30.7781 93.0987 29.0436 89.4663C27.4181 86.0612 25.5633 82.7726 23.9077 79.3844C22.0511 75.5847 20.497 71.6572 19.4221 67.5624C17.9714 62.0433 17.37 56.3493 17.2742 50.6516C17.1652 44.1722 17.947 37.6288 20.2584 31.544C21.9741 27.0264 24.4734 23.005 28.1585 19.8949C28.9327 19.241 29.7144 18.5551 30.5676 18.0063C30.701 17.9218 31.0017 17.8109 30.7405 17.918C30.9284 17.841 31.1182 17.7696 31.3099 17.7019C32.4355 17.2979 33.5912 16.9784 34.7432 16.6646C44.3289 14.06 54.1401 12.1884 63.8969 10.3656C76.7205 7.96959 89.6155 5.87053 102.576 4.37094C114.913 2.94276 127.387 1.94115 139.814 2.34705C145.1 2.51994 150.422 2.93336 155.596 4.08343C157.625 4.53443 159.822 5.0249 161.703 5.93443C162.851 6.48879 163.862 7.72154 164.682 8.67428C165.674 9.82811 166.533 11.0928 167.307 12.4007C170.682 18.1041 172.061 24.6361 171.682 31.2339C171.49 34.5751 171.031 38.2959 169.592 41.3571C168.425 43.8414 165.721 46.4516 162.742 45.2677C160.087 44.2116 158.73 40.9475 157.704 38.5083C156.392 35.387 155.421 32.0514 155.137 28.667C154.891 25.7204 154.889 21.9808 156.494 19.3744C157.095 18.3972 158.119 17.6192 159.266 18.2431C160.412 18.867 161.015 20.3046 161.425 21.4678C162.594 24.794 163.064 28.2893 162.885 31.8052L164.013 30.6777C160.914 30.6777 157.817 30.7886 154.728 31.0348C153.29 31.1494 153.279 33.4044 154.728 33.2898L154.724 33.2841Z" fill="#291510"/>
<path d="M156.97 16.0256C152.187 17.5215 147.155 18.0195 142.372 19.5153C140.991 19.9475 141.581 22.1255 142.972 21.6895C147.754 20.1937 152.787 19.6957 157.569 18.1999C158.95 17.7676 158.36 15.5897 156.97 16.0256Z" fill="#291510"/>
<path d="M145.421 135.456C135.695 138.887 125.54 141.029 115.371 142.659C104.739 144.363 94.0125 145.457 83.2786 146.282C72.5973 147.103 61.9253 147.668 51.2102 147.528C45.2212 147.449 39.236 147.229 33.2508 146.986C29.5901 146.838 25.9257 146.742 22.2745 146.415C18.6645 146.092 14.6468 145.722 11.3488 144.098C9.67637 143.275 8.65221 141.916 7.65812 140.358C6.25061 138.15 5.26591 135.707 4.77169 133.135C4.26055 130.476 4.34887 127.706 5.00471 125.079C5.56846 122.82 6.49302 120.296 8.04899 118.513C9.45087 116.906 11.3376 115.92 13.3389 115.26C13.5212 115.2 13.089 115.254 13.4385 115.249C13.6114 115.245 13.7843 115.234 13.959 115.232C14.4364 115.23 14.9137 115.254 15.3891 115.284C22.4755 115.73 29.53 116.942 36.577 117.786C45.5238 118.857 54.465 119.069 63.4719 118.644C74.9913 118.101 86.4713 116.572 97.7408 114.134C108.98 111.703 120.03 108.356 130.702 104.062C133.254 103.036 135.783 101.955 138.288 100.824C139.609 100.228 138.463 98.2853 137.149 98.8772C126.496 103.682 115.396 107.48 104.066 110.337C92.6257 113.221 80.9409 115.145 69.1734 116.036C59.3903 116.776 49.4795 116.955 39.7133 115.888C32.2003 115.066 24.7249 113.869 17.1969 113.17C16.0938 113.067 14.9776 112.958 13.8688 112.973C12.3824 112.994 10.9824 113.653 9.7008 114.36C5.44256 116.709 3.25706 121.459 2.49411 126.105C1.61089 131.483 2.83424 137.049 5.79585 141.621C6.85195 143.252 8.02644 144.838 9.74966 145.799C11.2737 146.648 12.9894 147.161 14.6807 147.55C18.6307 148.458 22.7198 148.768 26.7582 148.971C31.4919 149.208 36.2312 149.367 40.9686 149.527C52.3903 149.91 63.7632 149.846 75.168 149.106C85.9076 148.409 96.6377 147.496 107.31 146.088C118.012 144.675 128.704 142.828 139.089 139.84C141.421 139.169 143.732 138.434 146.021 137.626C147.38 137.147 146.795 134.967 145.421 135.452V135.456Z" fill="#291510"/>
<path d="M128.528 116.436C131.613 115.527 134.763 114.862 137.849 113.952C139.237 113.542 138.647 111.366 137.249 111.778C134.163 112.687 131.014 113.353 127.928 114.262C126.54 114.672 127.13 116.848 128.528 116.436Z" fill="#291510"/>
<path d="M131.513 131.128C135.3 130.372 139.096 129.688 142.852 128.794C144.263 128.458 143.666 126.283 142.253 126.62C138.496 127.516 134.698 128.2 130.914 128.954C129.491 129.237 130.094 131.412 131.513 131.128Z" fill="#291510"/>
<path d="M136.683 121.456C138.249 121.02 139.812 120.595 141.398 120.244C141.742 120.167 142.131 119.817 142.185 119.456C142.554 117.015 142.862 114.196 140.673 112.494C138.904 111.118 136.437 111.436 135.373 113.507C134.31 115.578 134.612 118.52 135.071 120.755C135.556 123.115 136.523 125.635 138.318 127.315C139.934 128.828 142.264 129.482 144.247 128.23C146.13 127.043 146.987 124.791 147.605 122.762C149.168 117.622 149.4 112.005 148.186 106.766C147.156 102.314 143.82 97.4133 138.589 98.4074C136.2 98.8622 134.199 100.612 132.635 102.378C131.198 104.002 129.989 105.83 129.071 107.796C125.344 115.754 125.91 125.763 131.504 132.729C134.652 136.649 139.32 138.662 144.335 137.955C149.217 137.267 153.333 134.221 156.296 130.402C158.67 127.345 160.855 124.164 162.31 120.556C163.948 116.491 164.416 112.06 163.881 107.723C163.307 103.072 161.806 98.5014 160.556 93.9951C159.307 89.4888 157.922 84.6931 156.537 80.0628C153.861 71.1216 151.059 62.2086 147.932 53.4121C146.444 49.2234 144.702 45.1117 143.473 40.8347C142.277 36.6723 141.738 32.446 142.14 28.122C142.58 23.3827 143.702 18.5269 145.891 14.2818C146.987 12.1564 148.315 10.0949 150.035 8.41682C151.572 6.91723 153.575 5.97952 155.663 5.53415C157.696 5.10005 159.942 5.16207 161.872 5.99455C163.191 6.56394 164.339 4.62274 163.011 4.04771C159.228 2.41281 154.815 2.83751 151.219 4.78247C147.485 6.8026 144.978 10.779 143.268 14.5411C141.441 18.5588 140.473 22.9298 139.974 27.3027C139.528 31.1982 139.778 35.0975 140.65 38.9198C141.603 43.0973 143.217 47.0567 144.694 51.065C146.023 54.6712 147.27 58.3055 148.483 61.953C151.283 70.385 153.885 78.8845 156.353 87.4198C157.542 91.5371 158.698 95.6657 159.807 99.8055C160.947 104.073 162.079 108.29 161.802 112.751C161.571 116.466 160.363 120.007 158.521 123.222C156.706 126.39 154.451 129.638 151.694 132.049C148.263 135.05 143.49 136.741 138.989 135.386C134.885 134.151 131.978 130.344 130.45 126.501C127.52 119.131 128.901 110.079 134.144 104.073C135.511 102.51 137.29 100.76 139.468 100.544C141.646 100.328 143.527 101.831 144.583 103.581C145.793 105.59 146.267 108.035 146.521 110.338C146.795 112.826 146.773 115.371 146.404 117.848C146.036 120.324 144.36 129.378 140.124 125.907C138.365 124.466 137.578 121.98 137.183 119.826C136.961 118.614 136.894 117.346 136.997 116.117C137.061 115.367 137.217 114.101 138.102 113.888C138.987 113.676 139.752 114.559 140.019 115.256C140.447 116.374 140.184 117.714 140.011 118.855L140.799 118.067C139.213 118.419 137.647 118.844 136.084 119.28C134.687 119.669 135.281 121.845 136.683 121.454V121.456Z" fill="#291510"/>
<path d="M146.12 74.8481C146.12 74.8481 139.855 75.0473 141.151 67.1867C142.446 59.326 154.142 53.8388 157.844 54.4928C161.546 55.1467 162.089 57.195 162.191 57.9617C172.289 58.4297 176.08 65.3733 177.916 69.2876C179.752 73.202 179.043 80.2978 175.89 81.2261C175.871 87.8239 172.241 92.0371 167.638 88.5136C167.638 88.5136 165.883 94.0591 161.924 91.5391C157.964 89.0191 158.71 85.5858 158.71 85.5858C158.71 85.5858 160.054 83.1992 157.517 79.9163C154.98 76.6334 156.087 79.3375 156.087 79.3375C156.087 79.3375 156.425 82.6035 155.927 84.3192C155.429 86.0349 154.794 91.2215 149.367 90.0451C146.776 89.1675 147.727 84.9055 147.922 83.156C148.117 81.4084 148.602 76.9415 146.122 74.8481H146.12Z" fill="white"/>
<path d="M163.023 57.8621C163.327 54.6863 159.913 53.2299 157.241 53.3765C154.341 53.5362 151.426 54.5942 148.94 56.06C146.454 57.5257 144.253 59.5459 142.557 61.9118C140.784 64.3829 139.332 67.4779 139.805 70.5842C140.294 73.7939 143.289 76.4172 146.614 75.876C148.042 75.643 147.437 73.4707 146.014 73.7018C144.859 73.8897 143.47 73.0629 142.791 72.1665C141.857 70.93 141.805 69.2181 142.16 67.7711C142.852 64.9579 144.738 62.391 146.824 60.4366C148.833 58.5555 151.274 57.118 153.905 56.3043C155.647 55.7649 161.082 54.5679 160.766 57.8621C160.627 59.3053 162.884 59.2959 163.021 57.8621H163.023Z" fill="#291510"/>
<path d="M154.802 79.191C155.33 81.9177 155.146 85.4449 153.368 87.7281C152.626 88.6809 151.404 89.4476 150.162 89.1281C148.7 88.7542 148.597 87.3711 148.663 86.0838C148.822 83.0471 149.687 79.7002 148.61 76.7368C148.133 75.4194 147.289 74.3802 147.08 72.9539C146.872 71.5276 147.09 70.0882 147.561 68.7352C149.294 63.7685 154.248 60.2487 159.291 59.3167C164.547 58.3451 170.176 60.3634 173.725 64.3247C175.713 66.544 177.012 69.344 177.527 72.2718C177.989 74.9045 178.093 78.849 175.315 80.2508C174.018 80.9048 175.159 82.8498 176.454 82.1977C179.44 80.6924 180.126 77.122 179.977 74.0702C179.821 70.8605 178.809 67.6866 177.053 64.9918C173.494 59.529 166.941 56.2893 160.423 56.9019C154.201 57.4882 148.197 61.4232 145.725 67.2619C145.06 68.8348 144.673 70.5448 144.758 72.2605C144.797 73.0855 144.915 73.9386 145.171 74.726C145.442 75.5585 145.921 76.2726 146.3 77.0543C147.108 78.7212 146.881 80.8804 146.718 82.6675C146.554 84.4546 146.161 86.3338 146.513 88.1077C146.842 89.767 148.153 91.0355 149.809 91.3587C151.56 91.7007 153.308 91.0035 154.556 89.7708C157.356 87.0046 157.675 82.2315 156.97 78.5915C156.694 77.169 154.522 77.7703 154.796 79.191H154.802Z" fill="#291510"/>
<path d="M171.614 74.104C173.905 76.6784 175.1 80.2113 174.707 83.6521C174.525 85.2513 173.912 86.9125 172.597 87.9179C171.225 88.9665 169.684 88.4722 168.435 87.433C167.326 86.5122 165.723 88.0983 166.839 89.0285C168.436 90.3552 170.646 91.3361 172.68 90.4567C174.732 89.5716 176.075 87.6116 176.643 85.5012C177.861 80.9611 176.271 75.9512 173.208 72.5085C172.242 71.4224 170.65 73.0215 171.612 74.104H171.614Z" fill="#291510"/>
<path d="M165.985 76.1766C167.662 78.8207 167.607 82.0078 167.024 84.9825C166.731 86.4821 166.438 88.1001 165.888 89.5302C165.38 90.8437 164.279 91.1068 162.99 90.7366C161.718 90.3702 160.678 89.4212 160.201 88.1847C159.619 86.6738 160.25 85.2588 160.254 83.7253C160.261 80.899 158.111 79.4314 156.294 77.6537C155.257 76.6389 153.66 78.2306 154.699 79.2491C155.503 80.0365 156.452 80.7074 157.174 81.5737C158.063 82.6411 158.036 83.7704 157.83 85.0859C157.409 87.775 158.164 90.3852 160.468 92.0013C162.328 93.3073 165.359 93.7677 167.043 91.928C167.898 90.9922 168.197 89.735 168.503 88.5417C168.885 87.0496 169.244 85.5519 169.454 84.0241C169.879 80.9404 169.633 77.7232 167.928 75.0379C167.154 73.8164 165.202 74.9458 165.982 76.1766H165.985Z" fill="#291510"/>
<path d="M66.1896 65.2754C66.5937 64.1216 68.159 62.1128 67.6404 61.4532C67.1217 60.7936 68.1797 61.2934 68.0031 60.2956C67.8264 59.2977 62.3617 52.9536 52.6651 55.2105C42.9685 57.4674 39.7457 64.2682 39.4168 65.2773C39.0899 66.2865 39.2947 67.7616 41.0423 65.2773C42.79 62.793 44.0697 61.7802 45.5468 61.4551C41.5572 66.4537 40.5124 67.5869 40.4184 69.0996C40.3245 70.6142 40.8525 72.1119 41.7339 72.9425C42.6152 73.775 42.4386 73.1098 42.9685 72.1101C44.346 69.5111 48.0818 65.454 51.7838 64.4542C55.4858 63.4564 60.2458 63.1238 63.0664 64.4542C65.8871 65.7847 65.7856 66.4293 66.1896 65.2754Z" fill="#291510"/>
<path d="M114.723 44.486C108.023 43.6535 100.443 43.9861 93.7435 53.305C92.8923 54.4889 92.8622 55.406 93.7435 55.8532C93.7435 57.1329 93.9202 58.4634 94.9782 58.9633C96.0361 59.4631 96.5642 59.6285 97.4455 58.4634C98.3269 57.2983 99.0147 55.7574 101.403 53.865C103.792 51.9727 108.023 50.6422 111.197 51.3075C114.371 51.9727 117.735 54.0492 118.962 55.1748C120.189 56.3005 121.247 55.9678 121.424 54.3029C121.601 52.6379 122.129 51.7171 121.424 50.7625C120.719 49.8097 118.78 47.1469 113.667 46.4798C117.722 46.6471 119.661 47.9775 122.305 49.9751C124.949 51.9727 121.424 45.3147 114.725 44.4841L114.723 44.486Z" fill="#291510"/>
<path d="M63.423 80.23C63.3441 79.9669 63.8045 79.7226 64.1183 79.8617C66.6646 80.9911 73.7661 83.6746 82.0157 82.299C89.6001 81.0343 96.912 77.0504 99.5749 75.5283C100.054 75.2539 100.672 75.485 100.526 75.8834C99.6519 78.2606 96.2806 84.648 82.3784 86.2716C70.0904 87.7073 64.1747 82.7481 63.423 80.23Z" fill="#291510"/>
<path d="M41.4239 75.7375C44.8803 74.8269 47.3252 72.7332 46.8847 71.0612C46.4441 69.3892 43.2851 68.772 39.8287 69.6827C36.3723 70.5933 33.9274 72.687 34.3679 74.359C34.8084 76.031 37.9675 76.6482 41.4239 75.7375Z" fill="#FF9F92"/>
<path d="M123.476 60.108C127.03 59.7307 129.763 58.031 129.581 56.3116C129.398 54.5922 126.369 53.5042 122.815 53.8816C119.26 54.2589 116.527 55.9587 116.709 57.678C116.892 59.3974 119.921 60.4854 123.476 60.108Z" fill="#FF9F92"/>
</g>
<defs>
<clipPath id="clip0_6916_30883">
<rect width="180" height="149.764" fill="white"/>
</clipPath>
</defs>
</svg>
