<svg width="320" height="158" viewBox="0 0 320 158" fill="none" xmlns="http://www.w3.org/2000/svg">
<mask id="path-1-inside-1_8858_8991" fill="white">
<path fill-rule="evenodd" clip-rule="evenodd" d="M311.297 4.11458C313.145 4.11458 314.644 2.27125 314.644 0H320V158H314.644C314.644 155.729 313.145 153.885 311.297 153.885C309.449 153.885 307.95 155.729 307.95 158H302.594C302.594 155.729 301.095 153.885 299.247 153.885C297.399 153.885 295.9 155.729 295.9 158H290.544C290.544 155.729 289.044 153.885 287.197 153.885C285.349 153.885 283.849 155.729 283.849 158H278.494C278.494 155.729 276.994 153.885 275.146 153.885C273.299 153.885 271.799 155.729 271.799 158H266.444C266.444 155.729 264.944 153.885 263.096 153.885C261.249 153.885 259.749 155.729 259.749 158H254.393C254.393 155.729 252.894 153.885 251.046 153.885C249.198 153.885 247.699 155.729 247.699 158H242.343C242.343 155.729 240.844 153.885 238.996 153.885C237.148 153.885 235.649 155.729 235.649 158H230.293C230.293 155.729 228.793 153.885 226.946 153.885C225.098 153.885 223.598 155.729 223.598 158H218.243C218.243 155.729 216.743 153.885 214.895 153.885C213.048 153.885 211.548 155.729 211.548 158H206.192C206.192 155.729 204.693 153.885 202.845 153.885C200.997 153.885 199.498 155.729 199.498 158H194.142C194.142 155.729 192.643 153.885 190.795 153.885C188.947 153.885 187.448 155.729 187.448 158H182.092C182.092 155.729 180.592 153.885 178.745 153.885C176.897 153.885 175.397 155.729 175.397 158H170.042C170.042 155.729 168.542 153.885 166.695 153.885C164.847 153.885 163.347 155.729 163.347 158H157.992C157.992 155.729 156.492 153.885 154.644 153.885C152.797 153.885 151.297 155.729 151.297 158H145.941C145.941 155.729 144.442 153.885 142.594 153.885C140.746 153.885 139.247 155.729 139.247 158H133.891C133.891 155.729 132.392 153.885 130.544 153.885C128.696 153.885 127.197 155.729 127.197 158H121.841C121.841 155.729 120.341 153.885 118.494 153.885C116.646 153.885 115.146 155.729 115.146 158H109.791C109.791 155.729 108.291 153.885 106.444 153.885C104.596 153.885 103.096 155.729 103.096 158H97.7406C97.7406 155.729 96.241 153.885 94.3933 153.885C92.5456 153.885 91.046 155.729 91.046 158H85.6904C85.6904 155.729 84.1908 153.885 82.3431 153.885C80.4954 153.885 78.9958 155.729 78.9958 158H73.6402C73.6402 155.729 72.1406 153.885 70.2929 153.885C68.4452 153.885 66.9456 155.729 66.9456 158H61.59C61.59 155.729 60.0904 153.885 58.2427 153.885C56.395 153.885 54.8954 155.729 54.8954 158H49.5397C49.5397 155.729 48.0402 153.885 46.1925 153.885C44.3448 153.885 42.8452 155.729 42.8452 158H37.4895C37.4895 155.729 35.99 153.885 34.1423 153.885C32.2946 153.885 30.795 155.729 30.795 158H25.4393C25.4393 155.729 23.9397 153.885 22.0921 153.885C20.2444 153.885 18.7448 155.729 18.7448 158H13.3891C13.3891 155.729 11.8895 153.885 10.0418 153.885C8.19414 153.885 6.69456 155.729 6.69456 158H0V0H6.69456C6.69456 2.27125 8.19414 4.11458 10.0418 4.11458C11.8895 4.11458 13.3891 2.27125 13.3891 0H18.7448C18.7448 2.27125 20.2444 4.11458 22.0921 4.11458C23.9397 4.11458 25.4393 2.27125 25.4393 0H30.795C30.795 2.27125 32.2946 4.11458 34.1423 4.11458C35.99 4.11458 37.4895 2.27125 37.4895 0H42.8452C42.8452 2.27125 44.3448 4.11458 46.1925 4.11458C48.0402 4.11458 49.5397 2.27125 49.5397 0H54.8954C54.8954 2.27125 56.395 4.11458 58.2427 4.11458C60.0904 4.11458 61.59 2.27125 61.59 0H66.9456C66.9456 2.27125 68.4452 4.11458 70.2929 4.11458C72.1406 4.11458 73.6402 2.27125 73.6402 0H78.9958C78.9958 2.27125 80.4954 4.11458 82.3431 4.11458C84.1908 4.11458 85.6904 2.27125 85.6904 0H91.046C91.046 2.27125 92.5456 4.11458 94.3933 4.11458C96.241 4.11458 97.7406 2.27125 97.7406 0H103.096C103.096 2.27125 104.596 4.11458 106.444 4.11458C108.291 4.11458 109.791 2.27125 109.791 0H115.146C115.146 2.27125 116.646 4.11458 118.494 4.11458C120.341 4.11458 121.841 2.27125 121.841 0H127.197C127.197 2.27125 128.696 4.11458 130.544 4.11458C132.392 4.11458 133.891 2.27125 133.891 0H139.247C139.247 2.27125 140.746 4.11458 142.594 4.11458C144.442 4.11458 145.941 2.27125 145.941 0H151.297C151.297 2.27125 152.797 4.11458 154.644 4.11458C156.492 4.11458 157.992 2.27125 157.992 0H163.347C163.347 2.27125 164.847 4.11458 166.695 4.11458C168.542 4.11458 170.042 2.27125 170.042 0H175.397C175.397 2.27125 176.897 4.11458 178.745 4.11458C180.592 4.11458 182.092 2.27125 182.092 0H187.448C187.448 2.27125 188.947 4.11458 190.795 4.11458C192.643 4.11458 194.142 2.27125 194.142 0H199.498C199.498 2.27125 200.997 4.11458 202.845 4.11458C204.693 4.11458 206.192 2.27125 206.192 0H211.548C211.548 2.27125 213.048 4.11458 214.895 4.11458C216.743 4.11458 218.243 2.27125 218.243 0H223.598C223.598 2.27125 225.098 4.11458 226.946 4.11458C228.793 4.11458 230.293 2.27125 230.293 0H235.649C235.649 2.27125 237.148 4.11458 238.996 4.11458C240.844 4.11458 242.343 2.27125 242.343 0H247.699C247.699 2.27125 249.198 4.11458 251.046 4.11458C252.894 4.11458 254.393 2.27125 254.393 0H259.749C259.749 2.27125 261.249 4.11458 263.096 4.11458C264.944 4.11458 266.444 2.27125 266.444 0H271.799C271.799 2.27125 273.299 4.11458 275.146 4.11458C276.994 4.11458 278.494 2.27125 278.494 0H283.849C283.849 2.27125 285.349 4.11458 287.197 4.11458C289.044 4.11458 290.544 2.27125 290.544 0H295.9C295.9 2.27125 297.399 4.11458 299.247 4.11458C301.095 4.11458 302.594 2.27125 302.594 0H307.95C307.95 2.27125 309.449 4.11458 311.297 4.11458ZM142.727 19.5C144.66 19.5 146.227 17.933 146.227 16C146.227 14.067 144.66 12.5 142.727 12.5C140.794 12.5 139.227 14.067 139.227 16C139.227 17.933 140.794 19.5 142.727 19.5ZM142.727 33.5C144.66 33.5 146.227 31.933 146.227 30C146.227 28.067 144.66 26.5 142.727 26.5C140.794 26.5 139.227 28.067 139.227 30C139.227 31.933 140.794 33.5 142.727 33.5ZM146.227 44C146.227 45.933 144.66 47.5 142.727 47.5C140.794 47.5 139.227 45.933 139.227 44C139.227 42.067 140.794 40.5 142.727 40.5C144.66 40.5 146.227 42.067 146.227 44ZM142.727 61.5C144.66 61.5 146.227 59.933 146.227 58C146.227 56.067 144.66 54.5 142.727 54.5C140.794 54.5 139.227 56.067 139.227 58C139.227 59.933 140.794 61.5 142.727 61.5ZM146.227 72C146.227 73.933 144.66 75.5 142.727 75.5C140.794 75.5 139.227 73.933 139.227 72C139.227 70.067 140.794 68.5 142.727 68.5C144.66 68.5 146.227 70.067 146.227 72ZM142.727 89.5C144.66 89.5 146.227 87.933 146.227 86C146.227 84.067 144.66 82.5 142.727 82.5C140.794 82.5 139.227 84.067 139.227 86C139.227 87.933 140.794 89.5 142.727 89.5ZM146.227 100C146.227 101.933 144.66 103.5 142.727 103.5C140.794 103.5 139.227 101.933 139.227 100C139.227 98.067 140.794 96.5 142.727 96.5C144.66 96.5 146.227 98.067 146.227 100ZM142.727 117.5C144.66 117.5 146.227 115.933 146.227 114C146.227 112.067 144.66 110.5 142.727 110.5C140.794 110.5 139.227 112.067 139.227 114C139.227 115.933 140.794 117.5 142.727 117.5ZM146.227 128C146.227 129.933 144.66 131.5 142.727 131.5C140.794 131.5 139.227 129.933 139.227 128C139.227 126.067 140.794 124.5 142.727 124.5C144.66 124.5 146.227 126.067 146.227 128ZM142.727 145.5C144.66 145.5 146.227 143.933 146.227 142C146.227 140.067 144.66 138.5 142.727 138.5C140.794 138.5 139.227 140.067 139.227 142C139.227 143.933 140.794 145.5 142.727 145.5Z"/>
</mask>
<path fill-rule="evenodd" clip-rule="evenodd" d="M311.297 4.11458C313.145 4.11458 314.644 2.27125 314.644 0H320V158H314.644C314.644 155.729 313.145 153.885 311.297 153.885C309.449 153.885 307.95 155.729 307.95 158H302.594C302.594 155.729 301.095 153.885 299.247 153.885C297.399 153.885 295.9 155.729 295.9 158H290.544C290.544 155.729 289.044 153.885 287.197 153.885C285.349 153.885 283.849 155.729 283.849 158H278.494C278.494 155.729 276.994 153.885 275.146 153.885C273.299 153.885 271.799 155.729 271.799 158H266.444C266.444 155.729 264.944 153.885 263.096 153.885C261.249 153.885 259.749 155.729 259.749 158H254.393C254.393 155.729 252.894 153.885 251.046 153.885C249.198 153.885 247.699 155.729 247.699 158H242.343C242.343 155.729 240.844 153.885 238.996 153.885C237.148 153.885 235.649 155.729 235.649 158H230.293C230.293 155.729 228.793 153.885 226.946 153.885C225.098 153.885 223.598 155.729 223.598 158H218.243C218.243 155.729 216.743 153.885 214.895 153.885C213.048 153.885 211.548 155.729 211.548 158H206.192C206.192 155.729 204.693 153.885 202.845 153.885C200.997 153.885 199.498 155.729 199.498 158H194.142C194.142 155.729 192.643 153.885 190.795 153.885C188.947 153.885 187.448 155.729 187.448 158H182.092C182.092 155.729 180.592 153.885 178.745 153.885C176.897 153.885 175.397 155.729 175.397 158H170.042C170.042 155.729 168.542 153.885 166.695 153.885C164.847 153.885 163.347 155.729 163.347 158H157.992C157.992 155.729 156.492 153.885 154.644 153.885C152.797 153.885 151.297 155.729 151.297 158H145.941C145.941 155.729 144.442 153.885 142.594 153.885C140.746 153.885 139.247 155.729 139.247 158H133.891C133.891 155.729 132.392 153.885 130.544 153.885C128.696 153.885 127.197 155.729 127.197 158H121.841C121.841 155.729 120.341 153.885 118.494 153.885C116.646 153.885 115.146 155.729 115.146 158H109.791C109.791 155.729 108.291 153.885 106.444 153.885C104.596 153.885 103.096 155.729 103.096 158H97.7406C97.7406 155.729 96.241 153.885 94.3933 153.885C92.5456 153.885 91.046 155.729 91.046 158H85.6904C85.6904 155.729 84.1908 153.885 82.3431 153.885C80.4954 153.885 78.9958 155.729 78.9958 158H73.6402C73.6402 155.729 72.1406 153.885 70.2929 153.885C68.4452 153.885 66.9456 155.729 66.9456 158H61.59C61.59 155.729 60.0904 153.885 58.2427 153.885C56.395 153.885 54.8954 155.729 54.8954 158H49.5397C49.5397 155.729 48.0402 153.885 46.1925 153.885C44.3448 153.885 42.8452 155.729 42.8452 158H37.4895C37.4895 155.729 35.99 153.885 34.1423 153.885C32.2946 153.885 30.795 155.729 30.795 158H25.4393C25.4393 155.729 23.9397 153.885 22.0921 153.885C20.2444 153.885 18.7448 155.729 18.7448 158H13.3891C13.3891 155.729 11.8895 153.885 10.0418 153.885C8.19414 153.885 6.69456 155.729 6.69456 158H0V0H6.69456C6.69456 2.27125 8.19414 4.11458 10.0418 4.11458C11.8895 4.11458 13.3891 2.27125 13.3891 0H18.7448C18.7448 2.27125 20.2444 4.11458 22.0921 4.11458C23.9397 4.11458 25.4393 2.27125 25.4393 0H30.795C30.795 2.27125 32.2946 4.11458 34.1423 4.11458C35.99 4.11458 37.4895 2.27125 37.4895 0H42.8452C42.8452 2.27125 44.3448 4.11458 46.1925 4.11458C48.0402 4.11458 49.5397 2.27125 49.5397 0H54.8954C54.8954 2.27125 56.395 4.11458 58.2427 4.11458C60.0904 4.11458 61.59 2.27125 61.59 0H66.9456C66.9456 2.27125 68.4452 4.11458 70.2929 4.11458C72.1406 4.11458 73.6402 2.27125 73.6402 0H78.9958C78.9958 2.27125 80.4954 4.11458 82.3431 4.11458C84.1908 4.11458 85.6904 2.27125 85.6904 0H91.046C91.046 2.27125 92.5456 4.11458 94.3933 4.11458C96.241 4.11458 97.7406 2.27125 97.7406 0H103.096C103.096 2.27125 104.596 4.11458 106.444 4.11458C108.291 4.11458 109.791 2.27125 109.791 0H115.146C115.146 2.27125 116.646 4.11458 118.494 4.11458C120.341 4.11458 121.841 2.27125 121.841 0H127.197C127.197 2.27125 128.696 4.11458 130.544 4.11458C132.392 4.11458 133.891 2.27125 133.891 0H139.247C139.247 2.27125 140.746 4.11458 142.594 4.11458C144.442 4.11458 145.941 2.27125 145.941 0H151.297C151.297 2.27125 152.797 4.11458 154.644 4.11458C156.492 4.11458 157.992 2.27125 157.992 0H163.347C163.347 2.27125 164.847 4.11458 166.695 4.11458C168.542 4.11458 170.042 2.27125 170.042 0H175.397C175.397 2.27125 176.897 4.11458 178.745 4.11458C180.592 4.11458 182.092 2.27125 182.092 0H187.448C187.448 2.27125 188.947 4.11458 190.795 4.11458C192.643 4.11458 194.142 2.27125 194.142 0H199.498C199.498 2.27125 200.997 4.11458 202.845 4.11458C204.693 4.11458 206.192 2.27125 206.192 0H211.548C211.548 2.27125 213.048 4.11458 214.895 4.11458C216.743 4.11458 218.243 2.27125 218.243 0H223.598C223.598 2.27125 225.098 4.11458 226.946 4.11458C228.793 4.11458 230.293 2.27125 230.293 0H235.649C235.649 2.27125 237.148 4.11458 238.996 4.11458C240.844 4.11458 242.343 2.27125 242.343 0H247.699C247.699 2.27125 249.198 4.11458 251.046 4.11458C252.894 4.11458 254.393 2.27125 254.393 0H259.749C259.749 2.27125 261.249 4.11458 263.096 4.11458C264.944 4.11458 266.444 2.27125 266.444 0H271.799C271.799 2.27125 273.299 4.11458 275.146 4.11458C276.994 4.11458 278.494 2.27125 278.494 0H283.849C283.849 2.27125 285.349 4.11458 287.197 4.11458C289.044 4.11458 290.544 2.27125 290.544 0H295.9C295.9 2.27125 297.399 4.11458 299.247 4.11458C301.095 4.11458 302.594 2.27125 302.594 0H307.95C307.95 2.27125 309.449 4.11458 311.297 4.11458ZM142.727 19.5C144.66 19.5 146.227 17.933 146.227 16C146.227 14.067 144.66 12.5 142.727 12.5C140.794 12.5 139.227 14.067 139.227 16C139.227 17.933 140.794 19.5 142.727 19.5ZM142.727 33.5C144.66 33.5 146.227 31.933 146.227 30C146.227 28.067 144.66 26.5 142.727 26.5C140.794 26.5 139.227 28.067 139.227 30C139.227 31.933 140.794 33.5 142.727 33.5ZM146.227 44C146.227 45.933 144.66 47.5 142.727 47.5C140.794 47.5 139.227 45.933 139.227 44C139.227 42.067 140.794 40.5 142.727 40.5C144.66 40.5 146.227 42.067 146.227 44ZM142.727 61.5C144.66 61.5 146.227 59.933 146.227 58C146.227 56.067 144.66 54.5 142.727 54.5C140.794 54.5 139.227 56.067 139.227 58C139.227 59.933 140.794 61.5 142.727 61.5ZM146.227 72C146.227 73.933 144.66 75.5 142.727 75.5C140.794 75.5 139.227 73.933 139.227 72C139.227 70.067 140.794 68.5 142.727 68.5C144.66 68.5 146.227 70.067 146.227 72ZM142.727 89.5C144.66 89.5 146.227 87.933 146.227 86C146.227 84.067 144.66 82.5 142.727 82.5C140.794 82.5 139.227 84.067 139.227 86C139.227 87.933 140.794 89.5 142.727 89.5ZM146.227 100C146.227 101.933 144.66 103.5 142.727 103.5C140.794 103.5 139.227 101.933 139.227 100C139.227 98.067 140.794 96.5 142.727 96.5C144.66 96.5 146.227 98.067 146.227 100ZM142.727 117.5C144.66 117.5 146.227 115.933 146.227 114C146.227 112.067 144.66 110.5 142.727 110.5C140.794 110.5 139.227 112.067 139.227 114C139.227 115.933 140.794 117.5 142.727 117.5ZM146.227 128C146.227 129.933 144.66 131.5 142.727 131.5C140.794 131.5 139.227 129.933 139.227 128C139.227 126.067 140.794 124.5 142.727 124.5C144.66 124.5 146.227 126.067 146.227 128ZM142.727 145.5C144.66 145.5 146.227 143.933 146.227 142C146.227 140.067 144.66 138.5 142.727 138.5C140.794 138.5 139.227 140.067 139.227 142C139.227 143.933 140.794 145.5 142.727 145.5Z" fill="#FFE4C0"/>
<path d="M314.644 0V-0.490594H314.154V0H314.644ZM320 0H320.491V-0.490594H320V0ZM320 158V158.491H320.491V158H320ZM314.644 158H314.154V158.491H314.644V158ZM307.95 158V158.491H308.44V158H307.95ZM302.594 158H302.104V158.491H302.594V158ZM295.9 158V158.491H296.39V158H295.9ZM290.544 158H290.053V158.491H290.544V158ZM283.849 158V158.491H284.34V158H283.849ZM278.494 158H278.003V158.491H278.494V158ZM271.799 158V158.491H272.29V158H271.799ZM266.444 158H265.953V158.491H266.444V158ZM259.749 158V158.491H260.24V158H259.749ZM254.393 158H253.903V158.491H254.393V158ZM247.699 158V158.491H248.189V158H247.699ZM242.343 158H241.852V158.491H242.343V158ZM235.649 158V158.491H236.139V158H235.649ZM230.293 158H229.802V158.491H230.293V158ZM223.598 158V158.491H224.089V158H223.598ZM218.243 158H217.752V158.491H218.243V158ZM211.548 158V158.491H212.039V158H211.548ZM206.192 158H205.702V158.491H206.192V158ZM199.498 158V158.491H199.989V158H199.498ZM194.142 158H193.652V158.491H194.142V158ZM187.448 158V158.491H187.938V158H187.448ZM182.092 158H181.601V158.491H182.092V158ZM175.397 158V158.491H175.888V158H175.397ZM170.042 158H169.551V158.491H170.042V158ZM163.347 158V158.491H163.838V158H163.347ZM157.992 158H157.501V158.491H157.992V158ZM151.297 158V158.491H151.788V158H151.297ZM145.941 158H145.451V158.491H145.941V158ZM139.247 158V158.491H139.737V158H139.247ZM133.891 158H133.401V158.491H133.891V158ZM127.197 158V158.491H127.687V158H127.197ZM121.841 158H121.35V158.491H121.841V158ZM115.146 158V158.491H115.637V158H115.146ZM109.791 158H109.3V158.491H109.791V158ZM103.096 158V158.491H103.587V158H103.096ZM97.7406 158H97.25V158.491H97.7406V158ZM91.046 158V158.491H91.5366V158H91.046ZM85.6904 158H85.1998V158.491H85.6904V158ZM78.9958 158V158.491H79.4864V158H78.9958ZM73.6402 158H73.1496V158.491H73.6402V158ZM66.9456 158V158.491H67.4362V158H66.9456ZM61.59 158H61.0994V158.491H61.59V158ZM54.8954 158V158.491H55.386V158H54.8954ZM49.5397 158H49.0492V158.491H49.5397V158ZM42.8452 158V158.491H43.3358V158H42.8452ZM37.4895 158H36.9989V158.491H37.4895V158ZM30.795 158V158.491H31.2856V158H30.795ZM25.4393 158H24.9487V158.491H25.4393V158ZM18.7448 158V158.491H19.2354V158H18.7448ZM13.3891 158H12.8985V158.491H13.3891V158ZM6.69456 158V158.491H7.18515V158H6.69456ZM0 158H-0.490594V158.491H0V158ZM0 0V-0.490594H-0.490594V0H0ZM6.69456 0H7.18515V-0.490594H6.69456V0ZM13.3891 0V-0.490594H12.8985V0H13.3891ZM18.7448 0H19.2354V-0.490594H18.7448V0ZM25.4393 0V-0.490594H24.9487V0H25.4393ZM30.795 0H31.2856V-0.490594H30.795V0ZM37.4895 0V-0.490594H36.9989V0H37.4895ZM42.8452 0H43.3358V-0.490594H42.8452V0ZM49.5397 0V-0.490594H49.0492V0H49.5397ZM54.8954 0H55.386V-0.490594H54.8954V0ZM61.59 0V-0.490594H61.0994V0H61.59ZM66.9456 0H67.4362V-0.490594H66.9456V0ZM73.6402 0V-0.490594H73.1496V0H73.6402ZM78.9958 0H79.4864V-0.490594H78.9958V0ZM85.6904 0V-0.490594H85.1998V0H85.6904ZM91.046 0H91.5366V-0.490594H91.046V0ZM97.7406 0V-0.490594H97.25V0H97.7406ZM103.096 0H103.587V-0.490594H103.096V0ZM109.791 0V-0.490594H109.3V0H109.791ZM115.146 0H115.637V-0.490594H115.146V0ZM121.841 0V-0.490594H121.35V0H121.841ZM127.197 0H127.687V-0.490594H127.197V0ZM133.891 0V-0.490594H133.401V0H133.891ZM139.247 0H139.737V-0.490594H139.247V0ZM145.941 0V-0.490594H145.451V0H145.941ZM151.297 0H151.788V-0.490594H151.297V0ZM157.992 0V-0.490594H157.501V0H157.992ZM163.347 0H163.838V-0.490594H163.347V0ZM170.042 0V-0.490594H169.551V0H170.042ZM175.397 0H175.888V-0.490594H175.397V0ZM182.092 0V-0.490594H181.601V0H182.092ZM187.448 0H187.938V-0.490594H187.448V0ZM194.142 0V-0.490594H193.652V0H194.142ZM199.498 0H199.989V-0.490594H199.498V0ZM206.192 0V-0.490594H205.702V0H206.192ZM211.548 0H212.039V-0.490594H211.548V0ZM218.243 0V-0.490594H217.752V0H218.243ZM223.598 0H224.089V-0.490594H223.598V0ZM230.293 0V-0.490594H229.802V0H230.293ZM235.649 0H236.139V-0.490594H235.649V0ZM242.343 0V-0.490594H241.852V0H242.343ZM247.699 0H248.189V-0.490594H247.699V0ZM254.393 0V-0.490594H253.903V0H254.393ZM259.749 0H260.24V-0.490594H259.749V0ZM266.444 0V-0.490594H265.953V0H266.444ZM271.799 0H272.29V-0.490594H271.799V0ZM278.494 0V-0.490594H278.003V0H278.494ZM283.849 0H284.34V-0.490594H283.849V0ZM290.544 0V-0.490594H290.053V0H290.544ZM295.9 0H296.39V-0.490594H295.9V0ZM302.594 0V-0.490594H302.104V0H302.594ZM307.95 0H308.44V-0.490594H307.95V0ZM314.154 0C314.154 2.09978 312.784 3.62399 311.297 3.62399V4.60518C313.505 4.60518 315.135 2.44272 315.135 0H314.154ZM320 -0.490594H314.644V0.490594H320V-0.490594ZM320.491 158V0H319.509V158H320.491ZM314.644 158.491H320V157.509H314.644V158.491ZM311.297 154.376C312.784 154.376 314.154 155.9 314.154 158H315.135C315.135 155.557 313.505 153.395 311.297 153.395V154.376ZM308.44 158C308.44 155.9 309.81 154.376 311.297 154.376V153.395C309.089 153.395 307.459 155.557 307.459 158H308.44ZM302.594 158.491H307.95V157.509H302.594V158.491ZM299.247 154.376C300.734 154.376 302.104 155.9 302.104 158H303.085C303.085 155.557 301.455 153.395 299.247 153.395V154.376ZM296.39 158C296.39 155.9 297.76 154.376 299.247 154.376V153.395C297.038 153.395 295.409 155.557 295.409 158H296.39ZM290.544 158.491H295.9V157.509H290.544V158.491ZM287.197 154.376C288.684 154.376 290.053 155.9 290.053 158H291.035C291.035 155.557 289.405 153.395 287.197 153.395V154.376ZM284.34 158C284.34 155.9 285.71 154.376 287.197 154.376V153.395C284.988 153.395 283.359 155.557 283.359 158H284.34ZM278.494 158.491H283.849V157.509H278.494V158.491ZM275.146 154.376C276.633 154.376 278.003 155.9 278.003 158H278.984C278.984 155.557 277.355 153.395 275.146 153.395V154.376ZM272.29 158C272.29 155.9 273.659 154.376 275.146 154.376V153.395C272.938 153.395 271.309 155.557 271.309 158H272.29ZM266.444 158.491H271.799V157.509H266.444V158.491ZM263.096 154.376C264.583 154.376 265.953 155.9 265.953 158H266.934C266.934 155.557 265.305 153.395 263.096 153.395V154.376ZM260.24 158C260.24 155.9 261.609 154.376 263.096 154.376V153.395C260.888 153.395 259.258 155.557 259.258 158H260.24ZM254.393 158.491H259.749V157.509H254.393V158.491ZM251.046 154.376C252.533 154.376 253.903 155.9 253.903 158H254.884C254.884 155.557 253.254 153.395 251.046 153.395V154.376ZM248.189 158C248.189 155.9 249.559 154.376 251.046 154.376V153.395C248.838 153.395 247.208 155.557 247.208 158H248.189ZM242.343 158.491H247.699V157.509H242.343V158.491ZM238.996 154.376C240.483 154.376 241.852 155.9 241.852 158H242.834C242.834 155.557 241.204 153.395 238.996 153.395V154.376ZM236.139 158C236.139 155.9 237.509 154.376 238.996 154.376V153.395C236.787 153.395 235.158 155.557 235.158 158H236.139ZM230.293 158.491H235.649V157.509H230.293V158.491ZM226.946 154.376C228.433 154.376 229.802 155.9 229.802 158H230.783C230.783 155.557 229.154 153.395 226.946 153.395V154.376ZM224.089 158C224.089 155.9 225.459 154.376 226.946 154.376V153.395C224.737 153.395 223.108 155.557 223.108 158H224.089ZM218.243 158.491H223.598V157.509H218.243V158.491ZM214.895 154.376C216.382 154.376 217.752 155.9 217.752 158H218.733C218.733 155.557 217.104 153.395 214.895 153.395V154.376ZM212.039 158C212.039 155.9 213.408 154.376 214.895 154.376V153.395C212.687 153.395 211.058 155.557 211.058 158H212.039ZM206.192 158.491H211.548V157.509H206.192V158.491ZM202.845 154.376C204.332 154.376 205.702 155.9 205.702 158H206.683C206.683 155.557 205.054 153.395 202.845 153.395V154.376ZM199.989 158C199.989 155.9 201.358 154.376 202.845 154.376V153.395C200.637 153.395 199.007 155.557 199.007 158H199.989ZM194.142 158.491H199.498V157.509H194.142V158.491ZM190.795 154.376C192.282 154.376 193.652 155.9 193.652 158H194.633C194.633 155.557 193.003 153.395 190.795 153.395V154.376ZM187.938 158C187.938 155.9 189.308 154.376 190.795 154.376V153.395C188.587 153.395 186.957 155.557 186.957 158H187.938ZM182.092 158.491H187.448V157.509H182.092V158.491ZM178.745 154.376C180.232 154.376 181.601 155.9 181.601 158H182.583C182.583 155.557 180.953 153.395 178.745 153.395V154.376ZM175.888 158C175.888 155.9 177.258 154.376 178.745 154.376V153.395C176.536 153.395 174.907 155.557 174.907 158H175.888ZM170.042 158.491H175.397V157.509H170.042V158.491ZM166.695 154.376C168.182 154.376 169.551 155.9 169.551 158H170.532C170.532 155.557 168.903 153.395 166.695 153.395V154.376ZM163.838 158C163.838 155.9 165.208 154.376 166.695 154.376V153.395C164.486 153.395 162.857 155.557 162.857 158H163.838ZM157.992 158.491H163.347V157.509H157.992V158.491ZM154.644 154.376C156.131 154.376 157.501 155.9 157.501 158H158.482C158.482 155.557 156.853 153.395 154.644 153.395V154.376ZM151.788 158C151.788 155.9 153.157 154.376 154.644 154.376V153.395C152.436 153.395 150.806 155.557 150.806 158H151.788ZM145.941 158.491H151.297V157.509H145.941V158.491ZM142.594 154.376C144.081 154.376 145.451 155.9 145.451 158H146.432C146.432 155.557 144.803 153.395 142.594 153.395V154.376ZM139.737 158C139.737 155.9 141.107 154.376 142.594 154.376V153.395C140.386 153.395 138.756 155.557 138.756 158H139.737ZM133.891 158.491H139.247V157.509H133.891V158.491ZM130.544 154.376C132.031 154.376 133.401 155.9 133.401 158H134.382C134.382 155.557 132.752 153.395 130.544 153.395V154.376ZM127.687 158C127.687 155.9 129.057 154.376 130.544 154.376V153.395C128.336 153.395 126.706 155.557 126.706 158H127.687ZM121.841 158.491H127.197V157.509H121.841V158.491ZM118.494 154.376C119.981 154.376 121.35 155.9 121.35 158H122.332C122.332 155.557 120.702 153.395 118.494 153.395V154.376ZM115.637 158C115.637 155.9 117.007 154.376 118.494 154.376V153.395C116.285 153.395 114.656 155.557 114.656 158H115.637ZM109.791 158.491H115.146V157.509H109.791V158.491ZM106.444 154.376C107.93 154.376 109.3 155.9 109.3 158H110.281C110.281 155.557 108.652 153.395 106.444 153.395V154.376ZM103.587 158C103.587 155.9 104.957 154.376 106.444 154.376V153.395C104.235 153.395 102.606 155.557 102.606 158H103.587ZM97.7406 158.491H103.096V157.509H97.7406V158.491ZM94.3933 154.376C95.8803 154.376 97.25 155.9 97.25 158H98.2312C98.2312 155.557 96.6017 153.395 94.3933 153.395V154.376ZM91.5366 158C91.5366 155.9 92.9063 154.376 94.3933 154.376V153.395C92.1849 153.395 90.5554 155.557 90.5554 158H91.5366ZM85.6904 158.491H91.046V157.509H85.6904V158.491ZM82.3431 154.376C83.8301 154.376 85.1998 155.9 85.1998 158H86.181C86.181 155.557 84.5515 153.395 82.3431 153.395V154.376ZM79.4864 158C79.4864 155.9 80.8561 154.376 82.3431 154.376V153.395C80.1347 153.395 78.5052 155.557 78.5052 158H79.4864ZM73.6402 158.491H78.9958V157.509H73.6402V158.491ZM70.2929 154.376C71.7799 154.376 73.1496 155.9 73.1496 158H74.1308C74.1308 155.557 72.5013 153.395 70.2929 153.395V154.376ZM67.4362 158C67.4362 155.9 68.8059 154.376 70.2929 154.376V153.395C68.0845 153.395 66.455 155.557 66.455 158H67.4362ZM61.59 158.491H66.9456V157.509H61.59V158.491ZM58.2427 154.376C59.7297 154.376 61.0994 155.9 61.0994 158H62.0806C62.0806 155.557 60.4511 153.395 58.2427 153.395V154.376ZM55.386 158C55.386 155.9 56.7557 154.376 58.2427 154.376V153.395C56.0343 153.395 54.4048 155.557 54.4048 158H55.386ZM49.5397 158.491H54.8954V157.509H49.5397V158.491ZM46.1925 154.376C47.6794 154.376 49.0492 155.9 49.0492 158H50.0303C50.0303 155.557 48.4009 153.395 46.1925 153.395V154.376ZM43.3358 158C43.3358 155.9 44.7055 154.376 46.1925 154.376V153.395C43.984 153.395 42.3546 155.557 42.3546 158H43.3358ZM37.4895 158.491H42.8452V157.509H37.4895V158.491ZM34.1423 154.376C35.6292 154.376 36.9989 155.9 36.9989 158H37.9801C37.9801 155.557 36.3507 153.395 34.1423 153.395V154.376ZM31.2856 158C31.2856 155.9 32.6553 154.376 34.1423 154.376V153.395C31.9338 153.395 30.3044 155.557 30.3044 158H31.2856ZM25.4393 158.491H30.795V157.509H25.4393V158.491ZM22.0921 154.376C23.579 154.376 24.9487 155.9 24.9487 158H25.9299C25.9299 155.557 24.3005 153.395 22.0921 153.395V154.376ZM19.2354 158C19.2354 155.9 20.6051 154.376 22.0921 154.376V153.395C19.8836 153.395 18.2542 155.557 18.2542 158H19.2354ZM13.3891 158.491H18.7448V157.509H13.3891V158.491ZM10.0418 154.376C11.5288 154.376 12.8985 155.9 12.8985 158H13.8797C13.8797 155.557 12.2503 153.395 10.0418 153.395V154.376ZM7.18515 158C7.18515 155.9 8.55486 154.376 10.0418 154.376V153.395C7.83342 153.395 6.20397 155.557 6.20397 158H7.18515ZM0 158.491H6.69456V157.509H0V158.491ZM-0.490594 0V158H0.490594V0H-0.490594ZM6.69456 -0.490594H0V0.490594H6.69456V-0.490594ZM10.0418 3.62399C8.55486 3.62399 7.18515 2.09978 7.18515 0H6.20397C6.20397 2.44272 7.83342 4.60518 10.0418 4.60518V3.62399ZM12.8985 0C12.8985 2.09978 11.5288 3.62399 10.0418 3.62399V4.60518C12.2503 4.60518 13.8797 2.44272 13.8797 0H12.8985ZM18.7448 -0.490594H13.3891V0.490594H18.7448V-0.490594ZM22.0921 3.62399C20.6051 3.62399 19.2354 2.09978 19.2354 0H18.2542C18.2542 2.44272 19.8836 4.60518 22.0921 4.60518V3.62399ZM24.9487 0C24.9487 2.09978 23.579 3.62399 22.0921 3.62399V4.60518C24.3005 4.60518 25.9299 2.44272 25.9299 0H24.9487ZM30.795 -0.490594H25.4393V0.490594H30.795V-0.490594ZM34.1423 3.62399C32.6553 3.62399 31.2856 2.09978 31.2856 0H30.3044C30.3044 2.44272 31.9338 4.60518 34.1423 4.60518V3.62399ZM36.9989 0C36.9989 2.09978 35.6292 3.62399 34.1423 3.62399V4.60518C36.3507 4.60518 37.9801 2.44272 37.9801 0H36.9989ZM42.8452 -0.490594H37.4895V0.490594H42.8452V-0.490594ZM46.1925 3.62399C44.7055 3.62399 43.3358 2.09978 43.3358 0H42.3546C42.3546 2.44272 43.984 4.60518 46.1925 4.60518V3.62399ZM49.0492 0C49.0492 2.09978 47.6794 3.62399 46.1925 3.62399V4.60518C48.4009 4.60518 50.0303 2.44272 50.0303 0H49.0492ZM54.8954 -0.490594H49.5397V0.490594H54.8954V-0.490594ZM58.2427 3.62399C56.7557 3.62399 55.386 2.09978 55.386 0H54.4048C54.4048 2.44272 56.0343 4.60518 58.2427 4.60518V3.62399ZM61.0994 0C61.0994 2.09978 59.7297 3.62399 58.2427 3.62399V4.60518C60.4511 4.60518 62.0806 2.44272 62.0806 0H61.0994ZM66.9456 -0.490594H61.59V0.490594H66.9456V-0.490594ZM70.2929 3.62399C68.8059 3.62399 67.4362 2.09978 67.4362 0H66.455C66.455 2.44272 68.0845 4.60518 70.2929 4.60518V3.62399ZM73.1496 0C73.1496 2.09978 71.7799 3.62399 70.2929 3.62399V4.60518C72.5013 4.60518 74.1308 2.44272 74.1308 0H73.1496ZM78.9958 -0.490594H73.6402V0.490594H78.9958V-0.490594ZM82.3431 3.62399C80.8561 3.62399 79.4864 2.09978 79.4864 0H78.5052C78.5052 2.44272 80.1347 4.60518 82.3431 4.60518V3.62399ZM85.1998 0C85.1998 2.09978 83.8301 3.62399 82.3431 3.62399V4.60518C84.5515 4.60518 86.181 2.44272 86.181 0H85.1998ZM91.046 -0.490594H85.6904V0.490594H91.046V-0.490594ZM94.3933 3.62399C92.9063 3.62399 91.5366 2.09978 91.5366 0H90.5554C90.5554 2.44272 92.1849 4.60518 94.3933 4.60518V3.62399ZM97.25 0C97.25 2.09978 95.8803 3.62399 94.3933 3.62399V4.60518C96.6017 4.60518 98.2312 2.44272 98.2312 0H97.25ZM103.096 -0.490594H97.7406V0.490594H103.096V-0.490594ZM106.444 3.62399C104.957 3.62399 103.587 2.09978 103.587 0H102.606C102.606 2.44272 104.235 4.60518 106.444 4.60518V3.62399ZM109.3 0C109.3 2.09978 107.93 3.62399 106.444 3.62399V4.60518C108.652 4.60518 110.281 2.44272 110.281 0H109.3ZM115.146 -0.490594H109.791V0.490594H115.146V-0.490594ZM118.494 3.62399C117.007 3.62399 115.637 2.09978 115.637 0H114.656C114.656 2.44272 116.285 4.60518 118.494 4.60518V3.62399ZM121.35 0C121.35 2.09978 119.981 3.62399 118.494 3.62399V4.60518C120.702 4.60518 122.332 2.44272 122.332 0H121.35ZM127.197 -0.490594H121.841V0.490594H127.197V-0.490594ZM130.544 3.62399C129.057 3.62399 127.687 2.09978 127.687 0H126.706C126.706 2.44272 128.336 4.60518 130.544 4.60518V3.62399ZM133.401 0C133.401 2.09978 132.031 3.62399 130.544 3.62399V4.60518C132.752 4.60518 134.382 2.44272 134.382 0H133.401ZM139.247 -0.490594H133.891V0.490594H139.247V-0.490594ZM142.594 3.62399C141.107 3.62399 139.737 2.09978 139.737 0H138.756C138.756 2.44272 140.386 4.60518 142.594 4.60518V3.62399ZM145.451 0C145.451 2.09978 144.081 3.62399 142.594 3.62399V4.60518C144.803 4.60518 146.432 2.44272 146.432 0H145.451ZM151.297 -0.490594H145.941V0.490594H151.297V-0.490594ZM154.644 3.62399C153.157 3.62399 151.788 2.09978 151.788 0H150.806C150.806 2.44272 152.436 4.60518 154.644 4.60518V3.62399ZM157.501 0C157.501 2.09978 156.131 3.62399 154.644 3.62399V4.60518C156.853 4.60518 158.482 2.44272 158.482 0H157.501ZM163.347 -0.490594H157.992V0.490594H163.347V-0.490594ZM166.695 3.62399C165.208 3.62399 163.838 2.09978 163.838 0H162.857C162.857 2.44272 164.486 4.60518 166.695 4.60518V3.62399ZM169.551 0C169.551 2.09978 168.182 3.62399 166.695 3.62399V4.60518C168.903 4.60518 170.532 2.44272 170.532 0H169.551ZM175.397 -0.490594H170.042V0.490594H175.397V-0.490594ZM178.745 3.62399C177.258 3.62399 175.888 2.09978 175.888 0H174.907C174.907 2.44272 176.536 4.60518 178.745 4.60518V3.62399ZM181.601 0C181.601 2.09978 180.232 3.62399 178.745 3.62399V4.60518C180.953 4.60518 182.583 2.44272 182.583 0H181.601ZM187.448 -0.490594H182.092V0.490594H187.448V-0.490594ZM190.795 3.62399C189.308 3.62399 187.938 2.09978 187.938 0H186.957C186.957 2.44272 188.587 4.60518 190.795 4.60518V3.62399ZM193.652 0C193.652 2.09978 192.282 3.62399 190.795 3.62399V4.60518C193.003 4.60518 194.633 2.44272 194.633 0H193.652ZM199.498 -0.490594H194.142V0.490594H199.498V-0.490594ZM202.845 3.62399C201.358 3.62399 199.989 2.09978 199.989 0H199.007C199.007 2.44272 200.637 4.60518 202.845 4.60518V3.62399ZM205.702 0C205.702 2.09978 204.332 3.62399 202.845 3.62399V4.60518C205.054 4.60518 206.683 2.44272 206.683 0H205.702ZM211.548 -0.490594H206.192V0.490594H211.548V-0.490594ZM214.895 3.62399C213.408 3.62399 212.039 2.09978 212.039 0H211.058C211.058 2.44272 212.687 4.60518 214.895 4.60518V3.62399ZM217.752 0C217.752 2.09978 216.382 3.62399 214.895 3.62399V4.60518C217.104 4.60518 218.733 2.44272 218.733 0H217.752ZM223.598 -0.490594H218.243V0.490594H223.598V-0.490594ZM226.946 3.62399C225.459 3.62399 224.089 2.09978 224.089 0H223.108C223.108 2.44272 224.737 4.60518 226.946 4.60518V3.62399ZM229.802 0C229.802 2.09978 228.433 3.62399 226.946 3.62399V4.60518C229.154 4.60518 230.783 2.44272 230.783 0H229.802ZM235.649 -0.490594H230.293V0.490594H235.649V-0.490594ZM238.996 3.62399C237.509 3.62399 236.139 2.09978 236.139 0H235.158C235.158 2.44272 236.787 4.60518 238.996 4.60518V3.62399ZM241.852 0C241.852 2.09978 240.483 3.62399 238.996 3.62399V4.60518C241.204 4.60518 242.834 2.44272 242.834 0H241.852ZM247.699 -0.490594H242.343V0.490594H247.699V-0.490594ZM251.046 3.62399C249.559 3.62399 248.189 2.09978 248.189 0H247.208C247.208 2.44272 248.838 4.60518 251.046 4.60518V3.62399ZM253.903 0C253.903 2.09978 252.533 3.62399 251.046 3.62399V4.60518C253.254 4.60518 254.884 2.44272 254.884 0H253.903ZM259.749 -0.490594H254.393V0.490594H259.749V-0.490594ZM263.096 3.62399C261.609 3.62399 260.24 2.09978 260.24 0H259.258C259.258 2.44272 260.888 4.60518 263.096 4.60518V3.62399ZM265.953 0C265.953 2.09978 264.583 3.62399 263.096 3.62399V4.60518C265.305 4.60518 266.934 2.44272 266.934 0H265.953ZM271.799 -0.490594H266.444V0.490594H271.799V-0.490594ZM275.146 3.62399C273.659 3.62399 272.29 2.09978 272.29 0H271.309C271.309 2.44272 272.938 4.60518 275.146 4.60518V3.62399ZM278.003 0C278.003 2.09978 276.633 3.62399 275.146 3.62399V4.60518C277.355 4.60518 278.984 2.44272 278.984 0H278.003ZM283.849 -0.490594H278.494V0.490594H283.849V-0.490594ZM287.197 3.62399C285.71 3.62399 284.34 2.09978 284.34 0H283.359C283.359 2.44272 284.988 4.60518 287.197 4.60518V3.62399ZM290.053 0C290.053 2.09978 288.684 3.62399 287.197 3.62399V4.60518C289.405 4.60518 291.035 2.44272 291.035 0H290.053ZM295.9 -0.490594H290.544V0.490594H295.9V-0.490594ZM299.247 3.62399C297.76 3.62399 296.39 2.09978 296.39 0H295.409C295.409 2.44272 297.038 4.60518 299.247 4.60518V3.62399ZM302.104 0C302.104 2.09978 300.734 3.62399 299.247 3.62399V4.60518C301.455 4.60518 303.085 2.44272 303.085 0H302.104ZM307.95 -0.490594H302.594V0.490594H307.95V-0.490594ZM311.297 3.62399C309.81 3.62399 308.44 2.09978 308.44 0H307.459C307.459 2.44272 309.089 4.60518 311.297 4.60518V3.62399ZM145.736 16C145.736 17.6621 144.389 19.0094 142.727 19.0094V19.9906C144.931 19.9906 146.718 18.2039 146.718 16H145.736ZM142.727 12.9906C144.389 12.9906 145.736 14.338 145.736 16H146.718C146.718 13.7961 144.931 12.0094 142.727 12.0094V12.9906ZM139.718 16C139.718 14.338 141.065 12.9906 142.727 12.9906V12.0094C140.523 12.0094 138.736 13.7961 138.736 16H139.718ZM142.727 19.0094C141.065 19.0094 139.718 17.6621 139.718 16H138.736C138.736 18.2039 140.523 19.9906 142.727 19.9906V19.0094ZM145.737 30C145.737 31.6621 144.389 33.0094 142.727 33.0094V33.9906C144.931 33.9906 146.718 32.2039 146.718 30H145.737ZM142.727 26.9906C144.389 26.9906 145.737 28.3379 145.737 30H146.718C146.718 27.7961 144.931 26.0094 142.727 26.0094V26.9906ZM139.718 30C139.718 28.3379 141.065 26.9906 142.727 26.9906V26.0094C140.523 26.0094 138.737 27.7961 138.737 30H139.718ZM142.727 33.0094C141.065 33.0094 139.718 31.6621 139.718 30H138.737C138.737 32.2039 140.523 33.9906 142.727 33.9906V33.0094ZM142.727 47.9906C144.931 47.9906 146.718 46.2039 146.718 44H145.737C145.737 45.662 144.389 47.0094 142.727 47.0094V47.9906ZM138.737 44C138.737 46.2039 140.523 47.9906 142.727 47.9906V47.0094C141.065 47.0094 139.718 45.662 139.718 44H138.737ZM142.727 40.0094C140.523 40.0094 138.737 41.7961 138.737 44H139.718C139.718 42.338 141.065 40.9906 142.727 40.9906V40.0094ZM146.718 44C146.718 41.7961 144.931 40.0094 142.727 40.0094V40.9906C144.389 40.9906 145.737 42.338 145.737 44H146.718ZM145.737 58C145.737 59.662 144.389 61.0094 142.727 61.0094V61.9906C144.931 61.9906 146.718 60.2039 146.718 58H145.737ZM142.727 54.9906C144.389 54.9906 145.737 56.338 145.737 58H146.718C146.718 55.7961 144.931 54.0094 142.727 54.0094V54.9906ZM139.718 58C139.718 56.338 141.065 54.9906 142.727 54.9906V54.0094C140.523 54.0094 138.737 55.7961 138.737 58H139.718ZM142.727 61.0094C141.065 61.0094 139.718 59.662 139.718 58H138.737C138.737 60.2039 140.523 61.9906 142.727 61.9906V61.0094ZM142.727 75.9906C144.931 75.9906 146.718 74.2039 146.718 72H145.737C145.737 73.662 144.389 75.0094 142.727 75.0094V75.9906ZM138.737 72C138.737 74.2039 140.523 75.9906 142.727 75.9906V75.0094C141.065 75.0094 139.718 73.662 139.718 72H138.737ZM142.727 68.0094C140.523 68.0094 138.737 69.7961 138.737 72H139.718C139.718 70.338 141.065 68.9906 142.727 68.9906V68.0094ZM146.718 72C146.718 69.7961 144.931 68.0094 142.727 68.0094V68.9906C144.389 68.9906 145.737 70.338 145.737 72H146.718ZM145.737 86C145.737 87.662 144.389 89.0094 142.727 89.0094V89.9906C144.931 89.9906 146.718 88.2039 146.718 86H145.737ZM142.727 82.9906C144.389 82.9906 145.737 84.338 145.737 86H146.718C146.718 83.7961 144.931 82.0094 142.727 82.0094V82.9906ZM139.718 86C139.718 84.338 141.065 82.9906 142.727 82.9906V82.0094C140.523 82.0094 138.737 83.7961 138.737 86H139.718ZM142.727 89.0094C141.065 89.0094 139.718 87.662 139.718 86H138.737C138.737 88.2039 140.523 89.9906 142.727 89.9906V89.0094ZM142.727 103.991C144.931 103.991 146.718 102.204 146.718 100H145.737C145.737 101.662 144.389 103.009 142.727 103.009V103.991ZM138.737 100C138.737 102.204 140.523 103.991 142.727 103.991V103.009C141.065 103.009 139.718 101.662 139.718 100H138.737ZM142.727 96.0094C140.523 96.0094 138.737 97.7961 138.737 100H139.718C139.718 98.338 141.065 96.9906 142.727 96.9906V96.0094ZM146.718 100C146.718 97.7961 144.931 96.0094 142.727 96.0094V96.9906C144.389 96.9906 145.737 98.338 145.737 100H146.718ZM145.737 114C145.737 115.662 144.389 117.009 142.727 117.009V117.991C144.931 117.991 146.718 116.204 146.718 114H145.737ZM142.727 110.991C144.389 110.991 145.737 112.338 145.737 114H146.718C146.718 111.796 144.931 110.009 142.727 110.009V110.991ZM139.718 114C139.718 112.338 141.065 110.991 142.727 110.991V110.009C140.523 110.009 138.737 111.796 138.737 114H139.718ZM142.727 117.009C141.065 117.009 139.718 115.662 139.718 114H138.737C138.737 116.204 140.523 117.991 142.727 117.991V117.009ZM142.727 131.991C144.931 131.991 146.718 130.204 146.718 128H145.737C145.737 129.662 144.389 131.009 142.727 131.009V131.991ZM138.737 128C138.737 130.204 140.523 131.991 142.727 131.991V131.009C141.065 131.009 139.718 129.662 139.718 128H138.737ZM142.727 124.009C140.523 124.009 138.737 125.796 138.737 128H139.718C139.718 126.338 141.065 124.991 142.727 124.991V124.009ZM146.718 128C146.718 125.796 144.931 124.009 142.727 124.009V124.991C144.389 124.991 145.737 126.338 145.737 128H146.718ZM145.737 142C145.737 143.662 144.389 145.009 142.727 145.009V145.991C144.931 145.991 146.718 144.204 146.718 142H145.737ZM142.727 138.991C144.389 138.991 145.737 140.338 145.737 142H146.718C146.718 139.796 144.931 138.009 142.727 138.009V138.991ZM139.718 142C139.718 140.338 141.065 138.991 142.727 138.991V138.009C140.523 138.009 138.737 139.796 138.737 142H139.718ZM142.727 145.009C141.065 145.009 139.718 143.662 139.718 142H138.737C138.737 144.204 140.523 145.991 142.727 145.991V145.009Z" fill="black" mask="url(#path-1-inside-1_8858_8991)"/>
</svg>
