<svg width="25" height="24" viewBox="0 0 25 24" fill="none" xmlns="http://www.w3.org/2000/svg">
<path d="M5.5 19H6.925L16.7 9.225L15.275 7.8L5.5 17.575V19ZM4.5 21C4.21667 21 3.97917 20.9042 3.7875 20.7125C3.59583 20.5208 3.5 20.2833 3.5 20V17.575C3.5 17.3083 3.55 17.0542 3.65 16.8125C3.75 16.5708 3.89167 16.3583 4.075 16.175L16.7 3.575C16.9 3.39167 17.1208 3.25 17.3625 3.15C17.6042 3.05 17.8583 3 18.125 3C18.3917 3 18.65 3.05 18.9 3.15C19.15 3.25 19.3667 3.4 19.55 3.6L20.925 5C21.125 5.18333 21.2708 5.4 21.3625 5.65C21.4542 5.9 21.5 6.15 21.5 6.4C21.5 6.66667 21.4542 6.92083 21.3625 7.1625C21.2708 7.40417 21.125 7.625 20.925 7.825L8.325 20.425C8.14167 20.6083 7.92917 20.75 7.6875 20.85C7.44583 20.95 7.19167 21 6.925 21H4.5ZM15.975 8.525L15.275 7.8L16.7 9.225L15.975 8.525Z" fill="currentColor"/>
</svg>
