<svg width="24" height="24" viewBox="0 0 24 24" fill="none" xmlns="http://www.w3.org/2000/svg">
<g clip-path="url(#clip0_11122_3689)">
<path fill-rule="evenodd" clip-rule="evenodd" d="M19.3815 1.79966C20.0178 1.92402 20.6341 2.24653 21.1948 2.80722C21.7498 3.36219 22.0787 3.96668 22.2133 4.59309C22.3468 5.21472 22.2788 5.80999 22.1154 6.33765C21.7953 7.37127 21.088 8.21647 20.6132 8.69129L8.67664 20.6278C8.56491 20.7395 8.42075 20.8131 8.26473 20.838L3.21593 21.6449C2.97854 21.6828 2.73734 21.6047 2.56735 21.4347C2.39736 21.2647 2.31918 21.0235 2.35711 20.7861L3.16396 15.7373C3.1889 15.5813 3.26248 15.4371 3.3742 15.3254L15.3107 3.38886C15.7416 2.95801 16.5838 2.25653 17.6215 1.92521C18.1502 1.7564 18.7522 1.67666 19.3815 1.79966ZM18.0777 3.35391C17.3627 3.58217 16.7211 4.09944 16.3712 4.44934L16.2085 4.61204L19.39 7.79351L19.5527 7.63081C19.9562 7.22728 20.4676 6.58862 20.6827 5.894C20.7869 5.55754 20.8156 5.22759 20.747 4.90806C20.6793 4.5933 20.5073 4.24067 20.1343 3.86771C19.7671 3.50048 19.414 3.33414 19.0939 3.27157C18.7668 3.20765 18.4253 3.24292 18.0777 3.35391ZM18.3295 8.85399L15.148 5.67253L4.96493 15.8556L8.14639 19.0371L18.3295 8.85399ZM6.57728 19.5889L4.41308 17.4247L4.00143 20.0006L6.57728 19.5889Z" fill="white"/>
</g>
<defs>
<clipPath id="clip0_11122_3689">
<rect width="23.9961" height="23.9961" fill="white" transform="translate(0.00195312 0.00195312)"/>
</clipPath>
</defs>
</svg>
