<svg width="25" height="24" viewBox="0 0 25 24" fill="none" xmlns="http://www.w3.org/2000/svg">
<path d="M22.5935 15.8512C22.4202 15.4246 21.9403 15.2179 21.5137 15.3846C21.0871 15.5512 20.8804 16.0378 21.0471 16.4644C21.267 17.011 21.1937 17.6309 20.8538 18.1242C20.5205 18.6174 19.9806 18.904 19.374 18.904H4.9629C4.303 18.904 3.72309 18.5641 3.40314 17.9842C3.08319 17.4109 3.09652 16.731 3.44313 16.1711L10.6487 4.51294C10.9753 3.97969 11.5419 3.66641 12.1684 3.66641C12.795 3.66641 13.3616 3.98636 13.6882 4.51294L19.0207 13.1449C19.2607 13.5382 19.7739 13.6582 20.1672 13.4182C20.5605 13.1783 20.6805 12.665 20.4405 12.2717L15.108 3.63975C14.4748 2.61324 13.3749 2 12.1684 2C10.962 2 9.86214 2.61324 9.2289 3.63975L2.02335 15.3046C1.35679 16.3844 1.32346 17.6976 1.94337 18.8041C2.56327 19.9106 3.68976 20.5771 4.95623 20.5771H19.3673C20.5338 20.5771 21.5737 20.0239 22.2269 19.064C22.8735 18.1108 23.0068 16.911 22.5868 15.8512H22.5935Z" fill="#FF684B"/>
<path fill-rule="evenodd" clip-rule="evenodd" d="M12.1684 13.3887C11.6757 13.3887 11.2757 12.9888 11.2757 12.496L11.2757 8.99888C11.2757 8.5061 11.6757 8.10616 12.1685 8.10616C12.6612 8.10616 13.0612 8.5061 13.0612 8.99888L13.0612 12.496C13.0612 12.9888 12.6612 13.3887 12.1684 13.3887Z" fill="#FF684B"/>
<path d="M12.1684 14.5456C11.6754 14.5456 11.2757 14.9453 11.2757 15.4384C11.2757 15.9314 11.6754 16.3311 12.1684 16.3311C12.6615 16.3311 13.0612 15.9314 13.0612 15.4384C13.0612 14.9453 12.6615 14.5456 12.1684 14.5456Z" fill="#FF684B"/>
</svg>
