<svg width="21" height="20" viewBox="0 0 21 20" fill="none" xmlns="http://www.w3.org/2000/svg">
<path fill-rule="evenodd" clip-rule="evenodd" d="M10.75 17.9375C14.9957 17.9375 18.4375 14.4957 18.4375 10.25C18.4375 6.00431 14.9957 2.5625 10.75 2.5625C6.50431 2.5625 3.0625 6.00431 3.0625 10.25C3.0625 14.4957 6.50431 17.9375 10.75 17.9375ZM10.75 19.2188C15.7033 19.2188 19.7188 15.2033 19.7188 10.25C19.7188 5.2967 15.7033 1.28125 10.75 1.28125C5.7967 1.28125 1.78125 5.2967 1.78125 10.25C1.78125 15.2033 5.7967 19.2188 10.75 19.2188ZM10.75 8.32812C11.1038 8.32812 11.3906 8.61494 11.3906 8.96875V14.0938C11.3906 14.4476 11.1038 14.7344 10.75 14.7344C10.3962 14.7344 10.1094 14.4476 10.1094 14.0938V8.96875C10.1094 8.61494 10.3962 8.32812 10.75 8.32812ZM10.75 7.04688C11.1038 7.04688 11.3906 6.76006 11.3906 6.40625C11.3906 6.05244 11.1038 5.76562 10.75 5.76562C10.3962 5.76562 10.1094 6.05244 10.1094 6.40625C10.1094 6.76006 10.3962 7.04688 10.75 7.04688Z" fill="white"/>
</svg>
