<svg width="180" height="170" viewBox="0 0 180 170" fill="none" xmlns="http://www.w3.org/2000/svg">
<path d="M59.8008 21.6094H41.078C41.078 21.6094 33.3428 22.7268 32.1032 33.199C30.8635 43.6712 34.3003 49.1904 41.078 49.9616C46.1363 50.161 50.4911 46.7468 50.4911 46.7468C50.4911 46.7468 63.7192 40.3623 72.2049 38.2931C80.6906 36.2257 96.3002 33.9025 106.059 34.2054C115.819 34.5082 132.805 35.8344 142.83 40.1347C152.854 44.4349 158.584 46.3668 162.879 48.8367C167.173 51.3067 168.642 49.6626 170.676 47.7156C172.709 45.7705 181.791 37.4409 177.155 25.4732C175.191 21.3329 172.864 17.4653 172.864 17.4653C156.483 12.3618 134.297 4.53447 118.492 3.96261C103.029 1.6714 83.5387 1.26696 74.3851 2.04198C65.2297 2.817 48.832 5.23236 44.0502 7.26962C51.1044 7.58941 54.3079 9.15262 55.5702 10.1835C56.8324 11.2162 58.4727 15.0593 58.4727 15.0593L59.4359 19.2166L59.8064 21.6094H59.8008Z" fill="#E0CCB3"/>
<path d="M50.8382 150.846L37.9281 155.809C37.9281 155.809 37.2791 156.875 35.5974 155.252C33.9175 153.628 30.2456 148.741 30.65 142.308C31.0545 135.874 33.3099 133.045 35.3321 131.787C37.3543 130.53 41.8521 128.909 41.8521 128.909C41.8521 128.909 74.9203 118.395 99.3768 118.925C123.833 119.456 133.188 119.823 147.887 123.171C162.586 126.52 169.988 129.089 169.988 129.089C169.988 129.089 175.741 137.153 175.178 142.432C174.614 147.71 172.897 154.526 169.366 157.035C165.835 159.544 165.357 159.471 163.495 158.363C161.634 157.255 133.762 148.282 97.3 152.481C93.3685 152.767 85.5449 153.643 78.0185 155.536C65.4451 158.696 52.6667 163.391 52.6667 163.391L45.0049 166.23C45.0049 166.23 50.0369 162.193 50.9511 158.006C51.8653 153.818 50.8401 150.842 50.8401 150.842L50.8382 150.846Z" fill="#E0CCB3"/>
<path d="M155.564 45.6802C148.727 53.4925 144.065 62.3055 141.016 72.1137C137.812 82.4185 136.881 93.5603 138.725 104.185C139.737 110.018 141.417 116.724 143.879 122.129C130.346 119.556 116.185 118.073 102.453 118.692C82.2835 119.601 63.1262 122.893 43.8447 128.237C42.4508 128.624 40.8199 129.285 39.4542 129.764C36.7698 130.267 34.7871 132.063 33.1543 134.155C31.0945 136.792 30.4229 139.527 30.6731 142.746C30.9177 145.889 31.2807 149.215 33.0697 151.888C34.1776 153.544 36.3334 156.002 38.6397 155.79C38.745 155.919 38.9162 155.985 39.1306 155.901C42.9832 154.381 46.9072 153.034 50.8876 151.862C50.8519 154.311 50.6017 156.777 49.9696 159.127C49.3056 161.593 48.0979 163.999 46.0193 165.566C45.9629 165.588 45.9102 165.611 45.8556 165.634C45.7315 165.686 45.6581 165.763 45.6205 165.85C45.3327 166.042 45.0317 166.222 44.7119 166.38C38.1976 169.629 30.8537 164.99 26.0192 160.961C15.4172 152.127 9.72119 139.275 6.52516 126.384C4.71929 119.095 3.49656 111.642 2.63124 104.198C1.75276 96.651 1.36337 89.0362 1.8186 81.4497C2.26819 73.944 3.65834 66.5268 5.62411 59.2581C7.4883 52.3676 9.76445 45.5241 12.573 38.9345C15.1764 32.8321 18.3913 26.8916 22.6294 21.6884C24.5501 19.3313 26.6532 17.0382 29.1005 15.1778C31.4688 13.3776 34.0798 11.8426 36.7661 10.5258C39.3018 9.28238 41.9937 8.17816 44.8511 7.91481C47.9324 7.63264 51.1529 8.1744 53.7657 9.83543C57.7725 12.3862 59.2135 16.9611 59.4072 21.5003C53.7921 21.2614 48.1732 21.0845 42.558 20.8437C42.4602 20.8381 42.3793 20.8607 42.3116 20.8945C39.2924 20.682 36.5591 23.0823 34.8247 25.2061C32.7875 27.7004 31.4481 30.7159 30.9534 33.8536C30.0561 39.5383 31.9391 46.9988 37.9606 49.4575C40.6807 50.5673 43.3387 50.2212 45.7691 49.0907C45.8519 49.0944 45.9384 49.0775 46.0287 49.0342C55.7033 44.2148 65.9366 40.4638 76.5311 38.0278C87.1782 35.5804 98.1019 34.5233 109.041 34.8205C119.018 35.0914 128.922 36.3818 138.488 39.1922C143.343 40.6181 148.079 42.392 152.709 44.4029C153.665 44.8186 154.62 45.2381 155.566 45.6745L155.564 45.6802Z" fill="#FFECD9"/>
<path d="M152.706 44.4084C148.079 42.3975 143.34 40.6236 138.485 39.1977C128.919 36.3873 119.013 35.0969 109.038 34.826C98.099 34.5307 87.1753 35.5879 76.5282 38.0333C65.9337 40.4694 55.7004 44.2184 46.0258 49.0397C45.9355 49.083 45.849 49.0999 45.7662 49.0962C43.3358 50.2267 40.6778 50.5729 37.9577 49.463C31.9362 47.0044 30.0514 39.5439 30.9505 33.8591C31.4453 30.7214 33.3753 27.9449 35.4107 25.4505C37.1451 23.3248 38.84 21.5246 41.861 21.7372C41.9288 21.7033 53.7892 21.265 59.4062 21.5039C59.2125 16.9648 58.3472 11.8857 54.3385 9.33306C51.7275 7.67203 47.9314 7.63441 44.8501 7.91658C41.9927 8.17993 39.3008 9.28415 36.7651 10.5276C34.0788 11.8444 31.4678 13.3794 29.0995 15.1796C26.6522 17.04 24.9554 19.7375 23.0348 22.0946C18.7966 27.2978 15.1736 32.8339 12.572 38.9363C9.76348 45.5258 7.48732 52.3693 5.62313 59.2599C3.65736 66.5285 2.26721 73.9458 1.81763 81.4515C1.51477 86.506 1.58813 91.5719 1.92861 96.6208C47.6304 76.7694 61.0692 75.62 77.9955 72.7061C95.0798 69.7659 134.999 70.5823 134.999 70.5823H140.919C144.049 62.6421 149.879 52.1718 155.562 45.6744C154.615 45.2361 153.66 44.8166 152.704 44.4028L152.706 44.4084Z" fill="url(#paint0_linear_7352_6129)"/>
<path d="M44.2561 39.085C46.378 36.2426 47.3619 32.7042 47.6798 29.2128C47.9638 26.0883 47.9149 21.8953 44.6023 20.3509C41.2181 18.7726 37.4051 21.2632 34.9841 23.4961C32.659 25.6406 31.0018 28.4435 30.2399 31.5135C29.4799 34.5759 29.3746 37.9883 30.1985 41.0432C31.1015 44.3878 32.6985 47.6064 35.5447 49.6907C38.4717 51.8352 42.328 52.1606 45.714 50.9906C49.1 49.8205 51.901 47.36 53.9966 44.3972C56.1636 41.3329 57.6892 37.7625 58.974 34.2542C60.3473 30.5089 61.2784 26.5435 61.3179 22.5386C61.3536 18.8817 60.6313 15.0762 58.9364 11.8106C57.4071 8.86099 54.6569 7.25452 51.5097 6.46068C44.3464 4.65293 36.7919 7.03631 31.0337 11.3949C25.2756 15.7534 20.7816 21.7956 16.9009 27.8979C8.60326 40.9586 3.57315 55.667 1.4061 70.9493C-0.947184 87.537 -0.339583 104.461 3.17623 120.844C6.20296 134.953 11.5961 149.023 21.5228 159.776C25.364 163.939 30.2625 166.967 35.6989 168.566C39.2919 169.622 43.2215 169.507 46.4307 167.376C49.2938 165.476 51.1617 162.376 52.0214 159.091C52.9921 155.383 52.8623 151.542 52.4842 147.763C52.1249 144.178 51.6019 140.491 50.6858 137.005C49.86 133.865 48.1952 130.709 45.3303 128.993C42.1493 127.089 38.1105 127.772 35.1873 129.849C28.9645 134.27 27.896 142.483 30.1402 149.345C31.235 152.693 33.0371 157.078 37.0684 157.492C41.1655 157.913 43.1933 153.602 42.977 150.124C42.7475 146.433 41.4853 142.795 39.5797 139.64C38.4548 137.778 35.5259 139.477 36.6564 141.348C38.3156 144.093 39.5571 147.368 39.6135 150.611C39.6342 151.794 39.4123 153.254 38.293 153.914C37.153 154.588 35.9623 153.574 35.3302 152.665C33.5262 150.073 32.5462 146.441 32.407 143.318C32.2734 140.319 32.9882 137.357 34.7697 134.909C36.3423 132.752 39.147 130.833 41.9348 131.284C44.4555 131.693 46.1373 134.117 46.9537 136.36C48.0485 139.366 48.4266 142.684 48.8668 145.839C49.307 148.993 49.5891 152.122 49.2863 155.233C49.006 158.115 48.1181 161.125 46.0846 163.271C44.0398 165.43 40.9021 166.335 38.0033 165.671C33.0447 164.535 28.4735 161.956 24.8787 158.374C21.3422 154.851 18.4848 150.673 16.0243 146.348C12.4577 140.079 9.86926 133.457 8.01824 126.493C4.20897 112.153 2.72476 97.2285 3.62394 82.4185C4.47044 68.4869 7.34103 54.5986 13.1725 41.8671C15.9773 35.7422 19.384 29.8919 23.3437 24.4423C26.9291 19.5063 31.1466 14.7715 36.5812 11.8388C39.3521 10.3433 42.4559 9.40464 45.6106 9.25979C48.4247 9.12999 51.8239 9.49117 54.1659 11.2162C56.1749 12.6966 56.9876 15.5202 57.4898 17.8358C58.2329 21.2576 58.0147 24.8336 57.2509 28.229C56.4985 31.5755 55.2701 34.8167 53.8028 37.913C52.4578 40.7498 50.8438 43.5075 48.4567 45.5936C46.3536 47.4334 43.3231 48.6787 40.5014 48.1971C37.7136 47.7212 35.6218 45.6106 34.5232 43.088C33.3438 40.3773 32.8678 37.6911 33.1218 34.7433C33.3362 32.2678 34.1489 29.8788 35.5992 27.8547C37.0496 25.8306 39.6925 23.355 42.3073 23.2516C45.0481 23.1425 44.4499 27.6948 44.2881 29.3558C44.0078 32.2245 43.071 35.05 41.3404 37.3694C40.793 38.103 41.22 39.2599 41.948 39.685C42.8114 40.1911 43.7163 39.813 44.2637 39.0774L44.2561 39.085Z" fill="#291510"/>
<path d="M38.5083 142.144C41.9545 140.867 45.4703 139.804 49.0463 138.957C51.1663 138.457 50.269 135.191 48.1452 135.692C44.5692 136.536 41.0534 137.599 37.6072 138.878C36.7513 139.196 36.1681 140.024 36.424 140.961C36.6497 141.785 37.6448 142.462 38.5064 142.144H38.5083Z" fill="#291510"/>
<path d="M39.6177 156.886C43.5154 155.436 47.3905 153.931 51.2882 152.479C52.1441 152.159 52.7272 151.333 52.4714 150.397C52.2457 149.573 51.2505 148.893 50.389 149.213C46.4913 150.664 42.6162 152.169 38.7185 153.621C37.8626 153.941 37.2795 154.766 37.5353 155.703C37.761 156.527 38.7561 157.206 39.6177 156.886Z" fill="#291510"/>
<path d="M43.368 23.3137C48.7969 23.0598 54.2183 23.0786 59.6227 23.7181C60.5313 23.8254 61.3157 22.8622 61.3157 22.0251C61.3157 21.0206 60.5351 20.4394 59.6227 20.3321C54.2183 19.6926 48.7988 19.6756 43.368 19.9277C41.199 20.0293 41.1859 23.4153 43.368 23.3137Z" fill="#291510"/>
<path d="M43.1581 39.9259C47.6859 39.1941 52.2138 38.4642 56.7435 37.7325C57.6465 37.5858 58.1487 36.4627 57.9268 35.6501C57.6634 34.6888 56.7511 34.322 55.8444 34.4669C51.3165 35.1986 46.7887 35.9285 42.2589 36.6602C41.356 36.807 40.8537 37.93 41.0757 38.7426C41.339 39.7039 42.2514 40.0707 43.1581 39.9259Z" fill="#291510"/>
<path d="M48.4206 49.8092C65.6649 40.0161 85.411 35.8475 105.133 35.8927C115.784 35.9172 126.404 37.217 136.683 40.0406C141.724 41.4251 146.679 43.1576 151.487 45.2118C153.92 46.2501 156.314 47.3713 158.673 48.5677C159.86 49.1696 161.038 49.7867 162.217 50.4037C163.397 51.0207 164.572 51.6038 165.927 51.6603C168.171 51.7505 170.12 50.3002 171.79 48.9759C173.461 47.6516 174.986 45.9924 176.235 44.196C178.91 40.3491 180.278 35.5785 179.956 30.8983C179.642 26.331 177.909 21.5153 175.058 17.8979C173.564 16.0017 171.198 15.2323 168.976 14.51C166.647 13.7519 164.279 13.1048 161.943 12.3674C151.85 9.17702 141.766 5.77971 131.335 3.85345C121.685 2.07203 111.82 0.939591 102.025 0.354562C92.7304 -0.200369 83.4189 -0.06869 74.128 0.505052C69.3274 0.800388 64.5004 1.08067 59.7469 1.83312C55.3432 2.52914 50.9808 3.52237 46.6881 4.72441C44.6471 5.29627 42.6211 5.92268 40.6215 6.62998C38.6219 7.33728 39.459 10.6236 41.5226 9.89561C49.5098 7.07204 57.9485 5.1533 66.3929 4.45541C75.821 3.67662 85.2793 3.21198 94.7413 3.43772C103.88 3.65593 112.986 4.53065 122.033 5.80981C127.187 6.53781 132.304 7.38243 137.364 8.61644C142.424 9.85046 147.309 11.3083 152.227 12.8433C157.035 14.3445 161.828 15.8889 166.653 17.3354C168.494 17.8885 171.036 18.3795 172.347 19.9051C172.93 20.5823 173.338 21.44 173.78 22.2113C174.36 23.2233 174.894 24.2617 175.306 25.3528C176.933 29.6718 177.063 34.3351 175.393 38.6617C173.946 42.4051 171.017 45.9341 167.475 47.8642C165.552 48.9119 163.696 47.3581 161.995 46.4759C159.745 45.3115 157.477 44.1884 155.165 43.1538C150.345 40.9962 145.404 39.1057 140.349 37.5763C130.347 34.5496 119.914 32.9393 109.476 32.5876C90.1119 31.9329 70.473 35.1967 52.9353 43.626C50.8228 44.6418 48.7479 45.7328 46.7107 46.8916C44.8164 47.9676 46.5207 50.8946 48.4187 49.8149L48.4206 49.8092Z" fill="#291510"/>
<path d="M154.911 44.4443C147.797 52.3262 142.45 61.7242 139.333 71.8748C136.087 82.4448 135.471 93.6393 137.178 104.544C138.158 110.81 139.964 116.896 142.512 122.701C142.879 123.538 144.104 123.732 144.828 123.308C145.692 122.802 145.804 121.832 145.436 120.993C137.042 101.882 137.776 79.3184 147.518 60.8665C150.191 55.8044 153.47 51.0884 157.306 46.8389C158.762 45.2249 156.374 42.8227 154.911 44.4443Z" fill="#291510"/>
<path d="M37.8998 132.069C56.4608 125.995 75.6896 121.903 95.2062 120.72C114.855 119.531 134.603 121.297 153.715 126.017C156.062 126.597 158.401 127.217 160.726 127.881C162.943 128.513 165.139 129.298 167.383 129.828C168.292 130.043 168.927 130.282 169.524 131.03C170.169 131.839 170.664 132.821 171.126 133.741C172.093 135.656 172.77 137.716 173.16 139.826C173.892 143.794 173.34 148.023 171.433 151.593C170.513 153.316 169.311 154.909 167.802 156.162C167.129 156.721 166.267 157.304 165.346 157.189C164.223 157.052 163.111 156.395 162.02 156.087C143.122 150.761 123.25 148.79 103.673 150.188C93.9873 150.878 84.3465 152.37 74.9127 154.672C66.1034 156.822 57.4314 159.706 48.9758 162.974C46.9912 163.741 45.0198 164.552 43.0841 165.436C42.2527 165.816 42.0476 167.02 42.4765 167.752C42.9769 168.606 43.9588 168.741 44.7922 168.359C48.861 166.499 53.0917 165.002 57.3167 163.54C61.7166 162.018 66.1279 160.541 70.6143 159.294C80.0425 156.674 89.7002 154.864 99.4425 153.927C109.61 152.949 119.864 152.878 130.043 153.73C140.084 154.571 149.892 156.465 159.64 158.965C160.681 159.232 161.723 159.494 162.729 159.875C163.95 160.338 165.094 160.714 166.418 160.509C168.69 160.156 170.57 158.427 172.005 156.73C174.768 153.465 176.362 149.422 176.76 145.175C177.185 140.656 176.077 136.059 174.048 132.033C173.049 130.052 171.824 127.861 169.67 126.988C168.741 126.612 167.742 126.459 166.787 126.158C165.59 125.782 164.39 125.421 163.188 125.069C143.79 119.392 123.57 116.604 103.355 117.007C83.1407 117.409 63.1877 120.891 43.8911 126.644C41.583 127.332 39.2843 128.054 36.9931 128.803C34.9313 129.478 35.8136 132.748 37.8941 132.069H37.8998Z" fill="#291510"/>
<path d="M74.5723 111.001C74.0963 111.001 73.6365 110.781 73.3702 110.428C73.1342 110.113 73.0677 109.718 73.1867 109.313C74.0318 106.398 76.912 104.284 80.0321 104.284C80.0745 104.284 80.1169 104.284 80.1592 104.284C81.3129 104.307 82.3415 104.692 83.3379 105.065C83.6848 105.196 84.0458 105.329 84.4028 105.446C84.8163 105.581 85.1935 105.646 85.5545 105.646C86.3915 105.646 87.1559 105.291 88.1059 104.458C88.2471 104.335 88.3883 104.21 88.5275 104.085C89.5077 103.211 90.5222 102.308 91.8554 101.87C92.3092 101.721 92.7771 101.644 93.2451 101.644C94.2273 101.644 95.2317 101.965 96.4036 102.651C96.5105 102.713 96.6174 102.78 96.7283 102.846C97.2406 103.161 97.769 103.486 98.3075 103.514C98.3237 103.514 98.3398 103.514 98.3539 103.514C98.8804 103.514 99.429 103.078 99.8686 102.729C100.093 102.552 100.306 102.372 100.512 102.197C101.375 101.467 102.188 100.777 103.527 100.531C103.915 100.46 104.31 100.424 104.699 100.424C107.402 100.424 109.784 102.118 110.629 104.639C110.764 105.041 110.712 105.434 110.486 105.749C110.23 106.104 109.768 106.325 109.282 106.325C108.656 106.325 108.15 105.966 107.957 105.39C107.541 104.147 106.319 103.189 105.048 103.115C104.969 103.11 104.889 103.106 104.808 103.106C104.266 103.106 103.741 103.217 103.297 103.429C102.924 103.607 102.636 103.889 102.331 104.186C102.16 104.353 101.984 104.524 101.787 104.684C100.802 105.48 99.7093 106.217 98.4044 106.217C98.364 106.217 98.3217 106.217 98.2813 106.215C97.0893 106.172 96.1212 105.616 95.1833 105.079C94.9635 104.954 94.7436 104.827 94.5218 104.708C94.1264 104.496 93.7432 104.391 93.354 104.391C92.2043 104.391 91.1555 105.333 90.141 106.243C89.5218 106.797 88.8804 107.372 88.2168 107.731C87.4101 108.165 86.5428 108.385 85.6372 108.385C85.1693 108.385 84.6913 108.326 84.2112 108.207C83.6525 108.07 83.116 107.854 82.5977 107.645C81.8756 107.354 81.1919 107.08 80.4597 106.999C80.3185 106.983 80.1733 106.975 80.0301 106.975C78.1624 106.975 76.3734 108.288 75.8692 110.029C75.6978 110.622 75.2016 110.989 74.5764 110.989L74.5723 111.001Z" fill="#291510"/>
<path d="M104.701 100.73C107.242 100.73 109.532 102.316 110.342 104.74C110.603 105.519 109.943 106.029 109.281 106.029C108.848 106.029 108.412 105.809 108.243 105.299C107.805 103.992 106.506 102.903 105.066 102.816C104.979 102.81 104.895 102.808 104.808 102.808C104.243 102.808 103.674 102.921 103.168 103.161C102.527 103.465 102.135 104.02 101.597 104.454C100.689 105.188 99.6304 105.92 98.4041 105.92C98.3678 105.92 98.3295 105.92 98.2932 105.918C96.9076 105.868 95.8265 105.069 94.6648 104.448C94.2049 104.202 93.7713 104.097 93.3538 104.097C91.3469 104.097 89.7858 106.551 88.0734 107.473C87.2989 107.889 86.478 108.09 85.637 108.09C85.1912 108.09 84.7374 108.034 84.2836 107.923C82.9988 107.608 81.8209 106.854 80.4918 106.709C80.3365 106.692 80.1832 106.684 80.0279 106.684C78.015 106.684 76.1171 108.09 75.5765 109.956C75.4253 110.474 75.0037 110.698 74.5741 110.698C73.9227 110.698 73.251 110.184 73.4789 109.397C74.2817 106.632 77.0469 104.587 80.034 104.587C80.0743 104.587 80.1146 104.587 80.155 104.587C81.6495 104.615 82.9282 105.285 84.3119 105.734C84.7616 105.882 85.1711 105.948 85.5563 105.948C86.5749 105.948 87.4119 105.47 88.3074 104.686C89.4207 103.711 90.4937 102.636 91.952 102.156C92.3937 102.011 92.8253 101.947 93.2469 101.947C94.3017 101.947 95.2961 102.352 96.2521 102.911C96.8632 103.27 97.551 103.778 98.2952 103.814C98.3154 103.814 98.3356 103.814 98.3578 103.814C98.9891 103.814 99.5941 103.336 100.062 102.965C101.222 102.045 102.021 101.116 103.586 100.829C103.961 100.761 104.334 100.726 104.703 100.726M104.701 100.125C104.292 100.125 103.88 100.164 103.475 100.238C102.057 100.499 101.214 101.212 100.318 101.969C100.115 102.142 99.9027 102.32 99.6829 102.495C99.2997 102.798 98.7773 103.213 98.3557 103.213C98.3457 103.213 98.3356 103.213 98.3235 103.213C97.8616 103.189 97.3654 102.885 96.8874 102.59C96.7745 102.521 96.6656 102.453 96.5566 102.39C95.3364 101.676 94.2836 101.342 93.2448 101.342C92.7446 101.342 92.2444 101.422 91.7604 101.582C90.3687 102.039 89.33 102.965 88.3276 103.859C88.1884 103.984 88.0472 104.107 87.908 104.23C87.0065 105.02 86.3248 105.341 85.5563 105.341C85.2275 105.341 84.8806 105.281 84.4994 105.156C84.1465 105.041 83.7915 104.908 83.4466 104.778C82.426 104.395 81.3712 104.002 80.1671 103.978C80.1227 103.978 80.0783 103.978 80.034 103.978C76.7827 103.978 73.7815 106.184 72.8981 109.224C72.7528 109.722 72.8355 110.212 73.13 110.605C73.4507 111.033 74.0033 111.299 74.5741 111.299C75.3406 111.299 75.9477 110.847 76.1574 110.121C76.6274 108.504 78.2913 107.285 80.0279 107.285C80.161 107.285 80.2941 107.294 80.4252 107.308C81.115 107.382 81.7786 107.651 82.4825 107.933C83.0109 108.147 83.5595 108.367 84.1384 108.508C84.6406 108.631 85.1448 108.693 85.635 108.693C86.591 108.693 87.5067 108.461 88.3578 108.003C89.0537 107.628 89.7071 107.041 90.3405 106.475C91.3126 105.601 92.3171 104.7 93.3517 104.7C93.6906 104.7 94.0254 104.791 94.3763 104.98C94.5942 105.097 94.816 105.224 95.0318 105.347C96.002 105.902 97.0024 106.477 98.269 106.523C98.3134 106.523 98.3578 106.525 98.4021 106.525C99.8059 106.525 100.996 105.716 101.976 104.926C102.184 104.756 102.367 104.579 102.543 104.407C102.841 104.115 103.1 103.863 103.428 103.707C103.834 103.516 104.312 103.413 104.81 103.413C104.883 103.413 104.957 103.415 105.032 103.419C106.183 103.488 107.293 104.359 107.67 105.488C107.906 106.192 108.523 106.63 109.281 106.63C109.864 106.63 110.419 106.36 110.732 105.928C111.016 105.533 111.083 105.041 110.917 104.546C110.032 101.9 107.535 100.123 104.701 100.123V100.125Z" fill="#291510"/>
<path d="M89.9181 113.863C89.6115 113.863 88.6797 113.863 88.6797 113.211C88.6797 112.481 89.3533 111.503 92.5623 110.987C92.9052 110.932 93.2662 110.904 93.6353 110.904C95.3093 110.904 97.3969 111.555 97.4473 112.316C97.4876 112.925 96.7071 112.998 95.63 113.094C95.0653 113.145 94.4259 113.203 93.7583 113.332C92.3323 113.609 90.8822 113.863 89.9221 113.863H89.9181Z" fill="#291510"/>
<path d="M93.6331 111.204C95.4564 111.204 97.1143 111.908 97.1426 112.334C97.1769 112.84 95.5109 112.685 93.6977 113.034C92.4895 113.268 90.9083 113.558 89.9179 113.558C89.3532 113.558 88.9821 113.463 88.9821 113.209C88.9821 112.509 89.8736 111.723 92.6085 111.283C92.9494 111.229 93.2943 111.204 93.6331 111.204ZM93.6331 110.599C93.2479 110.599 92.8707 110.63 92.5117 110.686C89.7667 111.128 88.375 111.977 88.375 113.209C88.375 113.645 88.6432 114.163 89.9159 114.163C90.9002 114.163 92.3685 113.905 93.8086 113.629C94.4621 113.502 95.0934 113.445 95.6501 113.395C96.1301 113.35 96.5456 113.314 96.8602 113.239C97.1406 113.173 97.786 112.949 97.7416 112.296C97.7093 111.793 97.2233 111.382 96.2592 111.041C95.4605 110.757 94.5266 110.601 93.6291 110.601L93.6331 110.599Z" fill="#291510"/>
<path d="M58.413 103.742C55.3654 103.742 52.5578 102.54 50.2928 100.265C47.9007 97.8604 46.2529 94.351 45.5268 90.1154C45.3896 89.3167 45.2868 88.4857 45.2222 87.6487L45.1416 86.614L45.7648 87.443C46.8156 88.8367 48.4735 89.6374 50.311 89.6374C50.4017 89.6374 50.4945 89.6374 50.5853 89.6314C53.6691 89.4962 55.7466 87.2332 55.7526 83.9981C55.7526 82.9977 55.5106 81.7855 55.079 80.6238C53.2395 81.6564 51.3981 82.4229 49.599 82.9089C48.3001 83.2599 46.7753 83.4374 45.0669 83.4374C43.6006 83.4374 42.0274 83.2962 40.7547 83.0501C38.6813 82.6488 38.6612 82.2595 38.6511 82.0719C38.6249 81.5878 39.3469 81.5072 39.6918 81.4688C39.8209 81.4628 50.6942 80.8981 55.6256 76.011C60.6921 70.9909 61.9587 68.9417 63.0902 66.7836C63.6408 65.7307 64.3326 65.5734 64.6957 65.5734C65.1314 65.5734 65.565 65.7852 65.9159 66.1684C66.4585 66.7614 66.7308 67.665 66.6481 68.5827C66.6299 68.7824 66.6178 68.9659 66.6057 69.1394C66.521 70.3979 66.4686 71.1744 64.6755 73.0562C66.9224 75.9404 68.54 79.7444 69.2358 83.8024C70.2584 89.7625 69.2217 95.6257 66.4605 99.4841C64.8127 101.785 62.6687 103.207 60.2585 103.593C59.6433 103.691 59.0221 103.742 58.413 103.742Z" fill="#291510"/>
<path d="M64.6981 65.876C65.6259 65.876 66.4811 67.1002 66.3479 68.5565C66.1987 70.1982 66.4387 70.8235 64.2745 73.0381C66.5012 75.8134 68.2035 79.5709 68.9377 83.8549C70.6037 93.5543 66.6969 102.257 60.2124 103.296C59.6094 103.393 59.0103 103.441 58.4154 103.441C52.6086 103.441 47.3384 98.8628 45.8277 90.067C45.6865 89.2441 45.5877 88.4313 45.5252 87.6265C46.5881 89.0384 48.3267 89.9399 50.3133 89.9399C50.4081 89.9399 50.505 89.9379 50.6018 89.9339C54.0184 89.7846 56.0535 87.2473 56.0596 83.9981C56.0616 82.8605 55.7671 81.487 55.2387 80.1881C53.4477 81.2208 51.5417 82.0739 49.5267 82.6165C48.1351 82.9916 46.5679 83.1328 45.0713 83.1328C40.9165 83.1328 37.3304 82.0336 39.7305 81.7694C39.7305 81.7694 50.7712 81.253 55.8438 76.2268C60.9163 71.1986 62.2031 69.1393 63.3629 66.9248C63.7501 66.1845 64.2342 65.878 64.7001 65.878M64.6981 65.2709C64.2665 65.2709 63.4496 65.4484 62.8244 66.6424C61.705 68.7763 60.4504 70.8073 55.4142 75.7952C50.5675 80.5975 39.8072 81.1582 39.6982 81.1643H39.6801L39.6619 81.1663C39.2928 81.2066 38.3086 81.3155 38.3509 82.086C38.3772 82.5741 38.7866 82.9735 40.7007 83.3446C41.9915 83.5947 43.5849 83.7379 45.0693 83.7379C46.8059 83.7379 48.3569 83.5564 49.682 83.1994C51.4005 82.7355 53.1592 82.0174 54.916 81.0594C55.2609 82.082 55.4545 83.1227 55.4525 83.996C55.4505 85.4785 55.0007 86.7693 54.1556 87.7253C53.2863 88.7096 52.0479 89.2622 50.5755 89.3268C50.4868 89.3308 50.4001 89.3328 50.3133 89.3328C48.5707 89.3328 47.0015 88.5765 46.0092 87.2594L44.7607 85.6035L44.9221 87.6709C44.9887 88.52 45.0915 89.3591 45.2307 90.1658C45.9689 94.4639 47.6449 98.0278 50.0814 100.476C52.4029 102.81 55.2851 104.044 58.4154 104.044C59.0406 104.044 59.6779 103.994 60.3092 103.893C62.8022 103.494 65.0147 102.031 66.709 99.6615C69.5165 95.7386 70.5734 89.7907 69.5367 83.752C68.8489 79.7423 67.2697 75.9747 65.0753 73.0784C66.6908 71.3378 66.8219 70.5109 66.9107 69.1615C66.9228 68.9861 66.9349 68.8066 66.953 68.6109C67.0438 67.6085 66.7412 66.6202 66.1442 65.9647C65.7348 65.5169 65.2225 65.2709 64.7021 65.2709H64.6981Z" fill="#291510"/>
<path d="M116.371 98.288C113.107 98.288 110.023 96.2933 107.69 92.6708C105.383 89.0888 104.072 84.3208 104.001 79.2462C103.989 78.389 104.015 77.5035 104.08 76.612L104.158 75.5249L104.65 76.4971C105.51 78.1933 107.165 79.3329 109.078 79.5406C109.291 79.5648 109.511 79.5769 109.725 79.5769C112.706 79.5769 115.294 77.3785 115.802 74.4398C113.406 73.4535 111.615 72.2051 109.481 70.0449C106.248 66.7694 105.77 66.1623 105.568 64.093C105.485 63.2398 105.77 62.7295 106.024 62.4492C106.367 62.072 106.871 61.8643 107.442 61.8643C108.089 61.8643 108.704 62.1386 109.051 62.5783C109.4 63.024 109.713 63.5161 110.044 64.0365C111.238 65.9183 112.724 68.2579 117.476 71.128C122.224 73.9961 128.313 74.0284 128.571 74.0284H128.605C129.116 74.0828 129.797 74.2119 129.842 74.7161C129.89 75.2688 129.033 75.6722 128.214 75.9303C128.329 76.9307 128.394 77.9372 128.408 78.9235C128.48 84.0283 127.294 88.8488 125.068 92.4974C122.815 96.1884 119.763 98.2456 116.478 98.29H116.373L116.371 98.288Z" fill="#291510"/>
<path d="M107.442 62.1648C107.976 62.1648 108.515 62.3826 108.813 62.7618C110.368 64.7404 111.159 67.6629 117.32 71.3842C122.167 74.3107 128.42 74.3289 128.571 74.3289H128.573C130.231 74.5023 129.598 75.2244 127.881 75.7105C128.008 76.7552 128.087 77.8282 128.103 78.9255C128.252 89.3651 123.045 97.8967 116.471 97.9834C116.437 97.9834 116.405 97.9834 116.37 97.9834C109.844 97.9834 104.45 89.6233 104.303 79.2401C104.291 78.3547 104.319 77.4854 104.382 76.6322C105.255 78.3567 106.949 79.6112 109.045 79.8411C109.273 79.8653 109.501 79.8774 109.727 79.8774C112.861 79.8774 115.652 77.5217 116.124 74.341C116.128 74.3087 116.13 74.2784 116.135 74.2462C113.73 73.2881 111.897 72.0578 109.696 69.8291C106.421 66.5113 106.058 65.9869 105.87 64.0607C105.739 62.7174 106.588 62.1628 107.442 62.1628M107.442 61.5597C106.784 61.5597 106.201 61.8037 105.8 62.2454C105.505 62.5702 105.175 63.1591 105.267 64.1212C105.477 66.2753 106.014 66.961 109.265 70.2567C111.332 72.3523 113.158 73.6431 115.457 74.6233C114.88 77.2998 112.478 79.2744 109.725 79.2744C109.521 79.2744 109.313 79.2623 109.11 79.2401C107.3 79.0424 105.733 77.9654 104.92 76.3599L103.934 74.4136L103.777 76.5878C103.712 77.4874 103.684 78.3829 103.696 79.2482C103.769 84.3812 105.096 89.2057 107.433 92.8342C109.824 96.5454 112.998 98.5885 116.368 98.5885C116.405 98.5885 116.441 98.5885 116.477 98.5885C119.872 98.5441 123.012 96.4344 125.322 92.6507C127.577 88.9556 128.779 84.0767 128.706 78.9154C128.694 77.9997 128.637 77.0679 128.539 76.1381C129.666 75.7488 130.19 75.2708 130.14 74.6879C130.069 73.8771 128.988 73.7641 128.633 73.7278L128.601 73.7238H128.569C128.313 73.7238 122.306 73.6915 117.627 70.8658C112.936 68.032 111.471 65.7246 110.293 63.8711C109.959 63.3427 109.642 62.8445 109.283 62.3886C108.882 61.8763 108.174 61.5597 107.435 61.5597H107.442Z" fill="#291510"/>
<path d="M42.4976 69.1937C44.1112 65.8577 47.0357 63.5604 50.3213 63.0502C51.0414 62.9392 51.6868 62.8807 52.2374 62.8807C53.1773 62.8807 53.5484 63.0481 53.5887 63.0663L54.1091 63.3204L42.0781 70.059L42.4956 69.1937H42.4976Z" fill="#291510"/>
<path d="M52.2397 63.1833C53.1372 63.1833 53.4579 63.3386 53.4579 63.3386L42.7702 69.3248C44.2123 66.3438 46.9251 63.8831 50.368 63.3487C51.1667 63.2256 51.7778 63.1833 52.2377 63.1833M52.2397 62.5782C51.6729 62.5782 51.0114 62.6367 50.2772 62.7496C46.8928 63.276 43.8836 65.6359 42.2277 69.0606L41.3906 70.7911L43.0687 69.8512L53.7564 63.865L54.7649 63.3002L53.7242 62.794C53.6193 62.7436 53.2038 62.5762 52.2417 62.5762L52.2397 62.5782Z" fill="#291510"/>
<path d="M55.0539 106.376C54.9167 107.05 54.7816 107.725 54.6444 108.399C54.4669 109.28 55.8667 109.653 56.0442 108.768C56.1813 108.094 56.3165 107.419 56.4536 106.745C56.6311 105.864 55.2314 105.49 55.0539 106.376Z" fill="#8E5D4F"/>
<path d="M58.7913 106.166C58.9325 106.785 59.0737 107.405 59.2149 108.024C59.4166 108.903 60.8143 108.528 60.6126 107.647L60.1891 105.789C59.9874 104.91 58.5896 105.285 58.7913 106.166Z" fill="#8E5D4F"/>
<path d="M118.964 99.7685C119.106 100.146 119.247 100.523 119.388 100.9C119.517 101.243 119.89 101.511 120.281 101.386C120.632 101.275 120.923 100.892 120.786 100.523C120.649 100.154 120.503 99.7684 120.362 99.3913C120.233 99.0484 119.86 98.7802 119.469 98.9052C119.118 99.0161 118.827 99.3994 118.964 99.7685Z" fill="#8E5D4F"/>
<path d="M122.312 98.9515C122.639 99.4013 123.058 99.7805 123.581 100.008C123.926 100.16 124.377 100.113 124.573 99.7543C124.74 99.4457 124.68 98.9576 124.309 98.7962C124.222 98.7579 124.137 98.7176 124.057 98.6712C124.01 98.6449 123.968 98.6167 123.924 98.5905C123.811 98.5239 123.952 98.6228 123.895 98.5703C123.827 98.5078 123.754 98.4493 123.688 98.3827C123.659 98.3525 123.631 98.3222 123.603 98.292C123.468 98.1447 123.68 98.4009 123.565 98.2395C123.347 97.941 122.917 97.7736 122.57 97.9915C122.262 98.1851 122.08 98.6288 122.312 98.9515Z" fill="#8E5D4F"/>
<defs>
<linearGradient id="paint0_linear_7352_6129" x1="85.5557" y1="113.807" x2="71.4379" y2="25.3771" gradientUnits="userSpaceOnUse">
<stop offset="0.51" stop-color="#E0CCB3"/>
<stop offset="0.96" stop-color="#A4937F"/>
</linearGradient>
</defs>
</svg>
