<svg width="24" height="24" viewBox="0 0 24 24" fill="none" xmlns="http://www.w3.org/2000/svg">
    <g clip-path="url(#clip0_6013_7980)">
        <path fill-rule="evenodd" clip-rule="evenodd" d="M19.5147 8.5952C18.727 6.85665 17.3608 5.44502 15.649 4.60083C13.9371 3.75664 11.9855 3.53213 10.1267 3.96555C8.26789 4.39896 6.61685 5.46349 5.45492 6.97775C4.29299 8.49201 3.69206 10.3623 3.75451 12.27C3.81696 14.1776 4.53893 16.0046 5.79741 17.4396C7.05589 18.8747 8.77301 19.8289 10.6562 20.1398C12.5394 20.4508 14.4721 20.0991 16.1251 19.1447L16.8751 20.4438C14.9216 21.5716 12.6374 21.9873 10.4119 21.6198C8.18627 21.2524 6.15695 20.1246 4.66965 18.4287C3.18236 16.7327 2.32912 14.5735 2.25531 12.319C2.1815 10.0645 2.8917 7.85419 4.26489 6.06461C5.63808 4.27503 7.58931 3.01695 9.78609 2.50473C11.9829 1.99251 14.2893 2.25785 16.3124 3.25552C18.3355 4.2532 19.9501 5.92149 20.881 7.97614C21.812 10.0308 22.0017 12.3447 21.4179 14.5235L19.969 14.1353C20.463 12.2916 20.3024 10.3337 19.5147 8.5952Z" fill="#A5A5A5"/>
        <animateTransform
            attributeType="xml"
            attributeName="transform"
            type="rotate"
            from="0 12 12"
            to="360 12 12"
            dur="2s"
            repeatCount="indefinite"/>
    </g>
    <defs>
        <clipPath id="clip0_6013_7980">
            <rect width="24" height="24" fill="white"/>
        </clipPath>
    </defs>
</svg>
