<svg width="12" height="12" viewBox="0 0 12 12" fill="none" xmlns="http://www.w3.org/2000/svg">
<path fill-rule="evenodd" clip-rule="evenodd" d="M5.99896 1.49939C4.96326 1.49939 4.12366 2.33899 4.12366 3.37469V5.25H7.87427V3.37469C7.87427 2.33899 7.03467 1.49939 5.99896 1.49939ZM3.37354 3.37469V5.25H2.99847C2.37705 5.25 1.87329 5.75376 1.87329 6.37518V10.1258C1.87329 10.7472 2.37705 11.251 2.99847 11.251H8.99945C9.62087 11.251 10.1246 10.7472 10.1246 10.1258V6.37518C10.1246 5.75376 9.62087 5.25 8.99945 5.25H8.62439V3.37469C8.62439 1.92471 7.44895 0.749268 5.99896 0.749268C4.54898 0.749268 3.37354 1.92471 3.37354 3.37469ZM2.99847 6.00012C2.79133 6.00012 2.62341 6.16804 2.62341 6.37518V10.1258C2.62341 10.3329 2.79133 10.5009 2.99847 10.5009H8.99945C9.20659 10.5009 9.37451 10.3329 9.37451 10.1258V6.37518C9.37451 6.16804 9.20659 6.00012 8.99945 6.00012H2.99847ZM5.99896 9.00061C6.41324 9.00061 6.74908 8.66477 6.74908 8.25049C6.74908 7.83621 6.41324 7.50037 5.99896 7.50037C5.58468 7.50037 5.24884 7.83621 5.24884 8.25049C5.24884 8.66477 5.58468 9.00061 5.99896 9.00061Z" fill="black"/>
</svg>
