<svg fill="none" height="23" viewBox="0 0 81 23" width="81" xmlns="http://www.w3.org/2000/svg" xmlns:xlink="http://www.w3.org/1999/xlink"><filter id="a" color-interpolation-filters="sRGB" filterUnits="userSpaceOnUse" height="961" width="1160" x="-346" y="-669"><feFlood flood-opacity="0" result="BackgroundImageFix"/><feGaussianBlur in="BackgroundImageFix" stdDeviation="50"/><feComposite in2="SourceAlpha" operator="in" result="effect1_backgroundBlur_674_3520"/><feBlend in="SourceGraphic" in2="effect1_backgroundBlur_674_3520" mode="normal" result="shape"/></filter><linearGradient id="b" gradientUnits="userSpaceOnUse" x1="-246" x2="811.326" y1="-569" y2="16.1329"><stop offset="0" stop-color="#2a2a2a"/><stop offset="1" stop-color="#1b1b1b" stop-opacity=".6"/></linearGradient><mask id="c" fill="#fff"><path clip-rule="evenodd" d="m542.531-189.177c3.767 0 6.823-3.057 6.823-6.823h10.917v262h-10.917c0-3.7662-3.056-6.8229-6.823-6.8229-3.766 0-6.823 3.0567-6.823 6.8229h-10.916c0-3.7662-3.057-6.8229-6.823-6.8229s-6.823 3.0567-6.823 6.8229h-10.917c0-3.7662-3.056-6.8229-6.823-6.8229-3.766 0-6.823 3.0567-6.823 6.8229h-10.916c0-3.7662-3.057-6.8229-6.823-6.8229s-6.823 3.0567-6.823 6.8229h-10.917c0-3.7662-3.057-6.8229-6.823-6.8229s-6.823 3.0567-6.823 6.8229h-10.916c0-3.7662-3.057-6.8229-6.823-6.8229s-6.823 3.0567-6.823 6.8229h-10.917c0-3.7662-3.056-6.8229-6.823-6.8229-3.766 0-6.823 3.0567-6.823 6.8229h-10.916c0-3.7662-3.057-6.8229-6.823-6.8229s-6.823 3.0567-6.823 6.8229h-10.917c0-3.7662-3.056-6.8229-6.823-6.8229-3.766 0-6.823 3.0567-6.823 6.8229h-10.916c0-3.7662-3.057-6.8229-6.823-6.8229s-6.823 3.0567-6.823 6.8229h-10.917c0-3.7662-3.056-6.8229-6.823-6.8229-3.766 0-6.823 3.0567-6.823 6.8229h-10.916c0-3.7662-3.057-6.8229-6.823-6.8229s-6.823 3.0567-6.823 6.8229h-10.917c0-3.7662-3.056-6.8229-6.823-6.8229-3.766 0-6.823 3.0567-6.823 6.8229h-10.916c0-3.7662-3.057-6.8229-6.823-6.8229s-6.823 3.0567-6.823 6.8229h-10.917c0-3.7662-3.056-6.8229-6.823-6.8229-3.766 0-6.823 3.0567-6.823 6.8229h-10.916c0-3.7662-3.057-6.8229-6.823-6.8229s-6.823 3.0567-6.823 6.8229h-10.917c0-3.7662-3.056-6.8229-6.823-6.8229-3.766 0-6.823 3.0567-6.823 6.8229h-10.916c0-3.7662-3.057-6.8229-6.823-6.8229-3.767 0-6.823 3.0567-6.823 6.8229h-10.917c0-3.7662-3.056-6.8229-6.823-6.8229-3.766 0-6.8227 3.0567-6.8227 6.8229h-10.9166c0-3.7662-3.0567-6.8229-6.8229-6.8229-3.7663 0-6.823 3.0567-6.823 6.8229h-10.9166c0-3.7662-3.0567-6.8229-6.823-6.8229-3.7662 0-6.8229 3.0567-6.8229 6.8229h-10.9166c0-3.7662-3.0567-6.8229-6.8229-6.8229-3.7663 0-6.823 3.0567-6.823 6.8229h-10.91663c0-3.7662-3.05667-6.8229-6.82292-6.8229s-6.82291 3.0567-6.82291 6.8229h-10.91664c0-3.7662-3.0567-6.8229-6.8229-6.8229-3.7663 0-6.823 3.0567-6.823 6.8229h-10.9166c0-3.7662-3.0567-6.8229-6.823-6.8229-3.7662 0-6.8229 3.0567-6.8229 6.8229h-10.9166c0-3.7662-3.0567-6.8229-6.8229-6.8229-3.7663 0-6.823 3.0567-6.823 6.8229h-13.6458v-262h13.6458c0 3.766 3.0567 6.823 6.823 6.823 3.7662 0 6.8229-3.057 6.8229-6.823h10.9166c0 3.766 3.0567 6.823 6.8229 6.823 3.7663 0 6.823-3.057 6.823-6.823h10.9166c0 3.766 3.0567 6.823 6.823 6.823 3.7662 0 6.8229-3.057 6.8229-6.823h10.91664c0 3.766 3.05666 6.823 6.82291 6.823s6.82292-3.057 6.82292-6.823h10.91663c0 3.766 3.0567 6.823 6.823 6.823 3.7662 0 6.8229-3.057 6.8229-6.823h10.9166c0 3.766 3.0567 6.823 6.8229 6.823 3.7663 0 6.823-3.057 6.823-6.823h10.9166c0 3.766 3.0567 6.823 6.823 6.823 3.7662 0 6.8229-3.057 6.8229-6.823h10.9166c0 3.766 3.0567 6.823 6.8227 6.823 3.767 0 6.823-3.057 6.823-6.823h10.917c0 3.766 3.056 6.823 6.823 6.823 3.766 0 6.823-3.057 6.823-6.823h10.916c0 3.766 3.057 6.823 6.823 6.823 3.767 0 6.823-3.057 6.823-6.823h10.917c0 3.766 3.057 6.823 6.823 6.823s6.823-3.057 6.823-6.823h10.916c0 3.766 3.057 6.823 6.823 6.823 3.767 0 6.823-3.057 6.823-6.823h10.917c0 3.766 3.057 6.823 6.823 6.823s6.823-3.057 6.823-6.823h10.916c0 3.766 3.057 6.823 6.823 6.823 3.767 0 6.823-3.057 6.823-6.823h10.917c0 3.766 3.057 6.823 6.823 6.823s6.823-3.057 6.823-6.823h10.916c0 3.766 3.057 6.823 6.823 6.823 3.767 0 6.823-3.057 6.823-6.823h10.917c0 3.766 3.057 6.823 6.823 6.823s6.823-3.057 6.823-6.823h10.916c0 3.766 3.057 6.823 6.823 6.823 3.767 0 6.823-3.057 6.823-6.823h10.917c0 3.766 3.057 6.823 6.823 6.823s6.823-3.057 6.823-6.823h10.916c0 3.766 3.057 6.823 6.823 6.823 3.767 0 6.823-3.057 6.823-6.823h10.917c0 3.766 3.057 6.823 6.823 6.823s6.823-3.057 6.823-6.823h10.916c0 3.766 3.057 6.823 6.823 6.823s6.823-3.057 6.823-6.823h10.917c0 3.766 3.057 6.823 6.823 6.823s6.823-3.057 6.823-6.823h10.916c0 3.766 3.057 6.823 6.823 6.823 3.767 0 6.823-3.057 6.823-6.823h10.917c0 3.766 3.057 6.823 6.823 6.823s6.823-3.057 6.823-6.823h10.916c0 3.766 3.057 6.823 6.823 6.823zm-364.531 17.177c0 2.209-1.791 4-4 4s-4-1.791-4-4 1.791-4 4-4 4 1.791 4 4zm0 18c0 2.209-1.791 4-4 4s-4-1.791-4-4 1.791-4 4-4 4 1.791 4 4zm-4 22c2.209 0 4-1.791 4-4s-1.791-4-4-4-4 1.791-4 4 1.791 4 4 4zm4 14c0 2.209-1.791 4-4 4s-4-1.791-4-4 1.791-4 4-4 4 1.791 4 4zm-4 22c2.209 0 4-1.7909 4-4 0-2.209-1.791-4-4-4s-4 1.791-4 4c0 2.2091 1.791 4 4 4zm4 14c0 2.2091-1.791 4-4 4s-4-1.7909-4-4 1.791-4 4-4 4 1.7909 4 4zm-4 22c2.209 0 4-1.7909 4-4s-1.791-4-4-4-4 1.7909-4 4 1.791 4 4 4zm4 14c0 2.2091-1.791 4-4 4s-4-1.7909-4-4 1.791-4 4-4 4 1.7909 4 4zm-4 22c2.209 0 4-1.7909 4-4s-1.791-4-4-4-4 1.7909-4 4 1.791 4 4 4zm4 14c0 2.20914-1.791 4-4 4s-4-1.79086-4-4c0-2.2091 1.791-4 4-4s4 1.7909 4 4zm-4 22c2.209 0 4-1.7909 4-4 0-2.20914-1.791-4-4-4s-4 1.79086-4 4c0 2.2091 1.791 4 4 4zm4 14c0 2.2091-1.791 4-4 4s-4-1.7909-4-4 1.791-4 4-4 4 1.7909 4 4zm-4 22c2.209 0 4-1.7909 4-4s-1.791-4-4-4-4 1.7909-4 4 1.791 4 4 4z" fill="#fff" fill-rule="evenodd"/></mask><path d="m0 0h81v23h-81z" fill="#f5f5f5"/><path d="m-522-679h1512v982h-1512z" fill="#101010"/><g filter="url(#a)"><path d="m-246-549c0-11.046 8.954-20 20-20h920c11.046 0 20 8.954 20 20v721c0 11.046-8.954 20-20 20h-920c-11.046 0-20-8.954-20-20z" fill="url(#b)"/></g><path clip-rule="evenodd" d="m542.531-189.177c3.767 0 6.823-3.057 6.823-6.823h10.917v262h-10.917c0-3.7662-3.056-6.8229-6.823-6.8229-3.766 0-6.823 3.0567-6.823 6.8229h-10.916c0-3.7662-3.057-6.8229-6.823-6.8229s-6.823 3.0567-6.823 6.8229h-10.917c0-3.7662-3.056-6.8229-6.823-6.8229-3.766 0-6.823 3.0567-6.823 6.8229h-10.916c0-3.7662-3.057-6.8229-6.823-6.8229s-6.823 3.0567-6.823 6.8229h-10.917c0-3.7662-3.057-6.8229-6.823-6.8229s-6.823 3.0567-6.823 6.8229h-10.916c0-3.7662-3.057-6.8229-6.823-6.8229s-6.823 3.0567-6.823 6.8229h-10.917c0-3.7662-3.056-6.8229-6.823-6.8229-3.766 0-6.823 3.0567-6.823 6.8229h-10.916c0-3.7662-3.057-6.8229-6.823-6.8229s-6.823 3.0567-6.823 6.8229h-10.917c0-3.7662-3.056-6.8229-6.823-6.8229-3.766 0-6.823 3.0567-6.823 6.8229h-10.916c0-3.7662-3.057-6.8229-6.823-6.8229s-6.823 3.0567-6.823 6.8229h-10.917c0-3.7662-3.056-6.8229-6.823-6.8229-3.766 0-6.823 3.0567-6.823 6.8229h-10.916c0-3.7662-3.057-6.8229-6.823-6.8229s-6.823 3.0567-6.823 6.8229h-10.917c0-3.7662-3.056-6.8229-6.823-6.8229-3.766 0-6.823 3.0567-6.823 6.8229h-10.916c0-3.7662-3.057-6.8229-6.823-6.8229s-6.823 3.0567-6.823 6.8229h-10.917c0-3.7662-3.056-6.8229-6.823-6.8229-3.766 0-6.823 3.0567-6.823 6.8229h-10.916c0-3.7662-3.057-6.8229-6.823-6.8229s-6.823 3.0567-6.823 6.8229h-10.917c0-3.7662-3.056-6.8229-6.823-6.8229-3.766 0-6.823 3.0567-6.823 6.8229h-10.916c0-3.7662-3.057-6.8229-6.823-6.8229-3.767 0-6.823 3.0567-6.823 6.8229h-10.917c0-3.7662-3.056-6.8229-6.823-6.8229-3.766 0-6.8227 3.0567-6.8227 6.8229h-10.9166c0-3.7662-3.0567-6.8229-6.8229-6.8229-3.7663 0-6.823 3.0567-6.823 6.8229h-10.9166c0-3.7662-3.0567-6.8229-6.823-6.8229-3.7662 0-6.8229 3.0567-6.8229 6.8229h-10.9166c0-3.7662-3.0567-6.8229-6.8229-6.8229-3.7663 0-6.823 3.0567-6.823 6.8229h-10.91663c0-3.7662-3.05667-6.8229-6.82292-6.8229s-6.82291 3.0567-6.82291 6.8229h-10.91664c0-3.7662-3.0567-6.8229-6.8229-6.8229-3.7663 0-6.823 3.0567-6.823 6.8229h-10.9166c0-3.7662-3.0567-6.8229-6.823-6.8229-3.7662 0-6.8229 3.0567-6.8229 6.8229h-10.9166c0-3.7662-3.0567-6.8229-6.8229-6.8229-3.7663 0-6.823 3.0567-6.823 6.8229h-13.6458v-262h13.6458c0 3.766 3.0567 6.823 6.823 6.823 3.7662 0 6.8229-3.057 6.8229-6.823h10.9166c0 3.766 3.0567 6.823 6.8229 6.823 3.7663 0 6.823-3.057 6.823-6.823h10.9166c0 3.766 3.0567 6.823 6.823 6.823 3.7662 0 6.8229-3.057 6.8229-6.823h10.91664c0 3.766 3.05666 6.823 6.82291 6.823s6.82292-3.057 6.82292-6.823h10.91663c0 3.766 3.0567 6.823 6.823 6.823 3.7662 0 6.8229-3.057 6.8229-6.823h10.9166c0 3.766 3.0567 6.823 6.8229 6.823 3.7663 0 6.823-3.057 6.823-6.823h10.9166c0 3.766 3.0567 6.823 6.823 6.823 3.7662 0 6.8229-3.057 6.8229-6.823h10.9166c0 3.766 3.0567 6.823 6.8227 6.823 3.767 0 6.823-3.057 6.823-6.823h10.917c0 3.766 3.056 6.823 6.823 6.823 3.766 0 6.823-3.057 6.823-6.823h10.916c0 3.766 3.057 6.823 6.823 6.823 3.767 0 6.823-3.057 6.823-6.823h10.917c0 3.766 3.057 6.823 6.823 6.823s6.823-3.057 6.823-6.823h10.916c0 3.766 3.057 6.823 6.823 6.823 3.767 0 6.823-3.057 6.823-6.823h10.917c0 3.766 3.057 6.823 6.823 6.823s6.823-3.057 6.823-6.823h10.916c0 3.766 3.057 6.823 6.823 6.823 3.767 0 6.823-3.057 6.823-6.823h10.917c0 3.766 3.057 6.823 6.823 6.823s6.823-3.057 6.823-6.823h10.916c0 3.766 3.057 6.823 6.823 6.823 3.767 0 6.823-3.057 6.823-6.823h10.917c0 3.766 3.057 6.823 6.823 6.823s6.823-3.057 6.823-6.823h10.916c0 3.766 3.057 6.823 6.823 6.823 3.767 0 6.823-3.057 6.823-6.823h10.917c0 3.766 3.057 6.823 6.823 6.823s6.823-3.057 6.823-6.823h10.916c0 3.766 3.057 6.823 6.823 6.823 3.767 0 6.823-3.057 6.823-6.823h10.917c0 3.766 3.057 6.823 6.823 6.823s6.823-3.057 6.823-6.823h10.916c0 3.766 3.057 6.823 6.823 6.823s6.823-3.057 6.823-6.823h10.917c0 3.766 3.057 6.823 6.823 6.823s6.823-3.057 6.823-6.823h10.916c0 3.766 3.057 6.823 6.823 6.823 3.767 0 6.823-3.057 6.823-6.823h10.917c0 3.766 3.057 6.823 6.823 6.823s6.823-3.057 6.823-6.823h10.916c0 3.766 3.057 6.823 6.823 6.823zm-364.531 17.177c0 2.209-1.791 4-4 4s-4-1.791-4-4 1.791-4 4-4 4 1.791 4 4zm0 18c0 2.209-1.791 4-4 4s-4-1.791-4-4 1.791-4 4-4 4 1.791 4 4zm-4 22c2.209 0 4-1.791 4-4s-1.791-4-4-4-4 1.791-4 4 1.791 4 4 4zm4 14c0 2.209-1.791 4-4 4s-4-1.791-4-4 1.791-4 4-4 4 1.791 4 4zm-4 22c2.209 0 4-1.7909 4-4 0-2.209-1.791-4-4-4s-4 1.791-4 4c0 2.2091 1.791 4 4 4zm4 14c0 2.2091-1.791 4-4 4s-4-1.7909-4-4 1.791-4 4-4 4 1.7909 4 4zm-4 22c2.209 0 4-1.7909 4-4s-1.791-4-4-4-4 1.7909-4 4 1.791 4 4 4zm4 14c0 2.2091-1.791 4-4 4s-4-1.7909-4-4 1.791-4 4-4 4 1.7909 4 4zm-4 22c2.209 0 4-1.7909 4-4s-1.791-4-4-4-4 1.7909-4 4 1.791 4 4 4zm4 14c0 2.20914-1.791 4-4 4s-4-1.79086-4-4c0-2.2091 1.791-4 4-4s4 1.7909 4 4zm-4 22c2.209 0 4-1.7909 4-4 0-2.20914-1.791-4-4-4s-4 1.79086-4 4c0 2.2091 1.791 4 4 4zm4 14c0 2.2091-1.791 4-4 4s-4-1.7909-4-4 1.791-4 4-4 4 1.7909 4 4zm-4 22c2.209 0 4-1.7909 4-4s-1.791-4-4-4-4 1.7909-4 4 1.791 4 4 4z" fill="#ffe4c0" fill-rule="evenodd"/><path d="m549.354-196v-1h-1v1zm10.917 0h1v-1h-1zm0 262v1h1v-1zm-10.917 0h-1v1h1zm-13.646 0v1h1v-1zm-10.916 0h-1v1h1zm-13.646 0v1h1v-1zm-10.917 0h-1v1h1zm-13.646 0v1h1v-1zm-10.916 0h-1v1h1zm-13.646 0v1h1v-1zm-10.917 0h-1v1h1zm-13.646 0v1h1v-1zm-10.916 0h-1v1h1zm-13.646 0v1h1v-1zm-10.917 0h-1v1h1zm-13.646 0v1h1v-1zm-10.916 0h-1v1h1zm-13.646 0v1h1v-1zm-10.917 0h-1v1h1zm-13.646 0v1h1v-1zm-10.916 0h-1v1h1zm-13.646 0v1h1v-1zm-10.917 0h-1v1h1zm-13.646 0v1h1v-1zm-10.916 0h-1v1h1zm-13.646 0v1h1v-1zm-10.917 0h-1v1h1zm-13.646 0v1h1v-1zm-10.916 0h-1v1h1zm-13.646 0v1h1v-1zm-10.917 0h-1v1h1zm-13.646 0v1h1v-1zm-10.916 0h-1v1h1zm-13.646 0v1h1v-1zm-10.917 0h-1v1h1zm-13.646 0v1h1v-1zm-10.916 0h-1v1h1zm-13.646 0v1h1v-1zm-10.917 0h-1v1h1zm-13.6457 0v1h1v-1zm-10.9166 0h-1v1h1zm-13.6459 0v1h1v-1zm-10.9166 0h-1v1h1zm-13.6459 0v1h1v-1zm-10.9166 0h-1v1h1zm-13.6459 0v1h1v-1zm-10.91663 0h-1v1h1zm-13.64583 0v1h1v-1zm-10.91664 0h-1v1h1zm-13.6459 0v1h1v-1zm-10.9166 0h-1v1h1zm-13.6459 0v1h1v-1zm-10.9166 0h-1v1h1zm-13.6459 0v1h1v-1zm-13.6458 0h-1v1h1zm0-262v-1h-1v1zm13.6458 0h1v-1h-1zm13.6459 0v-1h-1v1zm10.9166 0h1v-1h-1zm13.6459 0v-1h-1v1zm10.9166 0h1v-1h-1zm13.6459 0v-1h-1v1zm10.91664 0h1v-1h-1zm13.64583 0v-1h-1v1zm10.91663 0h1v-1h-1zm13.6459 0v-1h-1v1zm10.9166 0h1v-1h-1zm13.6459 0v-1h-1v1zm10.9166 0h1v-1h-1zm13.6459 0v-1h-1v1zm10.9166 0h1v-1h-1zm13.6457 0v-1h-1v1zm10.917 0h1v-1h-1zm13.646 0v-1h-1v1zm10.916 0h1v-1h-1zm13.646 0v-1h-1v1zm10.917 0h1v-1h-1zm13.646 0v-1h-1v1zm10.916 0h1v-1h-1zm13.646 0v-1h-1v1zm10.917 0h1v-1h-1zm13.646 0v-1h-1v1zm10.916 0h1v-1h-1zm13.646 0v-1h-1v1zm10.917 0h1v-1h-1zm13.646 0v-1h-1v1zm10.916 0h1v-1h-1zm13.646 0v-1h-1v1zm10.917 0h1v-1h-1zm13.646 0v-1h-1v1zm10.916 0h1v-1h-1zm13.646 0v-1h-1v1zm10.917 0h1v-1h-1zm13.646 0v-1h-1v1zm10.916 0h1v-1h-1zm13.646 0v-1h-1v1zm10.917 0h1v-1h-1zm13.646 0v-1h-1v1zm10.916 0h1v-1h-1zm13.646 0v-1h-1v1zm10.917 0h1v-1h-1zm13.646 0v-1h-1v1zm10.916 0h1v-1h-1zm13.646 0v-1h-1v1zm10.917 0h1v-1h-1zm13.646 0v-1h-1v1zm10.916 0h1v-1h-1zm12.646 0c0 3.214-2.609 5.823-5.823 5.823v2c4.319 0 7.823-3.504 7.823-7.823zm11.917-1h-10.917v2h10.917zm1 263v-262h-2v262zm-11.917 1h10.917v-2h-10.917zm-6.823-6.8229c3.214 0 5.823 2.6089 5.823 5.8229h2c0-4.3185-3.504-7.8229-7.823-7.8229zm-5.823 5.8229c0-3.214 2.609-5.8229 5.823-5.8229v-2c-4.318 0-7.823 3.5044-7.823 7.8229zm-11.916 1h10.916v-2h-10.916zm-6.823-6.8229c3.214 0 5.823 2.6089 5.823 5.8229h2c0-4.3185-3.505-7.8229-7.823-7.8229zm-5.823 5.8229c0-3.214 2.609-5.8229 5.823-5.8229v-2c-4.319 0-7.823 3.5044-7.823 7.8229zm-11.917 1h10.917v-2h-10.917zm-6.823-6.8229c3.214 0 5.823 2.6089 5.823 5.8229h2c0-4.3185-3.504-7.8229-7.823-7.8229zm-5.823 5.8229c0-3.214 2.609-5.8229 5.823-5.8229v-2c-4.318 0-7.823 3.5044-7.823 7.8229zm-11.916 1h10.916v-2h-10.916zm-6.823-6.8229c3.214 0 5.823 2.6089 5.823 5.8229h2c0-4.3185-3.505-7.8229-7.823-7.8229zm-5.823 5.8229c0-3.214 2.609-5.8229 5.823-5.8229v-2c-4.319 0-7.823 3.5044-7.823 7.8229zm-11.917 1h10.917v-2h-10.917zm-6.823-6.8229c3.214 0 5.823 2.6089 5.823 5.8229h2c0-4.3185-3.504-7.8229-7.823-7.8229zm-5.823 5.8229c0-3.214 2.609-5.8229 5.823-5.8229v-2c-4.318 0-7.823 3.5044-7.823 7.8229zm-11.916 1h10.916v-2h-10.916zm-6.823-6.8229c3.214 0 5.823 2.6089 5.823 5.8229h2c0-4.3185-3.505-7.8229-7.823-7.8229zm-5.823 5.8229c0-3.214 2.609-5.8229 5.823-5.8229v-2c-4.319 0-7.823 3.5044-7.823 7.8229zm-11.917 1h10.917v-2h-10.917zm-6.823-6.8229c3.214 0 5.823 2.6089 5.823 5.8229h2c0-4.3185-3.504-7.8229-7.823-7.8229zm-5.823 5.8229c0-3.214 2.609-5.8229 5.823-5.8229v-2c-4.318 0-7.823 3.5044-7.823 7.8229zm-11.916 1h10.916v-2h-10.916zm-6.823-6.8229c3.214 0 5.823 2.6089 5.823 5.8229h2c0-4.3185-3.505-7.8229-7.823-7.8229zm-5.823 5.8229c0-3.214 2.609-5.8229 5.823-5.8229v-2c-4.319 0-7.823 3.5044-7.823 7.8229zm-11.917 1h10.917v-2h-10.917zm-6.823-6.8229c3.214 0 5.823 2.6089 5.823 5.8229h2c0-4.3185-3.504-7.8229-7.823-7.8229zm-5.823 5.8229c0-3.214 2.609-5.8229 5.823-5.8229v-2c-4.318 0-7.823 3.5044-7.823 7.8229zm-11.916 1h10.916v-2h-10.916zm-6.823-6.8229c3.214 0 5.823 2.6089 5.823 5.8229h2c0-4.3185-3.505-7.8229-7.823-7.8229zm-5.823 5.8229c0-3.214 2.609-5.8229 5.823-5.8229v-2c-4.319 0-7.823 3.5044-7.823 7.8229zm-11.917 1h10.917v-2h-10.917zm-6.823-6.8229c3.214 0 5.823 2.6089 5.823 5.8229h2c0-4.3185-3.504-7.8229-7.823-7.8229zm-5.823 5.8229c0-3.214 2.609-5.8229 5.823-5.8229v-2c-4.318 0-7.823 3.5044-7.823 7.8229zm-11.916 1h10.916v-2h-10.916zm-6.823-6.8229c3.214 0 5.823 2.6089 5.823 5.8229h2c0-4.3185-3.505-7.8229-7.823-7.8229zm-5.823 5.8229c0-3.214 2.609-5.8229 5.823-5.8229v-2c-4.319 0-7.823 3.5044-7.823 7.8229zm-11.917 1h10.917v-2h-10.917zm-6.823-6.8229c3.214 0 5.823 2.6089 5.823 5.8229h2c0-4.3185-3.504-7.8229-7.823-7.8229zm-5.823 5.8229c0-3.214 2.609-5.8229 5.823-5.8229v-2c-4.318 0-7.823 3.5044-7.823 7.8229zm-11.916 1h10.916v-2h-10.916zm-6.823-6.8229c3.214 0 5.823 2.6089 5.823 5.8229h2c0-4.3185-3.505-7.8229-7.823-7.8229zm-5.823 5.8229c0-3.214 2.609-5.8229 5.823-5.8229v-2c-4.319 0-7.823 3.5044-7.823 7.8229zm-11.917 1h10.917v-2h-10.917zm-6.823-6.8229c3.214 0 5.823 2.6089 5.823 5.8229h2c0-4.3185-3.504-7.8229-7.823-7.8229zm-5.823 5.8229c0-3.214 2.609-5.8229 5.823-5.8229v-2c-4.318 0-7.823 3.5044-7.823 7.8229zm-11.916 1h10.916v-2h-10.916zm-6.823-6.8229c3.214 0 5.823 2.6089 5.823 5.8229h2c0-4.3185-3.505-7.8229-7.823-7.8229zm-5.823 5.8229c0-3.214 2.609-5.8229 5.823-5.8229v-2c-4.319 0-7.823 3.5044-7.823 7.8229zm-11.917 1h10.917v-2h-10.917zm-6.823-6.8229c3.214 0 5.823 2.6089 5.823 5.8229h2c0-4.3185-3.504-7.8229-7.823-7.8229zm-5.823 5.8229c0-3.214 2.609-5.8229 5.823-5.8229v-2c-4.318 0-7.823 3.5044-7.823 7.8229zm-11.916 1h10.916v-2h-10.916zm-6.823-6.8229c3.214 0 5.823 2.6089 5.823 5.8229h2c0-4.3185-3.505-7.8229-7.823-7.8229zm-5.823 5.8229c0-3.214 2.609-5.8229 5.823-5.8229v-2c-4.319 0-7.823 3.5044-7.823 7.8229zm-11.917 1h10.917v-2h-10.917zm-6.823-6.8229c3.214 0 5.823 2.6089 5.823 5.8229h2c0-4.3185-3.504-7.8229-7.823-7.8229zm-5.8227 5.8229c0-3.214 2.609-5.8229 5.8227-5.8229v-2c-4.3183 0-7.8227 3.5044-7.8227 7.8229zm-11.9166 1h10.9166v-2h-10.9166zm-6.8229-6.8229c3.2139 0 5.8229 2.6089 5.8229 5.8229h2c0-4.3185-3.5044-7.8229-7.8229-7.8229zm-5.823 5.8229c0-3.214 2.609-5.8229 5.823-5.8229v-2c-4.3186 0-7.823 3.5044-7.823 7.8229zm-11.9166 1h10.9166v-2h-10.9166zm-6.823-6.8229c3.214 0 5.823 2.6089 5.823 5.8229h2c0-4.3185-3.5044-7.8229-7.823-7.8229zm-5.8229 5.8229c0-3.214 2.609-5.8229 5.8229-5.8229v-2c-4.3185 0-7.8229 3.5044-7.8229 7.8229zm-11.9166 1h10.9166v-2h-10.9166zm-6.8229-6.8229c3.2139 0 5.8229 2.6089 5.8229 5.8229h2c0-4.3185-3.5044-7.8229-7.8229-7.8229zm-5.823 5.8229c0-3.214 2.609-5.8229 5.823-5.8229v-2c-4.3186 0-7.823 3.5044-7.823 7.8229zm-11.91663 1h10.91663v-2h-10.91663zm-6.82292-6.8229c3.21397 0 5.82292 2.6089 5.82292 5.8229h2c0-4.3185-3.50439-7.8229-7.82292-7.8229zm-5.82291 5.8229c0-3.214 2.60894-5.8229 5.82291-5.8229v-2c-4.31853 0-7.82291 3.5044-7.82291 7.8229zm-11.91664 1h10.91664v-2h-10.91664zm-6.8229-6.8229c3.2139 0 5.8229 2.6089 5.8229 5.8229h2c0-4.3185-3.5044-7.8229-7.8229-7.8229zm-5.823 5.8229c0-3.214 2.609-5.8229 5.823-5.8229v-2c-4.3186 0-7.823 3.5044-7.823 7.8229zm-11.9166 1h10.9166v-2h-10.9166zm-6.823-6.8229c3.214 0 5.823 2.6089 5.823 5.8229h2c0-4.3185-3.5044-7.8229-7.823-7.8229zm-5.8229 5.8229c0-3.214 2.609-5.8229 5.8229-5.8229v-2c-4.3185 0-7.8229 3.5044-7.8229 7.8229zm-11.9166 1h10.9166v-2h-10.9166zm-6.8229-6.8229c3.2139 0 5.8229 2.6089 5.8229 5.8229h2c0-4.3185-3.5044-7.8229-7.8229-7.8229zm-5.823 5.8229c0-3.214 2.609-5.8229 5.823-5.8229v-2c-4.3186 0-7.823 3.5044-7.823 7.8229zm-14.6458 1h13.6458v-2h-13.6458zm-1-263v262h2v-262zm14.6458-1h-13.6458v2h13.6458zm6.823 6.823c-3.214 0-5.823-2.609-5.823-5.823h-2c0 4.319 3.5044 7.823 7.823 7.823zm5.8229-5.823c0 3.214-2.609 5.823-5.8229 5.823v2c4.3185 0 7.8229-3.504 7.8229-7.823zm11.9166-1h-10.9166v2h10.9166zm6.8229 6.823c-3.2139 0-5.8229-2.609-5.8229-5.823h-2c0 4.319 3.5044 7.823 7.8229 7.823zm5.823-5.823c0 3.214-2.609 5.823-5.823 5.823v2c4.3186 0 7.823-3.504 7.823-7.823zm11.9166-1h-10.9166v2h10.9166zm6.823 6.823c-3.214 0-5.823-2.609-5.823-5.823h-2c0 4.319 3.5044 7.823 7.823 7.823zm5.8229-5.823c0 3.214-2.609 5.823-5.8229 5.823v2c4.3185 0 7.8229-3.504 7.8229-7.823zm11.91664-1h-10.91664v2h10.91664zm6.82291 6.823c-3.21397 0-5.82291-2.609-5.82291-5.823h-2c0 4.319 3.50438 7.823 7.82291 7.823zm5.82292-5.823c0 3.214-2.60895 5.823-5.82292 5.823v2c4.31853 0 7.82292-3.504 7.82292-7.823zm11.91663-1h-10.91663v2h10.91663zm6.823 6.823c-3.214 0-5.823-2.609-5.823-5.823h-2c0 4.319 3.5044 7.823 7.823 7.823zm5.8229-5.823c0 3.214-2.609 5.823-5.8229 5.823v2c4.3185 0 7.8229-3.504 7.8229-7.823zm11.9166-1h-10.9166v2h10.9166zm6.8229 6.823c-3.2139 0-5.8229-2.609-5.8229-5.823h-2c0 4.319 3.5044 7.823 7.8229 7.823zm5.823-5.823c0 3.214-2.609 5.823-5.823 5.823v2c4.3186 0 7.823-3.504 7.823-7.823zm11.9166-1h-10.9166v2h10.9166zm6.823 6.823c-3.214 0-5.823-2.609-5.823-5.823h-2c0 4.319 3.5044 7.823 7.823 7.823zm5.8229-5.823c0 3.214-2.609 5.823-5.8229 5.823v2c4.3185 0 7.8229-3.504 7.8229-7.823zm11.9166-1h-10.9166v2h10.9166zm6.8227 6.823c-3.2137 0-5.8227-2.609-5.8227-5.823h-2c0 4.319 3.5044 7.823 7.8227 7.823zm5.823-5.823c0 3.214-2.609 5.823-5.823 5.823v2c4.319 0 7.823-3.504 7.823-7.823zm11.917-1h-10.917v2h10.917zm6.823 6.823c-3.214 0-5.823-2.609-5.823-5.823h-2c0 4.319 3.504 7.823 7.823 7.823zm5.823-5.823c0 3.214-2.609 5.823-5.823 5.823v2c4.318 0 7.823-3.504 7.823-7.823zm11.916-1h-10.916v2h10.916zm6.823 6.823c-3.214 0-5.823-2.609-5.823-5.823h-2c0 4.319 3.505 7.823 7.823 7.823zm5.823-5.823c0 3.214-2.609 5.823-5.823 5.823v2c4.319 0 7.823-3.504 7.823-7.823zm11.917-1h-10.917v2h10.917zm6.823 6.823c-3.214 0-5.823-2.609-5.823-5.823h-2c0 4.319 3.504 7.823 7.823 7.823zm5.823-5.823c0 3.214-2.609 5.823-5.823 5.823v2c4.318 0 7.823-3.504 7.823-7.823zm11.916-1h-10.916v2h10.916zm6.823 6.823c-3.214 0-5.823-2.609-5.823-5.823h-2c0 4.319 3.505 7.823 7.823 7.823zm5.823-5.823c0 3.214-2.609 5.823-5.823 5.823v2c4.319 0 7.823-3.504 7.823-7.823zm11.917-1h-10.917v2h10.917zm6.823 6.823c-3.214 0-5.823-2.609-5.823-5.823h-2c0 4.319 3.504 7.823 7.823 7.823zm5.823-5.823c0 3.214-2.609 5.823-5.823 5.823v2c4.318 0 7.823-3.504 7.823-7.823zm11.916-1h-10.916v2h10.916zm6.823 6.823c-3.214 0-5.823-2.609-5.823-5.823h-2c0 4.319 3.505 7.823 7.823 7.823zm5.823-5.823c0 3.214-2.609 5.823-5.823 5.823v2c4.319 0 7.823-3.504 7.823-7.823zm11.917-1h-10.917v2h10.917zm6.823 6.823c-3.214 0-5.823-2.609-5.823-5.823h-2c0 4.319 3.504 7.823 7.823 7.823zm5.823-5.823c0 3.214-2.609 5.823-5.823 5.823v2c4.318 0 7.823-3.504 7.823-7.823zm11.916-1h-10.916v2h10.916zm6.823 6.823c-3.214 0-5.823-2.609-5.823-5.823h-2c0 4.319 3.505 7.823 7.823 7.823zm5.823-5.823c0 3.214-2.609 5.823-5.823 5.823v2c4.319 0 7.823-3.504 7.823-7.823zm11.917-1h-10.917v2h10.917zm6.823 6.823c-3.214 0-5.823-2.609-5.823-5.823h-2c0 4.319 3.504 7.823 7.823 7.823zm5.823-5.823c0 3.214-2.609 5.823-5.823 5.823v2c4.318 0 7.823-3.504 7.823-7.823zm11.916-1h-10.916v2h10.916zm6.823 6.823c-3.214 0-5.823-2.609-5.823-5.823h-2c0 4.319 3.505 7.823 7.823 7.823zm5.823-5.823c0 3.214-2.609 5.823-5.823 5.823v2c4.319 0 7.823-3.504 7.823-7.823zm11.917-1h-10.917v2h10.917zm6.823 6.823c-3.214 0-5.823-2.609-5.823-5.823h-2c0 4.319 3.504 7.823 7.823 7.823zm5.823-5.823c0 3.214-2.609 5.823-5.823 5.823v2c4.318 0 7.823-3.504 7.823-7.823zm11.916-1h-10.916v2h10.916zm6.823 6.823c-3.214 0-5.823-2.609-5.823-5.823h-2c0 4.319 3.505 7.823 7.823 7.823zm5.823-5.823c0 3.214-2.609 5.823-5.823 5.823v2c4.319 0 7.823-3.504 7.823-7.823zm11.917-1h-10.917v2h10.917zm6.823 6.823c-3.214 0-5.823-2.609-5.823-5.823h-2c0 4.319 3.504 7.823 7.823 7.823zm5.823-5.823c0 3.214-2.609 5.823-5.823 5.823v2c4.318 0 7.823-3.504 7.823-7.823zm11.916-1h-10.916v2h10.916zm6.823 6.823c-3.214 0-5.823-2.609-5.823-5.823h-2c0 4.319 3.505 7.823 7.823 7.823zm5.823-5.823c0 3.214-2.609 5.823-5.823 5.823v2c4.319 0 7.823-3.504 7.823-7.823zm11.917-1h-10.917v2h10.917zm6.823 6.823c-3.214 0-5.823-2.609-5.823-5.823h-2c0 4.319 3.504 7.823 7.823 7.823zm5.823-5.823c0 3.214-2.609 5.823-5.823 5.823v2c4.318 0 7.823-3.504 7.823-7.823zm11.916-1h-10.916v2h10.916zm6.823 6.823c-3.214 0-5.823-2.609-5.823-5.823h-2c0 4.319 3.505 7.823 7.823 7.823zm5.823-5.823c0 3.214-2.609 5.823-5.823 5.823v2c4.319 0 7.823-3.504 7.823-7.823zm11.917-1h-10.917v2h10.917zm6.823 6.823c-3.214 0-5.823-2.609-5.823-5.823h-2c0 4.319 3.504 7.823 7.823 7.823zm5.823-5.823c0 3.214-2.609 5.823-5.823 5.823v2c4.318 0 7.823-3.504 7.823-7.823zm11.916-1h-10.916v2h10.916zm6.823 6.823c-3.214 0-5.823-2.609-5.823-5.823h-2c0 4.319 3.505 7.823 7.823 7.823zm-368.531 23.177c2.761 0 5-2.239 5-5h-2c0 1.657-1.343 3-3 3zm-5-5c0 2.761 2.239 5 5 5v-2c-1.657 0-3-1.343-3-3zm5-5c-2.761 0-5 2.239-5 5h2c0-1.657 1.343-3 3-3zm5 5c0-2.761-2.239-5-5-5v2c1.657 0 3 1.343 3 3zm-5 23c2.761 0 5-2.239 5-5h-2c0 1.657-1.343 3-3 3zm-5-5c0 2.761 2.239 5 5 5v-2c-1.657 0-3-1.343-3-3zm5-5c-2.761 0-5 2.239-5 5h2c0-1.657 1.343-3 3-3zm5 5c0-2.761-2.239-5-5-5v2c1.657 0 3 1.343 3 3zm-2 18c0 1.657-1.343 3-3 3v2c2.761 0 5-2.239 5-5zm-3-3c1.657 0 3 1.343 3 3h2c0-2.761-2.239-5-5-5zm-3 3c0-1.657 1.343-3 3-3v-2c-2.761 0-5 2.239-5 5zm3 3c-1.657 0-3-1.343-3-3h-2c0 2.761 2.239 5 5 5zm0 20c2.761 0 5-2.239 5-5h-2c0 1.657-1.343 3-3 3zm-5-5c0 2.761 2.239 5 5 5v-2c-1.657 0-3-1.343-3-3zm5-5c-2.761 0-5 2.239-5 5h2c0-1.657 1.343-3 3-3zm5 5c0-2.761-2.239-5-5-5v2c1.657 0 3 1.343 3 3zm-2 18c0 1.6569-1.343 3-3 3v2c2.761 0 5-2.2386 5-5zm-3-3c1.657 0 3 1.343 3 3h2c0-2.761-2.239-5-5-5zm-3 3c0-1.657 1.343-3 3-3v-2c-2.761 0-5 2.239-5 5zm3 3c-1.657 0-3-1.3431-3-3h-2c0 2.7614 2.239 5 5 5zm0 20c2.761 0 5-2.2386 5-5h-2c0 1.6569-1.343 3-3 3zm-5-5c0 2.7614 2.239 5 5 5v-2c-1.657 0-3-1.3431-3-3zm5-5c-2.761 0-5 2.2386-5 5h2c0-1.6569 1.343-3 3-3zm5 5c0-2.7614-2.239-5-5-5v2c1.657 0 3 1.3431 3 3zm-2 18c0 1.6568-1.343 3-3 3v2c2.761 0 5-2.2386 5-5zm-3-3c1.657 0 3 1.3432 3 3h2c0-2.7614-2.239-5-5-5zm-3 3c0-1.6568 1.343-3 3-3v-2c-2.761 0-5 2.2386-5 5zm3 3c-1.657 0-3-1.3432-3-3h-2c0 2.7614 2.239 5 5 5zm0 20c2.761 0 5-2.2386 5-5h-2c0 1.6568-1.343 3-3 3zm-5-5c0 2.7614 2.239 5 5 5v-2c-1.657 0-3-1.3432-3-3zm5-5c-2.761 0-5 2.2386-5 5h2c0-1.6568 1.343-3 3-3zm5 5c0-2.7614-2.239-5-5-5v2c1.657 0 3 1.3432 3 3zm-2 18c0 1.6568-1.343 3-3 3v2c2.761 0 5-2.2386 5-5zm-3-3c1.657 0 3 1.3432 3 3h2c0-2.7614-2.239-5-5-5zm-3 3c0-1.6568 1.343-3 3-3v-2c-2.761 0-5 2.2386-5 5zm3 3c-1.657 0-3-1.3432-3-3h-2c0 2.7614 2.239 5 5 5zm0 20c2.761 0 5-2.23857 5-5h-2c0 1.65685-1.343 3-3 3zm-5-5c0 2.76143 2.239 5 5 5v-2c-1.657 0-3-1.34315-3-3zm5-5c-2.761 0-5 2.2386-5 5h2c0-1.6568 1.343-3 3-3zm5 5c0-2.7614-2.239-5-5-5v2c1.657 0 3 1.3432 3 3zm-2 18c0 1.65685-1.343 3-3 3v2c2.761 0 5-2.2386 5-5zm-3-3c1.657 0 3 1.34315 3 3h2c0-2.76143-2.239-5-5-5zm-3 3c0-1.65685 1.343-3 3-3v-2c-2.761 0-5 2.23857-5 5zm3 3c-1.657 0-3-1.34315-3-3h-2c0 2.7614 2.239 5 5 5zm0 20c2.761 0 5-2.2386 5-5h-2c0 1.6568-1.343 3-3 3zm-5-5c0 2.7614 2.239 5 5 5v-2c-1.657 0-3-1.3432-3-3zm5-5c-2.761 0-5 2.2386-5 5h2c0-1.6568 1.343-3 3-3zm5 5c0-2.7614-2.239-5-5-5v2c1.657 0 3 1.3432 3 3zm-2 18c0 1.6568-1.343 3-3 3v2c2.761 0 5-2.2386 5-5zm-3-3c1.657 0 3 1.3432 3 3h2c0-2.7614-2.239-5-5-5zm-3 3c0-1.6568 1.343-3 3-3v-2c-2.761 0-5 2.2386-5 5zm3 3c-1.657 0-3-1.3432-3-3h-2c0 2.7614 2.239 5 5 5z" fill="#000" mask="url(#c)"/><path d="m-75.5-175.5h231v221h-231z" fill="#fde9d5" stroke="#000"/><g fill="#101010"><path d="m30.6132 6.22877c-1.5002 0-2.6563.87689-2.6563 2.17867 0 1.26563.9796 1.69956 2.1974 1.93456l1.5355.2532c2.0385.3435 3.4416 1.3017 3.4416 3.5799 0 2.3775-1.9061 3.7697-4.3329 3.7697-2.1885 0-4.2535-1.3199-4.5536-3.9053-.0264-.217.1412-.4068.353-.4068h.9178c.1765 0 .3265.1356.353.3164.1941 1.8261 1.5796 2.5493 2.9386 2.5493 1.4826 0 2.6563-.7503 2.6563-2.2691 0-1.356-.9443-1.8261-2.1974-2.0702l-1.5178-.2712c-2.1268-.3616-3.4593-1.4103-3.4593-3.3991 0-2.30524 1.9591-3.7155 4.3152-3.7155 1.8797 0 3.9535 1.08482 4.3595 3.66126.0353.21697-.1324.42489-.353.42489h-.9531c-.1677 0-.3177-.12656-.3442-.29832-.2735-1.70859-1.4913-2.33236-2.7003-2.33236z"/><path d="m41.2381 7.639c2.2679 0 3.8828 1.2385 4.4564 3.2635.0618.226-.1059.461-.3441.461h-1.0678c-.15 0-.2824-.0994-.3353-.244-.3972-1.15718-1.3149-1.81711-2.7092-1.81711-1.8973 0-2.9563 1.58201-2.9563 3.48951 0 1.8984 1.0678 3.4895 2.9563 3.4895 1.3943 0 2.312-.6599 2.7092-1.8171.0529-.1446.1853-.2441.3353-.2441h1.0678c.2382 0 .4059.2351.3353.4611-.6089 2.1154-2.1709 3.2635-4.4476 3.2635-2.921 0-4.7742-2.3143-4.7742-5.1529-.0088-2.82958 1.8532-5.1529 4.7742-5.1529z"/><path d="m47.406 16.2993h2.2856v-6.50894h-2.0385c-.1941 0-.353-.16272-.353-.36161v-.92209c0-.19889.1589-.36161.353-.36161h2.7798c.5824 0 1.059.48817 1.059 1.08482v.26216c.503-1.2385 1.5884-1.54586 3.2739-1.54586.6442 0 1.0767.10848 1.3238.19888.1411.05424.2294.18984.2294.33449v.95825c0 .24409-.2294.42489-.4589.34353-.3-.09944-.7236-.18984-1.2796-.18984-1.8002 0-3.0798 1.25662-3.0798 3.43522v3.2726h2.9386c.1942 0 .353.1627.353.3616v.9221c0 .1989-.1588.3616-.353.3616h-7.0244c-.1942 0-.353-.1627-.353-.3616v-.9221c-.0089-.1989.15-.3616.3441-.3616z"/><path d="m57.6611 12.7919c0-2.82958 1.8356-5.1529 4.8183-5.1529 2.9828 0 4.8183 2.31428 4.8183 5.1529 0 2.8386-1.8355 5.1529-4.8183 5.1529-2.9827 0-4.8183-2.3143-4.8183-5.1529zm4.8183 3.4895c1.915 0 3.0181-1.582 3.0181-3.4895 0-1.8984-1.1031-3.48951-3.0181-3.48951-1.9149 0-3.018 1.58201-3.018 3.48951s1.1031 3.4895 3.018 3.4895z"/><path d="m71.2855 16.3809h2.7621c.1941 0 .353.1627.353.3616v.8498c0 .1988-.1589.3616-.353.3616h-4.1388c-.1941 0-.353-.1628-.353-.3616v-11.15558h-1.3766c-.1942 0-.353-.16273-.353-.36161v-.84978c0-.19888.1588-.3616.353-.3616h2.0385c.5824 0 1.0589.48817 1.0589 1.08482v10.43235z"/><path d="m77.3929 16.3809h2.7621c.1942 0 .353.1627.353.3616v.8498c0 .1988-.1588.3616-.353.3616h-4.1388c-.1941 0-.353-.1628-.353-.3616v-11.15558h-1.3766c-.1942 0-.353-.16273-.353-.36161v-.84978c0-.19888.1588-.3616.353-.3616h2.0385c.5824 0 1.059.48817 1.059 1.08482v10.43235z"/></g><path d="m20.7734 15.2959v-13.28898c-.0177-1.111944-.8825-2.00692-1.9679-2.00692h-13.53715c-2.92098.0452008-5.26835 2.49508-5.26835 5.49641 0 1.0125.264742 1.88036.670679 2.63973.344161.63281.882471 1.22946 1.411951 1.67243.15002.12656.07943.07232.53831.36163.63538.3977 1.359.5966 1.359.5966l-.00882 7.9463c.01765.3797.05295.7413.15002 1.0758.30004 1.121 1.05896 1.9798 2.09146 2.3956.43241.1718.91777.2893 1.43843.2984l10.81027.0361c2.1532 0 3.9005-1.7899 3.9005-4.0048.0088-1.3108-.6265-2.486-1.5884-3.2183z" fill="#ffeeda"/><path d="m21.0375 18.6137c-.0441 1.4193-1.1825 2.5583-2.5768 2.5583l-7.4392-.0271c.5912-.7051.9531-1.6182.9531-2.6126 0-1.564-.909-2.6397-.909-2.6397h7.4039c1.4208 0 2.5769 1.1842 2.5769 2.6397z" fill="#ebc28e"/><path d="m2.78861 8.68764c-.856-.83169-1.45608-1.90747-1.45608-3.18214v-.1356c.0706-2.17868 1.81789-3.93246 3.94465-3.99575h13.53712c.353.01808.6354.27121.6354.64185v11.7341c.3088.0543.4588.0995.7589.208.2383.0904.5648.2802.5648.2802v-12.2223c-.0177-1.111936-.8825-2.00690958-1.9679-2.00690958h-13.53715c-2.92098.04520078-5.26835 2.49507958-5.26835 5.49640958 0 1.74475.776576 3.23638 2.04733 4.28504.08825.07232.16767.16272.39712.16272.39711 0 .6795-.32544.66185-.67801-.00883-.29833-.13237-.40681-.31769-.58761z" fill="#101010"/><path d="m18.4611 14.5185h-10.61614c-.7148.009-1.28841.5967-1.28841 1.3289v1.564c.01765.7232.61773 1.3379 1.33253 1.3379h.7854v-1.3379h-.7854v-1.5278h.43241c1.34136 0 2.32971 1.2746 2.32971 2.6397 0 1.2114-1.0766 2.7572-2.87684 2.6307-1.59727-.1085-2.46209-1.564-2.46209-2.6307v-13.25288c0-.59665-.47654-1.08482-1.05897-1.08482h-1.05896v1.35603h.78539v12.99067c-.04412 2.6398 1.83554 3.9687 3.79463 3.9687l10.69554.0361c2.1532 0 3.9005-1.7899 3.9005-4.0048 0-2.2148-1.7561-4.0138-3.9093-4.0138zm2.5768 4.0952c-.0441 1.4193-1.1825 2.5584-2.5768 2.5584l-7.4392-.0272c.5912-.7051.953-1.6182.953-2.6126 0-1.5639-.9089-2.6397-.9089-2.6397h7.4039c1.4208 0 2.5768 1.1843 2.5768 2.6397z" fill="#101010"/><path d="m15.6017 5.78588h-8.00404v-1.35602h8.00404c.3618 0 .6618.29832.6618.67801 0 .37064-.2912.67801-.6618.67801z" fill="#101010"/><path d="m15.6017 12.168h-8.00404v-1.356h8.00404c.3618 0 .6618.2983.6618.678 0 .3706-.2912.678-.6618.678z" fill="#101010"/><path d="m17.0136 8.97693h-9.41594v-1.35603h9.40714c.3618 0 .6619.29833.6619.67801.0088.37065-.2913.67802-.6531.67802z" fill="#101010"/></svg>