<svg width="25" height="24" viewBox="0 0 25 24" fill="none" xmlns="http://www.w3.org/2000/svg">
<path d="M18.5 22C17.6667 22 16.9583 21.7083 16.375 21.125C15.7917 20.5417 15.5 19.8333 15.5 19C15.5 18.8833 15.5083 18.7625 15.525 18.6375C15.5417 18.5125 15.5667 18.4 15.6 18.3L8.55 14.2C8.26667 14.45 7.95 14.6458 7.6 14.7875C7.25 14.9292 6.88333 15 6.5 15C5.66667 15 4.95833 14.7083 4.375 14.125C3.79167 13.5417 3.5 12.8333 3.5 12C3.5 11.1667 3.79167 10.4583 4.375 9.875C4.95833 9.29167 5.66667 9 6.5 9C6.88333 9 7.25 9.07083 7.6 9.2125C7.95 9.35417 8.26667 9.55 8.55 9.8L15.6 5.7C15.5667 5.6 15.5417 5.4875 15.525 5.3625C15.5083 5.2375 15.5 5.11667 15.5 5C15.5 4.16667 15.7917 3.45833 16.375 2.875C16.9583 2.29167 17.6667 2 18.5 2C19.3333 2 20.0417 2.29167 20.625 2.875C21.2083 3.45833 21.5 4.16667 21.5 5C21.5 5.83333 21.2083 6.54167 20.625 7.125C20.0417 7.70833 19.3333 8 18.5 8C18.1167 8 17.75 7.92917 17.4 7.7875C17.05 7.64583 16.7333 7.45 16.45 7.2L9.4 11.3C9.43333 11.4 9.45833 11.5125 9.475 11.6375C9.49167 11.7625 9.5 11.8833 9.5 12C9.5 12.1167 9.49167 12.2375 9.475 12.3625C9.45833 12.4875 9.43333 12.6 9.4 12.7L16.45 16.8C16.7333 16.55 17.05 16.3542 17.4 16.2125C17.75 16.0708 18.1167 16 18.5 16C19.3333 16 20.0417 16.2917 20.625 16.875C21.2083 17.4583 21.5 18.1667 21.5 19C21.5 19.8333 21.2083 20.5417 20.625 21.125C20.0417 21.7083 19.3333 22 18.5 22ZM18.5 6C18.7833 6 19.0208 5.90417 19.2125 5.7125C19.4042 5.52083 19.5 5.28333 19.5 5C19.5 4.71667 19.4042 4.47917 19.2125 4.2875C19.0208 4.09583 18.7833 4 18.5 4C18.2167 4 17.9792 4.09583 17.7875 4.2875C17.5958 4.47917 17.5 4.71667 17.5 5C17.5 5.28333 17.5958 5.52083 17.7875 5.7125C17.9792 5.90417 18.2167 6 18.5 6ZM6.5 13C6.78333 13 7.02083 12.9042 7.2125 12.7125C7.40417 12.5208 7.5 12.2833 7.5 12C7.5 11.7167 7.40417 11.4792 7.2125 11.2875C7.02083 11.0958 6.78333 11 6.5 11C6.21667 11 5.97917 11.0958 5.7875 11.2875C5.59583 11.4792 5.5 11.7167 5.5 12C5.5 12.2833 5.59583 12.5208 5.7875 12.7125C5.97917 12.9042 6.21667 13 6.5 13ZM18.5 20C18.7833 20 19.0208 19.9042 19.2125 19.7125C19.4042 19.5208 19.5 19.2833 19.5 19C19.5 18.7167 19.4042 18.4792 19.2125 18.2875C19.0208 18.0958 18.7833 18 18.5 18C18.2167 18 17.9792 18.0958 17.7875 18.2875C17.5958 18.4792 17.5 18.7167 17.5 19C17.5 19.2833 17.5958 19.5208 17.7875 19.7125C17.9792 19.9042 18.2167 20 18.5 20Z" fill="currentColor"/>
</svg>
