<svg width="38" height="23" viewBox="0 0 38 23" fill="none" xmlns="http://www.w3.org/2000/svg">
<path d="M27.2165 21.1043L3 1H36.5L30.3999 20.1719C29.9697 21.5237 28.308 22.0104 27.2165 21.1043Z" fill="white"/>
<path d="M3 1V0H0.22991L2.36124 1.76941L3 1ZM27.2165 21.1043L26.5777 21.8737L26.5778 21.8737L27.2165 21.1043ZM30.3999 20.1719L29.4469 19.8687L29.4469 19.8687L30.3999 20.1719ZM36.5 1L37.4529 1.3032L37.8676 0H36.5V1ZM2.36124 1.76941L26.5777 21.8737L27.8553 20.3349L3.63876 0.23059L2.36124 1.76941ZM31.3528 20.4751L37.4529 1.3032L35.5471 0.696796L29.4469 19.8687L31.3528 20.4751ZM36.5 0H3V2H36.5V0ZM26.5778 21.8737C28.215 23.2329 30.7076 22.5028 31.3528 20.4751L29.4469 19.8687C29.2319 20.5446 28.401 20.7879 27.8553 20.3349L26.5778 21.8737Z" fill="#FF684B"/>
</svg>
