<svg width="24" height="25" viewBox="0 0 24 25" fill="none" xmlns="http://www.w3.org/2000/svg">
<path fill-rule="evenodd" clip-rule="evenodd" d="M10.2356 2.0332C5.40722 2.0332 1.49976 5.9511 1.49976 10.7771C1.49976 15.6043 5.41642 19.5209 10.2436 19.5209C10.835 19.5209 11.4127 19.4583 11.9592 19.3525C12.4587 19.2558 12.7852 18.7726 12.6885 18.2732C12.5918 17.7738 12.1086 17.4473 11.6092 17.5439C11.166 17.6297 10.7059 17.6788 10.2436 17.6788C6.43379 17.6788 3.34186 14.5869 3.34186 10.7771C3.34186 6.96601 6.42703 3.87531 10.2356 3.87531C14.0455 3.87531 17.1374 6.96724 17.1374 10.7771C17.1374 12.6798 16.3703 14.4036 15.1242 15.6496C14.7647 16.0092 14.7645 16.592 15.1237 16.9518L20.927 22.763C21.2864 23.1229 21.8696 23.1233 22.2295 22.7639C22.5895 22.4044 22.5899 21.8213 22.2304 21.4613L17.0432 16.2669C18.2557 14.7666 18.9795 12.8537 18.9795 10.7771C18.9795 5.94987 15.0628 2.0332 10.2356 2.0332ZM13.2991 9.90823H6.64636C6.20426 9.90823 5.84774 10.243 5.84774 10.6582C5.84774 11.0734 6.20426 11.4082 6.64636 11.4082H13.2991C13.7412 11.4082 14.0977 11.0734 14.0977 10.6582C14.0977 10.243 13.7412 9.90823 13.2991 9.90823Z" fill="white"/>
</svg>
