<svg width="24" height="25" viewBox="0 0 24 25" fill="none" xmlns="http://www.w3.org/2000/svg">
<path fill-rule="evenodd" clip-rule="evenodd" d="M10.2356 2.0332C5.40722 2.0332 1.49976 5.9511 1.49976 10.7771C1.49976 15.6043 5.41642 19.5209 10.2436 19.5209C10.835 19.5209 11.4127 19.4583 11.9592 19.3525C12.4587 19.2558 12.7852 18.7726 12.6885 18.2732C12.5918 17.7738 12.1086 17.4473 11.6092 17.5439C11.166 17.6297 10.7059 17.6788 10.2436 17.6788C6.43379 17.6788 3.34186 14.5869 3.34186 10.7771C3.34186 6.96601 6.42703 3.87531 10.2356 3.87531C14.0455 3.87531 17.1374 6.96724 17.1374 10.7771C17.1374 12.6798 16.3703 14.4036 15.1242 15.6496C14.7647 16.0092 14.7645 16.592 15.1237 16.9518L20.927 22.763C21.2864 23.1229 21.8696 23.1233 22.2295 22.7639C22.5895 22.4044 22.5899 21.8213 22.2304 21.4613L17.0432 16.2669C18.2557 14.7666 18.9795 12.8537 18.9795 10.7771C18.9795 5.94987 15.0628 2.0332 10.2356 2.0332ZM9.2226 13.9843V11.4081H6.64629C6.2042 11.4081 5.84767 11.0733 5.84767 10.6581C5.84767 10.2429 6.2042 9.9081 6.64629 9.9081H9.2226V7.3315C9.2226 6.88941 9.55742 6.53288 9.9726 6.53288C10.3878 6.53288 10.7226 6.88941 10.7226 7.3315V9.9081H13.2991C13.7411 9.9081 14.0977 10.2429 14.0977 10.6581C14.0977 11.0733 13.7411 11.4081 13.2991 11.4081H10.7226V13.9843C10.7226 14.4264 10.3878 14.7829 9.9726 14.7829C9.55742 14.7829 9.2226 14.4264 9.2226 13.9843Z" fill="white"/>
</svg>
