<?xml version="1.0" encoding="utf-8"?>
<!-- Generator: Adobe Illustrator 27.8.1, SVG Export Plug-In . SVG Version: 6.00 Build 0)  -->
<svg version="1.1" id="Layer_1" xmlns="http://www.w3.org/2000/svg" xmlns:xlink="http://www.w3.org/1999/xlink" x="0px" y="0px"
	 viewBox="0 0 681 229" style="enable-background:new 0 0 681 229;" xml:space="preserve">
<style type="text/css">
	.st0{clip-path:url(#SVGID_00000103976548044807570460000003949778551900908189_);}
	.st1{fill:#101010;}
	.st2{clip-path:url(#SVGID_00000158008447582086128380000016213989237026308515_);}
	.st3{fill:#BEA380;stroke:#261611;stroke-width:0.5;stroke-linecap:round;stroke-linejoin:round;}
	.st4{fill:#D8BD99;stroke:#261611;stroke-width:0.5;stroke-linecap:round;stroke-linejoin:round;}
	.st5{fill:#F8D9B2;stroke:#261611;stroke-width:0.5;stroke-linecap:round;stroke-linejoin:round;}
	.st6{fill:#F8D9B2;}
	.st7{fill:none;stroke:#261611;stroke-width:0.5;stroke-linecap:round;stroke-linejoin:round;}
	.st8{fill:#FD664D;}
	.st9{fill:#FCF4F0;stroke:#261611;stroke-width:0.5;stroke-linecap:round;stroke-linejoin:round;}
	.st10{fill:#FFFFFF;stroke:#261611;stroke-width:0.5;stroke-miterlimit:10;}
	.st11{fill:#FBEBD8;stroke:#261611;stroke-width:0.5;stroke-linecap:round;stroke-linejoin:round;}
	.st12{fill:#A9F6EA;}
	.st13{fill:none;stroke:#F6D8B5;stroke-width:1.89;stroke-linecap:round;stroke-miterlimit:10;}
	.st14{opacity:0.5;fill:#FFFFFF;stroke:#261611;stroke-width:0.5;stroke-miterlimit:10;enable-background:new    ;}
	.st15{fill:none;stroke:#261611;stroke-width:0.5;stroke-miterlimit:10;}
</style>
<g>
	<defs>
		<rect id="SVGID_1_" x="-1" y="0" width="682" height="229"/>
	</defs>
	<clipPath id="SVGID_00000050624232705262069510000004248824756596494755_">
		<use xlink:href="#SVGID_1_"  style="overflow:visible;"/>
	</clipPath>
	<g style="clip-path:url(#SVGID_00000050624232705262069510000004248824756596494755_);">
		<path class="st1" d="M25,0h631c13.8,0,25,11.2,25,25v179c0,13.8-11.2,25-25,25H25c-13.8,0-25-11.2-25-25V25C0,11.2,11.2,0,25,0z"
			/>
		<g>
			<defs>
				<rect id="SVGID_00000152222290728337716810000005005494937963666823_" x="485" y="26" width="255" height="302"/>
			</defs>
			<clipPath id="SVGID_00000166672340621796005010000005135708229565552567_">
				<use xlink:href="#SVGID_00000152222290728337716810000005005494937963666823_"  style="overflow:visible;"/>
			</clipPath>
			<g style="clip-path:url(#SVGID_00000166672340621796005010000005135708229565552567_);">
				<path class="st3" d="M519.5,51.3h7.5V33.5l-7.5,0.5V51.3z"/>
				<path class="st4" d="M519.5,34.1l-4.9,2.5v16.5l4.9-1.8V34.1z"/>
				<path class="st5" d="M527,45.4l5.3,2.9v4.8l-5.3-1.8V45.4z"/>
				<path class="st5" d="M532.4,52.5c0.3,0,0.7-0.1,0.9-0.4l1.8-2c0.2-0.3,0.3-0.6,0.3-1c-0.1-0.4-0.3-0.7-0.6-0.8l-7.1-3.9
					c-0.2-0.1-0.4-0.1-0.6-0.1h-7.5c-0.2,0-0.4,0.1-0.6,0.2l-5.7,3.4c-0.6,0.3-0.8,1.1-0.4,1.7c0.3,0.6,1.1,0.8,1.7,0.4l5.4-3.2h6.9
					l5.5,3l-0.8,0.9c-0.4,0.5-0.4,1.3,0.1,1.7C531.8,52.4,532.1,52.5,532.4,52.5L532.4,52.5z"/>
				<path class="st6" d="M525.5,45.8V35.3c0-0.9-1-1.6-2.2-1.6c-1.2,0-2.2,0.8-2.2,1.8V46"/>
				<path class="st7" d="M525.5,45.8V35.3c0-0.9-1-1.6-2.2-1.6c-1.2,0-2.2,0.8-2.2,1.8V46"/>
				<path class="st6" d="M518.3,46.1l0-10.1c0-0.9-0.7-1-1.6-0.2c-0.9,0.8-1.6,2.2-1.6,3.1l0,10.1"/>
				<path class="st7" d="M518.3,46.1l0-10.1c0-0.9-0.7-1-1.6-0.2c-0.9,0.8-1.6,2.2-1.6,3.1l0,10.1"/>
				<path class="st5" d="M527,33.5l5.3,3.1v11.8l-5.3-2.9V33.5z"/>
				<path class="st4" d="M519,92.5V71.3l-17.6,5.8L501.3,96L519,92.5z"/>
				<path class="st3" d="M534.7,71.3H519v29.2h15.7V71.3z"/>
				<path class="st5" d="M534.7,71.3l10.3,8.6l0.2,21.6l-10.5-1V71.3z"/>
				<path class="st5" d="M526.6,50.2c10.2,1.1,18.5,14.5,18.5,24.6l-18-4.3l7.5-1.2C534.7,57.4,530,52.3,526.6,50.2L526.6,50.2z"/>
				<path class="st4" d="M501.4,72.7c0-10.4,10.6-21.2,19.4-22.6c-1.8,2.1-3.8,7.4-4.1,20.5L501.4,72.7L501.4,72.7z"/>
				<path class="st3" d="M520.8,50c0.8-0.1,1.7-0.2,2.6-0.2c1.1,0,2.2,0.1,3.2,0.3c3.3,2.2,8.1,7.3,8.1,19.1l-7.5,1.2h-10.4
					C517,57.4,519.1,52.1,520.8,50L520.8,50z"/>
				<path class="st5" d="M546.1,82.7c0.7,0,1.5-0.3,2.1-0.8c1.2-1.1,1.3-3,0.1-4.3l-10.5-11.2c-0.6-0.6-1.4-0.9-2.2-0.9h-17.4
					c-0.4,0-0.7,0.1-1.1,0.2l-17.6,6.5c-1.6,0.6-2.4,2.3-1.8,3.9c0.6,1.6,2.3,2.4,3.9,1.8l17.1-6.3h15.6l9.6,10.2
					C544.6,82.3,545.4,82.7,546.1,82.7L546.1,82.7z"/>
				<path class="st4" d="M497.2,74.8l-0.6-20l-0.6,20H497.2z"/>
				<path class="st4" d="M495.5,92.3V82.2l-5.6,2.4v9.3L495.5,92.3z"/>
				<path class="st3" d="M501.4,82.2h-5.9v13h5.9V82.2z"/>
				<path class="st5" d="M501.4,82.2l3.2,3.8v9.7l-3.2-0.6V82.2z"/>
				<path class="st5" d="M498.3,72.8c3.2,0.8,5.7,4.5,5.7,9h-5.5l2.8-0.5C501.4,76,499.6,73.8,498.3,72.8z"/>
				<path class="st4" d="M490.2,81.9c0-4.6,2.6-8.5,5.9-9.1c-0.7,0.9-1.4,3.3-1.5,9.1H490.2z"/>
				<path class="st3" d="M496.2,72.8c0.3-0.1,0.6-0.1,1-0.1c0.4,0,0.8,0.1,1.2,0.1c1.3,1,3,3.2,3,8.5l-2.8,0.5h-3.9
					C494.7,76,495.5,73.7,496.2,72.8L496.2,72.8z"/>
				<path class="st5" d="M505.7,87.2c0.3,0,0.5-0.1,0.8-0.3c0.5-0.4,0.6-1.2,0.2-1.7l-3.9-5c-0.2-0.3-0.6-0.5-1-0.5h-6.6
					c-0.2,0-0.3,0-0.5,0.1l-6.6,2.9c-0.6,0.3-0.9,1-0.6,1.6c0.3,0.6,1,0.9,1.6,0.6l6.4-2.8h5.7l3.6,4.5
					C505,87,505.3,87.2,505.7,87.2z"/>
				<path class="st8" d="M496.6,63.9c0.6,0,1.1-0.5,1.1-1.1c0-0.6-0.5-1.1-1.1-1.1c-0.6,0-1.1,0.5-1.1,1.1
					C495.5,63.4,496,63.9,496.6,63.9z"/>
				<path class="st8" d="M496.6,55.5c0,0.1-2.5,0.8-2.5,0.8l2.5,0.9V55.5z"/>
				<path class="st9" d="M573.7,77.1h7.4v-46l-7.4,9.3V77.1z"/>
				<path class="st9" d="M631.9,80.2h-8.8v-51l8.8,6.7V80.2z"/>
				<path class="st9" d="M623.1,72.4h-21.6V26.2l21.6,3V72.4z"/>
				<path class="st10" d="M616.4,59.7V34.9c0-2.2-4-5.6-4-5.6s-4,1.9-4,4.1v24.8L616.4,59.7z"/>
				<path class="st11" d="M615.4,45.6V35.3c0-1.9-3.3-4.9-3.3-4.9s-3.3,1.6-3.3,3.5v10.3L615.4,45.6L615.4,45.6z"/>
				<path class="st5" d="M613.4,45.2v-8.8c0-1.6-2.3-4.2-2.3-4.2s-2.3,1.3-2.3,3v9L613.4,45.2L613.4,45.2z"/>
				<path class="st10" d="M616.4,68.3V56.4c0-2.2-4-5.6-4-5.6s-4,1.9-4,4.1v11.9L616.4,68.3z"/>
				<path class="st11" d="M615.4,67.2V56.9c0-1.9-3.3-4.9-3.3-4.9s-3.3,1.6-3.3,3.5v10.3L615.4,67.2L615.4,67.2z"/>
				<path class="st5" d="M613.4,66.8V58c0-1.6-2.3-4.2-2.3-4.2s-2.3,1.3-2.3,3v9L613.4,66.8L613.4,66.8z"/>
				<path class="st11" d="M601.5,66.3l21.6,3.9v12.4h-21.6V66.3z"/>
				<path class="st5" d="M623.1,70.3l8.8,6.8v13l-8.8-4.6V70.3z"/>
				<path class="st11" d="M581.1,70.3l-7.4,6.8v8.4l7.4-1.4V70.3z"/>
				<path class="st10" d="M629.6,65V41.2c0-2.1-2-6.2-2-6.2s-2,1-2,3.1v23.8L629.6,65L629.6,65z"/>
				<path class="st11" d="M629.1,51.3v-9.9c0-1.9-1.7-5.3-1.7-5.3s-1.7,0.9-1.7,2.7v9.9L629.1,51.3z"/>
				<path class="st5" d="M628.1,50.5v-8.4c0-1.6-1.1-4.5-1.1-4.5s-1.1,0.8-1.1,2.4v8.7L628.1,50.5z"/>
				<path class="st10" d="M629.6,73.3V61.9c0-2.1-2-6.2-2-6.2s-2,1-2,3.1v11.4L629.6,73.3L629.6,73.3z"/>
				<path class="st5" d="M629.1,72v-9.9c0-1.9-1.7-5.3-1.7-5.3s-1.7,0.9-1.7,2.7v9.9L629.1,72z"/>
				<path class="st5" d="M628.1,71.2v-8.4c0-1.6-1.1-4.5-1.1-4.5s-1.1,0.8-1.1,2.4v8.7L628.1,71.2z"/>
				<path class="st10" d="M575.4,66.1V43.6c0-2,2-6.1,2-6.1s2,0.7,2,2.7v22.5L575.4,66.1L575.4,66.1z"/>
				<path class="st11" d="M575.8,53.1v-9.3c0-1.7,1.7-5.2,1.7-5.2s1.7,0.6,1.7,2.4v9.3L575.8,53.1z"/>
				<path class="st5" d="M576.8,52.2v-8c0-1.5,1.1-4.4,1.1-4.4s1.1,0.6,1.1,2.1v8.2L576.8,52.2L576.8,52.2z"/>
				<path class="st10" d="M575.4,73.9V63.1c0-2,2-6.1,2-6.1s2,0.7,2,2.7v10.8L575.4,73.9L575.4,73.9z"/>
				<path class="st11" d="M575.8,72.6v-9.3c0-1.7,1.7-5.2,1.7-5.2s1.7,0.6,1.7,2.4v9.3L575.8,72.6z"/>
				<path class="st5" d="M576.8,71.8v-8c0-1.5,1.1-4.4,1.1-4.4s1.1,0.6,1.1,2.1v8.2L576.8,71.8L576.8,71.8z"/>
				<path class="st9" d="M531,88.2V184l35.2-4.3V86.2l14.9-3V31.1l20.5-4.9v53l12.3-2.5v242.1h-47.6H531v8.6h-42.5V97.7L531,88.2z"
					/>
				<path class="st11" d="M531,88.2l28.3,14v35.2L531,184V88.2z"/>
				<path class="st5" d="M529.1,186.2l37.1-4.7V137h-6.9L529.1,186.2z"/>
				<path class="st10" d="M583.9,99.9V83.3c0-3.1,5.7-7.8,5.7-7.8s5.7,2.6,5.7,5.7v16.6L583.9,99.9z"/>
				<path class="st11" d="M585.2,98.3V83.9c0-2.7,4.6-6.8,4.6-6.8s4.6,2.2,4.6,4.9v14.4L585.2,98.3L585.2,98.3z"/>
				<path class="st5" d="M588,97.7V85.4c0-2.3,3.2-5.8,3.2-5.8s3.2,1.9,3.2,4.2v12.6L588,97.7L588,97.7z"/>
				<path class="st10" d="M583.9,128.6V112c0-3.1,5.7-7.6,5.7-7.6s5.7,2.8,5.7,5.9v16.6L583.9,128.6z"/>
				<path class="st11" d="M585.2,127.1v-14.4c0-2.7,4.6-6.6,4.6-6.6s4.6,2.4,4.6,5.1v14.4L585.2,127.1z"/>
				<path class="st5" d="M588,126.6v-12.3c0-2.3,3.2-5.7,3.2-5.7s3.2,2,3.2,4.3v12.6L588,126.6L588,126.6z"/>
				<path class="st10" d="M583.9,159.7v-17.8c0-3.3,5.7-7.9,5.7-7.9s5.7,3.3,5.7,6.6v17.8L583.9,159.7z"/>
				<path class="st11" d="M585.2,158.1v-15.4c0-2.9,4.6-6.9,4.6-6.9s4.6,2.8,4.6,5.7V157L585.2,158.1z"/>
				<path class="st5" d="M588,157.8v-13.2c0-2.5,3.2-6,3.2-6s3.2,2.3,3.2,4.8V157L588,157.8L588,157.8z"/>
				<path class="st10" d="M584,190.2v-17.8c0-3.3,5.7-7.7,5.7-7.7s5.7,3.5,5.7,6.9v17.8L584,190.2z"/>
				<path class="st11" d="M585.3,188.6v-15.4c0-2.9,4.6-6.7,4.6-6.7s4.6,3,4.6,5.9v15.4L585.3,188.6z"/>
				<path class="st5" d="M588.1,188.4v-13.2c0-2.5,3.2-5.8,3.2-5.8s3.2,2.4,3.2,4.9v13.5L588.1,188.4L588.1,188.4z"/>
				<path class="st10" d="M583.9,222.8v-17.8c0-3.3,5.7-7.6,5.7-7.6s5.7,3.6,5.7,6.9V222L583.9,222.8z"/>
				<path class="st11" d="M585.2,221.2v-15.4c0-2.9,4.6-6.6,4.6-6.6s4.6,3,4.6,5.9v15.4L585.2,221.2z"/>
				<path class="st5" d="M588,221v-13.2c0-2.5,3.2-5.8,3.2-5.8s3.2,2.5,3.2,4.9v13.5L588,221L588,221z"/>
				<path class="st10" d="M503.3,132.1v-14.6c0-2.7,5-6.8,5-6.8s5,2.4,5,5.2v14.6L503.3,132.1L503.3,132.1z"/>
				<path class="st11" d="M504.5,130.7v-12.7c0-2.4,4.1-5.9,4.1-5.9s4.1,2.1,4.1,4.5v12.7L504.5,130.7L504.5,130.7z"/>
				<path class="st5" d="M507,130.3v-10.8c0-2,2.8-5.1,2.8-5.1s2.8,1.7,2.8,3.8v11.1L507,130.3L507,130.3z"/>
				<path class="st10" d="M503.3,170.2v-15.7c0-2.9,5-6.9,5-6.9s5,2.9,5,5.9v15.7L503.3,170.2L503.3,170.2z"/>
				<path class="st11" d="M504.5,168.8v-13.6c0-2.6,4.1-6,4.1-6s4.1,2.5,4.1,5.1v13.6L504.5,168.8L504.5,168.8z"/>
				<path class="st5" d="M507,168.5v-11.6c0-2.2,2.8-5.2,2.8-5.2s2.8,2.1,2.8,4.2v12L507,168.5z"/>
				<path class="st10" d="M503.3,197.7V182c0-2.9,5-6.8,5-6.8s5,3.1,5,6.1V197L503.3,197.7L503.3,197.7z"/>
				<path class="st11" d="M504.5,196.3v-13.6c0-2.6,4.1-5.9,4.1-5.9s4.1,2.7,4.1,5.2v13.6L504.5,196.3L504.5,196.3z"/>
				<path class="st5" d="M507,196.1v-11.6c0-2.2,2.8-5.1,2.8-5.1s2.8,2.2,2.8,4.3v12L507,196.1z"/>
				<path class="st10" d="M503.3,229.7V214c0-2.9,5-6.9,5-6.9s5,3,5,5.9v15.7L503.3,229.7L503.3,229.7z"/>
				<path class="st11" d="M504.5,228.3v-13.6c0-2.6,4.1-6,4.1-6s4.1,2.5,4.1,5.1v13.6L504.5,228.3L504.5,228.3z"/>
				<path class="st5" d="M507,228v-11.6c0-2.2,2.8-5.2,2.8-5.2s2.8,2.1,2.8,4.2v11.9L507,228L507,228z"/>
				<path class="st12" d="M600.7,96.7V85c0-2.2,1.2-5.1,2.8-5.6c1.6-0.5,2.8,1.8,2.8,4v12L600.7,96.7L600.7,96.7z"/>
				<path class="st12" d="M572.6,102.2V91c0-2.1,1.2-4.9,2.8-5.4c1.6-0.5,2.8,1.6,2.8,3.7v11.5L572.6,102.2L572.6,102.2z"/>
				<path class="st12" d="M600.7,126.1v-15.7c0-3,1.2-6.9,2.8-7.5c1.6-0.6,2.8,2.6,2.8,5.6v16.9L600.7,126.1L600.7,126.1z"/>
				<path class="st12" d="M572.6,130.7v-15.9c0-2.8,1.2-6.5,2.8-7.1c1.6-0.6,2.8,2.3,2.8,5.1v16.8L572.6,130.7L572.6,130.7z"/>
				<path class="st12" d="M600.7,157.4v-16c0-2.8,1.2-6.4,2.8-7c1.6-0.6,2.8,2.3,2.8,5.1v17.4L600.7,157.4L600.7,157.4z"/>
				<path class="st12" d="M572.6,161.8v-15.9c0-2.7,1.2-6.4,2.8-7c1.6-0.7,2.8,2.1,2.8,4.8v17.1L572.6,161.8L572.6,161.8z"/>
				<path class="st12" d="M600.7,188.7v-17.1c0-2.8,1.2-6.6,2.8-7.3s2.8,2.2,2.8,5v18.8L600.7,188.7L600.7,188.7z"/>
				<path class="st12" d="M572.7,191.5V175c0-2.7,1.2-6.3,2.8-7c1.6-0.7,2.8,2.1,2.8,4.8V191L572.7,191.5L572.7,191.5z"/>
				<path class="st12" d="M600.7,221.5V204c0-2.5,1.2-6,2.8-6.6c1.6-0.6,2.8,2,2.8,4.5v19.3L600.7,221.5L600.7,221.5z"/>
				<path class="st12" d="M572.6,223.7v-17c0-2.7,1.2-6.2,2.8-6.9c1.6-0.7,2.8,2,2.8,4.7v18.9L572.6,223.7L572.6,223.7z"/>
				<path class="st9" d="M518.4,129.7v-18c0-2,1.2-4.7,2.8-5.2c1.6-0.5,2.8,1.5,2.8,3.6v18.8L518.4,129.7z"/>
				<path class="st9" d="M493.3,133.9V117c0-2,1.2-4.7,2.8-5.2c1.6-0.5,2.8,1.5,2.8,3.6v17.6L493.3,133.9L493.3,133.9z"/>
				<path class="st12" d="M517,168.8V151c0-1.9,1.1-4.5,2.6-5c1.5-0.5,2.6,1.5,2.6,3.4v18.7L517,168.8L517,168.8z"/>
				<path class="st12" d="M493.8,171.3v-16.6c0-2,1.1-4.7,2.6-5.1c1.5-0.5,2.6,1.5,2.6,3.5v17.7L493.8,171.3L493.8,171.3z"/>
				<path class="st12" d="M516.7,197.4V180c0-1.9,1.1-4.4,2.6-4.9c1.5-0.5,2.6,1.4,2.6,3.3v18.2L516.7,197.4L516.7,197.4z"/>
				<path class="st12" d="M493.5,198.6v-15.7c0-1.9,1.1-4.4,2.6-4.9c1.5-0.5,2.6,1.4,2.6,3.3v16.8L493.5,198.6L493.5,198.6z"/>
				<path class="st12" d="M516.7,228.9v-17.8c0-1.9,1.1-4.4,2.6-4.8c1.5-0.5,2.6,1.4,2.6,3.3v19.1L516.7,228.9L516.7,228.9z"/>
				<path class="st12" d="M493.5,230.9v-16.4c0-2.1,1.1-4.8,2.6-5.3c1.5-0.5,2.6,1.6,2.6,3.6v17.9L493.5,230.9L493.5,230.9z"/>
				<path class="st13" d="M613.8,94.7l-48.1,8.5"/>
				<path class="st13" d="M613.8,124.6l-48.4,7.4"/>
				<path class="st13" d="M613.8,156.2l-48.4,6.3"/>
				<path class="st13" d="M613.8,188.1l-48.4,4.3"/>
				<path class="st13" d="M613.8,220.5l-48.4,4.3"/>
				<path class="st13" d="M531,128.3l-43.3,6.7"/>
				<path class="st13" d="M531.1,166.9l-43.4,5.6"/>
				<path class="st13" d="M531,195.8l-44.2,4"/>
				<path class="st13" d="M531,227.7l-44.2,4.1"/>
				<path class="st12" d="M583.9,249v-15.6c0-2.9,5-6.7,5-6.7s5,3.1,5,6.1v15.6L583.9,249z"/>
				<path class="st11" d="M585.1,247.6v-13.5c0-2.5,4-5.8,4-5.8s4,2.7,4,5.2V247L585.1,247.6z"/>
				<path class="st12" d="M597.8,248.4v-15.7c0-2.3,1.1-5.4,2.5-5.9c1.4-0.6,2.5,1.8,2.5,4v17.3L597.8,248.4L597.8,248.4z"/>
				<path class="st12" d="M572.6,250.4v-15.3c0-2.4,1.1-5.6,2.5-6.2c1.4-0.6,2.5,1.8,2.5,4.2v17L572.6,250.4z"/>
				<path class="st12" d="M536.3,245.7l-1-44.2c-0.1-6.1,4.9-11.5,11.2-11.8c6.3-0.4,11.6,4.3,11.7,10.5l1,44.2L536.3,245.7
					L536.3,245.7z"/>
				<path class="st5" d="M538.3,245.7l-0.9-41.7c-0.1-5.8,4.5-10.8,10.3-11.1c5.8-0.3,10.6,4.1,10.7,9.9l0.9,41.7L538.3,245.7z"/>
				<path class="st5" d="M532.9,247.9c0,0,0.1,0,0.1,0l3.4-0.2c1.1-0.1,1.9-1,1.9-2.1l-1-44.2c-0.1-5.1,4.1-9.4,9.3-9.7
					c2.6-0.2,5,0.7,6.8,2.4c1.7,1.6,2.7,3.8,2.8,6.1l1,44.2c0,0.6,0.3,1.1,0.7,1.5c0.4,0.4,0.9,0.6,1.5,0.5l4.2-0.2
					c1.1-0.1,2-1,1.9-2.2c-0.1-1.1-1-2-2.2-1.9l-2.1,0.1l-0.9-42.1c-0.1-3.5-1.5-6.7-4.1-9c-2.6-2.4-6.1-3.7-9.8-3.5
					c-7.4,0.4-13.3,6.7-13.2,13.9l0.9,42.3l-1.4,0.1c-1.1,0.1-2,1-1.9,2.2C531,247.1,531.9,248,532.9,247.9L532.9,247.9z"/>
				<path class="st14" d="M536.9,247l21.2-1.3l-0.4-33.4l-21.2,2.2L536.9,247z"/>
				<path class="st15" d="M540.3,201.7c0.1,4.4,3.3,7.4,7.2,6.9c3.9-0.6,7-4.6,6.9-8.9c-0.1-4.4-3.3-7.4-7.2-6.9
					C543.3,193.3,540.2,197.3,540.3,201.7z"/>
				<path class="st15" d="M545.3,200.9c0,1.3,1,2.3,2.2,2.1c1.2-0.2,2.1-1.4,2.1-2.7c0-1.3-1-2.3-2.2-2.1
					C546.2,198.4,545.2,199.6,545.3,200.9z"/>
				<path class="st15" d="M547.3,192.7c1.2,1.8,2.7,3.2,1.1,5.6"/>
				<path class="st15" d="M547.3,192.7c-1.2,2.1-2.5,4-0.8,5.9"/>
				<path class="st15" d="M540.5,201.6c1.7-1.6,3.2-3.4,5.2-1.8"/>
				<path class="st15" d="M540.5,201.6c1.8,1.1,3.3,2.4,5.2,0.3"/>
				<path class="st15" d="M547.5,208.4c-1.2-1.8-2.7-3.2-1.1-5.6"/>
				<path class="st15" d="M547.5,208.4c1.2-2.1,2.5-3.9,0.8-5.9"/>
				<path class="st15" d="M554.3,199.6c-1.7,1.6-3.2,3.4-5.2,1.8"/>
				<path class="st15" d="M554.3,199.6c-1.8-1.1-3.3-2.4-5.2-0.3"/>
				<path class="st15" d="M549,198.5c0,0,2.6-3.3-0.1-5.8"/>
				<path class="st15" d="M545.8,199c0,0-2.8-2.5-0.1-5.8"/>
				<path class="st15" d="M549.1,202.2c0,0,2.7,2.6,5.2-0.8"/>
				<path class="st15" d="M549.1,198.6c0,0,2.6-3.4,5.2-0.8"/>
				<path class="st15" d="M545.8,202.8c0,0-2.6,3.3,0.1,5.8"/>
				<path class="st15" d="M549,202.3c0,0,2.8,2.5,0.1,5.8"/>
				<path class="st15" d="M545.7,199.1c0,0-2.7-2.6-5.2,0.8"/>
				<path class="st15" d="M545.7,202.6c0,0-2.6,3.4-5.2,0.8"/>
				<path class="st15" d="M558.2,244.6l-0.6-32.4c-0.1-4-5.2-6.6-5.2-6.6s-5,4-4.9,8l0.7,31.6"/>
				<path class="st15" d="M552.5,208.5c-1,1.4-1.9,3.1-1.8,4.8l0.5,31.9"/>
				<path class="st15" d="M554,206.7c-0.5,0.5-1,1.1-1.5,1.8"/>
				<path class="st15" d="M552.5,208.5c-0.5-0.6-1.1-1-1.6-1.4"/>
				<path class="st15" d="M555.3,244.8l-0.8-32.1c0-1.7-1-3.1-2-4.2"/>
				<path class="st15" d="M556,208.5c-0.8,1.3-1.4,2.7-1.4,4.1l0.6,32.1"/>
				<path class="st15" d="M551.1,245.1l-0.6-31.9c0-1.4-0.7-2.7-1.6-3.7"/>
				<path class="st15" d="M554.4,200.6c0,0,2.2-0.3,3,3c0,0,0,2.3-3.4,3.1"/>
				<path class="st15" d="M538.3,245.7l-0.7-30.5c-0.1-4,4.9-8,4.9-8s5.1,2.6,5.2,6.6l0.6,31.6"/>
				<path class="st15" d="M542.5,209.9c1.1,1.1,2,2.5,2,4.2l0.7,31.5"/>
				<path class="st15" d="M540.9,208.6c0.5,0.4,1.1,0.8,1.6,1.4"/>
				<path class="st15" d="M542.5,209.9c0.5-0.7,1.1-1.4,1.6-1.9"/>
				<path class="st15" d="M541.1,245.9l-0.5-31.2c0-1.7,0.8-3.4,1.8-4.8"/>
				<path class="st15" d="M538.9,211c0.9,1,1.5,2.3,1.6,3.7l0.6,31.1"/>
				<path class="st15" d="M545.2,245.7l-0.6-31.6c0-1.4,0.6-2.9,1.4-4.1"/>
				<path class="st15" d="M540.3,202.6c0,0-2.2,0.3-2.9,3.8c0,0,0,2.3,3.5,2.1"/>
				<path class="st5" d="M566.2,86.2l8.2-6.6l6.7,3.7L566.2,86.2z"/>
				<path class="st5" d="M601.5,79.2l7.9-6.3l4.4,3.9L601.5,79.2z"/>
				<path class="st5" d="M623.1,82.6l-13.7-9.8l4.4,3.9L623.1,82.6z"/>
				<path class="st5" d="M631.9,86.2l7.1,6.5l-7.1-4.5V86.2z"/>
				<path class="st10" d="M587.2,59.7V34.9c0-2.2,4-5.6,4-5.6s4,1.9,4,4.1v24.8L587.2,59.7z"/>
				<path class="st11" d="M588.1,45.6V35.3c0-1.9,3.3-4.9,3.3-4.9s3.3,1.6,3.3,3.5v10.3L588.1,45.6z"/>
				<path class="st5" d="M590.2,45.2v-8.8c0-1.6,2.3-4.2,2.3-4.2s2.3,1.3,2.3,3v9L590.2,45.2L590.2,45.2z"/>
				<path class="st10" d="M587.2,68.3V56.4c0-2.2,4-5.6,4-5.6s4,1.9,4,4.1v11.9L587.2,68.3z"/>
				<path class="st11" d="M588.1,67.2V56.9c0-1.9,3.3-4.9,3.3-4.9s3.3,1.6,3.3,3.5v10.3L588.1,67.2z"/>
				<path class="st5" d="M590.2,66.8V58c0-1.6,2.3-4.2,2.3-4.2s2.3,1.3,2.3,3v9L590.2,66.8L590.2,66.8z"/>
				<path class="st10" d="M601.5,66.3l-20.5,4v3l20.5-3.9V66.3z"/>
				<path class="st10" d="M598.6,68.3h3V26.2l-3,0.7V68.3z"/>
				<path class="st10" d="M581.1,72h2.2V30.5l-2.2,0.5V72z"/>
				<path class="st10" d="M603.3,69.3h-1.7V26.2l1.7,0.2V69.3z"/>
				<path class="st10" d="M623.1,72.5l-1.7-0.4V29l1.7,0.2V72.5z"/>
				<path class="st10" d="M623.1,72.9c0-0.1-21.6-3.6-21.6-3.6v-3l21.6,3.9V72.9z"/>
				<path class="st10" d="M631.3,77.8h0.6V35.9l-0.6-0.5V77.8z"/>
				<path class="st10" d="M623.1,70.3l8.8,6.8v1.8l-8.8-6V70.3z"/>
				<path class="st4" d="M529,66.3L528.3,45l-0.7,21.3H529z"/>
				<path class="st4" d="M527.1,84.3V74.3l-5.9,2.5V86L527.1,84.3z"/>
				<path class="st3" d="M533.4,74.3h-6.3v13.8h6.3V74.3z"/>
				<path class="st5" d="M533.4,74.3l3.4,4.1v10.4l-3.4-0.6V74.3z"/>
				<path class="st5" d="M530.2,64.2c3.4,0.8,6,4.8,6,9.6h-5.8l3-0.6C533.4,67.7,531.5,65.3,530.2,64.2L530.2,64.2z"/>
				<path class="st4" d="M521.5,73.9c0-4.9,2.7-9,6.3-9.7c-0.7,1-1.5,3.5-1.6,9.7H521.5z"/>
				<path class="st3" d="M527.9,64.2c0.3-0.1,0.7-0.1,1-0.1c0.4,0,0.9,0.1,1.3,0.2c1.3,1,3.2,3.5,3.2,9.1l-3,0.6h-4.2
					C526.3,67.7,527.1,65.2,527.9,64.2L527.9,64.2z"/>
				<path class="st5" d="M538,79.6c0.3,0,0.6-0.1,0.8-0.3c0.6-0.5,0.7-1.3,0.2-1.9l-4.2-5.3c-0.3-0.3-0.6-0.5-1-0.5h-7
					c-0.2,0-0.4,0-0.5,0.1l-7.1,3.1c-0.7,0.3-1,1.1-0.7,1.7c0.3,0.7,1.1,1,1.7,0.7l6.8-3h6.1l3.8,4.8
					C537.3,79.4,537.6,79.6,538,79.6L538,79.6z"/>
				<path class="st8" d="M527.1,53.5c0,0.6,0.5,1.2,1.2,1.2c0.6,0,1.2-0.5,1.2-1.2c0-0.6-0.5-1.2-1.2-1.2
					C527.6,52.4,527.1,52.9,527.1,53.5z"/>
				<path class="st8" d="M528.3,45.8c0,0.1-2.7,0.8-2.7,0.8l2.7,0.9V45.8z"/>
				<path class="st4" d="M550.6,75.6L550,57.4l-0.6,18.2H550.6z"/>
				<path class="st4" d="M549,92.2v-9.8l-5.1,2.2v7.9L549,92.2z"/>
				<path class="st3" d="M554.4,82.4H549v11.8h5.4V82.4z"/>
				<path class="st5" d="M554.4,82.4l2.9,3.5v9.8l-2.9-1.4V82.4z"/>
				<path class="st5" d="M551.7,73.8c2.9,0.7,5.2,4.1,5.2,8.2h-5l2.6-0.5C554.4,76.7,552.8,74.7,551.7,73.8z"/>
				<path class="st4" d="M544.3,82c0-4.2,2.3-7.7,5.4-8.3c-0.6,0.8-1.3,3-1.4,8.3H544.3L544.3,82z"/>
				<path class="st3" d="M549.7,73.7c0.3-0.1,0.6-0.1,0.9-0.1c0.4,0,0.8,0,1.1,0.1c1.1,0.9,2.8,3,2.8,7.7l-2.6,0.5h-3.6
					C548.4,76.7,549.1,74.6,549.7,73.7L549.7,73.7z"/>
				<path class="st5" d="M558.4,86.9c0.2,0,0.5-0.1,0.7-0.2c0.5-0.4,0.6-1.1,0.2-1.6l-3.6-4.5c-0.2-0.3-0.5-0.4-0.9-0.4h-6
					c-0.2,0-0.3,0-0.5,0.1l-6,2.6c-0.6,0.2-0.8,0.9-0.6,1.5c0.3,0.6,0.9,0.8,1.5,0.6l5.8-2.5h5.2l3.3,4.1
					C557.7,86.7,558,86.9,558.4,86.9L558.4,86.9z"/>
				<path class="st8" d="M549,64.6c0,0.5,0.4,1,1,1s1-0.4,1-1s-0.4-1-1-1S549,64.1,549,64.6z"/>
				<path class="st8" d="M550,58c0,0.1-2.3,0.7-2.3,0.7l2.3,0.8V58z"/>
				<path class="st5" d="M561.6,97.7v2.2l-2.3,2.3l-28.3-14l-42.5,9.5l-3.4-1l2.5-2.9L531,82.9L561.6,97.7z"/>
				<path class="st11" d="M639,92.7v96l69.6,26.5v112.2H639v0.5h-25.2V76.7L639,92.7z"/>
				<path class="st5" d="M639.3,145.9l79.4,38.1l21.1,42.3l-100.5-36.1V145.9z"/>
			</g>
		</g>
	</g>
</g>
</svg>
