<?xml version="1.0" encoding="utf-8"?>
<!-- Generator: Adobe Illustrator 27.8.1, SVG Export Plug-In . SVG Version: 6.00 Build 0)  -->
<svg version="1.1" id="Layer_1" xmlns="http://www.w3.org/2000/svg" xmlns:xlink="http://www.w3.org/1999/xlink" x="0px" y="0px"
	 viewBox="0 0 681 229" style="enable-background:new 0 0 681 229;" xml:space="preserve">
<style type="text/css">
	.st0{clip-path:url(#SVGID_00000142884589691774526470000015495358034499533728_);}
	.st1{fill:#101010;}
	.st2{clip-path:url(#SVGID_00000085947247491682061560000010362720029278314383_);}
	.st3{fill:#FF8E91;}
	.st4{opacity:0.32;}
	.st5{fill:#FFFFFF;filter:url(#Adobe_OpacityMaskFilter);}
	.st6{mask:url(#mask0_5683_17549_00000134946131849442460140000006225263232653181575_);}
	.st7{fill:none;stroke:#EA5132;stroke-width:0.5;stroke-linecap:round;stroke-linejoin:round;}
	.st8{fill:#FFB7A6;stroke:#101010;stroke-width:0.5;stroke-linecap:round;stroke-linejoin:round;}
	.st9{fill:#FFFFFF;stroke:#261611;stroke-width:0.5;stroke-linecap:round;stroke-linejoin:round;}
	.st10{stroke:#000000;stroke-width:0.5;stroke-linecap:round;stroke-linejoin:round;}
	.st11{fill:#FFB7A6;stroke:#000000;stroke-width:0.5;stroke-linecap:round;stroke-linejoin:round;}
	.st12{fill:#101010;stroke:#101010;stroke-width:0.5;stroke-linecap:round;stroke-linejoin:round;}
	.st13{fill:#FFB7A6;}
	.st14{fill:none;stroke:#000000;stroke-width:0.5;stroke-linecap:round;stroke-linejoin:round;}
	.st15{fill:#FFFFFF;}
	.st16{fill:none;stroke:#261611;stroke-width:0.5;stroke-linecap:round;stroke-linejoin:round;}
	.st17{opacity:0.4;fill:#FF5A3D;enable-background:new    ;}
	.st18{opacity:0.3;fill:#00E9D3;enable-background:new    ;}
	.st19{fill:none;stroke:#00756A;stroke-width:0.5;stroke-linecap:round;stroke-linejoin:round;}
</style>
<g>
	<defs>
		<rect id="SVGID_1_" y="0" width="681" height="229"/>
	</defs>
	<clipPath id="SVGID_00000170280507447918056090000004754496748074660021_">
		<use xlink:href="#SVGID_1_"  style="overflow:visible;"/>
	</clipPath>
	<g style="clip-path:url(#SVGID_00000170280507447918056090000004754496748074660021_);">
		<path class="st1" d="M25,0h631c13.8,0,25,11.2,25,25v179c0,13.8-11.2,25-25,25H25c-13.8,0-25-11.2-25-25V25C0,11.2,11.2,0,25,0z"
			/>
		<g>
			<defs>
				
					<rect id="SVGID_00000074400296175146533590000008127306158138014906_" x="311.8" y="68.8" transform="matrix(1.234574e-02 -0.9999 0.9999 1.234574e-02 324.4012 752.9391)" width="463" height="287"/>
			</defs>
			<clipPath id="SVGID_00000111892328569089782030000003605489818338735290_">
				<use xlink:href="#SVGID_00000074400296175146533590000008127306158138014906_"  style="overflow:visible;"/>
			</clipPath>
			<g style="clip-path:url(#SVGID_00000111892328569089782030000003605489818338735290_);">
				<path class="st3" d="M554.6,82.7l-1.5,8.4l5.7,4l1.4-6.4L554.6,82.7z"/>
				<path class="st3" d="M562.6,103.3l-1.2,6.7l4.5,3.2l1.1-5.1L562.6,103.3z"/>
				<path class="st3" d="M544.9,92l-2.6,14.5l9.8,6.9l2.5-11.1L544.9,92z"/>
				<g class="st4">
					<defs>
						<filter id="Adobe_OpacityMaskFilter" filterUnits="userSpaceOnUse" x="529.7" y="74.6" width="50.2" height="50.3">
							<feColorMatrix  type="matrix" values="1 0 0 0 0  0 1 0 0 0  0 0 1 0 0  0 0 0 1 0"/>
						</filter>
					</defs>
					
						<mask maskUnits="userSpaceOnUse" x="529.7" y="74.6" width="50.2" height="50.3" id="mask0_5683_17549_00000134946131849442460140000006225263232653181575_">
						<path class="st5" d="M570.7,67.9l-47.6,16l15.9,47.7l47.6-16L570.7,67.9z"/>
					</mask>
					<g class="st6">
						<path class="st3" d="M578.7,91.7c-4.4-13.2-18.6-20.3-31.8-15.9c-13.1,4.4-20.2,18.7-15.8,31.8c4.4,13.2,18.6,20.3,31.8,15.9
							C576,119.1,583.1,104.9,578.7,91.7z"/>
					</g>
				</g>
				<path class="st7" d="M554.6,82.7l-1.5,8.4l5.7,4l1.4-6.4L554.6,82.7z"/>
				<path class="st7" d="M562.6,103.3l-1.2,6.7l4.5,3.2l1.1-5.1L562.6,103.3z"/>
				<path class="st7" d="M544.9,92l-2.6,14.5l9.8,6.9l2.5-11.1L544.9,92z"/>
				<path class="st8" d="M645.5,135.5l-7.9-23.7l-61.4-15c0,0-14.3-12.2-17.9-11.7c-1.8,0.3-8.3,0.2-12.8-0.3c-1.7-0.2-2.5,2.1-1,3
					c2,1.2,14.7,12.6,14.7,12.6l-11.1,2.2c-1.2,0.5-1.1,2.2,0.1,2.6c3.1,1.1,7.3,2.6,8,2.5c1.1-0.1,12.7-3.2,12.7-3.2l46.3,21.1
					l10.5,18.3L645.5,135.5L645.5,135.5z"/>
				<path class="st9" d="M646.1,129.9l11.5,22.3l-15.9,5.8l-20.9-15l-2-12.1L646.1,129.9z"/>
				<path class="st10" d="M649.6,122.8l-4.4-1.5l-1.1,3.1l4.4,1.5L649.6,122.8z"/>
				<path class="st11" d="M619.2,107.3c0,0-15.9,5-16,5.4c-0.1,0.4-2.2,4.1-2.2,4.1l1,3.2c0,0-5.3,6.9-5,7s3.9,2.3,3.9,2.3l-0.6,4.7
					l2.7,7.5l9.7-1.1c0,0,5,24.3,5.5,24.3c5.8,0.3,22.7-7.7,22.7-7.7l-3.4-18.5l5.9-17.7l-13.1-7.4L619.2,107.3L619.2,107.3z"/>
				<path class="st12" d="M626.4,113.9l-4.4,11.2l-2.8-0.4l-0.5-11.5L626.4,113.9z"/>
				<path d="M605.5,122.6c0.9,0,1.7-0.7,1.7-1.7c0-0.9-0.7-1.7-1.7-1.7c-0.9,0-1.7,0.7-1.7,1.7C603.8,121.8,604.6,122.6,605.5,122.6
					z"/>
				<path class="st9" d="M620.6,114.3l-9.9-9.7l0,0l0,0l-0.1,0c-0.3,0-21.5,0.8-21.5,0.8s-5.4,3.3,2.5,6.8l13.3,1.2
					c1.2,0.3,2.5,0.5,3.7,0.6C615.6,114.5,620.6,114.3,620.6,114.3L620.6,114.3z"/>
				<path class="st12" d="M635.3,137.5c-2.2-3.8-3.9-11.8-3.9-11.8s-2.4-10.4-1.3-12.2c1.1-1.8,12.8,2.7,13.2,3.2
					c0.4,0.5-4.1,16.3-4.1,16.3l-1.9,5.7L635.3,137.5L635.3,137.5z"/>
				<path class="st9" d="M620.5,114.8l24.9,9.2c0,0,8.6-20.5-13.6-29.1c0,0-10.8-2.2-20.5,2.2c0,0-4.2,3-9,9.5c0,0,13.3,3.1,17.6,8
					L620.5,114.8L620.5,114.8z"/>
				<path class="st13" d="M625,119.8c0.5-1.6,1.8-3.2,3.9-3c3.2,0.4,3.5,3.2,3.4,5.8c-0.5,3.6-2.4,6.3-6.4,7.6
					c-0.9,0.2-1.5,0.1-2.3-0.2"/>
				<path class="st14" d="M625,119.8c0.5-1.6,1.8-3.2,3.9-3c3.2,0.4,3.5,3.2,3.4,5.8c-0.5,3.6-2.4,6.3-6.4,7.6
					c-0.9,0.2-1.5,0.1-2.3-0.2"/>
				<path class="st14" d="M600.2,134l4.5,0.1"/>
				<path class="st8" d="M553.1,179.2c-0.6-0.7-29.2-26.7-29.2-26.7l-3.3-16.4c-0.2-0.9-0.8-1.8-1.6-2.3l-8.7-5.3
					c-0.8-0.5-1.7-0.7-2.6-0.8l-13-1c0,0-0.6,5.1,1.7,5.3c2.3,0.2,10.8,1.9,10.8,1.9l-3.3-0.5l-1.5,6.8c-0.2,1.3,0.3,2.6,1.3,3.3
					l4.2,3.3l0.8-3.9c0,0-2.3,5.4,1.9,10.2c1.7,1.9,4.2,2.8,4.2,2.8c11.4,18.7,23.6,37.1,34.2,44.3l39.8-2.4l-7.3-21.2L553.1,179.2z
					"/>
				<path class="st15" d="M657.6,152.2c8.5,33.7,5.9,86.2,5.9,86.2s-13.5,6.8-30.8,8.1s-33.8-8.7-33.8-8.7l4.7-39.6l-23.4,4.9
					c0.1-6.1-5.6-27.8-5.6-27.8s9.1-1.5,15.7-6.2c9.8-6.9,18.3-11.1,22.3-12.5c7.7,0.4,11.7,0.4,16.7-1.5c9.6-3.7,10.2-9.7,10.2-9.7
					"/>
				<path class="st16" d="M657.6,152.2c8.5,33.7,5.9,86.2,5.9,86.2s-13.5,6.8-30.8,8.1s-33.8-8.7-33.8-8.7l4.7-39.6l-23.4,4.9
					c0.1-6.1-5.6-27.8-5.6-27.8s9.1-1.5,15.7-6.2c9.8-6.9,18.3-11.1,22.3-12.5c7.7,0.4,11.7,0.4,16.7-1.5c9.6-3.7,10.2-9.7,10.2-9.7
					"/>
				<path class="st17" d="M401.2,98.8l51.1-44.6l42.5,68.6l-44,47.8L401.2,98.8z"/>
				<path class="st7" d="M417.1,85.1l35.8-32l42.5,68.6l-44,47.8l-49.6-71.8"/>
				<path class="st18" d="M457.2,26.3l51.1-44.6l42.5,68.6l-44,47.8L457.2,26.3z"/>
				<path class="st19" d="M551.3,49.2l-44,47.8l-49.6-71.8"/>
				<path class="st19" d="M473,12.6l35.8-32l28.6,46"/>
				<path class="st19" d="M540.4,32.6l7,9.7"/>
				<path class="st19" d="M491.2,17.8l21-20.3"/>
				<path class="st19" d="M499,21.5l16.8-16.3"/>
				<path class="st19" d="M505.2,27.6L522,11.4"/>
				<path class="st19" d="M506.6,79.6l31.9-33.8"/>
				<path class="st19" d="M500.4,72.3l31.9-33.8"/>
				<path class="st19" d="M512.4,31.7L523.5,21"/>
				<path class="st7" d="M433,113.2c0,0-5.3-0.8-7.6-4.3c-2.3-3.5-3.1-8.9-0.7-11.4c2-2,15.9-12.6,21.5-16.8c1.3-1,3.1-0.6,4.2,0.8
					l14.6,18.7"/>
				<path class="st7" d="M429,104.9l1.8-1.2l16.5,21.9c0,0,3.9,6.4,9.7,2.5c3.5-2.3,2.9-7,0.8-10c-2.1-3-7.2-2.8-10.2-0.5l3.8,4.7
					l1.6-1.1"/>
				<path class="st7" d="M457,128.1c0.1,0.1,12.7-9.9,15.4-12.4c3.7-3.4,2.8-6.8,1.3-9c-1.7-2.6-5.1-4.5-9.1-1.8
					c-4.1,2.7-16.3,12.3-16.3,12.3"/>
				<path class="st7" d="M435.8,100.4l11.6-9"/>
				<path class="st7" d="M440.4,105.3l13.5-10.4"/>
				<path class="st7" d="M444.4,110.5l11.6-9"/>
				<path class="st19" d="M484.9,22.6c0,0-10.5,10.3-7.6,14.4c4.2,5.8,22.4-4.4,20-6.9c-3.7-3.8-17.2,14.3-12.5,20
					c6.7,8.1,22.8-5.7,20.2-9.4c-2.4-3.6-16.9,15.4-7.6,20.9"/>
			</g>
		</g>
	</g>
</g>
</svg>
