<svg width="444" height="149" viewBox="0 0 444 149" fill="none" xmlns="http://www.w3.org/2000/svg">
<g clip-path="url(#clip0_180_380)">
<rect width="444" height="149" rx="25" fill="#101010"/>
<g clip-path="url(#clip1_180_380)">
<path d="M375.515 100.741C375.515 100.741 374.298 92.9751 389.573 92.9082C389.573 92.9082 390.992 89.5604 394.709 87.3516C394.709 87.3516 381.599 85.0758 373.218 94.4484C373.218 94.4484 370.583 98.398 375.515 100.743V100.741Z" fill="#E5DCD1" stroke="black" stroke-width="0.5" stroke-linecap="round" stroke-linejoin="round"/>
<path d="M415.726 94.1316C415.726 94.1316 415.377 92.1449 407.878 96.2045C400.379 100.264 399.593 103.72 399.593 103.72H408.27C408.27 103.72 415.9 101.259 415.726 94.1294V94.1316Z" fill="#E5DCD1" stroke="black" stroke-width="0.5" stroke-linecap="round" stroke-linejoin="round"/>
<path d="M382.848 107.221C382.848 107.221 367.282 110.519 363.184 119.648C363.184 119.648 362.879 122.038 365.845 124.197C365.845 124.197 364.1 116.334 380.19 113.097L382.851 107.223L382.848 107.221Z" fill="#E5DCD1" stroke="black" stroke-width="0.5" stroke-linecap="round" stroke-linejoin="round"/>
<path d="M385.915 139.128C385.915 139.128 387.5 132.659 411.846 118.983C411.846 118.983 423.443 112.71 422.194 117.242C422.194 117.242 425.625 113.985 425.59 112.037C425.556 110.089 421.015 110.303 411.469 115.012C401.923 119.723 376.092 135.478 385.915 139.128Z" fill="#E5DCD1" stroke="black" stroke-width="0.5" stroke-linecap="round" stroke-linejoin="round"/>
<path d="M414.468 124.196C414.468 124.196 412.978 123.12 410.575 127.231C408.171 131.343 412.136 135.444 412.136 135.444C412.136 135.444 417.849 129.466 414.468 124.196Z" fill="#E5DCD1" stroke="black" stroke-width="0.5" stroke-linecap="round" stroke-linejoin="round"/>
<path d="M418.722 131.459C418.722 131.459 417.905 135.963 426.942 134.751C435.978 133.539 433.587 127.128 446.996 121.871C460.405 116.616 462.678 124.069 462.678 124.069L462.328 125.452C462.328 125.452 459.005 120.253 452.475 122.738C445.945 125.221 441.749 130.926 439.181 133.877C436.616 136.83 433.326 139.428 425.585 139.891C417.844 140.355 413.705 136.541 413.705 136.541L418.72 131.459H418.722Z" fill="#E5DCD1" stroke="black" stroke-width="0.5" stroke-linecap="round" stroke-linejoin="round"/>
<path d="M323.787 136.81C323.787 136.81 325.013 138.747 328.131 137.895C328.131 137.895 327.833 139.866 325.113 141.344C322.393 142.821 321.42 141.141 321.42 141.141C321.42 141.141 319.942 138.389 323.787 136.812V136.81Z" fill="#E5DCD1" stroke="black" stroke-width="0.5" stroke-linecap="round" stroke-linejoin="round"/>
<path d="M435.823 119.753C435.823 119.753 435.672 120.312 435.566 120.674C435.459 121.036 435.202 122.003 435.74 122.091C436.278 122.18 436.572 122.197 436.572 122.197L436.942 123.472C436.942 123.472 438.251 124.123 438.575 122.684L437.948 121.666L438.743 120.234L438.153 118.862C438.153 118.862 435.679 118.083 435.823 119.753Z" fill="#F0BD83" stroke="#101010" stroke-width="0.5" stroke-miterlimit="10"/>
<path d="M437.066 120.482C437.066 120.482 436.709 120.161 436.321 120.437C436.321 120.437 436.57 120.938 437.066 120.482Z" fill="#FEECDA" stroke="#101010" stroke-width="0.5" stroke-miterlimit="10" stroke-linecap="round"/>
<path d="M436.65 120.359C436.633 120.361 436.707 120.514 436.615 120.616C436.615 120.616 436.439 120.568 436.376 120.465C436.376 120.465 436.417 120.348 436.65 120.359Z" fill="#101010"/>
<path d="M435.995 119.22L435.82 119.753C435.82 119.753 435.42 119.641 435.435 119.22C435.45 118.8 435.753 118.187 436.175 118.388C436.6 118.59 436.772 118.666 436.992 118.515C437.212 118.366 438.625 118.036 438.679 118.651C438.679 118.651 439.383 118.815 439.263 119.79C439.143 120.765 437.948 121.664 437.948 121.664L437.737 121.17C437.737 121.17 438.22 121.011 438.137 120.674C438.137 120.674 438.039 120.443 437.774 120.549C437.508 120.655 437.312 120.24 437.449 119.997C437.586 119.753 437.419 119.44 437.419 119.44C437.419 119.44 436.504 119.649 436.376 119.365C436.247 119.08 435.997 119.222 435.997 119.222L435.995 119.22Z" fill="#4C3211" stroke="#101010" stroke-width="0.5" stroke-miterlimit="10" stroke-linecap="round"/>
<path d="M435.951 120.499C435.951 120.499 435.7 120.652 435.709 120.788C435.718 120.924 435.951 120.997 435.951 120.997" stroke="#101010" stroke-width="0.5" stroke-miterlimit="10" stroke-linecap="round"/>
<path d="M436.374 121.559C436.374 121.559 436.585 121.626 436.729 121.38" stroke="#101010" stroke-width="0.5" stroke-miterlimit="10" stroke-linecap="round"/>
<path d="M436.569 122.195H436.942" stroke="#101010" stroke-width="0.5" stroke-miterlimit="10" stroke-linecap="round"/>
<path d="M429.181 123.616L425.175 122.546C425.175 122.546 424.783 121.782 424.286 121.662C423.79 121.541 423.233 121.377 423.233 121.377C423.233 121.377 422.923 121.582 423.233 121.787C423.542 121.992 423.213 122.156 422.531 122.011L421.316 122.891C421.316 122.891 423.15 123.426 424.286 123.415C424.286 123.415 427.507 125.182 429.366 125.857L429.181 123.616Z" fill="#F0BD83" stroke="#101010" stroke-width="0.5" stroke-miterlimit="10"/>
<path d="M437.199 124.188C437.199 124.188 438.144 124.622 438.991 123.649C438.991 123.649 439.385 123.2 439.172 122.547" stroke="#101010" stroke-width="0.5" stroke-miterlimit="10" stroke-linecap="round"/>
<path d="M444.639 126.813C444.639 126.813 447.431 128.472 448.794 131.238C450.159 134.003 451.553 135.077 451.553 135.077L456.11 136.766C456.11 136.766 453.68 140.282 449.144 141.596C449.144 141.596 446.126 140.108 443.831 137.331C441.536 134.555 439.677 130.194 439.677 130.194L444.637 126.816L444.639 126.813Z" fill="#E0C091" stroke="black" stroke-width="0.5" stroke-linecap="round" stroke-linejoin="round"/>
<path d="M428.519 122.819C428.519 122.819 434.176 123.276 437.495 122.415C440.813 121.552 446.605 117.808 446.605 117.808C446.605 117.808 447.489 120.709 447.115 122.195C447.115 122.195 444.548 123.364 443.156 123.617C443.156 123.617 444.021 125.325 445.244 126.833C445.244 126.833 442.612 130.12 439.278 131.386C439.278 131.386 436.338 127.965 435.951 126.348C435.951 126.348 430.668 127.883 427.84 127.506L428.519 122.819Z" fill="#F2A998" stroke="#101010" stroke-width="0.5" stroke-miterlimit="10" stroke-linecap="round"/>
<path d="M442.995 130.716C442.995 130.716 446.562 135.871 447.894 137.332C449.227 138.794 451.927 139.1 451.927 139.1" stroke="black" stroke-width="0.5" stroke-linecap="round" stroke-linejoin="round"/>
<path d="M413.192 115.651L404.46 109.732L396.279 89.209L413.192 115.651Z" fill="#34DBCC" stroke="black" stroke-width="0.5" stroke-linecap="round" stroke-linejoin="round"/>
<path d="M378.237 112.93L404.46 109.732L396.28 89.209L378.237 112.93Z" fill="#A6F6EA" stroke="black" stroke-width="0.5" stroke-linecap="round" stroke-linejoin="round"/>
<path d="M378.237 112.93L404.46 109.731L413.192 115.65L387.657 118.767L378.237 112.93Z" fill="#84E0D1" stroke="black" stroke-width="0.5" stroke-linecap="round" stroke-linejoin="round"/>
<path d="M378.855 115.782L404.097 112.894L394.869 141.154L378.855 115.782Z" fill="#7BF0E4" stroke="black" stroke-width="0.5" stroke-linecap="round" stroke-linejoin="round"/>
<path d="M412.638 118.465L404.096 112.894L394.868 141.154L412.638 118.465Z" fill="#34DBCC" stroke="black" stroke-width="0.5" stroke-linecap="round" stroke-linejoin="round"/>
<path d="M458.971 120.592C458.971 120.592 463.483 122.566 460.536 129.755C457.593 136.945 448.299 141.958 439.559 141.593C430.818 141.229 419.054 135.668 409.799 137.674C400.547 139.68 394.278 145.694 394.278 145.694C394.278 145.694 385.458 152.985 373.956 146.606C362.455 140.226 356.75 129.037 348.01 124.194C339.269 119.352 321.695 127.072 318.106 133.875L321.418 141.136C321.418 141.136 322.89 134.665 333.747 132.842C344.604 131.019 353.621 140.42 355.829 143.559C358.037 146.697 372.85 161.281 392.815 149.613C412.78 137.946 418.302 139.952 428.974 143.142C439.648 146.333 448.203 149.068 459.705 141.41C471.206 133.755 465.593 124.067 465.593 124.067C465.593 124.067 462.37 121.185 458.967 120.59L458.971 120.592Z" fill="white" stroke="black" stroke-width="0.5" stroke-linecap="round" stroke-linejoin="round"/>
<mask id="mask0_180_380" style="mask-type:luminance" maskUnits="userSpaceOnUse" x="318" y="121" width="149" height="33">
<mask id="mask1_180_380" style="mask-type:luminance" maskUnits="userSpaceOnUse" x="318" y="121" width="149" height="33">
<path d="M377.547 153.457C365.923 153.457 357.863 145.375 356.338 143.211C354.143 140.092 346.311 132.001 336.543 132.001C335.574 132.001 334.601 132.083 333.647 132.242C325.56 133.601 322.487 137.46 321.386 139.579L318.799 133.905C321.616 129.063 332.332 123.293 341.262 123.293C343.818 123.293 345.989 123.776 347.709 124.729C351.698 126.938 355.095 130.555 358.692 134.386C362.986 138.959 367.428 143.686 373.653 147.141C376.878 148.929 380.203 149.838 383.539 149.838C390.156 149.838 394.492 146.317 394.673 146.166L394.69 146.151L394.707 146.136C394.768 146.078 400.97 140.215 409.932 138.273C411.239 137.991 412.626 137.853 414.174 137.853C418.62 137.853 423.443 139.018 428.107 140.144C432.195 141.129 436.055 142.061 439.533 142.208C439.837 142.221 440.149 142.227 440.458 142.227C449.373 142.227 458.252 136.966 461.109 129.99C462.72 126.056 462.156 123.577 461.401 122.192C461.364 122.126 461.327 122.059 461.288 121.996C463.202 122.885 464.75 124.157 465.107 124.462C465.34 124.904 466.392 127.074 466.348 129.923C466.285 134.171 463.935 137.868 459.365 140.909C454.407 144.21 449.747 145.748 444.702 145.748C439.8 145.748 435.095 144.339 429.647 142.711L428.536 142.378C424.404 141.14 420.833 140.07 416.824 140.07C410.52 140.07 403.474 142.685 392.506 149.093C387.546 151.993 382.511 153.462 377.547 153.462V153.457Z" fill="white"/>
</mask>
<g mask="url(#mask1_180_380)">
<path d="M377.547 153.457C365.923 153.457 357.863 145.375 356.338 143.211C354.143 140.092 346.311 132.001 336.543 132.001C335.574 132.001 334.601 132.083 333.647 132.242C325.56 133.601 322.487 137.46 321.386 139.579L318.799 133.905C321.616 129.063 332.332 123.293 341.262 123.293C343.818 123.293 345.989 123.776 347.709 124.729C351.698 126.938 355.095 130.555 358.692 134.386C362.986 138.959 367.428 143.686 373.653 147.141C376.878 148.929 380.203 149.838 383.539 149.838C390.156 149.838 394.492 146.317 394.673 146.166L394.69 146.151L394.707 146.136C394.768 146.078 400.97 140.215 409.932 138.273C411.239 137.991 412.626 137.853 414.174 137.853C418.62 137.853 423.443 139.018 428.107 140.144C432.195 141.129 436.055 142.061 439.533 142.208C439.837 142.221 440.149 142.227 440.458 142.227C449.373 142.227 458.252 136.966 461.109 129.99C462.72 126.056 462.156 123.577 461.401 122.192C461.364 122.126 461.327 122.059 461.288 121.996C463.202 122.885 464.75 124.157 465.107 124.462C465.34 124.904 466.392 127.074 466.348 129.923C466.285 134.171 463.935 137.868 459.365 140.909C454.407 144.21 449.747 145.748 444.702 145.748C439.8 145.748 435.095 144.339 429.647 142.711L428.536 142.378C424.404 141.14 420.833 140.07 416.824 140.07C410.52 140.07 403.474 142.685 392.506 149.093C387.546 151.993 382.511 153.462 377.547 153.462V153.457Z" fill="white"/>
</g>
</mask>
<g mask="url(#mask0_180_380)">
<path d="M318.696 131.032L322.481 139.583" stroke="#E5DCD1" stroke-width="0.5" stroke-linejoin="round"/>
<path d="M319.996 129.522L323.781 138.073" stroke="#E5DCD1" stroke-width="0.5" stroke-linejoin="round"/>
<path d="M321.524 128.435L325.309 136.985" stroke="#E5DCD1" stroke-width="0.5" stroke-linejoin="round"/>
<path d="M323.167 127.16L326.951 135.711" stroke="#E5DCD1" stroke-width="0.5" stroke-linejoin="round"/>
<path d="M325.31 125.633L328.846 134.615" stroke="#E5DCD1" stroke-width="0.5" stroke-linejoin="round"/>
<path d="M327.665 124.494L330.72 134.067" stroke="#E5DCD1" stroke-width="0.5" stroke-linejoin="round"/>
<path d="M330.721 122.889L332.591 133.45" stroke="#E5DCD1" stroke-width="0.5" stroke-linejoin="round"/>
<path d="M334.141 122.073L335.077 133.45" stroke="#E5DCD1" stroke-width="0.5" stroke-linejoin="round"/>
<path d="M337.636 120.888V133.451" stroke="#E5DCD1" stroke-width="0.5" stroke-linejoin="round"/>
<path d="M341.446 120.592L340.196 133.826" stroke="#E5DCD1" stroke-width="0.5" stroke-linejoin="round"/>
<path d="M345.509 121.439L342.755 134.378" stroke="#E5DCD1" stroke-width="0.5" stroke-linejoin="round"/>
<path d="M349.37 122.708L345.22 135.405" stroke="#E5DCD1" stroke-width="0.5" stroke-linejoin="round"/>
<path d="M352.665 124.979L347.722 136.884" stroke="#E5DCD1" stroke-width="0.5" stroke-linejoin="round"/>
<path d="M355.569 127.16L350.008 138.364" stroke="#E5DCD1" stroke-width="0.5" stroke-linejoin="round"/>
<path d="M357.98 129.522L351.979 140.217" stroke="#E5DCD1" stroke-width="0.5" stroke-linejoin="round"/>
<path d="M359.646 131.639L353.645 142.336" stroke="#E5DCD1" stroke-width="0.5" stroke-linejoin="round"/>
<path d="M361.287 133.379L355.286 144.074" stroke="#E5DCD1" stroke-width="0.5" stroke-linejoin="round"/>
<path d="M363.175 135.711L356.678 146.013" stroke="#E5DCD1" stroke-width="0.5" stroke-linejoin="round"/>
<path d="M365.46 137.859L358.581 147.758" stroke="#E5DCD1" stroke-width="0.5" stroke-linejoin="round"/>
<path d="M367.733 139.389L360.854 149.288" stroke="#E5DCD1" stroke-width="0.5" stroke-linejoin="round"/>
<path d="M369.678 141.064L362.797 150.961" stroke="#E5DCD1" stroke-width="0.5" stroke-linejoin="round"/>
<path d="M371.42 142.87L364.541 152.767" stroke="#E5DCD1" stroke-width="0.5" stroke-linejoin="round"/>
<path d="M373.707 143.692L366.89 154.148" stroke="#E5DCD1" stroke-width="0.5" stroke-linejoin="round"/>
<path d="M376.26 144.156L369.938 155.371" stroke="#E5DCD1" stroke-width="0.5" stroke-linejoin="round"/>
<path d="M378.398 145.761L372.943 156.307" stroke="#E5DCD1" stroke-width="0.5" stroke-linejoin="round"/>
<path d="M380.402 145.761L376.73 156.643" stroke="#E5DCD1" stroke-width="0.5" stroke-linejoin="round"/>
<path d="M383.047 145.653L380.646 156.644" stroke="#E5DCD1" stroke-width="0.5" stroke-linejoin="round"/>
<path d="M385.026 145.372L384.582 156.205" stroke="#E5DCD1" stroke-width="0.5" stroke-linejoin="round"/>
<path d="M387.008 144.734L388.87 155.619" stroke="#E5DCD1" stroke-width="0.5" stroke-linejoin="round"/>
<path d="M389.046 143.923L392.438 153.953" stroke="#E5DCD1" stroke-width="0.5" stroke-linejoin="round"/>
<path d="M390.783 143.013L395.027 152.415" stroke="#E5DCD1" stroke-width="0.5" stroke-linejoin="round"/>
<path d="M392.438 142.607L397.754 150.709" stroke="#E5DCD1" stroke-width="0.5" stroke-linejoin="round"/>
<path d="M393.843 141.596L400.131 149.357" stroke="#E5DCD1" stroke-width="0.5" stroke-linejoin="round"/>
<path d="M395.171 140.229L403.275 148.034" stroke="#E5DCD1" stroke-width="0.5" stroke-linejoin="round"/>
<path d="M397.368 137.859L405.22 147.2" stroke="#E5DCD1" stroke-width="0.5" stroke-linejoin="round"/>
<path d="M400.171 137.018L408.021 146.358" stroke="#E5DCD1" stroke-width="0.5" stroke-linejoin="round"/>
<path d="M403.463 136.395L410.183 145.012" stroke="#E5DCD1" stroke-width="0.5" stroke-linejoin="round"/>
<path d="M406.822 135.383L412.638 144.156" stroke="#E5DCD1" stroke-width="0.5" stroke-linejoin="round"/>
<path d="M410.472 134.937L415.094 143.692" stroke="#E5DCD1" stroke-width="0.5" stroke-linejoin="round"/>
<path d="M414.287 134.751L417.595 143.561" stroke="#E5DCD1" stroke-width="0.5" stroke-linejoin="round"/>
<path d="M417.186 134.695L420.493 143.505" stroke="#E5DCD1" stroke-width="0.5" stroke-linejoin="round"/>
<path d="M420.493 134.908L423.102 143.692" stroke="#E5DCD1" stroke-width="0.5" stroke-linejoin="round"/>
<path d="M424.038 135.14L425.591 143.923" stroke="#E5DCD1" stroke-width="0.5" stroke-linejoin="round"/>
<path d="M426.769 135.838L428.321 144.619" stroke="#E5DCD1" stroke-width="0.5" stroke-linejoin="round"/>
<path d="M429.368 136.355L430.919 145.137" stroke="#E5DCD1" stroke-width="0.5" stroke-linejoin="round"/>
<path d="M431.774 137.203L433.325 145.985" stroke="#E5DCD1" stroke-width="0.5" stroke-linejoin="round"/>
<path d="M433.773 138.036L435.999 146.818" stroke="#E5DCD1" stroke-width="0.5" stroke-linejoin="round"/>
<path d="M435.576 138.215L438.501 147.175" stroke="#E5DCD1" stroke-width="0.5" stroke-linejoin="round"/>
<path d="M437.793 138.907L441.114 147.87" stroke="#E5DCD1" stroke-width="0.5" stroke-linejoin="round"/>
<path d="M440.06 139.1L443.618 147.568" stroke="#E5DCD1" stroke-width="0.5" stroke-linejoin="round"/>
<path d="M442.689 139.1L446.245 147.568" stroke="#E5DCD1" stroke-width="0.5" stroke-linejoin="round"/>
</g>
<path d="M383.902 135.613C383.902 135.613 382.986 137.985 387.473 139.603C391.963 141.221 416.856 137.148 414.465 124.197C414.465 124.197 419.537 124.877 420.412 126.147C420.412 126.147 422.803 134.732 411.258 139.94C399.715 145.149 391.495 143.762 386.947 141.799C382.4 139.836 383.9 135.615 383.9 135.615L383.902 135.613Z" fill="white" stroke="black" stroke-width="0.5" stroke-linecap="round" stroke-linejoin="round"/>
<path d="M363.506 118.988C363.506 118.988 362.731 120.14 367.304 121.973C371.879 123.807 400.835 127.616 416.112 119.646C416.112 119.646 424.922 114.773 425.538 111.729C425.538 111.729 425.899 116.199 423.711 121.354C423.711 121.354 415.4 127.994 397.094 129.668C378.788 131.342 369.401 127.01 366.894 125.625C364.388 124.238 361.897 121.374 363.506 118.988Z" fill="white" stroke="black" stroke-width="0.5" stroke-linecap="round" stroke-linejoin="round"/>
<path d="M374.396 93.2344C374.396 93.2344 370.093 97.5658 377.048 100.743C384.003 103.921 394.81 102.564 398.298 102.091C401.786 101.617 415.576 97.8333 415.726 94.136C415.726 94.136 417.357 99.1103 414.942 103.379C414.942 103.379 404.867 108.554 392.149 108.36C379.43 108.166 374.392 105.676 371.981 101.073C369.571 96.4678 374.396 93.2365 374.396 93.2365V93.2344Z" fill="white" stroke="black" stroke-width="0.5" stroke-linecap="round" stroke-linejoin="round"/>
<mask id="mask2_180_380" style="mask-type:luminance" maskUnits="userSpaceOnUse" x="384" y="124" width="37" height="19">
<path d="M396.077 142.948C392.014 142.948 389.005 142.016 387.197 141.236C385.634 140.56 384.87 139.609 384.523 138.684C385.131 139.206 386.008 139.723 387.263 140.176C387.949 140.424 388.985 140.55 390.342 140.55C396.565 140.55 408.025 137.875 412.857 132.135C414.679 129.969 415.463 127.549 415.195 124.926C417.212 125.264 419.33 125.868 419.846 126.421C420.081 127.447 421.331 134.723 411.006 139.383C405.76 141.749 400.737 142.95 396.077 142.95V142.948Z" fill="white"/>
</mask>
<g mask="url(#mask2_180_380)">
<path d="M384.271 136.47C384.271 136.47 384.382 140.007 386.163 142.65" stroke="#E5DCD1" stroke-width="0.5" stroke-linejoin="round"/>
<path d="M385.784 136.862C385.784 136.862 385.902 140.368 389.397 145.303" stroke="#E5DCD1" stroke-width="0.5" stroke-linejoin="round"/>
<path d="M387.941 137.724L391.488 145.683" stroke="#E5DCD1" stroke-width="0.5" stroke-linejoin="round"/>
<path d="M390.337 137.941L393.79 145.306" stroke="#E5DCD1" stroke-width="0.5" stroke-linejoin="round"/>
<path d="M392.924 137.941L396.018 144.734" stroke="#E5DCD1" stroke-width="0.5" stroke-linejoin="round"/>
<path d="M395.679 137.331L398.668 144.411" stroke="#E5DCD1" stroke-width="0.5" stroke-linejoin="round"/>
<path d="M398.248 136.841L401.399 143.78" stroke="#E5DCD1" stroke-width="0.5" stroke-linejoin="round"/>
<path d="M401.101 136.08L404.097 143.097" stroke="#E5DCD1" stroke-width="0.5" stroke-linejoin="round"/>
<path d="M404.097 135.197L407.152 142.223" stroke="#E5DCD1" stroke-width="0.5" stroke-linejoin="round"/>
<path d="M407.151 134.319L410.054 141.153" stroke="#E5DCD1" stroke-width="0.5" stroke-linejoin="round"/>
<path d="M409.627 132.991L413.418 139.588" stroke="#E5DCD1" stroke-width="0.5" stroke-linejoin="round"/>
<path d="M411.243 131.669L416.598 137.344" stroke="#E5DCD1" stroke-width="0.5" stroke-linejoin="round"/>
<path d="M412.669 129.755L418.859 134.319" stroke="#E5DCD1" stroke-width="0.5" stroke-linejoin="round"/>
<path d="M413.418 127.993L420.619 130.884" stroke="#E5DCD1" stroke-width="0.5" stroke-linejoin="round"/>
<path d="M413.921 126.179L421.318 127.993" stroke="#E5DCD1" stroke-width="0.5" stroke-linejoin="round"/>
</g>
<mask id="mask3_180_380" style="mask-type:luminance" maskUnits="userSpaceOnUse" x="363" y="114" width="62" height="16">
<path d="M389.076 129.436C376.421 129.436 369.56 126.399 367.197 125.091C365.396 124.095 364.02 122.581 363.694 121.232C363.641 121.021 363.615 120.818 363.615 120.62C364.301 121.254 365.449 121.888 367.075 122.542C369.703 123.594 379.31 125.12 389.812 125.12C397.632 125.12 408.591 124.263 416.401 120.188C417.144 119.779 422.389 116.826 424.88 114.013C424.743 115.725 424.338 118.254 423.208 120.969C422.712 121.336 420.656 122.775 416.965 124.349C413.031 126.028 406.381 128.206 397.039 129.061C394.307 129.311 391.628 129.438 389.078 129.438L389.076 129.436Z" fill="white"/>
</mask>
<g mask="url(#mask3_180_380)">
<path d="M424.652 112.524C424.652 112.524 423.384 120.836 421.995 124.196" stroke="#E5DCD1" stroke-width="0.5" stroke-linejoin="round"/>
<path d="M421.459 115.65L420.016 124.926" stroke="#E5DCD1" stroke-width="0.5" stroke-linejoin="round"/>
<path d="M418.692 117.264L417.655 126.017" stroke="#E5DCD1" stroke-width="0.5" stroke-linejoin="round"/>
<path d="M416.112 119.039L415.511 127.234" stroke="#E5DCD1" stroke-width="0.5" stroke-linejoin="round"/>
<path d="M412.669 120.299L413.192 127.948" stroke="#E5DCD1" stroke-width="0.5" stroke-linejoin="round"/>
<path d="M409.801 121.379C410.136 121.661 410.781 128.59 410.781 128.59" stroke="#E5DCD1" stroke-width="0.5" stroke-linejoin="round"/>
<path d="M407.389 121.989L408.072 129.166" stroke="#E5DCD1" stroke-width="0.5" stroke-linejoin="round"/>
<path d="M404.46 122.751L405.414 129.755" stroke="#E5DCD1" stroke-width="0.5" stroke-linejoin="round"/>
<path d="M401.073 123.616L402.565 129.962" stroke="#E5DCD1" stroke-width="0.5" stroke-linejoin="round"/>
<path d="M397.712 124.05L399.593 130.377" stroke="#E5DCD1" stroke-width="0.5" stroke-linejoin="round"/>
<path d="M394.277 123.616L397.03 131.032" stroke="#E5DCD1" stroke-width="0.5" stroke-linejoin="round"/>
<path d="M390.461 124.05L393.357 131.032" stroke="#E5DCD1" stroke-width="0.5" stroke-linejoin="round"/>
<path d="M386.049 124.05L389.644 131.032" stroke="#E5DCD1" stroke-width="0.5" stroke-linejoin="round"/>
<path d="M381.847 123.616L386.049 131.032" stroke="#E5DCD1" stroke-width="0.5" stroke-linejoin="round"/>
<path d="M377.822 123.135L382.848 130.706" stroke="#E5DCD1" stroke-width="0.5" stroke-linejoin="round"/>
<path d="M373.707 122.751L378.537 130.098" stroke="#E5DCD1" stroke-width="0.5" stroke-linejoin="round"/>
<path d="M369.818 121.641L374.197 129.756" stroke="#E5DCD1" stroke-width="0.5" stroke-linejoin="round"/>
<path d="M366.55 120.592L371.029 129.166" stroke="#E5DCD1" stroke-width="0.5" stroke-linejoin="round"/>
<path d="M364.083 119.337C364.083 119.337 364.475 122.752 367.321 127.234" stroke="#E5DCD1" stroke-width="0.5" stroke-linejoin="round"/>
</g>
<path d="M422.884 103.21L426.418 98.6221L431.45 99.7265L422.884 103.21Z" fill="#483231" stroke="black" stroke-width="0.5" stroke-linecap="round" stroke-linejoin="round"/>
<path d="M422.884 103.21L426.418 98.6216L423.435 94.4434L422.884 103.21Z" fill="#84F3E3" stroke="black" stroke-width="0.5" stroke-linecap="round" stroke-linejoin="round"/>
<path d="M423.435 94.4434L428.443 95.7398L431.45 99.7261L426.418 98.6216L423.435 94.4434Z" fill="#30CCBC" stroke="black" stroke-width="0.5" stroke-linecap="round" stroke-linejoin="round"/>
<path d="M432.001 90.96L426.37 98.5249L431.45 99.7264L432.001 90.96Z" fill="#34DBCC" stroke="black" stroke-width="0.5" stroke-linecap="round" stroke-linejoin="round"/>
<path d="M432.001 90.96L426.37 98.5249L423.435 94.4437L432.001 90.96Z" fill="#B8F7EE" stroke="black" stroke-width="0.5" stroke-linecap="round" stroke-linejoin="round"/>
<path d="M347.722 130.536L344.894 126.296L347.278 122.467L347.722 130.536Z" fill="#7BF0E4" stroke="black" stroke-width="0.5" stroke-linecap="round" stroke-linejoin="round"/>
<path d="M347.723 130.537L344.894 126.296L340.52 127.545L347.723 130.537Z" fill="#483231" stroke="black" stroke-width="0.5" stroke-linecap="round" stroke-linejoin="round"/>
<path d="M340.52 127.545L343.061 123.791L347.278 122.467L344.894 126.296L340.52 127.545Z" fill="#30CCBC" stroke="black" stroke-width="0.5" stroke-linecap="round" stroke-linejoin="round"/>
<path d="M340.073 119.475L344.798 126.306L347.278 122.466L340.073 119.475Z" fill="#B8F7EE" stroke="black" stroke-width="0.5" stroke-linecap="round" stroke-linejoin="round"/>
<path d="M340.073 119.475L344.798 126.306L340.52 127.544L340.073 119.475Z" fill="#7BF0E4" stroke="black" stroke-width="0.5" stroke-linecap="round" stroke-linejoin="round"/>
<path d="M353.771 99.772C353.218 98.0852 351.683 96.1567 349.484 94.6144C347.285 93.0721 344.939 92.2805 343.147 92.3258L341.976 91.5039L340.606 93.4216C339.285 95.2723 341.116 98.8078 344.696 101.316C348.275 103.825 352.249 104.36 353.573 102.509L354.943 100.592L353.771 99.7699V99.772Z" fill="#A0805F" stroke="black" stroke-width="0.5" stroke-linecap="round" stroke-linejoin="round"/>
<path d="M354.841 100.733C356.163 98.8827 354.332 95.3482 350.752 92.8387C347.171 90.3293 343.197 89.7953 341.876 91.646C340.554 93.4968 342.385 97.0314 345.965 99.5408C349.545 102.05 353.519 102.584 354.841 100.733Z" fill="#E0C091" stroke="black" stroke-width="0.5" stroke-linecap="round" stroke-linejoin="round"/>
<path d="M343.104 92.1776C344.186 90.6612 347.441 91.0991 350.372 93.1548C353.303 95.2105 354.803 98.1031 353.721 99.6196" stroke="black" stroke-width="0.5" stroke-linecap="round" stroke-linejoin="round"/>
<path d="M351.942 98.3708C352.661 97.3633 351.665 95.4393 349.716 94.0735C347.768 92.7076 345.605 92.4172 344.885 93.4247C344.165 94.4323 345.162 96.3563 347.11 97.7221C349.059 99.0879 351.222 99.3784 351.942 98.3708Z" fill="url(#paint0_linear_180_380)" stroke="black" stroke-width="0.5" stroke-linecap="round" stroke-linejoin="round"/>
<path d="M349.534 94.3279C347.668 93.0207 345.61 92.7015 344.807 93.56C344.831 93.5147 344.855 93.4672 344.885 93.4241C345.604 92.4167 347.768 92.708 349.717 94.0734C351.666 95.4388 352.661 97.3629 351.942 98.3703C351.912 98.4134 351.875 98.4501 351.84 98.4889C352.391 97.4514 351.402 95.6351 349.536 94.3279H349.534Z" fill="#E3CDB9" stroke="black" stroke-width="0.5" stroke-linecap="round" stroke-linejoin="round"/>
<path d="M341.445 93.0986L340.215 94.7035" stroke="black" stroke-width="0.5" stroke-linecap="round" stroke-linejoin="round"/>
<path d="M341.499 93.8408L340.277 95.4371" stroke="black" stroke-width="0.5" stroke-linecap="round" stroke-linejoin="round"/>
<path d="M341.663 94.4678L340.461 96.0338" stroke="black" stroke-width="0.5" stroke-linecap="round" stroke-linejoin="round"/>
<path d="M341.887 94.9941L340.659 96.5969" stroke="black" stroke-width="0.5" stroke-linecap="round" stroke-linejoin="round"/>
<path d="M342.121 95.4717L340.876 97.096" stroke="black" stroke-width="0.5" stroke-linecap="round" stroke-linejoin="round"/>
<path d="M342.42 95.9805L341.175 97.6069" stroke="black" stroke-width="0.5" stroke-linecap="round" stroke-linejoin="round"/>
<path d="M342.705 96.418L341.451 98.053" stroke="black" stroke-width="0.5" stroke-linecap="round" stroke-linejoin="round"/>
<path d="M342.995 96.8389L341.752 98.461" stroke="black" stroke-width="0.5" stroke-linecap="round" stroke-linejoin="round"/>
<path d="M343.365 97.2637L342.108 98.9052" stroke="black" stroke-width="0.5" stroke-linecap="round" stroke-linejoin="round"/>
<path d="M343.766 97.7061L342.508 99.3498" stroke="black" stroke-width="0.5" stroke-linecap="round" stroke-linejoin="round"/>
<path d="M344.239 98.168L342.965 99.8289" stroke="black" stroke-width="0.5" stroke-linecap="round" stroke-linejoin="round"/>
<path d="M344.761 98.623L343.491 100.28" stroke="black" stroke-width="0.5" stroke-linecap="round" stroke-linejoin="round"/>
<path d="M345.29 99.0732L344.019 100.73" stroke="black" stroke-width="0.5" stroke-linecap="round" stroke-linejoin="round"/>
<path d="M345.858 99.4873L344.598 101.135" stroke="black" stroke-width="0.5" stroke-linecap="round" stroke-linejoin="round"/>
<path d="M346.379 99.9209L345.148 101.526" stroke="black" stroke-width="0.5" stroke-linecap="round" stroke-linejoin="round"/>
<path d="M347.026 100.251L345.771 101.888" stroke="black" stroke-width="0.5" stroke-linecap="round" stroke-linejoin="round"/>
<path d="M347.698 100.646L346.436 102.294" stroke="black" stroke-width="0.5" stroke-linecap="round" stroke-linejoin="round"/>
<path d="M348.637 101.041L347.339 102.734" stroke="black" stroke-width="0.5" stroke-linecap="round" stroke-linejoin="round"/>
<path d="M349.545 101.384L348.247 103.077" stroke="black" stroke-width="0.5" stroke-linecap="round" stroke-linejoin="round"/>
<path d="M350.501 101.651L349.201 103.347" stroke="black" stroke-width="0.5" stroke-linecap="round" stroke-linejoin="round"/>
<path d="M351.466 101.805L350.168 103.5" stroke="black" stroke-width="0.5" stroke-linecap="round" stroke-linejoin="round"/>
<path d="M352.332 101.899L351.108 103.582" stroke="black" stroke-width="0.5" stroke-linecap="round" stroke-linejoin="round"/>
<path d="M353.282 101.733L351.951 103.472" stroke="black" stroke-width="0.5" stroke-linecap="round" stroke-linejoin="round"/>
<path d="M443.194 112.232C443.747 110.545 445.282 108.617 447.481 107.074C449.681 105.532 452.026 104.74 453.818 104.786L454.989 103.964L456.359 105.882C457.681 107.732 455.849 111.268 452.27 113.776C448.69 116.285 444.716 116.82 443.392 114.969L442.022 113.052L443.194 112.23V112.232Z" fill="#A0805F" stroke="black" stroke-width="0.5" stroke-linecap="round" stroke-linejoin="round"/>
<path d="M451.001 112.001C454.581 109.492 456.412 105.957 455.09 104.106C453.768 102.256 449.794 102.79 446.214 105.299C442.634 107.808 440.803 111.343 442.125 113.194C443.447 115.045 447.42 114.511 451.001 112.001Z" fill="url(#paint1_linear_180_380)" stroke="black" stroke-width="0.5" stroke-linecap="round" stroke-linejoin="round"/>
<path d="M453.86 104.637C452.778 103.12 449.523 103.558 446.592 105.614C443.661 107.669 442.161 110.562 443.243 112.079" stroke="black" stroke-width="0.5" stroke-linecap="round" stroke-linejoin="round"/>
<path d="M449.857 110.183C451.806 108.818 452.802 106.894 452.082 105.886C451.363 104.878 449.2 105.169 447.251 106.535C445.302 107.901 444.306 109.825 445.026 110.832C445.745 111.84 447.908 111.549 449.857 110.183Z" fill="url(#paint2_linear_180_380)" stroke="black" stroke-width="0.5" stroke-linecap="round" stroke-linejoin="round"/>
<path d="M443.682 114.192L445.014 115.931" stroke="black" stroke-width="0.5" stroke-linecap="round" stroke-linejoin="round"/>
<path d="M423.487 149.771L427.574 146.018L432.136 147.871L423.487 149.771Z" fill="#483231" stroke="black" stroke-width="0.5" stroke-linecap="round" stroke-linejoin="round"/>
<path d="M423.487 149.771L427.574 146.018L425.447 141.596L423.487 149.771Z" fill="#B8F7EE" stroke="black" stroke-width="0.5" stroke-linecap="round" stroke-linejoin="round"/>
<path d="M425.447 141.596L429.957 143.628L432.136 147.871L427.575 146.018L425.447 141.596Z" fill="#30CCBC" stroke="black" stroke-width="0.5" stroke-linecap="round" stroke-linejoin="round"/>
<path d="M434.096 139.693L427.544 145.917L432.136 147.871L434.096 139.693Z" fill="#B8F7EE" stroke="black" stroke-width="0.5" stroke-linecap="round" stroke-linejoin="round"/>
<path d="M434.096 139.693L427.544 145.917L425.447 141.596L434.096 139.693Z" fill="#7BF0E4" stroke="black" stroke-width="0.5" stroke-linecap="round" stroke-linejoin="round"/>
<path d="M335.618 151.497C335.618 151.497 335.363 149.384 335.061 148.622" stroke="#101010" stroke-width="0.5" stroke-miterlimit="10" stroke-linecap="round"/>
<path d="M341.31 134.478C340.672 133.153 340.134 132.983 340.134 132.983C340.134 132.983 338.974 132.782 338.756 132.942C338.538 133.101 338.891 133.406 338.891 133.406C338.253 133.3 337.831 132.711 337.831 132.711H337.171L337.447 133.278C338.212 134.434 339.762 134.372 339.762 134.372C339.762 134.372 340.03 134.598 340.2 137.718L342.203 137.498C341.918 136.072 341.548 134.969 341.312 134.478H341.31Z" fill="#F0BD83" stroke="#101010" stroke-width="0.5" stroke-miterlimit="10"/>
<path d="M342.201 137.499L340.197 137.719C340.199 137.767 340.202 137.814 340.206 137.864C340.221 138.149 340.221 138.438 340.21 138.727C340.737 138.707 341.582 138.638 342.364 138.418C342.314 138.099 342.259 137.793 342.201 137.497V137.499Z" fill="white" stroke="#101010" stroke-width="0.5" stroke-miterlimit="10"/>
<path d="M341.883 146.091C342.795 143.576 342.721 140.71 342.364 138.421C341.58 138.639 340.738 138.708 340.211 138.729C340.104 141.745 338.754 144.819 338.754 144.819L336.546 145.416L335.061 146.301C332.32 147.192 333.26 154.424 333.26 154.424L333.21 155.302C333.648 155.341 334.56 155.401 335.131 155.32C335.451 153.445 335.616 151.499 335.616 151.499L335.849 155.622C340.881 155.516 343.048 153.456 343.048 153.456C342.645 152.446 341.881 146.094 341.881 146.094L341.883 146.091Z" fill="#DFC192" stroke="#101010" stroke-width="0.5" stroke-miterlimit="10"/>
<path d="M338.07 145.727L337.828 146.889C337.828 146.889 336.814 146.225 336.433 145.727" stroke="#101010" stroke-width="0.5" stroke-miterlimit="10" stroke-linecap="round"/>
<path d="M338.281 145.565L338.961 146.393C338.961 146.393 339.385 145.832 339.046 144.777" stroke="#101010" stroke-width="0.5" stroke-miterlimit="10" stroke-linecap="round"/>
<path d="M336.084 141.412C336.084 141.412 337.077 141.194 337.325 141.604C337.325 141.604 337.604 141.57 337.82 141.423C338.035 141.276 338.092 141.85 338.092 141.85C338.092 141.85 338.73 142.2 338.752 142.808C338.773 143.416 338.353 144.137 338.353 144.137L338.752 144.812C338.752 144.812 338.046 145.759 336.544 145.409L336.452 144.644C336.452 144.644 336.099 144.846 335.326 144.217C334.553 143.585 334.401 141.839 336.08 141.41L336.084 141.412Z" fill="#F0BD83" stroke="#101010" stroke-width="0.5" stroke-miterlimit="10"/>
<path d="M336.457 144.646C336.457 144.646 336.139 144.538 336.041 144.208C335.943 143.878 336.25 143.818 336.25 143.818C336.25 143.818 336.387 142.556 335.66 142.411C335.66 142.411 336.437 141.654 336.239 141.177C336.041 140.701 335.573 140.42 335.178 140.957C334.784 141.494 334.388 141.85 334.388 141.85C334.388 141.85 334.277 141.544 333.957 141.85C333.637 142.157 333.426 142.987 333.957 143.147C333.957 143.147 333.698 143.367 333.907 143.88C334.116 144.394 335.113 145.209 336.498 144.972L336.459 144.646H336.457Z" fill="#4C3211" stroke="#101010" stroke-width="0.5" stroke-miterlimit="10"/>
<path d="M337.445 143.305C337.445 143.305 337.519 143.415 337.829 143.305" stroke="#101010" stroke-width="0.5" stroke-miterlimit="10" stroke-linecap="round"/>
<path d="M336.435 142.657C336.435 142.657 336.398 142.181 336.856 142.047C336.856 142.047 337.102 142.547 336.435 142.657Z" stroke="#101010" stroke-width="0.5" stroke-miterlimit="10" stroke-linecap="round"/>
<path d="M336.592 142.256C336.605 142.245 336.681 142.396 336.818 142.385C336.818 142.385 336.888 142.217 336.844 142.105C336.844 142.105 336.725 142.066 336.592 142.256Z" fill="#101010"/>
<path d="M369.939 132.59L369.617 133.798C369.617 133.798 372.798 134.829 375.664 133.992L375.631 132.413C373.369 133.036 370.623 132.691 369.939 132.59Z" fill="#F0BD83" stroke="#101010" stroke-width="0.5" stroke-miterlimit="10"/>
<path d="M370.882 127.658C370.022 128.256 367.505 130.512 367.505 130.512C367.505 130.512 366.283 131.604 364.443 131.916C362.603 132.229 362.949 132.05 362.303 132.768C361.654 133.485 361.776 134.203 362.061 134.591C362.061 134.591 362.242 134.725 362.287 134.382C362.333 134.039 362.364 133.799 362.364 133.799C362.364 133.799 363.193 133.799 363.646 133.605C364.099 133.411 364.415 133.053 364.415 133.053C364.415 133.053 366.133 133.232 368.214 132.143C370.296 131.051 370.401 130.857 370.401 130.857L371.37 127.451C371.209 127.484 371.043 127.55 370.884 127.66L370.882 127.658Z" fill="#F0BD83" stroke="#101010" stroke-width="0.5" stroke-miterlimit="10"/>
<path d="M374.435 129.484L374.647 127.903C374.453 127.849 374.294 127.754 374.261 127.583C374.17 127.105 374.396 126.673 374.396 126.673L375.376 126.464C375.376 126.464 375.934 125.06 375.104 124.596C374.274 124.132 373.279 123.595 372.572 124.699C372.572 124.699 371.892 125.761 372.149 126.552C372.149 126.552 372.119 126.731 372.48 126.837C372.842 126.941 372.963 127.025 372.963 127.025L372.748 127.78C372.748 127.78 372.567 127.652 372.295 127.549L371.981 129.087C371.981 129.087 373.366 129.486 374.435 129.486V129.484Z" fill="#F0BD83" stroke="#101010" stroke-width="0.5" stroke-miterlimit="10"/>
<path d="M380.443 125.657C379.749 125.163 377.504 124.253 376.72 124.119C376.72 124.119 375.633 123.178 375.333 123.058C375.03 122.939 374.412 123.204 374.179 123.431L376.389 124.762C376.389 124.762 378.303 126.047 378.74 126.181C378.74 126.181 376.04 127.616 375.453 127.959L375.588 130.379C375.588 130.379 379.598 129.108 380.774 126.748C380.774 126.748 381.136 126.151 380.443 125.657Z" fill="#F0BD83" stroke="#101010" stroke-width="0.5" stroke-miterlimit="10"/>
<path d="M374.647 127.902L374.436 129.483C373.367 129.483 371.982 129.084 371.982 129.084L372.295 127.546C372.043 127.451 371.712 127.378 371.37 127.447L370.401 130.853L369.939 132.587C370.623 132.689 373.369 133.034 375.631 132.411L375.59 130.374L375.455 127.954C375.455 127.954 375 127.997 374.649 127.9L374.647 127.902Z" fill="#726B66" stroke="#101010" stroke-width="0.5" stroke-miterlimit="10"/>
<path d="M373.824 124.065C373.824 124.065 373.482 124.816 374.05 125.103C374.618 125.39 374.917 125.683 374.549 125.97C374.549 125.97 374.847 125.884 374.925 126.03C375.004 126.177 374.895 126.557 374.512 126.65L374.396 126.673L374.307 126.904C374.307 126.904 374.242 127.036 374.74 127.131C375.239 127.226 376.149 127.426 376.798 126.749C377.445 126.071 376.676 125.692 376.282 125.735C375.888 125.778 375.731 125.457 375.801 125.25C375.87 125.043 376.334 124.313 375.618 123.828C374.899 123.343 374.179 123.431 374.179 123.431C374.179 123.431 374.096 123.131 373.532 123.336C372.966 123.541 372.652 123.725 372.484 124.279C372.319 124.833 371.899 124.816 371.899 124.816C371.899 124.816 371.33 124.885 371.352 125.465C371.374 126.046 372.119 125.873 372.119 125.873C372.119 125.873 372.236 125.168 372.633 124.613C373.029 124.059 373.704 124.042 373.826 124.063L373.824 124.065Z" fill="#DFC192" stroke="#101010" stroke-width="0.5" stroke-linecap="round" stroke-linejoin="round"/>
<path d="M372.434 124.979C372.434 124.979 373.737 125.389 374.102 125.629C374.102 125.629 374.198 125.754 374.102 125.868C374.007 125.983 373.621 126.049 373.399 126.002C373.177 125.954 373.138 125.499 373.138 125.499L372.944 125.42C372.944 125.42 372.876 125.659 372.665 125.715C372.454 125.771 372.238 125.344 372.434 124.979Z" fill="#101010" stroke="#101010" stroke-width="0.5" stroke-linecap="round" stroke-linejoin="round"/>
<path d="M372.748 126.475C372.748 126.475 372.92 126.595 373.142 126.475" stroke="#101010" stroke-width="0.5" stroke-linecap="round" stroke-linejoin="round"/>
<path d="M363.469 143.304L361.917 142.607C361.917 142.607 361.496 143.175 361.011 143.701L362.234 144.618L363.469 143.304Z" fill="#F0BD83" stroke="#101010" stroke-width="0.5" stroke-miterlimit="10"/>
<path d="M360.334 144.34C360.253 144.402 360.173 144.456 360.101 144.495C359.398 144.873 359.515 145.017 359.602 145.425C359.689 145.83 359.983 147.021 359.983 147.021C359.983 147.021 360.277 147.688 360.981 147.804C361.684 147.921 361.771 147.368 361.656 146.788C361.538 146.208 361.455 145.453 361.455 145.453L361.529 145.375C360.665 145.22 360.404 144.724 360.338 144.34H360.334Z" fill="#726B66" stroke="#101010" stroke-width="0.5" stroke-miterlimit="10"/>
<path d="M361.011 143.701C360.787 143.943 360.552 144.174 360.334 144.338C360.401 144.721 360.663 145.218 361.525 145.373L362.235 144.618L361.011 143.701Z" fill="white" stroke="#101010" stroke-width="0.5" stroke-miterlimit="10"/>
<path d="M372.438 145.5L374.133 145.688C374.133 145.688 374.2 146.389 374.346 147.088L372.822 147.256L372.441 145.5H372.438Z" fill="#F0BD83" stroke="#101010" stroke-width="0.5" stroke-miterlimit="10"/>
<path d="M374.599 147.979C374.636 148.074 374.677 148.16 374.719 148.231C375.128 148.913 374.952 148.977 374.666 149.282C374.381 149.586 373.515 150.459 373.515 150.459C373.515 150.459 372.918 150.884 372.254 150.628C371.59 150.371 371.799 149.853 372.199 149.413C372.6 148.973 373.062 148.367 373.062 148.367L373.04 148.261C373.863 148.565 374.342 148.272 374.599 147.977V147.979Z" fill="#726B66" stroke="#101010" stroke-width="0.5" stroke-miterlimit="10"/>
<path d="M374.347 147.088C374.414 147.409 374.497 147.726 374.599 147.979C374.345 148.274 373.863 148.568 373.04 148.264L372.82 147.256L374.345 147.088H374.347Z" fill="white" stroke="#101010" stroke-width="0.5" stroke-miterlimit="10"/>
<path d="M375.664 133.992C375.664 133.992 376.554 135.258 375.664 136.449C374.773 137.639 373.395 139.96 373.395 139.96C373.395 139.96 374.825 144.46 375.664 146.056C375.664 146.056 371.483 147.044 371.37 147.044C371.256 147.044 369.234 141.155 369.234 141.155L369.819 139.324C369.819 139.324 364.955 143.679 363.842 145.362L360.853 142.547C360.853 142.547 364.752 137.508 369.615 133.8C369.615 133.8 372.772 134.818 375.661 133.994L375.664 133.992Z" fill="#EE8E75" stroke="#101010" stroke-width="0.5" stroke-miterlimit="10"/>
<path d="M369.819 139.322C369.819 139.322 370.573 137.612 370.995 137.006L371.42 136.399" stroke="#101010" stroke-width="0.5" stroke-miterlimit="10"/>
<path d="M362.997 132.9C362.997 132.9 362.477 133.112 362.699 133.364C362.921 133.617 363.946 133.217 363.946 133.217" stroke="#101010" stroke-width="0.5" stroke-linecap="round" stroke-linejoin="round"/>
<path d="M358.57 120.135L359.326 120.888" stroke="black" stroke-width="0.5" stroke-linecap="round" stroke-linejoin="round"/>
<path d="M359.03 120.593L359.679 120.006" stroke="black" stroke-width="0.5" stroke-linecap="round" stroke-linejoin="round"/>
<mask id="mask4_180_380" style="mask-type:luminance" maskUnits="userSpaceOnUse" x="371" y="95" width="45" height="13">
<path d="M392.848 107.752C392.617 107.752 392.389 107.752 392.158 107.747C377.994 107.532 374.353 104.277 372.528 100.791C371.611 99.0413 371.864 97.5119 372.461 96.3298C372.463 96.5455 372.485 96.7655 372.526 96.9899C372.842 98.7004 374.277 100.15 376.789 101.298C379.838 102.691 383.934 103.396 388.959 103.396C392.783 103.396 396.169 102.995 398.381 102.695C400.053 102.469 404.419 101.421 408.482 99.8911C411.986 98.5732 414.329 97.2573 415.492 95.9609C415.742 97.6629 415.834 100.422 414.492 102.915C413.168 103.556 404.062 107.752 392.848 107.752Z" fill="white"/>
</mask>
<g mask="url(#mask4_180_380)">
<path d="M413.711 95.3438C413.711 95.3438 414.453 100.445 413.711 105.415" stroke="#E5DCD1" stroke-width="0.5" stroke-linejoin="round"/>
<path d="M411.2 96.6035C411.2 96.6035 411.941 103.884 411.2 106.429" stroke="#E5DCD1" stroke-width="0.5" stroke-linejoin="round"/>
<path d="M408.348 97.9023C408.348 97.9023 409.088 103.099 409.031 106.941" stroke="#E5DCD1" stroke-width="0.5" stroke-linejoin="round"/>
<path d="M405.727 99.1445L406.752 107.221" stroke="#E5DCD1" stroke-width="0.5" stroke-linejoin="round"/>
<path d="M403.124 99.9082L404.461 107.881" stroke="#E5DCD1" stroke-width="0.5" stroke-linejoin="round"/>
<path d="M399.967 100.378L401.848 108.53" stroke="#E5DCD1" stroke-width="0.5" stroke-linejoin="round"/>
<path d="M396.28 101.068L398.575 108.713" stroke="#E5DCD1" stroke-width="0.5" stroke-linejoin="round"/>
<path d="M392.84 101.516L395.716 109.111" stroke="#E5DCD1" stroke-width="0.5" stroke-linejoin="round"/>
<path d="M388.962 101.516L392.539 109.195" stroke="#E5DCD1" stroke-width="0.5" stroke-linejoin="round"/>
<path d="M384.971 101.516L389.304 109.277" stroke="#E5DCD1" stroke-width="0.5" stroke-linejoin="round"/>
<path d="M381.835 101.068L385.426 109.11" stroke="#E5DCD1" stroke-width="0.5" stroke-linejoin="round"/>
<path d="M378.527 99.9082C378.527 99.9082 380.733 106.377 382.575 109.279" stroke="#E5DCD1" stroke-width="0.5" stroke-linejoin="round"/>
<path d="M376.733 99.1445C376.733 99.1445 375.775 102.6 379.895 108.897" stroke="#E5DCD1" stroke-width="0.5" stroke-linejoin="round"/>
<path d="M374.593 97.9023C374.593 97.9023 373.989 102.135 376.058 107.221" stroke="#E5DCD1" stroke-width="0.5" stroke-linejoin="round"/>
<path d="M373.881 95.3438C373.881 95.3438 371.642 97.3736 372.746 104.022" stroke="#E5DCD1" stroke-width="0.5" stroke-linejoin="round"/>
</g>
<path d="M366.625 110.71L367.052 109.729L367.15 109.112C367.15 109.112 366.819 108.855 366.887 108.559C366.954 108.264 367.363 108.227 367.42 108.477C367.42 108.477 367.751 108.111 368.411 108.208C369.071 108.305 369.595 108.689 369.48 109.17C369.48 109.17 369.772 109.116 369.811 109.45C369.85 109.785 369.732 109.862 369.286 109.862C369.286 109.862 369.247 110.479 368.683 110.71L368.528 111.597C368.528 111.597 367.361 111.847 366.623 110.71H366.625Z" fill="#A88460" stroke="black" stroke-width="0.5" stroke-linecap="round" stroke-linejoin="round"/>
<path d="M368.275 108.53C368.275 108.53 368.454 108.278 368.67 108.368C368.885 108.459 368.8 108.713 368.8 108.713" stroke="black" stroke-width="0.5" stroke-linecap="round" stroke-linejoin="round"/>
<path d="M368.082 109.11C368.082 109.11 368.113 109.309 368.376 109.272" stroke="black" stroke-width="0.5" stroke-linecap="round" stroke-linejoin="round"/>
<path d="M366.908 108.896C366.908 108.896 366.769 109.065 366.847 109.242C366.925 109.418 366.322 109.708 366.823 110.053L366.908 110.098L367.054 109.731L367.152 109.114L366.908 108.899V108.896Z" fill="#726B66" stroke="black" stroke-width="0.5" stroke-linecap="round" stroke-linejoin="round"/>
<path d="M369.563 109.848C369.563 109.848 369.689 110.014 369.526 110.137C369.362 110.26 369.371 110.335 369.395 110.419C369.419 110.503 369.34 111.038 368.87 110.68C368.87 110.68 369.275 110.26 369.288 109.865L369.563 109.848Z" fill="#726B66" stroke="black" stroke-width="0.5" stroke-linecap="round" stroke-linejoin="round"/>
<path d="M361.809 111.874C361.809 111.874 360.814 111.188 360.886 110.325C360.957 109.462 363.64 106.664 364.705 105.996C364.705 105.996 365.025 104.904 365.735 104.358C366.445 103.813 366.162 104.164 366.162 104.164C366.162 104.164 366.961 103.813 367.067 103.901C367.174 103.989 367.387 104.201 366.961 104.499C366.534 104.798 366.499 104.939 366.499 104.939C366.499 104.939 366.939 104.516 367.215 104.675C367.492 104.835 366.893 104.958 366.625 105.327C366.358 105.696 366.196 106.364 365.362 106.718C365.362 106.718 363.398 108.662 363.287 109.732C363.287 109.732 363.586 111.224 361.809 111.874Z" fill="#A88460" stroke="black" stroke-width="0.5" stroke-linecap="round" stroke-linejoin="round"/>
<path d="M371.03 110.803L371.42 110.424C371.42 110.424 373.197 108.935 374.423 106.789C374.423 106.789 374.512 106.12 374.85 105.574C375.187 105.029 375.248 104.709 375.385 104.694C375.522 104.679 375.385 105.361 375.385 105.361C375.385 105.361 376.028 104.325 375.967 103.916C375.967 103.916 376.097 103.756 376.189 103.87C376.28 103.985 376.28 104.127 376.28 104.127C376.28 104.127 376.402 104.043 376.457 104.082C376.511 104.121 376.563 104.287 376.563 104.287C376.563 104.287 376.663 104.211 376.724 104.295C376.785 104.379 376.602 105.361 376.602 105.361C376.602 105.361 376.648 105.648 376.457 105.974C376.265 106.299 376.036 106.767 375.555 107.177C375.555 107.177 375.257 107.66 375.113 107.964C374.967 108.266 373.066 111.474 371.808 112.253L371.035 110.805L371.03 110.803Z" fill="#A88460" stroke="black" stroke-width="0.5" stroke-linecap="round" stroke-linejoin="round"/>
<path d="M363.287 109.731C363.287 109.731 366.063 110.178 367.378 110.974C368.693 111.768 369.24 111.623 369.24 111.623L371.42 110.424C371.42 110.424 372.293 112.318 372.312 113.051C372.312 113.051 370.688 113.377 369.24 115.331C367.79 117.286 367.812 118.12 366.536 118.916C366.536 118.916 361.56 117.881 360.162 115.711C360.162 115.711 362.629 113.032 363.452 112.359C363.452 112.359 361.93 112.4 361.109 112.033C361.109 112.033 362.261 111.241 363.289 109.734L363.287 109.731Z" fill="#CFCDCD" stroke="black" stroke-width="0.5" stroke-linecap="round" stroke-linejoin="round"/>
<path d="M353.645 116.729C353.412 116.121 353.168 115.571 352.981 115.336C352.465 114.691 354.351 114.005 354.351 114.005C354.351 114.005 354.804 114.674 355.287 115.487C354.782 115.851 354.052 116.412 353.645 116.727V116.729Z" fill="#FDF7E7" stroke="#101010" stroke-width="0.5" stroke-miterlimit="10" stroke-linecap="round"/>
<path d="M356.419 117.932C356.595 119.071 354.437 119.037 354.437 119.037C354.437 119.037 354.054 117.794 353.643 116.727C354.05 116.412 354.779 115.851 355.284 115.486C355.79 116.338 356.327 117.35 356.417 117.93L356.419 117.932Z" fill="#F0BD83" stroke="#101010" stroke-width="0.5" stroke-miterlimit="10"/>
<path d="M352.522 115.338C352.522 115.338 353.386 114.591 354.747 114.753C354.747 114.753 355.052 114.654 355.015 114.451C354.978 114.248 354.804 114.005 354.821 113.724C354.838 113.444 354.943 112.685 354.66 112.147L349.373 113.537C349.373 113.537 349.458 114.66 350.061 114.669C350.664 114.678 351.94 114.542 352.522 115.336V115.338Z" fill="#EE8E75" stroke="#101010" stroke-width="0.5" stroke-miterlimit="10" stroke-linecap="round"/>
<path d="M349.44 113.932L354.795 112.525" stroke="#101010" stroke-width="0.5" stroke-miterlimit="10" stroke-linecap="round"/>
<path d="M350.577 114.667C350.577 114.667 351.546 114.05 352.036 114.013C352.526 113.976 352.485 113.131 352.485 113.131" stroke="#101010" stroke-width="0.5" stroke-miterlimit="10" stroke-linecap="round"/>
<path d="M353.221 112.939C353.221 112.939 353.497 113.8 354.819 113.727" stroke="#101010" stroke-width="0.5" stroke-miterlimit="10" stroke-linecap="round"/>
<path d="M352.226 115.044L352.48 114.585" stroke="#101010" stroke-width="0.5" stroke-miterlimit="10" stroke-linecap="round"/>
<path d="M351.766 114.773L351.953 114.479" stroke="#101010" stroke-width="0.5" stroke-miterlimit="10" stroke-linecap="round"/>
<path d="M347.135 118.57C346.505 118.386 345.915 118.246 345.613 118.252C344.781 118.27 345.371 116.367 345.371 116.367C345.371 116.367 346.181 116.412 347.128 116.525C347.117 117.144 347.128 118.058 347.133 118.57H347.135Z" fill="#FDF7E7" stroke="#101010" stroke-width="0.5" stroke-miterlimit="10" stroke-linecap="round"/>
<path d="M349.78 117.107C350.803 117.655 349.473 119.337 349.473 119.337C349.473 119.337 348.243 118.889 347.136 118.569C347.13 118.058 347.119 117.141 347.132 116.524C348.121 116.641 349.259 116.826 349.782 117.107H349.78Z" fill="#F0BD83" stroke="#101010" stroke-width="0.5" stroke-miterlimit="10"/>
<path d="M345.266 118.591C345.266 118.591 345.249 117.456 346.255 116.531C346.255 116.531 346.377 116.235 346.196 116.134C346.016 116.032 345.715 116.007 345.51 115.812C345.306 115.618 344.787 115.047 344.191 114.915L341.846 119.812C341.846 119.812 342.767 120.474 343.163 120.023C343.559 119.572 344.278 118.522 345.266 118.593V118.591Z" fill="#EE8E75" stroke="#101010" stroke-width="0.5" stroke-miterlimit="10" stroke-linecap="round"/>
<path d="M342.194 120.013L344.568 115.056" stroke="#101010" stroke-width="0.5" stroke-miterlimit="10" stroke-linecap="round"/>
<path d="M343.494 119.629C343.494 119.629 343.647 118.498 343.934 118.104C344.221 117.709 343.544 117.193 343.544 117.193" stroke="#101010" stroke-width="0.5" stroke-miterlimit="10" stroke-linecap="round"/>
<path d="M343.871 116.512C343.871 116.512 344.712 116.859 345.511 115.811" stroke="#101010" stroke-width="0.5" stroke-miterlimit="10" stroke-linecap="round"/>
<path d="M344.851 118.628L344.661 118.136" stroke="#101010" stroke-width="0.5" stroke-miterlimit="10" stroke-linecap="round"/>
<path d="M344.343 118.798L344.238 118.468" stroke="#101010" stroke-width="0.5" stroke-miterlimit="10" stroke-linecap="round"/>
<path d="M375.394 105.747C375.394 105.747 375.587 105.999 375.394 106.427" stroke="black" stroke-width="0.5" stroke-linecap="round" stroke-linejoin="round"/>
<path d="M351.884 115.709L353.388 118L357.097 117.467L355.644 115.019L351.884 115.709Z" fill="#EADBBD" stroke="black" stroke-width="0.5" stroke-linecap="round" stroke-linejoin="round"/>
<path d="M360.163 115.708C360.163 115.708 352.69 117.839 346.915 116.109L345.975 119.196C345.975 119.196 352.072 120.447 354.758 120.288C354.758 120.288 357.095 123.42 357.713 124.05C358.332 124.68 359.815 124.818 361.502 123.262C363.19 121.707 365.794 118.732 365.794 118.732L360.161 115.706L360.163 115.708Z" fill="#EADBBD" stroke="black" stroke-width="0.5" stroke-linecap="round" stroke-linejoin="round"/>
<path d="M354.758 120.288C354.758 120.288 361.299 120.443 363.616 118.782" stroke="black" stroke-width="0.5" stroke-linecap="round" stroke-linejoin="round"/>
</g>
<rect x="309" y="20" width="115" height="26" rx="5" fill="white"/>
<circle cx="322.5" cy="33" r="5" fill="#FF684B"/>
<path d="M338.684 38C338.524 34.272 338.844 30.528 338.684 26.8H340.124C340.268 30.048 340.044 33.312 340.092 36.56H344.764V38H338.684ZM346.402 38C346.338 35.44 346.466 32.224 346.402 29.664H347.842C347.906 32.224 347.778 35.44 347.842 38H346.402ZM346.37 26.8H347.81L347.858 28.608H346.418L346.37 26.8ZM352.319 38L349.311 29.664H350.847L353.119 35.952C353.855 33.856 354.479 31.744 355.359 29.664H356.879C355.727 32.432 355.008 35.232 353.855 38H352.319ZM361.3 38.16C359.012 38.16 357.492 36.432 357.492 33.824C357.492 31.44 359.124 29.504 361.14 29.504C363.332 29.504 364.804 31.216 364.804 33.808C364.804 33.952 364.804 34.096 364.788 34.256H358.9C359.044 35.776 359.988 36.768 361.3 36.768C362.036 36.768 362.692 36.368 363.156 35.712H364.66C364.068 37.168 362.788 38.16 361.3 38.16ZM358.996 32.896H363.316C363.06 31.664 362.244 30.896 361.14 30.896C360.164 30.896 359.3 31.744 358.996 32.896ZM369.116 38.16C367.34 38.16 366.124 37.136 365.884 35.536H367.292C367.516 36.32 368.188 36.816 369.116 36.816C370.044 36.816 370.812 36.256 370.812 35.584C370.812 33.872 366.06 35.136 366.06 31.952C366.06 30.592 367.404 29.504 369.036 29.504C370.748 29.504 371.948 30.496 372.156 32.08H370.748C370.556 31.312 369.916 30.848 369.036 30.848C368.156 30.848 367.452 31.344 367.452 31.952C367.452 33.568 372.204 32.32 372.204 35.584C372.204 37.008 370.812 38.16 369.116 38.16ZM375.008 38C374.848 36.88 374.848 35.744 374.848 34.624V31.104H373.072V29.664H374.848V29.2C374.848 28.592 374.816 27.872 374.816 27.872L376.256 26.976C376.256 26.976 376.288 28.176 376.288 29.2V29.664H378.224V31.104H376.288V34.624C376.288 35.744 376.288 36.88 376.448 38H375.008ZM379.655 38C379.591 35.44 379.879 32.224 379.655 29.664H381.095C381.127 30.064 381.159 30.48 381.159 30.912L382.023 30.304C382.583 29.904 383.159 29.664 384.007 29.664H384.247V31.104H384.007C383.575 31.104 383.127 31.248 382.679 31.584L381.175 32.64C381.159 34.464 381.047 36.368 381.095 38H379.655ZM388.799 38.16C386.511 38.16 384.991 36.432 384.991 33.824C384.991 31.44 386.623 29.504 388.639 29.504C390.831 29.504 392.303 31.216 392.303 33.808C392.303 33.952 392.303 34.096 392.287 34.256H386.399C386.543 35.776 387.487 36.768 388.799 36.768C389.535 36.768 390.191 36.368 390.655 35.712H392.159C391.567 37.168 390.287 38.16 388.799 38.16ZM386.495 32.896H390.815C390.559 31.664 389.743 30.896 388.639 30.896C387.663 30.896 386.799 31.744 386.495 32.896ZM396.071 38.16C394.471 38.16 393.415 37.168 393.415 35.68C393.415 34.32 394.583 33.2 396.023 33.2H397.031C397.879 33.2 398.583 32.736 398.791 32.128C398.535 31.328 397.863 30.848 396.951 30.848C396.087 30.848 395.367 31.408 395.095 32.144H393.719C393.991 30.672 395.335 29.504 396.951 29.504C398.919 29.504 400.231 30.816 400.231 32.816C400.231 34.624 400.151 36.864 400.231 38H398.887C398.871 37.696 398.855 37.36 398.855 37.008C398.151 37.728 397.159 38.16 396.071 38.16ZM394.855 35.68C394.855 36.352 395.335 36.816 396.071 36.816C397.623 36.816 398.871 35.664 398.871 34.224V33.936C398.391 34.32 397.767 34.544 397.079 34.544H396.023C395.367 34.544 394.855 35.056 394.855 35.68ZM402.276 38C402.212 35.44 402.5 32.224 402.276 29.664H403.716L403.764 30.384L404.26 30.048C404.836 29.68 405.524 29.504 406.212 29.504C407.204 29.504 407.972 29.952 408.436 30.704L409.428 30.048C409.988 29.68 410.692 29.504 411.38 29.504C413.012 29.504 414.084 30.72 414.052 32.576C414.02 34.896 414.02 36.544 414.052 38H412.612C412.58 36.544 412.58 34.896 412.612 32.576C412.628 31.584 412.052 30.944 411.188 30.944C410.836 30.944 410.468 31.04 410.084 31.28L408.868 32.048C408.884 32.224 408.884 32.4 408.884 32.576C408.852 34.896 408.852 36.544 408.884 38H407.444C407.412 36.544 407.412 34.896 407.444 32.576C407.46 31.584 406.9 30.944 406.036 30.944C405.668 30.944 405.3 31.04 404.932 31.28L403.796 31.984C403.812 34.016 403.668 36.176 403.716 38H402.276Z" fill="#473835"/>
</g>
<defs>
<linearGradient id="paint0_linear_180_380" x1="351.56" y1="95.0661" x2="345.228" y2="96.7345" gradientUnits="userSpaceOnUse">
<stop stop-color="#E0C091"/>
<stop offset="1" stop-color="#E0C091"/>
</linearGradient>
<linearGradient id="paint1_linear_180_380" x1="442.805" y1="107.127" x2="454.438" y2="110.193" gradientUnits="userSpaceOnUse">
<stop stop-color="#E0C091"/>
<stop offset="1" stop-color="#E0C091"/>
</linearGradient>
<linearGradient id="paint2_linear_180_380" x1="445.407" y1="107.525" x2="451.737" y2="109.193" gradientUnits="userSpaceOnUse">
<stop stop-color="#E0C091"/>
<stop offset="1" stop-color="#E0C091"/>
</linearGradient>
<clipPath id="clip0_180_380">
<rect width="444" height="149" rx="25" fill="white"/>
</clipPath>
<clipPath id="clip1_180_380">
<rect width="160" height="85" fill="white" transform="translate(318 87)"/>
</clipPath>
</defs>
</svg>
