<svg enable-background="new 0 0 681 229" viewBox="0 0 681 229" xmlns="http://www.w3.org/2000/svg" xmlns:xlink="http://www.w3.org/1999/xlink"><clipPath id="a"><path d="m0 0h681v229h-681z"/></clipPath><clipPath id="b"><path d="m311.8 68.8h463v287h-463z" transform="matrix(.01234574 -.9999 .9999 .01234574 324.4012 752.9391)"/></clipPath><mask id="c" height="50.3" maskUnits="userSpaceOnUse" width="50.2" x="529.7" y="74.6"><path d="m570.7 67.9-47.6 16 15.9 47.7 47.6-16z" fill="#fff"/></mask><g clip-path="url(#a)"><path d="m25 0h631c13.8 0 25 11.2 25 25v179c0 13.8-11.2 25-25 25h-631c-13.8 0-25-11.2-25-25v-179c0-13.8 11.2-25 25-25z" fill="#101010"/><g clip-path="url(#b)"><path d="m554.6 82.7-1.5 8.4 5.7 4 1.4-6.4z" fill="#ff8e91"/><path d="m562.6 103.3-1.2 6.7 4.5 3.2 1.1-5.1z" fill="#ff8e91"/><path d="m544.9 92-2.6 14.5 9.8 6.9 2.5-11.1z" fill="#ff8e91"/><g mask="url(#c)" opacity=".32"><path d="m578.7 91.7c-4.4-13.2-18.6-20.3-31.8-15.9-13.1 4.4-20.2 18.7-15.8 31.8 4.4 13.2 18.6 20.3 31.8 15.9 13.1-4.4 20.2-18.6 15.8-31.8z" fill="#ff8e91"/></g><path d="m554.6 82.7-1.5 8.4 5.7 4 1.4-6.4z" fill="none" stroke="#ea5132" stroke-linecap="round" stroke-linejoin="round" stroke-width=".5"/><path d="m562.6 103.3-1.2 6.7 4.5 3.2 1.1-5.1z" fill="none" stroke="#ea5132" stroke-linecap="round" stroke-linejoin="round" stroke-width=".5"/><path d="m544.9 92-2.6 14.5 9.8 6.9 2.5-11.1z" fill="none" stroke="#ea5132" stroke-linecap="round" stroke-linejoin="round" stroke-width=".5"/><path d="m645.5 135.5-7.9-23.7-61.4-15s-14.3-12.2-17.9-11.7c-1.8.3-8.3.2-12.8-.3-1.7-.2-2.5 2.1-1 3 2 1.2 14.7 12.6 14.7 12.6l-11.1 2.2c-1.2.5-1.1 2.2.1 2.6 3.1 1.1 7.3 2.6 8 2.5 1.1-.1 12.7-3.2 12.7-3.2l46.3 21.1 10.5 18.3z" fill="#ffb7a6" stroke="#101010" stroke-linecap="round" stroke-linejoin="round" stroke-width=".5"/><path d="m646.1 129.9 11.5 22.3-15.9 5.8-20.9-15-2-12.1z" fill="#fff" stroke="#261611" stroke-linecap="round" stroke-linejoin="round" stroke-width=".5"/><path d="m649.6 122.8-4.4-1.5-1.1 3.1 4.4 1.5z" stroke="#000" stroke-linecap="round" stroke-linejoin="round" stroke-width=".5"/><path d="m619.2 107.3s-15.9 5-16 5.4-2.2 4.1-2.2 4.1l1 3.2s-5.3 6.9-5 7 3.9 2.3 3.9 2.3l-.6 4.7 2.7 7.5 9.7-1.1s5 24.3 5.5 24.3c5.8.3 22.7-7.7 22.7-7.7l-3.4-18.5 5.9-17.7-13.1-7.4z" fill="#ffb7a6" stroke="#000" stroke-linecap="round" stroke-linejoin="round" stroke-width=".5"/><path d="m626.4 113.9-4.4 11.2-2.8-.4-.5-11.5z" fill="#101010" stroke="#101010" stroke-linecap="round" stroke-linejoin="round" stroke-width=".5"/><path d="m605.5 122.6c.9 0 1.7-.7 1.7-1.7 0-.9-.7-1.7-1.7-1.7-.9 0-1.7.7-1.7 1.7 0 .9.8 1.7 1.7 1.7z"/><path d="m620.6 114.3-9.9-9.7h-.1c-.3 0-21.5.8-21.5.8s-5.4 3.3 2.5 6.8l13.3 1.2c1.2.3 2.5.5 3.7.6 7 .5 12 .3 12 .3z" fill="#fff" stroke="#261611" stroke-linecap="round" stroke-linejoin="round" stroke-width=".5"/><path d="m635.3 137.5c-2.2-3.8-3.9-11.8-3.9-11.8s-2.4-10.4-1.3-12.2 12.8 2.7 13.2 3.2-4.1 16.3-4.1 16.3l-1.9 5.7z" fill="#101010" stroke="#101010" stroke-linecap="round" stroke-linejoin="round" stroke-width=".5"/><path d="m620.5 114.8 24.9 9.2s8.6-20.5-13.6-29.1c0 0-10.8-2.2-20.5 2.2 0 0-4.2 3-9 9.5 0 0 13.3 3.1 17.6 8z" fill="#fff" stroke="#261611" stroke-linecap="round" stroke-linejoin="round" stroke-width=".5"/><path d="m625 119.8c.5-1.6 1.8-3.2 3.9-3 3.2.4 3.5 3.2 3.4 5.8-.5 3.6-2.4 6.3-6.4 7.6-.9.2-1.5.1-2.3-.2" fill="#ffb7a6"/><path d="m625 119.8c.5-1.6 1.8-3.2 3.9-3 3.2.4 3.5 3.2 3.4 5.8-.5 3.6-2.4 6.3-6.4 7.6-.9.2-1.5.1-2.3-.2" fill="none" stroke="#000" stroke-linecap="round" stroke-linejoin="round" stroke-width=".5"/><path d="m600.2 134 4.5.1" fill="none" stroke="#000" stroke-linecap="round" stroke-linejoin="round" stroke-width=".5"/><path d="m553.1 179.2c-.6-.7-29.2-26.7-29.2-26.7l-3.3-16.4c-.2-.9-.8-1.8-1.6-2.3l-8.7-5.3c-.8-.5-1.7-.7-2.6-.8l-13-1s-.6 5.1 1.7 5.3 10.8 1.9 10.8 1.9l-3.3-.5-1.5 6.8c-.2 1.3.3 2.6 1.3 3.3l4.2 3.3.8-3.9s-2.3 5.4 1.9 10.2c1.7 1.9 4.2 2.8 4.2 2.8 11.4 18.7 23.6 37.1 34.2 44.3l39.8-2.4-7.3-21.2z" fill="#ffb7a6" stroke="#101010" stroke-linecap="round" stroke-linejoin="round" stroke-width=".5"/><path d="m657.6 152.2c8.5 33.7 5.9 86.2 5.9 86.2s-13.5 6.8-30.8 8.1-33.8-8.7-33.8-8.7l4.7-39.6-23.4 4.9c.1-6.1-5.6-27.8-5.6-27.8s9.1-1.5 15.7-6.2c9.8-6.9 18.3-11.1 22.3-12.5 7.7.4 11.7.4 16.7-1.5 9.6-3.7 10.2-9.7 10.2-9.7" fill="#fff"/><path d="m657.6 152.2c8.5 33.7 5.9 86.2 5.9 86.2s-13.5 6.8-30.8 8.1-33.8-8.7-33.8-8.7l4.7-39.6-23.4 4.9c.1-6.1-5.6-27.8-5.6-27.8s9.1-1.5 15.7-6.2c9.8-6.9 18.3-11.1 22.3-12.5 7.7.4 11.7.4 16.7-1.5 9.6-3.7 10.2-9.7 10.2-9.7" fill="none" stroke="#261611" stroke-linecap="round" stroke-linejoin="round" stroke-width=".5"/><path d="m401.2 98.8 51.1-44.6 42.5 68.6-44 47.8z" fill="#ff5a3d" opacity=".4"/><path d="m417.1 85.1 35.8-32 42.5 68.6-44 47.8-49.6-71.8" fill="none" stroke="#ea5132" stroke-linecap="round" stroke-linejoin="round" stroke-width=".5"/><path d="m457.2 26.3 51.1-44.6 42.5 68.6-44 47.8z" fill="#00e9d3" opacity=".3"/><g fill="none"><path d="m551.3 49.2-44 47.8-49.6-71.8" stroke="#00756a" stroke-linecap="round" stroke-linejoin="round" stroke-width=".5"/><path d="m473 12.6 35.8-32 28.6 46" stroke="#00756a" stroke-linecap="round" stroke-linejoin="round" stroke-width=".5"/><path d="m540.4 32.6 7 9.7" stroke="#00756a" stroke-linecap="round" stroke-linejoin="round" stroke-width=".5"/><path d="m491.2 17.8 21-20.3" stroke="#00756a" stroke-linecap="round" stroke-linejoin="round" stroke-width=".5"/><path d="m499 21.5 16.8-16.3" stroke="#00756a" stroke-linecap="round" stroke-linejoin="round" stroke-width=".5"/><path d="m505.2 27.6 16.8-16.2" stroke="#00756a" stroke-linecap="round" stroke-linejoin="round" stroke-width=".5"/><path d="m506.6 79.6 31.9-33.8" stroke="#00756a" stroke-linecap="round" stroke-linejoin="round" stroke-width=".5"/><path d="m500.4 72.3 31.9-33.8" stroke="#00756a" stroke-linecap="round" stroke-linejoin="round" stroke-width=".5"/><path d="m512.4 31.7 11.1-10.7" stroke="#00756a" stroke-linecap="round" stroke-linejoin="round" stroke-width=".5"/><path d="m433 113.2s-5.3-.8-7.6-4.3-3.1-8.9-.7-11.4c2-2 15.9-12.6 21.5-16.8 1.3-1 3.1-.6 4.2.8l14.6 18.7" stroke="#ea5132" stroke-linecap="round" stroke-linejoin="round" stroke-width=".5"/><path d="m429 104.9 1.8-1.2 16.5 21.9s3.9 6.4 9.7 2.5c3.5-2.3 2.9-7 .8-10s-7.2-2.8-10.2-.5l3.8 4.7 1.6-1.1" stroke="#ea5132" stroke-linecap="round" stroke-linejoin="round" stroke-width=".5"/><path d="m457 128.1c.1.1 12.7-9.9 15.4-12.4 3.7-3.4 2.8-6.8 1.3-9-1.7-2.6-5.1-4.5-9.1-1.8-4.1 2.7-16.3 12.3-16.3 12.3" stroke="#ea5132" stroke-linecap="round" stroke-linejoin="round" stroke-width=".5"/><path d="m435.8 100.4 11.6-9" stroke="#ea5132" stroke-linecap="round" stroke-linejoin="round" stroke-width=".5"/><path d="m440.4 105.3 13.5-10.4" stroke="#ea5132" stroke-linecap="round" stroke-linejoin="round" stroke-width=".5"/><path d="m444.4 110.5 11.6-9" stroke="#ea5132" stroke-linecap="round" stroke-linejoin="round" stroke-width=".5"/><path d="m484.9 22.6s-10.5 10.3-7.6 14.4c4.2 5.8 22.4-4.4 20-6.9-3.7-3.8-17.2 14.3-12.5 20 6.7 8.1 22.8-5.7 20.2-9.4-2.4-3.6-16.9 15.4-7.6 20.9" stroke="#00756a" stroke-linecap="round" stroke-linejoin="round" stroke-width=".5"/></g></g></g></svg>