<svg width="16" height="16" viewBox="0 0 16 16" fill="none" xmlns="http://www.w3.org/2000/svg">
<path fill-rule="evenodd" clip-rule="evenodd" d="M7.83915 1.1326C8.04206 1.3199 8.05471 1.63623 7.86741 1.83914L2.642 7.50001L14.5 7.50001C14.7762 7.50001 15 7.72387 15 8.00001C15 8.27615 14.7762 8.50001 14.5 8.50001L1.50001 8.50001C1.30141 8.50001 1.12164 8.38247 1.04199 8.20054C0.962335 8.01862 0.997903 7.8068 1.13261 7.66087L7.13261 1.16086C7.31991 0.957952 7.63624 0.945299 7.83915 1.1326ZM2.15518 8.88793C2.35515 8.69749 2.67164 8.70521 2.86208 8.90517L7.86208 14.1552C8.05252 14.3551 8.0448 14.6716 7.84484 14.8621C7.64487 15.0525 7.32838 15.0448 7.13794 14.8448L2.13794 9.59483C1.9475 9.39487 1.95522 9.07838 2.15518 8.88793Z" fill="currentColor"/>
</svg>
