<svg width="17" height="16" viewBox="0 0 17 16" fill="none" xmlns="http://www.w3.org/2000/svg">
<g clip-path="url(#clip0_30_51)">
<path d="M13.5886 3.19173C13.399 2.99095 13.0825 2.98187 12.8817 3.17145C12.681 3.36103 12.6719 3.67748 12.8615 3.87827L13.5886 3.19173ZM11.329 2.70578C11.5724 2.83614 11.8754 2.74448 12.0058 2.50104C12.1361 2.25761 12.0445 1.95459 11.801 1.82422L11.329 2.70578ZM7.975 1.71L8.33644 2.05549L8.33781 2.05405L7.975 1.71ZM8.01 14.325L8.34218 13.9513L8.34158 13.9508L8.01 14.325ZM8.93 14.27L9.3006 14.6056L9.30182 14.6043L8.93 14.27ZM12.8615 3.87827C13.8774 4.95429 14.5 6.40282 14.5 8H15.5C15.5 6.13718 14.7726 4.44571 13.5886 3.19173L12.8615 3.87827ZM14.5 8C14.5 11.3139 11.8139 14 8.5 14V15C12.3661 15 15.5 11.8661 15.5 8H14.5ZM8.5 14C5.18614 14 2.5 11.3139 2.5 8H1.5C1.5 11.8661 4.63386 15 8.5 15V14ZM2.5 8C2.5 4.68614 5.18614 2 8.5 2V1C4.63386 1 1.5 4.13386 1.5 8H2.5ZM8.5 2C9.52607 2 10.4852 2.25391 11.329 2.70578L11.801 1.82422C10.8148 1.29609 9.69393 1 8.5 1V2ZM3.00005 5.99H14.465V4.99H3.00005V5.99ZM2.99999 10.995H14.47V9.995H2.99999V10.995ZM9.31355 1.40645C8.89863 0.991528 8.13779 0.811682 7.61219 1.36595L8.33781 2.05405C8.36485 2.02554 8.39025 2.0169 8.42687 2.01975C8.47276 2.02331 8.54172 2.04883 8.60645 2.11355L9.31355 1.40645ZM7.61356 1.36451C6.52397 2.5044 5.5 4.93397 5.5 8.225H6.5C6.5 5.10603 7.47603 2.9556 8.33644 2.05549L7.61356 1.36451ZM5.5 8.225C5.5 11.5231 6.57388 13.7206 7.67842 14.6992L8.34158 13.9508C7.51612 13.2194 6.5 11.3369 6.5 8.225H5.5ZM7.67782 14.6987C8.15963 15.127 8.8826 15.0672 9.3006 14.6056L8.5594 13.9344C8.4974 14.0028 8.40037 14.003 8.34218 13.9513L7.67782 14.6987ZM9.30182 14.6043C10.3068 13.4865 11.5 11.6511 11.5 8.23H10.5C10.5 11.3689 9.42325 12.9735 8.55818 13.9357L9.30182 14.6043ZM11.5 8.23C11.5 4.85511 10.406 2.49888 9.31355 1.40645L8.60645 2.11355C9.46401 2.97112 10.5 5.04489 10.5 8.23H11.5Z" fill="#101010"/>
</g>
<defs>
<clipPath id="clip0_30_51">
<rect width="16" height="16" fill="white" transform="translate(0.5)"/>
</clipPath>
</defs>
</svg>
