<svg width="154" height="26" viewBox="0 0 154 26" fill="none" xmlns="http://www.w3.org/2000/svg">
<g clip-path="url(#clip0_282_153)">
<path d="M23.8469 17.1363V2.2484C23.8277 1.001 22.8382 0 21.5908 0H6.0522C2.69885 0.0539 0 2.79125 0 6.16385C0 7.2996 0.30415 8.2698 0.77385 9.12065C1.1627 9.82905 1.78255 10.4951 2.39855 10.9994C2.56795 11.1381 2.4871 11.0841 3.01455 11.4075C3.7422 11.8541 4.57765 12.0774 4.57765 12.0774L4.56995 20.9787C4.5892 21.3983 4.6354 21.8025 4.73935 22.1798C5.08585 23.4311 5.9521 24.3974 7.1379 24.8671C7.6307 25.0635 8.1928 25.1944 8.7857 25.1982L21.1943 25.2444C23.6698 25.2444 25.6757 23.2347 25.6757 20.7554C25.6757 19.2731 24.9557 17.9564 23.8469 17.1402V17.1363Z" fill="#FFEEDA"/>
<path d="M24.1472 20.8515C24.0972 22.4416 22.792 23.7121 21.1943 23.7121L12.6511 23.6774C13.3326 22.8882 13.7445 21.8641 13.7445 20.7514C13.7445 18.9958 12.6973 17.7908 12.6973 17.7908H21.1904C22.8228 17.7908 24.1472 19.1152 24.1472 20.7514V20.8477V20.8515Z" fill="#EBC28E"/>
<path d="M3.19935 9.72895C2.2176 8.8011 1.5246 7.59605 1.5246 6.16V6.006C1.60545 3.5651 3.61515 1.60545 6.04835 1.52845H21.5908C21.9989 1.54385 22.3262 1.8326 22.3262 2.2484V15.3923C22.6842 15.4577 22.8574 15.5001 23.2001 15.6271C23.4696 15.7234 23.8507 15.9428 23.8507 15.9428V2.2484C23.8277 1.001 22.8421 0 21.5908 0H6.0522C2.69885 0.0539 0 2.79125 0 6.16385C0 8.11965 0.88935 9.7867 2.35235 10.9609C2.4486 11.0379 2.54485 11.1419 2.80665 11.1419C3.2648 11.1419 3.58435 10.78 3.5651 10.3834C3.5497 10.0562 3.4111 9.933 3.19935 9.7328V9.72895Z" fill="#190602"/>
<path d="M21.1943 16.2663H9.00518C8.18513 16.274 7.52678 16.94 7.52678 17.7601V19.508C7.54988 20.3165 8.23903 21.0133 9.05523 21.0133H9.95998V19.508H9.05523V17.7986H9.54803C11.0842 17.7986 12.2161 19.2308 12.2161 20.7592C12.2161 22.1144 10.9841 23.8469 8.91278 23.7083C7.07633 23.5851 6.09073 21.9527 6.09073 20.7592V5.89824C6.09073 5.22834 5.54788 4.68164 4.87413 4.68164H3.66138V6.19854H4.56613V20.7515C4.51993 23.7122 6.67593 25.2021 8.91663 25.2021L21.1904 25.2368C23.666 25.2368 25.6718 23.2271 25.6718 20.7477C25.6718 18.2683 23.666 16.2586 21.1904 16.2586L21.1943 16.2663ZM24.1472 20.8516C24.0972 22.4417 22.792 23.7122 21.1943 23.7122L12.6511 23.6775C13.3326 22.8883 13.7445 21.8642 13.7445 20.7515C13.7445 18.9959 12.6973 17.7909 12.6973 17.7909H21.1904C22.8228 17.7909 24.1472 19.1153 24.1472 20.7515V20.8478V20.8516Z" fill="#190602"/>
<path d="M17.9141 4.95874H8.72803V6.47564H17.9141C18.3338 6.47564 18.6726 6.13684 18.6726 5.71719C18.6726 5.29754 18.3338 4.95874 17.9141 4.95874Z" fill="#190602"/>
<path d="M17.9141 12.1121H8.72803V13.629H17.9141C18.3338 13.629 18.6726 13.2902 18.6726 12.8705C18.6726 12.4509 18.3338 12.1121 17.9141 12.1121Z" fill="#190602"/>
<path d="M19.5311 8.5354H8.72803V10.0523H19.5311C19.9508 10.0523 20.2896 9.7135 20.2896 9.29385C20.2896 8.8742 19.9508 8.5354 19.5311 8.5354Z" fill="#190602"/>
<path d="M35.1427 6.88385C33.4218 6.88385 32.0858 7.86945 32.0858 9.32475C32.0858 10.78 33.2139 11.2305 34.6076 11.5L36.3709 11.7887C38.7078 12.1776 40.3287 13.244 40.3287 15.8081C40.3287 18.3722 38.1342 20.0316 35.3468 20.0316C32.8289 20.0316 30.4611 18.5455 30.1146 15.6503C30.0838 15.4077 30.2725 15.1921 30.5189 15.1921H31.5699C31.774 15.1921 31.9472 15.3423 31.9703 15.5425C32.2206 17.6022 33.8106 18.4107 35.366 18.4107C37.0677 18.4107 38.4229 17.5714 38.4229 15.8697C38.4229 14.3528 37.3372 13.8177 35.9012 13.552L34.1571 13.244C31.7162 12.8321 30.1801 11.6655 30.1801 9.4287C30.1801 6.84535 32.4362 5.26685 35.1427 5.26685C37.3026 5.26685 39.6896 6.4873 40.1516 9.3671C40.1901 9.6135 40.0014 9.8368 39.7512 9.8368H38.6578C38.4614 9.8368 38.292 9.6982 38.2574 9.50185C37.9378 7.5807 36.5403 6.88385 35.1427 6.88385Z" fill="#190602"/>
<path d="M47.3472 8.47401C49.9537 8.47401 51.8132 9.86771 52.4677 12.1354C52.5409 12.3933 52.3445 12.6513 52.075 12.6513H50.843C50.6698 12.6513 50.5158 12.5396 50.458 12.3741C49.9999 11.0766 48.945 10.3374 47.3434 10.3374C45.1643 10.3374 43.9438 12.1161 43.9438 14.249C43.9438 16.3819 45.1643 18.1606 47.3434 18.1606C48.945 18.1606 49.9999 17.4214 50.458 16.124C50.5158 15.9584 50.6659 15.8468 50.843 15.8468H52.0673C52.3368 15.8468 52.5332 16.1086 52.4562 16.3665C51.7555 18.7381 49.9575 20.024 47.3434 20.024C43.9862 20.024 41.8533 17.4253 41.8533 14.2452C41.8533 11.0651 43.9862 8.46631 47.3434 8.46631L47.3472 8.47401Z" fill="#190602"/>
<path d="M54.4352 18.1799H57.0647V10.8803H54.7201C54.4968 10.8803 54.3158 10.6993 54.3158 10.476V9.44035C54.3158 9.21705 54.4968 9.0361 54.7201 9.0361H57.9117C58.5855 9.0361 59.1283 9.5828 59.1283 10.2527V10.5492C59.7058 9.15545 60.9571 8.81665 62.8898 8.81665C63.6329 8.81665 64.1256 8.936 64.4067 9.0438C64.5645 9.10155 64.6685 9.25555 64.6685 9.42495V10.4953C64.6685 10.7686 64.4029 10.965 64.1411 10.8803C63.7946 10.7648 63.3094 10.6647 62.6703 10.6647C60.6029 10.6647 59.1283 12.0738 59.1283 14.5147V18.1876H62.5048C62.7281 18.1876 62.909 18.3685 62.909 18.5918V19.6274C62.909 19.8507 62.7281 20.0317 62.5048 20.0317H54.4314C54.2081 20.0317 54.0271 19.8507 54.0271 19.6274V18.5918C54.0271 18.3685 54.2081 18.1876 54.4314 18.1876L54.4352 18.1799Z" fill="#190602"/>
<path d="M66.2161 14.2488C66.2161 11.0726 68.3259 8.46997 71.7485 8.46997C75.1712 8.46997 77.281 11.0687 77.281 14.2488C77.281 17.4289 75.1712 20.0277 71.7485 20.0277C68.3259 20.0277 66.2161 17.4289 66.2161 14.2488ZM71.7485 18.1604C73.9469 18.1604 75.2135 16.3817 75.2135 14.2488C75.2135 12.1159 73.9469 10.3372 71.7485 10.3372C69.5502 10.3372 68.2835 12.1159 68.2835 14.2488C68.2835 16.3817 69.5502 18.1604 71.7485 18.1604Z" fill="#190602"/>
<path d="M81.8739 18.2683H85.0463C85.2696 18.2683 85.4506 18.4492 85.4506 18.6725V19.6196C85.4506 19.8429 85.2696 20.0239 85.0463 20.0239H80.2954C80.0721 20.0239 79.8912 19.8429 79.8912 19.6196V7.12254H78.3127C78.0894 7.12254 77.9084 6.94159 77.9084 6.71829V5.77119C77.9084 5.54789 78.0894 5.36694 78.3127 5.36694H80.6573C81.3272 5.36694 81.8739 5.90979 81.8739 6.58354V18.2721V18.2683Z" fill="#190602"/>
<path d="M88.8888 18.2683H92.0612C92.2845 18.2683 92.4655 18.4492 92.4655 18.6725V19.6196C92.4655 19.8429 92.2845 20.0239 92.0612 20.0239H87.3103C87.087 20.0239 86.9061 19.8429 86.9061 19.6196V7.12254H85.3276C85.1043 7.12254 84.9233 6.94159 84.9233 6.71829V5.77119C84.9233 5.54789 85.1043 5.36694 85.3276 5.36694H87.6722C88.3421 5.36694 88.8888 5.90979 88.8888 6.58354V18.2721V18.2683Z" fill="#190602"/>
<path d="M122.572 19.1114C121.864 18.5377 121.594 17.7677 121.594 16.7975C121.594 14.9996 122.865 13.8792 125.579 13.4519L127.169 13.1862C127.701 13.0977 128.082 12.9822 128.32 12.8436C128.559 12.705 128.675 12.4547 128.675 12.1044C128.675 11.5307 128.451 11.0649 128.001 10.7107C127.55 10.3565 126.988 10.1794 126.311 10.1794C125.56 10.1794 124.944 10.3719 124.463 10.753C124.066 11.0687 123.816 11.4999 123.704 12.0466C123.662 12.2507 123.481 12.397 123.273 12.3777L122.126 12.2853C121.895 12.2661 121.718 12.0543 121.756 11.8233C121.906 10.8608 122.349 10.0793 123.092 9.48637C123.939 8.80877 125.006 8.46997 126.288 8.46997C127.112 8.46997 127.862 8.62397 128.532 8.93582C129.202 9.24382 129.737 9.70197 130.134 10.3064C130.53 10.9109 130.731 11.6424 130.731 12.4932V19.6042C130.731 19.7351 130.642 20.0238 130.411 20.0238H129.41C129.202 20.0238 129.025 19.866 129.006 19.6581C128.975 19.3539 128.963 18.7418 128.963 18.376C128.24 19.5849 127.023 19.9661 125.314 19.9661C124.193 19.9661 123.281 19.6773 122.572 19.1037V19.1114ZM124.22 17.9602C124.655 18.2682 125.206 18.4261 125.868 18.4261C126.707 18.4261 127.246 18.2105 127.762 17.7254C128.278 17.2403 128.675 16.6397 128.675 15.6618V14.8995C128.675 14.6454 128.444 14.449 128.193 14.5029C128.043 14.5337 127.885 14.5607 127.724 14.5799L125.999 14.8879C125.248 15.0073 124.655 15.1959 124.22 15.45C123.785 15.708 123.566 16.1084 123.566 16.6551C123.566 17.2018 123.785 17.6484 124.22 17.9602Z" fill="#190602"/>
<path d="M137.765 8.47388C140.375 8.47388 142.231 9.86758 142.885 12.1391C142.958 12.397 142.758 12.6511 142.492 12.6511H141.26C141.091 12.6511 140.937 12.5433 140.879 12.3855C140.425 11.0842 139.366 10.3411 137.761 10.3411C135.582 10.3411 134.361 12.1198 134.361 14.2527C134.361 16.3856 135.582 18.1643 137.761 18.1643C139.366 18.1643 140.421 17.4213 140.879 16.12C140.937 15.9583 141.091 15.8543 141.26 15.8543H142.485C142.754 15.8543 142.95 16.1123 142.877 16.3702C142.177 18.7457 140.383 20.0316 137.765 20.0316C134.407 20.0316 132.274 17.4328 132.274 14.2527C132.274 11.0726 134.407 8.47388 137.765 8.47388Z" fill="#190602"/>
<path d="M103.962 6.88385C102.241 6.88385 100.905 7.86945 100.905 9.32475C100.905 10.78 102.033 11.2305 103.426 11.5L105.19 11.7887C107.527 12.1776 109.148 13.244 109.148 15.8081C109.148 18.3722 106.953 20.0316 104.166 20.0316C101.648 20.0316 99.28 18.5455 98.9335 15.6503C98.9027 15.4077 99.0913 15.1921 99.3377 15.1921H100.389C100.593 15.1921 100.766 15.3423 100.789 15.5425C101.039 17.6022 102.629 18.4107 104.185 18.4107C105.887 18.4107 107.242 17.5714 107.242 15.8697C107.242 14.3528 106.156 13.8177 104.72 13.552L102.976 13.244C100.535 12.8321 98.9989 11.6655 98.9989 9.4287C98.9989 6.84535 101.255 5.26685 103.962 5.26685C106.121 5.26685 108.508 6.4873 108.97 9.3671C109.009 9.6135 108.82 9.8368 108.57 9.8368H107.477C107.28 9.8368 107.111 9.6982 107.076 9.50185C106.757 7.5807 105.359 6.88385 103.962 6.88385Z" fill="#190602"/>
<path d="M113.864 16.2469V10.3256H111.123C110.899 10.3256 110.718 10.1447 110.718 9.92138V8.93578C110.718 8.71248 110.899 8.53153 111.123 8.53153H113.864L113.852 6.69893C113.852 6.47563 114.033 6.29468 114.256 6.29468H115.45C115.673 6.29468 115.854 6.47563 115.854 6.69893L115.866 8.53153H119.546C119.77 8.53153 119.951 8.71248 119.951 8.93578V9.92138C119.951 10.1447 119.77 10.3256 119.546 10.3256H115.866V16.0159C115.866 17.6406 117.221 18.2143 118.368 18.2143C118.634 18.2143 118.857 18.1873 119.034 18.1565C119.285 18.1103 119.516 18.299 119.516 18.5531V19.5233C119.516 19.7196 119.377 19.8852 119.184 19.9237C118.903 19.9776 118.491 20.0276 117.987 20.0276C115.943 20.0276 113.86 18.9188 113.86 16.2469H113.864Z" fill="#190602"/>
<path d="M144.837 6.27173H145.976C146.196 6.27173 146.373 6.44883 146.373 6.66828V13.0362L151.74 8.59328C151.813 8.51243 151.917 8.47008 152.029 8.47008L153.569 8.45083C154.1 8.45083 154.088 9.05528 153.811 9.30168L149.599 12.9245L153.75 19.3271C153.954 19.585 153.711 20.0124 153.353 20.0278H152.025C151.902 20.0278 151.79 19.97 151.713 19.8776L148.048 14.195L146.35 15.6272L146.365 19.6351C146.365 19.8545 146.188 20.0316 145.969 20.0316H144.829C144.61 20.0316 144.433 19.8545 144.433 19.6351V6.66828C144.433 6.44883 144.61 6.27173 144.829 6.27173H144.837Z" fill="#190602"/>
</g>
<defs>
<clipPath id="clip0_282_153">
<rect width="154" height="25.2406" fill="white"/>
</clipPath>
</defs>
</svg>
