<svg width="601" height="115" viewBox="0 0 601 115" fill="none" xmlns="http://www.w3.org/2000/svg">
<path d="M158.78 31.78C151.03 31.78 145.04 36.21 145.04 42.76C145.04 49.31 150.11 51.34 156.39 52.54L164.32 53.83C174.84 55.58 182.12 60.38 182.12 71.91C182.12 83.44 172.25 90.91 159.71 90.91C148.39 90.91 137.74 84.23 136.17 71.19C136.04 70.1 136.89 69.14 137.98 69.14H142.72C143.63 69.14 144.42 69.81 144.53 70.72C145.65 79.98 152.81 83.62 159.8 83.62C167.46 83.62 173.54 79.84 173.54 72.18C173.54 65.35 168.65 62.96 162.19 61.76L154.35 60.38C143.37 58.54 136.46 53.28 136.46 43.22C136.46 31.6 146.61 24.5 158.78 24.5C168.5 24.5 179.23 29.99 181.31 42.95C181.49 44.06 180.63 45.07 179.51 45.07H174.59C173.71 45.07 172.94 44.44 172.8 43.57C171.37 34.93 165.08 31.79 158.79 31.79L158.78 31.78Z" fill="#190602"/>
<path d="M213.69 38.9199C225.42 38.9199 233.77 45.1899 236.72 55.3999C237.06 56.5599 236.17 57.7199 234.96 57.7199H229.42C228.64 57.7199 227.95 57.2199 227.69 56.4799C225.63 50.6499 220.88 47.3199 213.68 47.3199C203.88 47.3199 198.39 55.3199 198.39 64.9099C198.39 74.4999 203.89 82.4999 213.68 82.4999C220.88 82.4999 225.63 79.1799 227.69 73.3399C227.95 72.5999 228.63 72.0999 229.42 72.0999H234.93C236.15 72.0999 237.03 73.2699 236.68 74.4399C233.53 85.1099 225.45 90.8999 213.68 90.8999C198.59 90.8999 188.99 79.1999 188.99 64.9099C188.99 50.6199 198.59 38.9199 213.68 38.9199H213.69Z" fill="#190602"/>
<path d="M245.57 82.5999H257.4V49.75H246.86C245.85 49.75 245.04 48.93 245.04 47.93V43.27C245.04 42.26 245.86 41.45 246.86 41.45H261.22C264.25 41.45 266.7 43.91 266.69 46.93V48.26C269.29 41.99 274.91 40.46 283.62 40.46C286.97 40.46 289.19 41 290.45 41.48C291.16 41.75 291.63 42.43 291.63 43.19V48C291.63 49.24 290.43 50.12 289.25 49.74C287.68 49.23 285.5 48.77 282.63 48.77C273.33 48.77 266.7 55.1 266.7 66.08V82.5999H281.89C282.9 82.5999 283.71 83.42 283.71 84.42V89.08C283.71 90.09 282.89 90.9 281.89 90.9H245.57C244.56 90.9 243.75 90.08 243.75 89.08V84.42C243.75 83.41 244.57 82.5999 245.57 82.5999Z" fill="#190602"/>
<path d="M298.58 64.9099C298.58 50.6099 308.08 38.9199 323.47 38.9199C338.86 38.9199 348.36 50.6199 348.36 64.9099C348.36 79.1999 338.86 90.8999 323.47 90.8999C308.08 90.8999 298.58 79.1999 298.58 64.9099ZM323.47 82.4999C333.37 82.4999 339.06 74.4999 339.06 64.9099C339.06 55.3199 333.36 47.3199 323.47 47.3199C313.58 47.3199 307.88 55.3199 307.88 64.9099C307.88 74.4999 313.58 82.4999 323.47 82.4999Z" fill="#190602"/>
<path d="M369.01 82.9899H383.28C384.29 82.9899 385.1 83.8099 385.1 84.8099V89.08C385.1 90.09 384.28 90.9 383.28 90.9H361.91C360.9 90.9 360.09 90.08 360.09 89.08V32.8499H352.99C351.98 32.8499 351.17 32.0299 351.17 31.0299V26.7599C351.17 25.7499 351.99 24.9399 352.99 24.9399H363.55C366.57 24.9399 369.02 27.3899 369.02 30.4099V82.9899H369.01Z" fill="#190602"/>
<path d="M400.56 82.9899H414.83C415.84 82.9899 416.65 83.8099 416.65 84.8099V89.08C416.65 90.09 415.83 90.9 414.83 90.9H393.46C392.45 90.9 391.64 90.08 391.64 89.08V32.8499H384.54C383.53 32.8499 382.72 32.0299 382.72 31.0299V26.7599C382.72 25.7499 383.54 24.9399 384.54 24.9399H395.1C398.12 24.9399 400.57 27.3899 400.57 30.4099V82.9899H400.56Z" fill="#190602"/>
<path d="M501.44 26.2699C501.44 25.2599 502.26 24.45 503.26 24.45H517.33C527.35 24.45 534.82 27.5199 539.73 33.6599C544.64 39.7999 547.1 47.8099 547.1 57.6799C547.1 67.5499 544.64 75.56 539.73 81.7C534.81 87.84 527.35 90.9099 517.33 90.9099H503.26C502.25 90.9099 501.44 90.09 501.44 89.09V26.2799V26.2699ZM533.27 76.0399C536.56 71.4499 538.2 65.3299 538.2 57.6699C538.2 50.0099 536.56 43.8899 533.27 39.2999C529.98 34.7099 524.67 32.42 517.33 32.42H510.34V82.9299H517.33C524.67 82.9299 529.98 80.6399 533.27 76.0499V76.0399Z" fill="#190602"/>
<path d="M558.19 24.45H563.45C564.46 24.45 565.27 25.2699 565.27 26.2699V58.34L590.48 25.17C590.82 24.72 591.36 24.45 591.93 24.45H598.24C599.74 24.45 600.6 26.1599 599.7 27.3699L579.77 53.9799L600.23 88.15C600.96 89.37 600.08 90.9099 598.67 90.9099H592.44C591.8 90.9099 591.2 90.57 590.87 90.02L573.96 61.6199L565.27 73.02V89.09C565.27 90.1 564.45 90.9099 563.45 90.9099H558.19C557.18 90.9099 556.37 90.09 556.37 89.09V26.2799C556.37 25.2699 557.19 24.4599 558.19 24.4599V24.45Z" fill="#190602"/>
<path d="M468.37 31.74C460.62 31.74 454.63 36.17 454.63 42.72C454.63 49.27 459.7 51.3 465.98 52.5L473.91 53.7899C484.43 55.5399 491.71 60.34 491.71 71.87C491.71 83.4 481.84 90.87 469.3 90.87C457.98 90.87 447.33 84.19 445.76 71.15C445.63 70.06 446.48 69.0999 447.57 69.0999H452.31C453.22 69.0999 454.01 69.77 454.12 70.68C455.24 79.94 462.4 83.58 469.39 83.58C477.05 83.58 483.13 79.8 483.13 72.14C483.13 65.31 478.24 62.9199 471.78 61.7199L463.94 60.34C452.96 58.5 446.05 53.24 446.05 43.18C446.05 31.56 456.2 24.46 468.37 24.46C478.09 24.46 488.82 29.95 490.9 42.91C491.08 44.02 490.22 45.03 489.1 45.03H484.18C483.3 45.03 482.53 44.4 482.39 43.53C480.96 34.89 474.67 31.75 468.38 31.75L468.37 31.74Z" fill="#190602"/>
<path d="M107.93 77.55V10.48C107.84 4.86998 103.39 0.349976 97.76 0.349976H27.76C12.66 0.599976 0.5 12.93 0.5 28.11C0.5 33.24 1.87 37.6 3.98 41.43C5.74 44.62 8.53 47.63 11.3 49.89C12.06 50.51 11.7 50.2799 14.07 51.7299C17.35 53.7399 21.1 54.74 21.1 54.74L21.07 94.8499C21.15 96.7499 21.36 98.57 21.83 100.27C23.4 105.91 27.3 110.26 32.64 112.37C34.87 113.25 37.4 113.84 40.07 113.86L95.98 114.06C107.13 114.06 116.17 105.01 116.17 93.84C116.17 87.15 112.93 81.23 107.93 77.55Z" fill="#FFEEDA"/>
<path d="M109.28 94.28C109.05 101.44 103.18 107.17 95.97 107.17L57.48 107.02C60.56 103.47 62.41 98.86 62.41 93.84C62.41 85.94 57.7 80.51 57.7 80.51H95.97C103.32 80.51 109.28 86.48 109.28 93.84V94.28Z" fill="#EBC28E"/>
<path d="M14.91 44.18C10.49 40 7.37 34.57 7.37 28.11V27.42C7.74 16.43 16.78 7.58999 27.76 7.23999H97.76C99.6 7.29999 101.07 8.62001 101.07 10.48V69.7C102.69 69.99 103.46 70.19 105.01 70.76C106.22 71.2 107.94 72.18 107.94 72.18V10.49C107.84 4.87999 103.39 0.359985 97.76 0.359985H27.76C12.66 0.609985 0.5 12.94 0.5 28.12C0.5 36.93 4.51 44.44 11.09 49.74C11.53 50.09 11.96 50.55 13.14 50.55C15.2 50.55 16.65 48.93 16.56 47.13C16.49 45.65 15.87 45.11 14.91 44.2V44.18Z" fill="#190602"/>
<path d="M95.97 73.6199H41.06C37.37 73.6499 34.39 76.65 34.39 80.34V88.21C34.5 91.86 37.6 94.9799 41.28 94.9799H45.36V88.21H41.28V80.4999H43.51C50.44 80.4999 55.54 86.95 55.54 93.83C55.54 99.93 49.99 107.74 40.67 107.12C32.39 106.56 27.95 99.21 27.95 93.83V26.9099C27.95 23.8899 25.5 21.4299 22.47 21.4299H17V28.2599H21.07V93.8199C20.86 107.15 30.57 113.88 40.67 113.88L95.97 114.04C107.12 114.04 116.16 104.99 116.16 93.8199C116.16 82.6499 107.12 73.5999 95.97 73.5999V73.6199ZM109.28 94.28C109.05 101.44 103.18 107.17 95.97 107.17L57.48 107.02C60.56 103.47 62.41 98.86 62.41 93.84C62.41 85.94 57.7 80.5099 57.7 80.5099H95.97C103.32 80.5099 109.28 86.48 109.28 93.84V94.28Z" fill="#190602"/>
<path d="M81.2001 22.6799H39.8101V29.5099H81.2001C83.0901 29.5099 84.61 27.9799 84.61 26.0999C84.61 24.2199 83.0801 22.6899 81.2001 22.6899V22.6799Z" fill="#190602"/>
<path d="M81.2001 54.9099H39.8101V61.7399H81.2001C83.0901 61.7399 84.61 60.21 84.61 58.33C84.61 56.45 83.0801 54.9199 81.2001 54.9199V54.9099Z" fill="#190602"/>
<path d="M88.4801 38.79H39.8101V45.62H88.4801C90.3701 45.62 91.8901 44.09 91.8901 42.21C91.8901 40.33 90.3601 38.8 88.4801 38.8V38.79Z" fill="#190602"/>
</svg>
