<svg width="54" height="60" viewBox="0 0 54 60" fill="none" xmlns="http://www.w3.org/2000/svg">
<path d="M38.2448 17.5333L21.5311 8.31383L21.654 2.58633L43.3408 14.3106L38.2448 17.5333Z" fill="#991B1E"/>
<path d="M32.8293 40.019L10.954 26.1572C9.19255 27.2178 7.43106 28.2785 5.66138 29.3391C12.9122 34.1936 20.163 39.04 27.4219 43.8945L32.8293 40.019Z" fill="#EA929D"/>
<path d="M1.83533 37.139L6.1858 35.0258L21.7688 45.8363L21.7443 51.2292L1.83533 37.139Z" fill="#EA929D"/>
<path d="M51.0423 37.1634L45.4465 33.851L32.5753 43.6007L32.3787 51.115L51.0423 37.1634Z" fill="#EA929D"/>
<path d="M10.2003 26.6141L5.66142 29.3391L5.35828 23.4566L10.2003 26.6141Z" fill="#E7444F"/>
<path d="M27.8152 31.6807C27.7496 33.7775 27.6923 35.8743 27.6267 37.9712C20.2039 33.133 12.781 28.2948 5.35821 23.4566L5.66135 29.3391L27.4219 43.8863L27.3072 49.5567L26.9795 60L2.12198 42.1893L1.83523 37.139L21.7442 51.2211L21.7687 45.8363L1.06509 31.4767L0 14.3187L27.8152 31.6807Z" fill="#991B1E"/>
<path d="M0.00830078 14.3187L27.8153 31.6807L54 14.3432L26.4061 0L21.6541 2.58635L43.341 14.3106L27.5613 24.3133L5.53856 11.0634L0.00830078 14.3187Z" fill="#FFC82C"/>
<path d="M32.8293 40.0191C32.6818 43.715 32.5261 47.411 32.3787 51.1151L51.1815 37.0574L50.608 41.9935L26.9795 60C27.127 54.6315 27.2744 49.263 27.4137 43.8945" fill="#E7444F"/>
<path d="M27.6267 37.9712L27.8151 31.6807L53.9999 14.3432L53.5001 20.3563L33.0587 34.2752" fill="#E7444F"/>
</svg>
