<svg width="32" height="32" viewBox="0 0 32 32" fill="none" xmlns="http://www.w3.org/2000/svg">
<path fill-rule="evenodd" clip-rule="evenodd" d="M16 27.5C22.35 27.5 27.5 22.35 27.5 16C27.5 9.65 22.35 4.5 16 4.5C9.65 4.5 4.5 9.65 4.5 16C4.5 22.35 9.65 27.5 16 27.5ZM16 30C23.73 30 30 23.73 30 16C30 8.27 23.73 2 16 2C8.27 2 2 8.27 2 16C2 23.73 8.27 30 16 30Z" fill="#FF684B"/>
<path fill-rule="evenodd" clip-rule="evenodd" d="M16 13.12C16.69 13.12 17.25 13.68 17.25 14.37V22.37C17.25 23.06 16.69 23.62 16 23.62C15.31 23.62 14.75 23.06 14.75 22.37V14.37C14.75 13.68 15.31 13.12 16 13.12Z" fill="#FF684B"/>
<path d="M16 10.87C16.6904 10.87 17.25 10.3104 17.25 9.62C17.25 8.92964 16.6904 8.37 16 8.37C15.3096 8.37 14.75 8.92964 14.75 9.62C14.75 10.3104 15.3096 10.87 16 10.87Z" fill="#FF684B"/>
</svg>
