<svg width="18" height="18" viewBox="0 0 18 18" fill="none" xmlns="http://www.w3.org/2000/svg">
<path fill-rule="evenodd" clip-rule="evenodd" d="M17.5307 1.56775C17.8853 1.20911 17.8853 0.627628 17.5307 0.268984C17.1761 -0.0896612 16.6012 -0.0896612 16.2466 0.268984L8.89835 7.70119L1.55012 0.268984C1.19553 -0.0896611 0.62062 -0.0896611 0.266027 0.268984C-0.0885651 0.627628 -0.0885651 1.20911 0.266027 1.56775L7.61425 8.99996L0.265944 16.4323C-0.0886481 16.7909 -0.0886481 17.3724 0.265944 17.731C0.620536 18.0897 1.19544 18.0897 1.55004 17.731L17.5307 1.56775ZM11.8709 10.7078C11.5164 10.3491 10.9414 10.3491 10.5869 10.7078C10.2323 11.0664 10.2323 11.6479 10.5869 12.0065L16.2467 17.731C16.6012 18.0897 17.1762 18.0897 17.5307 17.731C17.8853 17.3724 17.8853 16.7909 17.5307 16.4322L11.8709 10.7078Z" fill="#101010"/>
</svg>
