<svg width="16" height="16" viewBox="0 0 16 16" fill="none" xmlns="http://www.w3.org/2000/svg">
<g clip-path="url(#clip0_1808_1885)">
<path fill-rule="evenodd" clip-rule="evenodd" d="M12.9206 1.19849C13.3448 1.28141 13.7557 1.49645 14.1296 1.87031C14.4996 2.24035 14.719 2.6434 14.8087 3.06107C14.8977 3.47556 14.8524 3.87247 14.7434 4.22431C14.53 4.9135 14.0584 5.47706 13.7418 5.79366L5.78279 13.7526C5.7083 13.8271 5.61218 13.8762 5.50814 13.8928L2.14173 14.4308C1.98344 14.4561 1.82262 14.404 1.70927 14.2906C1.59593 14.1773 1.5438 14.0164 1.56909 13.8582L2.10708 10.4917C2.1237 10.3877 2.17277 10.2916 2.24726 10.2171L10.2062 2.25812C10.4935 1.97084 11.0551 1.50312 11.747 1.2822C12.0995 1.16964 12.5009 1.11648 12.9206 1.19849ZM12.0512 2.23482C11.5745 2.38702 11.1466 2.73192 10.9133 2.96523L10.8049 3.07372L12.9262 5.19504L13.0347 5.08655C13.3037 4.81749 13.6447 4.39164 13.7882 3.92849C13.8576 3.70415 13.8768 3.48415 13.831 3.27109C13.7859 3.06122 13.6712 2.82609 13.4225 2.57741C13.1776 2.33255 12.9422 2.22164 12.7287 2.17992C12.5107 2.1373 12.283 2.16081 12.0512 2.23482ZM12.2191 5.90214L10.0977 3.78082L3.30792 10.5706L5.42924 12.692L12.2191 5.90214ZM4.38299 13.0599L2.93996 11.6169L2.66548 13.3344L4.38299 13.0599Z" fill="currentColor"/>
</g>
<defs>
<clipPath id="clip0_1808_1885">
<rect width="16" height="16" fill="white"/>
</clipPath>
</defs>
</svg>
