<svg width="18" height="16" viewBox="0 0 18 16" fill="none" xmlns="http://www.w3.org/2000/svg">
<path d="M9.59208 15.875C6.99415 15.875 4.56109 14.6222 3.07738 12.5248C2.86704 12.206 2.94663 11.8256 3.23655 11.6411C3.33887 11.574 3.45825 11.5404 3.57763 11.5404C3.78797 11.5404 3.98693 11.6467 4.10063 11.82C5.34558 13.5874 7.39209 14.6389 9.56934 14.6445C12.6505 14.6445 15.3223 12.5807 16.0556 9.63876C16.9367 6.11515 14.7424 2.54119 11.1611 1.67427C10.6324 1.54563 10.0923 1.48411 9.55797 1.48411C6.47684 1.48411 3.80502 3.54235 3.06601 6.48988L2.99779 6.76953L4.35076 5.87464C4.48719 5.79075 4.60088 5.75719 4.72026 5.75719C4.93628 5.75719 5.13525 5.86346 5.24894 6.04803C5.3399 6.18786 5.36832 6.35005 5.32853 6.51225C5.28874 6.67445 5.1921 6.80868 5.04998 6.89258L2.61123 8.50897C2.5089 8.57608 2.38952 8.60964 2.26446 8.60964C2.22467 8.60964 2.17919 8.60964 2.1394 8.59846C1.98022 8.5593 1.83811 8.46982 1.74147 8.33558L0.0872089 5.86905C0.00193797 5.72923 -0.0208009 5.56143 0.0189922 5.40483C0.0587853 5.24822 0.16111 5.11399 0.303229 5.0301C0.399869 4.97417 0.513564 4.94061 0.621573 4.94061C0.843278 4.94061 1.04793 5.05806 1.15594 5.24263L1.83811 6.26056L1.90064 6.01447C2.79882 2.56357 5.95385 0.141779 9.56934 0.125C13.9579 0.147372 17.5166 3.68217 17.4995 8C17.528 10.5896 16.2546 13.0114 14.0944 14.4879C12.7642 15.3996 11.2065 15.875 9.59208 15.875Z" fill="currentColor"/>
<path d="M11.6137 10.625C11.4473 10.625 11.2866 10.5643 11.1661 10.4483L8.93364 8.27879C8.81887 8.16286 8.75 8.00828 8.75 7.84819V4.23226C8.75 3.8955 9.0312 3.625 9.38128 3.625C9.73135 3.625 10.0126 3.8955 10.0126 4.23226V7.60528L12.0671 9.59819C12.3138 9.83557 12.3081 10.222 12.0671 10.4539C11.9466 10.5643 11.7916 10.625 11.6252 10.625H11.6137Z" fill="currentColor"/>
</svg>
