<svg width="20" height="20" viewBox="0 0 20 20" fill="none" xmlns="http://www.w3.org/2000/svg">
<path d="M17.0352 7.61364C17.4316 7.61364 17.7817 7.76562 18.0857 8.06958C18.3896 8.37352 18.5416 8.72368 18.5416 9.12006V10.4662C18.5416 10.5536 18.5304 10.6474 18.508 10.7473C18.4855 10.8473 18.4604 10.9405 18.4326 11.0271L16.0445 16.6626C15.925 16.9291 15.7248 17.1542 15.4439 17.338C15.1629 17.5217 14.8697 17.6136 14.5643 17.6136H5.80127V7.61364L10.649 2.80758C10.8146 2.64198 11.0064 2.54315 11.2243 2.5111C11.4423 2.47904 11.6511 2.51644 11.8509 2.62328C12.0507 2.73012 12.1971 2.88182 12.29 3.07839C12.383 3.27497 12.4027 3.47849 12.3493 3.68895L11.4519 7.61364H17.0352ZM7.05125 8.14568V16.3636H14.5673C14.626 16.3636 14.6861 16.3476 14.7476 16.3155C14.809 16.2835 14.8558 16.2301 14.8878 16.1553L17.2916 10.5303V9.12006C17.2916 9.04526 17.2676 8.98383 17.2195 8.93574C17.1714 8.88766 17.11 8.86362 17.0352 8.86362H9.87177L10.9166 4.2963L7.05125 8.14568ZM3.38142 17.6136C2.96715 17.6136 2.61252 17.4661 2.31752 17.1711C2.02251 16.8761 1.875 16.5214 1.875 16.1072V9.12006C1.875 8.70579 2.02251 8.35116 2.31752 8.05616C2.61252 7.76115 2.96715 7.61364 3.38142 7.61364H5.80127V8.86362H3.38142C3.30663 8.86362 3.24519 8.88766 3.1971 8.93574C3.14902 8.98383 3.12498 9.04526 3.12498 9.12006V16.1072C3.12498 16.182 3.14902 16.2434 3.1971 16.2915C3.24519 16.3396 3.30663 16.3636 3.38142 16.3636H5.80127V17.6136H3.38142Z" fill="#0F8E7E"/>
</svg>
