<svg fill="none" height="89" viewBox="0 0 89 89" width="89" xmlns="http://www.w3.org/2000/svg" xmlns:xlink="http://www.w3.org/1999/xlink"><clipPath id="a"><path d="m26.1094 20h40v53h-40z"/></clipPath><circle cx="44.2225" cy="44.2225" fill="#000" r="44.2225"/><g clip-path="url(#a)"><path clip-rule="evenodd" d="m43.2494 49.4467c-6.32 0-11.42-5.2752-11.42-11.7663s5.12-11.7663 11.42-11.7663 11.42 5.2752 11.42 11.7663c.02 6.4911-5.1 11.7663-11.42 11.7663zm0-29.4467c9.46 0 17.14 7.9129 17.14 17.6598s-7.68 17.6598-17.14 17.6598-17.14-7.9129-17.14-17.6598 7.68-17.6598 17.14-17.6598zm16.3 36.2057c1.12 1.1539 1.12 3.0085 0 4.1625l-11.42 11.7663c-1.12 1.154-2.92 1.154-4.04 0-1.12-1.1539-1.12-3.0085 0-4.1625l11.42-11.7663c1.12-1.154 2.94-1.154 4.04 0zm6.56-33.259c0 1.6279-1.28 2.9468-2.86 2.9468s-2.86-1.3189-2.86-2.9468 1.28-2.9467 2.86-2.9467 2.86 1.3188 2.86 2.9467z" fill="#fff" fill-rule="evenodd"/></g></svg>