<svg fill="none" height="342" viewBox="0 0 593 342" width="593" xmlns="http://www.w3.org/2000/svg" xmlns:xlink="http://www.w3.org/1999/xlink"><clipPath id="a"><path d="m0 0h593v342h-593z"/></clipPath><g clip-path="url(#a)"><path d="m176.713 143.989c3.791-27.432 21.669-62.8975 51.453-68.771 12.864-2.7249 49.583 6.3304 41.917-14.1894-2.844-8.3741-10.56-13.9319-18.268-15.9922-3.368-.9637-10.078.6065-12.456-.216-5.754-1.7861-2.403-4.32-7.035-6.9535-6.319-4.8599-13.163-2.3095-19.906-7.7344-8.573-6.671-6.494-10.8747-18.227-5.5079-11.176 4.9513-8.49 10.8082-14.601 18.9497-4.449 6.8704-12.29 5.7987-18.984 10.858-15.482 10.8415-5.862 31.6272-3.55 47.4197 1.738 12.719 5.321 30.182 14.892 40.483 2.112 2.792 1.688 2.227 3.65 2.501l1.115-.839z" fill="#fdd7ac" stroke="#261611" stroke-linecap="round" stroke-linejoin="round" stroke-width=".5"/><path d="m176.73 145.293c-9.829-12.96-6.129-38.057-1.414-52.1971 10.394-31.1536 33.385-38.4144 56.094-37.2181" stroke="#261611" stroke-linecap="round" stroke-linejoin="round" stroke-width=".5"/><path d="m481.511 158.369c8.224-25.546 31.257-56.4 60.676-57.015 12.738-.441 46.265 14.355 42.398-6.5134-1.305-8.4738-7.741-15.0701-14.751-18.3267-3.051-1.4787-9.72-1.1132-11.849-2.3012-5.188-2.675-1.571-4.5276-5.546-7.8174-5.214-5.6991-12.173-4.4197-17.703-10.7252-7.059-7.8092-4.374-11.4728-16.472-8.3159-11.5 2.8495-9.92 8.8974-17.129 15.6349-5.397 5.8154-12.706 3.4726-19.948 7.1861-16.605 7.751-10.909 29.2096-11.358 44.6698-.474 12.429.008 29.7 7.408 41.14 1.547 3.015 1.239 2.409 3.069 2.999z" fill="#dcbb93" stroke="#261611" stroke-linecap="round" stroke-linejoin="round" stroke-width=".5"/><path d="m481.311 159.615c-7.201-14.015.541-37.351 7.426-50.062 15.15-27.9963 38.324-31.0701 59.802-26.1105" stroke="#261611" stroke-linecap="round" stroke-linejoin="round" stroke-width=".5"/><path d="m126.904 168.521c5.139.889 12.323 4.062 17.637-.108 12.996-9.679 1.014-23.86-1.563-34.369-3.751-14.704-.408-23.701-15.009-32.192-12.789-8.3324-13.23-19.0825-22.293-29.6083-6.544-7.2027-11.2919-4.5359-19.2744-5.1091-7.6665-.972-12.2398-6.5963-18.6342-9.1384-15.3995-5.8901-22.9496 7.5184-30.0175 18.7087-2.8354-2.9242-13.0214-7.2276-12.5724.2825.3076 2.8412 9.9365 8.6399 12.6223 10.1436 9.3878 6.9036 19.5738 11.1987 30.1589 15.809 21.877 9.147 42.6233 24.533 49.1173 47.935 1.796 6.638 2.012 15.253 6.261 21.268 1.106.241.632-.789 1.663-1.263l1.904-2.368z" fill="#fde9d5" stroke="#261611" stroke-linecap="round" stroke-linejoin="round" stroke-width=".5"/><path d="m122.332 170.689c2.236-35.855-27.1992-81.5971-65.2241-86.8475-.4712.0499-.8399-.0305-1.1059-.2409" stroke="#261611" stroke-linecap="round" stroke-linejoin="round" stroke-width=".5"/><path d="m414.948 165.081c5.048 1.288 11.966 5.018 17.587 1.28 13.712-8.632 2.885-23.702 1.147-34.386-2.586-14.953 1.456-23.66-12.431-33.2717-12.09-9.3129-11.691-20.0546-19.898-31.2699-5.953-7.7012-10.901-5.4083-18.817-6.6046-7.567-1.5701-11.683-7.535-17.861-10.5756-14.892-7.0781-23.473 5.6907-31.398 16.2996-2.594-3.1403-12.414-8.2246-12.555-.7062.083 2.8578 9.229 9.3959 11.782 11.1073 8.814 7.6181 18.634 12.6941 28.82 18.1273 21.087 10.8328 40.57 27.7968 45.201 51.6398 1.272 6.763.807 15.361 4.574 21.692 1.081.324.69-.732 1.754-1.122l2.087-2.21z" fill="#fdd7ac" stroke="#261611" stroke-linecap="round" stroke-linejoin="round" stroke-width=".5"/><path d="m410.217 166.876c5.048-35.573-20.704-83.4832-58.189-91.6995-.477.0111-.837-.0969-1.081-.324" stroke="#261611" stroke-linecap="round" stroke-linejoin="round" stroke-width=".5"/><path d="m44.0032 207.268c.3492-3.764-5.2302-15.012-8.1322-18.36-3.775-3.647-5.2884-2.626-10.2192-2.41-6.5523.424-8.1405-2.259-13.8863-5.242-14.04417-6.463-13.84461 7.959-7.01791 16.167 6.99301 9.429 14.65951 8.033 25.03681 11.664 5.596 1.761 11.3002 7.635 17.2039 8.532l-2.9768-10.351z" fill="#fdd7ac" stroke="#261611" stroke-linecap="round" stroke-linejoin="round" stroke-width=".5"/><path d="m82.1533 256.864c-.0582-3.705-2.8188-9.13-2.5777-13.699.5821-8.333 3.5672-14.073-.7733-22.19-8.2236-15.867-35.9462-25.944-52.7261-27.93-4.6315-.648-23.84768.523-23.84768.523 4.54004 11.565 19.15798 14.522 23.58168 16.848 17.8691 10.509 36.2455 21.783 49.8074 37.385 2.3948 2.583 4.8976 5.973 6.4276 8.257l.0998.814z" fill="#fde9d5" stroke="#261611" stroke-linecap="round" stroke-linejoin="round" stroke-width=".5"/><path d="m102.051 251.439c10.245-7.086 20.339-15.394 31.955-21.417 7.717-4.287 16.398-7.46 24.056-12.154 9.18-5.716 16.988-12.486 26.733-17.039 3.501-1.686 14.269-4.71 14.102-9.23-.324-5.74-11.541-3.065-15.607-2.55 1.339-12.137-18.509-2.592-23.332-1.562-8.839 1.952-17.844-.606-26.16 5.408-9.437 6.987-10.876 18.31-19.033 25.538-7.808 6.779-10.069 14.904-12.073 25.064-.807 3.406-1.713 5.998-1.298 9.247l.657-1.321z" fill="#fde9d5" stroke="#261611" stroke-linecap="round" stroke-linejoin="round" stroke-width=".5"/><path d="m129.757 145.143c3.85-5.442 16.131-9.487 19.307-.814 3.742-6.256 8.606-13.484 16.838-13.708 3.318 6.588-15.299 15.984-16.397 23.552-.599 5.026 2.669 7.917 1.206 12.636-1.863 4.777-6.378 8.241-8.249 13.018-4.44 10.476-8.282 19.216-15.366 28.379-7.143 8.756-12.905 18.568-19.133 28.03-3.143 4.528-8.1574 10.534-8.7477 15.56-14.2022-7.676-5.4381-36.038-1.4552-46.863 6.3529-18.144 12.5479-37.509 21.1449-54.291l10.86-5.516z" fill="#dcbb93" stroke="#261611" stroke-linecap="round" stroke-linejoin="round" stroke-width=".5"/><path d="m79.8745 152.338c-.0167-6.605-6.8018-14.397-12.4477-16.566-10.8928-4.386-18.0854 3.963-28.2381 5.259-4.8727.623-8.9471-2.16-13.7782-1.13-5.2302 1.08-8.473 4.794-12.1733 8.158-11.86562 10.592 6.6438 13.184 14.0276 19.257 6.9265 5.716 12.6473 14.896 18.867 21.525 6.3195 7.444 12.9965 14.431 18.9667 22.34 10.5103 14.339 15.8985 33.87 34.2583 38.539-.0499-.407-.5072-.756-.9646-1.114z" fill="#fdd7ac" stroke="#261611" stroke-linecap="round" stroke-linejoin="round" stroke-width=".5"/><path d="m84.997 240.823c-8.8639-7.951-15.1917-18.693-22.5922-28.064-6.9348-9.022-16.2061-16.914-24.2052-24.557-7.9493-7.236-18.8837-12.029-25.3112-20.287-2.453-2.991-6.02016-8.308-7.65824-11.406-2.35317-5.475-.67352-5.284 5.27174-3.98 10.6267 2.36 16.5471 9.853 26.1095 13.583 11.6494 3.88 10.2608 15.61 18.9168 21.932 4.1243 3.19 9.7204 4.952 12.3729 9.562 2.1453 3.855 1.5466 8.881 3.7501 13.143 2.1453 3.855 6.2696 7.037 8.4648 11.298 2.0954 3.448 2.2617 7.967 3.9996 11.872 2.8604 6.239 8.6643 9.62 12.0319 13.317z" fill="#fde9d5" stroke="#261611" stroke-linecap="round" stroke-linejoin="round" stroke-width=".5"/><path d="m85.3621 227.812c-2.6692 1.18-7.9243.365-11.3169-1.429-3.667-1.196-6.6604-3.09-8.5479-7.336-2.6442-5.64.5405-6.421.2494-11.057.1414-6.322-8.207-16.333-11.0591-24.532-2.6109-7.22-6.203-23.627 1.1475-28.039-2.8853-6.629-14.8507-26.227-1.5133-26.867 3.3011-.282 5.0722 3.473 7.8162 4.379 5.4963 1.802 2.4363 3.073 6.0949-.964 3.1348-4.436 3.1515-11.249 10.2443-9.836 11.4332 1.919 11.8074 20.686 13.1877 29.774.7816 6.621 4.9309 9.795 5.8289 16.914.898 7.112-1.821 16.682-4.0744 22.996-.7068 2.268-.74 3.846-2.0954 5.225l-5.9619 30.789z" fill="#fdd7ac" stroke="#261611" stroke-linecap="round" stroke-linejoin="round" stroke-width=".5"/><path d="m81.1551 155.885c-1.189-6.04-2.877-9.537.5156-15.336 2.27-4.827 7.3006-7.535 9.5706-12.362 2.1204-6.048-.4407-13.151 3.351-18.999 3.4425-5.392 7.3587-3.83 12.0817-5.666 4.316-1.786 7.151-5.4501 12.789-6.5882 3.201-.8225 10.161-1.296 11.899 2.6086 2.253 4.6606-4.441 10.4756-6.469 14.0316-5.355 9.761-8.831 21.351-12.007 32.076-2.32 7.726-2.171 21.732-8 27.847l-23.7309-17.604z" fill="#fde9d5" stroke="#261611" stroke-linecap="round" stroke-linejoin="round" stroke-width=".5"/><path d="m55.8685 147.776c.8565-4.07.7151-13.641-.4739-15.884-1.1891-2.243.1912-2.243-3.1432-5.832-3.3426-3.589-4.0827-4.212-5.9369-5.117-1.8543-.906-1.9291-1.496-2.902-1.13s-1.1142.199-1.688.872c-.5737.673-.2827 2.011-.7483 3.996-.4657 1.977-.7817 5.616-.0998 8.615.6818 2.999 2.6858 4.121 4.4818 7.369 1.7961 3.248 3.9913 6.148 4.9475 7.826.9563 1.678 3.2013 1.869 4.1576 1.387.9562-.482 1.4135-2.102 1.4135-2.102z" fill="#ff664d" stroke="#261611" stroke-linecap="round" stroke-linejoin="round" stroke-width=".5"/><path d="m58.4131 142.41c.7983-6.015 1.2889-16.35-3.642-18.8-2.1786-1.089-4.0495.531-4.7313 2.982s1.3387 15.967 1.7212 18.709c.3825 2.75 1.7628 3.813 3.0683 4.328s3.0433-3.248 3.5755-7.219z" fill="#ff664d" stroke="#261611" stroke-linecap="round" stroke-linejoin="round" stroke-width=".5"/><path d="m42.1821 124.615c2.6775-.332 8.3151 6.712 9.9199 9.387 1.6048 2.676 2.5112 6.032 2.8604 7.793.3409 1.753.5987 3.763.7151 5.608.1164 1.844-1.1475 3.68-1.6131 4.046-.4657.357-.5322 1.088-2.9685 1.154-2.428.067-4.4569-1.229-6.1116-2.459-1.6547-1.229-4.9142-5.126-5.9121-6.795-.9978-1.67-3.4175-10.775-2.7606-12.661s4.4569-5.89 5.8705-6.073z" fill="#ff664d" stroke="#261611" stroke-linecap="round" stroke-linejoin="round" stroke-width=".5"/><path d="m59.1777 136.528c-.1663.79 1.1724 5.201.6652 7.485-.3575 1.604-1.5133 2.858-1.5133 2.858s1.056 4.005.7483 5.841c-.3076 1.836-1.2639 3.846-1.4884 4.195-.2245.341-1.2389 1.013-2.2783 1.055-1.0477.042-2.5694-.972-3.8998-1.886-1.3304-.905-2.0123-1.994-2.4114-2.301s-1.4551-.216-3.1764-.947c-1.7212-.723-4.565-4.395-4.565-4.395l-1.0477-1.163s.183-.581 1.5217.058c1.3387.64 2.9269 1.612 3.6254 1.861.6985.241 1.6131 1.047 2.0455 1.288s1.53 1.063 1.53 1.063-.5654-1.636-.9646-3.339c-.3991-1.704-2.1286-4.046-2.428-5.583-.291-1.537 3.1348 1.263 3.1348 1.263s1.3803 2.301 2.6941 2.758c1.979.689 4.698.116 5.0639.523 0 0 .8565-3.664 1.505-5.275.6486-1.612 1.2473-5.359 1.2473-5.359z" fill="#bfa480" stroke="#261611" stroke-linecap="round" stroke-linejoin="round" stroke-width=".5"/><path d="m58.571 154.498c-.1996.407-.5904 1.296-.5405 2.334.0915 2.136 1.5632 5.093 1.9291 6.672.5488 2.351 10.0945 19.971 11.6495 21.873 1.5632 1.903 16.0897 15.469 16.0897 15.469l2.0039 6.904s-17.154-16.773-19.5322-19.581c-2.3781-2.808-10.5518-21.035-11.8323-23.81-1.2889-2.775-2.4281-5.79-3.7252-6.538-1.1724-.673-3.2263-1.761-3.2263-1.761l7.176-1.562z" fill="#bfa480" stroke="#261611" stroke-linecap="round" stroke-linejoin="round" stroke-width=".5"/><path d="m78.1151 112.226-12.8505 30.217 30.2445 12.839 12.8509-30.217z" fill="#85e0d1" stroke="#261611" stroke-linecap="round" stroke-linejoin="round" stroke-width=".5"/><path d="m97.1202 117.711-8.3317 19.614-11.7243-4.91-3.4175 7.776-8.049-3.464" stroke="#291510" stroke-linecap="round" stroke-linejoin="round" stroke-width=".5"/><path d="m73.8457 149.197 4.7147-11.016" stroke="#291510" stroke-linecap="round" stroke-linejoin="round" stroke-width=".5"/><path d="m104.595 140.133-10.4274-4.345 3.3593-7.726-24.0972-10.775" stroke="#291510" stroke-linecap="round" stroke-linejoin="round" stroke-width=".5"/><path d="m77.2471 150.95 5.147-11.78 8.8556 3.913 1.4053-3.074 10.178 4.32" stroke="#291510" stroke-linecap="round" stroke-linejoin="round" stroke-width=".5"/><path d="m70.2783 124.947 15.383 6.621" stroke="#291510" stroke-linecap="round" stroke-linejoin="round" stroke-width=".5"/><path d="m71.9336 120.851 12.7886 5.433 4.8727-11.34" stroke="#291510" stroke-linecap="round" stroke-linejoin="round" stroke-width=".5"/><path d="m90.5762 155.602 12.4308-28.595-3.9245-1.561 2.5775-5.608" stroke="#291510" stroke-linecap="round" stroke-linejoin="round" stroke-width=".5"/><path d="m104.097 135.115 2.32.939" stroke="#291510" stroke-linecap="round" stroke-linejoin="round" stroke-width=".5"/><path d="m96.4218 242.923c5.8792-18.634 25.7522-27.938 33.3182-46.298 4.008-10.659 8.116-23.752 8.216-35.847.141-5.334-2.337-11.789-1.721-16.699.548-5.383 6.502-10.501 1.895-14.256-5.022-3.705-13.919 4.196-17.678 7.087.142-15.004-20.7457-10.401-25.8845-5.392-3.9829 4.378-6.4442 10.974-10.5519 14.397-4.5151 3.473-9.2214 2.144-13.0297 7.951-7.6 11.597 1.3387 20.129 3.6087 31.436 1.1974 6.131-1.1641 10.301-.8398 16.05.449 6.713 4.4652 9.097 6.7685 14.123 2.6608 7.876.9895 10.991 7.1843 17.446 3.3925 3.913 6.3776 7.884 6.1116 12.27z" fill="#fdd7ac" stroke="#261611" stroke-linecap="round" stroke-linejoin="round" stroke-width=".5"/><path d="m151.035 230.528c3.95-4.627-1.746-7.203-6.627-6.579-12.905 2.475-28.878 13.184-36.628 23.66 8.739.531 21.694-1.537 28.845-6.987l14.402-10.094z" fill="#fdd7ac" stroke="#261611" stroke-linecap="round" stroke-linejoin="round" stroke-width=".5"/><path d="m94.7255 264.955c-12.6889 4.096-26.3339-2.417-30.0757-15.552-2.8688-9.537 5.9868-20.985 15.2831-22.588 10.8679-2.21 18.0105 8.432 27.1151 11.805 6.511 2.467 16.223 4.121 22.626 2.476 8.381-2.31 15.042-8.906 22.451-12.329-6.445 20.636-40.819 23.76-55.9361 34.768l-1.4717 1.429z" fill="#fde9d5" stroke="#261611" stroke-linecap="round" stroke-linejoin="round" stroke-width=".5"/><path d="m443.12 178.374c-3.9 3.455-8.323 9.944-15.042 9.196-16.148-1.387-13.445-19.739-16.805-30.032-4.573-14.472-12.156-20.354-4.232-35.266 6.469-13.815 1.181-23.1781 3.326-36.9023 1.754-9.5704 7.201-9.803 13.687-14.4969 6.003-4.8599 6.926-12.046 11.017-17.5789 9.978-13.1177 23.474-5.699 35.381.0914.865-3.9794 7.259-13.0014 10.834-6.3803 1.239 2.5754-3.883 12.5778-5.371 15.2695-4.341 10.8082-10.727 19.822-17.287 29.3176-13.762 19.2899-23.283 43.2909-16.456 66.6019 1.971 6.588 6.336 14.024 5.896 21.376-.815.781-.957-.332-2.079-.191z" fill="#fde9d5" stroke="#261611" stroke-linecap="round" stroke-linejoin="round" stroke-width=".5"/><path d="m448.151 177.809c-20.821-29.293-19.931-83.6744 9.612-108.1487.427-.2049.699-.468.815-.7892" stroke="#261611" stroke-linecap="round" stroke-linejoin="round" stroke-width=".5"/><path d="m290.214 182.785c-3.9 3.456-8.324 9.944-15.042 9.196-16.148-1.387-13.446-19.739-16.805-30.032-4.573-14.472-12.157-20.354-4.232-35.266 6.469-13.815 1.18-23.178 3.326-36.9022 1.754-9.5704 7.201-9.803 13.686-14.4968 6.004-4.86 6.927-12.0461 11.018-17.579 9.978-13.1177 23.473-5.699 35.381.0914.864-3.9793 7.259-13.0014 10.834-6.3802 1.239 2.5753-3.883 12.5777-5.371 15.2694-4.341 10.8082-10.727 19.822-17.287 29.3176-13.762 19.2908-23.283 43.2908-16.456 66.6018 1.971 6.588 6.336 14.024 5.895 21.376-.815.781-.956-.332-2.078-.191z" fill="#fde9d5" stroke="#261611" stroke-linecap="round" stroke-linejoin="round" stroke-width=".5"/><path d="m148.191 307.565c-20.33 11.257-59.777 11.706-73.2475-1.944-7.9742-8.083-6.7602-15.776-6.7602-15.776s12.7138-21.276 29.2858-27.232c16.5799-5.957 73.7049-10.003 73.7049-10.003s-12.98 39.246-22.983 54.947z" fill="#fdf1df" stroke="#261611" stroke-linecap="round" stroke-linejoin="round" stroke-width=".5"/><path d="m147.584 301.268s-2.694-5.931-12.83-1.08c-10.136 4.852-17.221 4.927-17.221 4.927l7.384-9.903s6.852-4.428 10.652-4.702 11.05 2.384 11.907 4.253c.856 1.87.1 6.497.1 6.497z" fill="#aa8d6a" opacity=".33"/><path d="m79.9825 309.451c-7.4088-3.747-13.3458-15.261-11.7992-19.597 6.9431-9.928 3.4508-8.939 20.372-12.038 16.9217-3.099 23.7727-3.955 23.7727-3.955s-28.479 17.986-32.3455 35.59z" fill="#aa8d6a" opacity=".33"/><path d="m140.832 293.193c-7.617-3.722-14.818 3.157-24.072 4.229 3.16-5.483 14.393-21.974 14.393-21.974l37.701-3.107s-5.53 11.938-13.096 23.585l-7.567 11.639s1.347-10.119-7.359-14.372z" fill="#fdf1df" stroke="#261611" stroke-linecap="round" stroke-linejoin="round" stroke-width=".5"/><path d="m161.113 287.004s-8.49-7.169-17.429-4.245-16.056 3.065-19.316 3.049c.998-1.487 7.276-10.152 7.276-10.152l36.453-4.22z" fill="#aa8d6a" opacity=".33"/><path d="m480.039 310.341c21.902 7.767 60.883 1.736 71.934-13.94 6.544-9.28 4.082-16.666 4.082-16.666s-15.225-20.611-32.553-23.768c-17.329-3.157-74.346 8.798-74.346 8.798s18.451 31.719 30.899 45.567z" fill="#fdf1df" stroke="#261611" stroke-linecap="round" stroke-linejoin="round" stroke-width=".5"/><path d="m479.607 304.026s1.688-6.288 12.472-3.165c10.793 3.124 17.795 2.027 17.795 2.027l-8.914-8.557s-7.484-3.24-11.284-2.891c-3.8.358-10.51 4.162-11.051 6.156-.54 1.994.973 6.422.973 6.422z" fill="#aa8d6a" opacity=".33"/><path d="m547.632 301.003c6.694-4.91 10.652-17.247 8.415-21.268-8.482-8.648-4.873-8.249-22.077-8.523s-24.097 0-24.097 0 31.049 13.068 37.759 29.799z" fill="#aa8d6a" opacity=".33"/><path d="m484.944 294.954c6.902-4.918 15.133.681 24.438.225-4.016-4.894-20.031-21.135-20.031-21.135l-38.491 1.911s10.427 13.898 19.807 24.142l9.379 10.243s-2.985-9.761 4.898-15.386z" fill="#fdf1df" stroke="#261611" stroke-linecap="round" stroke-linejoin="round" stroke-width=".5"/><path d="m462.145 290.069s7.192-8.465 16.489-7.053c9.296 1.421 16.347.391 19.557-.158-1.231-1.304-8.848-8.814-8.848-8.814l-36.653 1.819z" fill="#aa8d6a" opacity=".33"/><g stroke="#261611"><path d="m67.917 289.804s52.144-18.244 109.136-9.388c61.465 9.546 108.936-3.996 185.626-.706 88.182 3.788 154.453-14.929 193.368.017-9.845-12.678-62.455-56.475-62.455-56.475s-80.224-.632-156.299-1.853c-76.075-1.213-113.418-8.881-160.606-1.454s-64.484 7.892-64.484 7.892l-44.286 61.959z" fill="#fdf1df" stroke-linecap="round" stroke-linejoin="round" stroke-width=".5"/><path d="m104.329 38.9131 10.793 41.8289 28.662 2.16 4.657.6147z" fill="#85e0d1" stroke-linecap="round" stroke-linejoin="round" stroke-width=".5"/><path d="m91.083 98.6117 24.039-17.8697-10.793-41.8289z" fill="#a9f6ea" stroke-linecap="round" stroke-linejoin="round" stroke-width=".5"/><path d="m105.277 101.337-14.194-2.7251 24.039-17.8697 33.319 2.7747-3.9 1.9856-11.525 7.7094-17.961 6.6711z" fill="#7cd1c1" stroke-linecap="round" stroke-linejoin="round" stroke-width=".5"/><path d="m134.621 148.316-17.852-62.2574-24.6547 18.6674z" fill="#85e0d1" stroke-linecap="round" stroke-linejoin="round" stroke-width=".5"/><path d="m134.662 147.968-17.886-62.0334 31.673 3.0821-.765 2.6086z" fill="#a9f6ea" stroke-linecap="round" stroke-linejoin="round" stroke-width=".5"/><path d="m134.621 148.316-17.852-62.2574-24.6547 18.6674z" stroke-linecap="round" stroke-linejoin="round" stroke-width=".5"/><path d="m91.083 98.6117 24.039-17.8697-10.793-41.8289z" stroke-linecap="round" stroke-linejoin="round" stroke-width=".5"/><path d="m148.441 83.5167-44.112-44.6036" stroke-linecap="round" stroke-linejoin="round" stroke-width=".5"/><path d="m116.769 86.0586 31.68 2.9575-13.828 59.2999" stroke-linecap="round" stroke-linejoin="round" stroke-width=".5"/><path d="m91.083 98.6113 7.2757 1.3791" stroke-linecap="round" stroke-linejoin="round" stroke-width=".5"/><path d="m140.142 88.244 8.299-4.7271-33.319-2.7747" stroke-linecap="round" stroke-linejoin="round" stroke-width=".5"/><path d="m143.676 17.6123-1.488 17.0888 10.443 4.5858 1.672.8474z" fill="#85e0d1" stroke-linecap="round" stroke-linejoin="round" stroke-width=".5"/><path d="m130.829 38.2152 11.359-3.5141 1.488-17.0888z" fill="#a9f6ea" stroke-linecap="round" stroke-linejoin="round" stroke-width=".5"/><path d="m135.785 41.1147-4.956-2.8994 11.359-3.5141 12.115 5.4332-1.73.2326-5.33 1.3624-7.608.1246z" fill="#7cd1c1" stroke-linecap="round" stroke-linejoin="round" stroke-width=".5"/><path d="m140.558 62.5734 1.547-25.6623-11.7 3.7302z" fill="#85e0d1" stroke-linecap="round" stroke-linejoin="round" stroke-width=".5"/><path d="m140.625 62.4488 1.497-25.5875 11.45 5.3335-.632.8723z" fill="#a9f6ea" stroke-linecap="round" stroke-linejoin="round" stroke-width=".5"/><path d="m140.558 62.5734 1.547-25.6623-11.7 3.7302z" stroke-linecap="round" stroke-linejoin="round" stroke-width=".5"/><path d="m142.188 34.7011 1.488-17.0888-12.847 20.6029" stroke-linecap="round" stroke-linejoin="round" stroke-width=".5"/><path d="m154.302 40.1343-10.626-22.522" stroke-linecap="round" stroke-linejoin="round" stroke-width=".5"/><path d="m142.104 36.9111 11.467 5.2837-13.013 20.3786" stroke-linecap="round" stroke-linejoin="round" stroke-width=".5"/><path d="m130.829 38.2148 2.545 1.4788" stroke-linecap="round" stroke-linejoin="round" stroke-width=".5"/><path d="m150.569 40.8067 3.734-.6729" stroke-linecap="round" stroke-linejoin="round" stroke-width=".5"/><path d="m433.932 59.5749-.707-17.1386-10.943-3.2234-1.762-.6231z" fill="#85e0d1" stroke-linecap="round" stroke-linejoin="round" stroke-width=".5"/><path d="m444.043 37.501-10.818 4.9347.706 17.1386z" fill="#a9f6ea" stroke-linecap="round" stroke-linejoin="round" stroke-width=".5"/><path d="m438.763 35.258 5.28 2.2431-10.818 4.9347-12.705-3.8464 1.679-.4486 5.114-2.0354 7.533-1.0966z" fill="#7cd1c1" stroke-linecap="round" stroke-linejoin="round" stroke-width=".5"/><path d="m431.287 14.5889 1.738 25.6456 11.126-5.1923z" fill="#85e0d1" stroke-linecap="round" stroke-linejoin="round" stroke-width=".5"/><path d="m431.237 14.7217 1.772 25.5625-12.032-3.8298.515-.947z" fill="#a9f6ea" stroke-linecap="round" stroke-linejoin="round" stroke-width=".5"/><path d="m431.287 14.5889 1.738 25.6456 11.126-5.1923z" stroke-linecap="round" stroke-linejoin="round" stroke-width=".5"/><path d="m433.225 42.4357.706 17.1386 10.112-22.0733" stroke-linecap="round" stroke-linejoin="round" stroke-width=".5"/><path d="m420.52 38.5898 13.412 20.9851" stroke-linecap="round" stroke-linejoin="round" stroke-width=".5"/><path d="m433.025 40.2345-12.048-3.78 10.31-21.8656" stroke-linecap="round" stroke-linejoin="round" stroke-width=".5"/><path d="m444.043 37.5009-2.711-1.1464" stroke-linecap="round" stroke-linejoin="round" stroke-width=".5"/><path d="m424.137 37.4434-3.617 1.1464" stroke-linecap="round" stroke-linejoin="round" stroke-width=".5"/><path d="m336.013 14.4971-4.449 14.2974 8.058 5.8569 1.264 1.0301z" fill="#85e0d1" stroke-linecap="round" stroke-linejoin="round" stroke-width=".5"/><path d="m321.22 29.6917 10.344-.8972 4.448-14.2974z" fill="#a9f6ea" stroke-linecap="round" stroke-linejoin="round" stroke-width=".5"/><path d="m324.912 33.0817-3.692-3.3896 10.344-.8972 9.321 6.887-1.513-.1246-4.807.1745-6.51-1.3043z" fill="#7cd1c1" stroke-linecap="round" stroke-linejoin="round" stroke-width=".5"/><path d="m324.995 52.2722 6.087-21.6081-10.677 1.0135z" fill="#85e0d1" stroke-linecap="round" stroke-linejoin="round" stroke-width=".5"/><path d="m325.07 52.1725 6.037-21.5416 8.781 6.671-.707.6314z" fill="#a9f6ea" stroke-linecap="round" stroke-linejoin="round" stroke-width=".5"/><path d="m324.995 52.2722 6.087-21.6081-10.677 1.0135z" stroke-linecap="round" stroke-linejoin="round" stroke-width=".5"/><path d="m331.564 28.7945 4.448-14.2974-14.792 15.1946" stroke-linecap="round" stroke-linejoin="round" stroke-width=".5"/><path d="m340.885 35.6815-4.872-21.1844" stroke-linecap="round" stroke-linejoin="round" stroke-width=".5"/><path d="m331.082 30.6641 8.805 6.6378-14.892 14.9703" stroke-linecap="round" stroke-linejoin="round" stroke-width=".5"/><path d="m321.22 29.6914 1.896 1.728" stroke-linecap="round" stroke-linejoin="round" stroke-width=".5"/><path d="m337.576 35.5654 3.31.1163" stroke-linecap="round" stroke-linejoin="round" stroke-width=".5"/><path d="m289.79.208008 5.837 13.790692 9.928-.7145 1.63-.0332z" fill="#85e0d1" stroke-linecap="round" stroke-linejoin="round" stroke-width=".5"/><path d="m288.293 21.3509 7.334-7.3522-5.837-13.790692z" fill="#a9f6ea" stroke-linecap="round" stroke-linejoin="round" stroke-width=".5"/><path d="m293.299 21.5586-5.006-.2077 7.334-7.3522 11.558-.7477-1.231.8806-3.559 3.2317-5.82 3.1984z" fill="#7cd1c1" stroke-linecap="round" stroke-linejoin="round" stroke-width=".5"/><path d="m305.755 36.1716-9.297-20.4284-7.5 7.6513z" fill="#85e0d1" stroke-linecap="round" stroke-linejoin="round" stroke-width=".5"/><path d="m305.754 36.0553-9.296-20.362 11.018-.5566-.134.9388z" fill="#a9f6ea" stroke-linecap="round" stroke-linejoin="round" stroke-width=".5"/><path d="m305.755 36.1716-9.297-20.4284-7.5 7.6513z" stroke-linecap="round" stroke-linejoin="round" stroke-width=".5"/><path d="m295.627 13.9987-5.837-13.790692-1.497 21.142892" stroke-linecap="round" stroke-linejoin="round" stroke-width=".5"/><path d="m307.185 13.251-17.395-13.042992" stroke-linecap="round" stroke-linejoin="round" stroke-width=".5"/><path d="m296.458 15.7432 11.018-.6065-1.722 21.0349" stroke-linecap="round" stroke-linejoin="round" stroke-width=".5"/><path d="m288.293 21.3506 2.569.0997" stroke-linecap="round" stroke-linejoin="round" stroke-width=".5"/><path d="m304.582 15.2947 2.603-2.0437" stroke-linecap="round" stroke-linejoin="round" stroke-width=".5"/><path d="m500.976 7.49414-15.815 40.20886 21.944 18.5427 3.417 3.2316z" fill="#85e0d1" stroke-linecap="round" stroke-linejoin="round" stroke-width=".5"/><path d="m455.201 48.0852 29.959-.3822 15.816-40.20886z" fill="#a9f6ea" stroke-linecap="round" stroke-linejoin="round" stroke-width=".5"/><path d="m465.096 58.611-9.895-10.5257 29.959-.3822 25.362 21.7743-4.324-.6812-13.862-.5068-18.467-5.1175z" fill="#7cd1c1" stroke-linecap="round" stroke-linejoin="round" stroke-width=".5"/><path d="m461.28 113.856 22.093-60.8863-30.924.6729z" fill="#85e0d1" stroke-linecap="round" stroke-linejoin="round" stroke-width=".5"/><path d="m461.521 113.599 21.935-60.7201 23.839 21.0598-2.153 1.6616z" fill="#a9f6ea" stroke-linecap="round" stroke-linejoin="round" stroke-width=".5"/><path d="m461.28 113.856 22.093-60.8863-30.924.6729z" stroke-linecap="round" stroke-linejoin="round" stroke-width=".5"/><path d="m455.201 48.0852 29.959-.3822 15.816-40.20886z" stroke-linecap="round" stroke-linejoin="round" stroke-width=".5"/><path d="m510.522 69.4773-9.545-61.98316" stroke-linecap="round" stroke-linejoin="round" stroke-width=".5"/><path d="m483.374 52.9697 23.922 20.9685-46.016 39.9178" stroke-linecap="round" stroke-linejoin="round" stroke-width=".5"/><path d="m455.201 48.085 5.081 5.3916" stroke-linecap="round" stroke-linejoin="round" stroke-width=".5"/><path d="m501.026 68.439 9.496 1.0384-25.361-21.7743" stroke-linecap="round" stroke-linejoin="round" stroke-width=".5"/><path d="m256.695 186.631c-.399-4.378 6.087-17.471 9.463-21.367 4.39-4.245 6.161-3.057 11.899-2.808 7.625.49 9.471-2.634 16.164-6.098 16.348-7.518 16.115 9.263 8.166 18.817-8.132 10.966-17.063 9.346-29.136 13.566-6.511 2.052-13.155 8.881-20.015 9.928l3.459-12.046z" fill="#fdd7ac" stroke-linecap="round" stroke-linejoin="round" stroke-width=".5"/><path d="m212.301 244.352c.066-4.312 3.284-10.625 3.002-15.942-.682-9.695-4.15-16.383.898-25.82 9.579-18.468 41.841-30.199 61.365-32.508 5.388-.756 27.748.606 27.748.606-5.289 13.459-22.302 16.898-27.449 19.606-20.796 12.229-42.182 25.347-57.964 43.507-2.786 3.008-5.696 6.954-7.475 9.612l-.125.947z" fill="#fde9d5" stroke-linecap="round" stroke-linejoin="round" stroke-width=".5"/><path d="m189.144 238.038c-11.924-8.249-23.665-17.911-37.194-24.923-8.972-4.993-19.083-8.681-27.997-14.139-10.685-6.646-19.773-14.53-31.1149-19.822-4.0744-1.961-16.6053-5.483-16.4141-10.742.3742-6.679 13.4372-3.564 18.1685-2.966-1.5549-14.131 21.5365-3.016 27.1485-1.819 10.286 2.276 20.763-.706 30.442 6.289 10.976 8.124 12.656 21.309 22.151 29.724 9.089 7.884 11.716 17.347 14.053 29.168.931 3.963 1.987 6.979 1.505 10.759l-.765-1.537z" fill="#fde9d5" stroke-linecap="round" stroke-linejoin="round" stroke-width=".5"/><path d="m156.897 114.322c-4.481-6.331-18.775-11.041-22.475-.948-4.357-7.277-10.012-15.6843-19.591-15.9502-3.866 7.6682 17.811 18.6012 19.084 27.4152.69 5.849-3.102 9.213-1.397 14.713 2.17 5.558 7.425 9.595 9.595 15.153 5.172 12.187 9.637 22.364 17.886 33.023 8.315 10.185 15.025 21.608 22.268 32.624 3.65 5.267 9.487 12.262 10.178 18.11 16.53-8.939 6.327-41.937 1.696-54.539-7.392-21.118-14.61-43.648-24.605-63.18l-12.639-6.413z" fill="#dcbb93" stroke-linecap="round" stroke-linejoin="round" stroke-width=".5"/><path d="m214.954 122.704c.016-7.684 7.916-16.756 14.484-19.282 12.673-5.109 21.046 4.611 32.87 6.123 5.671.723 10.419-2.509 16.032-1.313 6.086 1.255 9.861 5.583 14.169 9.496 13.811 12.328-7.733 15.344-16.323 22.406-8.057 6.654-14.718 17.329-21.952 25.055-7.359 8.665-15.125 16.798-22.068 25.995-12.232 16.69-18.501 39.42-39.871 44.853.058-.474.59-.881 1.122-1.296l21.545-112.037z" fill="#fdd7ac" stroke-linecap="round" stroke-linejoin="round" stroke-width=".5"/><path d="m208.992 225.686c10.319-9.247 17.686-21.758 26.292-32.666 8.074-10.492 18.859-19.681 28.172-28.578 9.246-8.424 21.976-14.007 29.46-23.61 2.852-3.481 7.01-9.67 8.914-13.268 2.744-6.372.79-6.147-6.137-4.627-12.364 2.742-19.258 11.465-30.383 15.809-13.554 4.511-11.941 18.169-22.01 25.521-4.798 3.714-11.309 5.758-14.402 11.124-2.495 4.487-1.804 10.335-4.366 15.295-2.494 4.486-7.3 8.191-9.853 13.151-2.436 4.012-2.627 9.271-4.648 13.815-3.334 7.261-10.086 11.199-14.003 15.502l12.972-7.468z" fill="#fde9d5" stroke-linecap="round" stroke-linejoin="round" stroke-width=".5"/><path d="m208.567 210.54c3.102 1.371 9.222.424 13.171-1.661 4.274-1.396 7.758-3.589 9.945-8.54 3.077-6.563-.623-7.469-.291-12.869-.166-7.352 9.554-18.999 12.872-28.553 3.043-8.399 7.217-27.498-1.339-32.632 3.36-7.718 17.287-30.5227 1.755-31.2703-3.842-.3324-5.896 4.0458-9.097 5.0923-6.403 2.094-2.835 3.573-7.093-1.1213-3.65-5.159-3.675-13.0928-11.924-11.4479-13.312 2.2347-13.745 24.0752-15.349 34.6512-.907 7.701-5.738 11.406-6.785 19.681-1.04 8.282 2.12 19.415 4.747 26.759.824 2.641.865 4.477 2.437 6.081l6.935 35.83z" fill="#fdd7ac" stroke-linecap="round" stroke-linejoin="round" stroke-width=".5"/></g><path d="m208.06 115.659 13.446-31.926-17.229-15.286-2.677-2.6501z" fill="#85e0d1"/><path d="m245.528 83.9983-24.022-.2659-13.445 31.9266z" fill="#a9f6ea"/><path d="m237.795 75.3673 7.733 8.6316-24.022-.2659-19.906-17.9361 3.45.623 11.101.673 14.701 4.4529z" fill="#7cd1c1" stroke="#261611" stroke-linecap="round" stroke-linejoin="round" stroke-width=".5"/><path d="m241.911 31.1621-18.867 48.3753 24.804.0582z" fill="#85e0d1"/><path d="m241.711 31.3613-18.733 48.2507-18.709-17.3297 1.754-1.296z" fill="#a9f6ea"/><path d="m241.911 31.1621-18.867 48.3753 24.804.0582z" stroke="#261611" stroke-linecap="round" stroke-linejoin="round" stroke-width=".5"/><path d="m245.528 83.9983-24.022-.2659-13.445 31.9266z" stroke="#261611" stroke-linecap="round" stroke-linejoin="round" stroke-width=".5"/><path d="m201.6 65.7969 6.46 49.8621" stroke="#261611" stroke-linecap="round" stroke-linejoin="round" stroke-width=".5"/><path d="m223.044 79.5374-18.775-17.2549 37.642-31.1204" stroke="#261611" stroke-linecap="round" stroke-linejoin="round" stroke-width=".5"/><path d="m245.529 83.9988-3.967-4.4197" stroke="#261611" stroke-linecap="round" stroke-linejoin="round" stroke-width=".5"/><path d="m209.191 66.8104-7.591-1.0135 19.906 17.9361" stroke="#261611" stroke-linecap="round" stroke-linejoin="round" stroke-width=".5"/><path d="m211.078 126.966c1.381-7.028 3.343-11.099-.598-17.845-2.644-5.624-8.49-8.764-11.134-14.3885-2.461-7.0365.515-15.3026-3.9-22.1149-4-6.2722-8.565-4.4529-14.053-6.5962-5.022-2.0852-8.323-6.3471-14.884-7.6597-3.725-.9553-11.824-1.5119-13.853 3.0323-2.619 5.4249 5.172 12.1873 7.526 16.3328 6.236 11.3648 10.277 24.8482 13.969 37.3262 2.694 8.989 2.528 25.297 9.313 32.408l27.614-20.487z" fill="#fde9d5" stroke="#261611" stroke-linecap="round" stroke-linejoin="round" stroke-width=".5"/><path d="m244.888 118.492c-.773-4.777-.075-15.892 1.431-18.443 1.505-2.5419-.1-2.6167 3.982-6.6043 4.083-3.9877 4.973-4.6772 7.185-5.616 2.203-.947 2.328-1.6283 3.442-1.1464 1.114.4735 1.281.299 1.913 1.1132.632.8141.216 2.3594.648 4.6855.433 2.3261.599 6.5713-.366 10.019-.964 3.448-3.351 4.644-5.621 8.316-2.27 3.68-4.98 6.92-6.178 8.823-1.197 1.894-3.816 1.993-4.906 1.379-1.089-.615-1.521-2.518-1.521-2.518z" fill="#ff664d" stroke="#261611" stroke-linecap="round" stroke-linejoin="round" stroke-width=".5"/><path d="m242.236 112.112c-.591-7.037-.591-19.0745 5.271-21.6582 2.595-1.1382 4.673.8391 5.33 3.7218s-2.444 18.4844-3.043 21.6584c-.599 3.173-2.262 4.336-3.808 4.86-1.555.523-3.36-3.938-3.75-8.591z" fill="#ff664d" stroke="#261611" stroke-linecap="round" stroke-linejoin="round" stroke-width=".5"/><path d="m262.084 92.3233c-3.093-.54-10.037 7.3439-12.049 10.3677-2.012 3.016-3.251 6.879-3.75 8.898-.499 2.018-.906 4.336-1.147 6.471-.242 2.135 1.13 4.345 1.646 4.786.524.44.565 1.295 3.384 1.511s5.247-1.179 7.243-2.517c1.995-1.337 6.003-5.69 7.25-7.576 1.248-1.886 4.574-12.337 3.908-14.5635-.665-2.2265-4.856-7.0947-6.485-7.3855z" fill="#ff664d" stroke="#261611" stroke-linecap="round" stroke-linejoin="round" stroke-width=".5"/><path d="m241.67 105.233c.15.922-1.654 5.981-1.189 8.665.325 1.886 1.605 3.406 1.605 3.406s-1.447 4.594-1.189 6.746c.25 2.151 1.256 4.544 1.497 4.951.241.415 1.38 1.246 2.594 1.354s3.043-.988 4.64-1.977c1.596-.98 2.445-2.202 2.927-2.542.482-.341 1.696-.175 3.742-.922 2.037-.748 5.546-4.86 5.546-4.86l1.28-1.288s-.183-.689-1.771-.025c-1.596.665-3.492 1.711-4.315 1.961-.824.241-1.929 1.13-2.453 1.379-.516.249-1.838 1.155-1.838 1.155s.757-1.87 1.306-3.83c.557-1.961 2.702-4.586 3.126-6.356.424-1.769-3.709 1.296-3.709 1.296s-1.729 2.601-3.284 3.058c-2.337.697-5.463-.125-5.912.324 0 0-.79-4.312-1.455-6.223s-1.148-6.297-1.148-6.297z" fill="#bfa480" stroke="#261611" stroke-linecap="round" stroke-linejoin="round" stroke-width=".5"/><path d="m241.379 126.151c.217.482.607 1.537.499 2.75-.224 2.476-2.095 5.832-2.611 7.643-.765 2.7-12.838 22.663-14.759 24.782-1.921 2.127-19.565 17.089-19.565 17.089l-2.719 7.917s20.871-18.551 23.789-21.683c2.919-3.132 13.429-23.868 15.075-27.025 1.647-3.157 3.144-6.604 4.69-7.394 1.405-.714 3.85-1.869 3.85-1.869l-8.257-2.21z" fill="#bfa480" stroke="#261611" stroke-linecap="round" stroke-linejoin="round" stroke-width=".5"/><path d="m195.696 228.127c-6.844-21.683-29.976-32.516-38.774-53.883-4.664-12.403-9.446-27.639-9.562-41.721-.166-6.206 2.719-13.716 2.004-19.431-.64-6.273-7.567-12.213-2.204-16.5906 5.838-4.3117 16.198 4.8846 20.572 8.2496-.166-17.4545 24.139-12.1044 30.126-6.2724 4.639 5.0924 7.5 12.7684 12.281 16.7564 5.247 4.046 10.735 2.492 15.159 9.246 8.847 13.5-1.555 23.42-4.2 36.587-1.388 7.136 1.356 11.988.973 18.684-.515 7.809-5.197 10.584-7.874 16.433-3.093 9.163-1.156 12.785-8.365 20.303-3.95 4.561-7.426 9.18-7.11 14.273z" fill="#fdd7ac" stroke="#261611" stroke-linecap="round" stroke-linejoin="round" stroke-width=".5"/><path d="m132.136 213.697c-4.599-5.392 2.037-8.382 7.708-7.66 15.017 2.883 33.609 15.336 42.623 27.54-10.169.623-25.245-1.786-33.568-8.133z" fill="#fdd7ac" stroke="#261611" stroke-linecap="round" stroke-linejoin="round" stroke-width=".5"/><path d="m197.666 253.765c14.768 4.769 30.642-2.808 35.007-18.102 3.343-11.099-6.968-24.425-17.794-26.286-12.648-2.575-20.963 9.812-31.565 13.741-7.575 2.875-18.883 4.794-26.325 2.883-9.754-2.683-17.512-10.368-26.135-14.356 7.501 24.009 47.505 27.648 65.091 40.459l1.713 1.661z" fill="#fde9d5" stroke="#261611" stroke-linecap="round" stroke-linejoin="round" stroke-width=".5"/><path d="m127.67 266.176c4.997 3.539 51.487 1.778 53.042 2.135s5.38 13.359 5.38 13.359l12.813-1.82-8.082-30.131-64.584 2.899s-4.124 9.62 1.431 13.558z" fill="#aa8d6a" opacity=".33"/><path d="m207.845 212.367h-.407c-3.301 0-5.987-2.683-5.987-5.981v-2.891h12.381v2.891c0 3.298-2.686 5.981-5.987 5.981z" fill="#fff" stroke="#261611" stroke-linecap="round" stroke-linejoin="round" stroke-width=".5"/><path d="m215.187 214.577h-15.084c-1.522 0-2.761-1.238-2.761-2.758v-.091h20.605v.091c0 1.52-1.239 2.758-2.76 2.758z" fill="#fff" stroke="#261611" stroke-linecap="round" stroke-linejoin="round" stroke-width=".5"/><path d="m205.691 205.506v2.783" stroke="#261611" stroke-linecap="round" stroke-linejoin="round" stroke-width=".5"/><path d="m212.301 185.302c-1.837 1.387-1.28 2.716-.69 4.586.69 2.151-1.081 3.123-3.359 4.652-2.162 1.445-1.555 4.262-.615 5.732" stroke="#fff" stroke-linecap="round" stroke-linejoin="round" stroke-width=".5"/><path d="m180.787 154.871c2.295 1.886 3.809 4.062 4.349 6.629l-.465 2.642s1.596 1.396 2.985 2.484c.69.54.499 1.628-.341 1.894l-1.256.399 1.879 3.323-1.646.906-.349 2.052s1.912 1.802-.167 3.323c-2.078 1.52-6.943.747-6.943.747l-14.651 13.866c-6.81 2.459-15.316-.623-18.975-6.937 10.793-3.788 16.722-8.225 18.019-13.276l-.807-19.539c7.343.166 15.017.249 18.377 1.495z" fill="#a4786f" stroke="#261611" stroke-linecap="round" stroke-linejoin="round" stroke-width=".5"/><path d="m176.247 154.763c-4.357-.856-10.643-2.567-10.643-2.567s16.081-5.375 18.126 5.915c0 0-3.134-2.484-7.483-3.348z" fill="#261611" stroke="#261611" stroke-linecap="round" stroke-linejoin="round" stroke-width=".5"/><path d="m176.929 154.929s-5.463 6.945-3.958 9.77c1.148 2.143 3.218 3.049 3.218 3.049s-.091 1.005-2.985 1.354c-2.885.349-4.315-2.642-4.315-2.642s.898 5.3-.873 9.861c-1.123 2.883-4.366 4.179-8.257 6.148l-5.862-1.08s4.656-2.9 1.288-4.719c-6.153-3.315-6.319-26.152 7.018-25.421l14.726 3.688z" fill="#261611" stroke="#261611" stroke-linecap="round" stroke-linejoin="round" stroke-width=".5"/><path d="m170.26 168.586s-3.65-4.336-4.922-.183c-1.273 4.146 4.797 6.838 5.795 6.431" fill="#a4786f"/><path d="m170.26 168.586s-3.65-4.336-4.922-.183c-1.273 4.146 4.797 6.838 5.795 6.431" stroke="#261611" stroke-linecap="round" stroke-linejoin="round" stroke-width=".5"/><path d="m182.407 165.516c.101-.569-.301-1.116-.898-1.221s-1.163.271-1.263.84c-.101.57.301 1.116.898 1.222.597.105 1.163-.271 1.263-.841z" fill="#261611"/><path d="m186.849 172.666-2.478.216" stroke="#261611" stroke-linecap="round" stroke-linejoin="round" stroke-width=".5"/><path d="m217.764 307.955c3.143 1.587 6.644 2.335 10.103 3.033.424.083.848.166 1.231.365.382.2.706.557.765.981.049.365-.109.731-.333 1.021-.549.731-1.472 1.089-2.362 1.263-.898.183-1.604.017-2.477.291-2.088.772-4.383.64-6.603.482-2.503-.183-5.014-.391-7.525-.399-.449 0-.89 0-1.339.017-3.001.083-6.011.506-8.988.108-.674-.092-1.356-.083-2.037-.133-4.698-.299-1.738-7.818-.641-11.207 1.098-3.39-3.708-43.208-3.708-43.208l-42.075.938 3.218-20.245 14.635-4.819s31.622 5.741 33.726 5.99 3.858 5.109 3.858 5.109c1.455 2.418 2.461 5.11 2.944 7.893.382 2.185.44 4.411.374 6.629-.349 11.88-4.316 17.961-2.777 29.75 0 0 .407 11.664 1.289 12.428.881.756 5.487 2.06 8.722 3.697z" fill="#a4786f" stroke="#261611" stroke-linecap="round" stroke-linejoin="round" stroke-width=".5"/><path d="m166.618 203.155 7.775-1.546s-.707 7.81-2.769 13.018c-2.062 5.209-7.641 10.526-8.29 13.068-.649 2.534 3.284-24.54 3.284-24.54z" fill="#261611" stroke="#261611" stroke-linecap="round" stroke-linejoin="round" stroke-width=".5"/><path d="m187.14 177.892c-1.389.457-2.778.913-4.175 1.37-.083.025-.166.059-.232.117-.05.041-.084.099-.117.158-.249.456-.457 1.254-.557 1.445-1.089-.814-1.671-.814-2.303-.266-.566 2.509-.823 5.699-.067 8.158.108.349.333 1.122.491 2.31.382 5.74.191 11.672-2.154 16.972-1.106 2.501-2.661 4.802-3.841 7.278-1.181 2.475-2.312 6.247-1.763 8.914l12.497-3.207c.94-3.173 1.547-8.416 1.797-11.705.432-5.683-.358-10.725 1.554-16.125 2.611-3.697 4.125-6.198 5.929-9.421-1.297-1.022-3.101-2.31-4.399-3.332-.873-.689-2.336-1.636-2.677-2.666z" fill="#a4786f" stroke="#261611" stroke-linecap="round" stroke-linejoin="round" stroke-width=".5"/><path d="m186.766 183.682c.074 1.204.291 2.401.632 3.564" stroke="#261611" stroke-linecap="round" stroke-linejoin="round" stroke-width=".5"/><path d="m184.038 185.459c-.066-1.013 0-2.027.217-3.024.357-.315 1.089-.714 1.629-1.096" stroke="#261611" stroke-linecap="round" stroke-linejoin="round" stroke-width=".5"/><path d="m119.788 232.439s8.348-39.511 30.158-49.106c0 0 20.722-4.145 19.192 14.505l-2.911 14.929-15.948 3.722.574 3.348s-2.944 5.018-10.685 7.369-20.389 5.233-20.389 5.233z" fill="#c2a17b" stroke="#261611" stroke-linecap="round" stroke-linejoin="round" stroke-width=".5"/><path d="m116.86 232.439 17.254-4.004s4.49-2.667 7.775-3.415c3.284-.748 7.533-3.223 8.964-5.184 1.438-1.952 1.164-.399 1.164-.399l9.903 20.529s.848 6.463-1.123 11.78c-1.962 5.317-6.602 11.78-6.602 11.78s-23.382 2.459-30.724-2.285c-4.931-3.19-7.367-11.531-7.043-19.306.324-7.768.432-9.488.432-9.488z" fill="#261611" stroke="#261611" stroke-linecap="round" stroke-linejoin="round" stroke-width=".5"/><path d="m150.453 217.618s3.06 14.937 5.688 20.113c0 0 1.256 3.215 5.787 2.234 4.532-.98 27.166-15.734 31.282-16.125 4.116-.39 7.167.549 8.681-.531 1.513-1.08 4.041-2.8 4.041-2.8s3.451-.316 4.174-1.072 2.278-2.45 2.278-2.45.433-.623 1.896-.964c1.464-.341 1.821-1.828 1.821-1.828s-6.943.549-8.972.441l-2.029-.108s2.478-.133 4.016-1.205c1.539-1.08 1.788-1.977 1.788-1.977h-5.862s-5.355-.441-7.625.781c-2.27 1.229-11.857 7.177-14.169 8.282-2.311 1.105-18.559 5.766-18.559 5.766l2.037-16.042-16.713 4.494.424 2.983z" fill="#a4786f" stroke="#261611" stroke-linecap="round" stroke-linejoin="round" stroke-width=".5"/><path d="m133.357 235.745c4.291 9.903 12.864 15.535 22.95 18.343" stroke="#80d5ff" stroke-linecap="round" stroke-linejoin="round" stroke-width=".5"/><path d="m188.985 223.483c.832-.224 11.417 1.371 12.698 2.376 2.818 2.202 4.515 5.6 5.097 9.122.582 3.531.233 7.136-.108 10.692-1.539 15.809-3.077 28.769-4.607 44.579 3.093 3.854 5.605 7.609 7.5 12.162.533 1.279 1.031 2.609 1.946 3.647 1.513 1.72 3.991 2.442 5.272 4.337-.141.415-1.306 2.052-1.746 2.027-2.661-.166-5.322-.341-7.983-.507-.931-.058-1.887-.125-2.744-.515-.923-.424-1.638-1.205-2.32-1.961-1.738-1.919-3.6-4.17-3.351-6.746-1.28-.216-3.941-.689-5.222-.905-1.771-.299-3.741-.723-4.731-2.21-1.497-2.243.142-5.142 1.156-7.635 2.561-6.297.873-10.559-.632-17.188-2.536-11.19-4.432-23.029-1.039-33.987-4.931-1.37-13.512-3.356-18.543-4.303.233-.025 19.125-12.952 19.357-12.976z" fill="#a4786f" stroke="#261611" stroke-linecap="round" stroke-linejoin="round" stroke-width=".5"/><path d="m151.127 201.991c-1.513 2.617-1.704 7.004-1.189 11.905z" fill="#fcf3e3"/><path d="m151.127 201.991c-1.513 2.617-1.704 7.004-1.189 11.905" stroke="#261611" stroke-linecap="round" stroke-linejoin="round" stroke-width=".5"/><path d="m139.262 235.746c.597 0 1.081-.484 1.081-1.08 0-.597-.484-1.08-1.081-1.08s-1.081.483-1.081 1.08c0 .596.484 1.08 1.081 1.08z" fill="#c2a17b" stroke="#261611" stroke-linecap="round" stroke-linejoin="round" stroke-width=".5"/><path d="m142.629 240.364c.597 0 1.081-.483 1.081-1.08 0-.596-.484-1.08-1.081-1.08s-1.081.484-1.081 1.08c0 .597.484 1.08 1.081 1.08z" fill="#c2a17b" stroke="#261611" stroke-linecap="round" stroke-linejoin="round" stroke-width=".5"/><path d="m193.201 294.547c1.389.681 7.858 6.895 11.217 8.872 3.36 1.977 6.32.299 6.32.299l6.037 6.68s-2.678 2.691-6.204 2.101c-3.525-.589-6.053-1.312-8.589-3.057-2.536-1.744-8.573-7.651-8.573-7.651l-1.655 1.778-5.679-5.55 3.759-6.073s1.313 1.595 3.359 2.609z" fill="#261611" stroke="#261611" stroke-linecap="round" stroke-linejoin="round" stroke-width=".5"/><path d="m215.028 312.425s7.159 0 8.64-2.326c3.251.565 6.252 1.337 6.252 1.337s1.356 3.739-1.363 4.22c-2.719.482-10.968-.108-15.275-.515-4.316-.398-5.663.831-5.663.831v1.803l-11.125-.872s-1.139-3.066-.798-4.794c.166-.881.34-1.52.34-1.52s7.675.747 9.929.091c2.103 1.097 9.071 1.728 9.071 1.728z" fill="#261611" stroke="#261611" stroke-linecap="round" stroke-linejoin="round" stroke-width=".5"/><path d="m441.623 198.296c14.31-29.36 47.363-62.574 82.91-58.254 15.416 1.654 53.258 25.247 52.194-.564-.108-10.427-6.735-19.482-14.618-24.616-3.418-2.31-11.517-3.007-13.886-4.81-5.796-4.112-1.106-5.724-5.339-10.3763-5.305-7.7676-13.911-7.4104-19.482-15.959-7.159-10.6171-3.293-14.5715-18.41-12.8436-14.343 1.4539-13.478 9.0138-23.323 15.9008-7.501 6.0812-15.907 1.9939-25.27 5.2255-21.337 6.4883-18.169 33.3136-21.37 51.8646-2.711 14.896-5.097 35.781 1.846 50.834 1.347 3.897 1.081 3.116 3.176 4.137l1.555-.539z" fill="#fdd7ac" stroke="#261611" stroke-linecap="round" stroke-linejoin="round" stroke-width=".5"/><path d="m441.166 199.766c-6.261-18.128 7.085-44.911 17.562-59.034 23.074-31.121 51.52-30.847 76.532-21.185" stroke="#261611" stroke-linecap="round" stroke-linejoin="round" stroke-width=".5"/><path d="m385.617 108.529 14.029 36.364 36.396-14.017-14.029-36.3633z" fill="#fff" stroke="#291510" stroke-linecap="round" stroke-linejoin="round" stroke-width=".5"/><path d="m406.366 97.498 9.122 23.61-14.061 5.492 3.518 9.454-9.729 3.68" stroke="#291510" stroke-linecap="round" stroke-linejoin="round" stroke-width=".5"/><path d="m412.561 143.555-5.088-13.284" stroke="#291510" stroke-linecap="round" stroke-linejoin="round" stroke-width=".5"/><path d="m431.279 110.441-12.481 4.91-3.517-9.363-29.461 10.709" stroke="#291510" stroke-linecap="round" stroke-linejoin="round" stroke-width=".5"/><path d="m416.911 142.243-5.355-14.289 10.784-3.971-1.338-3.78 12.239-4.727" stroke="#291510" stroke-linecap="round" stroke-linejoin="round" stroke-width=".5"/><path d="m389.462 125.828 18.592-7.054" stroke="#291510" stroke-linecap="round" stroke-linejoin="round" stroke-width=".5"/><path d="m387.491 120.967 15.391-5.923-5.221-13.683" stroke="#291510" stroke-linecap="round" stroke-linejoin="round" stroke-width=".5"/><path d="m432.127 135.207-13.055-34.635-4.64 1.903-2.436-6.9037" stroke="#291510" stroke-linecap="round" stroke-linejoin="round" stroke-width=".5"/><path d="m426.705 106.578 2.752-1.113" stroke="#291510" stroke-linecap="round" stroke-linejoin="round" stroke-width=".5"/><path d="m553.013 197.356c-.299-3.406 4.806-13.583 7.45-16.598 3.435-3.29 4.806-2.36 9.272-2.135 5.937.415 7.384-2.011 12.605-4.686 12.756-5.79 12.515 7.277 6.287 14.68-6.378 8.507-13.321 7.211-22.742 10.451-5.081 1.57-10.278 6.87-15.624 7.651l2.744-9.363z" fill="#fdd7ac" stroke="#261611" stroke-linecap="round" stroke-linejoin="round" stroke-width=".5"/><path d="m518.222 242.126c.075-3.357 2.595-8.258 2.395-12.404-.491-7.551-3.168-12.768.798-20.096 7.525-14.339 32.687-23.352 47.904-25.072 4.199-.565 21.602.581 21.602.581-4.166 10.46-17.428 13.068-21.444 15.154-16.24 9.445-32.945 19.572-45.301 33.645-2.187 2.327-4.465 5.392-5.862 7.452l-.1.731z" fill="#fde9d5" stroke="#261611" stroke-linecap="round" stroke-linejoin="round" stroke-width=".5"/><path d="m500.22 237.116c-9.254-6.463-18.36-14.04-28.862-19.548-6.968-3.921-14.825-6.829-21.744-11.115-8.298-5.218-15.333-11.39-24.147-15.552-3.168-1.546-12.905-4.337-12.738-8.424.316-5.201 10.477-2.725 14.152-2.235-1.156-11.008 16.78-2.26 21.145-1.313 7.999 1.811 16.165-.473 23.673 5.018 8.515 6.372 9.771 16.64 17.138 23.228 7.043 6.173 9.055 13.55 10.826 22.763.715 3.091 1.522 5.442 1.131 8.383l-.59-1.205z" fill="#fde9d5" stroke="#261611" stroke-linecap="round" stroke-linejoin="round" stroke-width=".5"/><path d="m475.591 140.673c-3.459-4.952-14.576-8.674-17.495-.823-3.367-5.682-7.733-12.254-15.191-12.495-3.035 5.957 13.794 14.555 14.751 21.418.515 4.56-2.453 7.161-1.148 11.447 1.672 4.337 5.746 7.502 7.417 11.839 3.975 9.512 7.417 17.446 13.795 25.778 6.436 7.967 11.616 16.881 17.212 25.488 2.827 4.121 7.343 9.579 7.858 14.14 12.905-6.896 5.089-32.624 1.53-42.452-5.671-16.466-11.2-34.045-18.909-49.281l-9.811-5.043z" fill="#dcbb93" stroke="#261611" stroke-linecap="round" stroke-linejoin="round" stroke-width=".5"/><path d="m520.758 147.419c.042-5.982 6.228-13.018 11.35-14.954 9.887-3.929 16.364 3.672 25.569 4.893 4.416.59 8.124-1.919 12.49-.963 4.731 1.005 7.658 4.386 10.992 7.443 10.702 9.654-6.078 11.913-12.797 17.388-6.303 5.151-11.525 13.433-17.187 19.423-5.763 6.721-11.841 13.018-17.287 20.155-9.588 12.943-14.56 30.621-31.215 34.767.05-.366.465-.69.881-1.005l17.212-87.147z" fill="#fdd7ac" stroke="#261611" stroke-linecap="round" stroke-linejoin="round" stroke-width=".5"/><path d="m515.72 227.571c8.065-7.161 13.853-16.873 20.596-25.33 6.328-8.142 14.759-15.253 22.043-22.14 7.235-6.521 17.171-10.816 23.025-18.268 2.237-2.7 5.496-7.502 6.985-10.294 2.162-4.951.632-4.785-4.765-3.63-9.637 2.085-15.034 8.856-23.715 12.196-10.568 3.464-9.362 14.098-17.237 19.788-3.75 2.875-8.83 4.445-11.258 8.607-1.963 3.481-1.447 8.042-3.46 11.888-1.962 3.481-5.712 6.347-7.724 10.202-1.913 3.115-2.087 7.203-3.676 10.734-2.627 5.64-7.899 8.681-10.959 12.012l10.128-5.765z" fill="#fde9d5" stroke="#261611" stroke-linecap="round" stroke-linejoin="round" stroke-width=".5"/><path d="m515.446 215.783c2.411 1.08 7.176.365 10.26-1.238 3.326-1.072 6.054-2.767 7.775-6.613 2.42-5.101-.457-5.815-.175-10.027-.099-5.724 7.517-14.755 10.137-22.182 2.403-6.53 5.729-21.375-.915-25.413 2.644-5.998 13.578-23.693 1.488-24.333-2.993-.274-4.606 3.124-7.101 3.93-4.989 1.603-2.22 2.774-5.513-.898-2.819-4.029-2.81-10.201-9.238-8.955-10.369 1.686-10.793 18.692-12.082 26.917-.74 5.998-4.506 8.855-5.355 15.294-.848 6.438 1.58 15.128 3.593 20.852.632 2.06.656 3.489 1.879 4.744l5.263 27.922z" fill="#fdd7ac" stroke="#261611" stroke-linecap="round" stroke-linejoin="round" stroke-width=".5"/><path d="m519.586 150.634c1.106-5.467 2.645-8.632-.399-13.899-2.037-4.386-6.577-6.862-8.614-11.248-1.888-5.492.457-11.913-2.952-17.23-3.093-4.902-6.652-3.506-10.918-5.193-3.9-1.636-6.452-4.9676-11.558-6.0226-2.894-.756-9.205-1.2213-10.793 2.3095-2.062 4.2121 3.983 9.5121 5.796 12.7441 4.814 8.872 7.907 19.39 10.735 29.118 2.062 7.012 1.87 19.706 7.126 25.263z" fill="#fde9d5" stroke="#261611" stroke-linecap="round" stroke-linejoin="round" stroke-width=".5"/><path d="m542.528 143.398c-.757-3.689-.591-12.362.499-14.389 1.089-2.027-.167-2.035 2.877-5.267 3.043-3.24 3.717-3.805 5.405-4.611 1.687-.805 1.754-1.345 2.635-1.005.882.333 1.007.191 1.522.798.516.615.249 1.827.657 3.622.416 1.794.682 5.092.05 7.809s-2.453 3.722-4.1 6.654c-1.638 2.933-3.642 5.55-4.515 7.062s-2.902 1.678-3.775 1.238c-.864-.441-1.272-1.911-1.272-1.911z" fill="#ff664d" stroke="#261611" stroke-linecap="round" stroke-linejoin="round" stroke-width=".5"/><path d="m540.249 138.522c-.698-5.458-1.097-14.821 3.385-17.023 1.979-.972 3.667.499 4.274 2.717s-1.289 14.464-1.647 16.948c-.357 2.484-1.613 3.447-2.802 3.904-1.189.465-2.744-2.957-3.201-6.555z" fill="#ff664d" stroke="#261611" stroke-linecap="round" stroke-linejoin="round" stroke-width=".5"/><path d="m555.033 122.471c-2.428-.315-7.567 6.048-9.03 8.466-1.464 2.417-2.304 5.458-2.628 7.045-.316 1.586-.565 3.406-.673 5.076-.117 1.669 1.022 3.339 1.446 3.672.416.324.483.988 2.678 1.063 2.203.075 4.041-1.097 5.546-2.202 1.505-1.104 4.482-4.627 5.388-6.131.907-1.512 3.143-9.744 2.561-11.456-.59-1.711-4.016-5.358-5.288-5.524z" fill="#ff664d" stroke="#261611" stroke-linecap="round" stroke-linejoin="round" stroke-width=".5"/><path d="m539.584 133.188c.149.714-1.09 4.71-.641 6.779.316 1.453 1.364 2.6 1.364 2.6s-.973 3.622-.707 5.292 1.131 3.489 1.331 3.805c.199.315 1.114.922 2.062.963.948.042 2.336-.872 3.542-1.686 1.214-.814 1.829-1.795 2.195-2.077.366-.274 1.314-.191 2.877-.839s4.158-3.963 4.158-3.963l.956-1.047s-.166-.531-1.38.042c-1.223.573-2.653 1.454-3.293 1.67-.632.216-1.464.939-1.863 1.155s-1.388.955-1.388.955.524-1.479.889-3.024c.366-1.545 1.954-3.655 2.221-5.043.274-1.387-2.844 1.13-2.844 1.13s-1.264 2.077-2.453 2.484c-1.796.615-4.258.091-4.59.449 0 0-.757-3.323-1.339-4.786-.582-1.462-1.106-4.859-1.106-4.859z" fill="#bfa480" stroke="#261611" stroke-linecap="round" stroke-linejoin="round" stroke-width=".5"/><path d="m540.05 149.47c.182.366.523 1.18.482 2.119-.092 1.935-1.439 4.602-1.78 6.031-.507 2.127-9.229 18.052-10.66 19.772-1.422 1.72-14.651 13.94-14.651 13.94l-1.854 6.248s15.616-15.12 17.786-17.654 9.654-19.016 10.826-21.525c1.173-2.509 2.229-5.242 3.401-5.907 1.073-.606 2.927-1.587 2.927-1.587l-6.502-1.445z" fill="#bfa480" stroke="#261611" stroke-linecap="round" stroke-linejoin="round" stroke-width=".5"/><path d="m505.359 229.424c-5.239-16.906-23.208-25.43-29.976-42.103-3.584-9.679-7.243-21.559-7.284-32.516-.109-4.835 2.17-10.667 1.638-15.12-.474-4.885-5.846-9.537-1.655-12.927 4.565-3.34 12.597 3.863 15.99 6.505-.067-13.591 18.842-9.329 23.482-4.769 3.592 3.98 5.787 9.97 9.496 13.093 4.074 3.165 8.348 1.986 11.765 7.261 6.835 10.542-1.305 18.227-3.409 28.47-1.114 5.55 1.006 9.338.69 14.547-.432 6.081-4.091 8.225-6.194 12.76-2.445 7.128-.948 9.953-6.594 15.777-3.093 3.53-5.812 7.119-5.596 11.09l-2.345-2.068z" fill="#fdd7ac" stroke="#261611" stroke-linecap="round" stroke-linejoin="round" stroke-width=".5"/><path d="m455.926 217.95c-3.559-4.212 1.613-6.521 6.028-5.931 11.683 2.301 26.11 12.071 33.078 21.608-7.924.44-19.649-1.487-26.101-6.463z" fill="#fdd7ac" stroke="#261611" stroke-linecap="round" stroke-linejoin="round" stroke-width=".5"/><path d="m506.797 249.395c11.483 3.772 23.873-2.068 27.324-13.957 2.644-8.631-5.33-19.041-13.753-20.536-9.837-2.052-16.356 7.56-24.63 10.575-5.912 2.21-14.717 3.656-20.505 2.144-7.583-2.127-13.595-8.142-20.289-11.274 5.746 18.726 36.878 21.708 50.523 31.752l1.322 1.296z" fill="#fde9d5" stroke="#261611" stroke-linecap="round" stroke-linejoin="round" stroke-width=".5"/><path d="m296.242 182.178c1.039-3.946-2.902-16.914-5.405-20.993-3.367-4.553-5.172-3.73-10.46-4.378-7.06-.706-8.265-3.847-13.861-8.042-13.812-9.363-16.165 6.023-10.344 15.975 5.77 11.274 14.194 11.149 24.596 16.848 5.646 2.866 10.685 10.136 16.805 12.129l-1.331-11.547z" fill="#fdd7ac" stroke="#261611" stroke-linecap="round" stroke-linejoin="round" stroke-width=".5"/><path d="m328.072 241.761c.59-3.955-1.388-10.227-.316-15.046 2.104-8.764 6.295-14.355 3.11-23.768-5.945-18.36-33.685-34.003-51.204-39.087-4.815-1.512-25.486-3.664-25.486-3.664 2.785 13.118 17.827 18.859 22.135 22.115 17.17 14.356 34.74 29.617 46.415 48.633 2.095 3.174 4.157 7.236 5.379 9.936z" fill="#fde9d5" stroke="#261611" stroke-linecap="round" stroke-linejoin="round" stroke-width=".5"/><path d="m350.232 239.501c12.165-5.733 24.388-12.794 37.834-17.147 8.98-3.199 18.784-5.043 27.772-8.682 10.793-4.461 20.306-10.293 31.498-13.408 4.024-1.172 16.031-2.493 16.655-7.336.674-6.164-11.749-5.308-16.173-5.475 3.576-12.694-19.249-6.031-24.571-5.79-9.762.515-18.892-3.805-28.82 1.13-11.284 5.765-14.834 17.579-24.804 23.834-9.513 5.832-13.371 14.09-17.304 24.558-1.463 3.481-2.885 6.081-3.018 9.62l.931-1.288z" fill="#fde9d5" stroke="#261611" stroke-linecap="round" stroke-linejoin="round" stroke-width=".5"/><path d="m398.593 131.194c5.064-5.118 18.867-7.253 20.704 2.55 5.098-5.998 11.55-12.835 20.364-11.614 2.37 7.61-19.133 14.314-21.644 22.182-1.53 5.25 1.43 8.897-.956 13.674-2.836 4.76-8.257 7.651-11.093 12.403-6.585 10.368-12.223 19-21.403 27.498-9.163 8.059-17.046 17.488-25.344 26.469-4.149 4.27-10.552 9.778-12.074 15.028-13.761-10.692.599-39.345 6.76-50.17 9.987-18.202 20.015-37.725 32.147-54.074l12.547-3.946z" fill="#fdd7ac" stroke="#261611" stroke-linecap="round" stroke-linejoin="round" stroke-width=".5"/><path d="m344.188 130.023c1.156-7.037-4.69-16.541-10.319-19.847-10.818-6.597-19.957 1.013-31.016.598-5.305-.2-9.146-3.888-14.468-3.639-5.762.224-9.878 3.606-14.41 6.53-14.518 9.18 4.74 15.219 11.525 22.987 6.361 7.319 10.826 18.102 16.272 26.269 5.414 9.047 11.284 17.67 16.24 27.149 8.648 17.13 10.926 38.888 29.651 47.113.017-.441-.407-.898-.831-1.354z" fill="#dcbb93" stroke="#261611" stroke-linecap="round" stroke-linejoin="round" stroke-width=".5"/><path d="m333.951 225.17c-8.032-10.036-12.871-22.597-19.083-33.895-5.787-10.833-14.26-20.886-21.428-30.439-7.184-9.114-17.977-16.159-23.357-26.095-2.079-3.613-4.939-9.919-6.128-13.499-1.538-6.248.216-5.741 6.319-3.299 10.902 4.395 15.874 13.426 25.395 19.091 11.716 6.19 8.157 18.443 16.256 26.709 3.825 4.129 9.471 6.995 11.483 12.379 1.605 4.486.075 9.736 1.663 14.663 1.596 4.486 5.43 8.606 7.01 13.533 1.621 4.037.997 8.881 2.153 13.35 1.946 7.153 7.525 11.78 10.452 16.316l-10.735-8.806z" fill="#fde9d5" stroke="#261611" stroke-linecap="round" stroke-linejoin="round" stroke-width=".5"/><path d="m312.191 132.041-7.4-27.133-18.668-1.154-3.043-.358z" fill="#85e0d1" stroke="#261611" stroke-linecap="round" stroke-linejoin="round" stroke-width=".5"/><path d="m320.281 93.0615-15.491 11.8465 7.401 27.133z" fill="#a9f6ea" stroke="#261611" stroke-linecap="round" stroke-linejoin="round" stroke-width=".5"/><path d="m311.019 91.417 9.263 1.6449-15.491 11.8471-21.711-1.512 2.52-1.33 7.433-5.1171 11.633-4.5028z" fill="#7cd1c1" stroke="#261611" stroke-linecap="round" stroke-linejoin="round" stroke-width=".5"/><path d="m291.503 61.1025 12.173 40.3585 15.874-12.3701z" fill="#85e0d1" stroke="#261611" stroke-linecap="round" stroke-linejoin="round" stroke-width=".5"/><path d="m291.478 61.3271 12.19 40.2169-20.647-1.7276.483-1.7031z" fill="#a9f6ea" stroke="#261611" stroke-linecap="round" stroke-linejoin="round" stroke-width=".5"/><path d="m291.503 61.1025 12.173 40.3585 15.874-12.3701z" stroke="#261611" stroke-linecap="round" stroke-linejoin="round" stroke-width=".5"/><path d="m320.281 93.0615-15.491 11.8465 7.401 27.133z" stroke="#261611" stroke-linecap="round" stroke-linejoin="round" stroke-width=".5"/><path d="m283.08 103.396 29.111 28.645" stroke="#261611" stroke-linecap="round" stroke-linejoin="round" stroke-width=".5"/><path d="m303.676 101.461-20.655-1.6449 8.482-38.7136" stroke="#261611" stroke-linecap="round" stroke-linejoin="round" stroke-width=".5"/><path d="m320.282 93.0622-4.757-.8308" stroke="#261611" stroke-linecap="round" stroke-linejoin="round" stroke-width=".5"/><path d="m288.443 100.248-5.363 3.149 21.711 1.512" stroke="#261611" stroke-linecap="round" stroke-linejoin="round" stroke-width=".5"/><path d="m336.645 211.379c-3.052.781-8.506-1.013-11.799-3.522-3.692-1.927-6.552-4.47-7.8-9.33-1.812-6.471 1.713-6.737 2.229-11.738 1.272-6.704-5.846-18.842-7.434-28.088-1.505-8.15-2.42-26.261 6.203-29.659-1.896-7.568-11.167-30.5633 3.16-28.877 3.567.283 4.781 4.603 7.55 6.048 5.538 2.891 2.054 3.705 6.66.05 4.125-4.17 5.355-11.423 12.656-8.6649 11.841 4.0709 8.905 24.1169 8.764 34.0449-.341 7.186 3.509 11.306 3.21 19.041-.308 7.734-4.906 17.446-8.423 23.768-1.156 2.293-1.472 3.963-3.16 5.192l-11.808 31.735z" fill="#dcbb93" stroke="#261611" stroke-linecap="round" stroke-linejoin="round" stroke-width=".5"/><path d="m323.998 164.042c-.599 1.512-.874 2.941-1.098 4.428l-.025.166c-.058.391-.108.781-.166 1.18-.083.615-.175 1.229-.291 1.836-.083.615-.217 1.304-.508 1.794 0 .009 0 .025-.016.034-.083.141-.183.274-.291.373-1.247 1.139-2.254-.24-2.861-1.412-.266-.507-.499-1.038-.706-1.587-.815-2.077-1.339-4.311-2.27-6.33-1.098-2.376-1.963-4.852-.657-7.71 2.029-4.735 8.348-5.375 10.443-.29 1.023 2.484-.665 5.275-1.554 7.526z" fill="#ff664d" stroke="#261611" stroke-linecap="round" stroke-linejoin="round" stroke-width=".5"/><path d="m315.466 177.367c-.814.573-2.245.673-3.168.864-1.189.233-2.378.474-3.567.706-.723.15-1.438.299-2.17.44-3.526.698-6.868 1.28-10.169-.556-1.963-1.088-4.208-2.883-4.69-5.217-.591-2.8 1.788-4.611 3.941-5.841 2.412-1.42 4.108-1.794 6.652-.664 2.819 1.246 5.954 2.259 8.831 3.564.773.349 1.522.723 2.245 1.121.407.225.765.482 1.106.756.108.017.216.058.308.175.124.141.241.291.357.457.092.099.183.216.258.324.964 1.279 1.713 2.733.058 3.871z" fill="#ff664d" stroke="#261611" stroke-linecap="round" stroke-linejoin="round" stroke-width=".5"/><path d="m320.172 172.557c-.232 1.155-.864 1.944-1.679 2.401-.033.033-.058.05-.092.058-1.438.79-3.434.69-5.03.142-.192-.067-.383-.15-.566-.233-2.17-.964-3.966-2.592-6.12-3.614-2.419-1.13-5.03-1.819-7.4-3.065-3.584-1.87-5.621-4.47-5.38-8.64.407-6.862 7.043-13.708 13.978-10.833.956.299 1.854.789 2.661 1.553 2.918 2.8 3.55 7.618 5.005 11.215 1.098 2.692 2.453 5.193 3.784 7.768.432.814.856 1.57.889 2.434.042.258.017.532-.041.814z" fill="#ff664d" stroke="#261611" stroke-linecap="round" stroke-linejoin="round" stroke-width=".5"/><path d="m334.533 213.63c.05.225-1.912 3.93-1.97 3.714-1.597-5.807-12.124-37.476-13.08-37.933-.723-.34-3.875-1.495-4.349-2.218-.939-1.503.624-2.932 1.821-3.597 1.422-.798 3.493-1.612 4.607.066.432.657.183 3.24.075 4.013-.217 1.47 8.489 14.297 12.896 35.955z" fill="#bfa480" stroke="#261611" stroke-linecap="round" stroke-linejoin="round" stroke-width=".5"/><path d="m344.918 134.035c-.191-6.638-1.372-10.667 3.268-16.241 3.276-4.744 9.105-6.729 12.39-11.473 3.326-6.065 1.862-14.0816 6.943-19.6394 4.615-5.1341 8.514-2.7747 13.869-3.8963 4.915-1.1381 8.582-4.5442 14.785-4.7519 3.55-.3074 11.05.4154 12.214 4.8849 1.564 5.3667-6.585 10.3679-9.379 13.7989-7.442 9.4538-13.196 21.1758-18.476 32.0338-3.833 7.818-6.17 22.763-13.462 28.238l-22.152-22.946z" fill="#dcbb93" stroke="#261611" stroke-linecap="round" stroke-linejoin="round" stroke-width=".5"/><path d="m346.025 86.6738c-2.037 10.7086-1.514 21.7082-1.813 32.5992-.333 12.021-1.688 24.009-4.041 35.798" stroke="#261611" stroke-linecap="round" stroke-linejoin="round" stroke-width=".5"/><path d="m358.081 79.1384c-.324-.6148-.682-1.2129-1.056-1.8194-.374-.6064-.748-1.2046-1.114-1.811-.757-1.213-1.522-2.4591-2.096-3.7717-.407-.9138-.765-1.9025-.956-2.8911s-.258-2.0021-.158-2.9907c-.923.9055-2.145 1.5868-3.409 2.0852-.973.3988-1.987.7145-3.018 1.0218-.516.1579-1.031.3157-1.547.4819-.507.1661-1.014.3489-1.513.5566-2.636 1.0717-5.073 2.7997-7.027 5.051-1.513 1.7197-2.777 3.9129-2.777 6.2474 0 .3323.025.6563.075.972.091.6313.266 1.2378.507 1.811 1.181 4.2951 1.979 8.5984 2.861 12.8685.881 4.2621 1.837 8.4821 3.259 12.4451.275.756.557 1.52.923 2.235.374.714.815 1.379 1.372 1.952.316.324.682.623 1.123.731 1.097.266 2.137-.648 2.818-1.495.491-.615.923-1.247 1.323-1.895.415-.648.789-1.312 1.122-1.985.166-.341.324-.673.474-1.014.158-.34.316-.681.457-1.03.291-.689.541-1.379.79-2.068.474-1.247.824-2.493 1.239-3.731.25-.747.458-1.5032.724-2.2426.257-.7394.524-1.4788.79-2.2015 1.089-2.7332 2.469-5.3169 4.107-7.6763.799-.6895 1.455-1.4704 1.821-2.3926.981-2.2763.15-4.9846-1.122-7.4353z" fill="#ff664d" stroke="#261611" stroke-linecap="round" stroke-linejoin="round" stroke-width=".5"/><path d="m351.055 92.1561c-2.32.7726-4.739 1.4538-6.901 2.6003-1.281-1.0385-2.603-2.1019-3.858-3.2151-1.256-1.1132-2.487-2.2763-3.651-3.539-1.039-1.1465-2.062-2.4508-2.694-3.9212 1.181 4.295 1.979 8.6067 2.861 12.8768.881 4.2621 1.837 8.4821 3.259 12.4531.275.756.557 1.52.923 2.235.374.714.815 1.379 1.372 1.952.316.324.682.623 1.123.731 1.097.266 2.137-.648 2.818-1.495.491-.615.923-1.246 1.323-1.894.415-.648.789-1.313 1.122-1.986.166-.341.324-.673.474-1.013.158-.341.316-.682.457-1.031.291-.689.541-1.379.79-2.068.474-1.246.823-2.492 1.239-3.73.25-.748.458-1.504.724-2.2434.257-.7393.523-1.4787.79-2.2098 1.089-2.7332 2.469-5.3169 4.107-7.6846-.806.7062-1.804 1.3126-2.893 1.836-1.081.5234-2.229.9803-3.385 1.3625z" fill="#f94a38" stroke="#261611" stroke-linecap="round" stroke-linejoin="round" stroke-width=".5"/><path d="m343.164 69.9837c-.333.1412-.665.2824-.998.4403.64-.2742 1.272-.54 1.912-.7892-.307.108-.615.2243-.922.3489z" fill="#85e0d1" stroke="#261611" stroke-linecap="round" stroke-linejoin="round" stroke-width=".5"/><path d="m341.376 94.4746c0-7.236 4.091-16.1334 6.186-16.258 2.096-.1247-1.014 15.5768-.656 17.446" fill="#e1c092"/><path d="m341.376 94.4746c0-7.236 4.091-16.1334 6.186-16.258 2.096-.1247-1.014 15.5768-.656 17.446" stroke="#261611" stroke-linecap="round" stroke-linejoin="round" stroke-width=".5"/><path d="m360.268 84.2643c-.341-1.0634-.782-2.1101-1.347-3.1569.358.9388.582 1.8775.632 2.7914.075.9221-.05 1.811-.407 2.6501-.283.7062-.724 1.3292-1.281 1.8942-.557.5566-1.189 1.0633-1.921 1.5119-1.463.8973-3.193 1.6117-4.897 2.185-.873.2824-1.738.5649-2.611.8473-.873.2908-1.73.5982-2.578.9471-1.688.6978-3.301 1.5701-4.582 2.8661l1.148.6729c2.037-.9553 4.34-1.1049 6.569-1.4039 1.887-.241 3.758-.5816 5.579-.997 1.43-.324 2.861-.7144 3.942-1.5119.956-.7145 1.505-1.6948 1.87-2.7.183-.5234.3-1.0551.375-1.5951.083-.54.116-1.0883.099-1.6449-.008-.2825-.033-.5566-.066-.8391-.025-.2824-.067-.5566-.108-.839-.1-.565-.241-1.1299-.424-1.6865z" fill="#85e0d1" stroke="#261611" stroke-linecap="round" stroke-linejoin="round" stroke-width=".5"/><path d="m360.268 84.2643c-.341-1.0634-.782-2.1101-1.347-3.1569.358.9388.582 1.8775.632 2.7914.075.9221-.05 1.811-.407 2.6501-.283.7062-.724 1.3292-1.281 1.8942-.557.5566-1.189 1.0633-1.921 1.5119-1.463.8973-3.193 1.6117-4.897 2.185-.873.2824-1.738.5649-2.611.8473-.873.2908-1.73.5982-2.578.9471-1.688.6978-3.301 1.5701-4.582 2.8661l1.148.6729c2.037-.9553 4.34-1.1049 6.569-1.4039 1.887-.241 3.758-.5816 5.579-.997 1.43-.324 2.861-.7144 3.942-1.5119.956-.7145 1.505-1.6948 1.87-2.7.183-.5234.3-1.0551.375-1.5951.083-.54.116-1.0883.099-1.6449-.008-.2825-.033-.5566-.066-.8391-.025-.2824-.067-.5566-.108-.839-.1-.565-.241-1.1299-.424-1.6865z" fill="#ff664d" stroke="#261611" stroke-linecap="round" stroke-linejoin="round" stroke-width=".5"/><path d="m347.064 97.0908c-3.526-2.8495-7.218-5.6243-10.427-9.0885-1.663-1.8194-3.285-4.0625-3.277-6.7043 0-2.3427 1.264-4.5276 2.778-6.2473.84-.9886 1.804-1.8692 2.81-2.6418.998-.781 2.087-1.4373 3.218-1.9773-1.056.457-2.128.9305-3.143 1.5037-1.364.756-2.744 1.6366-3.95 2.6917-.607.5317-1.189 1.0966-1.746 1.7031-.549.6147-1.031 1.271-1.48 1.9772-.915 1.404-1.546 3.0239-1.904 4.6855-.166.8307-.233 1.6781-.225 2.5172 0 .8391.109 1.6615.333 2.4673.241.8723.582 1.6865 1.015 2.4259.432.7477.972 1.4372 1.563 2.052 1.189 1.2461 2.586 2.2347 4.091 3.0156 2.985 1.5535 6.228 2.4175 9.288 3.6803.931.3738 1.837.7892 2.727 1.2209.807.391 1.563-.5646.898-1.1295-.84-.7311-1.696-1.4455-2.578-2.1517z" fill="#ff664d" stroke="#261611" stroke-linecap="round" stroke-linejoin="round" stroke-width=".5"/><path d="m345.742 229.431c9.562-18.8 32.387-25.197 43.696-43.415 6.153-10.642 12.855-23.86 15.108-36.72 1.098-5.657-.39-12.96 1.123-18.086 1.538-5.64 8.789-10.027 4.54-14.845-4.682-4.835-15.574 2.002-20.089 4.419 2.81-15.95-20.248-14.746-26.617-10.326-5.022 3.954-8.814 10.542-13.795 13.467-5.421 2.899-10.202.648-15.283 6.156-10.153 11.007-2.145 21.674-1.73 34.119.183 6.737-3.068 10.758-3.741 16.948-.715 7.227 3.143 10.475 4.698 16.233 1.438 8.856-.89 11.88 4.565 19.855 2.918 4.768 5.396 9.529 4.332 14.148l3.176-1.953z" fill="#fdd7ac" stroke="#261611" stroke-linecap="round" stroke-linejoin="round" stroke-width=".5"/><path d="m406.11 225.901c5.031-4.237-.582-7.984-5.887-8.183-14.177.349-33.094 8.922-43.205 18.717 9.213 2.118 23.382 2.21 31.963-2.335z" fill="#fdd7ac" stroke="#261611" stroke-linecap="round" stroke-linejoin="round" stroke-width=".5"/><path d="m340.029 252.593c-14.244 2.118-27.614-7.236-29.277-21.891-1.364-10.667 10.102-21.292 20.288-21.35 11.966-.432 17.687 12.162 26.792 17.371 6.494 3.78 16.547 7.261 23.656 6.638 9.33-.972 17.603-6.829 26.101-9.155-10.527 20.835-47.687 18.077-65.739 27.124l-1.821 1.255z" fill="#fde9d5" stroke="#261611" stroke-linecap="round" stroke-linejoin="round" stroke-width=".5"/><path d="m240.04 244.344s-13.504 11.963-14.103 19.813c-.598 7.851-.981 19.723-.981 19.723l25.669-.715 46.39-3.314-7.301-21.21z" fill="#aa8d6a" opacity=".33"/><path d="m303.543 294.788s7.807 4.063 7.799 4.262 1.397 12.893 5.887 17.296-18.459 5.583-18.459 5.583c-.699-4.195-1.031-8.482-.258-12.071 1.372-6.347 1.098-10.833 1.106-10.958" fill="#fff"/><path d="m303.543 294.788s7.807 4.063 7.799 4.262 1.397 12.893 5.887 17.296-18.459 5.583-18.459 5.583c-.699-4.195-1.031-8.482-.258-12.071 1.372-6.347 1.098-10.833 1.106-10.958" stroke="#261611" stroke-linecap="round" stroke-linejoin="round" stroke-width=".5"/><path d="m297.638 324.023.324-7.71 25.528 4.503.599 7.344s-4.2 1.753-7.734 1.745c-4.54-.017-8.589-.54-11.391-2.019-1.38-.731-2.935-2.584-3.617-2.999s-3.717-.864-3.717-.864z" fill="#fde9d5" stroke="#261611" stroke-linecap="round" stroke-linejoin="round" stroke-width=".5"/><path d="m298.179 310.979 1.621.482c1.921.573 3.991.224 5.621-.939l2.129-1.62c1.305-.997 3.143-.947 4.39.125l2.062 1.769s.616 1.978 2.229 3.299c1.621 1.32 7.118 4.752 7.234 6.986 0 0 0 1.188-3.833 2.119-4.399 1.063-7.434 1.52-12.232-.391-1.621-.648-2.677-2.542-4.956-3.314-.823-.283-4.573-1.355-4.573-1.355l.299-7.144z" fill="#261611" stroke="#261611" stroke-linecap="round" stroke-linejoin="round" stroke-width=".5"/><path d="m241.063 291.024s-8.116 3.398-8.124 3.598c-.008.199-2.47 12.735-7.309 16.748-4.839 4.012 17.936 7.094 17.936 7.094 1.047-4.12 1.737-8.365 1.263-12.004-.839-6.438-.191-10.891-.191-11.016" fill="#fff"/><path d="m241.063 291.024s-8.116 3.398-8.124 3.598c-.008.199-2.47 12.735-7.309 16.748-4.839 4.012 17.936 7.094 17.936 7.094 1.047-4.12 1.737-8.365 1.263-12.004-.839-6.438-.191-10.891-.191-11.016" stroke="#261611" stroke-linecap="round" stroke-linejoin="round" stroke-width=".5"/><path d="m244.522 320.259.307-7.311-25.802 2.185-1.197 6.895s4.041 2.003 7.567 2.277c4.523.349 8.606.191 11.516-.989 1.439-.581 3.135-2.201 3.842-2.542.715-.341 3.767-.515 3.767-.515z" fill="#fde9d5" stroke="#261611" stroke-linecap="round" stroke-linejoin="round" stroke-width=".5"/><path d="m245.054 307.607-1.655.341c-1.962.407-3.999-.108-5.521-1.404l-1.987-1.795c-1.223-1.105-3.052-1.205-4.391-.241l-2.203 1.587s-.774 1.919-2.495 3.099c-1.721 1.179-7.492 4.145-7.791 6.355 0 0-.092 1.188 3.642 2.426 4.299 1.429 7.276 2.135 12.215.631 1.671-.507 2.877-2.309 5.222-2.891.848-.208 4.664-.972 4.664-.972l.3-7.144z" fill="#261611" stroke="#261611" stroke-linecap="round" stroke-linejoin="round" stroke-width=".5"/><path d="m234.668 196.501 35.264-11.548 22.584 11.24 3.784 51.366-49.683-3.854z" fill="#fde9d5" stroke="#261611" stroke-linecap="round" stroke-linejoin="round" stroke-width=".5"/><path d="m279.745 213.29s-.915-5.699 4.066-10.451c4.981-4.76 8.706-6.638 8.706-6.638 8.398 10.518 12.24 24.699 10.701 43.2l-14.069 7.61-8.573-12.869 4.532-2.334-5.355-18.51z" fill="#fde9d5" stroke="#261611" stroke-linecap="round" stroke-linejoin="round" stroke-width=".5"/><path d="m247.133 220.46c1.754 10.983.573 9.778.573 9.778l-5.38 11.531-10.003-.797s-4.016-16.94-1.172-29.343 3.517-15.128 3.517-15.128 10.71 12.968 12.465 23.959z" fill="#fde9d5" stroke="#261611" stroke-linecap="round" stroke-linejoin="round" stroke-width=".5"/><path d="m251.706 254.505s4.781 2.168 2.453 25.105c-2.246 22.098-2.295 19.34-2.295 19.34l-22.817-.947s.457-28.827 4.282-37.243c3.825-8.415 10.219-12.378 10.219-12.378l8.158 6.114z" fill="#261611" stroke="#261611" stroke-linecap="round" stroke-linejoin="round" stroke-width=".5"/><path d="m244.056 254.413s.698 10.119 3.517 14.613c2.819 4.495 10.169 5.093 18.767 4.927 8.598-.167 23.914 1.861 26.209-5.051s2.537-27.789 2.537-27.789-18.635-4.993-19.258-5.292c-.624-.299-31.806 6.156-31.806 6.156z" fill="#261611" stroke="#261611" stroke-linecap="round" stroke-linejoin="round" stroke-width=".5"/><path d="m289.631 250.309 9.072-7.768s4.215.166 7.067 7.385c2.844 7.22 7.858 52.272 7.858 52.272l-21.86-.257-2.012-39.329-.117-12.312z" fill="#261611" stroke="#261611" stroke-linecap="round" stroke-linejoin="round" stroke-width=".5"/><path d="m255.364 191.748s-2.619 1.986-2.22 5.267c.399 3.282 5.978 8.582 5.039 22.564-.948 13.981-3.293 14.015-3.293 14.015l17.67 3.281s-4.582-6.87-3.875-20.187c.707-13.318 2.511-26.792 2.511-26.792l-15.832 1.86z" fill="#c2a17b" stroke="#261611" stroke-linecap="round" stroke-linejoin="round" stroke-width=".5"/><path d="m272.202 184.073c-.291 1.57-.59 3.148-.881 4.719-.64 3.439-1.33 6.986-3.276 9.894-.857 1.279-1.987 2.434-3.426 2.966-2.86 1.046-6.145-.731-7.8-3.29-1.654-2.559-2.053-6.148-2.436-9.172-1.364.241-2.752.374-4.116.432-1.114.05-2.27.05-3.309-.365-.192-.075-.399-.183-.499-.366-.075-.149-.083-.324-.075-.49.017-3.057.058-6.521.083-9.587-1.197-.149-2.96-.316-4.157-.465.374-.906.972-1.703 1.563-2.484l3.002-4.004s-1.547-1.512-.632-3.88c.357-.922 4.897-7.02 5.962-8.839l21.444 3.248-.058 18.318-1.389 3.381" fill="#ffaea1"/><path d="m272.202 184.073c-.291 1.57-.59 3.148-.881 4.719-.64 3.439-1.33 6.986-3.276 9.894-.857 1.279-1.987 2.434-3.426 2.966-2.86 1.046-6.145-.731-7.8-3.29-1.654-2.559-2.053-6.148-2.436-9.172-1.364.241-2.752.374-4.116.432-1.114.05-2.27.05-3.309-.365-.192-.075-.399-.183-.499-.366-.075-.149-.083-.324-.075-.49.017-3.057.058-6.521.083-9.587-1.197-.149-2.96-.316-4.157-.465.374-.906.972-1.703 1.563-2.484l3.002-4.004s-1.547-1.512-.632-3.88c.357-.922 4.897-7.02 5.962-8.839l21.444 3.248-.058 18.318-1.389 3.381" stroke="#261611" stroke-linejoin="round" stroke-width=".5"/><path d="m273.076 184.421c-11.242-2.517.266-4.926-1.364-10.65-1.039-3.647-6.893.091-8.564 2.409-1.522-4.644-8.922-9.147-1.622-12.81-2.985-2.675-14.302-1.163-9.895-7.809 4.998-5.209 12.573-3.789 17.437.648 3.226 1.453 7.625.024 10.336 2.683 3.866 4.984-2.952 10.908 1.904 16.009 1.164 5.906-6.511 5.217-8.232 9.52z" fill="#261611" stroke="#261611" stroke-linecap="round" stroke-linejoin="round" stroke-width=".5"/><path d="m246.442 181.763c1.381.39 2.852.556 3.892-.166z" fill="#fcf3e3"/><path d="m246.442 181.763c1.381.39 2.852.556 3.892-.166" stroke="#261611" stroke-linecap="round" stroke-linejoin="round" stroke-width=".5"/><path d="m249.894 174.727c.633 0 1.147-.514 1.147-1.147s-.514-1.146-1.147-1.146c-.634 0-1.148.513-1.148 1.146s.514 1.147 1.148 1.147z" fill="#261611"/><path d="m250.491 235.629 5.912-4.295 19.89 5.367s4.74 8.208 4.981 11.522l.241 3.307s.183 5.175-1.946 8.665c-1.605.872-3.534.332-3.467-1.006l1.43-3.647s-1.122 4.362-3.01 5.55c0 0-4.623-1.363-4.964-2.384-1.713.947-3.002-1.612-2.453-2.484 1.139-1.786 2.86-3.913 2.736-5.5-2.57-1.387-3.651-5.491-3.651-5.491l-18.06-4.628 2.345-4.976z" fill="#ffaea1" stroke="#261611" stroke-linejoin="round" stroke-width=".5"/><path d="m258.183 231.7-11.783-2.418c-4.664 3.431-7.375 7.053-6.436 11.033l12.232 1.404c-.948-3.514 1.156-6.97 5.995-10.019z" fill="#fde9d5" stroke="#261611" stroke-linecap="round" stroke-linejoin="round" stroke-width=".5"/><path d="m276.294 236.701s-11.558 2.99-14.909 3.157c-3.351.166-11.932.332-13.246.739s-5.413 1.097-8.107 3.747c-2.694 2.642-2.886 8.008-2.886 8.008l2.886-.066 2.145 1.254 2.312.266 1.297 4.694 2.977-1.088s-.034-3.091.64-3.947c.673-.855 5.288-1.304 7.475-2.326 2.179-1.022 6.844-3.447 6.844-3.447l21.768-.598-9.196-10.402z" fill="#ffaea1" stroke="#261611" stroke-linejoin="round" stroke-width=".5"/><path d="m273.999 236.61 11.109-4.81 7.434 14.729-7.808 2.501z" fill="#fde9d5" stroke="#261611" stroke-linecap="round" stroke-linejoin="round" stroke-width=".5"/><path d="m262.091 185.626c-2.087 2.002-4.831 3.041-7.716 3.564z" fill="#fcf3e3"/><path d="m262.091 185.626c-2.087 2.002-4.831 3.041-7.716 3.564" stroke="#261611" stroke-linecap="round" stroke-linejoin="round" stroke-width=".5"/><path d="m247.574 249.138-3.867 4.095" stroke="#261611" stroke-linecap="round" stroke-linejoin="round" stroke-width=".5"/><path d="m81.1135 276.736c-.3575 1.894 1.4968 5.125 5.6543 4.926 4.1659-.199 17.1462-.341 17.1462-.341l20.846-3.348s-29.2198-6.671-32.0552-6.787c-2.8355-.116-8.2236-1.778-8.2236-1.778l-4.0828 2.933z" fill="#aa8d6a" opacity=".33"/><path d="m316.44 254.953s-3.384 6.455-1.796 10.742 8.83 14.156 8.83 14.156l35.639-.631s29.485-.158 33.643-3.232c4.157-3.065 10.843-22.231 10.843-22.231z" fill="#aa8d6a" opacity=".33"/><path d="m360.975 273.887-13.512 8.457 27.107 32.757 11.708-8.142z" fill="#d6857c" stroke="#261611" stroke-linecap="round" stroke-linejoin="round" stroke-width=".5"/><path d="m378.711 295.843c-2.387 5.708-6.827 8.175-12.59 9.87 0 0 .574 8.897-.673 11.182-.74 1.362-3.875 3.979-5.771 6.879-1.629 2.483-1.347 5.665.607 7.676l1.297 1.337 28.945-28.03c-2.386-3.331-7.217-6.529-11.815-8.922z" fill="#fff" stroke="#261611" stroke-linecap="round" stroke-linejoin="round" stroke-width=".5"/><path d="m364.55 335.83 28.949-28.028-2.968-3.061-28.949 28.028z" fill="#fff" stroke="#261611" stroke-linecap="round" stroke-linejoin="round" stroke-width=".5"/><path d="m365.456 316.895 6.669 5.69" stroke="#261611" stroke-linecap="round" stroke-linejoin="round" stroke-width=".5"/><path d="m371.352 309.027-5.114-.374" stroke="#261611" stroke-linecap="round" stroke-linejoin="round" stroke-width=".5"/><path d="m366.163 313.322 4.266.216" stroke="#261611" stroke-linecap="round" stroke-linejoin="round" stroke-width=".5"/><path d="m372.982 235.887-48.211 4.536-4.008 5.649c-2.411 3.398-2.395 7.951.033 11.332l36.287 41.688 17.021-10.842-15.798-22.214s5.213-.69 15.857-.997c13.453-.382 26.575-4.553 29.435-11.29 2.861-6.73 1.331-12.171 1.331-12.171l-31.947-5.699z" fill="#291510" stroke="#291510" stroke-linecap="round" stroke-linejoin="round" stroke-width=".5"/><path d="m360.085 305.879c.774-.997 18.643-12.088 18.202-12.753-.441-.664-3.725-7.609-3.725-7.609l-20.056 13.499z" fill="#fdd7ac" stroke="#261611" stroke-linecap="round" stroke-linejoin="round" stroke-width=".5"/><path d="m353.724 279.851-14.435 6.754 22.941 35.797 12.606-6.662z" fill="#d6857c" stroke="#261611" stroke-linecap="round" stroke-linejoin="round" stroke-width=".5"/><path d="m368.675 303.785c-3.06 5.375-7.766 7.285-13.695 8.274 0 0-.515 8.898-2.02 11.016-.898 1.263-4.324 3.481-6.569 6.131-1.913 2.268-2.021 5.458-.333 7.693l1.131 1.487 32.129-24.325c-1.962-3.597-6.377-7.352-10.651-10.285z" fill="#fff" stroke="#261611" stroke-linecap="round" stroke-linejoin="round" stroke-width=".5"/><path d="m349.776 341.801 32.13-24.322-2.576-3.397-32.13 24.322z" fill="#fff" stroke="#261611" stroke-linecap="round" stroke-linejoin="round" stroke-width=".5"/><path d="m352.968 323.083 5.928 6.455" stroke="#261611" stroke-linecap="round" stroke-linejoin="round" stroke-width=".5"/><path d="m359.77 315.98-5.031-.989" stroke="#261611" stroke-linecap="round" stroke-linejoin="round" stroke-width=".5"/><path d="m354.107 319.619 4.2.731" stroke="#261611" stroke-linecap="round" stroke-linejoin="round" stroke-width=".5"/><path d="m374.578 176.254s27.681-6.571 28.937-4.652c1.505 2.293-29.968 9.355-29.893 9.197s.965-4.545.965-4.545z" fill="#291510" stroke="#291510" stroke-linecap="round" stroke-linejoin="round" stroke-width=".5"/><path d="m357.341 159.249-2.319 5.666 1.846 2.094s-2.088 2.824-2.404 4.868c-.207 1.313 0 1.346 0 1.346l2.794-.59-.565 3.672 3.077.781s-3.684 3.481-1.622 4.536c2.054 1.055 10.519-.058 10.519-.058l2.752 15.045 24.347-6.056-16.589-20.869s-10.02-13.666-10.169-13.6c-.15.067-11.667 3.174-11.667 3.174z" fill="#d6857c" stroke="#291510" stroke-linejoin="round" stroke-width=".5"/><path d="m356.518 146.455s-1.879 7.469-.906 10.069c.972 2.6 3.758 3.082 3.758 3.082s6.569-1.611 6.602-1.445-1.114 4.627-.74 4.851c.374.225 6.494 3.789 6.494 3.789l4.973-1.928s8.099 11.772 8.24 11.805c.881.192 7.525-4.818 8.465-6.787 0 0-2.029 1.138-2.478.681s-.765-3.406-.765-3.406l2.436-.714-2.544-1.105s.698-1.944.673-3.282c0 0 2.52-2.459 2.461-3.19-.058-.731-3.542 1.911-3.542 1.911l-.041-4.636-2.47-.938 1.705-2.418s-3.077.756-3.052.59.432-4.644.432-4.644l-3.983.59 1.555-2.252-6.277.142-.258-2.883s-4.457 1.105-4.482.872c-.025-.232.574-2.592.574-2.592l-6.677 3.83-2.137-.44-.133-1.803-2.877 4.021-.89-1.753-3.002 3.331z" fill="#fdf3ee" stroke="#261611" stroke-linecap="round" stroke-linejoin="round" stroke-width=".5"/><path d="m373.406 167.274-1.056 10.351s-.549 5.517-13.163 5.118c-3.135-.1-3.575-4.087-1.006-5.101 1.713-.681 3.476-1.113 3.476-1.113l-4.632-1.238.125-2.002 1.655.432c3.667.955 7.616.166 10.443-2.227.94-.797 1.389-1.62 1.431-2.384.158-2.633.199-2.716.199-2.716l1.464 1.129 1.039-.249z" fill="#fdf3ee" stroke="#261611" stroke-linecap="round" stroke-linejoin="round" stroke-width=".5"/><path d="m361.216 167.191c.118-.58-.279-1.15-.887-1.274-.607-.123-1.195.247-1.313.827s.278 1.15.886 1.274c.607.123 1.196-.247 1.314-.827z" fill="#261611"/><path d="m374.579 165.762c.682-.997 2.22-2.26 4.074-1.196 1.855 1.063 4.191 3.746-2.353 8.756" fill="#d6857c"/><path d="m374.579 165.762c.682-.997 2.22-2.26 4.074-1.196 1.855 1.063 4.191 3.746-2.353 8.756" stroke="#291510" stroke-linejoin="round" stroke-width=".5"/><path d="m371.86 201.427s-2.727-17.097 5.28-20.628c10.918-4.802 25.003-6.006 26.134-9.396 12.448 2.326 14.859 31.96 3.592 26.36-4.207-2.093-35.014 3.656-35.014 3.656z" fill="#513107" stroke="#261611" stroke-linecap="round" stroke-linejoin="round" stroke-width=".5"/><path d="m370.255 243.588-48.41-1.329-4.665 5.126c-2.802 3.082-3.343 7.601-1.339 11.248l30.974 45.775 18.21-8.706-12.988-23.968s5.255-.05 15.857.931c13.404 1.246 26.932-1.305 30.591-7.643 3.659-6.331 2.794-11.922 2.794-11.922l-31.024-9.52z" fill="#291510" stroke="#291510" stroke-linecap="round" stroke-linejoin="round" stroke-width=".5"/><path d="m384.333 183.715c10.269-2.525 25.436 2.276 26.492 28.296.457 11.381 1.405 31.627-7.783 51.067-11.866-2.625-23.557-8.333-37.526-16.524 0 0 2.544-32.059 6.053-44.122.715-2.459 1.339-4.494 1.879-6.197 1.855-5.816 4.964-11.058 10.893-12.52z" fill="#513107" stroke="#261611" stroke-linecap="round" stroke-linejoin="round" stroke-width=".5"/><path d="m311.351 205.34 7.159-1.362s13.42 28.578 13.246 28.785c-.175.208-3.784 4.212-3.784 4.212l-16.613-31.635z" fill="#fde9d5" stroke="#261611" stroke-linecap="round" stroke-linejoin="round" stroke-width=".5"/><path d="m359.769 233.029 9.92 7.136.566 3.423-42.624.332c-1.446-2.259-1.621-4.527-.349-6.812l3.526-4.486 28.953.407z" fill="#fde9d5" stroke="#261611" stroke-linecap="round" stroke-linejoin="round" stroke-width=".5"/><path d="m334.325 228.21c-2.179.673-2.844-.988-2.96-1.786-.117-.797 3.999-2.816 7.226-3.597 6.552-1.595 18.733 2.011 18.733 2.011s1.339 5.175 1.381 8.914c.033 2.567-9.014 4.345-14.294 1.229-1.048-.615-3.792 2.127-5.604 2.733-1.006.333-2.536-.074-2.736-.598-1.339.208-1.056-.282-1.472-1.238-.158-.349.3-1.146 1.006-2.068-.116-.848.765-3.68 2.196-5.334.299-.34.881-.623 1.638-.855-.117-.025-.217-.05-.291-.067-1.164-.257-2.645-.016-4.815.656z" fill="#d6857c" stroke="#291510" stroke-linejoin="round" stroke-width=".5"/><path d="m385.746 187.021s10.319-3.813 16.398 13.542c6.078 17.346 5.438 34.551.49 43.631l-46.423-7.468.79-13.384 28.23 1.396s-16.489-35.598.515-37.717z" fill="#513107" stroke="#261611" stroke-linecap="round" stroke-linejoin="round" stroke-width=".5"/><path d="m329.702 239.219 32.005.357" stroke="#291510" stroke-linecap="round" stroke-linejoin="round" stroke-width=".5"/><path d="m380.125 241.055-8.922 8.748" stroke="#291510" stroke-linecap="round" stroke-linejoin="round" stroke-width=".5"/><path d="m347.139 230.936s-4.881.24-6.012.564c-1.123.316-5.139 4.304-5.139 4.304" stroke="#291510" stroke-linecap="round" stroke-linejoin="round" stroke-width=".5"/><path d="m348.969 311.495c.889-.898 19.972-9.745 19.607-10.451-.366-.706-2.778-8.009-2.778-8.009l-21.544 10.983 4.706 7.485z" fill="#fdd7ac" stroke="#261611" stroke-linecap="round" stroke-linejoin="round" stroke-width=".5"/><path d="m396.913 198.835 3.334 8.266s1.223 12.677 1.564 16c.623 5.957 7.616 21.102 7.616 21.102l-2.769 9.711s15.45 9.72 20.081 12.669c4.632 2.95 42 5.616 49.5 4.503 7.492-1.105 24.671-8 24.671-8s4.357 7.942 7.983 8c3.625.058 15.324 2.966 15.324 2.966l27.34.872-2.253-5.217-35.83-14.746s-13.429.258-29.069-1.196c-15.641-1.446-76.333-43.516-76.333-43.516l-4.931-34.792s-5.122 2.094-7.001 8.922c-.516 1.861.673 12.703.765 14.464z" fill="#aa8d6a" opacity=".33"/><path d="m473.171 214.569s-2.437-3.855 1.688-6.372c4.124-2.517 5.995-.316 7.949-3.531s-1.04-5.89 1.272-8.64" stroke="#fff" stroke-linecap="round" stroke-linejoin="round" stroke-width=".5"/><path d="m473.129 226.565h-.407c-3.301 0-5.987-2.683-5.987-5.981v-2.891h12.381v2.891c0 3.298-2.686 5.981-5.987 5.981z" fill="#a9f6ea" stroke="#261611" stroke-linecap="round" stroke-linejoin="round" stroke-width=".5"/><path d="m480.471 228.791h-15.084c-1.521 0-2.76-1.238-2.76-2.758v-.092h20.604v.092c0 1.52-1.239 2.758-2.76 2.758z" fill="#a9f6ea" stroke="#261611" stroke-linecap="round" stroke-linejoin="round" stroke-width=".5"/><path d="m470.976 219.711v2.791" stroke="#261611" stroke-linecap="round" stroke-linejoin="round" stroke-width=".5"/><path d="m531.435 262.645 7.409-.44-.341-2.617-4.573-1.67-7.251-1.478s-3.035-6.455-4.781-6.455c-.175 0-9.712-1.463-9.712-1.463l-1.231 8.25s5.23 5.533 5.488 5.566 15.001.307 15.001.307z" fill="#d6857c" stroke="#261611" stroke-linecap="round" stroke-linejoin="round" stroke-width=".5"/><path d="m530.961 256.713s-3.675 3.706-3.916 3.631-16.098-3.572-16.098-3.572-2.12 2.783-2.054 5.499c.05 2.094.998 3.548.998 3.548h39.048v-1.886c0-.457-.341-.873-.873-1.055l-10.336-3.564.05 1.778-6.636.074 2.794-3.256-2.968-1.205z" fill="#261611" stroke="#261611" stroke-linecap="round" stroke-linejoin="round" stroke-width=".5"/><path d="m509.891 267.331h39.047v-1.512h-39.047z" fill="#261611" stroke="#261611" stroke-linecap="round" stroke-linejoin="round" stroke-width=".5"/><path d="m540.224 266.068 7.409.548-.083-2.65-4.374-2.268-7.051-2.434-5.696-11.315-9.512-.49-.449 10.044s4.64 6.189 4.889 6.256c.25.066 14.867 2.292 14.867 2.292z" fill="#d6857c" stroke="#261611" stroke-linecap="round" stroke-linejoin="round" stroke-width=".5"/><path d="m540.349 260.112s-4.016 3.19-4.249 3.082-15.632-5.691-15.632-5.691-2.387 2.476-2.595 5.192c-.158 2.085.632 3.656.632 3.656l38.79 5.192.192-1.869c.041-.457-.25-.906-.765-1.163l-9.912-4.91-.133 1.778-6.602-.806 3.101-2.866z" fill="#261611" stroke="#261611" stroke-linecap="round" stroke-linejoin="round" stroke-width=".5"/><path d="m518.505 266.351 38.79 5.2-.15 1.504-38.79-5.201z" fill="#261611" stroke="#261611" stroke-linecap="round" stroke-linejoin="round" stroke-width=".5"/><path d="m506.656 218.772 2.661 34.328 16.339-3.789" fill="#fff"/><path d="m506.656 218.772 2.661 34.328 16.339-3.789" stroke="#261611" stroke-linecap="round" stroke-linejoin="round" stroke-width=".5"/><path d="m403.782 206.561c-.857-7.103 1.704-14.306 1.704-14.306l9.255 1.13-1.522 18.069.208 17.022s-8.248-10.285-9.654-21.915z" fill="#fff" stroke="#261611" stroke-linecap="round" stroke-linejoin="round" stroke-width=".5"/><path d="m406.725 173.28c-2.769 1.812-5.213 6.705-6.111 9.479l.673 1.961-1.812 4.403.124 7.195s.208 2.284 1.871 3.597c2.195 1.728 7.392-.042 7.392-.042l.308 14.688c7.251 3.539 16.331 7.103 21.145.54l-6.269-19.747 3.218-21.558c-8.157-.682-16.672-1.504-20.547-.516z" fill="#d6857c" stroke="#261611" stroke-linecap="round" stroke-linejoin="round" stroke-width=".5"/><path d="m450.861 258.866s16.423 9.437 31.797 4.918c18.252-5.358 28.962-34.394 28.962-34.394l6.569 23.719 24.779-2.949-20.472-44.629c-.981-2.143-2.977-3.647-5.305-4.013l-4.49-.697c-2.154-.333-4.332.34-5.912 1.836-5.538 5.242-18.693 18.592-28.513 25.828-6.876 5.068-9.945 6.089-9.945 6.089l-17.461-2.168" fill="#fff"/><path d="m450.861 258.866s16.423 9.437 31.797 4.918c18.252-5.358 28.962-34.394 28.962-34.394l6.569 23.719 24.779-2.949-20.472-44.629c-.981-2.143-2.977-3.647-5.305-4.013l-4.49-.697c-2.154-.333-4.332.34-5.912 1.836-5.538 5.242-18.693 18.592-28.513 25.828-6.876 5.068-9.945 6.089-9.945 6.089l-17.461-2.168" stroke="#261611" stroke-linecap="round" stroke-linejoin="round" stroke-width=".5"/><path d="m426.665 208.23-16.506 1.687-2.602 3.772s-.433 13.026 3.559 20.428c1.313 2.434 7.566 15.934 15.549 21.268 11.184 7.476 39.58 8.548 40.444 7.701 6.461-6.306 6.046-31.337 6.046-31.337s-6.461 2.692-13.795 1.595c-7.342-1.104-12.839-5.1-12.839-5.1l-1.621-6.555-18.244-13.45z" fill="#261611" stroke="#261611" stroke-linecap="round" stroke-linejoin="round" stroke-width=".5"/><path d="m441.648 211.604-11.916 8.448 26.467 25.289 8.831-13.176z" fill="#fde9d5" stroke="#261611" stroke-linecap="round" stroke-linejoin="round" stroke-width=".5"/><path d="m435.786 220.958 21.977 22.04" stroke="#261611" stroke-linecap="round" stroke-linejoin="round" stroke-width=".5"/><path d="m461.721 226.898s-.133 3.946-.748 6.347c-.615 2.409 3.559 2.833 3.559 2.833l3.617-4.594-6.428-4.594z" fill="#d6857c" stroke="#261611" stroke-linecap="round" stroke-linejoin="round" stroke-width=".5"/><path d="m443.836 238.321-6.927 6.064-9.521-17.155-7.982-2.093-7.475 6.671 19.507 29.625 6.145.822c7.949-8.125 14.219-15.901 19.865-30.622 1.105-.141 2.877-.133 3.824-.756l2.137-1.387.982.116c1.247.15 2.419-.631 2.76-1.836l.566-2.268-2.736-1.695 4.515-1.678.2-3.481s-11.35.557-12.041.848c-.49.207-13.828 18.825-13.828 18.825z" fill="#d6857c" stroke="#261611" stroke-linecap="round" stroke-linejoin="round" stroke-width=".5"/><path d="m405.536 187.262c.68 0 1.231-.551 1.231-1.23s-.551-1.229-1.231-1.229c-.679 0-1.23.55-1.23 1.229s.551 1.23 1.23 1.23z" fill="#261611"/><path d="m413.751 188.616s3.725-5.109 5.463-.59c1.738 4.512-4.789 7.976-5.937 7.602" stroke="#261611" stroke-linecap="round" stroke-linejoin="round" stroke-width=".5"/><path d="m423.38 183.084c-.49-.059-10.069-1.828-10.069-1.828s.607 20.362 4.182 25.388c3.584 5.034 8.98 5.225 17.952 14.347 4.125 4.196 7.55-2.899 1.273-10.409-6.86-8.216-9.646-16.291-10.195-18.127-1.131-3.83-3.151-9.371-3.151-9.371z" fill="#fff" stroke="#261611" stroke-linecap="round" stroke-linejoin="round" stroke-width=".5"/><path d="m428.27 198.195-12.589-15.436-14.685-4.776s4.848-5.982 6.519-6.58 9.712-3.406 15.391-1.612c5.68 1.795 14.785 8.748 14.785 8.748s.365 10.044-1.431 10.825-4.215.98-4.215.98-.657 5.301-1.88 5.45c-1.214.15-1.895 2.401-1.895 2.401z" fill="#261611" stroke="#261611" stroke-linecap="round" stroke-linejoin="round" stroke-width=".5"/><path d="m401.81 185.899-3.874 5.076 3.134 1.014" fill="#d6857c"/><path d="m401.81 185.899-3.874 5.076 3.134 1.014" stroke="#261611" stroke-linecap="round" stroke-linejoin="round" stroke-width=".5"/><path d="m399.815 194.664s1.256 1.238 3.493.332" stroke="#261611" stroke-linecap="round" stroke-linejoin="round" stroke-width=".5"/><path d="m89.0377 260.727-3.7252 14.438.0915 2.817 51.919-.623.217-2.194-3.11-16.523z" fill="#fff" stroke="#261611" stroke-linecap="round" stroke-linejoin="round" stroke-width=".5"/><path d="m87.2172 256.756-3.8998 14.43.2827 2.817 51.5949-.607.308-3.339-2.894-15.386z" fill="#ff664d" stroke="#261611" stroke-linecap="round" stroke-linejoin="round" stroke-width=".5"/><path d="m84.4814 271.186 51.0216-1.129" stroke="#261611" stroke-linecap="round" stroke-linejoin="round" stroke-width=".5"/><path d="m85.3126 266.11s7.5168 4.071 10.2359 4.511c2.719.441 34.5245-.565 34.5245-.565s1.837-2.641.515-4.361-30.416-.773-32.3122-.773c-1.8958 0-15.0254.117-12.9715 1.197z" fill="#aa8d6a" opacity=".33"/><path d="m132.126 200.588 7.243-.989s.557.731-.05 1.238c.457 1.454 1.048 4.054.1 5.765-1.381 2.476-14.244 12.246-14.244 12.246s-9.629.889-9.671.556c-.041-.332-4.357-13.873.142-17.545 4.507-3.672 10.219-6.796 14.568-3.074 1.247 1.063 1.912 1.803 1.912 1.803z" fill="#fff" stroke="#261611" stroke-miterlimit="10" stroke-width=".5"/><path d="m128.735 211.928c1.904-1.354 1.97-6.588 1.954-6.821-.491-6.322-10.394-6.438-12.182-5.192-8.049 5.624-4.224 12.711-3.334 16.657.033.282 8.257-.474 8.257-.474s2.536-1.927 5.305-4.162z" fill="#261611" stroke="#261611" stroke-miterlimit="10" stroke-width=".5"/><path d="m124.544 218.673s9.329 12.636 6.909 21.425c-2.419 8.781-34.4823 27.233-34.4823 27.233s-10.1943.307-10.1943-11.282c0-12.91 9.7785-16.134 14.2686-19.274 4.49-3.14 14.443-15.327 14.443-15.327l9.064-2.775z" fill="#fff" stroke="#261611" stroke-miterlimit="10" stroke-width=".5"/><path d="m98.2764 239.267c6.8686 3.913 13.4956 3.971 15.3496-4.104.557-4.361-1.023-2.758-3.401-5.773-3.891 5.582-8.423 5.599-11.9486 9.886z" fill="#261611" stroke="#261611" stroke-miterlimit="10" stroke-width=".5"/><path d="m126.963 237.806c.133 6.081-11.783 12.86-10.536 15.361 3.618-2.36 14.527-11.207 15.109-13.334.366-1.313.258-2.999.166-4.428-1.022-3.788-4.814-1.188-4.748 2.409z" fill="#261611" stroke="#261611" stroke-miterlimit="10" stroke-width=".5"/><path d="m116.478 253.208 3.65 14.115h8.406c1.431 0 2.595-1.163 2.595-2.592 0-1.022-.599-1.944-1.53-2.36-.832-.373-1.697-.805-1.697-.955 0-.282-3.035-10.991-1.23-14.596 1.804-3.606-10.194 6.388-10.194 6.388z" fill="#261611" stroke="#261611" stroke-miterlimit="10" stroke-width=".5"/><path d="m117.035 204.567-5.979 5.259c-1.147 1.014-1.871 2.418-2.029 3.938-.274 2.733-.549 6.879.283 7.302.89.466 8.382 4.869 12.614 7.361 1.231.723 2.777-.216 2.694-1.637l-1.114-20.362" fill="#261611"/><path d="m117.035 204.567-5.979 5.259c-1.147 1.014-1.871 2.418-2.029 3.938-.274 2.733-.549 6.879.283 7.302.89.466 8.382 4.869 12.614 7.361 1.231.723 2.777-.216 2.694-1.637l-1.114-20.362" stroke="#261611" stroke-miterlimit="10" stroke-width=".5"/><path d="m91.2912 264.108c-22.2595 1.736-19.2328-14.463-10.8013-14.463" stroke="#261611" stroke-linecap="round" stroke-linejoin="round" stroke-width=".5"/><path d="m115.621 265.37c0-.772-.432-1.479-1.097-1.794l-4.424-2.061s-3.052-6.48-3.692-7.485c0 0-4.099-5.466-8.7141-4.378-8.5396 2.019-18.0272 11.523-.7318 17.679h16.8219c1.014 0 1.837-.873 1.837-1.961z" fill="#261611" stroke="#261611" stroke-miterlimit="10" stroke-width=".5"/><path d="m128.493 204.376c.542 0 .981-.439.981-.981 0-.541-.439-.98-.981-.98s-.981.439-.981.98c0 .542.439.981.981.981z" fill="#fff"/><path d="m126.106 268.311h1.788c.54-.731.84-1.844.84-3.24 0-2.816-2.445-3.83-3.251-4.162 0 0 0 0-.009 0-.083-.615-.357-2.492-1.289-8.524l-.033-.207c-.041-.266-.291-.449-.557-.407-.266.041-.449.29-.407.556l.033.208c1.156 7.51 1.297 8.59 1.305 8.69 0 .357.283.473.582.598 1.231.507 2.645 1.337 2.645 3.256 0 1.521-.441 3.141-1.647 3.24z" fill="#fff"/></g></svg>