<svg width="89" height="89" viewBox="0 0 89 89" fill="none" xmlns="http://www.w3.org/2000/svg">
<circle cx="44.2225" cy="44.2225" r="44.2225" fill="white"/>
<g clip-path="url(#clip0_5686_17647)">
<path d="M16.2148 35.3916V48.2676L27.7296 54.9798V42.056L16.2148 35.3916Z" fill="#31E530"/>
<path d="M31.7614 44.1665V44.1491C31.7614 44.0838 31.7752 44.0229 31.7938 43.9663V43.9576C31.8123 43.8966 31.84 43.84 31.8724 43.7835C31.8724 43.7835 31.8724 43.7835 31.8724 43.7791C31.9095 43.7269 31.9511 43.6746 31.9974 43.6267C32.0437 43.5832 32.0992 43.5397 32.164 43.5092C32.164 43.5092 32.164 43.5092 32.1686 43.5092L40.6103 39.0039L40.601 35.9395L29.3594 42.0815V54.9183L31.7567 53.3817V44.1796L31.7614 44.1665Z" fill="#31E530"/>
<path d="M28.313 28L17.002 34.0419L28.5583 40.7367L39.8231 34.586L28.313 28Z" fill="#31E530"/>
<path d="M72.2139 49.8125V37.9551L46.5742 52.2458V64.9999L72.2139 49.8125Z" fill="#31E530"/>
<path d="M38.9475 48.7637L33.3984 45.5469V52.3201V53.2516V58.1791L44.9409 65.0002V52.2373L40.4702 49.6473L39.7112 49.2033" fill="#31E530"/>
<path d="M60.3667 30.2202L42.257 39.8924L41.4378 40.3277L40.6232 40.763L34.1855 44.2018L40.4289 47.8148L41.1925 48.2588L41.9515 48.6984L45.7743 50.9097L71.451 36.5929L60.3667 30.2158V30.2202Z" fill="#31E530"/>
</g>
<defs>
<clipPath id="clip0_5686_17647">
<rect width="56" height="37" fill="white" transform="translate(16.2148 28)"/>
</clipPath>
</defs>
</svg>
