<svg fill="none" height="324" viewBox="0 0 449 324" width="449" xmlns="http://www.w3.org/2000/svg" xmlns:xlink="http://www.w3.org/1999/xlink"><clipPath id="a"><path d="m0 0h449v324h-449z"/></clipPath><mask id="b" height="43" maskUnits="userSpaceOnUse" width="29" x="57" y="25"><path d="m57.0576 52.6407s3.6067 11.9874 10.9929 14.4843c7.3861 2.4968 16.6792-3.897 16.6792-19.8711 0-15.981 3.4685-23.4025-3.5307-21.5471-6.9992 1.8553-10.751 3.7107-17.2389 9.0699s-6.9025 17.864-6.9025 17.864z" fill="#fff"/></mask><mask id="c" height="54" maskUnits="userSpaceOnUse" width="46" x="251" y="140"><path d="m292.744 186.083s-18.068 9.677-30.539 7.235c-12.472-2.442-11.297-20.113-8.948-26.306 2.342-6.187 5.783-19.037 8.948-23.148 3.171-4.11 2.335-3.89 12.133.097 9.797 3.987 15.269 5.304 18.399 15.574s7.407 23.203 0 26.548z" fill="#fff"/></mask><g clip-path="url(#a)"><path d="m38.8033 66.1941c-7.6556 6.6007-16.2716 18.8365-17.8124 29.3548-1.5408 10.5251.8222 16.9121 1.8379 20.0781s-9.307-1.442-13.25913-7.801c-3.95217-6.352-10.543732-27.6235-9.224038-39.68 1.319698-12.0564 7.773068-25.4165 15.152268-28.941 7.3793-3.5245 25.2608 6.3593 29.434 11.4012 4.1733 5.0419 4.6155 7.8905 4.6155 7.8905s-5.6864 3.3314-10.7441 7.6974z" fill="#f9dfba" stroke="#261611" stroke-linecap="round" stroke-linejoin="round" stroke-width=".5"/><path d="m178.387 58.0136s-16.603-3.4624-20.998 16.2707c-3.745 16.8363.878 35.6247-14.496 42.3697-15.373 6.746-44.5582 6.022-57.0158-1.048-12.4577-7.07 11.7736-3.173 11.7736-3.173s12.9622 3.29 18.4482-5.483c5.493-8.7735.974-39.4112 7.904-50.6469 4.194-6.7938 9.888-7.8905 9.888-7.8905l34.982-4.0073 9.514 13.6152z" fill="#f9dfba" stroke="#261611" stroke-linecap="round" stroke-linejoin="round" stroke-width=".5"/><path d="m270.841 232.77s-5.375 6.374-1.416 16.319c3.959 9.946 14.192 22.893 26.069 27.521 11.877 4.635 19.187 3.186 21.018 1.089 1.831-2.096 5.846-21.933-3.012-29.568-8.858-7.629-1.707-11.036-16.818-14.305-15.111-3.27-23.879-2.532-25.841-1.062z" fill="#fff" stroke="#261611" stroke-linecap="round" stroke-linejoin="round" stroke-width=".5"/><path d="m328.169 241.212s9.231 5.566 8.001 12.374c-3.959 6.269-19.658 24.113-19.658 24.113s.408-9.126-12.692-12.264l-13.1-3.131 11.621-12.622" fill="#f9dbb4"/><path d="m328.169 241.212s9.231 5.566 8.001 12.374c-3.959 6.269-19.658 24.113-19.658 24.113s.408-9.126-12.692-12.264l-13.1-3.131 11.621-12.622" stroke="#261611" stroke-linecap="round" stroke-linejoin="round" stroke-width=".5"/><path d="m322.524 251.993s-2.784 8.849-16.721 0c-13.936-8.849-26.856-22.506-34.961-19.223 9.376-8.6 18.517-16.574 18.517-16.574s13.915 2.407 22.276 13.54c8.36 11.125 10.896 22.257 10.896 22.257z" fill="#f9dfba" stroke="#261611" stroke-linecap="round" stroke-linejoin="round" stroke-width=".5"/><path d="m249.948 250.13s4.263 29.838 0 36.645c-4.263 6.808-23.741 29.121-61.425 35.749-27.941 4.918-64.167-4.042-81.641-28.513-4.263-6.808-7.4347-18.099-7.4347-18.099l20.2237-54.461s-14.565 43.019 35.811 61.289c45.195 16.388 80.101-10.683 80.101-10.683l14.365-21.92z" fill="#fff" stroke="#261611" stroke-linecap="round" stroke-linejoin="round" stroke-width=".5"/><path d="m176.68 203.354s52.767 12.663 68.79 34.458c16.023 21.796-16.023 38.101-16.023 38.101s1.037-16.954-16.126-23.92c-17.17-6.966-46.791-9.615-57.742-28.83-10.945-19.216 21.101-19.809 21.101-19.809z" fill="#f9dfba" stroke="#261611" stroke-linecap="round" stroke-linejoin="round" stroke-width=".5"/><path d="m77.4406 145.761c13.1209 4.366 47.4464 15.567 52.2764 33.107s-10.039 42.577-10.039 42.577 8.94-30.3-27.0782-41.48c-20.9078-6.491-40.4545-7.684-69.5845-31.514-13.71514-11.222-17.03165-28.01-19.37393-35.363-2.832854-8.89-3.468518-39.3692-3.468518-39.3692s2.148818 22.7058 15.325048 35.2032c13.1762 12.498 28.9918 25.872 61.9427 36.839z" fill="#fff" stroke="#261611" stroke-linecap="round" stroke-linejoin="round" stroke-width=".5"/><path d="m15.498 39.2043s15.1523-5.9179 31.189 19.7331 21.8337 50.1986 39.1832 56.6686c16.5338 6.166 24.7288 1.869 30.2218-8.657-7.904-2.414-20.8665-6.359-24.1622-19.9534-3.2958-13.5946-8.699-39.0318-26.4216-47.3637s-39.9086-7.6767-50.0102-.4414z" fill="#fff" stroke="#261611" stroke-linecap="round" stroke-linejoin="round" stroke-width=".5"/><path d="m244.627 136.636s-7.724 12.194-18.924 8.159c-11.201-4.035-18.891-20.519-15.374-38.721 3.517-18.2021-5.313-31.3621-23.499-42.9772-23.208-14.8153-52.933-14.6912-52.933-14.6912s42.97-11.5667 59.083-11.5667c13.618 3.6486 34.049 8.4974 45.249 20.7746s6.405 79.0155 6.405 79.0155z" fill="#fff" stroke="#261611" stroke-linecap="round" stroke-linejoin="round" stroke-width=".5"/><path d="m261.064 6.31102c-23.989 4.71088-23.719 30.47908-23.719 37.27298 0 6.7938 3.074 42.5355 2.853 51.3089-.221 8.7731 1.893 30.4861.062 37.6801-1.589 6.235-3.537 11.47-3.537 11.47s46.085-19.988 50.259-23.713c4.173-3.724 8.125-16.222 3.516-32.0103-4.615-15.7878-9.887-35.7417-2.197-48.8948s17.571-21.0505 17.571-21.0505-19.112-17.10529-44.808-12.05648z" fill="#f9dfba" stroke="#261611" stroke-linecap="round" stroke-linejoin="round" stroke-width=".5"/><path d="m343.432 119.668c-8.789 1.662-22.995-11.298-30.022-19.63-7.026-8.3315-18.841-31.1132-10.17-35.8448 5.32-2.9037 24.818-9.4286 24.818-9.4286s21.088 7.2353 24.384 11.622c3.295 4.3866 7.33 37.3284 3.364 42.7704-4.85 6.656-12.374 10.511-12.374 10.511z" fill="#f9dfba" stroke="#261611" stroke-linecap="round" stroke-linejoin="round" stroke-width=".5"/><path d="m294.002 30.9559s-2.122-8.0767-11.926-16.119c-7.773-6.37995-17.073-9.11128-17.073-9.11128s9.666-2.15195 21.93-.34486c12.265 1.80709 18.939 12.98754 18.939 12.98754z" fill="#aa8d6a" opacity=".33"/><path d="m350.624 91.2305-20.3 8.2906s-2.812-14.5395-13.653-19.8918c-10.833-5.3592-15.746-3.6073-15.746-3.6073s-2.301-6.8628 0-9.3389c2.301-2.483 12.54-6.7524 12.54-6.7524s19.229 4.9315 22.788 7.7249c3.558 2.7934 10.467 9.9252 10.467 9.9252l3.897 13.6566z" fill="#aa8d6a" opacity=".33"/><path d="m303.239 64.2s10.62-1.9313 24.363 12.6841c5.341 5.6765 6.391 11.6564 6.391 11.6564l20.866-11.4288-21.087-29.5756z" fill="#fff" stroke="#261611" stroke-linecap="round" stroke-linejoin="round" stroke-width=".5"/><path d="m265.003 5.72517s39.77-5.552318 47.018-5.552318 43.253 10.159748 63.919 37.714348c16.527 22.0368 20.645 45.8256 19.547 54.1575-10.765 6.58-52.056 27.6233-52.056 27.6233s15.595-9.649 3.296-42.1007c-11.359-29.9618-32.515-55.8818-52.94-64.5586-20.424-8.67678-28.784-7.29043-28.784-7.29043z" fill="#fff" stroke="#261611" stroke-linecap="round" stroke-linejoin="round" stroke-width=".5"/><path d="m340.005 218.609-17.481 33.383s-12.665-30.348-51.931-45.011c-39.266-14.671-94.997-6.829-106.653 1.262-11.656 8.09-8.361 14.919-8.361 14.919s-19.761-26.555-2.28-42.736 78.608-20.292 106.764-14.153c30.146 6.573 58.668 16.429 79.949 52.343z" fill="#fff" stroke="#261611" stroke-linecap="round" stroke-linejoin="round" stroke-width=".5"/><path d="m241.007 121.331s-9.521 7.649-16.417 8.863c-6.895 1.214-12.333 0-12.333 0s4.671 12.615 16.168 14.691 11.462-10.249 11.836-12.311c.373-2.07.746-11.243.746-11.243z" fill="#aa8d6a" opacity=".33"/><path d="m177.268 57.8614s-15.505-6.4558-26.518-7.8146c-11.014-1.3588-13.902-2.8003-16.859-1.6347 6.398 1.1036 18.178 5.4972 22.061 8.0837 3.883 2.5864 7.842 5.6419 7.842 5.6419s8.921-4.6625 13.474-4.2763z" fill="#aa8d6a" opacity=".33"/><path d="m116.098 106.956s-4.36 9.277-11.925 10.877c-7.5661 1.6-18.5382-1.172-22.7875-4.442-4.2562-3.269 17.7502-.662 26.1525-3.524 4.401-1.497 4.974-4.035 4.974-4.035l3.586 1.131z" fill="#aa8d6a" opacity=".33"/><path d="m47.1151 60.0207s-7.8767-15.1533-17.391-18.6296c-9.5142-3.4693-13.342-2.6071-16.9487-.4207 10.0532 2.7382 20.9562 8.7802 24.404 14.0912 3.4478 5.3109 4.9264 8.4698 4.9264 8.4698l5.0024-3.5107z" fill="#aa8d6a" opacity=".33"/><path d="m.172852 78.6504s7.503598 39.3766 15.325048 51.5436c7.8214 12.167 16.7345 25.306 16.7345 25.306s-17.2942-11.077-23.58172-27.134c-6.28755-16.057-7.01995-26.596-7.41378-32.4172-.393837-5.8213-1.064048-17.2915-1.064048-17.2915z" fill="#aa8d6a" opacity=".33"/><path d="m196.565 209.306s-14.786-1.421-23.485 2.166c-10.806 4.455-15.463 5.773-17.508 11.691-1.962-8.801 7.075-14.712 11.304-16.547 4.228-1.835 9.797-3.262 9.797-3.262z" fill="#aa8d6a" opacity=".33"/><path d="m315.448 255.876s-17.052-19.636-26.946-23.692c-9.901-4.055-13.211-3.462-13.211-3.462l14.068-12.526s14.786 9.67 21.294 18.057c6.509 8.387 11.878 17.733 11.878 17.733s-2.046 4.111-7.076 3.89z" fill="#aa8d6a" opacity=".33"/><path d="m296.682 257.248s-5.707-3.559-10.481-6.904c-4.775-3.338-13.301-10.325-18.227-10.711.898-3.104 2.867-6.863 2.867-6.863s6.709-1.138 14.6 4.587c7.897 5.731 16.893 12.325 16.893 12.325l-5.652 7.559z" fill="#aa8d6a" opacity=".33"/><path d="m294.941 263.318-4.221 5.573s7.752.532 11.96 4.939c4.208 4.414 5.154 5.849 5.154 5.849s6.682.31 8.678-1.98c.45-3.166-3.019-8.911-7.855-10.587-4.837-1.676-13.716-3.8-13.716-3.8z" fill="#aa8d6a" opacity=".33"/><path d="m328.169 241.212-5.645 10.78s-3.144 4.835-7.075 3.89c-3.932-.944-8.879-3.096-13.107-6.193-1.818 1.379-4.581 4.98-4.581 4.98s3.337 1.745 11.573 3.814c10.447 2.628 11.898 10.504 13.197 12.27 6.426-4.766 13.646-17.16 13.646-17.16s.933-3.242-1.803-6.643c-1.838-2.283-6.198-5.738-6.198-5.738z" fill="#aa8d6a" opacity=".33"/><path d="m250.313 252.931s-3.89 10.166-9.307 14.65c-5.417 4.476-4.284 15.353-4.284 21.94 0 6.532-3.682 14.415-6.411 16.229 9.935-7.904 17.487-16.45 20.431-20.554 1.741-7.773.981-24.913-.429-32.265z" fill="#aa8d6a" opacity=".33"/><path d="m340.004 218.61s-12.319-17.588-16.022-21.188c.11 11.049-.857 21.747-7.552 27.286-5.424 4.483-5.777 9.545-5.777 9.545s10.544 13.526 11.878 17.733c2.411-4.607 17.48-33.383 17.48-33.383z" fill="#aa8d6a" opacity=".33"/><path d="m153.299 180.427s-8.222 8.828-7.22 16.705.622 15.643 8.415 23.872c1.237-5.111 3.711-9.036 6.267-11.319 12.486-9.353 26.774-6.787 26.221-8.449-2.473-7.449-36.834-14.774-33.683-20.809z" fill="#aa8d6a" opacity=".33"/><path d="m302.68 177.875 4.442-23.893 16.009-2.324 2.598-.524z" fill="#85e0d1" stroke="#261611" stroke-linecap="round" stroke-linejoin="round" stroke-width=".5"/><path d="m292.924 144.885 14.199 9.097-4.443 23.892z" fill="#a9f6ea" stroke="#261611" stroke-linecap="round" stroke-linejoin="round" stroke-width=".5"/><path d="m300.794 142.81-7.87 2.076 14.199 9.097 18.607-2.848-2.267-.966-6.778-3.876-10.343-3.049z" fill="#7cd1c1" stroke="#261611" stroke-linecap="round" stroke-linejoin="round" stroke-width=".5"/><path d="m315.449 115.303-7.614 35.631-14.572-9.518z" fill="#85e0d1" stroke="#261611" stroke-linecap="round" stroke-linejoin="round" stroke-width=".5"/><path d="m315.483 115.496-7.635 35.507 17.674-2.959-.532-1.434z" fill="#a9f6ea" stroke="#261611" stroke-linecap="round" stroke-linejoin="round" stroke-width=".5"/><path d="m315.449 115.303-7.614 35.631-14.572-9.518z" stroke="#261611" stroke-linecap="round" stroke-linejoin="round" stroke-width=".5"/><path d="m292.924 144.885 14.199 9.097-4.443 23.892z" stroke="#261611" stroke-linecap="round" stroke-linejoin="round" stroke-width=".5"/><path d="m325.729 151.134-23.049 26.741" stroke="#261611" stroke-linecap="round" stroke-linejoin="round" stroke-width=".5"/><path d="m307.834 150.934 17.688-2.89-10.074-32.741" stroke="#261611" stroke-linecap="round" stroke-linejoin="round" stroke-width=".5"/><path d="m292.924 144.885 4.035-1.055" stroke="#261611" stroke-linecap="round" stroke-linejoin="round" stroke-width=".5"/><path d="m320.887 148.803 4.843 2.331-18.607 2.849" stroke="#261611" stroke-linecap="round" stroke-linejoin="round" stroke-width=".5"/><path d="m355.309 217.245 8.816-26.948 18.87-.228 3.081-.207z" fill="#85e0d1" stroke="#261611" stroke-linecap="round" stroke-linejoin="round" stroke-width=".5"/><path d="m349.104 177.599 15.022 12.698-8.817 26.947z" fill="#a9f6ea" stroke="#261611" stroke-linecap="round" stroke-linejoin="round" stroke-width=".5"/><path d="m358.529 176.405-9.425 1.194 15.022 12.697 21.951-.434-2.474-1.469-7.234-5.525-11.49-5.111z" fill="#7cd1c1" stroke="#261611" stroke-linecap="round" stroke-linejoin="round" stroke-width=".5"/><path d="m379.706 146.851-14.289 40.031-15.38-13.242z" fill="#85e0d1" stroke="#261611" stroke-linecap="round" stroke-linejoin="round" stroke-width=".5"/><path d="m379.719 147.078-14.295 39.887 20.887-.71-.394-1.738z" fill="#a9f6ea" stroke="#261611" stroke-linecap="round" stroke-linejoin="round" stroke-width=".5"/><path d="m379.706 146.851-14.289 40.031-15.38-13.242z" stroke="#261611" stroke-linecap="round" stroke-linejoin="round" stroke-width=".5"/><path d="m349.104 177.599 15.022 12.698-8.817 26.947z" stroke="#261611" stroke-linecap="round" stroke-linejoin="round" stroke-width=".5"/><path d="m386.076 189.862-30.767 27.383" stroke="#261611" stroke-linecap="round" stroke-linejoin="round" stroke-width=".5"/><path d="m365.417 186.882 20.894-.627-6.605-39.404" stroke="#261611" stroke-linecap="round" stroke-linejoin="round" stroke-width=".5"/><path d="m349.104 177.599 4.83-.6" stroke="#261611" stroke-linecap="round" stroke-linejoin="round" stroke-width=".5"/><path d="m380.832 186.42 5.244 3.442-21.951.434" stroke="#261611" stroke-linecap="round" stroke-linejoin="round" stroke-width=".5"/><path d="m357.727 166.791 6.474 9.932c.422.642.477 1.455.152 2.145l-4.284 9.153-6.854 15.85-5.907-29.024 10.412-8.056z" fill="#aa8d6a" opacity=".33"/><g stroke="#261611" stroke-linecap="round" stroke-linejoin="round" stroke-width=".5"><path d="m347.308 202.649-1.652-18.14 11.083-4.918 1.769-.903z" fill="#85e0d1"/><path d="m333.564 180.826 12.092 3.683 1.651 18.14z" fill="#a9f6ea"/><path d="m338.823 177.729-5.259 3.097 12.092 3.683 12.851-5.821-1.838-.235-5.672-1.428-8.084-.103z" fill="#7cd1c1"/><path d="m343.804 154.92 1.748 27.244-12.444-3.911z" fill="#85e0d1"/><path d="m343.873 155.051 1.707 27.161 12.146-5.711-.677-.924z" fill="#a9f6ea"/><path d="m343.804 154.92 1.748 27.244-12.444-3.911z"/><path d="m333.564 180.826 12.092 3.683 1.651 18.14z"/><path d="m358.508 178.688-11.2 23.961"/><path d="m345.552 182.164 12.174-5.662-13.922-21.582"/><path d="m333.564 180.826 2.695-1.587"/><path d="m354.535 177.984 3.973.704-12.852 5.821"/><path d="m416.167 147.713 12.188-13.553 11.152 4.766 1.865.676z" fill="#85e0d1"/><path d="m422.841 122.807 5.514 11.353-12.188 13.553z" fill="#a9f6ea"/><path d="m428.687 124.545-5.845-1.738 5.514 11.353 13.017 5.442-1.071-1.504-2.812-5.125-5.424-5.987z" fill="#7cd1c1"/><path d="m448.828 112.675-18.821 19.816-5.59-11.774z" fill="#85e0d1"/><path d="m448.773 112.812-18.78 19.734 12.458 5 .221-1.131z" fill="#a9f6ea"/><path d="m448.828 112.675-18.821 19.816-5.59-11.774z"/><path d="m422.841 122.807 5.514 11.353-12.188 13.553z"/><path d="m441.372 139.602-25.205 8.111"/><path d="m430.007 132.491 12.444 5.055 6.377-24.871"/><path d="m422.842 122.807 2.992.896"/><path d="m439.189 136.222 2.184 3.38-13.018-5.442"/><path d="m427.09 206.167-8.678-16.023 8.243-8.883 1.264-1.525z" fill="#85e0d1"/><path d="m405.845 191.51 12.568-1.365 8.678 16.022z" fill="#a9f6ea"/><path d="m409.451 186.599-3.606 4.911 12.568-1.366 9.507-10.408-1.775.504-5.777.924-7.476 3.083z" fill="#7cd1c1"/><path d="m405.029 163.673 12.368 24.354-12.99 1.297z" fill="#85e0d1"/><path d="m405.146 163.77 12.285 24.292 8.913-10.029-.988-.586z" fill="#a9f6ea"/><path d="m405.029 163.673 12.368 24.354-12.99 1.297z"/><path d="m405.845 191.51 12.568-1.365 8.678 16.022z"/><path d="m427.92 179.736-.829 26.431"/><path d="m417.397 188.027 8.948-9.994-21.316-14.36"/><path d="m405.845 191.511 1.851-2.518"/><path d="m423.995 180.654 3.924-.918-9.507 10.408"/><path d="m348.164 261.566 11.905-13.801 11.248 4.524 1.88.642z" fill="#85e0d1"/><path d="m354.313 236.528 5.756 11.236-11.905 13.801z" fill="#a9f6ea"/><path d="m360.193 238.142-5.88-1.614 5.756 11.236 13.128 5.166-1.106-1.483-2.915-5.062-5.549-5.87z" fill="#7cd1c1"/><path d="m380.079 225.852-18.393 20.209-5.838-11.657z" fill="#85e0d1"/><path d="m380.03 225.989-18.358 20.12 12.554 4.738.201-1.124z" fill="#a9f6ea"/><path d="m380.079 225.852-18.393 20.209-5.838-11.657z"/><path d="m354.313 236.528 5.756 11.236-11.905 13.801z"/><path d="m373.197 252.931-25.033 8.635"/><path d="m361.686 246.061 12.54 4.786 5.852-24.995"/><path d="m354.313 236.528 3.013.835"/><path d="m370.938 249.592 2.259 3.339-13.128-5.166"/><path d="m43.502 212.423 16.8796 7.511-1.1193 12.208-.076 2.007z" fill="#85e0d1"/><path d="m69.6264 211.085-9.2448 8.849-16.8796-7.511z" fill="#a9f6ea"/><path d="m69.7648 217.251-.1382-6.166-9.2448 8.849-1.1953 14.215 1.1124-1.503 4.0697-4.304 4.0903-7.077z" fill="#7cd1c1"/><path d="m87.501 232.922-24.9912-11.919 9.6178-9.049z" fill="#85e0d1"/><path d="m87.3489 232.915-24.8945-11.919-.9466 13.546 1.1539-.138z" fill="#a9f6ea"/><path d="m87.501 232.922-24.9912-11.919 9.6178-9.049z"/><path d="m69.6264 211.085-9.2448 8.849-16.8796-7.511z"/><path d="m59.1863 234.149-15.6843-21.726"/><path d="m62.5097 221.003-1.0019 13.539 25.9931-1.621"/><path d="m69.626 211.085.0622 3.159"/><path d="m61.7706 230.991-2.5841 3.159 1.1953-14.215"/></g><path d="m60.4784 211.472 2.8881 5.607 2.1558 5.359 3.3925 11.477-6.253.49-4.9333-.255-4.885-8.787-.8982-13.409z" fill="#aa8d6a" opacity=".33"/><path d="m4.98828 168.798 20.59692 29.893-14.4337 19.34-2.18341 3.29z" fill="#85e0d1" stroke="#261611" stroke-linecap="round" stroke-linejoin="round" stroke-width=".5"/><path d="m50.1895 193.318-24.6043 5.373-20.59692-29.893z" fill="#a9f6ea" stroke="#261611" stroke-linecap="round" stroke-linejoin="round" stroke-width=".5"/><path d="m44.0882 203.808 6.101-10.491-24.6043 5.373-16.61713 22.63 3.41323-1.379 11.2485-3.049 14.1435-7.69z" fill="#7cd1c1" stroke="#261611" stroke-linecap="round" stroke-linejoin="round" stroke-width=".5"/><path d="m57.7275 248.282-29.6689-45.618 25.4473-5.318z" fill="#85e0d1" stroke="#261611" stroke-linecap="round" stroke-linejoin="round" stroke-width=".5"/><path d="m57.4786 248.117-29.51-45.515-15.5116 21.754 2.0798.951z" fill="#a9f6ea" stroke="#261611" stroke-linecap="round" stroke-linejoin="round" stroke-width=".5"/><path d="m57.7275 248.282-29.6689-45.618 25.4473-5.318z" stroke="#261611" stroke-linecap="round" stroke-linejoin="round" stroke-width=".5"/><path d="m50.1895 193.318-24.6043 5.373-20.59692-29.893z" stroke="#261611" stroke-linecap="round" stroke-linejoin="round" stroke-width=".5"/><path d="m8.96809 221.321-3.97981-52.523" stroke="#261611" stroke-linecap="round" stroke-linejoin="round" stroke-width=".5"/><path d="m28.0584 202.663-15.6014 21.692 45.2704 23.927" stroke="#261611" stroke-linecap="round" stroke-linejoin="round" stroke-width=".5"/><path d="m50.1896 193.317-3.1369 5.373" stroke="#261611" stroke-linecap="round" stroke-linejoin="round" stroke-width=".5"/><path d="m16.5474 218.665-7.57963 2.655 16.61713-22.63" stroke="#261611" stroke-linecap="round" stroke-linejoin="round" stroke-width=".5"/><path d="m214.144 51.2675s3.91 11.2426 2.3 12.3944c-1.609 1.1519-28.052-8.4905-31.727-10.7873-3.676-2.2968-5.286-6.2007-5.058-9.4148.228-3.2142 19.851.4138 25.219 1.9105 5.369 1.4967 7.663.6622 9.273 5.8972z" fill="#aa8d6a" opacity=".33"/><path d="m212.257 57.8617-13.142-15.3258 6.847-11.5323 1.016-1.945z" fill="#85e0d1" stroke="#261611" stroke-linecap="round" stroke-linejoin="round" stroke-width=".5"/><path d="m185.828 46.9435 13.287-4.4074 13.142 15.3258z" fill="#a9f6ea" stroke="#261611" stroke-linecap="round" stroke-linejoin="round" stroke-width=".5"/><path d="m188.585 40.7909-2.757 6.1524 13.287-4.4074 7.863-13.4773-1.81.9587-6.039 2.3451-7.366 5.0764z" fill="#7cd1c1" stroke="#261611" stroke-linecap="round" stroke-linejoin="round" stroke-width=".5"/><path d="m178.442 17.002 19.077 23.4852-13.756 4.4281z" fill="#85e0d1" stroke="#261611" stroke-linecap="round" stroke-linejoin="round" stroke-width=".5"/><path d="m178.588 17.0781 18.98 23.437 7.303-12.9324-1.209-.4001z" fill="#a9f6ea" stroke="#261611" stroke-linecap="round" stroke-linejoin="round" stroke-width=".5"/><path d="m178.442 17.002 19.077 23.4852-13.756 4.4281z" stroke="#261611" stroke-linecap="round" stroke-linejoin="round" stroke-width=".5"/><path d="m185.828 46.9435 13.287-4.4074 13.142 15.3258z" stroke="#261611" stroke-linecap="round" stroke-linejoin="round" stroke-width=".5"/><path d="m206.979 29.0586 5.278 28.8031" stroke="#261611" stroke-linecap="round" stroke-linejoin="round" stroke-width=".5"/><path d="m197.519 40.4872 7.352-12.9048-26.429-10.5804" stroke="#261611" stroke-linecap="round" stroke-linejoin="round" stroke-width=".5"/><path d="m185.828 46.9431 1.417-3.1521" stroke="#261611" stroke-linecap="round" stroke-linejoin="round" stroke-width=".5"/><path d="m202.943 30.9691 4.035-1.9105-7.863 13.4773" stroke="#261611" stroke-linecap="round" stroke-linejoin="round" stroke-width=".5"/><path d="m72.251 62.1318s8.5054 8.5733 5.9213 9.1803c-2.5841.6069-12.1467-3.4832-14.7308-5.7593s-4.2354-7.6973-4.2354-7.6973z" fill="#aa8d6a" opacity=".33"/><g mask="url(#b)" stroke="#261611" stroke-linecap="round" stroke-linejoin="round" stroke-width=".5"><path d="m58.4258 67.1246 8.464-11.8082 9.2517 2.7865 1.5408.3725z" fill="#85e0d1"/><path d="m61.5074 46.8057 5.3824 8.5112-8.464 11.8082z" fill="#a9f6ea"/><path d="m66.296 47.6678-4.7882-.8621 5.3824 8.5112 10.7925 3.159-.988-1.0967-2.6809-3.8073-4.8227-4.2625z" fill="#7cd1c1"/><path d="m81.1989 36.4873-13.1485 17.3605-5.4723-8.8354z" fill="#85e0d1"/><path d="m81.1719 36.6045-13.1348 17.2846 10.3088 2.8624.076-.9105z" fill="#a9f6ea"/><path d="m81.1989 36.4873-13.1485 17.3605-5.4723-8.8354z"/><path d="m61.5074 46.8057 5.3824 8.5112-8.464 11.8082z"/><path d="m77.6823 58.4756-19.2565 8.6492"/><path d="m68.0508 53.8478 10.295 2.9037 2.8536-20.2642"/><path d="m61.5078 46.8057 2.4528.4483"/><path d="m75.6439 55.9923 2.0382 2.4831-10.7925-3.159"/></g><path d="m129.012 176.84s-6.44 10.187-10.737 10.601c-2.177-.235-3.089-4.649-5.852-8.946-2.764-4.297-5.127-11.484-5.127-11.484s-6.378 7.449-7.8493 7.187c-1.4717-.262-3.7104-20.416-3.7104-20.416s15.4637 5.421 22.0207 10.712c6.557 5.283 10.122 8.476 11.255 12.339z" fill="#aa8d6a" opacity=".33"/><path d="m119.118 178.503.187-18.451 11.67-3.828 1.872-.731z" fill="#85e0d1" stroke="#261611" stroke-linecap="round" stroke-linejoin="round" stroke-width=".5"/><path d="m107.496 155.113 11.808 4.939-.186 18.45z" fill="#a9f6ea" stroke="#261611" stroke-linecap="round" stroke-linejoin="round" stroke-width=".5"/><path d="m113.107 152.527-5.611 2.586 11.808 4.939 13.543-4.559-1.824-.421-5.576-2.014-8.133-.931z" fill="#7cd1c1" stroke="#261611" stroke-linecap="round" stroke-linejoin="round" stroke-width=".5"/><path d="m120.458 130.049-1.015 27.637-12.147-5.214z" fill="#85e0d1" stroke="#261611" stroke-linecap="round" stroke-linejoin="round" stroke-width=".5"/><path d="m120.513 130.193-1.05 27.541 12.817-4.517-.587-1.008z" fill="#a9f6ea" stroke="#261611" stroke-linecap="round" stroke-linejoin="round" stroke-width=".5"/><path d="m120.458 130.049-1.015 27.637-12.147-5.214z" stroke="#261611" stroke-linecap="round" stroke-linejoin="round" stroke-width=".5"/><path d="m107.496 155.113 11.808 4.939-.186 18.45z" stroke="#261611" stroke-linecap="round" stroke-linejoin="round" stroke-width=".5"/><path d="m132.847 155.493-13.729 23.01" stroke="#261611" stroke-linecap="round" stroke-linejoin="round" stroke-width=".5"/><path d="m119.442 157.686 12.838-4.469-11.822-23.168" stroke="#261611" stroke-linecap="round" stroke-linejoin="round" stroke-width=".5"/><path d="m107.496 155.113 2.881-1.324" stroke="#261611" stroke-linecap="round" stroke-linejoin="round" stroke-width=".5"/><path d="m128.916 154.383 3.931 1.11-13.542 4.559" stroke="#261611" stroke-linecap="round" stroke-linejoin="round" stroke-width=".5"/><path d="m98.8662 166.501.1451-14.519 9.1827-3.014 1.472-.579z" fill="#85e0d1" stroke="#261611" stroke-linecap="round" stroke-linejoin="round" stroke-width=".5"/><path d="m89.7188 148.086 9.2931 3.897-.1451 14.519z" fill="#a9f6ea" stroke="#261611" stroke-linecap="round" stroke-linejoin="round" stroke-width=".5"/><path d="m94.1339 146.051-4.4151 2.034 9.2931 3.897 10.6541-3.593-1.43-.331-4.388-1.587-6.4046-.731z" fill="#7cd1c1" stroke="#261611" stroke-linecap="round" stroke-linejoin="round" stroke-width=".5"/><path d="m99.9168 128.359-.8015 21.754-9.5557-4.103z" fill="#85e0d1" stroke="#261611" stroke-linecap="round" stroke-linejoin="round" stroke-width=".5"/><path d="m99.958 128.47-.8223 21.685 10.0873-3.559-.462-.793z" fill="#a9f6ea" stroke="#261611" stroke-linecap="round" stroke-linejoin="round" stroke-width=".5"/><path d="m99.9168 128.359-.8015 21.754-9.5557-4.103z" stroke="#261611" stroke-linecap="round" stroke-linejoin="round" stroke-width=".5"/><path d="m89.7188 148.086 9.2931 3.897-.1451 14.519z" stroke="#261611" stroke-linecap="round" stroke-linejoin="round" stroke-width=".5"/><path d="m109.666 148.389-10.7998 18.112" stroke="#261611" stroke-linecap="round" stroke-linejoin="round" stroke-width=".5"/><path d="m99.1152 150.113 10.1088-3.517-9.3073-18.237" stroke="#261611" stroke-linecap="round" stroke-linejoin="round" stroke-width=".5"/><path d="m89.7188 148.085 2.2662-1.034" stroke="#261611" stroke-linecap="round" stroke-linejoin="round" stroke-width=".5"/><path d="m106.578 147.521 3.088.869-10.6543 3.593" stroke="#261611" stroke-linecap="round" stroke-linejoin="round" stroke-width=".5"/><path d="m106.032 216.279-12.4373-26.313 13.9223-13.436 2.149-2.324z" fill="#85e0d1" stroke="#261611" stroke-linecap="round" stroke-linejoin="round" stroke-width=".5"/><path d="m73.4268 191.056 20.1685-1.09 12.4367 26.313z" fill="#a9f6ea" stroke="#261611" stroke-linecap="round" stroke-linejoin="round" stroke-width=".5"/><path d="m79.6107 183.538-6.1839 7.518 20.1685-1.09 16.0717-15.76-2.882.648-9.2928.966-12.1882 4.263z" fill="#7cd1c1" stroke="#261611" stroke-linecap="round" stroke-linejoin="round" stroke-width=".5"/><path d="m74.5667 146.589 17.5844 39.921-20.8249.931z" fill="#85e0d1" stroke="#261611" stroke-linecap="round" stroke-linejoin="round" stroke-width=".5"/><path d="m74.7393 146.755 17.4738 39.811 15.0829-15.215-1.52-1.021z" fill="#a9f6ea" stroke="#261611" stroke-linecap="round" stroke-linejoin="round" stroke-width=".5"/><path d="m74.5667 146.589 17.5844 39.921-20.8249.931z" stroke="#261611" stroke-linecap="round" stroke-linejoin="round" stroke-width=".5"/><path d="m73.4268 191.056 20.1685-1.09 12.4367 26.313z" stroke="#261611" stroke-linecap="round" stroke-linejoin="round" stroke-width=".5"/><path d="m109.667 174.206-3.635 42.074" stroke="#261611" stroke-linecap="round" stroke-linejoin="round" stroke-width=".5"/><path d="m92.1508 186.51 15.1452-15.16-32.7296-24.761" stroke="#261611" stroke-linecap="round" stroke-linejoin="round" stroke-width=".5"/><path d="m73.4268 191.056 3.1783-3.849" stroke="#261611" stroke-linecap="round" stroke-linejoin="round" stroke-width=".5"/><path d="m103.33 175.33 6.336-1.124-16.0713 15.76" stroke="#261611" stroke-linecap="round" stroke-linejoin="round" stroke-width=".5"/><path d="m236.294 228.797s-21.571 22.009-25.06 22.389c-3.275-1.138-17.661-5.58-20.473-6.208-2.805-.628 14.344-32.562 14.344-32.562s25.62 11.525 31.189 16.374z" fill="#aa8d6a" opacity=".33"/><path d="m288.226 180.034s11.787.717 10.682 2.131c-1.106 1.414-6.633 5.863-9.397 7.691s-19.07 5.035-20.065 3.856c-.995-1.18-3.89-5.429-2.826-6.387 1.064-.966 21.613-7.291 21.613-7.291z" fill="#aa8d6a" opacity=".33"/><g mask="url(#c)" stroke="#261611" stroke-linecap="round" stroke-linejoin="round" stroke-width=".5"><path d="m280.135 206.381-5.251-22.396 13.003-8.09 2.045-1.435z" fill="#85e0d1"/><path d="m259.116 181.488 15.767 2.497 5.252 22.396z" fill="#a9f6ea"/><path d="m265.148 176.702-6.032 4.786 15.767 2.497 15.049-9.525-2.335.021-7.345-.793-10.129 1.282z" fill="#7cd1c1"/><path d="m267.38 147.299 6.965 33.769-16.258-2.718z" fill="#85e0d1"/><path d="m267.483 147.45 6.903 33.68 14.192-9.27-1.009-1.042z" fill="#a9f6ea"/><path d="m267.38 147.299 6.965 33.769-16.258-2.718z"/><path d="m259.116 181.488 15.767 2.497 5.252 22.396z"/><path d="m289.932 174.46-9.797 31.921"/><path d="m274.345 181.068 14.233-9.208-21.198-24.561"/><path d="m259.116 181.489 3.096-2.449"/><path d="m284.847 174.274 5.085.187-15.048 9.525"/></g><path d="m216.831 178.502 4.318-7.773c.367-.869 1.597-.855 1.949.014l11.317 28.196-15.566-1.062-2.018-19.382z" fill="#aa8d6a" opacity=".33"/><path d="m138.423 218.258 19.194-36.797 27.306 4.187 4.505.434z" fill="#85e0d1" stroke="#261611" stroke-linecap="round" stroke-linejoin="round" stroke-width=".5"/><path d="m138.989 159.535 18.628 21.927-19.194 36.797z" fill="#a9f6ea" stroke="#261611" stroke-linecap="round" stroke-linejoin="round" stroke-width=".5"/><path d="m152.877 160.059-13.888-.524 18.628 21.927 31.811 4.621-3.227-2.704-9.113-9.704-15.374-10.139z" fill="#7cd1c1" stroke="#261611" stroke-linecap="round" stroke-linejoin="round" stroke-width=".5"/><path d="m190.554 122.462-30.242 54.378-19.029-22.802z" fill="#85e0d1" stroke="#261611" stroke-linecap="round" stroke-linejoin="round" stroke-width=".5"/><path d="m190.52 122.8-30.222 54.164 30.332 3.973-.159-2.607z" fill="#a9f6ea" stroke="#261611" stroke-linecap="round" stroke-linejoin="round" stroke-width=".5"/><path d="m190.554 122.462-30.242 54.378-19.029-22.802z" stroke="#261611" stroke-linecap="round" stroke-linejoin="round" stroke-width=".5"/><path d="m138.989 159.535 18.628 21.927-19.194 36.797z" stroke="#261611" stroke-linecap="round" stroke-linejoin="round" stroke-width=".5"/><path d="m189.428 186.082-51.005 32.176" stroke="#261611" stroke-linecap="round" stroke-linejoin="round" stroke-width=".5"/><path d="m160.312 176.84 30.318 4.097-.076-58.475" stroke="#261611" stroke-linecap="round" stroke-linejoin="round" stroke-width=".5"/><path d="m138.989 159.535 7.117.283" stroke="#261611" stroke-linecap="round" stroke-linejoin="round" stroke-width=".5"/><path d="m182.678 179.861 6.75 6.222-31.811-4.621" stroke="#261611" stroke-linecap="round" stroke-linejoin="round" stroke-width=".5"/><path d="m189.767 172.812-9.867 6.429-1.223 5.449-13.259 16.539 24.01-15.146z" fill="#aa8d6a" opacity=".33"/><path d="m187.763 261.104 7.586-40.79 27.334-3.966 4.436-.897z" fill="#85e0d1" stroke="#261611" stroke-linecap="round" stroke-linejoin="round" stroke-width=".5"/><path d="m171.104 204.781 24.246 15.533-7.587 40.79z" fill="#a9f6ea" stroke="#261611" stroke-linecap="round" stroke-linejoin="round" stroke-width=".5"/><path d="m184.543 201.229-13.439 3.553 24.246 15.532 31.769-4.862-3.876-1.649-11.56-6.621-17.667-5.208z" fill="#7cd1c1" stroke="#261611" stroke-linecap="round" stroke-linejoin="round" stroke-width=".5"/><path d="m209.562 154.272-12.997 60.835-24.874-16.25z" fill="#85e0d1" stroke="#261611" stroke-linecap="round" stroke-linejoin="round" stroke-width=".5"/><path d="m209.631 154.61-13.038 60.621 30.166-5.049-.912-2.449z" fill="#a9f6ea" stroke="#261611" stroke-linecap="round" stroke-linejoin="round" stroke-width=".5"/><path d="m209.562 154.272-12.997 60.835-24.874-16.25z" stroke="#261611" stroke-linecap="round" stroke-linejoin="round" stroke-width=".5"/><path d="m171.104 204.781 24.246 15.533-7.587 40.79z" stroke="#261611" stroke-linecap="round" stroke-linejoin="round" stroke-width=".5"/><path d="m227.119 215.451-39.356 45.653" stroke="#261611" stroke-linecap="round" stroke-linejoin="round" stroke-width=".5"/><path d="m196.565 215.107 30.194-4.925-17.197-55.91" stroke="#261611" stroke-linecap="round" stroke-linejoin="round" stroke-width=".5"/><path d="m171.104 204.782 6.896-1.807" stroke="#261611" stroke-linecap="round" stroke-linejoin="round" stroke-width=".5"/><path d="m218.842 211.472 8.277 3.979-31.769 4.863" stroke="#261611" stroke-linecap="round" stroke-linejoin="round" stroke-width=".5"/></g></svg>