<svg fill="none" height="89" viewBox="0 0 89 89" width="89" xmlns="http://www.w3.org/2000/svg" xmlns:xlink="http://www.w3.org/1999/xlink"><linearGradient id="a" gradientUnits="userSpaceOnUse" x1="33.1089" x2="76.7106" y1="76.9569" y2="33.3592"><stop offset="0" stop-color="#b090f5"/><stop offset="1" stop-color="#5fbfff"/></linearGradient><linearGradient id="b" gradientUnits="userSpaceOnUse" x1="11.2856" x2="54.9277" y1="54.6368" y2="10.9988"><stop offset="0" stop-color="#68d7fa"/><stop offset="1" stop-color="#4ee498"/></linearGradient><clipPath id="c"><path d="m0 0h88.45v88.45h-88.45z"/></clipPath><clipPath id="d"><path d="m13 13h62v62h-62z"/></clipPath><g clip-path="url(#c)"><path d="m44.225 88.45c24.4248 0 44.225-19.8002 44.225-44.225s-19.8002-44.225-44.225-44.225-44.225 19.8002-44.225 44.225 19.8002 44.225 44.225 44.225z" fill="#fff"/><g clip-path="url(#d)"><path d="m70.926 28.6114-1.3715-2.3396c-.363-.6454-1.2101-.8874-1.8555-.5244-.121.0807-.2017.121-.2824.242l-3.0657 3.0657c-.4437.4841-.5244 1.2102-.1614 1.7346 1.1295 1.6942 2.017 3.5498 2.6624 5.486 4.2355 12.6259-2.5413 26.3006-15.1269 30.5361-2.4606.8471-5.0826 1.2505-7.7046 1.2505-3.9532 0-7.8257-.9681-11.2948-2.7833l5.2037-5.2037c8.8744 3.3481 18.838-1.1295 22.1861-10.0039 1.6538-4.4372 1.4521-9.3181-.6051-13.594-.3227-.6858-1.1698-.9681-1.8556-.6454-.121.0807-.2823.1613-.363.2823l-3.1061 3.1061c-.3227.3227-.484.8068-.363 1.2908l.2824 1.1295c1.2908 5.5667-2.138 11.093-7.7047 12.4242-2.5413.6051-5.2036.2017-7.4626-1.0891l-1.3715-.7665c-.5244-.3227-1.2101-.2017-1.6538.2017l-12.7066 12.7066c-.5244.5244-.5244 1.4118 0 1.9362.0403.0404.0807.0807.121.1211l1.8556 1.4521c5.4053 4.1549 12.0208 6.4138 18.838 6.3735 17.1034-.0404 30.9798-13.9167 30.9798-31.0202-.0403-5.4457-1.4522-10.73-4.0742-15.3689z" fill="url(#a)"/><path d="m62.8178 19.373c-5.4053-4.1548-12.0208-6.4138-18.838-6.3734-17.1034 0-30.9798 13.9167-30.9798 31.0201 0 5.365 1.4118 10.6493 4.0742 15.3286l1.3311 2.3396c.3631.6454 1.2102.8875 1.8959.5244.1211-.0403.2017-.121.2824-.2017l3.0657-3.0657c.4437-.4841.5244-1.2101.1614-1.7345-1.1295-1.6943-2.0169-3.5498-2.6624-5.4861-4.2355-12.6258 2.5414-26.3005 15.1269-30.5361 2.4606-.8471 5.0826-1.2505 7.7046-1.2505 3.9532 0 7.8257.9682 11.2948 2.8237l-5.1633 5.123c-8.8745-3.3481-18.838 1.0891-22.1861 10.0039-.7261 1.9362-1.1295 4.0338-1.1295 6.0911 0 .2824.0807 1.5732.121 1.8152.2017 1.9766.7664 3.9128 1.6136 5.6877.3227.6858 1.1698.9681 1.8555.6454.121-.0806.2824-.1613.3631-.2823l3.106-3.1061c.3227-.3227.4841-.8068.3631-1.2908l-.2824-1.1295c-1.2908-5.5667 2.1379-11.093 7.6643-12.4242 2.5413-.6051 5.2036-.2017 7.5029 1.0891l1.3715.7665c.5244.3227 1.2101.2017 1.6539-.2017l12.7065-12.7066c.5244-.5244.5244-1.4118 0-1.9362-.0403-.0404-.0806-.0807-.121-.121z" fill="url(#b)"/></g></g></svg>