<svg width="492" height="307" viewBox="0 0 492 307" fill="none" xmlns="http://www.w3.org/2000/svg">
<g clip-path="url(#clip0_5597_3663)">
<path d="M206.76 139.155C211.863 141.666 224.48 155.9 228.66 179.346C232.839 202.785 228.009 221.719 241.191 243.613C254.374 265.507 266.999 268.111 284.826 264.771C277.891 270.142 247.661 292.845 211.841 287.158C197.929 284.44 188.124 277.86 183.93 274.563C184.381 270.149 162.839 216.333 162.839 216.333C162.839 216.333 165.587 205.911 163.032 195.948C160.477 185.991 158.373 182.2 158.373 182.2C158.373 182.2 173.631 149.992 184.982 143.046C196.333 136.101 199.625 135.643 206.76 139.155Z" fill="#F9DFBA"/>
<path d="M137.023 304.855C137.023 304.855 162.53 310.426 167.382 303.617C172.714 296.143 187.135 273.118 192.947 246.846C197.92 224.344 194.7 217.027 187.343 215.038C180.286 212.442 171.04 221.64 165.915 237.455C160.791 253.269 158.866 263.111 159.31 264.957C159.753 266.802 161.127 270.758 161.127 270.758L138.097 270.264L137.031 304.855H137.023Z" fill="#DCBB93"/>
<path d="M395.477 119.7C404.731 127.932 406.692 158.875 407.064 165.82C407.436 172.765 405.833 193.687 415.631 210.009C421.005 218.972 422.408 218.929 428.842 218.764C408.066 224.179 375.774 231.904 375.774 231.904C375.774 231.904 370.722 231.153 362.026 216.847C352.393 201.004 359.557 174.21 354.032 157.852C350.239 146.637 345.344 142.445 341.508 141.458C346.675 135.343 350.354 112.654 364.681 110.609C379.009 108.563 390.067 114.879 395.484 119.7H395.477Z" fill="#F9DFBA"/>
<path d="M353.918 95.3024C373.528 100.259 390.418 113.256 393.767 118.541C385.315 114.443 382.445 112.383 368.16 118.541C353.875 124.7 332.913 147.617 312.938 182.207C299.512 208.937 299.133 244.235 294.624 253.648C290.123 263.061 285.077 268.154 266.312 264.628C247.547 261.094 234.171 240.952 230.807 208.501C229.612 180.226 227.916 169.433 223.715 162.416C219.514 155.399 304.687 101.096 316.323 97.2121C327.96 93.3282 336.527 90.9106 353.918 95.3095V95.3024Z" fill="white"/>
<path d="M182.111 214.551L147.072 213.507C147.072 213.507 140.709 230.931 138.82 252.267C137.904 267.116 138.09 270.263 138.09 270.263L161.12 270.757C161.12 270.757 156.003 268.432 165.15 239.965C172.042 218.249 182.111 214.558 182.111 214.558V214.551Z" fill="white"/>
<path d="M153.821 305.977C142.993 303.016 132.752 286.651 140.732 238.149C159.225 153.518 193.091 137.582 193.091 137.582C193.091 137.582 116.256 151.115 99.3297 158.096C82.4684 163.904 81.2374 166.257 76.3923 169.769C71.5471 173.274 47.9727 200.654 45.3247 246.932C43.3494 287.566 50.9785 295.699 50.9785 295.699L153.821 305.977Z" fill="white"/>
<path d="M423.768 56.506L403.951 63.8661L460.103 0.178711L491.822 39.1465L469.414 47.5795C469.414 47.5795 461.256 66.7773 460.554 100.71C459.853 134.642 458.672 168.824 456.511 178.788C454.342 188.745 452.717 203.994 431.898 217.484C427.468 219.129 423.06 220.553 417.184 212.613C411.308 204.674 411.931 201.24 411.931 201.24C411.931 201.24 416.633 195.547 416.311 178.738C415.996 161.922 412.733 135.1 414.422 110.158C416.111 85.2169 423.768 56.5132 423.768 56.5132V56.506Z" fill="white"/>
<g opacity="0.61">
<path d="M71.0605 222.098L125.638 225.531" stroke="#BFA480" stroke-width="0.5" stroke-linecap="round" stroke-linejoin="round"/>
<path d="M67.6035 240.409L122.181 243.842" stroke="#BFA480" stroke-width="0.5" stroke-linecap="round" stroke-linejoin="round"/>
<path d="M65.6641 259.435L120.242 262.868" stroke="#BFA480" stroke-width="0.5" stroke-linecap="round" stroke-linejoin="round"/>
<path d="M76.9434 203.78L131.521 207.214" stroke="#BFA480" stroke-width="0.5" stroke-linecap="round" stroke-linejoin="round"/>
<path d="M81.3594 186.942L135.937 187.922" stroke="#BFA480" stroke-width="0.5" stroke-linecap="round" stroke-linejoin="round"/>
<path d="M98.3496 170.263L144.912 168.632" stroke="#BFA480" stroke-width="0.5" stroke-linecap="round" stroke-linejoin="round"/>
<path d="M113.887 156.229L157.686 153.482" stroke="#BFA480" stroke-width="0.5" stroke-linecap="round" stroke-linejoin="round"/>
</g>
<path d="M163.948 243.384L180.344 243.52C180.344 243.52 180.344 245.945 178.755 251.445C174.74 267.496 155.331 282.545 160.019 259.134C164.706 235.723 175.413 206.297 190.8 216.669C206.194 227.033 177.152 297.616 167.376 303.61C156.14 310.505 135.593 308.624 138.269 258.469C140.946 208.307 173.996 133.476 201.206 136.988C213.129 138.526 230.334 163.381 230.234 197.342C230.148 225.552 242.164 256.96 259.913 262.775C277.662 268.59 290.809 267.639 295.124 252.017C299.583 235.874 298.617 194.438 329.463 155.757C360.308 117.082 378 108.871 393.766 118.534C409.976 128.469 405.697 180.183 409.483 193.852C413.268 207.52 420.719 228.099 436.728 214.151C452.731 200.203 456.173 191.105 458.664 159.247C461.348 124.814 458.564 101.432 463.323 72.0059C465.069 58.3371 469.435 47.5795 469.435 47.5795L491.843 39.1465L460.102 0.178711L403.943 63.8661L424.311 56.3058C424.311 56.3058 413.633 94.8444 413.834 123.777C414.013 148.804 417.62 182.236 415.945 190.998C414.142 200.418 411.923 201.248 411.923 201.248" stroke="#261611" stroke-width="0.5" stroke-linecap="round" stroke-linejoin="round"/>
<path d="M341.5 141.458C358.39 148.654 356.522 176.206 356.472 195.454C356.436 209.587 366.806 230.087 375.774 231.904C385.958 230.08 421.062 220.817 429.113 218.693" stroke="#261611" stroke-width="0.5" stroke-linecap="round" stroke-linejoin="round"/>
<path d="M325.02 93.7996C340.714 90.6238 372.812 94.7795 396.516 120.815" stroke="#261611" stroke-width="0.5" stroke-linecap="round" stroke-linejoin="round"/>
<path d="M184.983 214.551L146.852 213.5" stroke="#261611" stroke-width="0.5" stroke-linecap="round" stroke-linejoin="round"/>
<path d="M196.59 136.974C196.59 136.974 111.375 151.608 87.2133 162.459C63.052 173.309 45.8686 216.104 45.1386 251.717C44.5375 281.014 48.2733 295.427 50.9857 295.699C53.6981 295.97 155.861 306.728 155.861 306.728" stroke="#261611" stroke-width="0.5" stroke-linecap="round" stroke-linejoin="round"/>
<path d="M158.365 182.2C162.445 186.499 165.501 207.049 163.432 213.493" stroke="#261611" stroke-width="0.5" stroke-linecap="round" stroke-linejoin="round"/>
<path d="M183.924 274.562C190.601 278.682 200.341 288.417 221.411 287.509C242.481 286.6 255.871 280.914 262.283 278.332C275.803 272.896 286.523 263.955 286.523 263.955" stroke="#261611" stroke-width="0.5" stroke-linecap="round" stroke-linejoin="round"/>
<path d="M161.121 270.75C161.121 270.75 143.358 270.092 138.076 269.771" stroke="#261611" stroke-width="0.5" stroke-linecap="round" stroke-linejoin="round"/>
<path d="M81.9605 173.917C85.9827 171.135 89.9404 167.873 94.5064 165.506C97.5337 163.825 100.94 162.58 103.946 160.735C107.553 158.489 110.616 155.828 114.438 154.047C115.812 153.382 120.035 152.195 119.97 150.421C119.841 148.168 115.44 149.219 113.844 149.419C114.366 144.656 106.58 148.404 104.683 148.804C101.212 149.57 97.684 148.568 94.4133 150.929C90.7133 153.668 90.1479 158.117 86.9417 160.957C83.8786 163.618 82.9911 166.808 82.2039 170.799C81.889 172.136 81.5311 173.152 81.6957 174.432L81.9534 173.91L81.9605 173.917Z" fill="#FDE9D5" stroke="#261611" stroke-width="0.5" stroke-linecap="round" stroke-linejoin="round"/>
<path d="M92.8319 132.181C94.342 130.043 99.1657 128.455 100.411 131.859C101.878 129.406 103.789 126.566 107.017 126.48C108.319 129.07 101.012 132.761 100.583 135.729C100.347 137.703 101.628 138.833 101.055 140.693C100.325 142.567 98.5502 143.933 97.8202 145.807C96.0739 149.92 94.571 153.353 91.787 156.951C88.9816 160.391 86.72 164.239 84.2796 167.959C83.0486 169.74 81.0805 172.093 80.8443 174.067C75.2692 171.049 78.7116 159.919 80.2718 155.671C82.7623 148.546 85.1956 140.943 88.5736 134.356L92.8391 132.188L92.8319 132.181Z" fill="#DCBB93" stroke="#261611" stroke-width="0.5" stroke-linecap="round" stroke-linejoin="round"/>
<path d="M79.7484 170.57C82.0529 163.253 89.861 159.598 92.8239 152.388C94.3984 148.204 96.0086 143.061 96.0516 138.311C96.1088 136.216 95.1355 133.684 95.3788 131.76C95.5935 129.642 97.9338 127.64 96.1231 126.159C94.155 124.7 90.6554 127.804 89.1811 128.941C89.2383 123.055 81.0367 124.857 79.0184 126.824C77.4511 128.541 76.4849 131.13 74.8747 132.475C73.1069 133.841 71.2533 133.319 69.7647 135.593C66.7804 140.15 70.2872 143.497 71.1818 147.939C71.6541 150.342 70.7237 151.98 70.8526 154.24C71.0243 156.873 72.606 157.81 73.5077 159.784C74.5526 162.874 73.8942 164.097 76.3275 166.636C77.6587 168.174 78.8324 169.733 78.725 171.45L79.7484 170.563V170.57Z" fill="#FDD7AC" stroke="#261611" stroke-width="0.5" stroke-linecap="round" stroke-linejoin="round"/>
<mask id="mask0_5597_3663" style="mask-type:luminance" maskUnits="userSpaceOnUse" x="189" y="10" width="148" height="229">
<path d="M237.72 10.2708C264.737 20.1344 326.779 75.6892 330.822 80.882C334.866 86.0749 337.464 128.891 335.911 132.403C334.351 135.915 318.556 153.432 305.051 177.45C304.915 177.693 304.779 177.93 304.65 178.166C293.214 198.558 267.099 205.403 247.167 193.172C242.379 190.232 238.779 187.836 237.727 186.677C233.569 182.121 185.254 135.915 189.412 111.51C193.57 87.1049 209.73 15.9715 215.155 14.9344C220.579 13.8972 237.72 10.2637 237.72 10.2637V10.2708ZM329.67 156.657C329.67 156.657 311.206 179.138 304.464 206.741C298.195 232.404 298.295 233.849 298.295 233.849L321.383 238.148C321.383 238.148 334.659 222.927 334.93 214.022C335.202 205.117 336.362 159.082 336.362 159.082L329.67 156.657Z" fill="white"/>
</mask>
<g mask="url(#mask0_5597_3663)">
<path d="M241.478 175.147L318.263 230.251L284.132 151.386L222.283 157.909L224.903 163.259L241.478 175.147Z" fill="#85E0D1"/>
<path d="M330.824 106.903L284.133 151.386L318.263 230.251L330.824 106.903Z" fill="#A9F6EA" stroke="#261611" stroke-width="0.5" stroke-linecap="round" stroke-linejoin="round"/>
<path d="M299.749 106.846L330.824 106.903L284.133 151.385L222.284 157.909L219.973 153.038L242.581 133.411L279.217 113.412L299.749 106.846Z" fill="#7CD1C1"/>
<path d="M224.602 24.7549L279.215 141.458L327.001 95.1658L224.602 24.7549Z" fill="#85E0D1" stroke="#261611" stroke-width="0.5" stroke-linecap="round" stroke-linejoin="round"/>
<path d="M224.603 25.4697L279.216 141.715L216.373 147.373C214.419 145.377 213.589 144.068 211.635 142.08L224.603 25.4769V25.4697Z" fill="#A9F6EA"/>
<path d="M224.602 24.7549L279.215 141.458L327.001 95.1658L224.602 24.7549Z" stroke="#261611" stroke-width="0.5" stroke-linecap="round" stroke-linejoin="round"/>
<path d="M330.824 106.903L284.133 151.386L318.263 230.251L330.824 106.903Z" stroke="#261611" stroke-width="0.5" stroke-linecap="round" stroke-linejoin="round"/>
<path d="M223.715 162.401L318.263 230.252" stroke="#261611" stroke-width="0.5" stroke-linecap="round" stroke-linejoin="round"/>
<path d="M284.132 151.386L221.746 157.966" stroke="#261611" stroke-width="0.5" stroke-linecap="round" stroke-linejoin="round"/>
<path d="M215.156 147.144L279.217 141.458" stroke="#261611" stroke-width="0.5" stroke-linecap="round" stroke-linejoin="round"/>
<path d="M224.602 24.7549L210.99 142.488" stroke="#261611" stroke-width="0.5" stroke-linecap="round" stroke-linejoin="round"/>
<path d="M330.824 106.903H314.893" stroke="#261611" stroke-width="0.5" stroke-linecap="round" stroke-linejoin="round"/>
<path d="M228.653 145.942L219.213 153.202" stroke="#261611" stroke-width="0.5" stroke-linecap="round" stroke-linejoin="round"/>
<g style="mix-blend-mode:multiply" opacity="0.33">
<path d="M235.194 102.226C241.686 114.628 272.138 127.539 273.14 127.539C274.142 127.539 295.354 124.935 295.354 124.935C295.354 124.935 289.522 139.949 284.82 145.092C280.125 150.242 255.183 155.671 241.936 155.821C228.689 155.971 222.276 157.895 222.276 157.895L219.206 153.189L228.646 145.936L215.148 147.13L210.99 142.474L219.206 71.4191L224.602 25.4561C224.602 25.4561 228.703 89.8087 235.194 102.211V102.226Z" fill="#AA8D6A"/>
</g>
<g style="mix-blend-mode:multiply" opacity="0.33">
<path d="M325.018 162.064L323.158 182.206C323.158 182.206 318.727 188.401 313.539 196.419C309.875 202.077 301.215 217.548 301.215 217.548C301.215 217.548 302.059 190.79 313.539 176.427L325.018 162.064Z" fill="#AA8D6A"/>
</g>
<g style="mix-blend-mode:multiply" opacity="0.33">
<path d="M248.399 156.057C248.399 156.057 247.548 169.983 251.799 174.06C256.05 178.13 272.518 187.485 284.827 186.205L297.137 184.925L306.477 174.94C306.477 174.94 300.25 194.009 293.451 197.399C286.652 200.789 277.463 200.975 277.463 200.975L216.115 157.602L248.392 156.057H248.399Z" fill="#AA8D6A"/>
</g>
</g>
<path d="M40.8651 180.705C40.6146 179.003 36.9217 174.611 35.2757 173.445C33.2073 172.237 32.6491 172.852 30.4806 173.481C27.6179 174.375 26.6303 173.359 23.7532 172.659C16.8326 171.314 18.4715 177.687 22.3863 180.584C26.5014 184.01 29.7578 182.565 34.746 183.051C37.4155 183.23 40.586 185.219 43.2912 184.975L40.8508 180.705H40.8651Z" fill="#FDD7AC" stroke="#261611" stroke-width="0.5" stroke-linecap="round" stroke-linejoin="round"/>
<path d="M63.1442 198.58C62.7148 196.942 60.9042 194.832 60.5177 192.787C59.8736 189.031 60.575 186.156 57.7767 183.03C52.4162 176.879 39.033 175.406 31.3824 176.335C29.264 176.55 20.8691 179.139 20.8691 179.139C24.1326 183.774 30.9316 183.509 33.143 184.06C42.2035 186.793 51.5646 189.804 59.2653 195.261C60.6036 196.148 62.085 197.386 63.0083 198.23L63.1442 198.58Z" fill="#FDE9D5" stroke="#261611" stroke-width="0.5" stroke-linecap="round" stroke-linejoin="round"/>
<path d="M50.8284 152.474C50.1056 149.548 46.2552 146.823 43.5213 146.472C38.2182 145.7 35.9352 150.185 31.5695 151.851C29.4726 152.652 27.3685 151.858 25.3431 152.838C23.1388 153.883 22.1083 155.878 20.8272 157.774C16.712 163.753 25.2 162.902 29.1291 164.798C32.8148 166.586 36.3431 170.033 39.8213 172.308C43.4283 174.926 47.1427 177.308 50.6423 180.169C56.8544 185.39 61.356 193.473 70.0014 193.558C69.937 193.387 69.6937 193.28 69.4504 193.172L50.8284 152.481V152.474Z" fill="#FDD7AC" stroke="#261611" stroke-width="0.5" stroke-linecap="round" stroke-linejoin="round"/>
<path d="M62.6723 191.162C57.8844 188.595 53.9124 184.51 49.6255 181.156C45.5747 177.909 40.6079 175.405 36.2351 172.88C31.9267 170.527 26.5592 169.583 22.8162 166.614C21.4063 165.556 19.2449 163.582 18.1857 162.387C16.5468 160.213 17.3126 160.12 20.0966 160.055C25.0634 159.955 28.4987 162.638 33.1362 163.26C38.7185 163.718 39.3698 169.075 43.8929 170.942C46.0685 171.907 48.738 172.086 50.4127 173.846C51.7797 175.319 52.0588 177.615 53.4973 179.268C54.8642 180.748 57.0399 181.714 58.4712 183.366C59.7738 184.668 60.332 186.656 61.5272 188.201C63.4738 190.655 66.4081 191.534 68.3047 192.808L62.6651 191.17L62.6723 191.162Z" fill="#FDE9D5" stroke="#261611" stroke-width="0.5" stroke-linecap="round" stroke-linejoin="round"/>
<path d="M72.0834 198.601C70.5733 198.952 67.911 198.015 66.315 196.741C64.5187 195.754 63.1374 194.474 62.5792 192.071C61.7562 188.866 63.4953 188.773 63.7958 186.32C64.4901 183.037 61.1192 176.986 60.4393 172.415C59.788 168.388 59.5304 159.469 63.803 157.888C62.9513 154.14 58.6358 142.732 65.6638 143.711C67.4172 143.89 67.9682 146.022 69.3137 146.766C72.0047 148.246 70.287 148.611 72.5915 146.866C74.667 144.856 75.3469 141.301 78.911 142.739C84.6936 144.87 83.0333 154.705 82.8615 159.583C82.6182 163.117 84.4718 165.184 84.2356 168.989C83.9994 172.794 81.6377 177.522 79.8413 180.598C79.2473 181.714 79.0756 182.536 78.2311 183.123L72.0834 198.615V198.601Z" fill="#FDD7AC" stroke="#261611" stroke-width="0.5" stroke-linecap="round" stroke-linejoin="round"/>
<path d="M64.0324 180.405C64.0252 177.136 63.4956 175.141 65.8502 172.458C67.5249 170.17 70.4162 169.261 72.0909 166.972C73.8085 164.033 73.1859 160.07 75.7552 157.395C78.0954 154.927 79.9777 156.136 82.6257 155.65C85.059 155.149 86.9054 153.525 89.9614 153.504C91.7148 153.397 95.3934 153.847 95.9087 156.064C96.61 158.725 92.5378 161.078 91.1208 162.738C87.342 167.294 84.3576 172.988 81.6237 178.266C79.6342 182.064 78.2958 189.389 74.6387 191.992L64.0395 180.419L64.0324 180.405Z" fill="#FDE9D5" stroke="#261611" stroke-width="0.5" stroke-linecap="round" stroke-linejoin="round"/>
<path d="M54.2493 156.851C55.0222 154.784 55.7093 149.742 55.2655 148.468C54.8218 147.195 55.5447 147.302 54.0775 145.157C52.6104 143.004 52.2669 142.617 51.3651 141.995C50.4633 141.373 50.4705 141.058 49.9266 141.173C49.3827 141.287 49.3254 141.194 48.9676 141.502C48.6097 141.809 48.6598 142.539 48.2591 143.54C47.8583 144.542 47.4002 146.43 47.5219 148.061C47.6436 149.691 48.6097 150.442 49.2896 152.288C49.9767 154.14 50.8999 155.836 51.2649 156.787C51.6299 157.745 52.7965 158.024 53.3404 157.845C53.8843 157.667 54.2493 156.851 54.2493 156.851Z" fill="#FF664D" stroke="#261611" stroke-width="0.5" stroke-linecap="round" stroke-linejoin="round"/>
<path d="M56.0095 154.233C56.9041 151.136 57.9848 145.743 55.5944 144.062C54.5352 143.318 53.4259 144.019 52.8749 145.249C52.3238 146.48 52.3095 153.747 52.2952 155.22C52.2808 156.694 52.9178 157.366 53.5619 157.738C54.206 158.11 55.4227 156.272 56.0095 154.226V154.233Z" fill="#FF664D" stroke="#261611" stroke-width="0.5" stroke-linecap="round" stroke-linejoin="round"/>
<path d="M48.8951 143.598C50.3265 143.633 52.7311 147.789 53.3609 149.32C53.9907 150.85 54.1983 152.689 54.2412 153.64C54.2842 154.591 54.2555 155.664 54.1697 156.644C54.0838 157.624 53.2751 158.49 53.0031 158.64C52.7311 158.79 52.6381 159.169 51.357 159.012C50.076 158.854 49.117 158.01 48.344 157.238C47.5711 156.458 46.1684 154.155 45.7819 153.197C45.3954 152.238 44.8444 147.267 45.3382 146.33C45.832 145.393 48.1508 143.583 48.9023 143.605L48.8951 143.598Z" fill="#FF664D" stroke="#261611" stroke-width="0.5" stroke-linecap="round" stroke-linejoin="round"/>
<path d="M56.8751 151.201C56.7248 151.601 57.0755 154.026 56.6318 155.185C56.3169 156 55.6083 156.565 55.6083 156.565C55.6083 156.565 55.8445 158.754 55.5368 159.691C55.229 160.635 54.5706 161.615 54.4203 161.772C54.2772 161.937 53.6903 162.209 53.1393 162.144C52.5882 162.087 51.8653 161.429 51.2427 160.843C50.6129 160.256 50.3481 159.634 50.162 159.441C49.976 159.248 49.4177 159.212 48.5732 158.69C47.7287 158.175 46.5264 156.015 46.5264 156.015L46.0684 155.321C46.0684 155.321 46.2115 155.028 46.8628 155.471C47.514 155.914 48.2726 156.551 48.6162 156.737C48.9669 156.923 49.3819 157.417 49.5895 157.574C49.797 157.731 50.3123 158.253 50.3123 158.253C50.3123 158.253 50.1406 157.352 50.069 156.422C49.9974 155.492 49.2674 154.126 49.2388 153.297C49.2102 152.467 50.7847 154.212 50.7847 154.212C50.7847 154.212 51.3286 155.528 51.9799 155.879C52.9675 156.401 54.4346 156.315 54.5992 156.558C54.5992 156.558 55.3364 154.698 55.8087 153.905C56.2811 153.111 56.8894 151.187 56.8894 151.187L56.8751 151.201Z" fill="#FDE9D5" stroke="#261611" stroke-width="0.5" stroke-linecap="round" stroke-linejoin="round"/>
<path d="M55.129 160.6C54.993 160.793 54.721 161.236 54.6566 161.787C54.5349 162.917 55.0717 164.584 55.1361 165.442C55.2363 166.722 58.8505 176.736 59.5161 177.859C60.1888 178.982 66.7373 187.265 66.7373 187.265L67.2454 191.056C67.2454 191.056 59.5662 180.877 58.5427 179.218C57.5193 177.551 54.6709 167.323 54.22 165.764C53.7692 164.205 53.4042 162.524 52.7815 162.037C52.2161 161.587 51.2285 160.857 51.2285 160.857L55.1218 160.607L55.129 160.6Z" fill="#FDE9D5" stroke="#261611" stroke-width="0.5" stroke-linecap="round" stroke-linejoin="round"/>
<path d="M100.575 173.131C102.93 169.833 99.0005 168.453 95.8086 169.146C87.3994 171.528 77.4228 179.546 72.8926 186.935C78.7182 186.785 87.1847 184.675 91.6076 180.648L100.575 173.131Z" fill="#FDD7AC" stroke="#261611" stroke-width="0.5" stroke-linecap="round" stroke-linejoin="round"/>
<path d="M78.1665 197.35C73.0494 202.249 65.0123 202.285 60.1815 196.871C56.5959 192.972 58.1847 185.448 62.2569 182.529C66.9446 178.953 72.8203 182.394 77.9589 181.9C81.6446 181.578 86.6687 180.119 89.3525 177.852C92.8235 174.812 94.4839 170.112 97.2321 166.758C98.9283 178.116 83.2191 187.565 78.5386 196.327L78.1665 197.35Z" fill="#FDE9D5" stroke="#261611" stroke-width="0.5" stroke-linecap="round" stroke-linejoin="round"/>
<path d="M62.0069 213.457C58.0993 215.059 53.5118 221.311 49.3108 223.95C45.0239 226.31 41.1306 225.059 36.8437 225.516C32.5639 225.974 29.508 229.193 25.9797 230.981C20.7409 233.334 20.1756 231.625 15.7169 229.608C12.1099 228.263 9.44039 229.772 5.83338 228.427C2.22636 227.083 -0.901151 223.363 0.544519 220.037C2.08323 216.053 7.1216 215.982 9.51196 213.614C11.9023 211.247 11.9095 208.4 14.0136 206.125C16.6902 203.665 19.2523 203.772 22.5874 203.307C28.0122 202.477 30.7891 198.4 36.5002 197.471C42.3043 196.827 50.0837 201.233 55.115 204.015C57.3908 205.167 66.6946 210.338 66.6875 211.29L62.0141 213.457H62.0069Z" fill="#FDD7AC" stroke="#261611" stroke-width="0.5" stroke-linecap="round" stroke-linejoin="round"/>
<path d="M64.003 219.15C62.4714 224.279 63.4519 229.293 59.5443 233.463C57.5189 235.702 54.8709 237.64 51.6647 237.225C50.8202 237.011 48.208 235.365 47.7499 235.523C45.8462 235.931 46.9412 237.59 46.1969 239.128C45.6029 240.358 45.0876 241.81 43.7207 242.282C41.9029 242.919 41.3375 240.565 40.5717 240.573C38.3602 240.83 36.5711 243.748 34.2308 245.079C29.9152 247.346 21.2842 246.016 19.3876 241.316C16.7826 234.572 23.5242 231.203 26.4299 226.36C29.7149 221.132 31.8619 216.304 37.3082 212.877C42.3752 209.838 46.6979 208.328 52.4233 208.636C55.0141 208.758 68.1754 212.083 66.9802 213.779L64.003 219.15Z" fill="#FDE9D5" stroke="#261611" stroke-width="0.5" stroke-linecap="round" stroke-linejoin="round"/>
<path d="M22.4785 240.394C26.2358 239.085 29.3633 237.618 32.4121 234.829C36.3126 231.174 39.1681 226.739 43.82 224.157C51.0913 220.288 61.44 220.323 67.1798 213.729" fill="#FDE9D5"/>
<path d="M22.4785 240.394C26.2358 239.085 29.3633 237.618 32.4121 234.829C36.3126 231.174 39.1681 226.739 43.82 224.157C51.0913 220.288 61.44 220.323 67.1798 213.729" stroke="#261611" stroke-width="0.5" stroke-linecap="round" stroke-linejoin="round"/>
<path d="M59.9809 218.35C58.0844 221.69 57.7623 227.927 53.6758 229.923L59.9809 218.35Z" fill="#FDE9D5"/>
<path d="M59.9809 218.35C58.0844 221.69 57.7623 227.927 53.6758 229.923" stroke="#261611" stroke-width="0.5" stroke-linecap="round" stroke-linejoin="round"/>
<path d="M55.544 219.894C52.302 217.198 46.0542 215.739 42.2539 218.013L55.544 219.894Z" fill="#FDE9D5"/>
<path d="M55.544 219.894C52.302 217.198 46.0542 215.739 42.2539 218.013" stroke="#261611" stroke-width="0.5" stroke-linecap="round" stroke-linejoin="round"/>
<path d="M49.2818 222.262C49.1602 225.752 47.965 230.566 45.1953 233.062L49.2818 222.262Z" fill="#FDE9D5"/>
<path d="M49.2818 222.262C49.1602 225.752 47.965 230.566 45.1953 233.062" stroke="#261611" stroke-width="0.5" stroke-linecap="round" stroke-linejoin="round"/>
<path d="M43.9286 223.935C39.7061 224.45 35.4407 222.104 32.3633 227.004L43.9286 223.935Z" fill="#FDE9D5"/>
<path d="M43.9286 223.935C39.7061 224.45 35.4407 222.104 32.3633 227.004" stroke="#261611" stroke-width="0.5" stroke-linecap="round" stroke-linejoin="round"/>
<path d="M38.6672 228.062C36.1194 230.094 36.5989 235.859 36.4629 238.777L38.6672 228.062Z" fill="#FDE9D5"/>
<path d="M38.6672 228.062C36.1194 230.094 36.5989 235.859 36.4629 238.777" stroke="#261611" stroke-width="0.5" stroke-linecap="round" stroke-linejoin="round"/>
<path d="M33.4294 233.906C30.5523 232.805 26.4515 233.656 23.9609 235.866L33.4294 233.906Z" fill="#FDE9D5"/>
<path d="M33.4294 233.906C30.5523 232.805 26.4515 233.656 23.9609 235.866" stroke="#261611" stroke-width="0.5" stroke-linecap="round" stroke-linejoin="round"/>
<path d="M27.7686 237.983C27.5038 239.414 27.4107 241.359 26.2871 242.518L27.7686 237.983Z" fill="#FDE9D5"/>
<path d="M27.7686 237.983C27.5038 239.414 27.4107 241.359 26.2871 242.518" stroke="#261611" stroke-width="0.5" stroke-linecap="round" stroke-linejoin="round"/>
<path d="M137.755 200.504C135.858 200.811 133.196 201.963 131.256 200.404C126.497 196.792 130.963 191.606 131.951 187.736C133.382 182.329 132.18 178.996 137.59 175.92C142.328 172.887 142.528 168.932 145.906 165.077C148.34 162.444 150.086 163.446 153.027 163.26C155.854 162.931 157.558 160.871 159.926 159.955C165.623 157.838 168.364 162.802 170.926 166.958C171.986 165.885 175.75 164.34 175.557 167.108C175.435 168.159 171.864 170.262 170.869 170.806C167.384 173.316 163.612 174.869 159.697 176.535C151.603 179.833 143.902 185.433 141.426 194.045C140.739 196.484 140.632 199.66 139.043 201.863C138.635 201.949 138.814 201.57 138.435 201.391L137.74 200.511L137.755 200.504Z" fill="#FDE9D5" stroke="#261611" stroke-width="0.5" stroke-linecap="round" stroke-linejoin="round"/>
<path d="M139.43 201.319C138.729 188.087 149.736 171.321 163.763 169.518C163.935 169.538 164.071 169.509 164.171 169.433" stroke="#261611" stroke-width="0.5" stroke-linecap="round" stroke-linejoin="round"/>
<path d="M126.261 234.45C133.017 236.253 139.408 231.518 143.903 226.962C147.875 222.734 150.93 217.499 154.931 213.543C159.418 208.994 163.848 209.38 162.854 216.054C168.407 208.379 169.173 221.74 167.885 225.424C165.459 231.418 160.292 234.665 154.366 235.795C160.098 235.509 153.571 238.885 150.88 239.429C147.374 240.044 144.117 240.366 140.804 240.144C135.837 239.808 128.608 238.871 125.273 235.638L126.254 234.443L126.261 234.45Z" fill="#FDD7AC" stroke="#261611" stroke-width="0.5" stroke-linecap="round" stroke-linejoin="round"/>
<path d="M137.533 205.489C147.781 199.159 164.636 195.325 174.856 203.68C179.329 207.234 186.464 222.04 191.223 213.793C193.248 210.525 192.969 206.398 191.531 203.243C190.923 201.848 188.539 200.039 188.153 199.009C187.158 196.584 188.94 197.006 188.539 194.724C188.418 191.262 185.669 189.675 185.619 185.912C185.483 181.192 187.473 180.727 182.42 178.28C177.668 175.906 176.444 178.431 172.021 178.638C168.486 179.053 166.675 176.127 163.118 175.291C155.196 173.109 150.888 182.086 146.228 187.236C142.443 191.341 137.576 197.378 136.774 203.436C136.424 204.917 136.495 204.617 136.946 205.353L137.54 205.496L137.533 205.489Z" fill="#FDD7AC" stroke="#261611" stroke-width="0.5" stroke-linecap="round" stroke-linejoin="round"/>
<path d="M137.104 205.854C138.728 198.973 148.175 193.258 154.223 190.919C167.548 185.769 176.358 191.463 182.241 199.402" stroke="#261611" stroke-width="0.5" stroke-linecap="round" stroke-linejoin="round"/>
<g style="mix-blend-mode:multiply" opacity="0.33">
<path d="M313.533 163.353C313.533 163.353 295.677 208.83 291.34 213.493C287.003 218.157 273.992 229.887 264.81 223.514C255.627 217.141 251.033 205.847 250.267 200.969C249.308 194.868 252.099 182.772 252.099 182.772L274.5 198.673C274.5 198.673 292.614 196.849 302.061 182.193C309.919 170.012 313.526 163.346 313.526 163.346L313.533 163.353Z" fill="#AA8D6A"/>
</g>
<g style="mix-blend-mode:multiply" opacity="0.33">
<path d="M103.517 178.895C99.6027 185.046 91.5585 199.294 88.6385 209.015C85.7329 218.714 85.9619 237.203 95.5448 236.073C105.128 234.943 112.463 198.157 117.173 189.331C121.882 180.497 136.245 174.653 139.631 166.12C143.023 157.594 123.22 167.908 118.175 167.308C113.129 166.707 107.318 172.922 103.517 178.895Z" fill="#AA8D6A"/>
</g>
<path d="M102.006 119.013L94.8924 103.127L101.999 88.8788L95.6582 84.0078C95.6582 84.0078 87.7142 102.369 87.707 102.54C87.6999 102.712 98.3921 119.507 98.3277 119.671" fill="#FFB7A6"/>
<path d="M102.006 119.013L94.8924 103.127L101.999 88.8788L95.6582 84.0078C95.6582 84.0078 87.7142 102.369 87.707 102.54C87.6999 102.712 98.3921 119.507 98.3277 119.671" stroke="#261611" stroke-width="0.5" stroke-linecap="round" stroke-linejoin="round"/>
<path d="M98.1133 119.228C98.2349 119.357 100.861 123.341 101.012 123.419C101.162 123.498 103.581 125.165 103.581 125.165L105.721 126.624L106.301 125.522L104.197 122.533L107.102 123.999L106.487 128.369C106.487 128.369 107.553 130.515 107.796 130.179C108.04 129.843 110.151 124.593 110.151 124.593L107.768 121.202L101.176 116.968" fill="#FFB7A6"/>
<path d="M98.1133 119.228C98.2349 119.357 100.861 123.341 101.012 123.419C101.162 123.498 103.581 125.165 103.581 125.165L105.721 126.624L106.301 125.522L104.197 122.533L107.102 123.999L106.487 128.369C106.487 128.369 107.553 130.515 107.796 130.179C108.04 129.843 110.151 124.593 110.151 124.593L107.768 121.202L101.176 116.968" stroke="#261611" stroke-width="0.5" stroke-linecap="round" stroke-linejoin="round"/>
<path d="M107.06 78.6292C107.06 78.6292 111.032 80.4889 109.715 83.3643C108.398 86.2397 98.7292 97.8485 98.7292 97.8485L88.7812 90.7816C88.7812 90.7816 99.8814 75.3748 107.06 78.6292Z" fill="#513107" stroke="#261611" stroke-width="0.5" stroke-linecap="round" stroke-linejoin="round"/>
<path d="M118.332 53.8377C119.577 55.1896 120.4 56.5343 120.507 58.1508L120.006 59.4168C120.006 59.4168 121.946 61.8917 122.547 62.2636L120.393 62.6212L121.137 64.5167C121.08 65.0245 120.765 65.3822 119.985 65.3249L119.734 66.7483C119.734 66.7483 120.751 68.0215 119.341 68.7725C117.931 69.5236 113.837 67.485 113.837 67.485L111.468 79.008C107.081 79.9307 101.635 77.3629 99.9316 73.1714L105.993 63.3794L107.196 51.3271C111.683 52.0639 116.385 52.7791 118.339 53.8377H118.332Z" fill="#FFB7A6" stroke="#261611" stroke-width="0.5" stroke-linecap="round" stroke-linejoin="round"/>
<path d="M118.411 59.7471C118.526 59.3941 118.318 59.0096 117.946 58.8883C117.574 58.7671 117.179 58.955 117.064 59.308C116.949 59.6611 117.157 60.0455 117.529 60.1668C117.901 60.288 118.296 60.1001 118.411 59.7471Z" fill="#261611"/>
<path d="M120.207 55.6834L113.408 57.6719C113.408 57.6719 113.744 68.9016 108.269 73.465C106.359 75.06 100.59 73.6867 98.0138 77.8567L95.9312 84.4443C92.9754 84.6088 88.2663 80.8966 90.7568 75.8039C90.7568 75.8039 98.8511 71.2834 98.8798 64.846C98.8869 62.6644 102.329 62.5786 103.088 59.4171C103.467 57.8149 104.462 55.383 104.555 53.8881C104.734 50.9412 104.383 49.1602 109.801 47.2003C115.219 45.2405 119.506 49.1888 120.207 55.6977V55.6834Z" fill="#261611" stroke="#261611" stroke-width="0.5" stroke-miterlimit="10"/>
<path d="M120.936 53.6304L119.397 48.5019C119.397 48.5019 115.962 45.8697 111.475 46.4205C106.988 46.9641 104.382 50.004 104.382 50.004L103.867 56.9206L120.936 53.6304Z" fill="#FF6330" stroke="#261611" stroke-width="0.5" stroke-linecap="round" stroke-linejoin="round"/>
<path d="M104.083 53.9669L103.861 56.921L120.937 53.6308L120.114 50.8984L104.083 53.9669Z" fill="#261611" stroke="#261611" stroke-width="0.5" stroke-linecap="round" stroke-linejoin="round"/>
<path d="M130.105 54.2882L95.2656 60.7257C95.2656 60.7257 104.24 54.3025 111.44 53.0651C115.376 52.3856 130.105 54.2954 130.105 54.2954V54.2882Z" fill="#FF6330" stroke="#261611" stroke-width="0.5" stroke-linecap="round" stroke-linejoin="round"/>
<path d="M88.6387 190.154C88.9679 189.095 89.1468 188.001 88.9894 186.928C88.7532 185.29 93.3121 154.34 93.3121 154.34L90.4493 132.718L103.439 135.464C103.439 136.265 105.607 151.043 105.607 151.043L95.6666 189.36" fill="#FFB7A6"/>
<path d="M88.6387 190.154C88.9679 189.095 89.1468 188.001 88.9894 186.928C88.7532 185.29 93.3121 154.34 93.3121 154.34L90.4493 132.718L103.439 135.464C103.439 136.265 105.607 151.043 105.607 151.043L95.6666 189.36" stroke="#261611" stroke-width="0.5" stroke-linecap="round" stroke-linejoin="round"/>
<path d="M95.5509 189.059L106.622 204.81C106.622 204.81 109.242 207.857 104.282 205.839L83.7637 193.258C83.7637 193.258 83.7494 190.969 85.56 189.553C86.5978 188.737 87.843 187.822 88.8665 186.728" fill="#FFB7A6"/>
<path d="M95.5509 189.059L106.622 204.81C106.622 204.81 109.242 207.857 104.282 205.839L83.7637 193.258C83.7637 193.258 83.7494 190.969 85.56 189.553C86.5978 188.737 87.843 187.822 88.8665 186.728" stroke="#261611" stroke-width="0.5" stroke-linecap="round" stroke-linejoin="round"/>
<path d="M104.712 200.318C104.676 200.39 101.398 204.445 101.398 204.445L105.843 206.734L105.127 207.914L81.4883 196.491L82.9268 193.688L92.1447 198.594L100.21 194.532L104.705 200.304L104.712 200.318Z" fill="#261611" stroke="#261611" stroke-width="0.5" stroke-linecap="round" stroke-linejoin="round"/>
<path d="M111.511 157.588C111.275 155.95 118.267 130.3 118.267 130.3L97.4766 131.18L100.575 117.111L127.342 116.817L133.518 124.256L118.188 160.005" fill="#FFB7A6"/>
<path d="M111.511 157.588C111.275 155.95 118.267 130.3 118.267 130.3L97.4766 131.18L100.575 117.111L127.342 116.817L133.518 124.256L118.188 160.005" stroke="#261611" stroke-width="0.5" stroke-linecap="round" stroke-linejoin="round"/>
<path d="M118.438 155.82L136.552 162.365C136.552 162.365 140.446 163.352 135.228 164.547L111.203 166.013C111.203 166.013 109.879 164.139 110.545 161.95C110.924 160.691 111.425 159.225 111.632 157.737" fill="#FFB7A6"/>
<path d="M118.438 155.82L136.552 162.365C136.552 162.365 140.446 163.352 135.228 164.547L111.203 166.013C111.203 166.013 109.879 164.139 110.545 161.95C110.924 160.691 111.425 159.225 111.632 157.737" stroke="#261611" stroke-width="0.5" stroke-linecap="round" stroke-linejoin="round"/>
<path d="M132.402 159.776C132.416 159.855 132.058 165.055 132.058 165.055L137.018 164.382L137.111 165.763L111.196 169.969L110.76 166.85L121.13 165.577L125.403 157.623L132.402 159.769V159.776Z" fill="#261611" stroke="#261611" stroke-width="0.5" stroke-linecap="round" stroke-linejoin="round"/>
<path d="M111.34 78.0785L102.523 74.6309C102.523 74.6309 97.7275 76.2188 95.3587 87.613C92.9969 99 90.8141 107.369 91.0646 107.512C91.3151 107.655 112.22 113.556 112.277 112.869C112.335 112.182 113.852 97.8127 114.217 96.5753L116.629 92.72C116.915 92.2551 113.916 79.23 111.34 78.0856V78.0785Z" fill="#513107" stroke="#261611" stroke-width="0.5" stroke-linecap="round" stroke-linejoin="round"/>
<path d="M111.647 109.314L92.7532 106.174L85.7324 148.16C85.7324 148.16 100.053 149.011 110.144 142.03C120.235 135.049 122.983 115.344 122.983 115.344L111.647 109.314Z" fill="#261611" stroke="#261611" stroke-width="0.5" stroke-linecap="round" stroke-linejoin="round"/>
<path d="M122.495 120.608L111.538 107.397L108.153 90.7812L99.6367 90.8456C99.6367 90.8456 105.019 111.467 105.119 111.617C105.219 111.767 120.291 123.734 120.341 123.92" fill="#FFB7A6"/>
<path d="M122.495 120.608L111.538 107.397L108.153 90.7812L99.6367 90.8456C99.6367 90.8456 105.019 111.467 105.119 111.617C105.219 111.767 120.291 123.734 120.341 123.92" stroke="#261611" stroke-width="0.5" stroke-linecap="round" stroke-linejoin="round"/>
<path d="M122.495 120.608C122.638 120.744 125.644 121.946 125.644 121.946L129.137 124.514L129.466 129.235L127.04 130.529L124.084 128.87L120.334 123.913" fill="#FFB7A6"/>
<path d="M122.495 120.608C122.638 120.744 125.644 121.946 125.644 121.946L129.137 124.514L129.466 129.235L127.04 130.529L124.084 128.87L120.334 123.913" stroke="#261611" stroke-width="0.5" stroke-linecap="round" stroke-linejoin="round"/>
<path d="M105.678 78.858C105.678 78.858 110.229 77.8209 111.01 81.0968C111.79 84.3728 111.289 100.452 111.289 100.452L98.3062 101.038C98.3062 101.038 97.5118 80.8322 105.678 78.858Z" fill="#513107" stroke="#261611" stroke-width="0.5" stroke-linecap="round" stroke-linejoin="round"/>
<path d="M141.847 124.913C142.305 123.168 140.559 117.425 139.457 115.615C137.968 113.598 137.167 113.963 134.826 113.677C131.706 113.362 131.169 111.974 128.693 110.115C122.581 105.966 121.536 112.783 124.113 117.189C126.668 122.181 130.396 122.124 134.998 124.649C137.496 125.915 139.729 129.134 142.434 130.02L141.847 124.906V124.913Z" fill="#FDD7AC" stroke="#261611" stroke-width="0.5" stroke-linecap="round" stroke-linejoin="round"/>
<path d="M155.94 151.293C156.204 149.54 155.324 146.765 155.796 144.627C156.727 140.743 158.58 138.268 157.171 134.105C154.537 125.972 142.256 119.049 134.505 116.796C132.372 116.13 123.219 115.172 123.219 115.172C124.45 120.98 131.113 123.519 133.016 124.964C140.617 131.323 148.396 138.075 153.564 146.501C154.494 147.91 155.403 149.705 155.947 150.899L155.932 151.293H155.94Z" fill="#FDE9D5" stroke="#261611" stroke-width="0.5" stroke-linecap="round" stroke-linejoin="round"/>
<path d="M165.744 150.291C171.133 147.752 176.536 144.627 182.491 142.695C186.463 141.279 190.807 140.464 194.786 138.847C199.567 136.873 203.775 134.291 208.727 132.91C210.51 132.388 215.827 131.809 216.099 129.663C216.4 126.931 210.896 127.31 208.942 127.238C210.524 121.616 200.418 124.563 198.064 124.671C193.741 124.899 189.705 122.983 185.311 125.171C180.315 127.725 178.748 132.953 174.332 135.721C170.117 138.304 168.413 141.959 166.674 146.594C166.03 148.139 165.4 149.29 165.336 150.849L165.751 150.277L165.744 150.291Z" fill="#FDE9D5" stroke="#261611" stroke-width="0.5" stroke-linecap="round" stroke-linejoin="round"/>
<path d="M187.15 102.333C189.39 100.065 195.502 99.1213 196.318 103.463C198.572 100.809 201.435 97.7837 205.328 98.3202C206.373 101.689 196.862 104.657 195.745 108.141C195.073 110.465 196.382 112.082 195.323 114.199C194.071 116.309 191.666 117.59 190.414 119.692C187.494 124.284 185.003 128.104 180.938 131.866C176.88 135.435 173.395 139.613 169.716 143.589C167.884 145.478 165.043 147.917 164.37 150.241C158.28 145.506 164.635 132.818 167.362 128.025C171.784 119.964 176.222 111.324 181.589 104.078L187.143 102.326L187.15 102.333Z" fill="#FDD7AC" stroke="#261611" stroke-width="0.5" stroke-linecap="round" stroke-linejoin="round"/>
<path d="M163.068 101.818C163.576 98.6996 160.992 94.4938 158.502 93.0275C153.714 90.1021 149.663 93.4781 144.775 93.2922C142.428 93.2063 140.724 91.5755 138.37 91.6828C135.822 91.7829 133.997 93.2779 131.993 94.5725C125.566 98.6352 134.09 101.31 137.096 104.751C139.916 107.991 141.891 112.762 144.303 116.381C146.7 120.387 149.298 124.206 151.488 128.405C155.317 135.994 156.326 145.628 164.614 149.269C164.621 149.076 164.435 148.868 164.242 148.668L163.068 101.818Z" fill="#DCBB93" stroke="#261611" stroke-width="0.5" stroke-linecap="round" stroke-linejoin="round"/>
<path d="M158.537 143.947C154.98 139.505 152.84 133.94 150.092 128.941C147.53 124.141 143.78 119.692 140.609 115.458C137.431 111.424 132.651 108.305 130.268 103.906C129.344 102.304 128.078 99.5145 127.555 97.9266C126.875 95.1585 127.648 95.3803 130.353 96.4675C135.177 98.413 137.381 102.411 141.597 104.922C146.785 107.661 145.211 113.09 148.796 116.745C150.493 118.569 152.99 119.842 153.878 122.224C154.586 124.213 153.914 126.537 154.615 128.719C155.323 130.707 157.02 132.531 157.721 134.713C158.437 136.501 158.165 138.647 158.673 140.621C159.532 143.79 162.001 145.835 163.296 147.845L158.544 143.947H158.537Z" fill="#FDE9D5" stroke="#261611" stroke-width="0.5" stroke-linecap="round" stroke-linejoin="round"/>
<path d="M159.733 137.839C158.387 138.19 155.968 137.388 154.508 136.28C152.869 135.429 151.61 134.299 151.051 132.146C150.25 129.277 151.81 129.163 152.039 126.946C152.604 123.977 149.448 118.598 148.747 114.507C148.081 110.895 147.681 102.877 151.488 101.375C150.651 98.0201 146.543 87.8419 152.884 88.5858C154.465 88.7074 155.002 90.6243 156.226 91.2609C158.681 92.5412 157.135 92.8988 159.174 91.2823C160.999 89.4369 161.543 86.2254 164.778 87.4485C170.017 89.251 168.722 98.1274 168.657 102.526C168.507 105.709 170.21 107.533 170.074 110.959C169.938 114.385 167.906 118.684 166.345 121.481C165.83 122.497 165.694 123.24 164.95 123.784L159.725 137.832L159.733 137.839Z" fill="#DCBB93" stroke="#261611" stroke-width="0.5" stroke-linecap="round" stroke-linejoin="round"/>
<path d="M154.136 116.881C153.871 117.554 153.75 118.183 153.649 118.841L153.635 118.913C153.614 119.085 153.585 119.256 153.564 119.435C153.528 119.707 153.485 119.979 153.435 120.25C153.399 120.522 153.342 120.83 153.213 121.044C153.213 121.044 153.213 121.051 153.206 121.059C153.17 121.123 153.127 121.18 153.077 121.223C152.526 121.724 152.082 121.116 151.81 120.601C151.696 120.379 151.588 120.143 151.495 119.9C151.137 118.984 150.901 117.99 150.493 117.096C150.007 116.045 149.627 114.95 150.207 113.684C151.102 111.589 153.9 111.302 154.83 113.555C155.281 114.657 154.537 115.887 154.143 116.889L154.136 116.881Z" fill="#FF664D" stroke="#261611" stroke-width="0.5" stroke-linecap="round" stroke-linejoin="round"/>
<path d="M150.357 122.783C149.999 123.033 149.362 123.083 148.954 123.169C148.432 123.269 147.902 123.376 147.373 123.484C147.05 123.548 146.736 123.612 146.414 123.677C144.853 123.984 143.372 124.242 141.912 123.433C141.039 122.954 140.051 122.153 139.836 121.123C139.572 119.886 140.624 119.085 141.583 118.534C142.649 117.904 143.4 117.74 144.531 118.241C145.777 118.791 147.165 119.242 148.439 119.814C148.782 119.972 149.112 120.136 149.434 120.315C149.613 120.415 149.77 120.529 149.92 120.651C149.97 120.658 150.021 120.68 150.056 120.73C150.106 120.794 150.164 120.859 150.214 120.93C150.257 120.973 150.292 121.023 150.328 121.073C150.758 121.638 151.087 122.282 150.357 122.79V122.783Z" fill="#FF664D" stroke="#261611" stroke-width="0.5" stroke-linecap="round" stroke-linejoin="round"/>
<path d="M152.44 120.651C152.333 121.166 152.054 121.509 151.696 121.717C151.682 121.731 151.668 121.738 151.653 121.738C151.016 122.089 150.136 122.046 149.427 121.796C149.342 121.767 149.256 121.731 149.177 121.695C148.218 121.266 147.424 120.551 146.465 120.093C145.398 119.593 144.239 119.285 143.187 118.734C141.598 117.905 140.696 116.753 140.804 114.908C140.982 111.868 143.924 108.842 146.994 110.108C147.416 110.237 147.817 110.459 148.168 110.795C149.456 112.032 149.735 114.164 150.386 115.759C150.873 116.946 151.474 118.055 152.061 119.199C152.254 119.557 152.44 119.893 152.455 120.279C152.469 120.394 152.462 120.515 152.433 120.637L152.44 120.651Z" fill="#FF664D" stroke="#261611" stroke-width="0.5" stroke-linecap="round" stroke-linejoin="round"/>
<path d="M158.795 138.841C158.816 138.941 157.95 140.579 157.922 140.486C157.213 137.918 152.554 123.891 152.132 123.691C151.81 123.541 150.414 123.026 150.207 122.711C149.792 122.046 150.486 121.41 151.008 121.116C151.638 120.766 152.554 120.401 153.048 121.145C153.241 121.431 153.127 122.583 153.084 122.919C152.991 123.57 156.841 129.249 158.795 138.841Z" fill="#FDE9D5" stroke="#261611" stroke-width="0.5" stroke-linecap="round" stroke-linejoin="round"/>
<path d="M163.395 103.592C163.31 100.652 162.787 98.871 164.841 96.4034C166.294 94.3005 168.87 93.4207 170.323 91.325C171.798 88.6356 171.146 85.0878 173.393 82.6273C175.44 80.3527 177.165 81.397 179.534 80.9035C181.71 80.3957 183.334 78.8936 186.082 78.8006C187.657 78.6647 190.978 78.9866 191.486 80.9607C192.18 83.3354 188.566 85.5527 187.335 87.0691C184.043 91.2534 181.495 96.4463 179.155 101.253C177.459 104.715 176.421 111.331 173.193 113.756L163.388 103.592H163.395Z" fill="#DCBB93" stroke="#261611" stroke-width="0.5" stroke-linecap="round" stroke-linejoin="round"/>
<path d="M163.884 82.6201C162.982 87.3623 163.218 92.2333 163.082 97.0542C162.932 102.376 162.338 107.683 161.293 112.905" stroke="#261611" stroke-width="0.5" stroke-linecap="round" stroke-linejoin="round"/>
<path d="M169.223 79.2799C169.08 79.0081 168.922 78.7434 168.757 78.4716C168.593 78.1998 168.428 77.9352 168.264 77.6705C167.927 77.1341 167.591 76.5833 167.333 76.004C167.154 75.5963 166.997 75.1599 166.911 74.7236C166.825 74.2873 166.797 73.8367 166.839 73.4004C166.432 73.8009 165.888 74.1014 165.329 74.3231C164.9 74.5019 164.449 74.6378 163.991 74.7737C163.762 74.8452 163.533 74.9168 163.304 74.9883C163.075 75.067 162.853 75.1456 162.631 75.2386C161.465 75.7107 160.384 76.476 159.518 77.4774C158.852 78.2428 158.287 79.2084 158.287 80.2455C158.287 80.3886 158.301 80.5316 158.323 80.6747C158.366 80.9536 158.445 81.2183 158.545 81.4758C159.067 83.3784 159.425 85.2881 159.812 87.1764C160.198 89.0647 160.627 90.9316 161.25 92.6912C161.372 93.0273 161.493 93.3635 161.658 93.6782C161.823 93.9929 162.023 94.2862 162.266 94.5437C162.402 94.6867 162.567 94.8155 162.76 94.8656C163.247 94.9872 163.705 94.5795 164.005 94.2004C164.22 93.9286 164.413 93.6496 164.592 93.3635C164.778 93.0774 164.943 92.7841 165.086 92.4837C165.158 92.3335 165.229 92.1833 165.294 92.0331C165.365 91.8829 165.43 91.7327 165.494 91.5753C165.623 91.2749 165.73 90.9674 165.845 90.6598C166.052 90.109 166.21 89.5583 166.396 89.0075C166.503 88.6785 166.596 88.3423 166.718 88.0133C166.832 87.6843 166.947 87.3553 167.068 87.0334C167.548 85.8246 168.163 84.6802 168.886 83.6359C169.244 83.3283 169.53 82.985 169.695 82.5773C170.132 81.5687 169.759 80.3671 169.201 79.287L169.223 79.2799Z" fill="#FF664D" stroke="#261611" stroke-width="0.5" stroke-linecap="round" stroke-linejoin="round"/>
<path d="M166.108 85.0519C165.078 85.3953 164.011 85.6957 163.052 86.2035C162.487 85.7457 161.9 85.2737 161.342 84.7801C160.791 84.2866 160.24 83.7716 159.724 83.2137C159.266 82.7058 158.816 82.1265 158.529 81.4756C159.052 83.3782 159.41 85.288 159.796 87.1763C160.183 89.0646 160.612 90.9314 161.235 92.691C161.356 93.0272 161.478 93.3633 161.643 93.6781C161.807 93.9928 162.008 94.286 162.251 94.5435C162.387 94.6866 162.551 94.8225 162.745 94.8654C163.231 94.987 163.689 94.5793 163.99 94.2002C164.205 93.9284 164.398 93.6494 164.577 93.3633C164.763 93.0772 164.927 92.784 165.071 92.4836C165.142 92.3333 165.214 92.1831 165.278 92.0329C165.35 91.8827 165.414 91.7325 165.479 91.5752C165.607 91.2676 165.715 90.9672 165.829 90.6596C166.037 90.1089 166.194 89.5581 166.38 89.0074C166.488 88.6712 166.581 88.3422 166.702 88.0131C166.817 87.6841 166.931 87.3551 167.053 87.0332C167.533 85.8244 168.148 84.68 168.871 83.6285C168.513 83.9433 168.069 84.2079 167.59 84.4439C167.11 84.68 166.602 84.8803 166.094 85.0448L166.108 85.0519Z" fill="#F94A38" stroke="#261611" stroke-width="0.5" stroke-linecap="round" stroke-linejoin="round"/>
<path d="M162.616 75.2316C162.465 75.2888 162.322 75.3603 162.172 75.4247C162.458 75.3031 162.737 75.1887 163.016 75.0742C162.88 75.1243 162.744 75.1744 162.608 75.2316H162.616Z" fill="#85E0D1" stroke="#261611" stroke-width="0.5" stroke-linecap="round" stroke-linejoin="round"/>
<path d="M161.822 86.0748C161.822 82.8704 163.633 78.9292 164.563 78.8792C165.494 78.8291 164.112 85.7744 164.277 86.6041" fill="#E1C092"/>
<path d="M161.822 86.0748C161.822 82.8704 163.633 78.9292 164.563 78.8792C165.494 78.8291 164.112 85.7744 164.277 86.6041" stroke="#261611" stroke-width="0.5" stroke-linecap="round" stroke-linejoin="round"/>
<path d="M170.189 81.5539C170.039 81.0819 169.846 80.617 169.595 80.1592C169.753 80.574 169.853 80.9889 169.874 81.3966C169.91 81.8043 169.853 82.1977 169.695 82.5696C169.567 82.8844 169.373 83.1633 169.13 83.4065C168.879 83.6568 168.608 83.8786 168.278 84.0788C167.627 84.4794 166.868 84.7941 166.11 85.0445C165.723 85.1732 165.337 85.2948 164.95 85.4235C164.564 85.5523 164.185 85.6882 163.812 85.8456C163.068 86.1531 162.352 86.5394 161.787 87.1116L162.295 87.412C163.197 86.99 164.22 86.9185 165.208 86.7897C166.045 86.6824 166.868 86.5322 167.677 86.3462C168.307 86.2032 168.944 86.0315 169.423 85.6739C169.846 85.3592 170.089 84.9229 170.254 84.4794C170.332 84.2505 170.382 84.0145 170.418 83.7713C170.454 83.5352 170.468 83.2921 170.461 83.0417C170.461 82.9201 170.447 82.7914 170.433 82.6698C170.418 82.5482 170.404 82.4194 170.382 82.2978C170.339 82.0475 170.275 81.7971 170.196 81.5539H170.189Z" fill="#85E0D1" stroke="#261611" stroke-width="0.5" stroke-linecap="round" stroke-linejoin="round"/>
<path d="M170.189 81.5539C170.039 81.0819 169.846 80.617 169.595 80.1592C169.753 80.574 169.853 80.9889 169.874 81.3966C169.91 81.8043 169.853 82.1977 169.695 82.5696C169.567 82.8844 169.373 83.1633 169.13 83.4065C168.879 83.6568 168.608 83.8786 168.278 84.0788C167.627 84.4794 166.868 84.7941 166.11 85.0445C165.723 85.1732 165.337 85.2948 164.95 85.4235C164.564 85.5523 164.185 85.6882 163.812 85.8456C163.068 86.1531 162.352 86.5394 161.787 87.1116L162.295 87.412C163.197 86.99 164.22 86.9185 165.208 86.7897C166.045 86.6824 166.868 86.5322 167.677 86.3462C168.307 86.2032 168.944 86.0315 169.423 85.6739C169.846 85.3592 170.089 84.9229 170.254 84.4794C170.332 84.2505 170.382 84.0145 170.418 83.7713C170.454 83.5352 170.468 83.2921 170.461 83.0417C170.461 82.9201 170.447 82.7914 170.433 82.6698C170.418 82.5482 170.404 82.4194 170.382 82.2978C170.339 82.0475 170.275 81.7971 170.196 81.5539H170.189Z" fill="#FF664D" stroke="#261611" stroke-width="0.5" stroke-linecap="round" stroke-linejoin="round"/>
<path d="M164.341 87.2336C162.781 85.9747 161.149 84.7444 159.725 83.2066C158.988 82.3983 158.272 81.4113 158.272 80.2382C158.272 79.2011 158.831 78.2355 159.503 77.4702C159.876 77.0338 160.305 76.6476 160.749 76.3043C161.192 75.9609 161.672 75.6677 162.173 75.4316C161.708 75.6319 161.228 75.8465 160.784 76.0968C160.183 76.433 159.568 76.8193 159.038 77.2913C158.766 77.5274 158.509 77.7777 158.265 78.0495C158.022 78.3213 157.807 78.6146 157.607 78.9221C157.199 79.5444 156.92 80.2597 156.762 80.9964C156.691 81.3684 156.662 81.7403 156.662 82.1122C156.662 82.4842 156.712 82.849 156.812 83.2066C156.92 83.5928 157.07 83.9505 157.263 84.2795C157.457 84.6085 157.693 84.9161 157.957 85.1879C158.48 85.7386 159.103 86.1821 159.768 86.5254C161.092 87.2121 162.524 87.5983 163.883 88.1563C164.291 88.3208 164.699 88.5067 165.086 88.6999C165.443 88.8715 165.78 88.4495 165.479 88.1992C165.107 87.8773 164.728 87.5626 164.341 87.2479V87.2336Z" fill="#FF664D" stroke="#261611" stroke-width="0.5" stroke-linecap="round" stroke-linejoin="round"/>
<path d="M163.762 145.836C167.999 137.51 178.097 134.678 183.107 126.61C185.834 121.896 188.797 116.045 189.798 110.352C190.285 107.848 189.627 104.608 190.299 102.341C190.979 99.8443 194.193 97.8987 192.31 95.7672C190.235 93.6214 185.419 96.6542 183.422 97.7271C184.667 90.6674 174.461 91.1967 171.642 93.1565C169.423 94.9089 167.741 97.8272 165.537 99.1218C163.139 100.409 161.021 99.4079 158.774 101.847C154.279 106.725 157.822 111.446 158.008 116.953C158.094 119.936 156.648 121.717 156.355 124.457C156.04 127.654 157.743 129.099 158.437 131.645C159.074 135.565 158.044 136.902 160.456 140.436C161.751 142.546 162.846 144.656 162.374 146.701L163.776 145.836H163.762Z" fill="#FDD7AC" stroke="#261611" stroke-width="0.5" stroke-linecap="round" stroke-linejoin="round"/>
<path d="M190.484 144.269C192.71 142.395 190.226 140.736 187.879 140.643C181.602 140.8 173.229 144.598 168.756 148.933C172.835 149.87 179.105 149.912 182.905 147.895L190.491 144.262L190.484 144.269Z" fill="#FDD7AC" stroke="#261611" stroke-width="0.5" stroke-linecap="round" stroke-linejoin="round"/>
<path d="M161.228 156.092C154.923 157.029 149.005 152.888 148.267 146.4C147.666 141.679 152.74 136.973 157.249 136.944C162.545 136.751 165.079 142.33 169.108 144.641C171.985 146.314 176.437 147.852 179.578 147.58C183.708 147.151 187.372 144.555 191.129 143.525C186.47 152.752 170.017 151.529 162.03 155.534L161.228 156.092Z" fill="#FDE9D5" stroke="#261611" stroke-width="0.5" stroke-linecap="round" stroke-linejoin="round"/>
</g>
<defs>
<clipPath id="clip0_5597_3663">
<rect width="492" height="307" fill="white"/>
</clipPath>
</defs>
</svg>
