<svg fill="none" height="307" viewBox="0 0 492 307" width="492" xmlns="http://www.w3.org/2000/svg" xmlns:xlink="http://www.w3.org/1999/xlink"><clipPath id="a"><path d="m0 0h492v307h-492z"/></clipPath><mask id="b" height="229" maskUnits="userSpaceOnUse" width="148" x="189" y="10"><path d="m237.72 10.2708c27.017 9.8636 89.059 65.4184 93.102 70.6112 4.044 5.1929 6.642 48.009 5.089 51.521-1.56 3.512-17.355 21.029-30.86 45.047-.136.243-.272.48-.401.716-11.436 20.392-37.551 27.237-57.483 15.006-4.788-2.94-8.388-5.336-9.44-6.495-4.158-4.556-52.473-50.762-48.315-75.167 4.158-24.4051 20.318-95.5385 25.743-96.5756 5.424-1.0372 22.565-4.6707 22.565-4.6707zm91.95 146.3862s-18.464 22.481-25.206 50.084c-6.269 25.663-6.169 27.108-6.169 27.108l23.088 4.299s13.276-15.221 13.547-24.126c.272-8.905 1.432-54.94 1.432-54.94z" fill="#fff"/></mask><g clip-path="url(#a)"><path d="m206.76 139.155c5.103 2.511 17.72 16.745 21.9 40.191 4.179 23.439-.651 42.373 12.531 64.267 13.183 21.894 25.808 24.498 43.635 21.158-6.935 5.371-37.165 28.074-72.985 22.387-13.912-2.718-23.717-9.298-27.911-12.595.451-4.414-21.091-58.23-21.091-58.23s2.748-10.422.193-20.385c-2.555-9.957-4.659-13.748-4.659-13.748s15.258-32.208 26.609-39.154c11.351-6.945 14.643-7.403 21.778-3.891z" fill="#f9dfba"/><path d="m137.023 304.855s25.507 5.571 30.359-1.238c5.332-7.474 19.753-30.499 25.565-56.771 4.973-22.502 1.753-29.819-5.604-31.808-7.057-2.596-16.303 6.602-21.428 22.417-5.124 15.814-7.049 25.656-6.605 27.502.443 1.845 1.817 5.801 1.817 5.801l-23.03-.494-1.066 34.591z" fill="#dcbb93"/><path d="m395.477 119.7c9.254 8.232 11.215 39.175 11.587 46.12s-1.231 27.867 8.567 44.189c5.374 8.963 6.777 8.92 13.211 8.755-20.776 5.415-53.068 13.14-53.068 13.14s-5.052-.751-13.748-15.057c-9.633-15.843-2.469-42.637-7.994-58.995-3.793-11.215-8.688-15.407-12.524-16.394 5.167-6.115 8.846-28.804 23.173-30.849 14.328-2.046 25.386 4.27 30.803 9.091z" fill="#f9dfba"/><path d="m353.918 95.3024c19.61 4.9566 36.5 17.9536 39.849 23.2386-8.452-4.098-11.322-6.158-25.607 0-14.285 6.159-35.247 29.076-55.222 63.666-13.426 26.73-13.805 62.028-18.314 71.441-4.501 9.413-9.547 14.506-28.312 10.98-18.765-3.534-32.141-23.676-35.505-56.127-1.195-28.275-2.891-39.068-7.092-46.085s80.972-61.32 92.608-65.2039c11.637-3.8839 20.204-6.3015 37.595-1.9026z" fill="#fff"/><path d="m182.111 214.551-35.039-1.044s-6.363 17.424-8.252 38.76c-.916 14.849-.73 17.996-.73 17.996l23.03.494s-5.117-2.325 4.03-30.792c6.892-21.716 16.961-25.407 16.961-25.407z" fill="#fff"/><path d="m153.821 305.977c-10.828-2.961-21.069-19.326-13.089-67.828 18.493-84.631 52.359-100.567 52.359-100.567s-76.835 13.533-93.7613 20.514c-16.8613 5.808-18.0923 8.161-22.9374 11.673-4.8452 3.505-28.4196 30.885-31.0676 77.163-1.9753 40.634 5.6538 48.767 5.6538 48.767z" fill="#fff"/><path d="m423.768 56.506-19.817 7.3601 56.152-63.687389 31.719 38.967789-22.408 8.433s-8.158 19.1978-8.86 53.1305c-.701 33.932-1.882 68.114-4.043 78.078-2.169 9.957-3.794 25.206-24.613 38.696-4.43 1.645-8.838 3.069-14.714-4.871-5.876-7.939-5.253-11.373-5.253-11.373s4.702-5.693 4.38-22.502c-.315-16.816-3.578-43.638-1.889-68.58 1.689-24.9411 9.346-53.6448 9.346-53.6448z" fill="#fff"/><g opacity=".61" stroke="#bfa480" stroke-linecap="round" stroke-linejoin="round" stroke-width=".5"><path d="m71.0605 222.098 54.5775 3.433"/><path d="m67.6035 240.409 54.5775 3.433"/><path d="m65.6641 259.435 54.5779 3.433"/><path d="m76.9434 203.78 54.5776 3.434"/><path d="m81.3594 186.942 54.5776.98"/><path d="m98.3496 170.263 46.5624-1.631"/><path d="m113.887 156.229 43.799-2.747"/></g><path d="m163.948 243.384 16.396.136s0 2.425-1.589 7.925c-4.015 16.051-23.424 31.1-18.736 7.689 4.687-23.411 15.394-52.837 30.781-42.465 15.394 10.364-13.648 80.947-23.424 86.941-11.236 6.895-31.783 5.014-29.107-45.141 2.677-50.162 35.727-124.993 62.937-121.481 11.923 1.538 29.128 26.393 29.028 60.354-.086 28.21 11.93 59.618 29.679 65.433s30.896 4.864 35.211-10.758c4.459-16.143 3.493-57.579 34.339-96.26 30.845-38.675 48.537-46.886 64.303-37.223 16.21 9.935 11.931 61.649 15.717 75.318 3.785 13.668 11.236 34.247 27.245 20.299 16.003-13.948 19.445-23.046 21.936-54.904 2.684-34.433-.1-57.815 4.659-87.2411 1.746-13.6688 6.112-24.4264 6.112-24.4264l22.408-8.433-31.741-38.967789-56.159 63.687389 20.368-7.5603s-10.678 38.5386-10.477 67.4712c.179 25.027 3.786 58.459 2.111 67.221-1.803 9.42-4.022 10.25-4.022 10.25" stroke="#261611" stroke-linecap="round" stroke-linejoin="round" stroke-width=".5"/><path d="m341.5 141.458c16.89 7.196 15.022 34.748 14.972 53.996-.036 14.133 10.334 34.633 19.302 36.45 10.184-1.824 45.288-11.087 53.339-13.211" stroke="#261611" stroke-linecap="round" stroke-linejoin="round" stroke-width=".5"/><path d="m325.02 93.7996c15.694-3.1758 47.792.9799 71.496 27.0154" stroke="#261611" stroke-linecap="round" stroke-linejoin="round" stroke-width=".5"/><path d="m184.983 214.551-38.131-1.051" stroke="#261611" stroke-linecap="round" stroke-linejoin="round" stroke-width=".5"/><path d="m196.59 136.974s-85.215 14.634-109.3767 25.485c-24.1613 10.85-41.3447 53.645-42.0747 89.258-.6011 29.297 3.1347 43.71 5.8471 43.982 2.7124.271 104.8753 11.029 104.8753 11.029" stroke="#261611" stroke-linecap="round" stroke-linejoin="round" stroke-width=".5"/><path d="m158.365 182.2c4.08 4.299 7.136 24.849 5.067 31.293" stroke="#261611" stroke-linecap="round" stroke-linejoin="round" stroke-width=".5"/><path d="m183.924 274.562c6.677 4.12 16.417 13.855 37.487 12.947 21.07-.909 34.46-6.595 40.872-9.177 13.52-5.436 24.24-14.377 24.24-14.377" stroke="#261611" stroke-linecap="round" stroke-linejoin="round" stroke-width=".5"/><path d="m161.121 270.75s-17.763-.658-23.045-.979" stroke="#261611" stroke-linecap="round" stroke-linejoin="round" stroke-width=".5"/><path d="m81.9605 173.917c4.0222-2.782 7.9799-6.044 12.5459-8.411 3.0273-1.681 6.4336-2.926 9.4396-4.771 3.607-2.246 6.67-4.907 10.492-6.688 1.374-.665 5.597-1.852 5.532-3.626-.129-2.253-4.53-1.202-6.126-1.002.522-4.763-7.264-1.015-9.161-.615-3.471.766-6.999-.236-10.2697 2.125-3.7 2.739-4.2654 7.188-7.4716 10.028-3.0631 2.661-3.9506 5.851-4.7378 9.842-.3149 1.337-.6728 2.353-.5082 3.633l.2577-.522z" fill="#fde9d5" stroke="#261611" stroke-linecap="round" stroke-linejoin="round" stroke-width=".5"/><path d="m92.8319 132.181c1.5101-2.138 6.3338-3.726 7.5791-.322 1.467-2.453 3.378-5.293 6.606-5.379 1.302 2.59-6.005 6.281-6.434 9.249-.236 1.974 1.045 3.104.472 4.964-.73 1.874-2.5048 3.24-3.2348 5.114-1.7463 4.113-3.2492 7.546-6.0332 11.144-2.8054 3.44-5.067 7.288-7.5074 11.008-1.231 1.781-3.1991 4.134-3.4353 6.108-5.5751-3.018-2.1327-14.148-.5725-18.396 2.4905-7.125 4.9238-14.728 8.3018-21.315l4.2655-2.168z" fill="#dcbb93" stroke="#261611" stroke-linecap="round" stroke-linejoin="round" stroke-width=".5"/><path d="m79.7484 170.57c2.3045-7.317 10.1126-10.972 13.0755-18.182 1.5745-4.184 3.1847-9.327 3.2277-14.077.0572-2.095-.9161-4.627-.6728-6.551.2147-2.118 2.555-4.12.7443-5.601-1.9681-1.459-5.4677 1.645-6.942 2.782.0572-5.886-8.1444-4.084-10.1627-2.117-1.5673 1.717-2.5335 4.306-4.1437 5.651-1.7678 1.366-3.6214.844-5.11 3.118-2.9843 4.557.5225 7.904 1.4171 12.346.4723 2.403-.4581 4.041-.3292 6.301.1717 2.633 1.7534 3.57 2.6551 5.544 1.0449 3.09.3865 4.313 2.8198 6.852 1.3312 1.538 2.5049 3.097 2.3975 4.814l1.0234-.887z" fill="#fdd7ac" stroke="#261611" stroke-linecap="round" stroke-linejoin="round" stroke-width=".5"/><g mask="url(#b)"><path d="m241.478 175.147 76.785 55.104-34.131-78.865-61.849 6.523 2.62 5.35z" fill="#85e0d1"/><path d="m330.824 106.903-46.691 44.483 34.13 78.865z" fill="#a9f6ea" stroke="#261611" stroke-linecap="round" stroke-linejoin="round" stroke-width=".5"/><path d="m299.749 106.846 31.075.057-46.691 44.482-61.849 6.524-2.311-4.871 22.608-19.627 36.636-19.999z" fill="#7cd1c1"/><path d="m224.602 24.7549 54.613 116.7031 47.786-46.2922z" fill="#85e0d1" stroke="#261611" stroke-linecap="round" stroke-linejoin="round" stroke-width=".5"/><path d="m224.603 25.4697 54.613 116.2453-62.843 5.658c-1.954-1.996-2.784-3.305-4.738-5.293l12.968-116.6031z" fill="#a9f6ea"/><g stroke="#261611" stroke-linecap="round" stroke-linejoin="round" stroke-width=".5"><path d="m224.602 24.7549 54.613 116.7031 47.786-46.2922z"/><path d="m330.824 106.903-46.691 44.483 34.13 78.865z"/><path d="m223.715 162.401 94.548 67.851"/><path d="m284.132 151.386-62.386 6.58"/><path d="m215.156 147.144 64.061-5.686"/><path d="m224.602 24.7549-13.612 117.7331"/><path d="m330.824 106.903h-15.931"/><path d="m228.653 145.942-9.44 7.26"/></g><path d="m235.194 102.226c6.492 12.402 36.944 25.313 37.946 25.313s22.214-2.604 22.214-2.604-5.832 15.014-10.534 20.157c-4.695 5.15-29.637 10.579-42.884 10.729s-19.66 2.074-19.66 2.074l-3.07-4.706 9.44-7.253-13.498 1.194-4.158-4.656 8.216-71.0549 5.396-45.963s4.101 64.3526 10.592 76.7549z" fill="#aa8d6a" opacity=".33"/><path d="m325.018 162.064-1.86 20.142s-4.431 6.195-9.619 14.213c-3.664 5.658-12.324 21.129-12.324 21.129s.844-26.758 12.324-41.121z" fill="#aa8d6a" opacity=".33"/><path d="m248.399 156.057s-.851 13.926 3.4 18.003c4.251 4.07 20.719 13.425 33.028 12.145l12.31-1.28 9.34-9.985s-6.227 19.069-13.026 22.459-15.988 3.576-15.988 3.576l-61.348-43.373 32.277-1.545z" fill="#aa8d6a" opacity=".33"/></g><path d="m40.8651 180.705c-.2505-1.702-3.9434-6.094-5.5894-7.26-2.0684-1.208-2.6266-.593-4.7951.036-2.8627.894-3.8503-.122-6.7274-.822-6.9206-1.345-5.2817 5.028-1.3669 7.925 4.1151 3.426 7.3715 1.981 12.3597 2.467 2.6695.179 5.84 2.168 8.5452 1.924l-2.4404-4.27z" fill="#fdd7ac" stroke="#261611" stroke-linecap="round" stroke-linejoin="round" stroke-width=".5"/><path d="m63.1442 198.58c-.4294-1.638-2.24-3.748-2.6265-5.793-.6441-3.756.0573-6.631-2.741-9.757-5.3605-6.151-18.7437-7.624-26.3943-6.695-2.1184.215-10.5133 2.804-10.5133 2.804 3.2635 4.635 10.0625 4.37 12.2739 4.921 9.0605 2.733 18.4216 5.744 26.1223 11.201 1.3383.887 2.8197 2.125 3.743 2.969z" fill="#fde9d5" stroke="#261611" stroke-linecap="round" stroke-linejoin="round" stroke-width=".5"/><path d="m50.8284 152.474c-.7228-2.926-4.5732-5.651-7.3071-6.002-5.3031-.772-7.5861 3.713-11.9518 5.379-2.0969.801-4.201.007-6.2264.987-2.2043 1.045-3.2348 3.04-4.5159 4.936-4.1152 5.979 4.3728 5.128 8.3019 7.024 3.6857 1.788 7.214 5.235 10.6922 7.51 3.607 2.618 7.3214 5 10.821 7.861 6.2121 5.221 10.7137 13.304 19.3591 13.389-.0644-.171-.3077-.278-.551-.386l-18.622-40.691z" fill="#fdd7ac" stroke="#261611" stroke-linecap="round" stroke-linejoin="round" stroke-width=".5"/><path d="m62.6723 191.162c-4.7879-2.567-8.7599-6.652-13.0468-10.006-4.0508-3.247-9.0176-5.751-13.3904-8.276-4.3084-2.353-9.6759-3.297-13.4189-6.266-1.4099-1.058-3.5713-3.032-4.6305-4.227-1.6389-2.174-.8731-2.267 1.9109-2.332 4.9668-.1 8.4021 2.583 13.0396 3.205 5.5823.458 6.2336 5.815 10.7567 7.682 2.1756.965 4.8451 1.144 6.5198 2.904 1.367 1.473 1.6461 3.769 3.0846 5.422 1.3669 1.48 3.5426 2.446 4.9739 4.098 1.3026 1.302 1.8608 3.29 3.056 4.835 1.9466 2.454 4.8809 3.333 6.7775 4.607l-5.6396-1.638z" fill="#fde9d5" stroke="#261611" stroke-linecap="round" stroke-linejoin="round" stroke-width=".5"/><path d="m72.0834 198.601c-1.5101.351-4.1724-.586-5.7684-1.86-1.7963-.987-3.1776-2.267-3.7358-4.67-.823-3.205.9161-3.298 1.2166-5.751.6943-3.283-2.6766-9.334-3.3565-13.905-.6513-4.027-.9089-12.946 3.3637-14.527-.8517-3.748-5.1672-15.156 1.8608-14.177 1.7534.179 2.3044 2.311 3.6499 3.055 2.691 1.48.9733 1.845 3.2778.1 2.0755-2.01 2.7554-5.565 6.3195-4.127 5.7826 2.131 4.1223 11.966 3.9505 16.844-.2433 3.534 1.6103 5.601 1.3741 9.406s-2.5979 8.533-4.3943 11.609c-.594 1.116-.7657 1.938-1.6102 2.525l-6.1477 15.492z" fill="#fdd7ac" stroke="#261611" stroke-linecap="round" stroke-linejoin="round" stroke-width=".5"/><path d="m64.0324 180.405c-.0072-3.269-.5368-5.264 1.8178-7.947 1.6747-2.288 4.566-3.197 6.2407-5.486 1.7176-2.939 1.095-6.902 3.6643-9.577 2.3402-2.468 4.2225-1.259 6.8705-1.745 2.4333-.501 4.2797-2.125 7.3357-2.146 1.7534-.107 5.432.343 5.9473 2.56.7013 2.661-3.3709 5.014-4.7879 6.674-3.7788 4.556-6.7632 10.25-9.4971 15.528-1.9895 3.798-3.3279 11.123-6.985 13.726l-10.5992-11.573z" fill="#fde9d5" stroke="#261611" stroke-linecap="round" stroke-linejoin="round" stroke-width=".5"/><path d="m54.2493 156.851c.7729-2.067 1.46-7.109 1.0162-8.383-.4437-1.273.2792-1.166-1.188-3.311-1.4671-2.153-1.8106-2.54-2.7124-3.162s-.8946-.937-1.4385-.822c-.5439.114-.6012.021-.959.329-.3579.307-.3078 1.037-.7085 2.038-.4008 1.002-.8589 2.89-.7372 4.521.1217 1.63 1.0878 2.381 1.7677 4.227.6871 1.852 1.6103 3.548 1.9753 4.499.365.958 1.5316 1.237 2.0755 1.058.5439-.178.9089-.994.9089-.994z" fill="#ff664d" stroke="#261611" stroke-linecap="round" stroke-linejoin="round" stroke-width=".5"/><path d="m56.0095 154.233c.8946-3.097 1.9753-8.49-.4151-10.171-1.0592-.744-2.1685-.043-2.7195 1.187-.5511 1.231-.5654 8.498-.5797 9.971-.0144 1.474.6226 2.146 1.2667 2.518s1.8608-1.466 2.4476-3.512z" fill="#ff664d" stroke="#261611" stroke-linecap="round" stroke-linejoin="round" stroke-width=".5"/><path d="m48.8951 143.598c1.4314.035 3.836 4.191 4.4658 5.722.6298 1.53.8374 3.369.8803 4.32.043.951.0143 2.024-.0715 3.004-.0859.98-.8946 1.846-1.1666 1.996s-.365.529-1.6461.372c-1.281-.158-2.24-1.002-3.013-1.774-.7729-.78-2.1756-3.083-2.5621-4.041-.3865-.959-.9375-5.93-.4437-6.867s2.8126-2.747 3.5641-2.725z" fill="#ff664d" stroke="#261611" stroke-linecap="round" stroke-linejoin="round" stroke-width=".5"/><path d="m56.8751 151.201c-.1503.4.2004 2.825-.2433 3.984-.3149.815-1.0235 1.38-1.0235 1.38s.2362 2.189-.0715 3.126c-.3078.944-.9662 1.924-1.1165 2.081-.1431.165-.73.437-1.281.372-.5511-.057-1.274-.715-1.8966-1.301-.6298-.587-.8946-1.209-1.0807-1.402-.186-.193-.7443-.229-1.5888-.751-.8445-.515-2.0468-2.675-2.0468-2.675l-.458-.694s.1431-.293.7944.15c.6512.443 1.4098 1.08 1.7534 1.266.3507.186.7657.68.9733.837.2075.157.7228.679.7228.679s-.1717-.901-.2433-1.831-.8016-2.296-.8302-3.125c-.0286-.83 1.5459.915 1.5459.915s.5439 1.316 1.1952 1.667c.9876.522 2.4547.436 2.6193.679 0 0 .7372-1.86 1.2095-2.653.4724-.794 1.0807-2.718 1.0807-2.718z" fill="#fde9d5" stroke="#261611" stroke-linecap="round" stroke-linejoin="round" stroke-width=".5"/><path d="m55.129 160.6c-.136.193-.408.636-.4724 1.187-.1217 1.13.4151 2.797.4795 3.655.1002 1.28 3.7144 11.294 4.38 12.417.6727 1.123 7.2212 9.406 7.2212 9.406l.5081 3.791s-7.6792-10.179-8.7027-11.838c-1.0234-1.667-3.8718-11.895-4.3227-13.454-.4508-1.559-.8158-3.24-1.4385-3.727-.5654-.45-1.553-1.18-1.553-1.18l3.8933-.25z" fill="#fde9d5" stroke="#261611" stroke-linecap="round" stroke-linejoin="round" stroke-width=".5"/><path d="m100.575 173.131c2.355-3.298-1.5745-4.678-4.7664-3.985-8.4092 2.382-18.3858 10.4-22.916 17.789 5.8256-.15 14.2921-2.26 18.715-6.287z" fill="#fdd7ac" stroke="#261611" stroke-linecap="round" stroke-linejoin="round" stroke-width=".5"/><path d="m78.1665 197.35c-5.1171 4.899-13.1542 4.935-17.985-.479-3.5856-3.899-1.9968-11.423 2.0754-14.342 4.6877-3.576 10.5634-.135 15.702-.629 3.6857-.322 8.7098-1.781 11.3936-4.048 3.471-3.04 5.1314-7.74 7.8796-11.094 1.6962 11.358-14.013 20.807-18.6935 29.569z" fill="#fde9d5" stroke="#261611" stroke-linecap="round" stroke-linejoin="round" stroke-width=".5"/><path d="m62.0069 213.457c-3.9076 1.602-8.4951 7.854-12.6961 10.493-4.2869 2.36-8.1802 1.109-12.4671 1.566-4.2798.458-7.3357 3.677-10.864 5.465-5.2388 2.353-5.8041.644-10.2628-1.373-3.607-1.345-6.27651.164-9.88352-1.181-3.60702-1.344-6.734531-5.064-5.288861-8.39 1.538711-3.984 6.577081-4.055 8.967441-6.423 2.39034-2.367 2.39754-5.214 4.50164-7.489 2.6766-2.46 5.2387-2.353 8.5738-2.818 5.4248-.83 8.2017-4.907 13.9128-5.836 5.8041-.644 13.5835 3.762 18.6148 6.544 2.2758 1.152 11.5796 6.323 11.5725 7.275l-4.6734 2.167z" fill="#fdd7ac" stroke="#261611" stroke-linecap="round" stroke-linejoin="round" stroke-width=".5"/><path d="m64.003 219.15c-1.5316 5.129-.5511 10.143-4.4587 14.313-2.0254 2.239-4.6734 4.177-7.8796 3.762-.8445-.214-3.4567-1.86-3.9148-1.702-1.9037.408-.8087 2.067-1.553 3.605-.594 1.23-1.1093 2.682-2.4762 3.154-1.8178.637-2.3832-1.717-3.149-1.709-2.2115.257-4.0006 3.175-6.3409 4.506-4.3156 2.267-12.9466.937-14.8432-3.763-2.605-6.744 4.1366-10.113 7.0423-14.956 3.285-5.228 5.432-10.056 10.8783-13.483 5.067-3.039 9.3897-4.549 15.1151-4.241 2.5908.122 15.7521 3.447 14.5569 5.143z" fill="#fde9d5" stroke="#261611" stroke-linecap="round" stroke-linejoin="round" stroke-width=".5"/><path d="m22.4785 240.394c3.7573-1.309 6.8848-2.776 9.9336-5.565 3.9005-3.655 6.756-8.09 11.4079-10.672 7.2713-3.869 17.62-3.834 23.3598-10.428" fill="#fde9d5"/><path d="m22.4785 240.394c3.7573-1.309 6.8848-2.776 9.9336-5.565 3.9005-3.655 6.756-8.09 11.4079-10.672 7.2713-3.869 17.62-3.834 23.3598-10.428" stroke="#261611" stroke-linecap="round" stroke-linejoin="round" stroke-width=".5"/><path d="m59.9809 218.35c-1.8965 3.34-2.2186 9.577-6.3051 11.573z" fill="#fde9d5"/><path d="m59.9809 218.35c-1.8965 3.34-2.2186 9.577-6.3051 11.573" stroke="#261611" stroke-linecap="round" stroke-linejoin="round" stroke-width=".5"/><path d="m55.544 219.894c-3.242-2.696-9.4898-4.155-13.2901-1.881z" fill="#fde9d5"/><path d="m55.544 219.894c-3.242-2.696-9.4898-4.155-13.2901-1.881" stroke="#261611" stroke-linecap="round" stroke-linejoin="round" stroke-width=".5"/><path d="m49.2818 222.262c-.1216 3.49-1.3168 8.304-4.0865 10.8z" fill="#fde9d5"/><path d="m49.2818 222.262c-.1216 3.49-1.3168 8.304-4.0865 10.8" stroke="#261611" stroke-linecap="round" stroke-linejoin="round" stroke-width=".5"/><path d="m43.9286 223.935c-4.2225.515-8.4879-1.831-11.5653 3.069z" fill="#fde9d5"/><path d="m43.9286 223.935c-4.2225.515-8.4879-1.831-11.5653 3.069" stroke="#261611" stroke-linecap="round" stroke-linejoin="round" stroke-width=".5"/><path d="m38.6672 228.062c-2.5478 2.032-2.0683 7.797-2.2043 10.715z" fill="#fde9d5"/><path d="m38.6672 228.062c-2.5478 2.032-2.0683 7.797-2.2043 10.715" stroke="#261611" stroke-linecap="round" stroke-linejoin="round" stroke-width=".5"/><path d="m33.4294 233.906c-2.8771-1.101-6.9779-.25-9.4685 1.96z" fill="#fde9d5"/><path d="m33.4294 233.906c-2.8771-1.101-6.9779-.25-9.4685 1.96" stroke="#261611" stroke-linecap="round" stroke-linejoin="round" stroke-width=".5"/><path d="m27.7686 237.983c-.2648 1.431-.3579 3.376-1.4815 4.535z" fill="#fde9d5"/><path d="m27.7686 237.983c-.2648 1.431-.3579 3.376-1.4815 4.535" stroke="#261611" stroke-linecap="round" stroke-linejoin="round" stroke-width=".5"/><path d="m137.755 200.504c-1.897.307-4.559 1.459-6.499-.1-4.759-3.612-.293-8.798.695-12.668 1.431-5.407.229-8.74 5.639-11.816 4.738-3.033 4.938-6.988 8.316-10.843 2.434-2.633 4.18-1.631 7.121-1.817 2.827-.329 4.531-2.389 6.899-3.305 5.697-2.117 8.438 2.847 11 7.003 1.06-1.073 4.824-2.618 4.631.15-.122 1.051-3.693 3.154-4.688 3.698-3.485 2.51-7.257 4.063-11.172 5.729-8.094 3.298-15.795 8.898-18.271 17.51-.687 2.439-.794 5.615-2.383 7.818-.408.086-.229-.293-.608-.472l-.695-.88z" fill="#fde9d5" stroke="#261611" stroke-linecap="round" stroke-linejoin="round" stroke-width=".5"/><path d="m139.43 201.319c-.701-13.232 10.306-29.998 24.333-31.801.172.02.308-.009.408-.085" stroke="#261611" stroke-linecap="round" stroke-linejoin="round" stroke-width=".5"/><path d="m126.261 234.45c6.756 1.803 13.147-2.932 17.642-7.488 3.972-4.228 7.027-9.463 11.028-13.419 4.487-4.549 8.917-4.163 7.923 2.511 5.553-7.675 6.319 5.686 5.031 9.37-2.426 5.994-7.593 9.241-13.519 10.371 5.732-.286-.795 3.09-3.486 3.634-3.506.615-6.763.937-10.076.715-4.967-.336-12.196-1.273-15.531-4.506l.981-1.195z" fill="#fdd7ac" stroke="#261611" stroke-linecap="round" stroke-linejoin="round" stroke-width=".5"/><path d="m137.533 205.489c10.248-6.33 27.103-10.164 37.323-1.809 4.473 3.554 11.608 18.36 16.367 10.113 2.025-3.268 1.746-7.395.308-10.55-.608-1.395-2.992-3.204-3.378-4.234-.995-2.425.787-2.003.386-4.285-.121-3.462-2.87-5.049-2.92-8.812-.136-4.72 1.854-5.185-3.199-7.632-4.752-2.374-5.976.151-10.399.358-3.535.415-5.346-2.511-8.903-3.347-7.922-2.182-12.23 6.795-16.89 11.945-3.785 4.105-8.652 10.142-9.454 16.2-.35 1.481-.279 1.181.172 1.917l.594.143z" fill="#fdd7ac" stroke="#261611" stroke-linecap="round" stroke-linejoin="round" stroke-width=".5"/><path d="m137.104 205.854c1.624-6.881 11.071-12.596 17.119-14.935 13.325-5.15 22.135.544 28.018 8.483" stroke="#261611" stroke-linecap="round" stroke-linejoin="round" stroke-width=".5"/><path d="m313.533 163.353s-17.856 45.477-22.193 50.14c-4.337 4.664-17.348 16.394-26.53 10.021-9.183-6.373-13.777-17.667-14.543-22.545-.959-6.101 1.832-18.197 1.832-18.197l22.401 15.901s18.114-1.824 27.561-16.48c7.858-12.181 11.465-18.847 11.465-18.847z" fill="#aa8d6a" opacity=".33"/><path d="m103.517 178.895c-3.9143 6.151-11.9585 20.399-14.8785 30.12-2.9056 9.699-2.6766 28.188 6.9063 27.058 9.5832-1.13 16.9182-37.916 21.6282-46.742 4.709-8.834 19.072-14.678 22.458-23.211 3.392-8.526-16.411 1.788-21.456 1.188-5.046-.601-10.857 5.614-14.658 11.587z" fill="#aa8d6a" opacity=".33"/><path d="m102.006 119.013-7.1136-15.886 7.1066-14.2482-6.3408-4.871s-7.944 18.3612-7.9512 18.5322c-.0071.172 10.6851 16.967 10.6207 17.131" fill="#ffb7a6"/><path d="m102.006 119.013-7.1136-15.886 7.1066-14.2482-6.3408-4.871s-7.944 18.3612-7.9512 18.5322c-.0071.172 10.6851 16.967 10.6207 17.131" stroke="#261611" stroke-linecap="round" stroke-linejoin="round" stroke-width=".5"/><path d="m98.1133 119.228c.1216.129 2.7477 4.113 2.8987 4.191.15.079 2.569 1.746 2.569 1.746l2.14 1.459.58-1.102-2.104-2.989 2.905 1.466-.615 4.37s1.066 2.146 1.309 1.81c.244-.336 2.355-5.586 2.355-5.586l-2.383-3.391-6.592-4.234" fill="#ffb7a6"/><path d="m98.1133 119.228c.1216.129 2.7477 4.113 2.8987 4.191.15.079 2.569 1.746 2.569 1.746l2.14 1.459.58-1.102-2.104-2.989 2.905 1.466-.615 4.37s1.066 2.146 1.309 1.81c.244-.336 2.355-5.586 2.355-5.586l-2.383-3.391-6.592-4.234" stroke="#261611" stroke-linecap="round" stroke-linejoin="round" stroke-width=".5"/><path d="m107.06 78.6292s3.972 1.8597 2.655 4.7351-10.9858 14.4842-10.9858 14.4842l-9.948-7.0669s11.1002-15.4068 18.2788-12.1524z" fill="#513107" stroke="#261611" stroke-linecap="round" stroke-linejoin="round" stroke-width=".5"/><path d="m118.332 53.8377c1.245 1.3519 2.068 2.6966 2.175 4.3131l-.501 1.266s1.94 2.4749 2.541 2.8468l-2.154.3576.744 1.8955c-.057.5078-.372.8655-1.152.8082l-.251 1.4234s1.017 1.2732-.393 2.0242c-1.41.7511-5.504-1.2875-5.504-1.2875l-2.369 11.523c-4.387.9227-9.833-1.6451-11.5364-5.8366l6.0614-9.792 1.203-12.0523c4.487.7368 9.189 1.452 11.143 2.5106z" fill="#ffb7a6" stroke="#261611" stroke-linecap="round" stroke-linejoin="round" stroke-width=".5"/><path d="m118.411 59.7471c.115-.353-.093-.7375-.465-.8588-.372-.1212-.767.0667-.882.4197-.115.3531.093.7375.465.8588.372.1212.767-.0667.882-.4197z" fill="#261611"/><path d="m120.207 55.6834-6.799 1.9885s.336 11.2297-5.139 15.7931c-1.91 1.595-7.679.2217-10.2552 4.3917l-2.0826 6.5876c-2.9558.1645-7.6649-3.5477-5.1744-8.6404 0 0 8.0943-4.5205 8.123-10.9579.0071-2.1816 3.4492-2.2674 4.2082-5.4289.379-1.6022 1.374-4.0341 1.467-5.529.179-2.9469-.172-4.7279 5.246-6.6878 5.418-1.9598 9.705 1.9885 10.406 8.4974z" fill="#261611" stroke="#261611" stroke-miterlimit="10" stroke-width=".5"/><path d="m120.936 53.6304-1.539-5.1285s-3.435-2.6322-7.922-2.0814c-4.487.5436-7.093 3.5835-7.093 3.5835l-.515 6.9166z" fill="#ff6330" stroke="#261611" stroke-linecap="round" stroke-linejoin="round" stroke-width=".5"/><path d="m104.083 53.9669-.222 2.9541 17.076-3.2902-.823-2.7324z" fill="#261611" stroke="#261611" stroke-linecap="round" stroke-linejoin="round" stroke-width=".5"/><path d="m130.105 54.2882-34.8394 6.4375s8.9744-6.4232 16.1744-7.6606c3.936-.6795 18.665 1.2303 18.665 1.2303z" fill="#ff6330" stroke="#261611" stroke-linecap="round" stroke-linejoin="round" stroke-width=".5"/><path d="m88.6387 190.154c.3292-1.059.5081-2.153.3507-3.226-.2362-1.638 4.3227-32.588 4.3227-32.588l-2.8628-21.622 12.9897 2.746c0 .801 2.168 15.579 2.168 15.579l-9.9404 38.317" fill="#ffb7a6"/><path d="m88.6387 190.154c.3292-1.059.5081-2.153.3507-3.226-.2362-1.638 4.3227-32.588 4.3227-32.588l-2.8628-21.622 12.9897 2.746c0 .801 2.168 15.579 2.168 15.579l-9.9404 38.317" stroke="#261611" stroke-linecap="round" stroke-linejoin="round" stroke-width=".5"/><path d="m95.5509 189.059 11.0711 15.751s2.62 3.047-2.34 1.029l-20.5183-12.581s-.0143-2.289 1.7963-3.705c1.0378-.816 2.283-1.731 3.3065-2.825" fill="#ffb7a6"/><path d="m95.5509 189.059 11.0711 15.751s2.62 3.047-2.34 1.029l-20.5183-12.581s-.0143-2.289 1.7963-3.705c1.0378-.816 2.283-1.731 3.3065-2.825" stroke="#261611" stroke-linecap="round" stroke-linejoin="round" stroke-width=".5"/><path d="m104.712 200.318c-.036.072-3.314 4.127-3.314 4.127l4.445 2.289-.716 1.18-23.6387-11.423 1.4385-2.803 9.2179 4.906 8.0653-4.062 4.495 5.772z" fill="#261611" stroke="#261611" stroke-linecap="round" stroke-linejoin="round" stroke-width=".5"/><path d="m111.511 157.588c-.236-1.638 6.756-27.288 6.756-27.288l-20.7904.88 3.0984-14.069 26.767-.294 6.176 7.439-15.33 35.749" fill="#ffb7a6"/><path d="m111.511 157.588c-.236-1.638 6.756-27.288 6.756-27.288l-20.7904.88 3.0984-14.069 26.767-.294 6.176 7.439-15.33 35.749" stroke="#261611" stroke-linecap="round" stroke-linejoin="round" stroke-width=".5"/><path d="m118.438 155.82 18.114 6.545s3.894.987-1.324 2.182l-24.025 1.466s-1.324-1.874-.658-4.063c.379-1.259.88-2.725 1.087-4.213" fill="#ffb7a6"/><path d="m118.438 155.82 18.114 6.545s3.894.987-1.324 2.182l-24.025 1.466s-1.324-1.874-.658-4.063c.379-1.259.88-2.725 1.087-4.213" stroke="#261611" stroke-linecap="round" stroke-linejoin="round" stroke-width=".5"/><path d="m132.402 159.776c.014.079-.344 5.279-.344 5.279l4.96-.673.093 1.381-25.915 4.206-.436-3.119 10.37-1.273 4.273-7.954 6.999 2.146z" fill="#261611" stroke="#261611" stroke-linecap="round" stroke-linejoin="round" stroke-width=".5"/><path d="m111.34 78.0785-8.817-3.4476s-4.7955 1.5879-7.1643 12.9821c-2.3618 11.387-4.5446 19.756-4.2941 19.899s21.1554 6.044 21.2124 5.357c.058-.687 1.575-15.0563 1.94-16.2937l2.412-3.8553c.286-.4649-2.713-13.49-5.289-14.6344z" fill="#513107" stroke="#261611" stroke-linecap="round" stroke-linejoin="round" stroke-width=".5"/><path d="m111.647 109.314-18.8938-3.14-7.0208 41.986s14.3206.851 24.4116-6.13 12.839-26.686 12.839-26.686z" fill="#261611" stroke="#261611" stroke-linecap="round" stroke-linejoin="round" stroke-width=".5"/><path d="m122.495 120.608-10.957-13.211-3.385-16.6158-8.5163.0644s5.3823 20.6214 5.4823 20.7714 15.172 12.117 15.222 12.303" fill="#ffb7a6"/><path d="m122.495 120.608-10.957-13.211-3.385-16.6158-8.5163.0644s5.3823 20.6214 5.4823 20.7714 15.172 12.117 15.222 12.303" stroke="#261611" stroke-linecap="round" stroke-linejoin="round" stroke-width=".5"/><path d="m122.495 120.608c.143.136 3.149 1.338 3.149 1.338l3.493 2.568.329 4.721-2.426 1.294-2.956-1.659-3.75-4.957" fill="#ffb7a6"/><g stroke-width=".5"><path d="m122.495 120.608c.143.136 3.149 1.338 3.149 1.338l3.493 2.568.329 4.721-2.426 1.294-2.956-1.659-3.75-4.957" stroke="#261611" stroke-linecap="round" stroke-linejoin="round"/><path d="m105.678 78.858s4.551-1.0371 5.332 2.2388c.78 3.276.279 19.3552.279 19.3552l-12.9828.586s-.7944-20.2058 7.3718-22.18z" fill="#513107" stroke="#261611" stroke-linecap="round" stroke-linejoin="round"/><path d="m141.847 124.913c.458-1.745-1.288-7.488-2.39-9.298-1.489-2.017-2.29-1.652-4.631-1.938-3.12-.315-3.657-1.703-6.133-3.562-6.112-4.149-7.157 2.668-4.58 7.074 2.555 4.992 6.283 4.935 10.885 7.46 2.498 1.266 4.731 4.485 7.436 5.371l-.587-5.114z" fill="#fdd7ac" stroke="#261611" stroke-linecap="round" stroke-linejoin="round"/><path d="m155.94 151.293c.264-1.753-.616-4.528-.144-6.666.931-3.884 2.784-6.359 1.375-10.522-2.634-8.133-14.915-15.056-22.666-17.309-2.133-.666-11.286-1.624-11.286-1.624 1.231 5.808 7.894 8.347 9.797 9.792 7.601 6.359 15.38 13.111 20.548 21.537.93 1.409 1.839 3.204 2.383 4.398l-.015.394z" fill="#fde9d5" stroke="#261611" stroke-linecap="round" stroke-linejoin="round"/><path d="m165.744 150.291c5.389-2.539 10.792-5.664 16.747-7.596 3.972-1.416 8.316-2.231 12.295-3.848 4.781-1.974 8.989-4.556 13.941-5.937 1.783-.522 7.1-1.101 7.372-3.247.301-2.732-5.203-2.353-7.157-2.425 1.582-5.622-8.524-2.675-10.878-2.567-4.323.228-8.359-1.688-12.753.5-4.996 2.554-6.563 7.782-10.979 10.55-4.215 2.583-5.919 6.238-7.658 10.873-.644 1.545-1.274 2.696-1.338 4.255l.415-.572z" fill="#fde9d5" stroke="#261611" stroke-linecap="round" stroke-linejoin="round"/><path d="m187.15 102.333c2.24-2.268 8.352-3.2117 9.168 1.13 2.254-2.654 5.117-5.6793 9.01-5.1428 1.045 3.3688-8.466 6.3368-9.583 9.8208-.672 2.324.637 3.941-.422 6.058-1.252 2.11-3.657 3.391-4.909 5.493-2.92 4.592-5.411 8.412-9.476 12.174-4.058 3.569-7.543 7.747-11.222 11.723-1.832 1.889-4.673 4.328-5.346 6.652-6.09-4.735.265-17.423 2.992-22.216 4.422-8.061 8.86-16.701 14.227-23.947l5.554-1.752z" fill="#fdd7ac" stroke="#261611" stroke-linecap="round" stroke-linejoin="round"/><path d="m163.068 101.818c.508-3.1184-2.076-7.3242-4.566-8.7905-4.788-2.9254-8.839.4506-13.727.2647-2.347-.0859-4.051-1.7167-6.405-1.6094-2.548.1001-4.373 1.5951-6.377 2.8897-6.427 4.0627 2.097 6.7375 5.103 10.1785 2.82 3.24 4.795 8.011 7.207 11.63 2.397 4.006 4.995 7.825 7.185 12.024 3.829 7.589 4.838 17.223 13.126 20.864.007-.193-.179-.401-.372-.601z" fill="#dcbb93" stroke="#261611" stroke-linecap="round" stroke-linejoin="round"/><path d="m158.537 143.947c-3.557-4.442-5.697-10.007-8.445-15.006-2.562-4.8-6.312-9.249-9.483-13.483-3.178-4.034-7.958-7.153-10.341-11.552-.924-1.602-2.19-4.3915-2.713-5.9794-.68-2.7681.093-2.5463 2.798-1.4591 4.824 1.9455 7.028 5.9435 11.244 8.4545 5.188 2.739 3.614 8.168 7.199 11.823 1.697 1.824 4.194 3.097 5.082 5.479.708 1.989.036 4.313.737 6.495.708 1.988 2.405 3.812 3.106 5.994.716 1.788.444 3.934.952 5.908.859 3.169 3.328 5.214 4.623 7.224l-4.752-3.898z" fill="#fde9d5" stroke="#261611" stroke-linecap="round" stroke-linejoin="round"/><path d="m159.733 137.839c-1.346.351-3.765-.451-5.225-1.559-1.639-.851-2.898-1.981-3.457-4.134-.801-2.869.759-2.983.988-5.2.565-2.969-2.591-8.348-3.292-12.439-.666-3.612-1.066-11.63 2.741-13.132-.837-3.3549-4.945-13.5331 1.396-12.7892 1.581.1216 2.118 2.0385 3.342 2.6751 2.455 1.2803.909 1.6379 2.948.0214 1.825-1.8454 2.369-5.0569 5.604-3.8338 5.239 1.8025 3.944 10.6789 3.879 15.0775-.15 3.183 1.553 5.007 1.417 8.433s-2.168 7.725-3.729 10.522c-.515 1.016-.651 1.759-1.395 2.303l-5.225 14.048z" fill="#dcbb93" stroke="#261611" stroke-linecap="round" stroke-linejoin="round"/><path d="m154.136 116.881c-.265.673-.386 1.302-.487 1.96l-.014.072c-.021.172-.05.343-.071.522-.036.272-.079.544-.129.815-.036.272-.093.58-.222.794 0 0 0 .007-.007.015-.036.064-.079.121-.129.164-.551.501-.995-.107-1.267-.622-.114-.222-.222-.458-.315-.701-.358-.916-.594-1.91-1.002-2.804-.486-1.051-.866-2.146-.286-3.412.895-2.095 3.693-2.382 4.623-.129.451 1.102-.293 2.332-.687 3.334z" fill="#ff664d" stroke="#261611" stroke-linecap="round" stroke-linejoin="round"/><path d="m150.357 122.783c-.358.25-.995.3-1.403.386-.522.1-1.052.207-1.581.315-.323.064-.637.128-.959.193-1.561.307-3.042.565-4.502-.244-.873-.479-1.861-1.28-2.076-2.31-.264-1.237.788-2.038 1.747-2.589 1.066-.63 1.817-.794 2.948-.293 1.246.55 2.634 1.001 3.908 1.573.343.158.673.322.995.501.179.1.336.214.486.336.05.007.101.029.136.079.05.064.108.129.158.2.043.043.078.093.114.143.43.565.759 1.209.029 1.717z" fill="#ff664d" stroke="#261611" stroke-linecap="round" stroke-linejoin="round"/><path d="m152.44 120.651c-.107.515-.386.858-.744 1.066-.014.014-.028.021-.043.021-.637.351-1.517.308-2.226.058-.085-.029-.171-.065-.25-.101-.959-.429-1.753-1.144-2.712-1.602-1.067-.5-2.226-.808-3.278-1.359-1.589-.829-2.491-1.981-2.383-3.826.178-3.04 3.12-6.066 6.19-4.8.422.129.823.351 1.174.687 1.288 1.237 1.567 3.369 2.218 4.964.487 1.187 1.088 2.296 1.675 3.44.193.358.379.694.394 1.08.014.115.007.236-.022.358z" fill="#ff664d" stroke="#261611" stroke-linecap="round" stroke-linejoin="round"/><path d="m158.795 138.841c.021.1-.845 1.738-.873 1.645-.709-2.568-5.368-16.595-5.79-16.795-.322-.15-1.718-.665-1.925-.98-.415-.665.279-1.301.801-1.595.63-.35 1.546-.715 2.04.029.193.286.079 1.438.036 1.774-.093.651 3.757 6.33 5.711 15.922z" fill="#fde9d5" stroke="#261611" stroke-linecap="round" stroke-linejoin="round"/><path d="m163.395 103.592c-.085-2.94-.608-4.721 1.446-7.1886 1.453-2.1029 4.029-2.9827 5.482-5.0784 1.475-2.6894.823-6.2372 3.07-8.6977 2.047-2.2746 3.772-1.2303 6.141-1.7238 2.176-.5078 3.8-2.0099 6.548-2.1029 1.575-.1359 4.896.186 5.404 2.1601.694 2.3747-2.92 4.592-4.151 6.1084-3.292 4.1843-5.84 9.3772-8.18 14.1839-1.696 3.462-2.734 10.078-5.962 12.503l-9.805-10.164z" fill="#dcbb93" stroke="#261611" stroke-linecap="round" stroke-linejoin="round"/><path d="m163.884 82.6201c-.902 4.7422-.666 9.6132-.802 14.4341-.15 5.3218-.744 10.6288-1.789 15.8508" stroke="#261611" stroke-linecap="round" stroke-linejoin="round"/><path d="m169.223 79.2799c-.143-.2718-.301-.5365-.466-.8083-.164-.2718-.329-.5364-.493-.8011-.337-.5364-.673-1.0872-.931-1.6665-.179-.4077-.336-.8441-.422-1.2804s-.114-.8869-.072-1.3232c-.407.4005-.951.701-1.51.9227-.429.1788-.88.3147-1.338.4506-.229.0715-.458.1431-.687.2146-.229.0787-.451.1573-.673.2503-1.166.4721-2.247 1.2374-3.113 2.2388-.666.7654-1.231 1.731-1.231 2.7681 0 .1431.014.2861.036.4292.043.2789.122.5436.222.8011.522 1.9026.88 3.8123 1.267 5.7006.386 1.8883.815 3.7552 1.438 5.5148.122.3361.243.6723.408.987s.365.608.608.8655c.136.143.301.2718.494.3219.487.1216.945-.2861 1.245-.6652.215-.2718.408-.5508.587-.8369.186-.2861.351-.5794.494-.8798.072-.1502.143-.3004.208-.4506.071-.1502.136-.3004.2-.4578.129-.3004.236-.6079.351-.9155.207-.5508.365-1.1015.551-1.6523.107-.329.2-.6652.322-.9942.114-.329.229-.658.35-.9799.48-1.2088 1.095-2.3532 1.818-3.3975.358-.3076.644-.6509.809-1.0586.437-1.0086.064-2.2102-.494-3.2903z" fill="#ff664d" stroke="#261611" stroke-linecap="round" stroke-linejoin="round"/><path d="m166.108 85.0519c-1.03.3434-2.097.6438-3.056 1.1516-.565-.4578-1.152-.9298-1.71-1.4234-.551-.4935-1.102-1.0085-1.618-1.5664-.458-.5079-.908-1.0872-1.195-1.7381.523 1.9026.881 3.8124 1.267 5.7007.387 1.8883.816 3.7551 1.439 5.5147.121.3362.243.6723.408.9871.164.3147.365.6079.608.8654.136.1431.3.279.494.3219.486.1216.944-.2861 1.245-.6652.215-.2718.408-.5508.587-.8369.186-.2861.35-.5793.494-.8797.071-.1503.143-.3005.207-.4507.072-.1502.136-.3004.201-.4577.128-.3076.236-.608.35-.9156.208-.5507.365-1.1015.551-1.6522.108-.3362.201-.6652.322-.9943.115-.329.229-.658.351-.9799.48-1.2088 1.095-2.3532 1.818-3.4047-.358.3148-.802.5794-1.281.8154-.48.2361-.988.4364-1.496.6009z" fill="#f94a38" stroke="#261611" stroke-linecap="round" stroke-linejoin="round"/><path d="m162.616 75.2316c-.151.0572-.294.1287-.444.1931.286-.1216.565-.236.844-.3505-.136.0501-.272.1002-.408.1574z" fill="#85e0d1" stroke="#261611" stroke-linecap="round" stroke-linejoin="round"/></g><path d="m161.822 86.0748c0-3.2044 1.811-7.1456 2.741-7.1956.931-.0501-.451 6.8952-.286 7.7249" fill="#e1c092"/><path d="m161.822 86.0748c0-3.2044 1.811-7.1456 2.741-7.1956.931-.0501-.451 6.8952-.286 7.7249" stroke="#261611" stroke-linecap="round" stroke-linejoin="round" stroke-width=".5"/><path d="m170.189 81.5539c-.15-.472-.343-.9369-.594-1.3947.158.4148.258.8297.279 1.2374.036.4077-.021.8011-.179 1.173-.128.3148-.322.5937-.565.8369-.251.2503-.522.4721-.852.6723-.651.4006-1.41.7153-2.168.9657-.387.1287-.773.2503-1.16.379-.386.1288-.765.2647-1.138.4221-.744.3075-1.46.6938-2.025 1.266l.508.3004c.902-.422 1.925-.4935 2.913-.6223.837-.1073 1.66-.2575 2.469-.4435.63-.143 1.267-.3147 1.746-.6723.423-.3147.666-.751.831-1.1945.078-.2289.128-.4649.164-.7081.036-.2361.05-.4792.043-.7296 0-.1216-.014-.2503-.028-.3719-.015-.1216-.029-.2504-.051-.372-.043-.2503-.107-.5007-.186-.7439z" fill="#85e0d1" stroke="#261611" stroke-linecap="round" stroke-linejoin="round" stroke-width=".5"/><path d="m170.189 81.5539c-.15-.472-.343-.9369-.594-1.3947.158.4148.258.8297.279 1.2374.036.4077-.021.8011-.179 1.173-.128.3148-.322.5937-.565.8369-.251.2503-.522.4721-.852.6723-.651.4006-1.41.7153-2.168.9657-.387.1287-.773.2503-1.16.379-.386.1288-.765.2647-1.138.4221-.744.3075-1.46.6938-2.025 1.266l.508.3004c.902-.422 1.925-.4935 2.913-.6223.837-.1073 1.66-.2575 2.469-.4435.63-.143 1.267-.3147 1.746-.6723.423-.3147.666-.751.831-1.1945.078-.2289.128-.4649.164-.7081.036-.2361.05-.4792.043-.7296 0-.1216-.014-.2503-.028-.3719-.015-.1216-.029-.2504-.051-.372-.043-.2503-.107-.5007-.186-.7439z" fill="#ff664d" stroke="#261611" stroke-linecap="round" stroke-linejoin="round" stroke-width=".5"/><path d="m164.341 87.2336c-1.56-1.2589-3.192-2.4892-4.616-4.027-.737-.8083-1.453-1.7953-1.453-2.9684 0-1.0371.559-2.0027 1.231-2.768.373-.4364.802-.8226 1.246-1.1659.443-.3434.923-.6366 1.424-.8727-.465.2003-.945.4149-1.389.6652-.601.3362-1.216.7225-1.746 1.1945-.272.2361-.529.4864-.773.7582-.243.2718-.458.5651-.658.8726-.408.6223-.687 1.3376-.845 2.0743-.071.372-.1.7439-.1 1.1158 0 .372.05.7368.15 1.0944.108.3862.258.7439.451 1.0729.194.329.43.6366.694.9084.523.5507 1.146.9942 1.811 1.3375 1.324.6867 2.756 1.0729 4.115 1.6309.408.1645.816.3504 1.203.5436.357.1716.694-.2504.393-.5007-.372-.3219-.751-.6366-1.138-.9513z" fill="#ff664d" stroke="#261611" stroke-linecap="round" stroke-linejoin="round" stroke-width=".5"/><path d="m163.762 145.836c4.237-8.326 14.335-11.158 19.345-19.226 2.727-4.714 5.69-10.565 6.691-16.258.487-2.504-.171-5.744.501-8.011.68-2.4967 3.894-4.4423 2.011-6.5738-2.075-2.1458-6.891.887-8.888 1.9599 1.245-7.0597-8.961-6.5304-11.78-4.5706-2.219 1.7524-3.901 4.6707-6.105 5.9653-2.398 1.2872-4.516.2861-6.763 2.7252-4.495 4.878-.952 9.599-.766 15.106.086 2.983-1.36 4.764-1.653 7.504-.315 3.197 1.388 4.642 2.082 7.188.637 3.92-.393 5.257 2.019 8.791 1.295 2.11 2.39 4.22 1.918 6.265l1.402-.865z" fill="#fdd7ac" stroke="#261611" stroke-linecap="round" stroke-linejoin="round" stroke-width=".5"/><path d="m190.484 144.269c2.226-1.874-.258-3.533-2.605-3.626-6.277.157-14.65 3.955-19.123 8.29 4.079.937 10.349.979 14.149-1.038l7.586-3.633z" fill="#fdd7ac" stroke="#261611" stroke-linecap="round" stroke-linejoin="round" stroke-width=".5"/><path d="m161.228 156.092c-6.305.937-12.223-3.204-12.961-9.692-.601-4.721 4.473-9.427 8.982-9.456 5.296-.193 7.83 5.386 11.859 7.697 2.877 1.673 7.329 3.211 10.47 2.939 4.13-.429 7.794-3.025 11.551-4.055-4.659 9.227-21.112 8.004-29.099 12.009z" fill="#fde9d5" stroke="#261611" stroke-linecap="round" stroke-linejoin="round" stroke-width=".5"/></g></svg>