<svg fill="none" height="26" viewBox="0 0 26 26" width="26" xmlns="http://www.w3.org/2000/svg"><path d="m3.3316 2.48455c-.40852-.02475-.82941-.03713-1.18841.24759-.17331.14855-.40852.38376-.32187.68086.01238.02476.02476.0619.03714.08666 0 .01238.01238.01238.01238.02476.01238.01237.02476.03713.03714.04951 0 .01238.01238.01238.01238.02476l.03714.03714c.01238 0 .01238.01238.02475.01238.01238.01238.03714.02476.04952.03714.01238 0 .02476.01238.02476.01238.01238.01238.03714.02475.0619.02475.01238 0 .02476.01238.03713.01238.02476.01238.03714.01238.0619.01238.01238 0 .02476 0 .03714.01238.02476 0 .04952.01238.07428.01238h.04951.04952.02476c.42089-.01238.85417-.01238 1.27507 0h.37138.12379c0 .02476 0 .03714-.01238.0619 0 .02476-.01238.04952-.01238.07427 0 .02476-.01238.04952-.01238.07428s-.01238.04952-.01238.07428c0 .02475-.01238.04951-.01238.07427s-.01238.04952-.01238.0619c-.01238.02476-.01238.04952-.02475.0619-.01238.02475-.01238.03713-.02476.06189s-.01238.03714-.02476.0619-.01238.03714-.02476.06189c-.01238.02476-.02476.03714-.02476.0619-.01238.01238-.01238.03714-.02476.04952-.01238.02476-.02476.03714-.03714.04952-.01238.02475-.02475.04951-.02475.06189-.01238.01238-.02476.03714-.03714.04952s-.02476.03714-.03714.04952-.02476.03713-.03714.04951-.02476.02476-.03714.04952c-.01238.01238-.02475.02476-.04951.04952-.01238.01238-.02476.02476-.03714.03714s-.03714.02476-.04952.03713c-.01238.01238-.02476.02476-.03714.03714s-.03713.02476-.04951.03714-.02476.02476-.04952.03714-.03714.02476-.0619.03714c-.01238.01238-.02476.02476-.04952.02476-.02475.01237-.03713.02475-.06189.03713-.01238.01238-.02476.01238-.04952.02476s-.04952.02476-.07427.03714c-.01238 0-.02476.01238-.03714.01238-.03714.01238-.08666.03714-.1238.04952-.06189.02475-.11141.03713-.17331.04951-.02475 0-.03713.01238-.06189.01238-.03714.01238-.07428.01238-.1238.02476-.02475 0-.04951.01238-.08665.01238s-.0619.01238-.09904.01238c-.03713 0-.06189 0-.09903 0-.02476 0-.04952 0-.07428 0-.03713 0-.07427 0-.09903 0s-.04952 0-.07428 0c-.03713 0-.07427 0-.11141 0-.02476 0-.04952 0-.0619 0-.03713 0-.07427 0-.11141-.01238-.02476 0-.03714 0-.0619 0-.03713 0-.06189-.01238-.09903-.01238-.02476 0-.04952 0-.07428-.01238-.928445-.74276-1.250307-1.80738-.84179-2.84724.4209-1.077 1.31221-1.596931 2.58728-1.52265.28472.09903.56944.21044.82941.35899.04952.02476.08666.04952.12379.07428.03714.02476.08666.04952.1238.08666.03713.02475.07427.06189.12379.08665.03714.02476.07427.0619.11141.09904h.01238c.03714.03713.07428.06189.09904.09903l.01238.01238c.02475.03714.06189.0619.08665.09903 0 .01238.01238.01238.01238.02476.02476.03714.04952.0619.07428.09904.01238.01238.01238.02476.02476.03713.02475.02476.03713.0619.06189.08666.01238.02476.02476.03714.03714.0619s.02476.04951.03714.07427c.01238.03714.03714.0619.04951.09904 0 .01238.01238.02476.01238.03714h-1.72072c-.03714.03713-.09904.03713-.17331.02475z" fill="#cba68d"/><g fill="#2b2129"><path d="m2.3165 5.54224c-.01238 0-.02476 0-.03714 0h-.02476-.02476-.04951c-.02476 0-.0619 0-.08666 0l-.47041-.03714-.02476-.02476c-.977966-.77989-1.299828-1.89403-.878932-2.97103.433272-1.12652 1.374102-1.671208 2.698692-1.596932l.03714.012379c.359.123793.61896.235203.85417.371383.04952.02476.08665.04951.13617.08665.04952.02476.08666.0619.13617.08666.04952.03714.08666.06189.1238.09903.03713.03714.08665.07428.12379.09904.03714.03713.07428.07427.11141.11141.04952.04952.07428.08666.11142.12379l.02476.02476c.02475.03714.04951.07428.07427.09904l.02476.02475c.02476.04952.04952.07428.07428.11142.01238.01238.02475.03714.02475.04952l-.08665.07427.09903-.04952c.01238.02476.02476.04952.03714.07428.01238.03714.03714.07428.04952.11141l.08665.19807h-1.89403c-.07428 0-.13617 0-.21045-.01238-.39614-.02475-.77989-.03713-1.10176.22283-.24758.21045-.33424.37138-.28472.55707.01238.02476.01238.04952.02476.0619.01238.02476.02476.04951.03714.06189.02475.02476.03713.03714.04951.04952.02476.02476.03714.03714.04952.03714l.02476.01238c.01238.01238.02476.01238.04952.02476l-.01238.12379.03713-.11141c.01238 0 .03714.01237.04952.01237h.03714c.02476 0 .03714.01238.0619.01238h.09903.02476c.43328-.01237.87893-.01237 1.27507 0h.61896l-.02476.18569-.11141.01238.09904.01238-.04952.11142-.12379.01238.11141.02475-.02476.11142h-.12379l.11141.02476-.03714.09903h-.12379l.11141.03714-.02475.11141-.1238-.01238.11142.03714-.03714.09904-.1238-.02476.09904.04951-.02476.03714c-.01238.01238-.01238.02476-.02476.04952l-.11141-.02476.09903.0619-.02476.03714c-.01238.01238-.02475.02475-.02475.03713l-.11142-.03713.09904.06189-.02476.03714c-.01238.01238-.02476.02476-.03714.03714l-.11141-.03714.08665.07428-.02476.03713c-.01238.01238-.02476.02476-.03714.03714l-.11141-.04952.08666.07428-.02476.02476c-.01238.01238-.02476.02476-.03714.03714l-.11141-.0619.07427.08666-.02476.02475c-.01238.01238-.02476.02476-.03714.03714l-.09903-.07427.07428.08665-.03714.02476c-.01238.01238-.03714.02476-.04952.02476l-.09903-.07428.06189.09904-.03714.02476c-.01237.01237-.03713.02475-.04951.02475l-.08666-.08665.04952.09903-.03714.01238c-.02476.01238-.04952.02476-.07427.03714l-.07428-.09903.04952.09903-.01238.02476c-.03714.01238-.08666.03714-.13617.04952-.0619.02476-.1238.03714-.18569.04951l-.03714.01238-.03714-.11141.01238.11141c-.03714.01238-.07428.01238-.11141.02476-.02476 0-.03714 0-.0619.01238l-.04952.01238c-.02476 0-.04951.01238-.07427.01238s-.04952 0-.07428 0h-.11141c-.01238 0-.02476 0-.04952 0zm-.0619-.22283h.02476.07428.09903.0619c.02476 0 .03714 0 .06189-.01238l.11142-.01238c.03714 0 .06189-.01238.09903-.02476l.07428-.01237c.04952-.01238.11141-.02476.16093-.04952.03714-.01238.07428-.02476.11141-.03714l.03714-.01238c.03714-.01238.04952-.02476.07428-.03714l.06189-.02475c.01238-.01238.02476-.01238.04952-.02476l.38376-.33425.23521-.39613.12379-.4209h-.359c-.39614 0-.84179 0-1.26269 0h-.03714c-.01238 0-.02476 0-.03714 0l-.02475-.11141v.11141c-.01238 0-.02476 0-.03714 0-.02476 0-.04952 0-.07428-.01238-.02476 0-.03714 0-.04952-.01238-.02475 0-.04951-.01238-.07427-.02476-.02476 0-.03714-.01238-.03714-.01238-.02476-.01238-.04952-.02475-.07427-.02475-.01238-.01238-.02476-.01238-.03714-.01238-.02476-.01238-.03714-.02476-.0619-.03714-.01238-.01238-.02476-.01238-.02476-.02476-.01238-.01238-.03714-.03714-.04951-.04952-.01238-.01238-.02476-.02476-.02476-.02476-.01238-.02475-.02476-.04951-.03714-.06189s-.01238-.01238-.01238-.02476c-.01238-.03714-.02476-.0619-.03714-.11142-.12379-.40851.23521-.70562.359-.80465.39614-.32186.85417-.2971 1.26269-.28472.0619 0 .13617.01237.19807.01237h1.53503c0-.01237-.01237-.02475-.01237-.03713l-.0619-.09904c-.01238-.02476-.03714-.06189-.04952-.08665l-.03714-.03714c-.02476-.03714-.04951-.0619-.07427-.09904l.07427-.09903-.08665.07428c-.02476-.03714-.04952-.0619-.08666-.09904-.03714-.04952-.07427-.07427-.11141-.11141s-.07428-.0619-.11141-.09904c-.03714-.03713-.07428-.06189-.11142-.08665s-.07427-.04952-.12379-.08666c-.03714-.02476-.08666-.04951-.12379-.07427-.22283-.1238-.45804-.23521-.79228-.34662-1.21317-.07428-2.06735.43327-2.463483 1.44838-.383759.97796-.086655 1.98069.779893 2.68631l.359.02475h.11142.03713z"/><path d="m3.59156 2.59597c.01238.01238.02476.01238.03714.02475.01238.01238.02476.01238.03714.02476s.02476.02476.03714.02476c.01238.01238.02476.01238.03714.02476s.02475.01238.02475.02476c.01238.01238.02476.02476.03714.03714.09904.09903.19807.21045.27235.33424.01238.02476.02476.04952.03714.07427.01238.02476.02475.04952.03713.07428s.02476.04952.02476.07428v.01238c.01238.02475.01238.04951.02476.07427v.01238c0 .02476.01238.04952.01238.07428v.02476c0 .02475 0 .04951.01238.07427v.02476.0619.03713c-.16093 0-.33424 0-.49517 0-.11142 0-.23521 0-.359 0-.30949 0-.60659 0-.91607 0-.33424 0-.51993-.09903-.59421-.32186-.07427-.27234.13617-.48279.2971-.61896.02476-.02476.0619-.04952.08666-.0619.01238 0 .01238-.01238.02476-.01238.02476-.01238.04952-.03714.08665-.04952.02476-.01238.0619-.02476.08666-.03713.01238 0 .01238 0 .02476-.01238.02476-.01238.04952-.01238.08665-.02476h.01238c.03714-.01238.0619-.01238.09904-.02476h.02476c.02475 0 .04951-.01238.08665-.01238h.01238c.03714 0 .0619 0 .09903-.01238h.02476.07428.01238.14855.01238c.04952 0 .09903 0 .14855.01238.0619 0 .13617.01238.19807.01238.01238.01238.02476.01238.02476.02476.03714.01238.04951.02476.06189.02476z"/><path d="m2.45268 3.84627c-.37138 0-.59421-.13617-.68087-.40851-.11141-.37138.22283-.65611.33424-.74276.03714-.02476.0619-.04952.09904-.07428l.02476-.01238c.02476-.02476.06189-.03714.08665-.04951.03714-.02476.07428-.03714.11142-.04952l.02476-.01238c.02475-.01238.06189-.02476.08665-.02476.04952-.01238.07428-.02476.11141-.02476h.02476c.02476 0 .0619-.01238.08666-.01238.04952 0 .08665-.01238.12379-.01238h.02476.09903.16094l.16093.01238c.06189 0 .13617.01238.19807.01238h.03713l.04952.03714-.04952.09903.07428-.08665.04952.03714-.04952.11141.07427-.08665.04952.03713-.04952.09904.07428-.08666.04952.03714-.0619.09904.07428-.08666.02476.02476c.12379.12379.22282.23521.2971.359.01238.02476.03714.04952.04952.08665.01238.02476.02476.0619.03713.08666.01238.03714.02476.0619.03714.08665.01238.03714.02476.0619.02476.09904.01238.03714.01238.07427.02476.09903.01238.04952.01238.07428.01238.09904v.03714.06189.03714.11141h-.96559c-.30948 0-.60658 0-.91607 0-.01238 0-.02475 0-.02475 0zm.2352-1.28744.02476.11141c-.02476 0-.0619.01238-.08665.01238-.03714.01238-.0619.01238-.08666.02476-.04952.01238-.07428.02476-.09903.03714-.02476.01237-.04952.02475-.07428.04951l-.03714.02476c-.02476.01238-.04951.03714-.07427.0619-.23521.18569-.30949.34662-.25997.50755.03714.11141.12379.24759.48279.24759.30949-.01238.61897-.01238.91607 0h.80466l.03714-.01238-.11142.01238c0-.02476 0-.03714-.01238-.0619-.01238-.03714-.01238-.0619-.01238-.08666-.01238-.03713-.01238-.06189-.02476-.08665-.01237-.03714-.02475-.04952-.02475-.07428-.01238-.02476-.02476-.04951-.03714-.07427s-.02476-.04952-.03714-.07428c-.0619-.11141-.14855-.21045-.25997-.30948l-.22282-.18569c-.04952 0-.11142 0-.16093-.01238l-.16093-.02476c-.04952 0-.09904 0-.14856 0-.03713 0-.07427 0-.09903 0l-.02476-.11141v.11141c-.02476 0-.0619 0-.08665.01238-.03714 0-.0619.01238-.08666.01238z"/></g><path d="m4.59429 5.90124c-.68086.01238-1.3741.03714-2.05496-.09904-.28473-.06189-.56945-.13617-.80466-.34662h.03714c.02476 0 .0619 0 .08666.01238h.07427c.02476 0 .0619 0 .09904.01238h.07427.09904.07427.02476.04952.12379.07428c.03714 0 .07427-.01238.12379-.01238.02476 0 .04952 0 .07428-.01238.03713-.01238.08665-.01238.12379-.02475.02476 0 .03714-.01238.0619-.01238.06189-.01238.12379-.03714.18569-.04952.04951-.01238.08665-.02476.12379-.04952.61896-.24758.96558-.75514 1.077-1.53503v-.02476-.02476c0-.02476 0-.04952 0-.08666 0-.01237 0-.02475 0-.03713 0-.02476 0-.04952-.01238-.0619 0-.01238 0-.02476-.01238-.03714 0-.02476-.01238-.03714-.01238-.06189 0-.01238-.01238-.02476-.01238-.03714s-.01238-.03714-.01238-.04952-.01238-.02476-.01238-.03714-.01238-.03714-.01238-.04951c0-.01238-.01238-.02476-.01238-.03714-.01238-.01238-.01238-.02476-.02476-.04952 0-.01238-.01237-.02476-.02475-.03714s-.01238-.02476-.02476-.03714c-.01238-.01237-.01238-.02475-.02476-.03713s-.01238-.02476-.02476-.03714-.01238-.02476-.02476-.03714-.02476-.02476-.02476-.03714c-.01238-.01238-.01238-.02476-.02476-.03713-.01238-.01238-.02475-.02476-.02475-.03714-.01238-.01238-.01238-.02476-.02476-.03714s-.02476-.02476-.03714-.03714-.02476-.02476-.02476-.02476c-.01238-.01238-.02476-.02476-.03714-.03714-.01238-.01237-.02476-.02475-.02476-.02475-.01237-.01238-.02475-.02476-.03713-.03714s-.02476-.02476-.02476-.02476c-.01238-.01238-.02476-.02476-.03714-.02476-.01238-.01238-.02476-.01238-.03714-.02476s-.02476-.02476-.03714-.02476c-.01238-.01238-.02476-.01238-.02476-.02475h1.67121c.01238.02475.02476.04951.03714.06189.01238.02476.02476.03714.03714.0619s.02476.04952.03714.07427c.01237.02476.02475.03714.02475.0619.01238.02476.01238.04952.02476.07428.01238.02475.01238.03713.02476.06189s.01238.04952.02476.07428c0 .02476.01238.03714.01238.06189 0 .02476.01238.04952.01238.07428s.01238.03714.01238.0619.01238.06189.01238.08665v.04952c0 .03714 0 .0619.01238.09903v.03714.13617c.01238.54469.01238 1.08938.01238 1.62169v.64373c-.359-.02476-.69324-.01238-1.01511-.01238z" fill="#bb9168"/><path d="m3.91343 6.03742c-.47041 0-.92845-.02476-1.39886-.1238-.29711-.06189-.60659-.14855-.85418-.38376l-.25996-.2352.34662.03713.01238.08666.01238-.01238.01238-.07428.47041.02476.02476.11142v-.11142h.03714.12379.07428c.03713 0 .07427-.01238.11141-.01238l.0619-.01238c.03714 0 .08665-.01238.12379-.02475l.0619-.01238c.06189-.01238.12379-.02476.17331-.04952.03714-.01238.08665-.02476.12379-.04952.58183-.23521.90369-.70562 1.00272-1.436v-.02476-.01238c0-.02476 0-.04951 0-.07427l.11142-.03714-.11142.01238c0-.02476 0-.03714 0-.0619l-.07427-.28472-.17331-.28472-.37138-.34663-.25997-.21044h.32187 1.7331l.03714.04951c.01238.01238.02476.03714.03713.0619l.02476.03714c.01238.01238.02476.03714.02476.04951.01238.02476.02476.03714.02476.0619l.01238.03714c.01238.01238.01238.03714.02476.04952.01238.02475.01238.03713.02476.06189l.01238.03714c0 .01238.01238.03714.01238.04952.01238.02476.01237.03714.01237.0619l.01238.03713c0 .01238.01238.02476.01238.04952s.01238.03714.01238.0619l.01238.08665c0 .02476 0 .04952.01238.07428l-.11141.04951.11141-.01237v.03713c0 .03714 0 .0619.01238.09904v.03714.13617c.01238.53231.01238 1.08938.01238 1.60931v.7799h-.12379c-.33424-.01238-.65611-.00001-.97797.01237-.22283-.02475-.44565-.01237-.66848-.01237zm.66848-.24759c.28473-.01238.58183-.01238.87893-.01238v-.53231c0-.53231 0-1.08938-.01238-1.62169 0-.03714 0-.08666 0-.12379l.11142-.03714h-.11142c0-.03714 0-.0619 0-.09904v-.04951c0-.03714-.01238-.0619-.01238-.08666l-.01238-.0619c-.01237-.03713-.01237-.06189-.01237-.07427l-.01238-.0619c-.01238-.03714-.01238-.04951-.02476-.07427l-.02476-.0619c-.01238-.03714-.01238-.04952-.02476-.07428 0-.01237-.01238-.02475-.01238-.03713l-.01238.01238c-.01238-.03714-.02476-.04952-.03714-.0619 0-.01238-.01238-.02476-.02476-.03714l-.01237-.02476s0-.01238-.01238-.01238h-1.29983l.24759.29711.13617.25996c.01238.01238.01238.03714.01238.04952l.01238.04952c0 .01238.01237.03714.01237.04951l.01238.04952c0 .01238.01238.03714.01238.04952l.01238.04952c0 .02475 0 .04951.01238.07427v.01238h.02476l-.01238.16093v.01238.11142h-.01238c-.12379.76751-.49517 1.26268-1.12651 1.52265-.04952.01238-.08666.03714-.13618.04952-.06189.02476-.13617.03714-.19807.04951l-.04951.01238c-.0619.01238-.11142.02476-.16093.02476l-.07428.01238c-.04952 0-.08666.01238-.12379.01238h-.07428c-.03714 0-.08665 0-.12379 0h-.04952-.0619c.11142.03714.22283.0619.34662.08666.66849.17331 1.36173.14855 2.03021.13617z" fill="#2b2129"/><path d="m9.28605 25.6339c-.01238.0123-.01238.0247-.01238.0247 0 .0124-.01238.0248-.01238.0248h-1.06462c-.14855 0-.28473-.0372-.43328-.0743l-.03714-.0124c-1.32458-.3218-2.14162-1.4236-2.12924-2.8844.03714-4.0604.02476-8.1951.02476-12.1936 0-1.52263 0-3.04528 0-4.55556v-.02476c0-.22283 0-.44565 0-.66848 0-.53231 0-1.077-.01238-1.62169 0-.30948-.03713-.66848-.21044-.99035-.02476-.04951-.04952-.08665-.08666-.13617-.02476-.04951-.03714-.09903-.0619-.14855-.01238-.01238-.01238-.03714-.02476-.04952-.01237-.03713-.03713-.06189-.04951-.09903-.01238-.02476-.02476-.03714-.03714-.04952-.01238-.02476-.03714-.04952-.04952-.08665-.01238-.01238-.02476-.03714-.03714-.04952-.01238-.02476-.03713-.04952-.04951-.07428-.01238-.01238-.02476-.03713-.03714-.04951-.01238-.02476-.03714-.04952-.0619-.0619-.01238-.01238-.03714-.03714-.04951-.04952-.02476-.02476-.03714-.03714-.0619-.06189-.01238-.01238-.03714-.03714-.04952-.04952-.02476-.01238-.03714-.03714-.06189-.04952-.01238-.01238-.03714-.02476-.04952-.04952-.02476-.01238-.03714-.03713-.0619-.04951-.01238-.01238-.03714-.02476-.0619-.03714-.02475-.01238-.04951-.02476-.06189-.04952-.02476-.01238-.03714-.02476-.0619-.03714s-.04952-.02475-.0619-.03713c-.02475-.01238-.03713-.02476-.06189-.03714s-.04952-.02476-.07428-.03714-.03714-.02476-.06189-.03714c-.02476-.01238-.04952-.02476-.07428-.03714s-.04952-.02475-.0619-.03713c-.02475-.01238-.04951-.02476-.07427-.02476-.02476-.01238-.04952-.02476-.07428-.02476-.02476-.01238-.04952-.01238-.06189-.02476-.02476-.01238-.04952-.02476-.07428-.02476-.02476-.01238-.03714-.01238-.0619-.02476s-.04951-.02476-.08665-.02476h.04952c.12379-.01237.25996-.01237.38375-.01237h4.61749c3.72621 0 7.57611.01237 11.37661-.01238h.0123c.718 0 1.3989.2971 1.9188.81703.5324.54469.8418 1.26269.8295 1.98069-.0372 4.10993-.0248 8.29418-.0124 12.34218 0 1.5226 0 3.0453.0124 4.568-.0619 0-.1362 0-.1981 0-.1609 0-.3219.0123-.4828.0123-3.7014 0-7.4028 0-11.0919 0h-1.48548c-.02476 0-.03714 0-.0619 0-.04952 0-.08666 0-.13617-.0123-.82942-.1115-1.55979.1733-2.01783.7675-.01238.0124-.02476.0247-.02476.0371-.04952.0619-.09903.1362-.13617.2105-.03714.0742-.08666.1485-.11141.2352-.40852.9532-.16093 1.9559.63134 2.612l.0619.0619.16093.0495h-.1238c.22283.2228.51994.3466.87894.3838.08665.0124.17331.0124.25996.0247h.09904c.06189 0 .11141 0 .17331.0124h.01238c.17331 0 .33424.0124.50755.0124h.04951.33426c-.0248.0247-.0372.0371-.06191.0619 0 0-.01238 0-.01238.0124-.02476.0123-.04952.0371-.07428.0495 0 0-.01238 0-.01238.0124-.02475.0123-.04951.0247-.07427.0371 0 0-.01238 0-.01238.0124-.02476.0124-.04952.0247-.07428.0371s-.06189.0248-.08665.0372c-.01238 0-.02476.0123-.03714.0123s-.01238.0124-.02476.0124c-.01238.0124-.02476.0124-.03714.0248-.01238 0-.01238.0124-.02475.0124-.01238.0123-.02476.0123-.03714.0247-.01238 0-.01238.0124-.02476.0124-.01238.0124-.02476.0124-.03714.0247-.01238.0124-.01238.0124-.02476.0248s-.02476.0124-.02476.0248c-.01238.0123-.01238.0123-.02476.0247-.03713.0124-.04951.0248-.04951.0372z" fill="#e5d1b8"/><path d="m9.24891 25.8072h-1.06462c-.16093 0-.30948-.0372-.45803-.0743l-.03714-.0124c-1.3741-.3342-2.22828-1.4731-2.2159-2.9958.03714-4.0604.02476-8.1951.02476-12.1812 0-1.52267 0-3.04533 0-4.56798v-.69324c0-.53231 0-1.077-.01238-1.62169 0-.28473-.02476-.63135-.19807-.92845-.02476-.03714-.04951-.08666-.07427-.12379l-.01238-.02476c-.02476-.04952-.03714-.09904-.0619-.14855l-.02476-.04952c-.01238-.03714-.03714-.0619-.04952-.08666l-.03713-.04951c-.02476-.03714-.03714-.04952-.04952-.07428l-.03714-.0619c-.01238-.02475-.02476-.03713-.04952-.06189l-.02475-.03714c-.02476-.03714-.04952-.0619-.0619-.07428l-.03714-.03713c-.02476-.02476-.04952-.04952-.0619-.0619l-.04951-.03714c-.02476-.01238-.03714-.03714-.0619-.04952l-.04952-.03713c-.02475-.01238-.03713-.03714-.06189-.04952l-.4209-.27235-.54469-.2352-.51993-.198072.60659-.037138c.28472-.01238.56944-.012379.85417-.012379h4.14707.07427c3.70144 0 7.52664.012379 11.28994-.012379.7675 0 1.4731.309478 2.0178.854168.5571.55707.8666 1.31221.8666 2.06735-.0372 4.10993-.0248 8.28178-.0124 12.32978 0 1.535 0 3.0577.0124 4.5804v.1114h-.3095c-.1609 0-.3219.0123-.4828.0123h-12.57738-.0619c-.04952 0-.09903 0-.14855-.0123-.7799-.1114-1.47314.1485-1.91879.718l-.02476.0371c-.04952.0619-.08666.1362-.13617.1981-.03714.0742-.07428.1361-.11142.2228-.38376.9037-.16093 1.8569.60659 2.4882l.04951.0496.99035.2847-.64372-.0124c.14855.0743.33424.1362.53231.1486.08665.0123.17331.0123.25996.0247h.12379.13618c.18569 0 .34662.0124.51993.0124h.02476.35901.26l-.1734.1857c-.0247.0247-.0495.0495-.0742.0743-.0372.0247-.06193.0495-.09907.0619-.04952.0247-.07427.0371-.09903.0495l-.22283.099-.07428-.0866.04952.099-.03714.0124-.08665-.0867.06189.099-.02475.0248-.08666-.0743.07428.0867-.02476.0247-.09904-.0619.07428.0867-.02476.0248-.11141-.0496.08665.0743-.07427.1238zm-3.83758-23.33503c.02475.04952.06189.08666.08665.13618.18569.34662.22283.718.22283 1.03986.01238.53231.01238 1.08938.01238 1.60931v.70562 4.55556c0 3.9985.01238 8.1332-.02476 12.1936-.01238 1.3989.76752 2.4635 2.04258 2.7606l.03714.0124c.13617.0371.27235.0743.39614.0743h.99035s0 0 0-.0124c.01237-.0124.01237-.0248.02475-.0371.01238-.0248.02476-.0248.02476-.0372.01238-.0123.02476-.0247.02476-.0247l.03714-.0248c.01238-.0124.02476-.0124.03714-.0247l.19807-.1238c.02475-.0124.04951-.0248.07427-.0372-.17331 0-.33424 0-.49517-.0124-.04952 0-.09904 0-.14855-.0123l-.1238-.0124c-.08665 0-.17331-.0124-.25996-.0248-.39614-.0371-.718-.1857-.95321-.4209l-.11141-.1114c-.07428-.0619-.14855-.1362-.22283-.2104l-.04952-.0495h.01238c-.61896-.6809-.77989-1.6094-.39613-2.4883.03713-.0866.07427-.1609.12379-.2476.04952-.0866.09903-.1609.14855-.2228l.02476-.0371c.49517-.6314 1.26269-.9285 2.12924-.8047.03714 0 .08665.0124.12379.0124h.07428 12.57736c.1609 0 .3219 0 .4704-.0124h.0991c0-1.4855 0-2.971-.0124-4.4565-.0124-4.0481-.0124-8.23229.0124-12.34222 0-.69324-.2848-1.38648-.7923-1.90641-.5076-.50756-1.1513-.79228-1.8445-.79228-3.7757.02476-7.6133.02476-11.31472.01238h-.07427c-1.4979 0-3.00817 0-4.50607 0l.40852.22283c.02476.01238.04951.02476.07427.04952l.0619.03713c.02476.01238.04952.03714.0619.04952l.06189.04952c.02476.01238.03714.03714.0619.06189l.04952.04952c.02475.02476.03713.03714.06189.0619l.04952.04951c.02476.02476.03714.03714.04952.0619l.04951.0619c.01238.02476.03714.04952.04952.06189l-.07427.14856.08665-.07428.02476.03714c.01238.02476.03714.04952.04952.07427l-.07428.08666.09903-.0619.02476.03714c.01238.02476.03714.0619.04952.09904l-.08665.07427.09903-.04952.01238.03714c.02476.04952.04952.09904.07428.14855z" fill="#2b2129"/><path d="m9.83074 23.4056c.01238-.0867.01238-.161.02476-.2476.06189-.2971-.08666-.4952-.22283-.7056-.01238-.0248-.03714-.0495-.04952-.0743 0-.0124-.01238-.0124-.01238-.0248-.01238-.0247-.02476-.0371-.03714-.0619 0-.0123-.01238-.0247-.01238-.0247-.01237-.0124-.02475-.0372-.02475-.0495 0-.0124-.01238-.0248-.01238-.0372 0-.0123-.01238-.0247-.01238-.0371h.01238l1.28748-.0248c.0123.0248.0247.0495.0371.0743.0248.0371.0371.0619.0495.099.0124.0248.0248.0619.0372.0867.0123.0371.0247.0619.0371.099.0124.0372.0248.0619.0371.0991.0124.0247.0248.0619.0248.0866.0124.0372.0124.0743.0248.1238 0 .0248.0123.0495.0123.0743.0124.0495.0124.099.0124.1485v.0496c.0371.5942-.1733 1.2008-.6066 1.7083-.0247.0248-.0371.0371-.0619.0619-.0247.0371-.0619.0619-.0866.099-.0495.0496-.1114.0991-.161.1486-.14851 0-.28468 0-.43324 0-.17331 0-.33424 0-.50755-.0124h-.01238c-.03713 0-.08665 0-.12379 0-.13617 0-.25996-.0124-.39614-.0248-.03714 0-.07427-.0123-.12379-.0123-.01238 0-.02476 0-.03714-.0124-.02476 0-.04952-.0124-.07427-.0124-.01238 0-.02476-.0124-.03714-.0124-.02476 0-.04952-.0123-.0619-.0123s-.02476-.0124-.03714-.0124c-.02476-.0124-.03713-.0124-.06189-.0248-.01238 0-.02476-.0124-.03714-.0124-.02476-.0123-.03714-.0123-.04952-.0247s-.02476-.0124-.03714-.0248-.03713-.0247-.04951-.0247c-.01238-.0124-.02476-.0124-.03714-.0248s-.03714-.0248-.04952-.0371c-.01238-.0124-.02476-.0124-.03714-.0248s-.02475-.0124-.03713-.0248l-.02476-.0247h.17331c.30948 0 .61896 0 .92845-.1238.08665-.0371.16093-.0743.2352-.1238.34662-.2352.56945-.5942.63135-1.0646z" fill="#bb9168"/><path d="m10.1526 25.213h-.0371c-.13621 0-.28476 0-.42093 0-.17331 0-.34662 0-.51994-.0124h-.13617c-.13617 0-.27234-.0124-.40851-.0248-.03714 0-.08666-.0124-.1238-.0124h-.02476c-.03714-.0123-.06189-.0123-.09903-.0247l-.03714-.0124c-.03714-.0124-.0619-.0124-.08665-.0247l-.03714-.0124c-.03714-.0124-.04952-.0248-.07428-.0248l-.03714-.0124c-.02476-.0123-.04951-.0247-.06189-.0247l-.03714-.0248c-.02476-.0124-.03714-.0247-.0619-.0371l-.03714-.0248c-.01237-.0124-.03713-.0247-.04951-.0371l-.11142-.0867-.21044-.198h.28472.17331c.2971 0 .60659 0 .89131-.1115.07428-.0247.14855-.0619.22283-.1114.34662-.2104.54469-.5447.60658-.9779.01238-.0743.01238-.161.02476-.2352.04952-.26-.07427-.4457-.21045-.6314l-.07427-.099c-.01238-.0248-.02476-.0372-.03714-.0619l-.01238-.0248c-.01238-.0247-.02476-.0495-.03714-.0619l-.09903-.2352h.17331l1.36172-.0247.0371.0619c.0124.0123.0248.0371.0248.0495l.0248.0495c.0123.0248.0247.0495.0495.0866.0124.0248.0247.0496.0247.0619l.0248.0496c.0124.0247.0248.0495.0371.0742.0124.0248.0124.0496.0248.0743l.0124.0619c.0123.0248.0123.0495.0247.0619.0124.0371.0124.0619.0248.099l.0124.0496c0 .0123.0123.0371.0123.0495.0124.0495.0124.1114.0248.1609v.0495c.0495.6314-.1857 1.2751-.6437 1.795-.0124.0124-.0248.0248-.0372.0372l-.0371.0371c-.0248.0248-.0495.0495-.0743.0867-.0495.0495-.1114.1114-.1733.1609zm-1.93117-.3838.02476.0124c.01238.0124.03713.0124.04951.0247l.03714.0124c.02476 0 .03714.0124.0619.0124l.03714.0124c.02475 0 .04951.0124.07427.0124l.01238.1238.02476-.1115c.03714.0124.07428.0124.11141.0124.1238.0124.25997.0248.38376.0248h.12379c.18569 0 .34663.0124.51994.0124h.39611c.0495-.0372.0867-.0743.1238-.1115.0248-.0247.0495-.0495.0743-.0742l.0371-.0495c.0124-.0124.0248-.0248.0372-.0372.4209-.4704.6189-1.0522.5818-1.6341v-.0495c0-.0495-.0124-.099-.0124-.1361 0-.0124 0-.0248-.0124-.0372l-.0123-.0619c0-.0247-.0124-.0619-.0248-.0866 0-.0124-.0124-.0372-.0124-.0496l-.0247-.0618c-.0124-.0248-.0124-.0372-.0248-.0619-.0124-.0248-.0124-.0372-.0248-.0619l-.0247-.0619c-.0124-.0124-.0124-.0372-.0248-.0496-.0124-.0247-.0247-.0495-.0371-.0742l-.0248-.0372-1.03983.0124c.01238.0124.01238.0248.02476.0371l-.08666.0867.09904-.0619.04951.0743c.14856.2104.32188.4456.24759.7923 0 .0742-.01238.1609-.02476.2475-.07427.5076-.32186.8914-.718 1.1389-.08665.0496-.16093.0991-.24758.1238-.24759.0991-.50756.1238-.75514.1362zm1.33696-2.5749-.03713.0371.06189-.0371z" fill="#2b2129"/><path d="m9.80598 23.1209h-.37138c-.359 0-.73038 0-1.08938 0h-.03713c-.17331 0-.34662 0-.39614-.2105-.04952-.1733 0-.3342.14855-.4828.02476-.0247.04952-.0495.08666-.0743.01237-.0123.01237-.0123.02475-.0247.02476-.0124.03714-.0371.0619-.0495.01238-.0124.02476-.0124.02476-.0248.02476-.0124.04952-.0247.07427-.0371.01238 0 .01238-.0124.02476-.0124.02476-.0124.0619-.0248.08666-.0371.01238 0 .02476-.0124.03714-.0124.02475-.0124.03713-.0124.06189-.0248.01238 0 .02476-.0124.03714-.0124.02476 0 .03714-.0123.0619-.0123.01238 0 .02476 0 .03714-.0124.02475 0 .06189-.0124.09903-.0124h.03714.06189.04952.07428.03714c.03713 0 .07427.0124.11141.0124h.01238c.03714 0 .07427.0124.12379.0124h.01238c.03714.0123.08666.0123.13617.0247 0 .0124.01238.0372.02476.0495 0 .0124.01238.0248.01238.0372.01238.0247.02476.0371.03714.0619 0 .0124.01238.0247.01238.0371.01238.0248.02476.0371.03714.0619 0 .0124.01238.0124.01238.0248.02475.0247.03713.0495.06189.0866.01238.0248.03714.0495.04952.0743l.01238.0124c.01238.0247.02476.0371.03714.0619 0 0 0 .0124.01238.0124.01238.0247.02475.0371.03713.0618 0 0 0 .0124.01238.0124.01238.0248.02476.0372.02476.0619v.0124c.01238.0248.01238.0495.02476.0743v.0124c0 .0247.01238.0495.01238.0742v.0248.0619.0371c-.04952.0124-.04952.0248-.04952.0372z" fill="#2b2129"/><path d="m9.90501 23.2447h-.47041c-.359 0-.73038 0-1.08938 0h-.03714c-.18569 0-.43327 0-.50755-.2848-.0619-.2104 0-.4085.17331-.5942.02476-.0371.0619-.0619.08666-.0866l.02476-.0248c.02475-.0247.04951-.0371.07427-.0619l.03714-.0247c.02476-.0124.04952-.0372.07427-.0496l.02476-.0123c.03714-.0124.0619-.0372.09904-.0496l.02476-.0123c.03713-.0124.04951-.0248.07427-.0248l.03714-.0124c.02476 0 .04952-.0124.0619-.0124l.03714-.0123c.03713 0 .06189-.0124.09903-.0124h.03714.07427.04952.07428.03713c.03714 0 .07428.0124.1238.0124.04951.0123.09903.0123.13617.0247.04952.0124.09903.0124.13617.0248l.0619.0124.04952.1114c.01238.0371.02475.0495.03713.0619l.01238.0247c.02476.0372.03714.0495.04952.0743l-.07428.0867.09904-.0619.11141.1609c.02476.0371.03714.0619.04952.0743.02476.0371.03714.0619.04952.0866.02476.0372.03714.0619.03714.0867.01237.0371.02475.0619.03713.099.01238.0495.01238.0743.02476.0991v.0247.0743.0371c0 .0248 0 .0372-.01238.0619zm-1.77024-.9037.07428.0866c-.02476.0248-.04952.0495-.07428.0743-.11141.1238-.14855.2476-.11141.3714.03714.1114.08665.1238.2971.1238h.03714 1.08938.25996c0-.0124 0-.0124 0-.0248 0-.0371-.01237-.0619-.01237-.0743-.01238-.0371-.01238-.0495-.02476-.0742-.01238-.0248-.02476-.0496-.02476-.0619-.01238-.0248-.02476-.0496-.03714-.0619l-.18569-.2724c-.01238-.0247-.02476-.0371-.03714-.0619l-.01238-.0247c-.02475-.0372-.02476-.0495-.03713-.0743l-.01238-.0248c-.02476 0-.04952-.0123-.07428-.0123-.04952-.0124-.08665-.0124-.12379-.0124-.04952 0-.08666-.0124-.1238-.0124h-.03713c-.02476 0-.04952 0-.07428 0h-.03714c-.02476 0-.03714 0-.06189 0h-.03714c-.02476 0-.0619 0-.08666.0124l-.03713.0124c-.01238 0-.03714.0123-.04952.0123l-.03714.0124c-.01238 0-.03714.0124-.04952.0124l-.07427-.099.04951.1114c-.02475.0124-.04951.0247-.07427.0371-.03714.0248-.0619.0371-.07428.0495l-.02476.0124c-.02476.0124-.03713.0248-.06189.0495z" fill="#2b2129"/><path d="m9.40984 22.0934c-.48279-.0991-.99034-.1362-1.39886.2971-.16093.1733-.21045.3466-.14855.5323.07427.2476.27234.2476.44565.2476h.03714 1.06462.39614v.0495.0619c0 .0248 0 .0371-.01238.0619 0 .0248 0 .0371-.01238.0619 0 .0247-.01238.0371-.01238.0619 0 .0247-.01238.0371-.01238.0619 0 .0247-.01238.0371-.01238.0619 0 .0124-.01237.0371-.01237.0495s-.01238.0371-.01238.0495-.01238.0372-.01238.0495c-.01238.0124-.01238.0372-.02476.0495-.01238.0124-.01238.0372-.02476.0496-.01238.0123-.01238.0371-.02476.0495s-.01238.0247-.02476.0495c-.01238.0124-.01238.0248-.02476.0495-.01238.0124-.01238.0248-.02476.0372-.01237.0123-.02475.0247-.02475.0495-.01238.0124-.02476.0247-.02476.0371-.01238.0124-.02476.0248-.03714.0371-.01238.0124-.02476.0248-.03714.0372s-.02476.0247-.03714.0371-.02475.0248-.03713.0372c-.01238.0123-.02476.0247-.03714.0371s-.02476.0248-.03714.0371c-.01238.0124-.02476.0248-.04952.0372-.01238.0124-.02476.0247-.03714.0247-.01237.0124-.03713.0248-.04951.0372s-.02476.0124-.03714.0247c-.02476.0124-.03714.0248-.0619.0372-.01238.0123-.02476.0123-.03713.0247-.03714.0124-.0619.0372-.09904.0495-.2971.1238-.60659.1238-.91607.1238-.07427 0-.14855 0-.22283 0l-.11141-.099c-.79228-.6437-1.02748-1.6341-.63134-2.5625.02475-.0495.04951-.099.07427-.1486.01238-.0123.01238-.0371.02476-.0495.01238-.0371.03714-.0619.0619-.099.01238-.0124.02476-.0372.03713-.0495.02476-.0248.03714-.0619.0619-.0867.01238-.0124.02476-.0371.03714-.0495.02476-.0248.03714-.0495.0619-.0743.01238-.0124.02475-.0371.03713-.0495.02476-.0248.04952-.0495.07428-.0743.01238-.0124.02476-.0247.04952-.0371.02475-.0248.04951-.0495.08665-.0743.01238-.0124.02476-.0247.03714-.0371.03714-.0248.07428-.0495.11141-.0743.01238 0 .01238-.0124.02476-.0124.04952-.0247.08666-.0619.13617-.0866.01238 0 .01238-.0124.02476-.0124.03714-.0248.07428-.0372.1238-.0619.01238-.0124.03713-.0124.04951-.0248.03714-.0124.07428-.0247.09904-.0371.01238-.0124.03714-.0124.04951-.0124.03714-.0124.0619-.0247.09904-.0247.02476 0 .03714-.0124.0619-.0124.03713-.0124.07427-.0124.09903-.0248.02476 0 .03714-.0124.0619-.0124.03714 0 .07427-.0123.11141-.0123h.0619.12379.04952.12379.04952c.06189 0 .12379.0123.18569.0247.04952.0124.09903.0124.14855.0124h.04952v.0248c0 .0123 0 .0247.01238.0247 0 .0124.01238.0248.01238.0248 0 .0123.01237.0123.01237.0247s.01238.0124.01238.0248.01238.0124.01238.0247l.02476.0248.01238.0124c.01238.0124.01238.0124.02476.0247l.01238.0124c.01238 0 .02476.0124.02476.0124l.01238.0124c.01238 0 .02476.0124.03714.0124 0 0 .01237 0 .01237.0123.01238.0124.03714.0124.04952.0248l.03714.0124c.04952.0247.11141.0495.16093.0866.01243.0124.02473.0248.04953.0248.0371.0247.0619.0371.099.0619.0124.0124.0372.0247.0495.0371.0248.0248.0619.0495.0867.0743l.0371.0371c.0248.0248.0496.0496.0743.0743.0124.0124.0248.0248.0371.0495.0248.0248.0496.0495.0743.0867.0124.0124.0248.0371.0372.0495.0247.0248.0371.0619.0619.0867.0123.0247.0247.0495.0371.0619.0124.0247.0371.0619.0495.0866.0124.0248.0248.0619.0372.0867.0123.0247.0123.0371.0247.0619z" fill="#cba58c"/><path d="m7.72626 24.7797-.03714-.0371-.11142-.0991c-.82941-.6808-1.077-1.7083-.6561-2.6863.02476-.0495.04952-.1114.07428-.1609l.02476-.0372c.02475-.0495.04951-.0866.07427-.1238l.02476-.0371c.02476-.0371.04952-.0743.07428-.099l.03713-.0495c.02476-.0248.04952-.0496.0619-.0743l.04952-.0495c.02476-.0248.04951-.0496.07427-.0743l.04952-.0495c.02476-.0248.0619-.0495.08666-.0743l.03713-.0371c.03714-.0248.07428-.0496.11142-.0867l.02476-.0124c.04951-.0247.09903-.0619.14855-.0866l.02476-.0124c.03713-.0248.08665-.0372.12379-.0619l.03714-.0124c.04952-.0247.08665-.0371.12379-.0495l.04952-.0124c.04952-.0124.08665-.0247.11141-.0371l.0619-.0124c.03714-.0124.07427-.0124.11141-.0248l.0619-.0123c.03714 0 .07427-.0124.11141-.0124h.0619.13617.04952.13617.04952c.0619 0 .12379.0124.19807.0247.03714 0 .08665.0124.12379.0124h.13617l.04952.1733.04952.0495.17331.0867c.06189.0248.11141.0495.1609.0867.0124.0123.0248.0123.0372.0247l-.0372.1114.0619-.099c.0372.0248.0619.0371.0991.0619.0123.0124.0247.0124.0371.0247l-.0495.0991.0866-.0867c.0248.0248.0496.0372.0743.0619.0124.0124.0248.0248.0371.0248l-.0618.099.0866-.0743c.0248.0248.0495.0496.0743.0743.0124.0124.0247.0248.0247.0372l-.0742.099.0866-.0743c.0248.0248.0495.0495.0743.0867.0124.0123.0124.0247.0248.0371l-.0867.0867.099-.0619c.0248.0247.0372.0619.0619.0866.0124.0124.0248.0372.0248.0495l-.0867.0743.1114-.0495c.0124.0248.0248.0495.0372.0743.0124.0247.0247.0619.0371.0866l-.0743.0619.0867-.0371.0867.1981-1.49794.0247h-.01238c-.51993-.1114-.94082-.1114-1.28744.26-.13618.1362-.17331.2723-.1238.4209.03714.1485.13618.1609.34662.1609h.03714 1.06462.50755l-.01238.2847-.11141.0124.11141.0124-.01238.099-.12379.0124.11142.0248-.02476.0866h-.1238l.11142.0248-.02476.0866-.12379-.0123.11141.0371-.02476.0866-.11141-.0123.11141.0371-.03714.0743-.11141-.0248.09903.0495-.03713.0743-.11142-.0371.09904.0619-.04952.0742-.11141-.0371.09903.0619-.04952.0619-.11141-.0495.08665.0743-.06189.0619-.09904-.0619.08666.0742-.0619.0619-.09903-.0619.07427.0867-.02476.0248c-.01237.0123-.02475.0247-.03713.0247l-.09904-.0743.07428.0867-.02476.0247c-.01238.0124-.02476.0248-.04952.0248l-.08665-.0866.06189.099-.02475.0124c-.01238.0123-.03714.0247-.04952.0247l-.07428-.0866.04952.099-.02476.0124c-.03714.0124-.07428.0371-.11141.0495-.39614.1609-.81704.1238-1.17604.1362zm.04951-3.6767.0619.0991c-.03714.0247-.07428.0495-.09903.0742l-.02476.0124c-.03714.0372-.0619.0495-.08666.0743l-.03714.0248c-.02475.0247-.04951.0495-.07427.0742l-.03714.0496c-.02476.0247-.03714.0495-.0619.0742l-.03713.0495c-.02476.0248-.03714.0496-.04952.0743l-.03714.0495c-.02476.0248-.03714.0619-.04952.0867l-.02476.0495c-.02475.0495-.04951.099-.07427.1486-.38376.8789-.14855 1.8073.59421 2.4263l.07427.0743c.359 0 .718.0247 1.05224-.1114.03714-.0124.0619-.0248.09904-.0372l.03714-.0123c.02475-.0124.03713-.0248.06189-.0248l.39614-.359.17331-.3838.0619-.3094h-.27235c-.359 0-.70562 0-1.06462 0h-.03714c-.18569 0-.47041 0-.55707-.3219-.06189-.2352 0-.4457.18569-.6437.44566-.4704 1.00273-.4333 1.48552-.3343l1.1265-.0124c-.0124-.0247-.0247-.0371-.0247-.0619l-.0248-.0371c-.0124-.0124-.0124-.0247-.0248-.0371-.0123-.0248-.0371-.0495-.0495-.0743l-.0371-.0619c-.0248-.0248-.0372-.0495-.0619-.0743l-.0371-.0495c-.0248-.0248-.0372-.0371-.0619-.0619l-.0496-.0495c-.0247-.0248-.0495-.0371-.0619-.0495l-.0619-.0495c-.0247-.0248-.0495-.0372-.08661-.0496l-.04952-.0371c-.04951-.0248-.09903-.0495-.14855-.0743l-.21045-.1114c-.01238-.0124-.02476-.0124-.03713-.0247l-.01238-.0124c-.01238-.0124-.02476-.0248-.03714-.0372l-.01238-.0247c-.01238-.0124-.02476-.0248-.02476-.0372l-.01238-.0247c0-.0124-.01238-.0124-.01238-.0248-.03714 0-.07427 0-.11141-.0124-.0619-.0123-.1238-.0123-.17331-.0123h-.04952c-.03714 0-.08665 0-.12379 0h-.04952c-.03714 0-.07428 0-.12379 0h-.03714c-.04952 0-.08666.0123-.12379.0123l-.04952.0124c-.03714.0124-.07428.0124-.09904.0248l-.04951.0124c-.03714.0123-.0619.0123-.09904.0247l-.04951.0124c-.03714.0124-.0619.0248-.09904.0371l-.04952.0124c-.03713.0124-.07427.0372-.11141.0495l-.07428-.0866.04952.099c-.04952.0248-.08665.0495-.13617.0743z" fill="#2b2129"/><path d="m25.3792 23.7274c-.1734 1.1513-1.1513 1.696-1.9436 1.956h-11.8346-2.24067s0-.0124.01238-.0124c0-.0124.01238-.0124.01238-.0248.01238-.0123.01238-.0247.02476-.0247.01237-.0124.01238-.0124.02475-.0248.01238-.0124.01238-.0124.02476-.0247.01238-.0124.01238-.0124.02476-.0248s.01238-.0124.02476-.0248c.01238 0 .01238-.0123.02476-.0123.01238-.0124.02476-.0124.03714-.0248.01238 0 .01238-.0124.02475-.0124.01238-.0124.02476-.0123.03714-.0123s.01238-.0124.02476-.0124c.01238-.0124.02476-.0124.03714-.0248 0 0 .01238 0 .01238-.0124.02476-.0123.03714-.0123.0619-.0247.02475-.0124.04951-.0248.07427-.0372.09904-.0495.19808-.099.27238-.1733.0123-.0124.0247-.0247.0371-.0495.0619-.0495.1238-.099.1733-.1609.7799-.7552 1.0027-1.8198.5695-2.7111-.0248-.0619-.0619-.1238-.0991-.1857-.1485-.3837-.3714-.6808-.6932-.8913-.0867-.0495-.16094-.099-.25998-.1485l-.03714-.0124c-.01238-.0124-.02476-.0124-.04951-.0248h-.01238c-.01238 0-.02476-.0124-.03714-.0124 0 0-.01238 0-.01238-.0123-.01238 0-.01238-.0124-.02476-.0124l-.01238-.0124c-.01238 0-.01238-.0124-.02476-.0124l-.01238-.0124c-.01238 0-.01238-.0123-.01238-.0123l-.01238-.0124c0-.0124-.01237-.0124-.01237-.0248 0 0-.01238-.0124-.01238-.0247 0-.0124-.01238-.0124-.01238-.0248s0-.0124-.01238-.0247v-.0124h1.46078 11.2033c.1609 0 .3342 0 .4951-.0124h.2352c1.3246.0619 2.2407.7799 2.4388 1.9435.0495.3467.0495.6809 0 1.0151z" fill="#d7af94"/><path d="m23.448 25.8072h-14.28575l.09904-.1733c.01238-.0248.02476-.0372.03714-.0496.01238-.0123.01238-.0247.02476-.0371s.01237-.0248.02475-.0248c.01238-.0123.02476-.0247.02476-.0247l.02476-.0248c.01238-.0123.02476-.0123.03714-.0247l.19807-.1114.16093-.0743c.08665-.0372.17331-.0867.2352-.1486.0124-.0123.0248-.0247.0248-.0371l.0123-.0248c.0619-.0495.1115-.099.161-.1485.7427-.7304.9532-1.7331.5447-2.5749-.0248-.0619-.0619-.1238-.0991-.1733-.1485-.3714-.359-.6561-.6561-.8542-.08663-.0619-.1609-.099-.24756-.1362l-.19807-.099c-.01238-.0124-.02476-.0124-.02476-.0248l-.02476-.0123c-.01237-.0124-.01237-.0124-.02475-.0248l.01238-.0371c-.01238-.0124-.01238-.0248-.02476-.0372l-.01238-.0247c0-.0124-.01238-.0248-.01238-.0372l-.01238-.0371-.02476-.1362.13617-.0247h12.66401c.161 0 .3219 0 .4828-.0124h.2352c1.3865.0619 2.3397.8294 2.5502 2.0426.0619.3466.0619.6808.0123 1.0398-.1856 1.2008-1.2008 1.7826-2.0178 2.055zm-13.80295-.2352h13.76575c.7552-.2476 1.6836-.7799 1.8446-1.8569.0495-.3343.0495-.6438-.0124-.9656-.1981-1.1018-1.0646-1.795-2.3273-1.8569h-.2229c-.1733 0-.3342.0124-.4951.0124h-12.4041l.07428.0371c.08665.0371.18572.099.27232.1609.3343.2229.5818.5447.7304.9409.0248.0495.0619.1114.099.1733.4581.9284.2229 2.0426-.5818 2.8348-.0619.0619-.1114.1114-.1733.161-.0124.0123-.0248.0247-.0371.0495-.0867.099-.21049.1609-.30952.1981l-.19807.0866-.07428-.0866.04952.099zm-.04952 0h.02476l-.07428-.0743zm-.0619 0h.01238l-.04951-.0372z" fill="#2b2129"/><path d="m20.9102 12.4994c-.0866.0619-.2352.0867-.4704.0867-1.4484-.0124-2.9091-.0124-4.3327-.0124-.5324 0-1.0647 0-1.597 0s-1.0522 0-1.5845 0c-.3467 0-.6933 0-1.0523 0-1.0522 0-2.12921 0-3.18145.0124-.24759 0-.39614-.0248-.49518-.0867-.09903-.0619-.13617-.1733-.13617-.3466 0-.1486.03714-.2476.12379-.3095.01238-.0124.02476-.0124.03714-.0248.08666-.0495.23521-.0618.45804-.0618h.01238c4.17185.0123 8.00945.0123 11.74795 0 .2352 0 .3838.0247.4704.0866.0867.0619.1238.1609.1238.3219.0124.1733-.0247.2723-.1238.3342z" fill="#c2956d"/><path d="m8.67946 12.6975c-.25996 0-.42089-.0372-.53231-.1114-.16093-.1114-.18569-.2971-.18569-.4333 0-.1857.0619-.3219.17331-.3961.01238-.0124.03714-.0248.04952-.0248.11142-.0495.25997-.0743.50755-.0743 4.15946.0124 8.00946.0124 11.76036 0 .2723 0 .4209.0372.5323.1114.1609.1115.1733.2971.1733.4209s-.0247.3095-.1857.4209c-.1114.0743-.2723.1114-.5323.0991-1.4484-.0124-2.9091-.0124-4.3328-.0124h-1.5969-2.6368c-1.0522 0-2.12922 0-3.18146.0124 0-.0124 0-.0124-.01238-.0124zm.02476-.817c-.21045 0-.33424.0123-.40852.0495-.01237 0-.01237.0123-.02475.0123-.03714.0248-.07428.0743-.07428.2105 0 .1609.03714.2228.08666.2476.07427.0495.21044.0743.42089.0743 1.06462-.0124 2.12928-.0124 3.19388-.0124h2.6368 1.5969c1.4112 0 2.8844 0 4.3328.0124.2104 0 .3342-.0248.3961-.0619.0371-.0248.0743-.0743.0743-.2352 0-.1486-.0372-.1981-.0743-.2229-.0619-.0495-.1981-.0619-.4085-.0619-3.7509-.0123-7.6009-.0123-11.74798-.0123z" fill="#2b2129"/><path d="m8.6547 16.3122c3.9614.0124 7.9351.0124 11.8099 0h.0123c.4828 0 .5695.1362.5695.4209 0 .161-.0371.26-.1238.3095-.0867.0619-.2352.0867-.4952.0867-1.436-.0124-2.8844-.0124-4.2956-.0124-1.0522 0-2.1045 0-3.1567 0-.3466 0-.7056 0-1.0646 0-1.0647 0-2.15404 0-3.23104.0124-.24758 0-.39614-.0248-.48279-.0867-.08666-.0619-.12379-.1609-.12379-.3218.01238-.2724.09903-.4086.58182-.4086z" fill="#c2956d"/><path d="m8.65471 17.2531c-.25997 0-.40852-.0372-.51994-.1114-.16093-.1115-.17331-.2848-.17331-.4209 0-.3962.19807-.5324.69325-.5324h.01237c3.94902.0124 7.92272.0124 11.79752 0 .5075 0 .6932.1362.6932.5324 0 .198-.0495.3342-.1733.4085-.1114.0743-.2723.1114-.5571.1114-1.436-.0124-2.8967-.0124-4.2956-.0124-1.0522 0-2.1045 0-3.1567 0h-1.0646c-1.0647 0-2.15404 0-3.23104.0124 0 .0124-.01238.0124-.02475.0124zm0-.8294c-.45804 0-.45804.1114-.47042.3094 0 .1486.03714.1981.07428.2229.06189.0495.19807.0742.42089.0619 1.077-.0124 2.16634-.0124 3.23104-.0124h1.0646 3.1567c1.4112 0 2.8596 0 4.2956.0124.2229 0 .359-.0248.4209-.0619.0372-.0248.0743-.0743.0743-.2229 0-.198-.0124-.3094-.458-.3094-3.8871.0123-7.8609.0123-11.80989 0z" fill="#2b2129"/><path d="m8.65471 14.0344c3.94899.0124 7.92279.0124 11.80989 0h.0123c.4828 0 .5695.1362.5695.4209 0 .1486-.0371.2476-.1238.3095s-.2352.0867-.4828.0867c-1.4484-.0124-2.9215-.0124-4.3451-.0124-1.0523 0-2.0921 0-3.1444 0-1.3988 0-2.8348 0-4.25846.0124-.24758 0-.39613-.0248-.48279-.0867-.08665-.0619-.12379-.1609-.12379-.3218 0-.2724.08665-.4086.56945-.4086z" fill="#c2956d"/><path d="m8.65471 14.9753c-.24759 0-.40852-.0372-.51994-.1114-.12379-.0867-.17331-.2229-.17331-.4086 0-.3837.19807-.5323.69325-.5323h.01237c3.94902.0124 7.91042.0124 11.79752 0 .5075 0 .6932.1362.6932.5323 0 .1981-.0495.3343-.1733.4086-.1114.0742-.2723.1114-.5571.1114-1.4607-.0124-2.9215-.0124-4.3451-.0124-1.0522 0-2.0921 0-3.1444 0h-.0371c-1.3865 0-2.8225 0-4.22134.0124 0 0-.01238 0-.02475 0zm0-.9409v.1115c-.45804 0-.45804.1114-.45804.3094 0 .1486.03714.1981.07428.2229.07427.0495.21045.0742.42089.0619 1.41126-.0124 2.84726-.0124 4.22136-.0124h.0371 3.1444c1.4236 0 2.8843 0 4.3451.0124.2228 0 .359-.0248.4209-.0619.0371-.0248.0743-.0743.0743-.2105 0-.198-.0124-.3095-.4581-.3095-3.8871.0124-7.8608.0124-11.80982 0z" fill="#2b2129"/><path d="m20.9226 19.3328c-.0743.0495-.1981.0866-.3961.0866-.0248 0-.0619 0-.0867 0-1.436-.0123-2.8967-.0123-4.308-.0123-1.0522 0-2.0921 0-3.1443 0-1.4113 0-2.872 0-4.29566.0123-.24758 0-.39613-.0247-.48279-.0866-.08665-.0619-.12379-.1609-.12379-.3219 0-.2847.08665-.4209.58183-.4209h.01238c1.96833 0 3.94903.0124 5.91733.0124s3.9366 0 5.8801-.0124h.0124c.4828 0 .5695.1362.5819.4209-.0248.161-.0619.26-.1486.3219z" fill="#c2956d"/><path d="m8.65471 19.5309c-.25997 0-.4209-.0372-.51994-.1114-.12379-.0867-.17331-.2229-.17331-.4086.01238-.3837.19807-.5323.69325-.5323 1.98069 0 3.94899.0124 5.92969.0124 1.9683 0 3.9366 0 5.8802-.0124.5075 0 .6932.1362.6932.5323 0 .1981-.0495.3343-.1733.4086-.099.0742-.2476.099-.458.1114-.0248 0-.0619 0-.0867 0-1.4236-.0124-2.872-.0124-4.2832-.0124-1.0647 0-2.1169 0-3.1691 0-1.4113 0-2.872 0-4.29566.0124-.01238 0-.02476 0-.03713 0zm.01237-.8171c-.47041 0-.47041.1114-.47041.3095 0 .1486.03714.1981.07428.2228.06189.0496.21045.0619.42089.0619 1.43596-.0123 2.88436-.0123 4.29566-.0123h3.1567c1.4236 0 2.872 0 4.308.0123h.0866c.1734 0 .2848-.0247.3343-.0619.0371-.0247.0743-.0742.0743-.2104 0-.1981-.0124-.3095-.4581-.3095-1.9559 0-3.9242.0124-5.9049.0124-1.9931-.0124-3.9614-.0248-5.91732-.0248z" fill="#2b2129"/><path d="m20.9226 10.2216c-.0743.0495-.1981.0867-.3961.0867-.0248 0-.0619 0-.0867 0-1.436-.0124-2.8967-.0124-4.308-.0124-1.0522 0-2.0921 0-3.1443 0-1.4113 0-2.872 0-4.29566.0124-.24758 0-.39613-.0248-.48279-.0867-.08665-.0619-.12379-.1609-.12379-.32184 0-.28472.08665-.42089.58183-.42089h.01238c1.96833 0 3.94903.01238 5.91733.01238s3.9366 0 5.8801-.01238h.0124c.4828 0 .5695.13617.5819.42089-.0248.16094-.0619.25994-.1486.32184z" fill="#c2956d"/><path d="m8.65471 10.4197c-.25997 0-.4209-.0371-.51994-.1114-.12379-.0867-.17331-.2229-.17331-.40854.01238-.38376.19807-.53231.69325-.53231 1.98069 0 3.94899.01238 5.92969.01238 1.9683 0 3.9366 0 5.8802-.01238.5075 0 .6932.13617.6932.53231 0 .19804-.0495.33424-.1733.40854-.099.0743-.2476.099-.458.1114-.0248 0-.0619 0-.0867 0-1.4236-.0124-2.872-.0124-4.2832-.0124-1.0647 0-2.1169 0-3.1691 0-1.4113 0-2.872 0-4.29566.0124-.01238 0-.02476 0-.03713 0zm.01237-.81705c-.47041 0-.47041.11142-.47041.30949 0 .14856.03714.19806.07428.22286.06189.0495.21045.0619.42089.0619 1.43596-.0124 2.88436-.0124 4.29566-.0124h3.1567c1.4236 0 2.872 0 4.308.0124h.0866c.1734 0 .2848-.0248.3343-.0619.0371-.0248.0743-.0743.0743-.21048 0-.19807-.0124-.30949-.4581-.30949-1.9559 0-3.9366.01238-5.9049.01238-1.9931-.02476-3.9614-.02476-5.91732-.02476z" fill="#2b2129"/><path d="m20.9226 7.94383c-.0743.04952-.1981.08666-.3961.08666-.0248 0-.0619 0-.0867 0-1.436-.01238-2.8967-.01238-4.308-.01238-1.0522 0-2.0921 0-3.1443 0-1.4113 0-2.872 0-4.29566.01238-.24758 0-.39613-.02476-.48279-.08666-.08665-.0619-.12379-.16093-.12379-.32186 0-.28473.08665-.4209.58183-.4209h.01238c1.96833 0 3.94903.01238 5.91733.01238s3.9366 0 5.8801-.01238h.0124c.4828 0 .5695.13617.5819.4209-.0248.16093-.0619.25996-.1486.32186z" fill="#c2956d"/><path d="m8.65471 8.14189c-.25997 0-.4209-.03713-.51994-.11141-.12379-.08665-.17331-.22283-.17331-.40852.01238-.38376.19807-.53231.69325-.53231 1.98069 0 3.94899.01238 5.92969.01238 1.9683 0 3.9366 0 5.8802-.01238.5075 0 .6932.13617.6932.53231 0 .19807-.0495.33424-.1733.40852-.099.07428-.2476.09904-.458.11141-.0248 0-.0619 0-.0867 0-1.4236-.01237-2.872-.01237-4.2832-.01237-1.0647 0-2.1169 0-3.1691 0-1.4113 0-2.872 0-4.29566.01237-.01238 0-.02476 0-.03713 0zm.01237-.81703c-.47041 0-.47041.11141-.47041.30948 0 .14855.03714.19807.07428.22283.06189.04952.21045.0619.42089.0619 1.43596-.01238 2.88436-.01238 4.29566-.01238h3.1567c1.4236 0 2.872 0 4.308.01238h.0866c.1734 0 .2848-.02476.3343-.0619.0371-.02476.0743-.07428.0743-.21045 0-.19807-.0124-.30948-.4581-.30948-1.9559 0-3.9242.01238-5.9049.01238-1.9931-.01238-3.9614-.02476-5.91732-.02476z" fill="#2b2129"/><path d="m20.9226 5.66604c-.0743.04951-.1981.08665-.3961.08665-.0248 0-.0619 0-.0867 0-1.436-.01238-2.8967-.01238-4.308-.01238-1.0522 0-2.0921 0-3.1443 0-1.4113 0-2.872 0-4.29566.01238-.24758 0-.39613-.02476-.48279-.08665-.08665-.0619-.12379-.16093-.12379-.32186 0-.28473.08665-.4209.58183-.4209h.01238c1.96833 0 3.94903.01238 5.91733.01238s3.9366 0 5.8801-.01238h.0124c.4828 0 .5695.13617.5819.4209-.0248.16093-.0619.25996-.1486.32186z" fill="#c2956d"/><path d="m8.65471 5.86411c-.25997 0-.4209-.03714-.51994-.11142-.12379-.08665-.17331-.22282-.17331-.40851.01238-.38376.19807-.53231.69325-.53231 1.98069 0 3.94899.01238 5.92969.01238 1.9683 0 3.9366 0 5.8802-.01238.5075 0 .6932.13617.6932.53231 0 .19807-.0495.33424-.1733.40851-.099.07428-.2476.09904-.458.11142-.0248 0-.0619 0-.0867 0-1.436-.01238-2.8844 0-4.2956 0-1.0646 0-2.1169 0-3.1567 0-1.4113 0-2.872 0-4.29566.01238-.01238-.01238-.02476-.01238-.03713-.01238zm.01237-.81704c-.47041 0-.47041.11142-.47041.30949 0 .14855.03714.19806.07428.22282.06189.04952.21045.0619.42089.0619 1.43596-.01238 2.88436-.01238 4.29566-.01238h3.1567c1.4236 0 2.872 0 4.308.01238h.0866c.1734 0 .2848-.02476.3343-.0619.0371-.02476.0743-.07427.0743-.21044 0-.19807-.0124-.30949-.4581-.30949-1.9559 0-3.9242.01238-5.9049.01238-1.9931-.01238-3.9614-.02476-5.91732-.02476z" fill="#2b2129"/></svg>