<svg width="444" height="250" viewBox="0 0 444 250" fill="none" xmlns="http://www.w3.org/2000/svg">
<g clip-path="url(#clip0_327_166)">
<rect width="444" height="250" rx="25" fill="white"/>
<path d="M306 49.5H379C381.485 49.5 383.5 51.5147 383.5 54V69C383.5 71.4853 381.485 73.5 379 73.5H306C303.515 73.5 301.5 71.4853 301.5 69V54C301.5 51.5147 303.515 49.5 306 49.5Z" fill="#ECE8E3" stroke="#101010"/>
<path d="M109.542 53.6729C107.212 53.6729 105.417 55.0348 105.417 57.0564C105.417 59.0219 106.938 59.6958 108.829 60.0608L111.214 60.4539C114.38 60.9874 116.559 62.4756 116.559 66.0135C116.559 69.7059 113.599 71.8679 109.83 71.8679C106.431 71.8679 103.224 69.8182 102.758 65.8029C102.717 65.466 102.977 65.1712 103.306 65.1712H104.732C105.006 65.1712 105.239 65.3818 105.28 65.6625C105.581 68.4985 107.733 69.6216 109.844 69.6216C112.146 69.6216 113.969 68.4564 113.969 66.0978C113.969 63.9919 112.502 63.2618 110.556 62.8828L108.199 62.4616C104.896 61.9 102.827 60.2714 102.827 57.1828C102.827 53.6027 105.869 51.4126 109.528 51.4126C112.447 51.4126 115.668 53.0973 116.298 57.0985C116.353 57.4355 116.093 57.7584 115.75 57.7584H114.27C114.01 57.7584 113.777 57.5618 113.736 57.2951C113.311 54.6417 111.42 53.6729 109.542 53.6729Z" fill="#101010"/>
<path d="M126.042 55.8633C129.564 55.8633 132.072 57.7867 132.963 60.9315C133.059 61.2825 132.799 61.6475 132.429 61.6475H130.77C130.537 61.6475 130.332 61.4931 130.25 61.2684C129.633 59.4714 128.208 58.4465 126.042 58.4465C123.096 58.4465 121.451 60.9034 121.451 63.8657C121.451 66.814 123.109 69.2849 126.042 69.2849C128.208 69.2849 129.633 68.26 130.25 66.463C130.332 66.2384 130.537 66.0839 130.77 66.0839H132.429C132.799 66.0839 133.059 66.449 132.949 66.7999C132.004 70.0851 129.578 71.8681 126.042 71.8681C121.506 71.8681 118.628 68.2741 118.628 63.8657C118.614 59.4714 121.506 55.8633 126.042 55.8633Z" fill="#101010"/>
<path d="M135.622 69.3129H139.171V59.2046H136.006C135.704 59.2046 135.457 58.9519 135.457 58.643V57.211C135.457 56.9022 135.704 56.6494 136.006 56.6494H140.323C141.227 56.6494 141.967 57.4076 141.967 58.3342V58.7413C142.748 56.8179 144.434 56.3406 147.052 56.3406C148.052 56.3406 148.724 56.5091 149.107 56.6494C149.327 56.7337 149.464 56.9443 149.464 57.1689V58.6571C149.464 59.0361 149.107 59.3169 148.751 59.1906C148.285 59.0361 147.627 58.8957 146.764 58.8957C143.968 58.8957 141.981 60.8472 141.981 64.2307V69.3129H146.545C146.846 69.3129 147.093 69.5656 147.093 69.8745V71.3065C147.093 71.6154 146.846 71.8681 146.545 71.8681H135.636C135.334 71.8681 135.087 71.6154 135.087 71.3065V69.8745C135.074 69.5656 135.32 69.3129 135.622 69.3129Z" fill="#101010"/>
<path d="M151.547 63.8657C151.547 59.4714 154.397 55.8633 159.03 55.8633C163.662 55.8633 166.512 59.4574 166.512 63.8657C166.512 68.2741 163.662 71.8681 159.03 71.8681C154.397 71.8681 151.547 68.2741 151.547 63.8657ZM159.03 69.2849C162.004 69.2849 163.717 66.828 163.717 63.8657C163.717 60.9174 162.004 58.4465 159.03 58.4465C156.056 58.4465 154.343 60.9034 154.343 63.8657C154.343 66.828 156.056 69.2849 159.03 69.2849Z" fill="#101010"/>
<path d="M172.707 69.4396H176.997C177.298 69.4396 177.545 69.6923 177.545 70.0012V71.3209C177.545 71.6297 177.298 71.8824 176.997 71.8824H170.569C170.268 71.8824 170.021 71.6297 170.021 71.3209V53.9963H167.883C167.582 53.9963 167.335 53.7436 167.335 53.4347V52.115C167.335 51.8062 167.582 51.5535 167.883 51.5535H171.049C171.953 51.5535 172.694 52.3116 172.694 53.2382V69.4396H172.707Z" fill="#101010"/>
<path d="M182.191 69.4396H186.48C186.782 69.4396 187.028 69.6923 187.028 70.0012V71.3209C187.028 71.6297 186.782 71.8824 186.48 71.8824H180.053C179.751 71.8824 179.504 71.6297 179.504 71.3209V53.9963H177.367C177.065 53.9963 176.818 53.7436 176.818 53.4347V52.115C176.818 51.8062 177.065 51.5535 177.367 51.5535H180.532C181.437 51.5535 182.177 52.3116 182.177 53.2382V69.4396H182.191Z" fill="#101010"/>
<path d="M94.261 67.7546V47.1167C94.2336 45.3899 92.8905 44 91.2049 44H70.1817C65.6455 44.0702 62 47.8749 62 52.5359C62 54.1083 62.4111 55.4561 63.0416 56.6354C63.576 57.6182 64.412 58.5448 65.2343 59.2327C65.4673 59.4292 65.3577 59.345 66.0703 59.7943C67.0571 60.412 68.1809 60.7209 68.1809 60.7209L68.1671 73.0615C68.1946 73.6511 68.2494 74.2127 68.4001 74.7321C68.8661 76.473 70.0447 77.8068 71.6482 78.4526C72.3197 78.7193 73.0735 78.9018 73.882 78.9159L90.6704 78.972C94.0143 78.972 96.7279 76.1922 96.7279 72.7526C96.7416 70.7169 95.7548 68.8918 94.261 67.7546Z" fill="#FFEEDA"/>
<path d="M94.6721 72.907C94.6036 75.1112 92.8357 76.8801 90.6703 76.8801L79.1172 76.838C80.0354 75.743 80.5973 74.325 80.5973 72.7806C80.5973 70.3518 79.1857 68.6812 79.1857 68.6812H90.684C92.8905 68.6812 94.6858 70.5203 94.6858 72.7806L94.6721 72.907Z" fill="#EBC28E"/>
<path d="M66.3307 57.4919C65.0013 56.2003 64.0694 54.5296 64.0694 52.5501V52.3395C64.1791 48.956 66.8926 46.2324 70.1955 46.1341H91.2186C91.7668 46.1622 92.2053 46.5553 92.2053 47.1309V65.354C92.685 65.4382 92.918 65.5084 93.3839 65.6769C93.754 65.8173 94.261 66.1121 94.261 66.1121V47.1309C94.2336 45.4041 92.8906 44.0142 91.2049 44.0142H70.1817C65.6455 44.0844 62 47.889 62 52.5501C62 55.2597 63.206 57.5762 65.1795 59.2047C65.3166 59.3171 65.4399 59.4574 65.7962 59.4574C66.4129 59.4574 66.8515 58.952 66.8241 58.4045C66.8104 57.9412 66.6185 57.7727 66.3307 57.4919Z" fill="#101010"/>
<path d="M90.6712 66.547H74.1843C73.0742 66.561 72.1834 67.4736 72.1834 68.6108V71.0396C72.2108 72.1627 73.1428 73.1174 74.2529 73.1174H75.4726V71.0396H74.2529V68.6669C74.2529 68.6669 74.5544 68.6669 74.9244 68.6669C77.0075 68.6669 78.5424 70.6465 78.5424 72.7664C78.5424 74.6477 76.8705 77.0484 74.0747 76.8519C71.5941 76.6834 70.2511 74.4231 70.2511 72.7664V52.1847C70.2511 51.2581 69.511 50.5 68.6065 50.5H66.9619V52.6059H68.1816V72.7805C68.1131 76.8799 71.0322 78.9437 74.0747 78.9437L90.6849 78.9999C94.0288 78.9999 96.7424 76.2201 96.7424 72.7805C96.7424 69.3408 94.0151 66.547 90.6712 66.547ZM94.673 72.9068C94.6044 75.111 92.8365 76.8799 90.6712 76.8799L79.118 76.8378C80.0363 75.7428 80.5982 74.3248 80.5982 72.7805C80.5982 70.3516 79.1866 68.681 79.1866 68.681H90.6849C92.8913 68.681 94.6867 70.5201 94.6867 72.7805L94.673 72.9068Z" fill="#101010"/>
<path d="M86.23 52.9851H73.7998V50.8792H86.23C86.7919 50.8792 87.2579 51.3424 87.2579 51.9321C87.2579 52.5077 86.8056 52.9851 86.23 52.9851Z" fill="#101010"/>
<path d="M86.23 62.8969H73.7998V60.791H86.23C86.7919 60.791 87.2579 61.2543 87.2579 61.844C87.2579 62.4196 86.8056 62.8969 86.23 62.8969Z" fill="#101010"/>
<path d="M88.4228 57.9411H73.7998V55.8352H88.4091C88.971 55.8352 89.4369 56.2985 89.4369 56.8882C89.4507 57.4638 88.9847 57.9411 88.4228 57.9411Z" fill="#101010"/>
<path d="M222 44V79" stroke="#101010" stroke-miterlimit="10"/>
<circle cx="274.5" cy="61.5" r="17" fill="#ECE8E3" stroke="#101010"/>
<circle cx="222.5" cy="373.5" r="252" fill="#EDCCA2" stroke="#101010"/>
</g>
<defs>
<clipPath id="clip0_327_166">
<rect width="444" height="250" rx="25" fill="white"/>
</clipPath>
</defs>
</svg>
