<svg width="444" height="250" viewBox="0 0 444 250" fill="none" xmlns="http://www.w3.org/2000/svg">
<g clip-path="url(#clip0_327_143)">
<rect width="444" height="250" rx="25" fill="white"/>
<circle cx="340" cy="125" r="75.5" fill="#EDCCA2" stroke="#101010"/>
<path d="M77.6721 74.9029C75.2869 74.9029 73.4489 76.2971 73.4489 78.3668C73.4489 80.379 75.0063 81.069 76.9425 81.4426L79.3838 81.8451C82.6249 82.3913 84.8557 83.9148 84.8557 87.5368C84.8557 91.3169 81.8252 93.5304 77.9668 93.5304C74.4872 93.5304 71.2041 91.4319 70.727 87.3212C70.6849 86.9763 70.9515 86.6744 71.2883 86.6744H72.7474C73.028 86.6744 73.2666 86.89 73.3086 87.1775C73.6173 90.0808 75.8201 91.2307 77.9808 91.2307C80.3379 91.2307 82.204 90.0377 82.204 87.6231C82.204 85.4671 80.7027 84.7197 78.7104 84.3316L76.2971 83.9004C72.9158 83.3255 70.7972 81.6582 70.7972 78.4962C70.7972 74.8311 73.912 72.5889 77.6581 72.5889C80.6466 72.5889 83.9438 74.3136 84.5892 78.4099C84.6453 78.7549 84.3787 79.0855 84.0279 79.0855H82.5126C82.2461 79.0855 82.0075 78.8843 81.9655 78.6112C81.5305 75.8947 79.5943 74.9029 77.6721 74.9029Z" fill="#101010"/>
<path d="M94.5651 77.1453C98.171 77.1453 100.739 79.1144 101.651 82.3339C101.749 82.6932 101.482 83.067 101.103 83.067H99.4057C99.1671 83.067 98.9567 82.9088 98.8725 82.6789C98.2411 80.8391 96.782 79.7899 94.5651 79.7899C91.5486 79.7899 89.8649 82.3052 89.8649 85.3379C89.8649 88.3562 91.5626 90.8859 94.5651 90.8859C96.782 90.8859 98.2411 89.8366 98.8725 87.9969C98.9567 87.7669 99.1671 87.6088 99.4057 87.6088H101.103C101.482 87.6088 101.749 87.9825 101.637 88.3419C100.668 91.7051 98.185 93.5305 94.5651 93.5305C89.9211 93.5305 86.9747 89.851 86.9747 85.3379C86.9606 80.8391 89.9211 77.1453 94.5651 77.1453Z" fill="#101010"/>
<path d="M104.372 90.9145H108.006V80.5659H104.765C104.456 80.5659 104.204 80.3072 104.204 79.991V78.5249C104.204 78.2087 104.456 77.95 104.765 77.95H109.184C110.11 77.95 110.868 78.7261 110.868 79.6748V80.0916C111.668 78.1225 113.394 77.6338 116.073 77.6338C117.098 77.6338 117.785 77.8063 118.178 77.95C118.402 78.0362 118.543 78.2518 118.543 78.4818V80.0053C118.543 80.3934 118.178 80.6809 117.813 80.5515C117.336 80.3934 116.663 80.2497 115.779 80.2497C112.917 80.2497 110.882 82.2475 110.882 85.7114V90.9145H115.554C115.863 90.9145 116.115 91.1732 116.115 91.4894V92.9554C116.115 93.2716 115.863 93.5304 115.554 93.5304H104.386C104.077 93.5304 103.825 93.2716 103.825 92.9554V91.4894C103.811 91.1732 104.063 90.9145 104.372 90.9145Z" fill="#101010"/>
<path d="M120.675 85.3379C120.675 80.8391 123.593 77.1453 128.335 77.1453C133.078 77.1453 135.996 80.8248 135.996 85.3379C135.996 89.851 133.078 93.5305 128.335 93.5305C123.593 93.5305 120.675 89.851 120.675 85.3379ZM128.335 90.8859C131.38 90.8859 133.134 88.3706 133.134 85.3379C133.134 82.3196 131.38 79.7899 128.335 79.7899C125.291 79.7899 123.537 82.3052 123.537 85.3379C123.537 88.3706 125.291 90.8859 128.335 90.8859Z" fill="#101010"/>
<path d="M142.338 91.0441H146.729C147.038 91.0441 147.291 91.3029 147.291 91.6191V92.9701C147.291 93.2863 147.038 93.545 146.729 93.545H140.149C139.84 93.545 139.588 93.2863 139.588 92.9701V75.2338H137.399C137.09 75.2338 136.838 74.9751 136.838 74.6589V73.3078C136.838 72.9916 137.09 72.7329 137.399 72.7329H140.64C141.566 72.7329 142.324 73.5091 142.324 74.4577V91.0441H142.338Z" fill="#101010"/>
<path d="M152.047 91.0441H156.438C156.747 91.0441 157 91.3029 157 91.6191V92.9701C157 93.2863 156.747 93.545 156.438 93.545H149.858C149.549 93.545 149.297 93.2863 149.297 92.9701V75.2338H147.108C146.799 75.2338 146.547 74.9751 146.547 74.6589V73.3078C146.547 72.9916 146.799 72.7329 147.108 72.7329H150.349C151.275 72.7329 152.033 73.5091 152.033 74.4577V91.0441H152.047Z" fill="#101010"/>
<path d="M62.0278 89.3192V68.1908C61.9997 66.4229 60.6247 65 58.899 65H37.3762C32.7321 65.0719 29 68.967 29 73.7388C29 75.3486 29.4209 76.7284 30.0663 77.9357C30.6135 78.9418 31.4694 79.8905 32.3112 80.5947C32.5497 80.796 32.4375 80.7097 33.1671 81.1697C34.1773 81.8021 35.3278 82.1183 35.3278 82.1183L35.3137 94.7522C35.3418 95.3558 35.3979 95.9307 35.5522 96.4625C36.0293 98.2448 37.2359 99.6102 38.8775 100.271C39.565 100.544 40.3366 100.731 41.1644 100.746L58.3518 100.803C61.7752 100.803 64.5533 97.9573 64.5533 94.4359C64.5673 92.3519 63.5571 90.4834 62.0278 89.3192Z" fill="#FFEEDA"/>
<path d="M62.449 94.5941C62.3789 96.8507 60.5689 98.6617 58.3521 98.6617L46.5244 98.6186C47.4645 97.4975 48.0397 96.0458 48.0397 94.4647C48.0397 91.9782 46.5946 90.2678 46.5946 90.2678H58.3661C60.625 90.2678 62.463 92.1507 62.463 94.4647L62.449 94.5941Z" fill="#EBC28E"/>
<path d="M33.4336 78.8125C32.0727 77.4902 31.1186 75.7798 31.1186 73.7532V73.5376C31.2308 70.0737 34.0089 67.2853 37.3902 67.1847H58.913C59.4742 67.2135 59.9232 67.6159 59.9232 68.2052V86.8614C60.4143 86.9476 60.6528 87.0195 61.1298 87.192C61.5086 87.3357 62.0278 87.6375 62.0278 87.6375V68.2052C61.9997 66.4373 60.6247 65.0144 58.899 65.0144H37.3762C32.7321 65.0863 29 68.9814 29 73.7532C29 76.5272 30.2347 78.8987 32.2551 80.566C32.3954 80.681 32.5217 80.8247 32.8864 80.8247C33.5178 80.8247 33.9668 80.3073 33.9387 79.7468C33.9247 79.2724 33.7283 79.1 33.4336 78.8125Z" fill="#101010"/>
<path d="M58.3518 88.0829H41.4732C40.3367 88.0973 39.4247 89.0315 39.4247 90.1957V92.6823C39.4528 93.8321 40.4069 94.8095 41.5433 94.8095H42.792V92.6823H41.5433V90.2532C41.5433 90.2532 41.852 90.2532 42.2308 90.2532C44.3634 90.2532 45.9349 92.2798 45.9349 94.4502C45.9349 96.3761 44.2231 98.8339 41.3609 98.6327C38.8214 98.4602 37.4464 96.1462 37.4464 94.4502V73.3793C37.4464 72.4307 36.6888 71.6545 35.7628 71.6545H34.0791V73.8105H35.3278V94.4645C35.2577 98.6615 38.2462 100.774 41.3609 100.774L58.3659 100.832C61.7893 100.832 64.5673 97.9859 64.5673 94.4645C64.5673 90.9431 61.7753 88.0829 58.3518 88.0829ZM62.4487 94.5939C62.3786 96.8505 60.5687 98.6615 58.3518 98.6615L46.5241 98.6183C47.4642 97.4972 48.0394 96.0456 48.0394 94.4645C48.0394 91.978 46.5943 90.2676 46.5943 90.2676H58.3659C60.6248 90.2676 62.4628 92.1505 62.4628 94.4645L62.4487 94.5939Z" fill="#101010"/>
<path d="M53.8057 74.1987H41.0801V72.0427H53.8057C54.381 72.0427 54.858 72.517 54.858 73.1207C54.858 73.71 54.395 74.1987 53.8057 74.1987Z" fill="#101010"/>
<path d="M53.8057 84.3461H41.0801V82.1902H53.8057C54.381 82.1902 54.858 82.6645 54.858 83.2682C54.858 83.8575 54.395 84.3461 53.8057 84.3461Z" fill="#101010"/>
<path d="M56.0506 79.2724H41.0801V77.1165H56.0366C56.6118 77.1165 57.0889 77.5908 57.0889 78.1944C57.1029 78.7837 56.6259 79.2724 56.0506 79.2724Z" fill="#101010"/>
<rect x="29.5" y="120.5" width="192" height="26" rx="4.5" fill="#ECE8E3" stroke="#101010"/>
<rect x="29.5" y="159.5" width="148" height="26" rx="4.5" fill="#ECE8E3" stroke="#101010"/>
</g>
<defs>
<clipPath id="clip0_327_143">
<rect width="444" height="250" rx="25" fill="white"/>
</clipPath>
</defs>
</svg>
