<?xml version="1.0" encoding="utf-8"?>
<!-- Generator: Adobe Illustrator 28.0.0, SVG Export Plug-In . SVG Version: 6.00 Build 0)  -->
<svg version="1.1" id="Layer_1" xmlns="http://www.w3.org/2000/svg" xmlns:xlink="http://www.w3.org/1999/xlink" x="0px" y="0px"
	 viewBox="0 0 296.6 81.1" style="enable-background:new 0 0 296.6 81.1;" xml:space="preserve">
<style type="text/css">
	.st0{fill:#101010;}
	.st1{fill:#FFEEDA;}
	.st2{fill:#EBC28E;}
</style>
<g>
	<path class="st0" d="M112.8,22.4c-5.5,0-9.8,3.2-9.8,7.8s3.6,6.1,8.1,7l5.7,0.9c7.5,1.2,12.7,4.7,12.7,12.9c0,8.6-7,13.6-16,13.6
		c-8.1,0-15.7-4.8-16.8-14.1C96.6,49.7,97.2,49,98,49h3.4c0.6,0,1.2,0.5,1.3,1.1c0.7,6.6,5.8,9.2,10.8,9.2c5.5,0,9.8-2.7,9.8-8.2
		c0-4.9-3.5-6.6-8.1-7.5l-5.6-1c-7.8-1.3-12.7-5.1-12.7-12.2c0-8.3,7.2-13.4,15.9-13.4c6.9,0,14.6,3.9,16.1,13.2
		c0.1,0.8-0.5,1.5-1.3,1.5H124c-0.6,0-1.2-0.5-1.3-1.1C121.7,24.7,117.2,22.4,112.8,22.4z"/>
	<path class="st0" d="M151.9,27.5c8.4,0,14.3,4.5,16.4,11.8c0.2,0.8-0.4,1.7-1.3,1.7h-3.9c-0.6,0-1-0.4-1.2-0.9
		c-1.5-4.2-4.8-6.5-10-6.5c-7,0-10.9,5.7-10.9,12.6c0,6.8,3.9,12.6,10.9,12.6c5.1,0,8.5-2.4,10-6.5c0.2-0.5,0.7-0.9,1.2-0.9h3.9
		c0.9,0,1.5,0.8,1.2,1.7c-2.2,7.6-8,11.8-16.4,11.8c-10.8,0-17.6-8.3-17.6-18.6C134.3,35.9,141.2,27.5,151.9,27.5z"/>
	<path class="st0" d="M174.7,58.7h8.4V35.3h-7.5c-0.7,0-1.3-0.6-1.3-1.3v-3.3c0-0.7,0.6-1.3,1.3-1.3h10.2c2.1,0,3.9,1.8,3.9,3.9v0.9
		c1.9-4.5,5.9-5.6,12.1-5.6c2.4,0,4,0.4,4.9,0.7c0.5,0.2,0.8,0.7,0.8,1.2V34c0,0.9-0.8,1.5-1.7,1.2c-1.1-0.4-2.7-0.7-4.7-0.7
		c-6.6,0-11.3,4.5-11.3,12.4v11.8h10.8c0.7,0,1.3,0.6,1.3,1.3v3.3c0,0.7-0.6,1.3-1.3,1.3h-25.9c-0.7,0-1.3-0.6-1.3-1.3V60
		C173.4,59.3,174,58.7,174.7,58.7z"/>
	<path class="st0" d="M212.5,46.1c0-10.2,6.8-18.6,17.8-18.6s17.8,8.3,17.8,18.6c0,10.2-6.8,18.6-17.8,18.6
		C219.2,64.6,212.5,56.3,212.5,46.1z M230.2,58.6c7.1,0,11.1-5.7,11.1-12.6c0-6.8-4.1-12.6-11.1-12.6c-7.1,0-11.1,5.7-11.1,12.6
		S223.2,58.6,230.2,58.6z"/>
	<path class="st0" d="M262.7,59h10.2c0.7,0,1.3,0.6,1.3,1.3v3.1c0,0.7-0.6,1.3-1.3,1.3h-15.2c-0.7,0-1.3-0.6-1.3-1.3V23.2h-5.1
		c-0.7,0-1.3-0.6-1.3-1.3v-3.1c0-0.7,0.6-1.3,1.3-1.3h7.5c2.1,0,3.9,1.8,3.9,3.9V59L262.7,59z"/>
	<path class="st0" d="M285.2,59h10.2c0.7,0,1.3,0.6,1.3,1.3v3.1c0,0.7-0.6,1.3-1.3,1.3h-15.2c-0.7,0-1.3-0.6-1.3-1.3V23.2h-5.1
		c-0.7,0-1.3-0.6-1.3-1.3v-3.1c0-0.7,0.6-1.3,1.3-1.3h7.5c2.1,0,3.9,1.8,3.9,3.9V59L285.2,59z"/>
	<path class="st1" d="M76.5,55.1V7.2c-0.1-4-3.3-7.2-7.3-7.2H19.4C8.6,0.2,0,9,0,19.8c0,3.6,1,6.8,2.5,9.5c1.3,2.3,3.3,4.4,5.2,6
		c0.6,0.5,0.3,0.3,2,1.3c2.3,1.4,5,2.1,5,2.1v28.6c0.1,1.4,0.2,2.7,0.6,3.9c1.1,4,3.9,7.1,7.7,8.6c1.6,0.6,3.4,1,5.3,1.1L68,81.1
		c7.9,0,14.4-6.4,14.4-14.4C82.4,62,80.1,57.7,76.5,55.1z"/>
	<path class="st2" d="M77.5,67c-0.2,5.1-4.4,9.2-9.5,9.2l-27.4-0.1c2.2-2.5,3.5-5.8,3.5-9.4c0-5.6-3.3-9.5-3.3-9.5h27.3
		c5.2,0,9.5,4.3,9.5,9.5L77.5,67z"/>
	<path class="st0" d="M10.3,31.3c-3.2-3-5.4-6.9-5.4-11.5v-0.5c0.3-7.8,6.7-14.2,14.5-14.4h49.9c1.3,0.1,2.3,1,2.3,2.3v42.3
		c1.1,0.2,1.7,0.4,2.8,0.7c0.9,0.3,2.1,1,2.1,1v-44c-0.1-4-3.3-7.2-7.3-7.2H19.4C8.6,0.2,0,9,0,19.8c0,6.3,2.9,11.7,7.5,15.4
		c0.3,0.3,0.6,0.6,1.5,0.6c1.5,0,2.5-1.2,2.4-2.4C11.4,32.3,11,31.9,10.3,31.3z"/>
	<path class="st0" d="M68,52.3H28.9c-2.6,0-4.7,2.1-4.7,4.8v5.6c0.1,2.6,2.3,4.8,4.9,4.8H32v-4.8h-2.9v-5.5c0,0,0.7,0,1.6,0
		c4.9,0,8.6,4.6,8.6,9.5c0,4.4-4,9.9-10.6,9.5c-5.9-0.4-9.1-5.6-9.1-9.5V19c0-2.1-1.8-3.9-3.9-3.9h-3.9V20h2.9v46.8
		c-0.2,9.5,6.8,14.3,14,14.3l39.4,0.1c7.9,0,14.4-6.4,14.4-14.4C82.4,58.8,76,52.3,68,52.3z M77.5,67c-0.2,5.1-4.4,9.2-9.5,9.2
		l-27.4-0.1c2.2-2.5,3.5-5.8,3.5-9.4c0-5.6-3.3-9.5-3.3-9.5h27.3c5.2,0,9.5,4.3,9.5,9.5L77.5,67z"/>
	<path class="st0" d="M57.5,20.8H28V16h29.5c1.3,0,2.4,1.1,2.4,2.4C59.9,19.7,58.9,20.8,57.5,20.8z"/>
	<path class="st0" d="M57.5,43.8H28v-4.9h29.5c1.3,0,2.4,1.1,2.4,2.4C59.9,42.7,58.9,43.8,57.5,43.8z"/>
	<path class="st0" d="M62.7,32.3H28v-4.9h34.7c1.3,0,2.4,1.1,2.4,2.4C65.1,31.2,64,32.3,62.7,32.3z"/>
</g>
</svg>
