<svg width="22" height="22" viewBox="0 0 22 22" fill="none" xmlns="http://www.w3.org/2000/svg">
<circle cx="11" cy="11" r="11" fill="currentColor"/>
<path d="M16.5517 5.66642C15.5003 5.18468 14.3898 4.84323 13.249 4.65088C13.0929 4.92749 12.9527 5.21274 12.829 5.50523C11.6161 5.32792 10.3838 5.32792 9.17095 5.50523C9.05789 5.23925 8.88831 4.90074 8.75103 4.65088C7.60414 4.83951 6.48785 5.18108 5.43209 5.66642C3.57204 8.29811 2.734 11.515 3.07411 14.7177C4.2962 15.6142 5.6613 16.2982 7.11175 16.7407C7.44104 16.3027 7.73022 15.836 7.97581 15.3463C7.5042 15.1714 7.05001 14.9528 6.61916 14.6935L6.95025 14.4356C8.21263 15.0311 9.59158 15.34 10.9879 15.34C12.3842 15.34 13.7631 15.0311 15.0255 14.4356C15.1386 14.5242 15.2436 14.6129 15.3647 14.6935C14.9274 14.9513 14.468 15.1698 13.9919 15.3463C14.2454 15.8368 14.5427 16.3035 14.8802 16.7407C16.3306 16.2982 17.6957 15.6142 18.9178 14.7177C19.2548 11.514 18.414 8.29734 16.5517 5.66642ZM8.34727 12.9203C8.14673 12.909 7.95039 12.8583 7.76953 12.7711C7.58866 12.6839 7.42682 12.5619 7.29328 12.4122C7.15974 12.2624 7.05713 12.0878 6.99134 11.8984C6.92554 11.709 6.89786 11.5085 6.90987 11.3083C6.89677 11.108 6.92369 10.907 6.98907 10.7171C7.05446 10.5273 7.157 10.3522 7.29074 10.2023C7.42448 10.0523 7.58676 9.93031 7.76813 9.84346C7.94951 9.75662 8.14636 9.70661 8.34727 9.69636C8.54854 9.70554 8.74593 9.75482 8.92782 9.84131C9.10972 9.9278 9.27243 10.0497 9.40638 10.2C9.54033 10.3502 9.6428 10.5256 9.70777 10.716C9.77274 10.9063 9.79888 11.1077 9.78467 11.3083C9.80014 11.7071 9.65822 12.096 9.38942 12.3914C9.12063 12.6868 8.74642 12.8651 8.34727 12.8881V12.9203ZM13.6527 12.9203C13.2485 12.8954 12.8705 12.7119 12.6012 12.4099C12.332 12.108 12.1932 11.712 12.2153 11.3083C12.2033 11.1082 12.231 10.9077 12.2968 10.7183C12.3626 10.5289 12.4652 10.3543 12.5987 10.2045C12.7323 10.0548 12.8941 9.93278 13.075 9.84558C13.2558 9.75838 13.4522 9.70767 13.6527 9.69636C13.854 9.70554 14.0514 9.75482 14.2333 9.84131C14.4152 9.9278 14.5779 10.0497 14.7118 10.2C14.8458 10.3502 14.9483 10.5256 15.0132 10.716C15.0782 10.9063 15.1043 11.1077 15.0901 11.3083C15.1077 11.7076 14.9665 12.0977 14.6973 12.3936C14.4281 12.6895 14.0526 12.8672 13.6527 12.8881V12.9203Z" fill="#FDF1E6"/>
</svg>
