<svg width="23" height="22" viewBox="0 0 23 22" fill="none" xmlns="http://www.w3.org/2000/svg">
<path d="M11.3639 0C17.4446 0 22.3737 5.04898 22.3737 11.2783C22.3737 16.2601 19.2227 20.4863 14.8507 21.979C14.2925 22.0901 14.0943 21.7381 14.0943 21.4378C14.0943 21.066 14.1075 19.8516 14.1075 18.3424C14.1075 17.2908 13.7552 16.6044 13.36 16.2546C15.8119 15.9752 18.3882 15.0215 18.3882 10.6898C18.3882 9.45776 17.961 8.45237 17.2542 7.66257C17.3687 7.37767 17.7463 6.23038 17.1463 4.67718C17.1463 4.67718 16.2236 4.37468 14.1218 5.83328C13.2422 5.58358 12.2997 5.45818 11.3639 5.45378C10.428 5.45818 9.48669 5.58358 8.6081 5.83328C6.50412 4.37468 5.57929 4.67718 5.57929 4.67718C4.98145 6.23038 5.35909 7.37767 5.47249 7.66257C4.76896 8.45237 4.33848 9.45776 4.33848 10.6898C4.33848 15.0105 6.90928 15.9785 9.35457 16.2634C9.03969 16.545 8.75453 17.0422 8.65545 17.7715C8.02788 18.0597 6.43365 18.558 5.45157 16.8343C5.45157 16.8343 4.86915 15.7508 3.76376 15.6716C3.76376 15.6716 2.6903 15.6573 3.68889 16.3569C3.68889 16.3569 4.41004 16.7034 4.91099 18.0069C4.91099 18.0069 5.55727 20.0199 8.62021 19.3379C8.62572 20.2806 8.63563 21.1694 8.63563 21.4378C8.63563 21.7359 8.43305 22.0846 7.88365 21.9801C3.50833 20.4896 0.354004 16.2612 0.354004 11.2783C0.354004 5.04898 5.28422 0 11.3639 0Z" fill="currentColor"/>
</svg>
