<svg fill="none" height="17" viewBox="0 0 18 17" width="18" xmlns="http://www.w3.org/2000/svg"><path d="m8.81389 0c-4.69635 0-8.500169 3.90255-8.500169 8.71559 0 3.85161 2.435169 7.11771 5.811989 8.26931.42501.0822.58073-.1877.58073-.4192 0-.2068-.00697-.7553-.01062-1.4818-2.36444.5256-2.86316-1.1693-2.86316-1.1693-.38683-1.0058-.94565-1.275-.94565-1.275-.76999-.5401.05944-.529.05944-.529.85367.0606 1.30192.898 1.30192.898.75804 1.3325 1.9899.9476 2.47567.7251.07637-.564.29552-.9475.53823-1.1654-1.88763-.218-3.87189-.9677-3.87189-4.30692 0-.95138.32938-1.72884.87492-2.33861-.09563-.22035-.38251-1.1066.07438-2.30675 0 0 .71189-.23351 2.33754.89353.68002-.19367 1.40253-.28964 2.12505-.29415.72251.00451 1.44503.10048 2.12503.29415 1.615-1.12704 2.3269-.89353 2.3269-.89353.4569 1.20049.17 2.0864.085 2.30675.5419.60977.8713 1.38723.8713 2.33861 0 3.34822-1.9869 4.08512-3.8782 4.29962.2975.2616.5738.7961.5738 1.6128 0 1.1661-.0107 2.1033-.0107 2.3867 0 .2283.1488.501.5844.4141 3.4007-1.1441 5.8339-4.4126 5.8339-8.25831.0004-4.81374-3.8055-8.71629-8.49981-8.71629z" fill="#fff8f3"/></svg>