<svg fill="none" height="70" viewBox="0 0 70 70" width="70" xmlns="http://www.w3.org/2000/svg"><circle cx="35" cy="35" fill="#101010" r="35"/><path d="m35.17 49.82c-2.77 0-5.01-2.17-5.1-4.94v-.08h-6.6c-1.36 0-2.47-1.11-2.47-2.47 0-.72.31-1.4.86-1.87.04-.03.08-.06.12-.09 1.89-1.65 2.97-4.04 2.97-6.55v-3.68c0-4.36 2.96-8.11 7.2-9.11.09-.02.17-.03.26-.03.54 0 1 .36 1.12.88.07.3.02.61-.14.87s-.41.44-.71.51c-3.2.75-5.43 3.59-5.43 6.88v3.68c0 3.23-1.41 6.29-3.88 8.39-.06.12-.05.19-.02.24l.02.03.09.03h23.4c.09 0 .17-.08.17-.17-2.52-2.21-3.95-5.29-3.95-8.51v-3.68c0-3.3-2.23-6.13-5.43-6.88-.62-.15-1-.76-.85-1.38.12-.52.58-.88 1.12-.88.09 0 .18.01.26.03 4.24 1 7.2 4.75 7.2 9.12v3.68c0 2.51 1.09 4.91 2.99 6.56.03.02.06.04.11.08.55.47.86 1.15.86 1.87 0 1.36-1.11 2.47-2.46 2.47h-6.62v.08c-.12 2.77-2.35 4.94-5.08 4.94zm-2.81-4.93c.15 1.5 1.36 2.63 2.81 2.63s2.71-1.16 2.8-2.63v-.08h-5.62v.09z" fill="#fff8f3"/></svg>