<svg width="22" height="22" viewBox="0 0 22 22" fill="none" xmlns="http://www.w3.org/2000/svg">
<circle cx="11" cy="11" r="11" fill="currentColor"/>
<path d="M17.7423 6.42188C17.2133 6.6625 16.6478 6.825 16.0519 6.9C16.66 6.525 17.1282 5.93125 17.3471 5.225C16.7785 5.57187 16.1492 5.825 15.4773 5.95937C14.9391 5.36875 14.173 5 13.3278 5C11.7012 5 10.3847 6.35625 10.3847 8.02813C10.3847 8.26562 10.4091 8.49687 10.4607 8.71875C8.01328 8.59375 5.84248 7.3875 4.39225 5.55313C4.1399 6 3.99396 6.52187 3.99396 7.075C3.99396 8.125 4.5169 9.05312 5.30738 9.59688C4.82093 9.58437 4.36488 9.44688 3.96964 9.21875C3.96964 9.23125 3.96964 9.24375 3.96964 9.25625C3.96964 10.725 4.98511 11.9469 6.33197 12.225C6.08571 12.2937 5.82424 12.3312 5.55669 12.3312C5.36819 12.3312 5.18273 12.3125 5.00335 12.275C5.37731 13.4781 6.46575 14.3531 7.75485 14.3781C6.7485 15.1906 5.47764 15.675 4.09733 15.675C3.86019 15.675 3.62608 15.6594 3.39502 15.6312C4.69324 16.5 6.24077 17 7.90078 17C13.3217 17 16.283 12.3844 16.283 8.38125C16.283 8.25 16.2799 8.11875 16.2738 7.99062C16.8485 7.5625 17.3471 7.03125 17.7423 6.42188Z" fill="#FDF1E6"/>
</svg>
