<svg width="22" height="22" viewBox="0 0 22 22" fill="none" xmlns="http://www.w3.org/2000/svg">
<circle cx="11" cy="11" r="11" fill="currentColor"/>
<path d="M18.0073 7.20616C17.8346 6.59269 17.3273 6.11059 16.6819 5.94638C15.5133 5.64844 10.8252 5.64844 10.8252 5.64844C10.8252 5.64844 6.13704 5.64844 4.9684 5.94638C4.323 6.11059 3.8158 6.59269 3.64304 7.20616C3.32959 8.31698 3.32959 10.636 3.32959 10.636C3.32959 10.636 3.32959 12.955 3.64304 14.0658C3.8158 14.6793 4.323 15.1614 4.9684 15.3255C6.13704 15.6235 10.8252 15.6235 10.8252 15.6235C10.8252 15.6235 15.5133 15.6235 16.6819 15.3255C17.3273 15.1614 17.8346 14.6793 18.0073 14.0658C18.3208 12.955 18.3208 10.636 18.3208 10.636C18.3208 10.636 18.3195 8.31698 18.0073 7.20616Z" fill="#FDF1E6"/>
<path d="M9.32617 12.6311L12.3244 10.6361L9.32617 8.64111V12.6311Z" fill="currentColor"/>
</svg>
