<svg width="24" height="25" viewBox="0 0 24 25" fill="none" xmlns="http://www.w3.org/2000/svg">
<g clip-path="url(#clip0_4886_6289)">
<path fill-rule="evenodd" clip-rule="evenodd" d="M3.59659 9.91903C2.7406 9.08733 2.14052 8.01155 2.14052 6.73689V6.60129C2.21111 4.42261 3.9584 2.66882 6.08516 2.60554H19.6223C19.9753 2.62362 20.2576 2.87674 20.2576 3.24739V14.9815C20.5665 15.0358 20.7165 15.081 21.0166 15.1894C21.2548 15.2798 21.5814 15.4697 21.5814 15.4697V3.24739C21.5637 2.13545 20.6989 1.24048 19.6134 1.24048H6.07634C3.15536 1.28568 0.807983 3.73556 0.807983 6.73689C0.807983 8.48164 1.58456 9.97327 2.85532 11.0219C2.86459 11.0295 2.87376 11.0373 2.88302 11.0452C2.96191 11.1122 3.04709 11.1846 3.25243 11.1846C3.64954 11.1846 3.93193 10.8592 3.91428 10.5066C3.9058 10.2199 3.79136 10.1086 3.61795 9.93983L3.59659 9.91903ZM19.2691 15.7499H8.65294C7.93814 15.7589 7.36453 16.3465 7.36453 17.0788V18.6427C7.38218 19.366 7.98226 19.9807 8.69707 19.9807H9.48246V18.6427H8.69707V17.115H9.12947C10.4708 17.115 11.4592 18.3896 11.4592 19.7547C11.4592 20.9661 10.3826 22.5119 8.58234 22.3854C6.98507 22.2769 6.12025 20.8214 6.12025 19.7547V6.50181C6.12025 5.90516 5.64372 5.41699 5.06128 5.41699H4.00232V6.77302H4.78772V19.7637C4.74359 22.4034 6.62326 23.7323 8.58234 23.7323L19.2779 23.7685C21.4311 23.7685 23.1784 21.9786 23.1784 19.7637C23.1784 17.5489 21.4223 15.7499 19.2691 15.7499ZM21.8459 19.8451C21.8018 21.2644 20.6634 22.4034 19.2691 22.4034L11.8298 22.3763C12.4211 21.6712 12.7829 20.7581 12.7829 19.7637C12.7829 18.1998 11.874 17.124 11.874 17.124H19.2779C20.6987 17.124 21.8547 18.3083 21.8547 19.7637L21.8459 19.8451ZM8.40564 7.01728H16.4097C16.7803 7.01728 17.0715 6.70991 17.0715 6.33927C17.0715 5.95958 16.7715 5.66125 16.4097 5.66125H8.40564V7.01728ZM16.4097 13.3994H8.40564V12.0433H16.4097C16.7715 12.0433 17.0715 12.3417 17.0715 12.7213C17.0715 13.092 16.7803 13.3994 16.4097 13.3994ZM8.40564 10.2083H17.8216C18.1834 10.2083 18.4835 9.90095 18.4746 9.53031C18.4746 9.15062 18.1746 8.85229 17.8128 8.85229H8.40564V10.2083Z" fill="currentColor"/>
<path d="M3.59659 9.91903L3.66636 9.84739L3.66628 9.84731L3.59659 9.91903ZM2.14052 6.60129L2.04052 6.59805V6.60129H2.14052ZM6.08516 2.60554V2.5055L6.08219 2.50559L6.08516 2.60554ZM19.6223 2.60554L19.6274 2.50554H19.6223V2.60554ZM20.2576 14.9815H20.1576V15.0655L20.2404 15.08L20.2576 14.9815ZM21.0166 15.1894L21.052 15.0959L21.0506 15.0954L21.0166 15.1894ZM21.5814 15.4697L21.5311 15.5561L21.6814 15.6435V15.4697H21.5814ZM21.5814 3.24739H21.6814L21.6813 3.2458L21.5814 3.24739ZM6.07634 1.24048V1.14047L6.07479 1.14049L6.07634 1.24048ZM2.85532 11.0219L2.79167 11.0991L2.79193 11.0993L2.85532 11.0219ZM2.88302 11.0452L2.94779 10.969L2.94779 10.969L2.88302 11.0452ZM3.91428 10.5066L3.81431 10.5096L3.81441 10.5116L3.91428 10.5066ZM3.61795 9.93983L3.54818 10.0115L3.54821 10.0115L3.61795 9.93983ZM8.65294 15.7499V15.6499L8.65168 15.6499L8.65294 15.7499ZM7.36453 18.6427H7.2645L7.26456 18.6452L7.36453 18.6427ZM9.48246 19.9807V20.0807H9.58246V19.9807H9.48246ZM9.48246 18.6427H9.58246V18.5427H9.48246V18.6427ZM8.69707 18.6427H8.59707V18.7427H8.69707V18.6427ZM8.69707 17.115V17.015H8.59707V17.115H8.69707ZM8.58234 22.3854L8.58935 22.2856L8.58912 22.2856L8.58234 22.3854ZM4.00232 5.41699V5.31699H3.90232V5.41699H4.00232ZM4.00232 6.77302H3.90232V6.87302H4.00232V6.77302ZM4.78772 6.77302H4.88772V6.67302H4.78772V6.77302ZM4.78772 19.7637L4.88772 19.7654V19.7637H4.78772ZM8.58234 23.7323L8.58268 23.6323H8.58234V23.7323ZM19.2779 23.7685L19.2776 23.8685H19.2779V23.7685ZM19.2691 22.4034L19.2687 22.5034H19.2691V22.4034ZM21.8459 19.8451L21.7462 19.8343L21.7459 19.842L21.8459 19.8451ZM11.8298 22.3763L11.7532 22.3121L11.6161 22.4755L11.8295 22.4763L11.8298 22.3763ZM11.874 17.124V17.024H11.6586L11.7976 17.1885L11.874 17.124ZM21.8547 19.7637L21.9547 19.7746V19.7637H21.8547ZM8.40564 7.01728H8.30564V7.11728H8.40564V7.01728ZM8.40564 5.66125V5.56125H8.30564V5.66125H8.40564ZM8.40564 13.3994H8.30564V13.4994H8.40564V13.3994ZM8.40564 12.0433V11.9433H8.30564V12.0433H8.40564ZM8.40564 10.2083H8.30564V10.3083H8.40564V10.2083ZM18.4746 9.53031H18.3746L18.3747 9.53269L18.4746 9.53031ZM8.40564 8.85229V8.7523H8.30564V8.85229H8.40564ZM2.04052 6.73689C2.04052 8.04538 2.65702 9.14556 3.52691 9.99075L3.66628 9.84731C2.82417 9.0291 2.24052 7.97773 2.24052 6.73689H2.04052ZM2.04052 6.60129V6.73689H2.24052V6.60129H2.04052ZM6.08219 2.50559C3.90148 2.57047 2.11284 4.36775 2.04057 6.59805L2.24046 6.60453C2.30939 4.47747 4.01533 2.76717 6.08813 2.7055L6.08219 2.50559ZM19.6223 2.50554H6.08516V2.70554H19.6223V2.50554ZM20.3576 3.24739C20.3576 2.81663 20.0264 2.52611 19.6274 2.50567L19.6172 2.70541C19.9241 2.72113 20.1576 2.93686 20.1576 3.24739H20.3576ZM20.3576 14.9815V3.24739H20.1576V14.9815H20.3576ZM21.0506 15.0954C20.7466 14.9855 20.5909 14.9385 20.2749 14.883L20.2404 15.08C20.5421 15.133 20.6865 15.1764 20.9826 15.2835L21.0506 15.0954ZM21.5814 15.4697C21.6316 15.3832 21.6316 15.3832 21.6316 15.3832C21.6316 15.3832 21.6316 15.3832 21.6316 15.3832C21.6316 15.3832 21.6315 15.3832 21.6315 15.3832C21.6315 15.3831 21.6314 15.3831 21.6313 15.3831C21.6311 15.3829 21.6309 15.3828 21.6305 15.3826C21.6298 15.3822 21.6289 15.3816 21.6276 15.3809C21.625 15.3794 21.6213 15.3773 21.6165 15.3745C21.6068 15.369 21.5929 15.3611 21.5754 15.3513C21.5406 15.3318 21.4916 15.3049 21.435 15.275C21.3227 15.2158 21.1771 15.1434 21.052 15.0959L20.9811 15.2829C21.0943 15.3259 21.2311 15.3936 21.3417 15.4519C21.3965 15.4808 21.444 15.507 21.4778 15.5259C21.4947 15.5353 21.5081 15.5429 21.5172 15.5482C21.5218 15.5508 21.5253 15.5528 21.5277 15.5542C21.5288 15.5548 21.5297 15.5553 21.5303 15.5557C21.5306 15.5558 21.5308 15.556 21.5309 15.556C21.531 15.5561 21.531 15.5561 21.5311 15.5561C21.5311 15.5561 21.5311 15.5561 21.5311 15.5561C21.5311 15.5561 21.5311 15.5561 21.5311 15.5561C21.5311 15.5561 21.5311 15.5561 21.5814 15.4697ZM21.4814 3.24739V15.4697H21.6814V3.24739H21.4814ZM19.6134 1.34048C20.6406 1.34048 21.4645 2.18786 21.4814 3.24898L21.6813 3.2458C21.6629 2.08304 20.7572 1.14048 19.6134 1.14048V1.34048ZM6.07634 1.34048H19.6134V1.14048H6.07634V1.34048ZM0.907983 6.73689C0.907983 3.78764 3.21403 1.38478 6.07788 1.34047L6.07479 1.14049C3.09668 1.18658 0.707983 3.68348 0.707983 6.73689H0.907983ZM2.91897 10.9448C1.66958 9.91378 0.907983 8.44973 0.907983 6.73689H0.707983C0.707983 8.51356 1.49954 10.0328 2.79167 11.0991L2.91897 10.9448ZM2.94779 10.969C2.93865 10.9612 2.92879 10.9528 2.9187 10.9446L2.79193 11.0993C2.80039 11.1062 2.80888 11.1134 2.81826 11.1214L2.94779 10.969ZM3.25243 11.0846C3.16221 11.0846 3.10433 11.0689 3.06255 11.0494C3.01945 11.0293 2.98773 11.0029 2.94779 10.969L2.81826 11.1214C2.8572 11.1545 2.90752 11.1978 2.97806 11.2307C3.04993 11.2642 3.13731 11.2846 3.25243 11.2846V11.0846ZM3.81441 10.5116C3.82925 10.8081 3.59131 11.0846 3.25243 11.0846V11.2846C3.70777 11.2846 4.03461 10.9103 4.01416 10.5016L3.81441 10.5116ZM3.54821 10.0115C3.63705 10.0979 3.69894 10.159 3.74243 10.2308C3.78348 10.2986 3.81051 10.3807 3.81433 10.5096L4.01424 10.5037C4.00957 10.3459 3.97514 10.229 3.9135 10.1272C3.85429 10.0294 3.77226 9.95045 3.68769 9.86816L3.54821 10.0115ZM3.52682 9.99067L3.54818 10.0115L3.68772 9.86819L3.66636 9.84739L3.52682 9.99067ZM8.65294 15.8499H19.2691V15.6499H8.65294V15.8499ZM7.46453 17.0788C7.46453 16.3998 7.99565 15.8582 8.65421 15.8499L8.65168 15.6499C7.88064 15.6596 7.26453 16.2933 7.26453 17.0788H7.46453ZM7.46453 18.6427V17.0788H7.26453V18.6427H7.46453ZM8.69707 19.8807C8.03975 19.8807 7.48091 19.3125 7.4645 18.6403L7.26456 18.6452C7.28346 19.4194 7.92478 20.0807 8.69707 20.0807V19.8807ZM9.48246 19.8807H8.69707V20.0807H9.48246V19.8807ZM9.38246 18.6427V19.9807H9.58246V18.6427H9.38246ZM8.69707 18.7427H9.48246V18.5427H8.69707V18.7427ZM8.59707 17.115V18.6427H8.79707V17.115H8.59707ZM9.12947 17.015H8.69707V17.215H9.12947V17.015ZM11.5592 19.7547C11.5592 18.3505 10.5409 17.015 9.12947 17.015V17.215C10.4007 17.215 11.3592 18.4287 11.3592 19.7547H11.5592ZM8.57533 22.4851C10.4452 22.6166 11.5592 21.0115 11.5592 19.7547H11.3592C11.3592 20.9206 10.3199 22.4073 8.58935 22.2856L8.57533 22.4851ZM6.02025 19.7547C6.02025 20.8611 6.91387 22.3723 8.57556 22.4851L8.58912 22.2856C7.05627 22.1815 6.22025 20.7817 6.22025 19.7547H6.02025ZM6.02025 6.50181V19.7547H6.22025V6.50181H6.02025ZM5.06128 5.51699C5.58623 5.51699 6.02025 5.9581 6.02025 6.50181H6.22025C6.22025 5.85222 5.7012 5.31699 5.06128 5.31699V5.51699ZM4.00232 5.51699H5.06128V5.31699H4.00232V5.51699ZM4.10232 6.77302V5.41699H3.90232V6.77302H4.10232ZM4.78772 6.67302H4.00232V6.87302H4.78772V6.67302ZM4.88772 19.7637V6.77302H4.68772V19.7637H4.88772ZM8.58234 23.6323C7.62471 23.6323 6.69048 23.3075 6.00207 22.6648C5.31524 22.0236 4.86607 21.0595 4.8877 19.7654L4.68773 19.762C4.66524 21.1077 5.13384 22.1279 5.86558 22.811C6.59575 23.4927 7.58089 23.8323 8.58234 23.8323V23.6323ZM19.2782 23.6685L8.58268 23.6323L8.582 23.8323L19.2776 23.8685L19.2782 23.6685ZM23.0784 19.7637C23.0784 21.9258 21.3735 23.6685 19.2779 23.6685V23.8685C21.4888 23.8685 23.2784 22.0313 23.2784 19.7637H23.0784ZM19.2691 15.8499C21.3647 15.8499 23.0784 17.6017 23.0784 19.7637H23.2784C23.2784 17.4961 21.4799 15.6499 19.2691 15.6499V15.8499ZM19.2691 22.5034C20.7198 22.5034 21.9001 21.319 21.9458 19.8482L21.7459 19.842C21.7034 21.2097 20.6069 22.3034 19.2691 22.3034V22.5034ZM11.8295 22.4763L19.2687 22.5034L19.2694 22.3034L11.8302 22.2763L11.8295 22.4763ZM12.6829 19.7637C12.6829 20.7335 12.3301 21.6241 11.7532 22.3121L11.9065 22.4406C12.5121 21.7183 12.8829 20.7828 12.8829 19.7637H12.6829ZM11.874 17.124C11.7976 17.1885 11.7976 17.1885 11.7975 17.1885C11.7975 17.1885 11.7975 17.1885 11.7975 17.1885C11.7975 17.1885 11.7975 17.1885 11.7976 17.1885C11.7976 17.1886 11.7977 17.1887 11.7979 17.1889C11.7982 17.1893 11.7987 17.1899 11.7995 17.1908C11.8009 17.1926 11.8032 17.1954 11.8063 17.1992C11.8125 17.2068 11.8217 17.2185 11.8336 17.2341C11.8574 17.2652 11.8918 17.3118 11.9333 17.3728C12.0163 17.4948 12.1274 17.674 12.2386 17.9013C12.4612 18.3563 12.6829 19.0011 12.6829 19.7637H12.8829C12.8829 18.9624 12.6501 18.2873 12.4183 17.8134C12.3022 17.5763 12.1861 17.3888 12.0987 17.2603C12.0549 17.196 12.0183 17.1463 11.9924 17.1125C11.9795 17.0956 11.9692 17.0826 11.962 17.0737C11.9585 17.0693 11.9557 17.0658 11.9537 17.0635C11.9527 17.0623 11.9519 17.0613 11.9514 17.0607C11.9511 17.0603 11.9509 17.0601 11.9507 17.0599C11.9506 17.0598 11.9505 17.0597 11.9505 17.0596C11.9505 17.0596 11.9504 17.0595 11.9504 17.0595C11.9504 17.0595 11.9503 17.0595 11.874 17.124ZM19.2779 17.024H11.874V17.224H19.2779V17.024ZM21.9547 19.7637C21.9547 18.2553 20.7562 17.024 19.2779 17.024V17.224C20.6412 17.224 21.7547 18.3612 21.7547 19.7637H21.9547ZM21.9453 19.8559L21.9541 19.7745L21.7553 19.7529L21.7465 19.8343L21.9453 19.8559ZM16.4097 6.91728H8.40564V7.11728H16.4097V6.91728ZM16.9715 6.33927C16.9715 6.65785 16.7219 6.91728 16.4097 6.91728V7.11728C16.8386 7.11728 17.1715 6.76197 17.1715 6.33927H16.9715ZM16.4097 5.76125C16.7148 5.76125 16.9715 6.0134 16.9715 6.33927H17.1715C17.1715 5.90576 16.8281 5.56125 16.4097 5.56125V5.76125ZM8.40564 5.76125H16.4097V5.56125H8.40564V5.76125ZM8.50564 7.01728V5.66125H8.30564V7.01728H8.50564ZM8.40564 13.4994H16.4097V13.2994H8.40564V13.4994ZM8.30564 12.0433V13.3994H8.50564V12.0433H8.30564ZM16.4097 11.9433H8.40564V12.1433H16.4097V11.9433ZM17.1715 12.7213C17.1715 12.2878 16.8281 11.9433 16.4097 11.9433V12.1433C16.7148 12.1433 16.9715 12.3955 16.9715 12.7213H17.1715ZM16.4097 13.4994C16.8386 13.4994 17.1715 13.1441 17.1715 12.7213H16.9715C16.9715 13.0399 16.7219 13.2994 16.4097 13.2994V13.4994ZM17.8216 10.1083H8.40564V10.3083H17.8216V10.1083ZM18.3747 9.53269C18.3822 9.8481 18.1264 10.1083 17.8216 10.1083V10.3083C18.2405 10.3083 18.5847 9.95381 18.5746 9.52793L18.3747 9.53269ZM17.8128 8.95229C18.118 8.95229 18.3746 9.20444 18.3746 9.53031H18.5746C18.5746 9.0968 18.2312 8.7523 17.8128 8.7523V8.95229ZM8.40564 8.95229H17.8128V8.7523H8.40564V8.95229ZM8.50564 10.2083V8.85229H8.30564V10.2083H8.50564Z" fill="currentColor"/>
</g>
<defs>
<clipPath id="clip0_4886_6289">
<rect width="24" height="24" fill="currentColor" transform="translate(-0.00671387 0.5)"/>
</clipPath>
</defs>
</svg>
