<svg width="24" height="25" viewBox="0 0 24 25" fill="none" xmlns="http://www.w3.org/2000/svg">
<path d="M8.38246 3.01453C6.77827 3.01453 5.3236 3.28192 4.21882 3.75179C3.66644 3.98673 3.19847 4.27045 2.8429 4.62799C2.48733 4.98553 2.24121 5.44862 2.24121 5.95798V13.0931C2.24121 13.5831 2.47049 14.0268 2.8048 14.3771C3.13911 14.7274 3.57965 15.0099 4.10118 15.2444C5.14424 15.7132 6.5243 15.9958 8.06425 16.032C8.13959 16.0335 8.21448 16.0202 8.28465 15.9927C8.35482 15.9652 8.4189 15.9242 8.47321 15.872C8.52753 15.8197 8.57102 15.7573 8.6012 15.6883C8.63139 15.6192 8.64767 15.5449 8.64913 15.4696C8.65214 15.318 8.59502 15.1714 8.49025 15.0618C8.38548 14.9522 8.24159 14.8885 8.09002 14.8847C6.67745 14.8515 5.42095 14.5812 4.57065 14.199C4.1455 14.0079 3.82623 13.7853 3.63507 13.585C3.4439 13.3846 3.3852 13.2318 3.3852 13.0931V11.288C3.60164 11.4304 3.84125 11.5577 4.10118 11.6746C5.14424 12.1434 6.5243 12.426 8.06425 12.4623C8.21583 12.4653 8.36245 12.4081 8.47205 12.3034C8.58164 12.1986 8.64531 12.0547 8.64913 11.9031C8.65107 11.8278 8.63814 11.7528 8.61108 11.6825C8.58403 11.6121 8.54338 11.5478 8.49146 11.4932C8.43953 11.4385 8.37736 11.3947 8.30848 11.3641C8.23959 11.3335 8.16536 11.3168 8.09002 11.3149C6.67745 11.2817 5.42095 11.0114 4.57065 10.6292C4.1455 10.4381 3.82623 10.22 3.63507 10.0196C3.4439 9.81934 3.3852 9.66204 3.3852 9.52328V7.72158C3.63426 7.88552 3.91361 8.02987 4.21882 8.15968C5.3236 8.62955 6.77827 8.90143 8.38246 8.90143C9.98665 8.90143 11.4447 8.62955 12.5495 8.15968C12.8555 8.02951 13.1347 7.88496 13.3831 7.72046C13.3965 7.86291 13.4627 7.99521 13.5686 8.09139C13.6745 8.18758 13.8126 8.24071 13.9556 8.24036C14.107 8.23977 14.252 8.17937 14.359 8.07234C14.4661 7.9653 14.5265 7.82029 14.5271 7.66892V5.95798C14.5273 5.94303 14.5269 5.92809 14.5259 5.91317C14.5119 5.42149 14.266 4.97503 13.9209 4.628C13.5653 4.27046 13.1018 3.98674 12.5495 3.7518C11.4447 3.28193 9.98665 3.01453 8.38246 3.01453ZM8.38246 4.16188C9.85478 4.16188 11.1843 4.42302 12.0957 4.81062C12.5513 5.00443 12.9004 5.22761 13.1086 5.43696C13.3168 5.64631 13.3797 5.8131 13.3797 5.95798C13.3797 6.10286 13.3168 6.26516 13.1086 6.47451C12.9004 6.68386 12.5513 6.91153 12.0957 7.10533C11.1843 7.49294 9.85478 7.75408 8.38246 7.75408C6.91014 7.75408 5.57948 7.49294 4.66813 7.10533C4.21246 6.91152 3.86455 6.68386 3.65635 6.47451C3.44815 6.26516 3.3852 6.10285 3.3852 5.95798C3.3852 5.8131 3.44816 5.64631 3.65635 5.43696C3.86455 5.22759 4.21246 5.00443 4.66813 4.81062C5.57948 4.42302 6.91014 4.16188 8.38246 4.16188ZM15.5993 8.9653C13.9952 8.9653 12.5427 9.23718 11.438 9.70704C10.8856 9.94197 10.4176 10.2223 10.062 10.5799C9.70646 10.9374 9.45698 11.3982 9.45698 11.9076V15.4752V19.0427C9.45698 19.5522 9.70646 20.0129 10.062 20.3705C10.4176 20.728 10.8856 21.014 11.438 21.2489C12.5427 21.7188 13.9952 21.9851 15.5993 21.9851C17.2035 21.9851 18.6571 21.7188 19.7619 21.2489C20.3142 21.014 20.7867 20.728 21.1423 20.3705C21.4897 20.0211 21.7309 19.5719 21.7417 19.0763C21.7424 19.0651 21.7428 19.0539 21.7428 19.0427V15.4752V11.9076C21.7428 11.8964 21.742 11.8852 21.7417 11.874C21.7417 11.8737 21.7417 11.8744 21.7417 11.874C21.7309 11.3784 21.4897 10.9293 21.1423 10.5799C20.7867 10.2224 20.3142 9.94198 19.7619 9.70705C18.6571 9.23719 17.2035 8.9653 15.5993 8.9653ZM15.5993 10.1115C17.0717 10.1115 18.4012 10.3738 19.3126 10.7614C19.7682 10.9552 20.1195 11.1806 20.3277 11.39C20.5359 11.5993 20.5955 11.7628 20.5955 11.9076C20.5955 12.0524 20.5359 12.2159 20.3277 12.4253C20.1195 12.6346 19.7682 12.8612 19.3126 13.055C18.4012 13.4426 17.0717 13.7037 15.5993 13.7037C14.127 13.7037 12.7986 13.4426 11.8873 13.055C11.4316 12.8612 11.0803 12.6346 10.8721 12.4253C10.6639 12.2159 10.6032 12.0524 10.6032 11.9076C10.6032 11.7628 10.6639 11.5993 10.8721 11.39C11.0803 11.1806 11.4316 10.9552 11.8873 10.7614C12.7986 10.3738 14.127 10.1115 15.5993 10.1115ZM10.6032 13.6735C10.8525 13.8383 11.1322 13.9838 11.438 14.1138C12.5427 14.5837 13.9952 14.8511 15.5993 14.8511C17.2035 14.8511 18.6571 14.5837 19.7619 14.1138C20.0662 13.9844 20.3457 13.8396 20.5955 13.6757V15.4752C20.5955 15.62 20.5359 15.7835 20.3277 15.9928C20.1195 16.2022 19.7682 16.4287 19.3126 16.6225C18.4012 17.0101 17.0717 17.2713 15.5993 17.2713C14.127 17.2713 12.7986 17.0101 11.8873 16.6225C11.4316 16.4287 11.0803 16.2022 10.8721 15.9928C10.6639 15.7835 10.6032 15.62 10.6032 15.4752V13.6735ZM10.6032 17.2399C10.8525 17.4047 11.1322 17.5513 11.438 17.6814C12.5427 18.1512 13.9952 18.4186 15.5993 18.4186C17.2035 18.4186 18.6571 18.1512 19.7619 17.6814C20.0663 17.5519 20.3457 17.406 20.5955 17.2421V19.0427C20.5955 19.1875 20.5359 19.351 20.3277 19.5604C20.1195 19.7697 19.7682 19.9963 19.3126 20.1901C18.4012 20.5777 17.0717 20.8388 15.5993 20.8388C14.127 20.8388 12.7986 20.5777 11.8873 20.1901C11.4316 19.9963 11.0803 19.7697 10.8721 19.5604C10.6639 19.351 10.6032 19.1875 10.6032 19.0427V17.2399Z" fill="currentColor"/>
<path d="M21.7417 11.874C21.742 11.8852 21.7428 11.8964 21.7428 11.9076V15.4752V19.0427C21.7428 19.0539 21.7424 19.0652 21.7417 19.0763C21.7309 19.5719 21.4897 20.0211 21.1423 20.3705C20.7867 20.728 20.3142 21.014 19.7619 21.2489C18.6571 21.7188 17.2035 21.9851 15.5993 21.9851C13.9952 21.9851 12.5427 21.7188 11.438 21.2489C10.8856 21.014 10.4176 20.728 10.062 20.3705C9.70646 20.0129 9.45698 19.5522 9.45698 19.0427V15.4752V11.9076C9.45698 11.3982 9.70646 10.9374 10.062 10.5799C10.4176 10.2223 10.8856 9.94197 11.438 9.70704C12.5427 9.23718 13.9952 8.9653 15.5993 8.9653C17.2035 8.9653 18.6571 9.23719 19.7619 9.70705C20.3142 9.94198 20.7867 10.2224 21.1423 10.5799C21.4897 10.9293 21.7309 11.3784 21.7417 11.874ZM21.7417 11.874C21.7417 11.8737 21.7417 11.8744 21.7417 11.874ZM8.38246 3.01453C6.77827 3.01453 5.3236 3.28192 4.21882 3.75179C3.66644 3.98673 3.19847 4.27045 2.8429 4.62799C2.48733 4.98553 2.24121 5.44862 2.24121 5.95798V13.0931C2.24121 13.5831 2.47049 14.0268 2.8048 14.3771C3.13911 14.7274 3.57965 15.0099 4.10118 15.2444C5.14424 15.7132 6.5243 15.9958 8.06425 16.032C8.13959 16.0335 8.21448 16.0202 8.28465 15.9927C8.35482 15.9652 8.4189 15.9242 8.47321 15.872C8.52753 15.8197 8.57102 15.7573 8.6012 15.6883C8.63139 15.6192 8.64767 15.5449 8.64913 15.4696C8.65214 15.318 8.59502 15.1714 8.49025 15.0618C8.38548 14.9522 8.24159 14.8885 8.09002 14.8847C6.67745 14.8515 5.42095 14.5812 4.57065 14.199C4.1455 14.0079 3.82623 13.7853 3.63507 13.585C3.4439 13.3846 3.3852 13.2318 3.3852 13.0931V11.288C3.60164 11.4304 3.84125 11.5577 4.10118 11.6746C5.14424 12.1434 6.5243 12.426 8.06425 12.4623C8.21583 12.4653 8.36245 12.4081 8.47205 12.3034C8.58164 12.1986 8.64531 12.0547 8.64913 11.9031C8.65107 11.8278 8.63814 11.7528 8.61108 11.6825C8.58403 11.6121 8.54338 11.5478 8.49146 11.4932C8.43953 11.4385 8.37736 11.3947 8.30848 11.3641C8.23959 11.3335 8.16536 11.3168 8.09002 11.3149C6.67745 11.2817 5.42095 11.0114 4.57065 10.6292C4.1455 10.4381 3.82623 10.22 3.63507 10.0196C3.4439 9.81934 3.3852 9.66204 3.3852 9.52328V7.72158C3.63426 7.88552 3.91361 8.02987 4.21882 8.15968C5.3236 8.62955 6.77827 8.90143 8.38246 8.90143C9.98665 8.90143 11.4447 8.62955 12.5495 8.15968C12.8555 8.02951 13.1347 7.88496 13.3831 7.72046C13.3965 7.86291 13.4627 7.99521 13.5686 8.09139C13.6745 8.18758 13.8126 8.24071 13.9556 8.24036C14.107 8.23977 14.252 8.17937 14.359 8.07234C14.4661 7.9653 14.5265 7.82029 14.5271 7.66892V5.95798C14.5273 5.94303 14.5269 5.92809 14.5259 5.91317C14.5119 5.42149 14.266 4.97503 13.9209 4.628C13.5653 4.27046 13.1018 3.98674 12.5495 3.7518C11.4447 3.28193 9.98665 3.01453 8.38246 3.01453ZM8.38246 4.16188C9.85478 4.16188 11.1843 4.42302 12.0957 4.81062C12.5513 5.00443 12.9004 5.22761 13.1086 5.43696C13.3168 5.64631 13.3797 5.8131 13.3797 5.95798C13.3797 6.10286 13.3168 6.26516 13.1086 6.47451C12.9004 6.68386 12.5513 6.91153 12.0957 7.10533C11.1843 7.49294 9.85478 7.75408 8.38246 7.75408C6.91014 7.75408 5.57948 7.49294 4.66813 7.10533C4.21246 6.91152 3.86455 6.68386 3.65635 6.47451C3.44815 6.26516 3.3852 6.10285 3.3852 5.95798C3.3852 5.8131 3.44816 5.64631 3.65635 5.43696C3.86455 5.22759 4.21246 5.00443 4.66813 4.81062C5.57948 4.42302 6.91014 4.16188 8.38246 4.16188ZM15.5993 10.1115C17.0717 10.1115 18.4012 10.3738 19.3126 10.7614C19.7682 10.9552 20.1195 11.1806 20.3277 11.39C20.5359 11.5993 20.5955 11.7628 20.5955 11.9076C20.5955 12.0524 20.5359 12.2159 20.3277 12.4253C20.1195 12.6346 19.7682 12.8612 19.3126 13.055C18.4012 13.4426 17.0717 13.7037 15.5993 13.7037C14.127 13.7037 12.7986 13.4426 11.8873 13.055C11.4316 12.8612 11.0803 12.6346 10.8721 12.4253C10.6639 12.2159 10.6032 12.0524 10.6032 11.9076C10.6032 11.7628 10.6639 11.5993 10.8721 11.39C11.0803 11.1806 11.4316 10.9552 11.8873 10.7614C12.7986 10.3738 14.127 10.1115 15.5993 10.1115ZM10.6032 13.6735C10.8525 13.8383 11.1322 13.9838 11.438 14.1138C12.5427 14.5837 13.9952 14.8511 15.5993 14.8511C17.2035 14.8511 18.6571 14.5837 19.7619 14.1138C20.0662 13.9844 20.3457 13.8396 20.5955 13.6757V15.4752C20.5955 15.62 20.5359 15.7835 20.3277 15.9928C20.1195 16.2022 19.7682 16.4287 19.3126 16.6225C18.4012 17.0101 17.0717 17.2713 15.5993 17.2713C14.127 17.2713 12.7986 17.0101 11.8873 16.6225C11.4316 16.4287 11.0803 16.2022 10.8721 15.9928C10.6639 15.7835 10.6032 15.62 10.6032 15.4752V13.6735ZM10.6032 17.2399C10.8525 17.4047 11.1322 17.5513 11.438 17.6814C12.5427 18.1512 13.9952 18.4186 15.5993 18.4186C17.2035 18.4186 18.6571 18.1512 19.7619 17.6814C20.0663 17.5519 20.3457 17.406 20.5955 17.2421V19.0427C20.5955 19.1875 20.5359 19.351 20.3277 19.5604C20.1195 19.7697 19.7682 19.9963 19.3126 20.1901C18.4012 20.5777 17.0717 20.8388 15.5993 20.8388C14.127 20.8388 12.7986 20.5777 11.8873 20.1901C11.4316 19.9963 11.0803 19.7697 10.8721 19.5604C10.6639 19.351 10.6032 19.1875 10.6032 19.0427V17.2399Z" fill="none" stroke="currentColor" stroke-width="0.449991"/>
</svg>
