<svg width="24" height="25" viewBox="0 0 24 25" fill="none" xmlns="http://www.w3.org/2000/svg">
<path d="M5.36624 17.25L7.68949 19.573C7.83816 19.7218 7.91149 19.8959 7.90949 20.0953C7.90766 20.2946 7.82916 20.4718 7.67399 20.627C7.51882 20.7718 7.34316 20.8468 7.14699 20.852C6.95099 20.857 6.77541 20.782 6.62024 20.627L3.12599 17.1328C3.03232 17.0391 2.96632 16.9403 2.92799 16.8365C2.88949 16.7327 2.87024 16.6205 2.87024 16.5C2.87024 16.3795 2.88949 16.2673 2.92799 16.1635C2.96632 16.0597 3.03232 15.9609 3.12599 15.8673L6.62024 12.373C6.75874 12.2347 6.93016 12.1638 7.13449 12.1605C7.33899 12.1573 7.51882 12.2282 7.67399 12.373C7.82916 12.5282 7.90674 12.7064 7.90674 12.9078C7.90674 13.1089 7.82916 13.2871 7.67399 13.4423L5.36624 15.75H19.7432C19.9561 15.75 20.1342 15.8218 20.2777 15.9655C20.4214 16.109 20.4932 16.2872 20.4932 16.5C20.4932 16.7128 20.4214 16.891 20.2777 17.0345C20.1342 17.1782 19.9561 17.25 19.7432 17.25H5.36624ZM18.6202 9.25H4.24324C4.03041 9.25 3.85224 9.17817 3.70874 9.0345C3.56507 8.891 3.49324 8.71283 3.49324 8.5C3.49324 8.28717 3.56507 8.109 3.70874 7.9655C3.85224 7.82183 4.03041 7.75 4.24324 7.75H18.6202L16.297 5.427C16.1483 5.27817 16.075 5.10408 16.077 4.90475C16.0788 4.70542 16.1573 4.52817 16.3125 4.373C16.4677 4.22817 16.6433 4.15317 16.8395 4.148C17.0355 4.143 17.2111 4.218 17.3662 4.373L20.8605 7.86725C20.9542 7.96092 21.0202 8.05967 21.0585 8.1635C21.097 8.26733 21.1162 8.3795 21.1162 8.5C21.1162 8.6205 21.097 8.73267 21.0585 8.8365C21.0202 8.94033 20.9542 9.03908 20.8605 9.13275L17.3662 12.627C17.2277 12.7653 17.0563 12.8362 16.852 12.8395C16.6475 12.8427 16.4677 12.7718 16.3125 12.627C16.1573 12.4718 16.0797 12.2936 16.0797 12.0923C16.0797 11.8911 16.1573 11.7129 16.3125 11.5578L18.6202 9.25Z" fill="currentColor"/>
</svg>
