<svg width="24" height="25" viewBox="0 0 24 25" fill="none" xmlns="http://www.w3.org/2000/svg">
<path d="M19.3157 9.4958C18.7928 9.4958 18.3811 9.91861 18.3811 10.4304C18.3811 10.9423 18.8039 11.3651 19.3157 11.3651C20.8623 11.3651 22.1307 12.6224 22.1307 14.1801V21.6794C22.1307 22.1912 21.7079 22.614 21.1961 22.614C21.0292 22.614 20.8734 22.5695 20.7288 22.4916L17.9138 20.8671C17.7691 20.7893 17.6133 20.7448 17.4465 20.7448H11.8164C10.2698 20.7448 9.00139 19.4875 9.00139 17.9297V16.0493C9.00139 15.5264 8.57858 15.1147 8.06676 15.1147C7.55494 15.1147 7.13213 15.5375 7.13213 16.0493V17.9297C7.13213 20.5111 9.23505 22.614 11.8164 22.614H17.1905L19.783 24.1161C20.2058 24.3609 20.6954 24.4944 21.185 24.4944C22.7316 24.4944 24 23.2371 24 21.6794V14.1801C24 11.5987 21.8971 9.4958 19.3157 9.4958Z" fill="#101010"/>
<path d="M2.81502 15.5041C3.30459 15.5041 3.79416 15.3706 4.21697 15.1258L6.80946 13.6238H12.1836C14.7649 13.6238 16.8679 11.5208 16.8679 8.93947V5.18982C16.8679 2.60846 14.7649 0.505537 12.1836 0.505537H4.68428C2.10292 0.494411 0 2.59733 0 5.17869V12.678C0 14.2246 1.2573 15.493 2.81502 15.493V15.5041ZM1.88039 5.18982C1.88039 3.64323 3.13769 2.3748 4.69541 2.3748H12.1947C13.7413 2.3748 15.0097 3.6321 15.0097 5.18982V8.93947C15.0097 10.4861 13.7524 11.7545 12.1947 11.7545H6.56467C6.39777 11.7545 6.242 11.799 6.09736 11.8769L3.28234 13.5014C3.13769 13.5792 2.98192 13.6238 2.81502 13.6238C2.3032 13.6238 1.88039 13.2009 1.88039 12.6891V5.18982Z" fill="#101010"/>
<path d="M4.68428 7.99371C5.20047 7.99371 5.61891 7.57527 5.61891 7.05908C5.61891 6.5429 5.20047 6.12445 4.68428 6.12445C4.1681 6.12445 3.74965 6.5429 3.74965 7.05908C3.74965 7.57527 4.1681 7.99371 4.68428 7.99371Z" fill="#101010"/>
<path d="M8.44506 7.99371C8.96124 7.99371 9.37969 7.57527 9.37969 7.05908C9.37969 6.5429 8.96124 6.12445 8.44506 6.12445C7.92888 6.12445 7.51043 6.5429 7.51043 7.05908C7.51043 7.57527 7.92888 7.99371 8.44506 7.99371Z" fill="#101010"/>
<path d="M12.1947 7.99371C12.7109 7.99371 13.1293 7.57527 13.1293 7.05908C13.1293 6.5429 12.7109 6.12445 12.1947 6.12445C11.6785 6.12445 11.2601 6.5429 11.2601 7.05908C11.2601 7.57527 11.6785 7.99371 12.1947 7.99371Z" fill="#101010"/>
</svg>
