<svg width="24" height="25" viewBox="0 0 24 25" fill="none" xmlns="http://www.w3.org/2000/svg">
<path d="M3.99329 20.5V5.5C3.99329 4.95 4.18912 4.47917 4.58079 4.0875C4.97245 3.69583 5.44329 3.5 5.99329 3.5H11.9933C12.5433 3.5 13.0141 3.69583 13.4058 4.0875C13.7975 4.47917 13.9933 4.95 13.9933 5.5V12.5H14.9933C15.5433 12.5 16.0141 12.6958 16.4058 13.0875C16.7975 13.4792 16.9933 13.95 16.9933 14.5V19C16.9933 19.2833 17.0891 19.5208 17.2808 19.7125C17.4725 19.9042 17.71 20 17.9933 20C18.2766 20 18.5141 19.9042 18.7058 19.7125C18.8975 19.5208 18.9933 19.2833 18.9933 19V11.8C18.8433 11.8833 18.685 11.9375 18.5183 11.9625C18.3516 11.9875 18.1766 12 17.9933 12C17.2933 12 16.7016 11.7583 16.2183 11.275C15.735 10.7917 15.4933 10.2 15.4933 9.5C15.4933 8.96667 15.6391 8.4875 15.9308 8.0625C16.2225 7.6375 16.61 7.33333 17.0933 7.15L15.5183 5.575C15.3683 5.425 15.2933 5.25 15.2933 5.05C15.2933 4.85 15.3683 4.675 15.5183 4.525C15.6516 4.39167 15.8225 4.32083 16.0308 4.3125C16.2391 4.30417 16.4183 4.36667 16.5683 4.5L19.7433 7.6C19.9933 7.85 20.1808 8.14167 20.3058 8.475C20.4308 8.80833 20.4933 9.15 20.4933 9.5V19C20.4933 19.7 20.2516 20.2917 19.7683 20.775C19.285 21.2583 18.6933 21.5 17.9933 21.5C17.2933 21.5 16.7016 21.2583 16.2183 20.775C15.735 20.2917 15.4933 19.7 15.4933 19V14H13.9933V20.5C13.9933 20.7833 13.8975 21.0208 13.7058 21.2125C13.5141 21.4042 13.2766 21.5 12.9933 21.5H4.99329C4.70995 21.5 4.47245 21.4042 4.28079 21.2125C4.08912 21.0208 3.99329 20.7833 3.99329 20.5ZM5.99329 10.5H11.9933V5.5H5.99329V10.5ZM17.9933 10.5C18.2766 10.5 18.5141 10.4042 18.7058 10.2125C18.8975 10.0208 18.9933 9.78333 18.9933 9.5C18.9933 9.21667 18.8975 8.97917 18.7058 8.7875C18.5141 8.59583 18.2766 8.5 17.9933 8.5C17.71 8.5 17.4725 8.59583 17.2808 8.7875C17.0891 8.97917 16.9933 9.21667 16.9933 9.5C16.9933 9.78333 17.0891 10.0208 17.2808 10.2125C17.4725 10.4042 17.71 10.5 17.9933 10.5ZM5.99329 19.5H11.9933V12.5H5.99329V19.5Z" fill="currentColor"/>
</svg>
