<svg width="24" height="19" viewBox="0 0 24 19" fill="none" xmlns="http://www.w3.org/2000/svg">
<path d="M22.1576 1.95063V14.0706H14.9859C14.28 14.0706 13.56 14.2612 12.9247 14.6636V4.01181C12.9247 2.87534 13.8494 1.95063 14.9859 1.95063H22.1576ZM1.84235 1.95063H9.02118C10.1576 1.95063 11.0824 2.87534 11.0824 4.01181V14.6636C10.4753 14.2895 9.76235 14.0706 9.02118 14.0706H1.84235V1.95063ZM24 3.0871V1.02592C24 0.517688 23.5906 0.108276 23.0824 0.108276H14.9859C13.7929 0.108276 12.7129 0.651806 12 1.49886C11.2659 0.62357 10.1718 0.108276 9.01412 0.108276H0.917647C0.409412 0.108276 0 0.517688 0 1.02592V14.9883C0 15.4965 0.409412 15.913 0.917647 15.913H9.01412C10.1506 15.913 11.0753 16.8377 11.0753 17.9742C11.0753 18.4824 11.4847 18.8918 11.9929 18.8918C12.5012 18.8918 12.9106 18.4824 12.9106 17.9742C12.9106 16.8377 13.8353 15.913 14.9718 15.913H23.0682C23.5765 15.913 23.9859 15.5036 23.9859 14.9953V3.0871H24Z" fill="black"/>
<path d="M4.94824 6.97651C4.46118 6.97651 4.06588 6.58122 4.06588 6.09416C4.06588 5.6071 4.46118 5.21181 4.94824 5.21181H7.53882C8.02588 5.21181 8.42118 5.6071 8.42118 6.09416C8.42118 6.58122 8.02588 6.97651 7.53882 6.97651H4.94824Z" fill="black"/>
<path d="M4.94824 10.993C4.46118 10.993 4.06588 10.5977 4.06588 10.1106C4.06588 9.62357 4.46118 9.22828 4.94824 9.22828H7.53882C8.02588 9.22828 8.42118 9.62357 8.42118 10.1106C8.42118 10.5977 8.02588 10.993 7.53882 10.993H4.94824Z" fill="black"/>
<path d="M16.4541 6.97651C15.9671 6.97651 15.5718 6.58122 15.5718 6.09416C15.5718 5.6071 15.9671 5.21181 16.4541 5.21181H19.0447C19.5318 5.21181 19.9271 5.6071 19.9271 6.09416C19.9271 6.58122 19.5318 6.97651 19.0447 6.97651H16.4541Z" fill="black"/>
<path d="M16.4541 10.993C15.9671 10.993 15.5718 10.5977 15.5718 10.1106C15.5718 9.62357 15.9671 9.22828 16.4541 9.22828H19.0447C19.5318 9.22828 19.9271 9.62357 19.9271 10.1106C19.9271 10.5977 19.5318 10.993 19.0447 10.993H16.4541Z" fill="black"/>
</svg>
