<svg width="24" height="25" viewBox="0 0 24 25" fill="none" xmlns="http://www.w3.org/2000/svg">
<g clip-path="url(#clip0_4816_4660)">
<path d="M1.99329 12.5C1.99329 13.6333 2.27662 14.6708 2.84329 15.6125C3.40995 16.5542 4.16829 17.275 5.11829 17.775C5.35162 17.9083 5.52245 18.1 5.63079 18.35C5.73912 18.6 5.74329 18.85 5.64329 19.1C5.54329 19.3667 5.36829 19.5583 5.11829 19.675C4.86829 19.7917 4.62662 19.7833 4.39329 19.65C3.09329 18.9833 2.03495 18.0208 1.21829 16.7625C0.401619 15.5042 -0.00671387 14.0833 -0.00671387 12.5C-0.00671387 10.9333 0.389119 9.525 1.18079 8.275C1.97245 7.025 3.00995 6.06667 4.29329 5.4C4.52662 5.26667 4.77245 5.25417 5.03079 5.3625C5.28912 5.47083 5.47662 5.65833 5.59329 5.925C5.70995 6.15833 5.71829 6.4 5.61829 6.65C5.51829 6.9 5.35162 7.09167 5.11829 7.225C4.16829 7.725 3.40995 8.44583 2.84329 9.3875C2.27662 10.3292 1.99329 11.3667 1.99329 12.5ZM13.9933 20.5C11.7766 20.5 9.88912 19.7208 8.33079 18.1625C6.77245 16.6042 5.99329 14.7167 5.99329 12.5C5.99329 10.2833 6.77245 8.39583 8.33079 6.8375C9.88912 5.27917 11.7766 4.5 13.9933 4.5C14.9266 4.5 15.81 4.65 16.6433 4.95C17.4766 5.25 18.235 5.66667 18.9183 6.2C19.135 6.36667 19.2433 6.58333 19.2433 6.85C19.2433 7.11667 19.1433 7.35 18.9433 7.55C18.76 7.73333 18.5308 7.83333 18.2558 7.85C17.9808 7.86667 17.7266 7.79167 17.4933 7.625C16.9933 7.25833 16.4475 6.97917 15.8558 6.7875C15.2641 6.59583 14.6433 6.5 13.9933 6.5C12.3266 6.5 10.91 7.08333 9.74329 8.25C8.57662 9.41667 7.99329 10.8333 7.99329 12.5C7.99329 14.1667 8.57662 15.5833 9.74329 16.75C10.91 17.9167 12.3266 18.5 13.9933 18.5C14.6433 18.5 15.2641 18.4042 15.8558 18.2125C16.4475 18.0208 16.9933 17.7417 17.4933 17.375C17.7266 17.2083 17.9808 17.1333 18.2558 17.15C18.5308 17.1667 18.76 17.2667 18.9433 17.45C19.1433 17.65 19.2433 17.8833 19.2433 18.15C19.2433 18.4167 19.135 18.6333 18.9183 18.8C18.235 19.3333 17.4766 19.75 16.6433 20.05C15.81 20.35 14.9266 20.5 13.9933 20.5ZM20.1933 13.5H13.9933C13.71 13.5 13.4725 13.4042 13.2808 13.2125C13.0891 13.0208 12.9933 12.7833 12.9933 12.5C12.9933 12.2167 13.0891 11.9792 13.2808 11.7875C13.4725 11.5958 13.71 11.5 13.9933 11.5H20.1933L19.2933 10.6C19.11 10.4167 19.0183 10.1833 19.0183 9.9C19.0183 9.61667 19.11 9.38333 19.2933 9.2C19.4766 9.01667 19.71 8.925 19.9933 8.925C20.2766 8.925 20.51 9.01667 20.6933 9.2L23.2933 11.8C23.4933 12 23.5933 12.2333 23.5933 12.5C23.5933 12.7667 23.4933 13 23.2933 13.2L20.6933 15.8C20.51 15.9833 20.2766 16.075 19.9933 16.075C19.71 16.075 19.4766 15.9833 19.2933 15.8C19.11 15.6167 19.0183 15.3833 19.0183 15.1C19.0183 14.8167 19.11 14.5833 19.2933 14.4L20.1933 13.5Z" fill="currentColor"/>
</g>
<defs>
<clipPath id="clip0_4816_4660">
<rect width="24" height="24" fill="currentColor" transform="translate(-0.00671387 0.5)"/>
</clipPath>
</defs>
</svg>
