<svg width="24" height="23" viewBox="0 0 24 23" fill="none" xmlns="http://www.w3.org/2000/svg">
<g clip-path="url(#clip0_3222_1892)">
<path d="M10.8339 22.1298C10.1514 22.1298 9.50816 21.863 9.061 21.4002C8.65307 20.9923 8.40203 20.4588 8.34712 19.894C7.77444 19.8391 7.24099 19.588 6.83306 19.1722C6.43297 18.7722 6.18193 18.2622 6.11917 17.7052C5.57787 17.6503 5.0758 17.4071 4.68356 17.0227C3.94614 16.2853 3.78139 15.14 4.25209 14.2221L1.8594 11.9628C-0.627432 9.47596 -0.627432 5.45938 1.84371 2.99608C3.04398 1.79581 4.62864 1.13684 6.32314 1.13684C8.01763 1.13684 9.6023 1.78797 10.7947 2.98039L11.6812 3.84333L12.6932 2.83134C14.0896 1.54478 15.7056 0.870117 17.3609 0.870117C19.934 0.870117 22.3816 2.51754 23.4564 4.96515C24.5233 7.38922 24.0212 10.0016 22.0757 12.1354L22.1463 12.206C23.1347 13.1944 23.1347 14.7948 22.1463 15.7832C21.7148 16.2147 21.1735 16.4736 20.593 16.5285C20.5381 17.109 20.287 17.6503 19.8634 18.074C19.4163 18.5211 18.8593 18.78 18.2631 18.8271C18.2003 19.3997 17.9414 19.9253 17.5413 20.3254C17.0471 20.8197 16.4117 21.0785 15.737 21.0785C15.0623 21.0785 14.4269 20.8197 13.9484 20.3411L13.8072 20.1999L12.599 21.408C12.1519 21.8709 11.5086 22.1376 10.8261 22.1376L10.8339 22.1298ZM11.0065 16.3089C11.2497 16.3089 11.4851 16.403 11.6577 16.5834C11.8302 16.7639 11.9322 16.9914 11.9322 17.2346C11.9322 17.4777 11.8381 17.7131 11.6577 17.8857L10.3789 19.1644C10.2534 19.2899 10.1828 19.4547 10.1828 19.6272C10.1828 19.7998 10.2534 19.9646 10.3711 20.0901C10.4888 20.2156 10.6535 20.2784 10.8339 20.2784C11.0144 20.2784 11.1791 20.2078 11.289 20.0901L12.6069 18.7722C12.1754 17.8386 12.3872 16.6462 13.1247 15.9323C13.3208 15.7362 13.5404 15.5714 13.7758 15.4538C13.2423 14.4967 13.4071 13.1944 14.1994 12.4335C14.6858 11.9471 15.3212 11.6804 15.9959 11.6804C16.2469 11.6804 16.4901 11.7196 16.7255 11.7902C16.851 11.4843 17.0393 11.194 17.2746 10.9586C17.7374 10.4723 18.3886 10.2055 19.0789 10.2055C19.7144 10.2055 20.3106 10.433 20.7577 10.8331C22.5699 8.97389 22.5542 5.98498 20.7107 4.14928C19.8085 3.24712 18.6161 2.75289 17.3452 2.75289C16.0743 2.75289 14.8741 3.24712 13.9797 4.14928L12.9834 5.14558L15.0231 7.12249C15.533 7.60103 15.839 8.29923 15.839 9.05233C15.839 9.7976 15.5566 10.5036 15.0467 10.99C14.5681 11.4842 13.8699 11.7745 13.1325 11.7745C12.3951 11.7745 11.6969 11.4843 11.2105 10.9822L10.5751 10.3467L5.97012 14.9517C5.86813 15.0537 5.81322 15.1949 5.81322 15.3361C5.81322 15.4773 5.86813 15.6107 5.97012 15.7048C6.07995 15.8146 6.21331 15.8695 6.35452 15.8695C6.49573 15.8695 6.63693 15.8146 6.73892 15.7126L8.10393 14.3476C8.27652 14.175 8.51186 14.0731 8.75505 14.0731C8.99824 14.0731 9.23359 14.1672 9.40618 14.3476C9.57877 14.5281 9.68075 14.7556 9.68075 14.9988C9.68075 15.242 9.58661 15.4773 9.40618 15.6499L8.11177 16.9443C7.86074 17.2032 7.86074 17.6111 8.11177 17.87C8.22945 17.9955 8.39419 18.0583 8.57462 18.0583C8.75505 18.0583 8.9198 17.9877 9.02962 17.87L10.3162 16.5834C10.4888 16.4108 10.7241 16.3089 10.9673 16.3089H11.0065ZM14.9368 17.0384C14.7564 17.0384 14.5838 17.109 14.4583 17.2346C14.3171 17.3758 14.2465 17.5483 14.2465 17.7288C14.2465 17.9092 14.3171 18.0896 14.4426 18.2073L15.2663 19.031C15.3918 19.1565 15.5644 19.2272 15.7448 19.2272C15.9253 19.2272 16.0979 19.1565 16.2234 19.031C16.3724 18.882 16.443 18.7172 16.443 18.5368C16.443 18.3564 16.3724 18.1838 16.2469 18.0504L15.4311 17.2346C15.3055 17.109 15.1329 17.0384 14.9525 17.0384H14.9368ZM16.0116 13.5318C15.8311 13.5318 15.6586 13.6024 15.533 13.7279C15.3918 13.8691 15.3212 14.0417 15.3212 14.2221C15.3212 14.4025 15.3918 14.583 15.5173 14.7007L17.5884 16.7717C17.7139 16.8972 17.8865 16.9678 18.0669 16.9678C18.2474 16.9678 18.4121 16.8972 18.5376 16.7717C18.6867 16.6305 18.7573 16.4579 18.7573 16.2696C18.7573 16.0814 18.6867 15.9088 18.5612 15.7911L16.498 13.72C16.3724 13.5945 16.1999 13.5239 16.0194 13.5239L16.0116 13.5318ZM19.1025 12.0491C18.9142 12.0491 18.7416 12.1197 18.6239 12.2452C18.4749 12.3864 18.4043 12.559 18.4043 12.7473C18.4043 12.9356 18.4749 13.1081 18.6004 13.2258L19.8713 14.4967C19.9968 14.6222 20.1694 14.6928 20.3498 14.6928C20.5302 14.6928 20.7028 14.6222 20.8283 14.4967C20.9774 14.3476 21.048 14.1829 21.048 14.0025C21.048 13.822 20.9774 13.6494 20.8519 13.5161L19.5888 12.253C19.4633 12.1275 19.2907 12.0569 19.1103 12.0569L19.1025 12.0491ZM6.32314 2.98824C5.12287 2.98824 4.00105 3.45109 3.1538 4.29833C2.30656 5.13774 1.84371 6.25955 1.84371 7.45982C1.84371 8.65225 2.30656 9.78191 3.1538 10.6213L5.49158 12.8336L9.42187 8.90328C9.71997 8.58949 10.1514 8.4169 10.6064 8.4169C11.0615 8.4169 11.4929 8.59733 11.791 8.91113L12.552 9.67208C12.7638 9.88389 12.9991 9.92312 13.156 9.92312C13.3914 9.92312 13.6189 9.82898 13.7836 9.66424C13.8935 9.55441 14.0268 9.35828 14.0268 9.06018C14.0268 8.83268 13.9327 8.61302 13.7601 8.44828L9.50816 4.31402C8.66091 3.45893 7.53125 2.99608 6.33098 2.99608L6.32314 2.98824Z" fill="#101010"/>
</g>
<defs>
<clipPath id="clip0_3222_1892">
<rect width="24.0054" height="21.2596" fill="white" transform="translate(0.000244141 0.870117)"/>
</clipPath>
</defs>
</svg>
