<svg width="708" height="381" viewBox="0 0 708 381" fill="none" xmlns="http://www.w3.org/2000/svg">
<path d="M254.508 61.9402C254.508 61.9402 249.133 27.2259 316.585 26.927C316.585 26.927 322.854 11.9613 339.268 2.087C339.268 2.087 281.374 -8.08621 244.364 33.812C244.364 33.812 232.73 51.4681 254.508 61.9498V61.9402Z" fill="#E5DCD1" stroke="black" stroke-width="1.0079" stroke-linecap="round" stroke-linejoin="round"/>
<path d="M432.075 32.3945C432.075 32.3945 430.536 23.5134 397.421 41.6613C364.306 59.8091 360.835 75.257 360.835 75.257H399.152C399.152 75.257 432.844 64.2545 432.075 32.3849V32.3945Z" fill="#E5DCD1" stroke="black" stroke-width="1.0079" stroke-linecap="round" stroke-linejoin="round"/>
<path d="M286.893 90.9077C286.893 90.9077 218.153 105.652 200.057 146.46C200.057 146.46 198.711 157.144 211.807 166.797C211.807 166.797 204.105 131.649 275.152 117.175L286.902 90.9174L286.893 90.9077Z" fill="#E5DCD1" stroke="black" stroke-width="1.0079" stroke-linecap="round" stroke-linejoin="round"/>
<path d="M300.431 233.544C300.431 233.544 307.431 204.625 414.94 143.49C414.94 143.49 466.152 115.448 460.632 135.708C460.632 135.708 475.786 121.147 475.632 112.44C475.478 103.732 455.43 104.687 413.277 125.737C371.123 146.797 257.056 217.228 300.431 233.544Z" fill="#E5DCD1" stroke="black" stroke-width="1.0079" stroke-linecap="round" stroke-linejoin="round"/>
<path d="M426.517 166.796C426.517 166.796 419.94 161.985 409.325 180.364C398.709 198.743 416.219 217.074 416.219 217.074C416.219 217.074 441.45 190.354 426.517 166.796Z" fill="#E5DCD1" stroke="black" stroke-width="1.0079" stroke-linecap="round" stroke-linejoin="round"/>
<path d="M445.306 199.265C445.306 199.265 441.7 219.399 481.603 213.98C521.507 208.56 510.949 179.902 570.161 156.402C629.372 132.912 639.41 166.228 639.41 166.228L637.862 172.409C637.862 172.409 623.189 149.17 594.353 160.278C565.516 171.377 546.988 196.883 535.651 210.074C524.324 223.275 509.796 234.885 475.613 236.958C441.431 239.032 423.152 221.983 423.152 221.983L445.296 199.265H445.306Z" fill="#E5DCD1" stroke="black" stroke-width="1.0079" stroke-linecap="round" stroke-linejoin="round"/>
<path d="M26.0863 223.178C26.0863 223.178 31.4997 231.838 45.2689 228.029C45.2689 228.029 43.9516 236.842 31.942 243.447C19.9325 250.053 15.6344 242.541 15.6344 242.541C15.6344 242.541 9.10559 230.237 26.0863 223.188V223.178Z" fill="#E5DCD1" stroke="black" stroke-width="1.0079" stroke-linecap="round" stroke-linejoin="round"/>
<path d="M520.815 146.932C520.815 146.932 520.151 149.429 519.68 151.049C519.209 152.669 518.074 156.989 520.449 157.385C522.824 157.78 524.122 157.857 524.122 157.857L525.757 163.556C525.757 163.556 531.536 166.468 532.968 160.037L530.199 155.485L533.709 149.082L531.103 142.949C531.103 142.949 520.18 139.468 520.815 146.932Z" fill="#F0BD83" stroke="#101010" stroke-width="1.0079" stroke-miterlimit="10"/>
<path d="M526.305 150.191C526.305 150.191 524.728 148.755 523.017 149.989C523.017 149.989 524.113 152.226 526.305 150.191Z" fill="#FEECDA" stroke="#101010" stroke-width="0.755922" stroke-miterlimit="10" stroke-linecap="round"/>
<path d="M524.468 149.642C524.391 149.651 524.718 150.336 524.314 150.789C524.314 150.789 523.536 150.577 523.257 150.114C523.257 150.114 523.439 149.594 524.468 149.642Z" fill="#101010"/>
<path d="M521.574 144.55L520.805 146.932C520.805 146.932 519.036 146.431 519.103 144.55C519.17 142.67 520.507 139.932 522.372 140.828C524.247 141.735 525.007 142.072 525.978 141.397C526.949 140.732 533.19 139.257 533.43 142.005C533.43 142.005 536.536 142.738 536.007 147.096C535.478 151.455 530.199 155.476 530.199 155.476L529.267 153.268C529.267 153.268 531.401 152.554 531.036 151.05C531.036 151.05 530.603 150.018 529.43 150.49C528.257 150.963 527.392 149.112 527.997 148.022C528.603 146.932 527.863 145.534 527.863 145.534C527.863 145.534 523.824 146.469 523.257 145.197C522.69 143.924 521.584 144.56 521.584 144.56L521.574 144.55Z" fill="#4C3211" stroke="#101010" stroke-width="1.0079" stroke-miterlimit="10" stroke-linecap="round"/>
<path d="M521.382 150.269C521.382 150.269 520.276 150.953 520.314 151.561C520.353 152.168 521.382 152.496 521.382 152.496" stroke="#101010" stroke-width="1.0079" stroke-miterlimit="10" stroke-linecap="round"/>
<path d="M523.247 155.003C523.247 155.003 524.18 155.302 524.815 154.203" stroke="#101010" stroke-width="1.0079" stroke-miterlimit="10" stroke-linecap="round"/>
<path d="M524.113 157.847H525.757" stroke="#101010" stroke-width="1.0079" stroke-miterlimit="10" stroke-linecap="round"/>
<path d="M491.488 164.203L473.796 159.42C473.796 159.42 472.065 156.006 469.872 155.466C467.68 154.926 465.219 154.193 465.219 154.193C465.219 154.193 463.853 155.109 465.219 156.026C466.584 156.942 465.132 157.674 462.122 157.028L456.757 160.963C456.757 160.963 464.853 163.354 469.872 163.306C469.872 163.306 484.094 171.203 492.305 174.222L491.488 164.203Z" fill="#F0BD83" stroke="#101010" stroke-width="1.0079" stroke-miterlimit="10"/>
<path d="M567.353 141.214C567.353 141.214 581.622 132.082 582.968 129.286C584.314 126.489 585.699 125.197 585.92 126.576C586.141 127.955 585.92 128.688 585.92 128.688L588.305 124.58C588.305 124.58 589.622 123.028 590.795 124.58C591.968 126.133 590.959 130.723 589.497 132.372C588.036 134.02 585.814 135.64 583.161 136.73L567.824 153.162L567.372 141.204L567.353 141.214Z" fill="#F0BD83" stroke="#101010" stroke-width="1.0079" stroke-linecap="round" stroke-linejoin="round"/>
<path d="M526.892 166.758C526.892 166.758 531.065 168.696 534.805 164.347C534.805 164.347 536.545 162.342 535.603 159.42" stroke="#101010" stroke-width="1.0079" stroke-miterlimit="10" stroke-linecap="round"/>
<path d="M559.747 178.493C559.747 178.493 572.074 185.909 578.093 198.271C584.122 210.633 590.276 215.435 590.276 215.435L610.401 222.985C610.401 222.985 599.67 238.703 579.641 244.576C579.641 244.576 566.314 237.922 556.18 225.512C546.045 213.101 537.834 193.604 537.834 193.604L559.738 178.503L559.747 178.493Z" fill="#E0C091" stroke="black" stroke-width="1.0079" stroke-linecap="round" stroke-linejoin="round"/>
<path d="M488.565 160.634C488.565 160.634 513.545 162.679 528.199 158.831C542.853 154.974 568.43 138.234 568.43 138.234C568.43 138.234 572.333 151.204 570.68 157.847C570.68 157.847 559.343 163.074 553.199 164.202C553.199 164.202 557.016 171.839 562.42 178.58C562.42 178.58 550.795 193.275 536.074 198.936C536.074 198.936 523.093 183.642 521.382 176.41C521.382 176.41 498.055 183.276 485.565 181.588L488.565 160.634Z" fill="#F2A998" stroke="#101010" stroke-width="1.0079" stroke-miterlimit="10" stroke-linecap="round"/>
<path d="M552.487 195.937C552.487 195.937 568.237 218.983 574.122 225.512C580.006 232.05 591.93 233.419 591.93 233.419" stroke="black" stroke-width="1.0079" stroke-linecap="round" stroke-linejoin="round"/>
<path d="M587.987 127.974C587.987 127.974 589.382 125.457 589.612 124.185L587.987 127.974Z" fill="#F0BD83"/>
<path d="M587.987 127.974C587.987 127.974 589.382 125.457 589.612 124.185" stroke="#101010" stroke-width="0.755922" stroke-linecap="round" stroke-linejoin="round"/>
<path d="M588.901 128.544C588.901 128.544 590.66 125.863 590.708 124.792L588.901 128.544Z" fill="#F0BD83"/>
<path d="M588.901 128.544C588.901 128.544 590.66 125.863 590.708 124.792" stroke="#101010" stroke-width="0.755922" stroke-linecap="round" stroke-linejoin="round"/>
<path d="M589.805 129.46L591.295 126.789" stroke="#101010" stroke-width="0.755922" stroke-linecap="round" stroke-linejoin="round"/>
<path d="M420.882 128.592L382.325 102.132L346.2 10.3896L420.882 128.592Z" fill="#34DBCC" stroke="black" stroke-width="1.0079" stroke-linecap="round" stroke-linejoin="round"/>
<path d="M266.528 116.432L382.325 102.132L346.2 10.3896L266.528 116.432Z" fill="#A6F6EA" stroke="black" stroke-width="1.0079" stroke-linecap="round" stroke-linejoin="round"/>
<path d="M266.527 116.432L382.325 102.132L420.882 128.592L308.123 142.526L266.527 116.432Z" fill="#84E0D1" stroke="black" stroke-width="1.0079" stroke-linecap="round" stroke-linejoin="round"/>
<path d="M269.258 129.18L380.719 116.268L339.969 242.599L269.258 129.18Z" fill="#7BF0E4" stroke="black" stroke-width="1.0079" stroke-linecap="round" stroke-linejoin="round"/>
<path d="M418.44 141.176L380.719 116.268L339.969 242.599L418.44 141.176Z" fill="#34DBCC" stroke="black" stroke-width="1.0079" stroke-linecap="round" stroke-linejoin="round"/>
<path d="M623.035 150.683C623.035 150.683 642.958 159.507 629.949 191.646C616.949 223.786 575.911 246.196 537.315 244.566C498.719 242.937 446.767 218.077 405.902 227.045C365.046 236.013 337.364 262.897 337.364 262.897C337.364 262.897 298.412 295.49 247.624 266.976C196.836 238.453 171.643 188.435 133.047 166.787C94.4515 145.139 16.8461 179.651 1 210.064L15.6249 242.522C15.6249 242.522 22.1249 213.593 70.067 205.445C118.009 197.297 157.826 239.321 167.576 253.351C177.326 267.381 242.739 332.577 330.902 280.418C419.065 228.26 443.45 237.228 490.575 251.49C537.709 265.752 575.488 277.979 626.276 243.747C677.064 209.524 652.276 166.218 652.276 166.218C652.276 166.218 638.045 153.335 623.016 150.674L623.035 150.683Z" fill="white" stroke="black" stroke-width="1.0079" stroke-linecap="round" stroke-linejoin="round"/>
<mask id="mask0_136_414" style="mask-type:luminance" maskUnits="userSpaceOnUse" x="4" y="156" width="652" height="142">
<mask id="mask1_136_414" style="mask-type:luminance" maskUnits="userSpaceOnUse" x="4" y="156" width="652" height="142">
<path d="M263.479 297.602C212.153 297.602 176.557 261.47 169.826 251.798C160.134 237.855 125.547 201.684 82.4129 201.684C78.1341 201.684 73.836 202.051 69.6245 202.765C33.9131 208.84 20.3459 226.091 15.4805 235.56L4.0575 210.199C16.4997 188.551 63.8168 162.756 103.249 162.756C114.538 162.756 124.124 164.916 131.72 169.178C149.336 179.053 164.336 195.224 180.22 212.349C199.182 232.792 218.797 253.92 246.287 269.368C260.527 277.362 275.21 281.421 289.941 281.421C319.162 281.421 338.306 265.684 339.104 265.009L339.181 264.942L339.258 264.874C339.527 264.614 366.911 238.404 406.488 229.726C412.257 228.463 418.382 227.846 425.219 227.846C444.853 227.846 466.151 233.053 486.747 238.086C504.795 242.493 521.843 246.659 537.199 247.314C538.545 247.372 539.92 247.401 541.286 247.401C580.651 247.401 619.862 223.882 632.477 192.697C639.593 175.109 637.102 164.029 633.766 157.838C633.602 157.539 633.439 157.241 633.266 156.961C641.718 160.934 648.554 166.623 650.131 167.983C651.16 169.96 655.804 179.66 655.612 192.398C655.333 211.385 644.958 227.913 624.776 241.509C602.881 256.263 582.305 263.138 560.026 263.138C538.382 263.138 517.603 256.842 493.545 249.561L488.642 248.076C470.392 242.541 454.623 237.758 436.921 237.758C409.084 237.758 377.969 249.446 329.537 278.094C307.633 291.054 285.402 297.621 263.479 297.621V297.602Z" fill="white"/>
</mask>
<g mask="url(#mask1_136_414)">
<path d="M263.479 297.602C212.153 297.602 176.557 261.47 169.826 251.798C160.134 237.855 125.547 201.684 82.4129 201.684C78.1341 201.684 73.836 202.051 69.6245 202.765C33.9131 208.84 20.3459 226.091 15.4805 235.56L4.0575 210.199C16.4997 188.551 63.8168 162.756 103.249 162.756C114.538 162.756 124.124 164.916 131.72 169.178C149.336 179.053 164.336 195.224 180.22 212.349C199.182 232.792 218.797 253.92 246.287 269.368C260.527 277.362 275.21 281.421 289.941 281.421C319.162 281.421 338.306 265.684 339.104 265.009L339.181 264.942L339.258 264.874C339.527 264.614 366.911 238.404 406.488 229.726C412.257 228.463 418.382 227.846 425.219 227.846C444.853 227.846 466.151 233.053 486.747 238.086C504.795 242.493 521.843 246.659 537.199 247.314C538.545 247.372 539.92 247.401 541.286 247.401C580.651 247.401 619.862 223.882 632.477 192.697C639.593 175.109 637.102 164.029 633.766 157.838C633.602 157.539 633.439 157.241 633.266 156.961C641.718 160.934 648.554 166.623 650.131 167.983C651.16 169.96 655.804 179.66 655.612 192.398C655.333 211.385 644.958 227.913 624.776 241.509C602.881 256.263 582.305 263.138 560.026 263.138C538.382 263.138 517.603 256.842 493.545 249.561L488.642 248.076C470.392 242.541 454.623 237.758 436.921 237.758C409.084 237.758 377.969 249.446 329.537 278.094C307.633 291.054 285.402 297.621 263.479 297.621V297.602Z" fill="white"/>
</g>
</mask>
<g mask="url(#mask0_136_414)">
<path d="M3.60547 197.355L20.3169 235.58" stroke="#E5DCD1" stroke-width="2.01579" stroke-linejoin="round"/>
<path d="M9.34589 190.605L26.0573 228.829" stroke="#E5DCD1" stroke-width="2.01579" stroke-linejoin="round"/>
<path d="M16.0958 185.746L32.8073 223.97" stroke="#E5DCD1" stroke-width="2.01579" stroke-linejoin="round"/>
<path d="M23.3456 180.045L40.0571 218.27" stroke="#E5DCD1" stroke-width="2.01579" stroke-linejoin="round"/>
<path d="M32.8073 173.219L48.4226 213.372" stroke="#E5DCD1" stroke-width="2.01579" stroke-linejoin="round"/>
<path d="M43.2112 168.127L56.7015 210.922" stroke="#E5DCD1" stroke-width="2.01579" stroke-linejoin="round"/>
<path d="M56.7013 160.954L64.9609 208.165" stroke="#E5DCD1" stroke-width="2.01579" stroke-linejoin="round"/>
<path d="M71.8071 157.308L75.9417 208.165" stroke="#E5DCD1" stroke-width="2.01579" stroke-linejoin="round"/>
<path d="M87.2396 152.004V208.164" stroke="#E5DCD1" stroke-width="2.01579" stroke-linejoin="round"/>
<path d="M104.067 150.683L98.5474 209.842" stroke="#E5DCD1" stroke-width="2.01579" stroke-linejoin="round"/>
<path d="M122.009 154.473L109.845 212.311" stroke="#E5DCD1" stroke-width="2.01579" stroke-linejoin="round"/>
<path d="M139.057 160.143L120.73 216.901" stroke="#E5DCD1" stroke-width="2.01579" stroke-linejoin="round"/>
<path d="M153.605 170.297L131.778 223.516" stroke="#E5DCD1" stroke-width="2.01579" stroke-linejoin="round"/>
<path d="M166.432 180.045L141.874 230.13" stroke="#E5DCD1" stroke-width="2.01579" stroke-linejoin="round"/>
<path d="M177.076 190.605L150.576 238.414" stroke="#E5DCD1" stroke-width="2.01579" stroke-linejoin="round"/>
<path d="M184.432 200.064L157.932 247.883" stroke="#E5DCD1" stroke-width="2.01579" stroke-linejoin="round"/>
<path d="M191.681 207.847L165.182 255.656" stroke="#E5DCD1" stroke-width="2.01579" stroke-linejoin="round"/>
<path d="M200.018 218.27L171.326 264.324" stroke="#E5DCD1" stroke-width="2.01579" stroke-linejoin="round"/>
<path d="M210.104 227.875L179.73 272.126" stroke="#E5DCD1" stroke-width="2.01579" stroke-linejoin="round"/>
<path d="M220.143 234.711L189.768 278.963" stroke="#E5DCD1" stroke-width="2.01579" stroke-linejoin="round"/>
<path d="M228.729 242.204L198.345 286.446" stroke="#E5DCD1" stroke-width="2.01579" stroke-linejoin="round"/>
<path d="M236.422 250.275L206.047 294.516" stroke="#E5DCD1" stroke-width="2.01579" stroke-linejoin="round"/>
<path d="M246.527 253.949L216.422 300.688" stroke="#E5DCD1" stroke-width="2.01579" stroke-linejoin="round"/>
<path d="M257.797 256.022L229.883 306.155" stroke="#E5DCD1" stroke-width="2.01579" stroke-linejoin="round"/>
<path d="M267.239 263.196L243.152 310.34" stroke="#E5DCD1" stroke-width="2.01579" stroke-linejoin="round"/>
<path d="M276.085 263.196L259.874 311.844" stroke="#E5DCD1" stroke-width="2.01579" stroke-linejoin="round"/>
<path d="M287.767 262.714L277.162 311.844" stroke="#E5DCD1" stroke-width="2.01579" stroke-linejoin="round"/>
<path d="M296.508 261.461L294.546 309.887" stroke="#E5DCD1" stroke-width="2.01579" stroke-linejoin="round"/>
<path d="M305.258 258.606L313.479 307.264" stroke="#E5DCD1" stroke-width="2.01579" stroke-linejoin="round"/>
<path d="M314.258 254.98L329.238 299.82" stroke="#E5DCD1" stroke-width="2.01579" stroke-linejoin="round"/>
<path d="M321.931 250.912L340.671 292.945" stroke="#E5DCD1" stroke-width="2.01579" stroke-linejoin="round"/>
<path d="M329.239 249.099L352.71 285.317" stroke="#E5DCD1" stroke-width="2.01579" stroke-linejoin="round"/>
<path d="M335.44 244.576L363.21 279.271" stroke="#E5DCD1" stroke-width="2.01579" stroke-linejoin="round"/>
<path d="M341.306 238.472L377.094 273.36" stroke="#E5DCD1" stroke-width="2.01579" stroke-linejoin="round"/>
<path d="M351.008 227.875L385.68 269.628" stroke="#E5DCD1" stroke-width="2.01579" stroke-linejoin="round"/>
<path d="M363.383 224.115L398.046 265.868" stroke="#E5DCD1" stroke-width="2.01579" stroke-linejoin="round"/>
<path d="M377.921 221.327L407.594 259.85" stroke="#E5DCD1" stroke-width="2.01579" stroke-linejoin="round"/>
<path d="M392.758 216.805L418.44 256.022" stroke="#E5DCD1" stroke-width="2.01579" stroke-linejoin="round"/>
<path d="M408.873 214.808L429.286 253.948" stroke="#E5DCD1" stroke-width="2.01579" stroke-linejoin="round"/>
<path d="M425.719 213.979L440.324 253.361" stroke="#E5DCD1" stroke-width="2.01579" stroke-linejoin="round"/>
<path d="M438.517 213.728L453.122 253.109" stroke="#E5DCD1" stroke-width="2.01579" stroke-linejoin="round"/>
<path d="M453.122 214.683L464.642 253.949" stroke="#E5DCD1" stroke-width="2.01579" stroke-linejoin="round"/>
<path d="M468.776 215.715L475.632 254.981" stroke="#E5DCD1" stroke-width="2.01579" stroke-linejoin="round"/>
<path d="M480.834 218.839L487.69 258.095" stroke="#E5DCD1" stroke-width="2.01579" stroke-linejoin="round"/>
<path d="M492.315 221.154L499.161 260.41" stroke="#E5DCD1" stroke-width="2.01579" stroke-linejoin="round"/>
<path d="M502.94 224.943L509.786 264.199" stroke="#E5DCD1" stroke-width="2.01579" stroke-linejoin="round"/>
<path d="M511.766 228.665L521.593 267.921" stroke="#E5DCD1" stroke-width="2.01579" stroke-linejoin="round"/>
<path d="M519.728 229.465L532.641 269.522" stroke="#E5DCD1" stroke-width="2.01579" stroke-linejoin="round"/>
<path d="M529.516 232.561L544.18 272.627" stroke="#E5DCD1" stroke-width="2.01579" stroke-linejoin="round"/>
<path d="M539.526 233.419L555.237 271.277" stroke="#E5DCD1" stroke-width="2.01579" stroke-linejoin="round"/>
<path d="M551.141 233.419L566.843 271.277" stroke="#E5DCD1" stroke-width="2.01579" stroke-linejoin="round"/>
<path d="M562.747 233.419L579.718 271.277" stroke="#E5DCD1" stroke-width="2.01579" stroke-linejoin="round"/>
<path d="M574.353 233.419L591.939 268.818" stroke="#E5DCD1" stroke-width="2.01579" stroke-linejoin="round"/>
<path d="M583.141 228.665L603.324 263.89" stroke="#E5DCD1" stroke-width="2.01579" stroke-linejoin="round"/>
<path d="M593.237 224.943L615.939 259.262" stroke="#E5DCD1" stroke-width="2.01579" stroke-linejoin="round"/>
<path d="M602.16 221.154L628.247 253.814" stroke="#E5DCD1" stroke-width="2.01579" stroke-linejoin="round"/>
<path d="M610.478 214.673L640.583 244.576" stroke="#E5DCD1" stroke-width="2.01579" stroke-linejoin="round"/>
<path d="M617.381 206.208L652.227 231.761" stroke="#E5DCD1" stroke-width="2.01579" stroke-linejoin="round"/>
<path d="M623.448 197.538L662.275 218.945" stroke="#E5DCD1" stroke-width="2.01579" stroke-linejoin="round"/>
<path d="M627.093 186.835L668.737 203.372" stroke="#E5DCD1" stroke-width="2.01579" stroke-linejoin="round"/>
<path d="M628.247 176.902L670.795 191.608" stroke="#E5DCD1" stroke-width="2.01579" stroke-linejoin="round"/>
<path d="M628.247 168.098L670.795 182.803" stroke="#E5DCD1" stroke-width="2.01579" stroke-linejoin="round"/>
<path d="M627.093 159.844L669.631 174.55" stroke="#E5DCD1" stroke-width="2.01579" stroke-linejoin="round"/>
</g>
<path d="M291.547 217.827C291.547 217.827 287.498 228.434 307.316 235.667C327.143 242.899 437.065 224.693 426.507 166.797C426.507 166.797 448.902 169.835 452.767 175.514C452.767 175.514 463.325 213.893 412.344 237.171C361.373 260.458 325.075 254.258 304.989 245.483C284.912 236.708 291.537 217.837 291.537 217.837L291.547 217.827Z" fill="white" stroke="black" stroke-width="1.0079" stroke-linecap="round" stroke-linejoin="round"/>
<path d="M201.48 143.51C201.48 143.51 198.056 148.659 218.249 156.855C238.451 165.052 366.315 182.081 433.776 146.451C433.776 146.451 472.68 124.668 475.401 111.062C475.401 111.062 476.997 131.042 467.334 154.088C467.334 154.088 430.632 183.769 349.796 191.252C268.96 198.734 227.508 179.372 216.441 173.181C205.374 166.98 194.374 154.175 201.48 143.51Z" fill="white" stroke="black" stroke-width="1.0079" stroke-linecap="round" stroke-linejoin="round"/>
<path d="M249.566 28.3833C249.566 28.3833 230.566 47.7462 261.277 61.9501C291.989 76.154 339.71 70.0887 355.113 67.9769C370.517 65.8554 431.411 48.9419 432.074 32.414C432.074 32.414 439.276 54.6504 428.613 73.7337C428.613 73.7337 384.123 96.8669 327.96 95.999C271.796 95.1311 249.547 84.0033 238.902 63.4254C228.258 42.8379 249.566 28.3929 249.566 28.3929V28.3833Z" fill="white" stroke="black" stroke-width="1.0079" stroke-linecap="round" stroke-linejoin="round"/>
<mask id="mask2_136_414" style="mask-type:luminance" maskUnits="userSpaceOnUse" x="294" y="170" width="158" height="81">
<path d="M345.306 250.622C327.364 250.622 314.075 246.456 306.095 242.965C299.191 239.947 295.816 235.695 294.287 231.558C296.97 233.891 300.845 236.206 306.383 238.231C309.412 239.34 313.989 239.899 319.979 239.899C347.46 239.899 398.065 227.942 419.402 202.282C427.45 192.601 430.911 181.781 429.729 170.056C438.632 171.57 447.988 174.27 450.267 176.738C451.305 181.328 456.825 213.854 411.229 234.682C388.065 245.26 365.883 250.631 345.306 250.631V250.622Z" fill="white"/>
</mask>
<g mask="url(#mask2_136_414)">
<path d="M293.172 221.664C293.172 221.664 293.662 237.478 301.527 249.291" stroke="#E5DCD1" stroke-width="2.01579" stroke-linejoin="round"/>
<path d="M299.854 223.419C299.854 223.419 300.373 239.089 315.806 261.151" stroke="#E5DCD1" stroke-width="2.01579" stroke-linejoin="round"/>
<path d="M309.383 227.267L325.046 262.849" stroke="#E5DCD1" stroke-width="2.01579" stroke-linejoin="round"/>
<path d="M319.96 228.24L335.21 261.161" stroke="#E5DCD1" stroke-width="2.01579" stroke-linejoin="round"/>
<path d="M331.383 228.24L345.046 258.606" stroke="#E5DCD1" stroke-width="2.01579" stroke-linejoin="round"/>
<path d="M343.546 225.512L356.748 257.16" stroke="#E5DCD1" stroke-width="2.01579" stroke-linejoin="round"/>
<path d="M354.893 223.323L368.806 254.344" stroke="#E5DCD1" stroke-width="2.01579" stroke-linejoin="round"/>
<path d="M367.489 219.919L380.719 251.287" stroke="#E5DCD1" stroke-width="2.01579" stroke-linejoin="round"/>
<path d="M380.719 215.975L394.21 247.382" stroke="#E5DCD1" stroke-width="2.01579" stroke-linejoin="round"/>
<path d="M394.21 212.051L407.027 242.599" stroke="#E5DCD1" stroke-width="2.01579" stroke-linejoin="round"/>
<path d="M405.142 206.11L421.882 235.598" stroke="#E5DCD1" stroke-width="2.01579" stroke-linejoin="round"/>
<path d="M412.277 200.2L435.921 225.57" stroke="#E5DCD1" stroke-width="2.01579" stroke-linejoin="round"/>
<path d="M418.575 191.646L445.911 212.051" stroke="#E5DCD1" stroke-width="2.01579" stroke-linejoin="round"/>
<path d="M421.883 183.768L453.68 196.69" stroke="#E5DCD1" stroke-width="2.01579" stroke-linejoin="round"/>
<path d="M424.104 175.658L456.767 183.768" stroke="#E5DCD1" stroke-width="2.01579" stroke-linejoin="round"/>
</g>
<mask id="mask3_136_414" style="mask-type:luminance" maskUnits="userSpaceOnUse" x="201" y="121" width="272" height="70">
<path d="M314.393 190.219C258.508 190.219 228.21 176.642 217.778 170.799C209.826 166.344 203.749 159.574 202.307 153.548C202.076 152.603 201.96 151.696 201.96 150.809C204.989 153.644 210.057 156.479 217.239 159.401C228.845 164.107 271.268 170.924 317.643 170.924C352.171 170.924 400.565 167.096 435.055 148.88C438.334 147.048 461.498 133.847 472.498 121.273C471.892 128.929 470.103 140.231 465.113 152.371C462.921 154.01 453.844 160.442 437.546 167.482C420.171 174.984 390.806 184.723 349.556 188.542C337.489 189.66 325.662 190.229 314.402 190.229L314.393 190.219Z" fill="white"/>
</mask>
<g mask="url(#mask3_136_414)">
<path d="M471.488 114.619C471.488 114.619 465.892 151.773 459.757 166.797" stroke="#E5DCD1" stroke-width="2.01579" stroke-linejoin="round"/>
<path d="M457.392 128.591L451.017 170.056" stroke="#E5DCD1" stroke-width="2.01579" stroke-linejoin="round"/>
<path d="M445.171 135.804L440.594 174.935" stroke="#E5DCD1" stroke-width="2.01579" stroke-linejoin="round"/>
<path d="M433.777 143.741L431.123 180.374" stroke="#E5DCD1" stroke-width="2.01579" stroke-linejoin="round"/>
<path d="M418.575 149.372L420.882 183.566" stroke="#E5DCD1" stroke-width="2.01579" stroke-linejoin="round"/>
<path d="M405.911 154.203C407.392 155.466 410.238 186.439 410.238 186.439" stroke="#E5DCD1" stroke-width="2.01579" stroke-linejoin="round"/>
<path d="M395.258 156.932L398.277 189.013" stroke="#E5DCD1" stroke-width="2.01579" stroke-linejoin="round"/>
<path d="M382.325 160.335L386.536 191.646" stroke="#E5DCD1" stroke-width="2.01579" stroke-linejoin="round"/>
<path d="M367.373 164.202L373.96 192.571" stroke="#E5DCD1" stroke-width="2.01579" stroke-linejoin="round"/>
<path d="M352.527 166.141L360.835 194.424" stroke="#E5DCD1" stroke-width="2.01579" stroke-linejoin="round"/>
<path d="M337.364 164.202L349.517 197.354" stroke="#E5DCD1" stroke-width="2.01579" stroke-linejoin="round"/>
<path d="M320.508 166.141L333.296 197.355" stroke="#E5DCD1" stroke-width="2.01579" stroke-linejoin="round"/>
<path d="M301.027 166.141L316.902 197.355" stroke="#E5DCD1" stroke-width="2.01579" stroke-linejoin="round"/>
<path d="M282.47 164.202L301.027 197.354" stroke="#E5DCD1" stroke-width="2.01579" stroke-linejoin="round"/>
<path d="M264.701 162.052L286.893 195.898" stroke="#E5DCD1" stroke-width="2.01579" stroke-linejoin="round"/>
<path d="M246.527 160.335L267.854 193.179" stroke="#E5DCD1" stroke-width="2.01579" stroke-linejoin="round"/>
<path d="M229.354 155.37L248.691 191.646" stroke="#E5DCD1" stroke-width="2.01579" stroke-linejoin="round"/>
<path d="M214.922 150.683L234.701 189.013" stroke="#E5DCD1" stroke-width="2.01579" stroke-linejoin="round"/>
<path d="M204.028 145.071C204.028 145.071 205.759 160.336 218.326 180.374" stroke="#E5DCD1" stroke-width="2.01579" stroke-linejoin="round"/>
</g>
<path d="M463.68 72.9811L479.286 52.4707L501.507 57.4078L463.68 72.9811Z" fill="#483231" stroke="black" stroke-width="1.0079" stroke-linecap="round" stroke-linejoin="round"/>
<path d="M463.68 72.9815L479.286 52.4712L466.113 33.793L463.68 72.9815Z" fill="#84F3E3" stroke="black" stroke-width="1.0079" stroke-linecap="round" stroke-linejoin="round"/>
<path d="M466.113 33.793L488.228 39.5883L501.507 57.4083L479.286 52.4712L466.113 33.793Z" fill="#30CCBC" stroke="black" stroke-width="1.0079" stroke-linecap="round" stroke-linejoin="round"/>
<path d="M503.939 18.2197L479.074 52.0372L501.507 57.4083L503.939 18.2197Z" fill="#34DBCC" stroke="black" stroke-width="1.0079" stroke-linecap="round" stroke-linejoin="round"/>
<path d="M503.94 18.2197L479.074 52.0372L466.113 33.7929L503.94 18.2197Z" fill="#B8F7EE" stroke="black" stroke-width="1.0079" stroke-linecap="round" stroke-linejoin="round"/>
<path d="M83.2282 177.43L70.7379 158.472L81.2667 141.356L83.2282 177.43Z" fill="#7BF0E4" stroke="black" stroke-width="1.0079" stroke-linecap="round" stroke-linejoin="round"/>
<path d="M83.2282 177.43L70.7379 158.472L51.4207 164.055L83.2282 177.43Z" fill="#483231" stroke="black" stroke-width="1.0079" stroke-linecap="round" stroke-linejoin="round"/>
<path d="M51.4207 164.055L62.6418 147.277L81.2667 141.356L70.7379 158.472L51.4207 164.055Z" fill="#30CCBC" stroke="black" stroke-width="1.0079" stroke-linecap="round" stroke-linejoin="round"/>
<path d="M49.4496 127.981L70.3149 158.52L81.2667 141.356L49.4496 127.981Z" fill="#B8F7EE" stroke="black" stroke-width="1.0079" stroke-linecap="round" stroke-linejoin="round"/>
<path d="M49.4496 127.981L70.3149 158.52L51.4207 164.055L49.4496 127.981Z" fill="#7BF0E4" stroke="black" stroke-width="1.0079" stroke-linecap="round" stroke-linejoin="round"/>
<path d="M466.344 281.122L484.392 264.344L504.536 272.627L466.344 281.122Z" fill="#483231" stroke="black" stroke-width="1.0079" stroke-linecap="round" stroke-linejoin="round"/>
<path d="M466.343 281.123L484.391 264.344L474.997 244.576L466.343 281.123Z" fill="#B8F7EE" stroke="black" stroke-width="1.0079" stroke-linecap="round" stroke-linejoin="round"/>
<path d="M474.997 244.576L494.911 253.66L504.536 272.627L484.392 264.344L474.997 244.576Z" fill="#30CCBC" stroke="black" stroke-width="1.0079" stroke-linecap="round" stroke-linejoin="round"/>
<path d="M513.189 236.071L484.257 263.891L504.535 272.627L513.189 236.071Z" fill="#B8F7EE" stroke="black" stroke-width="1.0079" stroke-linecap="round" stroke-linejoin="round"/>
<path d="M513.189 236.071L484.257 263.891L474.997 244.576L513.189 236.071Z" fill="#7BF0E4" stroke="black" stroke-width="1.0079" stroke-linecap="round" stroke-linejoin="round"/>
<path d="M103.759 350.166L99.9609 359.799H110.269L114.172 350.166H103.759Z" fill="white" stroke="#101010" stroke-width="1.0079" stroke-miterlimit="10"/>
<path d="M99.9608 358.207C99.9608 358.207 97.5955 360.849 96.5378 366.259H121.538C121.538 366.259 122.586 360.589 117.855 359.798C113.115 359.007 110.913 358.217 110.913 358.217C110.913 358.217 105.624 359.538 99.9608 358.217V358.207Z" fill="#FBEBD8" stroke="#101010" stroke-width="1.0079" stroke-miterlimit="10"/>
<path d="M96.9129 364.658L121.567 364.995" stroke="#101010" stroke-width="1.0079" stroke-miterlimit="10"/>
<path d="M98.2205 361.042C98.2205 361.042 102.057 362.141 103.211 364.668" stroke="#101010" stroke-width="1.0079" stroke-miterlimit="10"/>
<path d="M89.1918 354.186L85.3937 363.819H95.7014L99.6052 354.186H89.1918Z" fill="white" stroke="#101010" stroke-width="1.0079" stroke-miterlimit="10"/>
<path d="M85.3936 362.238C85.3936 362.238 83.0283 364.88 81.9706 370.29H106.97C106.97 370.29 108.019 364.62 103.288 363.829C98.5474 363.038 96.3455 362.247 96.3455 362.247C96.3455 362.247 91.0571 363.569 85.3936 362.247V362.238Z" fill="#FBEBD8" stroke="#101010" stroke-width="1.0079" stroke-miterlimit="10"/>
<path d="M82.3458 368.679L106.999 369.017" stroke="#101010" stroke-width="1.0079" stroke-miterlimit="10"/>
<path d="M83.6532 365.063C83.6532 365.063 87.4897 366.163 88.6436 368.689" stroke="#101010" stroke-width="1.0079" stroke-miterlimit="10"/>
<path d="M78.3265 288.837C78.3265 288.837 77.2015 279.387 75.865 275.983" stroke="#101010" stroke-width="1.0079" stroke-miterlimit="10" stroke-linecap="round"/>
<path d="M103.461 212.755C100.644 206.834 98.2686 206.072 98.2686 206.072C98.2686 206.072 93.1436 205.176 92.1821 205.889C91.2206 206.603 92.7782 207.962 92.7782 207.962C89.961 207.49 88.0956 204.857 88.0956 204.857H85.1821L86.4033 207.393C89.7783 212.562 96.6244 212.282 96.6244 212.282C96.6244 212.282 97.8071 213.295 98.5571 227.238L107.403 226.255C106.144 219.881 104.509 214.953 103.47 212.755H103.461Z" fill="#F0BD83" stroke="#101010" stroke-width="1.0079" stroke-miterlimit="10"/>
<path d="M67.4419 310.514L67.1727 315.355L66.1438 317.891L59.2015 323.532C59.2015 323.532 57.4227 328.797 56.8554 329.925C56.2881 331.053 57.5092 331.622 57.5092 331.622C61.7304 330.022 61.9131 325.981 61.9131 325.981L64.4419 325.326C69.5092 323.166 71.8457 320.437 71.8457 320.437C73.3072 318.749 74.5284 314.458 75.4995 309.56C72.5765 310.427 69.5669 310.572 67.4227 310.514H67.4419Z" fill="#F0BD83" stroke="#101010" stroke-width="1.0079" stroke-miterlimit="10"/>
<path d="M107.394 226.264L98.5475 227.248C98.5571 227.46 98.5667 227.672 98.5859 227.894C98.6533 229.167 98.6533 230.459 98.6052 231.751C100.932 231.664 104.663 231.355 108.115 230.372C107.894 228.945 107.653 227.575 107.394 226.254V226.264Z" fill="white" stroke="#101010" stroke-width="1.0079" stroke-miterlimit="10"/>
<path d="M105.99 264.671C110.018 253.428 109.692 240.612 108.115 230.381C104.653 231.355 100.932 231.664 98.605 231.76C98.1339 245.241 92.1724 258.982 92.1724 258.982L82.4224 261.653L75.8648 265.607C63.7591 269.589 67.9129 301.922 67.9129 301.922L67.6917 305.846C69.6244 306.02 73.6532 306.29 76.1725 305.923C77.5859 297.544 78.3167 288.846 78.3167 288.846L79.3455 307.273C101.567 306.801 111.134 297.592 111.134 297.592C109.355 293.079 105.98 264.681 105.98 264.681L105.99 264.671Z" fill="#DFC192" stroke="#101010" stroke-width="1.0079" stroke-miterlimit="10"/>
<path d="M67.7015 305.837L67.4419 310.514C69.5765 310.562 72.5957 310.427 75.5188 309.559C75.7592 308.373 75.9803 307.139 76.1822 305.905C73.663 306.281 69.6342 306.001 67.7015 305.828V305.837Z" fill="white" stroke="#101010" stroke-width="1.0079" stroke-miterlimit="10"/>
<path d="M81.3168 307.265L96.9705 327.794C96.9705 327.794 86.7302 352.335 85.5379 357.485H104.211L106.317 352.731H115.884L126.586 326.338C126.586 326.338 128.692 321.083 120.403 310.514C112.115 299.946 109.461 298.914 109.461 298.914L81.3264 307.255L81.3168 307.265Z" fill="#CFCDCD" stroke="#101010" stroke-width="1.0079" stroke-miterlimit="10"/>
<path d="M106.317 352.74L117.134 327.341C117.922 325.489 117.855 323.397 116.951 321.603C115.124 317.997 111.047 311.15 102.442 301.016" stroke="#101010" stroke-width="1.0079" stroke-miterlimit="10"/>
<path d="M87.3359 352.017L104.067 351.419" stroke="#101010" stroke-width="1.0079" stroke-miterlimit="10"/>
<path d="M108.461 347.687L115.874 347.195" stroke="#101010" stroke-width="1.0079" stroke-miterlimit="10"/>
<path d="M89.1533 263.042L88.086 268.24C88.086 268.24 83.6052 265.269 81.9225 263.042" stroke="#101010" stroke-width="1.0079" stroke-miterlimit="10" stroke-linecap="round"/>
<path d="M90.0859 262.319L93.0859 266.022C93.0859 266.022 94.9609 263.515 93.4609 258.799" stroke="#101010" stroke-width="1.0079" stroke-miterlimit="10" stroke-linecap="round"/>
<path d="M80.3841 243.757C80.3841 243.757 84.7687 242.783 85.8649 244.615C85.8649 244.615 87.0956 244.461 88.0476 243.805C88.9995 243.149 89.2495 245.714 89.2495 245.714C89.2495 245.714 92.0668 247.276 92.1629 249.996C92.2591 252.715 90.4033 255.936 90.4033 255.936L92.1629 258.954C92.1629 258.954 89.0476 263.187 82.413 261.625L82.0091 258.202C82.0091 258.202 80.4514 259.108 77.038 256.292C73.6246 253.467 72.9515 245.666 80.3649 243.747L80.3841 243.757Z" fill="#F0BD83" stroke="#101010" stroke-width="1.0079" stroke-miterlimit="10"/>
<path d="M82.0283 258.211C82.0283 258.211 80.6244 257.729 80.1918 256.253C79.7591 254.778 81.1148 254.508 81.1148 254.508C81.1148 254.508 81.7206 248.867 78.5091 248.221C78.5091 248.221 81.9417 244.836 81.0668 242.705C80.1918 240.574 78.1245 239.321 76.3841 241.722C74.6437 244.123 72.8937 245.714 72.8937 245.714C72.8937 245.714 72.4033 244.344 70.9899 245.714C69.5764 247.083 68.6437 250.796 70.9899 251.509C70.9899 251.509 69.8457 252.493 70.7687 254.788C71.6918 257.083 76.0956 260.728 82.211 259.667L82.0379 258.211H82.0283Z" fill="#4C3211" stroke="#101010" stroke-width="1.0079" stroke-miterlimit="10"/>
<path d="M86.3938 252.213C86.3938 252.213 86.7207 252.705 88.0861 252.213" stroke="#101010" stroke-width="1.0079" stroke-miterlimit="10" stroke-linecap="round"/>
<path d="M81.9324 249.32C81.9324 249.32 81.7689 247.189 83.7881 246.591C83.7881 246.591 84.8747 248.828 81.9324 249.32Z" stroke="#101010" stroke-width="0.755922" stroke-miterlimit="10" stroke-linecap="round"/>
<path d="M82.6246 247.527C82.6823 247.479 83.0188 248.154 83.6246 248.106C83.6246 248.106 83.9323 247.353 83.74 246.852C83.74 246.852 83.2111 246.678 82.6246 247.527Z" fill="#101010"/>
<path d="M229.883 204.317L228.46 209.717C228.46 209.717 242.508 214.326 255.162 210.585L255.018 203.526C245.028 206.313 232.903 204.77 229.883 204.317Z" fill="#F0BD83" stroke="#101010" stroke-width="1.0079" stroke-miterlimit="10"/>
<path d="M234.047 182.273C230.249 184.944 219.133 195.03 219.133 195.03C219.133 195.03 213.739 199.91 205.614 201.308C197.489 202.706 199.018 201.906 196.162 205.117C193.297 208.318 193.835 211.529 195.095 213.265C195.095 213.265 195.893 213.863 196.095 212.33C196.297 210.796 196.432 209.726 196.432 209.726C196.432 209.726 200.095 209.726 202.095 208.858C204.095 207.99 205.489 206.39 205.489 206.39C205.489 206.39 213.076 207.19 222.268 202.32C231.46 197.441 231.922 196.573 231.922 196.573L236.201 181.347C235.489 181.492 234.758 181.791 234.056 182.283L234.047 182.273Z" fill="#F0BD83" stroke="#101010" stroke-width="1.0079" stroke-miterlimit="10"/>
<path d="M249.739 190.431L250.672 183.363C249.816 183.122 249.114 182.697 248.97 181.936C248.566 179.795 249.566 177.866 249.566 177.866L253.893 176.931C253.893 176.931 256.354 170.653 252.691 168.58C249.028 166.507 244.633 164.106 241.508 169.043C241.508 169.043 238.508 173.787 239.643 177.326C239.643 177.326 239.508 178.127 241.104 178.599C242.701 179.062 243.239 179.438 243.239 179.438L242.287 182.813C242.287 182.813 241.489 182.244 240.287 181.781L238.903 188.657C238.903 188.657 245.018 190.441 249.739 190.441V190.431Z" fill="#F0BD83" stroke="#101010" stroke-width="1.0079" stroke-miterlimit="10"/>
<path d="M276.268 173.325C273.2 171.117 263.287 167.047 259.825 166.449C259.825 166.449 255.027 162.245 253.7 161.705C252.364 161.175 249.633 162.361 248.604 163.373L258.364 169.323C258.364 169.323 266.816 175.07 268.748 175.668C268.748 175.668 256.825 182.081 254.229 183.614L254.825 194.433C254.825 194.433 272.537 188.753 277.729 178.204C277.729 178.204 279.325 175.533 276.268 173.325Z" fill="#F0BD83" stroke="#101010" stroke-width="1.0079" stroke-miterlimit="10"/>
<path d="M250.672 183.364L249.739 190.432C245.018 190.432 238.903 188.648 238.903 188.648L240.287 181.773C239.172 181.348 237.71 181.02 236.201 181.329L231.922 196.555L229.883 204.308C232.903 204.761 245.028 206.304 255.018 203.517L254.835 194.414L254.239 183.595C254.239 183.595 252.229 183.788 250.681 183.354L250.672 183.364Z" fill="#726B66" stroke="#101010" stroke-width="1.0079" stroke-miterlimit="10"/>
<path d="M247.037 166.209C247.037 166.209 245.528 169.565 248.037 170.847C250.547 172.13 251.864 173.441 250.239 174.724C250.239 174.724 251.556 174.338 251.902 174.994C252.249 175.649 251.768 177.346 250.076 177.761L249.566 177.867L249.172 178.899C249.172 178.899 248.883 179.487 251.085 179.911C253.287 180.336 257.306 181.233 260.172 178.205C263.027 175.177 259.633 173.48 257.893 173.673C256.152 173.865 255.46 172.429 255.768 171.503C256.076 170.577 258.124 167.318 254.96 165.148C251.787 162.979 248.604 163.374 248.604 163.374C248.604 163.374 248.239 162.034 245.749 162.95C243.249 163.866 241.864 164.685 241.124 167.164C240.393 169.642 238.537 169.565 238.537 169.565C238.537 169.565 236.028 169.873 236.124 172.467C236.22 175.061 239.508 174.29 239.508 174.29C239.508 174.29 240.028 171.136 241.778 168.658C243.528 166.18 246.508 166.103 247.047 166.199L247.037 166.209Z" fill="#DFC192" stroke="#101010" stroke-width="1.0079" stroke-linecap="round" stroke-linejoin="round"/>
<path d="M240.903 170.297C240.903 170.297 246.653 172.129 248.268 173.199C248.268 173.199 248.691 173.759 248.268 174.27C247.845 174.781 246.143 175.08 245.162 174.868C244.181 174.655 244.008 172.621 244.008 172.621L243.153 172.264C243.153 172.264 242.855 173.334 241.922 173.585C240.989 173.836 240.037 171.927 240.903 170.297Z" fill="#101010" stroke="#101010" stroke-width="1.0079" stroke-linecap="round" stroke-linejoin="round"/>
<path d="M242.287 176.979C242.287 176.979 243.047 177.519 244.028 176.979" stroke="#101010" stroke-width="1.0079" stroke-linecap="round" stroke-linejoin="round"/>
<path d="M201.316 252.214L194.461 249.099C194.461 249.099 192.605 251.635 190.461 253.988L195.864 258.086L201.316 252.214Z" fill="#F0BD83" stroke="#101010" stroke-width="1.0079" stroke-miterlimit="10"/>
<path d="M187.47 256.842C187.114 257.122 186.759 257.363 186.441 257.537C183.336 259.224 183.855 259.87 184.239 261.693C184.624 263.505 185.922 268.828 185.922 268.828C185.922 268.828 187.22 271.808 190.326 272.329C193.432 272.849 193.816 270.381 193.307 267.787C192.788 265.193 192.422 261.818 192.422 261.818L192.749 261.471C188.932 260.777 187.778 258.559 187.489 256.842H187.47Z" fill="#726B66" stroke="#101010" stroke-width="1.0079" stroke-miterlimit="10"/>
<path d="M190.461 253.988C189.47 255.068 188.432 256.1 187.47 256.832C187.768 258.549 188.922 260.767 192.73 261.461L195.864 258.086L190.461 253.988Z" fill="white" stroke="#101010" stroke-width="1.0079" stroke-miterlimit="10"/>
<path d="M240.922 262.03L248.402 262.869C248.402 262.869 248.701 266.003 249.345 269.127L242.614 269.879L240.931 262.03H240.922Z" fill="#F0BD83" stroke="#101010" stroke-width="1.0079" stroke-miterlimit="10"/>
<path d="M250.46 273.109C250.624 273.533 250.807 273.919 250.989 274.237C252.797 277.284 252.018 277.573 250.758 278.933C249.499 280.293 245.672 284.198 245.672 284.198C245.672 284.198 243.037 286.098 240.105 284.95C237.172 283.803 238.095 281.488 239.864 279.521C241.633 277.554 243.672 274.844 243.672 274.844L243.576 274.372C247.21 275.732 249.326 274.42 250.46 273.099V273.109Z" fill="#726B66" stroke="#101010" stroke-width="1.0079" stroke-miterlimit="10"/>
<path d="M249.345 269.126C249.643 270.563 250.008 271.981 250.46 273.109C249.335 274.43 247.21 275.741 243.576 274.382L242.605 269.879L249.335 269.126H249.345Z" fill="white" stroke="#101010" stroke-width="1.0079" stroke-miterlimit="10"/>
<path d="M255.162 210.585C255.162 210.585 259.095 216.245 255.162 221.568C251.23 226.891 245.143 237.267 245.143 237.267C245.143 237.267 251.46 257.382 255.162 264.517C255.162 264.517 236.701 268.934 236.201 268.934C235.701 268.934 226.768 242.609 226.768 242.609L229.355 234.422C229.355 234.422 207.874 253.891 202.961 261.412L189.759 248.828C189.759 248.828 206.98 226.303 228.451 209.727C228.451 209.727 242.393 214.278 255.153 210.594L255.162 210.585Z" fill="#EE8E75" stroke="#101010" stroke-width="1.0079" stroke-miterlimit="10"/>
<path d="M229.354 234.413C229.354 234.413 232.681 226.766 234.547 224.056L236.422 221.347" stroke="#101010" stroke-width="1.0079" stroke-miterlimit="10"/>
<path d="M199.23 205.706C199.23 205.706 196.932 206.651 197.912 207.779C198.893 208.907 203.422 207.124 203.422 207.124" stroke="#101010" stroke-width="1.0079" stroke-linecap="round" stroke-linejoin="round"/>
<path d="M610.967 255.058L609.102 254.865C609.102 254.865 610.756 247.97 615.41 247.864C620.054 247.758 623.573 250.044 625.256 251.461C626.938 252.879 629.265 262.213 627.775 266.157L618.852 263.746L616.794 256.745L610.977 255.058H610.967Z" fill="#A6F6EA" stroke="#101010" stroke-width="1.0079" stroke-linecap="round" stroke-linejoin="round"/>
<path d="M615.39 363.376C616.631 366.22 617.65 368.901 617.794 370.318C618.208 374.224 626.842 370.318 626.842 370.318C626.842 370.318 626.14 366.539 625.054 362.161C622.14 362.585 617.804 363.096 615.39 363.366V363.376Z" fill="#FDF7E7" stroke="#101010" stroke-width="1.0079" stroke-miterlimit="10" stroke-linecap="round"/>
<path d="M620.718 350.088C617.516 345.623 610.362 352.875 610.362 352.875C610.362 352.875 613.208 358.371 615.381 363.376C617.795 363.106 622.131 362.595 625.044 362.17C623.91 357.6 622.343 352.364 620.708 350.088H620.718Z" fill="#F0BD83" stroke="#101010" stroke-width="1.0079" stroke-miterlimit="10"/>
<path d="M615.987 367.879C615.987 367.879 620.833 370.28 626.843 367.879C626.843 367.879 628.352 367.966 628.429 368.94C628.506 369.914 628.006 371.254 628.429 372.527C628.852 373.8 630.256 377.185 629.621 380H603.823C603.823 380 602.843 374.716 605.583 373.935C608.323 373.164 614.304 372.247 615.987 367.87V367.879Z" fill="#FEECDA" stroke="#101010" stroke-width="1.0079" stroke-miterlimit="10" stroke-linecap="round"/>
<path d="M603.66 378.101H629.775" stroke="#101010" stroke-width="1.0079" stroke-miterlimit="10" stroke-linecap="round"/>
<path d="M607.939 373.337C607.939 373.337 613.112 375.006 615.39 374.581C617.669 374.157 618.515 378.111 618.515 378.111" stroke="#101010" stroke-width="1.0079" stroke-miterlimit="10" stroke-linecap="round"/>
<path d="M622.102 378.1C622.102 378.1 622.313 373.8 628.429 372.527" stroke="#101010" stroke-width="1.0079" stroke-miterlimit="10" stroke-linecap="round"/>
<path d="M614.987 369.586L616.718 371.408" stroke="#101010" stroke-width="1.0079" stroke-miterlimit="10" stroke-linecap="round"/>
<path d="M613.227 371.409L614.439 372.537" stroke="#101010" stroke-width="1.0079" stroke-miterlimit="10" stroke-linecap="round"/>
<path d="M685.362 293.678C687.265 291.238 689.14 289.059 690.313 288.249C693.544 286.021 686.015 280.265 686.015 280.265C686.015 280.265 683.035 282.675 679.717 285.723C681.477 288.095 683.987 291.672 685.371 293.678H685.362Z" fill="#FDF7E7" stroke="#101010" stroke-width="1.0079" stroke-miterlimit="10" stroke-linecap="round"/>
<path d="M671.16 295.287C668.766 300.234 678.535 303.098 678.535 303.098C678.535 303.098 682.006 297.968 685.362 293.677C683.967 291.671 681.467 288.094 679.708 285.722C676.237 288.894 672.391 292.761 671.169 295.287H671.16Z" fill="#F0BD83" stroke="#101010" stroke-width="1.0079" stroke-miterlimit="10"/>
<path d="M690.381 289.406C690.381 289.406 686.996 285.182 680.535 284.816C680.535 284.816 679.198 284.102 679.544 283.176C679.89 282.251 680.9 281.248 681.054 279.927C681.208 278.606 681.352 274.932 683.112 272.646L706.506 283.553C706.506 283.553 705.179 288.76 702.361 288.307C699.554 287.853 693.746 286.156 690.381 289.406Z" fill="#FEECDA" stroke="#101010" stroke-width="1.0079" stroke-miterlimit="10" stroke-linecap="round"/>
<path d="M705.852 285.346L682.169 274.305" stroke="#101010" stroke-width="1.0079" stroke-miterlimit="10" stroke-linecap="round"/>
<path d="M699.967 287.863C699.967 287.863 695.977 284.169 693.737 283.581C691.496 282.993 692.381 279.059 692.381 279.059" stroke="#101010" stroke-width="1.0079" stroke-miterlimit="10" stroke-linecap="round"/>
<path d="M689.131 277.555C689.131 277.555 687.131 281.364 681.054 279.936" stroke="#101010" stroke-width="1.0079" stroke-miterlimit="10" stroke-linecap="round"/>
<path d="M691.996 288.277L691.198 285.905" stroke="#101010" stroke-width="1.0079" stroke-miterlimit="10" stroke-linecap="round"/>
<path d="M694.362 287.371L693.737 285.838" stroke="#101010" stroke-width="1.0079" stroke-miterlimit="10" stroke-linecap="round"/>
<path d="M613.516 294.468C613.516 294.468 598.497 317.91 597.516 335.103L609.102 355.421L625.756 351.708L617.766 329.828L628.237 312.635C628.237 312.635 654.977 320.446 665.102 319.086C675.237 317.717 686.14 299.357 686.727 296.03L675.621 285.674L661.208 301.006C661.208 301.006 643.91 296.455 636.968 291.46C636.968 291.46 621.304 285.481 613.496 294.468H613.516Z" fill="white" stroke="#101010" stroke-width="1.0079" stroke-miterlimit="10" stroke-linecap="round"/>
<path d="M646.506 227.161C646.064 227.73 645.756 228.125 645.756 228.125C645.756 228.125 646.112 227.72 646.506 227.161Z" stroke="#101010" stroke-width="0.755922" stroke-miterlimit="10" stroke-linecap="round"/>
<path d="M610.372 269.522C609.064 269.966 607.699 270.709 606.564 271.962C603.285 275.578 597.622 292.28 590.824 299.599C590.824 299.599 589.343 301.816 587.622 302.81C585.901 303.793 581.228 304.372 577.949 307.988C574.67 311.604 578.853 309.714 578.853 309.714C578.853 309.714 581.804 307.332 584.593 308.065C587.381 308.807 593.612 308.557 593.939 304.613C593.939 304.613 606.218 293.35 608.362 287.834C608.362 287.834 606.727 283.061 606.4 280.843C606.16 279.223 608.872 272.869 610.372 269.522Z" fill="#F0BD83" stroke="#101010" stroke-width="1.0079" stroke-miterlimit="10"/>
<path d="M624.622 266.012C624.622 266.012 624.554 266.109 624.525 266.157L621.025 269.098C621.025 269.098 616.968 270.689 615.102 268.915C615.102 268.915 612.852 268.674 610.372 269.522C608.872 272.868 606.16 279.223 606.401 280.843C606.727 283.061 608.362 287.834 608.362 287.834L609.112 298.277C609.112 298.277 613.083 298.933 618.679 296.464C624.275 293.996 632.718 290.293 636.987 291.45L632.391 276.976C626.727 274.16 625.064 269.291 624.612 266.002L624.622 266.012Z" fill="#726B66" stroke="#101010" stroke-width="1.0079" stroke-miterlimit="10" stroke-linecap="round"/>
<path d="M651.169 220.073C649.612 218.425 650.756 221.636 649.689 223.034C648.968 223.979 647.429 225.975 646.496 227.171C646.112 227.73 645.746 228.135 645.746 228.135C645.746 228.135 646.054 227.74 646.496 227.171C647.141 226.255 647.862 224.933 647.179 224.393C646.083 223.526 644.929 226.081 642.468 227.72C640.006 229.36 638.968 230.478 639.41 233.217C639.41 233.217 632.766 254.171 624.612 266.012C625.064 269.291 626.718 274.17 632.391 276.986C632.391 276.986 644.525 255.935 643.958 234.547C643.958 234.547 649.948 230.44 651.179 227.72C652.41 225.001 652.737 221.713 651.179 220.073H651.169Z" fill="#F0BD83"/>
<path d="M646.496 227.171C647.429 225.975 648.968 223.979 649.689 223.034C650.756 221.636 649.612 218.425 651.169 220.073H651.179C652.737 221.713 652.41 225.001 651.179 227.72C649.948 230.44 643.958 234.547 643.958 234.547C644.525 255.935 632.391 276.986 632.391 276.986C626.718 274.17 625.064 269.291 624.612 266.012C632.766 254.171 639.41 233.217 639.41 233.217C638.968 230.478 640.006 229.36 642.468 227.72C644.929 226.081 646.083 223.526 647.179 224.393C647.862 224.933 647.141 226.255 646.496 227.171ZM646.496 227.171C646.112 227.73 645.746 228.135 645.746 228.135C645.746 228.135 646.054 227.74 646.496 227.171Z" stroke="#101010" stroke-width="1.0079" stroke-miterlimit="10"/>
<path d="M610.968 255.058L609.891 258.192C609.891 258.192 608.131 258.693 608.381 259.763C608.631 260.834 609.323 260.516 609.323 260.516C609.323 260.516 608.42 262.531 609.718 263.669C611.016 264.807 613.468 265.433 613.468 265.433L612.525 271.865C612.525 271.865 612.333 273.697 614.92 273.948C617.506 274.199 620.583 271.614 621.016 269.088L620.641 262.714C620.641 262.714 622.025 263.283 622.968 262.145C623.91 261.007 623.718 258.741 621.833 259.368V256.716C621.833 256.716 617.679 255.328 615.545 255.395L615.477 251.229L612.583 255.27L610.958 255.038L610.968 255.058Z" fill="#F0BD83" stroke="#101010" stroke-width="1.0079" stroke-linecap="round" stroke-linejoin="round"/>
<path d="M612.689 262.233C612.689 262.233 613.756 262.416 614.342 261.828" stroke="#101010" stroke-width="1.0079" stroke-linecap="round" stroke-linejoin="round"/>
<path d="M615.093 257.855C615.093 257.855 613.871 256.1 611.929 256.919C611.929 256.919 612.506 259.34 615.093 257.855Z" fill="#FEECDA" stroke="#101010" stroke-width="0.755922" stroke-miterlimit="10" stroke-linecap="round"/>
<path d="M613.419 256.909C613.342 256.909 613.515 257.642 613.015 257.989C613.015 257.989 612.304 257.603 612.131 257.092C612.131 257.092 612.429 256.62 613.419 256.909Z" fill="#101010"/>
<path d="M585.362 305.75C585.362 305.75 582.997 306.059 583.795 307.062C584.593 308.065 589.17 308.287 589.17 308.287" fill="#F0BD83"/>
<path d="M585.362 305.75C585.362 305.75 582.997 306.059 583.795 307.062C584.593 308.065 589.17 308.287 589.17 308.287" stroke="#101010" stroke-width="1.0079" stroke-miterlimit="10" stroke-linecap="round"/>
<path d="M615.939 305.75C615.939 305.75 622.91 311.17 628.247 312.635" stroke="#101010" stroke-width="1.0079" stroke-miterlimit="10" stroke-linecap="round"/>
<path d="M179.682 148.639L183.018 152.005" stroke="black" stroke-width="1.0079" stroke-linecap="round" stroke-linejoin="round"/>
<path d="M181.711 150.683L184.576 148.061" stroke="black" stroke-width="1.0079" stroke-linecap="round" stroke-linejoin="round"/>
<path d="M396.202 313.205C396.202 313.205 387.394 309.222 378.414 310.447C378.414 310.447 378.067 311.797 380.875 311.98C380.875 311.98 377.5 312.414 376.769 312.713C376.769 312.713 376.644 314.555 381.596 314.063L383.923 314.15C383.923 314.15 379.423 315.779 378.683 317.679C378.683 317.679 379.894 318.72 381.173 318.113C382.462 317.496 385.452 316.155 385.452 316.155C385.452 316.155 380.74 319.28 381.298 320.389C381.298 320.389 381.356 321.218 383.808 319.791C386.25 318.364 391.539 318.036 391.539 318.036C391.539 318.036 399.404 317.689 396.221 313.214L396.202 313.205Z" fill="#F0BD83" stroke="black" stroke-width="1.0079" stroke-miterlimit="10" stroke-linecap="round"/>
<path d="M430.067 291.316C430.067 291.316 428.692 292.357 428.558 294.141C428.423 295.925 427.01 297.237 427.01 297.237C427.01 297.237 426.673 297.873 427.885 298.654C427.885 298.654 427.481 301.884 428.086 302.453C428.692 303.022 430.202 303.495 432.913 302.183L433.452 305.076H442.615L438.99 299.252L438.827 292.222L430.067 291.316Z" fill="#F0BD83" stroke="black" stroke-width="1.0079" stroke-miterlimit="10" stroke-linecap="round"/>
<path d="M436.356 354.852L425.923 358.912L426.769 363.434L437.577 361.506L436.356 354.852Z" fill="white" stroke="black" stroke-width="1.0079" stroke-linecap="round" stroke-linejoin="round"/>
<path d="M414.885 370.936C414.548 371.399 414.26 371.939 414.048 372.595H439.615L439.308 370.936H414.885Z" fill="#726B66" stroke="black" stroke-width="1.0079" stroke-linecap="round" stroke-linejoin="round"/>
<path d="M437.577 361.506L426.769 363.435L426.971 364.486C426.971 364.486 426.644 365.99 423.404 367.263C420.635 368.353 416.856 368.179 414.885 370.937H439.308L437.577 361.506Z" fill="#726B66" stroke="black" stroke-width="1.0079" stroke-linecap="round" stroke-linejoin="round"/>
<path d="M461 348.623H471.327C471.327 348.623 477.904 367.783 478.952 372.595H475.894C475.009 372.595 474.192 372.132 473.74 371.361L469.981 365.016C469.981 365.016 468.029 362.191 463.596 359.847L461.009 348.623H461Z" fill="#726B66" stroke="black" stroke-width="1.0079" stroke-linecap="round" stroke-linejoin="round"/>
<path d="M469.298 348.623L477.538 372.103" stroke="black" stroke-width="1.0079" stroke-linecap="round" stroke-linejoin="round"/>
<path d="M461.615 338.701C461.615 338.701 462.596 341.709 451.769 343.291L461.644 345.461L463.788 361.265L437.298 359.096L436.856 357.611L420.365 362.056C420.365 362.056 407.067 345.277 403.231 337.91C403.231 337.91 399.269 332.539 405.192 327.496C411.115 322.453 420.856 321.267 420.856 321.267L448.625 326.281L461.625 338.701H461.615Z" fill="white" stroke="black" stroke-width="1.0079" stroke-miterlimit="10" stroke-linecap="round"/>
<path d="M436.856 357.61L439.606 356.579L428.442 342.037" stroke="black" stroke-width="1.0079" stroke-miterlimit="10" stroke-linecap="round"/>
<path d="M341.76 353.84L333.625 355.421V361.303L343.991 360.31L341.76 353.84Z" fill="white" stroke="black" stroke-width="1.0079" stroke-miterlimit="10" stroke-linecap="round"/>
<path d="M354.116 370.079C351.885 369.115 347.414 367.36 347.414 367.36L343.981 360.321L333.616 361.314V373.599H338.558V370.079L341.587 373.599H356.75C356.75 373.599 356.346 371.044 354.116 370.079Z" fill="#EE8E75" stroke="black" stroke-width="1.0079" stroke-miterlimit="10" stroke-linecap="round"/>
<path d="M299.568 348.758L290.481 345.808L287.26 349.462L295.203 356.068C296.212 354.014 297.616 351.535 299.568 348.758Z" fill="white" stroke="black" stroke-width="1.0079" stroke-miterlimit="10" stroke-linecap="round"/>
<path d="M297.683 369.307C297.683 369.307 293.779 364.736 292.876 362.046C292.876 362.046 293.385 359.751 295.193 356.058L287.251 349.452L278.241 359.664L282.164 363.579L284.914 360.3L284.356 365.382L292.876 373.588H300.991C300.991 373.588 300.991 370.956 297.683 369.297V369.307Z" fill="#EE8E75" stroke="black" stroke-width="1.0079" stroke-miterlimit="10" stroke-linecap="round"/>
<path d="M341.356 302.945C341.356 302.945 342.75 309.598 344.616 320.61C346.481 331.623 349.404 352.499 350.039 357.022H332.491C332.491 357.022 329.847 324.14 324.875 314.632C324.875 314.632 308.606 347.668 300.972 353.589L286.808 346.106L317.366 288.442L336.212 291.306L341.356 302.945Z" fill="#9E9C9C" stroke="black" stroke-width="1.0079" stroke-miterlimit="10" stroke-linecap="round"/>
<path d="M343.846 278.288C345.135 275.878 346.558 273.669 348.048 272.069L349.51 270.401C349.51 270.401 350.443 272.647 351.971 272.493C353.491 272.339 354.923 269.774 354.923 269.774C355.539 269.986 356.077 269.465 356.077 269.465C356.077 269.465 355.818 267.951 356.077 267.382C356.337 266.804 356.548 264.615 356.548 264.615C356.712 260.526 354.712 258.328 349.981 258.501C345.241 258.675 344.895 265.145 344.895 265.145C342.087 268.8 340.154 268.809 340.154 268.809C339 270.198 337.943 271.818 336.981 273.525C336.981 273.544 337.875 279.465 343.856 278.288H343.846Z" fill="#CC8A7F" stroke="black" stroke-width="1.0079" stroke-linecap="round" stroke-linejoin="round"/>
<path d="M372.914 372.769V333.291" stroke="black" stroke-width="1.0079" stroke-linecap="round" stroke-linejoin="round"/>
<path d="M372.914 354.64L361.395 344.862V338.565" stroke="black" stroke-width="1.0079" stroke-linecap="round" stroke-linejoin="round"/>
<path d="M361.395 342.423L355.058 336.763V328.277" stroke="black" stroke-width="1.0079" stroke-linecap="round" stroke-linejoin="round"/>
<path d="M372.914 348.835L379.164 344.65V336.425" stroke="black" stroke-width="1.0079" stroke-linecap="round" stroke-linejoin="round"/>
<path d="M379.164 341.7L386.606 336.426V325.105" stroke="black" stroke-width="1.0079" stroke-linecap="round" stroke-linejoin="round"/>
<path d="M372.914 362.094L384.423 353.03V330.639" stroke="black" stroke-width="1.0079" stroke-linecap="round" stroke-linejoin="round"/>
<path d="M384.423 345.248L392.5 339.462V327.37" stroke="black" stroke-width="1.0079" stroke-linecap="round" stroke-linejoin="round"/>
<path d="M372.914 376.24C374.825 376.24 376.375 374.686 376.375 372.769C376.375 370.852 374.825 369.297 372.914 369.297C371.002 369.297 369.452 370.852 369.452 372.769C369.452 374.686 371.002 376.24 372.914 376.24Z" fill="#7BF0E4" stroke="black" stroke-width="1.0079" stroke-linecap="round" stroke-linejoin="round"/>
<path d="M361.394 338.758C362.334 338.758 363.096 337.994 363.096 337.052C363.096 336.109 362.334 335.345 361.394 335.345C360.454 335.345 359.692 336.109 359.692 337.052C359.692 337.994 360.454 338.758 361.394 338.758Z" fill="#7BF0E4" stroke="black" stroke-width="1.0079" stroke-linecap="round" stroke-linejoin="round"/>
<path d="M355.058 329.077C355.998 329.077 356.76 328.313 356.76 327.37C356.76 326.428 355.998 325.664 355.058 325.664C354.118 325.664 353.356 326.428 353.356 327.37C353.356 328.313 354.118 329.077 355.058 329.077Z" fill="#7BF0E4" stroke="black" stroke-width="1.0079" stroke-linecap="round" stroke-linejoin="round"/>
<path d="M379.164 337.225C380.104 337.225 380.866 336.461 380.866 335.518C380.866 334.576 380.104 333.812 379.164 333.812C378.224 333.812 377.462 334.576 377.462 335.518C377.462 336.461 378.224 337.225 379.164 337.225Z" fill="#7BF0E4" stroke="black" stroke-width="1.0079" stroke-linecap="round" stroke-linejoin="round"/>
<path d="M386.606 326.136C387.546 326.136 388.308 325.372 388.308 324.429C388.308 323.486 387.546 322.722 386.606 322.722C385.666 322.722 384.904 323.486 384.904 324.429C384.904 325.372 385.666 326.136 386.606 326.136Z" fill="#7BF0E4" stroke="black" stroke-width="1.0079" stroke-linecap="round" stroke-linejoin="round"/>
<path d="M392.5 328.576C393.44 328.576 394.202 327.812 394.202 326.869C394.202 325.926 393.44 325.162 392.5 325.162C391.56 325.162 390.798 325.926 390.798 326.869C390.798 327.812 391.56 328.576 392.5 328.576Z" fill="#7BF0E4" stroke="black" stroke-width="1.0079" stroke-linecap="round" stroke-linejoin="round"/>
<path d="M384.423 331.989C385.363 331.989 386.125 331.225 386.125 330.282C386.125 329.34 385.363 328.576 384.423 328.576C383.483 328.576 382.721 329.34 382.721 330.282C382.721 331.225 383.483 331.989 384.423 331.989Z" fill="#7BF0E4" stroke="black" stroke-width="1.0079" stroke-linecap="round" stroke-linejoin="round"/>
<path d="M366.923 323.89V327.284C366.923 330.591 369.596 333.282 372.904 333.282H373.712C373.712 333.282 374.914 325.008 366.923 323.899V323.89Z" fill="#FF7C66" stroke="#101010" stroke-width="1.0079" stroke-miterlimit="10" stroke-linecap="round"/>
<path d="M373.019 327.37C373.019 327.37 373.789 322.916 378.789 320.997V327.872C378.789 330.861 376.375 333.282 373.394 333.282H373.029V327.361L373.019 327.37Z" fill="#FF7C66" stroke="#101010" stroke-width="1.0079" stroke-miterlimit="10" stroke-linecap="round"/>
<path d="M432.923 295.684C432.923 295.684 431.346 294.248 429.635 295.472C429.635 295.472 430.731 297.709 432.923 295.684Z" fill="#FEECDA" stroke="#101010" stroke-width="0.755922" stroke-miterlimit="10" stroke-linecap="round"/>
<path d="M431.077 295.135C431 295.144 431.327 295.829 430.914 296.282C430.914 296.282 430.135 296.07 429.856 295.607C429.856 295.607 430.039 295.087 431.067 295.144L431.077 295.135Z" fill="#101010"/>
<path d="M430.634 288.153C430.634 288.153 429.625 287.41 427.644 289.194C425.663 290.978 424.683 293.37 428.596 293.775C428.596 293.775 428.913 291.952 430.058 291.316C430.058 291.316 430.529 292.56 431.836 293.331C433.144 294.102 435.961 295.925 435.961 295.925C435.961 295.925 436.836 294.884 437.634 295.491C438.432 296.099 437.865 297.439 436.356 298.201C436.356 298.201 436.125 299.965 437.394 300.843C437.394 300.843 439.606 298.924 440.952 295.964C442.298 293.003 442.096 290.583 441.288 289.599C440.481 288.625 435.654 284.951 430.615 288.153H430.634Z" fill="#261611" stroke="black" stroke-width="1.0079" stroke-miterlimit="10" stroke-linecap="round"/>
<path d="M430.635 288.153C430.635 288.153 429.731 289.465 430.067 291.316" stroke="black" stroke-width="1.0079" stroke-miterlimit="10" stroke-linecap="round"/>
<path d="M390.798 321.18C390.798 321.18 391.567 314.796 395.144 312.087L416.606 315.587C416.606 315.587 427.01 305.694 433.452 305.086H442.615C442.615 305.086 444.779 303.688 449.49 306.667C452.365 308.48 458.231 312.415 462.365 315.201C465.048 317.014 466.144 320.437 465.009 323.475L462.404 330.456L467.634 340.957C467.634 340.957 434.663 340.697 423.586 333.696L427.596 326.831L409.798 325.124C409.798 325.124 406.394 325.596 405.173 327.506L390.798 321.19V321.18Z" fill="#F8D9B2" stroke="black" stroke-width="1.0079" stroke-miterlimit="10" stroke-linecap="round"/>
<path d="M416.606 315.577C416.606 315.577 417.827 317.506 417.221 319.772" stroke="black" stroke-width="1.0079" stroke-miterlimit="10" stroke-linecap="round"/>
<path d="M429.99 300.217C429.99 300.217 430.5 300.506 431.135 299.889" stroke="black" stroke-width="0.755922" stroke-miterlimit="10" stroke-linecap="round"/>
<path d="M427.596 326.821C427.596 326.821 433.933 323.378 436.846 321.854" stroke="black" stroke-width="1.0079" stroke-miterlimit="10" stroke-linecap="round"/>
<path d="M452.23 313.562L462.403 330.446" stroke="black" stroke-width="1.0079" stroke-miterlimit="10" stroke-linecap="round"/>
<path d="M420.164 340.948C420.164 340.948 441.635 344.178 451.769 343.291" stroke="black" stroke-width="1.0079" stroke-miterlimit="10" stroke-linecap="round"/>
<path d="M380.865 311.981C380.865 311.981 384.154 311.855 385.5 311.981" stroke="black" stroke-width="1.0079" stroke-linecap="round" stroke-linejoin="round"/>
<path d="M352.221 265.193C352.221 265.193 354.298 264.721 355.183 266.639C355.183 266.639 353.125 268.047 352.221 265.193Z" fill="#FEECDA" stroke="#101010" stroke-width="0.755922" stroke-miterlimit="10" stroke-linecap="round"/>
<path d="M354.087 265.627C354.145 265.675 353.529 266.109 353.664 266.697C353.664 266.697 354.443 266.9 354.914 266.63C354.914 266.63 355.01 266.08 354.087 265.627Z" fill="#101010"/>
<path d="M343.741 265.627C343.741 265.627 346.606 267.324 346.866 264.769C347.125 262.213 348.894 262.155 348.894 262.155C348.894 262.155 350.356 262.782 349.933 264.171C349.933 264.171 352.952 264.402 353.26 261.538C353.26 261.538 356.067 262.425 356.539 264.614C356.539 264.614 358.519 263.939 357.894 260.911C357.269 257.884 354.308 254.181 349.981 256.784C349.981 256.784 347.116 255.01 345.144 257.565C343.173 260.121 343.741 265.627 343.741 265.627Z" fill="#F8D9B2" stroke="black" stroke-width="1.0079" stroke-miterlimit="10" stroke-linecap="round"/>
<path d="M351.673 268.751C351.673 268.751 351.76 269.851 352.221 270.265" stroke="black" stroke-width="0.755922" stroke-miterlimit="10" stroke-linecap="round"/>
<path d="M349.981 256.775C349.981 256.775 350.404 253.168 348.981 251.211C347.558 249.244 345.981 249.639 345.981 249.639C345.981 249.639 344.933 246.428 342.462 245.975C339.981 245.512 338.221 246.631 337.962 248C337.962 248 335.433 245.252 333.366 246.303C331.308 247.354 330.52 248.916 330.654 250.227C330.654 250.227 328.568 248.492 325.827 251.327C323.087 254.162 323.741 258.742 324.981 260.111C326.222 261.49 327.789 262.271 329.154 262.011C330.529 261.751 333.135 259.205 331.827 255.897C331.827 255.897 333.395 258.347 336.327 257.363C339.26 256.38 338.414 253.506 338.414 253.506C338.414 253.506 339.846 255.801 341.933 255.145C344.019 254.49 344.808 253.246 344.808 253.246C344.808 253.246 345.039 256.399 349.981 256.794V256.775Z" fill="#F8D9B2" stroke="black" stroke-width="0.755922" stroke-linecap="round" stroke-linejoin="round"/>
<path d="M336.972 273.525C337.933 271.808 338.991 270.198 340.145 268.809C340.145 268.809 332.693 267.999 326.635 267.826C320.587 267.652 312.51 273.891 312.51 273.891L315.058 266.987L304.097 264.219C300.154 274.778 297.953 282.782 300.972 284.363C303.991 285.945 315.058 284.45 315.058 284.45L309.616 291.219C316.02 297.468 328.299 299.31 328.299 299.31L330.145 291.566C330.145 291.566 332.52 281.461 336.972 273.525Z" fill="white" stroke="black" stroke-width="1.0079" stroke-miterlimit="10" stroke-linecap="round"/>
<path d="M336.972 273.525C332.52 281.461 330.145 291.567 330.145 291.567L337.25 294.826C337.25 294.826 339.952 285.607 343.847 278.298C337.866 279.475 336.972 273.554 336.972 273.535V273.525Z" fill="#F4C7BB" stroke="black" stroke-width="1.0079" stroke-miterlimit="10" stroke-linecap="round"/>
<path d="M366.02 296.224C364.173 296.668 360.847 296.841 360.847 296.841C359.798 295.877 355.145 286.379 353.645 281.268C352.145 276.167 348.058 272.059 348.058 272.059C346.558 273.66 345.145 275.868 343.856 278.279C339.952 285.588 337.26 294.807 337.26 294.807L334.626 301.759C337.174 303.784 344.183 305.452 344.183 305.452L347.52 298.77C355.5 311.874 367.164 307.921 367.164 307.921L366.02 296.224Z" fill="white" stroke="black" stroke-width="1.0079" stroke-miterlimit="10" stroke-linecap="round"/>
<path d="M324.885 314.633L331.568 303.418" stroke="black" stroke-width="1.0079" stroke-miterlimit="10" stroke-linecap="round"/>
<path d="M347.51 298.779L350.039 291.962" stroke="black" stroke-width="1.0079" stroke-miterlimit="10" stroke-linecap="round"/>
<path d="M349.51 270.4L348.616 268.462" stroke="black" stroke-width="1.0079" stroke-miterlimit="10" stroke-linecap="round"/>
<path d="M315.058 266.977L318.943 256.447C318.943 256.447 320.212 255.898 320.491 255.174C320.77 254.451 321.876 246.313 321.876 246.313C321.876 246.313 321.597 245.763 320.991 246.756C320.385 247.749 320.27 248.415 320.27 248.415C320.27 248.415 320.376 242.677 320.164 242.465C319.952 242.253 319.443 241.944 319.222 242.465C319.222 242.465 319.087 240.546 318.462 240.652C317.837 240.758 317.943 242.465 317.943 242.465C317.943 242.465 317.616 240.758 317.116 240.652C316.616 240.546 316.395 243.15 316.674 245.859C316.674 245.859 315.731 243.314 314.799 243.641C314.799 243.641 314.356 243.969 314.799 244.914C315.241 245.859 316.068 250.729 315.404 252.889L306.481 264.798L315.049 266.968L315.058 266.977Z" fill="#CC8A7F" stroke="black" stroke-width="0.755922" stroke-linecap="round" stroke-linejoin="round"/>
<path d="M316.683 245.869V247.316C316.683 247.316 319.116 249.312 318.51 252.465" stroke="black" stroke-width="0.755922" stroke-linecap="round" stroke-linejoin="round"/>
<path d="M317.953 242.475V246.93" stroke="black" stroke-width="0.755922" stroke-linecap="round" stroke-linejoin="round"/>
<path d="M319.221 242.475V247.257" stroke="black" stroke-width="0.755922" stroke-linecap="round" stroke-linejoin="round"/>
<path d="M366.019 296.224C366.019 296.224 374.019 293.957 377.558 294.449C381.096 294.951 384.019 296.773 384.24 297.882C384.24 297.882 384.846 298.49 384.24 299.049C384.24 299.049 384.74 299.647 384.183 300.206C383.625 300.765 382.856 299.271 381.365 299.049C379.875 298.827 375.904 299.656 375.904 299.656C375.904 299.656 373.192 299.994 372.087 299.3L366.74 303.658L366.019 296.224Z" fill="#CC8A7F" stroke="black" stroke-width="0.755922" stroke-linecap="round" stroke-linejoin="round"/>
<path d="M378.49 297.333C378.49 297.333 381.192 297.169 384.231 299.049" stroke="black" stroke-width="0.755922" stroke-linecap="round" stroke-linejoin="round"/>
<path d="M378.221 295.732C378.221 295.732 381.702 295.732 384.241 297.892" stroke="black" stroke-width="0.755922" stroke-linecap="round" stroke-linejoin="round"/>
<mask id="mask4_136_414" style="mask-type:luminance" maskUnits="userSpaceOnUse" x="238" y="40" width="194" height="54">
<path d="M331.046 93.2796C330.027 93.2796 329.017 93.2796 327.998 93.2603C265.45 92.2961 249.374 77.745 241.316 62.1621C237.268 54.3418 238.383 47.505 241.018 42.2207C241.027 43.185 241.124 44.1686 241.306 45.1714C242.701 52.8182 249.037 59.2982 260.133 64.4282C273.595 70.6575 291.681 73.8107 313.873 73.8107C330.758 73.8107 345.71 72.0171 355.479 70.6768C362.863 69.6643 382.142 64.9778 400.084 58.1411C415.555 52.2493 425.902 46.3671 431.036 40.5718C432.142 48.18 432.546 60.5132 426.623 71.6603C420.777 74.5243 380.565 93.2796 331.046 93.2796Z" fill="white"/>
</mask>
<g mask="url(#mask4_136_414)">
<path d="M423.171 37.814C423.171 37.814 426.45 60.6193 423.171 82.8365" stroke="#E5DCD1" stroke-width="2.01579" stroke-linejoin="round"/>
<path d="M412.084 43.4453C412.084 43.4453 415.354 75.9899 412.084 87.3685" stroke="#E5DCD1" stroke-width="2.01579" stroke-linejoin="round"/>
<path d="M399.488 49.2505C399.488 49.2505 402.758 72.4801 402.508 89.6541" stroke="#E5DCD1" stroke-width="2.01579" stroke-linejoin="round"/>
<path d="M387.911 54.8042L392.44 90.9071" stroke="#E5DCD1" stroke-width="2.01579" stroke-linejoin="round"/>
<path d="M376.421 58.2183L382.325 93.8583" stroke="#E5DCD1" stroke-width="2.01579" stroke-linejoin="round"/>
<path d="M362.479 60.3203L370.787 96.7607" stroke="#E5DCD1" stroke-width="2.01579" stroke-linejoin="round"/>
<path d="M346.2 63.4058L356.335 97.58" stroke="#E5DCD1" stroke-width="2.01579" stroke-linejoin="round"/>
<path d="M331.008 65.4023L343.71 99.3548" stroke="#E5DCD1" stroke-width="2.01579" stroke-linejoin="round"/>
<path d="M313.883 65.4023L329.681 99.7309" stroke="#E5DCD1" stroke-width="2.01579" stroke-linejoin="round"/>
<path d="M296.258 65.4023L315.393 100.097" stroke="#E5DCD1" stroke-width="2.01579" stroke-linejoin="round"/>
<path d="M282.412 63.4058L298.268 99.3543" stroke="#E5DCD1" stroke-width="2.01579" stroke-linejoin="round"/>
<path d="M267.806 58.2183C267.806 58.2183 277.546 87.1372 285.681 100.107" stroke="#E5DCD1" stroke-width="2.01579" stroke-linejoin="round"/>
<path d="M259.883 54.8042C259.883 54.8042 255.653 70.2521 273.845 98.3996" stroke="#E5DCD1" stroke-width="2.01579" stroke-linejoin="round"/>
<path d="M250.431 49.2505C250.431 49.2505 247.768 68.1698 256.903 90.9076" stroke="#E5DCD1" stroke-width="2.01579" stroke-linejoin="round"/>
<path d="M247.287 37.814C247.287 37.814 237.403 46.8879 242.278 76.6072" stroke="#E5DCD1" stroke-width="2.01579" stroke-linejoin="round"/>
</g>
<path d="M215.249 106.51L217.133 102.122L217.566 99.3644C217.566 99.3644 216.105 98.2169 216.403 96.8959C216.701 95.5748 218.508 95.4109 218.758 96.5294C218.758 96.5294 220.22 94.8902 223.133 95.3241C226.047 95.758 228.364 97.4744 227.855 99.6248C227.855 99.6248 229.143 99.3837 229.316 100.878C229.489 102.373 228.97 102.72 226.999 102.72C226.999 102.72 226.826 105.478 224.335 106.51L223.653 110.473C223.653 110.473 218.499 111.592 215.239 106.51H215.249Z" fill="#A88460" stroke="black" stroke-width="1.0079" stroke-linecap="round" stroke-linejoin="round"/>
<path d="M222.537 96.7607C222.537 96.7607 223.326 95.6325 224.278 96.0375C225.23 96.4425 224.855 97.5803 224.855 97.5803" stroke="black" stroke-width="1.0079" stroke-linecap="round" stroke-linejoin="round"/>
<path d="M221.681 99.355C221.681 99.355 221.816 100.242 222.979 100.078" stroke="black" stroke-width="1.0079" stroke-linecap="round" stroke-linejoin="round"/>
<path d="M216.499 98.3999C216.499 98.3999 215.883 99.152 216.229 99.9428C216.576 100.733 213.912 102.026 216.124 103.568L216.499 103.771L217.143 102.132L217.576 99.3738L216.499 98.4095V98.3999Z" fill="#726B66" stroke="black" stroke-width="1.0079" stroke-linecap="round" stroke-linejoin="round"/>
<path d="M228.22 102.652C228.22 102.652 228.778 103.395 228.056 103.944C227.335 104.494 227.374 104.832 227.479 105.208C227.585 105.584 227.239 107.975 225.162 106.374C225.162 106.374 226.951 104.494 227.008 102.729L228.22 102.652Z" fill="#726B66" stroke="black" stroke-width="1.0079" stroke-linecap="round" stroke-linejoin="round"/>
<path d="M193.98 111.707C193.98 111.707 189.586 108.641 189.903 104.784C190.22 100.926 202.066 88.4197 206.768 85.4304C206.768 85.4304 208.182 80.5511 211.316 78.1115C214.451 75.6718 213.201 77.2436 213.201 77.2436C213.201 77.2436 216.73 75.6718 217.201 76.0672C217.672 76.4626 218.614 77.4076 216.73 78.7383C214.845 80.0786 214.691 80.7054 214.691 80.7054C214.691 80.7054 216.634 78.8154 217.855 79.529C219.076 80.2426 216.432 80.7922 215.249 82.4411C214.066 84.0901 213.355 87.0793 209.672 88.6608C209.672 88.6608 200.999 97.349 200.509 102.132C200.509 102.132 201.826 108.805 193.98 111.707Z" fill="#A88460" stroke="black" stroke-width="1.0079" stroke-linecap="round" stroke-linejoin="round"/>
<path d="M234.701 106.924L236.422 105.227C236.422 105.227 244.268 98.5734 249.681 88.9787C249.681 88.9787 250.076 85.9894 251.566 83.5498C253.056 81.1101 253.326 79.683 253.931 79.6155C254.537 79.548 253.931 82.5951 253.931 82.5951C253.931 82.5951 256.768 77.9666 256.499 76.1344C256.499 76.1344 257.076 75.4209 257.479 75.9319C257.883 76.443 257.883 77.0794 257.883 77.0794C257.883 77.0794 258.422 76.7034 258.662 76.8769C258.902 77.0505 259.133 77.793 259.133 77.793C259.133 77.793 259.576 77.4555 259.845 77.8316C260.114 78.2076 259.306 82.5951 259.306 82.5951C259.306 82.5951 259.508 83.8776 258.662 85.3337C257.816 86.7898 256.806 88.8823 254.681 90.7144C254.681 90.7144 253.364 92.8744 252.729 94.2341C252.085 95.5841 243.691 109.923 238.133 113.404L234.72 106.934L234.701 106.924Z" fill="#A88460" stroke="black" stroke-width="1.0079" stroke-linecap="round" stroke-linejoin="round"/>
<path d="M200.508 102.132C200.508 102.132 212.768 104.128 218.576 107.686C224.383 111.235 226.797 110.589 226.797 110.589L236.422 105.227C236.422 105.227 240.277 113.694 240.364 116.972C240.364 116.972 233.191 118.428 226.797 127.165C220.393 135.901 220.489 139.633 214.855 143.191C214.855 143.191 192.883 138.563 186.71 128.862C186.71 128.862 197.605 116.885 201.239 113.877C201.239 113.877 194.518 114.06 190.893 112.421C190.893 112.421 195.98 108.882 200.518 102.141L200.508 102.132Z" fill="#CFCDCD" stroke="black" stroke-width="1.0079" stroke-linecap="round" stroke-linejoin="round"/>
<path d="M157.932 133.413C156.903 130.694 155.826 128.235 154.999 127.184C152.72 124.301 161.047 121.234 161.047 121.234C161.047 121.234 163.047 124.224 165.182 127.859C162.951 129.489 159.73 131.996 157.932 133.404V133.413Z" fill="#FDF7E7" stroke="#101010" stroke-width="1.0079" stroke-miterlimit="10" stroke-linecap="round"/>
<path d="M170.182 138.794C170.961 143.886 161.432 143.732 161.432 143.732C161.432 143.732 159.74 138.177 157.922 133.404C159.72 131.996 162.941 129.489 165.172 127.859C167.403 131.668 169.778 136.191 170.172 138.785L170.182 138.794Z" fill="#F0BD83" stroke="#101010" stroke-width="1.0079" stroke-miterlimit="10"/>
<path d="M152.97 127.193C152.97 127.193 156.788 123.857 162.797 124.58C162.797 124.58 164.143 124.137 163.98 123.23C163.816 122.324 163.047 121.234 163.124 119.981C163.201 118.727 163.663 115.333 162.413 112.932L139.067 119.142C139.067 119.142 139.442 124.166 142.105 124.204C144.768 124.243 150.403 123.635 152.97 127.184V127.193Z" fill="#EE8E75" stroke="#101010" stroke-width="1.0079" stroke-miterlimit="10" stroke-linecap="round"/>
<path d="M139.365 120.906L163.009 114.619" stroke="#101010" stroke-width="1.0079" stroke-miterlimit="10" stroke-linecap="round"/>
<path d="M144.384 124.194C144.384 124.194 148.662 121.436 150.826 121.273C152.989 121.109 152.807 117.329 152.807 117.329" stroke="#101010" stroke-width="1.0079" stroke-miterlimit="10" stroke-linecap="round"/>
<path d="M156.057 116.47C156.057 116.47 157.278 120.318 163.114 119.99" stroke="#101010" stroke-width="1.0079" stroke-miterlimit="10" stroke-linecap="round"/>
<path d="M151.663 125.882L152.788 123.828" stroke="#101010" stroke-width="1.0079" stroke-miterlimit="10" stroke-linecap="round"/>
<path d="M149.634 124.667L150.461 123.356" stroke="#101010" stroke-width="1.0079" stroke-miterlimit="10" stroke-linecap="round"/>
<path d="M129.182 141.639C126.403 140.819 123.797 140.192 122.461 140.221C118.788 140.298 121.394 131.793 121.394 131.793C121.394 131.793 124.97 131.996 129.153 132.497C129.105 135.265 129.153 139.353 129.172 141.639H129.182Z" fill="#FDF7E7" stroke="#101010" stroke-width="1.0079" stroke-miterlimit="10" stroke-linecap="round"/>
<path d="M140.864 135.101C145.384 137.55 139.509 145.072 139.509 145.072C139.509 145.072 134.076 143.066 129.191 141.639C129.162 139.354 129.114 135.255 129.172 132.498C133.537 133.018 138.566 133.848 140.874 135.101H140.864Z" fill="#F0BD83" stroke="#101010" stroke-width="1.0079" stroke-miterlimit="10"/>
<path d="M120.932 141.735C120.932 141.735 120.855 136.663 125.297 132.526C125.297 132.526 125.836 131.205 125.038 130.752C124.24 130.299 122.913 130.183 122.009 129.315C121.105 128.447 118.817 125.892 116.182 125.304L105.826 147.193C105.826 147.193 109.894 150.153 111.644 148.138C113.394 146.123 116.567 141.427 120.932 141.745V141.735Z" fill="#EE8E75" stroke="#101010" stroke-width="1.0079" stroke-miterlimit="10" stroke-linecap="round"/>
<path d="M107.365 148.09L117.846 125.931" stroke="#101010" stroke-width="1.0079" stroke-miterlimit="10" stroke-linecap="round"/>
<path d="M113.105 146.374C113.105 146.374 113.778 141.321 115.047 139.556C116.317 137.791 113.326 135.487 113.326 135.487" stroke="#101010" stroke-width="1.0079" stroke-miterlimit="10" stroke-linecap="round"/>
<path d="M114.769 132.439C114.769 132.439 118.48 133.992 122.009 129.305" stroke="#101010" stroke-width="1.0079" stroke-miterlimit="10" stroke-linecap="round"/>
<path d="M119.095 141.899L118.259 139.701" stroke="#101010" stroke-width="1.0079" stroke-miterlimit="10" stroke-linecap="round"/>
<path d="M116.855 142.66L116.394 141.185" stroke="#101010" stroke-width="1.0079" stroke-miterlimit="10" stroke-linecap="round"/>
<path d="M253.97 84.3208C253.97 84.3208 254.826 85.449 253.97 87.3583" stroke="black" stroke-width="1.0079" stroke-linecap="round" stroke-linejoin="round"/>
<path d="M150.153 128.852L156.797 139.093L173.172 136.711L166.759 125.767L150.153 128.852Z" fill="#EADBBD" stroke="black" stroke-width="1.0079" stroke-linecap="round" stroke-linejoin="round"/>
<path d="M186.711 128.852C186.711 128.852 153.711 138.38 128.211 130.646L124.057 144.445C124.057 144.445 150.98 150.038 162.845 149.324C162.845 149.324 173.163 163.326 175.893 166.141C178.624 168.957 185.172 169.574 192.624 162.622C200.076 155.669 211.576 142.372 211.576 142.372L186.701 128.843L186.711 128.852Z" fill="#EADBBD" stroke="black" stroke-width="1.0079" stroke-linecap="round" stroke-linejoin="round"/>
<path d="M162.845 149.324C162.845 149.324 191.73 150.019 201.96 142.594" stroke="black" stroke-width="1.0079" stroke-linecap="round" stroke-linejoin="round"/>
</svg>
