<svg fill="none" height="381" viewBox="0 0 708 381" width="708" xmlns="http://www.w3.org/2000/svg" xmlns:xlink="http://www.w3.org/1999/xlink"><mask id="a" height="142" maskUnits="userSpaceOnUse" width="652" x="4" y="156"><g fill="none" mask="url(#b)"><path d="m263.479 297.602c-51.326 0-86.922-36.132-93.653-45.804-9.692-13.943-44.279-50.114-87.4131-50.114-4.2788 0-8.5769.367-12.7884 1.081-35.7114 6.075-49.2786 23.326-54.144 32.795l-11.423-25.361c12.4422-21.648 59.7593-47.443 99.1915-47.443 11.289 0 20.875 2.16 28.471 6.422 17.616 9.875 32.616 26.046 48.5 43.171 18.962 20.443 38.577 41.571 66.067 57.019 14.24 7.994 28.923 12.053 43.654 12.053 29.221 0 48.365-15.737 49.163-16.412l.077-.067.077-.068c.269-.26 27.653-26.47 67.23-35.148 5.769-1.263 11.894-1.88 18.731-1.88 19.634 0 40.932 5.207 61.528 10.24 18.048 4.407 35.096 8.573 50.452 9.228 1.346.058 2.721.087 4.087.087 39.365 0 78.576-23.519 91.191-54.704 7.116-17.588 4.625-28.668 1.289-34.859-.164-.299-.327-.597-.5-.877 8.452 3.973 15.288 9.662 16.865 11.022 1.029 1.977 5.673 11.677 5.481 24.415-.279 18.987-10.654 35.515-30.836 49.111-21.895 14.754-42.471 21.629-64.75 21.629-21.644 0-42.423-6.296-66.481-13.577l-4.903-1.485c-18.25-5.535-34.019-10.318-51.721-10.318-27.837 0-58.952 11.688-107.384 40.336-21.904 12.96-44.135 19.527-66.058 19.527z" fill="#fff"/></g></mask><mask id="b" fill="none" height="142" maskUnits="userSpaceOnUse" width="652" x="4" y="156"><path d="m263.479 297.602c-51.326 0-86.922-36.132-93.653-45.804-9.692-13.943-44.279-50.114-87.4131-50.114-4.2788 0-8.5769.367-12.7884 1.081-35.7114 6.075-49.2786 23.326-54.144 32.795l-11.423-25.361c12.4422-21.648 59.7593-47.443 99.1915-47.443 11.289 0 20.875 2.16 28.471 6.422 17.616 9.875 32.616 26.046 48.5 43.171 18.962 20.443 38.577 41.571 66.067 57.019 14.24 7.994 28.923 12.053 43.654 12.053 29.221 0 48.365-15.737 49.163-16.412l.077-.067.077-.068c.269-.26 27.653-26.47 67.23-35.148 5.769-1.263 11.894-1.88 18.731-1.88 19.634 0 40.932 5.207 61.528 10.24 18.048 4.407 35.096 8.573 50.452 9.228 1.346.058 2.721.087 4.087.087 39.365 0 78.576-23.519 91.191-54.704 7.116-17.588 4.625-28.668 1.289-34.859-.164-.299-.327-.597-.5-.877 8.452 3.973 15.288 9.662 16.865 11.022 1.029 1.977 5.673 11.677 5.481 24.415-.279 18.987-10.654 35.515-30.836 49.111-21.895 14.754-42.471 21.629-64.75 21.629-21.644 0-42.423-6.296-66.481-13.577l-4.903-1.485c-18.25-5.535-34.019-10.318-51.721-10.318-27.837 0-58.952 11.688-107.384 40.336-21.904 12.96-44.135 19.527-66.058 19.527z" fill="#fff"/></mask><mask id="c" height="81" maskUnits="userSpaceOnUse" width="158" x="294" y="170"><path d="m345.306 250.622c-17.942 0-31.231-4.166-39.211-7.657-6.904-3.018-10.279-7.27-11.808-11.407 2.683 2.333 6.558 4.648 12.096 6.673 3.029 1.109 7.606 1.668 13.596 1.668 27.481 0 78.086-11.957 99.423-37.617 8.048-9.681 11.509-20.501 10.327-32.226 8.903 1.514 18.259 4.214 20.538 6.682 1.038 4.59 6.558 37.116-39.038 57.944-23.164 10.578-45.346 15.949-65.923 15.949z" fill="#fff"/></mask><mask id="d" height="70" maskUnits="userSpaceOnUse" width="272" x="201" y="121"><path d="m314.393 190.219c-55.885 0-86.183-13.577-96.615-19.42-7.952-4.455-14.029-11.225-15.471-17.251-.231-.945-.347-1.852-.347-2.739 3.029 2.835 8.097 5.67 15.279 8.592 11.606 4.706 54.029 11.523 100.404 11.523 34.528 0 82.922-3.828 117.412-22.044 3.279-1.832 26.443-15.033 37.443-27.607-.606 7.656-2.395 18.958-7.385 31.098-2.192 1.639-11.269 8.071-27.567 15.111-17.375 7.502-46.74 17.241-87.99 21.06-12.067 1.118-23.894 1.687-35.154 1.687z" fill="#fff"/></mask><mask id="e" height="54" maskUnits="userSpaceOnUse" width="194" x="238" y="40"><path d="m331.046 93.2796c-1.019 0-2.029 0-3.048-.0193-62.548-.9642-78.624-15.5153-86.682-31.0982-4.048-7.8203-2.933-14.6571-.298-19.9414.009.9643.106 1.9479.288 2.9507 1.395 7.6468 7.731 14.1268 18.827 19.2568 13.462 6.2293 31.548 9.3825 53.74 9.3825 16.885 0 31.837-1.7936 41.606-3.1339 7.384-1.0125 26.663-5.699 44.605-12.5357 15.471-5.8918 25.818-11.774 30.952-17.5693 1.106 7.6082 1.51 19.9414-4.413 31.0885-5.846 2.864-46.058 21.6193-95.577 21.6193z" fill="#fff"/></mask><path d="m254.508 61.9402s-5.375-34.7143 62.077-35.0132c0 0 6.269-14.9657 22.683-24.84 0 0-57.894-10.17321-94.904 31.725 0 0-11.634 17.6561 10.144 28.1378z" fill="#e5dcd1" stroke="#000" stroke-linecap="round" stroke-linejoin="round" stroke-width="1.0079"/><path d="m432.075 32.3945s-1.539-8.8811-34.654 9.2668c-33.115 18.1478-36.586 33.5957-36.586 33.5957h38.317s33.692-11.0025 32.923-42.8721z" fill="#e5dcd1" stroke="#000" stroke-linecap="round" stroke-linejoin="round" stroke-width="1.0079"/><path d="m286.893 90.9077s-68.74 14.7443-86.836 55.5523c0 0-1.346 10.684 11.75 20.337 0 0-7.702-35.148 63.345-49.622l11.75-26.2576z" fill="#e5dcd1" stroke="#000" stroke-linecap="round" stroke-linejoin="round" stroke-width="1.0079"/><path d="m300.431 233.544s7-28.919 114.509-90.054c0 0 51.212-28.042 45.692-7.782 0 0 15.154-14.561 15-23.268-.154-8.708-20.202-7.753-62.355 13.297-42.154 21.06-156.221 91.491-112.846 107.807z" fill="#e5dcd1" stroke="#000" stroke-linecap="round" stroke-linejoin="round" stroke-width="1.0079"/><path d="m426.517 166.796s-6.577-4.811-17.192 13.568c-10.616 18.379 6.894 36.71 6.894 36.71s25.231-26.72 10.298-50.278z" fill="#e5dcd1" stroke="#000" stroke-linecap="round" stroke-linejoin="round" stroke-width="1.0079"/><path d="m445.306 199.265s-3.606 20.134 36.297 14.715c39.904-5.42 29.346-34.078 88.558-57.578 59.211-23.49 69.249 9.826 69.249 9.826l-1.548 6.181s-14.673-23.239-43.509-12.131c-28.837 11.099-47.365 36.605-58.702 49.796-11.327 13.201-25.855 24.811-60.038 26.884-34.182 2.074-52.461-14.975-52.461-14.975l22.144-22.718z" fill="#e5dcd1" stroke="#000" stroke-linecap="round" stroke-linejoin="round" stroke-width="1.0079"/><path d="m26.0863 223.178s5.4134 8.66 19.1826 4.851c0 0-1.3173 8.813-13.3269 15.418-12.0095 6.606-16.3076-.906-16.3076-.906s-6.52881-12.304 10.4519-19.353z" fill="#e5dcd1" stroke="#000" stroke-linecap="round" stroke-linejoin="round" stroke-width="1.0079"/><path d="m520.815 146.932s-.664 2.497-1.135 4.117-1.606 5.94.769 6.336c2.375.395 3.673.472 3.673.472l1.635 5.699s5.779 2.912 7.211-3.519l-2.769-4.552 3.51-6.403-2.606-6.133s-10.923-3.481-10.288 3.983z" fill="#f0bd83" stroke="#101010" stroke-miterlimit="10" stroke-width="1.0079"/><path d="m526.305 150.191s-1.577-1.436-3.288-.202c0 0 1.096 2.237 3.288.202z" fill="#feecda" stroke="#101010" stroke-linecap="round" stroke-miterlimit="10" stroke-width=".755922"/><path d="m524.468 149.642c-.077.009.25.694-.154 1.147 0 0-.778-.212-1.057-.675 0 0 .182-.52 1.211-.472z" fill="#101010"/><path d="m521.574 144.55-.769 2.382s-1.769-.501-1.702-2.382c.067-1.88 1.404-4.618 3.269-3.722 1.875.907 2.635 1.244 3.606.569.971-.665 7.212-2.14 7.452.608 0 0 3.106.733 2.577 5.091-.529 4.359-5.808 8.38-5.808 8.38l-.932-2.208s2.134-.714 1.769-2.218c0 0-.433-1.032-1.606-.56-1.173.473-2.038-1.378-1.433-2.468.606-1.09-.134-2.488-.134-2.488s-4.039.935-4.606-.337c-.567-1.273-1.673-.637-1.673-.637z" fill="#4c3211" stroke="#101010" stroke-linecap="round" stroke-miterlimit="10" stroke-width="1.0079"/><path d="m521.382 150.269s-1.106.684-1.068 1.292c.039.607 1.068.935 1.068.935" stroke="#101010" stroke-linecap="round" stroke-miterlimit="10" stroke-width="1.0079"/><path d="m523.247 155.003s.933.299 1.568-.8" stroke="#101010" stroke-linecap="round" stroke-miterlimit="10" stroke-width="1.0079"/><path d="m524.113 157.847h1.644" stroke="#101010" stroke-linecap="round" stroke-miterlimit="10" stroke-width="1.0079"/><path d="m491.488 164.203-17.692-4.783s-1.731-3.414-3.924-3.954c-2.192-.54-4.653-1.273-4.653-1.273s-1.366.916 0 1.833c1.365.916-.087 1.648-3.097 1.002l-5.365 3.935s8.096 2.391 13.115 2.343c0 0 14.222 7.897 22.433 10.916z" fill="#f0bd83" stroke="#101010" stroke-miterlimit="10" stroke-width="1.0079"/><path d="m567.353 141.214s14.269-9.132 15.615-11.928c1.346-2.797 2.731-4.089 2.952-2.71s0 2.112 0 2.112l2.385-4.108s1.317-1.552 2.49 0c1.173 1.553.164 6.143-1.298 7.792-1.461 1.648-3.683 3.268-6.336 4.358l-15.337 16.432-.452-11.958z" fill="#f0bd83" stroke="#101010" stroke-linecap="round" stroke-linejoin="round" stroke-width="1.0079"/><path d="m526.892 166.758s4.173 1.938 7.913-2.411c0 0 1.74-2.005.798-4.927" stroke="#101010" stroke-linecap="round" stroke-miterlimit="10" stroke-width="1.0079"/><path d="m559.747 178.493s12.327 7.416 18.346 19.778c6.029 12.362 12.183 17.164 12.183 17.164l20.125 7.55s-10.731 15.718-30.76 21.591c0 0-13.327-6.654-23.461-19.064-10.135-12.411-18.346-31.908-18.346-31.908l21.904-15.101z" fill="#e0c091" stroke="#000" stroke-linecap="round" stroke-linejoin="round" stroke-width="1.0079"/><path d="m488.565 160.634s24.98 2.045 39.634-1.803c14.654-3.857 40.231-20.597 40.231-20.597s3.903 12.97 2.25 19.613c0 0-11.337 5.227-17.481 6.355 0 0 3.817 7.637 9.221 14.378 0 0-11.625 14.695-26.346 20.356 0 0-12.981-15.294-14.692-22.526 0 0-23.327 6.866-35.817 5.178z" fill="#f2a998" stroke="#101010" stroke-linecap="round" stroke-miterlimit="10" stroke-width="1.0079"/><path d="m552.487 195.937s15.75 23.046 21.635 29.575c5.884 6.538 17.808 7.907 17.808 7.907" stroke="#000" stroke-linecap="round" stroke-linejoin="round" stroke-width="1.0079"/><path d="m587.987 127.974s1.395-2.517 1.625-3.789z" fill="#f0bd83"/><path d="m587.987 127.974s1.395-2.517 1.625-3.789" stroke="#101010" stroke-linecap="round" stroke-linejoin="round" stroke-width=".755922"/><path d="m588.901 128.544s1.759-2.681 1.807-3.752z" fill="#f0bd83"/><path d="m588.901 128.544s1.759-2.681 1.807-3.752" stroke="#101010" stroke-linecap="round" stroke-linejoin="round" stroke-width=".755922"/><path d="m589.805 129.46 1.49-2.671" stroke="#101010" stroke-linecap="round" stroke-linejoin="round" stroke-width=".755922"/><path d="m420.882 128.592-38.557-26.46-36.125-91.7424z" fill="#34dbcc" stroke="#000" stroke-linecap="round" stroke-linejoin="round" stroke-width="1.0079"/><path d="m266.528 116.432 115.797-14.3-36.125-91.7424z" fill="#a6f6ea" stroke="#000" stroke-linecap="round" stroke-linejoin="round" stroke-width="1.0079"/><path d="m266.527 116.432 115.798-14.3 38.557 26.46-112.759 13.934z" fill="#84e0d1" stroke="#000" stroke-linecap="round" stroke-linejoin="round" stroke-width="1.0079"/><path d="m269.258 129.18 111.461-12.912-40.75 126.331z" fill="#7bf0e4" stroke="#000" stroke-linecap="round" stroke-linejoin="round" stroke-width="1.0079"/><path d="m418.44 141.176-37.721-24.908-40.75 126.331z" fill="#34dbcc" stroke="#000" stroke-linecap="round" stroke-linejoin="round" stroke-width="1.0079"/><path d="m623.035 150.683s19.923 8.824 6.914 40.963c-13 32.14-54.038 54.55-92.634 52.92-38.596-1.629-90.548-26.489-131.413-17.521-40.856 8.968-68.538 35.852-68.538 35.852s-38.952 32.593-89.74 4.079c-50.788-28.523-75.981-78.541-114.577-100.189-38.5955-21.648-116.2009 12.864-132.047 43.277l14.6249 32.458s6.5-28.929 54.4421-37.077c47.942-8.148 87.759 33.876 97.509 47.906s75.163 79.226 163.326 27.067c88.163-52.158 112.548-43.19 159.673-28.928 47.134 14.262 84.913 26.489 135.701-7.743 50.788-34.223 26-77.529 26-77.529s-14.231-12.883-29.26-15.544z" fill="#fff" stroke="#000" stroke-linecap="round" stroke-linejoin="round" stroke-width="1.0079"/><g mask="url(#a)" stroke="#e5dcd1" stroke-linejoin="round" stroke-width="2.01579"><path d="m3.60547 197.355 16.71143 38.225"/><path d="m9.34589 190.605 16.71141 38.224"/><path d="m16.0958 185.746 16.7115 38.224"/><path d="m23.3456 180.045 16.7115 38.225"/><path d="m32.8073 173.219 15.6153 40.153"/><path d="m43.2112 168.127 13.4903 42.795"/><path d="m56.7013 160.954 8.2596 47.211"/><path d="m71.8071 157.308 4.1346 50.857"/><path d="m87.2396 152.004v56.16"/><path d="m104.067 150.683-5.5196 59.159"/><path d="m122.009 154.473-12.164 57.838"/><path d="m139.057 160.143-18.327 56.758"/><path d="m153.605 170.297-21.827 53.219"/><path d="m166.432 180.045-24.558 50.085"/><path d="m177.076 190.605-26.5 47.809"/><path d="m184.432 200.064-26.5 47.819"/><path d="m191.681 207.847-26.499 47.809"/><path d="m200.018 218.27-28.692 46.054"/><path d="m210.104 227.875-30.374 44.251"/><path d="m220.143 234.711-30.375 44.252"/><path d="m228.729 242.204-30.384 44.242"/><path d="m236.422 250.275-30.375 44.241"/><path d="m246.527 253.949-30.105 46.739"/><path d="m257.797 256.022-27.914 50.133"/><path d="m267.239 263.196-24.087 47.144"/><path d="m276.085 263.196-16.211 48.648"/><path d="m287.767 262.714-10.605 49.13"/><path d="m296.508 261.461-1.962 48.426"/><path d="m305.258 258.606 8.221 48.658"/><path d="m314.258 254.98 14.98 44.84"/><path d="m321.931 250.912 18.74 42.033"/><path d="m329.239 249.099 23.471 36.218"/><path d="m335.44 244.576 27.77 34.695"/><path d="m341.306 238.472 35.788 34.888"/><path d="m351.008 227.875 34.672 41.753"/><path d="m363.383 224.115 34.663 41.753"/><path d="m377.921 221.327 29.673 38.523"/><path d="m392.758 216.805 25.682 39.217"/><path d="m408.873 214.808 20.413 39.14"/><path d="m425.719 213.979 14.605 39.382"/><path d="m438.517 213.728 14.605 39.381"/><path d="m453.122 214.683 11.52 39.266"/><path d="m468.776 215.715 6.856 39.266"/><path d="m480.834 218.839 6.856 39.256"/><path d="m492.315 221.154 6.846 39.256"/><path d="m502.94 224.943 6.846 39.256"/><path d="m511.766 228.665 9.827 39.256"/><path d="m519.728 229.465 12.913 40.057"/><path d="m529.516 232.561 14.664 40.066"/><path d="m539.526 233.419 15.711 37.858"/><path d="m551.141 233.419 15.702 37.858"/><path d="m562.747 233.419 16.971 37.858"/><path d="m574.353 233.419 17.586 35.399"/><path d="m583.141 228.665 20.183 35.225"/><path d="m593.237 224.943 22.702 34.319"/><path d="m602.16 221.154 26.087 32.66"/><path d="m610.478 214.673 30.105 29.903"/><path d="m617.381 206.208 34.846 25.553"/><path d="m623.448 197.538 38.827 21.407"/><path d="m627.093 186.835 41.644 16.537"/><path d="m628.247 176.902 42.548 14.706"/><path d="m628.247 168.098 42.548 14.705"/><path d="m627.093 159.844 42.538 14.706"/></g><path d="m291.547 217.827s-4.049 10.607 15.769 17.84c19.827 7.232 129.749-10.974 119.191-68.87 0 0 22.395 3.038 26.26 8.717 0 0 10.558 38.379-40.423 61.657-50.971 23.287-87.269 17.087-107.355 8.312-20.077-8.775-13.452-27.646-13.452-27.646z" fill="#fff" stroke="#000" stroke-linecap="round" stroke-linejoin="round" stroke-width="1.0079"/><path d="m201.48 143.51s-3.424 5.149 16.769 13.345c20.202 8.197 148.066 25.226 215.527-10.404 0 0 38.904-21.783 41.625-35.389 0 0 1.596 19.98-8.067 43.026 0 0-36.702 29.681-117.538 37.164-80.836 7.482-122.288-11.88-133.355-18.071-11.067-6.201-22.067-19.006-14.961-29.671z" fill="#fff" stroke="#000" stroke-linecap="round" stroke-linejoin="round" stroke-width="1.0079"/><path d="m249.566 28.3833s-19 19.3629 11.711 33.5668c30.712 14.2039 78.433 8.1386 93.836 6.0268 15.404-2.1215 76.298-19.035 76.961-35.5629 0 0 7.202 22.2364-3.461 41.3197 0 0-44.49 23.1332-100.653 22.2653-56.164-.8679-78.413-11.9957-89.058-32.5736-10.644-20.5875 10.664-35.0325 10.664-35.0325z" fill="#fff" stroke="#000" stroke-linecap="round" stroke-linejoin="round" stroke-width="1.0079"/><g mask="url(#c)" stroke="#e5dcd1" stroke-linejoin="round" stroke-width="2.01579"><path d="m293.172 221.664s.49 15.814 8.355 27.627"/><path d="m299.854 223.419s.519 15.67 15.952 37.732"/><path d="m309.383 227.267 15.663 35.582"/><path d="m319.96 228.24 15.25 32.921"/><path d="m331.383 228.24 13.663 30.366"/><path d="m343.546 225.512 13.202 31.648"/><path d="m354.893 223.323 13.913 31.021"/><path d="m367.489 219.919 13.23 31.368"/><path d="m380.719 215.975 13.491 31.407"/><path d="m394.21 212.051 12.817 30.548"/><path d="m405.142 206.11 16.74 29.488"/><path d="m412.277 200.2 23.644 25.37"/><path d="m418.575 191.646 27.336 20.405"/><path d="m421.883 183.768 31.797 12.922"/><path d="m424.104 175.658 32.663 8.11"/></g><g mask="url(#d)" stroke="#e5dcd1" stroke-linejoin="round" stroke-width="2.01579"><path d="m471.488 114.619s-5.596 37.154-11.731 52.178"/><path d="m457.392 128.591-6.375 41.465"/><path d="m445.171 135.804-4.577 39.131"/><path d="m433.777 143.741-2.654 36.633"/><path d="m418.575 149.372 2.307 34.194"/><path d="m405.911 154.203c1.481 1.263 4.327 32.236 4.327 32.236"/><path d="m395.258 156.932 3.019 32.081"/><path d="m382.325 160.335 4.211 31.311"/><path d="m367.373 164.202 6.587 28.369"/><path d="m352.527 166.141 8.308 28.283"/><path d="m337.364 164.202 12.153 33.152"/><path d="m320.508 166.141 12.788 31.214"/><path d="m301.027 166.141 15.875 31.214"/><path d="m282.47 164.202 18.557 33.152"/><path d="m264.701 162.052 22.192 33.846"/><path d="m246.527 160.335 21.327 32.844"/><path d="m229.354 155.37 19.337 36.276"/><path d="m214.922 150.683 19.779 38.33"/><path d="m204.028 145.071s1.731 15.265 14.298 35.303"/></g><g stroke-width="1.0079"><path d="m463.68 72.9811 15.606-20.5104 22.221 4.9371z" fill="#483231" stroke="#000" stroke-linecap="round" stroke-linejoin="round"/><path d="m463.68 72.9815 15.606-20.5103-13.173-18.6782z" fill="#84f3e3" stroke="#000" stroke-linecap="round" stroke-linejoin="round"/><path d="m466.113 33.793 22.115 5.7953 13.279 17.82-22.221-4.9371z" fill="#30ccbc" stroke="#000" stroke-linecap="round" stroke-linejoin="round"/><path d="m503.939 18.2197-24.865 33.8175 22.433 5.3711z" fill="#34dbcc" stroke="#000" stroke-linecap="round" stroke-linejoin="round"/><path d="m503.94 18.2197-24.866 33.8175-12.961-18.2443z" fill="#b8f7ee" stroke="#000" stroke-linecap="round" stroke-linejoin="round"/><path d="m83.2282 177.43-12.4903-18.958 10.5288-17.116z" fill="#7bf0e4" stroke="#000" stroke-linecap="round" stroke-linejoin="round"/><path d="m83.2282 177.43-12.4903-18.958-19.3172 5.583z" fill="#483231" stroke="#000" stroke-linecap="round" stroke-linejoin="round"/><path d="m51.4207 164.055 11.2211-16.778 18.6249-5.921-10.5288 17.116z" fill="#30ccbc" stroke="#000" stroke-linecap="round" stroke-linejoin="round"/><path d="m49.4496 127.981 20.8653 30.539 10.9518-17.164z" fill="#b8f7ee" stroke="#000" stroke-linecap="round" stroke-linejoin="round"/><path d="m49.4496 127.981 20.8653 30.539-18.8942 5.535z" fill="#7bf0e4" stroke="#000" stroke-linecap="round" stroke-linejoin="round"/><path d="m466.344 281.122 18.048-16.778 20.144 8.283z" fill="#483231" stroke="#000" stroke-linecap="round" stroke-linejoin="round"/><path d="m466.343 281.123 18.048-16.779-9.394-19.768z" fill="#b8f7ee" stroke="#000" stroke-linecap="round" stroke-linejoin="round"/><path d="m474.997 244.576 19.914 9.084 9.625 18.967-20.144-8.283z" fill="#30ccbc" stroke="#000" stroke-linecap="round" stroke-linejoin="round"/><path d="m513.189 236.071-28.932 27.82 20.278 8.736z" fill="#b8f7ee" stroke="#000" stroke-linecap="round" stroke-linejoin="round"/><path d="m513.189 236.071-28.932 27.82-9.26-19.315z" fill="#7bf0e4" stroke="#000" stroke-linecap="round" stroke-linejoin="round"/><path d="m103.759 350.166-3.7981 9.633h10.3081l3.903-9.633z" fill="#fff" stroke="#101010" stroke-miterlimit="10"/><path d="m99.9608 358.207s-2.3653 2.642-3.423 8.052h25.0002s1.048-5.67-3.683-6.461c-4.74-.791-6.942-1.581-6.942-1.581s-5.289 1.321-10.9522 0z" fill="#fbebd8" stroke="#101010" stroke-miterlimit="10"/><path d="m96.9129 364.658 24.6541.337" stroke="#101010" stroke-miterlimit="10"/><path d="m98.2205 361.042s3.8365 1.099 4.9905 3.626" stroke="#101010" stroke-miterlimit="10"/><path d="m89.1918 354.186-3.7981 9.633h10.3077l3.9038-9.633z" fill="#fff" stroke="#101010" stroke-miterlimit="10"/><path d="m85.3936 362.238s-2.3653 2.642-3.423 8.052h24.9994s1.049-5.67-3.682-6.461c-4.7406-.791-6.9425-1.582-6.9425-1.582s-5.2884 1.322-10.9519 0z" fill="#fbebd8" stroke="#101010" stroke-miterlimit="10"/><path d="m82.3458 368.679 24.6532.338" stroke="#101010" stroke-miterlimit="10"/><path d="m83.6532 365.063s3.8365 1.1 4.9904 3.626" stroke="#101010" stroke-miterlimit="10"/><path d="m78.3265 288.837s-1.125-9.45-2.4615-12.854" stroke="#101010" stroke-linecap="round" stroke-miterlimit="10"/><path d="m103.461 212.755c-2.817-5.921-5.1924-6.683-5.1924-6.683s-5.125-.896-6.0865-.183c-.9615.714.5961 2.073.5961 2.073-2.8172-.472-4.6826-3.105-4.6826-3.105h-2.9135l1.2212 2.536c3.375 5.169 10.2211 4.889 10.2211 4.889s1.1827 1.013 1.9327 14.956l8.8459-.983c-1.259-6.374-2.894-11.302-3.933-13.5z" fill="#f0bd83" stroke="#101010" stroke-miterlimit="10"/><path d="m67.4419 310.514-.2692 4.841-1.0289 2.536-6.9423 5.641s-1.7788 5.265-2.3461 6.393.6538 1.697.6538 1.697c4.2212-1.6 4.4039-5.641 4.4039-5.641l2.5288-.655c5.0673-2.16 7.4038-4.889 7.4038-4.889 1.4615-1.688 2.6827-5.979 3.6538-10.877-2.923.867-5.9326 1.012-8.0768.954z" fill="#f0bd83" stroke="#101010" stroke-miterlimit="10"/><path d="m107.394 226.264-8.8465.984c.0096.212.0192.424.0384.646.0674 1.273.0674 2.565.0193 3.857 2.3268-.087 6.0578-.396 9.5098-1.379-.221-1.427-.462-2.797-.721-4.118z" fill="#fff" stroke="#101010" stroke-miterlimit="10"/><path d="m105.99 264.671c4.028-11.243 3.702-24.059 2.125-34.29-3.462.974-7.183 1.283-9.51 1.379-.4711 13.481-6.4326 27.222-6.4326 27.222l-9.75 2.671-6.5576 3.954c-12.1057 3.982-7.9519 36.315-7.9519 36.315l-.2212 3.924c1.9327.174 5.9615.444 8.4808.077 1.4134-8.379 2.1442-17.077 2.1442-17.077l1.0288 18.427c22.2215-.472 31.7885-9.681 31.7885-9.681-1.779-4.513-5.154-32.911-5.154-32.911z" fill="#dfc192" stroke="#101010" stroke-miterlimit="10"/><path d="m67.7015 305.837-.2596 4.677c2.1346.048 5.1538-.087 8.0769-.955.2404-1.186.4615-2.42.6634-3.654-2.5192.376-6.548.096-8.4807-.077z" fill="#fff" stroke="#101010" stroke-miterlimit="10"/><path d="m81.3168 307.265 15.6537 20.529s-10.2403 24.541-11.4326 29.691h18.6731l2.106-4.754h9.567l10.702-26.393s2.106-5.255-6.183-15.824c-8.288-10.568-10.942-11.6-10.942-11.6l-28.1346 8.341z" fill="#cfcdcd" stroke="#101010" stroke-miterlimit="10"/><path d="m106.317 352.74 10.817-25.399c.788-1.852.721-3.944-.183-5.738-1.827-3.606-5.904-10.453-14.509-20.587" stroke="#101010" stroke-miterlimit="10"/><path d="m87.3359 352.017 16.7311-.598" stroke="#101010" stroke-miterlimit="10"/><path d="m108.461 347.687 7.413-.492" stroke="#101010" stroke-miterlimit="10"/><path d="m89.1533 263.042-1.0673 5.198s-4.4808-2.971-6.1635-5.198" stroke="#101010" stroke-linecap="round" stroke-miterlimit="10"/><path d="m90.0859 262.319 3 3.703s1.875-2.507.375-7.223" stroke="#101010" stroke-linecap="round" stroke-miterlimit="10"/><path d="m80.3841 243.757s4.3846-.974 5.4808.858c0 0 1.2307-.154 2.1827-.81.9519-.656 1.2019 1.909 1.2019 1.909s2.8173 1.562 2.9134 4.282c.0962 2.719-1.7596 5.94-1.7596 5.94l1.7596 3.018s-3.1153 4.233-9.7499 2.671l-.4039-3.423s-1.5577.906-4.9711-1.91c-3.4134-2.825-4.0865-10.626 3.3269-12.545z" fill="#f0bd83" stroke="#101010" stroke-miterlimit="10"/><path d="m82.0283 258.211s-1.4039-.482-1.8365-1.958c-.4327-1.475.923-1.745.923-1.745s.6058-5.641-2.6057-6.287c0 0 3.4326-3.385 2.5577-5.516-.875-2.131-2.9423-3.384-4.6827-.983s-3.4904 3.992-3.4904 3.992-.4904-1.37-1.9038 0c-1.4135 1.369-2.3462 5.082 0 5.795 0 0-1.1442.984-.2212 3.279.9231 2.295 5.3269 5.94 11.4423 4.879l-.1731-1.456z" fill="#4c3211" stroke="#101010" stroke-miterlimit="10"/><path d="m86.3938 252.213s.3269.492 1.6923 0" stroke="#101010" stroke-linecap="round" stroke-miterlimit="10"/></g><path d="m81.9324 249.32s-.1635-2.131 1.8557-2.729c0 0 1.0866 2.237-1.8557 2.729z" stroke="#101010" stroke-linecap="round" stroke-miterlimit="10" stroke-width=".755922"/><path d="m82.6246 247.527c.0577-.048.3942.627 1 .579 0 0 .3077-.753.1154-1.254 0 0-.5289-.174-1.1154.675z" fill="#101010"/><path d="m229.883 204.317-1.423 5.4s14.048 4.609 26.702.868l-.144-7.059c-9.99 2.787-22.115 1.244-25.135.791z" fill="#f0bd83" stroke="#101010" stroke-miterlimit="10" stroke-width="1.0079"/><path d="m234.047 182.273c-3.798 2.671-14.914 12.757-14.914 12.757s-5.394 4.88-13.519 6.278-6.596.598-9.452 3.809c-2.865 3.201-2.327 6.412-1.067 8.148 0 0 .798.598 1-.935.202-1.534.337-2.604.337-2.604s3.663 0 5.663-.868 3.394-2.468 3.394-2.468 7.587.8 16.779-4.07c9.192-4.879 9.654-5.747 9.654-5.747l4.279-15.226c-.712.145-1.443.444-2.145.936z" fill="#f0bd83" stroke="#101010" stroke-miterlimit="10" stroke-width="1.0079"/><path d="m249.739 190.431.933-7.068c-.856-.241-1.558-.666-1.702-1.427-.404-2.141.596-4.07.596-4.07l4.327-.935s2.461-6.278-1.202-8.351-8.058-4.474-11.183.463c0 0-3 4.744-1.865 8.283 0 0-.135.801 1.461 1.273 1.597.463 2.135.839 2.135.839l-.952 3.375s-.798-.569-2-1.032l-1.384 6.876s6.115 1.784 10.836 1.784z" fill="#f0bd83" stroke="#101010" stroke-miterlimit="10" stroke-width="1.0079"/><path d="m276.268 173.325c-3.068-2.208-12.981-6.278-16.443-6.876 0 0-4.798-4.204-6.125-4.744-1.336-.53-4.067.656-5.096 1.668l9.76 5.95s8.452 5.747 10.384 6.345c0 0-11.923 6.413-14.519 7.946l.596 10.819s17.712-5.68 22.904-16.229c0 0 1.596-2.671-1.461-4.879z" fill="#f0bd83" stroke="#101010" stroke-miterlimit="10" stroke-width="1.0079"/><path d="m250.672 183.364-.933 7.068c-4.721 0-10.836-1.784-10.836-1.784l1.384-6.875c-1.115-.425-2.577-.753-4.086-.444l-4.279 15.226-2.039 7.753c3.02.453 15.145 1.996 25.135-.791l-.183-9.103-.596-10.819s-2.01.193-3.558-.241z" fill="#726b66" stroke="#101010" stroke-miterlimit="10" stroke-width="1.0079"/><path d="m247.037 166.209s-1.509 3.356 1 4.638c2.51 1.283 3.827 2.594 2.202 3.877 0 0 1.317-.386 1.663.27.347.655-.134 2.352-1.826 2.767l-.51.106-.394 1.032s-.289.588 1.913 1.012c2.202.425 6.221 1.322 9.087-1.706 2.855-3.028-.539-4.725-2.279-4.532-1.741.192-2.433-1.244-2.125-2.17s2.356-4.185-.808-6.355c-3.173-2.169-6.356-1.774-6.356-1.774s-.365-1.34-2.855-.424c-2.5.916-3.885 1.735-4.625 4.214-.731 2.478-2.587 2.401-2.587 2.401s-2.509.308-2.413 2.902 3.384 1.823 3.384 1.823.52-3.154 2.27-5.632 4.73-2.555 5.269-2.459z" fill="#dfc192" stroke="#101010" stroke-linecap="round" stroke-linejoin="round" stroke-width="1.0079"/><path d="m240.903 170.297s5.75 1.832 7.365 2.902c0 0 .423.56 0 1.071s-2.125.81-3.106.598c-.981-.213-1.154-2.247-1.154-2.247l-.855-.357s-.298 1.07-1.231 1.321-1.885-1.658-1.019-3.288z" fill="#101010" stroke="#101010" stroke-linecap="round" stroke-linejoin="round" stroke-width="1.0079"/><path d="m242.287 176.979s.76.54 1.741 0" stroke="#101010" stroke-linecap="round" stroke-linejoin="round" stroke-width="1.0079"/><path d="m201.316 252.214-6.855-3.115s-1.856 2.536-4 4.889l5.403 4.098z" fill="#f0bd83" stroke="#101010" stroke-miterlimit="10" stroke-width="1.0079"/><path d="m187.47 256.842c-.356.28-.711.521-1.029.695-3.105 1.687-2.586 2.333-2.202 4.156.385 1.812 1.683 7.135 1.683 7.135s1.298 2.98 4.404 3.501c3.106.52 3.49-1.948 2.981-4.542-.519-2.594-.885-5.969-.885-5.969l.327-.347c-3.817-.694-4.971-2.912-5.26-4.629z" fill="#726b66" stroke="#101010" stroke-miterlimit="10" stroke-width="1.0079"/><path d="m190.461 253.988c-.991 1.08-2.029 2.112-2.991 2.844.298 1.717 1.452 3.935 5.26 4.629l3.134-3.375z" fill="#fff" stroke="#101010" stroke-miterlimit="10" stroke-width="1.0079"/><path d="m240.922 262.03 7.48.839s.299 3.134.943 6.258l-6.731.752-1.683-7.849z" fill="#f0bd83" stroke="#101010" stroke-miterlimit="10" stroke-width="1.0079"/><path d="m250.46 273.109c.164.424.347.81.529 1.128 1.808 3.047 1.029 3.336-.231 4.696-1.259 1.36-5.086 5.265-5.086 5.265s-2.635 1.9-5.567.752c-2.933-1.147-2.01-3.462-.241-5.429s3.808-4.677 3.808-4.677l-.096-.472c3.634 1.36 5.75.048 6.884-1.273z" fill="#726b66" stroke="#101010" stroke-miterlimit="10" stroke-width="1.0079"/><path d="m249.345 269.126c.298 1.437.663 2.855 1.115 3.983-1.125 1.321-3.25 2.632-6.884 1.273l-.971-4.503 6.73-.753z" fill="#fff" stroke="#101010" stroke-miterlimit="10" stroke-width="1.0079"/><path d="m255.162 210.585s3.933 5.66 0 10.983c-3.932 5.323-10.019 15.699-10.019 15.699s6.317 20.115 10.019 27.25c0 0-18.461 4.417-18.961 4.417s-9.433-26.325-9.433-26.325l2.587-8.187s-21.481 19.469-26.394 26.99l-13.202-12.584s17.221-22.525 38.692-39.101c0 0 13.942 4.551 26.702.867z" fill="#ee8e75" stroke="#101010" stroke-miterlimit="10" stroke-width="1.0079"/><path d="m229.354 234.413s3.327-7.647 5.193-10.357l1.875-2.709" stroke="#101010" stroke-miterlimit="10" stroke-width="1.0079"/><path d="m199.23 205.706s-2.298.945-1.318 2.073c.981 1.128 5.51-.655 5.51-.655" stroke="#101010" stroke-linecap="round" stroke-linejoin="round" stroke-width="1.0079"/><path d="m610.967 255.058-1.865-.193s1.654-6.895 6.308-7.001c4.644-.106 8.163 2.18 9.846 3.597 1.682 1.418 4.009 10.752 2.519 14.696l-8.923-2.411-2.058-7.001-5.817-1.687z" fill="#a6f6ea" stroke="#101010" stroke-linecap="round" stroke-linejoin="round" stroke-width="1.0079"/><path d="m615.39 363.376c1.241 2.844 2.26 5.525 2.404 6.942.414 3.906 9.048 0 9.048 0s-.702-3.779-1.788-8.157c-2.914.424-7.25.935-9.664 1.205z" fill="#fdf7e7" stroke="#101010" stroke-linecap="round" stroke-miterlimit="10" stroke-width="1.0079"/><path d="m620.718 350.088c-3.202-4.465-10.356 2.787-10.356 2.787s2.846 5.496 5.019 10.501c2.414-.27 6.75-.781 9.663-1.206-1.134-4.57-2.701-9.806-4.336-12.082z" fill="#f0bd83" stroke="#101010" stroke-miterlimit="10" stroke-width="1.0079"/><path d="m615.987 367.879s4.846 2.401 10.856 0c0 0 1.509.087 1.586 1.061s-.423 2.314 0 3.587 1.827 4.658 1.192 7.473h-25.798s-.98-5.284 1.76-6.065c2.74-.771 8.721-1.688 10.404-6.065z" fill="#feecda" stroke="#101010" stroke-linecap="round" stroke-miterlimit="10" stroke-width="1.0079"/><path d="m603.66 378.101h26.115" stroke="#101010" stroke-linecap="round" stroke-miterlimit="10" stroke-width="1.0079"/><path d="m607.939 373.337s5.173 1.669 7.451 1.244c2.279-.424 3.125 3.53 3.125 3.53" stroke="#101010" stroke-linecap="round" stroke-miterlimit="10" stroke-width="1.0079"/><path d="m622.102 378.1s.211-4.3 6.327-5.573" stroke="#101010" stroke-linecap="round" stroke-miterlimit="10" stroke-width="1.0079"/><path d="m614.987 369.586 1.731 1.822" stroke="#101010" stroke-linecap="round" stroke-miterlimit="10" stroke-width="1.0079"/><path d="m613.227 371.409 1.212 1.128" stroke="#101010" stroke-linecap="round" stroke-miterlimit="10" stroke-width="1.0079"/><path d="m685.362 293.678c1.903-2.44 3.778-4.619 4.951-5.429 3.231-2.228-4.298-7.984-4.298-7.984s-2.98 2.41-6.298 5.458c1.76 2.372 4.27 5.949 5.654 7.955z" fill="#fdf7e7" stroke="#101010" stroke-linecap="round" stroke-miterlimit="10" stroke-width="1.0079"/><path d="m671.16 295.287c-2.394 4.947 7.375 7.811 7.375 7.811s3.471-5.13 6.827-9.421c-1.395-2.006-3.895-5.583-5.654-7.955-3.471 3.172-7.317 7.039-8.539 9.565z" fill="#f0bd83" stroke="#101010" stroke-miterlimit="10" stroke-width="1.0079"/><path d="m690.381 289.406s-3.385-4.224-9.846-4.59c0 0-1.337-.714-.991-1.64.346-.925 1.356-1.928 1.51-3.249s.298-4.995 2.058-7.281l23.394 10.907s-1.327 5.207-4.145 4.754c-2.807-.454-8.615-2.151-11.98 1.099z" fill="#feecda" stroke="#101010" stroke-linecap="round" stroke-miterlimit="10" stroke-width="1.0079"/><path d="m705.852 285.346-23.683-11.041" stroke="#101010" stroke-linecap="round" stroke-miterlimit="10" stroke-width="1.0079"/><path d="m699.967 287.863s-3.99-3.694-6.23-4.282c-2.241-.588-1.356-4.522-1.356-4.522" stroke="#101010" stroke-linecap="round" stroke-miterlimit="10" stroke-width="1.0079"/><path d="m689.131 277.555s-2 3.809-8.077 2.381" stroke="#101010" stroke-linecap="round" stroke-miterlimit="10" stroke-width="1.0079"/><path d="m691.996 288.277-.798-2.372" stroke="#101010" stroke-linecap="round" stroke-miterlimit="10" stroke-width="1.0079"/><path d="m694.362 287.371-.625-1.533" stroke="#101010" stroke-linecap="round" stroke-miterlimit="10" stroke-width="1.0079"/><path d="m613.516 294.468s-15.019 23.442-16 40.635l11.586 20.318 16.654-3.713-7.99-21.88 10.471-17.193s26.74 7.811 36.865 6.451c10.135-1.369 21.038-19.729 21.625-23.056l-11.106-10.356-14.413 15.332s-17.298-4.551-24.24-9.546c0 0-15.664-5.979-23.472 3.008z" fill="#fff" stroke="#101010" stroke-linecap="round" stroke-miterlimit="10" stroke-width="1.0079"/><path d="m646.506 227.161c-.442.569-.75.964-.75.964s.356-.405.75-.964z" stroke="#101010" stroke-linecap="round" stroke-miterlimit="10" stroke-width=".755922"/><path d="m610.372 269.522c-1.308.444-2.673 1.187-3.808 2.44-3.279 3.616-8.942 20.318-15.74 27.637 0 0-1.481 2.217-3.202 3.211-1.721.983-6.394 1.562-9.673 5.178s.904 1.726.904 1.726 2.951-2.382 5.74-1.649c2.788.742 9.019.492 9.346-3.452 0 0 12.279-11.263 14.423-16.779 0 0-1.635-4.773-1.962-6.991-.24-1.62 2.472-7.974 3.972-11.321z" fill="#f0bd83" stroke="#101010" stroke-miterlimit="10" stroke-width="1.0079"/><path d="m624.622 266.012s-.068.097-.097.145l-3.5 2.941s-4.057 1.591-5.923-.183c0 0-2.25-.241-4.73.607-1.5 3.346-4.212 9.701-3.971 11.321.326 2.218 1.961 6.991 1.961 6.991l.75 10.443s3.971.656 9.567-1.813c5.596-2.468 14.039-6.171 18.308-5.014l-4.596-14.474c-5.664-2.816-7.327-7.685-7.779-10.974z" fill="#726b66" stroke="#101010" stroke-linecap="round" stroke-miterlimit="10" stroke-width="1.0079"/><path d="m651.169 220.073c-1.557-1.648-.413 1.563-1.48 2.961-.721.945-2.26 2.941-3.193 4.137-.384.559-.75.964-.75.964s.308-.395.75-.964c.645-.916 1.366-2.238.683-2.778-1.096-.867-2.25 1.688-4.711 3.327-2.462 1.64-3.5 2.758-3.058 5.497 0 0-6.644 20.954-14.798 32.795.452 3.279 2.106 8.158 7.779 10.974 0 0 12.134-21.051 11.567-42.439 0 0 5.99-4.107 7.221-6.827 1.231-2.719 1.558-6.007 0-7.647z" fill="#f0bd83"/><path d="m646.496 227.171c.933-1.196 2.472-3.192 3.193-4.137 1.067-1.398-.077-4.609 1.48-2.961h.01c1.558 1.64 1.231 4.928 0 7.647-1.231 2.72-7.221 6.827-7.221 6.827.567 21.388-11.567 42.439-11.567 42.439-5.673-2.816-7.327-7.695-7.779-10.974 8.154-11.841 14.798-32.795 14.798-32.795-.442-2.739.596-3.857 3.058-5.497 2.461-1.639 3.615-4.194 4.711-3.327.683.54-.038 1.862-.683 2.778zm0 0c-.384.559-.75.964-.75.964s.308-.395.75-.964z" stroke="#101010" stroke-miterlimit="10" stroke-width="1.0079"/><path d="m610.968 255.058-1.077 3.134s-1.76.501-1.51 1.571c.25 1.071.942.753.942.753s-.903 2.015.395 3.153 3.75 1.764 3.75 1.764l-.943 6.432s-.192 1.832 2.395 2.083c2.586.251 5.663-2.334 6.096-4.86l-.375-6.374s1.384.569 2.327-.569c.942-1.138.75-3.404-1.135-2.777v-2.652s-4.154-1.388-6.288-1.321l-.068-4.166-2.894 4.041-1.625-.232z" fill="#f0bd83" stroke="#101010" stroke-linecap="round" stroke-linejoin="round" stroke-width="1.0079"/><path d="m612.689 262.233s1.067.183 1.653-.405" stroke="#101010" stroke-linecap="round" stroke-linejoin="round" stroke-width="1.0079"/><path d="m615.093 257.855s-1.222-1.755-3.164-.936c0 0 .577 2.421 3.164.936z" fill="#feecda" stroke="#101010" stroke-linecap="round" stroke-miterlimit="10" stroke-width=".755922"/><path d="m613.419 256.909c-.077 0 .096.733-.404 1.08 0 0-.711-.386-.884-.897 0 0 .298-.472 1.288-.183z" fill="#101010"/><path d="m585.362 305.75s-2.365.309-1.567 1.312 5.375 1.225 5.375 1.225" fill="#f0bd83"/><path d="m585.362 305.75s-2.365.309-1.567 1.312 5.375 1.225 5.375 1.225" stroke="#101010" stroke-linecap="round" stroke-miterlimit="10" stroke-width="1.0079"/><path d="m615.939 305.75s6.971 5.42 12.308 6.885" stroke="#101010" stroke-linecap="round" stroke-miterlimit="10" stroke-width="1.0079"/><path d="m179.682 148.639 3.336 3.366" stroke="#000" stroke-linecap="round" stroke-linejoin="round" stroke-width="1.0079"/><path d="m181.711 150.683 2.865-2.622" stroke="#000" stroke-linecap="round" stroke-linejoin="round" stroke-width="1.0079"/><path d="m396.202 313.205s-8.808-3.983-17.788-2.758c0 0-.347 1.35 2.461 1.533 0 0-3.375.434-4.106.733 0 0-.125 1.842 4.827 1.35l2.327.087s-4.5 1.629-5.24 3.529c0 0 1.211 1.041 2.49.434 1.289-.617 4.279-1.958 4.279-1.958s-4.712 3.125-4.154 4.234c0 0 .058.829 2.51-.598 2.442-1.427 7.731-1.755 7.731-1.755s7.865-.347 4.682-4.822z" fill="#f0bd83" stroke="#000" stroke-linecap="round" stroke-miterlimit="10" stroke-width="1.0079"/><path d="m430.067 291.316s-1.375 1.041-1.509 2.825c-.135 1.784-1.548 3.096-1.548 3.096s-.337.636.875 1.417c0 0-.404 3.23.201 3.799.606.569 2.116 1.042 4.827-.27l.539 2.893h9.163l-3.625-5.824-.163-7.03z" fill="#f0bd83" stroke="#000" stroke-linecap="round" stroke-miterlimit="10" stroke-width="1.0079"/><path d="m436.356 354.852-10.433 4.06.846 4.522 10.808-1.928z" fill="#fff" stroke="#000" stroke-linecap="round" stroke-linejoin="round" stroke-width="1.0079"/><path d="m414.885 370.936c-.337.463-.625 1.003-.837 1.659h25.567l-.307-1.659z" fill="#726b66" stroke="#000" stroke-linecap="round" stroke-linejoin="round" stroke-width="1.0079"/><path d="m437.577 361.506-10.808 1.929.202 1.051s-.327 1.504-3.567 2.777c-2.769 1.09-6.548.916-8.519 3.674h24.423z" fill="#726b66" stroke="#000" stroke-linecap="round" stroke-linejoin="round" stroke-width="1.0079"/><path d="m461 348.623h10.327s6.577 19.16 7.625 23.972h-3.058c-.885 0-1.702-.463-2.154-1.234l-3.759-6.345s-1.952-2.825-6.385-5.169l-2.587-11.224z" fill="#726b66" stroke="#000" stroke-linecap="round" stroke-linejoin="round" stroke-width="1.0079"/><path d="m469.298 348.623 8.24 23.48" stroke="#000" stroke-linecap="round" stroke-linejoin="round" stroke-width="1.0079"/><path d="m461.615 338.701s.981 3.008-9.846 4.59l9.875 2.17 2.144 15.804-26.49-2.169-.442-1.485-16.491 4.445s-13.298-16.779-17.134-24.146c0 0-3.962-5.371 1.961-10.414s15.664-6.229 15.664-6.229l27.769 5.014 13 12.42z" fill="#fff" stroke="#000" stroke-linecap="round" stroke-miterlimit="10" stroke-width="1.0079"/><path d="m436.856 357.61 2.75-1.031-11.164-14.542" stroke="#000" stroke-linecap="round" stroke-miterlimit="10" stroke-width="1.0079"/><path d="m341.76 353.84-8.135 1.581v5.882l10.366-.993z" fill="#fff" stroke="#000" stroke-linecap="round" stroke-miterlimit="10" stroke-width="1.0079"/><path d="m354.116 370.079c-2.231-.964-6.702-2.719-6.702-2.719l-3.433-7.039-10.365.993v12.285h4.942v-3.52l3.029 3.52h15.163s-.404-2.555-2.634-3.52z" fill="#ee8e75" stroke="#000" stroke-linecap="round" stroke-miterlimit="10" stroke-width="1.0079"/><path d="m299.568 348.758-9.087-2.95-3.221 3.654 7.943 6.606c1.009-2.054 2.413-4.533 4.365-7.31z" fill="#fff" stroke="#000" stroke-linecap="round" stroke-miterlimit="10" stroke-width="1.0079"/><path d="m297.683 369.307s-3.904-4.571-4.807-7.261c0 0 .509-2.295 2.317-5.988l-7.942-6.606-9.01 10.212 3.923 3.915 2.75-3.279-.558 5.082 8.52 8.206h8.115s0-2.632-3.308-4.291z" fill="#ee8e75" stroke="#000" stroke-linecap="round" stroke-miterlimit="10" stroke-width="1.0079"/><path d="m341.356 302.945s1.394 6.653 3.26 17.665c1.865 11.013 4.788 31.889 5.423 36.412h-17.548s-2.644-32.882-7.616-42.39c0 0-16.269 33.036-23.903 38.957l-14.164-7.483 30.558-57.664 18.846 2.864z" fill="#9e9c9c" stroke="#000" stroke-linecap="round" stroke-miterlimit="10" stroke-width="1.0079"/><path d="m343.846 278.288c1.289-2.41 2.712-4.619 4.202-6.219l1.462-1.668s.933 2.246 2.461 2.092c1.52-.154 2.952-2.719 2.952-2.719.616.212 1.154-.309 1.154-.309s-.259-1.514 0-2.083c.26-.578.471-2.767.471-2.767.164-4.089-1.836-6.287-6.567-6.114-4.74.174-5.086 6.644-5.086 6.644-2.808 3.655-4.741 3.664-4.741 3.664-1.154 1.389-2.211 3.009-3.173 4.716 0 .019.894 5.94 6.875 4.763z" fill="#cc8a7f" stroke="#000" stroke-linecap="round" stroke-linejoin="round" stroke-width="1.0079"/><path d="m372.914 372.769v-39.478" stroke="#000" stroke-linecap="round" stroke-linejoin="round" stroke-width="1.0079"/><path d="m372.914 354.64-11.519-9.778v-6.297" stroke="#000" stroke-linecap="round" stroke-linejoin="round" stroke-width="1.0079"/><path d="m361.395 342.423-6.337-5.66v-8.486" stroke="#000" stroke-linecap="round" stroke-linejoin="round" stroke-width="1.0079"/><path d="m372.914 348.835 6.25-4.185v-8.225" stroke="#000" stroke-linecap="round" stroke-linejoin="round" stroke-width="1.0079"/><path d="m379.164 341.7 7.442-5.274v-11.321" stroke="#000" stroke-linecap="round" stroke-linejoin="round" stroke-width="1.0079"/><path d="m372.914 362.094 11.509-9.064v-22.391" stroke="#000" stroke-linecap="round" stroke-linejoin="round" stroke-width="1.0079"/><path d="m384.423 345.248 8.077-5.786v-12.092" stroke="#000" stroke-linecap="round" stroke-linejoin="round" stroke-width="1.0079"/><path d="m372.914 376.24c1.911 0 3.461-1.554 3.461-3.471s-1.55-3.472-3.461-3.472c-1.912 0-3.462 1.555-3.462 3.472s1.55 3.471 3.462 3.471z" fill="#7bf0e4" stroke="#000" stroke-linecap="round" stroke-linejoin="round" stroke-width="1.0079"/><path d="m361.394 338.758c.94 0 1.702-.764 1.702-1.706 0-.943-.762-1.707-1.702-1.707s-1.702.764-1.702 1.707c0 .942.762 1.706 1.702 1.706z" fill="#7bf0e4" stroke="#000" stroke-linecap="round" stroke-linejoin="round" stroke-width="1.0079"/><path d="m355.058 329.077c.94 0 1.702-.764 1.702-1.707 0-.942-.762-1.706-1.702-1.706s-1.702.764-1.702 1.706c0 .943.762 1.707 1.702 1.707z" fill="#7bf0e4" stroke="#000" stroke-linecap="round" stroke-linejoin="round" stroke-width="1.0079"/><path d="m379.164 337.225c.94 0 1.702-.764 1.702-1.707 0-.942-.762-1.706-1.702-1.706s-1.702.764-1.702 1.706c0 .943.762 1.707 1.702 1.707z" fill="#7bf0e4" stroke="#000" stroke-linecap="round" stroke-linejoin="round" stroke-width="1.0079"/><path d="m386.606 326.136c.94 0 1.702-.764 1.702-1.707s-.762-1.707-1.702-1.707-1.702.764-1.702 1.707.762 1.707 1.702 1.707z" fill="#7bf0e4" stroke="#000" stroke-linecap="round" stroke-linejoin="round" stroke-width="1.0079"/><path d="m392.5 328.576c.94 0 1.702-.764 1.702-1.707s-.762-1.707-1.702-1.707-1.702.764-1.702 1.707.762 1.707 1.702 1.707z" fill="#7bf0e4" stroke="#000" stroke-linecap="round" stroke-linejoin="round" stroke-width="1.0079"/><path d="m384.423 331.989c.94 0 1.702-.764 1.702-1.707 0-.942-.762-1.706-1.702-1.706s-1.702.764-1.702 1.706c0 .943.762 1.707 1.702 1.707z" fill="#7bf0e4" stroke="#000" stroke-linecap="round" stroke-linejoin="round" stroke-width="1.0079"/><path d="m366.923 323.89v3.394c0 3.307 2.673 5.998 5.981 5.998h.808s1.202-8.274-6.789-9.383z" fill="#ff7c66" stroke="#101010" stroke-linecap="round" stroke-miterlimit="10" stroke-width="1.0079"/><path d="m373.019 327.37s.77-4.454 5.77-6.373v6.875c0 2.989-2.414 5.41-5.395 5.41h-.365v-5.921z" fill="#ff7c66" stroke="#101010" stroke-linecap="round" stroke-miterlimit="10" stroke-width="1.0079"/><path d="m432.923 295.684s-1.577-1.436-3.288-.212c0 0 1.096 2.237 3.288.212z" fill="#feecda" stroke="#101010" stroke-linecap="round" stroke-miterlimit="10" stroke-width=".755922"/><path d="m431.077 295.135c-.077.009.25.694-.163 1.147 0 0-.779-.212-1.058-.675 0 0 .183-.52 1.211-.463z" fill="#101010"/><path d="m430.634 288.153s-1.009-.743-2.99 1.041-2.961 4.176.952 4.581c0 0 .317-1.823 1.462-2.459 0 0 .471 1.244 1.778 2.015 1.308.771 4.125 2.594 4.125 2.594s.875-1.041 1.673-.434c.798.608.231 1.948-1.278 2.71 0 0-.231 1.764 1.038 2.642 0 0 2.212-1.919 3.558-4.879 1.346-2.961 1.144-5.381.336-6.365-.807-.974-5.634-4.648-10.673-1.446z" fill="#261611" stroke="#000" stroke-linecap="round" stroke-miterlimit="10" stroke-width="1.0079"/><path d="m430.635 288.153s-.904 1.312-.568 3.163" stroke="#000" stroke-linecap="round" stroke-miterlimit="10" stroke-width="1.0079"/><path d="m390.798 321.18s.769-6.384 4.346-9.093l21.462 3.5s10.404-9.893 16.846-10.501h9.163s2.164-1.398 6.875 1.581c2.875 1.813 8.741 5.748 12.875 8.534 2.683 1.813 3.779 5.236 2.644 8.274l-2.605 6.981 5.23 10.501s-32.971-.26-44.048-7.261l4.01-6.865-17.798-1.707s-3.404.472-4.625 2.382l-14.375-6.316z" fill="#f8d9b2" stroke="#000" stroke-linecap="round" stroke-miterlimit="10" stroke-width="1.0079"/><path d="m416.606 315.577s1.221 1.929.615 4.195" stroke="#000" stroke-linecap="round" stroke-miterlimit="10" stroke-width="1.0079"/><path d="m429.99 300.217s.51.289 1.145-.328" stroke="#000" stroke-linecap="round" stroke-miterlimit="10" stroke-width=".755922"/><path d="m427.596 326.821s6.337-3.443 9.25-4.967" stroke="#000" stroke-linecap="round" stroke-miterlimit="10" stroke-width="1.0079"/><path d="m452.23 313.562 10.173 16.884" stroke="#000" stroke-linecap="round" stroke-miterlimit="10" stroke-width="1.0079"/><path d="m420.164 340.948s21.471 3.23 31.605 2.343" stroke="#000" stroke-linecap="round" stroke-miterlimit="10" stroke-width="1.0079"/><path d="m380.865 311.981s3.289-.126 4.635 0" stroke="#000" stroke-linecap="round" stroke-linejoin="round" stroke-width="1.0079"/><path d="m352.221 265.193s2.077-.472 2.962 1.446c0 0-2.058 1.408-2.962-1.446z" fill="#feecda" stroke="#101010" stroke-linecap="round" stroke-miterlimit="10" stroke-width=".755922"/><path d="m354.087 265.627c.058.048-.558.482-.423 1.07 0 0 .779.203 1.25-.067 0 0 .096-.55-.827-1.003z" fill="#101010"/><path d="m343.741 265.627s2.865 1.697 3.125-.858c.259-2.556 2.028-2.614 2.028-2.614s1.462.627 1.039 2.016c0 0 3.019.231 3.327-2.633 0 0 2.807.887 3.279 3.076 0 0 1.98-.675 1.355-3.703-.625-3.027-3.586-6.73-7.913-4.127 0 0-2.865-1.774-4.837.781-1.971 2.556-1.403 8.062-1.403 8.062z" fill="#f8d9b2" stroke="#000" stroke-linecap="round" stroke-miterlimit="10" stroke-width="1.0079"/><path d="m351.673 268.751s.087 1.1.548 1.514" stroke="#000" stroke-linecap="round" stroke-miterlimit="10" stroke-width=".755922"/><path d="m349.981 256.775s.423-3.607-1-5.564c-1.423-1.967-3-1.572-3-1.572s-1.048-3.211-3.519-3.664c-2.481-.463-4.241.656-4.5 2.025 0 0-2.529-2.748-4.596-1.697-2.058 1.051-2.846 2.613-2.712 3.924 0 0-2.086-1.735-4.827 1.1-2.74 2.835-2.086 7.415-.846 8.784 1.241 1.379 2.808 2.16 4.173 1.9 1.375-.26 3.981-2.806 2.673-6.114 0 0 1.568 2.45 4.5 1.466 2.933-.983 2.087-3.857 2.087-3.857s1.432 2.295 3.519 1.639c2.086-.655 2.875-1.899 2.875-1.899s.231 3.153 5.173 3.548z" fill="#f8d9b2" stroke="#000" stroke-linecap="round" stroke-linejoin="round" stroke-width=".755922"/><path d="m336.972 273.525c.961-1.717 2.019-3.327 3.173-4.716 0 0-7.452-.81-13.51-.983-6.048-.174-14.125 6.065-14.125 6.065l2.548-6.904-10.961-2.768c-3.943 10.559-6.144 18.563-3.125 20.144 3.019 1.582 14.086.087 14.086.087l-5.442 6.769c6.404 6.249 18.683 8.091 18.683 8.091l1.846-7.744s2.375-10.105 6.827-18.041z" fill="#fff" stroke="#000" stroke-linecap="round" stroke-miterlimit="10" stroke-width="1.0079"/><path d="m336.972 273.525c-4.452 7.936-6.827 18.042-6.827 18.042l7.105 3.259s2.702-9.219 6.597-16.528c-5.981 1.177-6.875-4.744-6.875-4.763z" fill="#f4c7bb" stroke="#000" stroke-linecap="round" stroke-miterlimit="10" stroke-width="1.0079"/><path d="m366.02 296.224c-1.847.444-5.173.617-5.173.617-1.049-.964-5.702-10.462-7.202-15.573-1.5-5.101-5.587-9.209-5.587-9.209-1.5 1.601-2.913 3.809-4.202 6.22-3.904 7.309-6.596 16.528-6.596 16.528l-2.634 6.952c2.548 2.025 9.557 3.693 9.557 3.693l3.337-6.682c7.98 13.104 19.644 9.151 19.644 9.151z" fill="#fff" stroke="#000" stroke-linecap="round" stroke-miterlimit="10" stroke-width="1.0079"/><path d="m324.885 314.633 6.683-11.215" stroke="#000" stroke-linecap="round" stroke-miterlimit="10" stroke-width="1.0079"/><path d="m347.51 298.779 2.529-6.817" stroke="#000" stroke-linecap="round" stroke-miterlimit="10" stroke-width="1.0079"/><path d="m349.51 270.4-.894-1.938" stroke="#000" stroke-linecap="round" stroke-miterlimit="10" stroke-width="1.0079"/><path d="m315.058 266.977 3.885-10.53s1.269-.549 1.548-1.273c.279-.723 1.385-8.861 1.385-8.861s-.279-.55-.885.443-.721 1.659-.721 1.659.106-5.738-.106-5.95-.721-.521-.942 0c0 0-.135-1.919-.76-1.813s-.519 1.813-.519 1.813-.327-1.707-.827-1.813-.721 2.498-.442 5.207c0 0-.943-2.545-1.875-2.218 0 0-.443.328 0 1.273.442.945 1.269 5.815.605 7.975l-8.923 11.909 8.568 2.17z" fill="#cc8a7f" stroke="#000" stroke-linecap="round" stroke-linejoin="round" stroke-width=".755922"/><path d="m316.683 245.869v1.447s2.433 1.996 1.827 5.149" stroke="#000" stroke-linecap="round" stroke-linejoin="round" stroke-width=".755922"/><path d="m317.953 242.475v4.455" stroke="#000" stroke-linecap="round" stroke-linejoin="round" stroke-width=".755922"/><path d="m319.221 242.475v4.782" stroke="#000" stroke-linecap="round" stroke-linejoin="round" stroke-width=".755922"/><path d="m366.019 296.224s8-2.267 11.539-1.775c3.538.502 6.461 2.324 6.682 3.433 0 0 .606.608 0 1.167 0 0 .5.598-.057 1.157-.558.559-1.327-.935-2.818-1.157-1.49-.222-5.461.607-5.461.607s-2.712.338-3.817-.356l-5.347 4.358z" fill="#cc8a7f" stroke="#000" stroke-linecap="round" stroke-linejoin="round" stroke-width=".755922"/><path d="m378.49 297.333s2.702-.164 5.741 1.716" stroke="#000" stroke-linecap="round" stroke-linejoin="round" stroke-width=".755922"/><path d="m378.221 295.732s3.481 0 6.02 2.16" stroke="#000" stroke-linecap="round" stroke-linejoin="round" stroke-width=".755922"/><g mask="url(#e)" stroke="#e5dcd1" stroke-linejoin="round" stroke-width="2.01579"><path d="m423.171 37.814s3.279 22.8053 0 45.0225"/><path d="m412.084 43.4453s3.27 32.5446 0 43.9232"/><path d="m399.488 49.2505s3.27 23.2296 3.02 40.4036"/><path d="m387.911 54.8042 4.529 36.1029"/><path d="m376.421 58.2183 5.904 35.64"/><path d="m362.479 60.3203 8.308 36.4404"/><path d="m346.2 63.4058 10.135 34.1742"/><path d="m331.008 65.4023 12.702 33.9525"/><path d="m313.883 65.4023 15.798 34.3286"/><path d="m296.258 65.4023 19.135 34.6947"/><path d="m282.412 63.4058 15.856 35.9485"/><path d="m267.806 58.2183s9.74 28.9189 17.875 41.8887"/><path d="m259.883 54.8042s-4.23 15.4479 13.962 43.5954"/><path d="m250.431 49.2505s-2.663 18.9193 6.472 41.6571"/><path d="m247.287 37.814s-9.884 9.0739-5.009 38.7932"/></g><path d="m215.249 106.51 1.884-4.388.433-2.7576s-1.461-1.1475-1.163-2.4685c.298-1.3211 2.105-1.485 2.355-.3665 0 0 1.462-1.6392 4.375-1.2053 2.914.4339 5.231 2.1503 4.722 4.3007 0 0 1.288-.2411 1.461 1.2532.173 1.495-.346 1.842-2.317 1.842 0 0-.173 2.758-2.664 3.79l-.682 3.963s-5.154 1.119-8.414-3.963z" fill="#a88460" stroke="#000" stroke-linecap="round" stroke-linejoin="round" stroke-width="1.0079"/><path d="m222.537 96.7607s.789-1.1282 1.741-.7232.577 1.5428.577 1.5428" stroke="#000" stroke-linecap="round" stroke-linejoin="round" stroke-width="1.0079"/><path d="m221.681 99.355s.135.887 1.298.723" stroke="#000" stroke-linecap="round" stroke-linejoin="round" stroke-width="1.0079"/><path d="m216.499 98.3999s-.616.7521-.27 1.5429c.347.7902-2.317 2.0832-.105 3.6252l.375.203.644-1.639.433-2.7582-1.077-.9643z" fill="#726b66" stroke="#000" stroke-linecap="round" stroke-linejoin="round" stroke-width="1.0079"/><path d="m228.22 102.652s.558.743-.164 1.292c-.721.55-.682.888-.577 1.264.106.376-.24 2.767-2.317 1.166 0 0 1.789-1.88 1.846-3.645z" fill="#726b66" stroke="#000" stroke-linecap="round" stroke-linejoin="round" stroke-width="1.0079"/><path d="m193.98 111.707s-4.394-3.066-4.077-6.923c.317-3.858 12.163-16.3643 16.865-19.3536 0 0 1.414-4.8793 4.548-7.3189 3.135-2.4397 1.885-.8679 1.885-.8679s3.529-1.5718 4-1.1764 1.413 1.3404-.471 2.6711c-1.885 1.3403-2.039 1.9671-2.039 1.9671s1.943-1.89 3.164-1.1764-1.423 1.2632-2.606 2.9121c-1.183 1.649-1.894 4.6382-5.577 6.2197 0 0-8.673 8.6882-9.163 13.4712 0 0 1.317 6.673-6.529 9.575z" fill="#a88460" stroke="#000" stroke-linecap="round" stroke-linejoin="round" stroke-width="1.0079"/><path d="m234.701 106.924 1.721-1.697s7.846-6.6536 13.259-16.2483c0 0 .395-2.9893 1.885-5.4289 1.49-2.4397 1.76-3.8668 2.365-3.9343.606-.0675 0 2.9796 0 2.9796s2.837-4.6285 2.568-6.4607c0 0 .577-.7135.98-.2025.404.5111.404 1.1475.404 1.1475s.539-.376.779-.2025c.24.1736.471.9161.471.9161s.443-.3375.712.0386c.269.376-.539 4.7635-.539 4.7635s.202 1.2825-.644 2.7386-1.856 3.5486-3.981 5.3807c0 0-1.317 2.16-1.952 3.5197-.644 1.35-9.038 15.6889-14.596 19.1699l-3.413-6.47z" fill="#a88460" stroke="#000" stroke-linecap="round" stroke-linejoin="round" stroke-width="1.0079"/><path d="m200.508 102.132s12.26 1.996 18.068 5.554c5.807 3.549 8.221 2.903 8.221 2.903l9.625-5.362s3.855 8.467 3.942 11.745c0 0-7.173 1.456-13.567 10.193-6.404 8.736-6.308 12.468-11.942 16.026 0 0-21.972-4.628-28.145-14.329 0 0 10.895-11.977 14.529-14.985 0 0-6.721.183-10.346-1.456 0 0 5.087-3.539 9.625-10.28z" fill="#cfcdcd" stroke="#000" stroke-linecap="round" stroke-linejoin="round" stroke-width="1.0079"/><path d="m157.932 133.413c-1.029-2.719-2.106-5.178-2.933-6.229-2.279-2.883 6.048-5.95 6.048-5.95s2 2.99 4.135 6.625c-2.231 1.63-5.452 4.137-7.25 5.545z" fill="#fdf7e7" stroke="#101010" stroke-linecap="round" stroke-miterlimit="10" stroke-width="1.0079"/><path d="m170.182 138.794c.779 5.092-8.75 4.938-8.75 4.938s-1.692-5.555-3.51-10.328c1.798-1.408 5.019-3.915 7.25-5.545 2.231 3.809 4.606 8.332 5 10.926z" fill="#f0bd83" stroke="#101010" stroke-miterlimit="10" stroke-width="1.0079"/><path d="m152.97 127.193s3.818-3.336 9.827-2.613c0 0 1.346-.443 1.183-1.35-.164-.906-.933-1.996-.856-3.249.077-1.254.539-4.648-.711-7.049l-23.346 6.21s.375 5.024 3.038 5.062c2.663.039 8.298-.569 10.865 2.98z" fill="#ee8e75" stroke="#101010" stroke-linecap="round" stroke-miterlimit="10" stroke-width="1.0079"/><path d="m139.365 120.906 23.644-6.287" stroke="#101010" stroke-linecap="round" stroke-miterlimit="10" stroke-width="1.0079"/><path d="m144.384 124.194s4.278-2.758 6.442-2.921c2.163-.164 1.981-3.944 1.981-3.944" stroke="#101010" stroke-linecap="round" stroke-miterlimit="10" stroke-width="1.0079"/><path d="m156.057 116.47s1.221 3.848 7.057 3.52" stroke="#101010" stroke-linecap="round" stroke-miterlimit="10" stroke-width="1.0079"/><path d="m151.663 125.882 1.125-2.054" stroke="#101010" stroke-linecap="round" stroke-miterlimit="10" stroke-width="1.0079"/><path d="m149.634 124.667.827-1.311" stroke="#101010" stroke-linecap="round" stroke-miterlimit="10" stroke-width="1.0079"/><path d="m129.182 141.639c-2.779-.82-5.385-1.447-6.721-1.418-3.673.077-1.067-8.428-1.067-8.428s3.576.203 7.759.704c-.048 2.768 0 6.856.019 9.142z" fill="#fdf7e7" stroke="#101010" stroke-linecap="round" stroke-miterlimit="10" stroke-width="1.0079"/><path d="m140.864 135.101c4.52 2.449-1.355 9.971-1.355 9.971s-5.433-2.006-10.318-3.433c-.029-2.285-.077-6.384-.019-9.141 4.365.52 9.394 1.35 11.702 2.603z" fill="#f0bd83" stroke="#101010" stroke-miterlimit="10" stroke-width="1.0079"/><path d="m120.932 141.735s-.077-5.072 4.365-9.209c0 0 .539-1.321-.259-1.774s-2.125-.569-3.029-1.437-3.192-3.423-5.827-4.011l-10.356 21.889s4.068 2.96 5.818.945 4.923-6.711 9.288-6.393z" fill="#ee8e75" stroke="#101010" stroke-linecap="round" stroke-miterlimit="10" stroke-width="1.0079"/><path d="m107.365 148.09 10.481-22.159" stroke="#101010" stroke-linecap="round" stroke-miterlimit="10" stroke-width="1.0079"/><path d="m113.105 146.374s.673-5.053 1.942-6.818c1.27-1.765-1.721-4.069-1.721-4.069" stroke="#101010" stroke-linecap="round" stroke-miterlimit="10" stroke-width="1.0079"/><path d="m114.769 132.439s3.711 1.553 7.24-3.134" stroke="#101010" stroke-linecap="round" stroke-miterlimit="10" stroke-width="1.0079"/><path d="m119.095 141.899-.836-2.198" stroke="#101010" stroke-linecap="round" stroke-miterlimit="10" stroke-width="1.0079"/><path d="m116.855 142.66-.461-1.475" stroke="#101010" stroke-linecap="round" stroke-miterlimit="10" stroke-width="1.0079"/><path d="m253.97 84.3208s.856 1.1282 0 3.0375" stroke="#000" stroke-linecap="round" stroke-linejoin="round" stroke-width="1.0079"/><path d="m150.153 128.852 6.644 10.241 16.375-2.382-6.413-10.944z" fill="#eadbbd" stroke="#000" stroke-linecap="round" stroke-linejoin="round" stroke-width="1.0079"/><path d="m186.711 128.852s-33 9.528-58.5 1.794l-4.154 13.799s26.923 5.593 38.788 4.879c0 0 10.318 14.002 13.048 16.817 2.731 2.816 9.279 3.433 16.731-3.519 7.452-6.953 18.952-20.25 18.952-20.25l-24.875-13.529z" fill="#eadbbd" stroke="#000" stroke-linecap="round" stroke-linejoin="round" stroke-width="1.0079"/><path d="m162.845 149.324s28.885.695 39.115-6.73" stroke="#000" stroke-linecap="round" stroke-linejoin="round" stroke-width="1.0079"/></svg>