<svg width="82" height="83" viewBox="0 0 82 83" fill="none" xmlns="http://www.w3.org/2000/svg">
<g id="Group">
<path id="Vector" d="M77.1929 41.0226H68.3016C65.6459 41.0226 63.4945 43.1783 63.4945 45.835V58.7539C63.4945 61.4124 61.3412 63.5662 58.6875 63.5662H23.3143C20.6587 63.5662 18.5073 65.7218 18.5073 68.3785V77.2797C18.5073 79.9382 20.6605 82.092 23.3143 82.092H60.7361C63.3918 82.092 65.5133 79.9364 65.5133 77.2797V70.1378C65.5133 67.4793 67.6666 65.5928 70.3204 65.5928H77.1929C79.8486 65.5928 82 63.4372 82 60.7805V45.777C82 43.1184 79.8467 41.0208 77.1929 41.0208V41.0226Z" fill="white"/>
<path id="Vector_2" d="M18.5055 23.3382C18.5055 20.6796 20.6588 18.5258 23.3125 18.5258H58.6651C61.3208 18.5258 63.4722 16.3702 63.4722 13.7135V4.81234C63.4722 2.15377 61.3189 0 58.6651 0H21.2638C18.6082 0 16.4568 2.15564 16.4568 4.81234V11.67C16.4568 14.3286 14.3035 16.4824 11.6497 16.4824H4.80706C2.15141 16.4824 0 18.638 0 21.2947V36.3131C0 38.9717 2.16075 41.0171 4.81639 41.0171H13.7078C16.3634 41.0171 18.5148 38.8614 18.5148 36.2047L18.5074 23.3382H18.5055Z" fill="white"/>
<path id="Vector_3" d="M45.3552 31.6653H36.8149C34.0301 31.6653 31.7725 33.9253 31.7725 36.7132V45.2629C31.7725 48.0507 34.0301 50.3108 36.8149 50.3108H45.3552C48.14 50.3108 50.3975 48.0507 50.3975 45.2629V36.7132C50.3975 33.9253 48.14 31.6653 45.3552 31.6653Z" fill="white"/>
</g>
</svg>
