<svg width="32" height="32" viewBox="0 0 32 32" fill="none" xmlns="http://www.w3.org/2000/svg">
<path d="M23.3958 17.1644L16.9958 23.8044C16.7825 24.0267 16.4981 24.1511 16.1958 24.1511C15.8936 24.1511 15.6269 24.0444 15.4225 23.84C15.2092 23.6356 15.0847 23.36 15.0758 23.0578C15.0758 22.7556 15.1825 22.48 15.3869 22.2667L21.7692 15.6444C22.7558 14.5511 23.2803 13.1289 23.2447 11.6356C23.2092 10.2133 22.6581 8.87111 21.6892 7.84889C20.7292 6.84444 19.4669 6.26667 18.1336 6.23111H17.9736C16.2669 6.23111 14.6581 7.10222 13.6625 8.57778C13.4581 8.88889 13.1114 9.06667 12.7381 9.06667C12.3647 9.06667 12.0181 8.88 11.8136 8.57778C10.8269 7.11111 9.21806 6.23111 7.51139 6.23111C6.13361 6.23111 4.85361 6.79111 3.86694 7.78667C2.81806 8.84444 2.2225 10.3289 2.24028 11.84C2.24917 13.3156 2.80917 14.7022 3.80472 15.7511L13.5558 25.8311C13.9825 26.2756 13.9736 26.9867 13.5292 27.4133C13.3158 27.6178 13.0403 27.7244 12.7558 27.7244C12.4447 27.7244 12.1603 27.6 11.9558 27.3867L2.18694 17.2889C0.791389 15.8311 0.0180558 13.9022 0.000278029 11.8578C-0.0174997 9.75111 0.818056 7.69778 2.28472 6.22222C3.68917 4.8 5.52917 4.00889 7.48472 4C9.4225 4 11.2536 4.74667 12.6492 6.10667L12.7469 6.20444L12.8447 6.10667C14.2314 4.75556 16.0536 4 17.9647 4H18.2136C20.1425 4.06222 21.9558 4.88889 23.3158 6.32C24.6669 7.73333 25.4403 9.60889 25.4847 11.5911C25.5381 13.6889 24.7914 15.6622 23.3958 17.1644Z" fill="#101010"/>
</svg>
