<svg width="96" height="95" viewBox="0 0 96 95" fill="none" xmlns="http://www.w3.org/2000/svg">
<g id="Layer_1" clip-path="url(#clip0_6249_3208)">
<path id="Vector" d="M54.6507 0C62.746 1.66594 69.9368 6.24614 74.8383 12.8686C79.7399 19.4865 82.006 27.6785 81.1983 35.8568C80.3906 44.0396 76.5737 51.635 70.4722 57.1836C64.3707 62.7321 56.423 65.8391 48.1568 65.908C39.8906 65.9768 31.8922 63.0075 25.6983 57.5645C19.5045 52.1215 15.5537 44.5903 14.6076 36.4258C13.6614 28.2614 15.7845 20.0326 20.5707 13.3321C25.3522 6.62705 32.4645 1.92295 40.5276 0.119324C28.5599 1.99638 17.746 8.30217 10.2599 17.7746C2.77373 27.2517 -0.835504 39.1886 0.161419 51.199C1.15834 63.2094 6.68757 74.3983 15.6368 82.5215C24.586 90.6447 36.2953 95.101 48.4106 95C60.526 94.8944 72.1568 90.2408 80.963 81.9662C89.7691 73.6916 95.1045 62.4109 95.8937 50.3867C96.683 38.3626 92.8707 26.4853 85.223 17.1413C77.5706 7.79275 66.6507 1.67053 54.6507 0Z" fill="#35CFFF"/>
<path id="Vector_2" d="M54.6508 0C62.22 1.57415 69.0046 5.70459 73.8508 11.6983C78.5262 16.7283 81.6231 23.0065 82.7631 29.7621C83.9077 36.5176 83.0446 43.4568 80.28 49.7304C77.52 56.0041 72.9785 61.3461 67.2139 65.0956C61.4493 68.8452 54.7108 70.8415 47.82 70.8415C40.9293 70.8415 34.1908 68.8452 28.4262 65.0956C22.6616 61.3461 18.12 56.0087 15.36 49.7304C12.6 43.4568 11.7369 36.513 12.8769 29.7621C14.0169 23.0065 17.1185 16.7283 21.7893 11.6983C26.5477 5.84227 33.1523 1.76232 40.5323 0.119324C28.5646 1.99638 17.7508 8.30217 10.2646 17.7746C2.77849 27.2517 -0.830744 39.1886 0.166179 51.199C1.1631 63.2094 6.69233 74.3983 15.6416 82.5215C24.5908 90.6447 36.2954 95.101 48.4154 95C60.5308 94.8944 72.1616 90.2408 80.9677 81.9662C89.7739 73.6916 95.1093 62.4109 95.8985 50.3867C96.6877 38.3626 92.8754 26.4853 85.2277 17.1413C77.5754 7.79275 66.6554 1.67053 54.6554 0H54.6508Z" fill="white"/>
</g>
<defs>
<clipPath id="clip0_6249_3208">
<rect width="96" height="95" fill="white"/>
</clipPath>
</defs>
</svg>
