<svg width="20" height="20" viewBox="0 0 20 20" fill="none" xmlns="http://www.w3.org/2000/svg">
<path fill-rule="evenodd" clip-rule="evenodd" d="M0 8.32749C0 3.73133 3.72139 0 8.31988 0C12.9172 0 16.6474 3.73016 16.6474 8.32749C16.6474 10.3052 15.958 12.127 14.8032 13.5559L19.7435 18.503C20.0858 18.8458 20.0854 19.4012 19.7426 19.7435C19.3998 20.0858 18.8444 20.0854 18.5021 19.7426L12.9752 14.2081C12.633 13.8655 12.6332 13.3104 12.9756 12.968C14.1624 11.7813 14.893 10.1396 14.893 8.32749C14.893 4.69908 11.9483 1.75439 8.31988 1.75439C4.69264 1.75439 1.75439 4.69791 1.75439 8.32749C1.75439 11.9559 4.69908 14.9006 8.32749 14.9006C8.76775 14.9006 9.2059 14.8538 9.62805 14.7721C10.1037 14.6801 10.5639 14.991 10.6559 15.4666C10.748 15.9423 10.4371 16.4025 9.96142 16.4945C9.44088 16.5953 8.89073 16.655 8.32749 16.655C3.73016 16.655 0 12.9248 0 8.32749Z" fill="#101010"/>
</svg>
