<svg xmlns="http://www.w3.org/2000/svg" width="18" height="18" viewBox="0 0 18 18" fill="none">
  <path d="M17.4977 11.9613C17.822 11.0333 17.9983 10.0373 17.9983 9C17.9983 7.96273 17.8211 6.96674 17.4977 6.0387C17.49 6.01118 17.4805 5.98366 17.4693 5.95786C16.2196 2.48825 12.8945 0 8.99914 0C5.10378 0 1.77867 2.48825 0.528956 5.95786C0.517775 5.98452 0.508314 6.01118 0.500573 6.0387C0.176319 6.96674 0 7.96273 0 8.99914C0 10.0356 0.177179 11.0324 0.500573 11.9604C0.508314 11.988 0.517775 12.0155 0.528956 12.0413C1.77867 15.5118 5.10378 17.9991 8.99914 17.9991C12.8945 17.9991 16.2196 15.5109 17.4693 12.0413C17.4805 12.0155 17.49 11.988 17.4977 11.9604V11.9613ZM8.99914 16.7107C8.65596 16.7107 8.10378 16.0906 7.64191 14.705C7.41915 14.0367 7.24025 13.2678 7.11038 12.4309H10.8879C10.758 13.2669 10.5791 14.0358 10.3564 14.705C9.8945 16.0906 9.34146 16.7107 8.99914 16.7107ZM6.95384 11.1408C6.89191 10.4527 6.85923 9.73538 6.85923 9.00086C6.85923 8.26634 6.89191 7.54903 6.95384 6.86095H11.0444C11.1064 7.54903 11.139 8.26634 11.139 9.00086C11.139 9.73538 11.1064 10.4527 11.0444 11.1408H6.95384ZM1.28928 9C1.28928 8.25774 1.39507 7.53956 1.59203 6.86009H5.66026C5.60006 7.56193 5.56909 8.28182 5.56909 9C5.56909 9.71818 5.60006 10.4381 5.66026 11.1399H1.59203C1.39507 10.4604 1.28928 9.74226 1.28928 9ZM8.99914 1.29014C9.34232 1.29014 9.8945 1.91026 10.3564 3.29587C10.5791 3.96502 10.758 4.73308 10.8879 5.56909H7.11038C7.24025 4.73308 7.41915 3.96416 7.64191 3.29587C8.10378 1.91026 8.65682 1.29014 8.99914 1.29014ZM12.338 6.86009H16.4062C16.6032 7.53956 16.709 8.25774 16.709 9C16.709 9.74226 16.6032 10.4604 16.4062 11.1399H12.338C12.3982 10.4381 12.4292 9.71818 12.4292 9C12.4292 8.28182 12.3982 7.56193 12.338 6.86009ZM15.9022 5.56995H12.1901C11.9604 3.98739 11.5674 2.56823 11.0143 1.55849C13.156 2.13905 14.9295 3.62099 15.9022 5.56995ZM6.98308 1.55763C6.43091 2.56737 6.03698 3.98739 5.80734 5.56995H2.09604C3.06881 3.62099 4.84232 2.13819 6.98394 1.55763H6.98308ZM2.09518 12.43H5.80734C6.03698 14.0126 6.43091 15.4318 6.98308 16.4424C4.84146 15.8618 3.06795 14.3799 2.09518 12.43ZM11.0143 16.4424C11.5665 15.4326 11.9604 14.0126 12.1901 12.43H15.9022C14.9295 14.3799 13.156 15.8618 11.0143 16.4424Z" fill="currentColor"/>
</svg>