<svg width="21" height="26" viewBox="0 0 21 26" fill="none" xmlns="http://www.w3.org/2000/svg">
<path d="M20.2635 3.94878C18.4936 3.94834 17.0537 2.50803 17.0537 0.738167V0.00172262L10.4998 0L3.94627 0.00172262V0.738216C3.94627 2.50808 2.50641 3.94834 0.736493 3.94883L0 3.94903V11.578C0 14.3935 0.839063 17.1109 2.42648 19.4363C4.01395 21.7616 6.23893 23.5328 8.8611 24.5584L10.5 25.1994L12.1389 24.5584C14.7611 23.5328 16.9861 21.7616 18.5735 19.4363C20.1609 17.1109 21 14.3935 21 11.578V3.94898L20.2635 3.94878ZM19.5266 11.578C19.5266 14.0959 18.7762 16.526 17.3567 18.6056C15.937 20.6852 13.9472 22.2691 11.6022 23.1863L10.5 23.6174L9.39777 23.1863C7.05279 22.2692 5.06297 20.6852 3.64334 18.6056C2.22375 16.5261 1.47338 14.0959 1.47338 11.578V5.36409C3.4667 5.04727 5.0455 3.46807 5.36177 1.47471L10.4999 1.47338L15.6383 1.47471C15.9546 3.46807 17.5334 5.04727 19.5267 5.36409V11.578H19.5266Z" fill="white"/>
<path d="M10.5002 4.83838C6.59987 4.83838 3.42676 8.01149 3.42676 11.9118C3.42676 15.8121 6.59987 18.9852 10.5002 18.9852C14.4005 18.9852 17.5736 15.812 17.5736 11.9117C17.5736 8.01144 14.4005 4.83838 10.5002 4.83838ZM10.5002 17.5118C7.41226 17.5118 4.90014 14.9997 4.90014 11.9118C4.90014 8.82393 7.41226 6.31171 10.5002 6.31171C13.5881 6.31171 16.1002 8.82388 16.1002 11.9117C16.1002 14.9996 13.5881 17.5118 10.5002 17.5118Z" fill="white"/>
<path d="M11.2368 8.62566V7.55469H9.76347V8.62566C8.82164 8.79832 8.10547 9.62463 8.10547 10.6156V10.6338C8.10547 11.7496 9.01324 12.6574 10.1291 12.6574H10.8712C11.1746 12.6574 11.4215 12.9043 11.4215 13.2077C11.4215 13.5111 11.1746 13.7579 10.8712 13.7579H10.1291C9.82563 13.7579 9.5788 13.5111 9.5788 13.2077V13.1532H8.10547V13.2077C8.10547 14.1986 8.82164 15.0249 9.76347 15.1976V16.2686H11.2368V15.1976C12.1786 15.0249 12.8948 14.1986 12.8948 13.2077C12.8948 12.0919 11.987 11.184 10.8712 11.184H10.1291C9.82563 11.184 9.5788 10.9372 9.5788 10.6338V10.6156C9.5788 10.3122 9.82563 10.0653 10.1291 10.0653H10.8712C11.1746 10.0653 11.4215 10.3122 11.4215 10.6156V10.6572H12.8948V10.6156C12.8948 9.62459 12.1786 8.79832 11.2368 8.62566Z" fill="white"/>
</svg>
