<?xml version="1.0" encoding="UTF-8" ?>
<!DOCTYPE svg PUBLIC "-//W3C//DTD SVG 1.1//EN" "http://www.w3.org/Graphics/SVG/1.1/DTD/svg11.dtd">
<svg width="1534pt" height="768pt" viewBox="0 0 1534 768" version="1.1" xmlns="http://www.w3.org/2000/svg">
<g id="#d75d00ff">
<path fill="#d75d00" opacity="1.00" d=" M 878.84 79.68 C 896.78 78.87 915.47 79.34 932.14 86.82 C 949.27 94.56 963.21 110.86 965.12 129.96 C 966.46 143.30 965.69 158.04 956.99 169.00 C 945.65 184.12 925.12 188.41 907.20 187.98 C 914.08 175.73 919.32 162.39 921.39 148.43 C 923.23 130.99 922.71 111.09 910.07 97.46 C 896.62 82.64 872.80 84.32 856.84 93.93 C 841.16 104.19 831.59 121.32 825.29 138.53 C 815.90 165.19 812.84 193.52 809.36 221.42 C 808.20 231.39 807.18 241.40 806.37 251.41 C 805.93 253.41 805.98 255.46 805.85 257.50 C 805.40 259.43 805.50 261.43 805.40 263.40 C 804.84 265.43 804.99 267.54 804.99 269.63 L 804.47 270.47 C 804.50 272.44 804.51 274.42 804.43 276.40 C 803.63 279.07 804.33 281.91 803.61 284.60 C 803.60 288.62 802.81 292.60 802.99 296.63 L 802.48 297.48 C 802.48 299.11 802.48 300.75 802.43 302.40 C 801.78 306.03 801.67 309.73 801.37 313.41 C 800.65 318.78 800.49 324.23 799.61 329.59 C 799.51 330.85 799.46 332.13 799.40 333.41 C 794.91 372.77 783.29 412.58 758.43 444.10 C 735.29 473.59 700.80 494.53 663.41 499.38 C 638.32 502.36 612.28 502.22 588.09 494.12 C 587.67 447.47 588.55 400.75 587.58 354.13 C 614.20 349.51 640.84 345.04 667.50 340.62 C 667.56 390.34 667.39 440.06 667.59 489.78 C 691.84 481.81 710.86 462.75 723.27 440.92 C 739.95 411.36 747.41 377.67 752.41 344.40 C 752.46 343.46 752.52 342.53 752.60 341.60 C 753.07 338.95 753.36 336.27 753.65 333.60 C 754.02 331.88 753.99 330.11 754.03 328.38 L 754.51 327.53 C 754.50 326.22 754.52 324.91 754.57 323.61 C 755.22 321.25 754.80 318.76 755.39 316.40 C 756.54 300.41 757.46 284.36 758.42 268.40 C 758.45 263.39 758.78 258.38 759.37 253.41 C 759.59 248.78 760.25 244.19 760.63 239.58 C 764.63 208.27 771.16 176.77 785.52 148.43 C 797.27 124.93 815.09 103.81 838.44 91.27 C 850.85 84.45 864.81 81.00 878.84 79.68 Z" />
<path fill="#d75d00" opacity="1.00" d=" M 963.34 172.34 C 970.18 165.28 980.86 162.85 990.25 165.21 C 1001.13 168.74 1008.43 180.04 1008.33 191.32 C 1008.22 204.05 999.88 216.75 987.68 220.90 C 977.49 223.19 965.86 220.37 958.78 212.40 C 949.98 200.53 952.28 182.05 963.34 172.34 Z" />
<path fill="#d75d00" opacity="1.00" d=" M 1045.57 301.31 C 1063.17 289.85 1083.63 281.12 1105.00 281.99 C 1115.24 281.64 1125.93 283.57 1134.57 289.35 C 1144.13 296.17 1149.24 307.34 1152.30 318.35 C 1156.00 310.27 1159.97 302.32 1163.79 294.29 C 1181.44 293.20 1199.08 291.84 1216.74 290.93 C 1179.04 361.31 1145.85 434.06 1106.35 503.51 C 1153.51 488.40 1192.07 454.80 1224.18 418.17 C 1247.71 376.17 1270.86 333.91 1292.49 290.89 C 1312.23 289.91 1332.02 289.24 1351.79 288.51 C 1329.70 323.59 1306.74 358.17 1285.07 393.48 C 1289.61 388.63 1292.84 382.73 1296.91 377.49 C 1317.05 348.44 1339.90 320.66 1368.56 299.62 C 1381.95 289.65 1397.80 281.12 1415.00 281.97 C 1426.40 281.07 1438.26 286.72 1443.76 296.94 C 1453.22 313.73 1449.05 334.69 1441.63 351.46 C 1428.13 379.28 1409.60 404.21 1393.80 430.70 C 1385.74 443.49 1378.27 457.72 1378.60 473.25 C 1379.11 478.47 1381.12 484.99 1386.94 486.31 C 1392.68 488.34 1398.54 485.41 1403.44 482.57 C 1419.58 473.37 1432.52 459.82 1445.07 446.38 C 1475.25 413.22 1501.57 376.85 1528.20 340.86 C 1530.11 341.93 1532.04 342.93 1534.00 343.97 L 1534.00 344.44 C 1529.46 349.20 1525.97 354.84 1521.89 359.98 C 1496.66 394.40 1471.04 428.67 1441.87 459.87 C 1429.71 472.17 1417.19 484.89 1401.19 492.10 C 1389.23 497.71 1375.35 499.08 1362.50 496.25 C 1348.93 493.13 1340.36 479.95 1337.98 466.96 C 1335.12 449.83 1340.40 432.41 1348.54 417.42 C 1363.40 388.77 1383.38 363.23 1399.70 335.45 C 1403.93 327.85 1407.20 319.52 1407.85 310.78 C 1408.29 304.49 1404.54 297.44 1397.95 296.23 C 1386.35 294.27 1375.96 301.44 1367.36 308.30 C 1335.91 334.53 1311.72 368.05 1288.53 401.48 C 1269.13 429.93 1251.24 459.47 1236.29 490.51 C 1218.91 490.58 1201.57 491.81 1184.20 491.96 C 1193.43 474.14 1203.43 456.72 1212.77 438.96 C 1181.62 470.72 1145.02 499.01 1101.95 512.20 C 1085.74 543.00 1066.20 572.32 1042.00 597.45 C 1000.46 641.48 941.38 671.23 880.00 669.50 C 854.51 669.82 826.81 665.47 807.17 647.88 C 792.70 635.34 785.23 615.98 785.99 597.00 C 784.93 579.25 792.10 561.24 805.12 549.12 C 816.87 537.90 832.90 531.75 848.97 530.50 C 860.58 529.76 872.01 532.03 883.52 533.14 C 883.50 534.74 883.49 536.35 883.50 537.97 C 869.31 537.64 854.42 542.09 844.36 552.45 C 832.71 565.20 828.80 583.15 829.49 600.00 C 828.77 625.45 843.84 652.60 869.30 659.90 C 895.93 666.83 924.25 657.77 946.53 642.82 C 975.55 623.59 998.01 596.24 1017.88 568.02 C 1046.61 527.98 1069.19 484.05 1094.31 441.78 C 1075.38 464.91 1052.66 487.38 1023.00 495.50 C 1007.56 499.12 988.62 499.57 976.84 487.16 C 960.00 469.09 958.84 442.04 963.84 419.09 C 945.66 439.73 927.76 460.94 905.83 477.76 C 893.48 487.08 879.42 494.89 863.96 497.28 C 855.04 497.91 845.45 498.09 837.53 493.27 C 825.80 486.86 820.84 472.74 820.96 460.00 C 821.07 441.14 829.29 423.73 837.21 407.05 C 857.06 368.50 879.32 331.27 900.63 293.53 C 918.47 292.11 936.39 291.52 954.27 290.43 C 927.03 340.11 896.12 387.85 871.99 439.18 C 866.58 452.03 859.13 466.45 864.28 480.56 C 866.57 487.12 874.84 486.12 879.97 483.93 C 897.81 476.61 912.58 463.56 925.86 449.87 C 941.02 435.24 954.25 418.81 967.85 402.76 C 981.41 361.55 1009.25 325.08 1045.57 301.31 M 1071.85 309.86 C 1051.22 329.81 1036.53 355.11 1025.20 381.28 C 1018.81 397.05 1013.02 413.36 1011.35 430.41 C 1010.27 443.40 1010.96 457.26 1017.20 469.00 C 1022.18 476.78 1032.43 478.64 1041.02 477.92 C 1051.32 476.67 1059.84 470.10 1067.30 463.36 C 1083.11 448.58 1095.13 430.28 1105.50 411.42 C 1118.29 387.52 1129.00 362.08 1133.63 335.24 C 1135.24 323.37 1135.22 310.77 1130.71 299.49 C 1128.06 292.85 1121.09 288.59 1114.00 288.96 C 1097.57 288.96 1083.08 298.66 1071.85 309.86 Z" />
<path fill="#d75d00" opacity="1.00" d=" M 431.50 380.56 C 457.93 375.78 484.46 371.56 510.94 367.01 C 511.08 409.34 510.96 451.67 511.00 494.00 C 484.50 494.00 458.00 494.00 431.50 494.00 C 431.49 456.19 431.50 418.38 431.50 380.56 Z" />
<path fill="#d75d00" opacity="1.00" d=" M 315.50 400.08 C 329.31 397.58 343.16 395.33 357.00 393.01 C 357.00 426.67 357.00 460.33 357.00 494.00 C 343.17 494.00 329.35 494.00 315.52 494.00 C 315.48 462.69 315.52 431.39 315.50 400.08 Z" />
</g>
<g id="#eb7217ff">
<path fill="#eb7217" opacity="1.00" d=" M 431.50 104.50 C 458.00 104.50 484.50 104.49 511.00 104.50 C 511.01 164.44 510.98 224.38 511.02 284.32 C 520.02 272.87 530.92 262.41 544.44 256.52 C 560.38 249.42 578.43 248.32 595.59 250.34 C 622.86 252.75 648.80 269.55 660.22 294.72 C 666.84 309.02 667.94 325.08 667.50 340.62 C 640.84 345.04 614.20 349.51 587.58 354.13 L 587.08 354.22 C 586.42 342.81 583.29 330.28 573.95 322.83 C 568.24 318.01 560.52 316.92 553.32 316.69 C 542.66 316.78 531.15 319.54 523.84 327.85 C 513.93 338.25 511.50 353.22 510.94 367.01 C 484.46 371.56 457.93 375.78 431.50 380.56 C 431.50 288.54 431.50 196.52 431.50 104.50 Z" />
<path fill="#eb7217" opacity="1.00" d=" M 315.53 176.50 C 329.35 176.50 343.18 176.50 357.00 176.50 C 357.00 202.67 357.00 228.83 357.00 255.00 C 372.17 255.00 387.33 255.00 402.50 255.00 C 402.50 278.33 402.50 301.67 402.50 325.00 C 387.33 325.00 372.17 325.00 357.00 325.00 C 357.00 347.67 357.00 370.34 357.00 393.01 C 343.16 395.33 329.31 397.58 315.50 400.08 C 315.52 325.55 315.46 251.03 315.53 176.50 Z" />
</g>
<g id="#ff8e39ff">
<path fill="#ff8e39" opacity="1.00" d=" M 34.50 334.70 C 34.49 268.80 34.50 202.90 34.50 137.00 C 97.17 137.00 159.83 137.00 222.50 137.00 C 222.50 163.50 222.50 190.00 222.50 216.50 C 188.50 216.50 154.50 216.50 120.50 216.50 C 120.50 236.00 120.50 255.50 120.50 275.00 C 152.67 275.00 184.83 275.00 217.00 275.00 C 217.00 301.33 217.00 327.67 217.00 354.00 C 184.82 354.05 152.64 353.90 120.46 354.07 C 91.62 348.72 63.23 340.78 34.50 334.70 Z" />
<path fill="#ff8e39" opacity="1.00" d=" M 277.50 255.00 C 277.50 228.83 277.50 202.66 277.50 176.50 C 290.18 176.50 302.86 176.50 315.53 176.50 C 315.46 251.03 315.52 325.55 315.50 400.08 C 302.81 397.30 290.25 393.95 277.50 391.45 C 277.49 369.30 277.50 347.15 277.50 325.00 C 269.16 325.00 260.83 325.00 252.50 325.00 C 252.50 301.67 252.50 278.33 252.50 255.00 C 260.83 255.00 269.16 255.00 277.50 255.00 Z" />
</g>
<g id="#e98234ff">
<path fill="#e98234" opacity="1.00" d=" M 34.50 334.70 C 63.23 340.78 91.62 348.72 120.46 354.07 C 120.56 374.38 120.47 394.69 120.50 415.00 C 154.50 415.00 188.50 415.00 222.50 415.00 C 222.51 441.50 222.50 468.00 222.50 494.50 C 159.83 494.50 97.17 494.50 34.50 494.50 C 34.50 441.23 34.49 387.97 34.50 334.70 Z" />
<path fill="#e98234" opacity="1.00" d=" M 277.50 391.45 C 290.25 393.95 302.81 397.30 315.50 400.08 C 315.52 431.39 315.48 462.69 315.52 494.00 C 302.85 494.00 290.17 494.00 277.50 494.00 C 277.50 459.82 277.49 425.64 277.50 391.45 Z" />
</g>
</svg>
