<svg width="185" height="48" viewBox="0 0 185 48" fill="none" xmlns="http://www.w3.org/2000/svg">
<path d="M38.5939 33.6784C37.7432 32.9221 36.656 32.4967 35.5216 32.4967C34.2454 32.4967 33.0638 33.0167 32.1657 33.962C28.8571 37.5542 25.8793 38.9249 21.6254 38.9249C17.1823 38.9249 14.11 37.507 10.7541 33.9147C9.90333 33.0167 8.67441 32.4495 7.44549 32.4495C6.3111 32.4495 5.1767 32.8749 4.32591 33.6784C2.48253 35.38 2.388 38.2632 4.08958 40.1066C9.19434 45.5422 14.5827 48.0001 21.5781 48.0001C28.4317 48.0001 33.7255 45.5422 38.783 40.1066C40.5319 38.2632 40.4373 35.38 38.5939 33.6784Z" fill="url(#paint0_linear_43968_113057)"/>
<path d="M38.4523 24.6505C41.2977 24.6505 43.6043 22.3438 43.6043 19.4985C43.6043 16.6531 41.2977 14.3464 38.4523 14.3464C35.6069 14.3464 33.3003 16.6531 33.3003 19.4985C33.3003 22.3438 35.6069 24.6505 38.4523 24.6505Z" fill="url(#paint1_linear_43968_113057)"/>
<path d="M2.48261 23.847C0.0720315 22.3817 -0.731501 19.2149 0.733753 16.8043L9.33622 2.48261C10.8015 0.0720263 13.9683 -0.731499 16.3789 0.733755C18.7895 2.19901 19.593 5.36585 18.1277 7.77643L9.52528 22.0981C8.06003 24.5087 4.94046 25.3122 2.48261 23.847Z" fill="url(#paint2_linear_43968_113057)"/>
<path d="M19.1203 23.847C16.7097 22.3817 15.9062 19.2149 17.3715 16.8043L25.9739 2.48261C27.4392 0.0720263 30.606 -0.731499 33.0166 0.733755C35.4271 2.19901 36.2307 5.36585 34.7654 7.77643L26.163 22.0981C24.6977 24.5087 21.5309 25.3122 19.1203 23.847Z" fill="url(#paint3_linear_43968_113057)"/>
<path d="M102.167 9.28883V42.9897C102.167 43.3205 102.073 43.6041 101.836 43.8405C101.6 44.0768 101.316 44.1713 100.985 44.1713H93.5646C93.2337 44.1713 92.9501 44.0768 92.7138 43.8405C92.4774 43.6041 92.3829 43.3205 92.3829 42.9897V24.6976C92.3829 24.6976 82.457 36.1361 82.0789 36.1361C81.7007 36.1361 71.7748 24.6976 71.7748 24.6976V42.9897C71.7748 43.3205 71.6803 43.6041 71.444 43.8405C71.2076 44.0768 70.924 44.1713 70.5932 44.1713H63.1724C62.8415 44.1713 62.5579 44.0768 62.3216 43.8405C62.0852 43.6041 61.9907 43.3205 61.9907 42.9897V9.28883C61.9907 8.95797 62.0852 8.67438 62.3216 8.43805C62.5579 8.20172 62.8415 8.10718 63.1724 8.10718H70.026C70.3568 8.10718 70.6877 8.20171 71.0658 8.39078C71.444 8.57984 71.6803 8.81617 71.8694 9.09977C71.8694 9.09977 81.7953 21.4363 82.0789 21.4363C82.3625 21.4363 92.2411 9.09977 92.2411 9.09977C92.4302 8.81617 92.7138 8.62711 93.0919 8.39078C93.4701 8.20171 93.8009 8.10718 94.1318 8.10718H100.985C101.316 8.10718 101.6 8.20172 101.836 8.43805C102.025 8.67438 102.167 8.95797 102.167 9.28883Z" fill="#666666"/>
<path d="M110.013 9.28883C110.013 8.95797 110.108 8.67438 110.344 8.43805C110.58 8.20172 110.864 8.10718 111.195 8.10718H118.616C118.947 8.10718 119.23 8.20172 119.466 8.43805C119.703 8.67438 119.797 8.95797 119.797 9.28883V29.2825C119.797 30.5587 119.986 31.6458 120.412 32.4493C120.837 33.3001 121.357 33.9618 121.924 34.4345C122.539 34.9071 123.2 35.238 123.862 35.4271C124.571 35.6161 125.186 35.7107 125.753 35.7107C126.32 35.7107 126.934 35.6161 127.643 35.4271C128.352 35.238 128.967 34.9071 129.581 34.4345C130.196 33.9618 130.669 33.3001 131.094 32.4493C131.519 31.5985 131.708 30.5587 131.708 29.2825V9.28883C131.708 8.95797 131.803 8.67438 132.039 8.43805C132.276 8.20172 132.559 8.10718 132.89 8.10718H140.311C140.642 8.10718 140.925 8.20172 141.162 8.43805C141.398 8.67438 141.492 8.95797 141.492 9.28883V29.2825C141.492 31.5985 141.114 33.7255 140.405 35.6634C139.649 37.5541 138.609 39.2084 137.239 40.5318C135.868 41.9026 134.213 42.9424 132.276 43.6514C130.338 44.4077 128.163 44.7385 125.8 44.7385C123.437 44.7385 121.263 44.3604 119.325 43.6514C117.387 42.8951 115.732 41.8553 114.362 40.5318C112.991 39.1611 111.904 37.5541 111.148 35.6634C110.391 33.7728 110.013 31.6458 110.013 29.2825V9.28883V9.28883Z" fill="#666666"/>
<path d="M183.56 8.10718H175.808C174.768 8.10718 173.776 8.57985 173.114 9.38337L165.315 19.1675L157.516 9.38337C156.854 8.57985 155.862 8.10718 154.822 8.10718H147.07C146.361 8.10718 145.983 8.91071 146.408 9.43064L159.643 26.2574L146.456 42.8006C146.03 43.3678 146.408 44.1713 147.117 44.1713H155.294C156.334 44.1713 157.327 43.6987 157.989 42.8479L165.315 33.4892L172.641 42.8479C173.303 43.6987 174.295 44.1713 175.335 44.1713H183.512C184.221 44.1713 184.6 43.3678 184.174 42.8006L170.987 26.2574L184.221 9.43064C184.647 8.91071 184.269 8.10718 183.56 8.10718Z" fill="#666666"/>
<defs>
<linearGradient id="paint0_linear_43968_113057" x1="24.9442" y1="40.593" x2="-0.97398" y2="14.1616" gradientUnits="userSpaceOnUse">
<stop stop-color="#51B9E6"/>
<stop offset="1" stop-color="#00E0DD"/>
</linearGradient>
<linearGradient id="paint1_linear_43968_113057" x1="42.0728" y1="23.2081" x2="18.3521" y2="-0.982367" gradientUnits="userSpaceOnUse">
<stop stop-color="#51B9E6"/>
<stop offset="1" stop-color="#00E0DD"/>
</linearGradient>
<linearGradient id="paint2_linear_43968_113057" x1="30.8939" y1="34.1698" x2="7.1732" y2="9.97937" gradientUnits="userSpaceOnUse">
<stop stop-color="#51B9E6"/>
<stop offset="1" stop-color="#00E0DD"/>
</linearGradient>
<linearGradient id="paint3_linear_43968_113057" x1="39.3689" y1="25.8593" x2="15.6483" y2="1.66888" gradientUnits="userSpaceOnUse">
<stop stop-color="#51B9E6"/>
<stop offset="1" stop-color="#00E0DD"/>
</linearGradient>
</defs>
</svg>
