<svg width="463" height="412" viewBox="0 0 463 412" fill="none" xmlns="http://www.w3.org/2000/svg">
<path fill-rule="evenodd" clip-rule="evenodd" d="M348.915 196.188L299.241 114.423L324.97 72.5164L400.103 196.188H348.915ZM179.827 311.099H280.255L305.325 352H155.208L179.827 311.099ZM280.219 103.358H179.706L155.138 62.3615H305.388L280.219 103.358ZM280.143 289.099H179.678L129.938 207.229L179.678 125.358H280.143L329.881 207.229L280.143 289.099ZM135.628 72.6045L160.635 114.332L110.92 196.162H60.5646L135.628 72.6045ZM60.5416 218.162H110.838L160.694 300.224L135.663 341.813L60.5416 218.162ZM324.937 341.899L299.259 300.005L348.965 218.188H400.094L324.937 341.899ZM429.053 201.469L334.39 45.6505C332.395 42.3665 328.831 40.3615 324.989 40.3615H135.663C131.82 40.3615 128.256 42.3665 126.262 45.6505L31.5996 201.469C29.4676 204.978 29.4666 209.382 31.5986 212.891L126.262 368.71C128.256 371.995 131.82 374 135.663 374H324.989C328.831 374 332.395 371.995 334.39 368.71L429.053 212.891C431.186 209.382 431.186 204.978 429.053 201.469Z" fill="#FD627A"/>
<path fill-rule="evenodd" clip-rule="evenodd" d="M286.844 224.363C281.713 221.114 274.916 222.637 271.665 227.77L252.196 258.509C248.946 263.641 250.471 270.437 255.603 273.688C257.429 274.844 259.466 275.396 261.479 275.396C265.122 275.396 268.688 273.587 270.782 270.281L290.251 239.542C293.502 234.41 291.976 227.614 286.844 224.363Z" fill="#FD627A"/>
<path fill-rule="evenodd" clip-rule="evenodd" d="M302.849 196.058C297.615 192.978 290.87 194.725 287.79 199.962L286.358 202.397C283.278 207.633 285.026 214.375 290.263 217.455C292.014 218.486 293.934 218.976 295.829 218.976C299.599 218.976 303.271 217.036 305.321 213.551L306.753 211.117C309.833 205.88 308.085 199.139 302.849 196.058Z" fill="#FD627A"/>
</svg>
