<svg width="32" height="32" viewBox="0 0 32 32" fill="none" xmlns="http://www.w3.org/2000/svg">
<circle cx="16" cy="16" r="16" fill="#90F8EA" fill-opacity="0.2"/>
<path d="M20.8771 13.9974C20.5285 13.9974 20.2541 14.2793 20.2541 14.6205C20.2541 14.9617 20.5359 15.2436 20.8771 15.2436C21.9082 15.2436 22.7538 16.0818 22.7538 17.1203V22.1198C22.7538 22.4611 22.472 22.7429 22.1307 22.7429C22.0195 22.7429 21.9156 22.7133 21.8192 22.6613L19.9425 21.5783C19.8461 21.5264 19.7422 21.4968 19.631 21.4968H15.8776C14.8465 21.4968 14.0009 20.6585 14.0009 19.6201V18.3665C14.0009 18.0178 13.7191 17.7434 13.3778 17.7434C13.0366 17.7434 12.7548 18.0253 12.7548 18.3665V19.6201C12.7548 21.341 14.1567 22.7429 15.8776 22.7429H19.4604L21.1887 23.7443C21.4706 23.9075 21.7969 23.9965 22.1233 23.9965C23.1544 23.9965 24 23.1583 24 22.1198V17.1203C24 15.3994 22.5981 13.9974 20.8771 13.9974Z" fill="#90F8EA"/>
<path d="M9.87668 18.003C10.2031 18.003 10.5294 17.914 10.8113 17.7508L12.5396 16.7494H16.1224C17.8433 16.7494 19.2452 15.3475 19.2452 13.6266V11.1268C19.2452 9.40588 17.8433 8.00394 16.1224 8.00394H11.1229C9.40195 7.99652 8 9.39847 8 11.1194V16.1189C8 17.15 8.8382 17.9956 9.87668 17.9956V18.003ZM9.25359 11.1268C9.25359 10.0957 10.0918 9.25011 11.1303 9.25011H16.1298C17.1609 9.25011 18.0065 10.0883 18.0065 11.1268V13.6266C18.0065 14.6576 17.1683 15.5032 16.1298 15.5032H12.3764C12.2652 15.5032 12.1613 15.5329 12.0649 15.5848L10.1882 16.6678C10.0918 16.7197 9.98795 16.7494 9.87668 16.7494C9.53547 16.7494 9.25359 16.4675 9.25359 16.1263V11.1268Z" fill="#90F8EA"/>
<path d="M11.1229 12.9961C11.467 12.9961 11.7459 12.7171 11.7459 12.373C11.7459 12.0288 11.467 11.7499 11.1229 11.7499C10.7787 11.7499 10.4998 12.0288 10.4998 12.373C10.4998 12.7171 10.7787 12.9961 11.1229 12.9961Z" fill="#90F8EA"/>
<path d="M13.63 12.9961C13.9742 12.9961 14.2531 12.7171 14.2531 12.373C14.2531 12.0288 13.9742 11.7499 13.63 11.7499C13.2859 11.7499 13.007 12.0288 13.007 12.373C13.007 12.7171 13.2859 12.9961 13.63 12.9961Z" fill="#90F8EA"/>
<path d="M16.1298 12.9961C16.4739 12.9961 16.7529 12.7171 16.7529 12.373C16.7529 12.0288 16.4739 11.7499 16.1298 11.7499C15.7857 11.7499 15.5067 12.0288 15.5067 12.373C15.5067 12.7171 15.7857 12.9961 16.1298 12.9961Z" fill="#90F8EA"/>
</svg>
