<svg width="32" height="32" viewBox="0 0 32 32" fill="none" xmlns="http://www.w3.org/2000/svg">
<circle cx="16" cy="16" r="16" fill="#90F8EA" fill-opacity="0.2"/>
<path d="M22.1835 10.5612C21.0463 10.061 19.8266 9.6925 18.5514 9.48134C18.528 9.47733 18.505 9.48735 18.4932 9.50773C18.3364 9.77536 18.1625 10.1242 18.0408 10.3985C16.6695 10.2017 15.3047 10.2017 13.9616 10.3985C13.84 10.1182 13.6598 9.77536 13.5023 9.50807C13.4904 9.48836 13.4671 9.47833 13.4437 9.48167C12.1692 9.69217 10.9498 10.0607 9.81161 10.5615C9.80185 10.5656 9.79314 10.5722 9.78756 10.5813C7.47489 13.8941 6.84131 17.126 7.15218 20.3178C7.15357 20.3335 7.16263 20.3482 7.17553 20.3579C8.70163 21.4325 10.18 22.0847 11.6312 22.5174C11.6545 22.524 11.6789 22.516 11.6939 22.4976C12.0372 22.0482 12.3431 21.5745 12.6052 21.0763C12.6206 21.0472 12.6059 21.0125 12.5742 21.0008C12.0887 20.8244 11.627 20.6092 11.1823 20.3646C11.1471 20.3449 11.1443 20.2968 11.1767 20.2737C11.2701 20.2066 11.3638 20.1367 11.4531 20.0659C11.4691 20.0529 11.4918 20.0502 11.5106 20.0586C14.4307 21.3369 17.5923 21.3369 20.4779 20.0586C20.4971 20.0499 20.5194 20.0526 20.5361 20.0652C20.6253 20.1357 20.7191 20.2066 20.8132 20.2737C20.8456 20.2968 20.8435 20.3449 20.8083 20.3646C20.3636 20.6139 19.9019 20.824 19.4157 21.0001C19.384 21.0118 19.37 21.0469 19.3854 21.076C19.6534 21.5735 19.9594 22.0472 20.296 22.4966C20.31 22.5157 20.3354 22.5237 20.3587 22.517C21.8165 22.0847 23.2952 21.4321 24.8213 20.3576C24.8346 20.3482 24.8433 20.3339 24.8447 20.3182C25.2169 16.6282 24.2216 13.4226 22.2065 10.5813C22.2016 10.5719 22.1933 10.5649 22.1835 10.5609V10.5612ZM13.0409 18.3743C12.1616 18.3743 11.4374 17.6004 11.4374 16.6502C11.4374 15.7 12.1476 14.9262 13.0409 14.9262C13.9341 14.9262 14.6586 15.7067 14.6443 16.6502C14.6443 17.6004 13.9341 18.3743 13.0409 18.3743ZM18.97 18.3743C18.0907 18.3743 17.3665 17.6004 17.3665 16.6502C17.3665 15.7 18.0767 14.9262 18.97 14.9262C19.8632 14.9262 20.5877 15.7067 20.5734 16.6502C20.5734 17.6004 19.8701 18.3743 18.97 18.3743Z" fill="#90F8EA"/>
</svg>
