<svg width="32" height="32" viewBox="0 0 32 32" fill="none" xmlns="http://www.w3.org/2000/svg">
<circle cx="16" cy="16" r="16" fill="#90F8EA" fill-opacity="0.2"/>
<path fill-rule="evenodd" clip-rule="evenodd" d="M24 16C24 20.4183 20.4183 24 16 24C11.5817 24 8 20.4183 8 16C8 11.5817 11.5817 8 16 8C20.4183 8 24 11.5817 24 16ZM16.7168 13.711C15.3295 14.289 11.3295 15.9306 11.3295 15.9306C10.3815 16.3006 10.9364 16.6474 10.9364 16.6474C10.9364 16.6474 11.7457 16.9249 12.4393 17.1329C13.133 17.341 13.5029 17.1098 13.5029 17.1098C13.5029 17.1098 15.1214 16.0462 16.763 14.9133C17.9191 14.1272 17.6416 14.7746 17.3642 15.052C16.763 15.6532 15.7688 16.6012 14.9364 17.3642C14.5665 17.6879 14.7515 17.9653 14.9133 18.104C15.384 18.5023 16.4927 19.2267 16.996 19.5556C17.1355 19.6467 17.2285 19.7075 17.2486 19.7225C17.3642 19.815 18.0116 20.2312 18.4046 20.1387C18.7977 20.0462 18.8439 19.5144 18.8439 19.5144C18.8439 19.5144 19.1445 17.6185 19.422 15.8844C19.4734 15.5439 19.5248 15.2106 19.5727 14.8998C19.6972 14.0919 19.7983 13.4361 19.815 13.2023C19.8844 12.4162 19.052 12.7399 19.052 12.7399C19.052 12.7399 17.2486 13.4798 16.7168 13.711Z" fill="#90F8EA"/>
</svg>
