<svg width="436" height="515" viewBox="80 40 286 445" fill="none" xmlns="http://www.w3.org/2000/svg">
<mask id="path-1-outside-1_319_762" maskUnits="userSpaceOnUse" x="37.2095" y="19.1655" width="361.331" height="475.832" fill="black">
<rect fill="white" x="37.2095" y="19.1655" width="361.331" height="475.832"/>
<path d="M244.126 389.71C242.242 386.023 240.512 382.373 238.551 378.863C235.339 373.119 232.205 367.304 228.59 361.819C226.374 358.45 223.327 355.633 220.588 352.5C218.39 354.503 216.559 356.27 214.622 357.919C212.016 360.138 209.316 362.238 206.711 364.462C206.144 364.945 205.613 365.683 205.451 366.396C204.308 371.318 201.551 375.276 197.984 378.662C194.5 381.964 190.698 382.462 184.728 380.719C183.852 383.944 182.9 387.153 182.113 390.404C180.385 397.52 178.946 404.681 179.484 412.07C179.546 412.898 179.99 413.811 180.52 414.465C184.418 419.273 187.175 424.421 185.776 431.188C186.741 430.769 187.548 430.431 188.346 430.063C190.356 429.123 192.447 428.86 194.624 429.268C197.883 429.874 201.157 430.442 204.409 431.093C208.091 431.822 210.597 433.992 211.601 437.623C212.638 441.374 211.572 444.616 208.633 447.153C206.658 448.85 204.689 450.59 202.528 452.025C199.788 453.845 197.799 456.355 195.646 458.736C188.682 466.422 180.018 469.155 169.886 467.577C165.484 466.89 162.088 464.369 159.072 461.294C157.748 459.948 156.641 458.403 155.377 456.994C155.055 456.637 154.465 456.2 154.077 456.265C148.17 457.275 143.388 454.592 138.84 451.49C134.265 448.373 131.167 443.742 127.485 439.707C119.343 430.771 115.113 419.992 112.252 408.498C112.037 407.633 111.554 406.799 111.061 406.041C106.749 399.438 102.828 392.628 100.166 385.171C98.9824 381.853 98.4315 378.44 99.3603 374.93C100.141 371.989 102.061 369.889 104.513 368.296C110.714 364.273 116.991 360.364 123.207 356.358C124.786 355.339 126.213 354.079 127.777 353.025C132.694 349.7 137.791 349.74 142.795 352.663C145.063 353.989 147.057 355.806 149.097 357.493C149.736 358.023 150.183 358.192 150.973 357.869C153.246 356.953 155.58 356.184 157.845 355.263C158.382 355.044 158.99 354.538 159.2 354.018C163.538 343.266 167.818 332.502 172.206 321.496C170.341 320.543 168.141 319.383 165.904 318.32C165.497 318.127 164.899 318.298 164.399 318.364C155.625 319.501 146.873 320.771 138.079 321.744C131.586 322.459 125.691 320.769 121.378 315.596C113.538 306.191 111.313 295.618 115.426 283.914C115.56 283.533 115.699 283.151 115.796 282.873C113.941 281.331 112.031 279.957 110.388 278.321C108.947 276.884 107.589 275.462 105.812 274.368C104.375 273.482 103.328 271.973 102.028 270.828C101.391 270.261 100.626 269.715 99.8303 269.476C96.4161 268.455 92.7489 268.008 89.5749 266.513C76.3483 260.284 73.2966 243.217 83.2332 232.197C88.0237 226.882 92.7506 221.5 97.6169 216.25C98.7902 214.989 99.0116 213.737 99.0305 212.137C99.0495 210.383 99.191 208.515 99.8021 206.901C101.52 202.386 105.02 199.986 109.774 199.38C110.378 199.308 110.998 199.32 111.609 199.303C113.453 199.249 113.764 198.804 112.946 197.193C109.282 189.949 105.676 182.668 101.889 175.488C98.0616 168.221 95.2146 160.669 94.434 152.442C93.7289 144.95 94.1587 137.581 97.828 130.809C99.0745 128.506 100.82 126.44 102.527 124.422C103.275 123.534 103.577 122.959 103.128 121.793C102.152 119.273 101.394 116.664 100.59 114.08C98.5781 107.611 100.014 101.669 103.36 96.0194C107.457 89.1033 113.003 83.4748 119.091 78.3508C121.547 76.2802 124.183 74.4231 126.696 72.4138C127.216 71.9987 127.587 71.3785 127.945 70.7972C128.556 69.8017 128.933 68.6113 129.705 67.7699C134.001 63.0832 139.194 60.2516 145.736 60.5209C146.638 60.5554 147.652 60.7063 148.387 61.163C150.024 62.1681 151.676 61.9084 153.404 61.7201C166.486 60.3335 179.31 61.5408 191.77 65.862C195.805 67.2609 199.603 69.1091 202.442 72.5144C202.746 72.8804 203.526 72.9852 204.089 72.9858C210.079 72.9869 216.042 73.2264 221.856 74.8641C224.988 75.7459 227.909 77.0429 230.369 79.2431C233.377 81.9349 235.018 85.3041 235.226 89.3215C235.442 93.4494 235.572 97.5815 235.745 101.925C236.825 102.21 238.259 102.509 239.637 102.957C248.669 105.881 254.011 112.361 256.813 121.137C258.862 127.559 259.716 134.124 257.97 140.777C257.443 142.79 256.578 144.714 255.805 146.837C257.822 148.18 259.746 149.931 260.771 152.396C262.78 157.237 263.282 162.154 261.258 167.163C261.01 167.781 260.986 168.558 261.072 169.228C261.85 175.418 262.897 181.626 262.016 187.866C261.614 190.706 260.506 193.445 259.764 196.239C259.653 196.655 259.592 197.287 259.818 197.57C263.062 201.62 266.524 205.47 271.171 207.948C272.764 208.797 274.6 209.196 276.342 209.737C277.55 210.112 278.571 209.649 279.359 208.732C282.511 205.03 283.756 200.492 284.891 195.918C284.971 195.599 284.607 195.091 284.334 194.777C280.277 190.094 278.538 184.873 280.465 178.743C280.579 178.395 280.512 177.945 280.407 177.58C279.753 175.269 279.002 172.981 278.415 170.656C278.117 169.46 277.533 168.768 276.394 168.255C273.469 166.921 270.89 165.075 269.192 162.264C265.821 156.694 267.789 148.733 273.711 144.854C280.344 140.513 287.262 140.564 294.156 144.338C295.122 144.866 295.767 144.981 296.778 144.482C302.412 141.666 307.946 141.53 313.282 145.317C313.708 145.619 314.305 145.696 314.836 145.837C316.215 146.192 317.645 146.405 318.962 146.915C319.877 147.27 320.384 147.16 321.065 146.49C324.644 142.998 328.829 141.054 333.951 141.766C342.402 142.933 347.117 150.794 344.163 159.146C343.331 161.499 341.836 163.689 340.334 165.72C338.17 168.629 335.672 171.286 333.413 174.126C332.51 175.261 331.697 176.535 331.145 177.87C329.395 182.122 327.233 186.076 323.826 189.251C323.447 189.606 323.192 190.163 323.031 190.677C321.748 194.793 319.188 197.81 315.43 199.907C314.913 200.192 314.475 200.925 314.337 201.53C312.418 209.696 309.784 217.563 304.909 224.498C298.881 233.075 290.928 238.596 280.253 239.57C274.885 240.058 269.662 239.229 264.57 237.529C264.042 237.351 263.507 237.18 262.969 237.021C262.892 237 262.783 237.068 262.423 237.167C262.744 239.846 263.094 242.565 263.383 245.292C263.492 246.3 263.368 247.336 263.476 248.339C263.557 249.016 263.741 249.731 264.072 250.322C267.73 256.898 270.059 263.893 270.484 271.419C271.047 281.498 268.624 290.677 261.837 298.436C257.358 303.559 251.533 305.971 244.95 306.864C244.396 306.937 243.84 307.047 243.289 307.15C243.24 307.155 243.202 307.197 242.97 307.33C242.996 314.675 241.238 321.751 238.044 328.565C239.636 330.027 241.184 331.488 242.772 332.914C251.003 340.317 256.726 349.561 261.847 359.206C265.627 366.33 269.186 373.574 272.89 380.739C273.171 381.281 273.778 381.957 274.299 382.018C280.502 382.712 285.386 385.724 289.19 390.518C290.232 391.83 291.389 392.397 292.938 392.416C297.803 392.483 302.454 391.58 306.957 389.654C310.13 388.296 313.372 386.794 316.733 386.237C327.678 384.419 334.725 389.004 338.096 399.595C340.416 406.876 340.758 414.331 340.321 421.899C340.102 425.658 339.892 429.379 337.809 432.655C334.815 437.371 330.241 440.203 325.176 441.88C316.773 444.669 308.108 446.623 299.224 446.943C291.984 447.203 284.91 445.692 277.883 444.057C276.864 443.82 275.767 443.753 274.724 443.828C267.07 444.398 259.417 444.825 251.784 443.708C248.521 443.232 245.411 442.267 242.728 440.224C240.413 438.458 238.983 436.128 238.648 433.271C238.265 430.024 238.194 426.745 237.898 423.494C237.594 420.131 237.163 416.784 236.817 413.433C236.472 410.082 236.133 406.737 235.862 403.383C235.418 397.871 237.901 393.847 242.358 390.869C242.862 390.53 243.381 390.214 244.123 389.741L244.126 389.71Z"/>
</mask>
<path d="M244.126 389.71C242.242 386.023 240.512 382.373 238.551 378.863C235.339 373.119 232.205 367.304 228.59 361.819C226.374 358.45 223.327 355.633 220.588 352.5C218.39 354.503 216.559 356.27 214.622 357.919C212.016 360.138 209.316 362.238 206.711 364.462C206.144 364.945 205.613 365.683 205.451 366.396C204.308 371.318 201.551 375.276 197.984 378.662C194.5 381.964 190.698 382.462 184.728 380.719C183.852 383.944 182.9 387.153 182.113 390.404C180.385 397.52 178.946 404.681 179.484 412.07C179.546 412.898 179.99 413.811 180.52 414.465C184.418 419.273 187.175 424.421 185.776 431.188C186.741 430.769 187.548 430.431 188.346 430.063C190.356 429.123 192.447 428.86 194.624 429.268C197.883 429.874 201.157 430.442 204.409 431.093C208.091 431.822 210.597 433.992 211.601 437.623C212.638 441.374 211.572 444.616 208.633 447.153C206.658 448.85 204.689 450.59 202.528 452.025C199.788 453.845 197.799 456.355 195.646 458.736C188.682 466.422 180.018 469.155 169.886 467.577C165.484 466.89 162.088 464.369 159.072 461.294C157.748 459.948 156.641 458.403 155.377 456.994C155.055 456.637 154.465 456.2 154.077 456.265C148.17 457.275 143.388 454.592 138.84 451.49C134.265 448.373 131.167 443.742 127.485 439.707C119.343 430.771 115.113 419.992 112.252 408.498C112.037 407.633 111.554 406.799 111.061 406.041C106.749 399.438 102.828 392.628 100.166 385.171C98.9824 381.853 98.4315 378.44 99.3603 374.93C100.141 371.989 102.061 369.889 104.513 368.296C110.714 364.273 116.991 360.364 123.207 356.358C124.786 355.339 126.213 354.079 127.777 353.025C132.694 349.7 137.791 349.74 142.795 352.663C145.063 353.989 147.057 355.806 149.097 357.493C149.736 358.023 150.183 358.192 150.973 357.869C153.246 356.953 155.58 356.184 157.845 355.263C158.382 355.044 158.99 354.538 159.2 354.018C163.538 343.266 167.818 332.502 172.206 321.496C170.341 320.543 168.141 319.383 165.904 318.32C165.497 318.127 164.899 318.298 164.399 318.364C155.625 319.501 146.873 320.771 138.079 321.744C131.586 322.459 125.691 320.769 121.378 315.596C113.538 306.191 111.313 295.618 115.426 283.914C115.56 283.533 115.699 283.151 115.796 282.873C113.941 281.331 112.031 279.957 110.388 278.321C108.947 276.884 107.589 275.462 105.812 274.368C104.375 273.482 103.328 271.973 102.028 270.828C101.391 270.261 100.626 269.715 99.8303 269.476C96.4161 268.455 92.7489 268.008 89.5749 266.513C76.3483 260.284 73.2966 243.217 83.2332 232.197C88.0237 226.882 92.7506 221.5 97.6169 216.25C98.7902 214.989 99.0116 213.737 99.0305 212.137C99.0495 210.383 99.191 208.515 99.8021 206.901C101.52 202.386 105.02 199.986 109.774 199.38C110.378 199.308 110.998 199.32 111.609 199.303C113.453 199.249 113.764 198.804 112.946 197.193C109.282 189.949 105.676 182.668 101.889 175.488C98.0616 168.221 95.2146 160.669 94.434 152.442C93.7289 144.95 94.1587 137.581 97.828 130.809C99.0745 128.506 100.82 126.44 102.527 124.422C103.275 123.534 103.577 122.959 103.128 121.793C102.152 119.273 101.394 116.664 100.59 114.08C98.5781 107.611 100.014 101.669 103.36 96.0194C107.457 89.1033 113.003 83.4748 119.091 78.3508C121.547 76.2802 124.183 74.4231 126.696 72.4138C127.216 71.9987 127.587 71.3785 127.945 70.7972C128.556 69.8017 128.933 68.6113 129.705 67.7699C134.001 63.0832 139.194 60.2516 145.736 60.5209C146.638 60.5554 147.652 60.7063 148.387 61.163C150.024 62.1681 151.676 61.9084 153.404 61.7201C166.486 60.3335 179.31 61.5408 191.77 65.862C195.805 67.2609 199.603 69.1091 202.442 72.5144C202.746 72.8804 203.526 72.9852 204.089 72.9858C210.079 72.9869 216.042 73.2264 221.856 74.8641C224.988 75.7459 227.909 77.0429 230.369 79.2431C233.377 81.9349 235.018 85.3041 235.226 89.3215C235.442 93.4494 235.572 97.5815 235.745 101.925C236.825 102.21 238.259 102.509 239.637 102.957C248.669 105.881 254.011 112.361 256.813 121.137C258.862 127.559 259.716 134.124 257.97 140.777C257.443 142.79 256.578 144.714 255.805 146.837C257.822 148.18 259.746 149.931 260.771 152.396C262.78 157.237 263.282 162.154 261.258 167.163C261.01 167.781 260.986 168.558 261.072 169.228C261.85 175.418 262.897 181.626 262.016 187.866C261.614 190.706 260.506 193.445 259.764 196.239C259.653 196.655 259.592 197.287 259.818 197.57C263.062 201.62 266.524 205.47 271.171 207.948C272.764 208.797 274.6 209.196 276.342 209.737C277.55 210.112 278.571 209.649 279.359 208.732C282.511 205.03 283.756 200.492 284.891 195.918C284.971 195.599 284.607 195.091 284.334 194.777C280.277 190.094 278.538 184.873 280.465 178.743C280.579 178.395 280.512 177.945 280.407 177.58C279.753 175.269 279.002 172.981 278.415 170.656C278.117 169.46 277.533 168.768 276.394 168.255C273.469 166.921 270.89 165.075 269.192 162.264C265.821 156.694 267.789 148.733 273.711 144.854C280.344 140.513 287.262 140.564 294.156 144.338C295.122 144.866 295.767 144.981 296.778 144.482C302.412 141.666 307.946 141.53 313.282 145.317C313.708 145.619 314.305 145.696 314.836 145.837C316.215 146.192 317.645 146.405 318.962 146.915C319.877 147.27 320.384 147.16 321.065 146.49C324.644 142.998 328.829 141.054 333.951 141.766C342.402 142.933 347.117 150.794 344.163 159.146C343.331 161.499 341.836 163.689 340.334 165.72C338.17 168.629 335.672 171.286 333.413 174.126C332.51 175.261 331.697 176.535 331.145 177.87C329.395 182.122 327.233 186.076 323.826 189.251C323.447 189.606 323.192 190.163 323.031 190.677C321.748 194.793 319.188 197.81 315.43 199.907C314.913 200.192 314.475 200.925 314.337 201.53C312.418 209.696 309.784 217.563 304.909 224.498C298.881 233.075 290.928 238.596 280.253 239.57C274.885 240.058 269.662 239.229 264.57 237.529C264.042 237.351 263.507 237.18 262.969 237.021C262.892 237 262.783 237.068 262.423 237.167C262.744 239.846 263.094 242.565 263.383 245.292C263.492 246.3 263.368 247.336 263.476 248.339C263.557 249.016 263.741 249.731 264.072 250.322C267.73 256.898 270.059 263.893 270.484 271.419C271.047 281.498 268.624 290.677 261.837 298.436C257.358 303.559 251.533 305.971 244.95 306.864C244.396 306.937 243.84 307.047 243.289 307.15C243.24 307.155 243.202 307.197 242.97 307.33C242.996 314.675 241.238 321.751 238.044 328.565C239.636 330.027 241.184 331.488 242.772 332.914C251.003 340.317 256.726 349.561 261.847 359.206C265.627 366.33 269.186 373.574 272.89 380.739C273.171 381.281 273.778 381.957 274.299 382.018C280.502 382.712 285.386 385.724 289.19 390.518C290.232 391.83 291.389 392.397 292.938 392.416C297.803 392.483 302.454 391.58 306.957 389.654C310.13 388.296 313.372 386.794 316.733 386.237C327.678 384.419 334.725 389.004 338.096 399.595C340.416 406.876 340.758 414.331 340.321 421.899C340.102 425.658 339.892 429.379 337.809 432.655C334.815 437.371 330.241 440.203 325.176 441.88C316.773 444.669 308.108 446.623 299.224 446.943C291.984 447.203 284.91 445.692 277.883 444.057C276.864 443.82 275.767 443.753 274.724 443.828C267.07 444.398 259.417 444.825 251.784 443.708C248.521 443.232 245.411 442.267 242.728 440.224C240.413 438.458 238.983 436.128 238.648 433.271C238.265 430.024 238.194 426.745 237.898 423.494C237.594 420.131 237.163 416.784 236.817 413.433C236.472 410.082 236.133 406.737 235.862 403.383C235.418 397.871 237.901 393.847 242.358 390.869C242.862 390.53 243.381 390.214 244.123 389.741L244.126 389.71Z" fill="black"/>
<path d="M244.126 389.71C242.242 386.023 240.512 382.373 238.551 378.863C235.339 373.119 232.205 367.304 228.59 361.819C226.374 358.45 223.327 355.633 220.588 352.5C218.39 354.503 216.559 356.27 214.622 357.919C212.016 360.138 209.316 362.238 206.711 364.462C206.144 364.945 205.613 365.683 205.451 366.396C204.308 371.318 201.551 375.276 197.984 378.662C194.5 381.964 190.698 382.462 184.728 380.719C183.852 383.944 182.9 387.153 182.113 390.404C180.385 397.52 178.946 404.681 179.484 412.07C179.546 412.898 179.99 413.811 180.52 414.465C184.418 419.273 187.175 424.421 185.776 431.188C186.741 430.769 187.548 430.431 188.346 430.063C190.356 429.123 192.447 428.86 194.624 429.268C197.883 429.874 201.157 430.442 204.409 431.093C208.091 431.822 210.597 433.992 211.601 437.623C212.638 441.374 211.572 444.616 208.633 447.153C206.658 448.85 204.689 450.59 202.528 452.025C199.788 453.845 197.799 456.355 195.646 458.736C188.682 466.422 180.018 469.155 169.886 467.577C165.484 466.89 162.088 464.369 159.072 461.294C157.748 459.948 156.641 458.403 155.377 456.994C155.055 456.637 154.465 456.2 154.077 456.265C148.17 457.275 143.388 454.592 138.84 451.49C134.265 448.373 131.167 443.742 127.485 439.707C119.343 430.771 115.113 419.992 112.252 408.498C112.037 407.633 111.554 406.799 111.061 406.041C106.749 399.438 102.828 392.628 100.166 385.171C98.9824 381.853 98.4315 378.44 99.3603 374.93C100.141 371.989 102.061 369.889 104.513 368.296C110.714 364.273 116.991 360.364 123.207 356.358C124.786 355.339 126.213 354.079 127.777 353.025C132.694 349.7 137.791 349.74 142.795 352.663C145.063 353.989 147.057 355.806 149.097 357.493C149.736 358.023 150.183 358.192 150.973 357.869C153.246 356.953 155.58 356.184 157.845 355.263C158.382 355.044 158.99 354.538 159.2 354.018C163.538 343.266 167.818 332.502 172.206 321.496C170.341 320.543 168.141 319.383 165.904 318.32C165.497 318.127 164.899 318.298 164.399 318.364C155.625 319.501 146.873 320.771 138.079 321.744C131.586 322.459 125.691 320.769 121.378 315.596C113.538 306.191 111.313 295.618 115.426 283.914C115.56 283.533 115.699 283.151 115.796 282.873C113.941 281.331 112.031 279.957 110.388 278.321C108.947 276.884 107.589 275.462 105.812 274.368C104.375 273.482 103.328 271.973 102.028 270.828C101.391 270.261 100.626 269.715 99.8303 269.476C96.4161 268.455 92.7489 268.008 89.5749 266.513C76.3483 260.284 73.2966 243.217 83.2332 232.197C88.0237 226.882 92.7506 221.5 97.6169 216.25C98.7902 214.989 99.0116 213.737 99.0305 212.137C99.0495 210.383 99.191 208.515 99.8021 206.901C101.52 202.386 105.02 199.986 109.774 199.38C110.378 199.308 110.998 199.32 111.609 199.303C113.453 199.249 113.764 198.804 112.946 197.193C109.282 189.949 105.676 182.668 101.889 175.488C98.0616 168.221 95.2146 160.669 94.434 152.442C93.7289 144.95 94.1587 137.581 97.828 130.809C99.0745 128.506 100.82 126.44 102.527 124.422C103.275 123.534 103.577 122.959 103.128 121.793C102.152 119.273 101.394 116.664 100.59 114.08C98.5781 107.611 100.014 101.669 103.36 96.0194C107.457 89.1033 113.003 83.4748 119.091 78.3508C121.547 76.2802 124.183 74.4231 126.696 72.4138C127.216 71.9987 127.587 71.3785 127.945 70.7972C128.556 69.8017 128.933 68.6113 129.705 67.7699C134.001 63.0832 139.194 60.2516 145.736 60.5209C146.638 60.5554 147.652 60.7063 148.387 61.163C150.024 62.1681 151.676 61.9084 153.404 61.7201C166.486 60.3335 179.31 61.5408 191.77 65.862C195.805 67.2609 199.603 69.1091 202.442 72.5144C202.746 72.8804 203.526 72.9852 204.089 72.9858C210.079 72.9869 216.042 73.2264 221.856 74.8641C224.988 75.7459 227.909 77.0429 230.369 79.2431C233.377 81.9349 235.018 85.3041 235.226 89.3215C235.442 93.4494 235.572 97.5815 235.745 101.925C236.825 102.21 238.259 102.509 239.637 102.957C248.669 105.881 254.011 112.361 256.813 121.137C258.862 127.559 259.716 134.124 257.97 140.777C257.443 142.79 256.578 144.714 255.805 146.837C257.822 148.18 259.746 149.931 260.771 152.396C262.78 157.237 263.282 162.154 261.258 167.163C261.01 167.781 260.986 168.558 261.072 169.228C261.85 175.418 262.897 181.626 262.016 187.866C261.614 190.706 260.506 193.445 259.764 196.239C259.653 196.655 259.592 197.287 259.818 197.57C263.062 201.62 266.524 205.47 271.171 207.948C272.764 208.797 274.6 209.196 276.342 209.737C277.55 210.112 278.571 209.649 279.359 208.732C282.511 205.03 283.756 200.492 284.891 195.918C284.971 195.599 284.607 195.091 284.334 194.777C280.277 190.094 278.538 184.873 280.465 178.743C280.579 178.395 280.512 177.945 280.407 177.58C279.753 175.269 279.002 172.981 278.415 170.656C278.117 169.46 277.533 168.768 276.394 168.255C273.469 166.921 270.89 165.075 269.192 162.264C265.821 156.694 267.789 148.733 273.711 144.854C280.344 140.513 287.262 140.564 294.156 144.338C295.122 144.866 295.767 144.981 296.778 144.482C302.412 141.666 307.946 141.53 313.282 145.317C313.708 145.619 314.305 145.696 314.836 145.837C316.215 146.192 317.645 146.405 318.962 146.915C319.877 147.27 320.384 147.16 321.065 146.49C324.644 142.998 328.829 141.054 333.951 141.766C342.402 142.933 347.117 150.794 344.163 159.146C343.331 161.499 341.836 163.689 340.334 165.72C338.17 168.629 335.672 171.286 333.413 174.126C332.51 175.261 331.697 176.535 331.145 177.87C329.395 182.122 327.233 186.076 323.826 189.251C323.447 189.606 323.192 190.163 323.031 190.677C321.748 194.793 319.188 197.81 315.43 199.907C314.913 200.192 314.475 200.925 314.337 201.53C312.418 209.696 309.784 217.563 304.909 224.498C298.881 233.075 290.928 238.596 280.253 239.57C274.885 240.058 269.662 239.229 264.57 237.529C264.042 237.351 263.507 237.18 262.969 237.021C262.892 237 262.783 237.068 262.423 237.167C262.744 239.846 263.094 242.565 263.383 245.292C263.492 246.3 263.368 247.336 263.476 248.339C263.557 249.016 263.741 249.731 264.072 250.322C267.73 256.898 270.059 263.893 270.484 271.419C271.047 281.498 268.624 290.677 261.837 298.436C257.358 303.559 251.533 305.971 244.95 306.864C244.396 306.937 243.84 307.047 243.289 307.15C243.24 307.155 243.202 307.197 242.97 307.33C242.996 314.675 241.238 321.751 238.044 328.565C239.636 330.027 241.184 331.488 242.772 332.914C251.003 340.317 256.726 349.561 261.847 359.206C265.627 366.33 269.186 373.574 272.89 380.739C273.171 381.281 273.778 381.957 274.299 382.018C280.502 382.712 285.386 385.724 289.19 390.518C290.232 391.83 291.389 392.397 292.938 392.416C297.803 392.483 302.454 391.58 306.957 389.654C310.13 388.296 313.372 386.794 316.733 386.237C327.678 384.419 334.725 389.004 338.096 399.595C340.416 406.876 340.758 414.331 340.321 421.899C340.102 425.658 339.892 429.379 337.809 432.655C334.815 437.371 330.241 440.203 325.176 441.88C316.773 444.669 308.108 446.623 299.224 446.943C291.984 447.203 284.91 445.692 277.883 444.057C276.864 443.82 275.767 443.753 274.724 443.828C267.07 444.398 259.417 444.825 251.784 443.708C248.521 443.232 245.411 442.267 242.728 440.224C240.413 438.458 238.983 436.128 238.648 433.271C238.265 430.024 238.194 426.745 237.898 423.494C237.594 420.131 237.163 416.784 236.817 413.433C236.472 410.082 236.133 406.737 235.862 403.383C235.418 397.871 237.901 393.847 242.358 390.869C242.862 390.53 243.381 390.214 244.123 389.741L244.126 389.71Z" stroke="#C9C9C9" stroke-width="32.602" mask="url(#path-1-outside-1_319_762)"/>
<mask id="path-2-outside-2_319_762" maskUnits="userSpaceOnUse" x="39.4331" y="21.389" width="357.003" height="472.378" fill="black">
<rect fill="white" x="39.4331" y="21.389" width="357.003" height="472.378"/>
<path d="M244.126 389.71C242.242 386.023 240.512 382.373 238.551 378.863C235.339 373.119 232.205 367.304 228.59 361.819C226.374 358.45 223.327 355.633 220.588 352.5C218.39 354.503 216.559 356.27 214.622 357.919C212.016 360.138 209.316 362.238 206.711 364.462C206.144 364.945 205.613 365.683 205.451 366.396C204.308 371.318 201.551 375.276 197.984 378.662C194.5 381.964 190.698 382.462 184.728 380.719C183.852 383.944 182.9 387.153 182.113 390.404C180.385 397.52 178.946 404.681 179.484 412.07C179.546 412.898 179.99 413.811 180.52 414.465C184.418 419.273 187.175 424.421 185.776 431.188C186.741 430.769 187.548 430.431 188.346 430.063C190.356 429.123 192.447 428.86 194.624 429.268C197.883 429.874 201.157 430.442 204.409 431.093C208.091 431.822 210.597 433.992 211.601 437.623C212.638 441.374 211.572 444.616 208.633 447.153C206.658 448.85 204.689 450.59 202.528 452.025C199.788 453.845 197.799 456.355 195.646 458.736C188.682 466.422 180.018 469.155 169.886 467.577C165.484 466.89 162.088 464.369 159.072 461.294C157.748 459.948 156.641 458.403 155.377 456.994C155.055 456.637 154.465 456.2 154.077 456.265C148.17 457.275 143.388 454.592 138.84 451.49C134.265 448.373 131.167 443.742 127.485 439.707C119.343 430.771 115.113 419.992 112.252 408.498C112.037 407.633 111.554 406.799 111.061 406.041C106.749 399.438 102.828 392.628 100.166 385.171C98.9824 381.853 98.4315 378.44 99.3603 374.93C100.141 371.989 102.061 369.889 104.513 368.296C110.714 364.273 116.991 360.364 123.207 356.358C124.786 355.339 126.213 354.079 127.777 353.025C132.694 349.7 137.791 349.74 142.795 352.663C145.063 353.989 147.057 355.806 149.097 357.493C149.736 358.023 150.183 358.192 150.973 357.869C153.246 356.953 155.58 356.184 157.845 355.263C158.382 355.044 158.99 354.538 159.2 354.018C163.538 343.266 167.818 332.502 172.206 321.496C170.341 320.543 168.141 319.383 165.904 318.32C165.497 318.127 164.899 318.298 164.399 318.364C155.625 319.501 146.873 320.771 138.079 321.744C131.586 322.459 125.691 320.769 121.378 315.596C113.538 306.191 111.313 295.618 115.426 283.914C115.56 283.533 115.699 283.151 115.796 282.873C113.941 281.331 112.031 279.957 110.388 278.321C108.947 276.884 107.589 275.462 105.812 274.368C104.375 273.482 103.328 271.973 102.028 270.828C101.391 270.261 100.626 269.715 99.8303 269.476C96.4161 268.455 92.7489 268.008 89.5749 266.513C76.3483 260.284 73.2966 243.217 83.2332 232.197C88.0237 226.882 92.7506 221.5 97.6169 216.25C98.7902 214.989 99.0116 213.737 99.0305 212.137C99.0495 210.383 99.191 208.515 99.8021 206.901C101.52 202.386 105.02 199.986 109.774 199.38C110.378 199.308 110.998 199.32 111.609 199.303C113.453 199.249 113.764 198.804 112.946 197.193C109.282 189.949 105.676 182.668 101.889 175.488C98.0616 168.221 95.2146 160.669 94.434 152.442C93.7289 144.95 94.1587 137.581 97.828 130.809C99.0745 128.506 100.82 126.44 102.527 124.422C103.275 123.534 103.577 122.959 103.128 121.793C102.152 119.273 101.394 116.664 100.59 114.08C98.5781 107.611 100.014 101.669 103.36 96.0194C107.457 89.1033 113.003 83.4748 119.091 78.3508C121.547 76.2802 124.183 74.4231 126.696 72.4138C127.216 71.9987 127.587 71.3785 127.945 70.7972C128.556 69.8017 128.933 68.6113 129.705 67.7699C134.001 63.0832 139.194 60.2516 145.736 60.5209C146.638 60.5554 147.652 60.7063 148.387 61.163C150.024 62.1681 151.676 61.9084 153.404 61.7201C166.486 60.3335 179.31 61.5408 191.77 65.862C195.805 67.2609 199.603 69.1091 202.442 72.5144C202.746 72.8804 203.526 72.9852 204.089 72.9858C210.079 72.9869 216.042 73.2264 221.856 74.8641C224.988 75.7459 227.909 77.0429 230.369 79.2431C233.377 81.9349 235.018 85.3041 235.226 89.3215C235.442 93.4494 235.572 97.5815 235.745 101.925C236.825 102.21 238.259 102.509 239.637 102.957C248.669 105.881 254.011 112.361 256.813 121.137C258.862 127.559 259.716 134.124 257.97 140.777C257.443 142.79 256.578 144.714 255.805 146.837C257.822 148.18 259.746 149.931 260.771 152.396C262.78 157.237 263.282 162.154 261.258 167.163C261.01 167.781 260.986 168.558 261.072 169.228C261.85 175.418 262.897 181.626 262.016 187.866C261.614 190.706 260.506 193.445 259.764 196.239C259.653 196.655 259.592 197.287 259.818 197.57C263.062 201.62 266.524 205.47 271.171 207.948C272.764 208.797 274.6 209.196 276.342 209.737C277.55 210.112 278.571 209.649 279.359 208.732C282.511 205.03 283.756 200.492 284.891 195.918C284.971 195.599 284.607 195.091 284.334 194.777C280.277 190.094 278.538 184.873 280.465 178.743C280.579 178.395 280.512 177.945 280.407 177.58C279.753 175.269 279.002 172.981 278.415 170.656C278.117 169.46 277.533 168.768 276.394 168.255C273.469 166.921 270.89 165.075 269.192 162.264C265.821 156.694 267.789 148.733 273.711 144.854C280.344 140.513 287.262 140.564 294.156 144.338C295.122 144.866 295.767 144.981 296.778 144.482C302.412 141.666 307.946 141.53 313.282 145.317C313.708 145.619 314.305 145.696 314.836 145.837C316.215 146.192 317.645 146.405 318.962 146.915C319.877 147.27 320.384 147.16 321.065 146.49C324.644 142.998 328.829 141.054 333.951 141.766C342.402 142.933 347.117 150.794 344.163 159.146C343.331 161.499 341.836 163.689 340.334 165.72C338.17 168.629 335.672 171.286 333.413 174.126C332.51 175.261 331.697 176.535 331.145 177.87C329.395 182.122 327.233 186.076 323.826 189.251C323.447 189.606 323.192 190.163 323.031 190.677C321.748 194.793 319.188 197.81 315.43 199.907C314.913 200.192 314.475 200.925 314.337 201.53C312.418 209.696 309.784 217.563 304.909 224.498C298.881 233.075 290.928 238.596 280.253 239.57C274.885 240.058 269.662 239.229 264.57 237.529C264.042 237.351 263.507 237.18 262.969 237.021C262.892 237 262.783 237.068 262.423 237.167C262.744 239.846 263.094 242.565 263.383 245.292C263.492 246.3 263.368 247.336 263.476 248.339C263.557 249.016 263.741 249.731 264.072 250.322C267.73 256.898 270.059 263.893 270.484 271.419C271.047 281.498 268.624 290.677 261.837 298.436C257.358 303.559 251.533 305.971 244.95 306.864C244.396 306.937 243.84 307.047 243.289 307.15C243.24 307.155 243.202 307.197 242.97 307.33C242.996 314.675 241.238 321.751 238.044 328.565C239.636 330.027 241.184 331.488 242.772 332.914C251.003 340.317 256.726 349.561 261.847 359.206C265.627 366.33 269.186 373.574 272.89 380.739C273.171 381.281 273.778 381.957 274.299 382.018C280.502 382.712 285.386 385.724 289.19 390.518C290.232 391.83 291.389 392.397 292.938 392.416C297.803 392.483 302.454 391.58 306.957 389.654C310.13 388.296 313.372 386.794 316.733 386.237C327.678 384.419 334.725 389.004 338.096 399.595C340.416 406.876 340.758 414.331 340.321 421.899C340.102 425.658 339.892 429.379 337.809 432.655C334.815 437.371 330.241 440.203 325.176 441.88C316.773 444.669 308.108 446.623 299.224 446.943C291.984 447.203 284.91 445.692 277.883 444.057C276.864 443.82 275.767 443.753 274.724 443.828C267.07 444.398 259.417 444.825 251.784 443.708C248.521 443.232 245.411 442.267 242.728 440.224C240.413 438.458 238.983 436.128 238.648 433.271C238.265 430.024 238.194 426.745 237.898 423.494C237.594 420.131 237.163 416.784 236.817 413.433C236.472 410.082 236.133 406.737 235.862 403.383C235.418 397.871 237.901 393.847 242.358 390.869C242.862 390.53 243.381 390.214 244.123 389.741L244.126 389.71Z"/>
</mask>
<path d="M244.126 389.71C242.242 386.023 240.512 382.373 238.551 378.863C235.339 373.119 232.205 367.304 228.59 361.819C226.374 358.45 223.327 355.633 220.588 352.5C218.39 354.503 216.559 356.27 214.622 357.919C212.016 360.138 209.316 362.238 206.711 364.462C206.144 364.945 205.613 365.683 205.451 366.396C204.308 371.318 201.551 375.276 197.984 378.662C194.5 381.964 190.698 382.462 184.728 380.719C183.852 383.944 182.9 387.153 182.113 390.404C180.385 397.52 178.946 404.681 179.484 412.07C179.546 412.898 179.99 413.811 180.52 414.465C184.418 419.273 187.175 424.421 185.776 431.188C186.741 430.769 187.548 430.431 188.346 430.063C190.356 429.123 192.447 428.86 194.624 429.268C197.883 429.874 201.157 430.442 204.409 431.093C208.091 431.822 210.597 433.992 211.601 437.623C212.638 441.374 211.572 444.616 208.633 447.153C206.658 448.85 204.689 450.59 202.528 452.025C199.788 453.845 197.799 456.355 195.646 458.736C188.682 466.422 180.018 469.155 169.886 467.577C165.484 466.89 162.088 464.369 159.072 461.294C157.748 459.948 156.641 458.403 155.377 456.994C155.055 456.637 154.465 456.2 154.077 456.265C148.17 457.275 143.388 454.592 138.84 451.49C134.265 448.373 131.167 443.742 127.485 439.707C119.343 430.771 115.113 419.992 112.252 408.498C112.037 407.633 111.554 406.799 111.061 406.041C106.749 399.438 102.828 392.628 100.166 385.171C98.9824 381.853 98.4315 378.44 99.3603 374.93C100.141 371.989 102.061 369.889 104.513 368.296C110.714 364.273 116.991 360.364 123.207 356.358C124.786 355.339 126.213 354.079 127.777 353.025C132.694 349.7 137.791 349.74 142.795 352.663C145.063 353.989 147.057 355.806 149.097 357.493C149.736 358.023 150.183 358.192 150.973 357.869C153.246 356.953 155.58 356.184 157.845 355.263C158.382 355.044 158.99 354.538 159.2 354.018C163.538 343.266 167.818 332.502 172.206 321.496C170.341 320.543 168.141 319.383 165.904 318.32C165.497 318.127 164.899 318.298 164.399 318.364C155.625 319.501 146.873 320.771 138.079 321.744C131.586 322.459 125.691 320.769 121.378 315.596C113.538 306.191 111.313 295.618 115.426 283.914C115.56 283.533 115.699 283.151 115.796 282.873C113.941 281.331 112.031 279.957 110.388 278.321C108.947 276.884 107.589 275.462 105.812 274.368C104.375 273.482 103.328 271.973 102.028 270.828C101.391 270.261 100.626 269.715 99.8303 269.476C96.4161 268.455 92.7489 268.008 89.5749 266.513C76.3483 260.284 73.2966 243.217 83.2332 232.197C88.0237 226.882 92.7506 221.5 97.6169 216.25C98.7902 214.989 99.0116 213.737 99.0305 212.137C99.0495 210.383 99.191 208.515 99.8021 206.901C101.52 202.386 105.02 199.986 109.774 199.38C110.378 199.308 110.998 199.32 111.609 199.303C113.453 199.249 113.764 198.804 112.946 197.193C109.282 189.949 105.676 182.668 101.889 175.488C98.0616 168.221 95.2146 160.669 94.434 152.442C93.7289 144.95 94.1587 137.581 97.828 130.809C99.0745 128.506 100.82 126.44 102.527 124.422C103.275 123.534 103.577 122.959 103.128 121.793C102.152 119.273 101.394 116.664 100.59 114.08C98.5781 107.611 100.014 101.669 103.36 96.0194C107.457 89.1033 113.003 83.4748 119.091 78.3508C121.547 76.2802 124.183 74.4231 126.696 72.4138C127.216 71.9987 127.587 71.3785 127.945 70.7972C128.556 69.8017 128.933 68.6113 129.705 67.7699C134.001 63.0832 139.194 60.2516 145.736 60.5209C146.638 60.5554 147.652 60.7063 148.387 61.163C150.024 62.1681 151.676 61.9084 153.404 61.7201C166.486 60.3335 179.31 61.5408 191.77 65.862C195.805 67.2609 199.603 69.1091 202.442 72.5144C202.746 72.8804 203.526 72.9852 204.089 72.9858C210.079 72.9869 216.042 73.2264 221.856 74.8641C224.988 75.7459 227.909 77.0429 230.369 79.2431C233.377 81.9349 235.018 85.3041 235.226 89.3215C235.442 93.4494 235.572 97.5815 235.745 101.925C236.825 102.21 238.259 102.509 239.637 102.957C248.669 105.881 254.011 112.361 256.813 121.137C258.862 127.559 259.716 134.124 257.97 140.777C257.443 142.79 256.578 144.714 255.805 146.837C257.822 148.18 259.746 149.931 260.771 152.396C262.78 157.237 263.282 162.154 261.258 167.163C261.01 167.781 260.986 168.558 261.072 169.228C261.85 175.418 262.897 181.626 262.016 187.866C261.614 190.706 260.506 193.445 259.764 196.239C259.653 196.655 259.592 197.287 259.818 197.57C263.062 201.62 266.524 205.47 271.171 207.948C272.764 208.797 274.6 209.196 276.342 209.737C277.55 210.112 278.571 209.649 279.359 208.732C282.511 205.03 283.756 200.492 284.891 195.918C284.971 195.599 284.607 195.091 284.334 194.777C280.277 190.094 278.538 184.873 280.465 178.743C280.579 178.395 280.512 177.945 280.407 177.58C279.753 175.269 279.002 172.981 278.415 170.656C278.117 169.46 277.533 168.768 276.394 168.255C273.469 166.921 270.89 165.075 269.192 162.264C265.821 156.694 267.789 148.733 273.711 144.854C280.344 140.513 287.262 140.564 294.156 144.338C295.122 144.866 295.767 144.981 296.778 144.482C302.412 141.666 307.946 141.53 313.282 145.317C313.708 145.619 314.305 145.696 314.836 145.837C316.215 146.192 317.645 146.405 318.962 146.915C319.877 147.27 320.384 147.16 321.065 146.49C324.644 142.998 328.829 141.054 333.951 141.766C342.402 142.933 347.117 150.794 344.163 159.146C343.331 161.499 341.836 163.689 340.334 165.72C338.17 168.629 335.672 171.286 333.413 174.126C332.51 175.261 331.697 176.535 331.145 177.87C329.395 182.122 327.233 186.076 323.826 189.251C323.447 189.606 323.192 190.163 323.031 190.677C321.748 194.793 319.188 197.81 315.43 199.907C314.913 200.192 314.475 200.925 314.337 201.53C312.418 209.696 309.784 217.563 304.909 224.498C298.881 233.075 290.928 238.596 280.253 239.57C274.885 240.058 269.662 239.229 264.57 237.529C264.042 237.351 263.507 237.18 262.969 237.021C262.892 237 262.783 237.068 262.423 237.167C262.744 239.846 263.094 242.565 263.383 245.292C263.492 246.3 263.368 247.336 263.476 248.339C263.557 249.016 263.741 249.731 264.072 250.322C267.73 256.898 270.059 263.893 270.484 271.419C271.047 281.498 268.624 290.677 261.837 298.436C257.358 303.559 251.533 305.971 244.95 306.864C244.396 306.937 243.84 307.047 243.289 307.15C243.24 307.155 243.202 307.197 242.97 307.33C242.996 314.675 241.238 321.751 238.044 328.565C239.636 330.027 241.184 331.488 242.772 332.914C251.003 340.317 256.726 349.561 261.847 359.206C265.627 366.33 269.186 373.574 272.89 380.739C273.171 381.281 273.778 381.957 274.299 382.018C280.502 382.712 285.386 385.724 289.19 390.518C290.232 391.83 291.389 392.397 292.938 392.416C297.803 392.483 302.454 391.58 306.957 389.654C310.13 388.296 313.372 386.794 316.733 386.237C327.678 384.419 334.725 389.004 338.096 399.595C340.416 406.876 340.758 414.331 340.321 421.899C340.102 425.658 339.892 429.379 337.809 432.655C334.815 437.371 330.241 440.203 325.176 441.88C316.773 444.669 308.108 446.623 299.224 446.943C291.984 447.203 284.91 445.692 277.883 444.057C276.864 443.82 275.767 443.753 274.724 443.828C267.07 444.398 259.417 444.825 251.784 443.708C248.521 443.232 245.411 442.267 242.728 440.224C240.413 438.458 238.983 436.128 238.648 433.271C238.265 430.024 238.194 426.745 237.898 423.494C237.594 420.131 237.163 416.784 236.817 413.433C236.472 410.082 236.133 406.737 235.862 403.383C235.418 397.871 237.901 393.847 242.358 390.869C242.862 390.53 243.381 390.214 244.123 389.741L244.126 389.71Z" fill="#190602"/>
<path d="M244.126 389.71C242.242 386.023 240.512 382.373 238.551 378.863C235.339 373.119 232.205 367.304 228.59 361.819C226.374 358.45 223.327 355.633 220.588 352.5C218.39 354.503 216.559 356.27 214.622 357.919C212.016 360.138 209.316 362.238 206.711 364.462C206.144 364.945 205.613 365.683 205.451 366.396C204.308 371.318 201.551 375.276 197.984 378.662C194.5 381.964 190.698 382.462 184.728 380.719C183.852 383.944 182.9 387.153 182.113 390.404C180.385 397.52 178.946 404.681 179.484 412.07C179.546 412.898 179.99 413.811 180.52 414.465C184.418 419.273 187.175 424.421 185.776 431.188C186.741 430.769 187.548 430.431 188.346 430.063C190.356 429.123 192.447 428.86 194.624 429.268C197.883 429.874 201.157 430.442 204.409 431.093C208.091 431.822 210.597 433.992 211.601 437.623C212.638 441.374 211.572 444.616 208.633 447.153C206.658 448.85 204.689 450.59 202.528 452.025C199.788 453.845 197.799 456.355 195.646 458.736C188.682 466.422 180.018 469.155 169.886 467.577C165.484 466.89 162.088 464.369 159.072 461.294C157.748 459.948 156.641 458.403 155.377 456.994C155.055 456.637 154.465 456.2 154.077 456.265C148.17 457.275 143.388 454.592 138.84 451.49C134.265 448.373 131.167 443.742 127.485 439.707C119.343 430.771 115.113 419.992 112.252 408.498C112.037 407.633 111.554 406.799 111.061 406.041C106.749 399.438 102.828 392.628 100.166 385.171C98.9824 381.853 98.4315 378.44 99.3603 374.93C100.141 371.989 102.061 369.889 104.513 368.296C110.714 364.273 116.991 360.364 123.207 356.358C124.786 355.339 126.213 354.079 127.777 353.025C132.694 349.7 137.791 349.74 142.795 352.663C145.063 353.989 147.057 355.806 149.097 357.493C149.736 358.023 150.183 358.192 150.973 357.869C153.246 356.953 155.58 356.184 157.845 355.263C158.382 355.044 158.99 354.538 159.2 354.018C163.538 343.266 167.818 332.502 172.206 321.496C170.341 320.543 168.141 319.383 165.904 318.32C165.497 318.127 164.899 318.298 164.399 318.364C155.625 319.501 146.873 320.771 138.079 321.744C131.586 322.459 125.691 320.769 121.378 315.596C113.538 306.191 111.313 295.618 115.426 283.914C115.56 283.533 115.699 283.151 115.796 282.873C113.941 281.331 112.031 279.957 110.388 278.321C108.947 276.884 107.589 275.462 105.812 274.368C104.375 273.482 103.328 271.973 102.028 270.828C101.391 270.261 100.626 269.715 99.8303 269.476C96.4161 268.455 92.7489 268.008 89.5749 266.513C76.3483 260.284 73.2966 243.217 83.2332 232.197C88.0237 226.882 92.7506 221.5 97.6169 216.25C98.7902 214.989 99.0116 213.737 99.0305 212.137C99.0495 210.383 99.191 208.515 99.8021 206.901C101.52 202.386 105.02 199.986 109.774 199.38C110.378 199.308 110.998 199.32 111.609 199.303C113.453 199.249 113.764 198.804 112.946 197.193C109.282 189.949 105.676 182.668 101.889 175.488C98.0616 168.221 95.2146 160.669 94.434 152.442C93.7289 144.95 94.1587 137.581 97.828 130.809C99.0745 128.506 100.82 126.44 102.527 124.422C103.275 123.534 103.577 122.959 103.128 121.793C102.152 119.273 101.394 116.664 100.59 114.08C98.5781 107.611 100.014 101.669 103.36 96.0194C107.457 89.1033 113.003 83.4748 119.091 78.3508C121.547 76.2802 124.183 74.4231 126.696 72.4138C127.216 71.9987 127.587 71.3785 127.945 70.7972C128.556 69.8017 128.933 68.6113 129.705 67.7699C134.001 63.0832 139.194 60.2516 145.736 60.5209C146.638 60.5554 147.652 60.7063 148.387 61.163C150.024 62.1681 151.676 61.9084 153.404 61.7201C166.486 60.3335 179.31 61.5408 191.77 65.862C195.805 67.2609 199.603 69.1091 202.442 72.5144C202.746 72.8804 203.526 72.9852 204.089 72.9858C210.079 72.9869 216.042 73.2264 221.856 74.8641C224.988 75.7459 227.909 77.0429 230.369 79.2431C233.377 81.9349 235.018 85.3041 235.226 89.3215C235.442 93.4494 235.572 97.5815 235.745 101.925C236.825 102.21 238.259 102.509 239.637 102.957C248.669 105.881 254.011 112.361 256.813 121.137C258.862 127.559 259.716 134.124 257.97 140.777C257.443 142.79 256.578 144.714 255.805 146.837C257.822 148.18 259.746 149.931 260.771 152.396C262.78 157.237 263.282 162.154 261.258 167.163C261.01 167.781 260.986 168.558 261.072 169.228C261.85 175.418 262.897 181.626 262.016 187.866C261.614 190.706 260.506 193.445 259.764 196.239C259.653 196.655 259.592 197.287 259.818 197.57C263.062 201.62 266.524 205.47 271.171 207.948C272.764 208.797 274.6 209.196 276.342 209.737C277.55 210.112 278.571 209.649 279.359 208.732C282.511 205.03 283.756 200.492 284.891 195.918C284.971 195.599 284.607 195.091 284.334 194.777C280.277 190.094 278.538 184.873 280.465 178.743C280.579 178.395 280.512 177.945 280.407 177.58C279.753 175.269 279.002 172.981 278.415 170.656C278.117 169.46 277.533 168.768 276.394 168.255C273.469 166.921 270.89 165.075 269.192 162.264C265.821 156.694 267.789 148.733 273.711 144.854C280.344 140.513 287.262 140.564 294.156 144.338C295.122 144.866 295.767 144.981 296.778 144.482C302.412 141.666 307.946 141.53 313.282 145.317C313.708 145.619 314.305 145.696 314.836 145.837C316.215 146.192 317.645 146.405 318.962 146.915C319.877 147.27 320.384 147.16 321.065 146.49C324.644 142.998 328.829 141.054 333.951 141.766C342.402 142.933 347.117 150.794 344.163 159.146C343.331 161.499 341.836 163.689 340.334 165.72C338.17 168.629 335.672 171.286 333.413 174.126C332.51 175.261 331.697 176.535 331.145 177.87C329.395 182.122 327.233 186.076 323.826 189.251C323.447 189.606 323.192 190.163 323.031 190.677C321.748 194.793 319.188 197.81 315.43 199.907C314.913 200.192 314.475 200.925 314.337 201.53C312.418 209.696 309.784 217.563 304.909 224.498C298.881 233.075 290.928 238.596 280.253 239.57C274.885 240.058 269.662 239.229 264.57 237.529C264.042 237.351 263.507 237.18 262.969 237.021C262.892 237 262.783 237.068 262.423 237.167C262.744 239.846 263.094 242.565 263.383 245.292C263.492 246.3 263.368 247.336 263.476 248.339C263.557 249.016 263.741 249.731 264.072 250.322C267.73 256.898 270.059 263.893 270.484 271.419C271.047 281.498 268.624 290.677 261.837 298.436C257.358 303.559 251.533 305.971 244.95 306.864C244.396 306.937 243.84 307.047 243.289 307.15C243.24 307.155 243.202 307.197 242.97 307.33C242.996 314.675 241.238 321.751 238.044 328.565C239.636 330.027 241.184 331.488 242.772 332.914C251.003 340.317 256.726 349.561 261.847 359.206C265.627 366.33 269.186 373.574 272.89 380.739C273.171 381.281 273.778 381.957 274.299 382.018C280.502 382.712 285.386 385.724 289.19 390.518C290.232 391.83 291.389 392.397 292.938 392.416C297.803 392.483 302.454 391.58 306.957 389.654C310.13 388.296 313.372 386.794 316.733 386.237C327.678 384.419 334.725 389.004 338.096 399.595C340.416 406.876 340.758 414.331 340.321 421.899C340.102 425.658 339.892 429.379 337.809 432.655C334.815 437.371 330.241 440.203 325.176 441.88C316.773 444.669 308.108 446.623 299.224 446.943C291.984 447.203 284.91 445.692 277.883 444.057C276.864 443.82 275.767 443.753 274.724 443.828C267.07 444.398 259.417 444.825 251.784 443.708C248.521 443.232 245.411 442.267 242.728 440.224C240.413 438.458 238.983 436.128 238.648 433.271C238.265 430.024 238.194 426.745 237.898 423.494C237.594 420.131 237.163 416.784 236.817 413.433C236.472 410.082 236.133 406.737 235.862 403.383C235.418 397.871 237.901 393.847 242.358 390.869C242.862 390.53 243.381 390.214 244.123 389.741L244.126 389.71Z" stroke="white" stroke-width="29.6382" mask="url(#path-2-outside-2_319_762)"/>
</svg>
