<svg width="413" height="108" viewBox="0 0 413 108" fill="none" xmlns="http://www.w3.org/2000/svg">
<mask id="path-1-inside-1_736_2699" fill="white">
<path fill-rule="evenodd" clip-rule="evenodd" d="M44.7032 107.869C29.6934 107.869 17.0394 101.18 9.08422 89.0413C3.14554 79.9767 0 67.9819 0 54.3555C0 40.7292 3.13902 28.7409 9.08422 19.6698C17.0394 7.52484 29.6934 0.842194 44.7032 0.842194C61.9264 0.842194 75.1315 8.95792 82.1806 23.2214C86.9923 21.4045 92.2675 20.4202 97.8575 20.4202C105.977 20.4202 113.442 22.4967 119.792 26.1847C123.042 23.2126 127.369 21.3992 132.119 21.3992H142.397C144.075 21.3992 145.693 21.621 147.233 22.0452C150.672 20.975 154.34 20.4202 158.158 20.4202C164.054 20.4202 169.609 21.7463 174.489 24.2563C176.633 22.8905 179.082 21.9598 181.71 21.5884C183.309 13.1242 190.736 6.72215 199.663 6.72215H209.942C218.804 6.72215 226.191 13.0328 227.862 21.4057H228.639C233.708 21.4057 238.297 23.4718 241.607 26.8077C248.326 22.6425 256.201 20.4202 264.565 20.4202C275.245 20.4202 284.759 23.9582 292.087 30.4659C298.774 24.2422 308.24 20.4202 318.894 20.4202C326.545 20.4202 333.349 22.14 338.998 25.255C341.452 23.3431 344.408 22.0443 347.634 21.5884C349.233 13.1242 356.66 6.72215 365.587 6.72215H375.866C384.728 6.72215 392.116 13.0328 393.786 21.4057H394.563C404.652 21.4057 412.836 29.5893 412.836 39.6785V48.8802C412.836 55.6216 409.181 61.5146 403.745 64.6797C408.052 68.132 410.584 73.3658 410.584 78.9325V88.2321C410.584 95.9132 405.781 102.779 398.563 105.402C394.928 106.727 389.799 107.484 384.48 107.484V107.477C374.326 107.477 365.424 104.24 358.755 98.119C356.771 96.2995 354.644 93.9027 352.769 90.8236C346.527 101.154 334.292 107.869 319.579 107.869C308.686 107.869 299.245 104.287 292.413 98.09C285.101 104.276 275.378 107.869 264.571 107.869H264.565C255.536 107.869 247.071 105.266 240.012 100.411C238.047 102.611 235.538 104.349 232.639 105.402C229.004 106.727 223.875 107.484 218.556 107.484V107.477C208.402 107.477 199.5 104.24 192.83 98.119C192.354 97.6822 191.87 97.2121 191.383 96.7073C188.398 102.74 182.179 106.89 174.995 106.89H164.716C160.514 106.89 156.644 105.474 153.557 103.085C150.47 105.467 146.6 106.89 142.397 106.89H132.119C127.374 106.89 123.05 105.08 119.801 102.113C113.454 105.796 105.988 107.869 97.8575 107.869C87.7234 107.869 78.6238 104.634 71.4447 99.068C64.3863 104.778 55.3066 107.862 44.7032 107.862V107.869Z"/>
</mask>
<path fill-rule="evenodd" clip-rule="evenodd" d="M44.7032 107.869C29.6934 107.869 17.0394 101.18 9.08422 89.0413C3.14554 79.9767 0 67.9819 0 54.3555C0 40.7292 3.13902 28.7409 9.08422 19.6698C17.0394 7.52484 29.6934 0.842194 44.7032 0.842194C61.9264 0.842194 75.1315 8.95792 82.1806 23.2214C86.9923 21.4045 92.2675 20.4202 97.8575 20.4202C105.977 20.4202 113.442 22.4967 119.792 26.1847C123.042 23.2126 127.369 21.3992 132.119 21.3992H142.397C144.075 21.3992 145.693 21.621 147.233 22.0452C150.672 20.975 154.34 20.4202 158.158 20.4202C164.054 20.4202 169.609 21.7463 174.489 24.2563C176.633 22.8905 179.082 21.9598 181.71 21.5884C183.309 13.1242 190.736 6.72215 199.663 6.72215H209.942C218.804 6.72215 226.191 13.0328 227.862 21.4057H228.639C233.708 21.4057 238.297 23.4718 241.607 26.8077C248.326 22.6425 256.201 20.4202 264.565 20.4202C275.245 20.4202 284.759 23.9582 292.087 30.4659C298.774 24.2422 308.24 20.4202 318.894 20.4202C326.545 20.4202 333.349 22.14 338.998 25.255C341.452 23.3431 344.408 22.0443 347.634 21.5884C349.233 13.1242 356.66 6.72215 365.587 6.72215H375.866C384.728 6.72215 392.116 13.0328 393.786 21.4057H394.563C404.652 21.4057 412.836 29.5893 412.836 39.6785V48.8802C412.836 55.6216 409.181 61.5146 403.745 64.6797C408.052 68.132 410.584 73.3658 410.584 78.9325V88.2321C410.584 95.9132 405.781 102.779 398.563 105.402C394.928 106.727 389.799 107.484 384.48 107.484V107.477C374.326 107.477 365.424 104.24 358.755 98.119C356.771 96.2995 354.644 93.9027 352.769 90.8236C346.527 101.154 334.292 107.869 319.579 107.869C308.686 107.869 299.245 104.287 292.413 98.09C285.101 104.276 275.378 107.869 264.571 107.869H264.565C255.536 107.869 247.071 105.266 240.012 100.411C238.047 102.611 235.538 104.349 232.639 105.402C229.004 106.727 223.875 107.484 218.556 107.484V107.477C208.402 107.477 199.5 104.24 192.83 98.119C192.354 97.6822 191.87 97.2121 191.383 96.7073C188.398 102.74 182.179 106.89 174.995 106.89H164.716C160.514 106.89 156.644 105.474 153.557 103.085C150.47 105.467 146.6 106.89 142.397 106.89H132.119C127.374 106.89 123.05 105.08 119.801 102.113C113.454 105.796 105.988 107.869 97.8575 107.869C87.7234 107.869 78.6238 104.634 71.4447 99.068C64.3863 104.778 55.3066 107.862 44.7032 107.862V107.869Z" fill="white"/>
<path d="M9.08422 89.0413L8.53834 89.399L8.53839 89.3991L9.08422 89.0413ZM44.7032 107.869V108.521H45.3558V107.869H44.7032ZM9.08422 19.6698L9.63004 20.0275L9.63013 20.0273L9.08422 19.6698ZM82.1806 23.2214L81.5955 23.5105L81.8576 24.0409L82.4111 23.8319L82.1806 23.2214ZM119.792 26.1847L119.465 26.749L119.879 26.9897L120.233 26.6663L119.792 26.1847ZM147.233 22.0452L147.06 22.6744L147.244 22.7252L147.427 22.6684L147.233 22.0452ZM174.489 24.2563L174.191 24.8367L174.524 25.008L174.84 24.8068L174.489 24.2563ZM181.71 21.5884L181.801 22.2346L182.265 22.1692L182.351 21.7096L181.71 21.5884ZM227.862 21.4057L227.222 21.5334L227.327 22.0583H227.862V21.4057ZM241.607 26.8077L241.144 27.2674L241.51 27.636L241.951 27.3624L241.607 26.8077ZM292.087 30.4659L291.654 30.9539L292.098 31.3479L292.532 30.9436L292.087 30.4659ZM338.998 25.255L338.683 25.8265L339.06 26.0342L339.399 25.7699L338.998 25.255ZM347.634 21.5884L347.726 22.2346L348.189 22.1692L348.276 21.7096L347.634 21.5884ZM393.786 21.4057L393.146 21.5334L393.251 22.0583H393.786V21.4057ZM403.745 64.6797L403.417 64.1157L402.595 64.5942L403.337 65.1889L403.745 64.6797ZM398.563 105.402L398.34 104.789L398.34 104.789L398.563 105.402ZM384.48 107.484H383.828V108.136H384.48V107.484ZM384.48 107.477H385.133V106.825H384.48V107.477ZM358.755 98.119L359.196 97.6382L359.196 97.6382L358.755 98.119ZM352.769 90.8236L353.326 90.4841L352.766 89.5654L352.21 90.4861L352.769 90.8236ZM292.413 98.09L292.852 97.6066L292.428 97.2225L291.992 97.5917L292.413 98.09ZM240.012 100.411L240.382 99.8735L239.908 99.5478L239.525 99.9764L240.012 100.411ZM232.639 105.402L232.416 104.789L232.416 104.789L232.639 105.402ZM218.556 107.484H217.903V108.136H218.556V107.484ZM218.556 107.477H219.209V106.825H218.556V107.477ZM192.83 98.119L193.272 97.6382L193.272 97.6382L192.83 98.119ZM191.383 96.7073L191.852 96.2541L191.209 95.5873L190.798 96.4179L191.383 96.7073ZM153.557 103.085L153.956 102.569L153.557 102.261L153.158 102.569L153.557 103.085ZM119.801 102.113L120.241 101.631L119.888 101.308L119.474 101.548L119.801 102.113ZM71.4447 99.068L71.8445 98.5522L71.4361 98.2356L71.0343 98.5606L71.4447 99.068ZM44.7032 107.862V107.21H44.0506V107.862H44.7032ZM8.53839 89.3991C16.6191 101.729 29.4824 108.521 44.7032 108.521V107.216C29.9044 107.216 17.4598 100.631 9.63004 88.6836L8.53839 89.3991ZM-0.652602 54.3555C-0.652602 68.0765 2.51418 80.2039 8.53834 89.399L9.6301 88.6837C3.7769 79.7495 0.652602 67.8872 0.652602 54.3555H-0.652602ZM8.5384 19.312C2.50759 28.5138 -0.652602 40.6347 -0.652602 54.3555H0.652602C0.652602 40.8237 3.77044 28.968 9.63004 20.0275L8.5384 19.312ZM44.7032 0.189592C29.4826 0.189592 16.6191 6.97553 8.53831 19.3122L9.63013 20.0273C17.4598 8.07415 29.9042 1.4948 44.7032 1.4948V0.189592ZM82.7656 22.9322C75.6002 8.43327 62.1599 0.189592 44.7032 0.189592V1.4948C61.6928 1.4948 74.6628 9.48256 81.5955 23.5105L82.7656 22.9322ZM97.8575 19.7676C92.1903 19.7676 86.8369 20.7656 81.95 22.6108L82.4111 23.8319C87.1477 22.0434 92.3447 21.0728 97.8575 21.0728V19.7676ZM120.12 25.6204C113.669 21.8734 106.089 19.7676 97.8575 19.7676V21.0728C105.864 21.0728 113.216 23.12 119.465 26.749L120.12 25.6204ZM132.119 20.7465C127.2 20.7465 122.717 22.6254 119.352 25.7031L120.233 26.6663C123.367 23.7998 127.539 22.0518 132.119 22.0518V20.7465ZM142.397 20.7465H132.119V22.0518H142.397V20.7465ZM147.406 21.4161C145.809 20.9762 144.133 20.7465 142.397 20.7465V22.0518C144.017 22.0518 145.577 22.2659 147.06 22.6744L147.406 21.4161ZM158.158 19.7676C154.277 19.7676 150.543 20.3316 147.039 21.4221L147.427 22.6684C150.801 21.6183 154.403 21.0728 158.158 21.0728V19.7676ZM174.788 23.676C169.81 21.1161 164.152 19.7676 158.158 19.7676V21.0728C163.955 21.0728 169.407 22.3765 174.191 24.8367L174.788 23.676ZM181.619 20.9422C178.896 21.3269 176.359 22.2912 174.138 23.7059L174.84 24.8068C176.907 23.4898 179.268 22.5926 181.801 22.2346L181.619 20.9422ZM199.663 6.06955C190.416 6.06955 182.725 12.7008 181.069 21.4673L182.351 21.7096C183.893 13.5475 191.055 7.37475 199.663 7.37475V6.06955ZM209.942 6.06955H199.663V7.37475H209.942V6.06955ZM228.502 21.278C226.772 12.6061 219.121 6.06955 209.942 6.06955V7.37475C218.487 7.37475 225.611 13.4595 227.222 21.5334L228.502 21.278ZM228.639 20.7531H227.862V22.0583H228.639V20.7531ZM242.071 26.348C238.642 22.8938 233.889 20.7531 228.639 20.7531V22.0583C233.527 22.0583 237.951 24.0499 241.144 27.2674L242.071 26.348ZM264.565 19.7676C256.084 19.7676 248.089 22.0214 241.264 26.2531L241.951 27.3624C248.563 23.2636 256.318 21.0728 264.565 21.0728V19.7676ZM292.521 29.978C285.065 23.3571 275.394 19.7676 264.565 19.7676V21.0728C275.096 21.0728 284.454 24.5592 291.654 30.9539L292.521 29.978ZM318.894 19.7676C308.084 19.7676 298.456 23.6461 291.643 29.9882L292.532 30.9436C299.091 24.8384 308.396 21.0728 318.894 21.0728V19.7676ZM339.313 24.6835C333.557 21.5098 326.643 19.7676 318.894 19.7676V21.0728C326.447 21.0728 333.14 22.7702 338.683 25.8265L339.313 24.6835ZM339.399 25.7699C341.766 23.926 344.615 22.674 347.726 22.2346L347.543 20.9422C344.2 21.4145 341.139 22.7602 338.597 24.7402L339.399 25.7699ZM348.276 21.7096C349.817 13.5475 356.98 7.37475 365.587 7.37475V6.06955C356.34 6.06955 348.649 12.7008 346.993 21.4673L348.276 21.7096ZM365.587 7.37475H375.866V6.06955H365.587V7.37475ZM375.866 7.37475C384.411 7.37475 391.535 13.4595 393.146 21.5334L394.426 21.278C392.696 12.6061 385.046 6.06955 375.866 6.06955V7.37475ZM393.786 22.0583H394.563V20.7531H393.786V22.0583ZM394.563 22.0583C404.292 22.0583 412.183 29.9497 412.183 39.6785H413.488C413.488 29.2289 405.013 20.7531 394.563 20.7531V22.0583ZM412.183 39.6785V48.8802H413.488V39.6785H412.183ZM412.183 48.8802C412.183 55.3799 408.66 61.0627 403.417 64.1157L404.073 65.2437C409.702 61.9665 413.488 55.8633 413.488 48.8802H412.183ZM403.337 65.1889C407.49 68.5178 409.932 73.5646 409.932 78.9325H411.237C411.237 73.1671 408.614 67.7462 404.153 64.1705L403.337 65.1889ZM409.932 78.9325V88.2321H411.237V78.9325H409.932ZM409.932 88.2321C409.932 95.6392 405.3 102.259 398.34 104.789L398.786 106.015C406.262 103.298 411.237 96.1873 411.237 88.2321H409.932ZM398.34 104.789C394.798 106.08 389.749 106.831 384.48 106.831V108.136C389.848 108.136 395.059 107.374 398.787 106.015L398.34 104.789ZM385.133 107.484V107.477H383.828V107.484H385.133ZM384.48 106.825C374.468 106.825 365.73 103.635 359.196 97.6382L358.313 98.5998C365.118 104.845 374.184 108.13 384.48 108.13V106.825ZM359.196 97.6382C357.252 95.8544 355.166 93.5042 353.326 90.4841L352.211 91.1631C354.123 94.3012 356.291 96.7446 358.313 98.5999L359.196 97.6382ZM319.579 108.521C334.488 108.521 346.952 101.713 353.327 91.161L352.21 90.4861C346.103 100.594 334.096 107.216 319.579 107.216V108.521ZM291.975 98.5733C298.939 104.891 308.542 108.521 319.579 108.521V107.216C308.831 107.216 299.551 103.684 292.852 97.6066L291.975 98.5733ZM264.571 108.521C275.523 108.521 285.398 104.88 292.835 98.5882L291.992 97.5917C284.803 103.673 275.232 107.216 264.571 107.216V108.521ZM264.565 108.521H264.571V107.216H264.565V108.521ZM239.642 100.949C246.814 105.881 255.409 108.521 264.565 108.521V107.216C255.663 107.216 247.328 104.65 240.382 99.8735L239.642 100.949ZM232.862 106.015C235.864 104.924 238.463 103.124 240.498 100.846L239.525 99.9764C237.63 102.098 235.211 103.773 232.416 104.789L232.862 106.015ZM218.556 108.136C223.924 108.136 229.135 107.374 232.863 106.015L232.416 104.789C228.874 106.08 223.825 106.831 218.556 106.831V108.136ZM217.903 107.477V107.484H219.209V107.477H217.903ZM192.389 98.5998C199.194 104.845 208.26 108.13 218.556 108.13V106.825C208.543 106.825 199.806 103.635 193.272 97.6382L192.389 98.5998ZM190.913 97.1605C191.41 97.6752 191.904 98.1545 192.389 98.5999L193.272 97.6382C192.805 97.2099 192.33 96.749 191.852 96.2541L190.913 97.1605ZM174.995 107.543C182.437 107.543 188.877 103.243 191.968 96.9967L190.798 96.4179C187.919 102.237 181.922 106.237 174.995 106.237V107.543ZM164.716 107.543H174.995V106.237H164.716V107.543ZM153.158 103.601C156.355 106.076 160.364 107.543 164.716 107.543V106.237C160.663 106.237 156.932 104.872 153.956 102.569L153.158 103.601ZM142.397 107.543C146.75 107.543 150.759 106.069 153.956 103.602L153.158 102.569C150.181 104.866 146.45 106.237 142.397 106.237V107.543ZM132.119 107.543H142.397V106.237H132.119V107.543ZM119.361 102.595C122.726 105.667 127.205 107.543 132.119 107.543V106.237C127.543 106.237 123.375 104.493 120.241 101.631L119.361 102.595ZM97.8575 108.521C106.1 108.521 113.68 106.419 120.129 102.677L119.474 101.548C113.229 105.172 105.875 107.216 97.8575 107.216V108.521ZM71.0448 99.5838C78.3405 105.24 87.5814 108.521 97.8575 108.521V107.216C87.8654 107.216 78.9071 104.028 71.8445 98.5522L71.0448 99.5838ZM44.7032 108.515C55.4372 108.515 64.6667 105.39 71.8551 99.5754L71.0343 98.5606C64.1059 104.165 55.1761 107.21 44.7032 107.21V108.515ZM45.3558 107.869V107.862H44.0506V107.869H45.3558Z" fill="#C9C9C9" mask="url(#path-1-inside-1_736_2699)"/>
<path d="M365.588 69.8222V48.8737H350.219V39.672H365.588V24.9885H375.866V39.672H394.563V48.8737H375.866V68.6476C375.866 76.9682 380.565 79.9049 386.438 79.9049C389.571 79.9049 391.528 79.2197 392.312 78.926V88.2256C391.235 88.6172 388.396 89.2045 384.48 89.2045C374.006 89.2045 365.588 83.5269 365.588 69.8222Z" fill="#231F20"/>
<path d="M299.316 73.6399L309.105 73.0526C309.79 78.926 314.195 81.4711 319.383 81.4711C324.278 81.4711 328.585 79.2197 328.585 74.7167C328.585 70.7032 325.061 69.3327 321.048 68.5496L315.076 67.4728C306.266 65.9066 300.197 61.3057 300.197 53.3766C300.197 44.5665 309.007 38.6931 318.894 38.6931C328.781 38.6931 337.004 43.8813 338.178 53.964L328.879 54.5513C328.096 49.3631 323.788 46.818 319.09 46.818C314.391 46.818 309.986 49.2652 309.986 53.1809C309.986 56.7049 313.021 57.9775 317.426 58.8585L323.495 59.9353C332.207 61.4036 338.961 65.8087 338.961 74.6188C338.961 83.429 330.641 89.596 319.579 89.596C307.832 89.596 300.491 83.3311 299.316 73.6399Z" fill="#231F20"/>
<path d="M239.701 64.1446C239.701 50.1462 249.685 38.6931 264.565 38.6931C279.444 38.6931 289.135 49.9505 287.667 67.0813H250.175C251.056 75.0104 255.95 81.1775 264.663 81.1775C271.221 81.1775 275.822 77.6534 277.682 72.3673L287.177 73.3462C285.024 82.5479 276.703 89.596 264.565 89.596C249.685 89.596 239.701 78.045 239.701 64.1446ZM277.584 59.3479C276.507 52.2998 272.396 47.0138 264.369 47.0138C256.342 47.0138 251.741 52.2998 250.371 59.3479H277.584Z" fill="#231F20"/>
<path d="M199.663 69.8222V48.8737H184.294V39.672H199.663V24.9885H209.942V39.672H228.639V48.8737H209.942V68.6476C209.942 76.9682 214.64 79.9049 220.514 79.9049C223.646 79.9049 225.604 79.2197 226.387 78.926V88.2256C225.31 88.6172 222.472 89.2045 218.556 89.2045C208.082 89.2045 199.663 83.5269 199.663 69.8222Z" fill="#231F20"/>
<path d="M142.398 48.7758C145.237 42.7066 150.621 38.6931 158.158 38.6931C167.947 38.6931 174.996 45.4475 174.996 58.1733V88.6171H164.717V60.7184C164.717 52.3977 160.997 47.8948 154.243 47.8948C147.488 47.8948 142.398 53.4745 142.398 61.5015V88.6171H132.12V39.672H142.398V48.7758Z" fill="#231F20"/>
<path d="M73.2871 64.1446C73.2871 50.1462 82.6846 38.6931 97.8576 38.6931C113.031 38.6931 122.526 50.1462 122.526 64.1446C122.526 78.1429 113.031 89.596 97.8576 89.596C82.6846 89.596 73.2871 78.1429 73.2871 64.1446ZM97.8576 80.2965C107.059 80.2965 112.247 72.8568 112.247 64.1446C112.247 55.4323 107.059 47.8948 97.8576 47.8948C88.6559 47.8948 83.5656 55.3344 83.5656 64.1446C83.5656 72.9547 88.7538 80.2965 97.8576 80.2965Z" fill="#231F20"/>
<path d="M18.2725 54.3555C18.2725 35.5606 25.7121 19.115 44.7028 19.115C58.9948 19.115 66.9239 27.3378 69.0775 42.5108L59.0927 43.9792C57.8201 34.1901 53.4151 28.3167 44.7028 28.3167C32.3687 28.3167 28.5509 40.553 28.5509 54.3555C28.5509 68.1581 32.3687 80.2964 44.7028 80.2964C53.4151 80.2964 57.8201 74.423 59.0927 64.7319L69.0775 66.1024C66.9239 81.2754 58.9948 89.596 44.7028 89.596C25.7121 89.596 18.2725 73.1505 18.2725 54.3555Z" fill="#231F20"/>
</svg>
