<svg width="367" height="74" viewBox="0 0 367 74" fill="none" xmlns="http://www.w3.org/2000/svg">
<g clip-path="url(#clip0_321_1226)">
<mask id="path-1-inside-1_321_1226" fill="white">
<path fill-rule="evenodd" clip-rule="evenodd" d="M49.2589 72.5232C43.0443 72.5232 38.0074 67.4863 38.0074 61.2717V54.8584C38.0074 54.4182 38.0327 53.9839 38.0819 53.557H29.5913V61.2755C29.5913 67.49 24.5544 72.5269 18.3399 72.5269H11.2515V72.5232C5.0369 72.5232 0 67.4863 0 61.2717V14.0193C0 7.80478 5.0369 2.76787 11.2515 2.76787H40.4152C44.6759 2.76787 48.383 5.13541 50.2929 8.62682C52.8858 3.51123 58.1974 -0.00372314 64.3133 -0.00372314C72.9732 -0.00372314 80.0203 7.04344 80.0203 15.7033C80.0203 18.3737 79.3528 20.8865 78.1713 23.0918L78.1863 23.1268C79.8968 19.0941 83.8923 16.2659 88.5491 16.2659H95.6375C96.8077 16.2659 97.9366 16.4459 98.9942 16.776C101.346 15.9996 103.87 15.5908 106.506 15.5908C113.509 15.5908 119.413 18.3383 123.466 23.0206C128.031 18.3596 134.685 15.5946 142.421 15.5946C148.105 15.5946 153.316 17.2511 157.498 20.1448V14.0156C157.498 7.80102 162.535 2.76412 168.75 2.76412H187.112C193.326 2.76412 198.363 7.80102 198.363 14.0156V25.6297C199.178 20.8041 203.064 17.0226 207.942 16.3671C207.935 16.1459 207.927 15.9246 207.927 15.7033C207.927 7.04344 214.974 -0.00372314 223.634 -0.00372314C232.294 -0.00372314 239.341 7.04344 239.341 15.7033C239.341 18.3737 238.674 20.8865 237.492 23.0918C238.073 24.4494 238.396 25.9459 238.396 27.5173V33.5578C240.19 23.2474 250.024 15.5908 262.249 15.5908C268.123 15.5908 273.238 17.1398 277.264 19.8943C279.194 17.8001 281.908 16.4399 284.939 16.2809C285.498 10.5876 290.299 6.13957 296.138 6.13957H303.227C309.063 6.13957 313.859 10.5801 314.422 16.2659H316.121C319.997 16.2659 323.415 18.2251 325.438 21.2073C329.722 17.7049 335.486 15.5908 341.909 15.5908C355.449 15.5908 364.956 23.8194 366.385 36.0722C366.655 38.3975 366.194 40.7303 365.091 42.7518C366.34 45.4072 367 48.3888 367 51.618C367 63.9196 356.416 73.1983 342.382 73.1983C335.111 73.1983 328.829 70.7702 324.339 66.5825C323.046 68.8448 320.976 70.6425 318.412 71.5743C316.05 72.4332 312.678 72.9282 309.168 72.9282C298.027 72.9282 289.69 67.1057 286.411 57.7465C283.542 66.8744 274.308 73.1983 262.721 73.1983C256.708 73.1983 251.371 71.5374 247.165 68.5939C245.101 70.9993 242.039 72.5232 238.621 72.5232H208.58C206.918 72.5232 205.341 72.1631 203.922 71.5169C202.502 72.1631 200.925 72.5231 199.263 72.5231H167.872C165.819 72.5231 163.895 71.9737 162.239 71.0138C160.543 71.9945 158.601 72.5269 156.602 72.5269H150.458C149.374 72.5269 148.32 72.3732 147.323 72.0844C144.84 72.8232 142.136 73.202 139.252 73.202L139.248 73.1983C134.098 73.1983 129.496 71.8564 125.795 69.4972C123.785 71.3744 121.086 72.5232 118.118 72.5232H111.03C108.052 72.5232 105.348 71.368 103.334 69.4815C101.319 71.368 98.6154 72.5232 95.6375 72.5232H88.5491C86.9008 72.5232 85.3353 72.1688 83.9247 71.5321C82.514 72.1688 80.9486 72.5232 79.3003 72.5232H49.2589ZM239.168 43.62C238.833 42.6309 238.574 41.6032 238.396 40.5409V43.6069H238.621C238.805 43.6069 238.987 43.6113 239.168 43.62ZM198.363 43.6069V35.7504C199.005 39.5497 201.551 42.7035 204.987 44.192C204.623 44.3146 204.267 44.4553 203.921 44.613C202.502 43.9669 200.925 43.6069 199.263 43.6069H198.363ZM167.512 43.6126C167.631 43.6088 167.751 43.6069 167.872 43.6069H168.772V31.6129H168.75C167.848 31.6129 166.971 31.5068 166.131 31.3065C167.026 33.8022 167.512 36.5199 167.512 39.4026V43.6126Z"/>
</mask>
<path fill-rule="evenodd" clip-rule="evenodd" d="M49.2589 72.5232C43.0443 72.5232 38.0074 67.4863 38.0074 61.2717V54.8584C38.0074 54.4182 38.0327 53.9839 38.0819 53.557H29.5913V61.2755C29.5913 67.49 24.5544 72.5269 18.3399 72.5269H11.2515V72.5232C5.0369 72.5232 0 67.4863 0 61.2717V14.0193C0 7.80478 5.0369 2.76787 11.2515 2.76787H40.4152C44.6759 2.76787 48.383 5.13541 50.2929 8.62682C52.8858 3.51123 58.1974 -0.00372314 64.3133 -0.00372314C72.9732 -0.00372314 80.0203 7.04344 80.0203 15.7033C80.0203 18.3737 79.3528 20.8865 78.1713 23.0918L78.1863 23.1268C79.8968 19.0941 83.8923 16.2659 88.5491 16.2659H95.6375C96.8077 16.2659 97.9366 16.4459 98.9942 16.776C101.346 15.9996 103.87 15.5908 106.506 15.5908C113.509 15.5908 119.413 18.3383 123.466 23.0206C128.031 18.3596 134.685 15.5946 142.421 15.5946C148.105 15.5946 153.316 17.2511 157.498 20.1448V14.0156C157.498 7.80102 162.535 2.76412 168.75 2.76412H187.112C193.326 2.76412 198.363 7.80102 198.363 14.0156V25.6297C199.178 20.8041 203.064 17.0226 207.942 16.3671C207.935 16.1459 207.927 15.9246 207.927 15.7033C207.927 7.04344 214.974 -0.00372314 223.634 -0.00372314C232.294 -0.00372314 239.341 7.04344 239.341 15.7033C239.341 18.3737 238.674 20.8865 237.492 23.0918C238.073 24.4494 238.396 25.9459 238.396 27.5173V33.5578C240.19 23.2474 250.024 15.5908 262.249 15.5908C268.123 15.5908 273.238 17.1398 277.264 19.8943C279.194 17.8001 281.908 16.4399 284.939 16.2809C285.498 10.5876 290.299 6.13957 296.138 6.13957H303.227C309.063 6.13957 313.859 10.5801 314.422 16.2659H316.121C319.997 16.2659 323.415 18.2251 325.438 21.2073C329.722 17.7049 335.486 15.5908 341.909 15.5908C355.449 15.5908 364.956 23.8194 366.385 36.0722C366.655 38.3975 366.194 40.7303 365.091 42.7518C366.34 45.4072 367 48.3888 367 51.618C367 63.9196 356.416 73.1983 342.382 73.1983C335.111 73.1983 328.829 70.7702 324.339 66.5825C323.046 68.8448 320.976 70.6425 318.412 71.5743C316.05 72.4332 312.678 72.9282 309.168 72.9282C298.027 72.9282 289.69 67.1057 286.411 57.7465C283.542 66.8744 274.308 73.1983 262.721 73.1983C256.708 73.1983 251.371 71.5374 247.165 68.5939C245.101 70.9993 242.039 72.5232 238.621 72.5232H208.58C206.918 72.5232 205.341 72.1631 203.922 71.5169C202.502 72.1631 200.925 72.5231 199.263 72.5231H167.872C165.819 72.5231 163.895 71.9737 162.239 71.0138C160.543 71.9945 158.601 72.5269 156.602 72.5269H150.458C149.374 72.5269 148.32 72.3732 147.323 72.0844C144.84 72.8232 142.136 73.202 139.252 73.202L139.248 73.1983C134.098 73.1983 129.496 71.8564 125.795 69.4972C123.785 71.3744 121.086 72.5232 118.118 72.5232H111.03C108.052 72.5232 105.348 71.368 103.334 69.4815C101.319 71.368 98.6154 72.5232 95.6375 72.5232H88.5491C86.9008 72.5232 85.3353 72.1688 83.9247 71.5321C82.514 72.1688 80.9486 72.5232 79.3003 72.5232H49.2589ZM239.168 43.62C238.833 42.6309 238.574 41.6032 238.396 40.5409V43.6069H238.621C238.805 43.6069 238.987 43.6113 239.168 43.62ZM198.363 43.6069V35.7504C199.005 39.5497 201.551 42.7035 204.987 44.192C204.623 44.3146 204.267 44.4553 203.921 44.613C202.502 43.9669 200.925 43.6069 199.263 43.6069H198.363ZM167.512 43.6126C167.631 43.6088 167.751 43.6069 167.872 43.6069H168.772V31.6129H168.75C167.848 31.6129 166.971 31.5068 166.131 31.3065C167.026 33.8022 167.512 36.5199 167.512 39.4026V43.6126Z" fill="white"/>
<path d="M38.0819 53.557L38.4544 53.5999L38.5026 53.1819H38.0819V53.557ZM29.5913 53.557V53.1819H29.2163V53.557H29.5913ZM11.2515 72.5269H10.8764V72.902H11.2515V72.5269ZM11.2515 72.5232H11.6265V72.1481H11.2515V72.5232ZM50.2929 8.62682L49.9639 8.80682L50.3056 9.43144L50.6274 8.79638L50.2929 8.62682ZM78.1713 23.0918L77.8408 22.9147L77.7558 23.0733L77.8263 23.2388L78.1713 23.0918ZM78.1863 23.1268L77.8413 23.2739L78.1871 24.0854L78.5316 23.2733L78.1863 23.1268ZM98.9942 16.776L98.8825 17.134L98.9974 17.1699L99.1118 17.1321L98.9942 16.776ZM123.466 23.0206L123.183 23.2661L123.449 23.574L123.734 23.2831L123.466 23.0206ZM157.498 20.1448L157.285 20.4532L157.873 20.8603V20.1448H157.498ZM198.363 25.6297H197.988L198.733 25.6922L198.363 25.6297ZM207.942 16.3671L207.992 16.7389L208.328 16.6936L208.317 16.3544L207.942 16.3671ZM237.492 23.0918L237.162 22.9147L237.076 23.0736L237.147 23.2394L237.492 23.0918ZM238.396 33.5578H238.021L238.766 33.6221L238.396 33.5578ZM277.264 19.8943L277.052 20.2038L277.32 20.387L277.54 20.1484L277.264 19.8943ZM284.939 16.2809L284.959 16.6554L285.281 16.6385L285.313 16.3175L284.939 16.2809ZM314.422 16.2659L314.049 16.3028L314.082 16.6409H314.422V16.2659ZM325.438 21.2073L325.128 21.4178L325.358 21.7572L325.675 21.4976L325.438 21.2073ZM366.385 36.0722L366.758 36.0289L366.758 36.0288L366.385 36.0722ZM365.091 42.7518L364.762 42.5722L364.671 42.7393L364.752 42.9115L365.091 42.7518ZM324.339 66.5825L324.594 66.3082L324.248 65.9851L324.013 66.3964L324.339 66.5825ZM318.412 71.5743L318.284 71.2218V71.2218L318.412 71.5743ZM286.411 57.7465L286.765 57.6225L286.392 56.5572L286.053 57.6341L286.411 57.7465ZM247.165 68.5939L247.38 68.2866L247.101 68.0918L246.88 68.3497L247.165 68.5939ZM203.922 71.5169L204.077 71.1755L203.922 71.1048L203.766 71.1755L203.922 71.5169ZM162.239 71.0138L162.427 70.6893L162.239 70.5804L162.051 70.6892L162.239 71.0138ZM147.323 72.0844L147.427 71.7241L147.321 71.6935L147.216 71.7249L147.323 72.0844ZM139.252 73.202L138.987 73.4675L139.097 73.5771H139.252V73.202ZM139.248 73.1983L139.513 72.9328L139.403 72.8232H139.248V73.1983ZM125.795 69.4972L125.997 69.181L125.752 69.0247L125.539 69.2231L125.795 69.4972ZM103.334 69.4815L103.59 69.2078L103.334 68.9677L103.077 69.2078L103.334 69.4815ZM83.9247 71.5321L84.0789 71.1903L83.9247 71.1207L83.7704 71.1903L83.9247 71.5321ZM238.396 40.5409L238.766 40.4788L238.021 40.5409H238.396ZM239.168 43.62L239.15 43.9946L239.7 44.0209L239.523 43.4996L239.168 43.62ZM238.396 43.6069H238.021V43.982H238.396V43.6069ZM198.363 35.7504L198.733 35.6879L197.988 35.7504H198.363ZM198.363 43.6069H197.988V43.982H198.363V43.6069ZM204.987 44.192L205.106 44.5474L206.031 44.2358L205.136 43.8479L204.987 44.192ZM203.921 44.613L203.766 44.9544L203.921 45.0251L204.077 44.9543L203.921 44.613ZM167.512 43.6126H167.137V43.9996L167.523 43.9874L167.512 43.6126ZM168.772 43.6069V43.982H169.147V43.6069H168.772ZM168.772 31.6129H169.147V31.2378H168.772V31.6129ZM166.131 31.3065L166.218 30.9417L165.544 30.781L165.778 31.4332L166.131 31.3065ZM37.6324 61.2717C37.6324 67.6934 42.8372 72.8982 49.2589 72.8982V72.1481C43.2514 72.1481 38.3825 67.2791 38.3825 61.2717H37.6324ZM37.6324 54.8584V61.2717H38.3825V54.8584H37.6324ZM37.7093 53.514C37.6585 53.9552 37.6324 54.4038 37.6324 54.8584H38.3825C38.3825 54.4326 38.4069 54.0126 38.4544 53.5999L37.7093 53.514ZM29.5913 53.932H38.0819V53.1819H29.5913V53.932ZM29.9664 61.2755V53.557H29.2163V61.2755H29.9664ZM18.3399 72.902C24.7616 72.902 29.9664 67.6971 29.9664 61.2755H29.2163C29.2163 67.2829 24.3473 72.1519 18.3399 72.1519V72.902ZM11.2515 72.902H18.3399V72.1519H11.2515V72.902ZM10.8764 72.5232V72.5269H11.6265V72.5232H10.8764ZM-0.375049 61.2717C-0.375049 67.6934 4.82977 72.8982 11.2515 72.8982V72.1481C5.24404 72.1481 0.375049 67.2791 0.375049 61.2717H-0.375049ZM-0.375049 14.0193V61.2717H0.375049V14.0193H-0.375049ZM11.2515 2.39283C4.82977 2.39283 -0.375049 7.59764 -0.375049 14.0193H0.375049C0.375049 8.01191 5.24404 3.14292 11.2515 3.14292V2.39283ZM40.4152 2.39283H11.2515V3.14292H40.4152V2.39283ZM50.6219 8.44683C48.6489 4.83998 44.8184 2.39283 40.4152 2.39283V3.14292C44.5334 3.14292 48.1171 5.43085 49.9639 8.80682L50.6219 8.44683ZM64.3133 -0.378772C58.0502 -0.378772 52.6124 3.22095 49.9584 8.45726L50.6274 8.79638C53.1591 3.80151 58.3446 0.371325 64.3133 0.371325V-0.378772ZM80.3954 15.7033C80.3954 6.8363 73.1803 -0.378772 64.3133 -0.378772V0.371325C72.7661 0.371325 79.6453 7.25057 79.6453 15.7033H80.3954ZM78.5019 23.2689C79.7118 21.0105 80.3954 18.437 80.3954 15.7033H79.6453C79.6453 18.3103 78.9937 20.7625 77.8408 22.9147L78.5019 23.2689ZM78.5313 22.9798L78.5164 22.9447L77.8263 23.2388L77.8413 23.2739L78.5313 22.9798ZM88.5491 15.8909C83.7365 15.8909 79.6082 18.814 77.841 22.9804L78.5316 23.2733C80.1853 19.3743 84.0481 16.6409 88.5491 16.6409V15.8909ZM95.6375 15.8909H88.5491V16.6409H95.6375V15.8909ZM99.1059 16.4179C98.0128 16.0768 96.8463 15.8909 95.6375 15.8909V16.6409C96.7691 16.6409 97.8603 16.815 98.8825 17.134L99.1059 16.4179ZM106.506 15.2158C103.831 15.2158 101.267 15.6306 98.8766 16.4198L99.1118 17.1321C101.424 16.3686 103.909 15.9659 106.506 15.9659V15.2158ZM123.75 22.7752C119.622 18.0065 113.612 15.2158 106.506 15.2158V15.9659C113.405 15.9659 119.204 18.6701 123.183 23.2661L123.75 22.7752ZM142.421 15.2195C134.595 15.2195 127.841 18.0179 123.198 22.7582L123.734 23.2831C128.222 18.7013 134.776 15.9696 142.421 15.9696V15.2195ZM157.711 19.8363C153.464 16.8976 148.178 15.2195 142.421 15.2195V15.9696C148.031 15.9696 153.167 17.6046 157.285 20.4532L157.711 19.8363ZM157.123 14.0156V20.1448H157.873V14.0156H157.123ZM168.75 2.38907C162.328 2.38907 157.123 7.59389 157.123 14.0156H157.873C157.873 8.00815 162.742 3.13917 168.75 3.13917V2.38907ZM187.112 2.38907H168.75V3.13917H187.112V2.38907ZM198.738 14.0156C198.738 7.59389 193.534 2.38907 187.112 2.38907V3.13917C193.119 3.13917 197.988 8.00815 197.988 14.0156H198.738ZM198.738 25.6297V14.0156H197.988V25.6297H198.738ZM207.892 15.9954C202.851 16.6729 198.836 20.5803 197.994 25.5673L198.733 25.6922C199.521 21.028 203.278 17.3724 207.992 16.7389L207.892 15.9954ZM207.552 15.7033C207.552 15.932 207.56 16.1596 207.567 16.3799L208.317 16.3544C208.309 16.1321 208.302 15.9172 208.302 15.7033H207.552ZM223.634 -0.378772C214.767 -0.378772 207.552 6.8363 207.552 15.7033H208.302C208.302 7.25057 215.181 0.371325 223.634 0.371325V-0.378772ZM239.716 15.7033C239.716 6.8363 232.501 -0.378772 223.634 -0.378772V0.371325C232.087 0.371325 238.966 7.25057 238.966 15.7033H239.716ZM237.823 23.2689C239.033 21.0105 239.716 18.437 239.716 15.7033H238.966C238.966 18.3103 238.314 20.7625 237.162 22.9147L237.823 23.2689ZM238.771 27.5173C238.771 25.8942 238.438 24.3476 237.837 22.9441L237.147 23.2394C237.709 24.5513 238.021 25.9976 238.021 27.5173H238.771ZM238.771 33.5578V27.5173H238.021V33.5578H238.771ZM262.249 15.2158C249.874 15.2158 239.857 22.9729 238.027 33.4935L238.766 33.6221C240.523 23.522 250.173 15.9659 262.249 15.9659V15.2158ZM277.476 19.5847C273.381 16.7826 268.189 15.2158 262.249 15.2158V15.9659C268.057 15.9659 273.096 17.4969 277.052 20.2038L277.476 19.5847ZM284.92 15.9064C281.787 16.0707 278.982 17.4768 276.988 19.6401L277.54 20.1484C279.406 18.1234 282.029 16.8091 284.959 16.6554L284.92 15.9064ZM296.138 5.76452C290.104 5.76452 285.144 10.3609 284.566 16.2442L285.313 16.3175C285.853 10.8144 290.494 6.51462 296.138 6.51462V5.76452ZM303.227 5.76452H296.138V6.51462H303.227V5.76452ZM314.795 16.229C314.214 10.3531 309.257 5.76452 303.227 5.76452V6.51462C308.868 6.51462 313.505 10.8071 314.049 16.3028L314.795 16.229ZM316.121 15.8908H314.422V16.6409H316.121V15.8908ZM325.748 20.9967C323.658 17.916 320.126 15.8908 316.121 15.8908V16.6409C319.867 16.6409 323.171 18.5342 325.128 21.4178L325.748 20.9967ZM325.675 21.4976C329.889 18.0527 335.568 15.9659 341.909 15.9659V15.2158C335.403 15.2158 329.555 17.3571 325.201 20.9169L325.675 21.4976ZM341.909 15.9659C355.276 15.9659 364.608 24.0688 366.013 36.1157L366.758 36.0288C365.305 23.5699 355.621 15.2158 341.909 15.2158V15.9659ZM366.013 36.1155C366.274 38.3636 365.828 40.6185 364.762 42.5722L365.42 42.9314C366.56 40.8421 367.037 38.4315 366.758 36.0289L366.013 36.1155ZM364.752 42.9115C365.976 45.514 366.625 48.4407 366.625 51.618H367.375C367.375 48.3369 366.704 45.3004 365.431 42.5922L364.752 42.9115ZM366.625 51.618C366.625 63.6676 356.257 72.8232 342.382 72.8232V73.5733C356.575 73.5733 367.375 64.1716 367.375 51.618H366.625ZM342.382 72.8232C335.196 72.8232 329.008 70.4243 324.594 66.3082L324.083 66.8567C328.65 71.1161 335.027 73.5733 342.382 73.5733V72.8232ZM318.541 71.9268C321.19 70.964 323.328 69.1061 324.664 66.7685L324.013 66.3964C322.763 68.5834 320.763 70.3211 318.284 71.2218L318.541 71.9268ZM309.168 73.3033C312.706 73.3033 316.124 72.8052 318.541 71.9268L318.284 71.2218C315.975 72.0611 312.65 72.5532 309.168 72.5532V73.3033ZM286.057 57.8705C289.393 67.3931 297.882 73.3033 309.168 73.3033V72.5532C298.172 72.5532 289.987 66.8184 286.765 57.6225L286.057 57.8705ZM262.721 73.5733C274.44 73.5733 283.842 67.171 286.769 57.859L286.053 57.6341C283.242 66.5778 274.175 72.8232 262.721 72.8232V73.5733ZM246.95 68.9012C251.225 71.8929 256.639 73.5733 262.721 73.5733V72.8232C256.778 72.8232 251.517 71.1819 247.38 68.2866L246.95 68.9012ZM238.621 72.8982C242.153 72.8982 245.318 71.3231 247.449 68.8381L246.88 68.3497C244.885 70.6756 241.925 72.1481 238.621 72.1481V72.8982ZM208.58 72.8982H238.621V72.1481H208.58V72.8982ZM203.766 71.8582C205.233 72.5263 206.864 72.8982 208.58 72.8982V72.1481C206.973 72.1481 205.449 71.8 204.077 71.1755L203.766 71.8582ZM199.263 72.8982C200.98 72.8982 202.61 72.5263 204.077 71.8582L203.766 71.1755C202.395 71.8 200.87 72.1481 199.263 72.1481V72.8982ZM167.872 72.8982H199.263V72.1481H167.872V72.8982ZM162.051 71.3383C163.763 72.3304 165.752 72.8982 167.872 72.8982V72.1481C165.887 72.1481 164.028 71.617 162.427 70.6893L162.051 71.3383ZM156.602 72.902C158.668 72.902 160.675 72.3518 162.426 71.3384L162.051 70.6892C160.412 71.6372 158.535 72.1519 156.602 72.1519V72.902ZM150.458 72.902H156.602V72.1519H150.458V72.902ZM147.219 72.4446C148.25 72.7432 149.339 72.902 150.458 72.902V72.1519C149.41 72.1519 148.391 72.0032 147.427 71.7241L147.219 72.4446ZM139.252 73.5771C142.169 73.5771 144.909 73.194 147.43 72.4438L147.216 71.7249C144.771 72.4525 142.103 72.827 139.252 72.827V73.5771ZM138.983 73.4637L138.987 73.4675L139.517 72.9366L139.513 72.9328L138.983 73.4637ZM125.594 69.8135C129.36 72.2141 134.032 73.5733 139.248 73.5733V72.8232C134.163 72.8232 129.633 71.4986 125.997 69.181L125.594 69.8135ZM118.118 72.8982C121.185 72.8982 123.974 71.7108 126.051 69.7713L125.539 69.2231C123.596 71.038 120.987 72.1481 118.118 72.1481V72.8982ZM111.03 72.8982H118.118V72.1481H111.03V72.8982ZM103.077 69.7553C105.158 71.7042 107.953 72.8982 111.03 72.8982V72.1481C108.151 72.1481 105.537 71.0319 103.59 69.2078L103.077 69.7553ZM95.6375 72.8982C98.7145 72.8982 101.509 71.7042 103.59 69.7553L103.077 69.2078C101.13 71.0319 98.5163 72.1481 95.6375 72.1481V72.8982ZM88.5491 72.8982H95.6375V72.1481H88.5491V72.8982ZM83.7704 71.874C85.2285 72.5321 86.8465 72.8982 88.5491 72.8982V72.1481C86.955 72.1481 85.442 71.8055 84.0789 71.1903L83.7704 71.874ZM79.3003 72.8982C81.0028 72.8982 82.6208 72.5321 84.0789 71.874L83.7704 71.1903C82.4073 71.8055 80.8943 72.1481 79.3003 72.1481V72.8982ZM49.2589 72.8982H79.3003V72.1481H49.2589V72.8982ZM238.026 40.6031C238.208 41.6848 238.471 42.732 238.813 43.7403L239.523 43.4996C239.195 42.5298 238.941 41.5216 238.766 40.4788L238.026 40.6031ZM238.771 43.6069V40.5409H238.021V43.6069H238.771ZM238.621 43.2319H238.396V43.982H238.621V43.2319ZM239.186 43.2454C238.999 43.2364 238.81 43.2319 238.621 43.2319V43.982C238.799 43.982 238.975 43.9862 239.15 43.9946L239.186 43.2454ZM197.988 35.7504V43.6069H198.738V35.7504H197.988ZM205.136 43.8479C201.814 42.4088 199.353 39.3596 198.733 35.6879L197.994 35.8128C198.657 39.7399 201.288 42.9981 204.838 44.5361L205.136 43.8479ZM204.077 44.9543C204.411 44.8019 204.755 44.6659 205.106 44.5474L204.867 43.8366C204.491 43.9633 204.123 44.1087 203.766 44.2717L204.077 44.9543ZM199.263 43.982C200.87 43.982 202.394 44.33 203.766 44.9544L204.077 44.2717C202.609 43.6037 200.979 43.2319 199.263 43.2319V43.982ZM198.363 43.982H199.263V43.2319H198.363V43.982ZM167.872 43.2319C167.747 43.2319 167.623 43.2338 167.5 43.2377L167.523 43.9874C167.639 43.9838 167.755 43.982 167.872 43.982V43.2319ZM168.772 43.2319H167.872V43.982H168.772V43.2319ZM168.397 31.6129V43.6069H169.147V31.6129H168.397ZM168.75 31.9879H168.772V31.2378H168.75V31.9879ZM166.044 31.6713C166.912 31.8784 167.818 31.9879 168.75 31.9879V31.2378C167.877 31.2378 167.03 31.1352 166.218 30.9417L166.044 31.6713ZM167.887 39.4026C167.887 36.4774 167.394 33.7168 166.484 31.1798L165.778 31.4332C166.658 33.8876 167.137 36.5624 167.137 39.4026H167.887ZM167.887 43.6126V39.4026H167.137V43.6126H167.887Z" fill="#C9C9C9" mask="url(#path-1-inside-1_321_1226)"/>
<path d="M40.415 14.0193V20.3651H18.3396V36.2297H38.1872V42.3054H18.3396V61.2754H11.2512V14.0193H40.415Z" fill="#101010"/>
<path d="M187.112 54.8583H199.263V61.2717H167.872V54.8583H180.023V20.3651H168.749V14.0193H187.112V54.8621V54.8583Z" fill="#101010"/>
<path d="M328.408 50.9466L335.159 50.5416C335.631 54.5921 338.669 56.3473 342.247 56.3473C345.622 56.3473 348.593 54.7946 348.593 51.6892C348.593 48.9214 346.162 47.9762 343.395 47.4362L339.277 46.6936C333.201 45.6134 329.015 42.4405 329.015 36.9723C329.015 30.8965 335.091 26.846 341.909 26.846C348.728 26.846 354.399 30.424 355.209 37.3774L348.795 37.7824C348.255 34.2045 345.285 32.4492 342.044 32.4492C338.804 32.4492 335.766 34.137 335.766 36.8373C335.766 39.2676 337.859 40.1452 340.897 40.7528L345.082 41.4954C351.091 42.508 355.749 45.5459 355.749 51.6217C355.749 57.6975 350.011 61.9505 342.382 61.9505C334.281 61.9505 329.218 57.63 328.408 50.9466Z" fill="#101010"/>
<path d="M296.138 48.3138V33.8669H285.54V27.5211H296.138V17.3948H303.227V27.5211H316.121V33.8669H303.227V47.5037C303.227 53.2419 306.467 55.2672 310.518 55.2672C312.678 55.2672 314.028 54.7946 314.568 54.5921V61.0054C313.826 61.2755 311.868 61.6805 309.168 61.6805C301.944 61.6805 296.138 57.765 296.138 48.3138Z" fill="#101010"/>
<path d="M248.748 50.9466L255.498 50.5416C255.971 54.5921 259.009 56.3473 262.587 56.3473C265.962 56.3473 268.933 54.7946 268.933 51.6892C268.933 48.9214 266.502 47.9762 263.735 47.4362L259.616 46.6936C253.541 45.6134 249.355 42.4405 249.355 36.9723C249.355 30.8965 255.431 26.846 262.249 26.846C269.068 26.846 274.738 30.424 275.549 37.3774L269.135 37.7824C268.595 34.2045 265.625 32.4492 262.384 32.4492C259.144 32.4492 256.106 34.137 256.106 36.8373C256.106 39.2676 258.199 40.1452 261.237 40.7528L265.422 41.4954C271.431 42.508 276.089 45.5459 276.089 51.6217C276.089 57.6975 270.35 61.9505 262.722 61.9505C254.621 61.9505 249.558 57.63 248.748 50.9466Z" fill="#101010"/>
<path d="M227.144 54.8584H238.621V61.2717H208.58V54.8584H220.056V33.8631H209.457V27.5173H227.144V54.8584ZM223.634 11.2515C226.064 11.2515 228.09 13.2767 228.09 15.707C228.09 18.1374 226.064 20.1626 223.634 20.1626C221.204 20.1626 219.178 18.2049 219.178 15.707C219.178 13.2092 221.136 11.2515 223.634 11.2515Z" fill="#101010"/>
<path d="M127.636 52.0943C127.636 45.816 133.24 42.9131 140.126 41.8329L144.851 41.0903C147.552 40.6178 149.172 40.2127 149.172 37.9849C149.172 34.677 146.201 32.6518 142.488 32.6518C138.438 32.6518 135.265 34.7445 134.995 38.9976L128.244 38.39C128.784 31.2341 134.657 26.846 142.421 26.846C150.184 26.846 156.26 31.1666 156.26 39.4026V56.9549C156.26 58.2376 156.395 59.8578 156.598 61.2755H150.454C150.252 59.9253 150.184 58.5076 150.184 57.1574V56.7524C148.159 60.0603 144.514 61.9505 139.248 61.9505C132.497 61.9505 127.636 58.1701 127.636 52.0943ZM141.206 56.6849C145.864 56.6849 149.172 53.917 149.172 48.7863V45.3434C148.429 45.5459 147.619 45.6809 146.741 45.816L141.543 46.6936C138.033 47.3012 134.725 48.2463 134.725 51.6892C134.725 54.8621 137.56 56.6849 141.206 56.6849Z" fill="#101010"/>
<path d="M95.6372 33.7994C97.595 29.6139 101.308 26.846 106.506 26.846C113.257 26.846 118.118 31.5041 118.118 40.2802V61.2755H111.029V42.0355C111.029 36.2972 108.464 33.1918 103.806 33.1918C99.1477 33.1918 95.6372 37.0398 95.6372 42.5755V61.2755H88.5488V27.5211H95.6372V33.7994Z" fill="#101010"/>
<path d="M67.8237 54.8584H79.3002V61.2717H49.2588V54.8584H60.7353V33.8631H50.1364V27.5173H67.8237V54.8584ZM64.3132 11.2515C66.7436 11.2515 68.7688 13.2767 68.7688 15.707C68.7688 18.1374 66.7436 20.1626 64.3132 20.1626C61.8829 20.1626 59.8577 18.2049 59.8577 15.707C59.8577 13.2092 61.8154 11.2515 64.3132 11.2515Z" fill="#101010"/>
</g>
<defs>
<clipPath id="clip0_321_1226">
<rect width="367" height="73.1982" fill="white"/>
</clipPath>
</defs>
</svg>
