<svg width="453" height="242" viewBox="0 0 453 242" fill="none" xmlns="http://www.w3.org/2000/svg">
<path d="M141.279 181.597C142.898 188.483 138.754 195.445 131.883 197.286L95.1667 206.966C97.1929 202.808 97.7831 197.928 96.501 193.143C94.4847 185.618 88.6056 181.636 88.6056 181.636L125.092 171.86C132.111 169.979 139.307 174.151 141.187 181.17L141.3 181.591L141.279 181.597Z" fill="#E5BE8C"/>
<path d="M426.972 82.0911L424 82.8875L413.415 43.3865C411.071 34.6389 402.038 29.4234 393.29 31.7673L383.215 34.467C379.505 35.4611 376.636 37.9919 375.049 41.1735C371.524 39.3166 367.322 38.7256 363.19 39.8326L353.115 42.5323C346.286 44.3623 342.212 51.418 344.042 58.2474L345.132 62.3156C345.177 62.4842 345.264 62.6415 345.31 62.8102C340.03 61.7397 334.353 61.8829 328.535 63.4417C319.935 65.7461 313.113 70.5561 308.562 76.9264C306.613 75.3024 304.209 74.2524 301.611 73.9997C298.408 73.683 294.804 74.0612 290.926 75.1005C287.848 75.9251 281.925 77.5121 276.947 81.4442C274.6 81.0337 272.183 81.1167 269.822 81.7493L256.121 85.4205C252.095 86.4992 249.031 89.3986 247.562 93.0228C240.548 89.8642 232.333 89.219 223.838 91.4951C215.344 93.7712 208.765 98.5612 204.23 104.905C195.545 91.4629 180.207 88.4337 167.77 91.766C158.327 94.2963 150.993 99.8083 146.717 106.783C146.366 107.329 145.99 107.949 145.585 108.713C143.784 112.11 139.698 113.724 136.127 112.535C133.321 111.592 131.951 109.768 131.077 106.591L129.117 99.2764C129.117 99.2764 129.084 99.15 129.067 99.0867C125.865 87.8128 114.561 81.3757 103.348 84.3804L36.6132 102.262C36.6132 102.262 36.5079 102.29 36.4446 102.307C16.4472 108.027 4.5466 129.04 9.94039 149.17C11.6122 155.41 14.7817 160.999 19.3558 165.76C22.5831 169.12 27.0385 172.173 31.9188 174.368L32.1003 174.454C33.338 175.027 33.8751 175.176 35.8649 175.773L36.402 175.922C37.0404 176.113 37.6464 176.267 38.2736 176.415L46.6043 207.506C46.6227 207.659 46.6834 207.801 46.7229 207.948C47.6118 210.76 48.631 213.13 49.8466 215.222C54.5272 223.163 62.4107 228.302 71.48 229.351C75.4418 229.803 79.3015 229.537 82.9804 228.597L136.339 214.503C151.536 210.43 161.013 195.714 159.005 180.551C158.994 180.509 159.009 180.482 159.019 180.434C158.912 178.769 159.888 177.942 159.888 177.942C160.597 177.3 161.604 176.421 163.082 175.866C167.043 174.376 170.058 175.511 170.058 175.511C176.517 177.779 183.832 178.101 191.315 176.096C202.213 173.176 210.195 166.541 214.062 158.208C214.444 158.286 214.815 158.322 215.207 158.353C223.103 163.285 232.855 164.942 242.825 162.271C250.603 160.187 256.827 156.35 261.218 151.152C264.336 154.022 268.815 155.307 273.22 154.126L307.873 144.841C313.86 143.237 317.714 137.641 317.36 131.681L320.332 130.885C328.09 135.471 337.636 136.866 347.543 134.212C357.45 131.557 364.998 125.581 369.429 117.752C372.102 123.09 378.233 125.988 384.219 124.384L404.602 118.923C406.331 118.46 407.879 117.661 409.185 116.633C410.851 116.864 412.591 116.782 414.298 116.325L434.681 110.863C441.511 109.033 445.584 101.977 443.754 95.1481L442.664 91.0799C440.834 84.2505 433.779 80.1769 426.949 82.0068L426.972 82.0911Z" fill="white" stroke="#C9C9C9" stroke-width="11.1831" stroke-miterlimit="10"/>
<path d="M426.972 82.0911L424 82.8875L413.415 43.3865C411.071 34.6389 402.038 29.4234 393.29 31.7673L383.215 34.467C379.505 35.4611 376.636 37.9919 375.049 41.1735C371.524 39.3166 367.322 38.7256 363.19 39.8326L353.115 42.5323C346.286 44.3623 342.212 51.418 344.042 58.2474L345.132 62.3156C345.177 62.4842 345.264 62.6415 345.31 62.8102C340.03 61.7397 334.353 61.8829 328.535 63.4417C319.935 65.7461 313.113 70.5561 308.562 76.9264C306.613 75.3024 304.209 74.2524 301.611 73.9997C298.408 73.683 294.804 74.0612 290.926 75.1005C287.848 75.9251 281.925 77.5121 276.947 81.4442C274.6 81.0337 272.183 81.1167 269.822 81.7493L256.121 85.4205C252.095 86.4992 249.031 89.3986 247.562 93.0228C240.548 89.8642 232.333 89.219 223.838 91.4951C215.344 93.7712 208.765 98.5612 204.23 104.905C195.545 91.4629 180.207 88.4337 167.77 91.766C158.327 94.2963 150.993 99.8083 146.717 106.783C146.366 107.329 145.99 107.949 145.585 108.713C143.784 112.11 139.698 113.724 136.127 112.535C133.321 111.592 131.951 109.768 131.077 106.591L129.117 99.2764C129.117 99.2764 129.084 99.15 129.067 99.0867C125.865 87.8128 114.561 81.3757 103.348 84.3804L36.6132 102.262C36.6132 102.262 36.5079 102.29 36.4446 102.307C16.4472 108.027 4.5466 129.04 9.94039 149.17C11.6122 155.41 14.7817 160.999 19.3558 165.76C22.5831 169.12 27.0385 172.173 31.9188 174.368L32.1003 174.454C33.338 175.027 33.8751 175.176 35.8649 175.773L36.402 175.922C37.0404 176.113 37.6464 176.267 38.2736 176.415L46.6043 207.506C46.6227 207.659 46.6834 207.801 46.7229 207.948C47.6118 210.76 48.631 213.13 49.8466 215.222C54.5272 223.163 62.4107 228.302 71.48 229.351C75.4418 229.803 79.3015 229.537 82.9804 228.597L136.339 214.503C151.536 210.43 161.013 195.714 159.005 180.551C158.994 180.509 159.009 180.482 159.019 180.434C158.912 178.769 159.888 177.942 159.888 177.942C160.597 177.3 161.604 176.421 163.082 175.866C167.043 174.376 170.058 175.511 170.058 175.511C176.517 177.779 183.832 178.101 191.315 176.096C202.213 173.176 210.195 166.541 214.062 158.208C214.444 158.286 214.815 158.322 215.207 158.353C223.103 163.285 232.855 164.942 242.825 162.271C250.603 160.187 256.827 156.35 261.218 151.152C264.336 154.022 268.815 155.307 273.22 154.126L307.873 144.841C313.86 143.237 317.714 137.641 317.36 131.681L320.332 130.885C328.09 135.471 337.636 136.866 347.543 134.212C357.45 131.557 364.998 125.581 369.429 117.752C372.102 123.09 378.233 125.988 384.219 124.384L404.602 118.923C406.331 118.46 407.879 117.661 409.185 116.633C410.851 116.864 412.591 116.782 414.298 116.325L434.681 110.863C441.511 109.033 445.584 101.977 443.754 95.1481L442.664 91.0799C440.834 84.2505 433.779 80.1769 426.949 82.0068L426.972 82.0911Z" fill="white" stroke="white" stroke-width="10.1665" stroke-miterlimit="10"/>
<path d="M172.502 109.34C165.103 111.323 160.52 117.069 162.198 123.33C163.875 129.59 169.237 130.209 175.507 129.749L183.402 128.944C193.882 127.92 202.063 130.631 205.011 141.634C207.96 152.637 200.447 162.286 188.495 165.488C177.703 168.38 165.837 164.736 161.009 152.701C160.605 151.702 161.158 150.56 162.212 150.278L166.723 149.069C167.587 148.838 168.515 149.267 168.852 150.103C172.293 158.646 180.055 160.294 186.716 158.51C194.009 156.555 198.861 151.392 196.901 144.078C195.156 137.565 189.887 136.536 183.422 137.026L175.583 137.703C164.638 138.761 156.696 135.512 154.127 125.921C151.156 114.834 159.018 105.476 170.632 102.364C179.907 99.8784 191.53 102.367 196.827 114.209C197.278 115.218 196.716 116.407 195.641 116.695L190.94 117.955C190.097 118.181 189.196 117.767 188.849 116.979C185.27 109.105 178.482 107.715 172.475 109.325L172.502 109.34Z" fill="#190805"/>
<path d="M226.706 102.113C237.899 99.1142 247.47 102.966 252.883 111.953C253.499 112.985 252.949 114.307 251.79 114.618L246.499 116.035C245.762 116.233 244.978 115.923 244.539 115.295C241.088 110.256 235.709 108.309 228.837 110.15C219.499 112.652 216.295 121.689 218.746 130.837C221.198 139.985 228.491 146.209 237.828 143.707C244.7 141.865 248.385 137.489 248.854 131.399C248.921 130.636 249.444 129.976 250.182 129.778L255.43 128.372C256.59 128.061 257.732 128.953 257.694 130.16C257.408 141.149 251.194 148.733 239.959 151.743C225.563 155.601 213.427 146.901 209.773 133.264C206.118 119.626 212.279 106.024 226.675 102.167L226.706 102.113Z" fill="#190805"/>
<path d="M268.282 135.615L279.559 132.594L271.166 101.271L261.112 103.965C260.142 104.225 259.153 103.654 258.893 102.684L257.702 98.2369C257.442 97.2672 258.013 96.2784 258.982 96.0186L272.683 92.3474C275.571 91.5736 278.538 93.2864 279.312 96.1742L279.65 97.4389C280.513 90.7918 285.498 87.8971 293.803 85.6718C297.007 84.8134 299.256 84.7755 300.576 84.8962C301.318 84.9684 301.957 85.4976 302.149 86.2143L303.38 90.8094C303.696 91.9898 302.784 93.1379 301.55 93.0846C299.923 93.0008 297.718 93.1173 294.978 93.8515C286.104 96.2293 281.401 103.973 284.203 114.428L288.427 130.195L302.908 126.315C303.878 126.055 304.867 126.626 305.127 127.595L306.318 132.043C306.578 133.013 306.007 134.001 305.038 134.261L270.385 143.546C269.415 143.806 268.426 143.235 268.166 142.266L266.975 137.818C266.715 136.849 267.286 135.86 268.255 135.6L268.282 135.615Z" fill="#190805"/>
<path d="M314.309 105.208C310.655 91.5703 316.731 77.9912 331.402 74.0602C346.072 70.1292 358.124 78.8511 361.778 92.4889C365.432 106.127 359.356 119.706 344.686 123.637C330.015 127.568 317.964 118.846 314.309 105.208ZM342.54 115.627C351.983 113.097 355.376 104.009 352.925 94.861C350.474 85.7129 342.991 79.5397 333.548 82.07C324.105 84.6003 320.711 93.6879 323.162 102.836C325.614 111.984 333.096 118.157 342.54 115.627Z" fill="#190805"/>
<path d="M386.107 104.45L399.724 100.801C400.693 100.541 401.682 101.112 401.942 102.082L403.032 106.15C403.292 107.119 402.721 108.108 401.751 108.368L381.368 113.83C380.399 114.09 379.41 113.519 379.15 112.549L364.782 58.9254L358.015 60.7384C357.046 60.9982 356.057 60.4273 355.797 59.4577L354.707 55.3896C354.447 54.42 355.018 53.4311 355.988 53.1713L366.063 50.4716C368.951 49.6978 371.918 51.4106 372.691 54.2983L386.128 104.444L386.107 104.45Z" fill="#190805"/>
<path d="M416.206 96.3851L429.823 92.7365C430.793 92.4767 431.782 93.0477 432.041 94.0173L433.131 98.0854C433.391 99.055 432.82 100.044 431.851 100.304L411.468 105.765C410.498 106.025 409.509 105.454 409.25 104.485L394.881 50.861L388.115 52.674C387.145 52.9338 386.157 52.3628 385.897 51.3932L384.807 47.3251C384.547 46.3555 385.118 45.3666 386.087 45.1068L396.163 42.4071C399.051 41.6333 402.017 43.3461 402.791 46.2339L416.228 96.3795L416.206 96.3851Z" fill="#190805"/>
<path d="M135.75 166.022L118.62 102.091C117.101 96.7596 111.712 93.5948 106.337 95.035L39.6025 112.916C25.2681 117.006 16.8265 131.874 20.701 146.334C22.0113 151.224 24.4308 155.026 27.4104 158.136C29.8889 160.725 33.3339 162.875 36.5505 164.34C37.4253 164.738 37.0316 164.618 39.6541 165.383C43.2876 166.466 47.1251 166.454 47.1251 166.454L57.3705 204.69C57.8984 206.492 58.5723 208.164 59.4499 209.668C62.3866 214.642 67.2091 217.801 72.8466 218.436C75.2015 218.709 77.7569 218.634 80.3074 217.951L133.645 203.862C144.268 201.016 150.579 190.085 147.727 179.44C146.021 173.074 141.409 168.256 135.723 166.006L135.75 166.022Z" fill="#FDECD9"/>
<path d="M141.327 181.606C142.946 188.492 138.802 195.454 131.931 197.295L95.2145 206.975C97.2407 202.817 97.8309 197.937 96.5488 193.152C94.5325 185.627 88.6534 181.645 88.6534 181.645L125.14 171.868C132.159 169.988 139.354 174.16 141.235 181.179L141.348 181.6L141.327 181.606Z" fill="#E5BE8C"/>
<path d="M38.5716 157.969C33.2884 155.114 28.927 150.725 27.2778 144.571L27.1027 143.917C24.654 133.345 31.0159 122.604 41.3804 119.465L108.115 101.584C109.881 101.178 111.627 102.043 112.101 103.814L127.226 160.262C128.838 160.124 129.627 160.116 131.249 160.268C132.522 160.379 134.414 160.866 134.414 160.866L118.662 102.079C117.122 96.7528 111.733 93.5881 106.379 95.0226L39.645 112.904C25.3105 116.993 16.869 131.862 20.7435 146.321C22.997 154.732 28.7268 160.855 36.3637 164.231C36.8757 164.455 37.4158 164.785 38.533 164.485C40.4933 163.96 41.4722 162.049 40.9247 160.343C40.4831 158.948 39.7573 158.6 38.5983 157.984L38.5716 157.969Z" fill="#190805"/>
<path d="M123.363 165.319L71.025 179.343C67.5105 180.307 65.4541 183.931 66.3973 187.451L68.408 194.955C69.4453 198.404 73.1926 200.586 76.6917 199.648L80.5912 198.603L78.8629 192.153L74.9634 193.198L72.9923 185.842L75.1212 185.271C81.7187 183.504 88.237 188.354 89.9936 194.909C91.5524 200.727 88.2554 209.585 79.2022 211.378C71.1777 212.964 65.0601 207.08 63.6877 201.958L46.597 138.174C45.8232 135.287 42.8566 133.574 39.9688 134.348L34.7625 135.743L36.5077 142.256L40.3861 141.217L57.1323 203.714C60.3483 216.475 71.3187 220.404 80.9515 217.823L133.708 203.845C144.332 200.998 150.643 190.067 147.791 179.422C144.938 168.778 134.007 162.467 123.384 165.313L123.363 165.319ZM141.327 181.606C142.946 188.492 138.802 195.454 131.931 197.295L95.2146 206.975C97.2409 202.817 97.831 197.937 96.5489 193.153C94.5326 185.628 88.6535 181.645 88.6535 181.645L125.14 171.869C132.159 169.988 139.354 174.16 141.235 181.179L141.348 181.601L141.327 181.606Z" fill="#190805"/>
<path d="M56.8157 131.12L96.2745 120.547C98.0662 120.067 99.9103 121.132 100.39 122.924C100.87 124.715 99.8058 126.56 98.0141 127.04L58.5553 137.613L56.8101 131.099L56.8157 131.12Z" fill="#190805"/>
<path d="M65.045 161.832L104.504 151.259C106.295 150.779 108.14 151.843 108.62 153.635C109.1 155.427 108.035 157.271 106.243 157.751L66.7845 168.324L65.0393 161.811L65.045 161.832Z" fill="#190805"/>
<path d="M60.928 146.465L107.322 134.034C109.113 133.554 110.957 134.619 111.438 136.411C111.918 138.202 110.853 140.046 109.061 140.526L62.6676 152.958L60.9224 146.444L60.928 146.465Z" fill="#190805"/>
</svg>
