<svg width="419" height="111" viewBox="0 0 419 111" fill="none" xmlns="http://www.w3.org/2000/svg">
<mask id="path-1-inside-1_736_2683" fill="white">
<path fill-rule="evenodd" clip-rule="evenodd" d="M125.338 106.753C127.979 108.236 131.026 109.082 134.27 109.082H177.831C182.273 109.082 186.347 107.496 189.514 104.858C195.602 108.195 202.67 110.061 210.33 110.061V110.068C218.797 110.068 226.597 107.792 233.132 103.721C236.44 107.033 241.011 109.082 246.06 109.082H256.339C260.672 109.082 264.66 107.575 267.792 105.049C271.009 107.634 275.036 109.082 279.245 109.082H291.671C295.497 109.082 299.138 107.888 302.152 105.778C307.954 108.583 314.437 110.061 321.24 110.061H321.247C328.762 110.061 335.754 108.324 341.775 105.184C344.881 107.626 348.799 109.082 353.055 109.082H393.183C403.273 109.082 411.456 100.899 411.456 90.8096V81.51C411.456 76.8112 409.681 72.5237 406.771 69.2868C407.919 68.8887 409.029 68.3666 410.092 67.7336C415.62 64.4379 419 58.4797 419 52.045V42.3539C419 35.9388 415.633 29.9871 410.125 26.6849C407.586 25.1643 402.007 22.6127 393.092 22.6127C389.072 22.6127 385.248 23.2 381.691 24.3225C380.06 23.8461 378.337 23.5916 376.549 23.5916H354.23C349.676 23.5916 345.511 25.2582 342.311 28.0146C336.167 24.4863 329.012 22.6127 321.24 22.6127C314.317 22.6127 307.73 24.1351 301.855 27.0216C298.811 24.8329 295.101 23.585 291.188 23.585H278.168C276.961 23.585 275.773 23.709 274.612 23.9375V22.2864C274.612 12.1971 266.428 4.01352 256.339 4.01352H246.06C235.971 4.01352 227.788 12.1971 227.788 22.2864V26.1427C222.496 23.854 216.597 22.6127 210.33 22.6127C197.498 22.6127 186.331 27.8475 178.647 36.4563C178.552 36.1498 178.45 35.8467 178.34 35.5472C179.939 32.2777 180.833 28.6101 180.833 24.7336C180.833 11.0942 169.517 0 156.099 0C142.682 0 131.724 10.7353 131.372 24.068C130.002 24.3879 128.69 24.8622 127.457 25.4716C125.024 24.272 122.286 23.5981 119.39 23.5981H118.614C116.943 15.2252 109.556 8.91452 100.693 8.91452H90.415C84.4131 8.91452 79.0896 11.808 75.7592 16.2764C74.1445 14.5342 72.3634 12.9357 70.4257 11.4989C63.0643 6.04312 53.5428 3.03462 43.6233 3.03462C19.5358 3.03462 1.36733 19.5585 1.36733 41.4729C1.36733 47.3985 2.60727 52.8673 5.00232 57.7096C2.25487 61.0705 0.688623 65.4168 0.897455 70.0829C1.45217 82.4954 6.82308 93.3417 16.0248 100.625C23.7189 106.707 33.8669 110.061 44.6022 110.061C59.185 110.061 71.3982 104.349 78.9256 95.0337C80.4428 97.1671 82.0552 98.9104 83.5822 100.311C90.2518 106.433 99.1533 109.67 109.308 109.67V109.676C114.62 109.676 119.749 108.913 123.384 107.594C124.057 107.35 124.709 107.069 125.338 106.753Z"/>
</mask>
<path fill-rule="evenodd" clip-rule="evenodd" d="M125.338 106.753C127.979 108.236 131.026 109.082 134.27 109.082H177.831C182.273 109.082 186.347 107.496 189.514 104.858C195.602 108.195 202.67 110.061 210.33 110.061V110.068C218.797 110.068 226.597 107.792 233.132 103.721C236.44 107.033 241.011 109.082 246.06 109.082H256.339C260.672 109.082 264.66 107.575 267.792 105.049C271.009 107.634 275.036 109.082 279.245 109.082H291.671C295.497 109.082 299.138 107.888 302.152 105.778C307.954 108.583 314.437 110.061 321.24 110.061H321.247C328.762 110.061 335.754 108.324 341.775 105.184C344.881 107.626 348.799 109.082 353.055 109.082H393.183C403.273 109.082 411.456 100.899 411.456 90.8096V81.51C411.456 76.8112 409.681 72.5237 406.771 69.2868C407.919 68.8887 409.029 68.3666 410.092 67.7336C415.62 64.4379 419 58.4797 419 52.045V42.3539C419 35.9388 415.633 29.9871 410.125 26.6849C407.586 25.1643 402.007 22.6127 393.092 22.6127C389.072 22.6127 385.248 23.2 381.691 24.3225C380.06 23.8461 378.337 23.5916 376.549 23.5916H354.23C349.676 23.5916 345.511 25.2582 342.311 28.0146C336.167 24.4863 329.012 22.6127 321.24 22.6127C314.317 22.6127 307.73 24.1351 301.855 27.0216C298.811 24.8329 295.101 23.585 291.188 23.585H278.168C276.961 23.585 275.773 23.709 274.612 23.9375V22.2864C274.612 12.1971 266.428 4.01352 256.339 4.01352H246.06C235.971 4.01352 227.788 12.1971 227.788 22.2864V26.1427C222.496 23.854 216.597 22.6127 210.33 22.6127C197.498 22.6127 186.331 27.8475 178.647 36.4563C178.552 36.1498 178.45 35.8467 178.34 35.5472C179.939 32.2777 180.833 28.6101 180.833 24.7336C180.833 11.0942 169.517 0 156.099 0C142.682 0 131.724 10.7353 131.372 24.068C130.002 24.3879 128.69 24.8622 127.457 25.4716C125.024 24.272 122.286 23.5981 119.39 23.5981H118.614C116.943 15.2252 109.556 8.91452 100.693 8.91452H90.415C84.4131 8.91452 79.0896 11.808 75.7592 16.2764C74.1445 14.5342 72.3634 12.9357 70.4257 11.4989C63.0643 6.04312 53.5428 3.03462 43.6233 3.03462C19.5358 3.03462 1.36733 19.5585 1.36733 41.4729C1.36733 47.3985 2.60727 52.8673 5.00232 57.7096C2.25487 61.0705 0.688623 65.4168 0.897455 70.0829C1.45217 82.4954 6.82308 93.3417 16.0248 100.625C23.7189 106.707 33.8669 110.061 44.6022 110.061C59.185 110.061 71.3982 104.349 78.9256 95.0337C80.4428 97.1671 82.0552 98.9104 83.5822 100.311C90.2518 106.433 99.1533 109.67 109.308 109.67V109.676C114.62 109.676 119.749 108.913 123.384 107.594C124.057 107.35 124.709 107.069 125.338 106.753Z" fill="white"/>
<path d="M125.338 106.753L125.657 106.184L125.355 106.014L125.045 106.17L125.338 106.753ZM189.514 104.858L189.828 104.286L189.438 104.072L189.097 104.356L189.514 104.858ZM210.33 110.061H210.983V109.409H210.33V110.061ZM210.33 110.068H209.678V110.72H210.33V110.068ZM233.132 103.721L233.594 103.26L233.227 102.893L232.787 103.167L233.132 103.721ZM267.792 105.049L268.201 104.541L267.791 104.212L267.382 104.541L267.792 105.049ZM302.152 105.778L302.436 105.191L302.091 105.024L301.778 105.244L302.152 105.778ZM341.775 105.184L342.178 104.671L341.847 104.411L341.473 104.606L341.775 105.184ZM406.771 69.2868L406.557 68.6701L405.628 68.9921L406.285 69.7231L406.771 69.2868ZM410.092 67.7336L410.426 68.2944L410.426 68.2941L410.092 67.7336ZM410.125 26.6849L410.46 26.1252L410.46 26.125L410.125 26.6849ZM381.691 24.3225L381.508 24.9489L381.698 25.0045L381.887 24.9448L381.691 24.3225ZM342.311 28.0146L341.986 28.5805L342.387 28.8106L342.737 28.509L342.311 28.0146ZM301.855 27.0216L301.474 27.5515L301.792 27.7798L302.143 27.6073L301.855 27.0216ZM274.612 23.9375H273.959V24.7309L274.738 24.5778L274.612 23.9375ZM227.788 26.1427L227.529 26.7417L228.44 27.136V26.1427H227.788ZM178.647 36.4563L178.024 36.6491L178.365 37.7526L179.134 36.8909L178.647 36.4563ZM178.34 35.5472L177.754 35.2605L177.631 35.5108L177.727 35.7724L178.34 35.5472ZM131.372 24.068L131.52 24.7035L132.011 24.5889L132.024 24.0852L131.372 24.068ZM127.457 25.4716L127.169 26.0569L127.458 26.1993L127.747 26.0566L127.457 25.4716ZM118.614 23.5981L117.974 23.7258L118.079 24.2507H118.614V23.5981ZM75.7592 16.2764L75.2805 16.72L75.8137 17.2953L76.2824 16.6664L75.7592 16.2764ZM70.4257 11.4989L70.8144 10.9747L70.8142 10.9746L70.4257 11.4989ZM5.00232 57.7096L5.50758 58.1226L5.77368 57.7971L5.58728 57.4203L5.00232 57.7096ZM0.897455 70.0829L1.54941 70.0538L1.5494 70.0537L0.897455 70.0829ZM16.0248 100.625L15.6197 101.136L15.6201 101.137L16.0248 100.625ZM78.9256 95.0337L79.4574 94.6554L78.9587 93.9542L78.418 94.6235L78.9256 95.0337ZM83.5822 100.311L84.0235 99.8306L84.0234 99.8305L83.5822 100.311ZM109.308 109.67H109.96V109.017H109.308V109.67ZM109.308 109.676H108.655V110.329H109.308V109.676ZM123.384 107.594L123.607 108.208L123.607 108.208L123.384 107.594ZM134.27 108.43C131.141 108.43 128.203 107.614 125.657 106.184L125.018 107.322C127.754 108.859 130.911 109.735 134.27 109.735V108.43ZM177.831 108.43H134.27V109.735H177.831V108.43ZM189.097 104.356C186.042 106.9 182.115 108.43 177.831 108.43V109.735C182.432 109.735 186.651 108.091 189.932 105.36L189.097 104.356ZM210.33 109.409C202.777 109.409 195.818 107.569 189.828 104.286L189.201 105.43C195.386 108.821 202.562 110.714 210.33 110.714V109.409ZM210.983 110.068V110.061H209.678V110.068H210.983ZM232.787 103.167C226.359 107.172 218.679 109.415 210.33 109.415V110.72C218.916 110.72 226.836 108.412 233.477 104.275L232.787 103.167ZM246.06 108.43C241.192 108.43 236.784 106.454 233.594 103.26L232.67 104.182C236.095 107.612 240.831 109.735 246.06 109.735V108.43ZM256.339 108.43H246.06V109.735H256.339V108.43ZM267.382 104.541C264.362 106.976 260.518 108.43 256.339 108.43V109.735C260.826 109.735 264.957 108.173 268.202 105.557L267.382 104.541ZM279.245 108.43C275.186 108.43 271.304 107.033 268.201 104.541L267.383 105.558C270.715 108.234 274.885 109.735 279.245 109.735V108.43ZM291.671 108.43H279.245V109.735H291.671V108.43ZM301.778 105.244C298.871 107.278 295.36 108.43 291.671 108.43V109.735C295.634 109.735 299.405 108.498 302.526 106.313L301.778 105.244ZM321.24 109.409C314.533 109.409 308.147 107.952 302.436 105.191L301.868 106.366C307.762 109.215 314.342 110.714 321.24 110.714V109.409ZM321.247 109.409H321.24V110.714H321.247V109.409ZM341.473 104.606C335.549 107.695 328.661 109.409 321.247 109.409V110.714C328.863 110.714 335.959 108.953 342.077 105.763L341.473 104.606ZM353.055 108.43C348.95 108.43 345.174 107.026 342.178 104.671L341.372 105.698C344.589 108.226 348.647 109.735 353.055 109.735V108.43ZM393.183 108.43H353.055V109.735H393.183V108.43ZM410.804 90.8096C410.804 100.538 402.912 108.43 393.183 108.43V109.735C403.633 109.735 412.109 101.259 412.109 90.8096H410.804ZM410.804 81.51V90.8096H412.109V81.51H410.804ZM406.285 69.7231C409.092 72.8449 410.804 76.9787 410.804 81.51H412.109C412.109 76.6438 410.27 72.2024 407.256 68.8504L406.285 69.7231ZM409.758 67.1728C408.731 67.7844 407.661 68.2873 406.557 68.6701L406.984 69.9034C408.177 69.49 409.326 68.9488 410.426 68.2944L409.758 67.1728ZM418.348 52.045C418.348 58.25 415.088 63.9952 409.758 67.173L410.426 68.2941C416.152 64.8806 419.653 58.7093 419.653 52.045H418.348ZM418.348 42.3539V52.045H419.653V42.3539H418.348ZM409.789 27.2446C415.1 30.4288 418.348 36.168 418.348 42.3539H419.653C419.653 35.7096 416.165 29.5453 410.46 26.1252L409.789 27.2446ZM393.092 23.2653C401.875 23.2653 407.34 25.7777 409.79 27.2448L410.46 26.125C407.832 24.551 402.138 21.9601 393.092 21.9601V23.2653ZM381.887 24.9448C385.378 23.8432 389.136 23.2653 393.092 23.2653V21.9601C389.008 21.9601 385.117 22.5568 381.495 23.7001L381.887 24.9448ZM376.549 24.2442C378.274 24.2442 379.936 24.4898 381.508 24.9489L381.874 23.696C380.183 23.2024 378.399 22.939 376.549 22.939V24.2442ZM354.23 24.2442H376.549V22.939H354.23V24.2442ZM342.737 28.509C345.823 25.8508 349.839 24.2442 354.23 24.2442V22.939C349.514 22.939 345.199 24.6657 341.886 27.5201L342.737 28.509ZM321.24 23.2653C328.906 23.2653 335.948 25.1127 341.986 28.5805L342.636 27.4486C336.387 23.8599 329.119 21.9601 321.24 21.9601V23.2653ZM302.143 27.6073C307.925 24.7663 314.414 23.2653 321.24 23.2653V21.9601C314.221 21.9601 307.535 23.5039 301.568 26.4359L302.143 27.6073ZM291.188 24.2376C294.961 24.2376 298.538 25.4408 301.474 27.5515L302.236 26.4917C299.083 24.225 295.24 22.9324 291.188 22.9324V24.2376ZM278.168 24.2376H291.188V22.9324H278.168V24.2376ZM274.738 24.5778C275.86 24.357 277.006 24.2376 278.168 24.2376V22.9324C276.916 22.9324 275.686 23.0611 274.486 23.2971L274.738 24.5778ZM273.959 22.2864V23.9375H275.264V22.2864H273.959ZM256.339 4.66612C266.068 4.66612 273.959 12.5576 273.959 22.2864H275.264C275.264 11.8367 266.789 3.36092 256.339 3.36092V4.66612ZM246.06 4.66612H256.339V3.36092H246.06V4.66612ZM228.44 22.2864C228.44 12.5576 236.332 4.66612 246.06 4.66612V3.36092C235.611 3.36092 227.135 11.8367 227.135 22.2864H228.44ZM228.44 26.1427V22.2864H227.135V26.1427H228.44ZM210.33 23.2653C216.51 23.2653 222.321 24.4892 227.529 26.7417L228.047 25.5437C222.671 23.2187 216.683 21.9601 210.33 21.9601V23.2653ZM179.134 36.8909C186.693 28.4224 197.681 23.2653 210.33 23.2653V21.9601C197.314 21.9601 185.97 27.2727 178.16 36.0217L179.134 36.8909ZM177.727 35.7724C177.833 36.0612 177.932 36.3535 178.024 36.6491L179.271 36.2635C179.173 35.9461 179.066 35.6322 178.952 35.3221L177.727 35.7724ZM180.18 24.7336C180.18 28.5086 179.31 32.0784 177.754 35.2605L178.926 35.8339C180.568 32.477 181.485 28.7115 181.485 24.7336H180.18ZM156.099 0.652602C169.16 0.652602 180.18 11.4584 180.18 24.7336H181.485C181.485 10.73 169.873 -0.652602 156.099 -0.652602V0.652602ZM132.024 24.0852C132.368 11.1053 143.036 0.652602 156.099 0.652602V-0.652602C142.327 -0.652602 131.081 10.3653 130.72 24.0507L132.024 24.0852ZM127.747 26.0566C128.935 25.4691 130.199 25.0119 131.52 24.7035L131.224 23.4324C129.804 23.7639 128.445 24.2553 127.168 24.8865L127.747 26.0566ZM119.39 24.2507C122.184 24.2507 124.823 24.9006 127.169 26.0569L127.746 24.8862C125.225 23.6434 122.388 22.9455 119.39 22.9455V24.2507ZM118.614 24.2507H119.39V22.9455H118.614V24.2507ZM100.693 9.56712C109.238 9.56712 116.363 15.6519 117.974 23.7258L119.254 23.4704C117.524 14.7985 109.873 8.26192 100.693 8.26192V9.56712ZM90.415 9.56712H100.693V8.26192H90.415V9.56712ZM76.2824 16.6664C79.495 12.3561 84.6279 9.56712 90.415 9.56712V8.26192C84.1982 8.26192 78.6841 11.2599 75.2359 15.8864L76.2824 16.6664ZM70.0369 12.0231C71.9423 13.4359 73.6933 15.0074 75.2805 16.72L76.2378 15.8328C74.5957 14.061 72.7845 12.4356 70.8144 10.9747L70.0369 12.0231ZM43.6233 3.68722C53.415 3.68722 62.7975 6.65768 70.0371 12.0232L70.8142 10.9746C63.3311 5.42855 53.6707 2.38202 43.6233 2.38202V3.68722ZM2.01993 41.4729C2.01993 19.9757 19.8366 3.68722 43.6233 3.68722V2.38202C19.2349 2.38202 0.714727 19.1413 0.714727 41.4729H2.01993ZM5.58728 57.4203C3.24012 52.6748 2.01993 47.3061 2.01993 41.4729H0.714727C0.714727 47.4909 1.97442 53.0598 4.41736 57.9989L5.58728 57.4203ZM1.5494 70.0537C1.34803 65.5543 2.85777 61.3641 5.50758 58.1226L4.49706 57.2966C1.65196 60.7769 0.0292159 65.2794 0.245506 70.1121L1.5494 70.0537ZM16.4298 100.113C7.38617 92.9551 2.09624 82.2899 1.54941 70.0538L0.245504 70.1121C0.808097 82.7009 6.25999 93.7283 15.6197 101.136L16.4298 100.113ZM44.6022 109.409C33.9992 109.409 23.9975 106.095 16.4295 100.113L15.6201 101.137C23.4404 107.319 33.7346 110.714 44.6022 110.714V109.409ZM78.418 94.6235C71.03 103.767 59.014 109.409 44.6022 109.409V110.714C59.356 110.714 71.7663 104.932 79.4332 95.4438L78.418 94.6235ZM84.0234 99.8305C82.5264 98.4571 80.9454 96.7477 79.4574 94.6554L78.3937 95.4119C79.9403 97.5865 81.584 99.3637 83.141 100.792L84.0234 99.8305ZM109.308 109.017C99.2952 109.017 90.5577 105.828 84.0235 99.8306L83.1409 100.792C89.9459 107.038 99.0114 110.322 109.308 110.322V109.017ZM109.96 109.676V109.67H108.655V109.676H109.96ZM123.162 106.981C119.619 108.266 114.57 109.024 109.308 109.024V110.329C114.67 110.329 119.88 109.56 123.607 108.208L123.162 106.981ZM125.045 106.17C124.439 106.474 123.81 106.745 123.161 106.981L123.607 108.208C124.304 107.955 124.979 107.663 125.63 107.337L125.045 106.17Z" fill="#C9C9C9" mask="url(#path-1-inside-1_736_2683)"/>
<path d="M353.055 81.51H366.27V51.0661H354.229V41.8644H376.548V52.4365C379.191 45.4863 384.673 40.8855 393.092 40.8855C397.791 40.8855 400.238 42.0602 400.727 42.3539V52.045C399.455 51.3598 396.714 50.0872 391.917 50.0872C383.107 50.0872 376.548 56.0585 376.548 66.6306V81.51H393.19V90.8095H353.055V81.51Z" fill="#231F20"/>
<path d="M296.376 66.337C296.376 52.3387 306.361 40.8855 321.24 40.8855C336.12 40.8855 345.811 52.1429 344.342 69.2737H306.85C307.732 77.2028 312.626 83.3699 321.338 83.3699C327.897 83.3699 332.498 79.8458 334.358 74.5597L343.853 75.5387C341.699 84.7403 333.379 91.7884 321.24 91.7884C306.361 91.7884 296.376 80.2374 296.376 66.337ZM334.26 61.5403C333.183 54.4922 329.072 49.2062 321.045 49.2062C313.018 49.2062 308.417 54.4922 307.046 61.5403H334.26Z" fill="#231F20"/>
<path d="M246.061 22.2863H256.339V65.0644L278.169 41.8644H291.188L270.044 63.3024L291.678 90.8095H279.246L263.192 70.2526L256.339 77.2028V90.8095H246.061V22.2863Z" fill="#231F20"/>
<path d="M210.331 40.8855C222.861 40.8855 231.475 48.8146 233.726 59.4846L223.448 60.4636C221.784 54.4922 217.379 50.0872 210.331 50.0872C201.227 50.0872 196.235 57.5268 196.235 66.337C196.235 75.1471 201.227 82.4889 210.331 82.4889C217.379 82.4889 221.784 78.1817 223.448 72.1125L233.726 73.0914C231.475 83.7614 222.861 91.7884 210.331 91.7884C195.451 91.7884 185.956 80.2374 185.956 66.337C185.956 52.4366 195.451 40.8855 210.331 40.8855Z" fill="#231F20"/>
<path d="M161.19 81.51H177.831V90.8095H134.27V81.51H150.911V51.0661H135.542V41.8644H161.19V81.51ZM156.099 18.2729C159.623 18.2729 162.56 21.2096 162.56 24.7336C162.56 28.2577 159.623 31.1944 156.099 31.1944C152.575 31.1944 149.639 28.3556 149.639 24.7336C149.639 21.1117 152.477 18.2729 156.099 18.2729Z" fill="#231F20"/>
<path d="M43.5258 29.9218C35.7925 29.9218 29.9191 34.3268 29.9191 40.8855C29.9191 47.4441 34.9115 49.4019 41.2743 50.5766L49.6929 51.9471C61.1461 53.807 68.7815 59.0931 68.7815 71.4273C68.7815 83.7614 58.2093 91.7884 44.6026 91.7884C31.8769 91.7884 19.8364 84.6424 19.1511 69.2737L29.1359 68.4906C29.7233 78.9648 37.2608 83.0762 44.7005 83.0762C52.5317 83.0762 58.503 79.2585 58.503 71.7209C58.503 65.0644 53.7064 62.6171 47.1477 61.4425L38.7292 59.9741C26.6887 58.0163 19.6406 52.1429 19.6406 41.4728C19.6406 28.9429 30.5064 21.3074 43.6237 21.3074C54.6853 21.3074 66.8237 27.1809 68.1942 42.6475L57.9157 43.4306C56.9368 33.5437 50.2802 29.9218 43.5258 29.9218Z" fill="#231F20"/>
<path d="M90.4152 72.0146V51.0661H75.0464V41.8644H90.4152V27.1809H100.694V41.8644H119.391V51.0661H100.694V70.8399C100.694 79.1606 105.392 82.0973 111.266 82.0973C114.398 82.0973 116.356 81.4121 117.139 81.1184V90.418C116.062 90.8096 113.224 91.3969 109.308 91.3969C98.8337 91.3969 90.4152 85.7193 90.4152 72.0146Z" fill="#231F20"/>
</svg>
