<svg width="444" height="250" viewBox="0 0 444 250" fill="none" xmlns="http://www.w3.org/2000/svg">
<g clip-path="url(#clip0_327_251)">
<rect width="444" height="250" rx="25" fill="white"/>
<rect x="190.5" y="15.5" width="192" height="18" rx="9" fill="#ECE8E3" stroke="#101010"/>
<rect x="52.5684" y="67.5" width="70.7458" height="70.7458" rx="4.5" fill="#ECE8E3" stroke="#101010"/>
<rect x="61.5" y="113.5" width="53" height="16" rx="4.5" fill="white" stroke="#101010"/>
<rect x="61.2275" y="75.921" width="28.2156" height="28.2156" rx="14.1078" fill="#FFEEDA" stroke="black"/>
<path d="M82.6668 92.664V82.6994C82.6532 81.8657 81.9889 81.1946 81.1551 81.1946H70.7568C68.5131 81.2285 66.71 83.0655 66.71 85.316C66.71 86.0752 66.9133 86.7259 67.2251 87.2953C67.4895 87.7698 67.903 88.2172 68.3097 88.5494C68.4249 88.6443 68.3707 88.6036 68.7232 88.8205C69.2113 89.1188 69.7671 89.2679 69.7671 89.2679L69.7603 95.2263C69.7739 95.511 69.801 95.7821 69.8756 96.0329C70.106 96.8735 70.689 97.5174 71.4821 97.8293C71.8142 97.9581 72.1871 98.0462 72.587 98.053L80.8908 98.0801C82.5448 98.0801 83.8869 96.7379 83.8869 95.0771C83.8937 94.0942 83.4056 93.213 82.6668 92.664Z" fill="#FFEEDA"/>
<path d="M82.8695 95.1517C82.8356 96.2159 81.9612 97.07 80.8901 97.07L75.1758 97.0497C75.6299 96.521 75.9079 95.8363 75.9079 95.0907C75.9079 93.918 75.2097 93.1113 75.2097 93.1113H80.8969C81.9883 93.1113 82.8763 93.9993 82.8763 95.0907L82.8695 95.1517Z" fill="#EBC28E"/>
<path d="M68.852 87.7087C68.1945 87.0851 67.7335 86.2785 67.7335 85.3227V85.221C67.7878 83.5874 69.1299 82.2723 70.7636 82.2249H81.1619C81.4331 82.2384 81.65 82.4282 81.65 82.7061V91.5048C81.8872 91.5454 82.0025 91.5793 82.2329 91.6607C82.416 91.7285 82.6668 91.8708 82.6668 91.8708V82.7061C82.6532 81.8724 81.9889 81.2013 81.1551 81.2013H70.7568C68.5131 81.2352 66.71 83.0722 66.71 85.3227C66.71 86.6309 67.3065 87.7494 68.2826 88.5357C68.3504 88.59 68.4114 88.6578 68.5876 88.6578C68.8927 88.6578 69.1096 88.4137 69.096 88.1494C69.0892 87.9257 68.9943 87.8443 68.852 87.7087Z" fill="#190602"/>
<path d="M80.8901 92.0811H72.7354C72.1863 92.0878 71.7457 92.5285 71.7457 93.0775V94.2502C71.7593 94.7925 72.2202 95.2535 72.7693 95.2535H73.3726V94.2502H72.7693V93.1046C72.7693 93.1046 72.9184 93.1046 73.1014 93.1046C74.1318 93.1046 74.891 94.0604 74.891 95.084C74.891 95.9923 74.064 97.1515 72.6812 97.0566C71.4542 96.9752 70.7899 95.8839 70.7899 95.084V85.1466C70.7899 84.6992 70.4239 84.3331 69.9765 84.3331H69.1631V85.3499H69.7664V95.0908C69.7325 97.0701 71.1763 98.0666 72.6812 98.0666L80.8968 98.0937C82.5508 98.0937 83.893 96.7515 83.893 95.0908C83.893 93.43 82.544 92.0811 80.8901 92.0811ZM82.8694 95.1518C82.8355 96.216 81.9611 97.0701 80.8901 97.0701L75.1757 97.0498C75.6299 96.521 75.9078 95.8364 75.9078 95.0908C75.9078 93.9181 75.2096 93.1114 75.2096 93.1114H80.8968C81.9882 93.1114 82.8762 93.9994 82.8762 95.0908L82.8694 95.1518Z" fill="#190602"/>
<path d="M78.6941 85.5329H72.5459V84.5161H78.6941C78.972 84.5161 79.2025 84.7398 79.2025 85.0245C79.2025 85.3024 78.9788 85.5329 78.6941 85.5329Z" fill="#190602"/>
<path d="M78.6941 90.3185H72.5459V89.3018H78.6941C78.972 89.3018 79.2025 89.5255 79.2025 89.8102C79.2025 90.0881 78.9788 90.3185 78.6941 90.3185Z" fill="#190602"/>
<path d="M79.7787 87.9257H72.5459V86.9089H79.7719C80.0498 86.9089 80.2803 87.1326 80.2803 87.4173C80.2871 87.6953 80.0566 87.9257 79.7787 87.9257Z" fill="#190602"/>
<rect x="142.314" y="67.5" width="70.7458" height="70.7458" rx="4.5" fill="#ECE8E3" stroke="#101010"/>
<rect x="151.246" y="113.5" width="53" height="16" rx="4.5" fill="white" stroke="#101010"/>
<rect x="150.974" y="75.921" width="28.2156" height="28.2156" rx="14.1078" fill="white" stroke="black"/>
<rect x="232.06" y="67.5" width="70.7458" height="70.7458" rx="4.5" fill="#ECE8E3" stroke="#101010"/>
<rect x="240.992" y="113.5" width="53" height="16" rx="4.5" fill="white" stroke="#101010"/>
<rect x="240.719" y="75.921" width="28.2156" height="28.2156" rx="14.1078" fill="white" stroke="black"/>
<rect x="321.5" y="67.5" width="70.7458" height="70.7458" rx="4.5" fill="#ECE8E3" stroke="#101010"/>
<rect x="330.432" y="113.5" width="53" height="16" rx="4.5" fill="white" stroke="#101010"/>
<rect x="330.159" y="75.921" width="28.2156" height="28.2156" rx="14.1078" fill="white" stroke="black"/>
<rect x="52.5684" y="157.246" width="70.7458" height="70.7458" rx="4.5" fill="#ECE8E3" stroke="#101010"/>
<rect x="61.5" y="203.246" width="53" height="16" rx="4.5" fill="white" stroke="#101010"/>
<rect x="61.2275" y="165.667" width="28.2156" height="28.2156" rx="14.1078" fill="white" stroke="black"/>
<rect x="142.314" y="157.246" width="70.7458" height="70.7458" rx="4.5" fill="#ECE8E3" stroke="#101010"/>
<rect x="151.246" y="203.246" width="53" height="16" rx="4.5" fill="white" stroke="#101010"/>
<rect x="150.974" y="165.667" width="28.2156" height="28.2156" rx="14.1078" fill="white" stroke="black"/>
<rect x="232.06" y="157.246" width="70.7458" height="70.7458" rx="4.5" fill="#ECE8E3" stroke="#101010"/>
<rect x="240.992" y="203.246" width="53" height="16" rx="4.5" fill="white" stroke="#101010"/>
<rect x="240.719" y="165.667" width="28.2156" height="28.2156" rx="14.1078" fill="white" stroke="black"/>
<rect x="321.5" y="157.246" width="70.7458" height="70.7458" rx="4.5" fill="#ECE8E3" stroke="#101010"/>
<rect x="330.432" y="203.246" width="53" height="16" rx="4.5" fill="white" stroke="#101010"/>
<rect x="330.159" y="165.667" width="28.2156" height="28.2156" rx="14.1078" fill="white" stroke="black"/>
<circle cx="24.5" cy="24.5" r="9" fill="#ECE8E3" stroke="#101010"/>
<path d="M15 48H429" stroke="black"/>
<rect x="410.5" y="15.5" width="18" height="18" rx="4.5" fill="#ECE8E3" stroke="#101010"/>
<rect x="387.5" y="15.5" width="18" height="18" rx="4.5" fill="#ECE8E3" stroke="#101010"/>
<path fill-rule="evenodd" clip-rule="evenodd" d="M196 24.1637C196 21.8657 197.861 20 200.16 20C202.459 20 204.324 21.8651 204.324 24.1637C204.324 25.1526 203.979 26.0635 203.402 26.778L205.872 29.2515C206.043 29.4229 206.043 29.7006 205.871 29.8718C205.7 30.0429 205.422 30.0427 205.251 29.8713L202.488 27.1041C202.317 26.9328 202.317 26.6552 202.488 26.484C203.081 25.8906 203.446 25.0698 203.446 24.1637C203.446 22.3495 201.974 20.8772 200.16 20.8772C198.346 20.8772 196.877 22.349 196.877 24.1637C196.877 25.9779 198.35 27.4503 200.164 27.4503C200.384 27.4503 200.603 27.4269 200.814 27.3861C201.052 27.34 201.282 27.4955 201.328 27.7333C201.374 27.9711 201.219 28.2012 200.981 28.2473C200.72 28.2976 200.445 28.3275 200.164 28.3275C197.865 28.3275 196 26.4624 196 24.1637Z" fill="#101010"/>
</g>
<defs>
<clipPath id="clip0_327_251">
<rect width="444" height="250" rx="25" fill="white"/>
</clipPath>
</defs>
</svg>
