<svg width="444" height="250" viewBox="0 0 444 250" fill="none" xmlns="http://www.w3.org/2000/svg">
<g clip-path="url(#clip0_327_312)">
<rect width="444" height="250" rx="25" fill="#101010"/>
<rect x="190.5" y="15.5" width="192" height="18" rx="9" fill="#756A67" stroke="white"/>
<circle cx="24.5" cy="24.5" r="9" fill="#756A67" stroke="white"/>
<rect x="15.5" y="46.5" width="413" height="209" rx="4.5" fill="#756A67" stroke="white"/>
<path d="M20 46.5H221.5V117.5H15.5V51C15.5 48.5147 17.5147 46.5 20 46.5Z" fill="#756A67" stroke="white"/>
<path d="M15.5 91.5H221.5V117.5H15.5V91.5Z" fill="#101010" stroke="white"/>
<rect x="61.5" y="61.5" width="53" height="14" rx="4.5" fill="#A39B9A" stroke="white"/>
<rect x="24.5" y="126.5" width="90" height="8" rx="4" fill="#82A8A2" stroke="white"/>
<rect x="24.5" y="152.5" width="90" height="8" rx="4" fill="#82A8A2" stroke="white"/>
<rect x="24.5" y="178.5" width="90" height="8" rx="4" fill="#82A8A2" stroke="white"/>
<rect x="24.5" y="204.5" width="90" height="8" rx="4" fill="#82A8A2" stroke="white"/>
<rect x="24.5" y="230.5" width="90" height="8" rx="4" fill="#82A8A2" stroke="white"/>
<rect x="133.5" y="126.5" width="68" height="8" rx="4" fill="#82A8A2" stroke="white"/>
<rect x="133.5" y="152.5" width="68" height="8" rx="4" fill="#82A8A2" stroke="white"/>
<rect x="133.5" y="178.5" width="68" height="8" rx="4" fill="#82A8A2" stroke="white"/>
<rect x="133.5" y="204.5" width="68" height="8" rx="4" fill="#82A8A2" stroke="white"/>
<rect x="133.5" y="230.5" width="68" height="8" rx="4" fill="#82A8A2" stroke="white"/>
<rect x="212.5" y="126.5" width="68" height="8" rx="4" fill="#82A8A2" stroke="white"/>
<rect x="212.5" y="152.5" width="68" height="8" rx="4" fill="#82A8A2" stroke="white"/>
<rect x="212.5" y="178.5" width="68" height="8" rx="4" fill="#82A8A2" stroke="white"/>
<rect x="212.5" y="204.5" width="68" height="8" rx="4" fill="#82A8A2" stroke="white"/>
<rect x="212.5" y="230.5" width="68" height="8" rx="4" fill="#82A8A2" stroke="white"/>
<rect x="374.5" y="126.5" width="45" height="8" rx="4" fill="#A39B9A" stroke="white"/>
<rect x="374.5" y="152.5" width="45" height="8" rx="4" fill="#A39B9A" stroke="white"/>
<rect x="374.5" y="178.5" width="45" height="8" rx="4" fill="#A39B9A" stroke="white"/>
<rect x="374.5" y="204.5" width="45" height="8" rx="4" fill="#A39B9A" stroke="white"/>
<rect x="374.5" y="230.5" width="45" height="8" rx="4" fill="#A39B9A" stroke="white"/>
<rect x="304.5" y="126.5" width="45" height="8" rx="4" fill="#A39B9A" stroke="white"/>
<rect x="304.5" y="152.5" width="45" height="8" rx="4" fill="#A39B9A" stroke="white"/>
<rect x="304.5" y="178.5" width="45" height="8" rx="4" fill="#A39B9A" stroke="white"/>
<rect x="304.5" y="204.5" width="45" height="8" rx="4" fill="#A39B9A" stroke="white"/>
<rect x="304.5" y="230.5" width="45" height="8" rx="4" fill="#A39B9A" stroke="white"/>
<path d="M265.5 68.6719L265.5 117.5L249.5 117.5L249.5 68.6719C249.5 66.1866 251.515 64.1719 254 64.1719L261 64.1719C263.485 64.1719 265.5 66.1866 265.5 68.6719Z" fill="#101010" stroke="white"/>
<path d="M292.5 76.2969L292.5 117.5L276.5 117.5L276.5 76.2969C276.5 73.8116 278.515 71.7969 281 71.7969L288 71.7969C290.485 71.7969 292.5 73.8116 292.5 76.2969Z" fill="#101010" stroke="white"/>
<path d="M319.5 70.5781L319.5 117.5L303.5 117.5L303.5 70.5781C303.5 68.0928 305.515 66.0781 308 66.0781L315 66.0781C317.485 66.0781 319.5 68.0928 319.5 70.5781Z" fill="#101010" stroke="white"/>
<path d="M346.5 63.9062L346.5 117.5L330.5 117.5L330.5 63.9062C330.5 61.421 332.515 59.4062 335 59.4062L342 59.4062C344.485 59.4062 346.5 61.421 346.5 63.9062Z" fill="#101010" stroke="white"/>
<path d="M373.5 68.6719L373.5 117.5L357.5 117.5L357.5 68.6719C357.5 66.1866 359.515 64.1719 362 64.1719L369 64.1719C371.485 64.1719 373.5 66.1866 373.5 68.6719Z" fill="#101010" stroke="white"/>
<path d="M400.5 62L400.5 117.5L384.5 117.5L384.5 62C384.5 59.5147 386.515 57.5 389 57.5L396 57.5C398.485 57.5 400.5 59.5147 400.5 62Z" fill="#101010" stroke="white"/>
<rect x="24.2266" y="54.9211" width="28.2156" height="28.2156" rx="14.1078" fill="#FFEEDA" stroke="white"/>
<path d="M45.6658 71.664V61.6995C45.6522 60.8657 44.9879 60.1946 44.1542 60.1946H33.7558C31.5121 60.2285 29.709 62.0655 29.709 64.316C29.709 65.0752 29.9123 65.726 30.2242 66.2954C30.4885 66.7699 30.902 67.2173 31.3087 67.5494C31.424 67.6443 31.3697 67.6036 31.7222 67.8206C32.2103 68.1188 32.7661 68.2679 32.7661 68.2679L32.7594 74.2263C32.7729 74.511 32.8 74.7822 32.8746 75.033C33.1051 75.8735 33.688 76.5175 34.4811 76.8293C34.8133 76.9581 35.1861 77.0462 35.586 77.053L43.8898 77.0801C45.5438 77.0801 46.886 75.738 46.886 74.0772C46.8927 73.0943 46.4047 72.2131 45.6658 71.664Z" fill="#FFEEDA"/>
<path d="M45.8685 74.1517C45.8346 75.216 44.9602 76.0701 43.8892 76.0701L38.1748 76.0498C38.629 75.521 38.9069 74.8364 38.9069 74.0907C38.9069 72.918 38.2087 72.1114 38.2087 72.1114H43.8959C44.9873 72.1114 45.8753 72.9994 45.8753 74.0907L45.8685 74.1517Z" fill="#EBC28E"/>
<path d="M31.851 66.7088C31.1935 66.0852 30.7326 65.2785 30.7326 64.3227V64.2211C30.7868 62.5874 32.1289 61.2724 33.7626 61.2249H44.161C44.4321 61.2385 44.649 61.4283 44.649 61.7062V70.5048C44.8863 70.5455 45.0015 70.5794 45.232 70.6607C45.415 70.7285 45.6658 70.8709 45.6658 70.8709V61.7062C45.6522 60.8724 44.9879 60.2014 44.1542 60.2014H33.7558C31.5121 60.2352 29.709 62.0722 29.709 64.3227C29.709 65.631 30.3055 66.7495 31.2816 67.5358C31.3494 67.59 31.4104 67.6578 31.5867 67.6578C31.8917 67.6578 32.1086 67.4138 32.0951 67.1494C32.0883 66.9257 31.9934 66.8444 31.851 66.7088Z" fill="#190602"/>
<path d="M43.8891 71.0811H35.7344C35.1854 71.0879 34.7448 71.5285 34.7448 72.0776V73.2503C34.7583 73.7926 35.2193 74.2535 35.7683 74.2535H36.3716V73.2503H35.7683V72.1047C35.7683 72.1047 35.9175 72.1047 36.1005 72.1047C37.1308 72.1047 37.89 73.0605 37.89 74.084C37.89 74.9924 37.063 76.1515 35.6802 76.0566C34.4533 75.9753 33.789 74.8839 33.789 74.084V64.1466C33.789 63.6992 33.4229 63.3332 32.9755 63.3332H32.1621V64.35H32.7654V74.0908C32.7315 76.0702 34.1754 77.0666 35.6802 77.0666L43.8959 77.0937C45.5498 77.0937 46.892 75.7516 46.892 74.0908C46.892 72.4301 45.5431 71.0811 43.8891 71.0811ZM45.8684 74.1518C45.8345 75.2161 44.9601 76.0702 43.8891 76.0702L38.1747 76.0498C38.6289 75.5211 38.9068 74.8365 38.9068 74.0908C38.9068 72.9181 38.2086 72.1115 38.2086 72.1115H43.8959C44.9872 72.1115 45.8752 72.9995 45.8752 74.0908L45.8684 74.1518Z" fill="#190602"/>
<path d="M41.6931 64.533H35.5449V63.5162H41.6931C41.971 63.5162 42.2015 63.7399 42.2015 64.0246C42.2015 64.3025 41.9778 64.533 41.6931 64.533Z" fill="#190602"/>
<path d="M41.6931 69.3186H35.5449V68.3018H41.6931C41.971 68.3018 42.2015 68.5255 42.2015 68.8102C42.2015 69.0881 41.9778 69.3186 41.6931 69.3186Z" fill="#190602"/>
<path d="M42.7777 66.9258H35.5449V65.909H42.7709C43.0488 65.909 43.2793 66.1327 43.2793 66.4174C43.2861 66.6953 43.0556 66.9258 42.7777 66.9258Z" fill="#190602"/>
<path fill-rule="evenodd" clip-rule="evenodd" d="M429 144H15V143H429V144Z" fill="white"/>
<path fill-rule="evenodd" clip-rule="evenodd" d="M429 170H15V169H429V170Z" fill="white"/>
<path fill-rule="evenodd" clip-rule="evenodd" d="M429 118H15V117H429V118Z" fill="white"/>
<path fill-rule="evenodd" clip-rule="evenodd" d="M429 196H15V195H429V196Z" fill="white"/>
<path fill-rule="evenodd" clip-rule="evenodd" d="M429 222H15V221H429V222Z" fill="white"/>
<rect x="410.5" y="15.5" width="18" height="18" rx="4.5" fill="#756A67" stroke="white"/>
<rect x="387.5" y="15.5" width="18" height="18" rx="4.5" fill="#756A67" stroke="white"/>
<path fill-rule="evenodd" clip-rule="evenodd" d="M196 24.1637C196 21.8657 197.861 20 200.16 20C202.459 20 204.324 21.8651 204.324 24.1637C204.324 25.1526 203.979 26.0635 203.402 26.778L205.872 29.2515C206.043 29.4229 206.043 29.7006 205.871 29.8718C205.7 30.0429 205.422 30.0427 205.251 29.8713L202.488 27.1041C202.317 26.9328 202.317 26.6552 202.488 26.484C203.081 25.8906 203.446 25.0698 203.446 24.1637C203.446 22.3495 201.974 20.8772 200.16 20.8772C198.346 20.8772 196.877 22.349 196.877 24.1637C196.877 25.9779 198.35 27.4503 200.164 27.4503C200.384 27.4503 200.603 27.4269 200.814 27.3861C201.052 27.34 201.282 27.4955 201.328 27.7333C201.374 27.9711 201.219 28.2012 200.981 28.2473C200.72 28.2976 200.445 28.3275 200.164 28.3275C197.865 28.3275 196 26.4624 196 24.1637Z" fill="white"/>
</g>
<defs>
<clipPath id="clip0_327_312">
<rect width="444" height="250" rx="25" fill="white"/>
</clipPath>
</defs>
</svg>
