<svg width="27" height="28" viewBox="0 0 27 28" fill="none" xmlns="http://www.w3.org/2000/svg">
<path fill-rule="evenodd" clip-rule="evenodd" d="M5.13411 19.6253H5.33695C5.79393 19.6253 6.16421 19.2551 6.16421 18.7981C6.16421 18.3411 5.79393 17.9708 5.33695 17.9708H5.13411C4.67779 17.9708 4.30685 17.5999 4.30685 17.1436V5.89291C4.30685 5.43659 4.67779 5.06565 5.13411 5.06565H16.3848C16.8411 5.06565 17.212 5.43659 17.212 5.89291V6.09575C17.212 6.55272 17.5823 6.923 18.0393 6.923C18.4963 6.923 18.8665 6.55272 18.8665 6.09542V5.89291C18.8665 4.5243 17.7534 3.41114 16.3848 3.41114H5.13411C3.7655 3.41114 2.65234 4.5243 2.65234 5.89291V17.1436C2.65234 18.5122 3.7655 19.6253 5.13411 19.6253ZM10.0974 24.5889H21.3481C22.7167 24.5889 23.8299 23.4757 23.8299 22.1071V10.8564C23.8299 9.48782 22.7167 8.37467 21.3481 8.37467H10.0974C8.72882 8.37467 7.61567 9.48782 7.61567 10.8564V22.1071C7.61567 23.4757 8.72882 24.5889 10.0974 24.5889ZM9.27018 10.8564C9.27018 10.4001 9.64112 10.0292 10.0974 10.0292H21.3481C21.8044 10.0292 22.1754 10.4001 22.1754 10.8564V22.1071C22.1754 22.5634 21.8044 22.9344 21.3481 22.9344H10.0974C9.64112 22.9344 9.27018 22.5634 9.27018 22.1071V10.8564Z" fill="white"/>
</svg>
