<svg width="653" height="262" viewBox="0 0 653 262" fill="none" xmlns="http://www.w3.org/2000/svg">
<mask id="path-1-inside-1_5519_3016" fill="white">
<path fill-rule="evenodd" clip-rule="evenodd" d="M634.531 6.82292C638.298 6.82292 641.354 3.76625 641.354 0H652.271V262H641.354C641.354 258.234 638.298 255.177 634.531 255.177C630.765 255.177 627.708 258.234 627.708 262H616.792C616.792 258.234 613.735 255.177 609.969 255.177C606.203 255.177 603.146 258.234 603.146 262H592.229C592.229 258.234 589.173 255.177 585.406 255.177C581.64 255.177 578.583 258.234 578.583 262H567.667C567.667 258.234 564.61 255.177 560.844 255.177C557.078 255.177 554.021 258.234 554.021 262H543.104C543.104 258.234 540.047 255.177 536.281 255.177C532.515 255.177 529.458 258.234 529.458 262H518.542C518.542 258.234 515.485 255.177 511.719 255.177C507.953 255.177 504.896 258.234 504.896 262H493.979C493.979 258.234 490.923 255.177 487.156 255.177C483.39 255.177 480.333 258.234 480.333 262H469.417C469.417 258.234 466.36 255.177 462.594 255.177C458.828 255.177 455.771 258.234 455.771 262H444.854C444.854 258.234 441.798 255.177 438.031 255.177C434.265 255.177 431.208 258.234 431.208 262H420.292C420.292 258.234 417.235 255.177 413.469 255.177C409.703 255.177 406.646 258.234 406.646 262H395.729C395.729 258.234 392.673 255.177 388.906 255.177C385.14 255.177 382.083 258.234 382.083 262H371.167C371.167 258.234 368.11 255.177 364.344 255.177C360.578 255.177 357.521 258.234 357.521 262H346.604C346.604 258.234 343.548 255.177 339.781 255.177C336.015 255.177 332.958 258.234 332.958 262H322.042C322.042 258.234 318.985 255.177 315.219 255.177C311.453 255.177 308.396 258.234 308.396 262H297.479C297.479 258.234 294.423 255.177 290.656 255.177C286.89 255.177 283.833 258.234 283.833 262H272.917C272.917 258.234 269.86 255.177 266.094 255.177C262.328 255.177 259.271 258.234 259.271 262H248.354C248.354 258.234 245.298 255.177 241.531 255.177C237.765 255.177 234.708 258.234 234.708 262H223.792C223.792 258.234 220.735 255.177 216.969 255.177C213.202 255.177 210.146 258.234 210.146 262H199.229C199.229 258.234 196.173 255.177 192.406 255.177C188.64 255.177 185.583 258.234 185.583 262H174.667C174.667 258.234 171.61 255.177 167.844 255.177C164.077 255.177 161.021 258.234 161.021 262H150.104C150.104 258.234 147.048 255.177 143.281 255.177C139.515 255.177 136.458 258.234 136.458 262H125.542C125.542 258.234 122.485 255.177 118.719 255.177C114.953 255.177 111.896 258.234 111.896 262H100.979C100.979 258.234 97.9225 255.177 94.1562 255.177C90.39 255.177 87.3333 258.234 87.3333 262H76.4167C76.4167 258.234 73.36 255.177 69.5938 255.177C65.8275 255.177 62.7708 258.234 62.7708 262H51.8542C51.8542 258.234 48.7975 255.177 45.0312 255.177C41.265 255.177 38.2083 258.234 38.2083 262H27.2917C27.2917 258.234 24.235 255.177 20.4688 255.177C16.7025 255.177 13.6458 258.234 13.6458 262H0V0H13.6458C13.6458 3.76625 16.7025 6.82292 20.4688 6.82292C24.235 6.82292 27.2917 3.76625 27.2917 0H38.2083C38.2083 3.76625 41.265 6.82292 45.0312 6.82292C48.7975 6.82292 51.8542 3.76625 51.8542 0H62.7708C62.7708 3.76625 65.8275 6.82292 69.5938 6.82292C73.36 6.82292 76.4167 3.76625 76.4167 0H87.3333C87.3333 3.76625 90.39 6.82292 94.1562 6.82292C97.9225 6.82292 100.979 3.76625 100.979 0H111.896C111.896 3.76625 114.953 6.82292 118.719 6.82292C122.485 6.82292 125.542 3.76625 125.542 0H136.458C136.458 3.76625 139.515 6.82292 143.281 6.82292C147.048 6.82292 150.104 3.76625 150.104 0H161.021C161.021 3.76625 164.077 6.82292 167.844 6.82292C171.61 6.82292 174.667 3.76625 174.667 0H185.583C185.583 3.76625 188.64 6.82292 192.406 6.82292C196.173 6.82292 199.229 3.76625 199.229 0H210.146C210.146 3.76625 213.202 6.82292 216.969 6.82292C220.735 6.82292 223.792 3.76625 223.792 0H234.708C234.708 3.76625 237.765 6.82292 241.531 6.82292C245.298 6.82292 248.354 3.76625 248.354 0H259.271C259.271 3.76625 262.328 6.82292 266.094 6.82292C269.86 6.82292 272.917 3.76625 272.917 0H283.833C283.833 3.76625 286.89 6.82292 290.656 6.82292C294.423 6.82292 297.479 3.76625 297.479 0H308.396C308.396 3.76625 311.453 6.82292 315.219 6.82292C318.985 6.82292 322.042 3.76625 322.042 0H332.958C332.958 3.76625 336.015 6.82292 339.781 6.82292C343.548 6.82292 346.604 3.76625 346.604 0H357.521C357.521 3.76625 360.578 6.82292 364.344 6.82292C368.11 6.82292 371.167 3.76625 371.167 0H382.083C382.083 3.76625 385.14 6.82292 388.906 6.82292C392.673 6.82292 395.729 3.76625 395.729 0H406.646C406.646 3.76625 409.703 6.82292 413.469 6.82292C417.235 6.82292 420.292 3.76625 420.292 0H431.208C431.208 3.76625 434.265 6.82292 438.031 6.82292C441.798 6.82292 444.854 3.76625 444.854 0H455.771C455.771 3.76625 458.828 6.82292 462.594 6.82292C466.36 6.82292 469.417 3.76625 469.417 0H480.333C480.333 3.76625 483.39 6.82292 487.156 6.82292C490.923 6.82292 493.979 3.76625 493.979 0H504.896C504.896 3.76625 507.953 6.82292 511.719 6.82292C515.485 6.82292 518.542 3.76625 518.542 0H529.458C529.458 3.76625 532.515 6.82292 536.281 6.82292C540.047 6.82292 543.104 3.76625 543.104 0H554.021C554.021 3.76625 557.078 6.82292 560.844 6.82292C564.61 6.82292 567.667 3.76625 567.667 0H578.583C578.583 3.76625 581.64 6.82292 585.406 6.82292C589.173 6.82292 592.229 3.76625 592.229 0H603.146C603.146 3.76625 606.203 6.82292 609.969 6.82292C613.735 6.82292 616.792 3.76625 616.792 0H627.708C627.708 3.76625 630.765 6.82292 634.531 6.82292ZM270 24C270 26.2091 268.209 28 266 28C263.791 28 262 26.2091 262 24C262 21.7909 263.791 20 266 20C268.209 20 270 21.7909 270 24ZM270 42C270 44.2091 268.209 46 266 46C263.791 46 262 44.2091 262 42C262 39.7909 263.791 38 266 38C268.209 38 270 39.7909 270 42ZM266 64C268.209 64 270 62.2091 270 60C270 57.7909 268.209 56 266 56C263.791 56 262 57.7909 262 60C262 62.2091 263.791 64 266 64ZM270 78C270 80.2091 268.209 82 266 82C263.791 82 262 80.2091 262 78C262 75.7909 263.791 74 266 74C268.209 74 270 75.7909 270 78ZM266 100C268.209 100 270 98.2091 270 96C270 93.7909 268.209 92 266 92C263.791 92 262 93.7909 262 96C262 98.2091 263.791 100 266 100ZM270 114C270 116.209 268.209 118 266 118C263.791 118 262 116.209 262 114C262 111.791 263.791 110 266 110C268.209 110 270 111.791 270 114ZM266 136C268.209 136 270 134.209 270 132C270 129.791 268.209 128 266 128C263.791 128 262 129.791 262 132C262 134.209 263.791 136 266 136ZM270 150C270 152.209 268.209 154 266 154C263.791 154 262 152.209 262 150C262 147.791 263.791 146 266 146C268.209 146 270 147.791 270 150ZM266 172C268.209 172 270 170.209 270 168C270 165.791 268.209 164 266 164C263.791 164 262 165.791 262 168C262 170.209 263.791 172 266 172ZM270 186C270 188.209 268.209 190 266 190C263.791 190 262 188.209 262 186C262 183.791 263.791 182 266 182C268.209 182 270 183.791 270 186ZM266 208C268.209 208 270 206.209 270 204C270 201.791 268.209 200 266 200C263.791 200 262 201.791 262 204C262 206.209 263.791 208 266 208ZM270 222C270 224.209 268.209 226 266 226C263.791 226 262 224.209 262 222C262 219.791 263.791 218 266 218C268.209 218 270 219.791 270 222ZM266 244C268.209 244 270 242.209 270 240C270 237.791 268.209 236 266 236C263.791 236 262 237.791 262 240C262 242.209 263.791 244 266 244Z"/>
</mask>
<path fill-rule="evenodd" clip-rule="evenodd" d="M634.531 6.82292C638.298 6.82292 641.354 3.76625 641.354 0H652.271V262H641.354C641.354 258.234 638.298 255.177 634.531 255.177C630.765 255.177 627.708 258.234 627.708 262H616.792C616.792 258.234 613.735 255.177 609.969 255.177C606.203 255.177 603.146 258.234 603.146 262H592.229C592.229 258.234 589.173 255.177 585.406 255.177C581.64 255.177 578.583 258.234 578.583 262H567.667C567.667 258.234 564.61 255.177 560.844 255.177C557.078 255.177 554.021 258.234 554.021 262H543.104C543.104 258.234 540.047 255.177 536.281 255.177C532.515 255.177 529.458 258.234 529.458 262H518.542C518.542 258.234 515.485 255.177 511.719 255.177C507.953 255.177 504.896 258.234 504.896 262H493.979C493.979 258.234 490.923 255.177 487.156 255.177C483.39 255.177 480.333 258.234 480.333 262H469.417C469.417 258.234 466.36 255.177 462.594 255.177C458.828 255.177 455.771 258.234 455.771 262H444.854C444.854 258.234 441.798 255.177 438.031 255.177C434.265 255.177 431.208 258.234 431.208 262H420.292C420.292 258.234 417.235 255.177 413.469 255.177C409.703 255.177 406.646 258.234 406.646 262H395.729C395.729 258.234 392.673 255.177 388.906 255.177C385.14 255.177 382.083 258.234 382.083 262H371.167C371.167 258.234 368.11 255.177 364.344 255.177C360.578 255.177 357.521 258.234 357.521 262H346.604C346.604 258.234 343.548 255.177 339.781 255.177C336.015 255.177 332.958 258.234 332.958 262H322.042C322.042 258.234 318.985 255.177 315.219 255.177C311.453 255.177 308.396 258.234 308.396 262H297.479C297.479 258.234 294.423 255.177 290.656 255.177C286.89 255.177 283.833 258.234 283.833 262H272.917C272.917 258.234 269.86 255.177 266.094 255.177C262.328 255.177 259.271 258.234 259.271 262H248.354C248.354 258.234 245.298 255.177 241.531 255.177C237.765 255.177 234.708 258.234 234.708 262H223.792C223.792 258.234 220.735 255.177 216.969 255.177C213.202 255.177 210.146 258.234 210.146 262H199.229C199.229 258.234 196.173 255.177 192.406 255.177C188.64 255.177 185.583 258.234 185.583 262H174.667C174.667 258.234 171.61 255.177 167.844 255.177C164.077 255.177 161.021 258.234 161.021 262H150.104C150.104 258.234 147.048 255.177 143.281 255.177C139.515 255.177 136.458 258.234 136.458 262H125.542C125.542 258.234 122.485 255.177 118.719 255.177C114.953 255.177 111.896 258.234 111.896 262H100.979C100.979 258.234 97.9225 255.177 94.1562 255.177C90.39 255.177 87.3333 258.234 87.3333 262H76.4167C76.4167 258.234 73.36 255.177 69.5938 255.177C65.8275 255.177 62.7708 258.234 62.7708 262H51.8542C51.8542 258.234 48.7975 255.177 45.0312 255.177C41.265 255.177 38.2083 258.234 38.2083 262H27.2917C27.2917 258.234 24.235 255.177 20.4688 255.177C16.7025 255.177 13.6458 258.234 13.6458 262H0V0H13.6458C13.6458 3.76625 16.7025 6.82292 20.4688 6.82292C24.235 6.82292 27.2917 3.76625 27.2917 0H38.2083C38.2083 3.76625 41.265 6.82292 45.0312 6.82292C48.7975 6.82292 51.8542 3.76625 51.8542 0H62.7708C62.7708 3.76625 65.8275 6.82292 69.5938 6.82292C73.36 6.82292 76.4167 3.76625 76.4167 0H87.3333C87.3333 3.76625 90.39 6.82292 94.1562 6.82292C97.9225 6.82292 100.979 3.76625 100.979 0H111.896C111.896 3.76625 114.953 6.82292 118.719 6.82292C122.485 6.82292 125.542 3.76625 125.542 0H136.458C136.458 3.76625 139.515 6.82292 143.281 6.82292C147.048 6.82292 150.104 3.76625 150.104 0H161.021C161.021 3.76625 164.077 6.82292 167.844 6.82292C171.61 6.82292 174.667 3.76625 174.667 0H185.583C185.583 3.76625 188.64 6.82292 192.406 6.82292C196.173 6.82292 199.229 3.76625 199.229 0H210.146C210.146 3.76625 213.202 6.82292 216.969 6.82292C220.735 6.82292 223.792 3.76625 223.792 0H234.708C234.708 3.76625 237.765 6.82292 241.531 6.82292C245.298 6.82292 248.354 3.76625 248.354 0H259.271C259.271 3.76625 262.328 6.82292 266.094 6.82292C269.86 6.82292 272.917 3.76625 272.917 0H283.833C283.833 3.76625 286.89 6.82292 290.656 6.82292C294.423 6.82292 297.479 3.76625 297.479 0H308.396C308.396 3.76625 311.453 6.82292 315.219 6.82292C318.985 6.82292 322.042 3.76625 322.042 0H332.958C332.958 3.76625 336.015 6.82292 339.781 6.82292C343.548 6.82292 346.604 3.76625 346.604 0H357.521C357.521 3.76625 360.578 6.82292 364.344 6.82292C368.11 6.82292 371.167 3.76625 371.167 0H382.083C382.083 3.76625 385.14 6.82292 388.906 6.82292C392.673 6.82292 395.729 3.76625 395.729 0H406.646C406.646 3.76625 409.703 6.82292 413.469 6.82292C417.235 6.82292 420.292 3.76625 420.292 0H431.208C431.208 3.76625 434.265 6.82292 438.031 6.82292C441.798 6.82292 444.854 3.76625 444.854 0H455.771C455.771 3.76625 458.828 6.82292 462.594 6.82292C466.36 6.82292 469.417 3.76625 469.417 0H480.333C480.333 3.76625 483.39 6.82292 487.156 6.82292C490.923 6.82292 493.979 3.76625 493.979 0H504.896C504.896 3.76625 507.953 6.82292 511.719 6.82292C515.485 6.82292 518.542 3.76625 518.542 0H529.458C529.458 3.76625 532.515 6.82292 536.281 6.82292C540.047 6.82292 543.104 3.76625 543.104 0H554.021C554.021 3.76625 557.078 6.82292 560.844 6.82292C564.61 6.82292 567.667 3.76625 567.667 0H578.583C578.583 3.76625 581.64 6.82292 585.406 6.82292C589.173 6.82292 592.229 3.76625 592.229 0H603.146C603.146 3.76625 606.203 6.82292 609.969 6.82292C613.735 6.82292 616.792 3.76625 616.792 0H627.708C627.708 3.76625 630.765 6.82292 634.531 6.82292ZM270 24C270 26.2091 268.209 28 266 28C263.791 28 262 26.2091 262 24C262 21.7909 263.791 20 266 20C268.209 20 270 21.7909 270 24ZM270 42C270 44.2091 268.209 46 266 46C263.791 46 262 44.2091 262 42C262 39.7909 263.791 38 266 38C268.209 38 270 39.7909 270 42ZM266 64C268.209 64 270 62.2091 270 60C270 57.7909 268.209 56 266 56C263.791 56 262 57.7909 262 60C262 62.2091 263.791 64 266 64ZM270 78C270 80.2091 268.209 82 266 82C263.791 82 262 80.2091 262 78C262 75.7909 263.791 74 266 74C268.209 74 270 75.7909 270 78ZM266 100C268.209 100 270 98.2091 270 96C270 93.7909 268.209 92 266 92C263.791 92 262 93.7909 262 96C262 98.2091 263.791 100 266 100ZM270 114C270 116.209 268.209 118 266 118C263.791 118 262 116.209 262 114C262 111.791 263.791 110 266 110C268.209 110 270 111.791 270 114ZM266 136C268.209 136 270 134.209 270 132C270 129.791 268.209 128 266 128C263.791 128 262 129.791 262 132C262 134.209 263.791 136 266 136ZM270 150C270 152.209 268.209 154 266 154C263.791 154 262 152.209 262 150C262 147.791 263.791 146 266 146C268.209 146 270 147.791 270 150ZM266 172C268.209 172 270 170.209 270 168C270 165.791 268.209 164 266 164C263.791 164 262 165.791 262 168C262 170.209 263.791 172 266 172ZM270 186C270 188.209 268.209 190 266 190C263.791 190 262 188.209 262 186C262 183.791 263.791 182 266 182C268.209 182 270 183.791 270 186ZM266 208C268.209 208 270 206.209 270 204C270 201.791 268.209 200 266 200C263.791 200 262 201.791 262 204C262 206.209 263.791 208 266 208ZM270 222C270 224.209 268.209 226 266 226C263.791 226 262 224.209 262 222C262 219.791 263.791 218 266 218C268.209 218 270 219.791 270 222ZM266 244C268.209 244 270 242.209 270 240C270 237.791 268.209 236 266 236C263.791 236 262 237.791 262 240C262 242.209 263.791 244 266 244Z" fill="#FFE4C0"/>
<path d="M641.354 0V-1H640.354V0H641.354ZM652.271 0H653.271V-1H652.271V0ZM652.271 262V263H653.271V262H652.271ZM641.354 262H640.354V263H641.354V262ZM627.708 262V263H628.708V262H627.708ZM616.792 262H615.792V263H616.792V262ZM603.146 262V263H604.146V262H603.146ZM592.229 262H591.229V263H592.229V262ZM578.583 262V263H579.583V262H578.583ZM567.667 262H566.667V263H567.667V262ZM554.021 262V263H555.021V262H554.021ZM543.104 262H542.104V263H543.104V262ZM529.458 262V263H530.458V262H529.458ZM518.542 262H517.542V263H518.542V262ZM504.896 262V263H505.896V262H504.896ZM493.979 262H492.979V263H493.979V262ZM480.333 262V263H481.333V262H480.333ZM469.417 262H468.417V263H469.417V262ZM455.771 262V263H456.771V262H455.771ZM444.854 262H443.854V263H444.854V262ZM431.208 262V263H432.208V262H431.208ZM420.292 262H419.292V263H420.292V262ZM406.646 262V263H407.646V262H406.646ZM395.729 262H394.729V263H395.729V262ZM382.083 262V263H383.083V262H382.083ZM371.167 262H370.167V263H371.167V262ZM357.521 262V263H358.521V262H357.521ZM346.604 262H345.604V263H346.604V262ZM332.958 262V263H333.958V262H332.958ZM322.042 262H321.042V263H322.042V262ZM308.396 262V263H309.396V262H308.396ZM297.479 262H296.479V263H297.479V262ZM283.833 262V263H284.833V262H283.833ZM272.917 262H271.917V263H272.917V262ZM259.271 262V263H260.271V262H259.271ZM248.354 262H247.354V263H248.354V262ZM234.708 262V263H235.708V262H234.708ZM223.792 262H222.792V263H223.792V262ZM210.146 262V263H211.146V262H210.146ZM199.229 262H198.229V263H199.229V262ZM185.583 262V263H186.583V262H185.583ZM174.667 262H173.667V263H174.667V262ZM161.021 262V263H162.021V262H161.021ZM150.104 262H149.104V263H150.104V262ZM136.458 262V263H137.458V262H136.458ZM125.542 262H124.542V263H125.542V262ZM111.896 262V263H112.896V262H111.896ZM100.979 262H99.9792V263H100.979V262ZM87.3333 262V263H88.3333V262H87.3333ZM76.4167 262H75.4167V263H76.4167V262ZM62.7708 262V263H63.7708V262H62.7708ZM51.8542 262H50.8542V263H51.8542V262ZM38.2083 262V263H39.2083V262H38.2083ZM27.2917 262H26.2917V263H27.2917V262ZM13.6458 262V263H14.6458V262H13.6458ZM0 262H-1V263H0V262ZM0 0V-1H-1V0H0ZM13.6458 0H14.6458V-1H13.6458V0ZM27.2917 0V-1H26.2917V0H27.2917ZM38.2083 0H39.2083V-1H38.2083V0ZM51.8542 0V-1H50.8542V0H51.8542ZM62.7708 0H63.7708V-1H62.7708V0ZM76.4167 0V-1H75.4167V0H76.4167ZM87.3333 0H88.3333V-1H87.3333V0ZM100.979 0V-1H99.9792V0H100.979ZM111.896 0H112.896V-1H111.896V0ZM125.542 0V-1H124.542V0H125.542ZM136.458 0H137.458V-1H136.458V0ZM150.104 0V-1H149.104V0H150.104ZM161.021 0H162.021V-1H161.021V0ZM174.667 0V-1H173.667V0H174.667ZM185.583 0H186.583V-1H185.583V0ZM199.229 0V-1H198.229V0H199.229ZM210.146 0H211.146V-1H210.146V0ZM223.792 0V-1H222.792V0H223.792ZM234.708 0H235.708V-1H234.708V0ZM248.354 0V-1H247.354V0H248.354ZM259.271 0H260.271V-1H259.271V0ZM272.917 0V-1H271.917V0H272.917ZM283.833 0H284.833V-1H283.833V0ZM297.479 0V-1H296.479V0H297.479ZM308.396 0H309.396V-1H308.396V0ZM322.042 0V-1H321.042V0H322.042ZM332.958 0H333.958V-1H332.958V0ZM346.604 0V-1H345.604V0H346.604ZM357.521 0H358.521V-1H357.521V0ZM371.167 0V-1H370.167V0H371.167ZM382.083 0H383.083V-1H382.083V0ZM395.729 0V-1H394.729V0H395.729ZM406.646 0H407.646V-1H406.646V0ZM420.292 0V-1H419.292V0H420.292ZM431.208 0H432.208V-1H431.208V0ZM444.854 0V-1H443.854V0H444.854ZM455.771 0H456.771V-1H455.771V0ZM469.417 0V-1H468.417V0H469.417ZM480.333 0H481.333V-1H480.333V0ZM493.979 0V-1H492.979V0H493.979ZM504.896 0H505.896V-1H504.896V0ZM518.542 0V-1H517.542V0H518.542ZM529.458 0H530.458V-1H529.458V0ZM543.104 0V-1H542.104V0H543.104ZM554.021 0H555.021V-1H554.021V0ZM567.667 0V-1H566.667V0H567.667ZM578.583 0H579.583V-1H578.583V0ZM592.229 0V-1H591.229V0H592.229ZM603.146 0H604.146V-1H603.146V0ZM616.792 0V-1H615.792V0H616.792ZM627.708 0H628.708V-1H627.708V0ZM640.354 0C640.354 3.21397 637.745 5.82292 634.531 5.82292V7.82292C638.85 7.82292 642.354 4.31853 642.354 0H640.354ZM652.271 -1H641.354V1H652.271V-1ZM653.271 262V0H651.271V262H653.271ZM641.354 263H652.271V261H641.354V263ZM634.531 256.177C637.745 256.177 640.354 258.786 640.354 262H642.354C642.354 257.681 638.85 254.177 634.531 254.177V256.177ZM628.708 262C628.708 258.786 631.317 256.177 634.531 256.177V254.177C630.213 254.177 626.708 257.681 626.708 262H628.708ZM616.792 263H627.708V261H616.792V263ZM609.969 256.177C613.183 256.177 615.792 258.786 615.792 262H617.792C617.792 257.681 614.287 254.177 609.969 254.177V256.177ZM604.146 262C604.146 258.786 606.755 256.177 609.969 256.177V254.177C605.65 254.177 602.146 257.681 602.146 262H604.146ZM592.229 263H603.146V261H592.229V263ZM585.406 256.177C588.62 256.177 591.229 258.786 591.229 262H593.229C593.229 257.681 589.725 254.177 585.406 254.177V256.177ZM579.583 262C579.583 258.786 582.192 256.177 585.406 256.177V254.177C581.088 254.177 577.583 257.681 577.583 262H579.583ZM567.667 263H578.583V261H567.667V263ZM560.844 256.177C564.058 256.177 566.667 258.786 566.667 262H568.667C568.667 257.681 565.162 254.177 560.844 254.177V256.177ZM555.021 262C555.021 258.786 557.63 256.177 560.844 256.177V254.177C556.525 254.177 553.021 257.681 553.021 262H555.021ZM543.104 263H554.021V261H543.104V263ZM536.281 256.177C539.495 256.177 542.104 258.786 542.104 262H544.104C544.104 257.681 540.6 254.177 536.281 254.177V256.177ZM530.458 262C530.458 258.786 533.067 256.177 536.281 256.177V254.177C531.963 254.177 528.458 257.681 528.458 262H530.458ZM518.542 263H529.458V261H518.542V263ZM511.719 256.177C514.933 256.177 517.542 258.786 517.542 262H519.542C519.542 257.681 516.037 254.177 511.719 254.177V256.177ZM505.896 262C505.896 258.786 508.505 256.177 511.719 256.177V254.177C507.4 254.177 503.896 257.681 503.896 262H505.896ZM493.979 263H504.896V261H493.979V263ZM487.156 256.177C490.37 256.177 492.979 258.786 492.979 262H494.979C494.979 257.681 491.475 254.177 487.156 254.177V256.177ZM481.333 262C481.333 258.786 483.942 256.177 487.156 256.177V254.177C482.838 254.177 479.333 257.681 479.333 262H481.333ZM469.417 263H480.333V261H469.417V263ZM462.594 256.177C465.808 256.177 468.417 258.786 468.417 262H470.417C470.417 257.681 466.912 254.177 462.594 254.177V256.177ZM456.771 262C456.771 258.786 459.38 256.177 462.594 256.177V254.177C458.275 254.177 454.771 257.681 454.771 262H456.771ZM444.854 263H455.771V261H444.854V263ZM438.031 256.177C441.245 256.177 443.854 258.786 443.854 262H445.854C445.854 257.681 442.35 254.177 438.031 254.177V256.177ZM432.208 262C432.208 258.786 434.817 256.177 438.031 256.177V254.177C433.713 254.177 430.208 257.681 430.208 262H432.208ZM420.292 263H431.208V261H420.292V263ZM413.469 256.177C416.683 256.177 419.292 258.786 419.292 262H421.292C421.292 257.681 417.787 254.177 413.469 254.177V256.177ZM407.646 262C407.646 258.786 410.255 256.177 413.469 256.177V254.177C409.15 254.177 405.646 257.681 405.646 262H407.646ZM395.729 263H406.646V261H395.729V263ZM388.906 256.177C392.12 256.177 394.729 258.786 394.729 262H396.729C396.729 257.681 393.225 254.177 388.906 254.177V256.177ZM383.083 262C383.083 258.786 385.692 256.177 388.906 256.177V254.177C384.588 254.177 381.083 257.681 381.083 262H383.083ZM371.167 263H382.083V261H371.167V263ZM364.344 256.177C367.558 256.177 370.167 258.786 370.167 262H372.167C372.167 257.681 368.662 254.177 364.344 254.177V256.177ZM358.521 262C358.521 258.786 361.13 256.177 364.344 256.177V254.177C360.025 254.177 356.521 257.681 356.521 262H358.521ZM346.604 263H357.521V261H346.604V263ZM339.781 256.177C342.995 256.177 345.604 258.786 345.604 262H347.604C347.604 257.681 344.1 254.177 339.781 254.177V256.177ZM333.958 262C333.958 258.786 336.567 256.177 339.781 256.177V254.177C335.463 254.177 331.958 257.681 331.958 262H333.958ZM322.042 263H332.958V261H322.042V263ZM315.219 256.177C318.433 256.177 321.042 258.786 321.042 262H323.042C323.042 257.681 319.537 254.177 315.219 254.177V256.177ZM309.396 262C309.396 258.786 312.005 256.177 315.219 256.177V254.177C310.9 254.177 307.396 257.681 307.396 262H309.396ZM297.479 263H308.396V261H297.479V263ZM290.656 256.177C293.87 256.177 296.479 258.786 296.479 262H298.479C298.479 257.681 294.975 254.177 290.656 254.177V256.177ZM284.833 262C284.833 258.786 287.442 256.177 290.656 256.177V254.177C286.338 254.177 282.833 257.681 282.833 262H284.833ZM272.917 263H283.833V261H272.917V263ZM266.094 256.177C269.308 256.177 271.917 258.786 271.917 262H273.917C273.917 257.681 270.412 254.177 266.094 254.177V256.177ZM260.271 262C260.271 258.786 262.88 256.177 266.094 256.177V254.177C261.775 254.177 258.271 257.681 258.271 262H260.271ZM248.354 263H259.271V261H248.354V263ZM241.531 256.177C244.745 256.177 247.354 258.786 247.354 262H249.354C249.354 257.681 245.85 254.177 241.531 254.177V256.177ZM235.708 262C235.708 258.786 238.317 256.177 241.531 256.177V254.177C237.213 254.177 233.708 257.681 233.708 262H235.708ZM223.792 263H234.708V261H223.792V263ZM216.969 256.177C220.183 256.177 222.792 258.786 222.792 262H224.792C224.792 257.681 221.287 254.177 216.969 254.177V256.177ZM211.146 262C211.146 258.786 213.755 256.177 216.969 256.177V254.177C212.65 254.177 209.146 257.681 209.146 262H211.146ZM199.229 263H210.146V261H199.229V263ZM192.406 256.177C195.62 256.177 198.229 258.786 198.229 262H200.229C200.229 257.681 196.725 254.177 192.406 254.177V256.177ZM186.583 262C186.583 258.786 189.192 256.177 192.406 256.177V254.177C188.088 254.177 184.583 257.681 184.583 262H186.583ZM174.667 263H185.583V261H174.667V263ZM167.844 256.177C171.058 256.177 173.667 258.786 173.667 262H175.667C175.667 257.681 172.162 254.177 167.844 254.177V256.177ZM162.021 262C162.021 258.786 164.63 256.177 167.844 256.177V254.177C163.525 254.177 160.021 257.681 160.021 262H162.021ZM150.104 263H161.021V261H150.104V263ZM143.281 256.177C146.495 256.177 149.104 258.786 149.104 262H151.104C151.104 257.681 147.6 254.177 143.281 254.177V256.177ZM137.458 262C137.458 258.786 140.067 256.177 143.281 256.177V254.177C138.963 254.177 135.458 257.681 135.458 262H137.458ZM125.542 263H136.458V261H125.542V263ZM118.719 256.177C121.933 256.177 124.542 258.786 124.542 262H126.542C126.542 257.681 123.037 254.177 118.719 254.177V256.177ZM112.896 262C112.896 258.786 115.505 256.177 118.719 256.177V254.177C114.4 254.177 110.896 257.681 110.896 262H112.896ZM100.979 263H111.896V261H100.979V263ZM94.1562 256.177C97.3702 256.177 99.9792 258.786 99.9792 262H101.979C101.979 257.681 98.4748 254.177 94.1562 254.177V256.177ZM88.3333 262C88.3333 258.786 90.9423 256.177 94.1562 256.177V254.177C89.8377 254.177 86.3333 257.681 86.3333 262H88.3333ZM76.4167 263H87.3333V261H76.4167V263ZM69.5938 256.177C72.8077 256.177 75.4167 258.786 75.4167 262H77.4167C77.4167 257.681 73.9123 254.177 69.5938 254.177V256.177ZM63.7708 262C63.7708 258.786 66.3798 256.177 69.5938 256.177V254.177C65.2752 254.177 61.7708 257.681 61.7708 262H63.7708ZM51.8542 263H62.7708V261H51.8542V263ZM45.0312 256.177C48.2452 256.177 50.8542 258.786 50.8542 262H52.8542C52.8542 257.681 49.3498 254.177 45.0312 254.177V256.177ZM39.2083 262C39.2083 258.786 41.8173 256.177 45.0312 256.177V254.177C40.7127 254.177 37.2083 257.681 37.2083 262H39.2083ZM27.2917 263H38.2083V261H27.2917V263ZM20.4688 256.177C23.6827 256.177 26.2917 258.786 26.2917 262H28.2917C28.2917 257.681 24.7873 254.177 20.4688 254.177V256.177ZM14.6458 262C14.6458 258.786 17.2548 256.177 20.4688 256.177V254.177C16.1502 254.177 12.6458 257.681 12.6458 262H14.6458ZM0 263H13.6458V261H0V263ZM-1 0V262H1V0H-1ZM13.6458 -1H0V1H13.6458V-1ZM20.4688 5.82292C17.2548 5.82292 14.6458 3.21397 14.6458 0H12.6458C12.6458 4.31853 16.1502 7.82292 20.4688 7.82292V5.82292ZM26.2917 0C26.2917 3.21397 23.6827 5.82292 20.4688 5.82292V7.82292C24.7873 7.82292 28.2917 4.31853 28.2917 0H26.2917ZM38.2083 -1H27.2917V1H38.2083V-1ZM45.0312 5.82292C41.8173 5.82292 39.2083 3.21397 39.2083 0H37.2083C37.2083 4.31853 40.7127 7.82292 45.0312 7.82292V5.82292ZM50.8542 0C50.8542 3.21397 48.2452 5.82292 45.0312 5.82292V7.82292C49.3498 7.82292 52.8542 4.31853 52.8542 0H50.8542ZM62.7708 -1H51.8542V1H62.7708V-1ZM69.5938 5.82292C66.3798 5.82292 63.7708 3.21397 63.7708 0H61.7708C61.7708 4.31853 65.2752 7.82292 69.5938 7.82292V5.82292ZM75.4167 0C75.4167 3.21396 72.8077 5.82292 69.5938 5.82292V7.82292C73.9123 7.82292 77.4167 4.31854 77.4167 0H75.4167ZM87.3333 -1H76.4167V1H87.3333V-1ZM94.1562 5.82292C90.9423 5.82292 88.3333 3.21397 88.3333 0H86.3333C86.3333 4.31853 89.8377 7.82292 94.1562 7.82292V5.82292ZM99.9792 0C99.9792 3.21396 97.3702 5.82292 94.1562 5.82292V7.82292C98.4748 7.82292 101.979 4.31854 101.979 0H99.9792ZM111.896 -1H100.979V1H111.896V-1ZM118.719 5.82292C115.505 5.82292 112.896 3.21397 112.896 0H110.896C110.896 4.31853 114.4 7.82292 118.719 7.82292V5.82292ZM124.542 0C124.542 3.21396 121.933 5.82292 118.719 5.82292V7.82292C123.037 7.82292 126.542 4.31854 126.542 0H124.542ZM136.458 -1H125.542V1H136.458V-1ZM143.281 5.82292C140.067 5.82292 137.458 3.21397 137.458 0H135.458C135.458 4.31853 138.963 7.82292 143.281 7.82292V5.82292ZM149.104 0C149.104 3.21396 146.495 5.82292 143.281 5.82292V7.82292C147.6 7.82292 151.104 4.31854 151.104 0H149.104ZM161.021 -1H150.104V1H161.021V-1ZM167.844 5.82292C164.63 5.82292 162.021 3.21397 162.021 0H160.021C160.021 4.31853 163.525 7.82292 167.844 7.82292V5.82292ZM173.667 0C173.667 3.21396 171.058 5.82292 167.844 5.82292V7.82292C172.162 7.82292 175.667 4.31854 175.667 0H173.667ZM185.583 -1H174.667V1H185.583V-1ZM192.406 5.82292C189.192 5.82292 186.583 3.21397 186.583 0H184.583C184.583 4.31853 188.088 7.82292 192.406 7.82292V5.82292ZM198.229 0C198.229 3.21396 195.62 5.82292 192.406 5.82292V7.82292C196.725 7.82292 200.229 4.31854 200.229 0H198.229ZM210.146 -1H199.229V1H210.146V-1ZM216.969 5.82292C213.755 5.82292 211.146 3.21397 211.146 0H209.146C209.146 4.31853 212.65 7.82292 216.969 7.82292V5.82292ZM222.792 0C222.792 3.21396 220.183 5.82292 216.969 5.82292V7.82292C221.287 7.82292 224.792 4.31854 224.792 0H222.792ZM234.708 -1H223.792V1H234.708V-1ZM241.531 5.82292C238.317 5.82292 235.708 3.21397 235.708 0H233.708C233.708 4.31853 237.213 7.82292 241.531 7.82292V5.82292ZM247.354 0C247.354 3.21396 244.745 5.82292 241.531 5.82292V7.82292C245.85 7.82292 249.354 4.31854 249.354 0H247.354ZM259.271 -1H248.354V1H259.271V-1ZM266.094 5.82292C262.88 5.82292 260.271 3.21397 260.271 0H258.271C258.271 4.31853 261.775 7.82292 266.094 7.82292V5.82292ZM271.917 0C271.917 3.21396 269.308 5.82292 266.094 5.82292V7.82292C270.412 7.82292 273.917 4.31854 273.917 0H271.917ZM283.833 -1H272.917V1H283.833V-1ZM290.656 5.82292C287.442 5.82292 284.833 3.21397 284.833 0H282.833C282.833 4.31853 286.338 7.82292 290.656 7.82292V5.82292ZM296.479 0C296.479 3.21396 293.87 5.82292 290.656 5.82292V7.82292C294.975 7.82292 298.479 4.31854 298.479 0H296.479ZM308.396 -1H297.479V1H308.396V-1ZM315.219 5.82292C312.005 5.82292 309.396 3.21397 309.396 0H307.396C307.396 4.31853 310.9 7.82292 315.219 7.82292V5.82292ZM321.042 0C321.042 3.21396 318.433 5.82292 315.219 5.82292V7.82292C319.537 7.82292 323.042 4.31854 323.042 0H321.042ZM332.958 -1H322.042V1H332.958V-1ZM339.781 5.82292C336.567 5.82292 333.958 3.21397 333.958 0H331.958C331.958 4.31853 335.463 7.82292 339.781 7.82292V5.82292ZM345.604 0C345.604 3.21396 342.995 5.82292 339.781 5.82292V7.82292C344.1 7.82292 347.604 4.31854 347.604 0H345.604ZM357.521 -1H346.604V1H357.521V-1ZM364.344 5.82292C361.13 5.82292 358.521 3.21397 358.521 0H356.521C356.521 4.31853 360.025 7.82292 364.344 7.82292V5.82292ZM370.167 0C370.167 3.21396 367.558 5.82292 364.344 5.82292V7.82292C368.662 7.82292 372.167 4.31854 372.167 0H370.167ZM382.083 -1H371.167V1H382.083V-1ZM388.906 5.82292C385.692 5.82292 383.083 3.21397 383.083 0H381.083C381.083 4.31853 384.588 7.82292 388.906 7.82292V5.82292ZM394.729 0C394.729 3.21396 392.12 5.82292 388.906 5.82292V7.82292C393.225 7.82292 396.729 4.31854 396.729 0H394.729ZM406.646 -1H395.729V1H406.646V-1ZM413.469 5.82292C410.255 5.82292 407.646 3.21397 407.646 0H405.646C405.646 4.31853 409.15 7.82292 413.469 7.82292V5.82292ZM419.292 0C419.292 3.21396 416.683 5.82292 413.469 5.82292V7.82292C417.787 7.82292 421.292 4.31854 421.292 0H419.292ZM431.208 -1H420.292V1H431.208V-1ZM438.031 5.82292C434.817 5.82292 432.208 3.21397 432.208 0H430.208C430.208 4.31853 433.713 7.82292 438.031 7.82292V5.82292ZM443.854 0C443.854 3.21396 441.245 5.82292 438.031 5.82292V7.82292C442.35 7.82292 445.854 4.31854 445.854 0H443.854ZM455.771 -1H444.854V1H455.771V-1ZM462.594 5.82292C459.38 5.82292 456.771 3.21397 456.771 0H454.771C454.771 4.31853 458.275 7.82292 462.594 7.82292V5.82292ZM468.417 0C468.417 3.21396 465.808 5.82292 462.594 5.82292V7.82292C466.912 7.82292 470.417 4.31854 470.417 0H468.417ZM480.333 -1H469.417V1H480.333V-1ZM487.156 5.82292C483.942 5.82292 481.333 3.21397 481.333 0H479.333C479.333 4.31853 482.838 7.82292 487.156 7.82292V5.82292ZM492.979 0C492.979 3.21396 490.37 5.82292 487.156 5.82292V7.82292C491.475 7.82292 494.979 4.31854 494.979 0H492.979ZM504.896 -1H493.979V1H504.896V-1ZM511.719 5.82292C508.505 5.82292 505.896 3.21397 505.896 0H503.896C503.896 4.31853 507.4 7.82292 511.719 7.82292V5.82292ZM517.542 0C517.542 3.21396 514.933 5.82292 511.719 5.82292V7.82292C516.037 7.82292 519.542 4.31854 519.542 0H517.542ZM529.458 -1H518.542V1H529.458V-1ZM536.281 5.82292C533.067 5.82292 530.458 3.21397 530.458 0H528.458C528.458 4.31853 531.963 7.82292 536.281 7.82292V5.82292ZM542.104 0C542.104 3.21396 539.495 5.82292 536.281 5.82292V7.82292C540.6 7.82292 544.104 4.31854 544.104 0H542.104ZM554.021 -1H543.104V1H554.021V-1ZM560.844 5.82292C557.63 5.82292 555.021 3.21397 555.021 0H553.021C553.021 4.31853 556.525 7.82292 560.844 7.82292V5.82292ZM566.667 0C566.667 3.21397 564.058 5.82292 560.844 5.82292V7.82292C565.162 7.82292 568.667 4.31853 568.667 0H566.667ZM578.583 -1H567.667V1H578.583V-1ZM585.406 5.82292C582.192 5.82292 579.583 3.21397 579.583 0H577.583C577.583 4.31853 581.088 7.82292 585.406 7.82292V5.82292ZM591.229 0C591.229 3.21397 588.62 5.82292 585.406 5.82292V7.82292C589.725 7.82292 593.229 4.31853 593.229 0H591.229ZM603.146 -1H592.229V1H603.146V-1ZM609.969 5.82292C606.755 5.82292 604.146 3.21397 604.146 0H602.146C602.146 4.31853 605.65 7.82292 609.969 7.82292V5.82292ZM615.792 0C615.792 3.21397 613.183 5.82292 609.969 5.82292V7.82292C614.287 7.82292 617.792 4.31853 617.792 0H615.792ZM627.708 -1H616.792V1H627.708V-1ZM634.531 5.82292C631.317 5.82292 628.708 3.21397 628.708 0H626.708C626.708 4.31853 630.213 7.82292 634.531 7.82292V5.82292ZM266 29C268.761 29 271 26.7614 271 24H269C269 25.6569 267.657 27 266 27V29ZM261 24C261 26.7614 263.239 29 266 29V27C264.343 27 263 25.6569 263 24H261ZM266 19C263.239 19 261 21.2386 261 24H263C263 22.3431 264.343 21 266 21V19ZM271 24C271 21.2386 268.761 19 266 19V21C267.657 21 269 22.3431 269 24H271ZM266 47C268.761 47 271 44.7614 271 42H269C269 43.6569 267.657 45 266 45V47ZM261 42C261 44.7614 263.239 47 266 47V45C264.343 45 263 43.6569 263 42H261ZM266 37C263.239 37 261 39.2386 261 42H263C263 40.3431 264.343 39 266 39V37ZM271 42C271 39.2386 268.761 37 266 37V39C267.657 39 269 40.3431 269 42H271ZM269 60C269 61.6569 267.657 63 266 63V65C268.761 65 271 62.7614 271 60H269ZM266 57C267.657 57 269 58.3431 269 60H271C271 57.2386 268.761 55 266 55V57ZM263 60C263 58.3431 264.343 57 266 57V55C263.239 55 261 57.2386 261 60H263ZM266 63C264.343 63 263 61.6569 263 60H261C261 62.7614 263.239 65 266 65V63ZM266 83C268.761 83 271 80.7614 271 78H269C269 79.6569 267.657 81 266 81V83ZM261 78C261 80.7614 263.239 83 266 83V81C264.343 81 263 79.6569 263 78H261ZM266 73C263.239 73 261 75.2386 261 78H263C263 76.3431 264.343 75 266 75V73ZM271 78C271 75.2386 268.761 73 266 73V75C267.657 75 269 76.3431 269 78H271ZM269 96C269 97.6569 267.657 99 266 99V101C268.761 101 271 98.7614 271 96H269ZM266 93C267.657 93 269 94.3431 269 96H271C271 93.2386 268.761 91 266 91V93ZM263 96C263 94.3431 264.343 93 266 93V91C263.239 91 261 93.2386 261 96H263ZM266 99C264.343 99 263 97.6569 263 96H261C261 98.7614 263.239 101 266 101V99ZM266 119C268.761 119 271 116.761 271 114H269C269 115.657 267.657 117 266 117V119ZM261 114C261 116.761 263.239 119 266 119V117C264.343 117 263 115.657 263 114H261ZM266 109C263.239 109 261 111.239 261 114H263C263 112.343 264.343 111 266 111V109ZM271 114C271 111.239 268.761 109 266 109V111C267.657 111 269 112.343 269 114H271ZM269 132C269 133.657 267.657 135 266 135V137C268.761 137 271 134.761 271 132H269ZM266 129C267.657 129 269 130.343 269 132H271C271 129.239 268.761 127 266 127V129ZM263 132C263 130.343 264.343 129 266 129V127C263.239 127 261 129.239 261 132H263ZM266 135C264.343 135 263 133.657 263 132H261C261 134.761 263.239 137 266 137V135ZM266 155C268.761 155 271 152.761 271 150H269C269 151.657 267.657 153 266 153V155ZM261 150C261 152.761 263.239 155 266 155V153C264.343 153 263 151.657 263 150H261ZM266 145C263.239 145 261 147.239 261 150H263C263 148.343 264.343 147 266 147V145ZM271 150C271 147.239 268.761 145 266 145V147C267.657 147 269 148.343 269 150H271ZM269 168C269 169.657 267.657 171 266 171V173C268.761 173 271 170.761 271 168H269ZM266 165C267.657 165 269 166.343 269 168H271C271 165.239 268.761 163 266 163V165ZM263 168C263 166.343 264.343 165 266 165V163C263.239 163 261 165.239 261 168H263ZM266 171C264.343 171 263 169.657 263 168H261C261 170.761 263.239 173 266 173V171ZM266 191C268.761 191 271 188.761 271 186H269C269 187.657 267.657 189 266 189V191ZM261 186C261 188.761 263.239 191 266 191V189C264.343 189 263 187.657 263 186H261ZM266 181C263.239 181 261 183.239 261 186H263C263 184.343 264.343 183 266 183V181ZM271 186C271 183.239 268.761 181 266 181V183C267.657 183 269 184.343 269 186H271ZM269 204C269 205.657 267.657 207 266 207V209C268.761 209 271 206.761 271 204H269ZM266 201C267.657 201 269 202.343 269 204H271C271 201.239 268.761 199 266 199V201ZM263 204C263 202.343 264.343 201 266 201V199C263.239 199 261 201.239 261 204H263ZM266 207C264.343 207 263 205.657 263 204H261C261 206.761 263.239 209 266 209V207ZM266 227C268.761 227 271 224.761 271 222H269C269 223.657 267.657 225 266 225V227ZM261 222C261 224.761 263.239 227 266 227V225C264.343 225 263 223.657 263 222H261ZM266 217C263.239 217 261 219.239 261 222H263C263 220.343 264.343 219 266 219V217ZM271 222C271 219.239 268.761 217 266 217V219C267.657 219 269 220.343 269 222H271ZM269 240C269 241.657 267.657 243 266 243V245C268.761 245 271 242.761 271 240H269ZM266 237C267.657 237 269 238.343 269 240H271C271 237.239 268.761 235 266 235V237ZM263 240C263 238.343 264.343 237 266 237V235C263.239 235 261 237.239 261 240H263ZM266 243C264.343 243 263 241.657 263 240H261C261 242.761 263.239 245 266 245V243Z" fill="black" mask="url(#path-1-inside-1_5519_3016)"/>
</svg>
