<svg fill="none" height="280" viewBox="0 0 280 280" width="280" xmlns="http://www.w3.org/2000/svg" xmlns:xlink="http://www.w3.org/1999/xlink">
  <linearGradient id="a">
    <stop offset="0" stop-color="#f0c86f" />
    <stop offset=".38" stop-color="#ff684b" />
    <stop offset=".75" stop-color="#fad880" />
    <stop offset="1" stop-color="#90f7eb" />
  </linearGradient>
  <linearGradient id="b" gradientUnits="userSpaceOnUse" x1="92.2454" x2="187.901" xlink:href="#a" y1="19.7848" y2="19.7848" />
  <linearGradient id="c" gradientUnits="userSpaceOnUse" x1="255.43" x2="265" xlink:href="#a" y1="140.077" y2="140.077" />
  <linearGradient id="d" gradientUnits="userSpaceOnUse" x1="14.9991" x2="24.5697" xlink:href="#a" y1="139.949" y2="139.949" />
  <linearGradient id="e" gradientUnits="userSpaceOnUse" x1="92.1165" x2="187.772" xlink:href="#a" y1="260.215" y2="260.215" />
  <linearGradient id="f" gradientUnits="userSpaceOnUse" x1="-.024969" x2="280" xlink:href="#a" y1="140" y2="140" />
  <linearGradient id="g" gradientUnits="userSpaceOnUse" x1="42.8963" x2="226.542" xlink:href="#a" y1="139.001" y2="139.001" />
  <linearGradient id="h" gradientUnits="userSpaceOnUse" x1="223.256" x2="223.256" xlink:href="#a" y1="148.215" y2="128.839" />
  <clipPath id="i">
    <rect height="280" rx="140" width="280" />
  </clipPath>
  <!-- <mask id="j" height="280" maskUnits="userSpaceOnUse" width="280" x="0" y="0">
    <path d="m140 280c77.32 0 140-62.68 140-140 0-77.3199-62.68-140-140-140-77.3199 0-140 62.6801-140 140 0 77.32 62.6801 140 140 140z" fill="#fff" />
  </mask> -->
  <g clip-path="url(#i)">
    <rect fill="#101010" height="280" rx="140" width="280" />
    <g stroke-linecap="round">
      <g mask="url(#j)" stroke="#78696b" stroke-linejoin="round" stroke-width=".652985">
        <path d="m-51.4551 14.4702h424.7541" />
        <path d="m-51.4551 35.3918h424.7541" />
        <path d="m-51.4551 56.3135h424.7541" />
        <path d="m-51.4551 77.2351h424.7541" />
        <path d="m-51.4551 98.1567h424.7541" />
        <path d="m-51.4551 119.078h424.7541" />
        <path d="m-51.4551 140h424.7541" />
        <path d="m-51.4551 160.922h424.7541" />
        <path d="m-51.4551 181.843h424.7541" />
        <path d="m-51.4551 202.765h424.7541" />
        <path d="m-51.4551 223.687h424.7541" />
        <path d="m-51.4551 244.634h424.7541" />
        <path d="m-51.4551 265.556h424.7541" />
        <path d="m265.557-72.3768v424.7538" />
        <path d="m244.608-72.3768v424.7538" />
        <path d="m223.687-72.3768v424.7538" />
        <path d="m202.765-72.3768v424.7538" />
        <path d="m181.844-72.3768v424.7538" />
        <path d="m160.922-72.3768v424.7538" />
        <path d="m140-72.3768v424.7538" />
        <path d="m119.078-72.3768v424.7538" />
        <path d="m98.1572-72.3768v424.7538" />
        <path d="m77.2354-72.3768v424.7538" />
        <path d="m52.709-72.3768v424.7538" />
        <path d="m35.3916-72.3768v424.7538" />
        <path d="m14.4707-72.3768v424.7538" />
      </g>
      <path fill="none" d="m187.901 24.5697c-31.874-13.223-66.088-12.2711-95.6471-.0515" stroke="url(#b)" stroke-miterlimit="10" stroke-width="2" />
      <path fill="none" d="m255.431 187.901c13.223-31.874 12.271-66.089.051-95.6476" stroke="url(#c)" stroke-miterlimit="10" stroke-width="2" />
      <path fill="none" d="m24.5697 92.1249c-13.223 31.8741-12.2711 66.0891-.0515 95.6471" stroke="url(#d)" stroke-miterlimit="10" stroke-width="2" />
      <path fill="none" d="m92.125 255.43c31.874 13.223 66.089 12.271 95.647.052" stroke="url(#e)" stroke-miterlimit="10" stroke-width="2" />
    </g>
    <path fill="none" d="m277 140c0 75.663-61.337 137-137 137s-137-61.337-137-137 61.337-137 137-137 137 61.337 137 137z" stroke="url(#f)" stroke-width="6" />
    <path fill="none" d="m45.3682 141.523s10.0125 77.803 29.1885 79.151c0 0 1.7728.599 7.3658-3.021 5.593-3.621 10.0374-4.22 16.9787 2.197 6.9418 6.417 9.5378 6.842 14.6068 3.096 5.069-3.745 10.986-11.386 19.775-1.822 8.789 9.563 13.883 2.022 13.883 2.022s6.117-9.638 10.986-9.638 11.086 15.631 11.086 15.631 1.773 5.593 5.394 5.493c3.62-.1 10.212-18.927 15.655-90.612 5.443-71.6855 10.662-100.9489 16.33-100.6992s17.453 97.9772 17.453 97.9772" stroke="url(#g)" stroke-linecap="round" stroke-linejoin="round" stroke-miterlimit="10" stroke-width="6" />
    <path fill="none" d="m223.233 148.839c5.523 0 10-4.477 10-10s-4.477-10-10-10-10 4.477-10 10 4.477 10 10 10z" fill="url(#h)" />
  </g>
</svg>