<svg width="24" height="24" viewBox="0 0 24 24" fill="none" xmlns="http://www.w3.org/2000/svg">
<path fill-rule="evenodd" clip-rule="evenodd" d="M12 0.75C12.2307 0.75 12.4485 0.856129 12.5906 1.03777L19.3406 9.66277C19.4794 9.84003 19.5311 10.0702 19.4817 10.2898C19.4322 10.5094 19.2867 10.6952 19.0854 10.7958L16.4604 12.1083C16.0899 12.2936 15.6394 12.1434 15.4542 11.7729C15.2689 11.4024 15.4191 10.9519 15.7896 10.7667L17.5938 9.86457L12 2.71692L6.41934 9.84777L12 12.4831L13.6529 11.7026C14.0274 11.5257 14.4744 11.6859 14.6513 12.0605C14.8282 12.435 14.6679 12.8821 14.2934 13.0589L12.3203 13.9907C12.1175 14.0864 11.8825 14.0864 11.6798 13.9907L4.92975 10.8032C4.72355 10.7058 4.57284 10.5199 4.52024 10.298C4.46763 10.0761 4.51883 9.84235 4.65938 9.66277L11.4094 1.03777C11.5515 0.856129 11.7694 0.75 12 0.75Z" fill="#FFEBD7"/>
<path fill-rule="evenodd" clip-rule="evenodd" d="M4.66718 13.0279C4.88352 12.7608 5.25373 12.675 5.56554 12.8196L12 15.8037L18.4345 12.8196C18.7463 12.675 19.1165 12.7608 19.3328 13.0279C19.5491 13.295 19.5562 13.675 19.35 13.95L12.6 22.95C12.4584 23.1388 12.2361 23.25 12 23.25C11.7639 23.25 11.5416 23.1388 11.4 22.95L4.65 13.95C4.44377 13.675 4.45085 13.295 4.66718 13.0279ZM7.63824 15.4343L12 21.25L16.3618 15.4343L12.3155 17.3108C12.1154 17.4036 11.8846 17.4036 11.6845 17.3108L7.63824 15.4343Z" fill="#FFEBD7"/>
<path fill-rule="evenodd" clip-rule="evenodd" d="M12 1.5C12.4142 1.5 12.75 1.83579 12.75 2.25V12.75C12.75 13.1642 12.4142 13.5 12 13.5C11.5858 13.5 11.25 13.1642 11.25 12.75V2.25C11.25 1.83579 11.5858 1.5 12 1.5Z" fill="#FFEBD7"/>
</svg>
