<svg width="674" height="282" viewBox="0 0 674 282" fill="none" xmlns="http://www.w3.org/2000/svg">
<path d="M1 141H673" stroke="#5D5D5D" stroke-width="2" stroke-linecap="round" stroke-linejoin="round"/>
<path d="M1 1H673" stroke="#3D3D3D" stroke-linecap="round" stroke-linejoin="round"/>
<path d="M1 29H673" stroke="#3D3D3D" stroke-linecap="round" stroke-linejoin="round"/>
<path d="M1 57H673" stroke="#3D3D3D" stroke-linecap="round" stroke-linejoin="round"/>
<path d="M1 85H673" stroke="#3D3D3D" stroke-linecap="round" stroke-linejoin="round"/>
<path d="M1 113H673" stroke="#3D3D3D" stroke-linecap="round" stroke-linejoin="round"/>
<path d="M1 169H673" stroke="#3D3D3D" stroke-linecap="round" stroke-linejoin="round"/>
<path d="M1 197H673" stroke="#3D3D3D" stroke-linecap="round" stroke-linejoin="round"/>
<path d="M1 225H673" stroke="#3D3D3D" stroke-linecap="round" stroke-linejoin="round"/>
<path d="M1 253H673" stroke="#3D3D3D" stroke-linecap="round" stroke-linejoin="round"/>
<path d="M1 281H673" stroke="#3D3D3D" stroke-linecap="round" stroke-linejoin="round"/>
<path d="M309.022 1.0249V281.025" stroke="#3D3D3D" stroke-linecap="round" stroke-linejoin="round"/>
<path d="M281.022 1.0249V281.025" stroke="#3D3D3D" stroke-linecap="round" stroke-linejoin="round"/>
<path d="M253.022 1.0249V281.025" stroke="#3D3D3D" stroke-linecap="round" stroke-linejoin="round"/>
<path d="M225.022 1.0249V281.025" stroke="#3D3D3D" stroke-linecap="round" stroke-linejoin="round"/>
<path d="M197.022 1.0249V281.025" stroke="#3D3D3D" stroke-linecap="round" stroke-linejoin="round"/>
<path d="M673.022 1.0249V281.025" stroke="#3D3D3D" stroke-linecap="round" stroke-linejoin="round"/>
<path d="M169.022 1.0249V281.025" stroke="#3D3D3D" stroke-linecap="round" stroke-linejoin="round"/>
<path d="M645.022 1.0249V281.025" stroke="#3D3D3D" stroke-linecap="round" stroke-linejoin="round"/>
<path d="M141.022 1.0249V281.025" stroke="#3D3D3D" stroke-linecap="round" stroke-linejoin="round"/>
<path d="M617.022 1.0249V281.025" stroke="#3D3D3D" stroke-linecap="round" stroke-linejoin="round"/>
<path d="M113.022 1.0249V281.025" stroke="#3D3D3D" stroke-linecap="round" stroke-linejoin="round"/>
<path d="M589.022 1.0249V281.025" stroke="#3D3D3D" stroke-linecap="round" stroke-linejoin="round"/>
<path d="M85.0225 1.0249V281.025" stroke="#3D3D3D" stroke-linecap="round" stroke-linejoin="round"/>
<path d="M561.022 1.0249V281.025" stroke="#3D3D3D" stroke-linecap="round" stroke-linejoin="round"/>
<path d="M57.0225 1.0249V281.025" stroke="#3D3D3D" stroke-linecap="round" stroke-linejoin="round"/>
<path d="M533.022 1.0249V281.025" stroke="#3D3D3D" stroke-linecap="round" stroke-linejoin="round"/>
<path d="M29.0225 1.0249V281.025" stroke="#3D3D3D" stroke-linecap="round" stroke-linejoin="round"/>
<path d="M505.022 1.0249V281.025" stroke="#3D3D3D" stroke-linecap="round" stroke-linejoin="round"/>
<path d="M1.02246 1.0249V281.025" stroke="#3D3D3D" stroke-linecap="round" stroke-linejoin="round"/>
<path d="M477.022 1.0249V281.025" stroke="#3D3D3D" stroke-linecap="round" stroke-linejoin="round"/>
<path d="M337.022 1.0249V281.025" stroke="#3D3D3D" stroke-linecap="round" stroke-linejoin="round"/>
<path d="M449.022 1.0249V281.025" stroke="#3D3D3D" stroke-linecap="round" stroke-linejoin="round"/>
<path d="M337 1V281" stroke="#5D5D5D" stroke-width="2" stroke-linecap="round" stroke-linejoin="round"/>
<path d="M421.022 1.0249V281.025" stroke="#3D3D3D" stroke-linecap="round" stroke-linejoin="round"/>
<path d="M393.022 1.0249V281.025" stroke="#3D3D3D" stroke-linecap="round" stroke-linejoin="round"/>
<path d="M365.022 1.0249V281.025" stroke="#3D3D3D" stroke-linecap="round" stroke-linejoin="round"/>
<path d="M141 142.185C141 142.185 153.006 153.424 166.949 150.677C180.892 147.93 200.5 127.653 211.247 97.7504C221.995 67.8688 232.113 48.9543 243.539 50.0448C254.964 51.1352 273.313 96.3874 275.201 109.535C277.089 122.704 298.633 178.902 318.869 175.883C339.106 172.863 344.77 161.435 361.085 163.028C377.401 164.622 390.424 177.183 401.414 175.002C412.403 172.821 424.748 161.582 436.416 132.853C448.084 104.125 463.092 74.4113 475.389 75.1243C487.685 75.8373 504.388 105.048 515.184 123.333C525.98 141.619 533 143.045 533 143.045" stroke="url(#paint0_linear_4608_9985)" stroke-width="6" stroke-linecap="round" stroke-linejoin="round"/>
<path d="M533 152C536.866 152 540 148.866 540 145C540 141.134 536.866 138 533 138C529.134 138 526 141.134 526 145C526 148.866 529.134 152 533 152Z" fill="url(#paint1_linear_4608_9985)"/>
<defs>
<linearGradient id="paint0_linear_4608_9985" x1="135.578" y1="113.017" x2="538.422" y2="113.017" gradientUnits="userSpaceOnUse">
<stop stop-color="#F0C86F"/>
<stop offset="0.38" stop-color="#FF684B"/>
<stop offset="0.75" stop-color="#FAD880"/>
<stop offset="1" stop-color="#90F7EB"/>
</linearGradient>
<linearGradient id="paint1_linear_4608_9985" x1="533.016" y1="151.564" x2="533.016" y2="138" gradientUnits="userSpaceOnUse">
<stop stop-color="#F0C86F"/>
<stop offset="0.38" stop-color="#FF684B"/>
<stop offset="0.75" stop-color="#FAD880"/>
<stop offset="1" stop-color="#90F7EB"/>
</linearGradient>
</defs>
</svg>
