<svg width="81" height="23" viewBox="0 0 81 23" fill="none" xmlns="http://www.w3.org/2000/svg">
<rect width="81" height="23" fill="#F5F5F5"/>
<g id="Refer and earn">
<rect width="1512" height="982" transform="translate(-522 -679)" fill="#101010"/>
<g id="Group 14447">
<g id="Rectangle 4940" filter="url(#filter0_b_674_3520)">
<path d="M-246 -549C-246 -560.046 -237.046 -569 -226 -569H694C705.046 -569 714 -560.046 714 -549V172C714 183.046 705.046 192 694 192H-226C-237.046 192 -246 183.046 -246 172V-549Z" fill="url(#paint0_linear_674_3520)"/>
</g>
</g>
<g id="Group 14460">
<g id="Subtract">
<mask id="path-2-inside-1_674_3520" fill="white">
<path fill-rule="evenodd" clip-rule="evenodd" d="M542.531 -189.177C546.298 -189.177 549.354 -192.234 549.354 -196H560.271V66H549.354C549.354 62.2338 546.298 59.1771 542.531 59.1771C538.765 59.1771 535.708 62.2338 535.708 66H524.792C524.792 62.2338 521.735 59.1771 517.969 59.1771C514.203 59.1771 511.146 62.2338 511.146 66H500.229C500.229 62.2338 497.173 59.1771 493.406 59.1771C489.64 59.1771 486.583 62.2338 486.583 66H475.667C475.667 62.2338 472.61 59.1771 468.844 59.1771C465.078 59.1771 462.021 62.2338 462.021 66H451.104C451.104 62.2338 448.047 59.1771 444.281 59.1771C440.515 59.1771 437.458 62.2338 437.458 66H426.542C426.542 62.2338 423.485 59.1771 419.719 59.1771C415.953 59.1771 412.896 62.2338 412.896 66H401.979C401.979 62.2338 398.923 59.1771 395.156 59.1771C391.39 59.1771 388.333 62.2338 388.333 66H377.417C377.417 62.2338 374.36 59.1771 370.594 59.1771C366.828 59.1771 363.771 62.2338 363.771 66H352.854C352.854 62.2338 349.798 59.1771 346.031 59.1771C342.265 59.1771 339.208 62.2338 339.208 66H328.292C328.292 62.2338 325.235 59.1771 321.469 59.1771C317.703 59.1771 314.646 62.2338 314.646 66H303.729C303.729 62.2338 300.673 59.1771 296.906 59.1771C293.14 59.1771 290.083 62.2338 290.083 66H279.167C279.167 62.2338 276.11 59.1771 272.344 59.1771C268.578 59.1771 265.521 62.2338 265.521 66H254.604C254.604 62.2338 251.548 59.1771 247.781 59.1771C244.015 59.1771 240.958 62.2338 240.958 66H230.042C230.042 62.2338 226.985 59.1771 223.219 59.1771C219.453 59.1771 216.396 62.2338 216.396 66H205.479C205.479 62.2338 202.423 59.1771 198.656 59.1771C194.89 59.1771 191.833 62.2338 191.833 66H180.917C180.917 62.2338 177.86 59.1771 174.094 59.1771C170.328 59.1771 167.271 62.2338 167.271 66H156.354C156.354 62.2338 153.298 59.1771 149.531 59.1771C145.765 59.1771 142.708 62.2338 142.708 66H131.792C131.792 62.2338 128.735 59.1771 124.969 59.1771C121.202 59.1771 118.146 62.2338 118.146 66H107.229C107.229 62.2338 104.173 59.1771 100.406 59.1771C96.64 59.1771 93.5833 62.2338 93.5833 66H82.6667C82.6667 62.2338 79.61 59.1771 75.8438 59.1771C72.0775 59.1771 69.0208 62.2338 69.0208 66H58.1042C58.1042 62.2338 55.0475 59.1771 51.2812 59.1771C47.515 59.1771 44.4583 62.2338 44.4583 66H33.5417C33.5417 62.2338 30.485 59.1771 26.7188 59.1771C22.9525 59.1771 19.8958 62.2338 19.8958 66H8.97917C8.97917 62.2338 5.9225 59.1771 2.15625 59.1771C-1.61 59.1771 -4.66666 62.2338 -4.66666 66H-15.5833C-15.5833 62.2338 -18.64 59.1771 -22.4062 59.1771C-26.1725 59.1771 -29.2292 62.2338 -29.2292 66H-40.1458C-40.1458 62.2338 -43.2025 59.1771 -46.9688 59.1771C-50.735 59.1771 -53.7917 62.2338 -53.7917 66H-64.7083C-64.7083 62.2338 -67.765 59.1771 -71.5312 59.1771C-75.2975 59.1771 -78.3542 62.2338 -78.3542 66H-92V-196H-78.3542C-78.3542 -192.234 -75.2975 -189.177 -71.5312 -189.177C-67.765 -189.177 -64.7083 -192.234 -64.7083 -196H-53.7917C-53.7917 -192.234 -50.735 -189.177 -46.9688 -189.177C-43.2025 -189.177 -40.1458 -192.234 -40.1458 -196H-29.2292C-29.2292 -192.234 -26.1725 -189.177 -22.4062 -189.177C-18.64 -189.177 -15.5833 -192.234 -15.5833 -196H-4.66666C-4.66666 -192.234 -1.61 -189.177 2.15625 -189.177C5.9225 -189.177 8.97917 -192.234 8.97917 -196H19.8958C19.8958 -192.234 22.9525 -189.177 26.7188 -189.177C30.485 -189.177 33.5417 -192.234 33.5417 -196H44.4583C44.4583 -192.234 47.515 -189.177 51.2812 -189.177C55.0475 -189.177 58.1042 -192.234 58.1042 -196H69.0208C69.0208 -192.234 72.0775 -189.177 75.8438 -189.177C79.61 -189.177 82.6667 -192.234 82.6667 -196H93.5833C93.5833 -192.234 96.64 -189.177 100.406 -189.177C104.173 -189.177 107.229 -192.234 107.229 -196H118.146C118.146 -192.234 121.202 -189.177 124.969 -189.177C128.735 -189.177 131.792 -192.234 131.792 -196H142.708C142.708 -192.234 145.765 -189.177 149.531 -189.177C153.298 -189.177 156.354 -192.234 156.354 -196H167.271C167.271 -192.234 170.328 -189.177 174.094 -189.177C177.86 -189.177 180.917 -192.234 180.917 -196H191.833C191.833 -192.234 194.89 -189.177 198.656 -189.177C202.423 -189.177 205.479 -192.234 205.479 -196H216.396C216.396 -192.234 219.453 -189.177 223.219 -189.177C226.985 -189.177 230.042 -192.234 230.042 -196H240.958C240.958 -192.234 244.015 -189.177 247.781 -189.177C251.548 -189.177 254.604 -192.234 254.604 -196H265.521C265.521 -192.234 268.578 -189.177 272.344 -189.177C276.11 -189.177 279.167 -192.234 279.167 -196H290.083C290.083 -192.234 293.14 -189.177 296.906 -189.177C300.673 -189.177 303.729 -192.234 303.729 -196H314.646C314.646 -192.234 317.703 -189.177 321.469 -189.177C325.235 -189.177 328.292 -192.234 328.292 -196H339.208C339.208 -192.234 342.265 -189.177 346.031 -189.177C349.798 -189.177 352.854 -192.234 352.854 -196H363.771C363.771 -192.234 366.828 -189.177 370.594 -189.177C374.36 -189.177 377.417 -192.234 377.417 -196H388.333C388.333 -192.234 391.39 -189.177 395.156 -189.177C398.923 -189.177 401.979 -192.234 401.979 -196H412.896C412.896 -192.234 415.953 -189.177 419.719 -189.177C423.485 -189.177 426.542 -192.234 426.542 -196H437.458C437.458 -192.234 440.515 -189.177 444.281 -189.177C448.047 -189.177 451.104 -192.234 451.104 -196H462.021C462.021 -192.234 465.078 -189.177 468.844 -189.177C472.61 -189.177 475.667 -192.234 475.667 -196H486.583C486.583 -192.234 489.64 -189.177 493.406 -189.177C497.173 -189.177 500.229 -192.234 500.229 -196H511.146C511.146 -192.234 514.203 -189.177 517.969 -189.177C521.735 -189.177 524.792 -192.234 524.792 -196H535.708C535.708 -192.234 538.765 -189.177 542.531 -189.177ZM178 -172C178 -169.791 176.209 -168 174 -168C171.791 -168 170 -169.791 170 -172C170 -174.209 171.791 -176 174 -176C176.209 -176 178 -174.209 178 -172ZM178 -154C178 -151.791 176.209 -150 174 -150C171.791 -150 170 -151.791 170 -154C170 -156.209 171.791 -158 174 -158C176.209 -158 178 -156.209 178 -154ZM174 -132C176.209 -132 178 -133.791 178 -136C178 -138.209 176.209 -140 174 -140C171.791 -140 170 -138.209 170 -136C170 -133.791 171.791 -132 174 -132ZM178 -118C178 -115.791 176.209 -114 174 -114C171.791 -114 170 -115.791 170 -118C170 -120.209 171.791 -122 174 -122C176.209 -122 178 -120.209 178 -118ZM174 -96C176.209 -96 178 -97.7909 178 -100C178 -102.209 176.209 -104 174 -104C171.791 -104 170 -102.209 170 -100C170 -97.7909 171.791 -96 174 -96ZM178 -82C178 -79.7909 176.209 -78 174 -78C171.791 -78 170 -79.7909 170 -82C170 -84.2091 171.791 -86 174 -86C176.209 -86 178 -84.2091 178 -82ZM174 -60C176.209 -60 178 -61.7909 178 -64C178 -66.2091 176.209 -68 174 -68C171.791 -68 170 -66.2091 170 -64C170 -61.7909 171.791 -60 174 -60ZM178 -46C178 -43.7909 176.209 -42 174 -42C171.791 -42 170 -43.7909 170 -46C170 -48.2091 171.791 -50 174 -50C176.209 -50 178 -48.2091 178 -46ZM174 -24C176.209 -24 178 -25.7909 178 -28C178 -30.2091 176.209 -32 174 -32C171.791 -32 170 -30.2091 170 -28C170 -25.7909 171.791 -24 174 -24ZM178 -10C178 -7.79086 176.209 -6 174 -6C171.791 -6 170 -7.79086 170 -10C170 -12.2091 171.791 -14 174 -14C176.209 -14 178 -12.2091 178 -10ZM174 12C176.209 12 178 10.2091 178 8C178 5.79086 176.209 4 174 4C171.791 4 170 5.79086 170 8C170 10.2091 171.791 12 174 12ZM178 26C178 28.2091 176.209 30 174 30C171.791 30 170 28.2091 170 26C170 23.7909 171.791 22 174 22C176.209 22 178 23.7909 178 26ZM174 48C176.209 48 178 46.2091 178 44C178 41.7909 176.209 40 174 40C171.791 40 170 41.7909 170 44C170 46.2091 171.791 48 174 48Z"/>
</mask>
<path fill-rule="evenodd" clip-rule="evenodd" d="M542.531 -189.177C546.298 -189.177 549.354 -192.234 549.354 -196H560.271V66H549.354C549.354 62.2338 546.298 59.1771 542.531 59.1771C538.765 59.1771 535.708 62.2338 535.708 66H524.792C524.792 62.2338 521.735 59.1771 517.969 59.1771C514.203 59.1771 511.146 62.2338 511.146 66H500.229C500.229 62.2338 497.173 59.1771 493.406 59.1771C489.64 59.1771 486.583 62.2338 486.583 66H475.667C475.667 62.2338 472.61 59.1771 468.844 59.1771C465.078 59.1771 462.021 62.2338 462.021 66H451.104C451.104 62.2338 448.047 59.1771 444.281 59.1771C440.515 59.1771 437.458 62.2338 437.458 66H426.542C426.542 62.2338 423.485 59.1771 419.719 59.1771C415.953 59.1771 412.896 62.2338 412.896 66H401.979C401.979 62.2338 398.923 59.1771 395.156 59.1771C391.39 59.1771 388.333 62.2338 388.333 66H377.417C377.417 62.2338 374.36 59.1771 370.594 59.1771C366.828 59.1771 363.771 62.2338 363.771 66H352.854C352.854 62.2338 349.798 59.1771 346.031 59.1771C342.265 59.1771 339.208 62.2338 339.208 66H328.292C328.292 62.2338 325.235 59.1771 321.469 59.1771C317.703 59.1771 314.646 62.2338 314.646 66H303.729C303.729 62.2338 300.673 59.1771 296.906 59.1771C293.14 59.1771 290.083 62.2338 290.083 66H279.167C279.167 62.2338 276.11 59.1771 272.344 59.1771C268.578 59.1771 265.521 62.2338 265.521 66H254.604C254.604 62.2338 251.548 59.1771 247.781 59.1771C244.015 59.1771 240.958 62.2338 240.958 66H230.042C230.042 62.2338 226.985 59.1771 223.219 59.1771C219.453 59.1771 216.396 62.2338 216.396 66H205.479C205.479 62.2338 202.423 59.1771 198.656 59.1771C194.89 59.1771 191.833 62.2338 191.833 66H180.917C180.917 62.2338 177.86 59.1771 174.094 59.1771C170.328 59.1771 167.271 62.2338 167.271 66H156.354C156.354 62.2338 153.298 59.1771 149.531 59.1771C145.765 59.1771 142.708 62.2338 142.708 66H131.792C131.792 62.2338 128.735 59.1771 124.969 59.1771C121.202 59.1771 118.146 62.2338 118.146 66H107.229C107.229 62.2338 104.173 59.1771 100.406 59.1771C96.64 59.1771 93.5833 62.2338 93.5833 66H82.6667C82.6667 62.2338 79.61 59.1771 75.8438 59.1771C72.0775 59.1771 69.0208 62.2338 69.0208 66H58.1042C58.1042 62.2338 55.0475 59.1771 51.2812 59.1771C47.515 59.1771 44.4583 62.2338 44.4583 66H33.5417C33.5417 62.2338 30.485 59.1771 26.7188 59.1771C22.9525 59.1771 19.8958 62.2338 19.8958 66H8.97917C8.97917 62.2338 5.9225 59.1771 2.15625 59.1771C-1.61 59.1771 -4.66666 62.2338 -4.66666 66H-15.5833C-15.5833 62.2338 -18.64 59.1771 -22.4062 59.1771C-26.1725 59.1771 -29.2292 62.2338 -29.2292 66H-40.1458C-40.1458 62.2338 -43.2025 59.1771 -46.9688 59.1771C-50.735 59.1771 -53.7917 62.2338 -53.7917 66H-64.7083C-64.7083 62.2338 -67.765 59.1771 -71.5312 59.1771C-75.2975 59.1771 -78.3542 62.2338 -78.3542 66H-92V-196H-78.3542C-78.3542 -192.234 -75.2975 -189.177 -71.5312 -189.177C-67.765 -189.177 -64.7083 -192.234 -64.7083 -196H-53.7917C-53.7917 -192.234 -50.735 -189.177 -46.9688 -189.177C-43.2025 -189.177 -40.1458 -192.234 -40.1458 -196H-29.2292C-29.2292 -192.234 -26.1725 -189.177 -22.4062 -189.177C-18.64 -189.177 -15.5833 -192.234 -15.5833 -196H-4.66666C-4.66666 -192.234 -1.61 -189.177 2.15625 -189.177C5.9225 -189.177 8.97917 -192.234 8.97917 -196H19.8958C19.8958 -192.234 22.9525 -189.177 26.7188 -189.177C30.485 -189.177 33.5417 -192.234 33.5417 -196H44.4583C44.4583 -192.234 47.515 -189.177 51.2812 -189.177C55.0475 -189.177 58.1042 -192.234 58.1042 -196H69.0208C69.0208 -192.234 72.0775 -189.177 75.8438 -189.177C79.61 -189.177 82.6667 -192.234 82.6667 -196H93.5833C93.5833 -192.234 96.64 -189.177 100.406 -189.177C104.173 -189.177 107.229 -192.234 107.229 -196H118.146C118.146 -192.234 121.202 -189.177 124.969 -189.177C128.735 -189.177 131.792 -192.234 131.792 -196H142.708C142.708 -192.234 145.765 -189.177 149.531 -189.177C153.298 -189.177 156.354 -192.234 156.354 -196H167.271C167.271 -192.234 170.328 -189.177 174.094 -189.177C177.86 -189.177 180.917 -192.234 180.917 -196H191.833C191.833 -192.234 194.89 -189.177 198.656 -189.177C202.423 -189.177 205.479 -192.234 205.479 -196H216.396C216.396 -192.234 219.453 -189.177 223.219 -189.177C226.985 -189.177 230.042 -192.234 230.042 -196H240.958C240.958 -192.234 244.015 -189.177 247.781 -189.177C251.548 -189.177 254.604 -192.234 254.604 -196H265.521C265.521 -192.234 268.578 -189.177 272.344 -189.177C276.11 -189.177 279.167 -192.234 279.167 -196H290.083C290.083 -192.234 293.14 -189.177 296.906 -189.177C300.673 -189.177 303.729 -192.234 303.729 -196H314.646C314.646 -192.234 317.703 -189.177 321.469 -189.177C325.235 -189.177 328.292 -192.234 328.292 -196H339.208C339.208 -192.234 342.265 -189.177 346.031 -189.177C349.798 -189.177 352.854 -192.234 352.854 -196H363.771C363.771 -192.234 366.828 -189.177 370.594 -189.177C374.36 -189.177 377.417 -192.234 377.417 -196H388.333C388.333 -192.234 391.39 -189.177 395.156 -189.177C398.923 -189.177 401.979 -192.234 401.979 -196H412.896C412.896 -192.234 415.953 -189.177 419.719 -189.177C423.485 -189.177 426.542 -192.234 426.542 -196H437.458C437.458 -192.234 440.515 -189.177 444.281 -189.177C448.047 -189.177 451.104 -192.234 451.104 -196H462.021C462.021 -192.234 465.078 -189.177 468.844 -189.177C472.61 -189.177 475.667 -192.234 475.667 -196H486.583C486.583 -192.234 489.64 -189.177 493.406 -189.177C497.173 -189.177 500.229 -192.234 500.229 -196H511.146C511.146 -192.234 514.203 -189.177 517.969 -189.177C521.735 -189.177 524.792 -192.234 524.792 -196H535.708C535.708 -192.234 538.765 -189.177 542.531 -189.177ZM178 -172C178 -169.791 176.209 -168 174 -168C171.791 -168 170 -169.791 170 -172C170 -174.209 171.791 -176 174 -176C176.209 -176 178 -174.209 178 -172ZM178 -154C178 -151.791 176.209 -150 174 -150C171.791 -150 170 -151.791 170 -154C170 -156.209 171.791 -158 174 -158C176.209 -158 178 -156.209 178 -154ZM174 -132C176.209 -132 178 -133.791 178 -136C178 -138.209 176.209 -140 174 -140C171.791 -140 170 -138.209 170 -136C170 -133.791 171.791 -132 174 -132ZM178 -118C178 -115.791 176.209 -114 174 -114C171.791 -114 170 -115.791 170 -118C170 -120.209 171.791 -122 174 -122C176.209 -122 178 -120.209 178 -118ZM174 -96C176.209 -96 178 -97.7909 178 -100C178 -102.209 176.209 -104 174 -104C171.791 -104 170 -102.209 170 -100C170 -97.7909 171.791 -96 174 -96ZM178 -82C178 -79.7909 176.209 -78 174 -78C171.791 -78 170 -79.7909 170 -82C170 -84.2091 171.791 -86 174 -86C176.209 -86 178 -84.2091 178 -82ZM174 -60C176.209 -60 178 -61.7909 178 -64C178 -66.2091 176.209 -68 174 -68C171.791 -68 170 -66.2091 170 -64C170 -61.7909 171.791 -60 174 -60ZM178 -46C178 -43.7909 176.209 -42 174 -42C171.791 -42 170 -43.7909 170 -46C170 -48.2091 171.791 -50 174 -50C176.209 -50 178 -48.2091 178 -46ZM174 -24C176.209 -24 178 -25.7909 178 -28C178 -30.2091 176.209 -32 174 -32C171.791 -32 170 -30.2091 170 -28C170 -25.7909 171.791 -24 174 -24ZM178 -10C178 -7.79086 176.209 -6 174 -6C171.791 -6 170 -7.79086 170 -10C170 -12.2091 171.791 -14 174 -14C176.209 -14 178 -12.2091 178 -10ZM174 12C176.209 12 178 10.2091 178 8C178 5.79086 176.209 4 174 4C171.791 4 170 5.79086 170 8C170 10.2091 171.791 12 174 12ZM178 26C178 28.2091 176.209 30 174 30C171.791 30 170 28.2091 170 26C170 23.7909 171.791 22 174 22C176.209 22 178 23.7909 178 26ZM174 48C176.209 48 178 46.2091 178 44C178 41.7909 176.209 40 174 40C171.791 40 170 41.7909 170 44C170 46.2091 171.791 48 174 48Z" fill="#FFE4C0"/>
<path d="M549.354 -196V-197H548.354V-196H549.354ZM560.271 -196H561.271V-197H560.271V-196ZM560.271 66V67H561.271V66H560.271ZM549.354 66H548.354V67H549.354V66ZM535.708 66V67H536.708V66H535.708ZM524.792 66H523.792V67H524.792V66ZM511.146 66V67H512.146V66H511.146ZM500.229 66H499.229V67H500.229V66ZM486.583 66V67H487.583V66H486.583ZM475.667 66H474.667V67H475.667V66ZM462.021 66V67H463.021V66H462.021ZM451.104 66H450.104V67H451.104V66ZM437.458 66V67H438.458V66H437.458ZM426.542 66H425.542V67H426.542V66ZM412.896 66V67H413.896V66H412.896ZM401.979 66H400.979V67H401.979V66ZM388.333 66V67H389.333V66H388.333ZM377.417 66H376.417V67H377.417V66ZM363.771 66V67H364.771V66H363.771ZM352.854 66H351.854V67H352.854V66ZM339.208 66V67H340.208V66H339.208ZM328.292 66H327.292V67H328.292V66ZM314.646 66V67H315.646V66H314.646ZM303.729 66H302.729V67H303.729V66ZM290.083 66V67H291.083V66H290.083ZM279.167 66H278.167V67H279.167V66ZM265.521 66V67H266.521V66H265.521ZM254.604 66H253.604V67H254.604V66ZM240.958 66V67H241.958V66H240.958ZM230.042 66H229.042V67H230.042V66ZM216.396 66V67H217.396V66H216.396ZM205.479 66H204.479V67H205.479V66ZM191.833 66V67H192.833V66H191.833ZM180.917 66H179.917V67H180.917V66ZM167.271 66V67H168.271V66H167.271ZM156.354 66H155.354V67H156.354V66ZM142.708 66V67H143.708V66H142.708ZM131.792 66H130.792V67H131.792V66ZM118.146 66V67H119.146V66H118.146ZM107.229 66H106.229V67H107.229V66ZM93.5833 66V67H94.5833V66H93.5833ZM82.6667 66H81.6667V67H82.6667V66ZM69.0208 66V67H70.0208V66H69.0208ZM58.1042 66H57.1042V67H58.1042V66ZM44.4583 66V67H45.4583V66H44.4583ZM33.5417 66H32.5417V67H33.5417V66ZM19.8958 66V67H20.8958V66H19.8958ZM8.97917 66H7.97917V67H8.97917V66ZM-4.66666 66V67H-3.66666V66H-4.66666ZM-15.5833 66H-16.5833V67H-15.5833V66ZM-29.2292 66V67H-28.2292V66H-29.2292ZM-40.1458 66H-41.1458V67H-40.1458V66ZM-53.7917 66V67H-52.7917V66H-53.7917ZM-64.7083 66H-65.7083V67H-64.7083V66ZM-78.3542 66V67H-77.3542V66H-78.3542ZM-92 66H-93V67H-92V66ZM-92 -196V-197H-93V-196H-92ZM-78.3542 -196H-77.3542V-197H-78.3542V-196ZM-64.7083 -196V-197H-65.7083V-196H-64.7083ZM-53.7917 -196H-52.7917V-197H-53.7917V-196ZM-40.1458 -196V-197H-41.1458V-196H-40.1458ZM-29.2292 -196H-28.2292V-197H-29.2292V-196ZM-15.5833 -196V-197H-16.5833V-196H-15.5833ZM-4.66666 -196H-3.66666V-197H-4.66666V-196ZM8.97917 -196V-197H7.97917V-196H8.97917ZM19.8958 -196H20.8958V-197H19.8958V-196ZM33.5417 -196V-197H32.5417V-196H33.5417ZM44.4583 -196H45.4583V-197H44.4583V-196ZM58.1042 -196V-197H57.1042V-196H58.1042ZM69.0208 -196H70.0208V-197H69.0208V-196ZM82.6667 -196V-197H81.6667V-196H82.6667ZM93.5833 -196H94.5833V-197H93.5833V-196ZM107.229 -196V-197H106.229V-196H107.229ZM118.146 -196H119.146V-197H118.146V-196ZM131.792 -196V-197H130.792V-196H131.792ZM142.708 -196H143.708V-197H142.708V-196ZM156.354 -196V-197H155.354V-196H156.354ZM167.271 -196H168.271V-197H167.271V-196ZM180.917 -196V-197H179.917V-196H180.917ZM191.833 -196H192.833V-197H191.833V-196ZM205.479 -196V-197H204.479V-196H205.479ZM216.396 -196H217.396V-197H216.396V-196ZM230.042 -196V-197H229.042V-196H230.042ZM240.958 -196H241.958V-197H240.958V-196ZM254.604 -196V-197H253.604V-196H254.604ZM265.521 -196H266.521V-197H265.521V-196ZM279.167 -196V-197H278.167V-196H279.167ZM290.083 -196H291.083V-197H290.083V-196ZM303.729 -196V-197H302.729V-196H303.729ZM314.646 -196H315.646V-197H314.646V-196ZM328.292 -196V-197H327.292V-196H328.292ZM339.208 -196H340.208V-197H339.208V-196ZM352.854 -196V-197H351.854V-196H352.854ZM363.771 -196H364.771V-197H363.771V-196ZM377.417 -196V-197H376.417V-196H377.417ZM388.333 -196H389.333V-197H388.333V-196ZM401.979 -196V-197H400.979V-196H401.979ZM412.896 -196H413.896V-197H412.896V-196ZM426.542 -196V-197H425.542V-196H426.542ZM437.458 -196H438.458V-197H437.458V-196ZM451.104 -196V-197H450.104V-196H451.104ZM462.021 -196H463.021V-197H462.021V-196ZM475.667 -196V-197H474.667V-196H475.667ZM486.583 -196H487.583V-197H486.583V-196ZM500.229 -196V-197H499.229V-196H500.229ZM511.146 -196H512.146V-197H511.146V-196ZM524.792 -196V-197H523.792V-196H524.792ZM535.708 -196H536.708V-197H535.708V-196ZM548.354 -196C548.354 -192.786 545.745 -190.177 542.531 -190.177V-188.177C546.85 -188.177 550.354 -191.681 550.354 -196H548.354ZM560.271 -197H549.354V-195H560.271V-197ZM561.271 66V-196H559.271V66H561.271ZM549.354 67H560.271V65H549.354V67ZM542.531 60.1771C545.745 60.1771 548.354 62.786 548.354 66H550.354C550.354 61.6815 546.85 58.1771 542.531 58.1771V60.1771ZM536.708 66C536.708 62.786 539.317 60.1771 542.531 60.1771V58.1771C538.213 58.1771 534.708 61.6815 534.708 66H536.708ZM524.792 67H535.708V65H524.792V67ZM517.969 60.1771C521.183 60.1771 523.792 62.786 523.792 66H525.792C525.792 61.6815 522.287 58.1771 517.969 58.1771V60.1771ZM512.146 66C512.146 62.786 514.755 60.1771 517.969 60.1771V58.1771C513.65 58.1771 510.146 61.6815 510.146 66H512.146ZM500.229 67H511.146V65H500.229V67ZM493.406 60.1771C496.62 60.1771 499.229 62.786 499.229 66H501.229C501.229 61.6815 497.725 58.1771 493.406 58.1771V60.1771ZM487.583 66C487.583 62.786 490.192 60.1771 493.406 60.1771V58.1771C489.088 58.1771 485.583 61.6815 485.583 66H487.583ZM475.667 67H486.583V65H475.667V67ZM468.844 60.1771C472.058 60.1771 474.667 62.786 474.667 66H476.667C476.667 61.6815 473.162 58.1771 468.844 58.1771V60.1771ZM463.021 66C463.021 62.786 465.63 60.1771 468.844 60.1771V58.1771C464.525 58.1771 461.021 61.6815 461.021 66H463.021ZM451.104 67H462.021V65H451.104V67ZM444.281 60.1771C447.495 60.1771 450.104 62.786 450.104 66H452.104C452.104 61.6815 448.6 58.1771 444.281 58.1771V60.1771ZM438.458 66C438.458 62.786 441.067 60.1771 444.281 60.1771V58.1771C439.963 58.1771 436.458 61.6815 436.458 66H438.458ZM426.542 67H437.458V65H426.542V67ZM419.719 60.1771C422.933 60.1771 425.542 62.786 425.542 66H427.542C427.542 61.6815 424.037 58.1771 419.719 58.1771V60.1771ZM413.896 66C413.896 62.786 416.505 60.1771 419.719 60.1771V58.1771C415.4 58.1771 411.896 61.6815 411.896 66H413.896ZM401.979 67H412.896V65H401.979V67ZM395.156 60.1771C398.37 60.1771 400.979 62.786 400.979 66H402.979C402.979 61.6815 399.475 58.1771 395.156 58.1771V60.1771ZM389.333 66C389.333 62.786 391.942 60.1771 395.156 60.1771V58.1771C390.838 58.1771 387.333 61.6815 387.333 66H389.333ZM377.417 67H388.333V65H377.417V67ZM370.594 60.1771C373.808 60.1771 376.417 62.786 376.417 66H378.417C378.417 61.6815 374.912 58.1771 370.594 58.1771V60.1771ZM364.771 66C364.771 62.786 367.38 60.1771 370.594 60.1771V58.1771C366.275 58.1771 362.771 61.6815 362.771 66H364.771ZM352.854 67H363.771V65H352.854V67ZM346.031 60.1771C349.245 60.1771 351.854 62.786 351.854 66H353.854C353.854 61.6815 350.35 58.1771 346.031 58.1771V60.1771ZM340.208 66C340.208 62.786 342.817 60.1771 346.031 60.1771V58.1771C341.713 58.1771 338.208 61.6815 338.208 66H340.208ZM328.292 67H339.208V65H328.292V67ZM321.469 60.1771C324.683 60.1771 327.292 62.786 327.292 66H329.292C329.292 61.6815 325.787 58.1771 321.469 58.1771V60.1771ZM315.646 66C315.646 62.786 318.255 60.1771 321.469 60.1771V58.1771C317.15 58.1771 313.646 61.6815 313.646 66H315.646ZM303.729 67H314.646V65H303.729V67ZM296.906 60.1771C300.12 60.1771 302.729 62.786 302.729 66H304.729C304.729 61.6815 301.225 58.1771 296.906 58.1771V60.1771ZM291.083 66C291.083 62.786 293.692 60.1771 296.906 60.1771V58.1771C292.588 58.1771 289.083 61.6815 289.083 66H291.083ZM279.167 67H290.083V65H279.167V67ZM272.344 60.1771C275.558 60.1771 278.167 62.786 278.167 66H280.167C280.167 61.6815 276.662 58.1771 272.344 58.1771V60.1771ZM266.521 66C266.521 62.786 269.13 60.1771 272.344 60.1771V58.1771C268.025 58.1771 264.521 61.6815 264.521 66H266.521ZM254.604 67H265.521V65H254.604V67ZM247.781 60.1771C250.995 60.1771 253.604 62.786 253.604 66H255.604C255.604 61.6815 252.1 58.1771 247.781 58.1771V60.1771ZM241.958 66C241.958 62.786 244.567 60.1771 247.781 60.1771V58.1771C243.463 58.1771 239.958 61.6815 239.958 66H241.958ZM230.042 67H240.958V65H230.042V67ZM223.219 60.1771C226.433 60.1771 229.042 62.786 229.042 66H231.042C231.042 61.6815 227.537 58.1771 223.219 58.1771V60.1771ZM217.396 66C217.396 62.786 220.005 60.1771 223.219 60.1771V58.1771C218.9 58.1771 215.396 61.6815 215.396 66H217.396ZM205.479 67H216.396V65H205.479V67ZM198.656 60.1771C201.87 60.1771 204.479 62.786 204.479 66H206.479C206.479 61.6815 202.975 58.1771 198.656 58.1771V60.1771ZM192.833 66C192.833 62.786 195.442 60.1771 198.656 60.1771V58.1771C194.338 58.1771 190.833 61.6815 190.833 66H192.833ZM180.917 67H191.833V65H180.917V67ZM174.094 60.1771C177.308 60.1771 179.917 62.786 179.917 66H181.917C181.917 61.6815 178.412 58.1771 174.094 58.1771V60.1771ZM168.271 66C168.271 62.786 170.88 60.1771 174.094 60.1771V58.1771C169.775 58.1771 166.271 61.6815 166.271 66H168.271ZM156.354 67H167.271V65H156.354V67ZM149.531 60.1771C152.745 60.1771 155.354 62.786 155.354 66H157.354C157.354 61.6815 153.85 58.1771 149.531 58.1771V60.1771ZM143.708 66C143.708 62.786 146.317 60.1771 149.531 60.1771V58.1771C145.213 58.1771 141.708 61.6815 141.708 66H143.708ZM131.792 67H142.708V65H131.792V67ZM124.969 60.1771C128.183 60.1771 130.792 62.786 130.792 66H132.792C132.792 61.6815 129.287 58.1771 124.969 58.1771V60.1771ZM119.146 66C119.146 62.786 121.755 60.1771 124.969 60.1771V58.1771C120.65 58.1771 117.146 61.6815 117.146 66H119.146ZM107.229 67H118.146V65H107.229V67ZM100.406 60.1771C103.62 60.1771 106.229 62.786 106.229 66H108.229C108.229 61.6815 104.725 58.1771 100.406 58.1771V60.1771ZM94.5833 66C94.5833 62.786 97.1923 60.1771 100.406 60.1771V58.1771C96.0877 58.1771 92.5833 61.6815 92.5833 66H94.5833ZM82.6667 67H93.5833V65H82.6667V67ZM75.8438 60.1771C79.0577 60.1771 81.6667 62.786 81.6667 66H83.6667C83.6667 61.6815 80.1623 58.1771 75.8438 58.1771V60.1771ZM70.0208 66C70.0208 62.786 72.6298 60.1771 75.8438 60.1771V58.1771C71.5252 58.1771 68.0208 61.6815 68.0208 66H70.0208ZM58.1042 67H69.0208V65H58.1042V67ZM51.2812 60.1771C54.4952 60.1771 57.1042 62.786 57.1042 66H59.1042C59.1042 61.6815 55.5998 58.1771 51.2812 58.1771V60.1771ZM45.4583 66C45.4583 62.786 48.0673 60.1771 51.2812 60.1771V58.1771C46.9627 58.1771 43.4583 61.6815 43.4583 66H45.4583ZM33.5417 67H44.4583V65H33.5417V67ZM26.7188 60.1771C29.9327 60.1771 32.5417 62.786 32.5417 66H34.5417C34.5417 61.6815 31.0373 58.1771 26.7188 58.1771V60.1771ZM20.8958 66C20.8958 62.786 23.5048 60.1771 26.7188 60.1771V58.1771C22.4002 58.1771 18.8958 61.6815 18.8958 66H20.8958ZM8.97917 67H19.8958V65H8.97917V67ZM2.15625 60.1771C5.37022 60.1771 7.97917 62.786 7.97917 66H9.97917C9.97917 61.6815 6.47478 58.1771 2.15625 58.1771V60.1771ZM-3.66666 66C-3.66666 62.786 -1.05772 60.1771 2.15625 60.1771V58.1771C-2.16228 58.1771 -5.66666 61.6815 -5.66666 66H-3.66666ZM-15.5833 67H-4.66666V65H-15.5833V67ZM-22.4062 60.1771C-19.1923 60.1771 -16.5833 62.786 -16.5833 66H-14.5833C-14.5833 61.6815 -18.0877 58.1771 -22.4062 58.1771V60.1771ZM-28.2292 66C-28.2292 62.786 -25.6202 60.1771 -22.4062 60.1771V58.1771C-26.7248 58.1771 -30.2292 61.6815 -30.2292 66H-28.2292ZM-40.1458 67H-29.2292V65H-40.1458V67ZM-46.9688 60.1771C-43.7548 60.1771 -41.1458 62.786 -41.1458 66H-39.1458C-39.1458 61.6815 -42.6502 58.1771 -46.9688 58.1771V60.1771ZM-52.7917 66C-52.7917 62.786 -50.1827 60.1771 -46.9688 60.1771V58.1771C-51.2873 58.1771 -54.7917 61.6815 -54.7917 66H-52.7917ZM-64.7083 67H-53.7917V65H-64.7083V67ZM-71.5312 60.1771C-68.3173 60.1771 -65.7083 62.786 -65.7083 66H-63.7083C-63.7083 61.6815 -67.2127 58.1771 -71.5312 58.1771V60.1771ZM-77.3542 66C-77.3542 62.786 -74.7452 60.1771 -71.5312 60.1771V58.1771C-75.8498 58.1771 -79.3542 61.6815 -79.3542 66H-77.3542ZM-92 67H-78.3542V65H-92V67ZM-93 -196V66H-91V-196H-93ZM-78.3542 -197H-92V-195H-78.3542V-197ZM-71.5312 -190.177C-74.7452 -190.177 -77.3542 -192.786 -77.3542 -196H-79.3542C-79.3542 -191.681 -75.8498 -188.177 -71.5312 -188.177V-190.177ZM-65.7083 -196C-65.7083 -192.786 -68.3173 -190.177 -71.5312 -190.177V-188.177C-67.2127 -188.177 -63.7083 -191.681 -63.7083 -196H-65.7083ZM-53.7917 -197H-64.7083V-195H-53.7917V-197ZM-46.9688 -190.177C-50.1827 -190.177 -52.7917 -192.786 -52.7917 -196H-54.7917C-54.7917 -191.681 -51.2873 -188.177 -46.9688 -188.177V-190.177ZM-41.1458 -196C-41.1458 -192.786 -43.7548 -190.177 -46.9688 -190.177V-188.177C-42.6502 -188.177 -39.1458 -191.681 -39.1458 -196H-41.1458ZM-29.2292 -197H-40.1458V-195H-29.2292V-197ZM-22.4062 -190.177C-25.6202 -190.177 -28.2292 -192.786 -28.2292 -196H-30.2292C-30.2292 -191.681 -26.7248 -188.177 -22.4062 -188.177V-190.177ZM-16.5833 -196C-16.5833 -192.786 -19.1923 -190.177 -22.4062 -190.177V-188.177C-18.0877 -188.177 -14.5833 -191.681 -14.5833 -196H-16.5833ZM-4.66666 -197H-15.5833V-195H-4.66666V-197ZM2.15625 -190.177C-1.05772 -190.177 -3.66666 -192.786 -3.66666 -196H-5.66666C-5.66666 -191.681 -2.16228 -188.177 2.15625 -188.177V-190.177ZM7.97917 -196C7.97917 -192.786 5.37022 -190.177 2.15625 -190.177V-188.177C6.47478 -188.177 9.97917 -191.681 9.97917 -196H7.97917ZM19.8958 -197H8.97917V-195H19.8958V-197ZM26.7188 -190.177C23.5048 -190.177 20.8958 -192.786 20.8958 -196H18.8958C18.8958 -191.681 22.4002 -188.177 26.7188 -188.177V-190.177ZM32.5417 -196C32.5417 -192.786 29.9327 -190.177 26.7188 -190.177V-188.177C31.0373 -188.177 34.5417 -191.681 34.5417 -196H32.5417ZM44.4583 -197H33.5417V-195H44.4583V-197ZM51.2812 -190.177C48.0673 -190.177 45.4583 -192.786 45.4583 -196H43.4583C43.4583 -191.681 46.9627 -188.177 51.2812 -188.177V-190.177ZM57.1042 -196C57.1042 -192.786 54.4952 -190.177 51.2812 -190.177V-188.177C55.5998 -188.177 59.1042 -191.681 59.1042 -196H57.1042ZM69.0208 -197H58.1042V-195H69.0208V-197ZM75.8438 -190.177C72.6298 -190.177 70.0208 -192.786 70.0208 -196H68.0208C68.0208 -191.681 71.5252 -188.177 75.8438 -188.177V-190.177ZM81.6667 -196C81.6667 -192.786 79.0577 -190.177 75.8438 -190.177V-188.177C80.1623 -188.177 83.6667 -191.681 83.6667 -196H81.6667ZM93.5833 -197H82.6667V-195H93.5833V-197ZM100.406 -190.177C97.1923 -190.177 94.5833 -192.786 94.5833 -196H92.5833C92.5833 -191.681 96.0877 -188.177 100.406 -188.177V-190.177ZM106.229 -196C106.229 -192.786 103.62 -190.177 100.406 -190.177V-188.177C104.725 -188.177 108.229 -191.681 108.229 -196H106.229ZM118.146 -197H107.229V-195H118.146V-197ZM124.969 -190.177C121.755 -190.177 119.146 -192.786 119.146 -196H117.146C117.146 -191.681 120.65 -188.177 124.969 -188.177V-190.177ZM130.792 -196C130.792 -192.786 128.183 -190.177 124.969 -190.177V-188.177C129.287 -188.177 132.792 -191.681 132.792 -196H130.792ZM142.708 -197H131.792V-195H142.708V-197ZM149.531 -190.177C146.317 -190.177 143.708 -192.786 143.708 -196H141.708C141.708 -191.681 145.213 -188.177 149.531 -188.177V-190.177ZM155.354 -196C155.354 -192.786 152.745 -190.177 149.531 -190.177V-188.177C153.85 -188.177 157.354 -191.681 157.354 -196H155.354ZM167.271 -197H156.354V-195H167.271V-197ZM174.094 -190.177C170.88 -190.177 168.271 -192.786 168.271 -196H166.271C166.271 -191.681 169.775 -188.177 174.094 -188.177V-190.177ZM179.917 -196C179.917 -192.786 177.308 -190.177 174.094 -190.177V-188.177C178.412 -188.177 181.917 -191.681 181.917 -196H179.917ZM191.833 -197H180.917V-195H191.833V-197ZM198.656 -190.177C195.442 -190.177 192.833 -192.786 192.833 -196H190.833C190.833 -191.681 194.338 -188.177 198.656 -188.177V-190.177ZM204.479 -196C204.479 -192.786 201.87 -190.177 198.656 -190.177V-188.177C202.975 -188.177 206.479 -191.681 206.479 -196H204.479ZM216.396 -197H205.479V-195H216.396V-197ZM223.219 -190.177C220.005 -190.177 217.396 -192.786 217.396 -196H215.396C215.396 -191.681 218.9 -188.177 223.219 -188.177V-190.177ZM229.042 -196C229.042 -192.786 226.433 -190.177 223.219 -190.177V-188.177C227.537 -188.177 231.042 -191.681 231.042 -196H229.042ZM240.958 -197H230.042V-195H240.958V-197ZM247.781 -190.177C244.567 -190.177 241.958 -192.786 241.958 -196H239.958C239.958 -191.681 243.463 -188.177 247.781 -188.177V-190.177ZM253.604 -196C253.604 -192.786 250.995 -190.177 247.781 -190.177V-188.177C252.1 -188.177 255.604 -191.681 255.604 -196H253.604ZM265.521 -197H254.604V-195H265.521V-197ZM272.344 -190.177C269.13 -190.177 266.521 -192.786 266.521 -196H264.521C264.521 -191.681 268.025 -188.177 272.344 -188.177V-190.177ZM278.167 -196C278.167 -192.786 275.558 -190.177 272.344 -190.177V-188.177C276.662 -188.177 280.167 -191.681 280.167 -196H278.167ZM290.083 -197H279.167V-195H290.083V-197ZM296.906 -190.177C293.692 -190.177 291.083 -192.786 291.083 -196H289.083C289.083 -191.681 292.588 -188.177 296.906 -188.177V-190.177ZM302.729 -196C302.729 -192.786 300.12 -190.177 296.906 -190.177V-188.177C301.225 -188.177 304.729 -191.681 304.729 -196H302.729ZM314.646 -197H303.729V-195H314.646V-197ZM321.469 -190.177C318.255 -190.177 315.646 -192.786 315.646 -196H313.646C313.646 -191.681 317.15 -188.177 321.469 -188.177V-190.177ZM327.292 -196C327.292 -192.786 324.683 -190.177 321.469 -190.177V-188.177C325.787 -188.177 329.292 -191.681 329.292 -196H327.292ZM339.208 -197H328.292V-195H339.208V-197ZM346.031 -190.177C342.817 -190.177 340.208 -192.786 340.208 -196H338.208C338.208 -191.681 341.713 -188.177 346.031 -188.177V-190.177ZM351.854 -196C351.854 -192.786 349.245 -190.177 346.031 -190.177V-188.177C350.35 -188.177 353.854 -191.681 353.854 -196H351.854ZM363.771 -197H352.854V-195H363.771V-197ZM370.594 -190.177C367.38 -190.177 364.771 -192.786 364.771 -196H362.771C362.771 -191.681 366.275 -188.177 370.594 -188.177V-190.177ZM376.417 -196C376.417 -192.786 373.808 -190.177 370.594 -190.177V-188.177C374.912 -188.177 378.417 -191.681 378.417 -196H376.417ZM388.333 -197H377.417V-195H388.333V-197ZM395.156 -190.177C391.942 -190.177 389.333 -192.786 389.333 -196H387.333C387.333 -191.681 390.838 -188.177 395.156 -188.177V-190.177ZM400.979 -196C400.979 -192.786 398.37 -190.177 395.156 -190.177V-188.177C399.475 -188.177 402.979 -191.681 402.979 -196H400.979ZM412.896 -197H401.979V-195H412.896V-197ZM419.719 -190.177C416.505 -190.177 413.896 -192.786 413.896 -196H411.896C411.896 -191.681 415.4 -188.177 419.719 -188.177V-190.177ZM425.542 -196C425.542 -192.786 422.933 -190.177 419.719 -190.177V-188.177C424.037 -188.177 427.542 -191.681 427.542 -196H425.542ZM437.458 -197H426.542V-195H437.458V-197ZM444.281 -190.177C441.067 -190.177 438.458 -192.786 438.458 -196H436.458C436.458 -191.681 439.963 -188.177 444.281 -188.177V-190.177ZM450.104 -196C450.104 -192.786 447.495 -190.177 444.281 -190.177V-188.177C448.6 -188.177 452.104 -191.681 452.104 -196H450.104ZM462.021 -197H451.104V-195H462.021V-197ZM468.844 -190.177C465.63 -190.177 463.021 -192.786 463.021 -196H461.021C461.021 -191.681 464.525 -188.177 468.844 -188.177V-190.177ZM474.667 -196C474.667 -192.786 472.058 -190.177 468.844 -190.177V-188.177C473.162 -188.177 476.667 -191.681 476.667 -196H474.667ZM486.583 -197H475.667V-195H486.583V-197ZM493.406 -190.177C490.192 -190.177 487.583 -192.786 487.583 -196H485.583C485.583 -191.681 489.088 -188.177 493.406 -188.177V-190.177ZM499.229 -196C499.229 -192.786 496.62 -190.177 493.406 -190.177V-188.177C497.725 -188.177 501.229 -191.681 501.229 -196H499.229ZM511.146 -197H500.229V-195H511.146V-197ZM517.969 -190.177C514.755 -190.177 512.146 -192.786 512.146 -196H510.146C510.146 -191.681 513.65 -188.177 517.969 -188.177V-190.177ZM523.792 -196C523.792 -192.786 521.183 -190.177 517.969 -190.177V-188.177C522.287 -188.177 525.792 -191.681 525.792 -196H523.792ZM535.708 -197H524.792V-195H535.708V-197ZM542.531 -190.177C539.317 -190.177 536.708 -192.786 536.708 -196H534.708C534.708 -191.681 538.213 -188.177 542.531 -188.177V-190.177ZM174 -167C176.761 -167 179 -169.239 179 -172H177C177 -170.343 175.657 -169 174 -169V-167ZM169 -172C169 -169.239 171.239 -167 174 -167V-169C172.343 -169 171 -170.343 171 -172H169ZM174 -177C171.239 -177 169 -174.761 169 -172H171C171 -173.657 172.343 -175 174 -175V-177ZM179 -172C179 -174.761 176.761 -177 174 -177V-175C175.657 -175 177 -173.657 177 -172H179ZM174 -149C176.761 -149 179 -151.239 179 -154H177C177 -152.343 175.657 -151 174 -151V-149ZM169 -154C169 -151.239 171.239 -149 174 -149V-151C172.343 -151 171 -152.343 171 -154H169ZM174 -159C171.239 -159 169 -156.761 169 -154H171C171 -155.657 172.343 -157 174 -157V-159ZM179 -154C179 -156.761 176.761 -159 174 -159V-157C175.657 -157 177 -155.657 177 -154H179ZM177 -136C177 -134.343 175.657 -133 174 -133V-131C176.761 -131 179 -133.239 179 -136H177ZM174 -139C175.657 -139 177 -137.657 177 -136H179C179 -138.761 176.761 -141 174 -141V-139ZM171 -136C171 -137.657 172.343 -139 174 -139V-141C171.239 -141 169 -138.761 169 -136H171ZM174 -133C172.343 -133 171 -134.343 171 -136H169C169 -133.239 171.239 -131 174 -131V-133ZM174 -113C176.761 -113 179 -115.239 179 -118H177C177 -116.343 175.657 -115 174 -115V-113ZM169 -118C169 -115.239 171.239 -113 174 -113V-115C172.343 -115 171 -116.343 171 -118H169ZM174 -123C171.239 -123 169 -120.761 169 -118H171C171 -119.657 172.343 -121 174 -121V-123ZM179 -118C179 -120.761 176.761 -123 174 -123V-121C175.657 -121 177 -119.657 177 -118H179ZM177 -100C177 -98.3431 175.657 -97 174 -97V-95C176.761 -95 179 -97.2386 179 -100H177ZM174 -103C175.657 -103 177 -101.657 177 -100H179C179 -102.761 176.761 -105 174 -105V-103ZM171 -100C171 -101.657 172.343 -103 174 -103V-105C171.239 -105 169 -102.761 169 -100H171ZM174 -97C172.343 -97 171 -98.3431 171 -100H169C169 -97.2386 171.239 -95 174 -95V-97ZM174 -77C176.761 -77 179 -79.2386 179 -82H177C177 -80.3431 175.657 -79 174 -79V-77ZM169 -82C169 -79.2386 171.239 -77 174 -77V-79C172.343 -79 171 -80.3431 171 -82H169ZM174 -87C171.239 -87 169 -84.7614 169 -82H171C171 -83.6569 172.343 -85 174 -85V-87ZM179 -82C179 -84.7614 176.761 -87 174 -87V-85C175.657 -85 177 -83.6569 177 -82H179ZM177 -64C177 -62.3432 175.657 -61 174 -61V-59C176.761 -59 179 -61.2386 179 -64H177ZM174 -67C175.657 -67 177 -65.6568 177 -64H179C179 -66.7614 176.761 -69 174 -69V-67ZM171 -64C171 -65.6568 172.343 -67 174 -67V-69C171.239 -69 169 -66.7614 169 -64H171ZM174 -61C172.343 -61 171 -62.3432 171 -64H169C169 -61.2386 171.239 -59 174 -59V-61ZM174 -41C176.761 -41 179 -43.2386 179 -46H177C177 -44.3432 175.657 -43 174 -43V-41ZM169 -46C169 -43.2386 171.239 -41 174 -41V-43C172.343 -43 171 -44.3432 171 -46H169ZM174 -51C171.239 -51 169 -48.7614 169 -46H171C171 -47.6568 172.343 -49 174 -49V-51ZM179 -46C179 -48.7614 176.761 -51 174 -51V-49C175.657 -49 177 -47.6568 177 -46H179ZM177 -28C177 -26.3432 175.657 -25 174 -25V-23C176.761 -23 179 -25.2386 179 -28H177ZM174 -31C175.657 -31 177 -29.6568 177 -28H179C179 -30.7614 176.761 -33 174 -33V-31ZM171 -28C171 -29.6568 172.343 -31 174 -31V-33C171.239 -33 169 -30.7614 169 -28H171ZM174 -25C172.343 -25 171 -26.3432 171 -28H169C169 -25.2386 171.239 -23 174 -23V-25ZM174 -5C176.761 -5 179 -7.23857 179 -10H177C177 -8.34315 175.657 -7 174 -7V-5ZM169 -10C169 -7.23857 171.239 -5 174 -5V-7C172.343 -7 171 -8.34315 171 -10H169ZM174 -15C171.239 -15 169 -12.7614 169 -10H171C171 -11.6568 172.343 -13 174 -13V-15ZM179 -10C179 -12.7614 176.761 -15 174 -15V-13C175.657 -13 177 -11.6568 177 -10H179ZM177 8C177 9.65685 175.657 11 174 11V13C176.761 13 179 10.7614 179 8H177ZM174 5C175.657 5 177 6.34315 177 8H179C179 5.23857 176.761 3 174 3V5ZM171 8C171 6.34315 172.343 5 174 5V3C171.239 3 169 5.23857 169 8H171ZM174 11C172.343 11 171 9.65685 171 8H169C169 10.7614 171.239 13 174 13V11ZM174 31C176.761 31 179 28.7614 179 26H177C177 27.6568 175.657 29 174 29V31ZM169 26C169 28.7614 171.239 31 174 31V29C172.343 29 171 27.6568 171 26H169ZM174 21C171.239 21 169 23.2386 169 26H171C171 24.3432 172.343 23 174 23V21ZM179 26C179 23.2386 176.761 21 174 21V23C175.657 23 177 24.3432 177 26H179ZM177 44C177 45.6568 175.657 47 174 47V49C176.761 49 179 46.7614 179 44H177ZM174 41C175.657 41 177 42.3432 177 44H179C179 41.2386 176.761 39 174 39V41ZM171 44C171 42.3432 172.343 41 174 41V39C171.239 39 169 41.2386 169 44H171ZM174 47C172.343 47 171 45.6568 171 44H169C169 46.7614 171.239 49 174 49V47Z" fill="black" mask="url(#path-2-inside-1_674_3520)"/>
</g>
<rect id="Rectangle 4976" x="-75.5" y="-175.5" width="231" height="221" fill="#FDE9D5" stroke="black"/>
<g id="Logo">
<path id="Vector" d="M30.6132 6.22877C29.113 6.22877 27.9569 7.10566 27.9569 8.40744C27.9569 9.67307 28.9365 10.107 30.1543 10.342L31.6898 10.5952C33.7283 10.9387 35.1314 11.8969 35.1314 14.1751C35.1314 16.5526 33.2253 17.9448 30.7985 17.9448C28.61 17.9448 26.545 16.6249 26.2449 14.0395C26.2185 13.8225 26.3861 13.6327 26.5979 13.6327H27.5157C27.6922 13.6327 27.8422 13.7683 27.8687 13.9491C28.0628 15.7752 29.4483 16.4984 30.8073 16.4984C32.2899 16.4984 33.4636 15.7481 33.4636 14.2293C33.4636 12.8733 32.5193 12.4032 31.2662 12.1591L29.7484 11.8879C27.6216 11.5263 26.2891 10.4776 26.2891 8.4888C26.2891 6.18356 28.2482 4.7733 30.6043 4.7733C32.484 4.7733 34.5578 5.85812 34.9638 8.43456C34.9991 8.65153 34.8314 8.85945 34.6108 8.85945H33.6577C33.49 8.85945 33.34 8.73289 33.3135 8.56113C33.04 6.85254 31.8222 6.22877 30.6132 6.22877Z" fill="#101010"/>
<path id="Vector_2" d="M41.2381 7.639C43.506 7.639 45.1209 8.8775 45.6945 10.9025C45.7563 11.1285 45.5886 11.3635 45.3504 11.3635H44.2826C44.1326 11.3635 44.0002 11.2641 43.9473 11.1195C43.5501 9.96232 42.6324 9.30239 41.2381 9.30239C39.3408 9.30239 38.2818 10.8844 38.2818 12.7919C38.2818 14.6903 39.3496 16.2814 41.2381 16.2814C42.6324 16.2814 43.5501 15.6215 43.9473 14.4643C44.0002 14.3197 44.1326 14.2202 44.2826 14.2202H45.3504C45.5886 14.2202 45.7563 14.4553 45.6857 14.6813C45.0768 16.7967 43.5148 17.9448 41.2381 17.9448C38.3171 17.9448 36.4639 15.6305 36.4639 12.7919C36.4551 9.96232 38.3171 7.639 41.2381 7.639Z" fill="#101010"/>
<path id="Vector_3" d="M47.406 16.2993H49.6916V9.79036H47.6531C47.459 9.79036 47.3001 9.62764 47.3001 9.42875V8.50666C47.3001 8.30777 47.459 8.14505 47.6531 8.14505H50.4329C51.0153 8.14505 51.4919 8.63322 51.4919 9.22987V9.49203C51.9949 8.25353 53.0803 7.94617 54.7658 7.94617C55.41 7.94617 55.8425 8.05465 56.0896 8.14505C56.2307 8.19929 56.319 8.33489 56.319 8.47954V9.43779C56.319 9.68188 56.0896 9.86268 55.8601 9.78132C55.5601 9.68188 55.1365 9.59148 54.5805 9.59148C52.7803 9.59148 51.5007 10.8481 51.5007 13.0267V16.2993H54.4393C54.6335 16.2993 54.7923 16.462 54.7923 16.6609V17.583C54.7923 17.7819 54.6335 17.9446 54.4393 17.9446H47.4149C47.2207 17.9446 47.0619 17.7819 47.0619 17.583V16.6609C47.053 16.462 47.2119 16.2993 47.406 16.2993Z" fill="#101010"/>
<path id="Vector_4" d="M57.6611 12.7919C57.6611 9.96232 59.4967 7.639 62.4794 7.639C65.4622 7.639 67.2977 9.95328 67.2977 12.7919C67.2977 15.6305 65.4622 17.9448 62.4794 17.9448C59.4967 17.9448 57.6611 15.6305 57.6611 12.7919ZM62.4794 16.2814C64.3944 16.2814 65.4975 14.6994 65.4975 12.7919C65.4975 10.8935 64.3944 9.30239 62.4794 9.30239C60.5645 9.30239 59.4614 10.8844 59.4614 12.7919C59.4614 14.6994 60.5645 16.2814 62.4794 16.2814Z" fill="#101010"/>
<path id="Vector_5" d="M71.2855 16.3809H74.0476C74.2417 16.3809 74.4006 16.5436 74.4006 16.7425V17.5923C74.4006 17.7911 74.2417 17.9539 74.0476 17.9539H69.9088C69.7147 17.9539 69.5558 17.7911 69.5558 17.5923V6.43672H68.1792C67.985 6.43672 67.8262 6.27399 67.8262 6.07511V5.22533C67.8262 5.02645 67.985 4.86373 68.1792 4.86373H70.2177C70.8001 4.86373 71.2766 5.3519 71.2766 5.94855V16.3809H71.2855Z" fill="#101010"/>
<path id="Vector_6" d="M77.3929 16.3809H80.155C80.3492 16.3809 80.508 16.5436 80.508 16.7425V17.5923C80.508 17.7911 80.3492 17.9539 80.155 17.9539H76.0162C75.8221 17.9539 75.6632 17.7911 75.6632 17.5923V6.43672H74.2866C74.0924 6.43672 73.9336 6.27399 73.9336 6.07511V5.22533C73.9336 5.02645 74.0924 4.86373 74.2866 4.86373H76.3251C76.9075 4.86373 77.3841 5.3519 77.3841 5.94855V16.3809H77.3929Z" fill="#101010"/>
<g id="Group 2">
<path id="Vector_7" d="M20.7734 15.2959V2.00692C20.7557 0.894976 19.8909 0 18.8055 0H5.26835C2.34737 0.0452008 0 2.49508 0 5.49641C0 6.50891 0.264742 7.37677 0.670679 8.13614C1.01484 8.76895 1.55315 9.3656 2.08263 9.80857C2.23265 9.93513 2.16206 9.88089 2.62094 10.1702C3.25632 10.5679 3.97994 10.7668 3.97994 10.7668L3.97112 18.7131C3.98877 19.0928 4.02407 19.4544 4.12114 19.7889C4.42118 20.9099 5.1801 21.7687 6.2126 22.1845C6.64501 22.3563 7.13037 22.4738 7.65103 22.4829L18.4613 22.519C20.6145 22.519 22.3618 20.7291 22.3618 18.5142C22.3706 17.2034 21.7353 16.0282 20.7734 15.2959Z" fill="#FFEEDA"/>
<path id="Vector_8" d="M21.0375 18.6137C20.9934 20.033 19.855 21.172 18.4607 21.172L11.0215 21.1449C11.6127 20.4398 11.9746 19.5267 11.9746 18.5323C11.9746 16.9683 11.0656 15.8926 11.0656 15.8926H18.4695C19.8903 15.8926 21.0464 17.0768 21.0464 18.5323L21.0375 18.6137Z" fill="#EBC28E"/>
<g id="Group">
<path id="Vector_9" d="M2.78861 8.68764C1.93261 7.85595 1.33253 6.78017 1.33253 5.5055V5.3699C1.40313 3.19122 3.15042 1.43744 5.27718 1.37415H18.8143C19.1673 1.39223 19.4497 1.64536 19.4497 2.016V13.7501C19.7585 13.8044 19.9085 13.8496 20.2086 13.9581C20.4469 14.0485 20.7734 14.2383 20.7734 14.2383V2.016C20.7557 0.904064 19.8909 0.00909042 18.8055 0.00909042H5.26835C2.34737 0.0542912 0 2.50417 0 5.5055C0 7.25025 0.776576 8.74188 2.04733 9.79054C2.13558 9.86286 2.215 9.95326 2.44445 9.95326C2.84156 9.95326 3.12395 9.62782 3.1063 9.27525C3.09747 8.97692 2.97393 8.86844 2.78861 8.68764Z" fill="#101010"/>
<path id="Vector_10" d="M18.4611 14.5185H7.84496C7.13016 14.5275 6.55655 15.1152 6.55655 15.8474V17.4114C6.5742 18.1346 7.17428 18.7493 7.88908 18.7493H8.67448V17.4114H7.88908V15.8836C7.88908 15.8836 8.08322 15.8836 8.32149 15.8836C9.66285 15.8836 10.6512 17.1582 10.6512 18.5233C10.6512 19.7347 9.5746 21.2805 7.77436 21.154C6.17709 21.0455 5.31227 19.59 5.31227 18.5233V5.27042C5.31227 4.67377 4.83573 4.1856 4.2533 4.1856H3.19434V5.54163H3.97973V18.5323C3.93561 21.1721 5.81527 22.501 7.77436 22.501L18.4699 22.5371C20.6231 22.5371 22.3704 20.7472 22.3704 18.5323C22.3704 16.3175 20.6143 14.5185 18.4611 14.5185ZM21.0379 18.6137C20.9938 20.033 19.8554 21.1721 18.4611 21.1721L11.0219 21.1449C11.6131 20.4398 11.9749 19.5267 11.9749 18.5323C11.9749 16.9684 11.066 15.8926 11.066 15.8926H18.4699C19.8907 15.8926 21.0467 17.0769 21.0467 18.5323L21.0379 18.6137Z" fill="#101010"/>
<path id="Vector_11" d="M15.6017 5.78588H7.59766V4.42986H15.6017C15.9635 4.42986 16.2635 4.72818 16.2635 5.10787C16.2635 5.47851 15.9723 5.78588 15.6017 5.78588Z" fill="#101010"/>
<path id="Vector_12" d="M15.6017 12.168H7.59766V10.812H15.6017C15.9635 10.812 16.2635 11.1103 16.2635 11.49C16.2635 11.8606 15.9723 12.168 15.6017 12.168Z" fill="#101010"/>
<path id="Vector_13" d="M17.0136 8.97693H7.59766V7.6209H17.0048C17.3666 7.6209 17.6667 7.91923 17.6667 8.29891C17.6755 8.66956 17.3754 8.97693 17.0136 8.97693Z" fill="#101010"/>
</g>
</g>
</g>
</g>
</g>
<defs>
<filter id="filter0_b_674_3520" x="-346" y="-669" width="1160" height="961" filterUnits="userSpaceOnUse" color-interpolation-filters="sRGB">
<feFlood flood-opacity="0" result="BackgroundImageFix"/>
<feGaussianBlur in="BackgroundImageFix" stdDeviation="50"/>
<feComposite in2="SourceAlpha" operator="in" result="effect1_backgroundBlur_674_3520"/>
<feBlend mode="normal" in="SourceGraphic" in2="effect1_backgroundBlur_674_3520" result="shape"/>
</filter>
<linearGradient id="paint0_linear_674_3520" x1="-246" y1="-569" x2="811.326" y2="16.1329" gradientUnits="userSpaceOnUse">
<stop stop-color="#2A2A2A"/>
<stop offset="1" stop-color="#1B1B1B" stop-opacity="0.6"/>
</linearGradient>
</defs>
</svg>
