<svg width="311" height="161" viewBox="0 0 311 161" fill="none" xmlns="http://www.w3.org/2000/svg">
<path fill-rule="evenodd" clip-rule="evenodd" d="M11 1C5.47715 1 1 5.47715 1 11V134C1 139.523 5.47715 144 11 144H96.625L114.217 158.604C115.308 159.51 116.97 159.024 117.4 157.672L121.75 144H300C305.523 144 310 139.523 310 134V11C310 5.47715 305.523 1 300 1H11Z" fill="white"/>
<path d="M96.625 144L97.2638 143.231L96.986 143H96.625V144ZM114.217 158.604L114.855 157.835L114.217 158.604ZM117.4 157.672L118.353 157.975L117.4 157.672ZM121.75 144V143H121.019L120.797 143.697L121.75 144ZM2 11C2 6.02944 6.02944 2 11 2V0C4.92487 0 0 4.92487 0 11H2ZM2 134V11H0V134H2ZM11 143C6.02944 143 2 138.971 2 134H0C0 140.075 4.92487 145 11 145V143ZM96.625 143H11V145H96.625V143ZM114.855 157.835L97.2638 143.231L95.9862 144.769L113.578 159.374L114.855 157.835ZM116.447 157.369C116.232 158.045 115.401 158.288 114.855 157.835L113.578 159.374C115.215 160.733 117.708 160.003 118.353 157.975L116.447 157.369ZM120.797 143.697L116.447 157.369L118.353 157.975L122.703 144.303L120.797 143.697ZM300 143H121.75V145H300V143ZM309 134C309 138.971 304.971 143 300 143V145C306.075 145 311 140.075 311 134H309ZM309 11V134H311V11H309ZM300 2C304.971 2 309 6.02944 309 11H311C311 4.92487 306.075 0 300 0V2ZM11 2H300V0H11V2Z" fill="url(#paint0_linear_5733_6936)"/>
<defs>
<linearGradient id="paint0_linear_5733_6936" x1="-3.27428" y1="80.054" x2="314.274" y2="80.054" gradientUnits="userSpaceOnUse">
<stop stop-color="#F0C86F"/>
<stop offset="0.38" stop-color="#FF684B"/>
<stop offset="0.75" stop-color="#FAD880"/>
<stop offset="1" stop-color="#90F7EB"/>
</linearGradient>
</defs>
</svg>
