<svg width="24" height="24" viewBox="0 0 24 24" fill="none" xmlns="http://www.w3.org/2000/svg">
<path d="M22.0935 15.8512C21.9202 15.4246 21.4403 15.2179 21.0137 15.3846C20.5871 15.5512 20.3804 16.0378 20.5471 16.4644C20.767 17.011 20.6937 17.6309 20.3538 18.1242C20.0205 18.6174 19.4806 18.904 18.874 18.904H4.4629C3.803 18.904 3.22309 18.5641 2.90314 17.9842C2.58319 17.4109 2.59652 16.731 2.94313 16.1711L10.1487 4.51294C10.4753 3.97969 11.0419 3.66641 11.6684 3.66641C12.295 3.66641 12.8616 3.98636 13.1882 4.51294L18.5207 13.1449C18.7607 13.5382 19.2739 13.6582 19.6672 13.4182C20.0605 13.1783 20.1805 12.665 19.9405 12.2717L14.608 3.63975C13.9748 2.61324 12.8749 2 11.6684 2C10.462 2 9.36214 2.61324 8.7289 3.63975L1.52335 15.3046C0.856791 16.3844 0.823463 17.6976 1.44337 18.8041C2.06327 19.9106 3.18976 20.5771 4.45623 20.5771H18.8673C20.0338 20.5771 21.0737 20.0239 21.7269 19.064C22.3735 18.1108 22.5068 16.911 22.0868 15.8512H22.0935Z" fill="#FF684B"/>
<path fill-rule="evenodd" clip-rule="evenodd" d="M11.6684 13.3887C11.1757 13.3887 10.7757 12.9888 10.7757 12.496L10.7757 8.99888C10.7757 8.5061 11.1757 8.10616 11.6685 8.10616C12.1612 8.10616 12.5612 8.5061 12.5612 8.99888L12.5612 12.496C12.5612 12.9888 12.1612 13.3887 11.6684 13.3887Z" fill="#FF684B"/>
<path d="M11.6684 14.5456C11.1754 14.5456 10.7757 14.9453 10.7757 15.4384C10.7757 15.9314 11.1754 16.3311 11.6684 16.3311C12.1615 16.3311 12.5612 15.9314 12.5612 15.4384C12.5612 14.9453 12.1615 14.5456 11.6684 14.5456Z" fill="#FF684B"/>
</svg>
