<svg width="444" height="250" viewBox="0 0 444 250" fill="none" xmlns="http://www.w3.org/2000/svg">
<g clip-path="url(#clip0_327_227)">
<rect width="444" height="250" rx="25" fill="#101010"/>
<path d="M306 49.5H379C381.485 49.5 383.5 51.5147 383.5 54V69C383.5 71.4853 381.485 73.5 379 73.5H306C303.515 73.5 301.5 71.4853 301.5 69V54C301.5 51.5147 303.515 49.5 306 49.5Z" fill="#756A67" stroke="white"/>
<path d="M109.542 53.6729C107.212 53.6729 105.417 55.0348 105.417 57.0564C105.417 59.0219 106.938 59.6958 108.829 60.0608L111.214 60.4539C114.38 60.9874 116.559 62.4756 116.559 66.0135C116.559 69.7059 113.599 71.8679 109.83 71.8679C106.431 71.8679 103.224 69.8182 102.758 65.8029C102.717 65.466 102.977 65.1712 103.306 65.1712H104.732C105.006 65.1712 105.239 65.3818 105.28 65.6625C105.581 68.4985 107.733 69.6216 109.844 69.6216C112.146 69.6216 113.969 68.4564 113.969 66.0978C113.969 63.9919 112.502 63.2618 110.556 62.8828L108.199 62.4616C104.896 61.9 102.827 60.2714 102.827 57.1828C102.827 53.6027 105.869 51.4126 109.528 51.4126C112.447 51.4126 115.668 53.0973 116.298 57.0985C116.353 57.4355 116.093 57.7584 115.75 57.7584H114.27C114.01 57.7584 113.777 57.5618 113.736 57.2951C113.311 54.6417 111.42 53.6729 109.542 53.6729Z" fill="white"/>
<path d="M126.042 55.8632C129.564 55.8632 132.072 57.7865 132.963 60.9314C133.059 61.2823 132.799 61.6474 132.429 61.6474H130.77C130.537 61.6474 130.332 61.4929 130.25 61.2683C129.633 59.4713 128.208 58.4464 126.042 58.4464C123.096 58.4464 121.451 60.9033 121.451 63.8656C121.451 66.8139 123.109 69.2848 126.042 69.2848C128.208 69.2848 129.633 68.2599 130.25 66.4629C130.332 66.2382 130.537 66.0838 130.77 66.0838H132.429C132.799 66.0838 133.059 66.4488 132.949 66.7998C132.004 70.085 129.578 71.868 126.042 71.868C121.506 71.868 118.628 68.2739 118.628 63.8656C118.614 59.4713 121.506 55.8632 126.042 55.8632Z" fill="white"/>
<path d="M135.622 69.3128H139.171V59.2045H136.006C135.704 59.2045 135.457 58.9518 135.457 58.6429V57.2109C135.457 56.902 135.704 56.6493 136.006 56.6493H140.323C141.227 56.6493 141.967 57.4074 141.967 58.334V58.7412C142.748 56.8178 144.434 56.3405 147.052 56.3405C148.052 56.3405 148.724 56.5089 149.107 56.6493C149.327 56.7336 149.464 56.9441 149.464 57.1688V58.6569C149.464 59.036 149.107 59.3168 148.751 59.1904C148.285 59.036 147.627 58.8956 146.764 58.8956C143.968 58.8956 141.981 60.8471 141.981 64.2306V69.3128H146.545C146.846 69.3128 147.093 69.5655 147.093 69.8744V71.3064C147.093 71.6153 146.846 71.868 146.545 71.868H135.636C135.334 71.868 135.087 71.6153 135.087 71.3064V69.8744C135.074 69.5655 135.32 69.3128 135.622 69.3128Z" fill="white"/>
<path d="M151.547 63.8657C151.547 59.4714 154.397 55.8633 159.03 55.8633C163.662 55.8633 166.512 59.4574 166.512 63.8657C166.512 68.2741 163.662 71.8681 159.03 71.8681C154.397 71.8681 151.547 68.2741 151.547 63.8657ZM159.03 69.2849C162.004 69.2849 163.717 66.828 163.717 63.8657C163.717 60.9174 162.004 58.4465 159.03 58.4465C156.056 58.4465 154.343 60.9034 154.343 63.8657C154.343 66.828 156.056 69.2849 159.03 69.2849Z" fill="white"/>
<path d="M172.707 69.4395H176.997C177.298 69.4395 177.545 69.6922 177.545 70.0011V71.3208C177.545 71.6296 177.298 71.8823 176.997 71.8823H170.569C170.268 71.8823 170.021 71.6296 170.021 71.3208V53.9962H167.883C167.582 53.9962 167.335 53.7435 167.335 53.4346V52.1149C167.335 51.8061 167.582 51.5533 167.883 51.5533H171.049C171.953 51.5533 172.694 52.3115 172.694 53.2381V69.4395H172.707Z" fill="white"/>
<path d="M182.191 69.4395H186.48C186.782 69.4395 187.028 69.6922 187.028 70.0011V71.3208C187.028 71.6296 186.782 71.8823 186.48 71.8823H180.053C179.751 71.8823 179.504 71.6296 179.504 71.3208V53.9962H177.367C177.065 53.9962 176.818 53.7435 176.818 53.4346V52.1149C176.818 51.8061 177.065 51.5533 177.367 51.5533H180.532C181.437 51.5533 182.177 52.3115 182.177 53.2381V69.4395H182.191Z" fill="white"/>
<path d="M66.3307 57.4918C65.0013 56.2002 64.0694 54.5295 64.0694 52.55V52.3394C64.1791 48.9559 66.8926 46.2323 70.1955 46.134H91.2186C91.7668 46.1621 92.2053 46.5552 92.2053 47.1308V65.3539C92.685 65.4381 92.918 65.5083 93.3839 65.6768C93.754 65.8172 94.261 66.112 94.261 66.112V47.1308C94.2336 45.4039 92.8906 44.014 91.2049 44.014H70.1817C65.6455 44.0842 62 47.8889 62 52.55C62 55.2596 63.206 57.5761 65.1795 59.2046C65.3166 59.3169 65.4399 59.4573 65.7962 59.4573C66.4129 59.4573 66.8515 58.9519 66.8241 58.4044C66.8104 57.9411 66.6185 57.7726 66.3307 57.4918Z" fill="white"/>
<path d="M90.6712 66.5469H74.1843C73.0742 66.5609 72.1834 67.4735 72.1834 68.6106V71.0395C72.2108 72.1626 73.1428 73.1173 74.2529 73.1173H75.4726V71.0395H74.2529V68.6668C74.2529 68.6668 74.5544 68.6668 74.9244 68.6668C77.0075 68.6668 78.5424 70.6464 78.5424 72.7663C78.5424 74.6476 76.8705 77.0483 74.0747 76.8517C71.5941 76.6833 70.2511 74.4229 70.2511 72.7663V52.1846C70.2511 51.258 69.511 50.4999 68.6065 50.4999H66.9619V52.6058H68.1816V72.7803C68.1131 76.8798 71.0322 78.9436 74.0747 78.9436L90.6849 78.9998C94.0288 78.9998 96.7424 76.22 96.7424 72.7803C96.7424 69.3407 94.0151 66.5469 90.6712 66.5469ZM94.673 72.9067C94.6044 75.1109 92.8365 76.8798 90.6712 76.8798L79.118 76.8377C80.0363 75.7426 80.5982 74.3247 80.5982 72.7803C80.5982 70.3515 79.1866 68.6808 79.1866 68.6808H90.6849C92.8913 68.6808 94.6867 70.52 94.6867 72.7803L94.673 72.9067Z" fill="white"/>
<path d="M86.23 52.9849H73.7998V50.879H86.23C86.7919 50.879 87.2579 51.3423 87.2579 51.932C87.2579 52.5076 86.8056 52.9849 86.23 52.9849Z" fill="white"/>
<path d="M86.23 62.8968H73.7998V60.7909H86.23C86.7919 60.7909 87.2579 61.2542 87.2579 61.8438C87.2579 62.4195 86.8056 62.8968 86.23 62.8968Z" fill="white"/>
<path d="M88.4228 57.941H73.7998V55.8351H88.4091C88.971 55.8351 89.4369 56.2984 89.4369 56.888C89.4507 57.4636 88.9847 57.941 88.4228 57.941Z" fill="white"/>
<path d="M222 44V79" stroke="white" stroke-miterlimit="10"/>
<circle cx="274.5" cy="61.5" r="17" fill="#756A67" stroke="white"/>
<circle cx="222.5" cy="373.5" r="252" fill="#876F50" stroke="white"/>
<rect x="0.5" y="0.5" width="443" height="249" rx="24.5" stroke="#101010"/>
</g>
<defs>
<clipPath id="clip0_327_227">
<rect width="444" height="250" rx="25" fill="white"/>
</clipPath>
</defs>
</svg>
