<svg width="24" height="24" viewBox="0 0 24 24" fill="none" xmlns="http://www.w3.org/2000/svg">
<path fill-rule="evenodd" clip-rule="evenodd" d="M12.375 21.2695C17.2863 21.2695 21.2695 17.2863 21.2695 12.375C21.2695 7.46367 17.2863 3.48047 12.375 3.48047C7.46367 3.48047 3.48047 7.46367 3.48047 12.375C3.48047 17.2863 7.46367 21.2695 12.375 21.2695ZM12.375 23.2031C18.3537 23.2031 23.2031 18.3537 23.2031 12.375C23.2031 6.39633 18.3537 1.54688 12.375 1.54688C6.39633 1.54688 1.54688 6.39633 1.54688 12.375C1.54688 18.3537 6.39633 23.2031 12.375 23.2031Z" fill="currentColor"/>
<path fill-rule="evenodd" clip-rule="evenodd" d="M12.375 10.1475C12.9087 10.1475 13.3418 10.5806 13.3418 11.1143V17.3018C13.3418 17.8355 12.9087 18.2686 12.375 18.2686C11.8413 18.2686 11.4082 17.8355 11.4082 17.3018V11.1143C11.4082 10.5806 11.8413 10.1475 12.375 10.1475Z" fill="currentColor"/>
<path d="M12.375 8.40727C12.9089 8.40727 13.3418 7.97442 13.3418 7.44047C13.3418 6.90652 12.9089 6.47367 12.375 6.47367C11.8411 6.47367 11.4082 6.90652 11.4082 7.44047C11.4082 7.97442 11.8411 8.40727 12.375 8.40727Z" fill="currentColor"/>
</svg>
