<svg width="16" height="16" viewBox="0 0 16 16" fill="none" xmlns="http://www.w3.org/2000/svg">
<path fill-rule="evenodd" clip-rule="evenodd" d="M7.91702 0.998457C7.8092 0.958848 7.6908 0.958848 7.58298 0.998457L1.2861 3.3116C1.09546 3.38163 0.96875 3.56316 0.96875 3.76626V11.4767C0.96875 11.6735 1.08785 11.8508 1.27008 11.9252L7.56696 14.4953C7.68429 14.5432 7.81571 14.5432 7.93304 14.4953L14.2299 11.9252C14.4121 11.8508 14.5312 11.6735 14.5312 11.4767V3.76626C14.5312 3.56316 14.4045 3.38163 14.2139 3.3116L7.91702 0.998457ZM7.26562 6.62424L1.9375 4.48295V11.1513L7.26562 13.326V6.62424ZM8.23438 6.63255L9.85758 6.02385C10.1081 5.92992 10.235 5.65072 10.141 5.40024C10.0471 5.14976 9.7679 5.02285 9.51742 5.11678L7.75607 5.77729L2.80259 3.78656L7.75 1.96915L12.723 3.79596L10.7112 4.63922C10.4645 4.74263 10.3483 5.02646 10.4517 5.27318C10.5551 5.5199 10.839 5.63607 11.0857 5.53266L13.5625 4.49449V11.1513L8.23438 13.326V6.63255Z" fill="white"/>
</svg>
