<svg width="919" height="485" viewBox="0 0 919 485" fill="none" xmlns="http://www.w3.org/2000/svg">
<path d="M0 161.602H917.722" stroke="#101010" stroke-miterlimit="10"/>
<path d="M388.829 206.47C377.831 206.47 369.313 212.755 369.313 222.049C369.313 231.088 376.515 234.24 385.403 235.934L396.666 237.77C411.591 240.259 421.946 247.074 421.946 263.448C421.946 280.484 407.929 290.432 390.116 290.432C374.026 290.432 358.883 280.967 356.687 262.435C356.643 262.071 356.676 261.701 356.785 261.35C356.895 260.999 357.077 260.675 357.32 260.4C357.563 260.125 357.862 259.904 358.196 259.752C358.531 259.601 358.894 259.521 359.261 259.52H365.991C366.617 259.515 367.224 259.739 367.696 260.151C368.169 260.562 368.475 261.132 368.555 261.754C370.146 274.9 380.311 280.077 390.249 280.077C401.114 280.077 409.765 274.711 409.765 263.836C409.765 254.144 402.818 250.737 393.675 249.033L382.544 247.074C366.956 244.452 357.132 236.985 357.132 222.712C357.132 206.205 371.546 196.116 388.829 196.116C402.638 196.116 417.867 203.915 420.82 222.314C420.88 222.685 420.859 223.064 420.758 223.426C420.658 223.788 420.48 224.123 420.237 224.409C419.994 224.695 419.692 224.925 419.351 225.083C419.01 225.241 418.64 225.324 418.264 225.324H411.279C410.671 225.33 410.08 225.119 409.613 224.729C409.147 224.339 408.834 223.794 408.733 223.195C406.698 210.957 397.764 206.47 388.829 206.47Z" fill="#190602"/>
<path d="M466.817 216.635C483.475 216.635 495.334 225.542 499.527 240.032C499.635 240.418 499.653 240.823 499.578 241.217C499.503 241.61 499.339 241.981 499.096 242.3C498.854 242.619 498.542 242.878 498.183 243.056C497.824 243.234 497.429 243.326 497.029 243.326H489.164C488.623 243.324 488.096 243.153 487.657 242.837C487.217 242.522 486.887 242.077 486.712 241.566C483.797 233.284 477.049 228.561 466.836 228.561C452.923 228.561 445.067 239.919 445.067 253.548C445.067 267.177 452.876 278.535 466.836 278.535C477.068 278.535 483.816 273.802 486.712 265.53C486.887 265.018 487.217 264.574 487.657 264.258C488.096 263.943 488.623 263.772 489.164 263.77H496.991C497.393 263.77 497.789 263.864 498.148 264.043C498.508 264.223 498.82 264.484 499.062 264.805C499.303 265.126 499.466 265.499 499.539 265.894C499.612 266.29 499.591 266.696 499.48 267.082C494.994 282.226 483.522 290.46 466.817 290.46C445.38 290.46 431.798 273.85 431.798 253.548C431.798 233.246 445.38 216.635 466.817 216.635Z" fill="#190602"/>
<path d="M512.087 278.629H528.878V231.987H513.914C513.226 231.987 512.567 231.714 512.08 231.228C511.594 230.741 511.321 230.082 511.321 229.394V222.769C511.323 222.082 511.598 221.425 512.084 220.941C512.57 220.457 513.228 220.185 513.914 220.185H534.301C535.323 220.183 536.334 220.384 537.278 220.775C538.222 221.165 539.08 221.738 539.802 222.461C540.524 223.184 541.096 224.042 541.485 224.987C541.875 225.931 542.074 226.943 542.072 227.965V229.858C545.763 220.951 553.751 218.774 566.112 218.774C569.406 218.682 572.69 219.172 575.813 220.223C576.308 220.408 576.733 220.741 577.033 221.176C577.332 221.611 577.491 222.127 577.489 222.655V229.488C577.489 229.896 577.393 230.298 577.208 230.661C577.023 231.025 576.755 231.339 576.426 231.579C576.096 231.819 575.715 231.978 575.312 232.042C574.909 232.107 574.498 232.075 574.11 231.949C571.07 230.995 567.897 230.532 564.711 230.577C551.461 230.577 542.091 239.568 542.091 255.185V278.629H563.661C564.347 278.629 565.005 278.901 565.491 279.385C565.977 279.87 566.251 280.527 566.254 281.213V287.838C566.254 288.526 565.981 289.186 565.494 289.672C565.008 290.158 564.348 290.432 563.661 290.432H512.087C511.4 290.432 510.74 290.158 510.254 289.672C509.767 289.186 509.494 288.526 509.494 287.838V281.213C509.497 280.527 509.771 279.87 510.257 279.385C510.743 278.901 511.401 278.629 512.087 278.629Z" fill="#190602"/>
<path d="M587.36 253.548C587.36 233.246 600.848 216.635 622.711 216.635C644.574 216.635 658.062 233.246 658.062 253.548C658.062 273.85 644.574 290.46 622.711 290.46C600.848 290.46 587.36 273.821 587.36 253.548ZM622.711 278.535C636.766 278.535 644.858 267.177 644.858 253.548C644.858 239.919 636.766 228.561 622.711 228.561C608.656 228.561 600.564 239.919 600.564 253.548C600.564 267.177 608.656 278.506 622.711 278.506V278.535Z" fill="#190602"/>
<path d="M687.383 279.188H707.628C707.968 279.188 708.305 279.255 708.619 279.385C708.933 279.516 709.218 279.707 709.458 279.948C709.698 280.189 709.888 280.475 710.018 280.789C710.147 281.104 710.213 281.441 710.212 281.781V287.838C710.215 288.181 710.151 288.52 710.023 288.837C709.895 289.155 709.706 289.443 709.466 289.687C709.225 289.931 708.939 290.125 708.624 290.257C708.309 290.39 707.97 290.459 707.628 290.46H677.341C676.653 290.46 675.993 290.187 675.507 289.701C675.021 289.214 674.747 288.555 674.747 287.867V207.985H664.668C664.327 207.986 663.99 207.92 663.676 207.791C663.361 207.662 663.075 207.471 662.834 207.231C662.593 206.991 662.402 206.706 662.272 206.392C662.141 206.078 662.074 205.741 662.074 205.401V199.334C662.074 198.994 662.141 198.657 662.272 198.343C662.402 198.029 662.593 197.744 662.834 197.504C663.075 197.264 663.361 197.073 663.676 196.944C663.99 196.815 664.327 196.749 664.668 196.75H679.65C680.671 196.749 681.682 196.949 682.625 197.339C683.569 197.729 684.426 198.302 685.148 199.023C685.869 199.745 686.442 200.602 686.832 201.546C687.222 202.489 687.422 203.5 687.421 204.521L687.383 279.188Z" fill="#190602"/>
<path d="M732.237 279.188H752.5C752.841 279.186 753.179 279.253 753.494 279.383C753.81 279.512 754.096 279.703 754.337 279.944C754.578 280.186 754.769 280.472 754.899 280.787C755.029 281.102 755.095 281.44 755.094 281.781V287.838C755.094 288.526 754.82 289.186 754.334 289.672C753.848 290.159 753.188 290.432 752.5 290.432H722.109C721.422 290.432 720.762 290.159 720.276 289.672C719.789 289.186 719.516 288.526 719.516 287.838V207.985H709.427C708.741 207.985 708.084 207.713 707.6 207.228C707.115 206.743 706.843 206.086 706.843 205.401V199.334C706.843 198.649 707.115 197.992 707.6 197.507C708.084 197.022 708.741 196.75 709.427 196.75H724.419C725.439 196.749 726.451 196.949 727.394 197.339C728.337 197.729 729.194 198.301 729.916 199.023C730.638 199.745 731.21 200.602 731.6 201.546C731.99 202.489 732.19 203.5 732.189 204.521L732.237 279.188Z" fill="#190602"/>
<path d="M316.651 271.474V176.287C316.623 172.47 315.089 168.817 312.383 166.125C309.676 163.433 306.016 161.918 302.198 161.91H202.819C192.492 162.089 182.648 166.319 175.411 173.688C168.173 181.056 164.121 190.974 164.127 201.303C164.112 207.932 165.811 214.453 169.058 220.232C171.764 224.839 175.293 228.91 179.469 232.243C180.539 233.113 180.037 232.792 183.407 234.855C186.536 236.699 189.888 238.133 193.382 239.124V296.044C193.447 298.639 193.809 301.218 194.461 303.73C195.489 307.591 197.412 311.155 200.075 314.135C202.737 317.114 206.063 319.425 209.785 320.88C213.136 322.229 216.707 322.947 220.319 323L299.662 323.284C305.703 323.275 311.589 321.36 316.478 317.812C321.368 314.263 325.013 309.261 326.894 303.519C328.775 297.778 328.795 291.589 326.952 285.835C325.11 280.081 321.498 275.055 316.632 271.474H316.651Z" fill="#FFEEDA"/>
<path d="M318.572 295.192C318.41 300.104 316.344 304.76 312.812 308.176C309.279 311.591 304.557 313.5 299.643 313.497L245.031 313.279C249.54 308.092 252.021 301.45 252.016 294.577C251.926 287.705 249.578 281.054 245.334 275.648H299.699C304.72 275.648 309.535 277.642 313.084 281.192C316.634 284.742 318.629 289.557 318.629 294.577L318.572 295.192Z" fill="#EBC28E"/>
<path d="M184.647 224.122C178.381 218.178 173.942 210.483 173.942 201.303V200.356C174.252 192.812 177.406 185.666 182.77 180.352C188.134 175.039 195.311 171.954 202.857 171.716H302.236C302.851 171.705 303.461 171.815 304.032 172.041C304.603 172.268 305.124 172.605 305.564 173.033C306.004 173.462 306.355 173.974 306.596 174.539C306.837 175.104 306.964 175.711 306.969 176.325V260.362C308.879 260.671 310.753 261.172 312.562 261.858C313.993 262.438 315.384 263.112 316.727 263.874V176.325C316.697 172.508 315.162 168.858 312.456 166.166C309.75 163.474 306.091 161.958 302.274 161.948H202.895C192.568 162.127 182.724 166.357 175.487 173.725C168.249 181.094 164.197 191.012 164.203 201.341C164.203 213.853 169.882 224.51 179.242 232.025C179.623 232.408 180.078 232.707 180.58 232.904C181.082 233.101 181.619 233.192 182.158 233.17C182.8 233.187 183.439 233.073 184.036 232.835C184.632 232.597 185.174 232.24 185.629 231.786C186.083 231.332 186.44 230.79 186.678 230.193C186.916 229.596 187.03 228.957 187.013 228.315C186.89 226.176 186.01 225.409 184.647 224.122Z" fill="#190602"/>
<path d="M299.699 265.899H221.757C219.241 265.922 216.835 266.936 215.063 268.723C213.291 270.509 212.295 272.923 212.293 275.44V286.608C212.396 289.156 213.466 291.57 215.286 293.356C217.106 295.143 219.539 296.168 222.089 296.224H227.881V286.608H222.089V275.667H225.25C235.084 275.667 242.286 284.829 242.286 294.596C242.187 297.236 241.556 299.829 240.431 302.22C239.307 304.611 237.712 306.75 235.741 308.51C233.771 310.27 231.466 311.615 228.964 312.463C226.462 313.312 223.815 313.648 221.18 313.45C209.434 312.664 203.121 302.225 203.121 294.596V199.599C203.121 197.538 202.303 195.562 200.846 194.104C199.388 192.647 197.412 191.828 195.351 191.828H187.59V201.52H193.363V294.568C193.07 313.497 206.841 323.028 221.18 323.028L299.661 323.255C307.181 323.119 314.346 320.036 319.615 314.67C324.885 309.304 327.837 302.084 327.837 294.563C327.837 287.042 324.885 279.822 319.615 274.456C314.346 269.09 307.181 266.007 299.661 265.871L299.699 265.899ZM318.629 295.24C318.466 300.151 316.401 304.807 312.868 308.223C309.336 311.639 304.613 313.547 299.699 313.545L245.088 313.327C249.597 308.14 252.077 301.497 252.073 294.625C251.983 287.753 249.635 281.101 245.391 275.695H299.699C304.72 275.695 309.534 277.69 313.084 281.24C316.634 284.789 318.629 289.604 318.629 294.625V295.24Z" fill="#190602"/>
<path d="M219.979 193.608H278.716C280.002 193.608 281.234 194.118 282.143 195.027C283.052 195.936 283.562 197.168 283.562 198.454C283.562 199.739 283.052 200.972 282.143 201.88C281.234 202.789 280.002 203.3 278.716 203.3H219.979V193.608Z" fill="#190602"/>
<path d="M219.979 239.351H278.716C280.002 239.351 281.234 239.861 282.143 240.77C283.052 241.679 283.562 242.911 283.562 244.197C283.562 245.482 283.052 246.714 282.143 247.623C281.234 248.532 280.002 249.043 278.716 249.043H219.979V239.351Z" fill="#190602"/>
<path d="M219.979 216.475H289.071C290.356 216.475 291.589 216.985 292.497 217.894C293.406 218.803 293.917 220.035 293.917 221.321C293.917 222.606 293.406 223.838 292.497 224.747C291.589 225.656 290.356 226.166 289.071 226.166H219.979V216.475Z" fill="#190602"/>
<g opacity="0.7">
<path d="M184.647 62.6383C178.381 56.6944 173.942 48.9997 173.942 39.8189V38.8724C174.252 31.3287 177.406 24.1818 182.77 18.8686C188.134 13.5554 195.311 10.4698 202.857 10.2322H302.236C302.851 10.221 303.461 10.3316 304.032 10.5577C304.603 10.7838 305.124 11.1209 305.564 11.5496C306.004 11.9782 306.355 12.4899 306.596 13.055C306.837 13.62 306.964 14.2272 306.969 14.8415V98.8786C308.879 99.1874 310.753 99.6884 312.562 100.374C313.993 100.955 315.384 101.628 316.727 102.39V14.8415C316.697 11.0247 315.162 7.3738 312.456 4.68189C309.75 1.98999 306.091 0.474516 302.274 0.464661H202.895C192.568 0.643424 182.724 4.87306 175.487 12.2418C168.249 19.6104 164.197 29.5281 164.203 39.8568C164.203 52.3691 169.882 63.0264 179.242 70.5413C179.623 70.9238 180.078 71.2231 180.58 71.4203C181.082 71.6174 181.619 71.7081 182.158 71.6865C182.8 71.7035 183.439 71.5895 184.036 71.3515C184.632 71.1135 185.174 70.7564 185.629 70.3021C186.083 69.8478 186.44 69.3058 186.678 68.7091C186.916 68.1124 187.03 67.4734 187.013 66.8312C186.89 64.6922 186.01 63.9255 184.647 62.6383Z" fill="white"/>
<path d="M299.7 104.415H221.758C219.242 104.438 216.836 105.453 215.064 107.239C213.292 109.026 212.296 111.439 212.294 113.956V125.124C212.397 127.673 213.467 130.086 215.287 131.872C217.107 133.659 219.54 134.685 222.09 134.74H227.882V125.124H222.09V114.183H225.251C235.085 114.183 242.287 123.345 242.287 133.112C242.188 135.753 241.557 138.346 240.432 140.736C239.308 143.127 237.713 145.266 235.742 147.026C233.772 148.786 231.467 150.131 228.965 150.98C226.463 151.828 223.816 152.164 221.181 151.966C209.435 151.181 203.122 140.741 203.122 133.112V38.1153C203.122 36.0544 202.304 34.0779 200.846 32.6207C199.389 31.1634 197.413 30.3447 195.352 30.3447H187.591V40.0366H193.364V133.084C193.071 152.013 206.842 161.544 221.181 161.544L299.662 161.772C307.182 161.635 314.347 158.552 319.616 153.186C324.886 147.82 327.838 140.6 327.838 133.079C327.838 125.559 324.886 118.339 319.616 112.973C314.347 107.607 307.182 104.524 299.662 104.387L299.7 104.415ZM318.63 133.756C318.467 138.667 316.402 143.323 312.869 146.739C309.337 150.155 304.614 152.063 299.7 152.061L245.089 151.843C249.598 146.656 252.078 140.014 252.074 133.141C251.984 126.269 249.636 119.617 245.392 114.211H299.7C304.721 114.211 309.535 116.206 313.085 119.756C316.635 123.306 318.63 128.12 318.63 133.141V133.756Z" fill="white"/>
<path d="M219.979 32.124H278.716C280.002 32.124 281.234 32.6346 282.143 33.5434C283.052 34.4522 283.562 35.6847 283.562 36.9699C283.562 38.2552 283.052 39.4878 282.143 40.3966C281.234 41.3054 280.002 41.8159 278.716 41.8159H219.979V32.124Z" fill="white"/>
<path d="M219.979 77.867H278.716C280.002 77.867 281.234 78.3776 282.143 79.2864C283.052 80.1952 283.562 81.4277 283.562 82.7129C283.562 83.9981 283.052 85.2307 282.143 86.1395C281.234 87.0483 280.002 87.5588 278.716 87.5588H219.979V77.867Z" fill="white"/>
<path d="M219.979 54.9909H289.071C290.356 54.9909 291.589 55.5014 292.497 56.4102C293.406 57.319 293.917 58.5516 293.917 59.8368C293.917 61.122 293.406 62.3546 292.497 63.2634C291.589 64.1722 290.356 64.6827 289.071 64.6827H219.979V54.9909Z" fill="white"/>
</g>
<g opacity="0.7">
<path d="M20.4437 224.6C14.1781 218.657 9.73916 210.962 9.73916 201.781V200.835C10.0487 193.291 13.2026 186.144 18.5667 180.831C23.9308 175.517 31.1075 172.432 38.6538 172.194H138.033C138.647 172.183 139.258 172.294 139.829 172.52C140.4 172.746 140.921 173.083 141.361 173.512C141.801 173.94 142.152 174.452 142.393 175.017C142.634 175.582 142.761 176.189 142.766 176.804V260.841C144.676 261.149 146.55 261.651 148.359 262.336C149.79 262.917 151.181 263.59 152.524 264.352V176.804C152.494 172.987 150.959 169.336 148.253 166.644C145.547 163.952 141.888 162.437 138.071 162.427H38.6917C28.3645 162.606 18.5212 166.835 11.2835 174.204C4.04585 181.573 -0.00650497 191.49 7.83822e-06 201.819C7.83822e-06 214.331 5.67878 224.988 15.0394 232.503C15.4194 232.886 15.8747 233.185 16.3766 233.382C16.8784 233.58 17.4158 233.67 17.9545 233.649C18.5967 233.666 19.2357 233.552 19.8324 233.314C20.4292 233.076 20.9712 232.718 21.4255 232.264C21.8798 231.81 22.2368 231.268 22.4748 230.671C22.7128 230.074 22.8268 229.436 22.8099 228.793C22.6869 226.654 21.8067 225.888 20.4437 224.6Z" fill="white"/>
<path d="M135.497 266.378H57.5553C55.0389 266.4 52.6331 267.415 50.8608 269.201C49.0885 270.988 48.093 273.402 48.0906 275.918V287.086C48.1935 289.635 49.264 292.048 51.0841 293.835C52.9041 295.621 55.3367 296.647 57.8865 296.703H63.6789V287.086H57.8865V276.145H61.0478C70.8816 276.145 78.0842 285.307 78.0842 295.075C77.9847 297.715 77.3538 300.308 76.2292 302.698C75.1047 305.089 73.5095 307.228 71.5392 308.988C69.5688 310.748 67.2638 312.093 64.7618 312.942C62.2599 313.791 59.6125 314.126 56.9779 313.928C45.2322 313.143 38.9193 302.703 38.9193 295.075V200.077C38.9193 198.017 38.1006 196.04 36.6434 194.583C35.1861 193.126 33.2096 192.307 31.1488 192.307H23.3877V201.999H29.1612V295.046C28.8678 313.976 42.6389 323.507 56.9779 323.507L135.459 323.734C142.979 323.597 150.144 320.514 155.413 315.148C160.683 309.782 163.635 302.562 163.635 295.041C163.635 287.521 160.683 280.301 155.413 274.935C150.144 269.569 142.979 266.486 135.459 266.349L135.497 266.378ZM154.426 295.718C154.264 300.63 152.199 305.285 148.666 308.701C145.134 312.117 140.411 314.026 135.497 314.023L80.8857 313.805C85.3944 308.618 87.8753 301.976 87.8707 295.103C87.7806 288.231 85.4326 281.579 81.1886 276.174H135.497C140.517 276.174 145.332 278.168 148.882 281.718C152.432 285.268 154.426 290.083 154.426 295.103V295.718Z" fill="white"/>
<path d="M55.7754 194.086H114.513C115.799 194.086 117.031 194.597 117.94 195.505C118.849 196.414 119.359 197.647 119.359 198.932C119.359 200.217 118.849 201.45 117.94 202.359C117.031 203.267 115.799 203.778 114.513 203.778H55.7754V194.086Z" fill="white"/>
<path d="M55.7754 239.829H114.513C115.799 239.829 117.031 240.34 117.94 241.248C118.849 242.157 119.359 243.39 119.359 244.675C119.359 245.96 118.849 247.193 117.94 248.102C117.031 249.01 115.799 249.521 114.513 249.521H55.7754V239.829Z" fill="white"/>
<path d="M55.7754 216.953H124.868C126.153 216.953 127.385 217.464 128.294 218.372C129.203 219.281 129.714 220.514 129.714 221.799C129.714 223.084 129.203 224.317 128.294 225.225C127.385 226.134 126.153 226.645 124.868 226.645H55.7754V216.953Z" fill="white"/>
</g>
<g opacity="0.7">
<path d="M775.444 224.6C769.178 218.657 764.739 210.962 764.739 201.781V200.835C765.049 193.291 768.203 186.144 773.567 180.831C778.931 175.517 786.107 172.432 793.654 172.194H893.033C893.647 172.183 894.258 172.294 894.829 172.52C895.4 172.746 895.921 173.083 896.361 173.512C896.801 173.94 897.152 174.452 897.393 175.017C897.634 175.582 897.761 176.189 897.766 176.804V260.841C899.676 261.149 901.55 261.651 903.359 262.336C904.79 262.917 906.181 263.59 907.524 264.352V176.804C907.494 172.987 905.959 169.336 903.253 166.644C900.547 163.952 896.888 162.437 893.071 162.427H793.692C783.365 162.606 773.521 166.835 766.284 174.204C759.046 181.573 754.993 191.49 755 201.819C755 214.331 760.679 224.988 770.039 232.503C770.419 232.886 770.875 233.185 771.377 233.382C771.878 233.58 772.416 233.67 772.955 233.649C773.597 233.666 774.236 233.552 774.832 233.314C775.429 233.076 775.971 232.718 776.426 232.264C776.88 231.81 777.237 231.268 777.475 230.671C777.713 230.074 777.827 229.436 777.81 228.793C777.687 226.654 776.807 225.888 775.444 224.6Z" fill="white"/>
<path d="M890.497 266.378H812.555C810.039 266.4 807.633 267.415 805.861 269.201C804.088 270.988 803.093 273.402 803.091 275.918V287.086C803.194 289.635 804.264 292.048 806.084 293.835C807.904 295.621 810.337 296.647 812.887 296.703H818.679V287.086H812.887V276.145H816.048C825.882 276.145 833.084 285.307 833.084 295.075C832.985 297.715 832.354 300.308 831.229 302.698C830.105 305.089 828.51 307.228 826.539 308.988C824.569 310.748 822.264 312.093 819.762 312.942C817.26 313.791 814.612 314.126 811.978 313.928C800.232 313.143 793.919 302.703 793.919 295.075V200.077C793.919 198.017 793.101 196.04 791.643 194.583C790.186 193.126 788.21 192.307 786.149 192.307H778.388V201.999H784.161V295.046C783.868 313.976 797.639 323.507 811.978 323.507L890.459 323.734C897.979 323.597 905.144 320.514 910.413 315.148C915.683 309.782 918.635 302.562 918.635 295.041C918.635 287.521 915.683 280.301 910.413 274.935C905.144 269.569 897.979 266.486 890.459 266.349L890.497 266.378ZM909.426 295.718C909.264 300.63 907.199 305.285 903.666 308.701C900.134 312.117 895.411 314.026 890.497 314.023L835.886 313.805C840.394 308.618 842.875 301.976 842.871 295.103C842.781 288.231 840.433 281.579 836.189 276.174H890.497C895.517 276.174 900.332 278.168 903.882 281.718C907.432 285.268 909.426 290.083 909.426 295.103V295.718Z" fill="white"/>
<path d="M810.775 194.086H869.513C870.799 194.086 872.031 194.597 872.94 195.505C873.849 196.414 874.359 197.647 874.359 198.932C874.359 200.217 873.849 201.45 872.94 202.359C872.031 203.267 870.799 203.778 869.513 203.778H810.775V194.086Z" fill="white"/>
<path d="M810.775 239.829H869.513C870.799 239.829 872.031 240.34 872.94 241.248C873.849 242.157 874.359 243.39 874.359 244.675C874.359 245.96 873.849 247.193 872.94 248.102C872.031 249.01 870.799 249.521 869.513 249.521H810.775V239.829Z" fill="white"/>
<path d="M810.775 216.953H879.868C881.153 216.953 882.385 217.464 883.294 218.372C884.203 219.281 884.714 220.514 884.714 221.799C884.714 223.084 884.203 224.317 883.294 225.225C882.385 226.134 881.153 226.645 879.868 226.645H810.775V216.953Z" fill="white"/>
</g>
<g opacity="0.7">
<path d="M184.444 385.6C178.178 379.657 173.739 371.962 173.739 362.781V361.835C174.049 354.291 177.203 347.144 182.567 341.831C187.931 336.517 195.107 333.432 202.654 333.194H302.033C302.647 333.183 303.258 333.294 303.829 333.52C304.4 333.746 304.921 334.083 305.361 334.512C305.801 334.94 306.152 335.452 306.393 336.017C306.634 336.582 306.761 337.189 306.766 337.804V421.841C308.676 422.149 310.55 422.651 312.359 423.336C313.79 423.917 315.181 424.59 316.524 425.352V337.804C316.494 333.987 314.959 330.336 312.253 327.644C309.547 324.952 305.888 323.437 302.071 323.427H202.692C192.365 323.606 182.521 327.835 175.284 335.204C168.046 342.573 163.993 352.49 164 362.819C164 375.331 169.679 385.988 179.039 393.503C179.419 393.886 179.875 394.185 180.377 394.382C180.878 394.58 181.416 394.67 181.955 394.649C182.597 394.666 183.236 394.552 183.832 394.314C184.429 394.076 184.971 393.718 185.426 393.264C185.88 392.81 186.237 392.268 186.475 391.671C186.713 391.074 186.827 390.436 186.81 389.793C186.687 387.654 185.807 386.888 184.444 385.6Z" fill="white"/>
<path d="M299.497 427.378H221.555C219.039 427.4 216.633 428.415 214.861 430.201C213.088 431.988 212.093 434.402 212.091 436.918V448.086C212.194 450.635 213.264 453.048 215.084 454.835C216.904 456.621 219.337 457.647 221.887 457.703H227.679V448.086H221.887V437.145H225.048C234.882 437.145 242.084 446.307 242.084 456.075C241.985 458.715 241.354 461.308 240.229 463.698C239.105 466.089 237.51 468.228 235.539 469.988C233.569 471.748 231.264 473.093 228.762 473.942C226.26 474.791 223.612 475.126 220.978 474.928C209.232 474.143 202.919 463.703 202.919 456.075V361.077C202.919 359.017 202.101 357.04 200.643 355.583C199.186 354.126 197.21 353.307 195.149 353.307H187.388V362.999H193.161V456.046C192.868 474.976 206.639 484.507 220.978 484.507L299.459 484.734C306.979 484.597 314.144 481.514 319.413 476.148C324.683 470.782 327.635 463.562 327.635 456.042C327.635 448.521 324.683 441.301 319.413 435.935C314.144 430.569 306.979 427.486 299.459 427.349L299.497 427.378ZM318.426 456.718C318.264 461.63 316.199 466.285 312.666 469.701C309.134 473.117 304.411 475.026 299.497 475.023L244.886 474.805C249.394 469.618 251.875 462.976 251.871 456.103C251.781 449.231 249.433 442.579 245.189 437.174H299.497C304.517 437.174 309.332 439.168 312.882 442.718C316.432 446.268 318.426 451.083 318.426 456.103V456.718Z" fill="white"/>
<path d="M219.775 355.086H278.513C279.799 355.086 281.031 355.597 281.94 356.505C282.849 357.414 283.359 358.647 283.359 359.932C283.359 361.217 282.849 362.45 281.94 363.359C281.031 364.267 279.799 364.778 278.513 364.778H219.775V355.086Z" fill="white"/>
<path d="M219.775 400.829H278.513C279.799 400.829 281.031 401.34 281.94 402.248C282.849 403.157 283.359 404.39 283.359 405.675C283.359 406.96 282.849 408.193 281.94 409.102C281.031 410.01 279.799 410.521 278.513 410.521H219.775V400.829Z" fill="white"/>
<path d="M219.775 377.953H288.868C290.153 377.953 291.385 378.464 292.294 379.372C293.203 380.281 293.714 381.514 293.714 382.799C293.714 384.084 293.203 385.317 292.294 386.225C291.385 387.134 290.153 387.645 288.868 387.645H219.775V377.953Z" fill="white"/>
</g>
<path d="M0 323.427H917.722" stroke="#101010" stroke-miterlimit="10"/>
<path d="M328 0.426758V484.427" stroke="#101010" stroke-miterlimit="10"/>
<path d="M755 0.426758V484.427" stroke="#101010" stroke-miterlimit="10"/>
<path d="M164 0.426758V484.427" stroke="#101010" stroke-miterlimit="10"/>
</svg>
