<svg width="574" height="358" viewBox="0 0 574 358" fill="none" xmlns="http://www.w3.org/2000/svg">
<g clip-path="url(#clip0_230_4745)">
<path d="M241.374 162.274C247.325 165.202 262.038 181.8 266.912 209.141C271.786 236.475 266.153 258.553 281.525 284.084C296.898 309.616 311.62 312.652 332.409 308.757C324.322 315.021 289.07 341.495 247.3 334.864C231.076 331.694 219.642 324.021 214.751 320.176C215.277 315.029 190.157 252.272 190.157 252.272C190.157 252.272 193.361 240.12 190.382 228.501C187.403 216.89 184.949 212.469 184.949 212.469C184.949 212.469 202.742 174.91 215.978 166.811C229.215 158.712 233.054 158.178 241.374 162.274Z" fill="#F9DFBA"/>
<path d="M160.054 355.5C160.054 355.5 189.798 361.997 195.456 354.057C201.674 345.341 218.49 318.491 225.267 287.855C231.067 261.615 227.312 253.082 218.732 250.763C210.503 247.735 199.721 258.462 193.745 276.904C187.77 295.345 185.525 306.822 186.042 308.974C186.56 311.126 188.162 315.739 188.162 315.739L161.306 315.163L160.062 355.5H160.054Z" fill="#DCBB93"/>
<path d="M461.442 139.586C472.233 149.187 474.519 185.269 474.953 193.368C475.387 201.467 473.518 225.864 484.943 244.898C491.211 255.35 492.847 255.3 500.349 255.108C476.122 261.422 438.466 270.43 438.466 270.43C438.466 270.43 432.574 269.554 422.434 252.872C411.201 234.397 419.555 203.152 413.112 184.077C408.689 170.998 402.98 166.11 398.507 164.959C404.532 157.828 408.822 131.37 425.53 128.985C442.238 126.599 455.132 133.964 461.45 139.586H461.442Z" fill="#F9DFBA"/>
<path d="M412.978 111.136C435.846 116.916 455.541 132.072 459.447 138.235C449.591 133.456 446.244 131.054 429.586 138.235C412.928 145.417 388.484 172.141 365.191 212.478C349.534 243.648 349.092 284.81 343.834 295.787C338.585 306.763 332.701 312.702 310.819 308.59C288.936 304.47 273.338 280.982 269.416 243.139C268.022 210.167 266.044 197.581 261.145 189.399C256.246 181.216 355.568 117.892 369.138 113.363C382.709 108.834 392.698 106.015 412.978 111.144V111.136Z" fill="white"/>
<path d="M212.632 250.194L171.771 248.977C171.771 248.977 164.352 269.295 162.148 294.176C161.08 311.492 161.297 315.162 161.297 315.162L188.154 315.737C188.154 315.737 182.186 313.026 192.852 279.83C200.889 254.507 212.632 250.203 212.632 250.203V250.194Z" fill="white"/>
<path d="M179.641 356.809C167.014 353.356 155.071 334.272 164.377 277.713C185.942 179.023 225.434 160.439 225.434 160.439C225.434 160.439 135.835 176.22 116.097 184.361C96.4345 191.134 94.9991 193.878 89.349 197.974C83.699 202.061 56.2083 233.99 53.1204 287.955C50.817 335.34 59.7135 344.824 59.7135 344.824L179.641 356.809Z" fill="white"/>
<path d="M494.432 65.8946L471.323 74.4774L536.803 0.209961L573.791 45.6512L547.661 55.4851C547.661 55.4851 538.147 77.8721 537.329 117.441C536.511 157.011 535.134 196.872 532.614 208.491C530.085 220.101 528.19 237.884 503.913 253.615C498.747 255.533 493.606 257.193 486.754 247.935C479.902 238.676 480.628 234.673 480.628 234.673C480.628 234.673 486.111 228.033 485.736 208.432C485.369 188.823 481.563 157.544 483.533 128.46C485.502 99.375 494.432 65.9029 494.432 65.9029V65.8946Z" fill="white"/>
<g opacity="0.61">
<path d="M83.1316 258.995L146.776 262.999" stroke="#BFA480" stroke-width="0.583062" stroke-linecap="round" stroke-linejoin="round"/>
<path d="M79.1006 280.349L142.745 284.352" stroke="#BFA480" stroke-width="0.583062" stroke-linecap="round" stroke-linejoin="round"/>
<path d="M76.8389 302.535L140.483 306.539" stroke="#BFA480" stroke-width="0.583062" stroke-linecap="round" stroke-linejoin="round"/>
<path d="M89.9917 237.635L153.636 241.638" stroke="#BFA480" stroke-width="0.583062" stroke-linecap="round" stroke-linejoin="round"/>
<path d="M95.1411 218L158.785 219.143" stroke="#BFA480" stroke-width="0.583062" stroke-linecap="round" stroke-linejoin="round"/>
<path d="M114.954 198.549L169.251 196.647" stroke="#BFA480" stroke-width="0.583062" stroke-linecap="round" stroke-linejoin="round"/>
<path d="M133.072 182.184L184.148 178.981" stroke="#BFA480" stroke-width="0.583062" stroke-linecap="round" stroke-linejoin="round"/>
</g>
<path d="M191.45 283.817L210.57 283.976C210.57 283.976 210.57 286.803 208.717 293.218C204.035 311.935 181.402 329.484 186.868 302.184C192.335 274.884 204.82 240.57 222.763 252.664C240.715 264.75 206.848 347.058 195.447 354.048C182.345 362.088 158.384 359.895 161.506 301.408C164.627 242.914 203.167 155.651 234.898 159.746C248.802 161.54 268.865 190.524 268.748 230.127C268.648 263.024 282.66 299.648 303.357 306.43C324.055 313.211 339.386 312.101 344.418 293.885C349.617 275.059 348.491 226.741 384.461 181.633C420.431 136.534 441.061 126.958 459.447 138.227C478.35 149.812 473.359 210.117 477.774 226.057C482.189 241.996 490.877 265.993 509.546 249.728C528.207 233.463 532.221 222.854 535.125 185.703C538.255 145.55 535.009 118.284 540.559 83.9693C542.595 68.0299 547.686 55.4851 547.686 55.4851L573.816 45.6512L536.803 0.209961L471.314 74.4774L495.066 65.661C495.066 65.661 482.614 110.602 482.848 144.341C483.057 173.526 487.263 212.511 485.31 222.729C483.207 233.714 480.62 234.681 480.62 234.681" stroke="#261611" stroke-width="0.583062" stroke-linecap="round" stroke-linejoin="round"/>
<path d="M398.499 164.959C418.194 173.35 416.016 205.479 415.958 227.924C415.916 244.406 428.009 268.311 438.466 270.43C450.342 268.303 491.278 257.501 500.666 255.024" stroke="#261611" stroke-width="0.583062" stroke-linecap="round" stroke-linejoin="round"/>
<path d="M379.278 109.384C397.58 105.68 435.011 110.526 462.651 140.887" stroke="#261611" stroke-width="0.583062" stroke-linecap="round" stroke-linejoin="round"/>
<path d="M215.978 250.195L171.512 248.969" stroke="#261611" stroke-width="0.583062" stroke-linecap="round" stroke-linejoin="round"/>
<path d="M229.515 159.729C229.515 159.729 130.143 176.795 101.968 189.448C73.7925 202.101 53.7545 252.005 52.9032 293.534C52.2022 327.699 56.5586 344.506 59.7217 344.823C62.8847 345.139 182.019 357.684 182.019 357.684" stroke="#261611" stroke-width="0.583062" stroke-linecap="round" stroke-linejoin="round"/>
<path d="M184.94 212.47C189.697 217.483 193.261 241.446 190.849 248.961" stroke="#261611" stroke-width="0.583062" stroke-linecap="round" stroke-linejoin="round"/>
<path d="M214.743 320.175C222.529 324.98 233.888 336.332 258.458 335.272C283.027 334.213 298.642 327.582 306.12 324.571C321.885 318.232 334.387 307.806 334.387 307.806" stroke="#261611" stroke-width="0.583062" stroke-linecap="round" stroke-linejoin="round"/>
<path d="M188.154 315.73C188.154 315.73 167.44 314.962 161.281 314.587" stroke="#261611" stroke-width="0.583062" stroke-linecap="round" stroke-linejoin="round"/>
<path d="M95.842 202.812C100.532 199.567 105.147 195.763 110.472 193.003C114.002 191.043 117.975 189.591 121.48 187.439C125.686 184.82 129.258 181.717 133.715 179.641C135.317 178.865 140.241 177.48 140.166 175.412C140.016 172.784 134.883 174.01 133.022 174.244C133.631 168.689 124.551 173.06 122.34 173.527C118.292 174.419 114.177 173.251 110.363 176.004C106.049 179.198 105.389 184.386 101.651 187.698C98.0786 190.801 97.0438 194.521 96.1257 199.175C95.7585 200.735 95.3412 201.919 95.5332 203.412L95.8336 202.803L95.842 202.812Z" fill="#FDE9D5" stroke="#261611" stroke-width="0.583062" stroke-linecap="round" stroke-linejoin="round"/>
<path d="M108.519 154.142C110.28 151.648 115.905 149.796 117.357 153.767C119.068 150.906 121.296 147.594 125.06 147.494C126.579 150.514 118.058 154.817 117.558 158.279C117.282 160.581 118.776 161.899 118.108 164.068C117.257 166.253 115.187 167.846 114.336 170.031C112.3 174.827 110.547 178.831 107.301 183.026C104.029 187.038 101.392 191.526 98.546 195.863C97.1106 197.94 94.8155 200.684 94.5401 202.986C88.0388 199.466 92.0531 186.488 93.8724 181.533C96.7767 173.226 99.6143 164.359 103.553 156.677L108.527 154.15L108.519 154.142Z" fill="#DCBB93" stroke="#261611" stroke-width="0.583062" stroke-linecap="round" stroke-linejoin="round"/>
<path d="M93.2633 198.908C95.9506 190.375 105.056 186.113 108.511 177.705C110.347 172.826 112.225 166.829 112.275 161.29C112.342 158.846 111.207 155.894 111.49 153.65C111.741 151.181 114.47 148.846 112.358 147.119C110.063 145.417 105.982 149.037 104.263 150.364C104.33 143.499 94.7655 145.601 92.412 147.895C90.5843 149.896 89.4576 152.916 87.5799 154.484C85.5185 156.077 83.3569 155.468 81.621 158.121C78.1409 163.434 82.2303 167.337 83.2735 172.517C83.8243 175.32 82.7394 177.23 82.8896 179.865C83.0899 182.935 84.9343 184.027 85.9858 186.33C87.2043 189.933 86.4365 191.359 89.274 194.32C90.8263 196.113 92.195 197.932 92.0698 199.934L93.2633 198.899V198.908Z" fill="#FDD7AC" stroke="#261611" stroke-width="0.583062" stroke-linecap="round" stroke-linejoin="round"/>
<mask id="mask0_230_4745" style="mask-type:luminance" maskUnits="userSpaceOnUse" x="220" y="11" width="173" height="267">
<path d="M277.478 11.979C308.983 23.4812 381.331 88.265 386.047 94.3205C390.762 100.376 393.792 150.305 391.981 154.4C390.161 158.495 371.742 178.922 355.994 206.931C355.835 207.215 355.677 207.49 355.527 207.765C342.19 231.545 311.737 239.527 288.494 225.264C282.911 221.836 278.713 219.042 277.486 217.691C272.637 212.378 216.295 158.495 221.144 130.036C225.993 101.577 244.838 18.6267 251.164 17.4173C257.49 16.2079 277.478 11.9707 277.478 11.9707V11.979ZM384.703 182.684C384.703 182.684 363.171 208.899 355.31 241.087C347.999 271.014 348.116 272.699 348.116 272.699L375.039 277.712C375.039 277.712 390.52 259.962 390.837 249.578C391.154 239.194 392.506 185.512 392.506 185.512L384.703 182.684Z" fill="white"/>
</mask>
<g mask="url(#mask0_230_4745)">
<path d="M281.859 204.245L371.4 268.503L331.6 176.536L259.476 184.143L262.531 190.382L281.859 204.245Z" fill="#85E0D1"/>
<path d="M386.047 124.664L331.599 176.536L371.4 268.503L386.047 124.664Z" fill="#A9F6EA" stroke="#261611" stroke-width="0.583062" stroke-linecap="round" stroke-linejoin="round"/>
<path d="M349.81 124.598L386.047 124.664L331.599 176.536L259.476 184.143L256.78 178.463L283.144 155.576L325.866 132.255L349.81 124.598Z" fill="#7CD1C1"/>
<path d="M262.18 28.8691L325.866 164.959L381.59 110.977L262.18 28.8691Z" fill="#85E0D1" stroke="#261611" stroke-width="0.583062" stroke-linecap="round" stroke-linejoin="round"/>
<path d="M262.18 29.7031L325.866 165.26L252.582 171.857C250.304 169.53 249.336 168.004 247.057 165.685L262.18 29.7115V29.7031Z" fill="#A9F6EA"/>
<path d="M262.18 28.8691L325.866 164.959L381.59 110.977L262.18 28.8691Z" stroke="#261611" stroke-width="0.583062" stroke-linecap="round" stroke-linejoin="round"/>
<path d="M386.047 124.664L331.599 176.536L371.4 268.503L386.047 124.664Z" stroke="#261611" stroke-width="0.583062" stroke-linecap="round" stroke-linejoin="round"/>
<path d="M261.145 189.382L371.4 268.504" stroke="#261611" stroke-width="0.583062" stroke-linecap="round" stroke-linejoin="round"/>
<path d="M331.599 176.536L258.85 184.21" stroke="#261611" stroke-width="0.583062" stroke-linecap="round" stroke-linejoin="round"/>
<path d="M251.164 171.591L325.866 164.96" stroke="#261611" stroke-width="0.583062" stroke-linecap="round" stroke-linejoin="round"/>
<path d="M262.18 28.8691L246.306 166.16" stroke="#261611" stroke-width="0.583062" stroke-linecap="round" stroke-linejoin="round"/>
<path d="M386.047 124.664H367.469" stroke="#261611" stroke-width="0.583062" stroke-linecap="round" stroke-linejoin="round"/>
<path d="M266.903 170.188L255.896 178.655" stroke="#261611" stroke-width="0.583062" stroke-linecap="round" stroke-linejoin="round"/>
<g style="mix-blend-mode:multiply" opacity="0.33">
<path d="M274.532 119.209C282.101 133.673 317.612 148.728 318.78 148.728C319.949 148.728 344.685 145.692 344.685 145.692C344.685 145.692 337.884 163.199 332.401 169.197C326.926 175.202 297.841 181.533 282.393 181.708C266.945 181.883 259.468 184.127 259.468 184.127L255.887 178.638L266.895 170.181L251.155 171.574L246.306 166.144L255.887 83.2852L262.18 29.6865C262.18 29.6865 266.962 104.73 274.532 119.193V119.209Z" fill="#AA8D6A"/>
</g>
<g style="mix-blend-mode:multiply" opacity="0.33">
<path d="M379.278 188.989L377.108 212.477C377.108 212.477 371.942 219.7 365.892 229.051C361.619 235.648 351.521 253.69 351.521 253.69C351.521 253.69 352.505 222.486 365.892 205.738L379.278 188.989Z" fill="#AA8D6A"/>
</g>
<g style="mix-blend-mode:multiply" opacity="0.33">
<path d="M289.929 181.983C289.929 181.983 288.936 198.223 293.894 202.977C298.851 207.723 318.054 218.633 332.409 217.14L346.764 215.647L357.655 204.003C357.655 204.003 350.394 226.24 342.466 230.194C334.537 234.147 323.821 234.364 323.821 234.364L252.282 183.785L289.921 181.983H289.929Z" fill="#AA8D6A"/>
</g>
</g>
<path d="M47.9212 210.727C47.6291 208.742 43.3228 203.62 41.4033 202.261C38.9913 200.851 38.3404 201.569 35.8116 202.303C32.4734 203.345 31.3217 202.161 27.9667 201.343C19.8964 199.775 21.8076 207.207 26.3727 210.585C31.1714 214.58 34.9687 212.896 40.7857 213.463C43.8986 213.671 47.5958 215.99 50.7504 215.706L47.9045 210.727H47.9212Z" fill="#FDD7AC" stroke="#261611" stroke-width="0.583062" stroke-linecap="round" stroke-linejoin="round"/>
<path d="M73.9013 231.571C73.4005 229.661 71.2891 227.2 70.8384 224.815C70.0873 220.436 70.9052 217.083 67.642 213.438C61.3911 206.265 45.7846 204.546 36.8631 205.631C34.3928 205.881 24.6033 208.9 24.6033 208.9C28.4089 214.305 36.3373 213.997 38.9161 214.639C49.4818 217.825 60.3979 221.337 69.3779 227.701C70.9385 228.735 72.6661 230.178 73.7427 231.162L73.9013 231.571Z" fill="#FDE9D5" stroke="#261611" stroke-width="0.583062" stroke-linecap="round" stroke-linejoin="round"/>
<path d="M59.5385 177.805C58.6956 174.394 54.2056 171.216 51.0176 170.807C44.8334 169.907 42.1712 175.136 37.0803 177.08C34.635 178.014 32.1814 177.088 29.8195 178.231C27.2491 179.449 26.0473 181.776 24.5534 183.986C19.7546 190.959 29.6526 189.967 34.2344 192.177C38.5324 194.262 42.6469 198.282 46.7029 200.935C50.9091 203.988 55.2405 206.765 59.3216 210.101C66.5656 216.19 71.8151 225.616 81.8966 225.716C81.8215 225.515 81.5378 225.39 81.254 225.265L59.5385 177.814V177.805Z" fill="#FDD7AC" stroke="#261611" stroke-width="0.583062" stroke-linecap="round" stroke-linejoin="round"/>
<path d="M73.3506 222.921C67.7673 219.927 63.1355 215.164 58.1364 211.252C53.4127 207.466 47.6208 204.546 42.5216 201.602C37.4975 198.858 31.2382 197.757 26.8735 194.295C25.2294 193.061 22.709 190.759 21.4738 189.366C19.5626 186.83 20.4556 186.722 23.7021 186.647C29.494 186.53 33.4999 189.658 38.9079 190.383C45.4176 190.917 46.177 197.165 51.4515 199.342C53.9886 200.468 57.1015 200.676 59.0544 202.728C60.6485 204.446 60.9739 207.124 62.6514 209.05C64.2455 210.777 66.7825 211.903 68.4517 213.83C69.9706 215.348 70.6216 217.667 72.0153 219.468C74.2853 222.329 77.7071 223.355 79.9187 224.84L73.3423 222.93L73.3506 222.921Z" fill="#FDE9D5" stroke="#261611" stroke-width="0.583062" stroke-linecap="round" stroke-linejoin="round"/>
<path d="M84.3249 231.596C82.564 232.004 79.4594 230.912 77.5983 229.427C75.5035 228.276 73.8928 226.783 73.2418 223.981C72.2821 220.244 74.3101 220.135 74.6606 217.274C75.4701 213.446 71.5393 206.39 70.7465 201.06C69.987 196.364 69.6866 185.963 74.6689 184.119C73.6758 179.749 68.6434 166.445 76.8388 167.588C78.8835 167.796 79.5261 170.282 81.0951 171.149C84.2331 172.876 82.2301 173.301 84.9175 171.266C87.3377 168.922 88.1305 164.777 92.2867 166.453C99.03 168.939 97.0938 180.408 96.8935 186.096C96.6098 190.217 98.7713 192.627 98.4959 197.064C98.2205 201.502 95.4664 207.015 93.3716 210.602C92.6789 211.903 92.4786 212.862 91.4939 213.546L84.3249 231.612V231.596Z" fill="#FDD7AC" stroke="#261611" stroke-width="0.583062" stroke-linecap="round" stroke-linejoin="round"/>
<path d="M74.9362 210.376C74.9278 206.565 74.3102 204.237 77.056 201.11C79.0089 198.441 82.3805 197.381 84.3334 194.712C86.3364 191.284 85.6103 186.663 88.6064 183.544C91.3355 180.666 93.5304 182.076 96.6183 181.508C99.4558 180.925 101.609 179.031 105.173 179.006C107.217 178.881 111.507 179.407 112.108 181.992C112.926 185.095 108.177 187.839 106.525 189.774C102.118 195.087 98.6379 201.727 95.4499 207.882C93.1298 212.311 91.5691 220.853 87.3045 223.889L74.9445 210.393L74.9362 210.376Z" fill="#FDE9D5" stroke="#261611" stroke-width="0.583062" stroke-linecap="round" stroke-linejoin="round"/>
<path d="M63.5276 182.91C64.429 180.499 65.2302 174.619 64.7127 173.134C64.1953 171.65 65.0382 171.775 63.3273 169.273C61.6165 166.762 61.2159 166.312 60.1643 165.586C59.1128 164.86 59.1211 164.493 58.4869 164.627C57.8526 164.76 57.7858 164.652 57.3685 165.01C56.9512 165.369 57.0097 166.22 56.5423 167.387C56.0749 168.555 55.5408 170.757 55.6827 172.659C55.8246 174.561 56.9512 175.436 57.7441 177.588C58.5453 179.749 59.6219 181.726 60.0475 182.835C60.4731 183.953 61.8335 184.278 62.4677 184.069C63.102 183.861 63.5276 182.91 63.5276 182.91Z" fill="#FF664D" stroke="#261611" stroke-width="0.583062" stroke-linecap="round" stroke-linejoin="round"/>
<path d="M65.581 179.857C66.6242 176.246 67.8844 169.957 65.0969 167.996C63.8617 167.129 62.5682 167.946 61.9255 169.381C61.2829 170.816 61.2662 179.29 61.2495 181.008C61.2329 182.727 61.9756 183.511 62.7267 183.944C63.4778 184.378 64.8966 182.234 65.581 179.849V179.857Z" fill="#FF664D" stroke="#261611" stroke-width="0.583062" stroke-linecap="round" stroke-linejoin="round"/>
<path d="M57.2851 167.455C58.9542 167.497 61.7584 172.343 62.4928 174.128C63.2272 175.913 63.4693 178.056 63.5193 179.166C63.5694 180.275 63.536 181.526 63.4359 182.669C63.3357 183.812 62.3927 184.821 62.0755 184.996C61.7584 185.171 61.6499 185.613 60.156 185.43C58.6621 185.246 57.5438 184.262 56.6425 183.361C55.7411 182.452 54.1054 179.766 53.6547 178.649C53.2041 177.531 52.5614 171.734 53.1373 170.641C53.7131 169.549 56.4171 167.438 57.2934 167.463L57.2851 167.455Z" fill="#FF664D" stroke="#261611" stroke-width="0.583062" stroke-linecap="round" stroke-linejoin="round"/>
<path d="M66.5905 176.321C66.4153 176.788 66.8242 179.616 66.3068 180.967C65.9395 181.918 65.1133 182.577 65.1133 182.577C65.1133 182.577 65.3887 185.129 65.0299 186.222C64.671 187.323 63.9032 188.466 63.7279 188.649C63.561 188.841 62.8767 189.158 62.2341 189.083C61.5914 189.016 60.7485 188.249 60.0225 187.565C59.288 186.881 58.9792 186.155 58.7623 185.93C58.5453 185.705 57.8943 185.663 56.9095 185.054C55.9247 184.454 54.5226 181.935 54.5226 181.935L53.9885 181.126C53.9885 181.126 54.1554 180.784 54.9149 181.301C55.6744 181.818 56.559 182.56 56.9596 182.777C57.3685 182.994 57.8526 183.57 58.0946 183.753C58.3366 183.937 58.9375 184.546 58.9375 184.546C58.9375 184.546 58.7372 183.495 58.6538 182.41C58.5703 181.326 57.719 179.733 57.6857 178.765C57.6523 177.798 59.4883 179.833 59.4883 179.833C59.4883 179.833 60.1226 181.368 60.8821 181.776C62.0338 182.385 63.7446 182.285 63.9366 182.569C63.9366 182.569 64.7962 180.4 65.347 179.474C65.8978 178.548 66.6072 176.305 66.6072 176.305L66.5905 176.321Z" fill="#FDE9D5" stroke="#261611" stroke-width="0.583062" stroke-linecap="round" stroke-linejoin="round"/>
<path d="M64.5543 187.281C64.3957 187.506 64.0786 188.024 64.0034 188.666C63.8616 189.984 64.4875 191.927 64.5626 192.928C64.6794 194.421 68.894 206.098 69.6702 207.408C70.4547 208.717 78.091 218.376 78.091 218.376L78.6835 222.797C78.6835 222.797 69.7286 210.928 68.5352 208.993C67.3417 207.049 64.0201 195.122 63.4944 193.303C62.9686 191.485 62.5429 189.525 61.8169 188.958C61.1576 188.432 60.0059 187.582 60.0059 187.582L64.5459 187.29L64.5543 187.281Z" fill="#FDE9D5" stroke="#261611" stroke-width="0.583062" stroke-linecap="round" stroke-linejoin="round"/>
<path d="M117.549 201.894C120.295 198.049 115.713 196.439 111.991 197.248C102.185 200.025 90.5509 209.375 85.2681 217.992C92.0615 217.816 101.934 215.356 107.092 210.66L117.549 201.894Z" fill="#FDD7AC" stroke="#261611" stroke-width="0.583062" stroke-linecap="round" stroke-linejoin="round"/>
<path d="M91.4188 230.136C85.4516 235.849 76.0794 235.891 70.4461 229.577C66.2649 225.031 68.1176 216.257 72.8663 212.854C78.3327 208.683 85.1846 212.695 91.1768 212.12C95.4748 211.744 101.333 210.043 104.463 207.399C108.511 203.854 110.447 198.374 113.652 194.462C115.63 207.707 97.3108 218.726 91.8528 228.943L91.4188 230.136Z" fill="#FDE9D5" stroke="#261611" stroke-width="0.583062" stroke-linecap="round" stroke-linejoin="round"/>
<path d="M72.5741 248.919C68.0174 250.787 62.6678 258.077 57.7689 261.155C52.7698 263.908 48.2298 262.448 43.2307 262.982C38.24 263.516 34.6764 267.269 30.5619 269.354C24.4529 272.098 23.7936 270.105 18.5942 267.753C14.388 266.185 11.275 267.945 7.06882 266.376C2.86259 264.808 -0.784478 260.471 0.901352 256.593C2.69568 251.947 8.57104 251.863 11.3585 249.102C14.146 246.342 14.1543 243.022 16.6079 240.37C19.7292 237.5 22.717 237.625 26.6061 237.083C32.9321 236.116 36.1702 231.361 42.8301 230.277C49.5985 229.526 58.6702 234.664 64.5372 237.909C67.1912 239.252 78.0406 245.282 78.0322 246.392L72.5825 248.919H72.5741Z" fill="#FDD7AC" stroke="#261611" stroke-width="0.583062" stroke-linecap="round" stroke-linejoin="round"/>
<path d="M74.9028 255.558C73.1168 261.538 74.2602 267.385 69.7034 272.248C67.3416 274.859 64.2537 277.119 60.5148 276.635C59.53 276.385 56.4838 274.467 55.9497 274.65C53.7298 275.126 55.0067 277.061 54.1387 278.854C53.446 280.289 52.8451 281.982 51.2511 282.532C49.1313 283.275 48.472 280.531 47.579 280.539C45.0002 280.839 42.9137 284.242 40.1847 285.794C35.1522 288.438 25.0873 286.886 22.8757 281.406C19.8379 273.541 27.6995 269.612 31.0879 263.965C34.9186 257.868 37.4223 252.238 43.7733 248.243C49.6821 244.698 54.7229 242.938 61.3994 243.297C64.4206 243.439 79.7683 247.317 78.3746 249.294L74.9028 255.558Z" fill="#FDE9D5" stroke="#261611" stroke-width="0.583062" stroke-linecap="round" stroke-linejoin="round"/>
<path d="M26.481 280.329C30.8624 278.803 34.5095 277.093 38.0648 273.84C42.6132 269.578 45.9431 264.406 51.3678 261.395C59.847 256.883 71.9149 256.925 78.6082 249.234" fill="#FDE9D5"/>
<path d="M26.481 280.329C30.8624 278.803 34.5095 277.093 38.0648 273.84C42.6132 269.578 45.9431 264.406 51.3678 261.395C59.847 256.883 71.9149 256.925 78.6081 249.234" stroke="#261611" stroke-width="0.583062" stroke-linecap="round" stroke-linejoin="round"/>
<path d="M70.2122 254.623C68.0006 258.518 67.625 265.792 62.8596 268.119L70.2122 254.623Z" fill="#FDE9D5"/>
<path d="M70.2122 254.623C68.0006 258.518 67.625 265.792 62.8596 268.119" stroke="#261611" stroke-width="0.583062" stroke-linecap="round" stroke-linejoin="round"/>
<path d="M65.038 256.425C61.2574 253.28 53.9716 251.579 49.54 254.231L65.038 256.425Z" fill="#FDE9D5"/>
<path d="M65.038 256.425C61.2574 253.28 53.9716 251.579 49.54 254.231" stroke="#261611" stroke-width="0.583062" stroke-linecap="round" stroke-linejoin="round"/>
<path d="M57.7356 259.186C57.5937 263.256 56.2 268.869 52.9702 271.78L57.7356 259.186Z" fill="#FDE9D5"/>
<path d="M57.7356 259.186C57.5937 263.256 56.2 268.869 52.9702 271.78" stroke="#261611" stroke-width="0.583062" stroke-linecap="round" stroke-linejoin="round"/>
<path d="M51.493 261.137C46.569 261.738 41.595 259.002 38.0063 264.716L51.493 261.137Z" fill="#FDE9D5"/>
<path d="M51.493 261.137C46.569 261.738 41.595 259.002 38.0063 264.716" stroke="#261611" stroke-width="0.583062" stroke-linecap="round" stroke-linejoin="round"/>
<path d="M45.359 265.95C42.388 268.319 42.9471 275.042 42.7886 278.445L45.359 265.95Z" fill="#FDE9D5"/>
<path d="M45.359 265.95C42.388 268.319 42.9471 275.042 42.7886 278.445" stroke="#261611" stroke-width="0.583062" stroke-linecap="round" stroke-linejoin="round"/>
<path d="M39.2498 272.764C35.8949 271.48 31.1128 272.472 28.2085 275.05L39.2498 272.764Z" fill="#FDE9D5"/>
<path d="M39.2498 272.764C35.8949 271.48 31.1128 272.472 28.2085 275.05" stroke="#261611" stroke-width="0.583062" stroke-linecap="round" stroke-linejoin="round"/>
<path d="M32.6485 277.519C32.3397 279.187 32.2312 281.455 30.9209 282.807L32.6485 277.519Z" fill="#FDE9D5"/>
<path d="M32.6485 277.519C32.3397 279.187 32.2312 281.455 30.9209 282.807" stroke="#261611" stroke-width="0.583062" stroke-linecap="round" stroke-linejoin="round"/>
<path d="M160.905 233.814C158.693 234.173 155.589 235.516 153.327 233.697C147.777 229.485 152.985 223.438 154.136 218.926C155.806 212.62 154.404 208.733 160.713 205.146C166.238 201.61 166.471 196.997 170.411 192.502C173.248 189.432 175.284 190.6 178.715 190.383C182.011 189.999 183.997 187.597 186.76 186.529C193.403 184.061 196.599 189.849 199.587 194.695C200.822 193.444 205.212 191.642 204.987 194.87C204.845 196.096 200.68 198.549 199.52 199.183C195.456 202.11 191.058 203.92 186.493 205.864C177.054 209.709 168.074 216.24 165.186 226.282C164.385 229.126 164.26 232.83 162.407 235.399C161.931 235.499 162.14 235.057 161.698 234.848L160.888 233.822L160.905 233.814Z" fill="#FDE9D5" stroke="#261611" stroke-width="0.583062" stroke-linecap="round" stroke-linejoin="round"/>
<path d="M162.858 234.765C162.04 219.334 174.876 199.783 191.233 197.681C191.433 197.703 191.592 197.67 191.709 197.581" stroke="#261611" stroke-width="0.583062" stroke-linecap="round" stroke-linejoin="round"/>
<path d="M147.502 273.4C155.38 275.501 162.833 269.98 168.074 264.667C172.706 259.737 176.269 253.632 180.935 249.019C186.167 243.714 191.333 244.165 190.173 251.947C196.65 242.997 197.543 258.578 196.04 262.873C193.211 269.863 187.186 273.65 180.275 274.968C186.96 274.634 179.349 278.571 176.211 279.205C172.122 279.922 168.324 280.297 164.46 280.039C158.668 279.647 150.239 278.554 146.35 274.784L147.493 273.391L147.502 273.4Z" fill="#FDD7AC" stroke="#261611" stroke-width="0.583062" stroke-linecap="round" stroke-linejoin="round"/>
<path d="M160.646 239.627C172.597 232.245 192.251 227.775 204.169 237.517C209.385 241.662 217.706 258.928 223.256 249.311C225.617 245.499 225.292 240.686 223.614 237.008C222.905 235.381 220.126 233.271 219.675 232.07C218.515 229.243 220.593 229.735 220.126 227.074C219.984 223.037 216.779 221.185 216.721 216.798C216.562 211.293 218.882 210.751 212.99 207.898C207.449 205.129 206.022 208.073 200.864 208.315C196.741 208.799 194.63 205.388 190.482 204.412C181.243 201.868 176.219 212.336 170.786 218.341C166.371 223.129 160.696 230.168 159.762 237.233C159.353 238.96 159.436 238.609 159.962 239.469L160.655 239.635L160.646 239.627Z" fill="#FDD7AC" stroke="#261611" stroke-width="0.583062" stroke-linecap="round" stroke-linejoin="round"/>
<path d="M160.146 240.053C162.04 232.029 173.056 225.364 180.108 222.637C195.648 216.631 205.922 223.271 212.782 232.529" stroke="#261611" stroke-width="0.583062" stroke-linecap="round" stroke-linejoin="round"/>
<g style="mix-blend-mode:multiply" opacity="0.33">
<path d="M365.883 190.491C365.883 190.491 345.061 243.522 340.003 248.961C334.946 254.399 319.773 268.078 309.066 260.646C298.358 253.214 293 240.044 292.107 234.356C290.989 227.241 294.244 213.136 294.244 213.136L320.366 231.678C320.366 231.678 341.489 229.551 352.505 212.461C361.669 198.256 365.875 190.482 365.875 190.482L365.883 190.491Z" fill="#AA8D6A"/>
</g>
<g style="mix-blend-mode:multiply" opacity="0.33">
<path d="M120.979 208.614C116.414 215.788 107.033 232.403 103.628 243.738C100.24 255.048 100.507 276.61 111.682 275.292C122.857 273.974 131.411 231.077 136.903 220.784C142.394 210.483 159.144 203.668 163.091 193.718C167.047 183.775 143.955 195.803 138.071 195.102C132.187 194.402 125.41 201.65 120.979 208.614Z" fill="#AA8D6A"/>
</g>
<path d="M119.218 138.785L110.923 120.26L119.21 103.645L111.816 97.9648C111.816 97.9648 102.552 119.376 102.543 119.576C102.535 119.776 115.004 139.361 114.928 139.553" fill="#FFB7A6"/>
<path d="M119.218 138.785L110.923 120.26L119.21 103.645L111.816 97.9648C111.816 97.9648 102.552 119.376 102.543 119.576C102.535 119.776 115.004 139.361 114.928 139.553" stroke="#261611" stroke-width="0.583062" stroke-linecap="round" stroke-linejoin="round"/>
<path d="M114.678 139.035C114.82 139.185 117.883 143.831 118.058 143.923C118.233 144.015 121.054 145.958 121.054 145.958L123.55 147.66L124.226 146.375L121.772 142.889L125.16 144.599L124.443 149.695C124.443 149.695 125.686 152.197 125.97 151.805C126.254 151.413 128.716 145.291 128.716 145.291L125.937 141.337L118.25 136.399" fill="#FFB7A6"/>
<path d="M114.678 139.035C114.82 139.185 117.883 143.831 118.058 143.923C118.233 144.015 121.054 145.958 121.054 145.958L123.55 147.66L124.226 146.375L121.772 142.889L125.16 144.599L124.443 149.695C124.443 149.695 125.686 152.197 125.97 151.805C126.254 151.413 128.716 145.291 128.716 145.291L125.937 141.337L118.25 136.399" stroke="#261611" stroke-width="0.583062" stroke-linecap="round" stroke-linejoin="round"/>
<path d="M125.11 91.6925C125.11 91.6925 129.742 93.8611 128.207 97.2142C126.671 100.567 115.396 114.105 115.396 114.105L103.795 105.864C103.795 105.864 116.74 87.8974 125.11 91.6925Z" fill="#513107" stroke="#261611" stroke-width="0.583062" stroke-linecap="round" stroke-linejoin="round"/>
<path d="M138.255 62.7831C139.707 64.3596 140.667 65.9276 140.792 67.8127L140.208 69.289C140.208 69.289 142.469 72.175 143.17 72.6087L140.658 73.0258L141.526 75.2361C141.46 75.8283 141.092 76.2453 140.183 76.1786L139.891 77.8385C139.891 77.8385 141.076 79.3231 139.432 80.1989C137.788 81.0747 133.014 78.6976 133.014 78.6976L130.251 92.1348C125.135 93.2107 118.784 90.2164 116.798 85.3286L123.867 73.9099L125.269 59.8555C130.502 60.7146 135.985 61.5487 138.263 62.7831H138.255Z" fill="#FFB7A6" stroke="#261611" stroke-width="0.583062" stroke-linecap="round" stroke-linejoin="round"/>
<path d="M138.348 69.6738C138.482 69.2621 138.239 68.8138 137.805 68.6724C137.372 68.531 136.911 68.7501 136.777 69.1618C136.642 69.5735 136.885 70.0218 137.319 70.1632C137.753 70.3046 138.213 70.0855 138.348 69.6738Z" fill="#261611"/>
<path d="M140.441 64.9352L132.513 67.2539C132.513 67.2539 132.905 80.3492 126.521 85.6707C124.292 87.5307 117.566 85.9292 114.561 90.792L112.133 98.474C108.686 98.6658 103.194 94.3369 106.099 88.3981C106.099 88.3981 115.538 83.1267 115.571 75.6199C115.58 73.0759 119.594 72.9758 120.478 69.2891C120.921 67.4208 122.081 64.5849 122.189 62.8416C122.398 59.4052 121.989 57.3283 128.307 55.0429C134.624 52.7575 139.623 57.3616 140.441 64.9519V64.9352Z" fill="#261611" stroke="#261611" stroke-width="0.583062" stroke-miterlimit="10"/>
<path d="M141.292 62.5409L139.498 56.5605C139.498 56.5605 135.492 53.491 130.259 54.1333C125.027 54.7672 121.989 58.3121 121.989 58.3121L121.388 66.3777L141.292 62.5409Z" fill="#FF6330" stroke="#261611" stroke-width="0.583062" stroke-linecap="round" stroke-linejoin="round"/>
<path d="M121.638 62.9337L121.38 66.3785L141.292 62.5417L140.333 59.3555L121.638 62.9337Z" fill="#261611" stroke="#261611" stroke-width="0.583062" stroke-linecap="round" stroke-linejoin="round"/>
<path d="M151.984 63.3077L111.357 70.8145C111.357 70.8145 121.822 63.3244 130.218 61.8814C134.808 61.089 151.984 63.3161 151.984 63.3161V63.3077Z" fill="#FF6330" stroke="#261611" stroke-width="0.583062" stroke-linecap="round" stroke-linejoin="round"/>
<path d="M103.628 221.744C104.012 220.51 104.221 219.233 104.037 217.982C103.762 216.072 109.078 179.981 109.078 179.981L105.74 154.767L120.887 157.97C120.887 158.904 123.416 176.136 123.416 176.136L111.824 220.818" fill="#FFB7A6"/>
<path d="M103.628 221.744C104.012 220.51 104.221 219.233 104.037 217.982C103.762 216.072 109.078 179.981 109.078 179.981L105.74 154.767L120.887 157.97C120.887 158.904 123.416 176.136 123.416 176.136L111.824 220.818" stroke="#261611" stroke-width="0.583062" stroke-linecap="round" stroke-linejoin="round"/>
<path d="M111.69 220.468L124.601 238.835C124.601 238.835 127.656 242.388 121.872 240.036L97.9451 225.364C97.9451 225.364 97.9284 222.695 100.04 221.044C101.25 220.093 102.702 219.025 103.896 217.749" fill="#FFB7A6"/>
<path d="M111.69 220.468L124.601 238.835C124.601 238.835 127.656 242.388 121.872 240.036L97.9451 225.364C97.9451 225.364 97.9284 222.695 100.04 221.044C101.25 220.093 102.702 219.025 103.896 217.749" stroke="#261611" stroke-width="0.583062" stroke-linecap="round" stroke-linejoin="round"/>
<path d="M122.373 233.597C122.331 233.681 118.509 238.41 118.509 238.41L123.691 241.079L122.857 242.455L95.291 229.135L96.9685 225.865L107.718 231.587L117.123 226.849L122.364 233.581L122.373 233.597Z" fill="#261611" stroke="#261611" stroke-width="0.583062" stroke-linecap="round" stroke-linejoin="round"/>
<path d="M130.301 183.768C130.026 181.858 138.18 151.947 138.18 151.947L113.936 152.973L117.549 136.567L148.762 136.225L155.964 144.899L138.088 186.587" fill="#FFB7A6"/>
<path d="M130.301 183.768C130.026 181.858 138.18 151.947 138.18 151.947L113.936 152.973L117.549 136.567L148.762 136.225L155.964 144.899L138.088 186.587" stroke="#261611" stroke-width="0.583062" stroke-linecap="round" stroke-linejoin="round"/>
<path d="M138.38 181.707L159.503 189.339C159.503 189.339 164.043 190.49 157.959 191.883L129.943 193.593C129.943 193.593 128.399 191.407 129.175 188.855C129.617 187.387 130.201 185.677 130.443 183.942" fill="#FFB7A6"/>
<path d="M138.38 181.707L159.503 189.339C159.503 189.339 164.043 190.49 157.959 191.883L129.943 193.593C129.943 193.593 128.399 191.407 129.175 188.855C129.617 187.387 130.201 185.677 130.443 183.942" stroke="#261611" stroke-width="0.583062" stroke-linecap="round" stroke-linejoin="round"/>
<path d="M154.662 186.32C154.679 186.412 154.262 192.476 154.262 192.476L160.045 191.692L160.154 193.302L129.934 198.206L129.425 194.569L141.518 193.085L146.5 183.81L154.662 186.312V186.32Z" fill="#261611" stroke="#261611" stroke-width="0.583062" stroke-linecap="round" stroke-linejoin="round"/>
<path d="M130.101 91.0506L119.819 87.0303C119.819 87.0303 114.228 88.882 111.465 102.169C108.711 115.448 106.166 125.207 106.458 125.373C106.75 125.54 131.128 132.421 131.194 131.621C131.261 130.82 133.03 114.063 133.456 112.62L136.269 108.124C136.602 107.582 133.106 92.3935 130.101 91.0589V91.0506Z" fill="#513107" stroke="#261611" stroke-width="0.583062" stroke-linecap="round" stroke-linejoin="round"/>
<path d="M130.46 127.475L108.427 123.813L100.24 172.775C100.24 172.775 116.94 173.767 128.707 165.626C140.475 157.486 143.679 134.507 143.679 134.507L130.46 127.475Z" fill="#261611" stroke="#261611" stroke-width="0.583062" stroke-linecap="round" stroke-linejoin="round"/>
<path d="M143.112 140.645L130.335 125.239L126.387 105.863L116.456 105.938C116.456 105.938 122.732 129.985 122.849 130.16C122.965 130.335 140.541 144.29 140.6 144.507" fill="#FFB7A6"/>
<path d="M143.112 140.645L130.335 125.239L126.387 105.863L116.456 105.938C116.456 105.938 122.732 129.985 122.849 130.16C122.965 130.335 140.541 144.29 140.6 144.507" stroke="#261611" stroke-width="0.583062" stroke-linecap="round" stroke-linejoin="round"/>
<path d="M143.112 140.646C143.279 140.804 146.784 142.205 146.784 142.205L150.857 145.2L151.241 150.705L148.411 152.214L144.965 150.279L140.592 144.499" fill="#FFB7A6"/>
<path d="M143.112 140.646C143.279 140.804 146.784 142.205 146.784 142.205L150.857 145.2L151.241 150.705L148.411 152.214L144.965 150.279L140.592 144.499" stroke="#261611" stroke-width="0.583062" stroke-linecap="round" stroke-linejoin="round"/>
<path d="M123.5 91.9591C123.5 91.9591 128.807 90.7497 129.717 94.5698C130.627 98.39 130.043 117.14 130.043 117.14L114.903 117.824C114.903 117.824 113.977 94.2612 123.5 91.9591Z" fill="#513107" stroke="#261611" stroke-width="0.583062" stroke-linecap="round" stroke-linejoin="round"/>
<path d="M165.679 145.667C166.213 143.632 164.176 136.934 162.891 134.824C161.155 132.472 160.221 132.897 157.491 132.563C153.853 132.196 153.227 130.578 150.339 128.41C143.212 123.572 141.994 131.521 144.998 136.659C147.977 142.481 152.326 142.414 157.692 145.358C160.604 146.835 163.208 150.588 166.363 151.622L165.679 145.659V145.667Z" fill="#FDD7AC" stroke="#261611" stroke-width="0.583062" stroke-linecap="round" stroke-linejoin="round"/>
<path d="M182.111 176.428C182.42 174.385 181.394 171.148 181.944 168.654C183.029 164.125 185.191 161.239 183.547 156.385C180.476 146.901 166.154 138.827 157.116 136.2C154.629 135.424 143.955 134.307 143.955 134.307C145.39 141.079 153.16 144.04 155.38 145.725C164.243 153.14 173.315 161.014 179.341 170.84C180.426 172.483 181.485 174.577 182.12 175.969L182.103 176.428H182.111Z" fill="#FDE9D5" stroke="#261611" stroke-width="0.583062" stroke-linecap="round" stroke-linejoin="round"/>
<path d="M193.545 175.26C199.829 172.299 206.13 168.654 213.074 166.402C217.706 164.751 222.771 163.8 227.412 161.915C232.987 159.613 237.894 156.601 243.669 154.992C245.747 154.383 251.948 153.707 252.265 151.205C252.616 148.019 246.198 148.461 243.919 148.377C245.764 141.821 233.98 145.258 231.234 145.383C226.193 145.65 221.486 143.415 216.362 145.967C210.537 148.945 208.709 155.042 203.56 158.27C198.644 161.281 196.658 165.543 194.63 170.948C193.879 172.749 193.144 174.092 193.069 175.911L193.553 175.243L193.545 175.26Z" fill="#FDE9D5" stroke="#261611" stroke-width="0.583062" stroke-linecap="round" stroke-linejoin="round"/>
<path d="M218.507 119.335C221.119 116.691 228.246 115.59 229.197 120.653C231.826 117.558 235.165 114.03 239.705 114.656C240.923 118.584 229.832 122.046 228.53 126.108C227.745 128.819 229.273 130.704 228.037 133.173C226.577 135.633 223.773 137.126 222.312 139.578C218.907 144.933 216.003 149.387 211.263 153.775C206.531 157.937 202.466 162.808 198.176 167.445C196.04 169.647 192.727 172.492 191.942 175.202C184.84 169.681 192.251 154.884 195.431 149.296C200.588 139.895 205.763 129.82 212.022 121.37L218.498 119.327L218.507 119.335Z" fill="#FDD7AC" stroke="#261611" stroke-width="0.583062" stroke-linecap="round" stroke-linejoin="round"/>
<path d="M190.424 118.735C191.016 115.099 188.003 110.194 185.099 108.484C179.516 105.073 174.792 109.01 169.092 108.793C166.355 108.693 164.368 106.791 161.623 106.916C158.652 107.033 156.523 108.776 154.187 110.286C146.692 115.023 156.632 118.143 160.137 122.155C163.425 125.933 165.729 131.497 168.541 135.717C171.337 140.388 174.367 144.842 176.92 149.738C181.385 158.588 182.562 169.823 192.226 174.069C192.235 173.844 192.018 173.602 191.792 173.368L190.424 118.735Z" fill="#DCBB93" stroke="#261611" stroke-width="0.583062" stroke-linecap="round" stroke-linejoin="round"/>
<path d="M185.141 167.862C180.993 162.682 178.498 156.193 175.293 150.363C172.305 144.766 167.932 139.578 164.235 134.64C160.529 129.936 154.954 126.299 152.175 121.17C151.099 119.301 149.621 116.048 149.012 114.197C148.219 110.969 149.121 111.227 152.275 112.495C157.9 114.764 160.471 119.426 165.386 122.354C171.437 125.549 169.601 131.879 173.782 136.142C175.76 138.269 178.673 139.753 179.708 142.531C180.534 144.85 179.749 147.56 180.567 150.104C181.394 152.423 183.371 154.55 184.189 157.094C185.024 159.179 184.707 161.681 185.299 163.984C186.301 167.679 189.18 170.064 190.691 172.408L185.149 167.862H185.141Z" fill="#FDE9D5" stroke="#261611" stroke-width="0.583062" stroke-linecap="round" stroke-linejoin="round"/>
<path d="M186.534 160.74C184.965 161.148 182.144 160.214 180.442 158.921C178.531 157.929 177.062 156.611 176.411 154.1C175.476 150.755 177.296 150.622 177.563 148.036C178.222 144.575 174.541 138.302 173.724 133.531C172.947 129.319 172.48 119.969 176.92 118.218C175.944 114.306 171.153 102.437 178.547 103.304C180.392 103.446 181.018 105.681 182.445 106.424C185.307 107.917 183.505 108.334 185.883 106.449C188.011 104.297 188.646 100.552 192.418 101.978C198.527 104.08 197.016 114.431 196.941 119.56C196.766 123.272 198.752 125.399 198.594 129.394C198.435 133.39 196.065 138.403 194.246 141.664C193.645 142.848 193.486 143.716 192.618 144.35L186.526 160.731L186.534 160.74Z" fill="#DCBB93" stroke="#261611" stroke-width="0.583062" stroke-linecap="round" stroke-linejoin="round"/>
<path d="M180.008 136.301C179.699 137.085 179.557 137.819 179.44 138.587L179.424 138.67C179.399 138.87 179.365 139.07 179.34 139.279C179.298 139.596 179.248 139.913 179.19 140.23C179.148 140.547 179.081 140.905 178.931 141.156C178.931 141.156 178.931 141.164 178.923 141.172C178.881 141.247 178.831 141.314 178.773 141.364C178.13 141.948 177.613 141.239 177.296 140.639C177.162 140.38 177.037 140.105 176.928 139.821C176.511 138.754 176.236 137.594 175.76 136.552C175.192 135.325 174.75 134.049 175.426 132.573C176.469 130.129 179.732 129.795 180.817 132.423C181.343 133.707 180.475 135.142 180.016 136.31L180.008 136.301Z" fill="#FF664D" stroke="#261611" stroke-width="0.583062" stroke-linecap="round" stroke-linejoin="round"/>
<path d="M175.601 143.183C175.184 143.475 174.441 143.533 173.966 143.633C173.356 143.75 172.739 143.875 172.121 144C171.746 144.075 171.379 144.15 171.003 144.225C169.184 144.584 167.456 144.884 165.754 143.942C164.735 143.383 163.584 142.449 163.333 141.248C163.025 139.805 164.251 138.87 165.37 138.228C166.613 137.494 167.489 137.302 168.808 137.886C170.26 138.528 171.879 139.054 173.365 139.721C173.765 139.905 174.149 140.097 174.525 140.305C174.734 140.422 174.917 140.555 175.092 140.697C175.151 140.705 175.209 140.73 175.251 140.789C175.309 140.864 175.376 140.939 175.435 141.022C175.485 141.072 175.526 141.131 175.568 141.189C176.069 141.848 176.453 142.599 175.601 143.191V143.183Z" fill="#FF664D" stroke="#261611" stroke-width="0.583062" stroke-linecap="round" stroke-linejoin="round"/>
<path d="M178.03 140.697C177.905 141.297 177.579 141.698 177.162 141.94C177.145 141.956 177.129 141.965 177.112 141.965C176.369 142.373 175.343 142.323 174.517 142.031C174.416 141.998 174.316 141.956 174.224 141.915C173.106 141.414 172.18 140.58 171.061 140.046C169.818 139.462 168.466 139.104 167.239 138.461C165.386 137.494 164.335 136.151 164.46 133.999C164.669 130.454 168.099 126.926 171.679 128.402C172.171 128.552 172.639 128.811 173.048 129.203C174.55 130.646 174.875 133.132 175.635 134.992C176.202 136.376 176.903 137.669 177.588 139.004C177.813 139.421 178.03 139.813 178.047 140.263C178.063 140.397 178.055 140.538 178.022 140.68L178.03 140.697Z" fill="#FF664D" stroke="#261611" stroke-width="0.583062" stroke-linecap="round" stroke-linejoin="round"/>
<path d="M185.441 161.908C185.466 162.025 184.456 163.935 184.423 163.826C183.596 160.832 178.163 144.476 177.671 144.242C177.295 144.067 175.668 143.466 175.426 143.099C174.942 142.324 175.751 141.581 176.361 141.239C177.095 140.831 178.163 140.405 178.739 141.273C178.965 141.606 178.831 142.949 178.781 143.341C178.672 144.1 183.162 150.723 185.441 161.908Z" fill="#FDE9D5" stroke="#261611" stroke-width="0.583062" stroke-linecap="round" stroke-linejoin="round"/>
<path d="M190.807 120.803C190.707 117.374 190.098 115.298 192.493 112.42C194.187 109.968 197.192 108.942 198.886 106.498C200.605 103.362 199.846 99.2247 202.466 96.3554C204.853 93.703 206.864 94.9208 209.627 94.3453C212.164 93.753 214.058 92.0015 217.263 91.893C219.099 91.7345 222.972 92.1099 223.564 94.412C224.374 97.1812 220.159 99.7668 218.724 101.535C214.885 106.415 211.914 112.47 209.185 118.075C207.207 122.112 205.996 129.827 202.233 132.655L190.799 120.803H190.807Z" fill="#DCBB93" stroke="#261611" stroke-width="0.583062" stroke-linecap="round" stroke-linejoin="round"/>
<path d="M191.375 96.3477C190.323 101.878 190.599 107.558 190.44 113.18C190.265 119.385 189.572 125.574 188.354 131.663" stroke="#261611" stroke-width="0.583062" stroke-linecap="round" stroke-linejoin="round"/>
<path d="M197.601 92.4519C197.434 92.135 197.25 91.8264 197.058 91.5094C196.866 91.1924 196.674 90.8838 196.482 90.5752C196.09 89.9497 195.698 89.3074 195.397 88.6318C195.189 88.1564 195.005 87.6476 194.905 87.1388C194.805 86.63 194.771 86.1045 194.821 85.5957C194.346 86.0628 193.712 86.4131 193.061 86.6717C192.56 86.8802 192.034 87.0387 191.5 87.1972C191.233 87.2806 190.966 87.364 190.699 87.4474C190.432 87.5391 190.173 87.6309 189.914 87.7393C188.554 88.2898 187.294 89.1823 186.284 90.35C185.508 91.2425 184.848 92.3685 184.848 93.578C184.848 93.7448 184.865 93.9116 184.89 94.0784C184.94 94.4037 185.032 94.7123 185.149 95.0126C185.758 97.2313 186.175 99.4583 186.626 101.66C187.077 103.862 187.577 106.039 188.304 108.091C188.445 108.483 188.587 108.875 188.779 109.242C188.971 109.609 189.205 109.951 189.489 110.251C189.647 110.418 189.839 110.568 190.064 110.627C190.632 110.769 191.166 110.293 191.517 109.851C191.767 109.534 191.992 109.209 192.201 108.875C192.418 108.542 192.61 108.2 192.777 107.849C192.86 107.674 192.944 107.499 193.019 107.324C193.102 107.149 193.177 106.973 193.253 106.79C193.403 106.44 193.528 106.081 193.661 105.722C193.903 105.08 194.087 104.438 194.304 103.796C194.429 103.412 194.538 103.02 194.68 102.636C194.813 102.252 194.947 101.869 195.089 101.493C195.648 100.084 196.365 98.7493 197.208 97.5315C197.626 97.1729 197.959 96.7725 198.151 96.2971C198.661 95.121 198.227 93.7197 197.576 92.4603L197.601 92.4519Z" fill="#FF664D" stroke="#261611" stroke-width="0.583062" stroke-linecap="round" stroke-linejoin="round"/>
<path d="M193.97 99.1831C192.769 99.5835 191.525 99.9338 190.407 100.526C189.747 99.9922 189.063 99.4417 188.412 98.8662C187.77 98.2907 187.127 97.6901 186.526 97.0395C185.992 96.4473 185.466 95.7717 185.132 95.0127C185.742 97.2314 186.159 99.4584 186.61 101.66C187.06 103.862 187.561 106.039 188.287 108.091C188.429 108.483 188.571 108.875 188.763 109.242C188.955 109.609 189.188 109.951 189.472 110.252C189.631 110.418 189.823 110.577 190.048 110.627C190.615 110.769 191.15 110.293 191.5 109.851C191.75 109.534 191.976 109.209 192.184 108.875C192.401 108.542 192.593 108.2 192.76 107.849C192.844 107.674 192.927 107.499 193.002 107.324C193.086 107.149 193.161 106.974 193.236 106.79C193.386 106.431 193.511 106.081 193.645 105.722C193.887 105.08 194.071 104.438 194.288 103.796C194.413 103.404 194.521 103.02 194.663 102.636C194.797 102.253 194.93 101.869 195.072 101.494C195.631 100.084 196.349 98.7494 197.192 97.5233C196.775 97.8903 196.257 98.1989 195.698 98.4742C195.139 98.7494 194.546 98.983 193.954 99.1748L193.97 99.1831Z" fill="#F94A38" stroke="#261611" stroke-width="0.583062" stroke-linecap="round" stroke-linejoin="round"/>
<path d="M189.898 87.7314C189.722 87.7981 189.555 87.8815 189.38 87.9566C189.714 87.8148 190.039 87.6813 190.365 87.5479C190.206 87.6062 190.048 87.6646 189.889 87.7314H189.898Z" fill="#85E0D1" stroke="#261611" stroke-width="0.583062" stroke-linecap="round" stroke-linejoin="round"/>
<path d="M188.971 100.376C188.971 96.6389 191.083 92.0431 192.168 91.9847C193.253 91.9263 191.642 100.025 191.834 100.993" fill="#E1C092"/>
<path d="M188.971 100.376C188.971 96.6389 191.083 92.0431 192.168 91.9847C193.253 91.9263 191.642 100.025 191.834 100.993" stroke="#261611" stroke-width="0.583062" stroke-linecap="round" stroke-linejoin="round"/>
<path d="M198.727 95.104C198.552 94.5535 198.327 94.0114 198.035 93.4775C198.218 93.9613 198.335 94.4451 198.36 94.9205C198.402 95.396 198.335 95.8547 198.151 96.2884C198.001 96.6554 197.776 96.9807 197.492 97.2643C197.2 97.5562 196.883 97.8148 196.499 98.0484C195.74 98.5154 194.855 98.8824 193.97 99.1744C193.52 99.3245 193.069 99.4663 192.618 99.6164C192.168 99.7666 191.725 99.9251 191.291 100.109C190.423 100.467 189.589 100.918 188.929 101.585L189.522 101.935C190.574 101.443 191.767 101.36 192.919 101.21C193.895 101.084 194.855 100.909 195.798 100.692C196.532 100.526 197.275 100.325 197.834 99.9084C198.327 99.5414 198.61 99.0326 198.802 98.5154C198.894 98.2485 198.953 97.9733 198.994 97.6897C199.036 97.4144 199.053 97.1309 199.044 96.8389C199.044 96.6971 199.028 96.547 199.011 96.4052C198.994 96.2634 198.978 96.1133 198.953 95.9715C198.903 95.6795 198.827 95.3876 198.736 95.104H198.727Z" fill="#85E0D1" stroke="#261611" stroke-width="0.583062" stroke-linecap="round" stroke-linejoin="round"/>
<path d="M198.727 95.104C198.552 94.5535 198.327 94.0114 198.035 93.4775C198.218 93.9613 198.335 94.4451 198.36 94.9205C198.402 95.396 198.335 95.8547 198.151 96.2884C198.001 96.6554 197.776 96.9807 197.492 97.2643C197.2 97.5562 196.883 97.8148 196.499 98.0484C195.74 98.5154 194.855 98.8824 193.97 99.1744C193.52 99.3245 193.069 99.4663 192.618 99.6164C192.168 99.7666 191.725 99.9251 191.291 100.109C190.423 100.467 189.589 100.918 188.929 101.585L189.522 101.935C190.574 101.443 191.767 101.36 192.919 101.21C193.895 101.084 194.855 100.909 195.798 100.692C196.532 100.526 197.275 100.325 197.834 99.9084C198.327 99.5414 198.61 99.0326 198.802 98.5154C198.894 98.2485 198.953 97.9733 198.994 97.6897C199.036 97.4144 199.053 97.1309 199.044 96.8389C199.044 96.6971 199.028 96.547 199.011 96.4052C198.994 96.2634 198.978 96.1133 198.953 95.9715C198.903 95.6795 198.827 95.3876 198.736 95.104H198.727Z" fill="#FF664D" stroke="#261611" stroke-width="0.583062" stroke-linecap="round" stroke-linejoin="round"/>
<path d="M191.909 101.727C190.09 100.259 188.187 98.8247 186.526 97.0314C185.666 96.0889 184.832 94.9378 184.832 93.5699C184.832 92.3605 185.483 91.2345 186.267 90.342C186.701 89.8332 187.202 89.3828 187.719 88.9824C188.237 88.5821 188.796 88.2401 189.38 87.9648C188.838 88.1984 188.279 88.4486 187.761 88.7405C187.06 89.1326 186.342 89.583 185.725 90.1335C185.408 90.4087 185.107 90.7007 184.824 91.0176C184.54 91.3346 184.289 91.6765 184.056 92.0352C183.58 92.7609 183.255 93.595 183.071 94.4541C182.987 94.8878 182.954 95.3215 182.954 95.7553C182.954 96.189 183.013 96.6144 183.129 97.0314C183.255 97.4818 183.43 97.8989 183.655 98.2825C183.88 98.6662 184.156 99.0249 184.465 99.3418C185.074 99.9841 185.8 100.501 186.576 100.902C188.12 101.702 189.789 102.153 191.375 102.803C191.851 102.995 192.326 103.212 192.777 103.437C193.194 103.637 193.587 103.145 193.236 102.853C192.802 102.478 192.36 102.111 191.909 101.744V101.727Z" fill="#FF664D" stroke="#261611" stroke-width="0.583062" stroke-linecap="round" stroke-linejoin="round"/>
<path d="M191.233 170.065C196.174 160.356 207.949 157.053 213.791 147.645C216.971 142.148 220.426 135.325 221.595 128.686C222.162 125.766 221.394 121.988 222.179 119.344C222.972 116.433 226.719 114.164 224.524 111.679C222.104 109.176 216.487 112.713 214.159 113.964C215.611 105.732 203.71 106.349 200.422 108.634C197.834 110.678 195.873 114.081 193.303 115.591C190.507 117.092 188.037 115.924 185.416 118.768C180.175 124.457 184.306 129.962 184.523 136.384C184.623 139.863 182.937 141.939 182.595 145.134C182.228 148.862 184.214 150.547 185.024 153.517C185.766 158.087 184.565 159.647 187.377 163.768C188.888 166.228 190.165 168.689 189.614 171.074L191.25 170.065H191.233Z" fill="#FDD7AC" stroke="#261611" stroke-width="0.583062" stroke-linecap="round" stroke-linejoin="round"/>
<path d="M222.396 168.238C224.991 166.052 222.095 164.117 219.358 164.009C212.039 164.192 202.274 168.621 197.058 173.676C201.815 174.769 209.126 174.819 213.558 172.466L222.404 168.229L222.396 168.238Z" fill="#FDD7AC" stroke="#261611" stroke-width="0.583062" stroke-linecap="round" stroke-linejoin="round"/>
<path d="M188.279 182.025C180.926 183.117 174.024 178.288 173.164 170.723C172.463 165.218 178.381 159.729 183.638 159.696C189.814 159.471 192.769 165.977 197.467 168.671C200.822 170.623 206.013 172.416 209.677 172.099C214.492 171.599 218.765 168.571 223.147 167.37C217.714 178.13 198.527 176.703 189.213 181.374L188.279 182.025Z" fill="#FDE9D5" stroke="#261611" stroke-width="0.583062" stroke-linecap="round" stroke-linejoin="round"/>
</g>
<defs>
<clipPath id="clip0_230_4745">
<rect width="573.733" height="358" fill="white" transform="translate(0.26709)"/>
</clipPath>
</defs>
</svg>
