<svg width="487" height="367" viewBox="0 0 487 367" fill="none" xmlns="http://www.w3.org/2000/svg">
<g clip-path="url(#clip0_1466_7380)">
<path d="M137.653 353.579L87.6995 348.351C87.6995 348.351 87.6606 348.352 87.6451 348.344L51.179 341.608C51.1013 341.592 51.0235 341.592 50.9458 341.608L6.30963 348.313C5.98314 348.359 5.66442 348.182 5.55559 347.874C4.36622 344.725 -1.59615 327.981 1.18681 316.587C4.0475 304.847 14.8995 289.272 16.3998 287.163C16.5086 287.009 16.6796 286.909 16.8662 286.878L47.5643 282.328C47.7741 282.297 47.9529 282.174 48.0618 281.997L64.8995 253.936C64.9461 253.859 65.0083 253.789 65.086 253.728L111.51 220.116C111.51 220.116 111.541 220.093 111.549 220.085L135.702 199.553C135.702 199.553 135.725 199.537 135.733 199.522L141.509 193.987C142.962 192.593 145.411 193.14 146.079 195.034C147.028 197.69 147.836 201.416 146.927 205.08C145.341 211.478 141.019 218.322 140.498 219.13C140.467 219.184 140.42 219.23 140.374 219.269L129.086 229.269C129.047 229.308 129.009 229.346 128.977 229.393L107.95 259.987C107.88 260.095 107.833 260.218 107.833 260.349L107.685 263.828C107.67 264.098 107.825 264.352 108.074 264.475L130.338 275.43C130.447 275.484 130.579 275.507 130.703 275.5L191.283 270.904C191.384 270.896 191.493 270.865 191.578 270.811L220.489 254.19C220.535 254.159 220.59 254.144 220.636 254.128C221.616 253.836 231.379 250.995 236.681 251.588C240.327 251.996 242.993 254.405 244.408 256.037C245.084 256.815 244.944 258.001 244.097 258.593L201.995 288.364C201.917 288.418 201.84 288.456 201.746 288.472L172.626 295.216C171.849 295.393 170.185 299.573 170.986 299.627L208.867 299.057C208.999 299.065 209.131 299.042 209.24 298.98C211.759 297.641 240.731 282.29 248.987 281.851C254.879 281.535 260.235 284.099 263.041 285.754C264.091 286.378 264.207 287.833 263.259 288.603L250.316 299.119" fill="#FFDCB1"/>
<path d="M137.653 353.579L87.6995 348.351C87.6995 348.351 87.6606 348.352 87.6451 348.344L51.179 341.608C51.1013 341.592 51.0235 341.592 50.9458 341.608L6.30963 348.313C5.98314 348.359 5.66442 348.182 5.55559 347.874C4.36622 344.725 -1.59615 327.981 1.18681 316.587C4.0475 304.847 14.8995 289.272 16.3998 287.163C16.5086 287.009 16.6796 286.909 16.8662 286.878L47.5643 282.328C47.7741 282.297 47.9529 282.174 48.0618 281.997L64.8994 253.936C64.9461 253.859 65.0083 253.789 65.086 253.728L111.51 220.116C111.51 220.116 111.541 220.093 111.549 220.085L135.702 199.553C135.702 199.553 135.725 199.537 135.733 199.522L141.509 193.987C142.962 192.593 145.411 193.14 146.079 195.034C147.028 197.69 147.836 201.416 146.927 205.08C145.341 211.478 141.019 218.322 140.498 219.13C140.467 219.184 140.42 219.23 140.374 219.269L129.086 229.269C129.047 229.308 129.009 229.346 128.977 229.393L107.95 259.987C107.88 260.095 107.833 260.218 107.833 260.349L107.685 263.828C107.67 264.098 107.825 264.352 108.074 264.475L130.338 275.43C130.447 275.484 130.579 275.507 130.703 275.5L191.283 270.904C191.384 270.896 191.493 270.865 191.578 270.811L220.489 254.19C220.535 254.159 220.59 254.144 220.636 254.128C221.616 253.836 231.379 250.995 236.681 251.588C240.327 251.996 242.993 254.405 244.408 256.037C245.084 256.815 244.944 258.001 244.097 258.593L201.995 288.364C201.917 288.418 201.84 288.456 201.746 288.472L172.626 295.216C171.849 295.393 170.185 299.573 170.986 299.627L208.867 299.057C208.999 299.065 209.131 299.042 209.24 298.98C211.759 297.641 240.731 282.29 248.987 281.851C254.879 281.535 260.235 284.099 263.041 285.754C264.091 286.378 264.207 287.833 263.259 288.603L250.316 299.119" stroke="#101010" stroke-width="0.540844" stroke-miterlimit="10"/>
<path d="M143.864 335.781C143.864 335.781 145.247 333.271 147.424 331.985C149.266 330.892 151.194 330.692 151.194 330.692C151.723 330.322 153.853 331.593 153.169 332.324" fill="#FFDCB1"/>
<path d="M143.864 335.781C143.864 335.781 145.247 333.271 147.424 331.985C149.266 330.892 151.194 330.692 151.194 330.692C151.723 330.322 153.853 331.593 153.169 332.324" stroke="#101010" stroke-width="0.540844" stroke-miterlimit="10"/>
<path d="M159.279 316.341L192.682 316.764" stroke="#101010" stroke-width="0.540844" stroke-miterlimit="10" stroke-linecap="round"/>
<path d="M169.105 295.233C169.105 295.233 167.278 291.637 169.758 289.574L169.105 295.233Z" fill="#FFDCB1"/>
<path d="M169.105 295.233C169.105 295.233 167.278 291.637 169.758 289.574" stroke="#101010" stroke-width="0.540844" stroke-miterlimit="10"/>
<path d="M202.143 268.503C202.143 268.503 200.036 271.151 200.409 273.853L202.143 268.503Z" fill="#FFDCB1"/>
<path d="M202.143 268.503C202.143 268.503 200.036 271.151 200.409 273.853" stroke="#101010" stroke-width="0.540844" stroke-miterlimit="10"/>
<path d="M163.881 310.06C163.881 310.06 163.702 313.208 159.683 314.479L163.881 310.06Z" fill="#FFDCB1"/>
<path d="M163.881 310.06C163.881 310.06 163.702 313.208 159.683 314.479" stroke="#101010" stroke-width="0.540844" stroke-miterlimit="10"/>
<path d="M155.75 323.47C155.75 323.47 152.601 325.541 152.982 328.335L155.75 323.47Z" fill="#FFDCB1"/>
<path d="M155.75 323.47C155.75 323.47 152.601 325.541 152.982 328.335" stroke="#101010" stroke-width="0.540844" stroke-miterlimit="10"/>
<path d="M228.192 281.682C228.192 281.682 226.108 284.522 227.243 286.955L228.192 281.682Z" fill="#FFDCB1"/>
<path d="M228.192 281.682C228.192 281.682 226.108 284.522 227.243 286.955" stroke="#101010" stroke-width="0.540844" stroke-miterlimit="10"/>
<path d="M14.7438 331.678C14.7438 331.678 13.8421 336.459 17.4335 338.845L14.7438 331.678Z" fill="#FFDCB1"/>
<path d="M14.7438 331.678C14.7438 331.678 13.8421 336.459 17.4335 338.845" stroke="#101010" stroke-width="0.540844" stroke-miterlimit="10"/>
<path d="M10.8336 330.107C10.8336 330.107 10.2972 338.568 13.5621 341.571L10.8336 330.107Z" fill="#FFDCB1"/>
<path d="M10.8336 330.107C10.8336 330.107 10.2972 338.568 13.5621 341.571" stroke="#101010" stroke-width="0.540844" stroke-miterlimit="10"/>
<path d="M41.0032 286.471C41.0032 286.471 32.6543 291.79 25.3782 292.114L41.0032 286.471Z" fill="#FFDCB1"/>
<path d="M41.0032 286.471C41.0032 286.471 32.6543 291.79 25.3782 292.114" stroke="#101010" stroke-width="0.540844" stroke-miterlimit="10"/>
<path d="M212.707 250.265C212.707 250.265 208.89 253.575 211.059 257.463L212.707 250.265Z" fill="#FFDCB1"/>
<path d="M212.707 250.265C212.707 250.265 208.89 253.575 211.059 257.463" stroke="#101010" stroke-width="0.540844" stroke-miterlimit="10"/>
<path d="M210.546 313.779L221.981 307.766C221.981 307.766 229.187 300.33 234.497 298.713C242.884 296.165 247.447 299.752 251.179 300.73C251.964 300.938 252.236 301.9 251.669 302.478L243.421 310.931L220.209 327.483L192.604 337.629" fill="#FFDCB1"/>
<path d="M210.546 313.779L221.981 307.766C221.981 307.766 229.187 300.33 234.497 298.713C242.884 296.165 247.447 299.752 251.179 300.73C251.964 300.938 252.236 301.9 251.669 302.478L243.421 310.931L220.209 327.483L192.604 337.629" stroke="#101010" stroke-width="0.540844" stroke-miterlimit="10" stroke-linecap="round"/>
<path d="M153.052 332.277L178.278 328.304C178.386 328.289 178.487 328.243 178.581 328.181L193.257 317.734C196.102 315.709 199.399 314.408 202.866 313.946C207.024 313.269 210.787 316.171 212.722 318.034C213.484 318.773 213.407 320.005 212.567 320.659L178.845 346.527C178.752 346.596 178.651 346.642 178.534 346.658L137.847 353.571C137.785 353.579 137.723 353.586 137.653 353.571" fill="#FFDCB1"/>
<path d="M153.052 332.277L178.278 328.304C178.386 328.289 178.487 328.243 178.581 328.181L193.257 317.734C196.102 315.709 199.399 314.408 202.866 313.946C207.024 313.269 210.787 316.171 212.722 318.034C213.484 318.773 213.407 320.005 212.567 320.659L178.845 346.527C178.752 346.596 178.651 346.642 178.534 346.658L137.847 353.571C137.785 353.579 137.723 353.586 137.653 353.571" stroke="#101010" stroke-width="0.540844" stroke-miterlimit="10"/>
<path opacity="0.6" d="M204.731 285.786L201.637 287.972L200.308 288.265L199.678 288.326C198.722 288.765 198.193 288.719 197.649 288.827C195.605 289.227 194.648 289.296 192.161 289.804C183.649 291.567 172.851 294.431 171.817 294.331C169.781 294.131 175.277 290.282 177.166 289.497C179.622 288.488 185.157 287.51 189.984 286.794C194.12 286.178 196.359 281.667 194.322 278.056L190.622 271.489L191.609 271.412L194.804 269.588C194.804 269.588 196.258 271.897 198.395 275.447C200.681 279.242 203.394 283.638 203.394 283.638L204.723 285.778L204.731 285.786Z" fill="#EBC28E"/>
<path opacity="0.53" d="M158.82 325.48C156.838 325.973 150.829 331.023 152.78 331.631C154.374 332.132 165.334 329.152 174.01 328.529C176.731 328.329 177.702 328.036 178.962 327.212C180.967 325.904 181.403 325.711 181.068 324.926C180.656 323.948 163.889 324.225 158.82 325.48Z" fill="#EBC28E"/>
<path opacity="0.53" d="M107.413 264.584C106.193 263.668 108.649 259.465 106.714 260.134C105.75 260.473 97.6262 268.256 103.83 274.284C105.167 275.586 108.416 276.402 109.924 276.44C112.583 276.517 130.897 277.171 130.571 276.379C130.159 275.401 111.168 267.402 107.413 264.577V264.584Z" fill="#EBC28E"/>
<path opacity="0.32" d="M97.9061 301.529C91.6717 298.519 95.5196 286.109 93.4985 289.165C92.9388 290.012 68.0476 300.651 74.251 306.687C75.588 307.988 96.4835 313.277 101.047 314.139C107.048 315.279 130.68 321.276 130.835 320.429C132.164 313.015 102.329 303.661 97.9061 301.521V301.529Z" fill="#EBC28E"/>
<path d="M158.89 179.791C157.88 181.808 157.079 183.879 156.473 185.973C152.695 199.107 156.753 213.211 166.672 222.411C169.237 224.79 172.199 226.845 175.51 228.462C182.437 231.857 189.946 232.989 197.051 231.965L222.813 228.092L309.364 215.074L351.303 208.769L380.664 204.358L384.8 203.734L386.424 203.488C386.611 203.457 386.805 203.418 387 203.38C388.158 203.164 389.308 202.887 390.451 202.541C399.927 199.792 408.253 193.272 412.979 183.81C417.511 174.741 417.861 164.702 414.775 155.841C411.735 147.134 405.361 139.551 396.367 135.139C388.858 131.459 380.687 130.566 373.054 132.052L184.45 160.245L184.466 160.306C173.754 162.469 164.13 169.337 158.906 179.791H158.89Z" fill="#FFDCB1" stroke="#101010" stroke-width="0.540844" stroke-miterlimit="10"/>
<path d="M193.42 165.072L372.509 138.188L380.501 136.987C380.656 136.987 380.804 136.987 380.959 136.987C385.546 136.972 390.194 137.981 394.579 140.129C409.698 147.535 415.902 165.68 408.416 180.654C406.379 184.734 403.526 188.16 400.168 190.839C396.802 193.503 392.907 195.428 388.787 196.505L385.841 196.96L375.797 198.499L324.577 206.337L309.862 208.592L219.719 222.388L198.24 225.675L195.807 226.045H195.745C195.03 226.13 194.307 226.184 193.584 226.207C188.663 226.391 183.633 225.398 178.915 223.081C174.196 220.764 170.721 217.73 167.923 213.997C161.323 205.174 159.823 193.08 165.078 182.556C169.322 174.056 177.018 168.228 185.686 166.288" fill="#FDF1DF"/>
<path d="M193.42 165.072L372.509 138.188L380.501 136.987C380.656 136.987 380.804 136.987 380.959 136.987C385.546 136.972 390.194 137.981 394.579 140.129C409.698 147.535 415.902 165.68 408.416 180.654C406.379 184.734 403.526 188.16 400.168 190.839C396.802 193.503 392.907 195.428 388.787 196.505L385.841 196.96L375.797 198.499L324.577 206.337L309.862 208.592L219.719 222.388L198.24 225.675L195.807 226.045H195.745C195.03 226.13 194.307 226.184 193.584 226.207C188.663 226.391 183.633 225.398 178.915 223.081C174.196 220.764 170.721 217.73 167.923 213.997C161.323 205.174 159.823 193.08 165.078 182.556C169.322 174.056 177.018 168.228 185.686 166.288" stroke="#101010" stroke-width="0.540844" stroke-miterlimit="10" stroke-linecap="round"/>
<path d="M386.424 203.488L387 203.395V203.372C386.805 203.418 386.611 203.449 386.424 203.48V203.488Z" stroke="#101010" stroke-width="0.540844" stroke-miterlimit="10"/>
<path d="M156.48 185.973C157.087 183.879 157.887 181.808 158.898 179.791C164.122 169.336 173.745 162.462 184.457 160.306L184.442 160.244L373.046 132.052C380.679 130.566 388.849 131.459 396.359 135.139C405.361 139.551 411.727 147.134 414.767 155.841C419.532 139.304 411.859 121.243 395.737 113.344C388.227 109.665 380.057 108.771 372.424 110.257L242.736 129.642L229.84 131.567L211.564 134.3L183.812 138.45L183.828 138.511C173.116 140.675 163.492 147.542 158.268 157.996C153.736 167.065 153.386 177.104 156.472 185.965L156.48 185.973Z" fill="#EBC28E" stroke="#101010" stroke-width="0.540844" stroke-miterlimit="10"/>
<path d="M166.92 161.752C173.201 151.806 184.885 148.372 194.726 146.386L194.711 146.324L368.062 120.411C375.082 119.04 382.584 119.864 389.487 123.244" stroke="#101010" stroke-width="0.540844" stroke-miterlimit="10" stroke-linecap="round"/>
<path d="M372.719 119.281L360.297 40.7248C360.219 40.2167 359.737 39.8702 359.224 39.9472L343.754 42.3338C343.241 42.4108 342.892 42.8881 342.969 43.3962L355.322 121.868" fill="#FDF1DF"/>
<path d="M372.719 119.281L360.297 40.7248C360.219 40.2167 359.737 39.8702 359.224 39.9472L343.754 42.3338C343.241 42.4108 342.892 42.8881 342.969 43.3962L355.322 121.868" stroke="#101010" stroke-width="0.540844" stroke-miterlimit="10"/>
<path d="M349.01 122.715L332.118 15.4113C332.04 14.9032 331.558 14.5568 331.045 14.6338L314.892 17.1281C314.379 17.2051 314.029 17.6824 314.107 18.1905L330.999 125.494" fill="#FFF8F3"/>
<path d="M349.01 122.715L332.118 15.4113C332.04 14.9032 331.558 14.5568 331.045 14.6338L314.892 17.1281C314.379 17.2051 314.029 17.6824 314.107 18.1905L330.999 125.494" stroke="#101010" stroke-width="0.540844" stroke-miterlimit="10"/>
<path d="M324.974 126.432L316.493 72.5646C316.416 72.0565 315.934 71.7101 315.421 71.7871L299.042 74.3122C298.528 74.3892 298.179 74.8665 298.256 75.3746L306.737 129.242" fill="#FFE4DF"/>
<path d="M324.974 126.432L316.493 72.5646C316.416 72.0565 315.934 71.7101 315.421 71.7871L299.042 74.3122C298.528 74.3892 298.179 74.8665 298.256 75.3746L306.737 129.242" stroke="#101010" stroke-width="0.540844" stroke-miterlimit="10"/>
<path d="M393 36.7432C403.197 36.7432 411.463 28.5571 411.463 18.459C411.463 8.36092 403.197 0.174805 393 0.174805C382.804 0.174805 374.538 8.36092 374.538 18.459C374.538 28.5571 382.804 36.7432 393 36.7432Z" fill="#FFE4DF"/>
<path d="M276.739 88.886C286.287 88.886 294.027 81.2203 294.027 71.7643C294.027 62.3082 286.287 54.6426 276.739 54.6426C267.191 54.6426 259.45 62.3082 259.45 71.7643C259.45 81.2203 267.191 88.886 276.739 88.886Z" fill="#DFFCF8"/>
<path opacity="0.85" d="M270.309 274.122C277.251 274.122 282.879 268.548 282.879 261.673C282.879 254.798 277.251 249.225 270.309 249.225C263.367 249.225 257.739 254.798 257.739 261.673C257.739 268.548 263.367 274.122 270.309 274.122Z" fill="#DFFCF8"/>
<path opacity="0.6" d="M343.063 343.887C353.423 343.887 361.821 335.57 361.821 325.31C361.821 315.05 353.423 306.733 343.063 306.733C332.703 306.733 324.305 315.05 324.305 325.31C324.305 335.57 332.703 343.887 343.063 343.887Z" fill="#FF664D"/>
<path opacity="0.6" d="M327.912 115.824C335.722 115.824 342.052 109.554 342.052 101.82C342.052 94.0861 335.722 87.8164 327.912 87.8164C320.103 87.8164 313.772 94.0861 313.772 101.82C313.772 109.554 320.103 115.824 327.912 115.824Z" fill="#FF664D"/>
<path d="M207.148 106.778L213.087 143.731L231.34 140.852L225.401 103.899C224.794 100.127 221.949 97.2704 218.42 96.4312C217.277 96.1618 216.057 96.1002 214.821 96.2927C213.484 96.5005 212.255 96.9932 211.19 97.6861C210.25 98.2943 209.441 99.0719 208.788 99.9572C207.397 101.859 206.736 104.268 207.14 106.77L207.148 106.778Z" fill="#FFF8F3" stroke="#101010" stroke-width="0.540844" stroke-miterlimit="10"/>
<path d="M209.077 84.5359L211.192 97.7005C212.249 97.0076 213.485 96.5149 214.822 96.307C216.058 96.1146 217.278 96.1685 218.421 96.4456L216.322 83.3965L209.077 84.5359Z" fill="#D6D6D6" stroke="#101010" stroke-width="0.540844" stroke-miterlimit="10"/>
<path d="M166.01 50.292C169.547 72.3178 190.443 87.33 212.683 83.8272C234.923 80.3166 250.082 59.6228 246.545 37.6047C243.008 15.5713 222.112 0.559034 199.864 4.0619C177.624 7.56477 162.465 28.2586 166.002 50.292H166.01ZM201.217 11.3063C219.306 8.45781 236.307 20.6678 239.176 38.5825C242.052 56.4971 229.723 73.334 211.634 76.1825C193.552 79.0309 176.551 66.8133 173.675 48.9063C170.799 30.9916 183.128 14.1548 201.217 11.3063Z" fill="#FFDCB1" stroke="#101010" stroke-width="0.540844" stroke-miterlimit="10"/>
<path d="M173.676 48.9079C176.56 66.8226 193.553 79.0326 211.634 76.1841C229.724 73.3356 242.06 56.4987 239.176 38.5841C236.3 20.6694 219.307 8.45943 201.218 11.3079C183.128 14.1564 170.799 30.9933 173.676 48.9079Z" stroke="#101010" stroke-width="0.540844" stroke-miterlimit="10"/>
<path d="M173.676 48.9079C176.56 66.8226 193.553 79.0326 211.634 76.1841C229.724 73.3356 242.06 56.4987 239.176 38.5841C236.3 20.6694 219.307 8.45943 201.218 11.3079C183.128 14.1564 170.799 30.9933 173.676 48.9079Z" fill="#B7F7EE" stroke="#101010" stroke-width="0.540844" stroke-miterlimit="10"/>
<path d="M285.857 338.998L218.599 228.738L197.043 231.964C189.938 232.988 182.428 231.856 175.502 228.461C172.191 226.837 169.229 224.781 166.664 222.41L248.769 357.013L251.108 360.854L251.59 361.639L251.746 361.894" fill="white"/>
<path d="M285.857 338.998L218.599 228.738L197.043 231.964C189.938 232.988 182.428 231.856 175.502 228.461C172.191 226.837 169.229 224.781 166.664 222.41L248.769 357.013L251.108 360.854L251.59 361.639L251.746 361.894" stroke="#261611" stroke-width="0.540844" stroke-linecap="round" stroke-linejoin="round"/>
<path d="M309.356 215.075L308.112 238.525C307.871 243.198 311.494 247.186 316.213 247.432L340.606 248.702C345.325 248.941 349.352 245.353 349.593 240.68L351.287 208.77L309.348 215.075H309.356ZM319.788 222.265C319.858 220.995 320.954 220.017 322.237 220.079L337.738 220.879C339.02 220.949 340.008 222.034 339.945 223.305L339.347 234.698L319.182 233.651L319.788 222.258V222.265Z" fill="#FF664D" stroke="#101010" stroke-width="0.540844" stroke-miterlimit="10"/>
<path d="M319.136 283.7L323.1 289.874C323.217 290.059 323.419 290.174 323.644 290.19L326.902 290.359C327.15 290.375 327.391 290.251 327.523 290.036L333.548 280.351C333.68 280.135 333.68 279.866 333.548 279.65L331.34 275.963C331.169 275.686 331.239 275.324 331.496 275.124L333.906 273.191C334.053 273.076 334.139 272.899 334.147 272.714L334.232 271.036C334.248 270.812 334.139 270.597 333.952 270.466L331.138 268.511C330.952 268.38 330.843 268.164 330.858 267.941L330.959 265.993C330.983 265.608 331.177 265.262 331.488 265.038L334.17 263.152C334.481 262.929 334.683 262.583 334.698 262.198L335.421 248.525L320.908 247.771L319.027 283.3C319.027 283.438 319.058 283.577 319.136 283.7Z" fill="#EDEDED" stroke="#101010" stroke-width="0.540844" stroke-miterlimit="10"/>
<path d="M339.347 234.705L338.935 242.573" stroke="#101010" stroke-width="0.540844" stroke-miterlimit="10" stroke-linecap="round"/>
<path d="M332.732 234.358L332.445 239.747" stroke="#101010" stroke-width="0.540844" stroke-miterlimit="10" stroke-linecap="round"/>
<path d="M319.19 233.657L318.778 241.525" stroke="#101010" stroke-width="0.540844" stroke-miterlimit="10" stroke-linecap="round"/>
<path d="M328.643 253.904L327.275 279.772C327.275 279.879 327.182 279.956 327.073 279.956C327.073 279.956 325.751 280.01 325.316 279.987C324.803 279.964 323.287 279.764 323.287 279.764C323.101 279.756 323.031 279.518 323.186 279.417C323.878 278.956 325.067 277.901 325.736 275.868C326.731 272.858 328.635 253.912 328.635 253.912L328.643 253.904Z" fill="#101010"/>
<path d="M438.818 285.045L438.725 285.13L458.734 307.025L458.82 306.948C464.611 313.291 474.515 313.776 480.913 308.033C487.318 302.298 487.816 292.49 482.009 286.154L462.326 264.613C462.217 264.49 462.108 264.367 461.992 264.259C457.219 259.34 449.888 258.208 443.941 261.056L451.528 269.356C455.058 268.339 459.006 269.248 461.712 272.042C461.789 272.112 461.859 272.196 461.929 272.266L474.74 286.285C478.511 290.411 478.192 296.786 474.025 300.519C469.858 304.253 463.422 303.938 459.652 299.811L459.597 299.857L446.576 285.607L446.639 285.553C444.019 282.505 443.545 278.324 445.123 274.86L437.59 266.615C433.929 272.227 434.279 279.733 438.826 285.03L438.818 285.045Z" fill="#FDF3EE" stroke="#261611" stroke-width="0.540844" stroke-linecap="round" stroke-linejoin="round"/>
<path d="M446.631 285.57L446.569 285.623L459.59 299.874L459.644 299.827C463.414 303.954 469.851 304.269 474.018 300.536C478.184 296.802 478.503 290.427 474.733 286.301L461.922 272.282C461.852 272.212 461.782 272.128 461.704 272.058C458.999 269.272 455.05 268.355 451.521 269.372L453.114 271.119C453.892 271.966 454.257 273.067 454.195 274.145C454.14 275.223 453.674 276.277 452.811 277.047C451.085 278.595 448.388 278.464 446.825 276.755L445.115 274.884C443.537 278.341 444.011 282.529 446.631 285.577V285.57Z" stroke="#101010" stroke-width="0.540844" stroke-miterlimit="10"/>
<path d="M446.631 285.57L446.569 285.623L459.59 299.874L459.644 299.827C463.414 303.954 469.851 304.269 474.018 300.536C478.184 296.802 478.503 290.427 474.733 286.301L461.922 272.282C461.852 272.212 461.782 272.128 461.704 272.058C458.999 269.272 455.05 268.355 451.521 269.372L453.114 271.119C453.892 271.966 454.257 273.067 454.195 274.145C454.14 275.223 453.674 276.277 452.811 277.047C451.085 278.595 448.388 278.464 446.825 276.755L445.115 274.884C443.537 278.341 444.011 282.529 446.631 285.577V285.57Z" stroke="#101010" stroke-width="0.540844" stroke-miterlimit="10"/>
<path d="M395.636 208.222L403.231 216.529C406.752 215.505 410.709 216.421 413.406 219.208C413.484 219.278 413.562 219.362 413.632 219.439L426.435 233.451C429.14 236.407 429.731 240.526 428.324 243.99L435.452 251.789C438.997 246.084 438.476 238.524 433.711 233.312L414.028 211.779C413.919 211.656 413.811 211.533 413.694 211.425C408.913 206.506 401.583 205.374 395.636 208.222Z" fill="#FDF3EE" stroke="#261611" stroke-width="0.540844" stroke-linecap="round" stroke-linejoin="round"/>
<path d="M390.52 232.196L390.427 232.288L410.436 254.183L410.522 254.106C415.373 259.41 423.092 260.619 429.241 257.501L422.159 249.764C418.443 251.011 414.16 250.049 411.354 246.985L411.299 247.039L398.278 232.788L398.341 232.734C395.713 229.686 395.239 225.498 396.825 222.049L389.284 213.796C385.631 219.408 385.973 226.914 390.52 232.203V232.196Z" fill="#FDF3EE" stroke="#261611" stroke-width="0.540844" stroke-linecap="round" stroke-linejoin="round"/>
<path d="M398.333 232.726L398.271 232.78L411.292 247.03L411.346 246.977C414.152 250.048 418.436 251.003 422.151 249.756L420.363 247.8C419.578 246.946 419.221 245.853 419.275 244.775C419.33 243.697 419.796 242.642 420.659 241.865C422.385 240.317 425.082 240.448 426.644 242.157L428.316 243.982C429.723 240.51 429.132 236.399 426.427 233.442L413.624 219.431C413.554 219.354 413.476 219.269 413.398 219.2C410.701 216.413 406.744 215.497 403.223 216.521L404.777 218.222C405.562 219.084 405.92 220.178 405.866 221.248C405.811 222.326 405.345 223.373 404.482 224.158C402.756 225.705 400.059 225.574 398.496 223.865L396.825 222.041C395.239 225.49 395.713 229.678 398.341 232.726H398.333Z" stroke="#101010" stroke-width="0.540844" stroke-miterlimit="10"/>
<path d="M398.333 232.726L398.271 232.78L411.292 247.03L411.346 246.977C414.152 250.048 418.436 251.003 422.151 249.756L420.363 247.8C419.578 246.946 419.221 245.853 419.275 244.775C419.33 243.697 419.796 242.642 420.659 241.865C422.385 240.317 425.082 240.448 426.644 242.157L428.316 243.982C429.723 240.51 429.132 236.399 426.427 233.442L413.624 219.431C413.554 219.354 413.476 219.269 413.398 219.2C410.701 216.413 406.744 215.497 403.223 216.521L404.777 218.222C405.562 219.084 405.92 220.178 405.866 221.248C405.811 222.326 405.345 223.373 404.482 224.158C402.756 225.705 400.059 225.574 398.496 223.865L396.825 222.041C395.239 225.49 395.713 229.678 398.341 232.726H398.333Z" stroke="#101010" stroke-width="0.540844" stroke-miterlimit="10"/>
<path d="M461.999 264.261H461.992C462.109 264.377 462.218 264.5 462.327 264.623L461.999 264.261Z" stroke="#101010" stroke-width="0.540844" stroke-miterlimit="10"/>
<path d="M420.675 241.872C419.812 242.65 419.338 243.704 419.291 244.774C419.245 245.845 419.594 246.945 420.38 247.8L446.841 276.747C448.403 278.456 451.101 278.587 452.827 277.039C453.69 276.262 454.164 275.207 454.21 274.137C454.265 273.059 453.907 271.966 453.122 271.111L426.661 242.165C425.098 240.456 422.401 240.325 420.675 241.872Z" fill="#FDF3EE" stroke="#261611" stroke-width="0.540844" stroke-linecap="round" stroke-linejoin="round"/>
<path d="M384.8 203.734L380.664 204.358L389.285 213.789L396.825 222.041L398.497 223.866C400.059 225.575 402.757 225.706 404.482 224.159C405.345 223.373 405.82 222.334 405.866 221.249C405.921 220.178 405.571 219.085 404.778 218.223L403.223 216.522L395.628 208.215L390.436 202.533C389.301 202.872 388.15 203.149 386.984 203.372C386.79 203.419 386.595 203.449 386.409 203.48L384.784 203.727L384.8 203.734Z" fill="#FDF3EE" stroke="#261611" stroke-width="0.540844" stroke-linecap="round" stroke-linejoin="round"/>
<path d="M278.899 336.335C277.329 337.413 275.759 338.491 274.188 339.568C273.357 340.138 272.517 340.715 271.872 341.493C271.281 342.209 270.846 343.102 270.037 343.556C268.949 344.164 267.511 343.803 266.407 344.388C265.466 344.88 264.977 345.951 264.122 346.574C263.111 347.313 261.688 347.359 260.732 348.168C260.157 348.653 259.823 349.361 259.333 349.931C257.662 351.878 254.311 352.171 253.285 354.519" stroke="#101010" stroke-width="0.540844" stroke-miterlimit="10"/>
<path d="M261.782 307.896C260.025 308.612 258.268 309.321 256.519 310.037C256.052 310.229 255.57 310.422 255.19 310.745C254.218 311.561 254.055 312.97 253.339 314.017C251.217 317.135 245.581 315.687 243.296 318.69C242.884 319.229 242.62 319.883 242.177 320.399C241.796 320.846 241.298 321.184 240.808 321.508C239.331 322.493 237.847 323.486 236.37 324.472" stroke="#101010" stroke-width="0.540844" stroke-miterlimit="10"/>
<path d="M258.042 301.737C254.762 301.46 251.388 303.061 249.561 305.779C248.978 306.649 248.535 307.619 247.828 308.396C245.27 311.199 240.148 310.529 237.823 313.524C237.489 313.955 237.232 314.447 236.851 314.84C235.965 315.756 234.589 315.987 233.322 316.164" stroke="#101010" stroke-width="0.540844" stroke-miterlimit="10"/>
<path d="M255.54 296.094C253.495 294.855 250.72 295.332 248.8 296.748C246.88 298.165 245.675 300.351 244.851 302.584C244.571 303.331 244.315 304.131 243.724 304.678C242.511 305.81 240.575 305.386 238.935 305.686C237.132 306.01 235.647 307.249 234.263 308.443C232.864 309.644 231.472 310.845 230.073 312.038" stroke="#101010" stroke-width="0.540844" stroke-miterlimit="10"/>
<path d="M250.402 289.096C247.503 289.08 244.976 291.02 242.932 293.053C240.88 295.093 238.936 297.395 236.254 298.488C234.031 299.397 231.217 299.543 229.872 301.521C229.421 302.183 229.204 302.976 228.729 303.623C227.859 304.801 226.32 305.24 224.897 305.609" stroke="#101010" stroke-width="0.540844" stroke-miterlimit="10"/>
<path d="M226.256 250.457C223.839 252.212 222.416 255.145 219.812 256.616C217.791 257.755 215.358 257.848 213.166 258.618C210.701 259.488 208.571 261.25 207.281 263.498C206.776 264.368 206.395 265.315 205.773 266.116C204.389 267.887 202.081 268.618 199.919 269.265" stroke="#101010" stroke-width="0.540844" stroke-miterlimit="10"/>
<path d="M223.069 244.274C222.307 245.614 221.522 246.984 220.333 247.977C217.138 250.633 211.82 249.941 209.123 253.082C207.871 254.544 207.444 256.585 206.122 257.986C205.158 259.01 203.821 259.587 202.523 260.134C200.58 260.95 198.644 261.773 196.701 262.589" stroke="#101010" stroke-width="0.540844" stroke-miterlimit="10"/>
<path d="M219.143 238.7C218.622 241.61 215.676 243.427 212.87 244.42C210.064 245.413 206.97 246.052 204.824 248.1C202.819 250.009 201.855 252.981 199.414 254.298C197.665 255.237 195.364 255.198 193.996 256.63" stroke="#101010" stroke-width="0.540844" stroke-miterlimit="10"/>
<path d="M215.879 235.13C214.705 235.592 208.859 237.886 207.957 238.764C206.651 240.019 205.353 241.273 204.047 242.536C203.386 243.175 202.702 243.829 201.878 244.245C201.039 244.668 200.083 244.83 199.165 245.061C196.079 245.839 191.951 247.632 189.751 249.919" stroke="#101010" stroke-width="0.540844" stroke-miterlimit="10"/>
<path d="M208.094 276.115L220.065 295.73C220.576 296.567 221.675 296.835 222.52 296.329L242.325 284.474C243.17 283.968 243.441 282.879 242.931 282.042L230.96 262.428C230.449 261.591 229.35 261.323 228.505 261.829L208.699 273.684C207.854 274.19 207.583 275.279 208.094 276.115Z" stroke="#101010" stroke-width="0.540844" stroke-miterlimit="10"/>
<path d="M234.97 269.819C234.97 269.819 235.266 277.125 230.796 279.928C226.326 282.73 223.131 275.085 219.275 277.541C215.42 279.997 217.114 285.817 215.536 287.21" stroke="#101010" stroke-width="0.540844" stroke-miterlimit="10"/>
<path d="M331.309 320.101L327.858 316.991" stroke="#101010" stroke-width="0.540844" stroke-miterlimit="10" stroke-linecap="round"/>
<path d="M321.414 311.2L285.958 279.335" stroke="#101010" stroke-width="0.540844" stroke-miterlimit="10" stroke-linecap="round"/>
<path d="M282.732 276.441L279.28 273.339" stroke="#101010" stroke-width="0.540844" stroke-miterlimit="10" stroke-linecap="round"/>
<path d="M270.161 258.462L271.825 254.143" stroke="#101010" stroke-width="0.540844" stroke-miterlimit="10" stroke-linecap="round"/>
<path d="M275.782 243.874L281.729 228.469" stroke="#101010" stroke-width="0.540844" stroke-miterlimit="10" stroke-linecap="round"/>
<path d="M283.703 223.335L285.367 219.016" stroke="#101010" stroke-width="0.540844" stroke-miterlimit="10" stroke-linecap="round"/>
<path d="M237.629 137.934L240.063 133.992" stroke="#101010" stroke-width="0.540844" stroke-miterlimit="10" stroke-linecap="round"/>
<path d="M245.706 124.83L265.474 92.75" stroke="#101010" stroke-width="0.540844" stroke-miterlimit="10" stroke-linecap="round"/>
<path d="M268.304 88.1702L270.73 84.2285" stroke="#101010" stroke-width="0.540844" stroke-miterlimit="10" stroke-linecap="round"/>
<path d="M335.437 89.9877L338.274 86.3154" stroke="#101010" stroke-width="0.540844" stroke-miterlimit="10" stroke-linecap="round"/>
<path d="M343.997 78.8931L375.495 38.0674" stroke="#101010" stroke-width="0.540844" stroke-miterlimit="10" stroke-linecap="round"/>
<path d="M378.363 34.3568L381.193 30.6846" stroke="#101010" stroke-width="0.540844" stroke-miterlimit="10" stroke-linecap="round"/>
<path d="M291.089 77.7031L294.797 80.4977" stroke="#101010" stroke-width="0.540844" stroke-miterlimit="10" stroke-linecap="round"/>
<path d="M300.402 84.7158L308.805 91.0364" stroke="#101010" stroke-width="0.540844" stroke-miterlimit="10" stroke-linecap="round"/>
<path d="M311.604 93.1465L315.319 95.9411" stroke="#101010" stroke-width="0.540844" stroke-miterlimit="10" stroke-linecap="round"/>
<path d="M335.67 158.689C329.008 172.031 334.527 188.183 347.991 194.78C361.463 201.378 377.772 195.912 384.434 182.578C391.096 169.236 385.584 153.077 372.113 146.479C358.641 139.882 342.324 145.348 335.662 158.689H335.67Z" stroke="#101010" stroke-width="0.540844" stroke-miterlimit="10"/>
<path d="M334.528 180.723L177.843 204.388" stroke="#101010" stroke-width="0.540844" stroke-miterlimit="10" stroke-linecap="round"/>
<path d="M210.056 16.4181C226.132 20.3598 217.876 29.1362 205.462 24.8943C200.665 23.2545 194.758 25.7411 193.91 29.96C192.542 36.7578 185.686 36.0034 184.232 33.4397C180.648 27.1269 193.98 12.4764 210.056 16.4181Z" fill="#DFFCF8"/>
<path d="M346.024 181.338C345.853 182.424 346.024 183.54 346.53 184.525C347.035 185.511 347.835 186.304 348.83 186.812C349.818 187.312 350.945 187.497 352.041 187.328L366.461 185.064C367.114 184.957 367.744 184.726 368.319 184.387C368.956 184.017 369.493 183.509 369.897 182.901C370.301 182.293 370.55 181.592 370.628 180.869C370.674 180.399 370.667 179.922 370.604 179.452L368.995 169.205C369.602 168.928 370.169 168.574 370.69 168.158C371.242 167.689 371.164 167.766 371.335 167.581C371.957 166.896 372.556 166.01 372.882 165.133C373.31 164.001 373.434 162.785 373.247 161.591C372.96 159.728 371.941 158.058 370.418 156.934C368.894 155.81 366.982 155.325 365.101 155.579L347.043 158.35C345.589 158.573 344.625 159.898 344.819 161.337L347.501 178.474C346.716 179.252 346.203 180.26 346.024 181.346V181.338Z" fill="#FFEEDA"/>
<path d="M373.939 181.116C373.947 182.094 373.582 183.033 372.906 183.741C372.229 184.449 371.304 184.873 370.317 184.911L359.364 185.342C360.219 184.272 360.662 182.933 360.6 181.57C360.499 179.345 359.092 177.875 359.092 177.875L369.983 177.405C370.985 177.367 371.965 177.721 372.711 178.391C373.45 179.06 373.893 180 373.932 180.993V181.116H373.939Z" fill="#EBC28E"/>
<path d="M346.475 168.167C345.169 167.043 344.213 165.55 344.128 163.733V163.54C344.081 160.438 346.545 157.836 349.662 157.605L369.578 156.743C370.099 156.743 370.535 157.097 370.558 157.612L371.296 174.288C371.685 174.334 372.066 174.419 372.431 174.534C372.727 174.634 373.007 174.757 373.286 174.896L372.525 157.52C372.424 155.942 371.102 154.726 369.501 154.795L349.592 155.657C347.525 155.78 345.589 156.704 344.198 158.236C342.814 159.76 342.083 161.77 342.176 163.818C342.285 166.304 343.521 168.367 345.457 169.776C345.589 169.869 345.713 169.992 346.055 169.976C346.638 169.953 347.035 169.476 346.988 168.968C346.949 168.552 346.763 168.406 346.483 168.16L346.475 168.167Z" fill="#190602"/>
<path d="M369.897 175.464L354.279 176.141C353.774 176.164 353.3 176.388 352.966 176.757C352.624 177.127 352.453 177.612 352.468 178.112L352.569 180.329C352.647 181.353 353.564 182.2 354.614 182.154L355.772 182.1L355.686 180.191L354.528 180.245L354.435 178.074L355.065 178.043C357.039 177.958 358.563 179.714 358.648 181.654C358.726 183.37 357.241 185.641 354.583 185.58C352.219 185.526 350.867 183.509 350.797 181.992L349.965 163.138C349.95 162.73 349.763 162.345 349.46 162.068C349.157 161.791 348.752 161.645 348.34 161.66L346.786 161.73L346.871 163.654L348.029 163.6L348.846 182.069C348.955 185.826 351.8 187.605 354.668 187.481L370.402 186.85C371.918 186.765 373.333 186.096 374.351 184.987C375.369 183.878 375.898 182.408 375.836 180.914C375.774 179.421 375.113 178.004 374.001 176.981C372.889 175.957 371.42 175.418 369.904 175.464H369.897ZM373.939 181.122C373.947 182.1 373.581 183.039 372.905 183.748C372.229 184.456 371.304 184.879 370.316 184.918L359.363 185.349C360.218 184.279 360.662 182.939 360.599 181.577C360.498 179.352 359.091 177.881 359.091 177.881L369.982 177.412C370.985 177.373 371.964 177.727 372.711 178.397C373.457 179.067 373.892 180.006 373.931 180.999V181.122H373.939Z" fill="#190602"/>
<path d="M353.292 161.8L365.069 161.291C365.326 161.284 365.575 161.368 365.769 161.546C365.956 161.715 366.072 161.961 366.08 162.215C366.088 162.469 366.002 162.716 365.824 162.908C365.653 163.093 365.404 163.208 365.147 163.216L353.37 163.724L353.285 161.8H353.292Z" fill="#190602"/>
<path d="M353.689 170.884L365.466 170.375C365.723 170.368 365.972 170.452 366.166 170.63C366.353 170.799 366.469 171.045 366.477 171.299C366.485 171.553 366.399 171.8 366.22 171.992C366.049 172.177 365.801 172.292 365.544 172.3L353.767 172.808L353.682 170.884H353.689Z" fill="#190602"/>
<path d="M353.487 166.341L367.332 165.741C367.588 165.733 367.837 165.818 368.031 165.995C368.218 166.164 368.334 166.41 368.342 166.665C368.35 166.919 368.264 167.165 368.086 167.357C367.915 167.542 367.666 167.658 367.409 167.665L353.565 168.266L353.479 166.341H353.487Z" fill="#190602"/>
<path d="M349.329 143.363C349.29 143.401 349.243 143.44 349.196 143.471C342.76 145.734 337.171 150.384 333.906 156.92C333.571 157.59 333.26 158.275 332.988 158.96C332.841 158.875 332.709 158.775 332.716 158.714C332.926 157.374 333.198 154.911 333.913 152.601C334.489 150.753 332.926 148.952 330.998 149.237L208.812 167.652L349.266 143.132C349.406 143.101 349.445 143.263 349.336 143.355L349.329 143.363Z" fill="#101010"/>
<path d="M168.856 183.209C161.93 197.074 167.667 213.88 181.667 220.74L168.856 183.209Z" fill="#FDF1DF"/>
<path d="M168.856 183.209C161.93 197.074 167.667 213.88 181.667 220.74" stroke="#101010" stroke-width="0.540844" stroke-miterlimit="10" stroke-linecap="round"/>
<path d="M167.892 185.518C167.892 185.518 165.397 194.356 170.745 198.159C179.965 204.71 192.177 201.823 192.177 201.823C192.177 201.823 179.46 204.741 177.299 212.363C176.21 216.189 179.234 218.737 179.234 218.737C179.234 218.737 175.573 217.944 174.181 215.804C172.79 213.664 167.449 207.428 167.372 204.949C167.294 202.47 165.467 194.386 165.677 193.209C165.902 191.915 166.61 187.304 167.239 186.049C167.76 185.002 167.9 185.518 167.9 185.518H167.892Z" fill="#101010"/>
<path d="M404.374 187.413C404.374 187.413 409.147 177.651 404.755 171.97C399.43 165.072 387.046 167.935 387.046 167.935C387.046 167.935 386.386 167.281 387.116 167.073C390.016 166.249 398.536 164.148 401.078 159.59C405.921 150.898 403.418 147.334 403.418 147.334C403.418 147.334 407.647 152.307 408.696 154.64C409.745 156.973 411.86 164.433 411.557 166.896C411.254 169.36 409.497 178.313 408.797 179.437C407.825 181 406.325 184.811 405.517 185.958C404.84 186.913 404.366 187.413 404.366 187.413H404.374Z" fill="#101010"/>
<path d="M391.558 144.88C391.92 143.222 390.286 141.464 387.906 140.954C385.527 140.444 383.305 141.374 382.942 143.032C382.58 144.69 384.214 146.448 386.593 146.958C388.973 147.468 391.195 146.538 391.558 144.88Z" fill="#101010"/>
<path d="M251.746 361.794L251.591 361.54L251.109 360.755L250.876 360.917L250.184 359.777C248.917 359.716 247.673 360.393 247.074 361.586C246.266 363.195 246.934 365.151 248.567 365.951C249.896 366.598 251.443 366.29 252.415 365.282H252.422L284.162 344.234C285.134 344.049 286.012 343.425 286.486 342.478C287.108 341.239 286.696 339.707 285.802 338.745L285.352 338.429C285.352 338.429 285.266 338.113 285.32 338.113" fill="#FDF1DF"/>
<path d="M251.746 361.794L251.591 361.54L251.109 360.755L250.876 360.917L250.184 359.777C248.917 359.716 247.673 360.393 247.074 361.586C246.266 363.195 246.934 365.151 248.567 365.951C249.896 366.598 251.443 366.29 252.415 365.282H252.422L284.162 344.234C285.134 344.049 286.012 343.425 286.486 342.478C287.108 341.239 286.696 339.707 285.802 338.745L285.352 338.429C285.352 338.429 285.266 338.113 285.32 338.113" stroke="#101010" stroke-width="0.540844" stroke-miterlimit="10" stroke-linecap="round"/>
<path d="M174.383 324.763C174.383 324.763 173.303 327.018 175.565 328.851L174.383 324.763Z" fill="#FFDCB1"/>
<path d="M174.383 324.763C174.383 324.763 173.303 327.018 175.565 328.851" stroke="#101010" stroke-width="0.540844" stroke-miterlimit="10"/>
<path d="M213.881 99.9182C213.546 99.7489 213.539 99.2792 213.873 99.1022C214.635 98.6941 215.917 98.4093 217.363 98.5171C219.571 98.6711 220.799 100.026 221.67 101.597C222.152 102.466 223.683 108.502 223.924 109.765C224.025 110.273 223.341 110.535 223.069 110.096C222.043 108.456 220.962 103.498 217.713 100.965C216.329 99.8874 214.541 100.257 213.881 99.9259V99.9182Z" fill="#101010"/>
<path opacity="0.14" d="M374.01 119.865L356.822 121.79L346.88 131.082C346.686 131.267 346.841 131.59 347.105 131.559L363.212 129.588C364.005 129.488 364.736 129.134 365.296 128.572L374.01 119.857V119.865Z" fill="#8C7153"/>
<path opacity="0.14" d="M349.158 123.807L331.97 125.731L322.067 134.993C321.857 135.185 322.02 135.532 322.308 135.493L338.904 133.461C339.34 133.407 339.752 133.207 340.055 132.899L349.15 123.799L349.158 123.807Z" fill="#8C7153"/>
<path opacity="0.14" d="M324.951 127.363L307.763 129.288L297.727 138.672C297.564 138.826 297.688 139.104 297.914 139.073L314.697 137.017C315.132 136.963 315.537 136.763 315.848 136.455L324.951 127.355V127.363Z" fill="#8C7153"/>
<path opacity="0.14" d="M198.101 157.704L212.785 144.054L232.134 141.06L218.289 154.609C219.276 155.056 198.108 157.704 198.108 157.704H198.101Z" fill="#8C7153"/>
<path opacity="0.6" d="M218.692 308.828L210.11 313.354L208.859 314.363L207.164 313.716C206.348 313.408 205.477 313.293 204.607 313.377C203.736 313.462 202.655 313.57 201.855 313.616C199.74 313.732 196.094 315.487 193.926 316.503C192.557 317.15 193.117 316.372 191.842 316.257C189.767 316.072 185.864 316.157 183.33 315.956C174.663 315.279 162.512 316.511 161.004 315.802C159.162 314.925 165.808 310.744 167.837 310.521C171.6 310.113 193.218 308.997 204.715 309.005C207.763 309.005 209.994 306.171 209.247 303.246L208.307 299.558L209.232 299.589L212.178 298.026L218.692 308.82V308.828Z" fill="#EBC28E"/>
<path opacity="0.6" d="M216.811 311.098L217.433 313.592C218.343 317.888 217.231 322.353 214.409 325.733L213.469 326.857C213.095 327.303 212.792 327.804 212.567 328.343L211.875 329.99L220.076 326.996L226.855 322.13L219.314 309.728L216.811 311.09V311.098Z" fill="#EBC28E"/>
<path opacity="0.16" d="M169.003 224.967C169.003 224.967 175.409 229.825 183.587 231.919C192.13 234.105 217.69 229.417 217.69 229.417C217.69 229.417 201.039 235.475 195.838 236.592C187.489 238.385 179.389 236.345 176.295 233.866C174.072 232.08 169.003 224.967 169.003 224.967Z" fill="#8C7153"/>
<path opacity="0.22" d="M384.714 208.083L381.721 204.827L390.319 203.226L392.674 205.758C392.674 205.758 391.765 207.683 389.557 208.191C387.349 208.699 384.722 208.091 384.722 208.091L384.714 208.083Z" fill="#8C7153"/>
<path opacity="0.16" d="M309.971 215.382L350.736 209.446L350.339 214.897L309.776 218.977L309.971 215.382Z" fill="#8C7153"/>
</g>
<defs>
<clipPath id="clip0_1466_7380">
<rect width="485.992" height="366.315" fill="white" transform="translate(0.261719 0.166992)"/>
</clipPath>
</defs>
</svg>
