
    <svg xmlns="http://www.w3.org/2000/svg" xmlns:xlink="http://www.w3.org/1999/xlink" version="1.1" id="Layer_1" x="0px" y="0px" viewBox="0 0 368.5 368.5" style="enable-background:new 0 0 368.5 368.5;" xml:space="preserve">
      <style type="text/css">
        .st0{fill:#050308;}
        .st2{fill:#EDCCA2;stroke:#050308;stroke-width:3;stroke-miterlimit:10;}
        .st4{fill:none;stroke:#050308;stroke-linecap:round;stroke-linejoin:round;stroke-miterlimit:10;}
        .st6{fill:none;stroke:#EDCCA2;stroke-width:0.25;stroke-linecap:round;stroke-linejoin:round;}
        .st7{fill:#EDCCA2;}
        .st8{fill:#050308;stroke:#EDCCA2;stroke-miterlimit:10;}
        .st45{fill:#EBC28E;stroke:#050308;stroke-width:3;stroke-miterlimit:10;}
        .row{margin:0;}
        .row span{display:inline-block;height:14px;line-height:14px;background:#050308;padding:0 3px;border:1px solid #EBC28E;}
        .row span:nth-child(even){
          border-left:none;
        }
        .row:nth-child(n+2) span{
          margin-top: -0.9px
        }
        .row:nth-child(n+2) span:nth-child(1){
          width: 55.8px
        }
        .st61{
          stroke:#93FBED;
          fill:none;
          stroke-width:4;
          stroke-linecap:round;
        }
      </style>
      <filter id="blurMe">
        <feGaussianBlur in="SourceGraphic" stdDeviation="5 2" />
      </filter>
      <g filter="url(#blurMe)">
        <g>
          <g>
            <path class="st45" d="M52.35,3.21c-9.67,0-17.62,7.31-18.65,16.7c-1.97,15.16,8.18,22.06,8.18,22.06h29.24V21.98     C71.12,11.62,62.72,3.21,52.35,3.21z"/>
            <path class="st2" d="M278.85,3.21H71.12H52.35c10.37,0,18.77,8.4,18.77,18.77v322.64c0,11.42,9.25,20.67,20.67,20.67h205.83     V21.98C297.62,11.62,289.22,3.21,278.85,3.21z"/>
          </g>
          <path class="st45" d="M334.31,324.52H109.34c4.23,4.36,6.84,10.3,6.84,16.85c0,12.07-8.83,22.07-20.38,23.91h224.97    c11.55-1.84,20.38-11.84,20.38-23.91C341.15,334.82,338.54,328.88,334.31,324.52z"/>
          <rect x="79.69" y="15.45" transform="matrix(-1 -1.224647e-16 1.224647e-16 -1 335.9427 77.7668)" class="st4" width="176.55" height="46.86"/>
        </g>
        <g>
          <g>
            <polygon class="st0" points="79.36,73.71 79.36,252.15 98.72,271.33 288.28,271.33 288.28,106.52 255.48,73.71"/>
          </g>
          <g>
            <g style="clip-path:url(#SVGID_00000105406074955376930230000006043435414293854105_);">
              <g>
                <polygon class="st7" points="183.82,85.77 179.15,98.58 188.49,98.58"/>
                <polygon class="st7" points="183.82,259.27 188.49,246.46 179.15,246.46"/>
                <line x1="183.82" y1="95.71" x2="183.82" y2="250.53" stroke="#EDCCA2" stroke-width="2" />
                <polygon class="st7" points="270.57,172.52 257.76,167.85 257.76,177.19"/>
                <polygon class="st7" points="97.07,172.52 109.88,177.19 109.88,167.85"/>
                <line x1="107.01" y1="172.52" x2="260.63" y2="172.52" stroke="#EDCCA2" stroke-width="2" />
              </g>
              <g>
                <line class="st6" x1="79.36" y1="85.77" x2="288.28" y2="85.77"/>
                <line class="st6" x1="79.36" y1="103.12" x2="288.28" y2="103.12"/>
                <line class="st6" x1="79.36" y1="120.47" x2="288.28" y2="120.47"/>
                <line class="st6" x1="79.36" y1="137.82" x2="288.28" y2="137.82"/>
                <line class="st6" x1="79.36" y1="155.17" x2="288.28" y2="155.17"/>
                <line class="st6" x1="79.36" y1="172.52" x2="288.28" y2="172.52"/>
                <line class="st6" x1="79.36" y1="189.87" x2="288.28" y2="189.87"/>
                <line class="st6" x1="79.36" y1="207.22" x2="288.28" y2="207.22"/>
                <line class="st6" x1="79.36" y1="224.57" x2="288.28" y2="224.57"/>
                <line class="st6" x1="79.36" y1="241.92" x2="288.28" y2="241.92"/>
                <line class="st6" x1="79.36" y1="259.27" x2="288.28" y2="259.27"/>

                <line class="st6" x1="270.57" y1="73.71" x2="270.57" y2="288.28"/>
                <line class="st6" x1="253.22" y1="73.71" x2="253.22" y2="288.28"/>
                <line class="st6" x1="235.87" y1="73.71" x2="235.87" y2="288.28"/>
                <line class="st6" x1="218.52" y1="73.71" x2="218.52" y2="288.28"/>
                <line class="st6" x1="201.17" y1="73.71" x2="201.17" y2="288.28"/>
                <line class="st6 y" x1="183.82" y1="73.71" x2="183.82" y2="288.28"/>
                <line class="st6" x1="166.47" y1="73.71" x2="166.47" y2="288.28"/>
                <line class="st6" x1="149.12" y1="73.71" x2="149.12" y2="288.28"/>
                <line class="st6" x1="131.77" y1="73.71" x2="131.77" y2="288.28"/>
                <line class="st6" x1="114.42" y1="73.71" x2="114.42" y2="288.28"/>
                <line class="st6" x1="97.07" y1="73.71" x2="97.07" y2="288.28"/>
              </g>
            </g>
          </g>
        </g>
        
        <polygon class="st4" points="288.46,94.66 256.3,62.31 256.3,15.45 288.46,47.8"/>
        
      </g>
      <g transform="translate(107.01, 95.71)"> 
        <circle fill="#93FBED" stroke="none" cx="52.81" cy="76.81" r="6">
          <animateTransform 
            attributeName="transform" 
            dur="1s" 
            type="translate" 
            values="0 15 ; 0 -15; 0 15" 
            repeatCount="indefinite" 
            begin="0.1"/>
        </circle>
        <circle fill="#93FBED" stroke="none" cx="76.81" cy="76.81" r="6">
          <animateTransform 
            attributeName="transform" 
            dur="1s" 
            type="translate" 
            values="0 10 ; 0 -10; 0 10" 
            repeatCount="indefinite" 
            begin="0.2"/>
        </circle>
        <circle fill="#93FBED" stroke="none" cx="100.81" cy="76.81" r="6">
          <animateTransform 
            attributeName="transform" 
            dur="1s" 
            type="translate" 
            values="0 5 ; 0 -5; 0 5" 
            repeatCount="indefinite" 
            begin="0.3"/>
        </circle>
          
      </g>
    </svg> 
  