<svg width="41" height="41" viewBox="0 0 41 41" fill="none" xmlns="http://www.w3.org/2000/svg">
<path d="M8.93473 32.9611L21.5736 28.4611L13.4069 20.2666L8.93473 32.9611ZM39.4486 12.4472C39.2357 12.6602 38.981 12.7666 38.6847 12.7666C38.3885 12.7666 38.1338 12.6602 37.9209 12.4472L37.8236 12.35C37.3421 11.8685 36.7727 11.6231 36.1153 11.6139C35.4579 11.6046 34.8792 11.85 34.3792 12.35L25.2819 21.4472C25.069 21.6602 24.8143 21.7666 24.5181 21.7666C24.2218 21.7666 23.9671 21.6602 23.7542 21.4472C23.5412 21.2343 23.4347 20.9796 23.4347 20.6833C23.4347 20.387 23.5412 20.1324 23.7542 19.9194L32.7681 10.9055C33.657 10.0166 34.7634 9.56756 36.0875 9.55831C37.4116 9.54906 38.5181 9.98888 39.407 10.8778L39.4486 10.9194C39.6616 11.1324 39.7681 11.387 39.7681 11.6833C39.7681 11.9796 39.6616 12.2342 39.4486 12.4472ZM17.1431 7.30831C17.356 7.09534 17.6107 6.98885 17.9069 6.98885C18.2032 6.98885 18.4579 7.09534 18.6709 7.30831L18.9903 7.62777C19.9347 8.57221 20.4023 9.73424 20.3931 11.1139C20.3838 12.4935 19.907 13.6555 18.9625 14.6L18.6431 14.9194C18.4301 15.1324 18.1755 15.2389 17.8792 15.2389C17.5829 15.2389 17.3282 15.1324 17.1153 14.9194C16.9023 14.7065 16.7959 14.4518 16.7959 14.1556C16.7959 13.8593 16.9023 13.6046 17.1153 13.3917L17.5181 12.9889C18.0736 12.4333 18.3375 11.7898 18.3097 11.0583C18.282 10.3268 18.0181 9.71109 17.5181 9.21106L17.1431 8.83606C16.9301 8.62312 16.8236 8.36849 16.8236 8.07218C16.8236 7.77588 16.9301 7.52125 17.1431 7.30831ZM24.0875 4.16943C24.3005 3.95646 24.5551 3.84998 24.8514 3.84998C25.1477 3.84998 25.4023 3.95646 25.6153 4.16943L27.4903 6.04443C28.3607 6.93332 28.8051 8.03517 28.8236 9.34998C28.8421 10.6648 28.407 11.7666 27.5181 12.6555L22.0041 18.1694C21.7912 18.3824 21.5366 18.4889 21.2403 18.4889C20.944 18.4889 20.6894 18.3824 20.4764 18.1694C20.2634 17.9565 20.1569 17.7018 20.1569 17.4056C20.1569 17.1093 20.2634 16.8546 20.4764 16.6417L25.9347 11.1833C26.4162 10.7018 26.6523 10.0907 26.6431 9.34998C26.6338 8.60923 26.3885 7.99811 25.907 7.51664L24.0875 5.69718C23.8745 5.48421 23.7681 5.22959 23.7681 4.93331C23.7681 4.637 23.8745 4.38238 24.0875 4.16943ZM36.8653 24.8639C36.6523 25.0768 36.3977 25.1833 36.1014 25.1833C35.8051 25.1833 35.5505 25.0768 35.3375 24.8639L33.7681 23.2944C33.2125 22.7389 32.606 22.4611 31.9486 22.4611C31.2912 22.4611 30.6847 22.7389 30.1291 23.2944L28.6153 24.8083C28.4023 25.0213 28.1477 25.1278 27.8514 25.1278C27.5551 25.1278 27.3005 25.0213 27.0875 24.8083C26.8745 24.5954 26.7681 24.3407 26.7681 24.0444C26.7681 23.7481 26.8745 23.4935 27.0875 23.2806L28.5181 21.85C29.4625 20.9056 30.5968 20.4241 31.9208 20.4056C33.2449 20.387 34.3792 20.85 35.3236 21.7944L36.8653 23.3361C37.0782 23.5491 37.1847 23.8037 37.1847 24.1C37.1847 24.3963 37.0782 24.6509 36.8653 24.8639ZM5.26806 34.8222L11.5042 17.4333C11.6245 17.1278 11.8028 16.8963 12.0389 16.7389C12.275 16.5815 12.532 16.5028 12.8097 16.5028C12.9764 16.5028 13.1431 16.5352 13.3097 16.6C13.4764 16.6648 13.6338 16.7713 13.7819 16.9194L25.0319 28.0583C25.1801 28.2065 25.2866 28.3639 25.3514 28.5306C25.4162 28.6972 25.4486 28.8731 25.4486 29.0583C25.4486 29.3361 25.3699 29.593 25.2125 29.8291C25.0551 30.0653 24.8236 30.2435 24.5181 30.3639L7.07361 36.6278C6.79583 36.7296 6.52731 36.7458 6.26806 36.6764C6.00881 36.6069 5.78659 36.4796 5.6014 36.2944C5.41623 36.1092 5.28892 35.887 5.21948 35.6278C5.15004 35.3685 5.16623 35.1 5.26806 34.8222Z" fill="black"/>
</svg>
