<svg width="42" height="42" viewBox="0 0 42 42" fill="none" xmlns="http://www.w3.org/2000/svg">
<circle cx="21" cy="21" r="21" fill="#1E1E1E"/>
<path d="M21.3153 29.7779C14.5995 29.7779 9.15625 27.8375 9.15625 25.2377C9.15625 23.8811 10.6388 22.6589 13.0118 21.7979C14.864 22.9865 17.972 23.5955 21.4959 23.5955C25.0197 23.5955 27.9764 22.8521 29.8455 21.7139C32.0841 22.5665 33.4743 23.7551 33.4743 25.0655C33.4743 27.6695 28.0311 29.7779 21.3153 29.7779Z" fill="white"/>
<path d="M21.387 23.012C16.2966 23.012 12.168 21.416 12.168 19.4462C12.168 18.3542 13.4406 17.3756 15.4356 16.7246C16.8594 17.468 18.993 17.9426 21.387 17.9426C23.781 17.9426 25.9146 17.468 27.3384 16.7246C29.3376 17.3798 30.606 18.3542 30.606 19.4462C30.6102 21.416 26.4816 23.012 21.387 23.012Z" fill="white"/>
<path d="M21.354 17.3507C17.4186 17.3507 14.2266 16.0319 14.2266 14.4107C14.2266 12.7895 17.4186 11.4707 21.354 11.4707C25.2894 11.4707 28.4814 12.7895 28.4814 14.4107C28.4814 16.0319 25.2894 17.3507 21.354 17.3507Z" fill="white"/>
</svg>
