<svg width="42" height="42" viewBox="0 0 42 42" fill="none" xmlns="http://www.w3.org/2000/svg">
<g clip-path="url(#clip0_156_409)">
<path d="M41.3694 26.08C38.5647 37.3301 27.1702 44.1767 15.9187 41.3713C4.67202 38.5666 -2.17457 27.1713 0.63136 15.9221C3.43483 4.6708 14.8294 -2.17631 26.0773 0.628392C37.3279 3.43309 44.1741 14.8296 41.3691 26.0802L41.3693 26.08H41.3694Z" fill="#F7931A"/>
<path d="M30.2601 18.0083C30.678 15.2137 28.5504 13.7115 25.641 12.7093L26.5848 8.92374L24.2804 8.34954L23.3616 12.0355C22.7558 11.8844 22.1337 11.742 21.5153 11.6009L22.4408 7.89061L20.1378 7.31641L19.1935 11.1008C18.6921 10.9866 18.1998 10.8738 17.722 10.7549L17.7247 10.743L14.5469 9.94948L13.9339 12.4107C13.9339 12.4107 15.6436 12.8026 15.6075 12.8268C16.5407 13.0597 16.7094 13.6774 16.6814 14.167L15.6063 18.4797C15.6706 18.496 15.7539 18.5196 15.8459 18.5566C15.769 18.5375 15.6872 18.5166 15.6023 18.4963L14.0953 24.5377C13.9813 24.8213 13.6918 25.2467 13.0394 25.0852C13.0625 25.1186 11.3646 24.6672 11.3646 24.6672L10.2205 27.305L13.2193 28.0526C13.7771 28.1925 14.3238 28.3388 14.8622 28.4765L13.9086 32.3055L16.2104 32.8797L17.1547 29.0913C17.7835 29.262 18.3938 29.4195 18.9912 29.5679L18.05 33.3384L20.3545 33.9126L21.308 30.0908C25.2375 30.8345 28.1921 30.5346 29.4358 26.9804C30.4379 24.1188 29.3859 22.4683 27.3186 21.392C28.8243 21.0447 29.9585 20.0544 30.2609 18.0086L30.2602 18.0081L30.2601 18.0083ZM24.995 25.3912C24.2829 28.2528 19.4649 26.7059 17.9028 26.318L19.1682 21.2453C20.7302 21.6352 25.7393 22.4069 24.9951 25.3912H24.995ZM25.7077 17.9669C25.0581 20.5698 21.048 19.2474 19.7471 18.9231L20.8944 14.3224C22.1953 14.6467 26.3844 15.2519 25.7079 17.9669H25.7077Z" fill="white"/>
</g>
<defs>
<clipPath id="clip0_156_409">
<rect width="42" height="42" fill="white"/>
</clipPath>
</defs>
</svg>
