<svg width="42" height="42" viewBox="0 0 42 42" fill="none" xmlns="http://www.w3.org/2000/svg">
<path d="M21 42C32.598 42 42 32.598 42 21C42 9.40202 32.598 0 21 0C9.40202 0 0 9.40202 0 21C0 32.598 9.40202 42 21 42Z" fill="#F5F5F5"/>
<path d="M20.9969 7L20.8091 7.63807V26.1517L20.9969 26.3391L29.5906 21.2593L20.9969 7Z" fill="#343434"/>
<path d="M20.9979 7L12.4041 21.2593L20.9979 26.3391V17.3531V7Z" fill="#8C8C8C"/>
<path d="M20.9967 27.9658L20.8909 28.0949V34.6897L20.9967 34.9988L29.5956 22.8887L20.9967 27.9658Z" fill="#3C3C3B"/>
<path d="M20.9979 34.9988V27.9658L12.4041 22.8887L20.9979 34.9988Z" fill="#8C8C8C"/>
<path d="M20.998 26.3385L29.5917 21.2588L20.998 17.3525V26.3385Z" fill="#141414"/>
<path d="M12.4041 21.2588L20.9979 26.3385V17.3525L12.4041 21.2588Z" fill="#393939"/>
</svg>
