<svg width="42" height="42" viewBox="0 0 42 42" fill="none" xmlns="http://www.w3.org/2000/svg">
<g clip-path="url(#clip0_156_583)">
<path d="M21 42C32.598 42 42 32.598 42 21C42 9.40202 32.598 0 21 0C9.40202 0 0 9.40202 0 21C0 32.598 9.40202 42 21 42Z" fill="#2A5ADA"/>
<path d="M21 7L18.4603 8.47706L11.5397 12.5229L9 14V28L11.5397 29.4771L18.5238 33.5229L21.0635 35L23.6032 33.5229L30.4603 29.4771L33 28V14L30.4603 12.5229L23.5397 8.47706L21 7ZM14.0794 25.0459V16.9541L21 12.9083L27.9206 16.9541V25.0459L21 29.0917L14.0794 25.0459Z" fill="white"/>
</g>
<defs>
<clipPath id="clip0_156_583">
<rect width="42" height="42" rx="21" fill="white"/>
</clipPath>
</defs>
</svg>
