<svg width="42" height="42" viewBox="0 0 42 42" fill="none" xmlns="http://www.w3.org/2000/svg">
<g clip-path="url(#clip0_156_481)">
<mask id="mask0_156_481" style="mask-type:luminance" maskUnits="userSpaceOnUse" x="0" y="0" width="42" height="42">
<path d="M42 0H0V42H42V0Z" fill="white"/>
</mask>
<g mask="url(#mask0_156_481)">
<path d="M21 42C32.5979 42 42 32.5979 42 21C42 9.40205 32.5979 0 21 0C9.40205 0 0 9.40205 0 21C0 32.5979 9.40205 42 21 42Z" fill="url(#paint0_radial_156_481)"/>
<mask id="mask1_156_481" style="mask-type:alpha" maskUnits="userSpaceOnUse" x="0" y="0" width="42" height="42">
<path d="M21 42C32.5979 42 42 32.5979 42 21C42 9.40205 32.5979 0 21 0C9.40205 0 0 9.40205 0 21C0 32.5979 9.40205 42 21 42Z" fill="url(#paint1_radial_156_481)"/>
</mask>
<g mask="url(#mask1_156_481)">
<path opacity="0.2" d="M-0.699951 11.55C-0.699951 11.0861 -0.323871 10.71 0.140049 10.71H11.62C12.0839 10.71 12.46 11.0861 12.46 11.55V31.08C12.46 31.5439 12.0839 31.92 11.62 31.92H0.140049C-0.323871 31.92 -0.699951 31.5439 -0.699951 31.08V11.55Z" fill="url(#paint2_linear_156_481)"/>
<path opacity="0.2" d="M25.3401 28.4894C25.3401 28.0255 25.7162 27.6494 26.1801 27.6494H41.1601C41.624 27.6494 42.0001 28.0255 42.0001 28.4894V35.7694C42.0001 36.2333 41.624 36.6094 41.1601 36.6094H26.1801C25.7162 36.6094 25.3401 36.2333 25.3401 35.7694V28.4894Z" fill="#E74310"/>
<path opacity="0.2" d="M35.07 30.7295C35.5338 30.7295 35.91 31.1056 35.91 31.5695V45.7095C35.91 46.1734 35.5338 46.5495 35.07 46.5495H29.54C29.0761 46.5495 28.7 46.1734 28.7 45.7095V31.5695C28.7 31.1056 29.0761 30.7295 29.54 30.7295H35.07Z" fill="#DF3600"/>
<path opacity="0.1" d="M17.0099 13.6494C17.4738 13.6494 17.8499 14.0255 17.8499 14.4894V25.7594C17.8499 26.2233 17.4738 26.5994 17.0099 26.5994H10.7799C10.3161 26.5994 9.93994 26.2233 9.93994 25.7594V14.4894C9.93994 14.0255 10.3161 13.6494 10.7799 13.6494H17.0099Z" fill="url(#paint3_linear_156_481)"/>
<path opacity="0.1" d="M3.98999 17.0099C3.98999 16.546 4.36607 16.1699 4.82999 16.1699H15.05C15.5139 16.1699 15.89 16.546 15.89 17.0099V27.7199C15.89 28.1838 15.5139 28.5599 15.05 28.5599H4.82999C4.36607 28.5599 3.98999 28.1838 3.98999 27.7199V17.0099Z" fill="url(#paint4_linear_156_481)"/>
<path opacity="0.2" d="M42.0001 5.74023C42.464 5.74023 42.8401 6.11632 42.8401 6.58023V20.7202C42.8401 21.1841 42.464 21.5602 42.0001 21.5602H28.9801C28.5162 21.5602 28.1401 21.1841 28.1401 20.7202V6.58023C28.1401 6.11632 28.5162 5.74023 28.9801 5.74023H42.0001Z" fill="#FF9776"/>
<path opacity="0.2" d="M34.09 -3.64062C34.5539 -3.64062 34.93 -3.26454 34.93 -2.80062V12.7394C34.93 13.2033 34.5539 13.5794 34.09 13.5794H26.81C26.3461 13.5794 25.97 13.2033 25.97 12.7394V-2.80062C25.97 -3.26454 26.3461 -3.64062 26.81 -3.64062H34.09Z" fill="#FFCA8C"/>
<path opacity="0.2" d="M37.87 -0.839844C38.3339 -0.839844 38.71 -0.463762 38.71 0.000157058V17.2902C38.71 17.754 38.3339 18.1302 37.87 18.1302H22.05C21.5861 18.1302 21.21 17.754 21.21 17.2902V0.00015682C21.21 -0.463762 21.5861 -0.839844 22.05 -0.839844H37.87Z" fill="url(#paint5_linear_156_481)"/>
<path opacity="0.1" d="M14.84 -5.74023C15.3039 -5.74023 15.68 -5.36415 15.68 -4.90023V6.71977C15.68 7.18366 15.3039 7.55977 14.84 7.55977H9.30997C8.84608 7.55977 8.46997 7.18366 8.46997 6.71977V-4.90023C8.46997 -5.36415 8.84608 -5.74023 9.30997 -5.74023H14.84Z" fill="#DF3600"/>
<path opacity="0.1" d="M15.4701 30.3096C15.9339 30.3096 16.3101 30.6857 16.3101 31.1496V41.1596C16.3101 41.6235 15.9339 41.9996 15.4701 41.9996H1.40006C0.936141 41.9996 0.560059 41.6235 0.560059 41.1596L0.560059 31.1496C0.560059 30.6857 0.936141 30.3096 1.40006 30.3096H15.4701Z" fill="#DF3600"/>
<path opacity="0.1" d="M27.8599 24.71C28.3238 24.71 28.6999 25.0861 28.6999 25.55V41.16C28.6999 41.6238 28.3238 42 27.8599 42H11.7599C11.296 42 10.9199 41.6238 10.9199 41.16V25.55C10.9199 25.0861 11.296 24.71 11.7599 24.71H27.8599Z" fill="#FFD494"/>
<path opacity="0.2" d="M22.5399 7.34349e-07C23.0038 7.54628e-07 23.3799 0.376081 23.3799 0.84V4.9C23.3799 5.36392 23.0038 5.74 22.5399 5.74H5.7399C5.27598 5.74 4.8999 5.36392 4.8999 4.9V0.84C4.8999 0.376081 5.27598 -2.02786e-08 5.7399 0L22.5399 7.34349e-07Z" fill="#FFD494"/>
<path opacity="0.1" d="M9.29236 41.5905L40.751 10.1318L39.6721 9.05292L8.21344 40.5115L9.29236 41.5905Z" fill="#DF3600"/>
<path opacity="0.1" d="M6.9325 39.3014L38.3911 7.84277L36.9864 6.43806L5.52779 37.8967L6.9325 39.3014Z" fill="#DF3600"/>
<path opacity="0.1" d="M5.60462 37.8326L37.0632 6.37402L35.6585 4.96931L4.19991 36.4279L5.60462 37.8326Z" fill="#F45C2C"/>
<path opacity="0.2" d="M4.34461 36.2936L35.8032 4.83496L34.6471 3.67885L3.1885 35.1375L4.34461 36.2936Z" fill="#F45C2C"/>
<path opacity="0.1" d="M3.18616 35.1344L34.6448 3.67578L33.4887 2.51967L2.03005 33.9783L3.18616 35.1344Z" fill="#FFBC6E"/>
<path opacity="0.1" d="M2.41614 33.5944L33.8748 2.13574L32.7186 0.97963L1.26003 32.4382L2.41614 33.5944Z" fill="#DF3600"/>
<path opacity="0.09" d="M-1.29393 24.3542L23.5115 -0.451172L22.3554 -1.60728L-2.45005 23.1981L-1.29393 24.3542Z" fill="#FFD5A4"/>
<path opacity="0.08" d="M-2.62377 22.9509L22.1816 -1.85449L21.0255 -3.0106L-3.77988 21.7948L-2.62377 22.9509Z" fill="#FFD5A4"/>
<path opacity="0.05" d="M-3.81395 21.3415L20.9915 -3.46387L19.8353 -4.61998L-4.97007 20.1854L-3.81395 21.3415Z" fill="#FFD5A4"/>
<path opacity="0.2" d="M0.666067 27.726L29.4761 -1.08398L28.32 -2.2401L-0.490045 26.5699L0.666067 27.726Z" fill="#FFD5A4"/>
<path opacity="0.2" d="M1.43609 29.5463L30.2461 0.736328L29.09 -0.419784L0.279974 28.3902L1.43609 29.5463Z" fill="#FFD5A4"/>
<path opacity="0.1" d="M0.176049 25.6147L25.7458 0.0449219L24.5897 -1.11119L-0.980064 24.4586L0.176049 25.6147Z" fill="#FFD5A4"/>
<path opacity="0.1" d="M9.24598 41.6139L40.7046 10.1553L38.3981 7.84877L6.93948 39.3074L9.24598 41.6139Z" fill="#DF3600"/>
<path opacity="0.1" d="M9.24598 41.6139L40.7046 10.1553L38.3863 7.83702L6.92772 39.2956L9.24598 41.6139Z" fill="#DF3600"/>
</g>
<path d="M20.969 25.5313L12.9792 20.8049L20.969 7.55078L28.9516 20.8049L20.969 25.5313Z" fill="white"/>
<path d="M20.969 33.5783L12.9792 22.3252L20.969 27.0445L28.9588 22.3252L20.969 33.5783Z" fill="white"/>
</g>
</g>
<defs>
<radialGradient id="paint0_radial_156_481" cx="0" cy="0" r="1" gradientUnits="userSpaceOnUse" gradientTransform="translate(13.72 10.045) rotate(54.1675) scale(34.7957)">
<stop stop-color="#FFD794"/>
<stop offset="1" stop-color="#ED5A37"/>
</radialGradient>
<radialGradient id="paint1_radial_156_481" cx="0" cy="0" r="1" gradientUnits="userSpaceOnUse" gradientTransform="translate(13.72 10.045) rotate(54.1675) scale(34.7957)">
<stop stop-color="#FFD794"/>
<stop offset="1" stop-color="#ED5A37"/>
</radialGradient>
<linearGradient id="paint2_linear_156_481" x1="5.88005" y1="10.71" x2="5.88005" y2="31.92" gradientUnits="userSpaceOnUse">
<stop stop-color="#FFE090"/>
<stop offset="1" stop-color="#FFE090" stop-opacity="0"/>
</linearGradient>
<linearGradient id="paint3_linear_156_481" x1="13.8599" y1="13.6494" x2="13.8599" y2="25.6194" gradientUnits="userSpaceOnUse">
<stop stop-color="#DF3600"/>
<stop offset="1" stop-color="#DF3600" stop-opacity="0"/>
</linearGradient>
<linearGradient id="paint4_linear_156_481" x1="3.98999" y1="22.4197" x2="14.9894" y2="22.4197" gradientUnits="userSpaceOnUse">
<stop stop-color="#DF3600"/>
<stop offset="1" stop-color="#DF3600" stop-opacity="0"/>
</linearGradient>
<linearGradient id="paint5_linear_156_481" x1="29.96" y1="-0.839844" x2="29.96" y2="18.1302" gradientUnits="userSpaceOnUse">
<stop stop-color="#DF3600"/>
<stop offset="1" stop-color="#DF3600" stop-opacity="0"/>
</linearGradient>
<clipPath id="clip0_156_481">
<rect width="42" height="42" fill="white"/>
</clipPath>
</defs>
</svg>
