<svg width="42" height="42" viewBox="0 0 42 42" fill="none" xmlns="http://www.w3.org/2000/svg">
<g clip-path="url(#clip0_156_566)">
<path d="M21 42C32.598 42 42 32.598 42 21C42 9.40202 32.598 0 21 0C9.40202 0 0 9.40202 0 21C0 32.598 9.40202 42 21 42Z" fill="#FF007A"/>
<path d="M15.9796 9.8264C15.6303 9.77996 15.6136 9.76448 15.78 9.749C16.0961 9.70256 16.8281 9.76448 17.3439 9.87284C18.5417 10.136 19.6231 10.8171 20.7711 12.0091L21.0706 12.3341L21.5031 12.2722C23.3498 11.9936 25.2464 12.2103 26.8269 12.8914C27.2595 13.0772 27.9416 13.4487 28.0248 13.5416C28.0581 13.5725 28.108 13.7738 28.1413 13.975C28.2577 14.7026 28.2078 15.2444 27.9583 15.6623C27.8252 15.8945 27.8252 15.9564 27.9083 16.1577C27.9749 16.3125 28.1745 16.4208 28.3575 16.4208C28.7568 16.4208 29.1728 15.8326 29.3724 15.0122L29.4556 14.6871L29.6053 14.8419C30.4538 15.7242 31.1193 16.9471 31.2191 17.814L31.2524 18.0462L31.1026 17.845C30.8531 17.4889 30.6202 17.2567 30.3041 17.0555C29.7384 16.6995 29.1395 16.5911 27.559 16.5137C26.1282 16.4363 25.313 16.3279 24.5144 16.0803C23.1502 15.6623 22.4514 15.1205 20.8376 13.1236C20.1222 12.2413 19.673 11.7614 19.2239 11.3589C18.2423 10.4766 17.2607 10.0122 15.9796 9.8264Z" fill="white"/>
<path d="M28.3759 11.7927C28.4091 11.2044 28.4923 10.8174 28.6753 10.4614C28.7419 10.3221 28.8084 10.1982 28.8251 10.1982C28.8417 10.1982 28.8084 10.3066 28.7585 10.4304C28.6254 10.771 28.6088 11.2509 28.692 11.7927C28.8084 12.4893 28.8583 12.5821 29.6569 13.3407C30.0229 13.6967 30.4555 14.1456 30.6219 14.3314L30.9047 14.6719L30.6219 14.4242C30.2725 14.1147 29.4739 13.5264 29.2909 13.449C29.1744 13.3871 29.1578 13.3871 29.0746 13.4645C29.0081 13.5264 28.9914 13.6193 28.9914 14.0682C28.9748 14.7648 28.875 15.1982 28.6254 15.6472C28.4923 15.8794 28.4757 15.8329 28.5921 15.5698C28.6753 15.3685 28.692 15.2756 28.692 14.61C28.692 13.2633 28.5256 12.9382 27.5107 12.3964C27.2612 12.2571 26.8286 12.0558 26.5791 11.9475C26.3129 11.8391 26.1132 11.7462 26.1299 11.7462C26.1631 11.7153 27.1447 11.9784 27.5274 12.1332C28.1097 12.3499 28.2095 12.3654 28.276 12.3499C28.326 12.3035 28.3592 12.1797 28.3759 11.7927Z" fill="white"/>
<path d="M16.6616 14.0986C15.9628 13.2007 15.5136 11.8075 15.6135 10.7704L15.6467 10.4453L15.8131 10.4763C16.1126 10.5227 16.6283 10.7085 16.8779 10.8478C17.5433 11.2193 17.8428 11.7301 18.1256 12.9995C18.2088 13.371 18.3253 13.8044 18.3752 13.9438C18.4584 14.176 18.7745 14.7178 19.0407 15.0583C19.2237 15.306 19.1072 15.4298 18.6913 15.3989C18.0591 15.337 17.2106 14.7952 16.6616 14.0986Z" fill="white"/>
<path d="M27.5271 20.8329C24.2329 19.5945 23.0684 18.5264 23.0684 16.7152C23.0684 16.4521 23.085 16.2354 23.085 16.2354C23.1016 16.2354 23.2181 16.3282 23.3678 16.4366C24.0333 16.9319 24.782 17.1487 26.8616 17.4273C28.0761 17.5976 28.7748 17.7214 29.407 17.9227C31.4201 18.5419 32.6679 19.8112 32.9674 21.5295C33.0505 22.0248 33.0006 22.9691 32.8675 23.4645C32.7511 23.8514 32.4183 24.5635 32.3351 24.579C32.3185 24.579 32.2852 24.5016 32.2852 24.3778C32.252 23.7276 31.9026 23.1084 31.3203 22.6285C30.6215 22.0713 29.7231 21.6533 27.5271 20.8329Z" fill="white"/>
<path d="M25.1972 21.3433C25.164 21.1111 25.0808 20.817 25.0309 20.6931L24.9477 20.4609L25.0974 20.6312C25.3137 20.8634 25.4801 21.1421 25.6298 21.529C25.7463 21.8232 25.7463 21.916 25.7463 22.3959C25.7463 22.8603 25.7296 22.9687 25.6298 23.2318C25.4634 23.6498 25.2638 23.9439 24.931 24.269C24.3321 24.8417 23.5502 25.1513 22.4355 25.2907C22.2359 25.3061 21.6702 25.3526 21.1711 25.3835C19.9233 25.4455 19.0915 25.5693 18.3428 25.817C18.243 25.8479 18.1432 25.8789 18.1265 25.8634C18.0933 25.8325 18.609 25.5538 19.0249 25.3681C19.6072 25.1049 20.2062 24.9656 21.5205 24.7489C22.1693 24.656 22.8348 24.5321 23.0012 24.4702C24.6482 23.9903 25.4634 22.7984 25.1972 21.3433Z" fill="white"/>
<path d="M26.7108 23.8364C26.2782 22.954 26.1784 22.1181 26.4113 21.3286C26.4446 21.2512 26.4779 21.1738 26.5112 21.1738C26.5444 21.1738 26.6443 21.2203 26.7441 21.2822C26.9437 21.406 27.3597 21.6227 28.4244 22.1645C29.772 22.8457 30.5373 23.372 31.0697 23.9757C31.5355 24.502 31.8184 25.1057 31.9515 25.8488C32.0346 26.2667 31.9847 27.2729 31.8683 27.6909C31.5023 29.0066 30.6704 30.0593 29.4559 30.663C29.2729 30.7559 29.1232 30.8178 29.1065 30.8178C29.0899 30.8178 29.1564 30.663 29.2563 30.4772C29.6556 29.6878 29.7055 28.9292 29.406 28.0779C29.223 27.5515 28.8403 26.9169 28.075 25.8488C27.16 24.6104 26.9437 24.2853 26.7108 23.8364Z" fill="white"/>
<path d="M14.3162 28.5728C15.5473 27.613 17.0613 26.9319 18.4588 26.7152C19.0577 26.6223 20.0559 26.6533 20.6049 26.7926C21.4867 27.0093 22.2853 27.4737 22.7012 28.0465C23.1005 28.6037 23.2835 29.0836 23.4665 30.1517C23.533 30.5697 23.6162 31.0031 23.6329 31.096C23.766 31.6533 24.0322 32.0867 24.3649 32.3189C24.8806 32.675 25.779 32.6904 26.6608 32.3808C26.8105 32.3344 26.9436 32.288 26.9436 32.3034C26.9769 32.3344 26.5277 32.613 26.2282 32.7524C25.8123 32.9536 25.4796 33.0155 25.0304 33.0155C24.2318 33.0155 23.5497 32.6285 23.0007 31.8545C22.8842 31.6997 22.6513 31.2508 22.4516 30.8328C21.8694 29.579 21.5699 29.2075 20.8878 28.7895C20.2888 28.4335 19.5235 28.3561 18.9412 28.6192C18.1759 28.9598 17.9763 29.8731 18.5087 30.4304C18.725 30.6626 19.1243 30.8483 19.457 30.8948C20.0726 30.9722 20.6049 30.5233 20.6049 29.9505C20.6049 29.579 20.4552 29.3623 20.0559 29.192C19.5235 28.9753 18.9412 29.2229 18.9579 29.7028C18.9579 29.9041 19.0577 30.0279 19.274 30.1208C19.4071 30.1827 19.4071 30.1827 19.3073 30.1672C18.8248 30.0743 18.7083 29.5171 19.091 29.161C19.5568 28.7276 20.5384 28.9133 20.8711 29.5171C21.0042 29.7647 21.0209 30.2601 20.9044 30.5697C20.6216 31.2508 19.823 31.6068 19.0078 31.4056C18.4588 31.2663 18.2259 31.127 17.5604 30.4923C16.3958 29.3777 15.9466 29.161 14.2829 28.9288L13.9668 28.8824L14.3162 28.5728Z" fill="white"/>
<path fill-rule="evenodd" clip-rule="evenodd" d="M5.5664 3.66563C9.44281 8.04644 15.4155 14.8576 15.7149 15.2291C15.9645 15.5387 15.8647 15.8328 15.4487 16.0495C15.2158 16.1734 14.7334 16.2972 14.5004 16.2972C14.2343 16.2972 13.9181 16.1734 13.7019 15.9721C13.5521 15.8328 12.9033 14.9505 11.4392 12.8297C10.3246 11.2043 9.37626 9.85759 9.35962 9.84211C9.29308 9.81115 9.29308 9.81115 11.3228 13.1858C12.6038 15.3065 13.0198 16.065 13.0198 16.1579C13.0198 16.3591 12.9532 16.4675 12.687 16.7461C12.2378 17.2105 12.0382 17.7368 11.8884 18.8359C11.7221 20.0588 11.2729 20.9257 9.99183 22.3963C9.24316 23.2632 9.12671 23.418 8.9437 23.774C8.71078 24.2074 8.64423 24.4551 8.61096 25.0124C8.57769 25.6006 8.64423 25.9721 8.82724 26.5294C8.99361 27.0248 9.17662 27.3498 9.62581 27.9845C10.0085 28.5418 10.2414 28.9598 10.2414 29.1145C10.2414 29.2384 10.2747 29.2384 10.8736 29.1145C12.3044 28.805 13.4856 28.2786 14.1344 27.6285C14.5337 27.226 14.6335 27.0093 14.6335 26.452C14.6335 26.096 14.6169 26.0186 14.5171 25.8019C14.3507 25.4613 14.0346 25.1827 13.3525 24.7492C12.4541 24.1765 12.0714 23.7121 11.9716 23.0929C11.8884 22.5666 11.9883 22.2105 12.4874 21.2353C13.0031 20.2291 13.1362 19.8111 13.2194 18.7895C13.2693 18.1393 13.3525 17.8762 13.5521 17.6749C13.7684 17.4582 13.9514 17.3808 14.4672 17.3189C15.3157 17.2105 15.8647 17.0093 16.2972 16.6223C16.6799 16.2972 16.8463 15.9721 16.8629 15.4923L16.8795 15.1362L16.6632 14.9195C15.8813 14.0836 5.05065 3 5.00074 3C4.9841 3 5.25029 3.29412 5.5664 3.66563ZM10.6739 25.678C10.8569 25.3839 10.7571 25.0124 10.4577 24.8266C10.1748 24.6563 9.74227 24.7337 9.74227 24.9659C9.74227 25.0279 9.77555 25.0898 9.87537 25.1207C10.0251 25.1981 10.0417 25.2755 9.92528 25.4458C9.80882 25.6161 9.80882 25.7709 9.95855 25.8793C10.1915 26.0495 10.5076 25.9567 10.6739 25.678Z" fill="white"/>
<path fill-rule="evenodd" clip-rule="evenodd" d="M17.4108 17.5359C17.0115 17.6442 16.6289 18.0467 16.5124 18.4492C16.4459 18.6969 16.4792 19.1458 16.5956 19.2851C16.7786 19.5018 16.945 19.5638 17.4108 19.5638C18.3259 19.5638 19.1078 19.1922 19.191 18.7433C19.2742 18.3718 18.9248 17.861 18.4423 17.6288C18.1928 17.5049 17.677 17.4585 17.4108 17.5359ZM18.4756 18.3099C18.6087 18.1241 18.5588 17.9229 18.3092 17.7836C17.86 17.5204 17.1779 17.7371 17.1779 18.1396C17.1779 18.3408 17.5273 18.5576 17.86 18.5576C18.0763 18.5576 18.3758 18.4337 18.4756 18.3099Z" fill="white"/>
</g>
<defs>
<clipPath id="clip0_156_566">
<rect width="42" height="42" rx="21" fill="white"/>
</clipPath>
</defs>
</svg>
