<svg width="42" height="42" viewBox="0 0 42 42" fill="none" xmlns="http://www.w3.org/2000/svg">
<path opacity="0.4" d="M21 42C32.598 42 42 32.598 42 21C42 9.40202 32.598 0 21 0C9.40202 0 0 9.40202 0 21C0 32.598 9.40202 42 21 42Z" fill="white"/>
<path d="M34.2465 8.81402L33.0933 9.96723C38.7978 16.2061 38.7978 25.7624 33.0933 32.0013L34.2465 33.1545C40.593 26.2698 40.593 15.6718 34.2465 8.78711V8.81402Z" fill="#5A5564"/>
<path d="M9.99457 8.91407C16.2335 3.20952 25.7897 3.20952 32.0286 8.91407L33.1818 7.76086C26.2972 1.41435 15.6991 1.41435 8.81445 7.76086L9.99457 8.91407Z" fill="#5A5564"/>
<path d="M8.91432 32.0136C3.21745 25.7786 3.21745 16.2261 8.91432 9.9911L7.76111 8.83789C1.41459 15.7226 1.41459 26.3206 7.76111 33.2053L8.91432 32.0136Z" fill="#5A5564"/>
<path d="M32.0132 33.0781C25.7743 38.7827 16.218 38.7827 9.97914 33.0781L8.82593 34.2313C15.7106 40.5779 26.3086 40.5779 33.1933 34.2313L32.0132 33.0781Z" fill="#5A5564"/>
<path d="M28.2807 17.1521C28.05 14.7457 25.9742 13.9385 23.3488 13.6925V10.3789H21.3191V13.631H19.6969V10.3789H17.6826V13.7155H13.5657V15.8874C13.5657 15.8874 15.0648 15.8605 15.0418 15.8874C15.603 15.8259 16.1143 16.218 16.195 16.7792V25.9127C16.1835 26.1049 16.0951 26.2817 15.949 26.4086C15.8068 26.5354 15.6184 26.6008 15.4262 26.5854C15.4531 26.6085 13.9501 26.5854 13.9501 26.5854L13.5657 29.011H17.6442V32.4014H19.6739V29.0609H21.296V32.386H23.3295V29.034C26.7584 28.8265 29.1494 27.9808 29.4493 24.771C29.6914 22.1878 28.4767 21.0346 26.5355 20.5695C27.7156 19.989 28.446 18.9127 28.2807 17.1521ZM25.4361 24.3712C25.4361 26.8929 21.1154 26.6046 19.7392 26.6046V22.1301C21.1154 22.134 25.4361 21.7381 25.4361 24.3712ZM24.4943 18.067C24.4943 20.3734 20.8886 20.0928 19.743 20.0928V16.0258C20.8886 16.0258 24.4943 15.6645 24.4943 18.067Z" fill="#F09242"/>
<path d="M20.9962 42C9.39868 41.9962 0 32.5936 0 20.9962C0 9.39868 9.40637 0 21.0038 0C32.5975 0 41.9962 9.40252 42 20.9962C42 32.5936 32.6013 41.9962 21.0038 42H20.9962ZM20.9962 1.63756C10.3097 1.64525 1.65294 10.3174 1.66063 21.0038C1.66831 31.6903 10.3405 40.3471 21.0269 40.3394C31.7057 40.3317 40.3586 31.6749 40.3624 20.9962C40.3663 10.3097 31.7057 1.64141 21.0192 1.63756C21.0115 1.63756 21.0038 1.63756 20.9962 1.63756Z" fill="#282138"/>
</svg>
