<svg width="42" height="42" viewBox="0 0 42 42" fill="none" xmlns="http://www.w3.org/2000/svg">
<g clip-path="url(#clip0_156_384)">
<path d="M21 42C32.598 42 42 32.598 42 21C42 9.40202 32.598 0 21 0C9.40202 0 0 9.40202 0 21C0 32.598 9.40202 42 21 42Z" fill="#F5F5F5"/>
<path d="M16.7282 32.8035C22.7606 32.8035 22.7606 32.7136 23.7835 32.41C25.1202 32.0132 20.0095 28.4756 16.7282 28.4756C13.4469 28.4756 10.7869 29.4444 10.7869 30.6395C10.7869 31.8346 13.447 32.8035 16.7282 32.8035Z" fill="black"/>
<path d="M30.4262 14.4015L30.7036 14.7006L30.4611 15.0285C22.5936 25.6659 18.0615 30.4822 16.1386 29.8362C14.9673 29.4428 13.7927 28.2594 12.618 26.5412C12.2052 25.9372 11.8174 25.3013 11.4648 24.6684C11.23 24.2469 11.0313 23.8626 10.9281 23.6461C10.7964 23.3699 10.7408 23.1998 10.6968 22.9763C10.6941 22.9626 10.6941 22.9626 10.6915 22.9495C10.6731 22.8546 10.6667 22.8246 10.653 22.7728C10.4162 21.8806 10.2952 20.9562 10.2952 20.0162C10.2952 14.095 15.0953 9.29492 21.0165 9.29492C22.8715 9.29492 24.6592 9.76704 26.2434 10.6533L26.2843 10.6789C27.5814 11.5819 28.9611 12.8228 30.4262 14.4015ZM25.7422 11.5C24.309 10.7029 22.6941 10.2785 21.0165 10.2785C15.6385 10.2785 11.2788 14.6382 11.2788 20.0162C11.2788 20.8708 11.3887 21.7104 11.6037 22.5205C11.6249 22.6007 11.6346 22.6459 11.6571 22.7621C11.6595 22.7743 11.6595 22.7743 11.6618 22.7859C11.6902 22.9301 11.7202 23.022 11.816 23.2228C11.9101 23.4203 12.0993 23.7862 12.3241 24.1896C12.663 24.7979 13.0354 25.4088 13.43 25.9861C14.4913 27.5385 15.5438 28.5988 16.4518 28.9038C17.6628 29.3106 22.2216 24.4847 29.4262 14.7731C28.1182 13.3925 26.8895 12.3014 25.7422 11.5Z" fill="black"/>
<path d="M25.7423 11.4998C24.309 10.7027 22.6941 10.2783 21.0165 10.2783C15.6385 10.2783 11.2788 14.638 11.2788 20.016C11.2788 20.8706 11.3888 21.7102 11.6037 22.5203C11.625 22.6004 11.6346 22.6457 11.6571 22.7619C11.6595 22.7741 11.6595 22.7741 11.6618 22.7857C11.6902 22.9299 11.7203 23.0218 11.816 23.2226C11.9101 23.4201 12.0993 23.786 12.3241 24.1894C12.663 24.7977 13.0354 25.4086 13.4301 25.9859C14.4913 27.5383 15.5438 28.5986 16.4518 28.9036C17.6628 29.3104 22.2217 24.4845 29.4262 14.7729C28.1182 13.3923 26.8895 12.3012 25.7423 11.4998Z" fill="#EC1C79"/>
<path d="M22.9838 32.7043C17.0625 32.7043 12.2625 27.9042 12.2625 21.983C12.2625 16.0618 17.0625 11.2617 22.9838 11.2617C28.905 11.2617 33.7051 16.0618 33.7051 21.983C33.7051 27.9042 28.905 32.7043 22.9838 32.7043ZM22.9838 31.7207C28.3617 31.7207 32.7215 27.361 32.7215 21.983C32.7215 16.605 28.3617 12.2453 22.9838 12.2453C17.6058 12.2453 13.2461 16.605 13.2461 21.983C13.2461 27.361 17.6058 31.7207 22.9838 31.7207Z" fill="black"/>
<path d="M22.9838 31.7215C28.3618 31.7215 32.7215 27.3618 32.7215 21.9838C32.7215 16.6058 28.3618 12.2461 22.9838 12.2461C17.6058 12.2461 13.2461 16.6058 13.2461 21.9838C13.2461 27.3618 17.6058 31.7215 22.9838 31.7215Z" fill="white"/>
<path fill-rule="evenodd" clip-rule="evenodd" d="M15.6996 23.9783L14.4106 20.095H15.5398L16.2118 22.3258L16.9554 20.084H17.8753L18.6189 22.3258L19.2909 20.095H20.3981L19.1091 23.9783H18.1783L17.4016 21.7585L16.6304 23.9783H15.6996ZM20.8222 23.9507V20.095H23.9233V21.0039H21.8798V21.5877H23.7305V22.4305H21.8798V23.0419H23.9508V23.9507H20.8222ZM25.4381 23.9507V21.0314H24.2813V20.095H27.6634V21.0314H26.5066V23.9507H25.4381ZM28.1316 23.9507V20.095H29.2002V21.5381H30.5717V20.095H31.6403V23.9507H30.5717V22.4856H29.2002V23.9507H28.1316Z" fill="black"/>
<path d="M10.934 18.9352C10.6619 18.7992 10.5516 18.4683 10.6877 18.1962C10.8237 17.9241 11.1546 17.8138 11.4267 17.9499L13.0004 18.7368C13.2725 18.8728 13.3828 19.2037 13.2468 19.4758C13.1107 19.7479 12.7799 19.8581 12.5078 19.7221L10.934 18.9352Z" fill="black"/>
<path d="M10.7528 21.5442C10.4765 21.4168 10.356 21.0895 10.4834 20.8133C10.6109 20.5371 10.9382 20.4165 11.2144 20.544L12.7882 21.2703C13.0644 21.3978 13.1849 21.725 13.0575 22.0012C12.93 22.2775 12.6027 22.398 12.3265 22.2706L10.7528 21.5442Z" fill="black"/>
</g>
<defs>
<clipPath id="clip0_156_384">
<rect width="42" height="42" fill="white"/>
</clipPath>
</defs>
</svg>
