<svg width="24" height="24" viewBox="0 0 24 24" fill="none" xmlns="http://www.w3.org/2000/svg">
<path d="M3.37002 10.6715C2.06725 10.6715 1 9.61158 1 8.30144V3.37002C1 2.05989 2.05989 1 3.37002 1H8.32352C9.6263 1 10.6935 2.05989 10.6935 3.37002V8.30144C10.6935 9.60422 9.63366 10.6715 8.32352 10.6715H3.37002ZM3.37002 2.82536C3.06089 2.82536 2.82536 3.06825 2.82536 3.37002V8.30144C2.82536 8.61057 3.06825 8.8461 3.37002 8.8461H8.32352C8.63265 8.8461 8.86818 8.60321 8.86818 8.30144V3.37002C8.86818 3.06089 8.62529 2.82536 8.32352 2.82536H3.37002Z" fill="#101010"/>
<path d="M15.6765 10.6715C14.3737 10.6715 13.3065 9.61158 13.3065 8.30144V3.37002C13.3065 2.06725 14.3663 1 15.6765 1H20.63C21.9328 1 23 2.05989 23 3.37002V8.30144C23 9.60422 21.9401 10.6715 20.63 10.6715H15.6765ZM15.6765 2.82536C15.3673 2.82536 15.1318 3.06825 15.1318 3.37002V8.30144C15.1318 8.61057 15.3747 8.8461 15.6765 8.8461H20.63C20.9391 8.8461 21.1746 8.60321 21.1746 8.30144V3.37002C21.1746 3.06089 20.9318 2.82536 20.63 2.82536H15.6765Z" fill="#101010"/>
<path d="M3.37002 23C2.06725 23 1 21.9401 1 20.63V15.6986C1 14.3958 2.05989 13.3285 3.37002 13.3285H8.32352C9.6263 13.3285 10.6935 14.3884 10.6935 15.6986V20.63C10.6935 21.9401 9.63366 23 8.32352 23H3.37002ZM3.37002 15.1465C3.06089 15.1465 2.82536 15.3894 2.82536 15.6912V20.6226C2.82536 20.9317 3.06825 21.1673 3.37002 21.1673H8.32352C8.63265 21.1673 8.86818 20.9244 8.86818 20.6226V15.6912C8.86818 15.3821 8.62529 15.1465 8.32352 15.1465H3.37002Z" fill="#101010"/>
<path d="M15.6765 23C14.3737 23 13.3065 21.9401 13.3065 20.63V15.6986C13.3065 14.3958 14.3663 13.3285 15.6765 13.3285H20.63C21.9328 13.3285 23 14.3884 23 15.6986V16.8909C23 17.3988 22.5878 17.811 22.08 17.811C21.5721 17.811 21.1599 17.3988 21.1599 16.8909V15.6986C21.1599 15.3894 20.917 15.1539 20.6153 15.1539H15.6618C15.3526 15.1539 15.1171 15.3968 15.1171 15.6986V20.63C15.1171 20.9391 15.36 21.1746 15.6618 21.1746H20.6153C20.9244 21.1746 21.1599 20.9318 21.1599 20.63V19.8498C21.1599 19.3419 21.5721 18.9297 22.08 18.9297C22.5878 18.9297 23 19.3419 23 19.8498V20.63C23 21.9401 21.9401 23 20.63 23H15.6765Z" fill="#101010"/>
</svg>
