<svg width="24" height="24" viewBox="0 0 24 24" fill="none" xmlns="http://www.w3.org/2000/svg">
<path d="M19.0751 13.9684C18.0104 13.9684 17.0528 14.4346 16.3945 15.1731L14.905 14.2732C15.1806 13.6481 15.334 12.9574 15.334 12.2315C15.334 10.85 14.7793 9.59591 13.8813 8.67934L16.004 5.97765C16.3423 6.12979 16.7169 6.21517 17.1113 6.21517C18.6054 6.21517 19.8211 4.99959 19.8211 3.50539C19.8211 2.01119 18.6055 0.795647 17.1114 0.795647C15.6172 0.795647 14.4016 2.01123 14.4016 3.50543C14.4016 3.69858 14.4223 3.88695 14.4609 4.06876C14.5472 4.4754 14.7252 4.84829 14.9719 5.16547L12.8494 7.86689C12.0897 7.41364 11.2025 7.15275 10.2554 7.15275C8.96931 7.15275 7.7936 7.63349 6.89787 8.42444L5.60442 7.29381C5.72898 7.01576 5.79884 6.70812 5.79884 6.38433C5.79884 6.2252 5.78181 6.07 5.74999 5.92019C5.53575 4.91105 4.63805 4.15156 3.56607 4.15156C2.33486 4.15156 1.33325 5.15317 1.33325 6.38433C1.33325 7.6155 2.33486 8.61715 3.56607 8.61715C3.99643 8.61715 4.39856 8.49442 4.73985 8.28264L6.03286 9.41283C5.49238 10.2198 5.17673 11.1895 5.17673 12.2316C5.17673 13.6518 5.76299 14.9375 6.7059 15.8601L5.09804 17.9988C4.77364 17.8612 4.41711 17.785 4.04312 17.785C2.54897 17.785 1.33334 19.0005 1.33334 20.4947C1.33334 21.989 2.54888 23.2044 4.04308 23.2044C5.53728 23.2044 6.75287 21.9888 6.75287 20.4946C6.75287 20.317 6.73519 20.1436 6.70245 19.9754C6.61601 19.532 6.42138 19.127 6.14691 18.7892L7.75482 16.6505C8.49348 17.0701 9.34693 17.3102 10.2555 17.3102C11.86 17.3102 13.2929 16.562 14.2243 15.3965L15.7139 16.2964C15.5656 16.6897 15.4838 17.1153 15.4838 17.5599C15.4838 17.7952 15.5072 18.0251 15.5506 18.248C15.8726 19.9002 17.3302 21.1513 19.0752 21.1513C21.0555 21.1513 22.6666 19.5402 22.6666 17.5599C22.6666 15.5795 21.0555 13.9684 19.0751 13.9684ZM17.1114 2.10905C17.8813 2.10905 18.5077 2.73544 18.5077 3.50543C18.5077 4.27542 17.8814 4.90182 17.1114 4.90182C16.3414 4.90182 15.715 4.27538 15.715 3.50543C15.715 2.73548 16.3414 2.10905 17.1114 2.10905ZM3.56602 7.30361C3.05903 7.30361 2.64665 6.89115 2.64665 6.38425C2.64665 5.87729 3.05907 5.46492 3.56602 5.46492C4.07297 5.46492 4.48539 5.87734 4.48539 6.38425C4.48543 6.89115 4.07302 7.30361 3.56602 7.30361ZM4.04299 21.8909C3.27305 21.8909 2.64661 21.2645 2.64661 20.4945C2.64661 19.7246 3.273 19.0981 4.04299 19.0981C4.81294 19.0981 5.43938 19.7245 5.43938 20.4945C5.43933 21.2645 4.81294 21.8909 4.04299 21.8909ZM10.2554 15.9967C8.17914 15.9967 6.49009 14.3076 6.49009 12.2315C6.49009 10.1553 8.17923 8.46615 10.2554 8.46615C12.3315 8.46615 14.0206 10.1553 14.0206 12.2315C14.0206 14.3076 12.3315 15.9967 10.2554 15.9967ZM19.0752 19.8379C17.8191 19.8379 16.7972 18.8159 16.7972 17.5598C16.7972 16.3038 17.8191 15.2818 19.0752 15.2818C20.3313 15.2818 21.3532 16.3038 21.3532 17.5598C21.3532 18.8159 20.3313 19.8379 19.0752 19.8379Z" fill="#101010" stroke="#101010" stroke-width="0.5"/>
</svg>
