<svg width="20" height="22" viewBox="0 0 20 22" fill="none" xmlns="http://www.w3.org/2000/svg">
<path fill-rule="evenodd" clip-rule="evenodd" d="M19.2787 2.27728V22C17.6148 20.5391 15.9078 18.9922 14.1578 17.3594L14.7602 19.4219H2.2377C1.63525 19.4219 1.11168 19.1999 0.667008 18.7559C0.222336 18.3118 0 17.7747 0 17.1445V2.27734C0 1.64716 0.222336 1.11005 0.667008 0.666016C1.11168 0.221985 1.63525 0 2.2377 0H17.041C17.6434 0 18.167 0.221985 18.6117 0.666016C19.0563 1.11005 19.2787 1.64716 19.2787 2.27728ZM7.65984 9.23828C7.34427 9.23828 7.07173 9.35284 6.84222 9.58203C6.6414 9.81122 6.54099 10.0977 6.54099 10.4414C6.54099 10.7852 6.64858 11.0788 6.86374 11.3223C7.0789 11.5657 7.34427 11.6875 7.65984 11.6875C7.97542 11.6875 8.24079 11.5657 8.45595 11.3223C8.67111 11.0788 8.7787 10.7852 8.7787 10.4414C8.7787 10.0977 8.67111 9.81122 8.45595 9.58203C8.24079 9.35284 7.97542 9.23828 7.65984 9.23828ZM12.458 11.3223C12.6732 11.0788 12.7807 10.7852 12.7807 10.4414C12.7807 10.0977 12.666 9.81122 12.4365 9.58203C12.2357 9.35284 11.9775 9.23828 11.6619 9.23828C11.5185 9.23828 11.375 9.26691 11.2316 9.32422C11.0881 9.38153 10.9662 9.46747 10.8658 9.58203C10.7654 9.69659 10.6865 9.8255 10.6291 9.96875C10.5717 10.112 10.543 10.2695 10.543 10.4414C10.543 10.6706 10.5933 10.8782 10.6937 11.0645C10.7941 11.2507 10.9303 11.4011 11.1025 11.5156C11.2746 11.6302 11.4611 11.6875 11.6619 11.6875C11.9775 11.6875 12.2428 11.5657 12.458 11.3223ZM15.75 9.51752C16.0082 10.5917 16.1373 11.6445 16.1373 12.6757L16.0082 12.8476C15.9508 12.9622 15.8289 13.0983 15.6424 13.2558C15.4559 13.4133 15.2408 13.5709 14.9969 13.7285C14.7531 13.886 14.4375 14.0292 14.0502 14.1581C13.6629 14.287 13.2398 14.3515 12.7807 14.3515L12.0492 13.4921C12.9959 13.2057 13.6557 12.7617 14.0287 12.1601C13.627 12.4465 13.2111 12.6614 12.7807 12.8046C11.5471 13.2916 10.335 13.485 9.14446 13.3847C7.95389 13.2844 6.8709 12.9622 5.89549 12.4179L5.80943 12.3749C5.75205 12.3463 5.6875 12.3105 5.61578 12.2675C5.54406 12.2245 5.47951 12.1887 5.42213 12.1601L5.59426 12.3749C5.70902 12.5468 5.93135 12.7402 6.26127 12.955C6.59119 13.1699 6.95697 13.3346 7.35861 13.4492C7.15779 13.7356 6.91394 14.0364 6.62705 14.3515C5.90984 14.3515 5.26434 14.194 4.69057 13.8788C4.1168 13.5637 3.75102 13.3203 3.59324 13.1484C3.43545 12.9765 3.32787 12.819 3.27049 12.6757C3.27049 11.6445 3.42111 10.5631 3.72233 9.43158C4.02356 8.30005 4.26025 7.5481 4.43238 7.17572C4.60451 6.80334 4.74795 6.50256 4.8627 6.27338C5.92418 5.49994 6.95697 5.11322 7.96106 5.11322L8.04713 5.24213C6.72746 5.64319 5.7664 6.13013 5.16394 6.70306L5.80943 6.35931C7.04303 5.81506 8.40574 5.55725 9.89755 5.58588C11.3894 5.6145 12.7664 5.98694 14.0287 6.70306L13.7705 6.48822C13.5984 6.34497 13.2828 6.15161 12.8238 5.90814C12.3648 5.66467 11.8627 5.45697 11.3176 5.2851L11.4467 5.11322H11.6189C11.7336 5.11322 11.8914 5.1347 12.0922 5.17767C12.293 5.22064 12.5154 5.27795 12.7592 5.34955C13.0031 5.42114 13.29 5.53577 13.6199 5.6933C13.9498 5.85083 14.2582 6.04419 14.5451 6.27338L14.9324 7.08978C15.2193 7.63403 15.4918 8.4433 15.75 9.51752Z" fill="#595959"/>
</svg>
