<svg width="20" height="20" viewBox="0 0 20 20" fill="none" xmlns="http://www.w3.org/2000/svg">
<path d="M9.63934 0C14.9632 0 19.2787 4.41788 19.2787 9.86852C19.2787 14.2277 16.5199 17.9256 12.6921 19.2317C12.2034 19.3289 12.0299 19.0209 12.0299 18.7582C12.0299 18.4328 12.0415 17.3702 12.0415 16.0497C12.0415 15.1295 11.733 14.5289 11.387 14.2229C13.5336 13.9784 15.7892 13.1439 15.7892 9.35358C15.7892 8.27558 15.4152 7.39585 14.7964 6.70478C14.8966 6.45549 15.2273 5.4516 14.7019 4.09255C14.7019 4.09255 13.8942 3.82786 12.054 5.10414C11.2838 4.88565 10.4587 4.77593 9.63934 4.77208C8.82 4.77593 7.99584 4.88565 7.22662 5.10414C5.38454 3.82786 4.57483 4.09255 4.57483 4.09255C4.05142 5.4516 4.38205 6.45549 4.48133 6.70478C3.86538 7.39585 3.48848 8.27558 3.48848 9.35358C3.48848 13.1343 5.73927 13.9813 7.88016 14.2306C7.60448 14.477 7.35482 14.912 7.26807 15.5502C6.71862 15.8023 5.32285 16.2383 4.46302 14.7301C4.46302 14.7301 3.95309 13.782 2.9853 13.7127C2.9853 13.7127 2.04547 13.7002 2.91976 14.3124C2.91976 14.3124 3.55113 14.6156 3.98972 15.7561C3.98972 15.7561 4.55555 17.5175 7.23722 16.9208C7.24204 17.7456 7.25071 18.5233 7.25071 18.7582C7.25071 19.019 7.07335 19.3241 6.59235 19.2327C2.76167 17.9285 0 14.2286 0 9.86852C0 4.41788 4.3165 0 9.63934 0Z" fill="#595959"/>
</svg>
