<svg width="52" height="45" viewBox="0 0 52 45" fill="none" xmlns="http://www.w3.org/2000/svg">
<path d="M26 0C17.628 0 6.76172 2.09766 6.76172 2.09766L6.73438 2.12891C2.92133 2.73873 0 6.01525 0 10V22V22.0039V34V34.0039C0.00372091 35.907 0.68574 37.7464 1.9236 39.1919C3.16145 40.6373 4.87406 41.5942 6.75391 41.8906L6.76172 41.9023C6.76172 41.9023 17.628 44.0039 26 44.0039C34.372 44.0039 45.2383 41.9023 45.2383 41.9023L45.2422 41.8984C47.1241 41.6026 48.8386 40.645 50.0775 39.1978C51.3163 37.7506 51.998 35.9089 52 34.0039V34V22.0039V22V10C51.9972 8.09626 51.3156 6.25591 50.0777 4.80962C48.8397 3.36333 47.1266 2.4059 45.2461 2.10938L45.2383 2.09766C45.2383 2.09766 34.372 0 26 0ZM20 12.7969L36 22L20 31.2031V12.7969Z" fill="#595959"/>
</svg>
