<svg width="89" height="89" viewBox="0 0 89 89" fill="none" xmlns="http://www.w3.org/2000/svg">
<circle cx="44.2225" cy="44.2225" r="44.2225" fill="white"/>
<g clip-path="url(#clip0_5672_17335)">
<path d="M43.9972 51.1557L27.5929 41.6182L27.1447 42.3183C22.0919 50.2079 23.2206 60.5387 29.8577 67.1584C37.6675 74.9475 50.3306 74.9475 58.1422 67.1584C64.7793 60.5387 65.908 50.2061 60.8552 42.3183L60.407 41.6182L43.9972 51.1557Z" fill="url(#paint0_radial_5672_17335)"/>
<path opacity="0.6" d="M44.0193 29.8506L29.8779 38.081L44.0193 46.3002L58.1496 38.081L44.0193 29.8506Z" fill="url(#paint1_radial_5672_17335)"/>
<path d="M44.0377 31.9971L27.606 41.6203L44.0011 51.1634L60.4109 41.6184L44.0377 31.9971Z" fill="url(#paint2_radial_5672_17335)"/>
<path d="M44.0193 16.0107L29.8779 38.0801L44.0193 46.2993V16.0107Z" fill="url(#paint3_linear_5672_17335)"/>
<path d="M44.0176 46.3016L58.1607 38.0805L44.0194 16V46.3016H44.0176Z" fill="url(#paint4_linear_5672_17335)"/>
</g>
<defs>
<radialGradient id="paint0_radial_5672_17335" cx="0" cy="0" r="1" gradientUnits="userSpaceOnUse" gradientTransform="translate(44.2079 73.1528) rotate(-90) scale(27.1926 34.915)">
<stop offset="0.2" stop-color="#56F2FF"/>
<stop offset="1" stop-color="#4A8CEA"/>
</radialGradient>
<radialGradient id="paint1_radial_5672_17335" cx="0" cy="0" r="1" gradientUnits="userSpaceOnUse" gradientTransform="translate(44.3441 38.0189) rotate(90.1572) scale(8.23186 15.3121)">
<stop stop-color="#EEFF83"/>
<stop offset="0.69" stop-color="#5699EC"/>
</radialGradient>
<radialGradient id="paint2_radial_5672_17335" cx="0" cy="0" r="1" gradientUnits="userSpaceOnUse" gradientTransform="translate(44.3286 41.4409) rotate(90.1572) scale(9.59155 17.7676)">
<stop stop-color="#56F2FF"/>
<stop offset="1" stop-color="#5699EC"/>
</radialGradient>
<linearGradient id="paint3_linear_5672_17335" x1="36.9486" y1="16.0107" x2="36.9486" y2="46.3011" gradientUnits="userSpaceOnUse">
<stop offset="0.38" stop-color="#FFE336"/>
<stop offset="1" stop-color="#13C0B6" stop-opacity="0.7"/>
</linearGradient>
<linearGradient id="paint4_linear_5672_17335" x1="51.0901" y1="16" x2="51.0901" y2="46.3016" gradientUnits="userSpaceOnUse">
<stop offset="0.41" stop-color="#FF7F72"/>
<stop offset="1" stop-color="#2978EF" stop-opacity="0.7"/>
</linearGradient>
<clipPath id="clip0_5672_17335">
<rect width="40" height="57" fill="white" transform="translate(24 16)"/>
</clipPath>
</defs>
</svg>
