<svg width="89" height="89" viewBox="0 0 89 89" fill="none" xmlns="http://www.w3.org/2000/svg">
<g clip-path="url(#clip0_5568_11721)">
<path d="M18.3834 41.9645C18.3834 41.4702 18.4779 40.9831 18.6741 40.5252C18.8631 40.0672 19.1394 39.6529 19.4883 39.304C19.8372 38.9551 20.2515 38.6789 20.7095 38.4899C21.1674 38.3009 21.6545 38.2064 22.1488 38.2064L28.3929 38.2282C29.3887 38.2282 30.341 38.6207 31.0461 39.3258C31.7512 40.0309 32.1437 40.9831 32.1437 41.979V65.5889C32.8488 65.3781 33.7502 65.1601 34.7388 64.9275C35.4221 64.7675 36.0399 64.375 36.4761 63.8226C36.9122 63.2701 37.1521 62.5868 37.1521 61.8817V32.5946C37.1521 31.5988 37.5446 30.6465 38.2497 29.9414C38.9548 29.2363 39.9071 28.8438 40.9029 28.8438H47.1616C48.1575 28.8438 49.1097 29.2363 49.8148 29.9414C50.5199 30.6465 50.9124 31.5988 50.9124 32.5946V59.7737C50.9124 59.7737 52.4753 59.1413 54.0018 58.4943C54.5688 58.2545 55.0558 57.8547 55.3902 57.3386C55.7318 56.8224 55.9136 56.2264 55.9136 55.6085V23.2248C55.9136 22.229 56.3061 21.2767 57.0112 20.5716C57.7163 19.8665 58.6685 19.474 59.6644 19.474H65.9231C66.9189 19.474 67.8712 19.8665 68.5763 20.5716C69.2814 21.2767 69.6739 22.229 69.6739 23.2248V49.9096C75.0966 45.977 80.592 41.2521 84.9607 35.5677C85.5932 34.739 86.0148 33.7722 86.182 32.7473C86.3491 31.7224 86.2619 30.6683 85.9203 29.687C83.8995 23.879 80.6938 18.5508 76.4996 14.0585C72.3053 9.55898 67.217 5.98986 61.5616 3.56926C55.9136 1.1414 49.8148 -0.0725386 43.6652 0.000152066C37.5156 0.0728427 31.4459 1.43216 25.8487 3.9836C20.2515 6.53504 15.2504 10.2277 11.1652 14.8218C7.07998 19.4158 3.99789 24.8167 2.1152 30.6756C0.232517 36.5345 -0.399892 42.7205 0.247055 48.8337C0.894001 54.947 2.81303 60.864 5.87331 66.1995C6.40395 67.1227 7.18901 67.8714 8.13399 68.3585C9.07897 68.8455 10.1403 69.0563 11.2015 68.9618C12.3864 68.86 13.8547 68.7074 15.6066 68.5038C16.3698 68.4166 17.0749 68.0532 17.5838 67.4789C18.0926 66.9046 18.3761 66.1632 18.3761 65.3999V41.9645H18.3834Z" fill="#21325B"/>
<path d="M18.2454 79.8361C24.8384 84.6337 32.6308 87.5123 40.7649 88.1592C48.8917 88.7989 57.0476 87.1852 64.3094 83.4852C71.5785 79.7853 77.6772 74.1445 81.9369 67.188C86.1966 60.2315 88.45 52.2355 88.45 44.0796C88.45 43.0619 88.4064 42.0588 88.3337 41.0557C72.1818 65.1453 42.3641 76.4051 18.2454 79.8361Z" fill="#979695"/>
</g>
<defs>
<clipPath id="clip0_5568_11721">
<rect width="88.45" height="88.2901" fill="white"/>
</clipPath>
</defs>
</svg>
