<svg width="536" height="408" viewBox="0 0 536 408" fill="none" xmlns="http://www.w3.org/2000/svg">
<g clip-path="url(#clip0_674_8169)"  fill="none">
<path d="M151.818 393.643L96.8693 387.827C96.8693 387.827 96.8266 387.827 96.8094 387.818L56.6968 380.323C56.6112 380.306 56.5257 380.306 56.4402 380.323L7.34045 387.784C6.9813 387.836 6.63071 387.639 6.511 387.296C5.2027 383.792 -1.35591 365.161 1.70534 352.484C4.85211 339.42 16.7893 322.091 18.4396 319.744C18.5593 319.573 18.7475 319.462 18.9527 319.427L52.7205 314.365C52.9514 314.331 53.1481 314.194 53.2678 313.996L71.7893 282.773C71.8406 282.688 71.909 282.611 71.9945 282.542L123.061 245.143C123.061 245.143 123.095 245.117 123.104 245.109L149.672 222.263C149.672 222.263 149.697 222.246 149.706 222.229L156.059 216.07C157.658 214.519 160.352 215.128 161.087 217.235C162.13 220.19 163.02 224.336 162.019 228.413C160.275 235.532 155.521 243.147 154.948 244.046C154.913 244.106 154.862 244.158 154.811 244.201L142.395 255.328C142.352 255.371 142.309 255.414 142.275 255.465L119.145 289.506C119.068 289.626 119.016 289.763 119.016 289.909L118.854 293.781C118.837 294.081 119.008 294.363 119.281 294.5L143.771 306.69C143.891 306.75 144.037 306.775 144.173 306.767L210.811 301.653C210.922 301.644 211.042 301.61 211.136 301.55L242.937 283.056C242.989 283.022 243.048 283.005 243.1 282.988C244.177 282.662 254.917 279.501 260.749 280.161C264.759 280.615 267.692 283.296 269.249 285.112C269.993 285.977 269.839 287.296 268.907 287.956L222.594 321.081C222.509 321.141 222.423 321.183 222.321 321.201L190.289 328.704C189.434 328.901 187.604 333.553 188.485 333.613L230.154 332.979C230.299 332.987 230.444 332.962 230.564 332.893C233.335 331.403 265.204 314.322 274.285 313.834C280.767 313.483 286.659 316.335 289.745 318.177C290.9 318.871 291.028 320.49 289.985 321.346L275.747 333.047" fill="#FFDCB1"/>
<path d="M151.818 393.643L96.8693 387.827C96.8693 387.827 96.8266 387.827 96.8094 387.818L56.6968 380.323C56.6112 380.306 56.5257 380.306 56.4402 380.323L7.34045 387.784C6.9813 387.836 6.63071 387.639 6.511 387.296C5.2027 383.792 -1.35591 365.161 1.70534 352.484C4.85211 339.42 16.7893 322.091 18.4396 319.744C18.5593 319.573 18.7475 319.462 18.9527 319.427L52.7205 314.365C52.9514 314.331 53.1481 314.194 53.2678 313.996L71.7893 282.773C71.8406 282.688 71.909 282.611 71.9945 282.542L123.061 245.143C123.061 245.143 123.095 245.117 123.104 245.109L149.672 222.263C149.672 222.263 149.697 222.246 149.706 222.229L156.059 216.07C157.658 214.519 160.352 215.128 161.087 217.235C162.13 220.19 163.02 224.336 162.019 228.413C160.275 235.532 155.521 243.147 154.948 244.046C154.913 244.106 154.862 244.158 154.811 244.201L142.395 255.328C142.352 255.371 142.309 255.414 142.275 255.465L119.145 289.506C119.068 289.626 119.016 289.763 119.016 289.909L118.854 293.781C118.837 294.081 119.008 294.363 119.281 294.5L143.771 306.69C143.891 306.75 144.037 306.775 144.173 306.767L210.811 301.653C210.922 301.644 211.042 301.61 211.136 301.55L242.937 283.056C242.989 283.022 243.048 283.005 243.1 282.988C244.177 282.662 254.917 279.501 260.749 280.161C264.759 280.615 267.692 283.296 269.249 285.112C269.993 285.977 269.839 287.296 268.907 287.956L222.594 321.081C222.509 321.141 222.423 321.183 222.321 321.201L190.289 328.704C189.434 328.901 187.604 333.553 188.485 333.613L230.154 332.979C230.299 332.987 230.444 332.962 230.564 332.893C233.335 331.403 265.204 314.322 274.285 313.834C280.767 313.483 286.659 316.335 289.745 318.177C290.9 318.871 291.028 320.49 289.985 321.346L275.747 333.047" stroke="#101010" stroke-width="0.5" stroke-miterlimit="10"/>
<path d="M158.65 373.839C158.65 373.839 160.172 371.046 162.567 369.616C164.593 368.399 166.714 368.177 166.714 368.177C167.295 367.765 169.638 369.179 168.886 369.993" fill="#FFDCB1"/>
<path d="M158.65 373.839C158.65 373.839 160.172 371.046 162.567 369.616C164.593 368.399 166.714 368.177 166.714 368.177C167.295 367.765 169.638 369.179 168.886 369.993" stroke="#101010" stroke-width="0.5" stroke-miterlimit="10"/>
<path d="M175.607 352.21L212.35 352.681" stroke="#101010" stroke-width="0.5" stroke-miterlimit="10" stroke-linecap="round"/>
<path d="M186.415 328.721C186.415 328.721 184.406 324.721 187.133 322.425L186.415 328.721Z" fill="#FFDCB1"/>
<path d="M186.415 328.721C186.415 328.721 184.406 324.721 187.133 322.425" stroke="#101010" stroke-width="0.5" stroke-miterlimit="10"/>
<path d="M222.757 298.98C222.757 298.98 220.44 301.927 220.85 304.934L222.757 298.98Z" fill="#FFDCB1"/>
<path d="M222.757 298.98C222.757 298.98 220.44 301.927 220.85 304.934" stroke="#101010" stroke-width="0.5" stroke-miterlimit="10"/>
<path d="M180.669 345.22C180.669 345.22 180.472 348.723 176.052 350.137L180.669 345.22Z" fill="#FFDCB1"/>
<path d="M180.669 345.22C180.669 345.22 180.472 348.723 176.052 350.137" stroke="#101010" stroke-width="0.5" stroke-miterlimit="10"/>
<path d="M171.725 360.142C171.725 360.142 168.261 362.446 168.68 365.555L171.725 360.142Z" fill="#FFDCB1"/>
<path d="M171.725 360.142C171.725 360.142 168.261 362.446 168.68 365.555" stroke="#101010" stroke-width="0.5" stroke-miterlimit="10"/>
<path d="M251.411 313.645C251.411 313.645 249.12 316.806 250.368 319.513L251.411 313.645Z" fill="#FFDCB1"/>
<path d="M251.411 313.645C251.411 313.645 249.12 316.806 250.368 319.513" stroke="#101010" stroke-width="0.5" stroke-miterlimit="10"/>
<path d="M16.6182 369.273C16.6182 369.273 15.6263 374.593 19.5768 377.248L16.6182 369.273Z" fill="#FFDCB1"/>
<path d="M16.6182 369.273C16.6182 369.273 15.6263 374.593 19.5768 377.248" stroke="#101010" stroke-width="0.5" stroke-miterlimit="10"/>
<path d="M12.3171 367.526C12.3171 367.526 11.7271 376.94 15.3185 380.28L12.3171 367.526Z" fill="#FFDCB1"/>
<path d="M12.3171 367.526C12.3171 367.526 11.7271 376.94 15.3185 380.28" stroke="#101010" stroke-width="0.5" stroke-miterlimit="10"/>
<path d="M45.5034 318.973C45.5034 318.973 36.3196 324.893 28.3159 325.252L45.5034 318.973Z" fill="#FFDCB1"/>
<path d="M45.5034 318.973C45.5034 318.973 36.3196 324.893 28.3159 325.252" stroke="#101010" stroke-width="0.5" stroke-miterlimit="10"/>
<path d="M234.378 278.687C234.378 278.687 230.179 282.371 232.565 286.697L234.378 278.687Z" fill="#FFDCB1"/>
<path d="M234.378 278.687C234.378 278.687 230.179 282.371 232.565 286.697" stroke="#101010" stroke-width="0.5" stroke-miterlimit="10"/>
<path d="M232.001 349.357L244.579 342.667C244.579 342.667 252.506 334.392 258.346 332.593C267.573 329.758 272.592 333.75 276.697 334.838C277.56 335.069 277.86 336.14 277.235 336.782L268.163 346.188L242.629 364.605L212.265 375.895" fill="#FFDCB1"/>
<path d="M232.001 349.357L244.579 342.667C244.579 342.667 252.506 334.392 258.346 332.593C267.573 329.758 272.592 333.75 276.697 334.838C277.56 335.069 277.86 336.14 277.235 336.782L268.163 346.188L242.629 364.605L212.265 375.895" stroke="#101010" stroke-width="0.5" stroke-miterlimit="10" stroke-linecap="round"/>
<path d="M168.757 369.941L196.505 365.521C196.625 365.504 196.736 365.453 196.839 365.384L212.983 353.76C216.113 351.507 219.738 350.059 223.552 349.545C228.127 348.792 232.266 352.021 234.395 354.094C235.233 354.916 235.147 356.287 234.224 357.015L197.13 385.797C197.027 385.874 196.916 385.925 196.788 385.943L152.032 393.635C151.963 393.643 151.895 393.652 151.818 393.635" fill="#FFDCB1"/>
<path d="M168.757 369.941L196.505 365.521C196.625 365.504 196.736 365.453 196.839 365.384L212.983 353.76C216.113 351.507 219.738 350.059 223.552 349.545C228.127 348.792 232.266 352.021 234.395 354.094C235.233 354.916 235.147 356.287 234.224 357.015L197.13 385.797C197.027 385.874 196.916 385.925 196.788 385.943L152.032 393.635C151.963 393.643 151.895 393.652 151.818 393.635" stroke="#101010" stroke-width="0.5" stroke-miterlimit="10"/>
<path opacity="0.6" d="M225.604 318.211L222.201 320.644L220.739 320.969L220.046 321.038C218.994 321.526 218.413 321.475 217.814 321.595C215.566 322.04 214.514 322.117 211.777 322.682C202.414 324.644 190.537 327.831 189.4 327.719C187.159 327.497 193.205 323.214 195.283 322.34C197.985 321.218 204.073 320.13 209.383 319.333C213.932 318.648 216.395 313.628 214.155 309.611L210.084 302.304L211.17 302.218L214.685 300.188C214.685 300.188 216.284 302.758 218.635 306.707C221.149 310.93 224.134 315.821 224.134 315.821L225.596 318.202L225.604 318.211Z" fill="#EBC28E"/>
<path opacity="0.53" d="M175.102 362.377C172.922 362.926 166.312 368.545 168.458 369.222C170.211 369.778 182.268 366.463 191.811 365.769C194.804 365.547 195.873 365.221 197.258 364.305C199.464 362.848 199.943 362.634 199.575 361.761C199.122 360.673 180.678 360.981 175.102 362.377Z" fill="#EBC28E"/>
<path opacity="0.53" d="M118.555 294.62C117.212 293.601 119.914 288.924 117.785 289.669C116.725 290.046 107.789 298.706 114.613 305.413C116.083 306.861 119.658 307.769 121.317 307.812C124.241 307.898 144.387 308.626 144.028 307.743C143.575 306.655 122.685 297.755 118.555 294.612V294.62Z" fill="#EBC28E"/>
<path opacity="0.32" d="M108.097 335.729C101.239 332.379 105.472 318.571 103.248 321.971C102.633 322.914 75.2523 334.752 82.076 341.468C83.5468 342.915 106.532 348.8 111.551 349.76C118.153 351.027 144.148 357.7 144.319 356.758C145.781 348.509 112.962 338.101 108.097 335.72V335.729Z" fill="#EBC28E"/>
<path d="M175.179 200.274C174.068 202.518 173.187 204.823 172.52 207.153C168.364 221.766 172.828 237.459 183.739 247.696C186.561 250.342 189.818 252.63 193.461 254.428C201.08 258.206 209.34 259.465 217.156 258.326L245.494 254.017L340.701 239.532L386.833 232.517L419.13 227.608L423.679 226.914L425.467 226.64C425.672 226.606 425.886 226.563 426.099 226.52C427.373 226.281 428.639 225.972 429.896 225.587C440.32 222.529 449.478 215.273 454.677 204.746C459.662 194.655 460.047 183.485 456.652 173.625C453.309 163.937 446.297 155.5 436.403 150.591C428.143 146.497 419.156 145.503 410.759 147.156L203.295 178.525L203.312 178.594C191.529 181.001 180.942 188.641 175.196 200.274H175.179Z" fill="#FFDCB1" stroke="#101010" stroke-width="0.5" stroke-miterlimit="10"/>
<path d="M213.163 183.896L410.16 153.983L418.951 152.647C419.122 152.647 419.284 152.647 419.455 152.647C424.5 152.63 429.614 153.752 434.437 156.142C451.068 164.382 457.892 184.573 449.657 201.233C447.417 205.773 444.279 209.585 440.585 212.566C436.882 215.53 432.598 217.672 428.066 218.871L424.825 219.376L413.777 221.09L357.435 229.81L341.248 232.32L242.091 247.67L218.464 251.328L215.788 251.739H215.719C214.933 251.833 214.137 251.893 213.342 251.919C207.929 252.124 202.397 251.019 197.206 248.441C192.016 245.862 188.194 242.487 185.115 238.333C177.856 228.516 176.205 215.059 181.986 203.349C186.655 193.892 195.12 187.408 204.654 185.249" fill="#FDF1DF"/>
<path d="M213.163 183.896L410.16 153.983L418.951 152.647C419.122 152.647 419.284 152.647 419.455 152.647C424.5 152.63 429.614 153.752 434.437 156.142C451.068 164.382 457.892 184.573 449.657 201.233C447.417 205.773 444.279 209.585 440.585 212.566C436.882 215.53 432.598 217.672 428.066 218.871L424.825 219.376L413.777 221.09L357.435 229.81L341.248 232.32L242.091 247.67L218.464 251.328L215.788 251.739H215.719C214.933 251.833 214.137 251.893 213.342 251.919C207.929 252.124 202.397 251.019 197.206 248.441C192.016 245.862 188.194 242.487 185.115 238.333C177.856 228.516 176.205 215.059 181.986 203.349C186.655 193.892 195.12 187.408 204.654 185.249" stroke="#101010" stroke-width="0.5" stroke-miterlimit="10" stroke-linecap="round"/>
<path d="M425.467 226.64L426.1 226.537V226.512C425.886 226.563 425.672 226.597 425.467 226.632V226.64Z" stroke="#101010" stroke-width="0.5" stroke-miterlimit="10"/>
<path d="M172.529 207.153C173.195 204.823 174.076 202.518 175.188 200.274C180.934 188.641 191.52 180.992 203.304 178.593L203.286 178.525L410.75 147.156C419.148 145.503 428.135 146.497 436.395 150.591C446.297 155.5 453.3 163.937 456.644 173.625C461.885 155.225 453.446 135.13 435.711 126.341C427.451 122.246 418.463 121.253 410.066 122.906L267.41 144.475L253.224 146.617L233.121 149.657L202.594 154.275L202.611 154.343C190.828 156.75 180.241 164.391 174.495 176.024C169.51 186.114 169.125 197.285 172.52 207.144L172.529 207.153Z" fill="#EBC28E" stroke="#101010" stroke-width="0.5" stroke-miterlimit="10"/>
<path d="M184.012 180.204C190.922 169.137 203.774 165.316 214.599 163.106L214.582 163.038L405.269 134.204C412.991 132.68 421.243 133.596 428.836 137.357" stroke="#101010" stroke-width="0.5" stroke-miterlimit="10" stroke-linecap="round"/>
<path d="M410.391 132.945L396.727 45.5375C396.641 44.9722 396.111 44.5867 395.547 44.6724L378.53 47.3278C377.966 47.4135 377.581 47.9446 377.667 48.5099L391.254 135.823" fill="#FDF1DF"/>
<path d="M410.391 132.945L396.727 45.5375C396.641 44.9722 396.111 44.5867 395.547 44.6724L378.53 47.3278C377.966 47.4135 377.581 47.9446 377.667 48.5099L391.254 135.823" stroke="#101010" stroke-width="0.5" stroke-miterlimit="10"/>
<path d="M384.311 136.766L365.73 17.3725C365.644 16.8071 365.114 16.4217 364.55 16.5073L346.781 19.2827C346.216 19.3684 345.831 19.8995 345.917 20.4648L364.498 139.858" fill="#FFF8F3"/>
<path d="M384.311 136.766L365.73 17.3725C365.644 16.8071 365.114 16.4217 364.55 16.5073L346.781 19.2827C346.216 19.3684 345.831 19.8995 345.917 20.4648L364.498 139.858" stroke="#101010" stroke-width="0.5" stroke-miterlimit="10"/>
<path d="M357.871 140.903L348.542 80.9666C348.456 80.4013 347.926 80.0158 347.362 80.1014L329.345 82.9111C328.781 82.9968 328.396 83.5279 328.481 84.0932L337.811 144.03" fill="#FFE4DF"/>
<path d="M357.871 140.903L348.542 80.9666C348.456 80.4013 347.926 80.0158 347.362 80.1014L329.345 82.9111C328.781 82.9968 328.396 83.5279 328.481 84.0932L337.811 144.03" stroke="#101010" stroke-width="0.5" stroke-miterlimit="10"/>
<path d="M432.701 41.1089C443.917 41.1089 453.009 32.0005 453.009 20.7646C453.009 9.5288 443.917 0.420349 432.701 0.420349C421.485 0.420349 412.392 9.5288 412.392 20.7646C412.392 32.0005 421.485 41.1089 432.701 41.1089Z" fill="#FFE4DF"/>
<path d="M304.812 99.1265C315.315 99.1265 323.83 90.5972 323.83 80.0757C323.83 69.5542 315.315 61.0249 304.812 61.0249C294.309 61.0249 285.795 69.5542 285.795 80.0757C285.795 90.5972 294.309 99.1265 304.812 99.1265Z" fill="#DFFCF8"/>
<path opacity="0.85" d="M297.741 305.233C305.377 305.233 311.567 299.032 311.567 291.382C311.567 283.732 305.377 277.531 297.741 277.531C290.104 277.531 283.914 283.732 283.914 291.382C283.914 299.032 290.104 305.233 297.741 305.233Z" fill="#DFFCF8"/>
<path opacity="0.6" d="M377.769 382.859C389.165 382.859 398.403 373.605 398.403 362.189C398.403 350.773 389.165 341.519 377.769 341.519C366.374 341.519 357.136 350.773 357.136 362.189C357.136 373.605 366.374 382.859 377.769 382.859Z" fill="#FF664D"/>
<path opacity="0.6" d="M361.103 129.099C369.694 129.099 376.658 122.123 376.658 113.517C376.658 104.912 369.694 97.9359 361.103 97.9359C352.513 97.9359 345.549 104.912 345.549 113.517C345.549 122.123 352.513 129.099 361.103 129.099Z" fill="#FF664D"/>
<path d="M228.264 119.034L234.797 160.151L254.874 156.947L248.341 115.83C247.674 111.633 244.545 108.455 240.663 107.521C239.406 107.221 238.063 107.153 236.704 107.367C235.233 107.598 233.882 108.147 232.71 108.918C231.676 109.594 230.786 110.459 230.068 111.444C228.537 113.56 227.811 116.241 228.255 119.025L228.264 119.034Z" fill="#FFF8F3" stroke="#101010" stroke-width="0.5" stroke-miterlimit="10"/>
<path d="M230.384 94.2867L232.71 108.935C233.873 108.164 235.233 107.615 236.703 107.384C238.063 107.17 239.406 107.23 240.663 107.538L238.354 93.019L230.384 94.2867Z" fill="#D6D6D6" stroke="#101010" stroke-width="0.5" stroke-miterlimit="10"/>
<path d="M183.012 56.1851C186.903 80.6925 209.888 97.3962 234.352 93.4987C258.816 89.5926 275.491 66.5671 271.6 42.0683C267.709 17.5524 244.724 0.848647 220.251 4.74618C195.787 8.64372 179.113 31.6692 183.003 56.1851H183.012ZM221.739 12.8068C241.637 9.63738 260.338 23.2231 263.494 43.1562C266.658 63.0893 253.096 81.8232 233.198 84.9926C213.308 88.1621 194.607 74.5678 191.443 54.6432C188.279 34.7101 201.841 15.9762 221.739 12.8068Z" fill="#FFDCB1" stroke="#101010" stroke-width="0.5" stroke-miterlimit="10"/>
<path d="M191.443 54.6432C194.616 74.5764 213.308 88.162 233.198 84.9926C253.096 81.8232 266.666 63.0893 263.494 43.1562C260.33 23.2231 241.637 9.63737 221.739 12.8068C201.841 15.9762 188.279 34.7101 191.443 54.6432Z" stroke="#101010" stroke-width="0.5" stroke-miterlimit="10"/>
<path d="M191.443 54.6432C194.616 74.5764 213.308 88.162 233.198 84.9926C253.096 81.8232 266.666 63.0893 263.494 43.1562C260.33 23.2231 241.637 9.63737 221.739 12.8068C201.841 15.9762 188.279 34.7101 191.443 54.6432Z" fill="#B7F7EE" stroke="#101010" stroke-width="0.5" stroke-miterlimit="10"/>
<path d="M314.843 377.419L240.859 254.737L217.147 258.326C209.332 259.465 201.072 258.206 193.453 254.428C189.81 252.621 186.552 250.334 183.73 247.696L274.046 397.464L276.62 401.738L277.15 402.612L277.321 402.895" fill="white"/>
<path d="M314.843 377.419L240.859 254.737L217.147 258.326C209.332 259.465 201.072 258.206 193.453 254.428C189.81 252.621 186.552 250.334 183.73 247.696L274.046 397.464L276.62 401.738L277.15 402.612L277.321 402.895" stroke="#261611" stroke-width="0.5" stroke-linecap="round" stroke-linejoin="round"/>
<path d="M340.692 239.532L339.324 265.624C339.059 270.824 343.044 275.261 348.234 275.535L375.067 276.948C380.258 277.214 384.687 273.222 384.952 268.023L386.816 232.517L340.684 239.532H340.692ZM352.168 247.533C352.245 246.119 353.45 245.032 354.861 245.1L371.912 245.991C373.323 246.068 374.409 247.276 374.34 248.689L373.682 261.367L351.501 260.202L352.168 247.524V247.533Z" fill="#FF664D" stroke="#101010" stroke-width="0.5" stroke-miterlimit="10"/>
<path d="M351.449 315.89L355.81 322.76C355.939 322.965 356.161 323.094 356.409 323.111L359.992 323.299C360.265 323.316 360.53 323.179 360.676 322.939L367.303 312.163C367.448 311.924 367.448 311.624 367.303 311.384L364.874 307.281C364.686 306.972 364.763 306.57 365.045 306.347L367.696 304.197C367.859 304.069 367.953 303.871 367.961 303.666L368.055 301.799C368.072 301.55 367.953 301.31 367.747 301.165L364.652 298.989C364.447 298.843 364.327 298.603 364.344 298.355L364.455 296.188C364.481 295.759 364.695 295.374 365.037 295.126L367.987 293.027C368.329 292.779 368.551 292.393 368.568 291.965L369.364 276.751L353.399 275.912L351.33 315.444C351.33 315.598 351.364 315.753 351.449 315.89Z" fill="#EDEDED" stroke="#101010" stroke-width="0.5" stroke-miterlimit="10"/>
<path d="M373.682 261.375L373.229 270.13" stroke="#101010" stroke-width="0.5" stroke-miterlimit="10" stroke-linecap="round"/>
<path d="M366.405 260.99L366.089 266.986" stroke="#101010" stroke-width="0.5" stroke-miterlimit="10" stroke-linecap="round"/>
<path d="M351.509 260.211L351.056 268.965" stroke="#101010" stroke-width="0.5" stroke-miterlimit="10" stroke-linecap="round"/>
<path d="M361.907 282.739L360.402 311.521C360.402 311.641 360.3 311.727 360.18 311.727C360.18 311.727 358.726 311.787 358.247 311.761C357.683 311.735 356.016 311.512 356.016 311.512C355.81 311.504 355.733 311.238 355.904 311.127C356.665 310.613 357.974 309.439 358.709 307.178C359.804 303.829 361.899 282.748 361.899 282.748L361.907 282.739Z" fill="#101010"/>
<path d="M483.1 317.389L482.998 317.483L505.008 341.845L505.102 341.759C511.472 348.817 522.366 349.357 529.404 342.967C536.45 336.585 536.997 325.672 530.61 318.622L508.958 294.654C508.839 294.517 508.719 294.38 508.591 294.26C503.34 288.787 495.277 287.528 488.735 290.697L497.081 299.931C500.963 298.8 505.307 299.811 508.283 302.921C508.368 302.998 508.445 303.092 508.522 303.169L522.614 318.768C526.762 323.359 526.411 330.452 521.828 334.606C517.244 338.761 510.164 338.41 506.017 333.818L505.957 333.87L491.634 318.014L491.703 317.954C488.821 314.562 488.299 309.911 490.035 306.056L481.749 296.882C477.722 303.126 478.106 311.478 483.109 317.372L483.1 317.389Z" fill="#FDF3EE" stroke="#261611" stroke-width="0.5" stroke-linecap="round" stroke-linejoin="round"/>
<path d="M491.694 317.971L491.626 318.031L505.948 333.887L506.008 333.835C510.156 338.427 517.236 338.778 521.819 334.624C526.402 330.469 526.753 323.376 522.606 318.785L508.514 303.186C508.437 303.109 508.36 303.015 508.274 302.938C505.299 299.837 500.955 298.818 497.073 299.948L498.826 301.893C499.681 302.835 500.083 304.06 500.014 305.259C499.954 306.458 499.441 307.632 498.492 308.489C496.594 310.21 493.627 310.065 491.908 308.163L490.027 306.082C488.291 309.928 488.812 314.588 491.694 317.98V317.971Z" stroke="#101010" stroke-width="0.5" stroke-miterlimit="10"/>
<path d="M491.694 317.971L491.626 318.031L505.948 333.887L506.008 333.835C510.156 338.427 517.236 338.778 521.819 334.624C526.402 330.469 526.753 323.376 522.606 318.785L508.514 303.186C508.437 303.109 508.36 303.015 508.274 302.938C505.299 299.837 500.955 298.818 497.073 299.948L498.826 301.893C499.681 302.835 500.083 304.06 500.014 305.259C499.954 306.458 499.441 307.632 498.492 308.489C496.594 310.21 493.627 310.065 491.908 308.163L490.027 306.082C488.291 309.928 488.812 314.588 491.694 317.98V317.971Z" stroke="#101010" stroke-width="0.5" stroke-miterlimit="10"/>
<path d="M435.6 231.908L443.954 241.151C447.828 240.012 452.18 241.031 455.147 244.132C455.233 244.209 455.318 244.303 455.395 244.389L469.479 259.979C472.454 263.269 473.104 267.851 471.557 271.706L479.398 280.383C483.297 274.036 482.724 265.624 477.482 259.825L455.831 235.866C455.712 235.729 455.592 235.592 455.464 235.472C450.205 229.998 442.141 228.739 435.6 231.908Z" fill="#FDF3EE" stroke="#261611" stroke-width="0.5" stroke-linecap="round" stroke-linejoin="round"/>
<path d="M429.973 258.583L429.87 258.686L451.881 283.048L451.975 282.962C457.311 288.864 465.802 290.209 472.566 286.739L464.776 278.131C460.688 279.518 455.977 278.448 452.89 275.038L452.83 275.098L438.507 259.243L438.575 259.183C435.685 255.79 435.163 251.131 436.908 247.293L428.613 238.11C424.594 244.355 424.971 252.707 429.973 258.592V258.583Z" fill="#FDF3EE" stroke="#261611" stroke-width="0.5" stroke-linecap="round" stroke-linejoin="round"/>
<path d="M438.567 259.174L438.498 259.234L452.821 275.09L452.881 275.03C455.968 278.448 460.68 279.51 464.767 278.122L462.8 275.946C461.937 274.995 461.543 273.779 461.603 272.58C461.663 271.381 462.176 270.207 463.125 269.342C465.023 267.62 467.991 267.766 469.709 269.667L471.548 271.698C473.096 267.834 472.446 263.26 469.47 259.971L455.387 244.38C455.31 244.295 455.224 244.201 455.139 244.124C452.171 241.023 447.819 240.003 443.945 241.143L445.656 243.036C446.519 243.995 446.913 245.211 446.853 246.402C446.793 247.601 446.28 248.766 445.331 249.64C443.432 251.362 440.465 251.216 438.746 249.315L436.908 247.284C435.163 251.122 435.685 255.782 438.575 259.174H438.567Z" stroke="#101010" stroke-width="0.5" stroke-miterlimit="10"/>
<path d="M438.567 259.174L438.498 259.234L452.821 275.09L452.881 275.03C455.968 278.448 460.68 279.51 464.767 278.122L462.8 275.946C461.937 274.995 461.543 273.779 461.603 272.58C461.663 271.381 462.176 270.207 463.125 269.342C465.023 267.62 467.991 267.766 469.709 269.667L471.548 271.698C473.096 267.834 472.446 263.26 469.47 259.971L455.387 244.38C455.31 244.295 455.224 244.201 455.139 244.124C452.171 241.023 447.819 240.003 443.945 241.143L445.656 243.036C446.519 243.995 446.913 245.211 446.853 246.402C446.793 247.601 446.28 248.766 445.331 249.64C443.432 251.362 440.465 251.216 438.746 249.315L436.908 247.284C435.163 251.122 435.685 255.782 438.575 259.174H438.567Z" stroke="#101010" stroke-width="0.5" stroke-miterlimit="10"/>
<path d="M508.599 294.26H508.591C508.719 294.389 508.839 294.526 508.959 294.663L508.599 294.26Z" stroke="#101010" stroke-width="0.5" stroke-miterlimit="10"/>
<path d="M463.142 269.35C462.193 270.216 461.672 271.389 461.62 272.58C461.569 273.77 461.954 274.995 462.817 275.946L491.925 308.154C493.644 310.056 496.611 310.202 498.509 308.48C499.458 307.615 499.98 306.441 500.031 305.251C500.091 304.051 499.698 302.835 498.834 301.884L469.727 269.676C468.008 267.774 465.041 267.629 463.142 269.35Z" fill="#FDF3EE" stroke="#261611" stroke-width="0.5" stroke-linecap="round" stroke-linejoin="round"/>
<path d="M423.68 226.914L419.13 227.608L428.613 238.102L436.908 247.284L438.746 249.315C440.465 251.216 443.432 251.362 445.331 249.64C446.28 248.766 446.801 247.61 446.853 246.402C446.913 245.211 446.528 243.995 445.656 243.036L443.945 241.143L435.591 231.9L429.879 225.578C428.631 225.955 427.365 226.263 426.082 226.512C425.869 226.563 425.655 226.597 425.45 226.632L423.662 226.906L423.68 226.914Z" fill="#FDF3EE" stroke="#261611" stroke-width="0.5" stroke-linecap="round" stroke-linejoin="round"/>
<path d="M307.189 374.455C305.462 375.655 303.735 376.854 302.008 378.053C301.093 378.687 300.169 379.33 299.459 380.195C298.809 380.991 298.331 381.985 297.441 382.49C296.244 383.167 294.662 382.765 293.448 383.416C292.413 383.964 291.875 385.154 290.934 385.848C289.822 386.671 288.258 386.722 287.206 387.621C286.573 388.161 286.205 388.949 285.667 389.583C283.828 391.75 280.143 392.076 279.014 394.688" stroke="#101010" stroke-width="0.5" stroke-miterlimit="10"/>
<path d="M288.36 342.813C286.428 343.609 284.495 344.397 282.571 345.194C282.058 345.408 281.528 345.622 281.109 345.982C280.04 346.89 279.86 348.458 279.074 349.623C276.739 353.092 270.54 351.481 268.026 354.822C267.573 355.422 267.282 356.15 266.795 356.724C266.376 357.221 265.828 357.598 265.29 357.957C263.665 359.054 262.032 360.159 260.407 361.255" stroke="#101010" stroke-width="0.5" stroke-miterlimit="10"/>
<path d="M284.247 335.96C280.639 335.651 276.927 337.433 274.918 340.457C274.277 341.425 273.789 342.504 273.011 343.369C270.198 346.487 264.563 345.742 262.006 349.074C261.638 349.554 261.356 350.102 260.937 350.539C259.962 351.559 258.449 351.815 257.055 352.013" stroke="#101010" stroke-width="0.5" stroke-miterlimit="10"/>
<path d="M281.494 329.681C279.245 328.302 276.192 328.833 274.08 330.409C271.968 331.985 270.643 334.418 269.736 336.902C269.428 337.733 269.146 338.624 268.496 339.232C267.162 340.491 265.033 340.02 263.229 340.354C261.245 340.714 259.612 342.093 258.09 343.421C256.551 344.757 255.02 346.093 253.481 347.421" stroke="#101010" stroke-width="0.5" stroke-miterlimit="10"/>
<path d="M275.841 321.894C272.652 321.877 269.873 324.036 267.624 326.297C265.366 328.567 263.229 331.129 260.279 332.345C257.833 333.356 254.738 333.518 253.258 335.72C252.762 336.457 252.523 337.339 252.001 338.058C251.044 339.369 249.35 339.857 247.786 340.268" stroke="#101010" stroke-width="0.5" stroke-miterlimit="10"/>
<path d="M249.282 278.902C246.623 280.855 245.058 284.118 242.193 285.754C239.97 287.022 237.294 287.125 234.882 287.982C232.172 288.949 229.829 290.911 228.409 293.412C227.853 294.38 227.434 295.434 226.75 296.325C225.228 298.295 222.688 299.109 220.311 299.828" stroke="#101010" stroke-width="0.5" stroke-miterlimit="10"/>
<path d="M245.776 272.023C244.938 273.514 244.075 275.038 242.766 276.143C239.252 279.099 233.403 278.328 230.436 281.823C229.059 283.45 228.589 285.72 227.135 287.279C226.075 288.418 224.604 289.061 223.176 289.669C221.038 290.577 218.909 291.494 216.771 292.402" stroke="#101010" stroke-width="0.5" stroke-miterlimit="10"/>
<path d="M241.458 265.821C240.885 269.059 237.644 271.081 234.557 272.186C231.47 273.291 228.067 274.002 225.707 276.28C223.501 278.405 222.44 281.711 219.755 283.176C217.831 284.221 215.3 284.178 213.795 285.772" stroke="#101010" stroke-width="0.5" stroke-miterlimit="10"/>
<path d="M237.867 261.847C236.575 262.361 230.145 264.913 229.153 265.89C227.717 267.286 226.289 268.682 224.852 270.087C224.125 270.798 223.373 271.526 222.466 271.989C221.543 272.46 220.491 272.64 219.482 272.897C216.087 273.762 211.547 275.758 209.127 278.302" stroke="#101010" stroke-width="0.5" stroke-miterlimit="10"/>
<path d="M229.304 307.451L242.472 329.275C243.034 330.206 244.243 330.505 245.172 329.942L266.958 316.751C267.888 316.188 268.186 314.977 267.624 314.045L254.456 292.221C253.894 291.29 252.685 290.991 251.755 291.554L229.969 304.746C229.04 305.308 228.742 306.52 229.304 307.451Z" stroke="#101010" stroke-width="0.5" stroke-miterlimit="10"/>
<path d="M258.868 300.445C258.868 300.445 259.193 308.574 254.276 311.692C249.359 314.81 245.845 306.304 241.603 309.037C237.362 311.769 239.226 318.245 237.49 319.796" stroke="#101010" stroke-width="0.5" stroke-miterlimit="10"/>
<path d="M364.84 356.39L361.043 352.929" stroke="#101010" stroke-width="0.5" stroke-miterlimit="10" stroke-linecap="round"/>
<path d="M353.955 346.487L314.954 311.033" stroke="#101010" stroke-width="0.5" stroke-miterlimit="10" stroke-linecap="round"/>
<path d="M311.405 307.812L307.608 304.36" stroke="#101010" stroke-width="0.5" stroke-miterlimit="10" stroke-linecap="round"/>
<path d="M297.578 287.81L299.408 283.005" stroke="#101010" stroke-width="0.5" stroke-miterlimit="10" stroke-linecap="round"/>
<path d="M303.76 271.578L310.302 254.437" stroke="#101010" stroke-width="0.5" stroke-miterlimit="10" stroke-linecap="round"/>
<path d="M312.474 248.723L314.304 243.918" stroke="#101010" stroke-width="0.5" stroke-miterlimit="10" stroke-linecap="round"/>
<path d="M261.792 153.701L264.469 149.315" stroke="#101010" stroke-width="0.5" stroke-miterlimit="10" stroke-linecap="round"/>
<path d="M270.677 139.121L292.422 103.427" stroke="#101010" stroke-width="0.5" stroke-miterlimit="10" stroke-linecap="round"/>
<path d="M295.534 98.3299L298.202 93.9441" stroke="#101010" stroke-width="0.5" stroke-miterlimit="10" stroke-linecap="round"/>
<path d="M369.381 100.351L372.502 96.2655" stroke="#101010" stroke-width="0.5" stroke-miterlimit="10" stroke-linecap="round"/>
<path d="M378.795 88.0079L413.444 42.5823" stroke="#101010" stroke-width="0.5" stroke-miterlimit="10" stroke-linecap="round"/>
<path d="M416.599 38.4535L419.712 34.3675" stroke="#101010" stroke-width="0.5" stroke-miterlimit="10" stroke-linecap="round"/>
<path d="M320.597 86.6801L324.676 89.7896" stroke="#101010" stroke-width="0.5" stroke-miterlimit="10" stroke-linecap="round"/>
<path d="M330.842 94.4838L340.085 101.516" stroke="#101010" stroke-width="0.5" stroke-miterlimit="10" stroke-linecap="round"/>
<path d="M343.164 103.864L347.251 106.973" stroke="#101010" stroke-width="0.5" stroke-miterlimit="10" stroke-linecap="round"/>
<path d="M369.637 176.795C362.309 191.64 368.38 209.611 383.191 216.952C398.009 224.293 415.949 218.211 423.278 203.375C430.606 188.53 424.543 170.55 409.724 163.209C394.905 155.868 376.957 161.95 369.629 176.795H369.637Z" stroke="#101010" stroke-width="0.5" stroke-miterlimit="10"/>
<path d="M368.38 201.311L196.027 227.642" stroke="#101010" stroke-width="0.5" stroke-miterlimit="10" stroke-linecap="round"/>
<path d="M231.462 18.4946C249.145 22.8804 240.064 32.6457 226.408 27.9258C221.132 26.1012 214.633 28.8681 213.701 33.5623C212.196 41.126 204.654 40.2866 203.055 37.4341C199.113 30.41 213.778 14.1088 231.462 18.4946Z" fill="#DFFCF8"/>
<path d="M381.027 201.996C380.839 203.204 381.027 204.446 381.583 205.542C382.139 206.639 383.019 207.521 384.114 208.086C385.2 208.643 386.44 208.849 387.646 208.66L403.508 206.142C404.226 206.022 404.919 205.765 405.551 205.388C406.252 204.977 406.843 204.411 407.287 203.735C407.732 203.058 408.005 202.279 408.091 201.473C408.142 200.951 408.134 200.42 408.065 199.897L406.295 188.496C406.962 188.187 407.586 187.793 408.159 187.331C408.766 186.808 408.681 186.894 408.869 186.688C409.553 185.926 410.212 184.941 410.571 183.964C411.041 182.705 411.178 181.352 410.973 180.024C410.656 177.951 409.536 176.092 407.86 174.842C406.184 173.591 404.081 173.051 402.011 173.334L382.147 176.418C380.548 176.666 379.488 178.139 379.702 179.741L382.652 198.809C381.788 199.674 381.224 200.797 381.027 202.004V201.996Z" fill="#FFEEDA"/>
<path d="M411.734 201.747C411.742 202.835 411.34 203.88 410.596 204.668C409.853 205.457 408.835 205.928 407.749 205.971L395.701 206.45C396.641 205.26 397.129 203.769 397.06 202.253C396.949 199.777 395.401 198.141 395.401 198.141L407.381 197.619C408.484 197.576 409.562 197.97 410.383 198.715C411.195 199.46 411.682 200.505 411.725 201.61V201.747H411.734Z" fill="#EBC28E"/>
<path d="M381.523 187.339C380.087 186.089 379.035 184.427 378.941 182.405V182.191C378.889 178.739 381.6 175.844 385.029 175.587L406.937 174.627C407.51 174.627 407.988 175.021 408.014 175.595L408.826 194.149C409.254 194.201 409.673 194.295 410.075 194.423C410.4 194.535 410.708 194.672 411.015 194.826L410.177 175.493C410.066 173.737 408.613 172.383 406.851 172.46L384.952 173.42C382.677 173.557 380.548 174.585 379.018 176.289C377.496 177.985 376.692 180.221 376.794 182.5C376.914 185.266 378.274 187.562 380.403 189.13C380.548 189.232 380.685 189.37 381.061 189.352C381.703 189.327 382.139 188.796 382.087 188.23C382.045 187.768 381.839 187.605 381.532 187.331L381.523 187.339Z" fill="#190602"/>
<path d="M407.287 195.46L390.108 196.214C389.553 196.239 389.031 196.488 388.663 196.899C388.287 197.31 388.099 197.85 388.116 198.407L388.227 200.874C388.313 202.013 389.322 202.955 390.476 202.904L391.75 202.844L391.656 200.72L390.382 200.779L390.279 198.364L390.972 198.33C393.144 198.235 394.82 200.188 394.914 202.347C395 204.257 393.366 206.784 390.442 206.716C387.842 206.656 386.355 204.411 386.278 202.724L385.363 181.746C385.345 181.292 385.14 180.863 384.807 180.555C384.473 180.247 384.029 180.084 383.575 180.101L381.865 180.178L381.959 182.32L383.233 182.26L384.131 202.81C384.251 206.99 387.381 208.969 390.536 208.832L407.843 208.129C409.511 208.035 411.067 207.29 412.187 206.056C413.307 204.823 413.889 203.187 413.82 201.525C413.752 199.863 413.025 198.287 411.802 197.147C410.579 196.008 408.963 195.409 407.296 195.46H407.287ZM411.734 201.756C411.742 202.844 411.34 203.889 410.597 204.677C409.853 205.465 408.835 205.936 407.749 205.979L395.701 206.459C396.641 205.268 397.129 203.778 397.06 202.261C396.949 199.786 395.401 198.15 395.401 198.15L407.381 197.627C408.484 197.584 409.562 197.978 410.383 198.724C411.204 199.469 411.683 200.514 411.725 201.619V201.756H411.734Z" fill="#190602"/>
<path d="M389.022 180.255L401.977 179.69C402.259 179.681 402.533 179.776 402.747 179.973C402.952 180.161 403.08 180.435 403.089 180.718C403.097 181.001 403.003 181.275 402.806 181.489C402.618 181.694 402.345 181.823 402.062 181.831L389.108 182.397L389.014 180.255H389.022Z" fill="#190602"/>
<path d="M389.458 190.363L402.413 189.798C402.695 189.789 402.969 189.883 403.183 190.081C403.388 190.269 403.516 190.543 403.525 190.826C403.533 191.108 403.439 191.383 403.243 191.597C403.055 191.802 402.781 191.931 402.499 191.939L389.544 192.505L389.45 190.363H389.458Z" fill="#190602"/>
<path d="M389.236 185.309L404.465 184.641C404.748 184.633 405.021 184.727 405.235 184.924C405.44 185.112 405.568 185.386 405.577 185.669C405.586 185.952 405.492 186.226 405.295 186.44C405.107 186.646 404.833 186.774 404.551 186.783L389.322 187.451L389.228 185.309H389.236Z" fill="#190602"/>
<path d="M384.661 159.74C384.619 159.783 384.567 159.825 384.516 159.86C377.436 162.378 371.288 167.552 367.696 174.824C367.329 175.57 366.987 176.332 366.687 177.094C366.525 177 366.379 176.889 366.388 176.82C366.619 175.33 366.918 172.589 367.705 170.019C368.338 167.963 366.619 165.959 364.498 166.276L230.094 186.765L384.593 159.483C384.747 159.448 384.79 159.628 384.67 159.731L384.661 159.74Z" fill="#101010"/>
<path d="M186.142 204.077C178.523 219.505 184.833 238.204 200.234 245.837L186.142 204.077Z" fill="#FDF1DF"/>
<path d="M186.142 204.077C178.523 219.505 184.833 238.204 200.234 245.837" stroke="#101010" stroke-width="0.5" stroke-miterlimit="10" stroke-linecap="round"/>
<path d="M185.081 206.647C185.081 206.647 182.336 216.481 188.219 220.713C198.361 228.002 211.795 224.79 211.795 224.79C211.795 224.79 197.805 228.037 195.428 236.517C194.231 240.774 197.557 243.61 197.557 243.61C197.557 243.61 193.53 242.727 191.999 240.346C190.468 237.965 184.594 231.026 184.508 228.268C184.423 225.51 182.413 216.515 182.644 215.205C182.892 213.766 183.67 208.635 184.363 207.238C184.936 206.073 185.09 206.647 185.09 206.647H185.081Z" fill="#101010"/>
<path d="M445.211 208.754C445.211 208.754 450.461 197.893 445.63 191.571C439.773 183.896 426.151 187.082 426.151 187.082C426.151 187.082 425.424 186.354 426.228 186.123C429.417 185.206 438.789 182.868 441.585 177.797C446.913 168.126 444.159 164.16 444.159 164.16C444.159 164.16 448.811 169.693 449.965 172.289C451.12 174.884 453.446 183.185 453.112 185.926C452.779 188.667 450.846 198.629 450.076 199.88C449.008 201.619 447.357 205.859 446.468 207.135C445.724 208.198 445.202 208.754 445.202 208.754H445.211Z" fill="#101010"/>
<path d="M431.113 161.43C431.512 159.585 429.714 157.629 427.097 157.061C424.48 156.493 422.035 157.529 421.636 159.374C421.237 161.218 423.035 163.174 425.652 163.742C428.269 164.31 430.714 163.274 431.113 161.43Z" fill="#101010"/>
<path d="M277.321 402.783L277.15 402.501L276.62 401.627L276.363 401.807L275.602 400.539C274.208 400.47 272.84 401.224 272.182 402.552C271.292 404.342 272.028 406.518 273.824 407.409C275.286 408.129 276.987 407.786 278.056 406.664H278.065L312.979 383.244C314.047 383.039 315.014 382.345 315.535 381.291C316.219 379.912 315.766 378.207 314.783 377.137L314.287 376.785C314.287 376.785 314.193 376.434 314.253 376.434" fill="#FDF1DF"/>
<path d="M277.321 402.783L277.15 402.501L276.62 401.627L276.363 401.807L275.602 400.539C274.208 400.47 272.84 401.224 272.182 402.552C271.292 404.342 272.028 406.518 273.824 407.409C275.286 408.129 276.987 407.786 278.056 406.664H278.065L312.979 383.244C314.047 383.039 315.014 382.345 315.535 381.291C316.219 379.912 315.766 378.207 314.783 377.137L314.287 376.785C314.287 376.785 314.193 376.434 314.253 376.434" stroke="#101010" stroke-width="0.5" stroke-miterlimit="10" stroke-linecap="round"/>
<path d="M192.221 361.581C192.221 361.581 191.033 364.091 193.521 366.129L192.221 361.581Z" fill="#FFDCB1"/>
<path d="M192.221 361.581C192.221 361.581 191.033 364.091 193.521 366.129" stroke="#101010" stroke-width="0.5" stroke-miterlimit="10"/>
<path d="M235.669 111.402C235.301 111.213 235.293 110.691 235.66 110.494C236.498 110.04 237.909 109.723 239.5 109.843C241.928 110.014 243.279 111.522 244.237 113.269C244.767 114.237 246.452 120.953 246.717 122.358C246.828 122.923 246.076 123.214 245.776 122.726C244.648 120.901 243.459 115.385 239.885 112.567C238.363 111.367 236.396 111.779 235.669 111.41V111.402Z" fill="#101010"/>
<path opacity="0.14" d="M411.811 133.596L392.905 135.738L381.968 146.077C381.754 146.282 381.925 146.642 382.216 146.608L399.933 144.415C400.806 144.304 401.609 143.91 402.225 143.284L411.811 133.588V133.596Z" fill="#8C7153"/>
<path opacity="0.14" d="M384.473 137.982L365.567 140.124L354.673 150.428C354.442 150.643 354.622 151.028 354.938 150.985L373.194 148.724C373.673 148.664 374.126 148.441 374.46 148.098L384.465 137.973L384.473 137.982Z" fill="#8C7153"/>
<path opacity="0.14" d="M357.845 141.94L338.939 144.081L327.9 154.523C327.72 154.694 327.857 155.003 328.105 154.968L346.567 152.681C347.045 152.621 347.49 152.399 347.832 152.056L357.845 141.931V141.94Z" fill="#8C7153"/>
<path opacity="0.14" d="M218.31 175.698L234.463 160.511L255.747 157.178L240.517 172.255C241.603 172.751 218.319 175.698 218.319 175.698H218.31Z" fill="#8C7153"/>
<path opacity="0.6" d="M240.962 343.849L231.522 348.886L230.145 350.008L228.281 349.289C227.383 348.946 226.425 348.817 225.468 348.912C224.51 349.006 223.321 349.126 222.441 349.177C220.115 349.306 216.104 351.259 213.719 352.389C212.214 353.109 212.829 352.244 211.427 352.115C209.144 351.91 204.851 352.004 202.064 351.781C192.529 351.027 179.164 352.398 177.505 351.61C175.479 350.633 182.79 345.982 185.021 345.734C189.16 345.28 212.94 344.038 225.587 344.046C228.939 344.046 231.393 340.894 230.573 337.639L229.538 333.536L230.555 333.57L233.796 331.831L240.962 343.841V343.849Z" fill="#EBC28E"/>
<path opacity="0.6" d="M238.893 346.376L239.577 349.151C240.577 353.931 239.354 358.9 236.25 362.66L235.216 363.911C234.805 364.408 234.472 364.964 234.224 365.564L233.463 367.397L242.484 364.065L249.94 358.651L241.646 344.851L238.893 346.367V346.376Z" fill="#EBC28E"/>
<path opacity="0.16" d="M186.304 250.539C186.304 250.539 193.35 255.945 202.346 258.275C211.743 260.707 239.859 255.491 239.859 255.491C239.859 255.491 221.543 262.232 215.822 263.474C206.638 265.47 197.728 263.2 194.325 260.442C191.879 258.454 186.304 250.539 186.304 250.539Z" fill="#8C7153"/>
<path opacity="0.22" d="M423.585 231.754L420.293 228.131L429.751 226.349L432.342 229.167C432.342 229.167 431.341 231.309 428.913 231.874C426.484 232.439 423.594 231.763 423.594 231.763L423.585 231.754Z" fill="#8C7153"/>
<path opacity="0.16" d="M341.368 239.875L386.209 233.27L385.773 239.335L341.154 243.875L341.368 239.875Z" fill="#8C7153"/>
</g>
<defs>
<clipPath id="clip0_674_8169">
<rect width="534.591" height="407.588" fill="white" transform="translate(0.687744 0.411774)"/>
</clipPath>
</defs>
</svg>
