<svg width="33" height="33" viewBox="0 0 33 33" fill="none" xmlns="http://www.w3.org/2000/svg">
<path d="M14.47 32.4099C13.35 32.4099 12.43 31.4999 12.43 30.3699V28.3799C11.68 28.1499 10.95 27.8499 10.26 27.4799L8.86 28.8799C8.48 29.2599 7.96 29.4799 7.42 29.4799C6.88 29.4799 6.37 29.2699 5.98 28.8799L3.53 26.4299C3.15 26.0499 2.93 25.5299 2.93 24.9899C2.93 24.4499 3.14 23.9299 3.53 23.5499L4.93 22.1499C4.56 21.4499 4.26 20.7199 4.03 19.9799H2.04C0.92 19.9799 0 19.0699 0 17.9399V14.4699C0 13.3499 0.91 12.4299 2.04 12.4299H4.03C4.26 11.6799 4.56 10.9499 4.93 10.2599L3.52 8.85994C2.73 8.06994 2.73 6.76994 3.52 5.97994L5.97 3.52994C6.35 3.14994 6.87 2.92994 7.41 2.92994C7.95 2.92994 8.47 3.13994 8.85 3.52994L10.25 4.92994C10.94 4.55994 11.67 4.25994 12.42 4.02994V2.03994C12.42 0.919939 13.33 -6.10352e-05 14.46 -6.10352e-05H17.93C19.05 -6.10352e-05 19.97 0.909939 19.97 2.03994V4.02994C20.72 4.25994 21.45 4.55994 22.14 4.92994L23.54 3.52994C23.92 3.14994 24.44 2.92994 24.98 2.92994C25.52 2.92994 26.04 3.13994 26.42 3.52994L28.87 5.97994C29.66 6.76994 29.66 8.06994 28.87 8.85994L27.46 10.2599C27.83 10.9499 28.13 11.6799 28.36 12.4299H30.35C31.47 12.4299 32.39 13.3399 32.39 14.4699V17.9399C32.39 19.0599 31.48 19.9799 30.35 19.9799H28.36C28.13 20.7299 27.82 21.4599 27.46 22.1499L28.87 23.5499C29.25 23.9299 29.47 24.4499 29.47 24.9899C29.47 25.5299 29.26 26.0399 28.87 26.4299L26.42 28.8799C26.04 29.2599 25.52 29.4799 24.98 29.4799C24.44 29.4799 23.92 29.2699 23.54 28.8799L22.14 27.4799C21.45 27.8499 20.72 28.1499 19.97 28.3799V30.3699C19.97 31.4899 19.06 32.4099 17.93 32.4099H14.46H14.47ZM17.47 29.9099V27.4299C17.47 26.8399 17.87 26.3399 18.45 26.2099C19.6 25.9499 20.69 25.4999 21.68 24.8699C21.88 24.7399 22.11 24.6799 22.35 24.6799C22.68 24.6799 23 24.8099 23.23 25.0499L24.99 26.8099L26.79 25.0099L25.03 23.2499C24.61 22.8299 24.54 22.1899 24.86 21.6999C25.49 20.7099 25.94 19.6199 26.2 18.4699C26.33 17.8899 26.83 17.4899 27.42 17.4899H29.9V14.9499H27.42C26.83 14.9499 26.33 14.5499 26.2 13.9699C25.94 12.8199 25.49 11.7299 24.86 10.7399C24.54 10.2399 24.62 9.59994 25.03 9.18994L26.79 7.42994L24.99 5.62994L23.23 7.38994C22.99 7.62994 22.68 7.75994 22.35 7.75994C22.11 7.75994 21.88 7.68994 21.68 7.56994C20.68 6.93994 19.6 6.48994 18.45 6.22994C17.87 6.09994 17.47 5.59994 17.47 5.00994V2.52994H14.93V5.00994C14.93 5.59994 14.53 6.09994 13.95 6.22994C12.8 6.48994 11.71 6.93994 10.72 7.56994C10.52 7.69994 10.29 7.75994 10.05 7.75994C9.72 7.75994 9.4 7.62994 9.17 7.38994L7.41 5.62994L5.61 7.42994L7.36 9.18994C7.78 9.60994 7.85 10.2499 7.53 10.7399C6.9 11.7399 6.45 12.8299 6.19 13.9699C6.06 14.5499 5.56 14.9499 4.97 14.9499H2.49V17.4899H4.97C5.56 17.4899 6.06 17.8899 6.19 18.4699C6.45 19.6199 6.9 20.7099 7.53 21.6999C7.85 22.1999 7.78 22.8399 7.36 23.2499L5.61 25.0099L7.41 26.8099L9.17 25.0499C9.41 24.8099 9.72 24.6799 10.05 24.6799C10.29 24.6799 10.52 24.7499 10.72 24.8699C11.72 25.4999 12.8 25.9499 13.95 26.2099C14.53 26.3399 14.93 26.8399 14.93 27.4299V29.9099H17.47Z" fill="#101010"/>
<path d="M16.21 24.3399C14.06 24.3399 11.96 23.4699 10.45 21.9599C8.83 20.3399 7.97 18.0899 8.08 15.7999C8.29 11.6899 11.66 8.30994 15.77 8.09994C15.91 8.09994 16.05 8.08994 16.19 8.08994C18.41 8.08994 20.55 9.00994 22.08 10.6099C23.6 12.2099 24.38 14.2999 24.27 16.5099C24.17 18.5599 23.29 20.5699 21.85 22.0199C21.61 22.2599 21.3 22.3899 20.96 22.3899C20.63 22.3899 20.31 22.2599 20.08 22.0299C19.59 21.5399 19.59 20.7499 20.08 20.2599C21.98 18.3399 22.6 14.7699 20.28 12.3399C19.24 11.2499 17.71 10.5999 16.19 10.5999C16.1 10.5999 16 10.5999 15.91 10.5999C13.07 10.7499 10.73 13.0899 10.59 15.9299C10.51 17.5499 11.09 19.0599 12.23 20.1999C13.29 21.2599 14.7 21.8499 16.21 21.8499C16.31 21.8499 16.51 21.8499 16.51 21.8499C17.24 21.8499 17.78 22.3699 17.82 23.0399C17.84 23.3699 17.72 23.6899 17.5 23.9399C17.28 24.1899 16.97 24.3299 16.64 24.3499C16.51 24.3499 16.37 24.3599 16.24 24.3599L16.21 24.3399Z" fill="#101010"/>
</svg>
