<svg width="34" height="17" viewBox="0 0 34 17" fill="none" xmlns="http://www.w3.org/2000/svg">
<path d="M4.29414 12.7044C3.13233 11.5422 2.55142 10.1293 2.55142 8.48854C2.55142 6.84779 3.17789 5.41214 4.29414 4.29552C5.45595 3.13332 6.85695 2.55222 8.50854 2.55222H14.4543C15.1605 2.55222 15.73 1.98251 15.73 1.27608C15.73 0.569644 15.1491 -6.10352e-05 14.4543 -6.10352e-05H8.50854C6.15075 -6.10352e-05 4.14606 0.831708 2.48308 2.49525C0.820101 4.15879 0 6.15275 0 8.49994C0 10.8471 0.831491 12.8525 2.48308 14.516C4.13467 16.1796 6.15075 16.9999 8.49715 16.9999H14.4429C15.1491 16.9999 15.7186 16.4302 15.7186 15.7238C15.7186 15.0174 15.1491 14.4477 14.4429 14.4477H8.54271C6.94807 14.4477 5.41039 13.821 4.28275 12.7044H4.29414Z" fill="#101010"/>
<path d="M11.6864 7.2238H22.3136C23.0198 7.2238 23.5893 7.7935 23.5893 8.49994C23.5893 9.20637 23.0198 9.77608 22.3136 9.77608H11.6864C10.9802 9.77608 10.4107 9.20637 10.4107 8.49994C10.4107 7.7935 10.9802 7.2238 11.6864 7.2238Z" fill="#101010"/>
<path d="M31.5169 2.48385C29.8539 0.820314 27.8606 -6.10352e-05 25.5028 -6.10352e-05H19.5571C18.8509 -6.10352e-05 18.2814 0.569644 18.2814 1.27608C18.2814 1.98251 18.8509 2.55222 19.5571 2.55222H25.4573C27.0519 2.55222 28.5896 3.17889 29.7173 4.29552C30.8791 5.45771 31.46 6.87058 31.46 8.51133C31.46 10.1521 30.8335 11.5877 29.7173 12.7044C28.5554 13.8666 27.1544 14.4477 25.5028 14.4477H19.5571C18.8509 14.4477 18.2814 15.0174 18.2814 15.7238C18.2814 16.4302 18.8509 16.9999 19.5571 16.9999H25.5028C27.8492 16.9999 29.8539 16.1682 31.5169 14.516C33.1799 12.8525 34 10.8585 34 8.49994C34 6.14136 33.1685 4.14739 31.5169 2.48385Z" fill="#101010"/>
</svg>
