<svg width="41" height="41" viewBox="0 0 41 41" fill="none" xmlns="http://www.w3.org/2000/svg">
<path d="M10.4323 27.8788V17.8782C10.4323 17.524 10.5522 17.227 10.792 16.9873C11.0317 16.7478 11.3287 16.6281 11.6828 16.6281C12.0373 16.6281 12.3343 16.7478 12.5737 16.9873C12.8129 17.227 12.9325 17.524 12.9325 17.8782V27.8788C12.9325 28.233 12.8126 28.53 12.5729 28.7697C12.3332 29.0092 12.0362 29.1289 11.682 29.1289C11.3275 29.1289 11.0307 29.0092 10.7915 28.7697C10.5521 28.53 10.4323 28.233 10.4323 27.8788ZM19.5996 27.8788V17.8782C19.5996 17.524 19.7195 17.227 19.9592 16.9873C20.1989 16.7478 20.4959 16.6281 20.8501 16.6281C21.2046 16.6281 21.5014 16.7478 21.7406 16.9873C21.98 17.227 22.0998 17.524 22.0998 17.8782V27.8788C22.0998 28.233 21.9799 28.53 21.7402 28.7697C21.5004 29.0092 21.2035 29.1289 20.8493 29.1289C20.4948 29.1289 20.198 29.0092 19.9588 28.7697C19.7193 28.53 19.5996 28.233 19.5996 27.8788ZM6.71419 34.9626C6.36 34.9626 6.06318 34.8427 5.82372 34.603C5.58398 34.3632 5.46411 34.0663 5.46411 33.7121C5.46411 33.3576 5.58398 33.0608 5.82372 32.8216C6.06318 32.5822 6.36 32.4624 6.71419 32.4624H34.9852C35.3394 32.4624 35.6362 32.5823 35.8756 32.822C36.1154 33.0618 36.2353 33.3587 36.2353 33.7129C36.2353 34.0674 36.1154 34.3642 35.8756 34.6034C35.6362 34.8429 35.3394 34.9626 34.9852 34.9626H6.71419ZM28.7669 27.8788V17.8782C28.7669 17.524 28.8867 17.227 29.1265 16.9873C29.3662 16.7478 29.6632 16.6281 30.0174 16.6281C30.3718 16.6281 30.6686 16.7478 30.9078 16.9873C31.1473 17.227 31.267 17.524 31.267 17.8782V27.8788C31.267 28.233 31.1471 28.53 30.9074 28.7697C30.6677 29.0092 30.3707 29.1289 30.0165 29.1289C29.6621 29.1289 29.3651 29.0092 29.1256 28.7697C28.8864 28.53 28.7669 28.233 28.7669 27.8788ZM35.0493 13.2945H6.53168C6.23499 13.2945 5.98289 13.1909 5.77538 12.9837C5.56787 12.7767 5.46411 12.5252 5.46411 12.2291V11.5782C5.46411 11.3612 5.51842 11.1741 5.62704 11.0169C5.73593 10.8599 5.87928 10.7323 6.05707 10.634L19.5258 4.04394C19.942 3.8431 20.3826 3.74268 20.8476 3.74268C21.3126 3.74268 21.7546 3.8431 22.1735 4.04394L35.5748 10.5923C35.7843 10.6992 35.9466 10.8488 36.0619 11.0411C36.1775 11.2336 36.2353 11.4403 36.2353 11.6611V12.1128C36.2353 12.4539 36.1236 12.7362 35.9002 12.9595C35.6769 13.1829 35.3933 13.2945 35.0493 13.2945ZM11.3745 10.7944H30.3249L21.0743 6.30701C20.9993 6.27478 20.9244 6.25867 20.8497 6.25867C20.775 6.25867 20.7001 6.27478 20.6251 6.30701L11.3745 10.7944Z" fill="#FF684B"/>
</svg>
