<svg width="79" height="32" viewBox="0 0 79 32" fill="none" xmlns="http://www.w3.org/2000/svg">
<g id="monochrome logo on white 1" clip-path="url(#clip0_1573_3885)">
<path id="Vector" d="M69.5748 21.0193L67.3237 13.2581H68.721L70.4282 19.7775L72.2133 13.2581H73.6106L75.3954 19.7775L77.1029 13.2581H78.5002L76.2491 21.0193H74.6193L72.9118 14.8569L71.2047 21.0193H69.5748Z" fill="black"/>
<path id="Vector_2" d="M63.6817 21.2523C61.1204 21.2523 59.8784 19.3896 59.8784 17.1388C59.8784 14.8881 61.1204 13.0254 63.6817 13.0254C66.243 13.0254 67.4846 14.8881 67.4846 17.1388C67.4846 19.3896 66.243 21.2523 63.6817 21.2523ZM61.2757 17.1388C61.2757 19.3896 62.362 20.3209 63.6817 20.3209C65.001 20.3209 66.0877 19.3896 66.0877 17.1388C66.0877 14.8881 65.001 13.9567 63.6817 13.9567C62.362 13.9567 61.2757 14.8881 61.2757 17.1388Z" fill="black"/>
<path id="Vector_3" d="M59.2533 21.0193H57.9341V10.9297H59.2533V21.0193Z" fill="black"/>
<path id="Vector_4" d="M57.1537 21.0193H55.8345V10.9297H57.1537V21.0193Z" fill="black"/>
<path id="Vector_5" d="M51.7277 21.2523C49.1664 21.2523 47.9248 19.3896 47.9248 17.1388C47.9248 14.8881 49.1664 13.0254 51.65 13.0254C54.2113 13.0254 55.2204 14.9657 55.2204 16.8284V17.4493H49.3217C49.415 19.4827 50.4705 20.3209 51.7277 20.3209C52.7367 20.3209 53.5905 19.7777 53.8234 18.6911H55.1427C54.8321 20.1657 53.6682 21.2523 51.7277 21.2523ZM51.65 13.9567C50.4549 13.9567 49.5235 14.7173 49.3529 16.5179H53.8234C53.8234 14.7329 52.83 13.9567 51.65 13.9567Z" fill="black"/>
<path id="Vector_6" d="M36.749 21.0193V10.9297H38.7669L42.0266 19.4671L45.2863 10.9297H47.3045V21.0193H45.9848V12.3267L42.6474 21.0193H41.4058L38.0684 12.3267V21.0193H36.749Z" fill="black"/>
<path id="Vector_7" fill-rule="evenodd" clip-rule="evenodd" d="M16.507 31.2006C24.9007 31.2006 31.7052 24.3961 31.7052 16.0023C31.7052 7.60855 24.9007 0.804059 16.507 0.804059C8.11319 0.804059 1.3087 7.60855 1.3087 16.0023C1.3087 24.3961 8.11319 31.2006 16.507 31.2006ZM16.507 32.0005C25.3425 32.0005 32.5051 24.8379 32.5051 16.0023C32.5051 7.16676 25.3425 0.00415039 16.507 0.00415039C7.6714 0.00415039 0.508789 7.16676 0.508789 16.0023C0.508789 24.8379 7.6714 32.0005 16.507 32.0005Z" fill="black"/>
<path id="Vector_8" fill-rule="evenodd" clip-rule="evenodd" d="M18.9068 26.801C24.8708 26.801 29.7055 21.9662 29.7055 16.0022C29.7055 10.0382 24.8708 5.20347 18.9068 5.20347C12.9428 5.20347 8.10801 10.0382 8.10801 16.0022C8.10801 21.9662 12.9428 26.801 18.9068 26.801ZM18.9068 27.6009C25.3126 27.6009 30.5055 22.408 30.5055 16.0022C30.5055 9.59645 25.3126 4.40356 18.9068 4.40356C12.501 4.40356 7.30811 9.59645 7.30811 16.0022C7.30811 22.408 12.501 27.6009 18.9068 27.6009Z" fill="black"/>
<path id="Vector_9" fill-rule="evenodd" clip-rule="evenodd" d="M16.1068 22.0014C19.4202 22.0014 22.1062 19.3154 22.1062 16.0021C22.1062 12.6888 19.4202 10.0028 16.1068 10.0028C12.7935 10.0028 10.1075 12.6888 10.1075 16.0021C10.1075 19.3154 12.7935 22.0014 16.1068 22.0014ZM16.1068 22.8013C19.8619 22.8013 22.9061 19.7572 22.9061 16.0021C22.9061 12.247 19.8619 9.20288 16.1068 9.20288C12.3517 9.20288 9.30762 12.247 9.30762 16.0021C9.30762 19.7572 12.3517 22.8013 16.1068 22.8013Z" fill="black"/>
</g>
<defs>
<clipPath id="clip0_1573_3885">
<rect width="78.0398" height="31.9963" fill="white" transform="translate(0.508789 0.00415039)"/>
</clipPath>
</defs>
</svg>
