<svg width="107" height="24" viewBox="0 0 107 24" fill="none" xmlns="http://www.w3.org/2000/svg">
<g id="667495b60ad12e8caeabc97f_text_logo_vifi 1" clip-path="url(#clip0_1573_3853)">
<path id="Vector" d="M47.3486 12.7448H45.0777V15.1494H42.7065V17.5205H40.302V19.925H37.8975V17.6541H35.4929V15.2496H33.1218V12.8784H30.7173V3.2937H35.4262V10.3069H37.8307V12.7782H40.135V10.4405H42.5396V3.2937H47.3486V12.7448ZM65.0087 19.925H50.7485V17.5873H55.4574V5.73163H50.7485V3.2937H65.0087V5.59804H60.2998V17.4871H65.0087V19.925ZM84.0716 5.59804H72.2158V10.3069H81.7005V12.7448H72.2826V19.925H67.4401V3.2937H84.0716V5.59804ZM101.731 19.925H87.4712V17.5873H92.1801V5.73163H87.4712V3.2937H101.731V5.59804H97.0225V17.4871H101.731V19.925Z" fill="#101010"/>
<g id="Clip path group">
<mask id="mask0_1573_3853" style="mask-type:luminance" maskUnits="userSpaceOnUse" x="0" y="0" width="23" height="24">
<g id="clip0_35_40">
<path id="Vector_2" d="M22.3344 0.0847168H0.323242V23.6139H22.3344V0.0847168Z" fill="white"/>
</g>
</mask>
<g mask="url(#mask0_1573_3853)">
<g id="Group">
<g id="Mask group">
<mask id="mask1_1573_3853" style="mask-type:luminance" maskUnits="userSpaceOnUse" x="0" y="0" width="23" height="24">
<g id="Group_2">
<path id="Vector_3" d="M22.3344 0.0847168H0.323242V23.6139H22.3344V0.0847168Z" fill="white"/>
</g>
</mask>
<g mask="url(#mask1_1573_3853)">
<g id="Group_3">
<path id="Vector_4" fill-rule="evenodd" clip-rule="evenodd" d="M22.087 0.606427C22.1789 0.759412 22.2277 0.934113 22.2281 1.11221L22.2662 15.6287C22.2671 15.9892 22.071 16.3218 21.7541 16.4978L9.18924 23.4707C8.70697 23.7384 8.09734 23.5674 7.82764 23.0889C7.74418 22.9408 7.70035 22.7739 7.70035 22.6043V16.619C7.70035 16.2659 7.88939 15.9393 8.19684 15.7615L14.4876 12.1207C14.795 11.9428 14.984 11.6162 14.984 11.2631V4.21638C14.984 3.86663 15.1695 3.54269 15.4722 3.36364L20.7154 0.262043C21.19 -0.0187282 21.8041 0.135464 22.087 0.606427ZM7.53293 0.593C7.62076 0.743921 7.66698 0.915122 7.66698 1.08939V14.3291C7.66698 14.8775 7.21903 15.3219 6.66646 15.3219C6.49084 15.3219 6.31831 15.2761 6.16621 15.1889L0.888926 12.1656C0.579367 11.9883 0.388672 11.6605 0.388672 11.3058V4.1127C0.388672 3.75809 0.579367 3.43028 0.888926 3.25297L6.16621 0.229611C6.64476 -0.0445419 7.25665 0.118151 7.53293 0.593Z" fill="#101010"/>
</g>
</g>
</g>
</g>
</g>
</g>
</g>
<defs>
<clipPath id="clip0_1573_3853">
<rect width="106.451" height="24.0036" fill="white" transform="translate(0.380859 0.000488281)"/>
</clipPath>
</defs>
</svg>
