<svg width="24" height="25" viewBox="0 0 24 25" fill="none" xmlns="http://www.w3.org/2000/svg">
<g clip-path="url(#clip0_5430_4684)">
<path d="M24 12.5C24 5.87258 18.6274 0.5 12 0.5C5.37258 0.5 0 5.87258 0 12.5C0 19.1274 5.37258 24.5 12 24.5C18.6274 24.5 24 19.1274 24 12.5Z" fill="#2C3235"/>
<path fill-rule="evenodd" clip-rule="evenodd" d="M15 14.9H12V20.3C14.858 20.3 17.2917 18.4835 18.2095 15.942C18.4004 15.4132 17.973 14.9 17.4108 14.9H15.3H15Z" fill="#6FD021"/>
<path fill-rule="evenodd" clip-rule="evenodd" d="M14.7 7.40002C15.5284 7.40002 16.2 6.72844 16.2 5.90002H18.6V8.60002C18.6 9.09706 18.197 9.50002 17.7 9.50002H12V5.90002H13.2C13.2 6.72844 13.8716 7.40002 14.7 7.40002Z" fill="#6FD021"/>
<path fill-rule="evenodd" clip-rule="evenodd" d="M9.00003 14.9H12V20.3C9.14205 20.3 6.70833 18.4835 5.79057 15.942C5.59963 15.4132 6.02703 14.9 6.58923 14.9H8.70003H9.00003Z" fill="#B1E45D"/>
<path fill-rule="evenodd" clip-rule="evenodd" d="M9.2999 7.40002C8.47148 7.40002 7.7999 6.72844 7.7999 5.90002H5.3999V8.60002C5.3999 9.09706 5.80284 9.50002 6.2999 9.50002H11.9999V5.90002H10.7999C10.7999 6.72844 10.1283 7.40002 9.2999 7.40002Z" fill="#B1E45D"/>
<path d="M5.3999 12.2C5.3999 11.7029 5.80284 11.3 6.2999 11.3H17.6999C18.1969 11.3 18.5999 11.7029 18.5999 12.2C18.5999 12.697 18.1969 13.1 17.6999 13.1H6.2999C5.80284 13.1 5.3999 12.697 5.3999 12.2Z" fill="#6FD021"/>
<path fill-rule="evenodd" clip-rule="evenodd" d="M11.9999 11.3V13.1H6.2999C5.80284 13.1 5.3999 12.697 5.3999 12.2C5.3999 11.7029 5.80284 11.3 6.2999 11.3H11.9999Z" fill="#B1E45D"/>
</g>
<defs>
<clipPath id="clip0_5430_4684">
<rect width="24" height="24" fill="white" transform="translate(0 0.5)"/>
</clipPath>
</defs>
</svg>
