<svg width="24" height="25" viewBox="0 0 24 25" fill="none" xmlns="http://www.w3.org/2000/svg">
<g clip-path="url(#clip0_5430_4692)">
<path d="M23.7645 12.5C23.7645 5.87258 18.4973 0.5 11.9998 0.5C5.50235 0.5 0.235107 5.87258 0.235107 12.5C0.235107 19.1274 5.50235 24.5 11.9998 24.5C18.4973 24.5 23.7645 19.1274 23.7645 12.5Z" fill="#2C3235"/>
<path d="M15.5295 16.7L19.0589 9.20005L15.2354 11.6L14.7942 6.80005L12.0001 11L9.353 6.80005L8.76476 11.6L5.23535 9.20005L8.47065 16.7L12.0001 18.5L15.5295 16.7Z" fill="#EEAB00"/>
<path d="M15.5295 16.7L19.0589 9.20005L15.2354 11.6L14.7942 6.80005L12.0001 11L9.353 6.80005L8.76476 11.6L5.23535 9.20005L8.47065 16.7L12.0001 18.5L15.5295 16.7Z" fill="url(#paint0_linear_5430_4692)"/>
<path d="M12 11L14.7941 6.80005L13.4706 13.4L12 11Z" fill="#EEAB00"/>
<path d="M8.6177 13.1L9.353 6.80005L12.0001 18.5L8.47065 16.7L5.23535 9.20005L8.6177 13.1Z" fill="#EEAB00"/>
<path d="M14.6469 7.70005C15.2967 7.70005 15.8234 7.16279 15.8234 6.50005C15.8234 5.83731 15.2967 5.30005 14.6469 5.30005C13.9972 5.30005 13.4705 5.83731 13.4705 6.50005C13.4705 7.16279 13.9972 7.70005 14.6469 7.70005Z" fill="#EEAB00"/>
<path d="M14.6469 7.70005C15.2967 7.70005 15.8234 7.16279 15.8234 6.50005C15.8234 5.83731 15.2967 5.30005 14.6469 5.30005C13.9972 5.30005 13.4705 5.83731 13.4705 6.50005C13.4705 7.16279 13.9972 7.70005 14.6469 7.70005Z" fill="url(#paint1_linear_5430_4692)"/>
<path d="M19.0588 10.1C19.7085 10.1 20.2353 9.56275 20.2353 8.90001C20.2353 8.23727 19.7085 7.70001 19.0588 7.70001C18.409 7.70001 17.8823 8.23727 17.8823 8.90001C17.8823 9.56275 18.409 10.1 19.0588 10.1Z" fill="#EEAB00"/>
<path d="M19.0588 10.1C19.7085 10.1 20.2353 9.56275 20.2353 8.90001C20.2353 8.23727 19.7085 7.70001 19.0588 7.70001C18.409 7.70001 17.8823 8.23727 17.8823 8.90001C17.8823 9.56275 18.409 10.1 19.0588 10.1Z" fill="url(#paint2_linear_5430_4692)"/>
<path d="M4.94112 10.1C5.59087 10.1 6.11759 9.56275 6.11759 8.90001C6.11759 8.23727 5.59087 7.70001 4.94112 7.70001C4.29137 7.70001 3.76465 8.23727 3.76465 8.90001C3.76465 9.56275 4.29137 10.1 4.94112 10.1Z" fill="#EEAB00"/>
<path d="M4.94112 10.1C5.59087 10.1 6.11759 9.56275 6.11759 8.90001C6.11759 8.23727 5.59087 7.70001 4.94112 7.70001C4.29137 7.70001 3.76465 8.23727 3.76465 8.90001C3.76465 9.56275 4.29137 10.1 4.94112 10.1Z" fill="url(#paint3_linear_5430_4692)"/>
<path d="M9.35298 7.70005C10.0027 7.70005 10.5295 7.16279 10.5295 6.50005C10.5295 5.83731 10.0027 5.30005 9.35298 5.30005C8.70324 5.30005 8.17651 5.83731 8.17651 6.50005C8.17651 7.16279 8.70324 7.70005 9.35298 7.70005Z" fill="#EEAB00"/>
<path d="M9.35298 7.70005C10.0027 7.70005 10.5295 7.16279 10.5295 6.50005C10.5295 5.83731 10.0027 5.30005 9.35298 5.30005C8.70324 5.30005 8.17651 5.83731 8.17651 6.50005C8.17651 7.16279 8.70324 7.70005 9.35298 7.70005Z" fill="url(#paint4_linear_5430_4692)"/>
<path d="M6.11768 18.5C6.11768 17.5059 6.90775 16.7 7.88238 16.7H16.1177C17.0923 16.7 17.8824 17.5059 17.8824 18.5V19.7H6.11768V18.5Z" fill="#EEAB00"/>
<path d="M10.2354 16.7H16.1177C17.0923 16.7 17.8824 17.5059 17.8824 18.5V19.7H10.2354V16.7Z" fill="url(#paint5_linear_5430_4692)"/>
</g>
<defs>
<linearGradient id="paint0_linear_5430_4692" x1="12.1471" y1="6.80005" x2="12.1471" y2="18.5" gradientUnits="userSpaceOnUse">
<stop stop-color="#FFF5BE"/>
<stop offset="1" stop-color="#F0BE0B"/>
</linearGradient>
<linearGradient id="paint1_linear_5430_4692" x1="14.6469" y1="5.30005" x2="14.6469" y2="7.70005" gradientUnits="userSpaceOnUse">
<stop stop-color="#FFF5BE"/>
<stop offset="1" stop-color="#F0BE0B"/>
</linearGradient>
<linearGradient id="paint2_linear_5430_4692" x1="19.0588" y1="7.70001" x2="19.0588" y2="10.1" gradientUnits="userSpaceOnUse">
<stop stop-color="#FFF5BE"/>
<stop offset="1" stop-color="#F0BE0B"/>
</linearGradient>
<linearGradient id="paint3_linear_5430_4692" x1="4.94112" y1="7.70001" x2="4.94112" y2="10.1" gradientUnits="userSpaceOnUse">
<stop stop-color="#FFF5BE"/>
<stop offset="1" stop-color="#F0BE0B"/>
</linearGradient>
<linearGradient id="paint4_linear_5430_4692" x1="9.35298" y1="5.30005" x2="9.35298" y2="7.70005" gradientUnits="userSpaceOnUse">
<stop stop-color="#FFF5BE"/>
<stop offset="1" stop-color="#F0BE0B"/>
</linearGradient>
<linearGradient id="paint5_linear_5430_4692" x1="14.0589" y1="16.7" x2="14.0589" y2="19.7" gradientUnits="userSpaceOnUse">
<stop stop-color="#FFF5BE"/>
<stop offset="1" stop-color="#F0BE0B"/>
</linearGradient>
<clipPath id="clip0_5430_4692">
<rect width="24" height="24" fill="white" transform="translate(0 0.5)"/>
</clipPath>
</defs>
</svg>
