<svg width="56" height="57" viewBox="0 0 56 57" fill="none" xmlns="http://www.w3.org/2000/svg">
<rect y="0.5" width="56" height="56" rx="28" fill="#06070A"/>
<path d="M27.3322 19.3049L25.3711 34.3032" stroke="white" stroke-width="1.82762"/>
<path d="M11.6869 32.9474L18.7404 28.08L24.546 34.014L37.498 31.1235L44.5572 33.825L27.9973 47.54L11.6869 32.9474Z" fill="white"/>
<mask id="mask0_1911_534" style="mask-type:luminance" maskUnits="userSpaceOnUse" x="11" y="28" width="34" height="20">
<path d="M11.6869 32.9474L18.7404 28.08L24.546 34.014L37.498 31.1235L44.5572 33.825L27.9973 47.54L11.6869 32.9474Z" fill="white"/>
</mask>
<g mask="url(#mask0_1911_534)">
<path d="M25.3711 33.4224L27.9973 47.54" stroke="black" stroke-width="1.82762"/>
</g>
<path fill-rule="evenodd" clip-rule="evenodd" d="M27.9889 9.46002L18.7403 16.8458L11.2 32.3793L27.9889 47.54L44.8 33.5835L35.924 14.5395L27.9889 9.46002Z" stroke="white" stroke-width="1.82762"/>
<path d="M18.7404 16.8458L27.1342 19.3049L35.9241 14.5394" stroke="white" stroke-width="1.82762"/>
</svg>
