<svg width="1200" height="1200" viewBox="0 0 1200 1200" fill="none" xmlns="http://www.w3.org/2000/svg">
<rect width="1200" height="1200" fill="black" x="0" rx="172"/>
<path d="M256.569 543.431L543.431 256.569C574.673 225.327 625.327 225.327 656.568 256.569L943.431 543.431C974.673 574.673 974.673 625.327 943.431 656.569L656.568 943.431C625.327 974.673 574.673 974.673 543.431 943.431L256.569 656.569C225.327 625.327 225.327 574.673 256.569 543.431Z" stroke="white" stroke-width="50" stroke-linejoin="round"/>
<path d="M398.52 400L541.951 256.569C573.193 225.327 623.846 225.327 655.088 256.569L798.52 400L598.519 600L398.52 400Z" fill="white"/>
<path d="M399 800L599 600L799 800L655.568 943.431C624.327 974.673 573.673 974.673 542.431 943.431L399 800Z" fill="white"/>
</svg>
