<svg width="24" height="25" viewBox="0 0 24 25" fill="none" xmlns="http://www.w3.org/2000/svg">
<g clip-path="url(#clip0_5430_4680)">
<path d="M24 12.5C24 5.87258 18.6274 0.5 12 0.5C5.37258 0.5 0 5.87258 0 12.5C0 19.1274 5.37258 24.5 12 24.5C18.6274 24.5 24 19.1274 24 12.5Z" fill="#2C3235"/>
<path fill-rule="evenodd" clip-rule="evenodd" d="M11.9999 4.50943V7.57987C10.3273 8.19091 8.79865 8.85655 7.44265 9.52135C8.81539 7.19047 10.2531 5.65497 11.1379 4.83144C11.3851 4.60131 11.6943 4.49566 11.9999 4.50943ZM5.8039 12.8476C5.90302 12.6053 6.08179 12.4045 6.31033 12.2768C7.86271 11.4102 9.78613 10.4756 11.9999 9.62833V11.4199C9.30757 12.4034 6.98839 13.5284 5.16173 14.5637C5.35185 14.0065 5.56511 13.4312 5.8039 12.8476ZM4.31993 17.78C4.21839 18.2099 4.26973 18.6247 4.49992 18.92C4.88492 19.4138 5.59853 19.5828 6.27703 19.2903C7.95313 18.5676 10.1654 17.8 11.9999 17.8V13.4683C9.63613 14.3729 7.60339 15.3773 5.99993 16.292C5.42219 16.6216 4.48812 17.0679 4.31993 17.78Z" fill="#F5865B"/>
<path fill-rule="evenodd" clip-rule="evenodd" d="M12 4.50943V7.57987C13.6726 8.19091 15.2012 8.85655 16.5572 9.52135C15.1845 7.19047 13.7468 5.65497 12.862 4.83144C12.6148 4.60131 12.3056 4.49566 12 4.50943ZM18.196 12.8476C18.0968 12.6053 17.9181 12.4045 17.6896 12.2768C16.1372 11.4102 14.2138 10.4756 12 9.62833V11.4199C14.6923 12.4034 17.0115 13.5284 18.8381 14.5637C18.6481 14.0065 18.4348 13.4312 18.196 12.8476ZM19.6799 17.78C19.7815 18.2099 19.7302 18.6247 19.4999 18.92C19.115 19.4138 18.4013 19.5828 17.7229 19.2903C16.0468 18.5676 13.8345 17.8 12 17.8V13.4683C14.3638 14.3729 16.3965 15.3773 17.9999 16.292C18.5777 16.6216 19.5118 17.0679 19.6799 17.78Z" fill="#EA592D"/>
</g>
<defs>
<clipPath id="clip0_5430_4680">
<rect width="24" height="24" fill="white" transform="translate(0 0.5)"/>
</clipPath>
</defs>
</svg>
