<svg width="48" height="49" viewBox="0 0 48 49" fill="none" xmlns="http://www.w3.org/2000/svg">
<g clip-path="url(#clip0_6789_526)">
<rect x="-0.00683594" y="0.503174" width="47.9937" height="47.9937" rx="23.9969" fill="white"/>
<path d="M39.1269 10.5754L37.8091 11.8932C40.9535 15.3319 42.6973 19.8228 42.6973 24.4825C42.6973 29.1421 40.9535 33.633 37.8091 37.0717L39.1269 38.3895C42.6238 34.5964 44.5653 29.6262 44.5653 24.4671C44.5653 19.308 42.6238 14.3378 39.1269 10.5447V10.5754Z" fill="#5A5564"/>
<path d="M11.414 10.6896C14.8526 7.54513 19.3436 5.80136 24.0032 5.80136C28.6628 5.80136 33.1538 7.54513 36.5924 10.6896L37.9102 9.37179C34.1171 5.87483 29.1469 3.93335 23.9878 3.93335C18.8287 3.93335 13.8585 5.87483 10.0654 9.37179L11.414 10.6896Z" fill="#5A5564"/>
<path d="M10.1796 37.0849C7.03884 33.647 5.29738 29.1588 5.29738 24.5022C5.29738 19.8457 7.03884 15.3575 10.1796 11.9196L8.86178 10.6018C5.36482 14.3949 3.42334 19.3651 3.42334 24.5242C3.42334 29.6833 5.36482 34.6535 8.86178 38.4466L10.1796 37.0849Z" fill="#5A5564"/>
<path d="M36.5749 38.3016C33.1362 41.4461 28.6453 43.1899 23.9856 43.1899C19.326 43.1899 14.8351 41.4461 11.3964 38.3016L10.0786 39.6194C13.8717 43.1164 18.8419 45.0579 24.001 45.0579C29.1601 45.0579 34.1303 43.1164 37.9234 39.6194L36.5749 38.3016Z" fill="#5A5564"/>
<path d="M32.3096 20.1031C32.046 17.3533 29.674 16.4308 26.6738 16.1497V12.3633H24.3545V16.0794C23.744 16.0794 23.1202 16.0794 22.5009 16.0794V12.3633H20.1991V16.1761H15.4946V18.6579C15.4946 18.6579 17.2077 18.6272 17.1814 18.6579C17.4903 18.6239 17.8003 18.7112 18.0461 18.9013C18.2919 19.0914 18.4544 19.3695 18.4992 19.677V30.1139C18.4926 30.2223 18.4643 30.3283 18.416 30.4256C18.3677 30.523 18.3004 30.6096 18.2181 30.6805C18.1372 30.7527 18.0427 30.8078 17.94 30.8426C17.8373 30.8773 17.7287 30.8909 17.6207 30.8826C17.6514 30.9089 15.9339 30.8826 15.9339 30.8826L15.4946 33.6543H20.1552V37.5286H22.4745V33.7114H24.3282V37.511H26.6519V33.6807C30.5701 33.4435 33.3023 32.4771 33.6449 28.8092C33.9217 25.8574 32.5336 24.5396 30.3153 24.0081C31.6639 23.3448 32.4984 22.1149 32.3096 20.1031ZM29.059 28.3524C29.059 31.234 24.1217 30.9045 22.5492 30.9045V25.7915C24.1217 25.7959 29.059 25.3435 29.059 28.3524ZM27.9828 21.1485C27.9828 23.7841 23.8626 23.4634 22.5536 23.4634V18.816C23.8626 18.816 27.9828 18.4031 27.9828 21.1485Z" fill="#F09242"/>
<path d="M23.9857 48.4969C19.2399 48.4961 14.601 47.088 10.6554 44.4509C6.70977 41.8137 3.63471 38.0659 1.81899 33.6812C0.00326551 29.2966 -0.471582 24.4719 0.454482 19.8174C1.38055 15.1629 3.66594 10.8875 7.0217 7.5317C10.3775 4.17595 14.6529 1.89056 19.3074 0.964492C23.9619 0.0384275 28.7865 0.513275 33.1712 2.329C37.5559 4.14472 41.3037 7.21978 43.9409 11.1654C46.578 15.111 47.986 19.7499 47.9869 24.4957C47.9875 27.6477 47.3671 30.769 46.1611 33.6812C44.9551 36.5935 43.1872 39.2396 40.9584 41.4684C38.7296 43.6972 36.0835 45.4651 33.1712 46.6711C30.259 47.8771 27.1377 48.4975 23.9857 48.4969ZM23.9857 2.37444C19.6133 2.37791 15.3402 3.67752 11.7063 6.10899C8.07248 8.54045 5.241 11.9946 3.5698 16.035C1.89859 20.0753 1.46269 24.5203 2.31717 28.8083C3.17166 33.0963 5.27817 37.0348 8.37047 40.1258C11.4628 43.2169 15.402 45.3219 19.6904 46.1746C23.9787 47.0274 28.4236 46.5897 32.4633 44.9169C36.5029 43.2441 39.956 40.4113 42.386 36.7765C44.816 33.1416 46.1139 28.868 46.1157 24.4957C46.1168 21.5896 45.5451 18.7118 44.4333 16.0268C43.3215 13.3419 41.6913 10.9024 39.636 8.84791C37.5807 6.79342 35.1405 5.16421 32.4551 4.05344C29.7697 2.94267 26.8917 2.37213 23.9857 2.37444Z" fill="#282138"/>
</g>
<defs>
<clipPath id="clip0_6789_526">
<rect x="-0.00683594" y="0.503174" width="47.9937" height="47.9937" rx="23.9969" fill="white"/>
</clipPath>
</defs>
</svg>
