<svg width="56" height="57" viewBox="0 0 56 57" fill="none" xmlns="http://www.w3.org/2000/svg">
<g clip-path="url(#clip0_1898_346)">
<path d="M56 0.5H0V56.5H56V0.5Z" fill="#00A3FF"/>
<path d="M16.5143 26.5131L16.2009 26.994C12.6652 32.4177 13.4549 39.521 18.0994 44.0717C20.8317 46.7489 24.4127 48.0876 27.9939 48.0881C27.9939 48.0881 27.9939 48.0881 16.5143 26.5131Z" fill="white"/>
<path opacity="0.6" d="M27.993 33.0702L16.5134 26.5131C27.993 48.0881 27.993 48.0881 27.993 48.0881C27.993 43.3892 27.993 38.0049 27.993 33.0702Z" fill="white"/>
<path opacity="0.6" d="M39.4857 26.5131L39.7991 26.994C43.3348 32.4177 42.5451 39.521 37.9006 44.0717C35.1683 46.7489 31.5873 48.0876 28.0061 48.0881C28.0061 48.0881 28.0061 48.0881 39.4857 26.5131Z" fill="white"/>
<path opacity="0.2" d="M28.0049 33.0702L39.4844 26.5131C28.005 48.0881 28.0049 48.0881 28.0049 48.0881C28.0049 43.3892 28.0049 38.0049 28.0049 33.0702Z" fill="white"/>
<path opacity="0.2" d="M28.0068 18.4193V29.7286L37.8952 24.0776L28.0068 18.4193Z" fill="white"/>
<path opacity="0.6" d="M28.0085 18.4193L18.113 24.0775L28.0085 29.7286V18.4193Z" fill="white"/>
<path d="M28.0085 8.9082L18.113 24.0811L28.0085 18.4071V8.9082Z" fill="white"/>
<path opacity="0.6" d="M28.0068 18.4054L37.9028 24.0797L28.0068 8.89923V18.4054Z" fill="white"/>
</g>
<defs>
<clipPath id="clip0_1898_346">
<rect y="0.5" width="56" height="56" rx="28" fill="white"/>
</clipPath>
</defs>
</svg>
